<?xml version="1.0" encoding="utf-8"?>
<!-- Generator: Adobe Illustrator 21.1.0, SVG Export Plug-In . SVG Version: 6.00 Build 0)  -->
<svg version="1.1" id="Calque_1" xmlns="http://www.w3.org/2000/svg" xmlns:xlink="http://www.w3.org/1999/xlink" x="0px" y="0px"
	 viewBox="0 0 118.7 195.1" style="enable-background:new 0 0 118.7 195.1;" xml:space="preserve">
<style type="text/css">
	.st0{fill:#FFFFFF;}
	.st1{fill:#4E96B3;}
	.st2{opacity:0.23;}
	.st3{fill:#464646;}
</style>
<title>game2_bt_continuer</title>
<g id="Calque_2">
	<g id="boutons">
		<circle class="st0" cx="59.3" cy="56.7" r="51.7"/>
		<path class="st1" d="M115,53.5v6.6c-0.1,0.3-0.1,0.6-0.2,0.9c-0.4,2.7-0.7,5.4-1.3,8.1c-1.3,5.9-3.6,11.6-6.8,16.7
			c-3.1,5.1-7,9.6-11.6,13.5c-3.5,2.9-7.3,5.4-11.4,7.4c-4.8,2.4-10,4-15.2,4.9c-1.9,0.3-3.9,0.5-5.8,0.8H56
			c-0.3-0.1-0.6-0.1-0.9-0.2c-5-0.4-10-1.5-14.8-3.2c-19.2-7-33-24-36-44.3c-0.2-1.6-0.4-3.2-0.6-4.7c0-2.2,0-4.4,0-6.6
			c0.1-0.3,0.2-0.7,0.2-1c0.3-3.7,1-7.3,2-10.8c1.5-5.2,3.7-10.1,6.6-14.6c8.4-13.2,22-22.3,37.4-25c2-0.3,4.1-0.6,6.1-0.9h6.8
			l0.9,0.2c2.7,0.4,5.4,0.7,8.1,1.3C77.5,3.7,83.1,6,88.2,9.1c5.3,3.2,10,7.2,13.9,12c2.9,3.6,5.4,7.5,7.4,11.6
			c2.4,5,4,10.4,4.8,15.9C114.6,50.3,114.8,51.9,115,53.5z M59.5,12.2C34.9,12.1,14.9,32,14.9,56.6c-0.1,24.6,19.8,44.5,44.4,44.6
			c23.5,0.1,43.1-18.2,44.5-41.7c1.6-24.5-17-45.6-41.4-47.2C61.4,12.2,60.4,12.2,59.5,12.2L59.5,12.2z"/>
		<path class="st1" d="M45.5,57.2c0-5.4,0-10.8,0-16.2c0-0.3,0-0.7,0-0.9c0.1-2.9,2.2-4,4.7-2.6c1.1,0.6,2.3,1.3,3.4,2l19.9,11.5
			c2.1,1.2,4.3,2.4,6.3,3.8c2.1,1.3,2.1,3.6,0,5c-0.4,0.3-0.8,0.6-1.3,0.8c-6.1,3.5-12.2,7-18.3,10.6c-3.4,2-6.7,3.9-10.2,5.8
			c-2.3,1.3-4.3,0-4.4-2.6c-0.1-5.7,0-11.4,0-17.1H45.5z"/>
		<g class="st2">
			<path class="st3" d="M109.5,32.8c-2-4.2-4.5-8.1-7.4-11.6c-3.9-4.8-8.6-8.8-13.9-12C83.1,6,77.6,3.7,71.7,2.5
				c-2.7-0.5-5.4-0.9-8.1-1.3L62.7,1h-3.2v11.2c24.6,0,44.5,19.9,44.5,44.5s-19.9,44.5-44.5,44.5v11.2h3.2c1.9-0.3,3.9-0.5,5.8-0.8
				c5.3-0.9,10.4-2.5,15.2-4.9c4.1-2,7.9-4.5,11.4-7.4c4.6-3.8,8.5-8.4,11.6-13.5c3.2-5.1,5.5-10.8,6.8-16.7
				c0.6-2.7,0.9-5.4,1.3-8.1c0-0.3,0.1-0.6,0.2-0.9v-6.6c-0.2-1.6-0.4-3.2-0.6-4.8C113.6,43.2,112,37.8,109.5,32.8z"/>
			<path class="st3" d="M78.5,60.5c0.4-0.3,0.9-0.5,1.3-0.8c2.1-1.4,2.1-3.6,0-5s-4.2-2.5-6.3-3.8l-13.9-8.1v28.6l0.7-0.4
				C66.3,67.6,72.4,64.1,78.5,60.5z"/>
		</g>
		<path class="st0" d="M21.6,146.1c-0.6,2.9-2.4,4.3-5.2,4.3c-2.3,0-3.5-1-3.5-2.9c0-0.5,0.1-0.9,0.2-1.4l2.7-12.6
			c0.6-2.9,2.4-4.3,5.2-4.3c2.3,0,3.5,1,3.5,2.9c0,0.5-0.1,0.9-0.2,1.4l-0.6,2.8h-3l0.6-2.8c0-0.2,0.1-0.3,0.1-0.5
			c0-0.6-0.4-0.9-1.1-0.9l0,0c-0.8,0-1.5,0.6-1.6,1.4l-2.7,12.6c0,0.2-0.1,0.3-0.1,0.5c0,0.6,0.4,0.9,1.1,0.9c0.8,0,1.5-0.6,1.6-1.4
			l0.6-2.8h2.9L21.6,146.1z"/>
		<path class="st0" d="M33.2,146.1c-0.6,2.9-2.4,4.3-5.2,4.3c-2.3,0-3.5-1-3.5-2.9c0-0.5,0.1-0.9,0.2-1.4l2.7-12.6
			c0.6-2.9,2.4-4.3,5.2-4.3c2.3,0,3.5,1,3.5,2.9c0,0.5-0.1,0.9-0.2,1.4L33.2,146.1z M32.9,133.5c0-0.2,0.1-0.3,0.1-0.5
			c0-0.6-0.4-0.9-1.1-0.9l0,0c-0.8,0-1.5,0.6-1.6,1.4l-2.7,12.6c0,0.2-0.1,0.3-0.1,0.5c0,0.6,0.4,0.9,1.1,0.9c0.8,0,1.5-0.6,1.6-1.4
			L32.9,133.5z"/>
		<path class="st0" d="M40.1,129.5h2.9l0.3,11.9l2.5-11.9h2.7L44.3,150h-3l-0.3-11.6L38.6,150h-2.8L40.1,129.5z"/>
		<path class="st0" d="M59.9,129.5l-0.6,2.9h-2.8L52.7,150h-2.9l3.8-17.6h-2.8l0.6-2.9L59.9,129.5z"/>
		<path class="st0" d="M62.7,129.5h3L61.3,150h-3L62.7,129.5z"/>
		<path class="st0" d="M69.3,129.5h3l0.3,11.9l2.5-11.9h2.7L73.4,150h-2.9l-0.3-11.6L67.8,150H65L69.3,129.5z"/>
		<path class="st0" d="M86.3,146.1c-0.6,2.9-2.4,4.3-5.2,4.3c-2.3,0-3.5-1-3.5-2.9c0-0.5,0.1-0.9,0.2-1.4l3.5-16.6h3L80.7,146
			c0,0.2-0.1,0.3-0.1,0.5c0,0.6,0.4,0.9,1.1,0.9c0.8,0,1.5-0.6,1.6-1.4l3.5-16.6h3L86.3,146.1z"/>
		<path class="st0" d="M93.3,129.5h7.7l-0.6,2.9h-4.7l-1.3,5.9h4.1l-0.6,2.9h-4.1l-1.3,5.9h4.7l-0.6,2.9h-7.7L93.3,129.5z"/>
		<path class="st0" d="M110.5,131.3l-7.4,15.9h4.2l-0.6,2.9h-7.5l0.4-1.8l7.3-15.9H103l0.6-2.9h7.2L110.5,131.3z"/>
		<path class="st0" d="M6.9,183.7v-27.2h4.5v22.8h6.1v4.3L6.9,183.7z"/>
		<path class="st0" d="M32.4,173.9l1.3,9.7h-4.5l-0.7-5.6h-3.3l-0.8,5.6h-4.6L21,174l2.8-17.5h5.9L32.4,173.9z M27.8,173.7l-1.1-8.2
			l-1.1,8.2L27.8,173.7z"/>
		<path class="st0" d="M53.8,183.7h-5.9l-2.8-17.5l-1.3-9.7h4.6l2.4,21.3l2.4-21.3h4.6l-1.3,9.7L53.8,183.7z"/>
		<path class="st0" d="M61.3,156.5h4.5v27.2h-4.5V156.5z"/>
		<path class="st0" d="M70.6,156.5h6.3c3.6,0,5.5,2,5.5,5.9v15.4c0,3.9-1.9,5.9-5.7,5.9h-6.1V156.5z M75.1,160.8v18.5h1.3
			c0.9,0,1.4-0.5,1.4-1.5v-15.4c0-1-0.4-1.5-1.3-1.5L75.1,160.8z"/>
		<path class="st0" d="M86.6,156.5h10.6v4.3h-6.1v7.1h5.3v4.3h-5.3v7h6.1v4.3H86.6V156.5z M96.8,153.5l-3.9,2.6H89l4.3-4h3.5V153.5z
			"/>
		<path class="st0" d="M112,178.2c0,3.9-2,5.9-5.9,5.9s-5.9-2-5.8-5.9v-16.3c0-3.9,1.9-5.9,5.8-5.9s5.9,2,5.9,5.9L112,178.2z
			 M107.5,161.9c0-1-0.4-1.5-1.3-1.5l0,0c-0.9,0-1.3,0.5-1.3,1.5v16.3c0,1,0.4,1.5,1.3,1.5c0.9,0,1.3-0.5,1.3-1.5L107.5,161.9z"/>
	</g>
</g>
</svg>
