<svg xmlns="http://www.w3.org/2000/svg" viewBox="0 0 1136.36 82.42"><defs><style>.cls-1{fill:#fcc600;}.cls-2{fill:#4e96b3;}</style></defs><title>bt_goto_03</title><g id="Calque_2" data-name="Calque 2"><g id="voir_le_prochaine_LETTRE" data-name="voir le prochaine LETTRE"><rect class="cls-1" width="1136.36" height="82.42" rx="41.21" ry="41.21"/><path class="cls-2" d="M46.89,58.55H39.38L35.5,36.84,33.72,25h5.54l3.85,25.87L47,25h5.54L50.74,36.88Z"/><path class="cls-2" d="M71.16,52.1q0,7-7.88,7.07T55.43,52.1V31.56q0-7,7.86-7t7.88,7ZM65.69,31.56q0-2.27-2.38-2.27h0q-2.36,0-2.36,2.27V52.1q0,2.27,2.38,2.27t2.4-2.27Z"/><path class="cls-2" d="M75.91,25h5.48V58.55H75.91Z"/><path class="cls-2" d="M86.52,25h8q7.3,0,7.3,7.07v5a5.67,5.67,0,0,1-4.32,5.85l6.16,15.62h-6L92.69,43.77l-.7.1V58.55H86.52ZM92,29.74v9.62h1.26a6,6,0,0,0,1.57-.13,2.08,2.08,0,0,0,1.49-2.15V32a2.07,2.07,0,0,0-2.38-2.3Z"/><path class="cls-2" d="M116,58.55V25h5.48V53.76h8.73v4.78Z"/><path class="cls-2" d="M133.46,25h14.21v4.76h-8.73v9.62h7.51v4.8h-7.51v9.6h8.73v4.78H133.46Z"/><path class="cls-2" d="M161.58,25h8q7.3,0,7.3,7.07v5q0,5.21-5.25,6.72a13.8,13.8,0,0,1-3.66.37h-.89V58.55h-5.48Zm5.48,4.76v9.62h1.26a6,6,0,0,0,1.57-.13,2.08,2.08,0,0,0,1.49-2.15V32a2.07,2.07,0,0,0-2.38-2.3Z"/><path class="cls-2" d="M180.92,25h8q7.3,0,7.3,7.07v5a5.67,5.67,0,0,1-4.32,5.85L198,58.55h-6l-4.94-14.77-.7.1V58.55h-5.48Zm5.48,4.76v9.62h1.26a6,6,0,0,0,1.57-.13,2.08,2.08,0,0,0,1.49-2.15V32a2.07,2.07,0,0,0-2.38-2.3Z"/><path class="cls-2" d="M215.57,52.1q0,7-7.88,7.07t-7.86-7.07V31.56q0-7,7.86-7t7.88,7Zm-5.48-20.54q0-2.27-2.38-2.27h0q-2.36,0-2.36,2.27V52.1q0,2.27,2.38,2.27t2.4-2.27Z"/><path class="cls-2" d="M235.57,52.1q0,7-7.88,7.07t-7.86-7.07V31.56q0-7,7.86-7t7.88,7v4.51h-5.48V31.56q0-2.27-2.38-2.27h0q-2.36,0-2.36,2.27V52.1q0,2.27,2.38,2.27t2.4-2.27V47.59h5.48Z"/><path class="cls-2" d="M240,25h5.48V39.36h4.78V25h5.48V58.55h-5.48V44.16H245.5V58.55H240Z"/><path class="cls-2" d="M276.07,46.64l1.78,11.91h-5.54l-1.06-7.12h-5.6l-1.08,7.12h-5.52l1.78-11.87L264.7,25h7.51Zm-5.54,0-2.09-14-2.09,14Z"/><path class="cls-2" d="M281.24,25h5.48V58.55h-5.48Z"/><path class="cls-2" d="M291.85,25h5.48l5.19,19.48V25h5.07V58.55h-5.48l-5-18.86V58.55h-5.27Z"/><path class="cls-2" d="M322.45,25h14.21v4.76h-8.73v9.62h7.51v4.8h-7.51v9.6h8.73v4.78H322.45Zm7-1.37h-3l2.75-4.9h4.3Z"/><path class="cls-2" d="M340.73,25h8Q356,25,356,32v5q0,5.21-5.25,6.72a13.8,13.8,0,0,1-3.66.37h-.89V58.55h-5.48Zm5.48,4.76v9.62h1.26a6,6,0,0,0,1.57-.13,2.08,2.08,0,0,0,1.49-2.15V32a2.07,2.07,0,0,0-2.38-2.3Z"/><path class="cls-2" d="M360.17,25h5.48V58.55h-5.48Z"/><path class="cls-2" d="M370.39,31.56q0-7,7.86-7t7.88,7v4.51h-5.48V31.56q0-2.27-2.38-2.27h0q-2.36,0-2.36,2.27v3q0,2.24,5.13,5.5t5.13,7.76V52.1q0,7.07-7.86,7.07t-7.88-7.07V47.59h5.48V52.1q0,2.27,2.4,2.27t2.38-2.27V48.27q0-2.44-5.13-5.69t-5.13-7.86Z"/><path class="cls-2" d="M406.13,52.1q0,7-7.88,7.07t-7.86-7.07V31.56q0-7,7.86-7t7.88,7Zm-5.48-20.54q0-2.27-2.38-2.27h0q-2.36,0-2.36,2.27V52.1q0,2.27,2.38,2.27t2.4-2.27Z"/><path class="cls-2" d="M410.77,25h8.44q7.3,0,7.3,7.07V51.5q0,7-7.65,7h-8.09Zm5.48,4.76v24h2.4q2.38,0,2.38-2.27V32a2.07,2.07,0,0,0-2.38-2.3Z"/><path class="cls-2" d="M431.16,25h14.21v4.76h-8.73v9.62h7.51v4.8h-7.51v9.6h8.73v4.78H431.16Z"/><path class="cls-2" d="M466,33.16h-6.78V27.59l2.07-7h3.56l-1.12,6.33H466Zm9.49,0h-6.78V27.59l2.07-7h3.56l-1.12,6.33h2.26Z"/><path class="cls-2" d="M487.61,20.56h8q5.92,0,5.92,5.27a12.9,12.9,0,0,1-.33,2.73L500,34.27a8.35,8.35,0,0,1-5.73,6.6l2.4,17.68h-6l-1.39-16.71-.72.1L485,58.55h-5.48ZM492,26l-2.32,10.88h1.26a5.7,5.7,0,0,0,1.61-.16,3.07,3.07,0,0,0,2-2.42l1.2-5.71a4,4,0,0,0,.12-.89q0-1.7-1.94-1.7Z"/><path class="cls-2" d="M507.83,20.56H522L520.89,26h-8.73l-2.32,10.88h7.51l-1.14,5.42H508.7l-2.32,10.88h8.73L514,58.55H499.75Zm6.31-1.47h-3l3.78-4.9h4.3Z"/><path class="cls-2" d="M526.1,20.56h8.44q5.92,0,5.92,5.27a12.9,12.9,0,0,1-.33,2.73l-4.67,22q-1.7,8-9.35,8H518Zm4.34,5.4-5.79,27.18h2.4A2.83,2.83,0,0,0,530,50.57l4.67-22a4,4,0,0,0,.12-.89q0-1.7-1.94-1.7Z"/><path class="cls-2" d="M546.58,20.56h5.48l-8.07,38h-5.48Z"/><path class="cls-2" d="M566,51.17q-1.7,8-9.58,8-6.47,0-6.47-5.4a12.34,12.34,0,0,1,.31-2.59l4.94-23.23q1.7-8,9.56-8,6.49,0,6.49,5.4a12.08,12.08,0,0,1-.31,2.57L569.89,33h-5.48l1.08-5.11a4.21,4.21,0,0,0,.1-.85q0-1.71-1.94-1.72h0a2.79,2.79,0,0,0-2.9,2.57l-4.94,23.23a4.49,4.49,0,0,0-.1.87q0,1.7,1.94,1.7a2.81,2.81,0,0,0,2.94-2.57l1.9-8.91h-2.77l1.14-5.42h8.25Z"/><path class="cls-2" d="M577.19,20.56H591.4L590.26,26h-8.73L579.2,36.84h7.51l-1.14,5.42h-7.51l-2.32,10.88h8.73l-1.14,5.4H569.12Z"/><path class="cls-2" d="M595.47,20.56h8q5.92,0,5.92,5.27a12.9,12.9,0,0,1-.33,2.73l-1.2,5.71a8.35,8.35,0,0,1-5.73,6.6l2.4,17.68h-6l-1.39-16.71-.72.1-3.52,16.61h-5.48ZM599.8,26l-2.32,10.88h1.26a5.7,5.7,0,0,0,1.61-.16,3.07,3.07,0,0,0,2-2.42l1.2-5.71a4,4,0,0,0,.12-.89q0-1.7-1.94-1.7Z"/><path class="cls-2" d="M634.56,51.17q-1.7,8-9.58,8-6.47,0-6.47-5.4a12.4,12.4,0,0,1,.31-2.59l6.5-30.61h5.48l-6.5,30.61a4.49,4.49,0,0,0-.1.87q0,1.7,1.94,1.7a2.81,2.81,0,0,0,2.94-2.57l6.5-30.61h5.48Z"/><path class="cls-2" d="M645.9,20.56h5.48l.5,22,4.69-22h5.07l-8.07,38h-5.48l-.46-21.33-4.53,21.33h-5.27Z"/><path class="cls-2" d="M666.67,20.56h14.21L679.74,26H671l-2.32,10.88h7.51l-1.14,5.42h-7.51l-2.32,10.88H674l-1.14,5.4H658.6Z"/><path class="cls-2" d="M686.71,58.55l8.07-38h5.48l-6.93,32.58h8.73l-1.14,5.4Z"/><path class="cls-2" d="M712.28,20.56h14.21L725.35,26h-8.73L714.3,36.84h7.51l-1.14,5.42h-7.51l-2.32,10.88h8.73l-1.14,5.4H704.21Z"/><path class="cls-2" d="M744.75,20.56,743.61,26h-5.13l-6.93,32.58h-5.48L733,26h-5.13l1.14-5.4Z"/><path class="cls-2" d="M762.43,20.56,761.28,26h-5.13l-6.93,32.58h-5.48L750.68,26h-5.13l1.14-5.4Z"/><path class="cls-2" d="M765.91,20.56h8q5.93,0,5.92,5.27a13,13,0,0,1-.33,2.73l-1.2,5.71a8.36,8.36,0,0,1-5.73,6.6L775,58.55h-6l-1.39-16.71-.72.1-3.52,16.61h-5.48Zm4.34,5.4-2.32,10.88h1.26a5.71,5.71,0,0,0,1.61-.16,3.07,3.07,0,0,0,2-2.42l1.2-5.71a4,4,0,0,0,.12-.89q0-1.7-1.94-1.7Z"/><path class="cls-2" d="M786.12,20.56h14.21L799.19,26h-8.73l-2.32,10.88h7.51l-1.14,5.42H787l-2.32,10.88h8.73l-1.14,5.4H778Z"/><path class="cls-2" d="M814.23,20.56h8.44q5.92,0,5.92,5.27a12.9,12.9,0,0,1-.33,2.73l-4.67,22q-1.7,8-9.35,8h-8.09Zm4.34,5.4-5.79,27.18h2.4a2.83,2.83,0,0,0,2.94-2.58l4.67-22a4,4,0,0,0,.12-.89q0-1.7-1.94-1.7Z"/><path class="cls-2" d="M834.62,20.56h14.21L847.69,26H839l-2.32,10.88h7.51L843,42.26h-7.51l-2.32,10.88h8.73l-1.14,5.4H826.55Z"/><path class="cls-2" d="M869.12,46.58l11.91-26h5.48l-8.07,38h-5.25l4.53-21.31L868.5,58.55h-3.72l-.29-21.31L860,58.55h-5.3l8.07-38h5.48Z"/><path class="cls-2" d="M900.39,51.17q-1.7,8-9.58,8-6.47,0-6.47-5.4a12.34,12.34,0,0,1,.31-2.59l4.94-23.23q1.7-8,9.56-8,6.49,0,6.49,5.4a12.08,12.08,0,0,1-.31,2.57Zm-.54-23.23a4.21,4.21,0,0,0,.1-.85q0-1.71-1.94-1.72h0a2.79,2.79,0,0,0-2.9,2.57l-4.94,23.23a4.49,4.49,0,0,0-.1.87q0,1.7,1.94,1.7a2.81,2.81,0,0,0,2.94-2.57Z"/><path class="cls-2" d="M925.73,20.56,924.58,26h-5.13l-6.93,32.58H907L914,26h-5.13l1.14-5.4Z"/><path class="cls-2" d="M929.31,20.56h5.48l-8.07,38h-5.48Z"/><path class="cls-2" d="M943.27,58.55h-7.51L937.11,34l1.06-13.44h5.54l-2.36,29.27,10.09-29.27H957L952.33,34Z"/><path class="cls-2" d="M969.58,45.07l-1.08,13.47H963l.64-8.05H958l-2.79,8.05h-5.52l4.63-13.42,9.1-24.57h7.51Zm-5.54,0,1.26-15.8-5.44,15.8Z"/><path class="cls-2" d="M993.45,20.56,992.31,26h-5.13l-6.93,32.58h-5.48L981.7,26h-5.13l1.14-5.4Z"/><path class="cls-2" d="M997,20.56h5.48l-8.07,38H989Z"/><path class="cls-2" d="M1016.49,51.17q-1.7,8-9.58,8-6.47,0-6.47-5.4a12.34,12.34,0,0,1,.31-2.59l4.94-23.23q1.7-8,9.56-8,6.49,0,6.49,5.4a12.08,12.08,0,0,1-.31,2.57Zm-.54-23.23a4.21,4.21,0,0,0,.1-.85q0-1.71-1.94-1.72h0a2.79,2.79,0,0,0-2.9,2.57l-4.94,23.23a4.49,4.49,0,0,0-.1.87q0,1.7,1.94,1.7a2.81,2.81,0,0,0,2.94-2.57Z"/><path class="cls-2" d="M1027.64,20.56h5.48l.5,22,4.69-22h5.07l-8.07,38h-5.48l-.46-21.33-4.53,21.33h-5.27Z"/><path class="cls-2" d="M1040.34,20.54h6.78v5.57l-2.07,7h-3.56l1.12-6.33h-2.26Zm9.49,0h6.78v5.57l-2.07,7H1051l1.12-6.33h-2.26Z"/><path class="cls-2" d="M1075.3,41.2q0-7.68,0-15.36c0-.31,0-.62,0-.93.12-2.76,2.06-3.83,4.47-2.46,1.07.61,2.14,1.24,3.21,1.87l18.86,11c2,1.18,4,2.33,6,3.58s2,3.4,0,4.74c-.39.27-.8.53-1.21.77q-8.68,5-17.37,10c-3.21,1.85-6.41,3.73-9.67,5.49-2.22,1.19-4.12,0-4.15-2.51-.05-5.4,0-10.8,0-16.21Z"/></g></g></svg>