<?xml version="1.0" encoding="utf-8"?>
<!-- Generator: Adobe Illustrator 21.1.0, SVG Export Plug-In . SVG Version: 6.00 Build 0)  -->
<svg version="1.1" id="Calque_1" xmlns="http://www.w3.org/2000/svg" xmlns:xlink="http://www.w3.org/1999/xlink" x="0px" y="0px"
	 viewBox="0 0 1154.4 82.4" style="enable-background:new 0 0 1154.4 82.4;" xml:space="preserve">
<style type="text/css">
	.st0{fill:#FCC600;}
	.st1{fill:#4E96B3;}
</style>
<title>bt_goto_03</title>
<g id="Calque_2">
	<g id="voir_le_prochaine_LETTRE">
		<path class="st0" d="M48.2,0h1064.9c22.8,0,41.2,18.5,41.2,41.2l0,0c0,22.8-18.5,41.2-41.2,41.2H48.2C25.5,82.4,7,64,7,41.2l0,0
			C7,18.5,25.5,0,48.2,0z"/>
		<path class="st1" d="M53.9,58.5h-7.5l-3.9-21.7L40.7,25h5.5l3.8,25.9L54,25h5.5l-1.8,11.9L53.9,58.5z"/>
		<path class="st1" d="M78.2,52.1c0,4.7-2.6,7-7.9,7.1c-5.3,0-7.9-2.3-7.8-7.1V31.6c0-4.7,2.6-7,7.9-7s7.9,2.3,7.9,7L78.2,52.1z
			 M72.7,31.6c0-1.5-0.8-2.3-2.4-2.3l0,0c-1.6,0-2.4,0.8-2.4,2.3v20.5c0,1.5,0.8,2.3,2.4,2.3s2.4-0.8,2.4-2.3L72.7,31.6z"/>
		<path class="st1" d="M82.9,25h5.5v33.5h-5.5V25z"/>
		<path class="st1" d="M93.5,25h8c4.9,0,7.3,2.4,7.3,7.1v5c0.2,2.7-1.7,5.2-4.3,5.8l6.2,15.6h-6l-5-14.8L99,43.9v14.7h-5.5V25z
			 M99,29.7v9.6h1.3c0.5,0,1.1,0,1.6-0.1c0.9-0.3,1.6-1.2,1.5-2.2V32c0.1-1.1-0.7-2.2-1.8-2.3c-0.2,0-0.4,0-0.6,0L99,29.7z"/>
		<path class="st1" d="M123,58.5V25h5.5v28.8h8.7v4.8L123,58.5z"/>
		<path class="st1" d="M140.5,25h14.2v4.8h-8.7v9.6h7.5v4.8h-7.5v9.6h8.7v4.8h-14.2V25z"/>
		<path class="st1" d="M168.6,25h8c4.9,0,7.3,2.4,7.3,7.1v5c0,3.5-1.8,5.7-5.2,6.7c-1.2,0.3-2.4,0.4-3.7,0.4h-0.9v14.4h-5.5
			L168.6,25z M174.1,29.8v9.6h1.3c0.5,0,1.1,0,1.6-0.1c0.9-0.3,1.6-1.2,1.5-2.2V32c0.1-1.1-0.7-2.2-1.8-2.3c-0.2,0-0.4,0-0.6,0
			L174.1,29.8z"/>
		<path class="st1" d="M187.9,25h8c4.9,0,7.3,2.4,7.3,7.1v5c0.2,2.7-1.7,5.2-4.3,5.8l6.1,15.6h-6l-4.9-14.8l-0.7,0.1v14.7h-5.5
			L187.9,25z M193.4,29.8v9.6h1.3c0.5,0,1.1,0,1.6-0.1c0.9-0.3,1.6-1.2,1.5-2.2V32c0.1-1.1-0.7-2.2-1.8-2.3c-0.2,0-0.4,0-0.6,0
			L193.4,29.8z"/>
		<path class="st1" d="M222.6,52.1c0,4.7-2.6,7-7.9,7.1s-7.9-2.3-7.9-7.1V31.6c0-4.7,2.6-7,7.9-7s7.9,2.3,7.9,7V52.1z M217.1,31.6
			c0-1.5-0.8-2.3-2.4-2.3l0,0c-1.6,0-2.4,0.8-2.4,2.3v20.5c0,1.5,0.8,2.3,2.4,2.3c1.6,0,2.4-0.8,2.4-2.3L217.1,31.6z"/>
		<path class="st1" d="M242.6,52.1c0,4.7-2.6,7-7.9,7.1s-7.9-2.3-7.9-7.1V31.6c0-4.7,2.6-7,7.9-7s7.9,2.3,7.9,7v4.5h-5.5v-4.5
			c0-1.5-0.8-2.3-2.4-2.3l0,0c-1.6,0-2.4,0.8-2.4,2.3v20.5c0,1.5,0.8,2.3,2.4,2.3c1.6,0,2.4-0.8,2.4-2.3v-4.5h5.5L242.6,52.1z"/>
		<path class="st1" d="M247,25h5.5v14.4h4.8V25h5.5v33.5h-5.5V44.2h-4.8v14.4H247V25z"/>
		<path class="st1" d="M283.1,46.6l1.8,11.9h-5.5l-1.1-7.1h-5.6l-1.1,7.1h-5.5l1.8-11.9l3.9-21.7h7.5L283.1,46.6z M277.5,46.6
			l-2.1-14l-2.1,14H277.5z"/>
		<path class="st1" d="M288.2,25h5.5v33.5h-5.5V25z"/>
		<path class="st1" d="M298.9,25h5.5l5.2,19.5V25h5.1v33.5h-5.5l-5-18.9v18.9h-5.3L298.9,25z"/>
		<path class="st1" d="M329.5,25h14.2v4.8h-8.7v9.6h7.5v4.8h-7.5v9.6h8.7v4.8h-14.2V25z M336.5,23.6h-3l2.8-4.9h4.3L336.5,23.6z"/>
		<path class="st1" d="M347.7,25h8c4.8,0,7.3,2.3,7.3,7v5c0,3.5-1.8,5.7-5.2,6.7c-1.2,0.3-2.4,0.4-3.7,0.4h-0.9v14.5h-5.5L347.7,25z
			 M353.2,29.8v9.6h1.3c0.5,0,1.1,0,1.6-0.1c0.9-0.3,1.6-1.2,1.5-2.2V32c0.1-1.1-0.7-2.2-1.8-2.3c-0.2,0-0.4,0-0.6,0L353.2,29.8z"/>
		<path class="st1" d="M367.2,25h5.5v33.5h-5.5V25z"/>
		<path class="st1" d="M377.4,31.6c0-4.7,2.6-7,7.9-7s7.9,2.3,7.9,7v4.5h-5.5v-4.5c0-1.5-0.8-2.3-2.4-2.3l0,0
			c-1.6,0-2.4,0.8-2.4,2.3v3c0,1.5,1.7,3.3,5.1,5.5c3.4,2.2,5.1,4.8,5.1,7.8v4.3c0,4.7-2.6,7.1-7.9,7.1s-7.9-2.4-7.9-7.1v-4.5h5.5
			v4.5c0,1.5,0.8,2.3,2.4,2.3c1.6,0,2.4-0.8,2.4-2.3v-3.8c0-1.6-1.7-3.5-5.1-5.7c-3.4-2.2-5.1-4.8-5.1-7.9L377.4,31.6z"/>
		<path class="st1" d="M413.1,52.1c0,4.7-2.6,7-7.9,7.1s-7.9-2.3-7.9-7.1V31.6c0-4.7,2.6-7,7.9-7s7.9,2.3,7.9,7V52.1z M407.6,31.6
			c0-1.5-0.8-2.3-2.4-2.3l0,0c-1.6,0-2.4,0.8-2.4,2.3v20.5c0,1.5,0.8,2.3,2.4,2.3s2.4-0.8,2.4-2.3L407.6,31.6z"/>
		<path class="st1" d="M417.8,25h8.4c4.9,0,7.3,2.4,7.3,7.1v19.4c0,4.7-2.6,7-7.6,7h-8.1V25z M423.2,29.8v24h2.4
			c1.6,0,2.4-0.8,2.4-2.3V32c0.1-1.1-0.7-2.2-1.8-2.3c-0.2,0-0.4,0-0.6,0L423.2,29.8z"/>
		<path class="st1" d="M438.2,25h14.2v4.8h-8.7v9.6h7.5v4.8h-7.5v9.6h8.7v4.8h-14.2V25z"/>
		<path class="st1" d="M473,33.2h-6.8v-5.6l2.1-7h3.6l-1.1,6.3h2.3V33.2z M482.5,33.2h-6.8v-5.6l2.1-7h3.6l-1.1,6.3h2.3L482.5,33.2z
			"/>
		<path class="st1" d="M494.6,20.6h8c3.9,0,5.9,1.8,5.9,5.3c0,0.9-0.1,1.8-0.3,2.7l-1.2,5.7c-0.5,3.1-2.7,5.7-5.7,6.6l2.4,17.7h-6
			l-1.4-16.7l-0.7,0.1L492,58.5h-5.5L494.6,20.6z M499,26l-2.3,10.9h1.3c0.5,0,1.1,0,1.6-0.2c1.1-0.4,1.8-1.3,2-2.4l1.2-5.7
			c0.1-0.3,0.1-0.6,0.1-0.9c0-1.1-0.6-1.7-1.9-1.7L499,26z"/>
		<path class="st1" d="M514.8,20.6H529l-1.1,5.4h-8.7l-2.3,10.9h7.5l-1.1,5.4h-7.5l-2.3,10.9h8.7l-1.1,5.4h-14.2L514.8,20.6z
			 M521.1,19.1h-3l3.8-4.9h4.3L521.1,19.1z"/>
		<path class="st1" d="M533.1,20.6h8.4c3.9,0,5.9,1.8,5.9,5.3c0,0.9-0.1,1.8-0.3,2.7l-4.7,22c-1.1,5.3-4.2,8-9.3,8H525L533.1,20.6z
			 M537.4,26l-5.8,27.2h2.4c1.5,0.1,2.8-1.1,2.9-2.6l4.7-22c0.1-0.3,0.1-0.6,0.1-0.9c0-1.1-0.6-1.7-1.9-1.7L537.4,26z"/>
		<path class="st1" d="M553.6,20.6h5.5l-8.1,38h-5.5L553.6,20.6z"/>
		<path class="st1" d="M573,51.2c-1.1,5.3-4.3,8-9.6,8c-4.3,0-6.5-1.8-6.5-5.4c0-0.9,0.1-1.7,0.3-2.6l4.9-23.2c1.1-5.3,4.3-8,9.6-8
			c4.3,0,6.5,1.8,6.5,5.4c0,0.9-0.1,1.7-0.3,2.6l-1,5.1h-5.5l1.1-5.1c0.1-0.3,0.1-0.6,0.1-0.9c0-1.1-0.6-1.7-1.9-1.7l0,0
			c-1.5-0.1-2.8,1.1-2.9,2.6l-4.9,23.2c-0.1,0.3-0.1,0.6-0.1,0.9c0,1.1,0.6,1.7,1.9,1.7c1.5,0.1,2.8-1.1,2.9-2.6l1.9-8.9h-2.8
			l1.1-5.4h8.2L573,51.2z"/>
		<path class="st1" d="M584.2,20.6h14.2l-1.1,5.4h-8.7l-2.3,10.8h7.5l-1.1,5.4h-7.5l-2.3,10.9h8.7l-1.1,5.4h-14.2L584.2,20.6z"/>
		<path class="st1" d="M602.5,20.6h8c3.9,0,5.9,1.8,5.9,5.3c0,0.9-0.1,1.8-0.3,2.7l-1.2,5.7c-0.5,3.1-2.7,5.7-5.7,6.6l2.4,17.7h-6
			l-1.4-16.7l-0.7,0.1l-3.5,16.6h-5.5L602.5,20.6z M606.8,26l-2.3,10.9h1.3c0.5,0,1.1,0,1.6-0.2c1.1-0.4,1.8-1.3,2-2.4l1.2-5.7
			c0.1-0.3,0.1-0.6,0.1-0.9c0-1.1-0.6-1.7-1.9-1.7L606.8,26z"/>
		<path class="st1" d="M641.6,51.2c-1.1,5.3-4.3,8-9.6,8c-4.3,0-6.5-1.8-6.5-5.4c0-0.9,0.1-1.7,0.3-2.6l6.5-30.6h5.5l-6.5,30.6
			c-0.1,0.3-0.1,0.6-0.1,0.9c0,1.1,0.6,1.7,1.9,1.7c1.5,0.1,2.8-1.1,2.9-2.6l6.5-30.6h5.5L641.6,51.2z"/>
		<path class="st1" d="M652.9,20.6h5.5l0.5,22l4.7-22h5.1l-8.1,38h-5.5l-0.5-21.3l-4.5,21.3h-5.3L652.9,20.6z"/>
		<path class="st1" d="M673.7,20.6h14.2l-1.1,5.4H678l-2.3,10.9h7.5l-1.1,5.4h-7.5l-2.3,10.9h8.8l-1.1,5.4h-14.3L673.7,20.6z"/>
		<path class="st1" d="M693.7,58.5l8.1-38h5.5l-6.9,32.6h8.7l-1.1,5.4L693.7,58.5z"/>
		<path class="st1" d="M719.3,20.6h14.2l-1.1,5.4h-8.7l-2.3,10.8h7.5l-1.1,5.4h-7.5l-2.3,10.9h8.7l-1.1,5.4h-14.2L719.3,20.6z"/>
		<path class="st1" d="M751.8,20.6l-1.1,5.4h-5.1l-6.9,32.6h-5.5L740,26h-5.1l1.1-5.4L751.8,20.6z"/>
		<path class="st1" d="M769.4,20.6l-1.1,5.4h-5.1l-6.9,32.6h-5.5l6.9-32.6h-5.1l1.1-5.4L769.4,20.6z"/>
		<path class="st1" d="M772.9,20.6h8c4,0,5.9,1.8,5.9,5.3c0,0.9-0.1,1.8-0.3,2.7l-1.2,5.7c-0.5,3.1-2.7,5.7-5.7,6.6l2.4,17.7h-6
			l-1.4-16.7l-0.7,0.1l-3.5,16.6h-5.5L772.9,20.6z M777.2,26l-2.3,10.9h1.3c0.5,0,1.1,0,1.6-0.2c1.1-0.4,1.8-1.3,2-2.4l1.2-5.7
			c0.1-0.3,0.1-0.6,0.1-0.9c0-1.1-0.6-1.7-1.9-1.7L777.2,26z"/>
		<path class="st1" d="M793.1,20.6h14.2l-1.1,5.4h-8.7l-2.3,10.9h7.5l-1.1,5.4H794l-2.3,10.9h8.7l-1.1,5.4H785L793.1,20.6z"/>
		<path class="st1" d="M821.2,20.6h8.4c3.9,0,5.9,1.8,5.9,5.3c0,0.9-0.1,1.8-0.3,2.7l-4.7,22c-1.1,5.3-4.2,8-9.3,8h-8.1L821.2,20.6z
			 M825.6,26l-5.8,27.2h2.4c1.5,0.1,2.8-1.1,2.9-2.6l4.7-22c0.1-0.3,0.1-0.6,0.1-0.9c0-1.1-0.6-1.7-1.9-1.7L825.6,26z"/>
		<path class="st1" d="M841.6,20.6h14.2l-1.1,5.4H846l-2.3,10.9h7.5l-1.2,5.4h-7.5l-2.3,10.9h8.7l-1.1,5.4h-14.2L841.6,20.6z"/>
		<path class="st1" d="M876.1,46.6l11.9-26h5.5l-8.1,38h-5.2l4.5-21.3l-9.2,21.3h-3.7l-0.3-21.3L867,58.5h-5.3l8.1-38h5.5
			L876.1,46.6z"/>
		<path class="st1" d="M907.4,51.2c-1.1,5.3-4.3,8-9.6,8c-4.3,0-6.5-1.8-6.5-5.4c0-0.9,0.1-1.7,0.3-2.6l4.9-23.2
			c1.1-5.3,4.3-8,9.6-8c4.3,0,6.5,1.8,6.5,5.4c0,0.9-0.1,1.7-0.3,2.6L907.4,51.2z M906.9,27.9c0.1-0.3,0.1-0.6,0.1-0.9
			c0-1.1-0.6-1.7-1.9-1.7l0,0c-1.5-0.1-2.8,1.1-2.9,2.6l-4.9,23.2c-0.1,0.3-0.1,0.6-0.1,0.9c0,1.1,0.6,1.7,1.9,1.7
			c1.5,0.1,2.8-1.1,2.9-2.6L906.9,27.9z"/>
		<path class="st1" d="M932.7,20.6l-1.1,5.4h-5.1l-6.9,32.6H914l7-32.6h-5.1l1.1-5.4L932.7,20.6z"/>
		<path class="st1" d="M936.3,20.6h5.5l-8.1,38h-5.5L936.3,20.6z"/>
		<path class="st1" d="M950.3,58.5h-7.5l1.3-24.5l1.1-13.4h5.5l-2.4,29.3l10.1-29.3h5.6L959.3,34L950.3,58.5z"/>
		<path class="st1" d="M976.6,45.1l-1.1,13.5H970l0.6-8H965l-2.8,8h-5.5l4.6-13.4l9.1-24.6h7.5L976.6,45.1z M971,45.1l1.3-15.8
			l-5.4,15.8H971z"/>
		<path class="st1" d="M1000.5,20.6l-1.1,5.4h-5.1l-6.9,32.6h-5.5l6.9-32.6h-5.1l1.1-5.4L1000.5,20.6z"/>
		<path class="st1" d="M1004,20.6h5.5l-8.1,38H996L1004,20.6z"/>
		<path class="st1" d="M1023.5,51.2c-1.1,5.3-4.3,8-9.6,8c-4.3,0-6.5-1.8-6.5-5.4c0-0.9,0.1-1.7,0.3-2.6l4.9-23.2
			c1.1-5.3,4.3-8,9.6-8c4.3,0,6.5,1.8,6.5,5.4c0,0.9-0.1,1.7-0.3,2.6L1023.5,51.2z M1023,27.9c0.1-0.3,0.1-0.6,0.1-0.9
			c0-1.1-0.6-1.7-1.9-1.7l0,0c-1.5-0.1-2.8,1.1-2.9,2.6l-4.9,23.2c-0.1,0.3-0.1,0.6-0.1,0.9c0,1.1,0.6,1.7,1.9,1.7
			c1.5,0.1,2.8-1.1,2.9-2.6L1023,27.9z"/>
		<path class="st1" d="M1034.6,20.6h5.5l0.5,22l4.7-22h5.1l-8.1,38h-5.5l-0.5-21.3l-4.5,21.3h-5.3L1034.6,20.6z"/>
		<path class="st1" d="M1057.3,20.5h6.8v5.6l-2.1,7h-3.6l1.1-6.3h-2.3L1057.3,20.5z M1066.8,20.5h6.8v5.6l-2.1,7h-3.5l1.1-6.3h-2.3
			L1066.8,20.5z"/>
		<path class="st1" d="M1093.3,41.2c0-5.1,0-10.2,0-15.4c0-0.3,0-0.6,0-0.9c0.1-2.8,2.1-3.8,4.5-2.5c1.1,0.6,2.1,1.2,3.2,1.9
			l18.9,11c2,1.2,4,2.3,6,3.6s2,3.4,0,4.7c-0.4,0.3-0.8,0.5-1.2,0.8c-5.8,3.3-11.6,6.7-17.4,10c-3.2,1.8-6.4,3.7-9.7,5.5
			c-2.2,1.2-4.1,0-4.2-2.5c-0.1-5.4,0-10.8,0-16.2L1093.3,41.2z"/>
	</g>
</g>
</svg>
