<svg xmlns="http://www.w3.org/2000/svg" viewBox="0 0 963.51 82.42"><defs><style>.cls-1{fill:#fcc600;}.cls-2{fill:#4e96b3;}</style></defs><title>bt_goto_04</title><g id="Calque_2" data-name="Calque 2"><g id="Voir_le_prochain_episode_CV" data-name="Voir le prochain episode CV"><rect class="cls-1" width="963.51" height="82.42" rx="41.21" ry="41.21"/><path class="cls-2" d="M64.81,59.38H57.3l-3.87-21.7L51.65,25.81h5.54L61,51.68l3.87-25.87h5.54L68.66,37.72Z"/><path class="cls-2" d="M89.09,52.93q0,7-7.88,7.07t-7.86-7.07V32.4q0-7,7.86-7t7.88,7ZM83.61,32.4q0-2.27-2.38-2.27h0q-2.36,0-2.36,2.27V52.93q0,2.27,2.38,2.27t2.4-2.27Z"/><path class="cls-2" d="M93.83,25.81h5.48V59.38H93.83Z"/><path class="cls-2" d="M104.44,25.81h8q7.3,0,7.3,7.07v5a5.67,5.67,0,0,1-4.32,5.85l6.16,15.62h-6l-4.94-14.77-.7.1V59.38h-5.48Zm5.48,4.76V40.2h1.26a6,6,0,0,0,1.57-.13,2.08,2.08,0,0,0,1.49-2.15v-5a2.07,2.07,0,0,0-2.38-2.3Z"/><path class="cls-2" d="M133.89,59.38V25.81h5.48V54.6h8.73v4.78Z"/><path class="cls-2" d="M151.39,25.81H165.6v4.76h-8.73V40.2h7.51V45h-7.51v9.6h8.73v4.78H151.39Z"/><path class="cls-2" d="M179.5,25.81h8q7.3,0,7.3,7.07v5q0,5.21-5.25,6.72a13.8,13.8,0,0,1-3.66.37H185V59.38H179.5ZM185,30.57V40.2h1.26a6,6,0,0,0,1.57-.13,2.08,2.08,0,0,0,1.49-2.15v-5a2.07,2.07,0,0,0-2.38-2.3Z"/><path class="cls-2" d="M198.84,25.81h8q7.3,0,7.3,7.07v5a5.67,5.67,0,0,1-4.32,5.85L216,59.38h-6L205,44.61l-.7.1V59.38h-5.48Zm5.48,4.76V40.2h1.26a6,6,0,0,0,1.57-.13,2.08,2.08,0,0,0,1.49-2.15v-5a2.07,2.07,0,0,0-2.38-2.3Z"/><path class="cls-2" d="M233.49,52.93q0,7-7.88,7.07t-7.86-7.07V32.4q0-7,7.86-7t7.88,7ZM228,32.4q0-2.27-2.38-2.27h0q-2.36,0-2.36,2.27V52.93q0,2.27,2.38,2.27t2.4-2.27Z"/><path class="cls-2" d="M253.49,52.93q0,7-7.88,7.07t-7.86-7.07V32.4q0-7,7.86-7t7.88,7v4.51H248V32.4q0-2.27-2.38-2.27h0q-2.36,0-2.36,2.27V52.93q0,2.27,2.38,2.27t2.4-2.27V48.42h5.48Z"/><path class="cls-2" d="M257.94,25.81h5.48V40.2h4.78V25.81h5.48V59.38H268.2V45h-4.78V59.38h-5.48Z"/><path class="cls-2" d="M294,47.48l1.78,11.91h-5.54l-1.06-7.12h-5.6l-1.08,7.12H277l1.78-11.87,3.87-21.7h7.51Zm-5.54,0-2.09-14-2.09,14Z"/><path class="cls-2" d="M299.16,25.81h5.48V59.38h-5.48Z"/><path class="cls-2" d="M309.77,25.81h5.48l5.19,19.48V25.81h5.07V59.38H320l-5-18.86V59.38h-5.27Z"/><path class="cls-2" d="M340.38,25.81h14.21v4.76h-8.73V40.2h7.51V45h-7.51v9.6h8.73v4.78H340.38Zm7-1.37h-3l2.75-4.9h4.3Z"/><path class="cls-2" d="M358.65,25.81h8q7.3,0,7.3,7.07v5q0,5.21-5.25,6.72A13.8,13.8,0,0,1,365,45h-.89V59.38h-5.48Zm5.48,4.76V40.2h1.26a6,6,0,0,0,1.57-.13,2.08,2.08,0,0,0,1.49-2.15v-5a2.07,2.07,0,0,0-2.38-2.3Z"/><path class="cls-2" d="M378.09,25.81h5.48V59.38h-5.48Z"/><path class="cls-2" d="M388.31,32.4q0-7,7.86-7t7.88,7v4.51h-5.48V32.4q0-2.27-2.38-2.27h0q-2.36,0-2.36,2.27v3q0,2.24,5.13,5.5t5.13,7.76v4.24q0,7.07-7.86,7.07t-7.88-7.07V48.42h5.48v4.51q0,2.27,2.4,2.27t2.38-2.27V49.1q0-2.44-5.13-5.69t-5.13-7.86Z"/><path class="cls-2" d="M424.05,52.93q0,7-7.88,7.07t-7.86-7.07V32.4q0-7,7.86-7t7.88,7ZM418.57,32.4q0-2.27-2.38-2.27h0q-2.36,0-2.36,2.27V52.93q0,2.27,2.38,2.27t2.4-2.27Z"/><path class="cls-2" d="M428.7,25.81h8.44q7.3,0,7.3,7.07V52.33q0,7-7.65,7H428.7Zm5.48,4.76v24h2.4q2.38,0,2.38-2.27V32.88a2.07,2.07,0,0,0-2.38-2.3Z"/><path class="cls-2" d="M449.08,25.81h14.21v4.76h-8.73V40.2h7.51V45h-7.51v9.6h8.73v4.78H449.08Z"/><path class="cls-2" d="M489.37,34H482.6l1.18-5.57,3.56-7h3.56l-2.46,6.33h2.26Zm9.49,0h-6.78l1.18-5.57,3.56-7h3.56l-2.46,6.33h2.26Z"/><path class="cls-2" d="M504.61,25.81h8q6,0,6,4.86a11,11,0,0,1-.25,2.21l-1.06,5q-1.1,5.21-6.68,6.72a14.74,14.74,0,0,1-3.74.37H506l-3.06,14.38h-5.48Zm4.45,4.76-2,9.62h1.26a6.29,6.29,0,0,0,1.59-.13,2.73,2.73,0,0,0,2-2.15l1.06-5a3.65,3.65,0,0,0,.08-.71q0-1.59-2-1.59Z"/><path class="cls-2" d="M523.95,25.81h8q6,0,6,4.86a11.07,11.07,0,0,1-.25,2.21l-1.06,5a7.46,7.46,0,0,1-5.56,5.85l2.83,15.62h-6l-1.8-14.77-.72.1-3.12,14.67H516.8Zm4.45,4.76-2,9.62h1.26a6.3,6.3,0,0,0,1.59-.13,2.73,2.73,0,0,0,2-2.15l1.07-5a3.72,3.72,0,0,0,.08-.71q0-1.59-2-1.59Z"/><path class="cls-2" d="M544.16,25.81h14.21l-1,4.76h-8.73l-2,9.62h7.51l-1,4.8h-7.51l-2,9.6h8.73l-1,4.78H537Zm7.24-1.37h-3l3.78-4.9h4.3Z"/><path class="cls-2" d="M562,25.81h8q6,0,6,4.86a11,11,0,0,1-.25,2.21l-1.06,5q-1.1,5.21-6.68,6.72a14.74,14.74,0,0,1-3.74.37h-.89l-3.06,14.38H554.9Zm4.45,4.76-2,9.62h1.26a6.29,6.29,0,0,0,1.59-.13,2.73,2.73,0,0,0,2-2.15l1.06-5a3.65,3.65,0,0,0,.08-.71q0-1.59-2-1.59Z"/><path class="cls-2" d="M592.06,47.48l-.75,11.91h-5.54l.45-7.12h-5.59L578,59.38H572.5l4.3-11.87,8.5-21.7h7.51Zm-5.54,0,.87-14-5.05,14Z"/><path class="cls-2" d="M601.74,25.81h8q6,0,6,4.86a11,11,0,0,1-.25,2.21l-1.06,5a7.46,7.46,0,0,1-5.56,5.85l2.83,15.62h-6l-1.8-14.77-.72.1-3.12,14.67h-5.48Zm4.45,4.76-2,9.62h1.26a6.29,6.29,0,0,0,1.59-.13,2.73,2.73,0,0,0,2-2.15l1.06-5a3.65,3.65,0,0,0,.08-.71q0-1.59-2-1.59Z"/><path class="cls-2" d="M620.9,25.81h14.21l-1,4.76h-8.73l-2,9.62h7.51l-1,4.8H622.3l-2,9.6H629l-1,4.78H613.76Z"/><path class="cls-2" d="M639.18,25.81h8q6,0,6,4.86a11.07,11.07,0,0,1-.25,2.21l-1.06,5a7.46,7.46,0,0,1-5.56,5.85l2.83,15.62h-6l-1.8-14.77-.72.1-3.12,14.67H632Zm4.45,4.76-2,9.62h1.26a6.3,6.3,0,0,0,1.59-.13,2.73,2.73,0,0,0,2-2.15l1.07-5a3.72,3.72,0,0,0,.08-.71q0-1.59-2-1.59Z"/><path class="cls-2" d="M661.48,59.38l7.14-33.57h5.48L668,54.6h8.73l-1,4.78Z"/><path class="cls-2" d="M687.05,21.38h6.78L692.65,27l-3.56,7h-3.56L688,27.67h-2.26Z"/><path class="cls-2" d="M697.93,25.81h14.21l-1,4.76h-8.73l-2,9.62h7.51l-1,4.8h-7.51l-2,9.6H706l-1,4.78H690.79Z"/><path class="cls-2" d="M716.21,25.81h5.48l1,19.48,4.14-19.48H732l-7.14,33.57h-5.48l-1-18.86-4,18.86h-5.27Z"/><path class="cls-2" d="M751.17,25.81l-1,4.76H745L738.9,59.38h-5.48l6.12-28.81h-5.13l1-4.76Z"/><path class="cls-2" d="M754.66,25.81h8q6,0,6,4.86a11.07,11.07,0,0,1-.25,2.21l-1.06,5a7.46,7.46,0,0,1-5.56,5.85l2.83,15.62h-6l-1.8-14.77-.72.1L753,59.38h-5.48Zm4.45,4.76-2,9.62h1.26a6.3,6.3,0,0,0,1.59-.13,2.73,2.73,0,0,0,2-2.15l1.07-5a3.72,3.72,0,0,0,.08-.71q0-1.59-2-1.59Z"/><path class="cls-2" d="M773.83,25.81H788l-1,4.76h-8.73l-2,9.62h7.51l-1,4.8h-7.51l-2,9.6h8.73l-1,4.78H766.68Z"/><path class="cls-2" d="M806.29,25.81l-1,4.76h-5.13L794,59.38h-5.48l6.12-28.81h-5.13l1-4.76Z"/><path class="cls-2" d="M809.87,25.81h5.48l-7.14,33.57h-5.48Z"/><path class="cls-2" d="M820.48,25.81h14.21l-1,4.76h-8.73l-2,9.62h7.51l-1,4.8h-7.51l-2,9.6h8.73l-1,4.78H813.34Z"/><path class="cls-2" d="M838.76,25.81h5.48l1,19.48,4.14-19.48h5.07l-7.14,33.57h-5.48l-1-18.86-4,18.86h-5.27Z"/><path class="cls-2" d="M860.46,21.38h6.78L866.06,27l-3.56,7h-3.56l2.46-6.33h-2.27Zm9.49,0h6.78L875.54,27,872,34h-3.56l2.46-6.33h-2.27Z"/><path class="cls-2" d="M900.39,41.29q0-7.68,0-15.36c0-.31,0-.62,0-.93.12-2.76,2.06-3.83,4.47-2.46,1.07.61,2.14,1.24,3.21,1.87l18.86,11c2,1.18,4,2.33,6,3.58s2,3.4,0,4.74c-.39.27-.8.53-1.21.77q-8.68,5-17.37,10c-3.21,1.85-6.41,3.73-9.67,5.49-2.22,1.19-4.12,0-4.15-2.51-.05-5.4,0-10.8,0-16.21Z"/></g></g></svg>