<svg xmlns="http://www.w3.org/2000/svg" viewBox="0 0 96.17 104.57"><defs><style>.cls-1{fill:#666;}.cls-2{fill:#4e96b3;}</style></defs><title>bt_passer_le_jeu</title><g id="Calque_2" data-name="Calque 2"><g id="boutons"><path class="cls-1" d="M0,82.35H3.15Q6,82.37,6,87v3.29Q6,93.63,4,94.61a3.51,3.51,0,0,1-1.44.23H2.16v9.37H0Zm2.16,3.11v6.26h.5a1.46,1.46,0,0,0,.62-.09,1.48,1.48,0,0,0,.59-1.39V87q0-1.49-.94-1.49Z"/><path class="cls-1" d="M13.63,96.46l.7,7.75H12.15l-.42-4.63H9.52l-.43,4.63H6.92l.7-7.72L9.15,82.35h3Zm-2.19,0-.83-9.09L9.8,96.46Z"/><path class="cls-1" d="M16.11,86.6q0-4.59,3.1-4.59t3.11,4.59v2.94H20.16V86.6q0-1.47-.94-1.48h0q-.93,0-.93,1.48v2q0,1.46,2,3.58a7,7,0,0,1,2,5V100q0,4.6-3.1,4.6T16.11,100V97h2.16V100q0,1.48.95,1.48t.94-1.48v-2.5q0-1.58-2-3.7a7.12,7.12,0,0,1-2-5.12Z"/><path class="cls-1" d="M24.63,86.6q0-4.59,3.1-4.59t3.11,4.59v2.94H28.68V86.6q0-1.47-.94-1.48h0q-.93,0-.93,1.48v2q0,1.46,2,3.58a7,7,0,0,1,2,5V100q0,4.6-3.1,4.6T24.63,100V97h2.16V100q0,1.48.95,1.48t.94-1.48v-2.5q0-1.58-2-3.7a7.12,7.12,0,0,1-2-5.12Z"/><path class="cls-1" d="M33.3,82.35h5.61v3.11H35.46v6.26h3v3.12h-3v6.26h3.45v3.11H33.3Z"/><path class="cls-1" d="M41.14,82.35h3.15q2.88,0,2.88,4.6v3.29q0,2.89-1.7,3.8l2.43,10.17H45.52L43.58,94.6l-.28.06v9.56H41.14Zm2.16,3.11v6.26h.5a1.46,1.46,0,0,0,.62-.09A1.48,1.48,0,0,0,45,90.24V87q0-1.49-.94-1.49Z"/><path class="cls-1" d="M54.25,104.21V82.35h2.16V101.1h3.45v3.11Z"/><path class="cls-1" d="M61.78,82.35h5.61v3.11H63.95v6.26h3v3.12h-3v6.26h3.45v3.11H61.78Z"/><path class="cls-1" d="M73.37,97h2.16V100q0,1.48.95,1.48t.94-1.48V82.35h2.16V100q0,4.6-3.1,4.6T73.37,100Z"/><path class="cls-1" d="M82.19,82.35H87.8v3.11H84.35v6.26h3v3.12h-3v6.26H87.8v3.11H82.19Z"/><path class="cls-1" d="M96.17,100q0,4.59-3.11,4.6T90,100V82.35h2.16V100q0,1.48.94,1.48T94,100V82.35h2.16Z"/><path class="cls-2" d="M84.5,25.83c-3-1.91-6.06-3.65-9.11-5.44Q61.1,12,46.79,3.73c-1.62-.94-3.23-1.9-4.86-2.83-3.66-2.08-6.59-.46-6.77,3.73,0,.47,0,.94,0,1.41V12L21,3.73c-1.62-.94-3.23-1.9-4.86-2.83C12.46-1.17,9.52.44,9.34,4.63c0,.47,0,.94,0,1.41q0,11.65,0,23.3h.23c0,8.19-.05,16.39,0,24.58,0,3.85,2.92,5.61,6.29,3.8,5-2.66,9.8-5.52,14.67-8.32l4.82-2.78q0,3.65,0,7.3c0,3.85,2.92,5.61,6.29,3.8,5-2.66,9.8-5.52,14.67-8.32Q69.54,41.8,82.7,34.18c.63-.36,1.24-.76,1.83-1.17C87.5,31,87.54,27.78,84.5,25.83Z"/></g></g></svg>