<svg xmlns="http://www.w3.org/2000/svg" viewBox="0 0 97.18 128.9"><defs><style>.cls-1{fill:#666;}.cls-2{fill:#4e96b3;}</style></defs><title>game1_bt_passer</title><g id="Calque_2" data-name="Calque 2"><g id="boutons"><path class="cls-1" d="M25,77.69h3.15q2.88,0,2.88,4.6v3.29q0,3.39-2.07,4.37a3.51,3.51,0,0,1-1.44.23h-.35v9.37H25Zm2.16,3.11v6.26h.5a1.47,1.47,0,0,0,.62-.09,1.48,1.48,0,0,0,.59-1.39V82.29q0-1.49-.94-1.49Z"/><path class="cls-1" d="M38.66,91.79l.7,7.75H37.18l-.42-4.63H34.55l-.43,4.63H31.94l.7-7.72,1.53-14.14h3Zm-2.19,0-.83-9.09-.83,9.09Z"/><path class="cls-1" d="M41.13,81.93q0-4.59,3.1-4.59t3.11,4.59v2.94H45.18V81.93q0-1.47-.94-1.48h0q-.93,0-.93,1.48v2q0,1.46,2,3.58a7,7,0,0,1,2,5V95.3q0,4.6-3.1,4.6t-3.11-4.6V92.36H43.3V95.3q0,1.48.95,1.48t.94-1.48V92.8q0-1.58-2-3.7a7.12,7.12,0,0,1-2-5.12Z"/><path class="cls-1" d="M49.65,81.93q0-4.59,3.1-4.59t3.11,4.59v2.94H53.7V81.93q0-1.47-.94-1.48h0q-.93,0-.93,1.48v2q0,1.46,2,3.58a7,7,0,0,1,2,5V95.3q0,4.6-3.1,4.6t-3.11-4.6V92.36h2.16V95.3q0,1.48.95,1.48t.94-1.48V92.8q0-1.58-2-3.7a7.12,7.12,0,0,1-2-5.12Z"/><path class="cls-1" d="M58.33,77.69h5.61V80.8H60.49v6.26h3v3.12h-3v6.26h3.45v3.11H58.33Z"/><path class="cls-1" d="M66.17,77.69h3.15q2.88,0,2.88,4.6v3.29q0,2.89-1.7,3.8l2.43,10.17H70.55L68.6,89.93l-.28.06v9.56H66.17Zm2.16,3.11v6.26h.5A1.12,1.12,0,0,0,70,85.58V82.29q0-1.49-.94-1.49Z"/><path class="cls-1" d="M0,128.54V106.69H2.16v18.75H5.61v3.11Z"/><path class="cls-1" d="M5.81,106.68H8.48v3.21l-.82,4.06H6.26l.44-3.64H5.81Z"/><path class="cls-1" d="M11.13,106.69h2.16v21.86H11.13Z"/><path class="cls-1" d="M15.95,106.69h2.16l2,12.68V106.69h2v21.86H20l-2-12.28v12.28H15.95Z"/><path class="cls-1" d="M24.77,106.69h5.61v3.11H26.93v6.26h3v3.12h-3v9.37H24.77Z"/><path class="cls-1" d="M38.52,124.3q0,4.59-3.11,4.6t-3.1-4.6V110.93q0-4.59,3.1-4.59t3.11,4.59Zm-2.16-13.37q0-1.47-.94-1.48h0q-.93,0-.93,1.48V124.3q0,1.48.94,1.48t.95-1.48Z"/><path class="cls-1" d="M41,106.69h3.15q2.88,0,2.88,4.6v3.29q0,2.89-1.7,3.8l2.43,10.17H45.36l-1.95-9.61-.28.06v9.56H41Zm2.16,3.11v6.26h.5a1.12,1.12,0,0,0,1.21-1.48v-3.29q0-1.49-.94-1.49Z"/><path class="cls-1" d="M54.29,121.66l2.51-15H59v21.86H56.89V116.28L55,128.54H53.58l-1.9-12.27v12.27H49.58V106.69h2.16Z"/><path class="cls-1" d="M67.61,120.79l.7,7.75H66.12l-.42-4.63H63.5l-.43,4.63H60.89l.7-7.72,1.53-14.14h3Zm-2.19,0-.83-9.09-.83,9.09Z"/><path class="cls-1" d="M75.6,106.69v3.11h-2v18.75H71.41V109.8h-2v-3.11Z"/><path class="cls-1" d="M77.64,106.69H79.8v21.86H77.64Z"/><path class="cls-1" d="M88.51,124.3q0,4.59-3.11,4.6t-3.1-4.6V110.93q0-4.59,3.1-4.59t3.11,4.59Zm-2.16-13.37q0-1.47-.94-1.48h0q-.93,0-.93,1.48V124.3q0,1.48.94,1.48t.95-1.48Z"/><path class="cls-1" d="M91,106.69h2.16l2,12.68V106.69h2v21.86H95l-2-12.28v12.28H91Z"/><path class="cls-2" d="M88.38,25.83c-3-1.91-6.06-3.65-9.11-5.44Q65,12,50.67,3.73C49,2.79,47.44,1.83,45.81.9,42.15-1.17,39.22.44,39,4.63c0,.47,0,.94,0,1.41V12L24.85,3.73C23.23,2.79,21.62,1.83,20,.9,16.34-1.17,13.4.44,13.22,4.63c0,.47,0,.94,0,1.41q0,11.65,0,23.3h.23c0,8.19-.05,16.39,0,24.58,0,3.85,2.92,5.61,6.29,3.8,5-2.66,9.8-5.52,14.67-8.32l4.82-2.78q0,3.65,0,7.3c0,3.85,2.92,5.61,6.29,3.8,5-2.66,9.8-5.52,14.67-8.32Q73.42,41.8,86.58,34.18c.63-.36,1.24-.76,1.83-1.17C91.38,31,91.42,27.78,88.38,25.83Z"/></g></g></svg>