<?xml version="1.0" encoding="utf-8"?>
<!-- Generator: Adobe Illustrator 21.1.0, SVG Export Plug-In . SVG Version: 6.00 Build 0)  -->
<svg version="1.1" id="Calque_1" xmlns="http://www.w3.org/2000/svg" xmlns:xlink="http://www.w3.org/1999/xlink" x="0px" y="0px"
	 viewBox="0 0 167.4 202.5" style="enable-background:new 0 0 167.4 202.5;" xml:space="preserve">
<style type="text/css">
	.st0{fill:#FFFFFF;}
	.st1{fill:#4E96B3;}
	.st2{opacity:0.3;}
	.st3{fill:#464646;}
	.st4{opacity:0.3;fill:#464646;enable-background:new    ;}
	.st5{fill:#4D4D4D;}
</style>
<title>bt_revoir</title>
<circle class="st0" cx="83.2" cy="59.3" r="55.1"/>
<path class="st1" d="M23.8,62.7v-7c0.1-0.3,0.1-0.7,0.2-1c0.5-2.9,0.8-5.8,1.4-8.6c1.4-6.3,3.8-12.3,7.2-17.8
	C35.9,22.9,40.1,18,44.9,14c3.7-3.1,7.8-5.8,12.2-8c5.1-2.5,10.6-4.3,16.2-5.2c2-0.3,4.1-0.6,6.2-0.8h7.2c0.3,0.1,0.7,0.2,1,0.2
	c5.3,0.5,10.6,1.6,15.7,3.4c20.5,7.5,35.3,25.6,38.4,47.2c0.2,1.7,0.4,3.4,0.6,5c0,2.3,0,4.7,0,7c-0.1,0.4-0.2,0.7-0.2,1.1
	c-0.3,3.9-1,7.8-2.1,11.5c-1.6,5.5-3.9,10.7-7,15.6c-9,14.1-23.5,23.7-39.9,26.6c-2.2,0.4-4.4,0.6-6.6,0.9h-7.2l-1-0.2
	c-2.9-0.4-5.8-0.8-8.6-1.4c-6.2-1.4-12.1-3.7-17.5-7.1c-5.6-3.4-10.6-7.7-14.8-12.8c-3.1-3.8-5.8-8-7.9-12.4
	c-2.6-5.4-4.3-11.1-5.2-16.9C24.2,66.2,24,64.5,23.8,62.7z M83,106.7c26.2,0.1,47.5-21.1,47.5-47.3c0.1-26.2-21.1-47.5-47.3-47.5
	c-25.1-0.1-45.9,19.4-47.4,44.5C34.1,82.5,53.9,105,80,106.7C81,106.7,82,106.8,83,106.7L83,106.7z"/>
<path class="st1" d="M105.3,58.8c0,5.7,0,11.5,0,17.2c0,0.3,0,0.7,0,1c-0.1,3.1-2.3,4.3-5,2.8c-1.2-0.7-2.4-1.4-3.6-2.1L75.6,65.4
	c-2.3-1.3-4.5-2.6-6.7-4s-2.2-3.8,0-5.3c0.4-0.3,0.9-0.6,1.4-0.9c6.5-3.8,13-7.5,19.5-11.3c3.6-2.1,7.2-4.2,10.9-6.2
	c2.5-1.3,4.6,0,4.7,2.8C105.5,46.6,105.4,52.6,105.3,58.8L105.3,58.8z"/>
<g class="st2">
	<path class="st3" d="M136.7,33.8c-2.1-4.4-4.8-8.6-7.9-12.4c-4.2-5.1-9.2-9.4-14.8-12.8c-5.4-3.3-11.4-5.7-17.6-7.1
		c-2.8-0.6-5.7-0.9-8.6-1.4l-1-0.2h-3.4v11.9c26.2,0,47.4,21.2,47.4,47.4s-21.2,47.4-47.4,47.4l0,0v11.9h3.4
		c2.1-0.3,4.1-0.5,6.2-0.8c5.6-0.9,11.1-2.7,16.2-5.2c4.4-2.1,8.5-4.8,12.2-7.9c4.9-4.1,9-8.9,12.4-14.3c3.4-5.5,5.8-11.5,7.2-17.8
		c0.6-2.8,0.9-5.7,1.4-8.6c0.1-0.3,0.1-0.7,0.2-1v-7c-0.2-1.7-0.4-3.4-0.7-5.2C141,44.9,139.2,39.2,136.7,33.8z"/>
</g>
<path class="st1" d="M64,82.5L64,82.5c-1.7,0-3.2-1.4-3.2-3.2l0,0v-40c0-1.7,1.4-3.2,3.2-3.2l0,0c1.8,0,3.2,1.4,3.2,3.8V80
	C67.1,81.1,65.7,82.5,64,82.5z"/>
<path class="st4" d="M105.2,40.6c0-2.8-2.2-4.2-4.7-2.8c-3.7,2-7.2,4.1-10.9,6.2l-6.3,3.6V70l13.4,7.8c1.2,0.7,2.4,1.4,3.6,2.1
	c2.7,1.5,4.9,0.3,5-2.8c0-0.3,0-0.7,0-1c0-5.7,0-11.5,0-17.2h-0.2C105.2,52.8,105.2,46.7,105.2,40.6z"/>
<path class="st5" d="M55.5,140.1h4.6c2.3,0,3.4,1,3.4,3c0,0.5-0.1,1.1-0.2,1.6l-0.7,3.4c-0.3,1.8-1.6,3.3-3.3,3.8l1.4,10.2h-3.5
	l-0.8-9.6l-0.4,0.1l-2,9.4h-3.1L55.5,140.1z M58,143.2l-1.3,6.3h0.7c0.3,0,0.6,0,0.9-0.1c0.6-0.2,1.1-0.8,1.2-1.4l0.7-3.3
	c0-0.2,0.1-0.3,0.1-0.5c0-0.7-0.4-1-1.1-1H58z"/>
<path class="st5" d="M68.1,140.1h8.2l-0.7,3.1h-5l-1.3,6.3h4.3l-0.7,3.1h-4.4l-1.3,6.3h5l-0.6,3.1h-8.2L68.1,140.1z"/>
<path class="st5" d="M81.5,162h-4.3l0.8-14.2l0.6-7.8h3.2l-1.4,17l5.8-16.9h3.2l-2.7,7.8L81.5,162z"/>
<path class="st5" d="M97.3,157.7c-0.7,3.1-2.5,4.6-5.5,4.6c-2.5,0-3.7-1-3.7-3.1c0-0.5,0.1-1,0.2-1.5l2.8-13.4
	c0.7-3.1,2.5-4.6,5.5-4.6c2.5,0,3.7,1,3.7,3.1c0,0.5-0.1,1-0.2,1.5L97.3,157.7z M97,144.3c0-0.2,0.1-0.3,0.1-0.5c0-0.7-0.4-1-1.1-1
	l0,0c-0.9,0-1.6,0.6-1.7,1.5l-2.8,13.4c0,0.2,0,0.3-0.1,0.5c0,0.7,0.4,1,1.1,1c0.9,0,1.6-0.6,1.7-1.5L97,144.3z"/>
<path class="st5" d="M104.7,140.1h3.2l-4.7,21.9H100L104.7,140.1z"/>
<path class="st5" d="M111.7,140.1h4.6c2.3,0,3.4,1,3.4,3c0,0.5-0.1,1.1-0.2,1.6l-0.7,3.3c-0.3,1.8-1.6,3.3-3.3,3.8L117,162h-3.5
	l-0.8-9.6l-0.4,0.1l-2,9.6h-3.2L111.7,140.1z M114.2,143.2l-1.3,6.3h0.7c0.3,0,0.6,0,0.9-0.1c0.6-0.2,1.1-0.8,1.2-1.4l0.7-3.3
	c0-0.2,0.1-0.3,0.1-0.5c0-0.7-0.4-1-1.1-1H114.2z"/>
<path class="st5" d="M0,197.8v-29h4.8v24.3h6.5v4.6L0,197.8z"/>
<path class="st5" d="M27.2,187.4l1.4,10.4h-4.9l-0.8-6h-3.5l-0.8,6h-4.9l1.4-10.3l2.9-18.6h6.2L27.2,187.4z M22.3,187.1l-1.2-8.8
	l-1.2,8.8H22.3z"/>
<path class="st5" d="M40.4,174.6c0-4.2,2.1-6.2,6.2-6.2s6.2,2.1,6.2,6.2v4.1H48v-4.1c0-1.1-0.5-1.6-1.4-1.6l0,0
	c-0.9,0-1.4,0.5-1.4,1.6v2.6c0,1.2,1.2,2.6,3.7,4.4c2.7,1.9,4,4.1,4,6.8v3.6c0,4.2-2.1,6.3-6.2,6.3s-6.3-2.1-6.3-6.3v-4.1h4.8v4.1
	c0,1.1,0.5,1.6,1.4,1.6s1.4-0.5,1.4-1.6v-3.2c0-1.3-1.2-2.8-3.7-4.6c-2.7-1.9-4-4.2-4-6.9L40.4,174.6z"/>
<path class="st5" d="M57.6,168.8h11.3v4.6h-6.5v7.6H68v4.6h-5.6v7.6h6.5v4.6H57.6V168.8z M68.4,165.6l-4.2,2.7H60l4.6-4.2h3.7
	L68.4,165.6z"/>
<path class="st5" d="M84.6,192c0,3.7-1.5,5.8-4.5,6.1c0,0.3,1.5,0.4,4.5,0.4v4c-2.7,0-4.6-0.2-5.5-0.8c-1.3-0.7-2.1-2.1-2-3.6
	c-3.3-0.2-5-2.3-5-6.2v-17.4c0-4.2,2.1-6.2,6.2-6.2s6.2,2.1,6.2,6.2L84.6,192z M79.8,174.6c0-1.1-0.5-1.6-1.4-1.6l0,0
	c-0.9,0-1.4,0.5-1.4,1.6V192c0,1.1,0.5,1.6,1.4,1.6s1.4-0.5,1.4-1.6V174.6z"/>
<path class="st5" d="M101.6,192c0,4.2-2.1,6.3-6.2,6.3c-4.2,0-6.2-2.1-6.2-6.3v-23.2H94V192c0,1.1,0.5,1.6,1.4,1.6s1.4-0.5,1.4-1.6
	v-23.2h4.8L101.6,192L101.6,192z"/>
<path class="st5" d="M106.4,168.8h11.3v4.6h-6.5v7.6h5.6v4.6h-5.6v7.6h6.5v4.6h-11.3V168.8z"/>
<path class="st5" d="M121.9,168.8h4.8l3.2,14.3v-14.3h4.5v29h-4.8l-3.1-13.9v13.8h-4.7L121.9,168.8z"/>
<path class="st5" d="M151.6,192c0,4.2-2.1,6.3-6.2,6.3c-4.2,0-6.2-2.1-6.2-6.3v-17.4c0-4.2,2.1-6.2,6.2-6.2s6.2,2.1,6.2,6.2v4.1
	h-4.8v-4.1c0-1.1-0.5-1.6-1.4-1.6l0,0c-0.9,0-1.4,0.5-1.4,1.6V192c0,1.1,0.5,1.6,1.4,1.6s1.4-0.5,1.4-1.6v-4.1h4.8V192z"/>
<path class="st5" d="M156.1,168.8h11.3v4.6h-6.5v7.6h5.6v4.6h-5.6v7.6h6.5v4.6h-11.3V168.8z"/>
</svg>
