<svg xmlns="http://www.w3.org/2000/svg" viewBox="0 0 397.08 82.42"><defs><style>.cls-1{fill:#fcc600;}.cls-2{fill:#4e96b3;}</style></defs><title>bt_replay</title><g id="Calque_2" data-name="Calque 2"><g id="Revoir_L_episode" data-name="Revoir L&apos;episode"><rect class="cls-1" width="397.08" height="82.42" rx="41.21" ry="41.21"/><path class="cls-2" d="M38.2,25h8q7.3,0,7.3,7.07v5a5.67,5.67,0,0,1-4.32,5.85l6.16,15.62h-6L44.38,43.77l-.7.1V58.55H38.2Zm5.48,4.76v9.62h1.26a6,6,0,0,0,1.57-.13A2.08,2.08,0,0,0,48,37.08V32a2.07,2.07,0,0,0-2.38-2.3Z"/><path class="cls-2" d="M57.37,25H71.58v4.76H62.85v9.62h7.51v4.8H62.85v9.6h8.73v4.78H57.37Z"/><path class="cls-2" d="M87.06,58.55H79.55l-3.87-21.7L73.9,25h5.54l3.85,25.87L87.16,25H92.7L90.92,36.88Z"/><path class="cls-2" d="M111.34,52.1q0,7-7.88,7.07T95.6,52.1V31.56q0-7,7.86-7t7.88,7Zm-5.48-20.54q0-2.27-2.38-2.27h0q-2.36,0-2.36,2.27V52.1q0,2.27,2.38,2.27t2.4-2.27Z"/><path class="cls-2" d="M116.08,25h5.48V58.55h-5.48Z"/><path class="cls-2" d="M126.69,25h8Q142,25,142,32v5a5.67,5.67,0,0,1-4.32,5.85l6.16,15.62h-6l-4.94-14.77-.7.1V58.55h-5.48Zm5.48,4.76v9.62h1.26a6,6,0,0,0,1.57-.13,2.08,2.08,0,0,0,1.49-2.15V32a2.07,2.07,0,0,0-2.38-2.3Z"/><path class="cls-2" d="M156.14,58.55V25h5.48V53.76h8.73v4.78Z"/><path class="cls-2" d="M173.64,20.54h6.78v5.57l-2.07,7h-3.56l1.12-6.33h-2.27Z"/><path class="cls-2" d="M185.45,25h14.21v4.76h-8.73v9.62h7.51v4.8h-7.51v9.6h8.73v4.78H185.45Zm7-1.37h-3l2.75-4.9h4.3Z"/><path class="cls-2" d="M203.73,25h8Q219,25,219,32v5q0,5.21-5.25,6.72a13.8,13.8,0,0,1-3.66.37h-.89V58.55h-5.48Zm5.48,4.76v9.62h1.26a6,6,0,0,0,1.57-.13,2.08,2.08,0,0,0,1.49-2.15V32a2.07,2.07,0,0,0-2.38-2.3Z"/><path class="cls-2" d="M223.16,25h5.48V58.55h-5.48Z"/><path class="cls-2" d="M233.39,31.56q0-7,7.86-7t7.88,7v4.51h-5.48V31.56q0-2.27-2.38-2.27h0q-2.36,0-2.36,2.27v3q0,2.24,5.13,5.5t5.13,7.76V52.1q0,7.07-7.86,7.07t-7.88-7.07V47.59h5.48V52.1q0,2.27,2.4,2.27t2.38-2.27V48.27q0-2.44-5.13-5.69t-5.13-7.86Z"/><path class="cls-2" d="M269.12,52.1q0,7-7.88,7.07t-7.86-7.07V31.56q0-7,7.86-7t7.88,7Zm-5.48-20.54q0-2.27-2.38-2.27h0q-2.36,0-2.36,2.27V52.1q0,2.27,2.38,2.27t2.4-2.27Z"/><path class="cls-2" d="M273.77,25h8.44q7.3,0,7.3,7.07V51.5q0,7-7.65,7h-8.09Zm5.48,4.76v24h2.4q2.38,0,2.38-2.27V32a2.07,2.07,0,0,0-2.38-2.3Z"/><path class="cls-2" d="M294.16,25h14.21v4.76h-8.73v9.62h7.51v4.8h-7.51v9.6h8.73v4.78H294.16Z"/><path class="cls-2" d="M327.82,40.2q0-7.68,0-15.36c0-.31,0-.62,0-.93.12-2.76,2.06-3.83,4.47-2.46,1.07.61,2.14,1.24,3.21,1.87l18.86,11c2,1.18,4,2.33,6,3.58s2,3.4,0,4.74c-.39.27-.8.53-1.21.77q-8.68,5-17.37,10c-3.21,1.85-6.41,3.73-9.67,5.49-2.22,1.19-4.12,0-4.15-2.51-.05-5.4,0-10.8,0-16.21Z"/></g></g></svg>