<svg xmlns="http://www.w3.org/2000/svg" viewBox="0 0 397.08 82.42"><defs><style>.cls-1{fill:#fcc600;}.cls-2{font-size:39.65px;font-family:Gobold, Gobold;}.cls-2,.cls-6{fill:#4e96b3;}.cls-3{letter-spacing:-0.03em;}.cls-4{letter-spacing:-0.02em;}.cls-5{letter-spacing:0em;}</style></defs><title>bt_revoir_episode</title><g id="Calque_2" data-name="Calque 2"><g id="Revoir_L_episode" data-name="Revoir L&apos;episode"><rect class="cls-1" width="397.08" height="82.42" rx="41.21" ry="41.21"/><text class="cls-2" transform="translate(35.68 58.55)"><tspan class="cls-3">r</tspan><tspan x="19.17" y="0">evoi</tspan><tspan class="cls-4" x="88.49" y="0">r</tspan><tspan class="cls-5" x="108.11" y="0" xml:space="preserve"> lՎpisode</tspan></text><path class="cls-6" d="M327.82,40.2q0-7.68,0-15.36c0-.31,0-.62,0-.93.12-2.76,2.06-3.83,4.47-2.46,1.07.61,2.14,1.24,3.21,1.87l18.86,11c2,1.18,4,2.33,6,3.58s2,3.4,0,4.74c-.39.27-.8.53-1.21.77q-8.68,5-17.37,10c-3.21,1.85-6.41,3.73-9.67,5.49-2.22,1.19-4.12,0-4.15-2.51-.05-5.4,0-10.8,0-16.21Z"/></g></g></svg>