<svg xmlns="http://www.w3.org/2000/svg" viewBox="0 0 260.59 75.61"><defs><style>.cls-1{fill:#4e96b3;}.cls-2{fill:#fff;}</style></defs><title>bt_valider</title><g id="Calque_2" data-name="Calque 2"><g id="boutons"><rect class="cls-1" width="260.59" height="75.61" rx="37.8" ry="37.8"/><path class="cls-2" d="M67.2,54.63H60.31L56.76,32.11,55.12,19.78H60.2l3.53,26.85,3.55-26.85h5.08L70.74,32.14Z"/><path class="cls-2" d="M88.71,42.27l1.63,12.36H85.26l-1-7.39H79.15l-1,7.39H73.1l1.63-12.31,3.55-22.54h6.89Zm-5.08,0L81.71,27.77,79.79,42.27Z"/><path class="cls-2" d="M93.36,54.63V19.78h5V49.67h8v5Z"/><path class="cls-2" d="M109.51,19.78h5V54.63h-5Z"/><path class="cls-2" d="M119.24,19.78H127q6.7,0,6.7,7.34V47.31q0,7.3-7,7.32h-7.42Zm5,5V49.67h2.2q2.18,0,2.18-2.36V27.12q0-2.38-2.18-2.38Z"/><path class="cls-2" d="M137.94,19.78h13v5h-8v10h6.89v5H143v10h8v5h-13Z"/><path class="cls-2" d="M166.31,22.8l-6.82,26.87h7.12v5H153.82v-3l6.82-26.87h-6.59v-5h12.25Z"/><path class="cls-2" d="M208.82,36.88q0-7,0-14.09c0-.28,0-.57,0-.85.11-2.53,1.89-3.51,4.1-2.25,1,.56,2,1.14,2.94,1.71l17.31,10.08c1.85,1.08,3.71,2.13,5.51,3.29s1.81,3.12,0,4.35c-.36.25-.73.49-1.11.71q-8,4.61-15.94,9.2c-2.95,1.7-5.88,3.43-8.88,5-2,1.1-3.78,0-3.8-2.3,0-5,0-9.91,0-14.87Z"/></g></g></svg>