<svg xmlns="http://www.w3.org/2000/svg" viewBox="0 0 68.25 68.25"><defs><style>.cls-1{opacity:0.5;}.cls-2{fill:#4e96b3;}.cls-3{fill:#fff;}</style></defs><title>game3_li</title><g id="Calque_2" data-name="Calque 2"><g id="cases_jeu3" data-name="cases jeu3"><g class="cls-1"><rect class="cls-2" y="13.28" width="54.97" height="54.97" rx="4.98" ry="4.98"/></g><rect class="cls-3" x="11.28" y="2" width="54.97" height="54.97" rx="4.98" ry="4.98"/><path class="cls-2" d="M61.27,59h-45a7,7,0,0,1-7-7V7a7,7,0,0,1,7-7h45a7,7,0,0,1,7,7V52A7,7,0,0,1,61.27,59Zm-45-55a3,3,0,0,0-3,3V52a3,3,0,0,0,3,3h45a3,3,0,0,0,3-3V7a3,3,0,0,0-3-3Z"/></g></g></svg>