<svg id="adec" xmlns="http://www.w3.org/2000/svg" xmlns:xlink="http://www.w3.org/1999/xlink" viewBox="0 0 1920 1080"><defs><style>.cls-1{fill:url(#radial-gradient);filter:url(#luminosity-invert-noclip);}.cls-2{fill:#fff;}.cls-3{mask:url(#mask);}.cls-4{fill:#4e96b3;}.cls-5{fill:#ddae45;}</style><radialGradient id="radial-gradient" cx="1866.88" cy="1001.76" r="105.52" gradientUnits="userSpaceOnUse"><stop offset="0" stop-color="#fff"/><stop offset="1"/></radialGradient><filter id="luminosity-invert-noclip" x="1588.16" y="740.53" width="318.78" height="261.22" filterUnits="userSpaceOnUse" color-interpolation-filters="sRGB"><feColorMatrix values="-1 0 0 0 1 0 -1 0 0 1 0 0 -1 0 1 0 0 0 1 0" result="invert"/><feFlood flood-color="#fff" result="bg"/><feBlend in="invert" in2="bg"/></filter><mask id="mask" x="1588.16" y="740.53" width="318.78" height="261.22" maskUnits="userSpaceOnUse"><ellipse class="cls-1" cx="1747.55" cy="851.96" rx="159.39" ry="111.43"/></mask></defs><title>index_logo</title><polygon class="cls-2" points="1847.84 1001.75 1760.39 979.36 1760.39 928.41 1847.84 906.02 1847.84 1001.75"/><g class="cls-3"><polygon class="cls-4" points="1847.84 1001.75 1760.39 979.36 1760.39 928.41 1847.84 906.02 1847.84 1001.75"/></g><path class="cls-2" d="M1786.73,941.61a3.27,3.27,0,0,0-1.6-.3,3.37,3.37,0,0,0-1.61.3,1.34,1.34,0,0,0-.54,1.28v17.06a2.06,2.06,0,0,1-1.28,1.73,8.72,8.72,0,0,1-4.1.72h-7.79a8.72,8.72,0,0,1-4.1-.72,2.05,2.05,0,0,1-1.28-1.73v-7.29a2,2,0,0,1,1.28-1.75,8.9,8.9,0,0,1,4.1-.71h8.86q.77,0,1-.42a2.84,2.84,0,0,0,.22-1.26,3,3,0,0,0-.22-1.28q-.22-.44-1-.44h-9q-9.5,0-9.5,5.84v7.29q0,5.84,9.5,5.84h8.06q9.5,0,9.5-5.84V942.89A1.36,1.36,0,0,0,1786.73,941.61Z"/><path class="cls-2" d="M1828.52,965.79q-9.5,0-9.5-5.84v-7.29q0-5.84,9.5-5.84h15.72a1.06,1.06,0,0,1,1,.42,2.74,2.74,0,0,1,.24,1.29,2.65,2.65,0,0,1-.24,1.26,1.06,1.06,0,0,1-1,.42h-15.59a8.9,8.9,0,0,0-4.1.71,2,2,0,0,0-1.28,1.75v7.29a2.05,2.05,0,0,0,1.28,1.73,8.72,8.72,0,0,0,4.1.72h15.69q.77,0,1,.42a2.83,2.83,0,0,1,.22,1.26,2.94,2.94,0,0,1-.22,1.28q-.22.44-1,.44Z"/><path class="cls-2" d="M1814.5,948.26q-2.23-1.44-7.27-1.44h-7.76q-9.5,0-9.5,5.84v7.29q0,5.84,9.5,5.84h16.05q.77,0,1-.44a3,3,0,0,0,.22-1.28,2.84,2.84,0,0,0-.22-1.26q-.22-.42-1-.42H1799.6a8.72,8.72,0,0,1-4.1-.72,2.05,2.05,0,0,1-1.28-1.73v-7.29a2,2,0,0,1,1.28-1.75,8.9,8.9,0,0,1,4.1-.71h7.49a9.71,9.71,0,0,1,4.11.64,2,2,0,0,1,1.26,1.81v2.25h-13.74q-.76,0-1,.41a2.78,2.78,0,0,0-.21,1.23,2.89,2.89,0,0,0,.21,1.25q.21.43,1,.43h16a2.48,2.48,0,0,0,1.65-.37,1.89,1.89,0,0,0,.37-1.34v-3.86A4.88,4.88,0,0,0,1814.5,948.26Z"/><path class="cls-5" d="M1763.82,963.3l-14.64-20.89a2.67,2.67,0,0,0-1-.87,3.66,3.66,0,0,0-1.6-.3,3.87,3.87,0,0,0-1.65.3,2.4,2.4,0,0,0-1,.87l-7,10.63-6.76,10.25a1.49,1.49,0,0,0-.23.74,1.24,1.24,0,0,0,.22.72,2.28,2.28,0,0,0,.57.57,2.69,2.69,0,0,0,.79.39,2.87,2.87,0,0,0,.84.13,2.24,2.24,0,0,0,.82-.15,1.27,1.27,0,0,0,.62-.52l12.79-19.85,6.52,9.54h-10.57q-.77,0-1,.42a2.84,2.84,0,0,0-.22,1.26,3,3,0,0,0,.22,1.28q.22.44,1,.44h12.89l4.73,6.91a1.48,1.48,0,0,0,.64.52,2.21,2.21,0,0,0,.84.15,3.09,3.09,0,0,0,1.66-.5,2,2,0,0,0,.57-.57,1.27,1.27,0,0,0,.22-.7A1.43,1.43,0,0,0,1763.82,963.3Z"/></svg>