<svg xmlns="http://www.w3.org/2000/svg" viewBox="0 0 170.5 153.02"><defs><style>.cls-1{isolation:isolate;}.cls-2{fill:#4e96b3;}.cls-3{fill:#464646;opacity:0.7;mix-blend-mode:soft-light;}.cls-4{fill:#fff;}</style></defs><title>index_bt2</title><g class="cls-1"><g id="Calque_2" data-name="Calque 2"><g id="Calque_8" data-name="Calque 8"><path class="cls-2" d="M170.28,10.08A10.14,10.14,0,0,0,160.14,0L10.08.38A10.14,10.14,0,0,0,0,10.52L.22,98.43a10.14,10.14,0,0,0,10.14,10.08l49.85-.13c0-.91,0-1.83,0-2.73l0-2.68a9.31,9.31,0,0,1,6.32-9,8.3,8.3,0,0,1,3-.6,8.19,8.19,0,0,1,6.33,3.22A9.19,9.19,0,0,1,77,98.23c0-2.64,0-5.28,0-7.9,0-8.47.1-17.07.19-25.39l.06-5.68c.06-6.11,3.51-9.9,9-9.9h.11c5.34.05,8.82,3.89,8.87,9.79,0,3.89,0,7.78,0,11.66q0,4.44,0,8.88a9.46,9.46,0,0,1,3.83-.87c2.44,0,5.51,1.08,7.7,5.6a8.69,8.69,0,0,1,4.8-1.47,9,9,0,0,1,3.13.58,8.49,8.49,0,0,1,5.07,4.89A7.66,7.66,0,0,1,124,87.17a8.79,8.79,0,0,1,1.63.16,9.58,9.58,0,0,1,7.77,9c0,3,0,6.1.05,9.15,0,.89,0,1.79,0,2.68l27-.07A10.14,10.14,0,0,0,170.5,98Z"/><path class="cls-3" d="M170.28,10.08A10.14,10.14,0,0,0,160.14,0L84.91.19V49.45a10.93,10.93,0,0,1,1.31-.09h.11c5.34.05,8.82,3.89,8.87,9.79,0,3.89,0,7.78,0,11.66q0,4.44,0,8.88a9.46,9.46,0,0,1,3.83-.87c2.44,0,5.51,1.08,7.7,5.6a8.69,8.69,0,0,1,4.8-1.47,9,9,0,0,1,3.13.58,8.49,8.49,0,0,1,5.07,4.89A7.66,7.66,0,0,1,124,87.17a8.79,8.79,0,0,1,1.63.16,9.58,9.58,0,0,1,7.77,9c0,3,0,6.1.05,9.15,0,.89,0,1.79,0,2.68l27-.07A10.14,10.14,0,0,0,170.5,98Z"/><path class="cls-4" d="M66.57,94a8.3,8.3,0,0,1,3-.6,8.19,8.19,0,0,1,6.33,3.22l.16.22H77c0-2.16,0-4.33,0-6.49,0-8.47.1-17.07.19-25.39l.06-5.68c.06-6.11,3.51-9.9,9-9.9h.11c5.34.05,8.82,3.89,8.87,9.79,0,3.89,0,7.78,0,11.66q0,4.44,0,8.88a9.46,9.46,0,0,1,3.83-.87c2.44,0,5.51,1.08,7.7,5.6a8.69,8.69,0,0,1,4.8-1.47,9,9,0,0,1,3.13.58,8.49,8.49,0,0,1,5.07,4.89A7.66,7.66,0,0,1,124,87.17a8.79,8.79,0,0,1,1.63.16,9.58,9.58,0,0,1,7.77,9c0,.1,0,.21,0,.31l23.38-.06-.22-85.09-142.8.36L14,97l48.48-.12A10.32,10.32,0,0,1,66.57,94Z"/><path class="cls-2" d="M101.08,59.63,122.4,66.7l1.12-3.36-21.8-7.22Z"/><path class="cls-2" d="M100.75,48.1l1,3.4,9.8-1.6-.77-3.42Z"/><path class="cls-2" d="M120.37,41.32a5.49,5.49,0,0,0-5.47,5.32,5.78,5.78,0,0,0,5.5,5.67,5.51,5.51,0,0,0,5.5-5.56A5.24,5.24,0,0,0,120.37,41.32Z"/><path class="cls-2" d="M137.26,33.57a7.35,7.35,0,0,0,7.35-7.44,7.16,7.16,0,0,0-7.43-7.27,7.27,7.27,0,0,0-7.27,7.48A7.46,7.46,0,0,0,137.26,33.57Z"/><path class="cls-2" d="M128,32.78l-1.65-3.16L98.17,43.75l2,3Z"/><path class="cls-2" d="M72,54.3c0,.09,0,.18,0,.27a12.88,12.88,0,0,0,5.17,10.32l.06-5.63c.06-6.11,3.51-9.9,9-9.9h.11c5.34.05,8.82,3.89,8.87,9.79,0,1.06,0,2.13,0,3.19a12.84,12.84,0,0,0,2.62-7.77c0-.08,0-.16,0-.24a12.55,12.55,0,0,0-4.22-9.77,13,13,0,0,0-18,.64A12.81,12.81,0,0,0,72,54.3Z"/><path class="cls-2" d="M135.47,60a9.14,9.14,0,0,0-9.3,9.2c.11,4.65,3.2,9.36,10,9.32,4.52,0,8.38-4.34,8.39-9.49A9,9,0,0,0,135.47,60Z"/><path class="cls-2" d="M42.1,22.61a9,9,0,0,0-9.37,9.05,9.22,9.22,0,0,0,9.11,9.42,9.52,9.52,0,0,0,9.37-9A9.23,9.23,0,0,0,42.1,22.61Z"/><path class="cls-2" d="M36.33,67.43A11,11,0,0,0,25.21,77.69c-.35,7.76,5.19,11.86,11.19,12A11,11,0,0,0,47.51,78.57,11.31,11.31,0,0,0,36.33,67.43Z"/><path class="cls-2" d="M68.62,59.11l-20,10.79L50.4,73,70.09,62.36Z"/><path class="cls-2" d="M81.51,32.91l-3.35,1,1.2,4.37,3.4-.87Z"/><path class="cls-2" d="M71.43,43.94l-16.9-8.09L53,39.06,69.59,47Z"/><path class="cls-2" d="M77.32,29.8a5.37,5.37,0,0,0,5.55-5.52,5.24,5.24,0,0,0-5.59-5.41,5.4,5.4,0,0,0-5.34,5.46A5.48,5.48,0,0,0,77.32,29.8Z"/><path class="cls-4" d="M79.86,123.4c.07-1.33.17-2.28.16-3.23-.06-9.95-.21-19.89-.21-29.84,0-10.35.14-20.7.25-31,0-4.57,2.33-7.13,6.24-7.09s6,2.55,6.06,7c.06,7,0,14,0,21,0,1.46.2,2.92.32,4.57,6.18-5.33,10.74-3.66,12.81,4.77,2.16-2.81,4.86-4.52,8.17-3.29S117.88,90.43,118,94c2.06-2.37,3.83-4.55,7.13-3.93a6.72,6.72,0,0,1,5.47,6.24c0,10.48.38,21-.26,31.44-.48,7.81-2.26,15.54-3.65,23.27a3.15,3.15,0,0,1-2.37,1.85q-18.42.18-36.85,0a4.49,4.49,0,0,1-3-1.51c-6.53-7.68-13-15.39-19.36-23.24a9.26,9.26,0,0,1-1.94-5.14c-.22-6.68-.13-13.38-.08-20.07a6.46,6.46,0,0,1,4.52-6.37,5.1,5.1,0,0,1,6.14,1.78A8.3,8.3,0,0,1,75.4,103a101.76,101.76,0,0,1,0,12.87C75.14,119.4,77,121.31,79.86,123.4Z"/></g></g></g></svg>