<svg id="textes_jeu_4" data-name="textes jeu 4" xmlns="http://www.w3.org/2000/svg" viewBox="0 0 1920 1080"><defs><style>.cls-1{fill:#666;}</style></defs><title>4b_ui1</title><path class="cls-1" d="M354.32,388.17c0,3.75-2.13,6.93-6.22,6.93-3.92,0-6.44-3.13-6.44-9.4s2.4-9.4,6.44-9.4,6.27,3.28,6.22,7.17h-3c-.07-2.89-1-4.33-3-4.33-2.28,0-3.6,2.13-3.6,6.63s1.54,6.49,3.6,6.49c2.28,0,2.86-2.08,3-4.09Z"/><path class="cls-1" d="M358,376.64h2.64v18.11H358Z"/><path class="cls-1" d="M374,394.75h-2.42c0-.73,0-1.27,0-1.79a3.09,3.09,0,0,1-3,2.08c-2.57,0-4.43-2.45-4.43-7.12,0-4.48,1.59-7.15,4.43-7.15a3,3,0,0,1,3,2.15c0-.61,0-1.17,0-1.86H374Zm-7.2-6.8c0,3,.83,4.48,2.3,4.48a1.84,1.84,0,0,0,1.69-1c.49-.66.56-1.54.56-3.55s-.07-2.91-.56-3.57a1.87,1.87,0,0,0-1.69-.93c-1.47,0-2.3,1.42-2.3,4.5Z"/><path class="cls-1" d="M383.29,384.94c0-1.3-.64-1.86-1.74-1.86a1.36,1.36,0,0,0-1.47,1.42c0,1.32,1.44,1.57,3,2.06a4,4,0,0,1,3.16,4.16,4.31,4.31,0,0,1-4.55,4.33c-2.57,0-4.5-1.44-4.72-4.53h2.64a2,2,0,0,0,2.13,2.13,1.6,1.6,0,0,0,1.71-1.76c0-1.37-1.42-1.69-3.06-2.23s-3.13-1.44-3.13-4.06c0-2.23,1.59-3.82,4.36-3.82s4.14,1.54,4.28,4.16Z"/><path class="cls-1" d="M394.74,384.94c0-1.3-.64-1.86-1.74-1.86a1.36,1.36,0,0,0-1.47,1.42c0,1.32,1.44,1.57,3,2.06a4,4,0,0,1,3.16,4.16,4.31,4.31,0,0,1-4.55,4.33c-2.57,0-4.5-1.44-4.72-4.53h2.64a2,2,0,0,0,2.13,2.13,1.6,1.6,0,0,0,1.71-1.76c0-1.37-1.42-1.69-3.06-2.23s-3.13-1.44-3.13-4.06c0-2.23,1.59-3.82,4.36-3.82s4.14,1.54,4.28,4.16Z"/><path class="cls-1" d="M401.2,376.64h2.64v2.62H401.2Zm0,4.43h2.64v13.68H401.2Z"/><path class="cls-1" d="M417.25,399.35h-2.64v-4.6c0-.69,0-1.2,0-1.69a2.83,2.83,0,0,1-2.79,2c-2.84,0-4.43-2.67-4.43-7.12,0-4.7,1.86-7.15,4.43-7.15a2.88,2.88,0,0,1,2.94,2.08c0-.56,0-1.13,0-1.79h2.5Zm-7.2-11.41c0,3,.83,4.48,2.3,4.48a1.84,1.84,0,0,0,1.69-1c.49-.66.56-1.54.56-3.55s-.07-2.91-.56-3.57a1.87,1.87,0,0,0-1.69-.93c-1.47,0-2.3,1.42-2.3,4.5Z"/><path class="cls-1" d="M430.44,394.75H428c0-.59,0-1.17,0-1.81a3,3,0,0,1-3.18,2.11c-2.23,0-3.67-1.25-3.67-4.23v-9.74h2.64V390c0,1.1.22,2.47,1.84,2.47,1.25,0,2.13-.81,2.13-2.59v-8.76h2.64Z"/><path class="cls-1" d="M436.65,388.83c0,1.91.66,3.74,2.42,3.74a2.24,2.24,0,0,0,2.2-2.08h2.62a5.57,5.57,0,0,1-1.86,3.6,4.9,4.9,0,0,1-3,1c-3.65,0-5.26-3.33-5.26-7.12,0-4.06,1.79-7.15,5.24-7.15a4.33,4.33,0,0,1,3.87,2.08c1.05,1.71,1.15,3.92,1.1,6Zm4.72-2.28c0-1.57-.56-3.57-2.32-3.57-1.44,0-2.4,1.35-2.4,3.57Z"/><path class="cls-1" d="M457.09,388.83c0,1.91.66,3.74,2.42,3.74a2.24,2.24,0,0,0,2.2-2.08h2.62a5.57,5.57,0,0,1-1.86,3.6,4.9,4.9,0,0,1-3,1c-3.65,0-5.26-3.33-5.26-7.12,0-4.06,1.79-7.15,5.24-7.15a4.33,4.33,0,0,1,3.87,2.08c1.05,1.71,1.15,3.92,1.1,6Zm4.72-2.28c0-1.57-.56-3.57-2.33-3.57-1.44,0-2.4,1.35-2.4,3.57Z"/><path class="cls-1" d="M468.29,383.57h-1.64v-2.5h1.64v-3.25h2.64v3.25h1.62v2.5h-1.62v11.19h-2.64Z"/><path class="cls-1" d="M488.06,384.94c0-1.3-.64-1.86-1.74-1.86a1.36,1.36,0,0,0-1.47,1.42c0,1.32,1.44,1.57,3,2.06a4,4,0,0,1,3.16,4.16A4.31,4.31,0,0,1,486.5,395c-2.57,0-4.5-1.44-4.72-4.53h2.64a2,2,0,0,0,2.13,2.13,1.6,1.6,0,0,0,1.71-1.76c0-1.37-1.42-1.69-3.06-2.23s-3.13-1.44-3.13-4.06c0-2.23,1.59-3.82,4.36-3.82s4.14,1.54,4.28,4.16Z"/><path class="cls-1" d="M493.54,387.9c0-3.92,1.66-7.12,5.29-7.12s5.26,3.21,5.26,7.15-1.66,7.12-5.26,7.12-5.29-3.21-5.29-7.12Zm2.79,0c0,3.35.91,4.63,2.52,4.63s2.45-1.27,2.45-4.65-.91-4.65-2.52-4.65-2.45,1.25-2.45,4.65Z"/><path class="cls-1" d="M507.37,376.64H510v6.22a2.75,2.75,0,0,1,2.77-2.08c2.84,0,4.43,2.67,4.43,7.12,0,4.7-1.86,7.15-4.43,7.15a3,3,0,0,1-3-2.13v1.84h-2.42Zm7.2,11.26c0-2.77-.69-4.48-2.28-4.48-2,0-2.28,2.18-2.28,4.5s.32,4.5,2.28,4.5c1.59,0,2.28-1.74,2.28-4.5Z"/><path class="cls-1" d="M520.48,381.07h2.42c0,.83,0,1.52,0,2.2.56-2.08,2-2.5,3.55-2.5V384a2,2,0,0,0-1.13-.32c-1.2,0-2.18,1.17-2.18,3.35v7.73h-2.64Z"/><path class="cls-1" d="M531,388.83c0,1.91.66,3.74,2.42,3.74a2.24,2.24,0,0,0,2.2-2.08h2.62a5.57,5.57,0,0,1-1.86,3.6,4.9,4.9,0,0,1-3,1c-3.65,0-5.26-3.33-5.26-7.12,0-4.06,1.79-7.15,5.24-7.15a4.33,4.33,0,0,1,3.87,2.08c1.05,1.71,1.15,3.92,1.1,6Zm4.72-2.28c0-1.57-.56-3.57-2.32-3.57-1.44,0-2.4,1.35-2.4,3.57Z"/><path class="cls-1" d="M555.82,379.28a11,11,0,0,0-4.33,9.1,11.1,11.1,0,0,0,4.33,9.13v2.77A13.29,13.29,0,0,1,549,388.39c0-5.63,3.21-10.16,6.78-11.87Z"/><path class="cls-1" d="M562.06,395.27c0,2.45-1,4.14-3.35,4.28-.27,0-.56,0-.83,0v-2.52h.2c1-.12,1.35-.86,1.35-2.18v-13.8h2.64Zm-2.64-18.62h2.64v2.62h-2.64Z"/><path class="cls-1" d="M568.54,388.83c0,1.91.66,3.74,2.42,3.74a2.24,2.24,0,0,0,2.2-2.08h2.62a5.57,5.57,0,0,1-1.86,3.6,4.9,4.9,0,0,1-3,1c-3.65,0-5.26-3.33-5.26-7.12,0-4.06,1.79-7.15,5.24-7.15a4.33,4.33,0,0,1,3.87,2.08c1.05,1.71,1.15,3.92,1.1,6Zm4.72-2.28c0-1.57-.56-3.57-2.32-3.57-1.44,0-2.4,1.35-2.4,3.57Z"/><path class="cls-1" d="M586.82,381.07h2.52c0,.61,0,1.2,0,1.84a2.85,2.85,0,0,1,3-2.13,3,3,0,0,1,2.13.73,2.68,2.68,0,0,1,.69,1.15,3,3,0,0,1,1-1.22,4.34,4.34,0,0,1,2.35-.66,3.67,3.67,0,0,1,3.13,1.49,5.5,5.5,0,0,1,.86,3.23v9.25h-2.64v-8.86a3.34,3.34,0,0,0-.32-1.71,1.52,1.52,0,0,0-1.47-.76,1.85,1.85,0,0,0-1.54.59,2.71,2.71,0,0,0-.54,1.81v8.93h-2.64v-8.84a3.5,3.5,0,0,0-.32-1.74,1.49,1.49,0,0,0-1.44-.76A1.92,1.92,0,0,0,590,384a2.84,2.84,0,0,0-.54,1.86v8.91h-2.67Z"/><path class="cls-1" d="M607.54,376.64h2.81L608,382.2h-2.42Z"/><path class="cls-1" d="M615.64,394.12l-3.79-13h2.77l2.37,9,2.35-9h2.77l-5.46,18.28H614Z"/><path class="cls-1" d="M637.37,384.94c0-1.3-.64-1.86-1.74-1.86a1.36,1.36,0,0,0-1.47,1.42c0,1.32,1.44,1.57,3,2.06a4,4,0,0,1,3.16,4.16,4.31,4.31,0,0,1-4.55,4.33c-2.57,0-4.5-1.44-4.72-4.53h2.64a2,2,0,0,0,2.13,2.13,1.6,1.6,0,0,0,1.71-1.76c0-1.37-1.42-1.69-3.06-2.23s-3.13-1.44-3.13-4.06c0-2.23,1.59-3.82,4.36-3.82s4.14,1.54,4.28,4.16Z"/><path class="cls-1" d="M645.79,388.83c0,1.91.66,3.74,2.42,3.74a2.24,2.24,0,0,0,2.2-2.08H653a5.57,5.57,0,0,1-1.86,3.6,4.9,4.9,0,0,1-3,1c-3.65,0-5.26-3.33-5.26-7.12,0-4.06,1.79-7.15,5.24-7.15a4.33,4.33,0,0,1,3.87,2.08c1.05,1.71,1.15,3.92,1.1,6Zm4.72-2.28c0-1.57-.56-3.57-2.32-3.57-1.44,0-2.4,1.35-2.4,3.57Z"/><path class="cls-1" d="M656.53,381.07h2.33c0,.56,0,1.1,0,1.69a3.2,3.2,0,0,1,3.26-2c2.25,0,3.7,1.25,3.7,4.23v9.74h-2.64v-8.88c0-1.1-.22-2.45-1.84-2.45-1.27,0-2.13.78-2.13,2.57v8.76h-2.64Z"/><path class="cls-1" d="M675,384.94c0-1.3-.64-1.86-1.74-1.86a1.36,1.36,0,0,0-1.47,1.42c0,1.32,1.44,1.57,3,2.06a4,4,0,0,1,3.16,4.16,4.31,4.31,0,0,1-4.55,4.33c-2.57,0-4.5-1.44-4.72-4.53h2.64a2,2,0,0,0,2.13,2.13,1.6,1.6,0,0,0,1.71-1.76c0-1.37-1.42-1.69-3.06-2.23S669,387.21,669,384.6c0-2.23,1.59-3.82,4.36-3.82s4.14,1.54,4.28,4.16Z"/><path class="cls-1" d="M688.61,376.64h2.64v6.22a2.75,2.75,0,0,1,2.77-2.08c2.84,0,4.43,2.67,4.43,7.12,0,4.7-1.86,7.15-4.43,7.15a3,3,0,0,1-3-2.13v1.84h-2.42Zm7.2,11.26c0-2.77-.69-4.48-2.28-4.48-2,0-2.28,2.18-2.28,4.5s.32,4.5,2.28,4.5c1.59,0,2.28-1.74,2.28-4.5Z"/><path class="cls-1" d="M702,376.64h2.64v2.62H702Zm0,4.43h2.64v13.68H702Z"/><path class="cls-1" d="M711.17,388.83c0,1.91.66,3.74,2.42,3.74a2.24,2.24,0,0,0,2.2-2.08h2.62a5.57,5.57,0,0,1-1.86,3.6,4.9,4.9,0,0,1-3,1c-3.65,0-5.26-3.33-5.26-7.12,0-4.06,1.79-7.15,5.24-7.15a4.33,4.33,0,0,1,3.87,2.08c1.05,1.71,1.15,3.92,1.1,6Zm4.72-2.28c0-1.57-.56-3.57-2.32-3.57-1.44,0-2.4,1.35-2.4,3.57Z"/><path class="cls-1" d="M721.91,381.07h2.33c0,.56,0,1.1,0,1.69a3.2,3.2,0,0,1,3.26-2c2.25,0,3.7,1.25,3.7,4.23v9.74h-2.64v-8.88c0-1.1-.22-2.45-1.84-2.45-1.27,0-2.13.78-2.13,2.57v8.76h-2.64Z"/><path class="cls-1" d="M734.46,397.52a11.76,11.76,0,0,0,0-18.23v-2.77a13.28,13.28,0,0,1,6.8,11.9c0,5.63-3.23,10.16-6.8,11.87Z"/><path class="cls-1" d="M748.19,394.75h-2.64v-3.23h2.64Z"/><path class="cls-1" d="M344.63,461.07c.12,2.25,1.15,3.13,2.67,3.13a2.47,2.47,0,0,0,2.62-2.69c0-2-2.08-2.5-4-3.18s-4-1.74-4-4.87c0-3.33,2-5.43,5.24-5.43s4.92,1.54,5.41,5h-2.89a2.36,2.36,0,0,0-2.4-2.47A2.27,2.27,0,0,0,345,453c0,2,1.91,2.37,4,3.13,1.74.68,4,1.81,4,5.31,0,3.33-2.45,5.41-5.7,5.41-3.62,0-5.58-2-5.6-5.78Z"/><path class="cls-1" d="M356.76,455.31h-1.64v-2.5h1.64v-3.25h2.64v3.25H361v2.5h-1.62V466.5h-2.64Z"/><path class="cls-1" d="M363.81,452.82h2.42c0,.83,0,1.52,0,2.2.56-2.08,2-2.5,3.55-2.5v3.21a2,2,0,0,0-1.13-.32c-1.2,0-2.18,1.17-2.18,3.35v7.73h-2.64Z"/><path class="cls-1" d="M372.72,448.39h2.64V451h-2.64Zm0,4.43h2.64V466.5h-2.64Z"/><path class="cls-1" d="M388.55,461.51c-.1,2.79-1.54,5.29-4.43,5.29-3.4,0-5.29-2.86-5.29-7.12,0-4.53,2.06-7.15,5.26-7.15,2.91,0,4.38,2.47,4.43,5.34h-2.74c-.1-2.06-.86-2.84-1.88-2.84a1.71,1.71,0,0,0-1.66,1.08,7.81,7.81,0,0,0-.61,3.57c0,3.28.83,4.65,2.3,4.65,1.22,0,1.79-1.2,1.88-2.81Z"/><path class="cls-1" d="M391.93,455.31h-1.64v-2.5h1.64v-3.25h2.64v3.25h1.62v2.5h-1.62V466.5h-2.64Z"/><path class="cls-1" d="M413,451a11,11,0,0,0-4.33,9.11,11.1,11.1,0,0,0,4.33,9.13V472a13.29,13.29,0,0,1-6.78-11.89c0-5.63,3.21-10.16,6.78-11.87Z"/><path class="cls-1" d="M425.3,461.51c-.1,2.79-1.54,5.29-4.43,5.29-3.4,0-5.29-2.86-5.29-7.12,0-4.53,2.06-7.15,5.26-7.15,2.91,0,4.38,2.47,4.43,5.34h-2.74c-.1-2.06-.86-2.84-1.88-2.84A1.71,1.71,0,0,0,419,456.1a7.81,7.81,0,0,0-.61,3.57c0,3.28.83,4.65,2.3,4.65,1.22,0,1.79-1.2,1.88-2.81Z"/><path class="cls-1" d="M429.24,448.39h2.81l-2.35,5.56h-2.42Z"/><path class="cls-1" d="M437.19,460.58c0,1.91.66,3.74,2.42,3.74a2.24,2.24,0,0,0,2.2-2.08h2.62a5.57,5.57,0,0,1-1.86,3.6,4.9,4.9,0,0,1-3,1c-3.65,0-5.26-3.33-5.26-7.12,0-4.06,1.79-7.15,5.24-7.15a4.33,4.33,0,0,1,3.87,2.08c1.05,1.71,1.15,3.92,1.1,6Zm4.72-2.28c0-1.57-.56-3.57-2.33-3.57-1.44,0-2.4,1.35-2.4,3.57Z"/><path class="cls-1" d="M453.22,456.68c0-1.3-.64-1.86-1.74-1.86a1.36,1.36,0,0,0-1.47,1.42c0,1.32,1.44,1.57,3,2.06a4,4,0,0,1,3.16,4.16,4.31,4.31,0,0,1-4.55,4.33c-2.57,0-4.5-1.44-4.72-4.53h2.64a2,2,0,0,0,2.13,2.13,1.6,1.6,0,0,0,1.71-1.76c0-1.37-1.42-1.69-3.06-2.23s-3.13-1.44-3.13-4.06c0-2.23,1.59-3.82,4.36-3.82s4.14,1.54,4.28,4.16Z"/><path class="cls-1" d="M459.85,455.31h-1.64v-2.5h1.64v-3.25h2.64v3.25h1.62v2.5h-1.62V466.5h-2.64Z"/><path class="cls-1" d="M474.43,452.82H477c0,.61,0,1.2,0,1.84a2.85,2.85,0,0,1,3-2.13,3,3,0,0,1,2.13.73,2.68,2.68,0,0,1,.69,1.15,3,3,0,0,1,1-1.22,4.34,4.34,0,0,1,2.35-.66,3.67,3.67,0,0,1,3.13,1.49,5.5,5.5,0,0,1,.86,3.23v9.25h-2.64v-8.86a3.35,3.35,0,0,0-.32-1.71,1.52,1.52,0,0,0-1.47-.76,1.85,1.85,0,0,0-1.54.59,2.71,2.71,0,0,0-.54,1.81v8.93h-2.64v-8.84a3.5,3.5,0,0,0-.32-1.74,1.49,1.49,0,0,0-1.44-.76,1.93,1.93,0,0,0-1.54.56,2.85,2.85,0,0,0-.54,1.86v8.91h-2.67Z"/><path class="cls-1" d="M493.45,459.65c0-3.92,1.66-7.12,5.29-7.12s5.26,3.21,5.26,7.15-1.66,7.12-5.26,7.12-5.29-3.21-5.29-7.12Zm2.79,0c0,3.35.91,4.63,2.52,4.63s2.45-1.27,2.45-4.65-.91-4.65-2.52-4.65-2.45,1.25-2.45,4.65Z"/><path class="cls-1" d="M507.27,452.82h2.33c0,.56,0,1.1,0,1.69a3.2,3.2,0,0,1,3.26-2c2.25,0,3.7,1.25,3.7,4.23v9.74h-2.64v-8.88c0-1.1-.22-2.45-1.84-2.45-1.27,0-2.13.78-2.13,2.57v8.76h-2.64Z"/><path class="cls-1" d="M536.83,461.51c-.1,2.79-1.54,5.29-4.43,5.29-3.4,0-5.29-2.86-5.29-7.12,0-4.53,2.06-7.15,5.26-7.15,2.91,0,4.38,2.47,4.43,5.34h-2.74c-.1-2.06-.86-2.84-1.88-2.84a1.71,1.71,0,0,0-1.66,1.08,7.81,7.81,0,0,0-.61,3.57c0,3.28.83,4.65,2.3,4.65,1.22,0,1.79-1.2,1.88-2.81Z"/><path class="cls-1" d="M539.06,459.65c0-3.92,1.66-7.12,5.29-7.12s5.26,3.21,5.26,7.15-1.66,7.12-5.26,7.12-5.29-3.21-5.29-7.12Zm2.79,0c0,3.35.91,4.63,2.52,4.63s2.45-1.27,2.45-4.65-.91-4.65-2.52-4.65-2.45,1.25-2.45,4.65Z"/><path class="cls-1" d="M558.17,456.68c0-1.3-.64-1.86-1.74-1.86a1.36,1.36,0,0,0-1.47,1.42c0,1.32,1.44,1.57,3,2.06a4,4,0,0,1,3.16,4.16,4.31,4.31,0,0,1-4.55,4.33c-2.57,0-4.5-1.44-4.72-4.53h2.64a2,2,0,0,0,2.13,2.13,1.6,1.6,0,0,0,1.71-1.76c0-1.37-1.42-1.69-3.06-2.23s-3.13-1.44-3.13-4.06c0-2.23,1.59-3.82,4.36-3.82s4.14,1.54,4.28,4.16Z"/><path class="cls-1" d="M564.8,455.31h-1.64v-2.5h1.64v-3.25h2.64v3.25h1.62v2.5h-1.62V466.5H564.8Z"/><path class="cls-1" d="M581.07,466.5h-2.42c0-.59,0-1.17,0-1.81a3,3,0,0,1-3.18,2.11c-2.23,0-3.67-1.25-3.67-4.23v-9.74h2.64v8.88c0,1.1.22,2.47,1.84,2.47,1.25,0,2.13-.81,2.13-2.59v-8.76h2.64Z"/><path class="cls-1" d="M585.13,452.82h2.52c0,.61,0,1.2,0,1.84a2.85,2.85,0,0,1,3-2.13,3,3,0,0,1,2.13.73,2.68,2.68,0,0,1,.69,1.15,3,3,0,0,1,1-1.22,4.34,4.34,0,0,1,2.35-.66,3.67,3.67,0,0,1,3.13,1.49,5.5,5.5,0,0,1,.86,3.23v9.25h-2.64v-8.86a3.35,3.35,0,0,0-.32-1.71,1.52,1.52,0,0,0-1.47-.76,1.85,1.85,0,0,0-1.54.59,2.71,2.71,0,0,0-.54,1.81v8.93h-2.64v-8.84a3.5,3.5,0,0,0-.32-1.74,1.49,1.49,0,0,0-1.44-.76,1.93,1.93,0,0,0-1.54.56,2.85,2.85,0,0,0-.54,1.86v8.91h-2.67Z"/><path class="cls-1" d="M607.08,460.58c0,1.91.66,3.74,2.42,3.74a2.24,2.24,0,0,0,2.2-2.08h2.62a5.57,5.57,0,0,1-1.86,3.6,4.9,4.9,0,0,1-3,1c-3.65,0-5.26-3.33-5.26-7.12,0-4.06,1.79-7.15,5.24-7.15a4.33,4.33,0,0,1,3.87,2.08c1.05,1.71,1.15,3.92,1.1,6Zm4.72-2.28c0-1.57-.56-3.57-2.32-3.57-1.44,0-2.4,1.35-2.4,3.57Z"/><path class="cls-1" d="M634.41,466.5H632c0-.81,0-1.4,0-2a3,3,0,0,1-3,2.28c-2.57,0-4.43-2.45-4.43-7.12,0-4.48,1.59-7.15,4.43-7.15a2.81,2.81,0,0,1,2.79,2c0-.54,0-1.08,0-1.69v-4.43h2.64Zm-7.2-6.83c0,3.06.83,4.48,2.3,4.48a1.87,1.87,0,0,0,1.69-.93c.49-.69.56-1.54.56-3.57s-.07-2.89-.56-3.55a1.84,1.84,0,0,0-1.69-1c-1.47,0-2.3,1.44-2.3,4.5Z"/><path class="cls-1" d="M640.63,460.58c0,1.91.66,3.74,2.42,3.74a2.24,2.24,0,0,0,2.2-2.08h2.62a5.57,5.57,0,0,1-1.86,3.6,4.9,4.9,0,0,1-3,1c-3.65,0-5.26-3.33-5.26-7.12,0-4.06,1.79-7.15,5.24-7.15a4.33,4.33,0,0,1,3.87,2.08c1.05,1.71,1.15,3.92,1.1,6Zm4.72-2.28c0-1.57-.56-3.57-2.32-3.57-1.44,0-2.4,1.35-2.4,3.57Z"/><path class="cls-1" d="M656.65,456.68c0-1.3-.64-1.86-1.74-1.86a1.36,1.36,0,0,0-1.47,1.42c0,1.32,1.44,1.57,3,2.06a4,4,0,0,1,3.16,4.16,4.31,4.31,0,0,1-4.55,4.33c-2.57,0-4.5-1.44-4.72-4.53H653a2,2,0,0,0,2.13,2.13,1.6,1.6,0,0,0,1.71-1.76c0-1.37-1.42-1.69-3.06-2.23s-3.13-1.44-3.13-4.06c0-2.23,1.59-3.82,4.36-3.82s4.14,1.54,4.28,4.16Z"/><path class="cls-1" d="M679.41,466.3a5.16,5.16,0,0,1-1.22,3.72,4.78,4.78,0,0,1-3.67,1.37,4.5,4.5,0,0,1-4.7-4h2.77a1.76,1.76,0,0,0,.56,1.08,2,2,0,0,0,1.4.44c1.44,0,2.25-.81,2.28-2.77v-1.37a2.67,2.67,0,0,1-2.81,2c-3,0-4.43-2.67-4.43-7.12s1.42-7.15,4.43-7.15a3.16,3.16,0,0,1,3.16,2.13c0-.59,0-1.17,0-1.84h2.28Zm-7.2-6.61c0,3,.83,4.48,2.3,4.48a1.84,1.84,0,0,0,1.69-1c.49-.66.56-1.54.56-3.55s-.07-2.91-.56-3.57a1.87,1.87,0,0,0-1.69-.93c-1.47,0-2.3,1.42-2.3,4.5Z"/><path class="cls-1" d="M683.37,452.82h2.42c0,.83,0,1.52,0,2.2.56-2.08,2-2.5,3.55-2.5v3.21a2,2,0,0,0-1.13-.32c-1.2,0-2.18,1.17-2.18,3.35v7.73h-2.64Z"/><path class="cls-1" d="M700.8,466.5h-2.42c0-.73,0-1.27,0-1.79a3.09,3.09,0,0,1-3,2.08c-2.57,0-4.43-2.45-4.43-7.12,0-4.48,1.59-7.15,4.43-7.15a3,3,0,0,1,3,2.15c0-.61,0-1.17,0-1.86h2.42Zm-7.2-6.8c0,3,.83,4.48,2.3,4.48a1.84,1.84,0,0,0,1.69-1c.49-.66.56-1.54.56-3.55s-.07-2.91-.56-3.57a1.87,1.87,0,0,0-1.69-.93c-1.47,0-2.3,1.42-2.3,4.5Z"/><path class="cls-1" d="M704.76,452.82h2.33c0,.56,0,1.1,0,1.69a3.2,3.2,0,0,1,3.26-2c2.25,0,3.7,1.25,3.7,4.23v9.74h-2.64v-8.88c0-1.1-.22-2.45-1.84-2.45-1.27,0-2.13.78-2.13,2.57v8.76h-2.64Z"/><path class="cls-1" d="M727.1,466.5h-2.42c0-.81,0-1.4,0-2a3,3,0,0,1-3,2.28c-2.57,0-4.43-2.45-4.43-7.12,0-4.48,1.59-7.15,4.43-7.15a2.81,2.81,0,0,1,2.79,2c0-.54,0-1.08,0-1.69v-4.43h2.64Zm-7.2-6.83c0,3.06.83,4.48,2.3,4.48a1.87,1.87,0,0,0,1.69-.93c.49-.69.56-1.54.56-3.57s-.07-2.89-.56-3.55a1.84,1.84,0,0,0-1.69-1c-1.47,0-2.3,1.44-2.3,4.5Z"/><path class="cls-1" d="M733.31,460.58c0,1.91.66,3.74,2.42,3.74a2.24,2.24,0,0,0,2.2-2.08h2.62a5.57,5.57,0,0,1-1.86,3.6,4.9,4.9,0,0,1-3,1c-3.65,0-5.26-3.33-5.26-7.12,0-4.06,1.79-7.15,5.24-7.15a4.33,4.33,0,0,1,3.87,2.08c1.05,1.71,1.15,3.92,1.1,6ZM738,458.3c0-1.57-.56-3.57-2.33-3.57-1.44,0-2.4,1.35-2.4,3.57Z"/><path class="cls-1" d="M749.34,456.68c0-1.3-.64-1.86-1.74-1.86a1.36,1.36,0,0,0-1.47,1.42c0,1.32,1.44,1.57,3,2.06a4,4,0,0,1,3.16,4.16,4.31,4.31,0,0,1-4.55,4.33c-2.57,0-4.5-1.44-4.72-4.53h2.64a2,2,0,0,0,2.13,2.13,1.6,1.6,0,0,0,1.71-1.76c0-1.37-1.42-1.69-3.06-2.23s-3.13-1.44-3.13-4.06c0-2.23,1.59-3.82,4.36-3.82s4.14,1.54,4.28,4.16Z"/><path class="cls-1" d="M762.26,459.65c0-3.92,1.66-7.12,5.29-7.12s5.26,3.21,5.26,7.15-1.66,7.12-5.26,7.12-5.29-3.21-5.29-7.12Zm2.79,0c0,3.35.91,4.63,2.52,4.63S770,463,770,459.67s-.91-4.65-2.52-4.65-2.45,1.25-2.45,4.65Z"/><path class="cls-1" d="M785,461.51c-.1,2.79-1.54,5.29-4.43,5.29-3.4,0-5.29-2.86-5.29-7.12,0-4.53,2.06-7.15,5.26-7.15,2.91,0,4.38,2.47,4.43,5.34h-2.74c-.1-2.06-.86-2.84-1.88-2.84a1.71,1.71,0,0,0-1.66,1.08,7.81,7.81,0,0,0-.61,3.57c0,3.28.83,4.65,2.3,4.65,1.22,0,1.79-1.2,1.88-2.81Z"/><path class="cls-1" d="M796.86,461.51c-.1,2.79-1.54,5.29-4.43,5.29-3.4,0-5.29-2.86-5.29-7.12,0-4.53,2.06-7.15,5.26-7.15,2.91,0,4.38,2.47,4.43,5.34h-2.74c-.1-2.06-.86-2.84-1.88-2.84a1.71,1.71,0,0,0-1.66,1.08,7.81,7.81,0,0,0-.61,3.57c0,3.28.83,4.65,2.3,4.65,1.22,0,1.79-1.2,1.88-2.81Z"/><path class="cls-1" d="M808.92,466.5H806.5c0-.73,0-1.27,0-1.79a3.09,3.09,0,0,1-3,2.08c-2.57,0-4.43-2.45-4.43-7.12,0-4.48,1.59-7.15,4.43-7.15a3,3,0,0,1,3,2.15c0-.61,0-1.17,0-1.86h2.42Zm-7.2-6.8c0,3,.83,4.48,2.3,4.48a1.84,1.84,0,0,0,1.69-1c.49-.66.56-1.54.56-3.55s-.07-2.91-.56-3.57a1.87,1.87,0,0,0-1.69-.93c-1.47,0-2.3,1.42-2.3,4.5Z"/><path class="cls-1" d="M818.17,456.68c0-1.3-.64-1.86-1.74-1.86a1.36,1.36,0,0,0-1.47,1.42c0,1.32,1.44,1.57,3,2.06a4,4,0,0,1,3.16,4.16,4.31,4.31,0,0,1-4.55,4.33c-2.57,0-4.5-1.44-4.72-4.53h2.64a2,2,0,0,0,2.13,2.13,1.6,1.6,0,0,0,1.71-1.76c0-1.37-1.42-1.69-3.06-2.23s-3.13-1.44-3.13-4.06c0-2.23,1.59-3.82,4.36-3.82s4.14,1.54,4.28,4.16Z"/><path class="cls-1" d="M824.63,448.39h2.64V451h-2.64Zm0,4.43h2.64V466.5h-2.64Z"/><path class="cls-1" d="M830.84,459.65c0-3.92,1.66-7.12,5.29-7.12s5.26,3.21,5.26,7.15-1.66,7.12-5.26,7.12-5.29-3.21-5.29-7.12Zm2.79,0c0,3.35.91,4.63,2.52,4.63s2.45-1.27,2.45-4.65-.91-4.65-2.52-4.65-2.45,1.25-2.45,4.65Z"/><path class="cls-1" d="M844.67,452.82H847c0,.56,0,1.1,0,1.69a3.2,3.2,0,0,1,3.26-2c2.25,0,3.7,1.25,3.7,4.23v9.74h-2.64v-8.88c0-1.1-.22-2.45-1.84-2.45-1.27,0-2.13.78-2.13,2.57v8.76h-2.64Z"/><path class="cls-1" d="M863.14,456.68c0-1.3-.64-1.86-1.74-1.86a1.36,1.36,0,0,0-1.47,1.42c0,1.32,1.44,1.57,3,2.06a4,4,0,0,1,3.16,4.16,4.31,4.31,0,0,1-4.55,4.33c-2.57,0-4.5-1.44-4.72-4.53h2.64a2,2,0,0,0,2.13,2.13,1.6,1.6,0,0,0,1.71-1.76c0-1.37-1.42-1.69-3.06-2.23s-3.13-1.44-3.13-4.06c0-2.23,1.59-3.82,4.36-3.82s4.14,1.54,4.28,4.16Z"/><path class="cls-1" d="M868.67,469.27a11.76,11.76,0,0,0,0-18.23v-2.77a13.28,13.28,0,0,1,6.8,11.9c0,5.63-3.23,10.16-6.8,11.87Z"/><path class="cls-1" d="M882.4,466.5h-2.64v-3.23h2.64Z"/><path class="cls-1" d="M341.67,532c0-5.53,2.2-9.37,6.61-9.37s6.63,3.84,6.63,9.4c0,5.29-2.06,9.4-6.63,9.4-4.41,0-6.61-3.84-6.61-9.4Zm3.06,0c0,4.58,1.27,6.61,3.55,6.61s3.57-2,3.57-6.63-1.27-6.63-3.57-6.63-3.55,2-3.55,6.63Z"/><path class="cls-1" d="M358.26,527.39h2.42c0,.83,0,1.52,0,2.2.56-2.08,2-2.5,3.55-2.5v3.21a2,2,0,0,0-1.13-.32c-1.2,0-2.18,1.17-2.18,3.35v7.73h-2.64Z"/><path class="cls-1" d="M367.16,523h2.64v2.62h-2.64Zm0,4.43h2.64v13.68h-2.64Z"/><path class="cls-1" d="M383.22,540.88A5.16,5.16,0,0,1,382,544.6a4.78,4.78,0,0,1-3.67,1.37,4.5,4.5,0,0,1-4.7-4h2.77a1.76,1.76,0,0,0,.56,1.08,2,2,0,0,0,1.4.44c1.44,0,2.25-.81,2.28-2.77v-1.37a2.67,2.67,0,0,1-2.81,2c-3,0-4.43-2.67-4.43-7.12s1.42-7.15,4.43-7.15a3.16,3.16,0,0,1,3.16,2.13c0-.59,0-1.17,0-1.84h2.28Zm-7.2-6.61c0,3,.83,4.48,2.3,4.48a1.84,1.84,0,0,0,1.69-1c.49-.66.56-1.54.56-3.55s-.07-2.91-.56-3.57a1.87,1.87,0,0,0-1.69-.93c-1.47,0-2.3,1.42-2.3,4.5Z"/><path class="cls-1" d="M387.47,523h2.64v2.62h-2.64Zm0,4.43h2.64v13.68h-2.64Z"/><path class="cls-1" d="M394.37,527.39h2.33c0,.56,0,1.1,0,1.69a3.2,3.2,0,0,1,3.26-2c2.25,0,3.7,1.25,3.7,4.23v9.74H401v-8.88c0-1.1-.22-2.45-1.84-2.45-1.27,0-2.13.78-2.13,2.57v8.76h-2.64Z"/><path class="cls-1" d="M416.71,541.07h-2.42c0-.73,0-1.27,0-1.79a3.09,3.09,0,0,1-3,2.08c-2.57,0-4.43-2.45-4.43-7.12,0-4.48,1.59-7.15,4.43-7.15a3,3,0,0,1,3,2.15c0-.61,0-1.17,0-1.86h2.42Zm-7.2-6.8c0,3,.83,4.48,2.3,4.48a1.84,1.84,0,0,0,1.69-1c.49-.66.56-1.54.56-3.55s-.07-2.91-.56-3.57a1.87,1.87,0,0,0-1.69-.93c-1.47,0-2.3,1.42-2.3,4.5Z"/><path class="cls-1" d="M421,523h2.64v18.11H421Z"/><path class="cls-1" d="M430.12,535.15c0,1.91.66,3.74,2.42,3.74a2.24,2.24,0,0,0,2.2-2.08h2.62a5.57,5.57,0,0,1-1.86,3.6,4.9,4.9,0,0,1-3,1c-3.65,0-5.26-3.33-5.26-7.12,0-4.06,1.79-7.15,5.24-7.15a4.33,4.33,0,0,1,3.87,2.08c1.05,1.71,1.15,3.92,1.1,6Zm4.72-2.28c0-1.57-.56-3.57-2.32-3.57-1.44,0-2.4,1.35-2.4,3.57Z"/><path class="cls-1" d="M454.93,525.6a11,11,0,0,0-4.33,9.11,11.1,11.1,0,0,0,4.33,9.13v2.77a13.29,13.29,0,0,1-6.78-11.89c0-5.63,3.21-10.16,6.78-11.87Z"/><path class="cls-1" d="M457.57,534.22c0-3.92,1.66-7.12,5.29-7.12s5.26,3.21,5.26,7.15-1.66,7.12-5.26,7.12-5.29-3.21-5.29-7.12Zm2.79,0c0,3.35.91,4.63,2.52,4.63s2.45-1.27,2.45-4.65-.91-4.65-2.52-4.65-2.45,1.25-2.45,4.65Z"/><path class="cls-1" d="M471.4,527.39h2.33c0,.56,0,1.1,0,1.69a3.2,3.2,0,0,1,3.26-2c2.25,0,3.7,1.25,3.7,4.23v9.74H478v-8.88c0-1.1-.22-2.45-1.84-2.45-1.27,0-2.13.78-2.13,2.57v8.76H471.4Z"/><path class="cls-1" d="M492,527.39h2.33c0,.56,0,1.1,0,1.69a3.2,3.2,0,0,1,3.26-2c2.25,0,3.7,1.25,3.7,4.23v9.74h-2.64v-8.88c0-1.1-.22-2.45-1.84-2.45-1.27,0-2.13.78-2.13,2.57v8.76H492Z"/><path class="cls-1" d="M507.47,535.15c0,1.91.66,3.74,2.42,3.74a2.24,2.24,0,0,0,2.2-2.08h2.62a5.57,5.57,0,0,1-1.86,3.6,4.9,4.9,0,0,1-3,1c-3.65,0-5.26-3.33-5.26-7.12,0-4.06,1.79-7.15,5.24-7.15a4.33,4.33,0,0,1,3.87,2.08c1.05,1.71,1.15,3.92,1.1,6Zm4.72-2.28c0-1.57-.56-3.57-2.32-3.57-1.44,0-2.4,1.35-2.4,3.57Z"/><path class="cls-1" d="M525.65,527.39h2.42v1.79a3,3,0,0,1,3-2.08c2.57,0,4.43,2.45,4.43,7.15,0,4.45-1.59,7.12-4.43,7.12a2.91,2.91,0,0,1-2.77-1.86v6.17h-2.64Zm7.2,6.83c0-3.06-.81-4.48-2.3-4.48a1.83,1.83,0,0,0-1.62.93c-.49.66-.64,1.54-.64,3.57s.15,2.89.64,3.55a1.81,1.81,0,0,0,1.62,1c1.49,0,2.3-1.44,2.3-4.5Z"/><path class="cls-1" d="M538.08,534.22c0-3.92,1.66-7.12,5.29-7.12s5.26,3.21,5.26,7.15-1.66,7.12-5.26,7.12-5.29-3.21-5.29-7.12Zm2.79,0c0,3.35.91,4.63,2.52,4.63s2.45-1.27,2.45-4.65-.91-4.65-2.52-4.65-2.45,1.25-2.45,4.65Z"/><path class="cls-1" d="M561.13,541.07h-2.42c0-.59,0-1.17,0-1.81a3,3,0,0,1-3.18,2.11c-2.23,0-3.67-1.25-3.67-4.23v-9.74h2.64v8.88c0,1.1.22,2.47,1.84,2.47,1.25,0,2.13-.81,2.13-2.59v-8.76h2.64Z"/><path class="cls-1" d="M565.09,527.39h2.42c0,.83,0,1.52,0,2.2.56-2.08,2-2.5,3.55-2.5v3.21a2,2,0,0,0-1.13-.32c-1.2,0-2.18,1.17-2.18,3.35v7.73h-2.64Z"/><path class="cls-1" d="M573.7,527.39h2.42c0,.83,0,1.52,0,2.2.56-2.08,2-2.5,3.55-2.5v3.21a2,2,0,0,0-1.13-.32c-1.2,0-2.18,1.17-2.18,3.35v7.73H573.7Z"/><path class="cls-1" d="M591.13,541.07H588.7c0-.73,0-1.27,0-1.79a3.09,3.09,0,0,1-3,2.08c-2.57,0-4.43-2.45-4.43-7.12,0-4.48,1.59-7.15,4.43-7.15a3,3,0,0,1,3,2.15c0-.61,0-1.17,0-1.86h2.42Zm-7.2-6.8c0,3,.83,4.48,2.3,4.48a1.84,1.84,0,0,0,1.69-1c.49-.66.56-1.54.56-3.55s-.07-2.91-.56-3.57a1.87,1.87,0,0,0-1.69-.93c-1.47,0-2.3,1.42-2.3,4.5Z"/><path class="cls-1" d="M602.53,527.39H605v1.79a3,3,0,0,1,3-2.08c2.57,0,4.43,2.45,4.43,7.15,0,4.45-1.59,7.12-4.43,7.12a2.91,2.91,0,0,1-2.77-1.86v6.17h-2.64Zm7.2,6.83c0-3.06-.81-4.48-2.3-4.48a1.83,1.83,0,0,0-1.62.93c-.49.66-.64,1.54-.64,3.57s.15,2.89.64,3.55a1.81,1.81,0,0,0,1.62,1c1.49,0,2.3-1.44,2.3-4.5Z"/><path class="cls-1" d="M624.8,541.07h-2.42c0-.73,0-1.27,0-1.79a3.09,3.09,0,0,1-3,2.08c-2.57,0-4.43-2.45-4.43-7.12,0-4.48,1.59-7.15,4.43-7.15a3,3,0,0,1,3,2.15c0-.61,0-1.17,0-1.86h2.42Zm-7.2-6.8c0,3,.83,4.48,2.3,4.48a1.84,1.84,0,0,0,1.69-1c.49-.66.56-1.54.56-3.55s-.07-2.91-.56-3.57a1.87,1.87,0,0,0-1.69-.93c-1.47,0-2.3,1.42-2.3,4.5Z"/><path class="cls-1" d="M634,531.26c0-1.3-.64-1.86-1.74-1.86a1.36,1.36,0,0,0-1.47,1.42c0,1.32,1.44,1.57,3,2.06A4,4,0,0,1,637,537a4.31,4.31,0,0,1-4.55,4.33c-2.57,0-4.5-1.44-4.72-4.53h2.64a2,2,0,0,0,2.13,2.13,1.6,1.6,0,0,0,1.71-1.76c0-1.37-1.42-1.69-3.06-2.23s-3.13-1.44-3.13-4.06c0-2.23,1.59-3.82,4.36-3.82s4.14,1.54,4.28,4.16Z"/><path class="cls-1" d="M647.75,527.39h2.52c0,.61,0,1.2,0,1.84a2.85,2.85,0,0,1,3-2.13,3,3,0,0,1,2.13.73,2.68,2.68,0,0,1,.69,1.15,3,3,0,0,1,1-1.22,4.34,4.34,0,0,1,2.35-.66,3.67,3.67,0,0,1,3.13,1.49,5.5,5.5,0,0,1,.86,3.23v9.25h-2.64v-8.86a3.34,3.34,0,0,0-.32-1.71,1.52,1.52,0,0,0-1.47-.76,1.85,1.85,0,0,0-1.54.59,2.71,2.71,0,0,0-.54,1.81v8.93h-2.64v-8.84a3.5,3.5,0,0,0-.32-1.74,1.49,1.49,0,0,0-1.44-.76,1.93,1.93,0,0,0-1.54.56,2.85,2.85,0,0,0-.54,1.86v8.91h-2.67Z"/><path class="cls-1" d="M668.47,523h2.81l-2.35,5.56h-2.42Z"/><path class="cls-1" d="M673.49,534.22c0-3.92,1.66-7.12,5.29-7.12s5.26,3.21,5.26,7.15-1.66,7.12-5.26,7.12-5.29-3.21-5.29-7.12Zm2.79,0c0,3.35.91,4.63,2.52,4.63s2.45-1.27,2.45-4.65-.91-4.65-2.52-4.65-2.45,1.25-2.45,4.65Z"/><path class="cls-1" d="M696.54,541.07h-2.42c0-.59,0-1.17,0-1.81a3,3,0,0,1-3.18,2.11c-2.23,0-3.67-1.25-3.67-4.23v-9.74h2.64v8.88c0,1.1.22,2.47,1.84,2.47,1.25,0,2.13-.81,2.13-2.59v-8.76h2.64Z"/><path class="cls-1" d="M700.5,523h2.64v6.22a2.75,2.75,0,0,1,2.77-2.08c2.84,0,4.43,2.67,4.43,7.12,0,4.7-1.86,7.15-4.43,7.15a3,3,0,0,1-3-2.13v1.84H700.5Zm7.2,11.26c0-2.77-.69-4.48-2.28-4.48-2,0-2.28,2.18-2.28,4.5s.32,4.5,2.28,4.5c1.59,0,2.28-1.74,2.28-4.5Z"/><path class="cls-1" d="M713.91,523h2.64v18.11h-2.64Z"/><path class="cls-1" d="M721.1,523h2.64v2.62H721.1Zm0,4.43h2.64v13.68H721.1Z"/><path class="cls-1" d="M730.25,535.15c0,1.91.66,3.74,2.42,3.74a2.24,2.24,0,0,0,2.2-2.08h2.62a5.57,5.57,0,0,1-1.86,3.6,4.9,4.9,0,0,1-3,1c-3.65,0-5.26-3.33-5.26-7.12,0-4.06,1.79-7.15,5.24-7.15a4.33,4.33,0,0,1,3.87,2.08c1.05,1.71,1.15,3.92,1.1,6Zm4.72-2.28c0-1.57-.56-3.57-2.33-3.57-1.44,0-2.4,1.35-2.4,3.57Z"/><path class="cls-1" d="M741,527.39h2.42c0,.83,0,1.52,0,2.2.56-2.08,2-2.5,3.55-2.5v3.21a2,2,0,0,0-1.13-.32c-1.2,0-2.18,1.17-2.18,3.35v7.73H741Z"/><path class="cls-1" d="M749,543.84a11.76,11.76,0,0,0,0-18.23v-2.77a13.28,13.28,0,0,1,6.8,11.9c0,5.63-3.23,10.16-6.8,11.87Z"/><path class="cls-1" d="M762.7,541.07h-2.64v-3.23h2.64Z"/><path class="cls-1" d="M1059.51,732.06a6.16,6.16,0,0,1,4.36,1.42,6.24,6.24,0,0,1,0,8.59,6.19,6.19,0,0,1-4.36,1.42H1058v6.68h-3V732.06Zm-1.49,8.66h1.47a2.9,2.9,0,0,0,2.28-.69,3.84,3.84,0,0,0,0-4.55,3,3,0,0,0-2.25-.66H1058Z"/><path class="cls-1" d="M1067.31,743.32c0-3.92,1.66-7.12,5.29-7.12s5.26,3.21,5.26,7.15-1.66,7.12-5.26,7.12-5.29-3.21-5.29-7.12Zm2.79,0c0,3.35.91,4.63,2.52,4.63s2.45-1.27,2.45-4.65-.91-4.65-2.52-4.65-2.45,1.25-2.45,4.65Z"/><path class="cls-1" d="M1090.36,750.17h-2.42c0-.59,0-1.17,0-1.81a3,3,0,0,1-3.18,2.11c-2.23,0-3.67-1.25-3.67-4.23v-9.74h2.64v8.88c0,1.1.22,2.47,1.84,2.47,1.25,0,2.13-.81,2.13-2.59v-8.76h2.64Z"/><path class="cls-1" d="M1094.33,736.49h2.42c0,.83,0,1.52,0,2.2.56-2.08,2-2.5,3.55-2.5v3.21a2,2,0,0,0-1.13-.32c-1.2,0-2.18,1.17-2.18,3.35v7.73h-2.64Z"/><path class="cls-1" d="M1119.53,750.17h-2.42c0-.73,0-1.27,0-1.79a3.09,3.09,0,0,1-3,2.08c-2.57,0-4.43-2.45-4.43-7.12,0-4.48,1.59-7.15,4.43-7.15a3,3,0,0,1,3,2.15c0-.61,0-1.17,0-1.86h2.42Zm-7.2-6.8c0,3,.83,4.48,2.3,4.48a1.84,1.84,0,0,0,1.69-1c.49-.66.56-1.54.56-3.55s-.07-2.91-.56-3.57a1.87,1.87,0,0,0-1.69-.93c-1.47,0-2.3,1.42-2.3,4.5Z"/><path class="cls-1" d="M1128.56,750.17h-2.45l-4-13.68h2.69l2.52,9.77,2.33-9.77h2.67Z"/><path class="cls-1" d="M1133.94,743.32c0-3.92,1.66-7.12,5.29-7.12s5.26,3.21,5.26,7.15-1.66,7.12-5.26,7.12-5.29-3.21-5.29-7.12Zm2.79,0c0,3.35.91,4.63,2.52,4.63s2.45-1.27,2.45-4.65-.91-4.65-2.52-4.65-2.45,1.25-2.45,4.65Z"/><path class="cls-1" d="M1148.06,732.06h2.64v2.62h-2.64Zm0,4.43h2.64v13.68h-2.64Z"/><path class="cls-1" d="M1155,736.49h2.42c0,.83,0,1.52,0,2.2.56-2.08,2-2.5,3.55-2.5v3.21a2,2,0,0,0-1.13-.32c-1.2,0-2.18,1.17-2.18,3.35v7.73H1155Z"/><path class="cls-1" d="M1180.24,750.17h-2.42c0-.59,0-1.17,0-1.81a3,3,0,0,1-3.18,2.11c-2.23,0-3.67-1.25-3.67-4.23v-9.74h2.64v8.88c0,1.1.22,2.47,1.84,2.47,1.25,0,2.13-.81,2.13-2.59v-8.76h2.64Z"/><path class="cls-1" d="M1184.2,736.49h2.33c0,.56,0,1.1,0,1.69a3.2,3.2,0,0,1,3.26-2c2.25,0,3.7,1.25,3.7,4.23v9.74h-2.64v-8.88c0-1.1-.22-2.45-1.84-2.45-1.27,0-2.13.78-2.13,2.57v8.76h-2.64Z"/><path class="cls-1" d="M1199.64,744.25c0,1.91.66,3.74,2.42,3.74a2.24,2.24,0,0,0,2.2-2.08h2.62a5.57,5.57,0,0,1-1.86,3.6,4.9,4.9,0,0,1-3,1c-3.65,0-5.26-3.33-5.26-7.12,0-4.06,1.79-7.15,5.24-7.15a4.33,4.33,0,0,1,3.87,2.08c1.05,1.71,1.15,3.92,1.1,6Zm4.72-2.28c0-1.57-.56-3.57-2.33-3.57-1.44,0-2.4,1.35-2.4,3.57Z"/><path class="cls-1" d="M1217.82,732.06h2.64v6.22a2.75,2.75,0,0,1,2.77-2.08c2.84,0,4.43,2.67,4.43,7.12,0,4.7-1.86,7.15-4.43,7.15a3,3,0,0,1-3-2.13v1.84h-2.42Zm7.2,11.26c0-2.77-.69-4.48-2.28-4.48-2,0-2.28,2.18-2.28,4.5s.32,4.5,2.28,4.5c1.59,0,2.28-1.74,2.28-4.5Z"/><path class="cls-1" d="M1230.25,743.32c0-3.92,1.66-7.12,5.29-7.12s5.26,3.21,5.26,7.15-1.66,7.12-5.26,7.12-5.29-3.21-5.29-7.12Zm2.79,0c0,3.35.91,4.63,2.52,4.63s2.45-1.27,2.45-4.65-.91-4.65-2.52-4.65-2.45,1.25-2.45,4.65Z"/><path class="cls-1" d="M1244.07,736.49h2.33c0,.56,0,1.1,0,1.69a3.2,3.2,0,0,1,3.26-2c2.25,0,3.7,1.25,3.7,4.23v9.74h-2.64v-8.88c0-1.1-.22-2.45-1.84-2.45-1.27,0-2.13.78-2.13,2.57v8.76h-2.64Z"/><path class="cls-1" d="M1257.26,736.49h2.33c0,.56,0,1.1,0,1.69a3.2,3.2,0,0,1,3.26-2c2.25,0,3.7,1.25,3.7,4.23v9.74h-2.64v-8.88c0-1.1-.22-2.45-1.84-2.45-1.27,0-2.13.78-2.13,2.57v8.76h-2.64Z"/><path class="cls-1" d="M1272.7,744.25c0,1.91.66,3.74,2.42,3.74a2.24,2.24,0,0,0,2.2-2.08h2.62a5.57,5.57,0,0,1-1.86,3.6,4.9,4.9,0,0,1-3,1c-3.65,0-5.26-3.33-5.26-7.12,0-4.06,1.79-7.15,5.24-7.15a4.33,4.33,0,0,1,3.87,2.08c1.05,1.71,1.15,3.92,1.1,6Zm4.72-2.28c0-1.57-.56-3.57-2.33-3.57-1.44,0-2.4,1.35-2.4,3.57Z"/><path class="cls-1" d="M1290.88,736.49h2.33c0,.56,0,1.1,0,1.69a3.2,3.2,0,0,1,3.26-2c2.25,0,3.7,1.25,3.7,4.23v9.74h-2.64v-8.88c0-1.1-.22-2.45-1.84-2.45-1.27,0-2.13.78-2.13,2.57v8.76h-2.64Z"/><path class="cls-1" d="M1313.18,750.17h-2.42c0-.59,0-1.17,0-1.81a3,3,0,0,1-3.18,2.11c-2.23,0-3.67-1.25-3.67-4.23v-9.74h2.64v8.88c0,1.1.22,2.47,1.84,2.47,1.25,0,2.13-.81,2.13-2.59v-8.76h2.64Z"/><path class="cls-1" d="M1317.43,732.06h2.64v2.62h-2.64Zm0,4.43h2.64v13.68h-2.64Z"/><path class="cls-1" d="M1324.8,739h-1.64v-2.5h1.64v-3.25h2.64v3.25h1.62V739h-1.62v11.19h-2.64Z"/><path class="cls-1" d="M1348.44,750.17H1346c0-.81,0-1.4,0-2a3,3,0,0,1-3,2.28c-2.57,0-4.43-2.45-4.43-7.12,0-4.48,1.59-7.15,4.43-7.15a2.81,2.81,0,0,1,2.79,2c0-.54,0-1.08,0-1.69v-4.43h2.64Zm-7.2-6.83c0,3.06.83,4.48,2.3,4.48a1.87,1.87,0,0,0,1.69-.93c.49-.69.56-1.54.56-3.57s-.07-2.89-.56-3.55a1.84,1.84,0,0,0-1.69-1c-1.47,0-2.3,1.44-2.3,4.5Z"/><path class="cls-1" d="M1354.65,744.25c0,1.91.66,3.74,2.42,3.74a2.24,2.24,0,0,0,2.2-2.08h2.62a5.57,5.57,0,0,1-1.86,3.6,4.9,4.9,0,0,1-3,1c-3.65,0-5.26-3.33-5.26-7.12,0-4.06,1.79-7.15,5.24-7.15a4.33,4.33,0,0,1,3.87,2.08c1.05,1.71,1.15,3.92,1.1,6Zm4.72-2.28c0-1.57-.56-3.57-2.33-3.57-1.44,0-2.4,1.35-2.4,3.57Z"/><path class="cls-1" d="M1378.12,740.36c0-1.3-.64-1.86-1.74-1.86a1.36,1.36,0,0,0-1.47,1.42c0,1.32,1.44,1.57,3,2.06a4,4,0,0,1,3.16,4.16,4.31,4.31,0,0,1-4.55,4.33c-2.57,0-4.5-1.44-4.72-4.53h2.64a2,2,0,0,0,2.13,2.13,1.6,1.6,0,0,0,1.71-1.76c0-1.37-1.42-1.69-3.06-2.23s-3.13-1.44-3.13-4.06c0-2.23,1.59-3.82,4.36-3.82s4.14,1.54,4.28,4.16Z"/><path class="cls-1" d="M1383.59,743.32c0-3.92,1.66-7.12,5.29-7.12s5.26,3.21,5.26,7.15-1.66,7.12-5.26,7.12-5.29-3.21-5.29-7.12Zm2.79,0c0,3.35.91,4.63,2.52,4.63s2.45-1.27,2.45-4.65-.91-4.65-2.52-4.65-2.45,1.25-2.45,4.65Z"/><path class="cls-1" d="M1397.52,736.49H1400c0,.61,0,1.2,0,1.84a2.85,2.85,0,0,1,3-2.13,3,3,0,0,1,2.13.73,2.68,2.68,0,0,1,.69,1.15,3,3,0,0,1,1-1.22,4.34,4.34,0,0,1,2.35-.66,3.67,3.67,0,0,1,3.13,1.49,5.5,5.5,0,0,1,.86,3.23v9.25h-2.64v-8.86a3.34,3.34,0,0,0-.32-1.71,1.52,1.52,0,0,0-1.47-.76,1.85,1.85,0,0,0-1.54.59,2.71,2.71,0,0,0-.54,1.81v8.93H1404v-8.84a3.5,3.5,0,0,0-.32-1.74,1.49,1.49,0,0,0-1.44-.76,1.92,1.92,0,0,0-1.54.56,2.84,2.84,0,0,0-.54,1.86v8.91h-2.67Z"/><path class="cls-1" d="M1417.31,736.49h2.52c0,.61,0,1.2,0,1.84a2.85,2.85,0,0,1,3-2.13,3,3,0,0,1,2.13.73,2.68,2.68,0,0,1,.69,1.15,3,3,0,0,1,1-1.22,4.34,4.34,0,0,1,2.35-.66,3.67,3.67,0,0,1,3.13,1.49,5.5,5.5,0,0,1,.86,3.23v9.25h-2.64v-8.86a3.34,3.34,0,0,0-.32-1.71,1.52,1.52,0,0,0-1.47-.76,1.85,1.85,0,0,0-1.54.59,2.71,2.71,0,0,0-.54,1.81v8.93h-2.64v-8.84a3.5,3.5,0,0,0-.32-1.74,1.49,1.49,0,0,0-1.44-.76,1.92,1.92,0,0,0-1.54.56,2.84,2.84,0,0,0-.54,1.86v8.91h-2.67Z"/><path class="cls-1" d="M1439.26,744.25c0,1.91.66,3.74,2.42,3.74a2.24,2.24,0,0,0,2.2-2.08h2.62a5.57,5.57,0,0,1-1.86,3.6,4.9,4.9,0,0,1-3,1c-3.65,0-5.26-3.33-5.26-7.12,0-4.06,1.79-7.15,5.24-7.15a4.33,4.33,0,0,1,3.87,2.08c1.05,1.71,1.15,3.92,1.1,6ZM1444,742c0-1.57-.56-3.57-2.33-3.57-1.44,0-2.4,1.35-2.4,3.57Z"/><path class="cls-1" d="M1450.3,732.06h2.64v2.62h-2.64Zm0,4.43h2.64v13.68h-2.64Z"/><path class="cls-1" d="M1457.49,732.06h2.64v18.11h-2.64Z"/><path class="cls-1" d="M1467.52,750.17h-2.64v-3.23h2.64Z"/><path class="cls-1" d="M1059.51,803.91a6.16,6.16,0,0,1,4.36,1.42,6.24,6.24,0,0,1,0,8.59,6.19,6.19,0,0,1-4.36,1.42H1058V822h-3V803.91Zm-1.49,8.66h1.47a2.9,2.9,0,0,0,2.28-.69,3.84,3.84,0,0,0,0-4.55,3,3,0,0,0-2.25-.66H1058Z"/><path class="cls-1" d="M1067.31,815.16c0-3.92,1.66-7.12,5.29-7.12s5.26,3.21,5.26,7.15-1.66,7.12-5.26,7.12-5.29-3.21-5.29-7.12Zm2.79,0c0,3.35.91,4.63,2.52,4.63s2.45-1.27,2.45-4.65-.91-4.65-2.52-4.65-2.45,1.25-2.45,4.65Z"/><path class="cls-1" d="M1090.36,822h-2.42c0-.59,0-1.17,0-1.81a3,3,0,0,1-3.18,2.11c-2.23,0-3.67-1.25-3.67-4.23v-9.74h2.64v8.88c0,1.1.22,2.47,1.84,2.47,1.25,0,2.13-.81,2.13-2.59v-8.76h2.64Z"/><path class="cls-1" d="M1094.33,808.34h2.42c0,.83,0,1.52,0,2.2.56-2.08,2-2.5,3.55-2.5v3.21a2,2,0,0,0-1.13-.32c-1.2,0-2.18,1.17-2.18,3.35V822h-2.64Z"/><path class="cls-1" d="M1110.92,808.34h2.42v1.79a3,3,0,0,1,3-2.08c2.57,0,4.43,2.45,4.43,7.15,0,4.45-1.59,7.12-4.43,7.12a2.91,2.91,0,0,1-2.77-1.86v6.17h-2.64Zm7.2,6.83c0-3.06-.81-4.48-2.3-4.48a1.83,1.83,0,0,0-1.62.93c-.49.66-.64,1.54-.64,3.57s.15,2.89.64,3.55a1.81,1.81,0,0,0,1.62,1c1.49,0,2.3-1.44,2.3-4.5Z"/><path class="cls-1" d="M1124,808.34h2.42c0,.83,0,1.52,0,2.2.56-2.08,2-2.5,3.55-2.5v3.21a2,2,0,0,0-1.13-.32c-1.2,0-2.18,1.17-2.18,3.35V822H1124Z"/><path class="cls-1" d="M1131.62,815.16c0-3.92,1.66-7.12,5.29-7.12s5.26,3.21,5.26,7.15-1.66,7.12-5.26,7.12-5.29-3.21-5.29-7.12Zm2.79,0c0,3.35.91,4.63,2.52,4.63s2.45-1.27,2.45-4.65-.91-4.65-2.52-4.65-2.45,1.25-2.45,4.65Z"/><path class="cls-1" d="M1148.56,810.83V822h-2.64V810.83h-1.35v-2.5h1.35v-.73c0-3.79,3.21-4,4.65-4v2.3c-.93,0-2,.24-2,2v.46h6.07V822H1152V810.83Zm3.4-4.31v-2.62h2.67v2.62Z"/><path class="cls-1" d="M1159.3,810.83h-1.64v-2.5h1.64v-3.25h2.64v3.25h1.62v2.5h-1.62V822h-2.64Z"/><path class="cls-1" d="M1168.33,816.1c0,1.91.66,3.74,2.42,3.74a2.24,2.24,0,0,0,2.2-2.08h2.62a5.57,5.57,0,0,1-1.86,3.6,4.9,4.9,0,0,1-3,1c-3.65,0-5.26-3.33-5.26-7.12,0-4.06,1.79-7.15,5.24-7.15a4.33,4.33,0,0,1,3.87,2.08c1.05,1.71,1.15,3.92,1.1,6Zm4.72-2.28c0-1.57-.56-3.57-2.33-3.57-1.44,0-2.4,1.35-2.4,3.57Z"/><path class="cls-1" d="M1179.07,808.34h2.42c0,.83,0,1.52,0,2.2.56-2.08,2-2.5,3.55-2.5v3.21a2,2,0,0,0-1.13-.32c-1.2,0-2.18,1.17-2.18,3.35V822h-2.64Z"/><path class="cls-1" d="M1204.82,822h-2.42c0-.81,0-1.4,0-2a3,3,0,0,1-3,2.28c-2.57,0-4.43-2.45-4.43-7.12,0-4.48,1.59-7.15,4.43-7.15a2.81,2.81,0,0,1,2.79,2c0-.54,0-1.08,0-1.69v-4.43h2.64Zm-7.2-6.83c0,3.06.83,4.48,2.3,4.48a1.87,1.87,0,0,0,1.69-.93c.49-.69.56-1.54.56-3.57s-.07-2.89-.56-3.55a1.84,1.84,0,0,0-1.69-1c-1.47,0-2.3,1.44-2.3,4.5Z"/><path class="cls-1" d="M1211,816.1c0,1.91.66,3.74,2.42,3.74a2.24,2.24,0,0,0,2.2-2.08h2.62a5.57,5.57,0,0,1-1.86,3.6,4.9,4.9,0,0,1-3,1c-3.65,0-5.26-3.33-5.26-7.12,0-4.06,1.79-7.15,5.24-7.15a4.33,4.33,0,0,1,3.87,2.08c1.05,1.71,1.15,3.92,1.1,6Zm4.72-2.28c0-1.57-.56-3.57-2.33-3.57-1.44,0-2.4,1.35-2.4,3.57Z"/><path class="cls-1" d="M1230,803.91h2.64V822H1230Z"/><path class="cls-1" d="M1246.1,822h-2.42c0-.73,0-1.27,0-1.79a3.09,3.09,0,0,1-3,2.08c-2.57,0-4.43-2.45-4.43-7.12,0-4.48,1.59-7.15,4.43-7.15a3,3,0,0,1,3,2.15c0-.61,0-1.17,0-1.86h2.42Zm-7.2-6.8c0,3,.83,4.48,2.3,4.48a1.84,1.84,0,0,0,1.69-1c.49-.66.56-1.54.56-3.55s-.07-2.91-.56-3.57a1.87,1.87,0,0,0-1.69-.93c-1.47,0-2.3,1.42-2.3,4.5Z"/><path class="cls-1" d="M1263.33,812.2c0-1.3-.64-1.86-1.74-1.86a1.36,1.36,0,0,0-1.47,1.42c0,1.32,1.44,1.57,3,2.06a4,4,0,0,1,3.16,4.16,4.31,4.31,0,0,1-4.55,4.33c-2.57,0-4.5-1.44-4.72-4.53h2.64a2,2,0,0,0,2.13,2.13,1.6,1.6,0,0,0,1.71-1.76c0-1.37-1.42-1.69-3.06-2.23s-3.13-1.44-3.13-4.06c0-2.23,1.59-3.82,4.36-3.82s4.14,1.54,4.28,4.16Z"/><path class="cls-1" d="M1268.81,815.16c0-3.92,1.66-7.12,5.29-7.12s5.26,3.21,5.26,7.15-1.66,7.12-5.26,7.12-5.29-3.21-5.29-7.12Zm2.79,0c0,3.35.91,4.63,2.52,4.63s2.45-1.27,2.45-4.65-.91-4.65-2.52-4.65-2.45,1.25-2.45,4.65Z"/><path class="cls-1" d="M1282.93,803.91h2.64v2.62h-2.64Zm0,4.43h2.64V822h-2.64Z"/><path class="cls-1" d="M1289.83,808.34h2.42c0,.83,0,1.52,0,2.2.56-2.08,2-2.5,3.55-2.5v3.21a2,2,0,0,0-1.13-.32c-1.2,0-2.18,1.17-2.18,3.35V822h-2.64Z"/><path class="cls-1" d="M1300.35,816.1c0,1.91.66,3.74,2.42,3.74a2.24,2.24,0,0,0,2.2-2.08h2.62a5.57,5.57,0,0,1-1.86,3.6,4.9,4.9,0,0,1-3,1c-3.65,0-5.26-3.33-5.26-7.12,0-4.06,1.79-7.15,5.24-7.15a4.33,4.33,0,0,1,3.87,2.08c1.05,1.71,1.15,3.92,1.1,6Zm5.31-13.51,1,2.13-5.6,2.67-.93-1.74Zm-.59,11.23c0-1.57-.56-3.57-2.33-3.57-1.44,0-2.4,1.35-2.4,3.57Z"/><path class="cls-1" d="M1313.35,816.1c0,1.91.66,3.74,2.42,3.74a2.24,2.24,0,0,0,2.2-2.08h2.62a5.57,5.57,0,0,1-1.86,3.6,4.9,4.9,0,0,1-3,1c-3.65,0-5.26-3.33-5.26-7.12,0-4.06,1.79-7.15,5.24-7.15a4.33,4.33,0,0,1,3.87,2.08c1.05,1.71,1.15,3.92,1.1,6Zm4.72-2.28c0-1.57-.56-3.57-2.33-3.57-1.44,0-2.4,1.35-2.4,3.57Z"/><path class="cls-1" d="M1325.07,824.34h-2.15l1.71-5.56h2.52Z"/><path class="cls-1" d="M1342.2,812.2c0-1.3-.64-1.86-1.74-1.86a1.36,1.36,0,0,0-1.47,1.42c0,1.32,1.44,1.57,3,2.06a4,4,0,0,1,3.16,4.16,4.31,4.31,0,0,1-4.55,4.33c-2.57,0-4.5-1.44-4.72-4.53h2.64a2,2,0,0,0,2.13,2.13,1.6,1.6,0,0,0,1.71-1.76c0-1.37-1.42-1.69-3.06-2.23s-3.13-1.44-3.13-4.06c0-2.23,1.59-3.82,4.36-3.82s4.14,1.54,4.28,4.16Z"/><path class="cls-1" d="M1347.68,815.16c0-3.92,1.66-7.12,5.29-7.12s5.26,3.21,5.26,7.15-1.66,7.12-5.26,7.12-5.29-3.21-5.29-7.12Zm2.79,0c0,3.35.91,4.63,2.52,4.63s2.45-1.27,2.45-4.65-.91-4.65-2.52-4.65-2.45,1.25-2.45,4.65Z"/><path class="cls-1" d="M1361.51,808.34h2.42c0,.83,0,1.52,0,2.2.56-2.08,2-2.5,3.55-2.5v3.21a2,2,0,0,0-1.13-.32c-1.2,0-2.18,1.17-2.18,3.35V822h-2.64Z"/><path class="cls-1" d="M1370.71,810.83h-1.64v-2.5h1.64v-3.25h2.64v3.25H1375v2.5h-1.62V822h-2.64Z"/><path class="cls-1" d="M1378,803.91h2.64v2.62H1378Zm0,4.43h2.64V822H1378Z"/><path class="cls-1" d="M1384.95,808.34h2.42c0,.83,0,1.52,0,2.2.56-2.08,2-2.5,3.55-2.5v3.21a2,2,0,0,0-1.13-.32c-1.2,0-2.18,1.17-2.18,3.35V822h-2.64Z"/><path class="cls-1" d="M1403.79,816.1c0,1.91.66,3.74,2.42,3.74a2.24,2.24,0,0,0,2.2-2.08H1411a5.57,5.57,0,0,1-1.86,3.6,4.9,4.9,0,0,1-3,1c-3.65,0-5.26-3.33-5.26-7.12,0-4.06,1.79-7.15,5.24-7.15a4.33,4.33,0,0,1,3.87,2.08c1.05,1.71,1.15,3.92,1.1,6Zm4.72-2.28c0-1.57-.56-3.57-2.33-3.57-1.44,0-2.4,1.35-2.4,3.57Z"/><path class="cls-1" d="M1415,810.83h-1.64v-2.5H1415v-3.25h2.64v3.25h1.62v2.5h-1.62V822H1415Z"/><path class="cls-1" d="M1430,808.34h2.33c0,.56,0,1.1,0,1.69a3.2,3.2,0,0,1,3.26-2c2.25,0,3.7,1.25,3.7,4.23V822h-2.64v-8.88c0-1.1-.22-2.45-1.84-2.45-1.27,0-2.13.78-2.13,2.57V822H1430Z"/><path class="cls-1" d="M1445.47,816.1c0,1.91.66,3.74,2.42,3.74a2.24,2.24,0,0,0,2.2-2.08h2.62a5.57,5.57,0,0,1-1.86,3.6,4.9,4.9,0,0,1-3,1c-3.65,0-5.26-3.33-5.26-7.12,0-4.06,1.79-7.15,5.24-7.15a4.33,4.33,0,0,1,3.87,2.08c1.05,1.71,1.15,3.92,1.1,6Zm4.72-2.28c0-1.57-.56-3.57-2.33-3.57-1.44,0-2.4,1.35-2.4,3.57Z"/><path class="cls-1" d="M1464.19,808.34h2.42v1.79a3,3,0,0,1,3-2.08c2.57,0,4.43,2.45,4.43,7.15,0,4.45-1.59,7.12-4.43,7.12a2.91,2.91,0,0,1-2.77-1.86v6.17h-2.64Zm7.2,6.83c0-3.06-.81-4.48-2.3-4.48a1.83,1.83,0,0,0-1.62.93c-.49.66-.64,1.54-.64,3.57s.15,2.89.64,3.55a1.81,1.81,0,0,0,1.62,1c1.49,0,2.3-1.44,2.3-4.5Z"/><path class="cls-1" d="M1477.6,803.91h2.64V822h-2.64Z"/><path class="cls-1" d="M1493.73,822h-2.42c0-.59,0-1.17,0-1.81a3,3,0,0,1-3.18,2.11c-2.23,0-3.67-1.25-3.67-4.23v-9.74h2.64v8.88c0,1.1.22,2.47,1.84,2.47,1.25,0,2.13-.81,2.13-2.59v-8.76h2.64Z"/><path class="cls-1" d="M1503,812.2c0-1.3-.64-1.86-1.74-1.86a1.36,1.36,0,0,0-1.47,1.42c0,1.32,1.44,1.57,3,2.06A4,4,0,0,1,1506,818a4.31,4.31,0,0,1-4.55,4.33c-2.57,0-4.5-1.44-4.72-4.53h2.64a2,2,0,0,0,2.13,2.13,1.6,1.6,0,0,0,1.71-1.76c0-1.37-1.42-1.69-3.06-2.23s-3.13-1.44-3.13-4.06c0-2.23,1.59-3.82,4.36-3.82s4.14,1.54,4.28,4.16Z"/><path class="cls-1" d="M1517.12,808.34h2.42v1.79a3,3,0,0,1,3-2.08c2.57,0,4.43,2.45,4.43,7.15,0,4.45-1.59,7.12-4.43,7.12a2.91,2.91,0,0,1-2.77-1.86v6.17h-2.64Zm7.2,6.83c0-3.06-.81-4.48-2.3-4.48a1.83,1.83,0,0,0-1.62.93c-.49.66-.64,1.54-.64,3.57s.15,2.89.64,3.55a1.81,1.81,0,0,0,1.62,1c1.49,0,2.3-1.44,2.3-4.5Z"/><path class="cls-1" d="M1532.49,816.1c0,1.91.66,3.74,2.42,3.74a2.24,2.24,0,0,0,2.2-2.08h2.62a5.57,5.57,0,0,1-1.86,3.6,4.9,4.9,0,0,1-3,1c-3.65,0-5.26-3.33-5.26-7.12,0-4.06,1.79-7.15,5.24-7.15a4.33,4.33,0,0,1,3.87,2.08c1.05,1.71,1.15,3.92,1.1,6Zm4.72-2.28c0-1.57-.56-3.57-2.33-3.57-1.44,0-2.4,1.35-2.4,3.57Z"/><path class="cls-1" d="M1543.23,808.34h2.32c0,.56,0,1.1,0,1.69a3.2,3.2,0,0,1,3.26-2c2.25,0,3.7,1.25,3.7,4.23V822h-2.64v-8.88c0-1.1-.22-2.45-1.84-2.45-1.27,0-2.13.78-2.13,2.57V822h-2.64Z"/><path class="cls-1" d="M1561.71,812.2c0-1.3-.64-1.86-1.74-1.86a1.36,1.36,0,0,0-1.47,1.42c0,1.32,1.44,1.57,3,2.06a4,4,0,0,1,3.16,4.16,4.31,4.31,0,0,1-4.55,4.33c-2.57,0-4.5-1.44-4.72-4.53h2.64a2,2,0,0,0,2.13,2.13,1.6,1.6,0,0,0,1.71-1.76c0-1.37-1.42-1.69-3.06-2.23s-3.13-1.44-3.13-4.06c0-2.23,1.59-3.82,4.36-3.82s4.14,1.54,4.28,4.16Z"/><path class="cls-1" d="M1570.12,816.1c0,1.91.66,3.74,2.42,3.74a2.24,2.24,0,0,0,2.2-2.08h2.62a5.57,5.57,0,0,1-1.86,3.6,4.9,4.9,0,0,1-3,1c-3.65,0-5.26-3.33-5.26-7.12,0-4.06,1.79-7.15,5.24-7.15a4.33,4.33,0,0,1,3.87,2.08c1.05,1.71,1.15,3.92,1.1,6Zm4.72-2.28c0-1.57-.56-3.57-2.33-3.57-1.44,0-2.4,1.35-2.4,3.57Z"/><path class="cls-1" d="M1580.87,808.34h2.42c0,.83,0,1.52,0,2.2.56-2.08,2-2.5,3.55-2.5v3.21a2,2,0,0,0-1.13-.32c-1.2,0-2.18,1.17-2.18,3.35V822h-2.64Z"/><path class="cls-1" d="M1064,851.38h-2.42c0-.73,0-1.27,0-1.79a3.09,3.09,0,0,1-3,2.08c-2.57,0-4.43-2.45-4.43-7.12,0-4.48,1.59-7.15,4.43-7.15a3,3,0,0,1,3,2.15c0-.61,0-1.17,0-1.86H1064ZM1061.78,835l-.91,1.74-5.6-2.67,1-2.13Zm-5,9.57c0,3,.83,4.48,2.3,4.48a1.84,1.84,0,0,0,1.69-1c.49-.66.56-1.54.56-3.55s-.07-2.91-.56-3.57a1.87,1.87,0,0,0-1.69-.93c-1.47,0-2.3,1.42-2.3,4.5Z"/><path class="cls-1" d="M1075.66,833.27h2.64v18.11h-2.64Z"/><path class="cls-1" d="M1083.58,833.27h2.81l-2.35,5.56h-2.42Z"/><path class="cls-1" d="M1091.54,845.46c0,1.91.66,3.74,2.42,3.74a2.24,2.24,0,0,0,2.2-2.08h2.62a5.57,5.57,0,0,1-1.86,3.6,4.9,4.9,0,0,1-3,1c-3.65,0-5.26-3.33-5.26-7.12,0-4.06,1.79-7.15,5.24-7.15a4.33,4.33,0,0,1,3.87,2.08c1.05,1.71,1.15,3.92,1.1,6Zm4.72-2.28c0-1.57-.56-3.57-2.32-3.57-1.44,0-2.4,1.35-2.4,3.57Z"/><path class="cls-1" d="M1102.28,837.7h2.33c0,.56,0,1.1,0,1.69a3.2,3.2,0,0,1,3.26-2c2.25,0,3.7,1.25,3.7,4.23v9.74h-2.64V842.5c0-1.1-.22-2.45-1.84-2.45-1.27,0-2.13.78-2.13,2.57v8.76h-2.64Z"/><path class="cls-1" d="M1115.93,840.2h-1.64v-2.5h1.64v-3.25h2.64v3.25h1.62v2.5h-1.62v11.19h-2.64Z"/><path class="cls-1" d="M1123,837.7h2.42c0,.83,0,1.52,0,2.2.56-2.08,2-2.5,3.55-2.5v3.21a2,2,0,0,0-1.13-.32c-1.2,0-2.18,1.17-2.18,3.35v7.73H1123Z"/><path class="cls-1" d="M1133.5,845.46c0,1.91.66,3.74,2.42,3.74a2.24,2.24,0,0,0,2.2-2.08h2.62a5.57,5.57,0,0,1-1.86,3.6,4.9,4.9,0,0,1-3,1c-3.65,0-5.26-3.33-5.26-7.12,0-4.06,1.79-7.15,5.24-7.15a4.33,4.33,0,0,1,3.87,2.08c1.05,1.71,1.15,3.92,1.1,6Zm4.72-2.28c0-1.57-.56-3.57-2.32-3.57-1.44,0-2.4,1.35-2.4,3.57Z"/><path class="cls-1" d="M1144.71,840.2h-1.64v-2.5h1.64v-3.25h2.64v3.25H1149v2.5h-1.62v11.19h-2.64Z"/><path class="cls-1" d="M1152,833.27h2.64v2.62H1152Zm0,4.43h2.64v13.68H1152Z"/><path class="cls-1" d="M1161.2,845.46c0,1.91.66,3.74,2.42,3.74a2.24,2.24,0,0,0,2.2-2.08h2.62a5.57,5.57,0,0,1-1.86,3.6,4.9,4.9,0,0,1-3,1c-3.65,0-5.26-3.33-5.26-7.12,0-4.06,1.79-7.15,5.24-7.15a4.33,4.33,0,0,1,3.87,2.08c1.05,1.71,1.15,3.92,1.1,6Zm4.72-2.28c0-1.57-.56-3.57-2.33-3.57-1.44,0-2.4,1.35-2.4,3.57Z"/><path class="cls-1" d="M1171.94,837.7h2.32c0,.56,0,1.1,0,1.69a3.2,3.2,0,0,1,3.26-2c2.25,0,3.7,1.25,3.7,4.23v9.74h-2.64V842.5c0-1.1-.22-2.45-1.84-2.45-1.27,0-2.13.78-2.13,2.57v8.76h-2.64Z"/><path class="cls-1" d="M1188.26,851.38h-2.64v-3.23h2.64Z"/><path class="cls-1" d="M342.52,730.92h3v15.35h5.16V749h-8.15Z"/><path class="cls-1" d="M356,743.11c0,1.91.66,3.74,2.42,3.74a2.24,2.24,0,0,0,2.2-2.08h2.62a5.57,5.57,0,0,1-1.86,3.6,4.9,4.9,0,0,1-3,1c-3.65,0-5.26-3.33-5.26-7.12,0-4.06,1.79-7.15,5.24-7.15a4.33,4.33,0,0,1,3.87,2.08c1.05,1.71,1.15,3.92,1.1,6Zm4.72-2.28c0-1.57-.56-3.57-2.33-3.57-1.44,0-2.4,1.35-2.4,3.57Z"/><path class="cls-1" d="M383.07,744c-.1,2.79-1.54,5.29-4.43,5.29-3.4,0-5.29-2.86-5.29-7.12,0-4.53,2.06-7.15,5.26-7.15,2.91,0,4.38,2.47,4.43,5.34H380.3c-.1-2.06-.86-2.84-1.88-2.84a1.71,1.71,0,0,0-1.66,1.08,7.81,7.81,0,0,0-.61,3.57c0,3.28.83,4.65,2.3,4.65,1.22,0,1.79-1.2,1.88-2.81Z"/><path class="cls-1" d="M395.21,749h-2.42c0-.59,0-1.17,0-1.81a3,3,0,0,1-3.18,2.11c-2.23,0-3.67-1.25-3.67-4.23v-9.74h2.64v8.88c0,1.1.22,2.47,1.84,2.47,1.25,0,2.13-.81,2.13-2.59v-8.76h2.64Z"/><path class="cls-1" d="M399.17,735.35h2.42c0,.83,0,1.52,0,2.2.56-2.08,2-2.5,3.55-2.5v3.21a2,2,0,0,0-1.13-.32c-1.2,0-2.18,1.17-2.18,3.35V749h-2.64Z"/><path class="cls-1" d="M407.78,735.35h2.42c0,.83,0,1.52,0,2.2.56-2.08,2-2.5,3.55-2.5v3.21a2,2,0,0,0-1.13-.32c-1.2,0-2.18,1.17-2.18,3.35V749h-2.64Z"/><path class="cls-1" d="M416.69,730.92h2.64v2.62h-2.64Zm0,4.43h2.64V749h-2.64Z"/><path class="cls-1" d="M432.52,744c-.1,2.79-1.54,5.29-4.43,5.29-3.4,0-5.29-2.86-5.29-7.12,0-4.53,2.06-7.15,5.26-7.15,2.91,0,4.38,2.47,4.43,5.34h-2.74c-.1-2.06-.86-2.84-1.88-2.84a1.71,1.71,0,0,0-1.66,1.08,7.81,7.81,0,0,0-.61,3.57c0,3.28.83,4.65,2.3,4.65,1.22,0,1.79-1.2,1.88-2.81Z"/><path class="cls-1" d="M444.66,749h-2.42c0-.59,0-1.17,0-1.81a3,3,0,0,1-3.18,2.11c-2.23,0-3.67-1.25-3.67-4.23v-9.74H438v8.88c0,1.1.22,2.47,1.84,2.47,1.25,0,2.13-.81,2.13-2.59v-8.76h2.64Z"/><path class="cls-1" d="M448.91,730.92h2.64V749h-2.64Z"/><path class="cls-1" d="M465,749h-2.42c0-.59,0-1.17,0-1.81a3,3,0,0,1-3.18,2.11c-2.23,0-3.67-1.25-3.67-4.23v-9.74h2.64v8.88c0,1.1.22,2.47,1.84,2.47,1.25,0,2.13-.81,2.13-2.59v-8.76H465Z"/><path class="cls-1" d="M469.1,735.35h2.52c0,.61,0,1.2,0,1.84a2.85,2.85,0,0,1,3-2.13,3,3,0,0,1,2.13.73,2.68,2.68,0,0,1,.69,1.15,3,3,0,0,1,1-1.22,4.34,4.34,0,0,1,2.35-.66,3.67,3.67,0,0,1,3.13,1.49,5.5,5.5,0,0,1,.86,3.23V749h-2.64v-8.86a3.34,3.34,0,0,0-.32-1.71,1.52,1.52,0,0,0-1.47-.76,1.85,1.85,0,0,0-1.54.59,2.71,2.71,0,0,0-.54,1.81V749h-2.64v-8.84a3.5,3.5,0,0,0-.32-1.74,1.49,1.49,0,0,0-1.44-.76,1.92,1.92,0,0,0-1.54.56,2.84,2.84,0,0,0-.54,1.86V749H469.1Z"/><path class="cls-1" d="M501.3,749h-2.45l-4-13.68h2.69l2.52,9.77,2.33-9.77H505Z"/><path class="cls-1" d="M507.88,730.92h2.64v2.62h-2.64Zm0,4.43h2.64V749h-2.64Z"/><path class="cls-1" d="M515.25,737.84h-1.64v-2.5h1.64v-3.25h2.64v3.25h1.62v2.5h-1.62V749h-2.64Z"/><path class="cls-1" d="M531.3,742.91c0,1.91.51,3.94,2.55,3.94a2.43,2.43,0,0,0,2.5-2.08H539c-.32,2.62-2,4.55-4.67,4.55a3.28,3.28,0,0,1-3.16-2l0,1.71h-2.42l0-1.71a3,3,0,0,1-3.06,2c-2.79,0-4.65-2.45-4.65-7.12,0-4.48,1.62-7.15,4.7-7.15a2.91,2.91,0,0,1,3,2.06l0-1.76h2.42l0,1.76a3.16,3.16,0,0,1,3.18-2.06,4.12,4.12,0,0,1,3.48,1.79c1.25,1.76,1.3,4,1.3,6.07Zm-7.59-.68c0,3,1.08,4.48,2.5,4.48,2.2,0,2.45-2.18,2.45-4.5,0-1.91-.1-2.89-.64-3.6a2.11,2.11,0,0,0-1.81-.91c-1.42,0-2.5,1.42-2.5,4.5ZM536.47,741c0-2.13-.69-3.72-2.69-3.72a2.09,2.09,0,0,0-2,1.2,5.67,5.67,0,0,0-.51,2.52Z"/><path class="cls-1" d="M545.37,749h-2.64V745.8h2.64Z"/><path class="cls-1" d="M342.52,803.35h3v15.35h5.16v2.77h-8.15Z"/><path class="cls-1" d="M362.86,821.46h-2.42c0-.73,0-1.27,0-1.79a3.09,3.09,0,0,1-3,2.08c-2.57,0-4.43-2.45-4.43-7.12,0-4.48,1.59-7.15,4.43-7.15a3,3,0,0,1,3,2.15c0-.61,0-1.17,0-1.86h2.42Zm-7.2-6.8c0,3,.83,4.48,2.3,4.48a1.84,1.84,0,0,0,1.69-1c.49-.66.56-1.54.56-3.55s-.07-2.91-.56-3.57a1.87,1.87,0,0,0-1.69-.93c-1.47,0-2.3,1.42-2.3,4.5Z"/><path class="cls-1" d="M374.55,803.35h2.64v18.11h-2.64Z"/><path class="cls-1" d="M383.7,815.53c0,1.91.66,3.74,2.42,3.74a2.24,2.24,0,0,0,2.2-2.08h2.62a5.57,5.57,0,0,1-1.86,3.6,4.9,4.9,0,0,1-3,1c-3.65,0-5.26-3.33-5.26-7.12,0-4.06,1.79-7.15,5.24-7.15a4.33,4.33,0,0,1,3.87,2.08c1.05,1.71,1.15,3.92,1.1,6Zm4.72-2.28c0-1.57-.56-3.57-2.32-3.57-1.44,0-2.4,1.35-2.4,3.57Z"/><path class="cls-1" d="M394.91,810.27h-1.64v-2.5h1.64v-3.25h2.64v3.25h1.62v2.5h-1.62v11.19h-2.64Z"/><path class="cls-1" d="M402.42,810.27h-1.64v-2.5h1.64v-3.25h2.64v3.25h1.62v2.5h-1.62v11.19h-2.64Z"/><path class="cls-1" d="M409.47,807.77h2.42c0,.83,0,1.52,0,2.2.56-2.08,2-2.5,3.55-2.5v3.21a2,2,0,0,0-1.13-.32c-1.2,0-2.18,1.17-2.18,3.35v7.73h-2.64Z"/><path class="cls-1" d="M420,815.53c0,1.91.66,3.74,2.42,3.74a2.24,2.24,0,0,0,2.2-2.08h2.62a5.57,5.57,0,0,1-1.86,3.6,4.9,4.9,0,0,1-3,1c-3.65,0-5.26-3.33-5.26-7.12,0-4.06,1.79-7.15,5.24-7.15a4.33,4.33,0,0,1,3.87,2.08c1.05,1.71,1.15,3.92,1.1,6Zm4.72-2.28c0-1.57-.56-3.57-2.32-3.57-1.44,0-2.4,1.35-2.4,3.57Z"/><path class="cls-1" d="M447.32,821.46H444.9c0-.81,0-1.4,0-2a3,3,0,0,1-3,2.28c-2.57,0-4.43-2.45-4.43-7.12,0-4.48,1.59-7.15,4.43-7.15a2.81,2.81,0,0,1,2.79,2c0-.54,0-1.08,0-1.69v-4.43h2.64Zm-7.2-6.83c0,3.06.83,4.48,2.3,4.48a1.87,1.87,0,0,0,1.69-.93c.49-.69.56-1.54.56-3.57s-.07-2.89-.56-3.55a1.84,1.84,0,0,0-1.69-1c-1.47,0-2.3,1.44-2.3,4.5Z"/><path class="cls-1" d="M453.54,815.53c0,1.91.66,3.74,2.42,3.74a2.24,2.24,0,0,0,2.2-2.08h2.62a5.57,5.57,0,0,1-1.86,3.6,4.9,4.9,0,0,1-3,1c-3.65,0-5.26-3.33-5.26-7.12,0-4.06,1.79-7.15,5.24-7.15a4.33,4.33,0,0,1,3.87,2.08c1.05,1.71,1.15,3.92,1.1,6Zm4.72-2.28c0-1.57-.56-3.57-2.32-3.57-1.44,0-2.4,1.35-2.4,3.57Z"/><path class="cls-1" d="M471.82,807.77h2.52c0,.61,0,1.2,0,1.84a2.85,2.85,0,0,1,3-2.13,3,3,0,0,1,2.13.73,2.68,2.68,0,0,1,.69,1.15,3,3,0,0,1,1-1.22,4.34,4.34,0,0,1,2.35-.66,3.67,3.67,0,0,1,3.13,1.49,5.5,5.5,0,0,1,.86,3.23v9.25h-2.64V812.6a3.34,3.34,0,0,0-.32-1.71,1.52,1.52,0,0,0-1.47-.76,1.85,1.85,0,0,0-1.54.59,2.71,2.71,0,0,0-.54,1.81v8.93h-2.64v-8.84a3.5,3.5,0,0,0-.32-1.74,1.49,1.49,0,0,0-1.44-.76,1.92,1.92,0,0,0-1.54.56,2.84,2.84,0,0,0-.54,1.86v8.91h-2.67Z"/><path class="cls-1" d="M490.83,814.6c0-3.92,1.66-7.12,5.29-7.12s5.26,3.21,5.26,7.15-1.66,7.12-5.26,7.12-5.29-3.21-5.29-7.12Zm2.79,0c0,3.35.91,4.63,2.52,4.63s2.45-1.27,2.45-4.65-.91-4.65-2.52-4.65-2.45,1.25-2.45,4.65Z"/><path class="cls-1" d="M505.12,810.27h-1.64v-2.5h1.64v-3.25h2.64v3.25h1.62v2.5h-1.62v11.19h-2.64Z"/><path class="cls-1" d="M512.46,803.35h2.64V806h-2.64Zm0,4.43h2.64v13.68h-2.64Z"/><path class="cls-1" d="M524.42,821.46H522l-4-13.68h2.69l2.52,9.77,2.33-9.77h2.67Z"/><path class="cls-1" d="M539.65,821.46h-2.42c0-.73,0-1.27,0-1.79a3.09,3.09,0,0,1-3,2.08c-2.57,0-4.43-2.45-4.43-7.12,0-4.48,1.59-7.15,4.43-7.15a3,3,0,0,1,3,2.15c0-.61,0-1.17,0-1.86h2.42Zm-7.2-6.8c0,3,.83,4.48,2.3,4.48a1.84,1.84,0,0,0,1.69-1c.49-.66.56-1.54.56-3.55s-.07-2.91-.56-3.57a1.87,1.87,0,0,0-1.69-.93c-1.47,0-2.3,1.42-2.3,4.5Z"/><path class="cls-1" d="M544.07,810.27h-1.64v-2.5h1.64v-3.25h2.64v3.25h1.62v2.5h-1.62v11.19h-2.64Z"/><path class="cls-1" d="M551.41,803.35h2.64V806h-2.64Zm0,4.43h2.64v13.68h-2.64Z"/><path class="cls-1" d="M557.63,814.6c0-3.92,1.66-7.12,5.29-7.12s5.26,3.21,5.26,7.15-1.66,7.12-5.26,7.12-5.29-3.21-5.29-7.12Zm2.79,0c0,3.35.91,4.63,2.52,4.63s2.45-1.27,2.45-4.65-.91-4.65-2.52-4.65-2.45,1.25-2.45,4.65Z"/><path class="cls-1" d="M571.45,807.77h2.33c0,.56,0,1.1,0,1.69a3.2,3.2,0,0,1,3.26-2c2.25,0,3.7,1.25,3.7,4.23v9.74h-2.64v-8.88c0-1.1-.22-2.45-1.84-2.45-1.27,0-2.13.78-2.13,2.57v8.76h-2.64Z"/><path class="cls-1" d="M587.77,821.46h-2.64v-3.23h2.64Z"/><path class="cls-1" d="M667.5,726.64h3V742h5.16v2.77H667.5Z"/><path class="cls-1" d="M680.93,738.82c0,1.91.66,3.74,2.42,3.74a2.24,2.24,0,0,0,2.2-2.08h2.62a5.57,5.57,0,0,1-1.86,3.6,4.9,4.9,0,0,1-3,1c-3.65,0-5.26-3.33-5.26-7.12,0-4.06,1.79-7.15,5.24-7.15a4.33,4.33,0,0,1,3.87,2.08c1.05,1.71,1.15,3.92,1.1,6Zm4.72-2.28c0-1.57-.56-3.57-2.33-3.57-1.44,0-2.4,1.35-2.4,3.57Z"/><path class="cls-1" d="M708,739.75c-.1,2.79-1.54,5.29-4.43,5.29-3.4,0-5.29-2.86-5.29-7.12,0-4.53,2.06-7.15,5.26-7.15,2.91,0,4.38,2.47,4.43,5.34h-2.74c-.1-2.06-.86-2.84-1.88-2.84a1.71,1.71,0,0,0-1.66,1.08,7.81,7.81,0,0,0-.61,3.57c0,3.28.83,4.65,2.3,4.65,1.22,0,1.79-1.2,1.88-2.81Z"/><path class="cls-1" d="M720.11,744.75h-2.42c0-.73,0-1.27,0-1.79a3.09,3.09,0,0,1-3,2.08c-2.57,0-4.43-2.45-4.43-7.12,0-4.48,1.59-7.15,4.43-7.15a3,3,0,0,1,3,2.15c0-.61,0-1.17,0-1.86h2.42Zm-7.2-6.8c0,3,.83,4.48,2.3,4.48a1.84,1.84,0,0,0,1.69-1c.49-.66.56-1.54.56-3.55s-.07-2.91-.56-3.57a1.87,1.87,0,0,0-1.69-.93c-1.47,0-2.3,1.42-2.3,4.5Z"/><path class="cls-1" d="M724.07,731.07h2.42c0,.83,0,1.52,0,2.2.56-2.08,2-2.5,3.55-2.5V734a2,2,0,0,0-1.13-.32c-1.2,0-2.18,1.17-2.18,3.35v7.73h-2.64Z"/><path class="cls-1" d="M732.68,731.07H735c0,.56,0,1.1,0,1.69a3.2,3.2,0,0,1,3.26-2c2.25,0,3.7,1.25,3.7,4.23v9.74h-2.64v-8.88c0-1.1-.22-2.45-1.84-2.45-1.27,0-2.13.78-2.13,2.57v8.76h-2.64Z"/><path class="cls-1" d="M748.13,738.82c0,1.91.66,3.74,2.42,3.74a2.24,2.24,0,0,0,2.2-2.08h2.62a5.57,5.57,0,0,1-1.86,3.6,4.9,4.9,0,0,1-3,1c-3.65,0-5.26-3.33-5.26-7.12,0-4.06,1.79-7.15,5.24-7.15a4.33,4.33,0,0,1,3.87,2.08c1.05,1.71,1.15,3.92,1.1,6Zm4.72-2.28c0-1.57-.56-3.57-2.33-3.57-1.44,0-2.4,1.35-2.4,3.57Z"/><path class="cls-1" d="M759.33,733.56h-1.64v-2.5h1.64v-3.25H762v3.25h1.62v2.5H762v11.19h-2.64Z"/><path class="cls-1" d="M783,744.75h-2.42c0-.81,0-1.4,0-2a3,3,0,0,1-3,2.28c-2.57,0-4.43-2.45-4.43-7.12,0-4.48,1.59-7.15,4.43-7.15a2.81,2.81,0,0,1,2.79,2c0-.54,0-1.08,0-1.69v-4.43H783Zm-7.2-6.83c0,3.06.83,4.48,2.3,4.48a1.87,1.87,0,0,0,1.69-.93c.49-.69.56-1.54.56-3.57s-.07-2.89-.56-3.55a1.84,1.84,0,0,0-1.69-1c-1.47,0-2.3,1.44-2.3,4.5Z"/><path class="cls-1" d="M789.18,738.82c0,1.91.66,3.74,2.42,3.74a2.24,2.24,0,0,0,2.2-2.08h2.62a5.57,5.57,0,0,1-1.86,3.6,4.9,4.9,0,0,1-3,1c-3.65,0-5.26-3.33-5.26-7.12,0-4.06,1.79-7.15,5.24-7.15a4.33,4.33,0,0,1,3.87,2.08c1.05,1.71,1.15,3.92,1.1,6Zm4.72-2.28c0-1.57-.56-3.57-2.32-3.57-1.44,0-2.4,1.35-2.4,3.57Z"/><path class="cls-1" d="M812.65,734.93c0-1.3-.64-1.86-1.74-1.86a1.36,1.36,0,0,0-1.47,1.42c0,1.32,1.44,1.57,3,2.06a4,4,0,0,1,3.16,4.16,4.31,4.31,0,0,1-4.55,4.33c-2.57,0-4.5-1.44-4.72-4.53H809a2,2,0,0,0,2.13,2.13,1.6,1.6,0,0,0,1.71-1.76c0-1.37-1.42-1.69-3.06-2.23s-3.13-1.44-3.13-4.06c0-2.23,1.59-3.82,4.36-3.82s4.14,1.54,4.28,4.16Z"/><path class="cls-1" d="M828,744.75h-2.42c0-.73,0-1.27,0-1.79a3.09,3.09,0,0,1-3,2.08c-2.57,0-4.43-2.45-4.43-7.12,0-4.48,1.59-7.15,4.43-7.15a3,3,0,0,1,3,2.15c0-.61,0-1.17,0-1.86H828Zm-7.2-6.8c0,3,.83,4.48,2.3,4.48a1.84,1.84,0,0,0,1.69-1c.49-.66.56-1.54.56-3.55s-.07-2.91-.56-3.57a1.87,1.87,0,0,0-1.69-.93c-1.47,0-2.3,1.42-2.3,4.5Z"/><path class="cls-1" d="M831.93,731.07h2.33c0,.56,0,1.1,0,1.69a3.2,3.2,0,0,1,3.26-2c2.25,0,3.7,1.25,3.7,4.23v9.74h-2.64v-8.88c0-1.1-.22-2.45-1.84-2.45-1.27,0-2.13.78-2.13,2.57v8.76h-2.64Z"/><path class="cls-1" d="M845.58,733.56h-1.64v-2.5h1.64v-3.25h2.64v3.25h1.62v2.5h-1.62v11.19h-2.64Z"/><path class="cls-1" d="M854.61,738.82c0,1.91.66,3.74,2.42,3.74a2.24,2.24,0,0,0,2.2-2.08h2.62a5.57,5.57,0,0,1-1.86,3.6,4.9,4.9,0,0,1-3,1c-3.65,0-5.26-3.33-5.26-7.12,0-4.06,1.79-7.15,5.24-7.15a4.33,4.33,0,0,1,3.87,2.08c1.05,1.71,1.15,3.92,1.1,6Zm5.31-13.51,1,2.13-5.6,2.67-.93-1.74Zm-.59,11.23c0-1.57-.56-3.57-2.32-3.57-1.44,0-2.4,1.35-2.4,3.57Z"/><path class="cls-1" d="M868.19,744.75h-2.64v-3.23h2.64Z"/><path class="cls-1" d="M670.29,802.69v12.68a3,3,0,0,0,.69,2.25,2.53,2.53,0,0,0,2,.71,2.62,2.62,0,0,0,2-.71,3.1,3.1,0,0,0,.66-2.25V802.69h3v13.09a5.2,5.2,0,0,1-1.32,3.87,7.1,7.1,0,0,1-8.71,0,5.31,5.31,0,0,1-1.32-3.87V802.69Z"/><path class="cls-1" d="M682.67,807.12H685c0,.56,0,1.1,0,1.69a3.2,3.2,0,0,1,3.26-2c2.25,0,3.7,1.25,3.7,4.23v9.74h-2.64v-8.88c0-1.1-.22-2.45-1.84-2.45-1.27,0-2.13.78-2.13,2.57v8.76h-2.64Z"/><path class="cls-1" d="M703.3,802.69h2.64v6.22a2.75,2.75,0,0,1,2.77-2.08c2.84,0,4.43,2.67,4.43,7.12,0,4.7-1.86,7.15-4.43,7.15a3,3,0,0,1-3-2.13v1.84H703.3Zm7.2,11.26c0-2.77-.69-4.48-2.28-4.48-2,0-2.28,2.18-2.28,4.5s.32,4.5,2.28,4.5c1.59,0,2.28-1.74,2.28-4.5Z"/><path class="cls-1" d="M716.71,802.69h2.64V820.8h-2.64Z"/><path class="cls-1" d="M722.92,813.95c0-3.92,1.66-7.12,5.29-7.12s5.26,3.21,5.26,7.15-1.66,7.12-5.26,7.12-5.29-3.21-5.29-7.12Zm2.79,0c0,3.35.91,4.63,2.52,4.63s2.45-1.27,2.45-4.65-.91-4.65-2.52-4.65-2.45,1.25-2.45,4.65Z"/><path class="cls-1" d="M745.68,815.81c-.1,2.79-1.54,5.29-4.43,5.29-3.4,0-5.29-2.86-5.29-7.12,0-4.53,2.06-7.15,5.26-7.15,2.91,0,4.38,2.47,4.43,5.34h-2.74c-.1-2.06-.86-2.84-1.88-2.84a1.71,1.71,0,0,0-1.66,1.08,7.81,7.81,0,0,0-.61,3.57c0,3.28.83,4.65,2.3,4.65,1.22,0,1.79-1.2,1.88-2.81Z"/><path class="cls-1" d="M756,807.12h2.33c0,.56,0,1.1,0,1.69a3.2,3.2,0,0,1,3.26-2c2.25,0,3.7,1.25,3.7,4.23v9.74h-2.64v-8.88c0-1.1-.22-2.45-1.84-2.45-1.27,0-2.13.78-2.13,2.57v8.76H756Z"/><path class="cls-1" d="M768.53,813.95c0-3.92,1.66-7.12,5.29-7.12s5.26,3.21,5.26,7.15-1.66,7.12-5.26,7.12-5.29-3.21-5.29-7.12Zm2.79,0c0,3.35.91,4.63,2.52,4.63s2.45-1.27,2.45-4.65-.91-4.65-2.52-4.65-2.45,1.25-2.45,4.65Z"/><path class="cls-1" d="M782.82,809.61h-1.64v-2.5h1.64v-3.25h2.64v3.25h1.62v2.5h-1.62V820.8h-2.64Z"/><path class="cls-1" d="M791.85,814.88c0,1.91.66,3.74,2.42,3.74a2.24,2.24,0,0,0,2.2-2.08h2.62a5.57,5.57,0,0,1-1.86,3.6,4.9,4.9,0,0,1-3,1c-3.65,0-5.26-3.33-5.26-7.12,0-4.06,1.79-7.15,5.24-7.15a4.33,4.33,0,0,1,3.87,2.08c1.05,1.71,1.15,3.92,1.1,6Zm4.72-2.28c0-1.57-.56-3.57-2.32-3.57-1.44,0-2.4,1.35-2.4,3.57Z"/><path class="cls-1" d="M812.28,814.88c0,1.91.66,3.74,2.42,3.74a2.24,2.24,0,0,0,2.2-2.08h2.62a5.57,5.57,0,0,1-1.86,3.6,4.9,4.9,0,0,1-3,1c-3.65,0-5.26-3.33-5.26-7.12,0-4.06,1.79-7.15,5.24-7.15a4.33,4.33,0,0,1,3.87,2.08c1.05,1.71,1.15,3.92,1.1,6ZM817,812.6c0-1.57-.56-3.57-2.33-3.57-1.44,0-2.4,1.35-2.4,3.57Z"/><path class="cls-1" d="M823.49,809.61h-1.64v-2.5h1.64v-3.25h2.64v3.25h1.62v2.5h-1.62V820.8h-2.64Z"/><path class="cls-1" d="M676.51,850.16h-2.42c0-.59,0-1.17,0-1.81a3,3,0,0,1-3.18,2.11c-2.23,0-3.67-1.25-3.67-4.23v-9.74h2.64v8.88c0,1.1.22,2.47,1.84,2.47,1.25,0,2.13-.81,2.13-2.59v-8.76h2.64Z"/><path class="cls-1" d="M680.47,836.48h2.33c0,.56,0,1.1,0,1.69a3.2,3.2,0,0,1,3.26-2c2.25,0,3.7,1.25,3.7,4.23v9.74h-2.64v-8.88c0-1.1-.22-2.45-1.84-2.45-1.27,0-2.13.78-2.13,2.57v8.76h-2.64Z"/><path class="cls-1" d="M706.38,840.35c0-1.3-.64-1.86-1.74-1.86a1.36,1.36,0,0,0-1.47,1.42c0,1.32,1.44,1.57,3,2.06a4,4,0,0,1,3.16,4.16,4.31,4.31,0,0,1-4.55,4.33c-2.57,0-4.5-1.44-4.72-4.53h2.64a2,2,0,0,0,2.13,2.13,1.6,1.6,0,0,0,1.71-1.76c0-1.37-1.42-1.69-3.06-2.23s-3.13-1.44-3.13-4.06c0-2.23,1.59-3.82,4.36-3.82s4.14,1.54,4.28,4.16Z"/><path class="cls-1" d="M713,839h-1.64v-2.5H713v-3.25h2.64v3.25h1.62V839h-1.62v11.19H713Z"/><path class="cls-1" d="M722.46,849.53l-3.79-13h2.77l2.37,9,2.35-9h2.77l-5.46,18.28h-2.69Z"/><path class="cls-1" d="M731.76,832.05h2.64v18.11h-2.64Z"/><path class="cls-1" d="M738,843.31c0-3.92,1.66-7.12,5.29-7.12s5.26,3.21,5.26,7.15-1.66,7.12-5.26,7.12-5.29-3.21-5.29-7.12Zm2.79,0c0,3.35.91,4.63,2.52,4.63s2.45-1.27,2.45-4.65-.91-4.65-2.52-4.65-2.45,1.25-2.45,4.65Z"/><path class="cls-1" d="M754.27,850.16h-2.64v-3.23h2.64Z"/><path class="cls-1" d="M1052.09,208.38h3v15.35h5.16v2.77h-8.15Z"/><path class="cls-1" d="M1065.52,220.57c0,1.91.66,3.74,2.42,3.74a2.24,2.24,0,0,0,2.2-2.08h2.62a5.57,5.57,0,0,1-1.86,3.6,4.9,4.9,0,0,1-3,1c-3.65,0-5.26-3.33-5.26-7.12,0-4.06,1.79-7.15,5.24-7.15a4.33,4.33,0,0,1,3.87,2.08c1.05,1.71,1.15,3.92,1.1,6Zm4.72-2.28c0-1.57-.56-3.57-2.32-3.57-1.44,0-2.4,1.35-2.4,3.57Z"/><path class="cls-1" d="M1083.7,212.81H1086c0,.56,0,1.1,0,1.69a3.2,3.2,0,0,1,3.26-2c2.25,0,3.7,1.25,3.7,4.23v9.74h-2.64V217.6c0-1.1-.22-2.45-1.84-2.45-1.27,0-2.13.78-2.13,2.57v8.76h-2.64Z"/><path class="cls-1" d="M1096.21,219.64c0-3.92,1.66-7.12,5.29-7.12s5.26,3.21,5.26,7.15-1.66,7.12-5.26,7.12-5.29-3.21-5.29-7.12Zm2.79,0c0,3.35.91,4.63,2.52,4.63s2.45-1.27,2.45-4.65-.91-4.65-2.52-4.65-2.45,1.25-2.45,4.65Z"/><path class="cls-1" d="M1110.13,212.81h2.52c0,.61,0,1.2,0,1.84a2.85,2.85,0,0,1,3-2.13,3,3,0,0,1,2.13.73,2.68,2.68,0,0,1,.69,1.15,3,3,0,0,1,1-1.22,4.34,4.34,0,0,1,2.35-.66,3.67,3.67,0,0,1,3.13,1.49,5.5,5.5,0,0,1,.86,3.23v9.25h-2.64v-8.86a3.35,3.35,0,0,0-.32-1.71,1.52,1.52,0,0,0-1.47-.76,1.85,1.85,0,0,0-1.54.59,2.71,2.71,0,0,0-.54,1.81v8.93h-2.64v-8.84a3.5,3.5,0,0,0-.32-1.74,1.49,1.49,0,0,0-1.44-.76,1.93,1.93,0,0,0-1.54.56,2.85,2.85,0,0,0-.54,1.86v8.91h-2.67Z"/><path class="cls-1" d="M1146.42,226.49H1144c0-.81,0-1.4,0-2a3,3,0,0,1-3,2.28c-2.57,0-4.43-2.45-4.43-7.12,0-4.48,1.59-7.15,4.43-7.15a2.81,2.81,0,0,1,2.79,2c0-.54,0-1.08,0-1.69v-4.43h2.64Zm-7.2-6.83c0,3.06.83,4.48,2.3,4.48a1.87,1.87,0,0,0,1.69-.93c.49-.69.56-1.54.56-3.57s-.07-2.89-.56-3.55a1.84,1.84,0,0,0-1.69-1c-1.47,0-2.3,1.44-2.3,4.5Z"/><path class="cls-1" d="M1159.61,226.49h-2.42c0-.59,0-1.17,0-1.81a3,3,0,0,1-3.18,2.11c-2.23,0-3.67-1.25-3.67-4.23v-9.74H1153v8.88c0,1.1.22,2.47,1.84,2.47,1.25,0,2.13-.81,2.13-2.59v-8.76h2.64Z"/><path class="cls-1" d="M1171,212.81h2.42c0,.83,0,1.52,0,2.2.56-2.08,2-2.5,3.55-2.5v3.21a2,2,0,0,0-1.13-.32c-1.2,0-2.18,1.17-2.18,3.35v7.73H1171Z"/><path class="cls-1" d="M1181.53,220.57c0,1.91.66,3.74,2.42,3.74a2.24,2.24,0,0,0,2.2-2.08h2.62a5.57,5.57,0,0,1-1.86,3.6,4.9,4.9,0,0,1-3,1c-3.65,0-5.26-3.33-5.26-7.12,0-4.06,1.79-7.15,5.24-7.15a4.33,4.33,0,0,1,3.87,2.08c1.05,1.71,1.15,3.92,1.1,6Zm4.72-2.28c0-1.57-.56-3.57-2.33-3.57-1.44,0-2.4,1.35-2.4,3.57Z"/><path class="cls-1" d="M1201.2,221.5c-.1,2.79-1.54,5.29-4.43,5.29-3.4,0-5.29-2.86-5.29-7.12,0-4.53,2.06-7.15,5.26-7.15,2.91,0,4.38,2.47,4.43,5.34h-2.74c-.1-2.06-.86-2.84-1.88-2.84a1.71,1.71,0,0,0-1.66,1.08,7.81,7.81,0,0,0-.61,3.57c0,3.28.83,4.65,2.3,4.65,1.22,0,1.79-1.2,1.88-2.81Z"/><path class="cls-1" d="M1204.11,212.81h2.42c0,.83,0,1.52,0,2.2.56-2.08,2-2.5,3.55-2.5v3.21a2,2,0,0,0-1.13-.32c-1.2,0-2.18,1.17-2.18,3.35v7.73h-2.64Z"/><path class="cls-1" d="M1222,226.49h-2.42c0-.59,0-1.17,0-1.81a3,3,0,0,1-3.18,2.11c-2.23,0-3.67-1.25-3.67-4.23v-9.74h2.64v8.88c0,1.1.22,2.47,1.84,2.47,1.25,0,2.13-.81,2.13-2.59v-8.76H1222Z"/><path class="cls-1" d="M1226.38,215.3h-1.64v-2.5h1.64v-3.25H1229v3.25h1.62v2.5H1229v11.19h-2.64Z"/><path class="cls-1" d="M1235.41,220.57c0,1.91.66,3.74,2.42,3.74a2.24,2.24,0,0,0,2.2-2.08h2.62a5.57,5.57,0,0,1-1.86,3.6,4.9,4.9,0,0,1-3,1c-3.65,0-5.26-3.33-5.26-7.12,0-4.06,1.79-7.15,5.24-7.15a4.33,4.33,0,0,1,3.87,2.08c1.05,1.71,1.15,3.92,1.1,6Zm4.72-2.28c0-1.57-.56-3.57-2.33-3.57-1.44,0-2.4,1.35-2.4,3.57Z"/><path class="cls-1" d="M1255.38,226.49H1253c0-.59,0-1.17,0-1.81a3,3,0,0,1-3.18,2.11c-2.23,0-3.67-1.25-3.67-4.23v-9.74h2.64v8.88c0,1.1.22,2.47,1.84,2.47,1.25,0,2.13-.81,2.13-2.59v-8.76h2.64Z"/><path class="cls-1" d="M1259.34,212.81h2.42c0,.83,0,1.52,0,2.2.56-2.08,2-2.5,3.55-2.5v3.21a2,2,0,0,0-1.13-.32c-1.2,0-2.18,1.17-2.18,3.35v7.73h-2.64Z"/><path class="cls-1" d="M1269.84,226.49h-2.64v-3.23h2.64Z"/><path class="cls-1" d="M1052.09,280.23h3v15.35h5.16v2.77h-8.15Z"/><path class="cls-1" d="M1065.52,292.42c0,1.91.66,3.74,2.42,3.74a2.24,2.24,0,0,0,2.2-2.08h2.62a5.57,5.57,0,0,1-1.86,3.6,4.9,4.9,0,0,1-3,1c-3.65,0-5.26-3.33-5.26-7.12,0-4.06,1.79-7.15,5.24-7.15a4.33,4.33,0,0,1,3.87,2.08c1.05,1.71,1.15,3.92,1.1,6Zm4.72-2.28c0-1.57-.56-3.57-2.32-3.57-1.44,0-2.4,1.35-2.4,3.57Z"/><path class="cls-1" d="M1083.7,284.66H1086c0,.56,0,1.1,0,1.69a3.2,3.2,0,0,1,3.26-2c2.25,0,3.7,1.25,3.7,4.23v9.74h-2.64v-8.88c0-1.1-.22-2.45-1.84-2.45-1.27,0-2.13.78-2.13,2.57v8.76h-2.64Z"/><path class="cls-1" d="M1106,298.34h-2.42c0-.59,0-1.17,0-1.81a3,3,0,0,1-3.18,2.11c-2.23,0-3.67-1.25-3.67-4.23v-9.74h2.64v8.88c0,1.1.22,2.47,1.84,2.47,1.25,0,2.13-.81,2.13-2.59v-8.76H1106Z"/><path class="cls-1" d="M1110.06,284.66h2.52c0,.61,0,1.2,0,1.84a2.85,2.85,0,0,1,3-2.13,3,3,0,0,1,2.13.73,2.68,2.68,0,0,1,.69,1.15,3,3,0,0,1,1-1.22,4.34,4.34,0,0,1,2.35-.66,3.67,3.67,0,0,1,3.13,1.49,5.5,5.5,0,0,1,.86,3.23v9.25h-2.64v-8.86a3.34,3.34,0,0,0-.32-1.71,1.52,1.52,0,0,0-1.47-.76,1.85,1.85,0,0,0-1.54.59,2.71,2.71,0,0,0-.54,1.81v8.93h-2.64V289.5a3.5,3.5,0,0,0-.32-1.74,1.49,1.49,0,0,0-1.44-.76,1.92,1.92,0,0,0-1.54.56,2.84,2.84,0,0,0-.54,1.86v8.91h-2.67Z"/><path class="cls-1" d="M1132,292.42c0,1.91.66,3.74,2.42,3.74a2.24,2.24,0,0,0,2.2-2.08h2.62a5.57,5.57,0,0,1-1.86,3.6,4.9,4.9,0,0,1-3,1c-3.65,0-5.26-3.33-5.26-7.12,0-4.06,1.79-7.15,5.24-7.15a4.33,4.33,0,0,1,3.87,2.08c1.05,1.71,1.15,3.92,1.1,6Zm5.31-13.51,1,2.13-5.6,2.67-.93-1.74Zm-.59,11.23c0-1.57-.56-3.57-2.33-3.57-1.44,0-2.4,1.35-2.4,3.57Z"/><path class="cls-1" d="M1142.75,284.66h2.42c0,.83,0,1.52,0,2.2.56-2.08,2-2.5,3.55-2.5v3.21a2,2,0,0,0-1.13-.32c-1.2,0-2.18,1.17-2.18,3.35v7.73h-2.64Z"/><path class="cls-1" d="M1150.33,291.49c0-3.92,1.66-7.12,5.29-7.12s5.26,3.21,5.26,7.15-1.66,7.12-5.26,7.12-5.29-3.21-5.29-7.12Zm2.79,0c0,3.35.91,4.63,2.52,4.63s2.45-1.27,2.45-4.65-.91-4.65-2.52-4.65-2.45,1.25-2.45,4.65Z"/><path class="cls-1" d="M1180.75,298.34h-2.42c0-.81,0-1.4,0-2a3,3,0,0,1-3,2.28c-2.57,0-4.43-2.45-4.43-7.12,0-4.48,1.59-7.15,4.43-7.15a2.81,2.81,0,0,1,2.79,2c0-.54,0-1.08,0-1.69v-4.43h2.64Zm-7.2-6.83c0,3.06.83,4.48,2.3,4.48a1.87,1.87,0,0,0,1.69-.93c.49-.69.56-1.54.56-3.57s-.07-2.89-.56-3.55a1.84,1.84,0,0,0-1.69-1c-1.47,0-2.3,1.44-2.3,4.5Z"/><path class="cls-1" d="M1187,292.42c0,1.91.66,3.74,2.42,3.74a2.24,2.24,0,0,0,2.2-2.08h2.62a5.57,5.57,0,0,1-1.86,3.6,4.9,4.9,0,0,1-3,1c-3.65,0-5.26-3.33-5.26-7.12,0-4.06,1.79-7.15,5.24-7.15a4.33,4.33,0,0,1,3.87,2.08c1.05,1.71,1.15,3.92,1.1,6Zm4.72-2.28c0-1.57-.56-3.57-2.33-3.57-1.44,0-2.4,1.35-2.4,3.57Z"/><path class="cls-1" d="M1205.61,287.15H1204v-2.5h1.64V281.4h2.64v3.25h1.62v2.5h-1.62v11.19h-2.64Z"/><path class="cls-1" d="M1214.64,292.42c0,1.91.66,3.74,2.42,3.74a2.24,2.24,0,0,0,2.2-2.08h2.62a5.57,5.57,0,0,1-1.86,3.6,4.9,4.9,0,0,1-3,1c-3.65,0-5.26-3.33-5.26-7.12,0-4.06,1.79-7.15,5.24-7.15a4.33,4.33,0,0,1,3.87,2.08c1.05,1.71,1.15,3.92,1.1,6Zm5.31-13.51,1,2.13-5.6,2.67-.93-1.74Zm-.59,11.23c0-1.57-.56-3.57-2.33-3.57-1.44,0-2.4,1.35-2.4,3.57Z"/><path class="cls-1" d="M1225.67,280.23h2.64v18.11h-2.64Z"/><path class="cls-1" d="M1234.82,292.42c0,1.91.66,3.74,2.42,3.74a2.24,2.24,0,0,0,2.2-2.08h2.62a5.57,5.57,0,0,1-1.86,3.6,4.9,4.9,0,0,1-3,1c-3.65,0-5.26-3.33-5.26-7.12,0-4.06,1.79-7.15,5.24-7.15a4.33,4.33,0,0,1,3.87,2.08c1.05,1.71,1.15,3.92,1.1,6Zm5.31-13.51,1,2.13-5.6,2.67-.93-1.74Zm-.59,11.23c0-1.57-.56-3.57-2.33-3.57-1.44,0-2.4,1.35-2.4,3.57Z"/><path class="cls-1" d="M1245.56,284.66H1248v1.79a3,3,0,0,1,3-2.08c2.57,0,4.43,2.45,4.43,7.15,0,4.45-1.59,7.12-4.43,7.12a2.91,2.91,0,0,1-2.77-1.86v6.17h-2.64Zm7.2,6.83c0-3.06-.81-4.48-2.3-4.48a1.83,1.83,0,0,0-1.62.93c-.49.66-.64,1.54-.64,3.57s.15,2.89.64,3.55a1.81,1.81,0,0,0,1.62,1c1.49,0,2.3-1.44,2.3-4.5Z"/><path class="cls-1" d="M1258.68,280.23h2.64v4.21c0,.54,0,1,0,1.59.39-1,1.25-1.67,2.91-1.67a3.45,3.45,0,0,1,2.79,1.15,4.76,4.76,0,0,1,.93,3.23v9.59h-2.64v-8.81a3.18,3.18,0,0,0-.42-1.86,1.55,1.55,0,0,0-1.4-.66,1.9,1.9,0,0,0-1.57.64,2.73,2.73,0,0,0-.59,2v8.69h-2.64Z"/><path class="cls-1" d="M1271.18,291.49c0-3.92,1.66-7.12,5.29-7.12s5.26,3.21,5.26,7.15-1.66,7.12-5.26,7.12-5.29-3.21-5.29-7.12Zm2.79,0c0,3.35.91,4.63,2.52,4.63s2.45-1.27,2.45-4.65-.91-4.65-2.52-4.65-2.45,1.25-2.45,4.65Z"/><path class="cls-1" d="M1285,284.66h2.32c0,.56,0,1.1,0,1.69a3.2,3.2,0,0,1,3.26-2c2.25,0,3.7,1.25,3.7,4.23v9.74h-2.64v-8.88c0-1.1-.22-2.45-1.84-2.45-1.27,0-2.13.78-2.13,2.57v8.76H1285Z"/><path class="cls-1" d="M1300.45,292.42c0,1.91.66,3.74,2.42,3.74a2.24,2.24,0,0,0,2.2-2.08h2.62a5.57,5.57,0,0,1-1.86,3.6,4.9,4.9,0,0,1-3,1c-3.65,0-5.26-3.33-5.26-7.12,0-4.06,1.79-7.15,5.24-7.15a4.33,4.33,0,0,1,3.87,2.08c1.05,1.71,1.15,3.92,1.1,6Zm4.72-2.28c0-1.57-.56-3.57-2.33-3.57-1.44,0-2.4,1.35-2.4,3.57Z"/><path class="cls-1" d="M1314,298.34h-2.64v-3.23H1314Z"/><path class="cls-1" d="M1395.5,204.11h3v15.35h5.16v2.77h-8.15Z"/><path class="cls-1" d="M1405.58,204.11h2.81l-2.35,5.56h-2.42Z"/><path class="cls-1" d="M1411.57,204.11h2.64v2.62h-2.64Zm0,4.43h2.64v13.68h-2.64Z"/><path class="cls-1" d="M1418.94,211h-1.64v-2.5h1.64v-3.25h2.64v3.25h1.62V211h-1.62v11.19h-2.64Z"/><path class="cls-1" d="M1426.28,204.11h2.64v2.62h-2.64Zm0,4.43h2.64v13.68h-2.64Z"/><path class="cls-1" d="M1433.18,208.54h2.33c0,.56,0,1.1,0,1.69a3.2,3.2,0,0,1,3.26-2c2.25,0,3.7,1.25,3.7,4.23v9.74h-2.64v-8.88c0-1.1-.22-2.45-1.84-2.45-1.27,0-2.13.78-2.13,2.57v8.76h-2.64Z"/><path class="cls-1" d="M1448.62,216.3c0,1.91.66,3.74,2.42,3.74a2.24,2.24,0,0,0,2.2-2.08h2.62a5.57,5.57,0,0,1-1.86,3.6,4.9,4.9,0,0,1-3,1c-3.65,0-5.26-3.33-5.26-7.12,0-4.06,1.79-7.15,5.24-7.15a4.33,4.33,0,0,1,3.87,2.08c1.05,1.71,1.15,3.92,1.1,6Zm5.31-13.51,1,2.13-5.6,2.67-.93-1.74Zm-.59,11.23c0-1.57-.56-3.57-2.33-3.57-1.44,0-2.4,1.35-2.4,3.57Z"/><path class="cls-1" d="M1459.36,208.54h2.42c0,.83,0,1.52,0,2.2.56-2.08,2-2.5,3.55-2.5v3.21a2,2,0,0,0-1.13-.32c-1.2,0-2.18,1.17-2.18,3.35v7.73h-2.64Z"/><path class="cls-1" d="M1476.78,222.22h-2.42c0-.73,0-1.27,0-1.79a3.09,3.09,0,0,1-3,2.08c-2.57,0-4.43-2.45-4.43-7.12,0-4.48,1.59-7.15,4.43-7.15a3,3,0,0,1,3,2.15c0-.61,0-1.17,0-1.86h2.42Zm-7.2-6.8c0,3,.83,4.48,2.3,4.48a1.84,1.84,0,0,0,1.69-1c.49-.66.56-1.54.56-3.55s-.07-2.91-.56-3.57a1.87,1.87,0,0,0-1.69-.93c-1.47,0-2.3,1.42-2.3,4.5Z"/><path class="cls-1" d="M1481,204.11h2.64v2.62H1481Zm0,4.43h2.64v13.68H1481Z"/><path class="cls-1" d="M1487.94,208.54h2.42c0,.83,0,1.52,0,2.2.56-2.08,2-2.5,3.55-2.5v3.21a2,2,0,0,0-1.13-.32c-1.2,0-2.18,1.17-2.18,3.35v7.73h-2.64Z"/><path class="cls-1" d="M1498.46,216.3c0,1.91.66,3.74,2.42,3.74a2.24,2.24,0,0,0,2.2-2.08h2.62a5.57,5.57,0,0,1-1.86,3.6,4.9,4.9,0,0,1-3,1c-3.65,0-5.26-3.33-5.26-7.12,0-4.06,1.79-7.15,5.24-7.15a4.33,4.33,0,0,1,3.87,2.08c1.05,1.71,1.15,3.92,1.1,6Zm4.72-2.28c0-1.57-.56-3.57-2.33-3.57-1.44,0-2.4,1.35-2.4,3.57Z"/><path class="cls-1" d="M1519.25,216.3c0,1.91.66,3.74,2.42,3.74a2.24,2.24,0,0,0,2.2-2.08h2.62a5.57,5.57,0,0,1-1.86,3.6,4.9,4.9,0,0,1-3,1c-3.65,0-5.26-3.33-5.26-7.12,0-4.06,1.79-7.15,5.24-7.15a4.33,4.33,0,0,1,3.87,2.08c1.05,1.71,1.15,3.92,1.1,6ZM1524,214c0-1.57-.56-3.57-2.33-3.57-1.44,0-2.4,1.35-2.4,3.57Z"/><path class="cls-1" d="M1530.45,211h-1.64v-2.5h1.64v-3.25h2.64v3.25h1.62V211h-1.62v11.19h-2.64Z"/><path class="cls-1" d="M1545.59,204.11h2.64v18.11h-2.64Z"/><path class="cls-1" d="M1554.74,216.3c0,1.91.66,3.74,2.42,3.74a2.24,2.24,0,0,0,2.2-2.08H1562a5.57,5.57,0,0,1-1.86,3.6,4.9,4.9,0,0,1-3,1c-3.65,0-5.26-3.33-5.26-7.12,0-4.06,1.79-7.15,5.24-7.15a4.33,4.33,0,0,1,3.87,2.08c1.05,1.71,1.15,3.92,1.1,6Zm4.72-2.28c0-1.57-.56-3.57-2.33-3.57-1.44,0-2.4,1.35-2.4,3.57Z"/><path class="cls-1" d="M1573.74,211h-1.64v-2.5h1.64v-3.25h2.64v3.25H1578V211h-1.62v11.19h-2.64Z"/><path class="cls-1" d="M1582.76,216.3c0,1.91.66,3.74,2.42,3.74a2.24,2.24,0,0,0,2.2-2.08H1590a5.57,5.57,0,0,1-1.86,3.6,4.9,4.9,0,0,1-3,1c-3.65,0-5.26-3.33-5.26-7.12,0-4.06,1.79-7.15,5.24-7.15a4.33,4.33,0,0,1,3.87,2.08c1.05,1.71,1.15,3.92,1.1,6Zm4.72-2.28c0-1.57-.56-3.57-2.33-3.57-1.44,0-2.4,1.35-2.4,3.57Z"/><path class="cls-1" d="M1593.6,208.54h2.52c0,.61,0,1.2,0,1.84a2.85,2.85,0,0,1,3-2.13,3,3,0,0,1,2.13.73,2.68,2.68,0,0,1,.69,1.15,3,3,0,0,1,1-1.22,4.34,4.34,0,0,1,2.35-.66,3.67,3.67,0,0,1,3.13,1.49,5.5,5.5,0,0,1,.86,3.23v9.25h-2.64v-8.86a3.35,3.35,0,0,0-.32-1.71,1.52,1.52,0,0,0-1.47-.76,1.85,1.85,0,0,0-1.54.59,2.71,2.71,0,0,0-.54,1.81v8.93h-2.64v-8.84a3.5,3.5,0,0,0-.32-1.74,1.49,1.49,0,0,0-1.44-.76,1.93,1.93,0,0,0-1.54.56,2.85,2.85,0,0,0-.54,1.86v8.91h-2.67Z"/><path class="cls-1" d="M1613.3,208.54h2.42v1.79a3,3,0,0,1,3-2.08c2.57,0,4.43,2.45,4.43,7.15,0,4.45-1.59,7.12-4.43,7.12a2.91,2.91,0,0,1-2.77-1.86v6.17h-2.64Zm7.2,6.83c0-3.06-.81-4.48-2.3-4.48a1.83,1.83,0,0,0-1.62.93c-.49.66-.64,1.54-.64,3.57s.15,2.89.64,3.55a1.81,1.81,0,0,0,1.62,1c1.49,0,2.3-1.44,2.3-4.5Z"/><path class="cls-1" d="M1631.7,212.41c0-1.3-.64-1.86-1.74-1.86a1.36,1.36,0,0,0-1.47,1.42c0,1.32,1.44,1.57,3,2.06a4,4,0,0,1,3.16,4.16,4.31,4.31,0,0,1-4.55,4.33c-2.57,0-4.5-1.44-4.72-4.53h2.64a2,2,0,0,0,2.13,2.13,1.6,1.6,0,0,0,1.71-1.76c0-1.37-1.42-1.69-3.06-2.23s-3.13-1.44-3.13-4.06c0-2.23,1.59-3.82,4.36-3.82s4.14,1.54,4.28,4.16Z"/><path class="cls-1" d="M1404.43,251.58H1402c0-.81,0-1.4,0-2a3,3,0,0,1-3,2.28c-2.57,0-4.43-2.45-4.43-7.12,0-4.48,1.59-7.15,4.43-7.15a2.81,2.81,0,0,1,2.79,2c0-.54,0-1.08,0-1.69v-4.43h2.64Zm-7.2-6.83c0,3.06.83,4.48,2.3,4.48a1.87,1.87,0,0,0,1.69-.93c.49-.69.56-1.54.56-3.57s-.07-2.89-.56-3.55a1.84,1.84,0,0,0-1.69-1c-1.47,0-2.3,1.44-2.3,4.5Z"/><path class="cls-1" d="M1410.64,245.66c0,1.91.66,3.74,2.42,3.74a2.24,2.24,0,0,0,2.2-2.08h2.62a5.57,5.57,0,0,1-1.86,3.6,4.9,4.9,0,0,1-3,1c-3.65,0-5.26-3.33-5.26-7.12,0-4.06,1.79-7.15,5.24-7.15a4.33,4.33,0,0,1,3.87,2.08c1.05,1.71,1.15,3.92,1.1,6Zm4.72-2.28c0-1.57-.56-3.57-2.33-3.57-1.44,0-2.4,1.35-2.4,3.57Z"/><path class="cls-1" d="M1429.29,240.4h-1.64v-2.5h1.64v-3.25h2.64v3.25h1.62v2.5h-1.62v11.19h-2.64Z"/><path class="cls-1" d="M1436.33,237.9h2.42c0,.83,0,1.52,0,2.2.56-2.08,2-2.5,3.55-2.5v3.21a2,2,0,0,0-1.13-.32c-1.2,0-2.18,1.17-2.18,3.35v7.73h-2.64Z"/><path class="cls-1" d="M1453.76,251.58h-2.42c0-.73,0-1.27,0-1.79a3.09,3.09,0,0,1-3,2.08c-2.57,0-4.43-2.45-4.43-7.12,0-4.48,1.59-7.15,4.43-7.15a3,3,0,0,1,3,2.15c0-.61,0-1.17,0-1.86h2.42Zm-7.2-6.8c0,3,.83,4.48,2.3,4.48a1.84,1.84,0,0,0,1.69-1c.49-.66.56-1.54.56-3.55s-.07-2.91-.56-3.57a1.87,1.87,0,0,0-1.69-.93c-1.47,0-2.3,1.42-2.3,4.5Z"/><path class="cls-1" d="M1460.63,252.1c0,2.45-1,4.14-3.35,4.28-.27,0-.56,0-.83,0v-2.52h.2c1-.12,1.35-.86,1.35-2.18V237.9h2.64ZM1458,233.47h2.64v2.62H1458Z"/><path class="cls-1" d="M1467.12,245.66c0,1.91.66,3.74,2.42,3.74a2.24,2.24,0,0,0,2.2-2.08h2.62a5.57,5.57,0,0,1-1.86,3.6,4.9,4.9,0,0,1-3,1c-3.65,0-5.26-3.33-5.26-7.12,0-4.06,1.79-7.15,5.24-7.15a4.33,4.33,0,0,1,3.87,2.08c1.05,1.71,1.15,3.92,1.1,6Zm4.72-2.28c0-1.57-.56-3.57-2.33-3.57-1.44,0-2.4,1.35-2.4,3.57Z"/><path class="cls-1" d="M1478.32,240.4h-1.64v-2.5h1.64v-3.25H1481v3.25h1.62v2.5H1481v11.19h-2.64Z"/><path class="cls-1" d="M1488.5,251.58h-2.64v-3.23h2.64Z"/><path class="cls-1" d="M1063.89,562.42c0,3.75-2.13,6.93-6.22,6.93-3.92,0-6.44-3.13-6.44-9.4s2.4-9.4,6.44-9.4,6.27,3.28,6.22,7.17h-3c-.07-2.89-1-4.33-3-4.33-2.28,0-3.6,2.13-3.6,6.63s1.54,6.49,3.6,6.49c2.28,0,2.86-2.08,3-4.09Z"/><path class="cls-1" d="M1066.58,562.15c0-3.92,1.66-7.12,5.29-7.12s5.26,3.21,5.26,7.15-1.66,7.12-5.26,7.12-5.29-3.21-5.29-7.12Zm2.79,0c0,3.35.91,4.63,2.52,4.63s2.45-1.27,2.45-4.65-.91-4.65-2.52-4.65-2.45,1.25-2.45,4.65Z"/><path class="cls-1" d="M1080.4,555.32h2.33c0,.56,0,1.1,0,1.69a3.2,3.2,0,0,1,3.26-2c2.25,0,3.7,1.25,3.7,4.23V569H1087v-8.88c0-1.1-.22-2.45-1.84-2.45-1.27,0-2.13.78-2.13,2.57V569h-2.64Z"/><path class="cls-1" d="M1093.59,555.32h2.33c0,.56,0,1.1,0,1.69a3.2,3.2,0,0,1,3.26-2c2.25,0,3.7,1.25,3.7,4.23V569h-2.64v-8.88c0-1.1-.22-2.45-1.84-2.45-1.27,0-2.13.78-2.13,2.57V569h-2.64Z"/><path class="cls-1" d="M1115.93,569h-2.42c0-.73,0-1.27,0-1.79a3.09,3.09,0,0,1-3,2.08c-2.57,0-4.43-2.45-4.43-7.12,0-4.48,1.59-7.15,4.43-7.15a3,3,0,0,1,3,2.15c0-.61,0-1.17,0-1.86h2.42Zm-7.2-6.8c0,3,.83,4.48,2.3,4.48a1.84,1.84,0,0,0,1.69-1c.49-.66.56-1.54.56-3.55s-.07-2.91-.56-3.57a1.87,1.87,0,0,0-1.69-.93c-1.47,0-2.3,1.42-2.3,4.5Z"/><path class="cls-1" d="M1125.79,553.75h-2.37l-1.91-2.06-1.91,2.06h-2.4l3-3.38h2.55Zm-5.6,1.57h2.64V569h-2.64Z"/><path class="cls-1" d="M1127.55,557.82h-1.64v-2.5h1.64v-3.25h2.64v3.25h1.62v2.5h-1.62V569h-2.64Z"/><path class="cls-1" d="M1134.6,555.32H1137c0,.83,0,1.52,0,2.2.56-2.08,2-2.5,3.55-2.5v3.21a2,2,0,0,0-1.13-.32c-1.2,0-2.18,1.17-2.18,3.35V569h-2.64Z"/><path class="cls-1" d="M1145.12,563.08c0,1.91.66,3.74,2.42,3.74a2.24,2.24,0,0,0,2.2-2.08h2.62a5.57,5.57,0,0,1-1.86,3.6,4.9,4.9,0,0,1-3,1c-3.65,0-5.26-3.33-5.26-7.12,0-4.06,1.79-7.15,5.24-7.15a4.33,4.33,0,0,1,3.87,2.08c1.05,1.71,1.15,3.92,1.1,6Zm4.72-2.28c0-1.57-.56-3.57-2.33-3.57-1.44,0-2.4,1.35-2.4,3.57Z"/><path class="cls-1" d="M1163.59,550.89h2.64V569h-2.64Z"/><path class="cls-1" d="M1172.75,563.08c0,1.91.66,3.74,2.42,3.74a2.24,2.24,0,0,0,2.2-2.08H1180a5.57,5.57,0,0,1-1.86,3.6,4.9,4.9,0,0,1-3,1c-3.65,0-5.26-3.33-5.26-7.12,0-4.06,1.79-7.15,5.24-7.15a4.33,4.33,0,0,1,3.87,2.08c1.05,1.71,1.15,3.92,1.1,6Zm4.72-2.28c0-1.57-.56-3.57-2.33-3.57-1.44,0-2.4,1.35-2.4,3.57Z"/><path class="cls-1" d="M1192.71,569h-2.42c0-.59,0-1.17,0-1.81a3,3,0,0,1-3.18,2.11c-2.23,0-3.67-1.25-3.67-4.23v-9.74h2.64v8.88c0,1.1.22,2.47,1.84,2.47,1.25,0,2.13-.81,2.13-2.59v-8.76h2.64Z"/><path class="cls-1" d="M1196.68,555.32h2.42c0,.83,0,1.52,0,2.2.56-2.08,2-2.5,3.55-2.5v3.21a2,2,0,0,0-1.13-.32c-1.2,0-2.18,1.17-2.18,3.35V569h-2.64Z"/><path class="cls-1" d="M1210.58,559.19c0-1.3-.64-1.86-1.74-1.86a1.36,1.36,0,0,0-1.47,1.42c0,1.32,1.44,1.57,3,2.06a4,4,0,0,1,3.16,4.16,4.31,4.31,0,0,1-4.55,4.33c-2.57,0-4.5-1.44-4.72-4.53h2.64a2,2,0,0,0,2.13,2.13,1.6,1.6,0,0,0,1.71-1.76c0-1.37-1.42-1.69-3.06-2.23s-3.13-1.44-3.13-4.06c0-2.23,1.59-3.82,4.36-3.82s4.14,1.54,4.28,4.16Z"/><path class="cls-1" d="M1233.33,569h-2.42c0-.81,0-1.4,0-2a3,3,0,0,1-3,2.28c-2.57,0-4.43-2.45-4.43-7.12,0-4.48,1.59-7.15,4.43-7.15a2.81,2.81,0,0,1,2.79,2c0-.54,0-1.08,0-1.69v-4.43h2.64Zm-7.2-6.83c0,3.06.83,4.48,2.3,4.48a1.87,1.87,0,0,0,1.69-.93c.49-.69.56-1.54.56-3.57s-.07-2.89-.56-3.55a1.84,1.84,0,0,0-1.69-1c-1.47,0-2.3,1.44-2.3,4.5Z"/><path class="cls-1" d="M1239.55,563.08c0,1.91.66,3.74,2.42,3.74a2.24,2.24,0,0,0,2.2-2.08h2.62a5.57,5.57,0,0,1-1.86,3.6,4.9,4.9,0,0,1-3,1c-3.65,0-5.26-3.33-5.26-7.12,0-4.06,1.79-7.15,5.24-7.15a4.33,4.33,0,0,1,3.87,2.08c1.05,1.71,1.15,3.92,1.1,6Zm4.72-2.28c0-1.57-.56-3.57-2.33-3.57-1.44,0-2.4,1.35-2.4,3.57Z"/><path class="cls-1" d="M1250.29,555.32h2.42c0,.83,0,1.52,0,2.2.56-2.08,2-2.5,3.55-2.5v3.21a2,2,0,0,0-1.13-.32c-1.2,0-2.18,1.17-2.18,3.35V569h-2.64Z"/><path class="cls-1" d="M1258.9,555.32h2.33c0,.56,0,1.1,0,1.69a3.2,3.2,0,0,1,3.26-2c2.25,0,3.7,1.25,3.7,4.23V569h-2.64v-8.88c0-1.1-.22-2.45-1.84-2.45-1.27,0-2.13.78-2.13,2.57V569h-2.64Z"/><path class="cls-1" d="M1272.38,550.89H1275v2.62h-2.64Zm0,4.43H1275V569h-2.64Z"/><path class="cls-1" d="M1281.53,563.08c0,1.91.66,3.74,2.42,3.74a2.24,2.24,0,0,0,2.2-2.08h2.62a5.57,5.57,0,0,1-1.86,3.6,4.9,4.9,0,0,1-3,1c-3.65,0-5.26-3.33-5.26-7.12,0-4.06,1.79-7.15,5.24-7.15a4.33,4.33,0,0,1,3.87,2.08c1.05,1.71,1.15,3.92,1.1,6Zm4.75-10.45-.93,1.74-5.6-2.67,1-2.13Zm0,8.17c0-1.57-.56-3.57-2.33-3.57-1.44,0-2.4,1.35-2.4,3.57Z"/><path class="cls-1" d="M1292.27,555.32h2.42c0,.83,0,1.52,0,2.2.56-2.08,2-2.5,3.55-2.5v3.21a2,2,0,0,0-1.13-.32c-1.2,0-2.18,1.17-2.18,3.35V569h-2.64Z"/><path class="cls-1" d="M1302.8,563.08c0,1.91.66,3.74,2.42,3.74a2.24,2.24,0,0,0,2.2-2.08H1310a5.57,5.57,0,0,1-1.86,3.6,4.9,4.9,0,0,1-3,1c-3.65,0-5.26-3.33-5.26-7.12,0-4.06,1.79-7.15,5.24-7.15a4.33,4.33,0,0,1,3.87,2.08c1.05,1.71,1.15,3.92,1.1,6Zm4.72-2.28c0-1.57-.56-3.57-2.33-3.57-1.44,0-2.4,1.35-2.4,3.57Z"/><path class="cls-1" d="M1318.82,559.19c0-1.3-.64-1.86-1.74-1.86a1.36,1.36,0,0,0-1.47,1.42c0,1.32,1.44,1.57,3,2.06a4,4,0,0,1,3.16,4.16,4.31,4.31,0,0,1-4.55,4.33c-2.57,0-4.5-1.44-4.72-4.53h2.64a2,2,0,0,0,2.13,2.13,1.6,1.6,0,0,0,1.71-1.76c0-1.37-1.42-1.69-3.06-2.23s-3.13-1.44-3.13-4.06c0-2.23,1.59-3.82,4.36-3.82s4.14,1.54,4.28,4.16Z"/><path class="cls-1" d="M1341.58,569h-2.42c0-.73,0-1.27,0-1.79a3.09,3.09,0,0,1-3,2.08c-2.57,0-4.43-2.45-4.43-7.12,0-4.48,1.59-7.15,4.43-7.15a3,3,0,0,1,3,2.15c0-.61,0-1.17,0-1.86h2.42Zm-7.2-6.8c0,3,.83,4.48,2.3,4.48a1.84,1.84,0,0,0,1.69-1c.49-.66.56-1.54.56-3.55s-.07-2.91-.56-3.57a1.87,1.87,0,0,0-1.69-.93c-1.47,0-2.3,1.42-2.3,4.5Z"/><path class="cls-1" d="M1354.48,564c-.1,2.79-1.54,5.29-4.43,5.29-3.4,0-5.29-2.86-5.29-7.12,0-4.53,2.06-7.15,5.26-7.15,2.91,0,4.38,2.47,4.43,5.34h-2.74c-.1-2.06-.86-2.84-1.88-2.84a1.71,1.71,0,0,0-1.66,1.08,7.81,7.81,0,0,0-.61,3.57c0,3.28.83,4.65,2.3,4.65,1.22,0,1.79-1.2,1.88-2.81Z"/><path class="cls-1" d="M1357.85,557.82h-1.64v-2.5h1.64v-3.25h2.64v3.25h1.62v2.5h-1.62V569h-2.64Z"/><path class="cls-1" d="M1374.12,569h-2.42c0-.59,0-1.17,0-1.81a3,3,0,0,1-3.18,2.11c-2.23,0-3.67-1.25-3.67-4.23v-9.74h2.64v8.88c0,1.1.22,2.47,1.84,2.47,1.25,0,2.13-.81,2.13-2.59v-8.76h2.64Z"/><path class="cls-1" d="M1387.24,569h-2.42c0-.73,0-1.27,0-1.79a3.09,3.09,0,0,1-3,2.08c-2.57,0-4.43-2.45-4.43-7.12,0-4.48,1.59-7.15,4.43-7.15a3,3,0,0,1,3,2.15c0-.61,0-1.17,0-1.86h2.42Zm-7.2-6.8c0,3,.83,4.48,2.3,4.48a1.84,1.84,0,0,0,1.69-1c.49-.66.56-1.54.56-3.55s-.07-2.91-.56-3.57a1.87,1.87,0,0,0-1.69-.93c-1.47,0-2.3,1.42-2.3,4.5Z"/><path class="cls-1" d="M1391.49,550.89h2.64V569h-2.64Z"/><path class="cls-1" d="M1398.69,550.89h2.64v2.62h-2.64Zm0,4.43h2.64V569h-2.64Z"/><path class="cls-1" d="M1406.05,557.82h-1.64v-2.5h1.64v-3.25h2.64v3.25h1.62v2.5h-1.62V569h-2.64Z"/><path class="cls-1" d="M1415.08,563.08c0,1.91.66,3.74,2.42,3.74a2.24,2.24,0,0,0,2.2-2.08h2.62a5.57,5.57,0,0,1-1.86,3.6,4.9,4.9,0,0,1-3,1c-3.65,0-5.26-3.33-5.26-7.12,0-4.06,1.79-7.15,5.24-7.15a4.33,4.33,0,0,1,3.87,2.08c1.05,1.71,1.15,3.92,1.1,6Zm5.31-13.51,1,2.13-5.6,2.67-.93-1.74Zm-.59,11.23c0-1.57-.56-3.57-2.33-3.57-1.44,0-2.4,1.35-2.4,3.57Z"/><path class="cls-1" d="M1431.11,559.19c0-1.3-.64-1.86-1.74-1.86a1.36,1.36,0,0,0-1.47,1.42c0,1.32,1.44,1.57,3,2.06a4,4,0,0,1,3.16,4.16,4.31,4.31,0,0,1-4.55,4.33c-2.57,0-4.5-1.44-4.72-4.53h2.64a2,2,0,0,0,2.13,2.13,1.6,1.6,0,0,0,1.71-1.76c0-1.37-1.42-1.69-3.06-2.23s-3.13-1.44-3.13-4.06c0-2.23,1.59-3.82,4.36-3.82s4.14,1.54,4.28,4.16Z"/><path class="cls-1" d="M1440.12,569h-2.64v-3.23h2.64Z"/><path class="cls-1" d="M1395.5,280.15h3v15.35h5.16v2.77h-8.15Z"/><path class="cls-1" d="M1405.58,280.15h2.81L1406,285.7h-2.42Z"/><path class="cls-1" d="M1411.28,280.15h2.64v4.21c0,.54,0,1,0,1.59.39-1,1.25-1.67,2.91-1.67a3.45,3.45,0,0,1,2.79,1.15,4.76,4.76,0,0,1,.93,3.23v9.59h-2.64v-8.81a3.18,3.18,0,0,0-.42-1.86,1.55,1.55,0,0,0-1.4-.66,1.9,1.9,0,0,0-1.57.64,2.73,2.73,0,0,0-.59,2v8.69h-2.64Z"/><path class="cls-1" d="M1426.72,292.34c0,1.91.66,3.74,2.42,3.74a2.24,2.24,0,0,0,2.2-2.08H1434a5.57,5.57,0,0,1-1.86,3.6,4.9,4.9,0,0,1-3,1c-3.65,0-5.26-3.33-5.26-7.12,0-4.06,1.79-7.15,5.24-7.15a4.33,4.33,0,0,1,3.87,2.08c1.05,1.71,1.15,3.92,1.1,6Zm4.72-2.28c0-1.57-.56-3.57-2.33-3.57-1.44,0-2.4,1.35-2.4,3.57Z"/><path class="cls-1" d="M1446.69,298.26h-2.42c0-.59,0-1.17,0-1.81a3,3,0,0,1-3.18,2.11c-2.23,0-3.67-1.25-3.67-4.23v-9.74h2.64v8.88c0,1.1.22,2.47,1.84,2.47,1.25,0,2.13-.81,2.13-2.59v-8.76h2.64Z"/><path class="cls-1" d="M1450.65,284.58h2.42c0,.83,0,1.52,0,2.2.56-2.08,2-2.5,3.55-2.5v3.21a2,2,0,0,0-1.13-.32c-1.2,0-2.18,1.17-2.18,3.35v7.73h-2.64Z"/><path class="cls-1" d="M1461.17,292.34c0,1.91.66,3.74,2.42,3.74a2.24,2.24,0,0,0,2.2-2.08h2.62a5.57,5.57,0,0,1-1.86,3.6,4.9,4.9,0,0,1-3,1c-3.65,0-5.26-3.33-5.26-7.12,0-4.06,1.79-7.15,5.24-7.15a4.33,4.33,0,0,1,3.87,2.08c1.05,1.71,1.15,3.92,1.1,6Zm4.72-2.28c0-1.57-.56-3.57-2.33-3.57-1.44,0-2.4,1.35-2.4,3.57Z"/><path class="cls-1" d="M1488.51,298.26h-2.42c0-.81,0-1.4,0-2a3,3,0,0,1-3,2.28c-2.57,0-4.43-2.45-4.43-7.12,0-4.48,1.59-7.15,4.43-7.15a2.81,2.81,0,0,1,2.79,2c0-.54,0-1.08,0-1.69v-4.43h2.64Zm-7.2-6.83c0,3.06.83,4.48,2.3,4.48a1.87,1.87,0,0,0,1.69-.93c.49-.69.56-1.54.56-3.57s-.07-2.89-.56-3.55a1.84,1.84,0,0,0-1.69-1c-1.47,0-2.3,1.44-2.3,4.5Z"/><path class="cls-1" d="M1501.69,298.26h-2.42c0-.59,0-1.17,0-1.81a3,3,0,0,1-3.18,2.11c-2.23,0-3.67-1.25-3.67-4.23v-9.74h2.64v8.88c0,1.1.22,2.47,1.84,2.47,1.25,0,2.13-.81,2.13-2.59v-8.76h2.64Z"/><path class="cls-1" d="M1513.09,284.58h2.42c0,.83,0,1.52,0,2.2.56-2.08,2-2.5,3.55-2.5v3.21a2,2,0,0,0-1.13-.32c-1.2,0-2.18,1.17-2.18,3.35v7.73h-2.64Z"/><path class="cls-1" d="M1523.62,292.34c0,1.91.66,3.74,2.42,3.74a2.24,2.24,0,0,0,2.2-2.08h2.62a5.57,5.57,0,0,1-1.86,3.6,4.9,4.9,0,0,1-3,1c-3.65,0-5.26-3.33-5.26-7.12,0-4.06,1.79-7.15,5.24-7.15a4.33,4.33,0,0,1,3.87,2.08c1.05,1.71,1.15,3.92,1.1,6Zm4.72-2.28c0-1.57-.56-3.57-2.33-3.57-1.44,0-2.4,1.35-2.4,3.57Z"/><path class="cls-1" d="M1534.36,284.58h2.33c0,.56,0,1.1,0,1.69a3.2,3.2,0,0,1,3.26-2c2.25,0,3.7,1.25,3.7,4.23v9.74H1541v-8.88c0-1.1-.22-2.45-1.84-2.45-1.27,0-2.13.78-2.13,2.57v8.76h-2.64Z"/><path class="cls-1" d="M1556.7,298.26h-2.42c0-.81,0-1.4,0-2a3,3,0,0,1-3,2.28c-2.57,0-4.43-2.45-4.43-7.12,0-4.48,1.59-7.15,4.43-7.15a2.81,2.81,0,0,1,2.79,2c0-.54,0-1.08,0-1.69v-4.43h2.64Zm-7.2-6.83c0,3.06.83,4.48,2.3,4.48a1.87,1.87,0,0,0,1.69-.93c.49-.69.56-1.54.56-3.57s-.07-2.89-.56-3.55a1.84,1.84,0,0,0-1.69-1c-1.47,0-2.3,1.44-2.3,4.5Z"/><path class="cls-1" d="M1562.91,292.34c0,1.91.66,3.74,2.42,3.74a2.24,2.24,0,0,0,2.2-2.08h2.62a5.57,5.57,0,0,1-1.86,3.6,4.9,4.9,0,0,1-3,1c-3.65,0-5.26-3.33-5.26-7.12,0-4.06,1.79-7.15,5.24-7.15a4.33,4.33,0,0,1,3.87,2.08c1.05,1.71,1.15,3.92,1.1,6Zm4.72-2.28c0-1.57-.56-3.57-2.33-3.57-1.44,0-2.4,1.35-2.4,3.57Z"/><path class="cls-1" d="M1572.77,295.79l5.6-8.71h-5.14v-2.5h8.27v2.5l-5.51,8.69h5.6v2.5h-8.84Z"/><path class="cls-1" d="M1590.17,290v2.59h-5.75V290Z"/><path class="cls-1" d="M1598.59,298.26h-2.45l-4-13.68h2.69l2.52,9.77,2.33-9.77h2.67Z"/><path class="cls-1" d="M1604,291.41c0-3.92,1.66-7.12,5.29-7.12s5.26,3.21,5.26,7.15-1.66,7.12-5.26,7.12-5.29-3.21-5.29-7.12Zm2.79,0c0,3.35.91,4.63,2.52,4.63s2.45-1.27,2.45-4.65-.91-4.65-2.52-4.65-2.45,1.25-2.45,4.65Z"/><path class="cls-1" d="M1627,298.26h-2.42c0-.59,0-1.17,0-1.81a3,3,0,0,1-3.18,2.11c-2.23,0-3.67-1.25-3.67-4.23v-9.74h2.64v8.88c0,1.1.22,2.47,1.84,2.47,1.25,0,2.13-.81,2.13-2.59v-8.76H1627Z"/><path class="cls-1" d="M1636.27,288.44c0-1.3-.64-1.86-1.74-1.86a1.36,1.36,0,0,0-1.47,1.42c0,1.32,1.44,1.57,3,2.06a4,4,0,0,1,3.16,4.16,4.31,4.31,0,0,1-4.55,4.33c-2.57,0-4.5-1.44-4.72-4.53h2.64a2,2,0,0,0,2.13,2.13,1.6,1.6,0,0,0,1.71-1.76c0-1.37-1.42-1.69-3.06-2.23s-3.13-1.44-3.13-4.06c0-2.23,1.59-3.82,4.36-3.82s4.14,1.54,4.28,4.16Z"/><path class="cls-1" d="M1645.28,298.26h-2.64V295h2.64Z"/><path class="cls-1" d="M1052.09,357.4h3v15.35h5.16v2.77h-8.15Z"/><path class="cls-1" d="M1062.17,357.4H1065l-2.35,5.56h-2.42Z"/><path class="cls-1" d="M1077,375.51h-2.42c0-.73,0-1.27,0-1.79a3.09,3.09,0,0,1-3,2.08c-2.57,0-4.43-2.45-4.43-7.12,0-4.48,1.59-7.15,4.43-7.15a3,3,0,0,1,3,2.15c0-.61,0-1.17,0-1.86H1077Zm-7.2-6.8c0,3,.83,4.48,2.3,4.48a1.84,1.84,0,0,0,1.69-1c.49-.66.56-1.54.56-3.55s-.07-2.91-.56-3.57a1.87,1.87,0,0,0-1.69-.93c-1.47,0-2.3,1.42-2.3,4.5Z"/><path class="cls-1" d="M1090.14,375.51h-2.42c0-.81,0-1.4,0-2a3,3,0,0,1-3,2.28c-2.57,0-4.43-2.45-4.43-7.12,0-4.48,1.59-7.15,4.43-7.15a2.81,2.81,0,0,1,2.79,2c0-.54,0-1.08,0-1.69V357.4h2.64Zm-7.2-6.83c0,3.06.83,4.48,2.3,4.48a1.87,1.87,0,0,0,1.69-.93c.49-.69.56-1.54.56-3.57s-.07-2.89-.56-3.55a1.84,1.84,0,0,0-1.69-1c-1.47,0-2.3,1.44-2.3,4.5Z"/><path class="cls-1" d="M1094.1,361.83h2.42c0,.83,0,1.52,0,2.2.56-2.08,2-2.5,3.55-2.5v3.21a2,2,0,0,0-1.13-.32c-1.2,0-2.18,1.17-2.18,3.35v7.73h-2.64Z"/><path class="cls-1" d="M1104.62,369.59c0,1.91.66,3.74,2.42,3.74a2.24,2.24,0,0,0,2.2-2.08h2.62a5.57,5.57,0,0,1-1.86,3.6,4.9,4.9,0,0,1-3,1c-3.65,0-5.26-3.33-5.26-7.12,0-4.06,1.79-7.15,5.24-7.15a4.33,4.33,0,0,1,3.87,2.08c1.05,1.71,1.15,3.92,1.1,6Zm4.72-2.28c0-1.57-.56-3.57-2.32-3.57-1.44,0-2.4,1.35-2.4,3.57Z"/><path class="cls-1" d="M1120.65,365.69c0-1.3-.64-1.86-1.74-1.86a1.36,1.36,0,0,0-1.47,1.42c0,1.32,1.44,1.57,3,2.06a4,4,0,0,1,3.16,4.16,4.31,4.31,0,0,1-4.55,4.33c-2.57,0-4.5-1.44-4.72-4.53H1117a2,2,0,0,0,2.13,2.13,1.6,1.6,0,0,0,1.71-1.76c0-1.37-1.42-1.69-3.06-2.23s-3.13-1.44-3.13-4.06c0-2.23,1.59-3.82,4.36-3.82s4.14,1.54,4.28,4.16Z"/><path class="cls-1" d="M1132.1,365.69c0-1.3-.64-1.86-1.74-1.86a1.36,1.36,0,0,0-1.47,1.42c0,1.32,1.44,1.57,3,2.06a4,4,0,0,1,3.16,4.16,4.31,4.31,0,0,1-4.55,4.33c-2.57,0-4.5-1.44-4.72-4.53h2.64a2,2,0,0,0,2.13,2.13,1.6,1.6,0,0,0,1.71-1.76c0-1.37-1.42-1.69-3.06-2.23s-3.13-1.44-3.13-4.06c0-2.23,1.59-3.82,4.36-3.82s4.14,1.54,4.28,4.16Z"/><path class="cls-1" d="M1140.52,369.59c0,1.91.66,3.74,2.42,3.74a2.24,2.24,0,0,0,2.2-2.08h2.62a5.57,5.57,0,0,1-1.86,3.6,4.9,4.9,0,0,1-3,1c-3.65,0-5.26-3.33-5.26-7.12,0-4.06,1.79-7.15,5.24-7.15a4.33,4.33,0,0,1,3.87,2.08c1.05,1.71,1.15,3.92,1.1,6Zm4.72-2.28c0-1.57-.56-3.57-2.33-3.57-1.44,0-2.4,1.35-2.4,3.57Z"/><path class="cls-1" d="M1154.1,375.51h-2.64v-3.23h2.64Z"/><path class="cls-1" d="M1395.5,357.32h3v15.35h5.16v2.77h-8.15Z"/><path class="cls-1" d="M1408.93,369.51c0,1.91.66,3.74,2.42,3.74a2.24,2.24,0,0,0,2.2-2.08h2.62a5.57,5.57,0,0,1-1.86,3.6,4.9,4.9,0,0,1-3,1c-3.65,0-5.26-3.33-5.26-7.12,0-4.06,1.79-7.15,5.24-7.15a4.33,4.33,0,0,1,3.87,2.08c1.05,1.71,1.15,3.92,1.1,6Zm4.72-2.28c0-1.57-.56-3.57-2.33-3.57-1.44,0-2.4,1.35-2.4,3.57Z"/><path class="cls-1" d="M1429.48,361.75h2.42c0,.83,0,1.52,0,2.2.56-2.08,2-2.5,3.55-2.5v3.21a2,2,0,0,0-1.13-.32c-1.2,0-2.18,1.17-2.18,3.35v7.73h-2.64Z"/><path class="cls-1" d="M1440,369.51c0,1.91.66,3.74,2.42,3.74a2.24,2.24,0,0,0,2.2-2.08h2.62a5.57,5.57,0,0,1-1.86,3.6,4.9,4.9,0,0,1-3,1c-3.65,0-5.26-3.33-5.26-7.12,0-4.06,1.79-7.15,5.24-7.15a4.33,4.33,0,0,1,3.87,2.08c1.05,1.71,1.15,3.92,1.1,6Zm4.72-2.28c0-1.57-.56-3.57-2.33-3.57-1.44,0-2.4,1.35-2.4,3.57Z"/><path class="cls-1" d="M1456,365.61c0-1.3-.64-1.86-1.74-1.86a1.36,1.36,0,0,0-1.47,1.42c0,1.32,1.44,1.57,3,2.06a4,4,0,0,1,3.16,4.16,4.31,4.31,0,0,1-4.55,4.33c-2.57,0-4.5-1.44-4.72-4.53h2.64a2,2,0,0,0,2.13,2.13,1.6,1.6,0,0,0,1.71-1.76c0-1.37-1.42-1.69-3.06-2.23s-3.13-1.44-3.13-4.06c0-2.23,1.59-3.82,4.36-3.82s4.14,1.54,4.28,4.16Z"/><path class="cls-1" d="M1462.66,364.24H1461v-2.5h1.64v-3.25h2.64v3.25h1.62v2.5h-1.62v11.19h-2.64Z"/><path class="cls-1" d="M1478.59,375.43h-2.42c0-.73,0-1.27,0-1.79a3.09,3.09,0,0,1-3,2.08c-2.57,0-4.43-2.45-4.43-7.12,0-4.48,1.59-7.15,4.43-7.15a3,3,0,0,1,3,2.15c0-.61,0-1.17,0-1.86h2.42Zm-7.2-6.8c0,3,.83,4.48,2.3,4.48a1.84,1.84,0,0,0,1.69-1c.49-.66.56-1.54.56-3.55s-.07-2.91-.56-3.57a1.87,1.87,0,0,0-1.69-.93c-1.47,0-2.3,1.42-2.3,4.5Z"/><path class="cls-1" d="M1491.78,375.43h-2.42c0-.59,0-1.17,0-1.81a3,3,0,0,1-3.18,2.11c-2.23,0-3.67-1.25-3.67-4.23v-9.74h2.64v8.88c0,1.1.22,2.47,1.84,2.47,1.25,0,2.13-.81,2.13-2.59v-8.76h2.64Z"/><path class="cls-1" d="M1495.74,361.75h2.42c0,.83,0,1.52,0,2.2.56-2.08,2-2.5,3.55-2.5v3.21a2,2,0,0,0-1.13-.32c-1.2,0-2.18,1.17-2.18,3.35v7.73h-2.64Z"/><path class="cls-1" d="M1513.17,375.43h-2.42c0-.73,0-1.27,0-1.79a3.09,3.09,0,0,1-3,2.08c-2.57,0-4.43-2.45-4.43-7.12,0-4.48,1.59-7.15,4.43-7.15a3,3,0,0,1,3,2.15c0-.61,0-1.17,0-1.86h2.42Zm-7.2-6.8c0,3,.83,4.48,2.3,4.48a1.84,1.84,0,0,0,1.69-1c.49-.66.56-1.54.56-3.55s-.07-2.91-.56-3.57a1.87,1.87,0,0,0-1.69-.93c-1.47,0-2.3,1.42-2.3,4.5Z"/><path class="cls-1" d="M1517.13,361.75h2.33c0,.56,0,1.1,0,1.69a3.2,3.2,0,0,1,3.26-2c2.25,0,3.7,1.25,3.7,4.23v9.74h-2.64v-8.88c0-1.1-.22-2.45-1.84-2.45-1.27,0-2.13.78-2.13,2.57v8.76h-2.64Z"/><path class="cls-1" d="M1530.78,364.24h-1.64v-2.5h1.64v-3.25h2.64v3.25H1535v2.5h-1.62v11.19h-2.64Z"/><path class="cls-1" d="M1547.93,357.32h2.64v18.11h-2.64Z"/><path class="cls-1" d="M1557.08,369.51c0,1.91.66,3.74,2.42,3.74a2.24,2.24,0,0,0,2.2-2.08h2.62a5.57,5.57,0,0,1-1.86,3.6,4.9,4.9,0,0,1-3,1c-3.65,0-5.26-3.33-5.26-7.12,0-4.06,1.79-7.15,5.24-7.15a4.33,4.33,0,0,1,3.87,2.08c1.05,1.71,1.15,3.92,1.1,6Zm4.72-2.28c0-1.57-.56-3.57-2.33-3.57-1.44,0-2.4,1.35-2.4,3.57Z"/><path class="cls-1" d="M1577.63,361.75h2.42v1.79a3,3,0,0,1,3-2.08c2.57,0,4.43,2.45,4.43,7.15,0,4.45-1.59,7.12-4.43,7.12a2.91,2.91,0,0,1-2.77-1.86V380h-2.64Zm7.2,6.83c0-3.06-.81-4.48-2.3-4.48a1.83,1.83,0,0,0-1.62.93c-.49.66-.64,1.54-.64,3.57s.15,2.89.64,3.55a1.81,1.81,0,0,0,1.62,1c1.49,0,2.3-1.44,2.3-4.5Z"/><path class="cls-1" d="M1591,357.32h2.64v18.11H1591Z"/><path class="cls-1" d="M1607.16,375.43h-2.42c0-.59,0-1.17,0-1.81a3,3,0,0,1-3.18,2.11c-2.23,0-3.67-1.25-3.67-4.23v-9.74h2.64v8.88c0,1.1.22,2.47,1.84,2.47,1.25,0,2.13-.81,2.13-2.59v-8.76h2.64Z"/><path class="cls-1" d="M1616.41,365.61c0-1.3-.64-1.86-1.74-1.86a1.36,1.36,0,0,0-1.47,1.42c0,1.32,1.44,1.57,3,2.06a4,4,0,0,1,3.16,4.16,4.31,4.31,0,0,1-4.55,4.33c-2.57,0-4.5-1.44-4.72-4.53h2.64a2,2,0,0,0,2.13,2.13,1.6,1.6,0,0,0,1.71-1.76c0-1.37-1.42-1.69-3.06-2.23s-3.13-1.44-3.13-4.06c0-2.23,1.59-3.82,4.36-3.82s4.14,1.54,4.28,4.16Z"/><path class="cls-1" d="M1395.28,391.11h2.42v1.79a3,3,0,0,1,3-2.08c2.57,0,4.43,2.45,4.43,7.15,0,4.45-1.59,7.12-4.43,7.12a2.91,2.91,0,0,1-2.77-1.86v6.17h-2.64Zm7.2,6.83c0-3.06-.81-4.48-2.3-4.48a1.83,1.83,0,0,0-1.62.93c-.49.66-.64,1.54-.64,3.57s.15,2.89.64,3.55a1.81,1.81,0,0,0,1.62,1c1.49,0,2.3-1.44,2.3-4.5Z"/><path class="cls-1" d="M1408.39,391.11h2.42c0,.83,0,1.52,0,2.2.56-2.08,2-2.5,3.55-2.5V394a2,2,0,0,0-1.13-.32c-1.2,0-2.18,1.17-2.18,3.35v7.73h-2.64Z"/><path class="cls-1" d="M1416,397.94c0-3.92,1.66-7.12,5.29-7.12s5.26,3.21,5.26,7.15-1.66,7.12-5.26,7.12S1416,401.88,1416,398Zm2.79,0c0,3.35.91,4.63,2.52,4.63s2.45-1.27,2.45-4.65-.91-4.65-2.52-4.65-2.45,1.25-2.45,4.65Z"/><path class="cls-1" d="M1438.74,399.8c-.1,2.79-1.54,5.29-4.43,5.29-3.4,0-5.29-2.86-5.29-7.12,0-4.53,2.06-7.15,5.26-7.15,2.91,0,4.38,2.47,4.43,5.34H1436c-.1-2.06-.86-2.84-1.88-2.84a1.71,1.71,0,0,0-1.66,1.08,7.81,7.81,0,0,0-.61,3.57c0,3.28.83,4.65,2.3,4.65,1.22,0,1.79-1.2,1.88-2.81Z"/><path class="cls-1" d="M1441.65,386.68h2.64v4.21c0,.54,0,1,0,1.59.39-1,1.25-1.67,2.91-1.67A3.45,3.45,0,0,1,1450,392a4.76,4.76,0,0,1,.93,3.23v9.59h-2.64V396a3.18,3.18,0,0,0-.42-1.86,1.55,1.55,0,0,0-1.4-.66,1.9,1.9,0,0,0-1.57.64,2.73,2.73,0,0,0-.59,2v8.69h-2.64Z"/><path class="cls-1" d="M1457.09,398.87c0,1.91.66,3.74,2.42,3.74a2.24,2.24,0,0,0,2.2-2.08h2.62a5.57,5.57,0,0,1-1.86,3.6,4.9,4.9,0,0,1-3,1c-3.65,0-5.26-3.33-5.26-7.12,0-4.06,1.79-7.15,5.24-7.15a4.33,4.33,0,0,1,3.87,2.08c1.05,1.71,1.15,3.92,1.1,6Zm4.72-2.28c0-1.57-.56-3.57-2.33-3.57-1.44,0-2.4,1.35-2.4,3.57Z"/><path class="cls-1" d="M1470.67,404.79H1468v-3.23h2.64Z"/></svg>