<svg xmlns="http://www.w3.org/2000/svg" viewBox="0 0 1920 1080"><defs><style>.cls-1{fill:red;}.cls-2{fill:#fff;}</style></defs><title>4b_ui2</title><g id="textes_jeu_4" data-name="textes jeu 4"><path class="cls-1" d="M351.31,425.21h539.8a0,0,0,0,1,0,0v47.72a20.59,20.59,0,0,1-20.59,20.59H351.31a20.59,20.59,0,0,1-20.59-20.59V445.8A20.59,20.59,0,0,1,351.31,425.21Z"/><path class="cls-1" d="M351.31,500.92h434a0,0,0,0,1,0,0v47.72a20.59,20.59,0,0,1-20.59,20.59H351.31a20.59,20.59,0,0,1-20.59-20.59V521.51A20.59,20.59,0,0,1,351.31,500.92Z"/><path class="cls-1" d="M675.27,704.92H886a0,0,0,0,1,0,0v47.72a20.59,20.59,0,0,1-20.59,20.59H675.27a20.59,20.59,0,0,1-20.59-20.59V725.51A20.59,20.59,0,0,1,675.27,704.92Z"/><path class="cls-1" d="M1404.29,338.63H1635.4a0,0,0,0,1,0,0v66a20.59,20.59,0,0,1-20.59,20.59H1404.29a20.59,20.59,0,0,1-20.59-20.59v-45.4A20.59,20.59,0,0,1,1404.29,338.63Z"/><path class="cls-1" d="M1062,787.42h549.74a0,0,0,0,1,0,0v66A20.59,20.59,0,0,1,1591.16,874H1062a20.59,20.59,0,0,1-20.59-20.59V808A20.59,20.59,0,0,1,1062,787.42Z"/><path class="cls-2" d="M344.63,461.07c.12,2.25,1.15,3.13,2.67,3.13a2.47,2.47,0,0,0,2.62-2.69c0-2-2.08-2.5-4-3.18s-4-1.74-4-4.87c0-3.33,2-5.43,5.24-5.43s4.92,1.54,5.41,5h-2.89a2.36,2.36,0,0,0-2.4-2.47A2.27,2.27,0,0,0,345,453c0,2,1.91,2.37,4,3.13,1.74.68,4,1.81,4,5.31,0,3.33-2.45,5.41-5.7,5.41-3.62,0-5.58-2-5.6-5.78Z"/><path class="cls-2" d="M356.76,455.31h-1.64v-2.5h1.64v-3.25h2.64v3.25H361v2.5h-1.62V466.5h-2.64Z"/><path class="cls-2" d="M363.81,452.82h2.42c0,.83,0,1.52,0,2.2.56-2.08,2-2.5,3.55-2.5v3.21a2,2,0,0,0-1.13-.32c-1.2,0-2.18,1.17-2.18,3.35v7.73h-2.64Z"/><path class="cls-2" d="M372.72,448.39h2.64V451h-2.64Zm0,4.43h2.64V466.5h-2.64Z"/><path class="cls-2" d="M388.55,461.51c-.1,2.79-1.54,5.29-4.43,5.29-3.4,0-5.29-2.86-5.29-7.12,0-4.53,2.06-7.15,5.26-7.15,2.91,0,4.38,2.47,4.43,5.34h-2.74c-.1-2.06-.86-2.84-1.88-2.84a1.71,1.71,0,0,0-1.66,1.08,7.81,7.81,0,0,0-.61,3.57c0,3.28.83,4.65,2.3,4.65,1.22,0,1.79-1.2,1.88-2.81Z"/><path class="cls-2" d="M391.93,455.31h-1.64v-2.5h1.64v-3.25h2.64v3.25h1.62v2.5h-1.62V466.5h-2.64Z"/><path class="cls-2" d="M413,451a11,11,0,0,0-4.33,9.11,11.1,11.1,0,0,0,4.33,9.13V472a13.29,13.29,0,0,1-6.78-11.89c0-5.63,3.21-10.16,6.78-11.87Z"/><path class="cls-2" d="M425.3,461.51c-.1,2.79-1.54,5.29-4.43,5.29-3.4,0-5.29-2.86-5.29-7.12,0-4.53,2.06-7.15,5.26-7.15,2.91,0,4.38,2.47,4.43,5.34h-2.74c-.1-2.06-.86-2.84-1.88-2.84A1.71,1.71,0,0,0,419,456.1a7.81,7.81,0,0,0-.61,3.57c0,3.28.83,4.65,2.3,4.65,1.22,0,1.79-1.2,1.88-2.81Z"/><path class="cls-2" d="M429.24,448.39h2.81l-2.35,5.56h-2.42Z"/><path class="cls-2" d="M437.19,460.58c0,1.91.66,3.74,2.42,3.74a2.24,2.24,0,0,0,2.2-2.08h2.62a5.56,5.56,0,0,1-1.86,3.6,4.9,4.9,0,0,1-3,1c-3.65,0-5.26-3.33-5.26-7.12,0-4.06,1.79-7.15,5.24-7.15a4.33,4.33,0,0,1,3.87,2.08c1.05,1.71,1.15,3.92,1.1,6Zm4.72-2.28c0-1.57-.56-3.57-2.33-3.57-1.44,0-2.4,1.35-2.4,3.57Z"/><path class="cls-2" d="M453.22,456.68c0-1.3-.64-1.86-1.74-1.86a1.36,1.36,0,0,0-1.47,1.42c0,1.32,1.44,1.57,3,2.06a4,4,0,0,1,3.16,4.16,4.31,4.31,0,0,1-4.55,4.33c-2.57,0-4.5-1.44-4.72-4.53h2.64a2,2,0,0,0,2.13,2.13,1.6,1.6,0,0,0,1.71-1.76c0-1.37-1.42-1.69-3.06-2.23s-3.13-1.44-3.13-4.06c0-2.23,1.59-3.82,4.36-3.82s4.14,1.54,4.28,4.16Z"/><path class="cls-2" d="M459.85,455.31h-1.64v-2.5h1.64v-3.25h2.64v3.25h1.62v2.5h-1.62V466.5h-2.64Z"/><path class="cls-2" d="M474.43,452.82H477c0,.61,0,1.2,0,1.84a2.85,2.85,0,0,1,3-2.13,3,3,0,0,1,2.13.73,2.68,2.68,0,0,1,.69,1.15,3,3,0,0,1,1-1.22,4.34,4.34,0,0,1,2.35-.66,3.67,3.67,0,0,1,3.13,1.49,5.5,5.5,0,0,1,.86,3.23v9.25h-2.64v-8.86a3.35,3.35,0,0,0-.32-1.71,1.52,1.52,0,0,0-1.47-.76,1.85,1.85,0,0,0-1.54.59,2.71,2.71,0,0,0-.54,1.81v8.93h-2.64v-8.84a3.5,3.5,0,0,0-.32-1.74,1.49,1.49,0,0,0-1.44-.76,1.93,1.93,0,0,0-1.54.56,2.85,2.85,0,0,0-.54,1.86v8.91h-2.67Z"/><path class="cls-2" d="M493.45,459.65c0-3.92,1.66-7.12,5.29-7.12s5.26,3.21,5.26,7.15-1.66,7.12-5.26,7.12-5.29-3.21-5.29-7.12Zm2.79,0c0,3.35.91,4.63,2.52,4.63s2.45-1.27,2.45-4.65-.91-4.65-2.52-4.65-2.45,1.25-2.45,4.65Z"/><path class="cls-2" d="M507.27,452.82h2.33c0,.56,0,1.1,0,1.69a3.2,3.2,0,0,1,3.25-2c2.25,0,3.7,1.25,3.7,4.23v9.74h-2.64v-8.88c0-1.1-.22-2.45-1.84-2.45-1.27,0-2.13.78-2.13,2.57v8.76h-2.64Z"/><path class="cls-2" d="M536.83,461.51c-.1,2.79-1.54,5.29-4.43,5.29-3.4,0-5.29-2.86-5.29-7.12,0-4.53,2.06-7.15,5.26-7.15,2.91,0,4.38,2.47,4.43,5.34h-2.74c-.1-2.06-.86-2.84-1.88-2.84a1.71,1.71,0,0,0-1.66,1.08,7.81,7.81,0,0,0-.61,3.57c0,3.28.83,4.65,2.3,4.65,1.22,0,1.79-1.2,1.88-2.81Z"/><path class="cls-2" d="M539.06,459.65c0-3.92,1.66-7.12,5.29-7.12s5.26,3.21,5.26,7.15-1.66,7.12-5.26,7.12-5.29-3.21-5.29-7.12Zm2.79,0c0,3.35.91,4.63,2.52,4.63s2.45-1.27,2.45-4.65-.91-4.65-2.52-4.65-2.45,1.25-2.45,4.65Z"/><path class="cls-2" d="M558.17,456.68c0-1.3-.64-1.86-1.74-1.86a1.36,1.36,0,0,0-1.47,1.42c0,1.32,1.44,1.57,3,2.06a4,4,0,0,1,3.16,4.16,4.31,4.31,0,0,1-4.55,4.33c-2.57,0-4.5-1.44-4.72-4.53h2.64a2,2,0,0,0,2.13,2.13,1.6,1.6,0,0,0,1.71-1.76c0-1.37-1.42-1.69-3.06-2.23s-3.13-1.44-3.13-4.06c0-2.23,1.59-3.82,4.36-3.82s4.14,1.54,4.28,4.16Z"/><path class="cls-2" d="M564.8,455.31h-1.64v-2.5h1.64v-3.25h2.64v3.25h1.62v2.5h-1.62V466.5H564.8Z"/><path class="cls-2" d="M581.07,466.5h-2.42c0-.59,0-1.17,0-1.81a3,3,0,0,1-3.18,2.11c-2.23,0-3.67-1.25-3.67-4.23v-9.74h2.64v8.88c0,1.1.22,2.47,1.84,2.47,1.25,0,2.13-.81,2.13-2.59v-8.76h2.64Z"/><path class="cls-2" d="M585.13,452.82h2.52c0,.61,0,1.2,0,1.84a2.85,2.85,0,0,1,3-2.13,3,3,0,0,1,2.13.73,2.68,2.68,0,0,1,.69,1.15,3,3,0,0,1,1-1.22,4.34,4.34,0,0,1,2.35-.66,3.67,3.67,0,0,1,3.13,1.49,5.5,5.5,0,0,1,.86,3.23v9.25h-2.64v-8.86a3.35,3.35,0,0,0-.32-1.71,1.52,1.52,0,0,0-1.47-.76,1.85,1.85,0,0,0-1.54.59,2.71,2.71,0,0,0-.54,1.81v8.93h-2.64v-8.84a3.5,3.5,0,0,0-.32-1.74,1.49,1.49,0,0,0-1.44-.76,1.93,1.93,0,0,0-1.54.56,2.85,2.85,0,0,0-.54,1.86v8.91h-2.67Z"/><path class="cls-2" d="M607.08,460.58c0,1.91.66,3.74,2.42,3.74a2.24,2.24,0,0,0,2.2-2.08h2.62a5.57,5.57,0,0,1-1.86,3.6,4.9,4.9,0,0,1-3,1c-3.65,0-5.26-3.33-5.26-7.12,0-4.06,1.79-7.15,5.24-7.15a4.33,4.33,0,0,1,3.87,2.08c1.05,1.71,1.15,3.92,1.1,6Zm4.72-2.28c0-1.57-.56-3.57-2.33-3.57-1.44,0-2.4,1.35-2.4,3.57Z"/><path class="cls-2" d="M634.41,466.5H632c0-.81,0-1.4,0-2a3,3,0,0,1-3,2.28c-2.57,0-4.43-2.45-4.43-7.12,0-4.48,1.59-7.15,4.43-7.15a2.81,2.81,0,0,1,2.79,2c0-.54,0-1.08,0-1.69v-4.43h2.64Zm-7.2-6.83c0,3.06.83,4.48,2.3,4.48a1.87,1.87,0,0,0,1.69-.93c.49-.69.56-1.54.56-3.57s-.07-2.89-.56-3.55a1.84,1.84,0,0,0-1.69-1c-1.47,0-2.3,1.44-2.3,4.5Z"/><path class="cls-2" d="M640.63,460.58c0,1.91.66,3.74,2.42,3.74a2.24,2.24,0,0,0,2.2-2.08h2.62a5.56,5.56,0,0,1-1.86,3.6,4.9,4.9,0,0,1-3,1c-3.65,0-5.26-3.33-5.26-7.12,0-4.06,1.79-7.15,5.24-7.15a4.33,4.33,0,0,1,3.87,2.08c1.05,1.71,1.15,3.92,1.1,6Zm4.72-2.28c0-1.57-.56-3.57-2.32-3.57-1.44,0-2.4,1.35-2.4,3.57Z"/><path class="cls-2" d="M656.65,456.68c0-1.3-.64-1.86-1.74-1.86a1.36,1.36,0,0,0-1.47,1.42c0,1.32,1.44,1.57,3,2.06a4,4,0,0,1,3.16,4.16,4.31,4.31,0,0,1-4.55,4.33c-2.57,0-4.5-1.44-4.72-4.53H653a2,2,0,0,0,2.13,2.13,1.6,1.6,0,0,0,1.71-1.76c0-1.37-1.42-1.69-3.06-2.23s-3.13-1.44-3.13-4.06c0-2.23,1.59-3.82,4.36-3.82s4.14,1.54,4.28,4.16Z"/><path class="cls-2" d="M679.41,466.3a5.16,5.16,0,0,1-1.22,3.72,4.78,4.78,0,0,1-3.67,1.37,4.5,4.5,0,0,1-4.7-4h2.77a1.76,1.76,0,0,0,.56,1.08,2,2,0,0,0,1.4.44c1.44,0,2.25-.81,2.28-2.77v-1.37a2.67,2.67,0,0,1-2.81,2c-3,0-4.43-2.67-4.43-7.12s1.42-7.15,4.43-7.15a3.16,3.16,0,0,1,3.16,2.13c0-.59,0-1.17,0-1.84h2.28Zm-7.2-6.61c0,3,.83,4.48,2.3,4.48a1.84,1.84,0,0,0,1.69-1c.49-.66.56-1.54.56-3.55s-.07-2.91-.56-3.57a1.87,1.87,0,0,0-1.69-.93c-1.47,0-2.3,1.42-2.3,4.5Z"/><path class="cls-2" d="M683.37,452.82h2.42c0,.83,0,1.52,0,2.2.56-2.08,2-2.5,3.55-2.5v3.21a2,2,0,0,0-1.13-.32c-1.2,0-2.18,1.17-2.18,3.35v7.73h-2.64Z"/><path class="cls-2" d="M700.8,466.5h-2.42c0-.73,0-1.27,0-1.79a3.09,3.09,0,0,1-3,2.08c-2.57,0-4.43-2.45-4.43-7.12,0-4.48,1.59-7.15,4.43-7.15a3,3,0,0,1,3,2.15c0-.61,0-1.17,0-1.86h2.42Zm-7.2-6.8c0,3,.83,4.48,2.3,4.48a1.84,1.84,0,0,0,1.69-1c.49-.66.56-1.54.56-3.55s-.07-2.91-.56-3.57a1.87,1.87,0,0,0-1.69-.93c-1.47,0-2.3,1.42-2.3,4.5Z"/><path class="cls-2" d="M704.76,452.82h2.33c0,.56,0,1.1,0,1.69a3.2,3.2,0,0,1,3.26-2c2.25,0,3.7,1.25,3.7,4.23v9.74h-2.64v-8.88c0-1.1-.22-2.45-1.84-2.45-1.27,0-2.13.78-2.13,2.57v8.76h-2.64Z"/><path class="cls-2" d="M727.1,466.5h-2.42c0-.81,0-1.4,0-2a3,3,0,0,1-3,2.28c-2.57,0-4.43-2.45-4.43-7.12,0-4.48,1.59-7.15,4.43-7.15a2.81,2.81,0,0,1,2.79,2c0-.54,0-1.08,0-1.69v-4.43h2.64Zm-7.2-6.83c0,3.06.83,4.48,2.3,4.48a1.87,1.87,0,0,0,1.69-.93c.49-.69.56-1.54.56-3.57s-.07-2.89-.56-3.55a1.84,1.84,0,0,0-1.69-1c-1.47,0-2.3,1.44-2.3,4.5Z"/><path class="cls-2" d="M733.31,460.58c0,1.91.66,3.74,2.42,3.74a2.24,2.24,0,0,0,2.2-2.08h2.62a5.57,5.57,0,0,1-1.86,3.6,4.9,4.9,0,0,1-3,1c-3.65,0-5.26-3.33-5.26-7.12,0-4.06,1.79-7.15,5.24-7.15a4.33,4.33,0,0,1,3.87,2.08c1.05,1.71,1.15,3.92,1.1,6ZM738,458.3c0-1.57-.56-3.57-2.33-3.57-1.44,0-2.4,1.35-2.4,3.57Z"/><path class="cls-2" d="M749.34,456.68c0-1.3-.64-1.86-1.74-1.86a1.36,1.36,0,0,0-1.47,1.42c0,1.32,1.44,1.57,3,2.06a4,4,0,0,1,3.16,4.16,4.31,4.31,0,0,1-4.55,4.33c-2.57,0-4.5-1.44-4.72-4.53h2.64a2,2,0,0,0,2.13,2.13,1.6,1.6,0,0,0,1.71-1.76c0-1.37-1.42-1.69-3.06-2.23s-3.13-1.44-3.13-4.06c0-2.23,1.59-3.82,4.36-3.82s4.14,1.54,4.28,4.16Z"/><path class="cls-2" d="M762.26,459.65c0-3.92,1.66-7.12,5.29-7.12s5.26,3.21,5.26,7.15-1.66,7.12-5.26,7.12-5.29-3.21-5.29-7.12Zm2.79,0c0,3.35.91,4.63,2.52,4.63S770,463,770,459.67s-.91-4.65-2.52-4.65-2.45,1.25-2.45,4.65Z"/><path class="cls-2" d="M785,461.51c-.1,2.79-1.54,5.29-4.43,5.29-3.4,0-5.29-2.86-5.29-7.12,0-4.53,2.06-7.15,5.26-7.15,2.91,0,4.38,2.47,4.43,5.34h-2.74c-.1-2.06-.86-2.84-1.88-2.84a1.71,1.71,0,0,0-1.66,1.08,7.81,7.81,0,0,0-.61,3.57c0,3.28.83,4.65,2.3,4.65,1.22,0,1.79-1.2,1.88-2.81Z"/><path class="cls-2" d="M796.86,461.51c-.1,2.79-1.54,5.29-4.43,5.29-3.4,0-5.29-2.86-5.29-7.12,0-4.53,2.06-7.15,5.26-7.15,2.91,0,4.38,2.47,4.43,5.34h-2.74c-.1-2.06-.86-2.84-1.88-2.84a1.71,1.71,0,0,0-1.66,1.08,7.81,7.81,0,0,0-.61,3.57c0,3.28.83,4.65,2.3,4.65,1.22,0,1.79-1.2,1.88-2.81Z"/><path class="cls-2" d="M808.92,466.5H806.5c0-.73,0-1.27,0-1.79a3.09,3.09,0,0,1-3,2.08c-2.57,0-4.43-2.45-4.43-7.12,0-4.48,1.59-7.15,4.43-7.15a3,3,0,0,1,3,2.15c0-.61,0-1.17,0-1.86h2.42Zm-7.2-6.8c0,3,.83,4.48,2.3,4.48a1.84,1.84,0,0,0,1.69-1c.49-.66.56-1.54.56-3.55s-.07-2.91-.56-3.57a1.87,1.87,0,0,0-1.69-.93c-1.47,0-2.3,1.42-2.3,4.5Z"/><path class="cls-2" d="M818.17,456.68c0-1.3-.64-1.86-1.74-1.86a1.36,1.36,0,0,0-1.47,1.42c0,1.32,1.44,1.57,3,2.06a4,4,0,0,1,3.16,4.16,4.31,4.31,0,0,1-4.55,4.33c-2.57,0-4.5-1.44-4.72-4.53h2.64a2,2,0,0,0,2.13,2.13,1.6,1.6,0,0,0,1.71-1.76c0-1.37-1.42-1.69-3.06-2.23s-3.13-1.44-3.13-4.06c0-2.23,1.59-3.82,4.36-3.82s4.14,1.54,4.28,4.16Z"/><path class="cls-2" d="M824.63,448.39h2.64V451h-2.64Zm0,4.43h2.64V466.5h-2.64Z"/><path class="cls-2" d="M830.84,459.65c0-3.92,1.66-7.12,5.29-7.12s5.26,3.21,5.26,7.15-1.66,7.12-5.26,7.12-5.29-3.21-5.29-7.12Zm2.79,0c0,3.35.91,4.63,2.52,4.63s2.45-1.27,2.45-4.65-.91-4.65-2.52-4.65-2.45,1.25-2.45,4.65Z"/><path class="cls-2" d="M844.67,452.82H847c0,.56,0,1.1,0,1.69a3.2,3.2,0,0,1,3.26-2c2.25,0,3.7,1.25,3.7,4.23v9.74h-2.64v-8.88c0-1.1-.22-2.45-1.84-2.45-1.27,0-2.13.78-2.13,2.57v8.76h-2.64Z"/><path class="cls-2" d="M863.14,456.68c0-1.3-.64-1.86-1.74-1.86a1.36,1.36,0,0,0-1.47,1.42c0,1.32,1.44,1.57,3,2.06a4,4,0,0,1,3.16,4.16,4.31,4.31,0,0,1-4.55,4.33c-2.57,0-4.5-1.44-4.72-4.53h2.64a2,2,0,0,0,2.13,2.13,1.6,1.6,0,0,0,1.71-1.76c0-1.37-1.42-1.69-3.06-2.23s-3.13-1.44-3.13-4.06c0-2.23,1.59-3.82,4.36-3.82s4.14,1.54,4.28,4.16Z"/><path class="cls-2" d="M868.67,469.27a11.76,11.76,0,0,0,0-18.23v-2.77a13.28,13.28,0,0,1,6.8,11.9c0,5.63-3.23,10.16-6.8,11.87Z"/><path class="cls-2" d="M882.4,466.5h-2.64v-3.23h2.64Z"/><path class="cls-2" d="M341.67,532c0-5.53,2.2-9.37,6.61-9.37s6.63,3.84,6.63,9.4c0,5.29-2.06,9.4-6.63,9.4-4.41,0-6.61-3.84-6.61-9.4Zm3.06,0c0,4.58,1.27,6.61,3.55,6.61s3.57-2,3.57-6.63-1.27-6.63-3.57-6.63-3.55,2-3.55,6.63Z"/><path class="cls-2" d="M358.26,527.39h2.42c0,.83,0,1.52,0,2.2.56-2.08,2-2.5,3.55-2.5v3.21a2,2,0,0,0-1.13-.32c-1.2,0-2.18,1.17-2.18,3.35v7.73h-2.64Z"/><path class="cls-2" d="M367.16,523h2.64v2.62h-2.64Zm0,4.43h2.64v13.68h-2.64Z"/><path class="cls-2" d="M383.22,540.88A5.16,5.16,0,0,1,382,544.6a4.78,4.78,0,0,1-3.67,1.37,4.5,4.5,0,0,1-4.7-4h2.77a1.76,1.76,0,0,0,.56,1.08,2,2,0,0,0,1.39.44c1.44,0,2.25-.81,2.28-2.77v-1.37a2.67,2.67,0,0,1-2.81,2c-3,0-4.43-2.67-4.43-7.12s1.42-7.15,4.43-7.15a3.16,3.16,0,0,1,3.16,2.13c0-.59,0-1.17,0-1.84h2.28Zm-7.2-6.61c0,3,.83,4.48,2.3,4.48a1.84,1.84,0,0,0,1.69-1c.49-.66.56-1.54.56-3.55s-.07-2.91-.56-3.57a1.87,1.87,0,0,0-1.69-.93c-1.47,0-2.3,1.42-2.3,4.5Z"/><path class="cls-2" d="M387.47,523h2.64v2.62h-2.64Zm0,4.43h2.64v13.68h-2.64Z"/><path class="cls-2" d="M394.37,527.39h2.33c0,.56,0,1.1,0,1.69a3.2,3.2,0,0,1,3.26-2c2.25,0,3.7,1.25,3.7,4.23v9.74H401v-8.88c0-1.1-.22-2.45-1.84-2.45-1.27,0-2.13.78-2.13,2.57v8.76h-2.64Z"/><path class="cls-2" d="M416.71,541.07h-2.42c0-.73,0-1.27,0-1.79a3.09,3.09,0,0,1-3,2.08c-2.57,0-4.43-2.45-4.43-7.12,0-4.48,1.59-7.15,4.43-7.15a3,3,0,0,1,3,2.15c0-.61,0-1.17,0-1.86h2.42Zm-7.2-6.8c0,3,.83,4.48,2.3,4.48a1.84,1.84,0,0,0,1.69-1c.49-.66.56-1.54.56-3.55s-.07-2.91-.56-3.57a1.87,1.87,0,0,0-1.69-.93c-1.47,0-2.3,1.42-2.3,4.5Z"/><path class="cls-2" d="M421,523h2.64v18.11H421Z"/><path class="cls-2" d="M430.12,535.15c0,1.91.66,3.74,2.42,3.74a2.24,2.24,0,0,0,2.2-2.08h2.62a5.56,5.56,0,0,1-1.86,3.6,4.9,4.9,0,0,1-3,1c-3.65,0-5.26-3.33-5.26-7.12,0-4.06,1.79-7.15,5.24-7.15a4.33,4.33,0,0,1,3.87,2.08c1.05,1.71,1.15,3.92,1.1,6Zm4.72-2.28c0-1.57-.56-3.57-2.33-3.57-1.44,0-2.4,1.35-2.4,3.57Z"/><path class="cls-2" d="M454.93,525.6a11,11,0,0,0-4.33,9.11,11.1,11.1,0,0,0,4.33,9.13v2.77a13.29,13.29,0,0,1-6.78-11.89c0-5.63,3.21-10.16,6.78-11.87Z"/><path class="cls-2" d="M457.58,534.22c0-3.92,1.66-7.12,5.29-7.12s5.26,3.21,5.26,7.15-1.66,7.12-5.26,7.12-5.29-3.21-5.29-7.12Zm2.79,0c0,3.35.91,4.63,2.52,4.63s2.45-1.27,2.45-4.65-.91-4.65-2.52-4.65-2.45,1.25-2.45,4.65Z"/><path class="cls-2" d="M471.4,527.39h2.33c0,.56,0,1.1,0,1.69a3.2,3.2,0,0,1,3.26-2c2.25,0,3.7,1.25,3.7,4.23v9.74H478v-8.88c0-1.1-.22-2.45-1.84-2.45-1.27,0-2.13.78-2.13,2.57v8.76H471.4Z"/><path class="cls-2" d="M492,527.39h2.33c0,.56,0,1.1,0,1.69a3.2,3.2,0,0,1,3.25-2c2.25,0,3.7,1.25,3.7,4.23v9.74h-2.64v-8.88c0-1.1-.22-2.45-1.84-2.45-1.27,0-2.13.78-2.13,2.57v8.76H492Z"/><path class="cls-2" d="M507.47,535.15c0,1.91.66,3.74,2.42,3.74a2.24,2.24,0,0,0,2.2-2.08h2.62a5.56,5.56,0,0,1-1.86,3.6,4.9,4.9,0,0,1-3,1c-3.65,0-5.26-3.33-5.26-7.12,0-4.06,1.79-7.15,5.24-7.15a4.33,4.33,0,0,1,3.87,2.08c1.05,1.71,1.15,3.92,1.1,6Zm4.72-2.28c0-1.57-.56-3.57-2.33-3.57-1.44,0-2.4,1.35-2.4,3.57Z"/><path class="cls-2" d="M525.65,527.39h2.42v1.79a3,3,0,0,1,3-2.08c2.57,0,4.43,2.45,4.43,7.15,0,4.45-1.59,7.12-4.43,7.12a2.91,2.91,0,0,1-2.77-1.86v6.17h-2.64Zm7.2,6.83c0-3.06-.81-4.48-2.3-4.48a1.83,1.83,0,0,0-1.62.93c-.49.66-.64,1.54-.64,3.57s.15,2.89.64,3.55a1.81,1.81,0,0,0,1.62,1c1.49,0,2.3-1.44,2.3-4.5Z"/><path class="cls-2" d="M538.08,534.22c0-3.92,1.66-7.12,5.29-7.12s5.26,3.21,5.26,7.15-1.66,7.12-5.26,7.12-5.29-3.21-5.29-7.12Zm2.79,0c0,3.35.91,4.63,2.52,4.63s2.45-1.27,2.45-4.65-.91-4.65-2.52-4.65-2.45,1.25-2.45,4.65Z"/><path class="cls-2" d="M561.13,541.07h-2.42c0-.59,0-1.17,0-1.81a3,3,0,0,1-3.18,2.11c-2.23,0-3.67-1.25-3.67-4.23v-9.74h2.64v8.88c0,1.1.22,2.47,1.84,2.47,1.25,0,2.13-.81,2.13-2.59v-8.76h2.64Z"/><path class="cls-2" d="M565.09,527.39h2.42c0,.83,0,1.52,0,2.2.56-2.08,2-2.5,3.55-2.5v3.21a2,2,0,0,0-1.13-.32c-1.2,0-2.18,1.17-2.18,3.35v7.73h-2.64Z"/><path class="cls-2" d="M573.7,527.39h2.42c0,.83,0,1.52,0,2.2.56-2.08,2-2.5,3.55-2.5v3.21a2,2,0,0,0-1.13-.32c-1.2,0-2.18,1.17-2.18,3.35v7.73H573.7Z"/><path class="cls-2" d="M591.13,541.07H588.7c0-.73,0-1.27,0-1.79a3.09,3.09,0,0,1-3,2.08c-2.57,0-4.43-2.45-4.43-7.12,0-4.48,1.59-7.15,4.43-7.15a3,3,0,0,1,3,2.15c0-.61,0-1.17,0-1.86h2.42Zm-7.2-6.8c0,3,.83,4.48,2.3,4.48a1.84,1.84,0,0,0,1.69-1c.49-.66.56-1.54.56-3.55s-.07-2.91-.56-3.57a1.87,1.87,0,0,0-1.69-.93c-1.47,0-2.3,1.42-2.3,4.5Z"/><path class="cls-2" d="M602.53,527.39H605v1.79a3,3,0,0,1,3-2.08c2.57,0,4.43,2.45,4.43,7.15,0,4.45-1.59,7.12-4.43,7.12a2.91,2.91,0,0,1-2.77-1.86v6.17h-2.64Zm7.2,6.83c0-3.06-.81-4.48-2.3-4.48a1.83,1.83,0,0,0-1.62.93c-.49.66-.64,1.54-.64,3.57s.15,2.89.64,3.55a1.81,1.81,0,0,0,1.62,1c1.49,0,2.3-1.44,2.3-4.5Z"/><path class="cls-2" d="M624.8,541.07h-2.42c0-.73,0-1.27,0-1.79a3.09,3.09,0,0,1-3,2.08c-2.57,0-4.43-2.45-4.43-7.12,0-4.48,1.59-7.15,4.43-7.15a3,3,0,0,1,3,2.15c0-.61,0-1.17,0-1.86h2.42Zm-7.2-6.8c0,3,.83,4.48,2.3,4.48a1.84,1.84,0,0,0,1.69-1c.49-.66.56-1.54.56-3.55s-.07-2.91-.56-3.57a1.87,1.87,0,0,0-1.69-.93c-1.47,0-2.3,1.42-2.3,4.5Z"/><path class="cls-2" d="M634,531.26c0-1.3-.64-1.86-1.74-1.86a1.36,1.36,0,0,0-1.47,1.42c0,1.32,1.44,1.57,3,2.06A4,4,0,0,1,637,537a4.31,4.31,0,0,1-4.55,4.33c-2.57,0-4.5-1.44-4.72-4.53h2.64a2,2,0,0,0,2.13,2.13,1.6,1.6,0,0,0,1.71-1.76c0-1.37-1.42-1.69-3.06-2.23s-3.13-1.44-3.13-4.06c0-2.23,1.59-3.82,4.36-3.82s4.14,1.54,4.28,4.16Z"/><path class="cls-2" d="M647.75,527.39h2.52c0,.61,0,1.2,0,1.84a2.85,2.85,0,0,1,3-2.13,3,3,0,0,1,2.13.73,2.68,2.68,0,0,1,.69,1.15,3,3,0,0,1,1-1.22,4.34,4.34,0,0,1,2.35-.66,3.67,3.67,0,0,1,3.13,1.49,5.5,5.5,0,0,1,.86,3.23v9.25h-2.64v-8.86a3.35,3.35,0,0,0-.32-1.71,1.52,1.52,0,0,0-1.47-.76,1.85,1.85,0,0,0-1.54.59,2.71,2.71,0,0,0-.54,1.81v8.93h-2.64v-8.84a3.5,3.5,0,0,0-.32-1.74,1.49,1.49,0,0,0-1.44-.76,1.93,1.93,0,0,0-1.54.56,2.85,2.85,0,0,0-.54,1.86v8.91h-2.67Z"/><path class="cls-2" d="M668.47,523h2.81l-2.35,5.56h-2.42Z"/><path class="cls-2" d="M673.49,534.22c0-3.92,1.66-7.12,5.29-7.12s5.26,3.21,5.26,7.15-1.66,7.12-5.26,7.12-5.29-3.21-5.29-7.12Zm2.79,0c0,3.35.91,4.63,2.52,4.63s2.45-1.27,2.45-4.65-.91-4.65-2.52-4.65-2.45,1.25-2.45,4.65Z"/><path class="cls-2" d="M696.54,541.07h-2.42c0-.59,0-1.17,0-1.81a3,3,0,0,1-3.18,2.11c-2.23,0-3.67-1.25-3.67-4.23v-9.74h2.64v8.88c0,1.1.22,2.47,1.84,2.47,1.25,0,2.13-.81,2.13-2.59v-8.76h2.64Z"/><path class="cls-2" d="M700.5,523h2.64v6.22a2.75,2.75,0,0,1,2.77-2.08c2.84,0,4.43,2.67,4.43,7.12,0,4.7-1.86,7.15-4.43,7.15a3,3,0,0,1-3-2.13v1.84H700.5Zm7.2,11.26c0-2.77-.69-4.48-2.28-4.48-2,0-2.28,2.18-2.28,4.5s.32,4.5,2.28,4.5c1.59,0,2.28-1.74,2.28-4.5Z"/><path class="cls-2" d="M713.91,523h2.64v18.11h-2.64Z"/><path class="cls-2" d="M721.1,523h2.64v2.62H721.1Zm0,4.43h2.64v13.68H721.1Z"/><path class="cls-2" d="M730.25,535.15c0,1.91.66,3.74,2.42,3.74a2.24,2.24,0,0,0,2.2-2.08h2.62a5.56,5.56,0,0,1-1.86,3.6,4.9,4.9,0,0,1-3,1c-3.65,0-5.26-3.33-5.26-7.12,0-4.06,1.79-7.15,5.24-7.15a4.33,4.33,0,0,1,3.87,2.08c1.05,1.71,1.15,3.92,1.1,6Zm4.72-2.28c0-1.57-.56-3.57-2.32-3.57-1.44,0-2.4,1.35-2.4,3.57Z"/><path class="cls-2" d="M741,527.39h2.42c0,.83,0,1.52,0,2.2.56-2.08,2-2.5,3.55-2.5v3.21a2,2,0,0,0-1.13-.32c-1.2,0-2.18,1.17-2.18,3.35v7.73H741Z"/><path class="cls-2" d="M749,543.84a11.76,11.76,0,0,0,0-18.23v-2.77a13.28,13.28,0,0,1,6.8,11.9c0,5.63-3.23,10.16-6.8,11.87Z"/><path class="cls-2" d="M762.7,541.07h-2.64v-3.23h2.64Z"/><path class="cls-2" d="M1059.51,803.91a6.16,6.16,0,0,1,4.36,1.42,6.24,6.24,0,0,1,0,8.59,6.19,6.19,0,0,1-4.36,1.42H1058V822h-3V803.91Zm-1.49,8.66h1.47a2.9,2.9,0,0,0,2.28-.69,3.84,3.84,0,0,0,0-4.55,3,3,0,0,0-2.25-.66H1058Z"/><path class="cls-2" d="M1067.31,815.16c0-3.92,1.66-7.12,5.29-7.12s5.26,3.21,5.26,7.15-1.66,7.12-5.26,7.12-5.29-3.21-5.29-7.12Zm2.79,0c0,3.35.91,4.63,2.52,4.63s2.45-1.27,2.45-4.65-.91-4.65-2.52-4.65-2.45,1.25-2.45,4.65Z"/><path class="cls-2" d="M1090.36,822h-2.42c0-.59,0-1.17,0-1.81a3,3,0,0,1-3.18,2.11c-2.23,0-3.67-1.25-3.67-4.23v-9.74h2.64v8.88c0,1.1.22,2.47,1.84,2.47,1.25,0,2.13-.81,2.13-2.59v-8.76h2.64Z"/><path class="cls-2" d="M1094.33,808.34h2.42c0,.83,0,1.52,0,2.2.56-2.08,2-2.5,3.55-2.5v3.21a2,2,0,0,0-1.13-.32c-1.2,0-2.18,1.17-2.18,3.35V822h-2.64Z"/><path class="cls-2" d="M1110.12,808.34h2.42v1.79a3,3,0,0,1,3-2.08c2.57,0,4.43,2.45,4.43,7.15,0,4.45-1.59,7.12-4.43,7.12a2.91,2.91,0,0,1-2.77-1.86v6.17h-2.64Zm7.2,6.83c0-3.06-.81-4.48-2.3-4.48a1.83,1.83,0,0,0-1.62.93c-.49.66-.64,1.54-.64,3.57s.15,2.89.64,3.55a1.81,1.81,0,0,0,1.62,1c1.49,0,2.3-1.44,2.3-4.5Z"/><path class="cls-2" d="M1123.24,808.34h2.42c0,.83,0,1.52,0,2.2.56-2.08,2-2.5,3.55-2.5v3.21a2,2,0,0,0-1.13-.32c-1.2,0-2.18,1.17-2.18,3.35V822h-2.64Z"/><path class="cls-2" d="M1130.82,815.16c0-3.92,1.66-7.12,5.29-7.12s5.26,3.21,5.26,7.15-1.66,7.12-5.26,7.12-5.29-3.21-5.29-7.12Zm2.79,0c0,3.35.91,4.63,2.52,4.63s2.45-1.27,2.45-4.65-.91-4.65-2.52-4.65-2.45,1.25-2.45,4.65Z"/><path class="cls-2" d="M1147.76,810.83V822h-2.64V810.83h-1.35v-2.5h1.35v-.73c0-3.79,3.21-4,4.65-4v2.3c-.93,0-2,.24-2,2v.46h6.07V822h-2.67V810.83Zm3.4-4.31v-2.62h2.67v2.62Z"/><path class="cls-2" d="M1158.5,810.83h-1.64v-2.5h1.64v-3.25h2.64v3.25h1.62v2.5h-1.62V822h-2.64Z"/><path class="cls-2" d="M1167.53,816.1c0,1.91.66,3.74,2.42,3.74a2.24,2.24,0,0,0,2.2-2.08h2.62a5.57,5.57,0,0,1-1.86,3.6,4.9,4.9,0,0,1-3,1c-3.65,0-5.26-3.33-5.26-7.12,0-4.06,1.79-7.15,5.24-7.15a4.33,4.33,0,0,1,3.87,2.08c1.05,1.71,1.15,3.92,1.1,6Zm4.72-2.28c0-1.57-.56-3.57-2.33-3.57-1.44,0-2.4,1.35-2.4,3.57Z"/><path class="cls-2" d="M1178.27,808.34h2.42c0,.83,0,1.52,0,2.2.56-2.08,2-2.5,3.55-2.5v3.21a2,2,0,0,0-1.13-.32c-1.2,0-2.18,1.17-2.18,3.35V822h-2.64Z"/><path class="cls-2" d="M1203.22,822h-2.42c0-.81,0-1.4,0-2a3,3,0,0,1-3,2.28c-2.57,0-4.43-2.45-4.43-7.12,0-4.48,1.59-7.15,4.43-7.15a2.81,2.81,0,0,1,2.79,2c0-.54,0-1.08,0-1.69v-4.43h2.64Zm-7.2-6.83c0,3.06.83,4.48,2.3,4.48a1.87,1.87,0,0,0,1.69-.93c.49-.69.56-1.54.56-3.57s-.07-2.89-.56-3.55a1.84,1.84,0,0,0-1.69-1c-1.47,0-2.3,1.44-2.3,4.5Z"/><path class="cls-2" d="M1209.43,816.1c0,1.91.66,3.74,2.42,3.74a2.24,2.24,0,0,0,2.2-2.08h2.62a5.57,5.57,0,0,1-1.86,3.6,4.9,4.9,0,0,1-3,1c-3.65,0-5.26-3.33-5.26-7.12,0-4.06,1.79-7.15,5.24-7.15a4.33,4.33,0,0,1,3.87,2.08c1.05,1.71,1.15,3.92,1.1,6Zm4.72-2.28c0-1.57-.56-3.57-2.33-3.57-1.44,0-2.4,1.35-2.4,3.57Z"/><path class="cls-2" d="M1227.65,803.91h2.64V822h-2.64Z"/><path class="cls-2" d="M1243.71,822h-2.42c0-.73,0-1.27,0-1.79a3.09,3.09,0,0,1-3,2.08c-2.57,0-4.43-2.45-4.43-7.12,0-4.48,1.59-7.15,4.43-7.15a3,3,0,0,1,3,2.15c0-.61,0-1.17,0-1.86h2.42Zm-7.2-6.8c0,3,.83,4.48,2.3,4.48a1.84,1.84,0,0,0,1.69-1c.49-.66.56-1.54.56-3.55s-.07-2.91-.56-3.57a1.87,1.87,0,0,0-1.69-.93c-1.47,0-2.3,1.42-2.3,4.5Z"/><path class="cls-2" d="M1260.14,812.2c0-1.3-.64-1.86-1.74-1.86a1.36,1.36,0,0,0-1.47,1.42c0,1.32,1.44,1.57,3,2.06a4,4,0,0,1,3.16,4.16,4.31,4.31,0,0,1-4.55,4.33c-2.57,0-4.5-1.44-4.72-4.53h2.64a2,2,0,0,0,2.13,2.13,1.6,1.6,0,0,0,1.71-1.76c0-1.37-1.42-1.69-3.06-2.23s-3.13-1.44-3.13-4.06c0-2.23,1.59-3.82,4.36-3.82s4.14,1.54,4.28,4.16Z"/><path class="cls-2" d="M1265.62,815.16c0-3.92,1.66-7.12,5.29-7.12s5.26,3.21,5.26,7.15-1.66,7.12-5.26,7.12-5.29-3.21-5.29-7.12Zm2.79,0c0,3.35.91,4.63,2.52,4.63s2.45-1.27,2.45-4.65-.91-4.65-2.52-4.65-2.45,1.25-2.45,4.65Z"/><path class="cls-2" d="M1279.74,803.91h2.64v2.62h-2.64Zm0,4.43h2.64V822h-2.64Z"/><path class="cls-2" d="M1286.64,808.34h2.42c0,.83,0,1.52,0,2.2.56-2.08,2-2.5,3.55-2.5v3.21a2,2,0,0,0-1.13-.32c-1.2,0-2.18,1.17-2.18,3.35V822h-2.64Z"/><path class="cls-2" d="M1297.16,816.1c0,1.91.66,3.74,2.42,3.74a2.24,2.24,0,0,0,2.2-2.08h2.62a5.57,5.57,0,0,1-1.86,3.6,4.9,4.9,0,0,1-3,1c-3.65,0-5.26-3.33-5.26-7.12,0-4.06,1.79-7.15,5.24-7.15a4.33,4.33,0,0,1,3.87,2.08c1.05,1.71,1.15,3.92,1.1,6Zm5.31-13.51,1,2.13-5.6,2.67-.93-1.74Zm-.59,11.23c0-1.57-.56-3.57-2.33-3.57-1.44,0-2.4,1.35-2.4,3.57Z"/><path class="cls-2" d="M1310.15,816.1c0,1.91.66,3.74,2.42,3.74a2.24,2.24,0,0,0,2.2-2.08h2.62a5.57,5.57,0,0,1-1.86,3.6,4.9,4.9,0,0,1-3,1c-3.65,0-5.26-3.33-5.26-7.12,0-4.06,1.79-7.15,5.24-7.15a4.33,4.33,0,0,1,3.87,2.08c1.05,1.71,1.15,3.92,1.1,6Zm4.72-2.28c0-1.57-.56-3.57-2.33-3.57-1.44,0-2.4,1.35-2.4,3.57Z"/><path class="cls-2" d="M1321.87,824.34h-2.15l1.71-5.56H1324Z"/><path class="cls-2" d="M1345.39,812.2c0-1.3-.64-1.86-1.74-1.86a1.36,1.36,0,0,0-1.47,1.42c0,1.32,1.44,1.57,3,2.06a4,4,0,0,1,3.16,4.16,4.31,4.31,0,0,1-4.55,4.33c-2.57,0-4.5-1.44-4.72-4.53h2.64a2,2,0,0,0,2.13,2.13,1.6,1.6,0,0,0,1.71-1.76c0-1.37-1.42-1.69-3.06-2.23s-3.13-1.44-3.13-4.06c0-2.23,1.59-3.82,4.36-3.82s4.14,1.54,4.28,4.16Z"/><path class="cls-2" d="M1350.87,815.16c0-3.92,1.66-7.12,5.29-7.12s5.26,3.21,5.26,7.15-1.66,7.12-5.26,7.12-5.29-3.21-5.29-7.12Zm2.79,0c0,3.35.91,4.63,2.52,4.63s2.45-1.27,2.45-4.65-.91-4.65-2.52-4.65-2.45,1.25-2.45,4.65Z"/><path class="cls-2" d="M1364.7,808.34h2.42c0,.83,0,1.52,0,2.2.56-2.08,2-2.5,3.55-2.5v3.21a2,2,0,0,0-1.13-.32c-1.2,0-2.18,1.17-2.18,3.35V822h-2.64Z"/><path class="cls-2" d="M1373.9,810.83h-1.64v-2.5h1.64v-3.25h2.64v3.25h1.62v2.5h-1.62V822h-2.64Z"/><path class="cls-2" d="M1381.24,803.91h2.64v2.62h-2.64Zm0,4.43h2.64V822h-2.64Z"/><path class="cls-2" d="M1388.14,808.34h2.42c0,.83,0,1.52,0,2.2.56-2.08,2-2.5,3.55-2.5v3.21a2,2,0,0,0-1.13-.32c-1.2,0-2.18,1.17-2.18,3.35V822h-2.64Z"/><path class="cls-2" d="M1406.19,816.1c0,1.91.66,3.74,2.42,3.74a2.24,2.24,0,0,0,2.2-2.08h2.62a5.57,5.57,0,0,1-1.86,3.6,4.9,4.9,0,0,1-3,1c-3.65,0-5.26-3.33-5.26-7.12,0-4.06,1.79-7.15,5.24-7.15a4.33,4.33,0,0,1,3.87,2.08c1.05,1.71,1.15,3.92,1.1,6Zm4.72-2.28c0-1.57-.56-3.57-2.33-3.57-1.44,0-2.4,1.35-2.4,3.57Z"/><path class="cls-2" d="M1417.39,810.83h-1.64v-2.5h1.64v-3.25H1420v3.25h1.62v2.5H1420V822h-2.64Z"/><path class="cls-2" d="M1431.62,808.34H1434c0,.56,0,1.1,0,1.69a3.2,3.2,0,0,1,3.26-2c2.25,0,3.7,1.25,3.7,4.23V822h-2.64v-8.88c0-1.1-.22-2.45-1.84-2.45-1.27,0-2.13.78-2.13,2.57V822h-2.64Z"/><path class="cls-2" d="M1447.07,816.1c0,1.91.66,3.74,2.42,3.74a2.24,2.24,0,0,0,2.2-2.08h2.62a5.57,5.57,0,0,1-1.86,3.6,4.9,4.9,0,0,1-3,1c-3.65,0-5.26-3.33-5.26-7.12,0-4.06,1.79-7.15,5.24-7.15a4.33,4.33,0,0,1,3.87,2.08c1.05,1.71,1.15,3.92,1.1,6Zm4.72-2.28c0-1.57-.56-3.57-2.33-3.57-1.44,0-2.4,1.35-2.4,3.57Z"/><path class="cls-2" d="M1465,808.34h2.42v1.79a3,3,0,0,1,3-2.08c2.57,0,4.43,2.45,4.43,7.15,0,4.45-1.59,7.12-4.43,7.12a2.91,2.91,0,0,1-2.77-1.86v6.17H1465Zm7.2,6.83c0-3.06-.81-4.48-2.3-4.48a1.83,1.83,0,0,0-1.62.93c-.49.66-.64,1.54-.64,3.57s.15,2.89.64,3.55a1.81,1.81,0,0,0,1.62,1c1.49,0,2.3-1.44,2.3-4.5Z"/><path class="cls-2" d="M1478.4,803.91H1481V822h-2.64Z"/><path class="cls-2" d="M1494.53,822h-2.42c0-.59,0-1.17,0-1.81a3,3,0,0,1-3.18,2.11c-2.23,0-3.67-1.25-3.67-4.23v-9.74h2.64v8.88c0,1.1.22,2.47,1.84,2.47,1.25,0,2.13-.81,2.13-2.59v-8.76h2.64Z"/><path class="cls-2" d="M1503.77,812.2c0-1.3-.64-1.86-1.74-1.86a1.36,1.36,0,0,0-1.47,1.42c0,1.32,1.44,1.57,3,2.06a4,4,0,0,1,3.16,4.16,4.31,4.31,0,0,1-4.55,4.33c-2.57,0-4.5-1.44-4.72-4.53h2.64a2,2,0,0,0,2.13,2.13,1.6,1.6,0,0,0,1.71-1.76c0-1.37-1.42-1.69-3.06-2.23s-3.13-1.44-3.13-4.06c0-2.23,1.59-3.82,4.36-3.82s4.14,1.54,4.28,4.16Z"/><path class="cls-2" d="M1517.12,808.34h2.42v1.79a3,3,0,0,1,3-2.08c2.57,0,4.43,2.45,4.43,7.15,0,4.45-1.59,7.12-4.43,7.12a2.91,2.91,0,0,1-2.77-1.86v6.17h-2.64Zm7.2,6.83c0-3.06-.81-4.48-2.3-4.48a1.83,1.83,0,0,0-1.62.93c-.49.66-.64,1.54-.64,3.57s.15,2.89.64,3.55a1.81,1.81,0,0,0,1.62,1c1.49,0,2.3-1.44,2.3-4.5Z"/><path class="cls-2" d="M1532.49,816.1c0,1.91.66,3.74,2.42,3.74a2.24,2.24,0,0,0,2.2-2.08h2.62a5.57,5.57,0,0,1-1.86,3.6,4.9,4.9,0,0,1-3,1c-3.65,0-5.26-3.33-5.26-7.12,0-4.06,1.79-7.15,5.24-7.15a4.33,4.33,0,0,1,3.87,2.08c1.05,1.71,1.15,3.92,1.1,6Zm4.72-2.28c0-1.57-.56-3.57-2.33-3.57-1.44,0-2.4,1.35-2.4,3.57Z"/><path class="cls-2" d="M1543.23,808.34h2.32c0,.56,0,1.1,0,1.69a3.2,3.2,0,0,1,3.26-2c2.25,0,3.7,1.25,3.7,4.23V822h-2.64v-8.88c0-1.1-.22-2.45-1.84-2.45-1.27,0-2.13.78-2.13,2.57V822h-2.64Z"/><path class="cls-2" d="M1561.71,812.2c0-1.3-.64-1.86-1.74-1.86a1.36,1.36,0,0,0-1.47,1.42c0,1.32,1.44,1.57,3,2.06a4,4,0,0,1,3.16,4.16,4.31,4.31,0,0,1-4.55,4.33c-2.57,0-4.5-1.44-4.72-4.53h2.64a2,2,0,0,0,2.13,2.13,1.6,1.6,0,0,0,1.71-1.76c0-1.37-1.42-1.69-3.06-2.23s-3.13-1.44-3.13-4.06c0-2.23,1.59-3.82,4.36-3.82s4.14,1.54,4.28,4.16Z"/><path class="cls-2" d="M1570.12,816.1c0,1.91.66,3.74,2.42,3.74a2.24,2.24,0,0,0,2.2-2.08h2.62a5.57,5.57,0,0,1-1.86,3.6,4.9,4.9,0,0,1-3,1c-3.65,0-5.26-3.33-5.26-7.12,0-4.06,1.79-7.15,5.24-7.15a4.33,4.33,0,0,1,3.87,2.08c1.05,1.71,1.15,3.92,1.1,6Zm4.72-2.28c0-1.57-.56-3.57-2.33-3.57-1.44,0-2.4,1.35-2.4,3.57Z"/><path class="cls-2" d="M1580.87,808.34h2.42c0,.83,0,1.52,0,2.2.56-2.08,2-2.5,3.55-2.5v3.21a2,2,0,0,0-1.13-.32c-1.2,0-2.18,1.17-2.18,3.35V822h-2.64Z"/><path class="cls-2" d="M1064,851.38h-2.42c0-.73,0-1.27,0-1.79a3.09,3.09,0,0,1-3,2.08c-2.57,0-4.43-2.45-4.43-7.12,0-4.48,1.59-7.15,4.43-7.15a3,3,0,0,1,3,2.15c0-.61,0-1.17,0-1.86H1064ZM1061.78,835l-.91,1.74-5.6-2.67,1-2.13Zm-5,9.57c0,3,.83,4.48,2.3,4.48a1.84,1.84,0,0,0,1.69-1c.49-.66.56-1.54.56-3.55s-.07-2.91-.56-3.57a1.87,1.87,0,0,0-1.69-.93c-1.47,0-2.3,1.42-2.3,4.5Z"/><path class="cls-2" d="M1075.66,833.27h2.64v18.11h-2.64Z"/><path class="cls-2" d="M1083.58,833.27h2.81l-2.35,5.56h-2.42Z"/><path class="cls-2" d="M1091.54,845.46c0,1.91.66,3.74,2.42,3.74a2.24,2.24,0,0,0,2.2-2.08h2.62a5.57,5.57,0,0,1-1.86,3.6,4.9,4.9,0,0,1-3,1c-3.65,0-5.26-3.33-5.26-7.12,0-4.06,1.79-7.15,5.24-7.15a4.33,4.33,0,0,1,3.87,2.08c1.05,1.71,1.15,3.92,1.1,6Zm4.72-2.28c0-1.57-.56-3.57-2.33-3.57-1.44,0-2.4,1.35-2.4,3.57Z"/><path class="cls-2" d="M1102.28,837.7h2.33c0,.56,0,1.1,0,1.69a3.2,3.2,0,0,1,3.26-2c2.25,0,3.7,1.25,3.7,4.23v9.74h-2.64V842.5c0-1.1-.22-2.45-1.84-2.45-1.27,0-2.13.78-2.13,2.57v8.76h-2.64Z"/><path class="cls-2" d="M1115.93,840.2h-1.64v-2.5h1.64v-3.25h2.64v3.25h1.62v2.5h-1.62v11.19h-2.64Z"/><path class="cls-2" d="M1123,837.7h2.42c0,.83,0,1.52,0,2.2.56-2.08,2-2.5,3.55-2.5v3.21a2,2,0,0,0-1.13-.32c-1.2,0-2.18,1.17-2.18,3.35v7.73H1123Z"/><path class="cls-2" d="M1133.5,845.46c0,1.91.66,3.74,2.42,3.74a2.24,2.24,0,0,0,2.2-2.08h2.62a5.57,5.57,0,0,1-1.86,3.6,4.9,4.9,0,0,1-3,1c-3.65,0-5.26-3.33-5.26-7.12,0-4.06,1.79-7.15,5.24-7.15a4.33,4.33,0,0,1,3.87,2.08c1.05,1.71,1.15,3.92,1.1,6Zm4.72-2.28c0-1.57-.56-3.57-2.33-3.57-1.44,0-2.4,1.35-2.4,3.57Z"/><path class="cls-2" d="M1144.71,840.2h-1.64v-2.5h1.64v-3.25h2.64v3.25H1149v2.5h-1.62v11.19h-2.64Z"/><path class="cls-2" d="M1152,833.27h2.64v2.62H1152Zm0,4.43h2.64v13.68H1152Z"/><path class="cls-2" d="M1161.2,845.46c0,1.91.66,3.74,2.42,3.74a2.24,2.24,0,0,0,2.2-2.08h2.62a5.57,5.57,0,0,1-1.86,3.6,4.9,4.9,0,0,1-3,1c-3.65,0-5.26-3.33-5.26-7.12,0-4.06,1.79-7.15,5.24-7.15a4.33,4.33,0,0,1,3.87,2.08c1.05,1.71,1.15,3.92,1.1,6Zm4.72-2.28c0-1.57-.56-3.57-2.33-3.57-1.44,0-2.4,1.35-2.4,3.57Z"/><path class="cls-2" d="M1171.94,837.7h2.33c0,.56,0,1.1,0,1.69a3.2,3.2,0,0,1,3.26-2c2.25,0,3.7,1.25,3.7,4.23v9.74h-2.64V842.5c0-1.1-.22-2.45-1.84-2.45-1.27,0-2.13.78-2.13,2.57v8.76h-2.64Z"/><path class="cls-2" d="M1188.26,851.38h-2.64v-3.23h2.64Z"/><path class="cls-2" d="M667.5,726.64h3V742h5.16v2.77H667.5Z"/><path class="cls-2" d="M680.93,738.82c0,1.91.66,3.74,2.42,3.74a2.24,2.24,0,0,0,2.2-2.08h2.62a5.56,5.56,0,0,1-1.86,3.6,4.9,4.9,0,0,1-3,1c-3.65,0-5.26-3.33-5.26-7.12,0-4.06,1.79-7.15,5.24-7.15a4.33,4.33,0,0,1,3.87,2.08c1.05,1.71,1.15,3.92,1.1,6Zm4.72-2.28c0-1.57-.56-3.57-2.32-3.57-1.44,0-2.4,1.35-2.4,3.57Z"/><path class="cls-2" d="M708,739.75c-.1,2.79-1.54,5.29-4.43,5.29-3.4,0-5.29-2.86-5.29-7.12,0-4.53,2.06-7.15,5.26-7.15,2.91,0,4.38,2.47,4.43,5.34h-2.74c-.1-2.06-.86-2.84-1.88-2.84a1.71,1.71,0,0,0-1.66,1.08,7.81,7.81,0,0,0-.61,3.57c0,3.28.83,4.65,2.3,4.65,1.22,0,1.79-1.2,1.88-2.81Z"/><path class="cls-2" d="M720.11,744.75h-2.42c0-.73,0-1.27,0-1.79a3.09,3.09,0,0,1-3,2.08c-2.57,0-4.43-2.45-4.43-7.12,0-4.48,1.59-7.15,4.43-7.15a3,3,0,0,1,3,2.15c0-.61,0-1.17,0-1.86h2.42Zm-7.2-6.8c0,3,.83,4.48,2.3,4.48a1.84,1.84,0,0,0,1.69-1c.49-.66.56-1.54.56-3.55s-.07-2.91-.56-3.57a1.87,1.87,0,0,0-1.69-.93c-1.47,0-2.3,1.42-2.3,4.5Z"/><path class="cls-2" d="M724.07,731.07h2.42c0,.83,0,1.52,0,2.2.56-2.08,2-2.5,3.55-2.5V734a2,2,0,0,0-1.13-.32c-1.2,0-2.18,1.17-2.18,3.35v7.73h-2.64Z"/><path class="cls-2" d="M732.68,731.07H735c0,.56,0,1.1,0,1.69a3.2,3.2,0,0,1,3.25-2c2.25,0,3.7,1.25,3.7,4.23v9.74h-2.64v-8.88c0-1.1-.22-2.45-1.84-2.45-1.27,0-2.13.78-2.13,2.57v8.76h-2.64Z"/><path class="cls-2" d="M748.12,738.82c0,1.91.66,3.74,2.42,3.74a2.24,2.24,0,0,0,2.2-2.08h2.62a5.56,5.56,0,0,1-1.86,3.6,4.9,4.9,0,0,1-3,1c-3.65,0-5.26-3.33-5.26-7.12,0-4.06,1.79-7.15,5.24-7.15a4.33,4.33,0,0,1,3.87,2.08c1.05,1.71,1.15,3.92,1.1,6Zm4.72-2.28c0-1.57-.56-3.57-2.33-3.57-1.44,0-2.4,1.35-2.4,3.57Z"/><path class="cls-2" d="M759.33,733.56h-1.64v-2.5h1.64v-3.25H762v3.25h1.62v2.5H762v11.19h-2.64Z"/><path class="cls-2" d="M783,744.75h-2.42c0-.81,0-1.4,0-2a3,3,0,0,1-3,2.28c-2.57,0-4.43-2.45-4.43-7.12,0-4.48,1.59-7.15,4.43-7.15a2.81,2.81,0,0,1,2.79,2c0-.54,0-1.08,0-1.69v-4.43H783Zm-7.2-6.83c0,3.06.83,4.48,2.3,4.48a1.87,1.87,0,0,0,1.69-.93c.49-.69.56-1.54.56-3.57s-.07-2.89-.56-3.55a1.84,1.84,0,0,0-1.69-1c-1.47,0-2.3,1.44-2.3,4.5Z"/><path class="cls-2" d="M789.18,738.82c0,1.91.66,3.74,2.42,3.74a2.24,2.24,0,0,0,2.2-2.08h2.62a5.56,5.56,0,0,1-1.86,3.6,4.9,4.9,0,0,1-3,1c-3.65,0-5.26-3.33-5.26-7.12,0-4.06,1.79-7.15,5.24-7.15a4.33,4.33,0,0,1,3.87,2.08c1.05,1.71,1.15,3.92,1.1,6Zm4.72-2.28c0-1.57-.56-3.57-2.32-3.57-1.44,0-2.4,1.35-2.4,3.57Z"/><path class="cls-2" d="M812.65,734.93c0-1.3-.64-1.86-1.74-1.86a1.36,1.36,0,0,0-1.47,1.42c0,1.32,1.44,1.57,3,2.06a4,4,0,0,1,3.16,4.16,4.31,4.31,0,0,1-4.55,4.33c-2.57,0-4.5-1.44-4.72-4.53H809a2,2,0,0,0,2.13,2.13,1.6,1.6,0,0,0,1.71-1.76c0-1.37-1.42-1.69-3.06-2.23s-3.13-1.44-3.13-4.06c0-2.23,1.59-3.82,4.36-3.82s4.14,1.54,4.28,4.16Z"/><path class="cls-2" d="M828,744.75h-2.42c0-.73,0-1.27,0-1.79a3.09,3.09,0,0,1-3,2.08c-2.57,0-4.43-2.45-4.43-7.12,0-4.48,1.59-7.15,4.43-7.15a3,3,0,0,1,3,2.15c0-.61,0-1.17,0-1.86H828Zm-7.2-6.8c0,3,.83,4.48,2.3,4.48a1.84,1.84,0,0,0,1.69-1c.49-.66.56-1.54.56-3.55s-.07-2.91-.56-3.57a1.87,1.87,0,0,0-1.69-.93c-1.47,0-2.3,1.42-2.3,4.5Z"/><path class="cls-2" d="M831.93,731.07h2.33c0,.56,0,1.1,0,1.69a3.2,3.2,0,0,1,3.26-2c2.25,0,3.7,1.25,3.7,4.23v9.74h-2.64v-8.88c0-1.1-.22-2.45-1.84-2.45-1.27,0-2.13.78-2.13,2.57v8.76h-2.64Z"/><path class="cls-2" d="M845.58,733.56h-1.64v-2.5h1.64v-3.25h2.64v3.25h1.62v2.5h-1.62v11.19h-2.64Z"/><path class="cls-2" d="M854.61,738.82c0,1.91.66,3.74,2.42,3.74a2.24,2.24,0,0,0,2.2-2.08h2.62a5.56,5.56,0,0,1-1.86,3.6,4.9,4.9,0,0,1-3,1c-3.65,0-5.26-3.33-5.26-7.12,0-4.06,1.79-7.15,5.24-7.15a4.33,4.33,0,0,1,3.87,2.08c1.05,1.71,1.15,3.92,1.1,6Zm5.31-13.51,1,2.13-5.6,2.67-.93-1.74Zm-.59,11.23c0-1.57-.56-3.57-2.32-3.57-1.44,0-2.4,1.35-2.4,3.57Z"/><path class="cls-2" d="M868.19,744.75h-2.64v-3.23h2.64Z"/><path class="cls-2" d="M1395.5,357.32h3v15.35h5.16v2.77h-8.15Z"/><path class="cls-2" d="M1408.93,369.51c0,1.91.66,3.74,2.42,3.74a2.24,2.24,0,0,0,2.2-2.08h2.62a5.57,5.57,0,0,1-1.86,3.6,4.9,4.9,0,0,1-3,1c-3.65,0-5.26-3.33-5.26-7.12,0-4.06,1.79-7.15,5.24-7.15a4.33,4.33,0,0,1,3.87,2.08c1.05,1.71,1.15,3.92,1.1,6Zm4.72-2.28c0-1.57-.56-3.57-2.33-3.57-1.44,0-2.4,1.35-2.4,3.57Z"/><path class="cls-2" d="M1429.48,361.75h2.42c0,.83,0,1.52,0,2.2.56-2.08,2-2.5,3.55-2.5v3.21a2,2,0,0,0-1.13-.32c-1.2,0-2.18,1.17-2.18,3.35v7.73h-2.64Z"/><path class="cls-2" d="M1440,369.51c0,1.91.66,3.74,2.42,3.74a2.24,2.24,0,0,0,2.2-2.08h2.62a5.57,5.57,0,0,1-1.86,3.6,4.9,4.9,0,0,1-3,1c-3.65,0-5.26-3.33-5.26-7.12,0-4.06,1.79-7.15,5.24-7.15a4.33,4.33,0,0,1,3.87,2.08c1.05,1.71,1.15,3.92,1.1,6Zm4.72-2.28c0-1.57-.56-3.57-2.33-3.57-1.44,0-2.4,1.35-2.4,3.57Z"/><path class="cls-2" d="M1456,365.61c0-1.3-.64-1.86-1.74-1.86a1.36,1.36,0,0,0-1.47,1.42c0,1.32,1.44,1.57,3,2.06a4,4,0,0,1,3.16,4.16,4.31,4.31,0,0,1-4.55,4.33c-2.57,0-4.5-1.44-4.72-4.53h2.64a2,2,0,0,0,2.13,2.13,1.6,1.6,0,0,0,1.71-1.76c0-1.37-1.42-1.69-3.06-2.23s-3.13-1.44-3.13-4.06c0-2.23,1.59-3.82,4.36-3.82s4.14,1.54,4.28,4.16Z"/><path class="cls-2" d="M1462.66,364.24H1461v-2.5h1.64v-3.25h2.64v3.25h1.62v2.5h-1.62v11.19h-2.64Z"/><path class="cls-2" d="M1478.59,375.43h-2.42c0-.73,0-1.27,0-1.79a3.09,3.09,0,0,1-3,2.08c-2.57,0-4.43-2.45-4.43-7.12,0-4.48,1.59-7.15,4.43-7.15a3,3,0,0,1,3,2.15c0-.61,0-1.17,0-1.86h2.42Zm-7.2-6.8c0,3,.83,4.48,2.3,4.48a1.84,1.84,0,0,0,1.69-1c.49-.66.56-1.54.56-3.55s-.07-2.91-.56-3.57a1.87,1.87,0,0,0-1.69-.93c-1.47,0-2.3,1.42-2.3,4.5Z"/><path class="cls-2" d="M1491.78,375.43h-2.42c0-.59,0-1.17,0-1.81a3,3,0,0,1-3.18,2.11c-2.23,0-3.67-1.25-3.67-4.23v-9.74h2.64v8.88c0,1.1.22,2.47,1.84,2.47,1.25,0,2.13-.81,2.13-2.59v-8.76h2.64Z"/><path class="cls-2" d="M1495.74,361.75h2.42c0,.83,0,1.52,0,2.2.56-2.08,2-2.5,3.55-2.5v3.21a2,2,0,0,0-1.13-.32c-1.2,0-2.18,1.17-2.18,3.35v7.73h-2.64Z"/><path class="cls-2" d="M1513.17,375.43h-2.42c0-.73,0-1.27,0-1.79a3.09,3.09,0,0,1-3,2.08c-2.57,0-4.43-2.45-4.43-7.12,0-4.48,1.59-7.15,4.43-7.15a3,3,0,0,1,3,2.15c0-.61,0-1.17,0-1.86h2.42Zm-7.2-6.8c0,3,.83,4.48,2.3,4.48a1.84,1.84,0,0,0,1.69-1c.49-.66.56-1.54.56-3.55s-.07-2.91-.56-3.57a1.87,1.87,0,0,0-1.69-.93c-1.47,0-2.3,1.42-2.3,4.5Z"/><path class="cls-2" d="M1517.13,361.75h2.33c0,.56,0,1.1,0,1.69a3.2,3.2,0,0,1,3.26-2c2.25,0,3.7,1.25,3.7,4.23v9.74h-2.64v-8.88c0-1.1-.22-2.45-1.84-2.45-1.27,0-2.13.78-2.13,2.57v8.76h-2.64Z"/><path class="cls-2" d="M1530.78,364.24h-1.64v-2.5h1.64v-3.25h2.64v3.25H1535v2.5h-1.62v11.19h-2.64Z"/><path class="cls-2" d="M1547.93,357.32h2.64v18.11h-2.64Z"/><path class="cls-2" d="M1557.08,369.51c0,1.91.66,3.74,2.42,3.74a2.24,2.24,0,0,0,2.2-2.08h2.62a5.57,5.57,0,0,1-1.86,3.6,4.9,4.9,0,0,1-3,1c-3.65,0-5.26-3.33-5.26-7.12,0-4.06,1.79-7.15,5.24-7.15a4.33,4.33,0,0,1,3.87,2.08c1.05,1.71,1.15,3.92,1.1,6Zm4.72-2.28c0-1.57-.56-3.57-2.33-3.57-1.44,0-2.4,1.35-2.4,3.57Z"/><path class="cls-2" d="M1577.63,361.75h2.42v1.79a3,3,0,0,1,3-2.08c2.57,0,4.43,2.45,4.43,7.15,0,4.45-1.59,7.12-4.43,7.12a2.91,2.91,0,0,1-2.77-1.86V380h-2.64Zm7.2,6.83c0-3.06-.81-4.48-2.3-4.48a1.83,1.83,0,0,0-1.62.93c-.49.66-.64,1.54-.64,3.57s.15,2.89.64,3.55a1.81,1.81,0,0,0,1.62,1c1.49,0,2.3-1.44,2.3-4.5Z"/><path class="cls-2" d="M1591,357.32h2.64v18.11H1591Z"/><path class="cls-2" d="M1607.16,375.43h-2.42c0-.59,0-1.17,0-1.81a3,3,0,0,1-3.18,2.11c-2.23,0-3.67-1.25-3.67-4.23v-9.74h2.64v8.88c0,1.1.22,2.47,1.84,2.47,1.25,0,2.13-.81,2.13-2.59v-8.76h2.64Z"/><path class="cls-2" d="M1616.41,365.61c0-1.3-.64-1.86-1.74-1.86a1.36,1.36,0,0,0-1.47,1.42c0,1.32,1.44,1.57,3,2.06a4,4,0,0,1,3.16,4.16,4.31,4.31,0,0,1-4.55,4.33c-2.57,0-4.5-1.44-4.72-4.53h2.64a2,2,0,0,0,2.13,2.13,1.6,1.6,0,0,0,1.71-1.76c0-1.37-1.42-1.69-3.06-2.23s-3.13-1.44-3.13-4.06c0-2.23,1.59-3.82,4.36-3.82s4.14,1.54,4.28,4.16Z"/><path class="cls-2" d="M1395.28,391.11h2.42v1.79a3,3,0,0,1,3-2.08c2.57,0,4.43,2.45,4.43,7.15,0,4.45-1.59,7.12-4.43,7.12a2.91,2.91,0,0,1-2.77-1.86v6.17h-2.64Zm7.2,6.83c0-3.06-.81-4.48-2.3-4.48a1.83,1.83,0,0,0-1.62.93c-.49.66-.64,1.54-.64,3.57s.15,2.89.64,3.55a1.81,1.81,0,0,0,1.62,1c1.49,0,2.3-1.44,2.3-4.5Z"/><path class="cls-2" d="M1408.39,391.11h2.42c0,.83,0,1.52,0,2.2.56-2.08,2-2.5,3.55-2.5V394a2,2,0,0,0-1.13-.32c-1.2,0-2.18,1.17-2.18,3.35v7.73h-2.64Z"/><path class="cls-2" d="M1416,397.94c0-3.92,1.66-7.12,5.29-7.12s5.26,3.21,5.26,7.15-1.66,7.12-5.26,7.12S1416,401.88,1416,398Zm2.79,0c0,3.35.91,4.63,2.52,4.63s2.45-1.27,2.45-4.65-.91-4.65-2.52-4.65-2.45,1.25-2.45,4.65Z"/><path class="cls-2" d="M1438.74,399.8c-.1,2.79-1.54,5.29-4.43,5.29-3.4,0-5.29-2.86-5.29-7.12,0-4.53,2.06-7.15,5.26-7.15,2.91,0,4.38,2.47,4.43,5.34H1436c-.1-2.06-.86-2.84-1.88-2.84a1.71,1.71,0,0,0-1.66,1.08,7.81,7.81,0,0,0-.61,3.57c0,3.28.83,4.65,2.3,4.65,1.22,0,1.79-1.2,1.88-2.81Z"/><path class="cls-2" d="M1441.65,386.68h2.64v4.21c0,.54,0,1,0,1.59.39-1,1.25-1.67,2.91-1.67A3.45,3.45,0,0,1,1450,392a4.76,4.76,0,0,1,.93,3.23v9.59h-2.64V396a3.18,3.18,0,0,0-.42-1.86,1.55,1.55,0,0,0-1.4-.66,1.9,1.9,0,0,0-1.57.64,2.73,2.73,0,0,0-.59,2v8.69h-2.64Z"/><path class="cls-2" d="M1457.09,398.87c0,1.91.66,3.74,2.42,3.74a2.24,2.24,0,0,0,2.2-2.08h2.62a5.57,5.57,0,0,1-1.86,3.6,4.9,4.9,0,0,1-3,1c-3.65,0-5.26-3.33-5.26-7.12,0-4.06,1.79-7.15,5.24-7.15a4.33,4.33,0,0,1,3.87,2.08c1.05,1.71,1.15,3.92,1.1,6Zm4.72-2.28c0-1.57-.56-3.57-2.33-3.57-1.44,0-2.4,1.35-2.4,3.57Z"/><path class="cls-2" d="M1470.67,404.79H1468v-3.23h2.64Z"/></g><g id="vignettes_jeu_4_-_mauvaises_réponses" data-name="vignettes jeu 4 - mauvaises réponses"><polygon class="cls-1" points="356.35 216.42 226.06 184.86 95.76 216.42 95.76 0.14 356.35 0.14 356.35 216.42"/><path class="cls-2" d="M136.87,76.48l6.19-26.65h6.61V90h-6.45V71.54L139.28,90h-4.7l-4.08-18.62V90H124V49.83h6.61Z"/><path class="cls-2" d="M173.44,75.62,175.35,90H168.6l-1.1-8.35h-4.92L161.45,90h-6.73l1.91-14.36,4.08-25.85h8.68Zm-6.81-.36L165,63.09l-1.61,12.17Z"/><path class="cls-2" d="M197.54,82q0,8.67-8.68,8.7T180.21,82V49.83h6.69V82q0,2.27,2,2.27t2-2.27V49.83h6.69Z"/><path class="cls-2" d="M217.06,90h-8.68l-4.08-25.83L202.4,49.83h6.75l3.55,31.51,3.57-31.51H223l-1.91,14.42Z"/><path class="cls-2" d="M244.21,75.62,246.12,90h-6.75l-1.1-8.35h-4.92L232.22,90h-6.73l1.91-14.36,4.08-25.85h8.68Zm-6.81-.36L235.8,63.09l-1.61,12.17Z"/><path class="cls-2" d="M251.28,49.83H258V90h-6.69Z"/><path class="cls-2" d="M264.53,57.88q0-8.67,8.66-8.68t8.68,8.68v5.7h-6.69v-5.7q0-2.25-2-2.27h0q-1.95,0-1.95,2.27v3.58q0,2.45,5.14,6.15,5.5,3.92,5.5,9.4v5q0,8.7-8.66,8.7T264.53,82v-5.7h6.69V82q0,2.27,2,2.27t2-2.27v-4.5q0-2.67-5.14-6.37-5.5-3.92-5.5-9.54Z"/><path class="cls-2" d="M288.33,49.83h15.75v6.41H295V66.72h7.79v6.43H295V83.63h9.06V90H288.33Z"/><path class="cls-2" d="M309.54,57.88q0-8.67,8.66-8.68t8.68,8.68v5.7h-6.69v-5.7q0-2.25-2-2.27h0q-1.95,0-1.95,2.27v3.58q0,2.45,5.14,6.15,5.5,3.92,5.5,9.4v5q0,8.7-8.66,8.7T309.54,82v-5.7h6.69V82q0,2.27,2,2.27t2-2.27v-4.5q0-2.67-5.14-6.37-5.5-3.92-5.5-9.54Z"/><path class="cls-2" d="M137.12,104.83h8.78q8.07,0,8.07,8.7v5.92q0,5.46-4.38,7.07L156,145h-7.29l-4.58-17.29h-.36V145h-6.69Zm6.69,6.41v10.48h.8a5,5,0,0,0,1.41-.12,2.06,2.06,0,0,0,1.27-2.15v-5.92q0-2.29-2-2.29Z"/><path class="cls-2" d="M160.9,104.83h15.75v6.41h-9.06v10.48h7.79v6.43h-7.79v10.48h9.06V145H160.9Zm15-4.5-5.82,3.78h-5.74l6.39-5.88h5.18Z"/><path class="cls-2" d="M181.5,104.83h8.78q8.07,0,8.07,8.7v5.92q0,6.37-5.76,8.25a13.76,13.76,0,0,1-4,.44h-.42V145H181.5Zm6.69,6.41v10.48h.8a5,5,0,0,0,1.41-.12,2.06,2.06,0,0,0,1.27-2.15v-5.92q0-2.29-2-2.29Z"/><path class="cls-2" d="M221.15,137q0,8.67-8.68,8.7t-8.66-8.7v-24.1q0-8.67,8.66-8.68t8.68,8.68Zm-6.69-24.1q0-2.25-2-2.27h0q-1.95,0-1.95,2.27V137q0,2.27,2,2.27t2-2.27Z"/><path class="cls-2" d="M227.61,104.83h6.61l4.46,19.8v-19.8h6.27V145h-6.61l-4.26-19.26V145h-6.47Z"/><path class="cls-2" d="M251.41,112.88q0-8.67,8.66-8.68t8.68,8.68v5.7h-6.69v-5.7q0-2.25-2-2.27h0q-1.95,0-1.95,2.27v3.58q0,2.45,5.14,6.15,5.5,3.92,5.5,9.4v5q0,8.7-8.66,8.7t-8.68-8.7v-5.7h6.69V137q0,2.27,2,2.27t2-2.27v-4.5q0-2.67-5.14-6.37-5.5-3.92-5.5-9.54Z"/><path class="cls-2" d="M275.21,104.83H291v6.41h-9.06v10.48h7.79v6.43h-7.79v10.48H291V145H275.21Z"/><path class="cls-2" d="M296.41,112.88q0-8.67,8.66-8.68t8.68,8.68v5.7h-6.69v-5.7q0-2.25-2-2.27h0q-1.95,0-1.95,2.27v3.58q0,2.45,5.14,6.15,5.5,3.92,5.5,9.4v5q0,8.7-8.66,8.7t-8.68-8.7v-5.7h6.69V137q0,2.27,2,2.27t2-2.27v-4.5q0-2.67-5.14-6.37-5.5-3.92-5.5-9.54Z"/></g></svg>