<svg id="textes_jeu_4" data-name="textes jeu 4" xmlns="http://www.w3.org/2000/svg" viewBox="0 0 1920 1080"><defs><style>.cls-1{fill:#666;}</style></defs><title>4c_ui1</title><path class="cls-1" d="M379.23,369.36H384a6.53,6.53,0,0,1,5.75,2.64,11.17,11.17,0,0,1,1.69,6.41c0,5.7-2.79,9.06-7.34,9.06h-4.9Zm3,15.35h1.86c3.5,0,4.33-3.33,4.33-6.29a8.64,8.64,0,0,0-1-4.65,3.67,3.67,0,0,0-3.43-1.64h-1.76Z"/><path class="cls-1" d="M395.85,369.36h2.81l-2.35,5.56h-2.42Z"/><path class="cls-1" d="M410.78,387.47h-2.42c0-.59,0-1.17,0-1.81a3,3,0,0,1-3.18,2.11c-2.23,0-3.67-1.25-3.67-4.23v-9.74h2.64v8.88c0,1.1.22,2.47,1.84,2.47,1.25,0,2.13-.81,2.13-2.59v-8.76h2.64Z"/><path class="cls-1" d="M414.74,373.79h2.33c0,.56,0,1.1,0,1.69a3.2,3.2,0,0,1,3.26-2c2.25,0,3.7,1.25,3.7,4.23v9.74h-2.64v-8.88c0-1.1-.22-2.45-1.84-2.45-1.27,0-2.13.78-2.13,2.57v8.76h-2.64Z"/><path class="cls-1" d="M430.18,381.55c0,1.91.66,3.74,2.42,3.74a2.24,2.24,0,0,0,2.2-2.08h2.62a5.57,5.57,0,0,1-1.86,3.6,4.9,4.9,0,0,1-3,1c-3.65,0-5.26-3.33-5.26-7.12,0-4.06,1.79-7.15,5.24-7.15a4.33,4.33,0,0,1,3.87,2.08c1.05,1.71,1.15,3.92,1.1,6Zm4.72-2.28c0-1.57-.56-3.57-2.33-3.57-1.44,0-2.4,1.35-2.4,3.57Z"/><path class="cls-1" d="M448.82,376.28h-1.64v-2.5h1.64v-3.25h2.64v3.25h1.62v2.5h-1.62v11.19h-2.64Z"/><path class="cls-1" d="M457.85,381.55c0,1.91.66,3.74,2.42,3.74a2.24,2.24,0,0,0,2.2-2.08h2.62a5.57,5.57,0,0,1-1.86,3.6,4.9,4.9,0,0,1-3,1c-3.65,0-5.26-3.33-5.26-7.12,0-4.06,1.79-7.15,5.24-7.15a4.33,4.33,0,0,1,3.87,2.08c1.05,1.71,1.15,3.92,1.1,6Zm4.72-2.28c0-1.57-.56-3.57-2.33-3.57-1.44,0-2.4,1.35-2.4,3.57Z"/><path class="cls-1" d="M468.59,373.79h2.33c0,.56,0,1.1,0,1.69a3.2,3.2,0,0,1,3.25-2c2.25,0,3.7,1.25,3.7,4.23v9.74H475.2v-8.88c0-1.1-.22-2.45-1.84-2.45-1.27,0-2.13.78-2.13,2.57v8.76h-2.64Z"/><path class="cls-1" d="M490.89,387.47h-2.42c0-.59,0-1.17,0-1.81a3,3,0,0,1-3.18,2.11c-2.23,0-3.67-1.25-3.67-4.23v-9.74h2.64v8.88c0,1.1.22,2.47,1.84,2.47,1.25,0,2.13-.81,2.13-2.59v-8.76h2.64Z"/><path class="cls-1" d="M497.1,381.55c0,1.91.66,3.74,2.42,3.74a2.24,2.24,0,0,0,2.2-2.08h2.62a5.57,5.57,0,0,1-1.86,3.6,4.9,4.9,0,0,1-3,1c-3.65,0-5.26-3.33-5.26-7.12,0-4.06,1.79-7.15,5.24-7.15a4.33,4.33,0,0,1,3.87,2.08c1.05,1.71,1.15,3.92,1.1,6Zm4.72-2.28c0-1.57-.56-3.57-2.33-3.57-1.44,0-2.4,1.35-2.4,3.57Z"/><path class="cls-1" d="M515.28,369.36h2.64v6.22a2.75,2.75,0,0,1,2.77-2.08c2.84,0,4.43,2.67,4.43,7.12,0,4.7-1.86,7.15-4.43,7.15a3,3,0,0,1-3-2.13v1.84h-2.42Zm7.2,11.26c0-2.77-.69-4.48-2.28-4.48-2,0-2.28,2.18-2.28,4.5s.32,4.5,2.28,4.5c1.59,0,2.28-1.74,2.28-4.5Z"/><path class="cls-1" d="M528.69,369.36h2.64V372h-2.64Zm0,4.43h2.64v13.68h-2.64Z"/><path class="cls-1" d="M537.84,381.55c0,1.91.66,3.74,2.42,3.74a2.24,2.24,0,0,0,2.2-2.08h2.62a5.57,5.57,0,0,1-1.86,3.6,4.9,4.9,0,0,1-3,1c-3.65,0-5.26-3.33-5.26-7.12,0-4.06,1.79-7.15,5.24-7.15a4.33,4.33,0,0,1,3.87,2.08c1.05,1.71,1.15,3.92,1.1,6Zm4.72-2.28c0-1.57-.56-3.57-2.33-3.57-1.44,0-2.4,1.35-2.4,3.57Z"/><path class="cls-1" d="M548.58,373.79h2.33c0,.56,0,1.1,0,1.69a3.2,3.2,0,0,1,3.26-2c2.25,0,3.7,1.25,3.7,4.23v9.74h-2.64v-8.88c0-1.1-.22-2.45-1.84-2.45-1.27,0-2.13.78-2.13,2.57v8.76h-2.64Z"/><path class="cls-1" d="M569.21,373.79h2.42c0,.83,0,1.52,0,2.2.56-2.08,2-2.5,3.55-2.5v3.21a2,2,0,0,0-1.13-.32c-1.2,0-2.18,1.17-2.18,3.35v7.73h-2.64Z"/><path class="cls-1" d="M579.73,381.55c0,1.91.66,3.74,2.42,3.74a2.24,2.24,0,0,0,2.2-2.08H587a5.56,5.56,0,0,1-1.86,3.6,4.9,4.9,0,0,1-3,1c-3.65,0-5.26-3.33-5.26-7.12,0-4.06,1.79-7.15,5.24-7.15a4.33,4.33,0,0,1,3.87,2.08c1.05,1.71,1.15,3.92,1.1,6Zm4.72-2.28c0-1.57-.56-3.57-2.32-3.57-1.44,0-2.4,1.35-2.4,3.57Z"/><path class="cls-1" d="M590.47,373.79h2.42v1.79a3,3,0,0,1,3-2.08c2.57,0,4.43,2.45,4.43,7.15,0,4.45-1.59,7.12-4.43,7.12a2.91,2.91,0,0,1-2.77-1.86v6.17h-2.64Zm7.2,6.83c0-3.06-.81-4.48-2.3-4.48a1.83,1.83,0,0,0-1.62.93c-.49.66-.64,1.54-.64,3.57s.15,2.89.64,3.55a1.81,1.81,0,0,0,1.62,1c1.49,0,2.3-1.44,2.3-4.5Z"/><path class="cls-1" d="M612.74,387.47h-2.42c0-.73,0-1.27,0-1.79a3.09,3.09,0,0,1-3,2.08c-2.57,0-4.43-2.45-4.43-7.12,0-4.48,1.59-7.15,4.43-7.15a3,3,0,0,1,3,2.15c0-.61,0-1.17,0-1.86h2.42Zm-7.2-6.8c0,3,.83,4.48,2.3,4.48a1.84,1.84,0,0,0,1.69-1c.49-.66.56-1.54.56-3.55s-.07-2.91-.56-3.57a1.87,1.87,0,0,0-1.69-.93c-1.47,0-2.3,1.42-2.3,4.5Z"/><path class="cls-1" d="M622,377.65c0-1.3-.64-1.86-1.74-1.86a1.36,1.36,0,0,0-1.47,1.42c0,1.32,1.44,1.57,3,2.06a4,4,0,0,1,3.16,4.16,4.31,4.31,0,0,1-4.55,4.33c-2.57,0-4.5-1.44-4.72-4.53h2.64a2,2,0,0,0,2.13,2.13,1.6,1.6,0,0,0,1.71-1.76c0-1.37-1.42-1.69-3.06-2.23s-3.13-1.44-3.13-4.06c0-2.23,1.59-3.82,4.36-3.82s4.14,1.54,4.28,4.16Z"/><path class="cls-1" d="M633.44,377.65c0-1.3-.64-1.86-1.74-1.86a1.36,1.36,0,0,0-1.47,1.42c0,1.32,1.44,1.57,3,2.06a4,4,0,0,1,3.16,4.16,4.31,4.31,0,0,1-4.55,4.33c-2.57,0-4.5-1.44-4.72-4.53h2.64a2,2,0,0,0,2.13,2.13,1.6,1.6,0,0,0,1.71-1.76c0-1.37-1.42-1.69-3.06-2.23s-3.13-1.44-3.13-4.06c0-2.23,1.59-3.82,4.36-3.82s4.14,1.54,4.28,4.16Z"/><path class="cls-1" d="M641.86,381.55c0,1.91.66,3.74,2.42,3.74a2.24,2.24,0,0,0,2.2-2.08h2.62a5.57,5.57,0,0,1-1.86,3.6,4.9,4.9,0,0,1-3,1c-3.65,0-5.26-3.33-5.26-7.12,0-4.06,1.79-7.15,5.24-7.15a4.33,4.33,0,0,1,3.87,2.08c1.05,1.71,1.15,3.92,1.1,6ZM647.17,368l1,2.13-5.6,2.67-.93-1.74Zm-.59,11.23c0-1.57-.56-3.57-2.33-3.57-1.44,0-2.4,1.35-2.4,3.57Z"/><path class="cls-1" d="M654.85,381.55c0,1.91.66,3.74,2.42,3.74a2.24,2.24,0,0,0,2.2-2.08h2.62a5.57,5.57,0,0,1-1.86,3.6,4.9,4.9,0,0,1-3,1c-3.65,0-5.26-3.33-5.26-7.12,0-4.06,1.79-7.15,5.24-7.15a4.33,4.33,0,0,1,3.87,2.08c1.05,1.71,1.15,3.92,1.1,6Zm4.72-2.28c0-1.57-.56-3.57-2.33-3.57-1.44,0-2.4,1.35-2.4,3.57Z"/><path class="cls-1" d="M668.43,387.47h-2.64v-3.23h2.64Z"/><path class="cls-1" d="M379.23,442.21H384a6.53,6.53,0,0,1,5.75,2.64,11.17,11.17,0,0,1,1.69,6.41c0,5.7-2.79,9.06-7.34,9.06h-4.9Zm3,15.35h1.86c3.5,0,4.33-3.33,4.33-6.29a8.64,8.64,0,0,0-1-4.65A3.67,3.67,0,0,0,384,445h-1.76Z"/><path class="cls-1" d="M395.85,442.21h2.81l-2.35,5.56h-2.42Z"/><path class="cls-1" d="M403.8,454.4c0,1.91.66,3.74,2.42,3.74a2.24,2.24,0,0,0,2.2-2.08H411a5.56,5.56,0,0,1-1.86,3.6,4.9,4.9,0,0,1-3,1c-3.65,0-5.26-3.33-5.26-7.12,0-4.06,1.79-7.15,5.24-7.15a4.33,4.33,0,0,1,3.87,2.08c1.05,1.71,1.15,3.92,1.1,6Zm6.56-9.33H408L406.08,443l-1.91,2.06h-2.4l3-3.38h2.55Zm-1.84,7c0-1.57-.56-3.57-2.33-3.57-1.44,0-2.4,1.35-2.4,3.57Z"/><path class="cls-1" d="M415,449.14h-1.64v-2.5H415v-3.25h2.64v3.25h1.62v2.5h-1.62v11.19H415Z"/><path class="cls-1" d="M422.05,446.64h2.42c0,.83,0,1.52,0,2.2.56-2.08,2-2.5,3.55-2.5v3.21a2,2,0,0,0-1.13-.32c-1.2,0-2.18,1.17-2.18,3.35v7.73h-2.64Z"/><path class="cls-1" d="M432.58,454.4c0,1.91.66,3.74,2.42,3.74a2.24,2.24,0,0,0,2.2-2.08h2.62a5.57,5.57,0,0,1-1.86,3.6,4.9,4.9,0,0,1-3,1c-3.65,0-5.26-3.33-5.26-7.12,0-4.06,1.79-7.15,5.24-7.15a4.33,4.33,0,0,1,3.87,2.08c1.05,1.71,1.15,3.92,1.1,6Zm4.72-2.28c0-1.57-.56-3.57-2.33-3.57-1.44,0-2.4,1.35-2.4,3.57Z"/><path class="cls-1" d="M450.76,446.64h2.42v1.79a3,3,0,0,1,3-2.08c2.57,0,4.43,2.45,4.43,7.15,0,4.45-1.59,7.12-4.43,7.12a2.91,2.91,0,0,1-2.77-1.86v6.17h-2.64Zm7.2,6.83c0-3.06-.81-4.48-2.3-4.48a1.83,1.83,0,0,0-1.62.93c-.49.66-.64,1.54-.64,3.57s.15,2.89.64,3.55a1.81,1.81,0,0,0,1.62,1c1.49,0,2.3-1.44,2.3-4.5Z"/><path class="cls-1" d="M463.19,453.47c0-3.92,1.66-7.12,5.29-7.12s5.26,3.21,5.26,7.15-1.66,7.12-5.26,7.12-5.29-3.21-5.29-7.12Zm2.79,0c0,3.35.91,4.63,2.52,4.63s2.45-1.27,2.45-4.65-.91-4.65-2.52-4.65S466,450.09,466,453.5Z"/><path class="cls-1" d="M477,446.64h2.33c0,.56,0,1.1,0,1.69a3.2,3.2,0,0,1,3.25-2c2.25,0,3.7,1.25,3.7,4.23v9.74h-2.64v-8.88c0-1.1-.22-2.45-1.84-2.45-1.27,0-2.13.78-2.13,2.57v8.76H477Z"/><path class="cls-1" d="M499.13,455.33c-.1,2.79-1.54,5.29-4.43,5.29-3.4,0-5.29-2.86-5.29-7.12,0-4.53,2.06-7.15,5.26-7.15,2.91,0,4.38,2.47,4.43,5.34h-2.74c-.1-2.06-.86-2.84-1.88-2.84a1.71,1.71,0,0,0-1.66,1.08,7.81,7.81,0,0,0-.61,3.57c0,3.28.83,4.65,2.3,4.65,1.22,0,1.79-1.2,1.88-2.81Z"/><path class="cls-1" d="M502.51,449.14h-1.64v-2.5h1.64v-3.25h2.64v3.25h1.62v2.5h-1.62v11.19h-2.64Z"/><path class="cls-1" d="M518.78,460.32h-2.42c0-.59,0-1.17,0-1.81a3,3,0,0,1-3.18,2.11c-2.23,0-3.67-1.25-3.67-4.23v-9.74h2.64v8.88c0,1.1.22,2.47,1.84,2.47,1.25,0,2.13-.81,2.13-2.59v-8.76h2.64Z"/><path class="cls-1" d="M525,454.4c0,1.91.66,3.74,2.42,3.74a2.24,2.24,0,0,0,2.2-2.08h2.62a5.57,5.57,0,0,1-1.86,3.6,4.9,4.9,0,0,1-3,1c-3.65,0-5.26-3.33-5.26-7.12,0-4.06,1.79-7.15,5.24-7.15a4.33,4.33,0,0,1,3.87,2.08c1.05,1.71,1.15,3.92,1.1,6Zm4.72-2.28c0-1.57-.56-3.57-2.33-3.57-1.44,0-2.4,1.35-2.4,3.57Z"/><path class="cls-1" d="M536,442.21h2.64v18.11H536Z"/><path class="cls-1" d="M552.62,454.4c0,1.91.66,3.74,2.42,3.74a2.24,2.24,0,0,0,2.2-2.08h2.62a5.56,5.56,0,0,1-1.86,3.6,4.9,4.9,0,0,1-3,1c-3.65,0-5.26-3.33-5.26-7.12,0-4.06,1.79-7.15,5.24-7.15a4.33,4.33,0,0,1,3.87,2.08c1.05,1.71,1.15,3.92,1.1,6Zm4.72-2.28c0-1.57-.56-3.57-2.32-3.57-1.44,0-2.4,1.35-2.4,3.57Z"/><path class="cls-1" d="M563.83,449.14h-1.64v-2.5h1.64v-3.25h2.64v3.25h1.62v2.5h-1.62v11.19h-2.64Z"/><path class="cls-1" d="M587.25,455.33c-.1,2.79-1.54,5.29-4.43,5.29-3.4,0-5.29-2.86-5.29-7.12,0-4.53,2.06-7.15,5.26-7.15,2.91,0,4.38,2.47,4.43,5.34h-2.74c-.1-2.06-.86-2.84-1.88-2.84a1.71,1.71,0,0,0-1.66,1.08,7.81,7.81,0,0,0-.61,3.57c0,3.28.83,4.65,2.3,4.65,1.22,0,1.79-1.2,1.88-2.81Z"/><path class="cls-1" d="M589.47,453.47c0-3.92,1.66-7.12,5.29-7.12s5.26,3.21,5.26,7.15-1.66,7.12-5.26,7.12-5.29-3.21-5.29-7.12Zm2.79,0c0,3.35.91,4.63,2.52,4.63s2.45-1.27,2.45-4.65-.91-4.65-2.52-4.65-2.45,1.25-2.45,4.65Z"/><path class="cls-1" d="M612.52,460.32H610.1c0-.59,0-1.17,0-1.81a3,3,0,0,1-3.18,2.11c-2.23,0-3.67-1.25-3.67-4.23v-9.74h2.64v8.88c0,1.1.22,2.47,1.84,2.47,1.25,0,2.13-.81,2.13-2.59v-8.76h2.64Z"/><path class="cls-1" d="M616.48,446.64h2.42c0,.83,0,1.52,0,2.2.56-2.08,2-2.5,3.55-2.5v3.21a2,2,0,0,0-1.13-.32c-1.2,0-2.18,1.17-2.18,3.35v7.73h-2.64Z"/><path class="cls-1" d="M625.68,449.14H624v-2.5h1.64v-3.25h2.64v3.25h1.62v2.5h-1.62v11.19h-2.64Z"/><path class="cls-1" d="M631.78,453.47c0-3.92,1.66-7.12,5.29-7.12s5.26,3.21,5.26,7.15-1.66,7.12-5.26,7.12-5.29-3.21-5.29-7.12Zm2.79,0c0,3.35.91,4.63,2.52,4.63s2.45-1.27,2.45-4.65-.91-4.65-2.52-4.65-2.45,1.25-2.45,4.65Z"/><path class="cls-1" d="M645.89,442.21h2.64v2.62h-2.64Zm0,4.43h2.64v13.68h-2.64Z"/><path class="cls-1" d="M658.08,450.51c0-1.3-.64-1.86-1.74-1.86a1.36,1.36,0,0,0-1.47,1.42c0,1.32,1.44,1.57,3,2.06a4,4,0,0,1,3.16,4.16,4.31,4.31,0,0,1-4.55,4.33c-2.57,0-4.5-1.44-4.72-4.53h2.64a2,2,0,0,0,2.13,2.13,1.6,1.6,0,0,0,1.71-1.76c0-1.37-1.42-1.69-3.06-2.23s-3.13-1.44-3.13-4.06c0-2.23,1.59-3.82,4.36-3.82s4.14,1.54,4.28,4.16Z"/><path class="cls-1" d="M667.09,460.32h-2.64v-3.23h2.64Z"/><path class="cls-1" d="M379.23,516.29H384a6.53,6.53,0,0,1,5.75,2.64,11.18,11.18,0,0,1,1.69,6.41c0,5.7-2.79,9.06-7.34,9.06h-4.9Zm3,15.35h1.86c3.5,0,4.33-3.33,4.33-6.29a8.64,8.64,0,0,0-1-4.65,3.67,3.67,0,0,0-3.43-1.64h-1.76Z"/><path class="cls-1" d="M395.85,516.29h2.81l-2.35,5.56h-2.42Z"/><path class="cls-1" d="M410.7,534.4h-2.42c0-.73,0-1.27,0-1.79a3.09,3.09,0,0,1-3,2.08c-2.57,0-4.43-2.45-4.43-7.12,0-4.48,1.59-7.15,4.43-7.15a3,3,0,0,1,3,2.15c0-.61,0-1.17,0-1.86h2.42Zm-7.2-6.8c0,3,.83,4.48,2.3,4.48a1.84,1.84,0,0,0,1.69-1c.49-.66.56-1.54.56-3.55s-.07-2.91-.56-3.57a1.87,1.87,0,0,0-1.69-.93c-1.47,0-2.3,1.42-2.3,4.5Z"/><path class="cls-1" d="M414.66,520.72h2.42c0,.83,0,1.52,0,2.2.56-2.08,2-2.5,3.55-2.5v3.21a2,2,0,0,0-1.13-.32c-1.2,0-2.18,1.17-2.18,3.35v7.73h-2.64Z"/><path class="cls-1" d="M423.28,520.72h2.42c0,.83,0,1.52,0,2.2.56-2.08,2-2.5,3.55-2.5v3.21a2,2,0,0,0-1.13-.32c-1.2,0-2.18,1.17-2.18,3.35v7.73h-2.64Z"/><path class="cls-1" d="M432.18,516.29h2.64v2.62h-2.64Zm0,4.43h2.64V534.4h-2.64Z"/><path class="cls-1" d="M444.15,534.4H441.7l-4-13.68h2.69l2.52,9.77,2.33-9.77h2.67Z"/><path class="cls-1" d="M452.47,528.48c0,1.91.66,3.74,2.42,3.74a2.24,2.24,0,0,0,2.2-2.08h2.62a5.57,5.57,0,0,1-1.86,3.6,4.9,4.9,0,0,1-3,1c-3.65,0-5.26-3.33-5.26-7.12,0-4.06,1.79-7.15,5.24-7.15a4.33,4.33,0,0,1,3.87,2.08c1.05,1.71,1.15,3.92,1.1,6Zm4.72-2.28c0-1.57-.56-3.57-2.33-3.57-1.44,0-2.4,1.35-2.4,3.57Z"/><path class="cls-1" d="M463.21,520.72h2.42c0,.83,0,1.52,0,2.2.56-2.08,2-2.5,3.55-2.5v3.21a2,2,0,0,0-1.13-.32c-1.2,0-2.18,1.17-2.18,3.35v7.73h-2.64Z"/><path class="cls-1" d="M488.42,534.4H486c0-.73,0-1.27,0-1.79a3.09,3.09,0,0,1-3,2.08c-2.57,0-4.43-2.45-4.43-7.12,0-4.48,1.59-7.15,4.43-7.15a3,3,0,0,1,3,2.15c0-.61,0-1.17,0-1.86h2.42Zm-7.2-6.8c0,3,.83,4.48,2.3,4.48a1.84,1.84,0,0,0,1.69-1c.49-.66.56-1.54.56-3.55s-.07-2.91-.56-3.57a1.87,1.87,0,0,0-1.69-.93c-1.47,0-2.3,1.42-2.3,4.5Z"/><path class="cls-1" d="M497.44,534.4H495l-4-13.68h2.69l2.52,9.77,2.33-9.77h2.67Z"/><path class="cls-1" d="M505.76,528.48c0,1.91.66,3.74,2.42,3.74a2.24,2.24,0,0,0,2.2-2.08H513a5.56,5.56,0,0,1-1.86,3.6,4.9,4.9,0,0,1-3,1c-3.65,0-5.26-3.33-5.26-7.12,0-4.06,1.79-7.15,5.24-7.15a4.33,4.33,0,0,1,3.87,2.08c1.05,1.71,1.15,3.92,1.1,6Zm4.72-2.28c0-1.57-.56-3.57-2.32-3.57-1.44,0-2.4,1.35-2.4,3.57Z"/><path class="cls-1" d="M525.44,529.41c-.1,2.79-1.54,5.29-4.43,5.29-3.4,0-5.29-2.86-5.29-7.12,0-4.53,2.06-7.15,5.26-7.15,2.91,0,4.38,2.47,4.43,5.34h-2.74c-.1-2.06-.86-2.84-1.88-2.84a1.71,1.71,0,0,0-1.66,1.08,7.81,7.81,0,0,0-.61,3.57c0,3.28.83,4.65,2.3,4.65,1.22,0,1.79-1.2,1.88-2.81Z"/><path class="cls-1" d="M545,534.4h-2.42c0-.59,0-1.17,0-1.81a3,3,0,0,1-3.18,2.11c-2.23,0-3.67-1.25-3.67-4.23v-9.74h2.64v8.88c0,1.1.22,2.47,1.84,2.47,1.25,0,2.13-.81,2.13-2.59v-8.76H545Z"/><path class="cls-1" d="M549,520.72h2.33c0,.56,0,1.1,0,1.69a3.2,3.2,0,0,1,3.25-2c2.25,0,3.7,1.25,3.7,4.23v9.74h-2.64v-8.88c0-1.1-.22-2.45-1.84-2.45-1.27,0-2.13.78-2.13,2.57v8.76H549Z"/><path class="cls-1" d="M578.53,529.41c-.1,2.79-1.54,5.29-4.43,5.29-3.4,0-5.29-2.86-5.29-7.12,0-4.53,2.06-7.15,5.26-7.15,2.91,0,4.38,2.47,4.43,5.34h-2.74c-.1-2.06-.86-2.84-1.88-2.84a1.71,1.71,0,0,0-1.66,1.08,7.81,7.81,0,0,0-.61,3.57c0,3.28.83,4.65,2.3,4.65,1.22,0,1.79-1.2,1.88-2.81Z"/><path class="cls-1" d="M590.6,534.4h-2.42c0-.73,0-1.27,0-1.79a3.09,3.09,0,0,1-3,2.08c-2.57,0-4.43-2.45-4.43-7.12,0-4.48,1.59-7.15,4.43-7.15a3,3,0,0,1,3,2.15c0-.61,0-1.17,0-1.86h2.42Zm-7.2-6.8c0,3,.83,4.48,2.3,4.48a1.84,1.84,0,0,0,1.69-1c.49-.66.56-1.54.56-3.55s-.07-2.91-.56-3.57a1.87,1.87,0,0,0-1.69-.93c-1.47,0-2.3,1.42-2.3,4.5Z"/><path class="cls-1" d="M594.85,523.22h-1.37v-2.5h1.37V520c0-3.79,3.21-4,4.65-4v2.3c-.93,0-2,.24-2,2v.46h2v2.5h-2V534.4h-2.64Z"/><path class="cls-1" d="M604.05,528.48c0,1.91.66,3.74,2.42,3.74a2.24,2.24,0,0,0,2.2-2.08h2.62a5.57,5.57,0,0,1-1.86,3.6,4.9,4.9,0,0,1-3,1c-3.65,0-5.26-3.33-5.26-7.12,0-4.06,1.79-7.15,5.24-7.15a4.33,4.33,0,0,1,3.87,2.08c1.05,1.71,1.15,3.92,1.1,6ZM609.36,515l1,2.13-5.6,2.67-.93-1.74Zm-.59,11.23c0-1.57-.56-3.57-2.33-3.57-1.44,0-2.4,1.35-2.4,3.57Z"/><path class="cls-1" d="M622.23,520.72h2.42v1.79a3,3,0,0,1,3-2.08c2.57,0,4.43,2.45,4.43,7.15,0,4.45-1.59,7.12-4.43,7.12a2.91,2.91,0,0,1-2.77-1.86V539h-2.64Zm7.2,6.83c0-3.06-.81-4.48-2.3-4.48a1.83,1.83,0,0,0-1.62.93c-.49.66-.64,1.54-.64,3.57s.15,2.89.64,3.55a1.81,1.81,0,0,0,1.62,1c1.49,0,2.3-1.44,2.3-4.5Z"/><path class="cls-1" d="M634.66,527.55c0-3.92,1.66-7.12,5.29-7.12s5.26,3.21,5.26,7.15-1.66,7.12-5.26,7.12-5.29-3.21-5.29-7.12Zm2.79,0c0,3.35.91,4.63,2.52,4.63s2.45-1.27,2.45-4.65-.91-4.65-2.52-4.65-2.45,1.25-2.45,4.65Z"/><path class="cls-1" d="M657.72,534.4h-2.42c0-.59,0-1.17,0-1.81a3,3,0,0,1-3.18,2.11c-2.23,0-3.67-1.25-3.67-4.23v-9.74h2.64v8.88c0,1.1.22,2.47,1.84,2.47,1.25,0,2.13-.81,2.13-2.59v-8.76h2.64Z"/><path class="cls-1" d="M661.68,520.72h2.42c0,.83,0,1.52,0,2.2.56-2.08,2-2.5,3.55-2.5v3.21a2,2,0,0,0-1.13-.32c-1.2,0-2.18,1.17-2.18,3.35v7.73h-2.64Z"/><path class="cls-1" d="M678,516.29h2.64V534.4H678Z"/><path class="cls-1" d="M687.17,528.48c0,1.91.66,3.74,2.42,3.74a2.24,2.24,0,0,0,2.2-2.08h2.62a5.57,5.57,0,0,1-1.86,3.6,4.9,4.9,0,0,1-3,1c-3.65,0-5.26-3.33-5.26-7.12,0-4.06,1.79-7.15,5.24-7.15a4.33,4.33,0,0,1,3.87,2.08c1.05,1.71,1.15,3.92,1.1,6Zm4.72-2.28c0-1.57-.56-3.57-2.33-3.57-1.44,0-2.4,1.35-2.4,3.57Z"/><path class="cls-1" d="M705.35,520.72h2.42c0,.83,0,1.52,0,2.2.56-2.08,2-2.5,3.55-2.5v3.21a2,2,0,0,0-1.13-.32c-1.2,0-2.18,1.17-2.18,3.35v7.73h-2.64Z"/><path class="cls-1" d="M715.88,528.48c0,1.91.66,3.74,2.42,3.74a2.24,2.24,0,0,0,2.2-2.08h2.62a5.57,5.57,0,0,1-1.86,3.6,4.9,4.9,0,0,1-3,1c-3.65,0-5.26-3.33-5.26-7.12,0-4.06,1.79-7.15,5.24-7.15a4.33,4.33,0,0,1,3.87,2.08c1.05,1.71,1.15,3.92,1.1,6Zm4.72-2.28c0-1.57-.56-3.57-2.33-3.57-1.44,0-2.4,1.35-2.4,3.57Z"/><path class="cls-1" d="M735.55,529.41c-.1,2.79-1.54,5.29-4.43,5.29-3.4,0-5.29-2.86-5.29-7.12,0-4.53,2.06-7.15,5.26-7.15,2.91,0,4.38,2.47,4.43,5.34h-2.74c-.1-2.06-.86-2.84-1.88-2.84a1.71,1.71,0,0,0-1.66,1.08,7.81,7.81,0,0,0-.61,3.57c0,3.28.83,4.65,2.3,4.65,1.22,0,1.79-1.2,1.88-2.81Z"/><path class="cls-1" d="M738.46,520.72h2.42c0,.83,0,1.52,0,2.2.56-2.08,2-2.5,3.55-2.5v3.21a2,2,0,0,0-1.13-.32c-1.2,0-2.18,1.17-2.18,3.35v7.73h-2.64Z"/><path class="cls-1" d="M756.3,534.4h-2.42c0-.59,0-1.17,0-1.81a3,3,0,0,1-3.18,2.11c-2.23,0-3.67-1.25-3.67-4.23v-9.74h2.64v8.88c0,1.1.22,2.47,1.84,2.47,1.25,0,2.13-.81,2.13-2.59v-8.76h2.64Z"/><path class="cls-1" d="M760.73,523.22h-1.64v-2.5h1.64v-3.25h2.64v3.25H765v2.5h-1.62V534.4h-2.64Z"/><path class="cls-1" d="M769.76,528.48c0,1.91.66,3.74,2.42,3.74a2.24,2.24,0,0,0,2.2-2.08H777a5.56,5.56,0,0,1-1.86,3.6,4.9,4.9,0,0,1-3,1c-3.65,0-5.26-3.33-5.26-7.12,0-4.06,1.79-7.15,5.24-7.15a4.33,4.33,0,0,1,3.87,2.08c1.05,1.71,1.15,3.92,1.1,6Zm4.72-2.28c0-1.57-.56-3.57-2.33-3.57-1.44,0-2.4,1.35-2.4,3.57Z"/><path class="cls-1" d="M789.72,534.4H787.3c0-.59,0-1.17,0-1.81a3,3,0,0,1-3.18,2.11c-2.23,0-3.67-1.25-3.67-4.23v-9.74h2.64v8.88c0,1.1.22,2.47,1.84,2.47,1.25,0,2.13-.81,2.13-2.59v-8.76h2.64Z"/><path class="cls-1" d="M793.69,520.72h2.42c0,.83,0,1.52,0,2.2.56-2.08,2-2.5,3.55-2.5v3.21a2,2,0,0,0-1.13-.32c-1.2,0-2.18,1.17-2.18,3.35v7.73h-2.64Z"/><path class="cls-1" d="M804.18,534.4h-2.64v-3.23h2.64Z"/><path class="cls-1" d="M387.53,743.75a6.72,6.72,0,0,1-.42,2.47,4.13,4.13,0,0,1-1.84,2,5.27,5.27,0,0,1-2.62.66c-2.74,0-4.75-1.57-4.87-4.58,0-.29,0-.61,0-.91h3c0,.1,0,.22,0,.34.15,2,.91,2.37,1.91,2.37a1.63,1.63,0,0,0,1.52-.86,4.27,4.27,0,0,0,.34-2v-12.8h3Z"/><path class="cls-1" d="M393.94,742.6c0,1.91.66,3.74,2.42,3.74a2.24,2.24,0,0,0,2.2-2.08h2.62a5.56,5.56,0,0,1-1.86,3.6,4.9,4.9,0,0,1-3,1c-3.65,0-5.26-3.33-5.26-7.12,0-4.06,1.79-7.15,5.24-7.15a4.33,4.33,0,0,1,3.87,2.08c1.05,1.71,1.15,3.92,1.1,6Zm4.72-2.28c0-1.57-.56-3.57-2.32-3.57-1.44,0-2.4,1.35-2.4,3.57Z"/><path class="cls-1" d="M412.12,734.84h2.42v1.79a3,3,0,0,1,3-2.08c2.57,0,4.43,2.45,4.43,7.15,0,4.45-1.59,7.12-4.43,7.12a2.91,2.91,0,0,1-2.77-1.86v6.17h-2.64Zm7.2,6.83c0-3.06-.81-4.48-2.3-4.48a1.83,1.83,0,0,0-1.62.93c-.49.66-.64,1.54-.64,3.57s.15,2.89.64,3.55a1.81,1.81,0,0,0,1.62,1c1.49,0,2.3-1.44,2.3-4.5Z"/><path class="cls-1" d="M425.24,734.84h2.42c0,.83,0,1.52,0,2.2.56-2.08,2-2.5,3.55-2.5v3.21a2,2,0,0,0-1.13-.32c-1.2,0-2.18,1.17-2.18,3.35v7.73h-2.64Z"/><path class="cls-1" d="M435.76,742.6c0,1.91.66,3.74,2.42,3.74a2.24,2.24,0,0,0,2.2-2.08H443a5.57,5.57,0,0,1-1.86,3.6,4.9,4.9,0,0,1-3,1c-3.65,0-5.26-3.33-5.26-7.12,0-4.06,1.79-7.15,5.24-7.15a4.33,4.33,0,0,1,3.87,2.08c1.05,1.71,1.15,3.92,1.1,6Zm4.72-2.28c0-1.57-.56-3.57-2.33-3.57-1.44,0-2.4,1.35-2.4,3.57Z"/><path class="cls-1" d="M446.5,734.84h2.33c0,.56,0,1.1,0,1.69a3.2,3.2,0,0,1,3.26-2c2.25,0,3.7,1.25,3.7,4.23v9.74h-2.64v-8.88c0-1.1-.22-2.45-1.84-2.45-1.27,0-2.13.78-2.13,2.57v8.76H446.5Z"/><path class="cls-1" d="M468.84,748.53h-2.42c0-.81,0-1.4,0-2a3,3,0,0,1-3,2.28c-2.57,0-4.43-2.45-4.43-7.12,0-4.48,1.59-7.15,4.43-7.15a2.81,2.81,0,0,1,2.79,2c0-.54,0-1.08,0-1.69v-4.43h2.64Zm-7.2-6.83c0,3.06.83,4.48,2.3,4.48a1.87,1.87,0,0,0,1.69-.93c.49-.69.56-1.54.56-3.57s-.07-2.89-.56-3.55a1.84,1.84,0,0,0-1.69-1c-1.47,0-2.3,1.44-2.3,4.5Z"/><path class="cls-1" d="M478.09,738.71c0-1.3-.64-1.86-1.74-1.86a1.36,1.36,0,0,0-1.47,1.42c0,1.32,1.44,1.57,3,2.06a4,4,0,0,1,3.16,4.16,4.31,4.31,0,0,1-4.55,4.33c-2.57,0-4.5-1.44-4.72-4.53h2.64a2,2,0,0,0,2.13,2.13,1.6,1.6,0,0,0,1.71-1.76c0-1.37-1.42-1.69-3.06-2.23s-3.13-1.44-3.13-4.06c0-2.23,1.59-3.82,4.36-3.82s4.14,1.54,4.28,4.16Z"/><path class="cls-1" d="M500.92,748.53H498.5c0-.59,0-1.17,0-1.81a3,3,0,0,1-3.18,2.11c-2.23,0-3.67-1.25-3.67-4.23v-9.74h2.64v8.88c0,1.1.22,2.47,1.84,2.47,1.25,0,2.13-.81,2.13-2.59v-8.76h2.64Z"/><path class="cls-1" d="M504.88,734.84h2.33c0,.56,0,1.1,0,1.69a3.2,3.2,0,0,1,3.25-2c2.25,0,3.7,1.25,3.7,4.23v9.74h-2.64v-8.88c0-1.1-.22-2.45-1.84-2.45-1.27,0-2.13.78-2.13,2.57v8.76h-2.64Z"/><path class="cls-1" d="M534.44,743.53c-.1,2.79-1.54,5.29-4.43,5.29-3.4,0-5.29-2.86-5.29-7.12,0-4.53,2.06-7.15,5.26-7.15,2.91,0,4.38,2.47,4.43,5.34h-2.74c-.1-2.06-.86-2.84-1.88-2.84a1.71,1.71,0,0,0-1.66,1.08,7.81,7.81,0,0,0-.61,3.57c0,3.28.83,4.65,2.3,4.65,1.22,0,1.79-1.2,1.88-2.81Z"/><path class="cls-1" d="M537.35,730.41H540v4.21c0,.54,0,1,0,1.59.39-1,1.25-1.67,2.91-1.67a3.45,3.45,0,0,1,2.79,1.15,4.76,4.76,0,0,1,.93,3.23v9.59H544v-8.81a3.18,3.18,0,0,0-.42-1.86,1.55,1.55,0,0,0-1.4-.66,1.9,1.9,0,0,0-1.57.64,2.73,2.73,0,0,0-.59,2v8.69h-2.64Z"/><path class="cls-1" d="M552.79,742.6c0,1.91.66,3.74,2.42,3.74a2.24,2.24,0,0,0,2.2-2.08H560a5.56,5.56,0,0,1-1.86,3.6,4.9,4.9,0,0,1-3,1c-3.65,0-5.26-3.33-5.26-7.12,0-4.06,1.79-7.15,5.24-7.15a4.33,4.33,0,0,1,3.87,2.08c1.05,1.71,1.15,3.92,1.1,6Zm4.72-2.28c0-1.57-.56-3.57-2.33-3.57-1.44,0-2.4,1.35-2.4,3.57Z"/><path class="cls-1" d="M561.87,734.84h2.72l2,9.67,2.1-9.2h2.23l2.18,9.2,1.86-9.67h2.72l-3.35,13.68h-2.5l-2-9.23-2,9.23h-2.57Z"/><path class="cls-1" d="M580.47,730.41h2.64V733h-2.64Zm0,4.43h2.64v13.68h-2.64Z"/><path class="cls-1" d="M587.37,734.84h2.33c0,.56,0,1.1,0,1.69a3.2,3.2,0,0,1,3.26-2c2.25,0,3.7,1.25,3.7,4.23v9.74H594v-8.88c0-1.1-.22-2.45-1.84-2.45-1.27,0-2.13.78-2.13,2.57v8.76h-2.64Z"/><path class="cls-1" d="M609.71,748.33a5.16,5.16,0,0,1-1.22,3.72,4.78,4.78,0,0,1-3.67,1.37,4.5,4.5,0,0,1-4.7-4h2.77a1.76,1.76,0,0,0,.56,1.08,2,2,0,0,0,1.4.44c1.44,0,2.25-.81,2.28-2.77v-1.37a2.67,2.67,0,0,1-2.81,2c-3,0-4.43-2.67-4.43-7.12s1.42-7.15,4.43-7.15a3.16,3.16,0,0,1,3.16,2.13c0-.59,0-1.17,0-1.84h2.28Zm-7.2-6.61c0,3,.83,4.48,2.3,4.48a1.84,1.84,0,0,0,1.69-1c.49-.66.56-1.54.56-3.55s-.07-2.91-.56-3.57a1.87,1.87,0,0,0-1.69-.93c-1.47,0-2.3,1.42-2.3,4.5Z"/><path class="cls-1" d="M618.78,740.3v2.59H613V740.3Z"/><path class="cls-1" d="M631.29,748.33a5.16,5.16,0,0,1-1.22,3.72,4.78,4.78,0,0,1-3.67,1.37,4.5,4.5,0,0,1-4.7-4h2.77a1.76,1.76,0,0,0,.56,1.08,2,2,0,0,0,1.4.44c1.44,0,2.25-.81,2.28-2.77v-1.37a2.67,2.67,0,0,1-2.81,2c-3,0-4.43-2.67-4.43-7.12s1.42-7.15,4.43-7.15a3.16,3.16,0,0,1,3.16,2.13c0-.59,0-1.17,0-1.84h2.28Zm-7.2-6.61c0,3,.83,4.48,2.3,4.48a1.84,1.84,0,0,0,1.69-1c.49-.66.56-1.54.56-3.55s-.07-2.91-.56-3.57a1.87,1.87,0,0,0-1.69-.93c-1.47,0-2.3,1.42-2.3,4.5Z"/><path class="cls-1" d="M644.48,748.53h-2.42c0-.59,0-1.17,0-1.81a3,3,0,0,1-3.18,2.11c-2.23,0-3.67-1.25-3.67-4.23v-9.74h2.64v8.88c0,1.1.22,2.47,1.84,2.47,1.25,0,2.13-.81,2.13-2.59v-8.76h2.64Z"/><path class="cls-1" d="M648.54,734.84h2.52c0,.61,0,1.2,0,1.84a2.85,2.85,0,0,1,3-2.13,3,3,0,0,1,2.13.73,2.68,2.68,0,0,1,.69,1.15,3,3,0,0,1,1-1.22,4.34,4.34,0,0,1,2.35-.66,3.67,3.67,0,0,1,3.13,1.49,5.5,5.5,0,0,1,.86,3.23v9.25h-2.64v-8.86a3.34,3.34,0,0,0-.32-1.71,1.52,1.52,0,0,0-1.47-.76,1.85,1.85,0,0,0-1.54.59,2.71,2.71,0,0,0-.54,1.81v8.93H655v-8.84a3.5,3.5,0,0,0-.32-1.74,1.49,1.49,0,0,0-1.44-.76,1.92,1.92,0,0,0-1.54.56,2.84,2.84,0,0,0-.54,1.86v8.91h-2.67Z"/><path class="cls-1" d="M671.37,748.53h-2.64V745.3h2.64Z"/><path class="cls-1" d="M387.53,815.5a6.72,6.72,0,0,1-.42,2.47,4.13,4.13,0,0,1-1.84,2,5.27,5.27,0,0,1-2.62.66c-2.74,0-4.75-1.57-4.87-4.58,0-.29,0-.61,0-.91h3c0,.1,0,.22,0,.34.15,2,.91,2.37,1.91,2.37a1.63,1.63,0,0,0,1.52-.86,4.27,4.27,0,0,0,.34-2v-12.8h3Z"/><path class="cls-1" d="M392.72,802.16h2.81l-2.35,5.56h-2.42Z"/><path class="cls-1" d="M400.67,814.35c0,1.91.66,3.74,2.42,3.74a2.24,2.24,0,0,0,2.2-2.08h2.62a5.56,5.56,0,0,1-1.86,3.6,4.9,4.9,0,0,1-3,1c-3.65,0-5.26-3.33-5.26-7.12,0-4.06,1.79-7.15,5.24-7.15a4.33,4.33,0,0,1,3.87,2.08c1.05,1.71,1.15,3.92,1.1,6ZM406,800.84l1,2.13-5.6,2.67-.93-1.74Zm-.59,11.23c0-1.57-.56-3.57-2.32-3.57-1.44,0-2.4,1.35-2.4,3.57Z"/><path class="cls-1" d="M411.88,809.09h-1.64v-2.5h1.64v-3.25h2.64v3.25h1.62v2.5h-1.62v11.19h-2.64Z"/><path class="cls-1" d="M420.91,814.35c0,1.91.66,3.74,2.42,3.74a2.24,2.24,0,0,0,2.2-2.08h2.62a5.57,5.57,0,0,1-1.86,3.6,4.9,4.9,0,0,1-3,1c-3.65,0-5.26-3.33-5.26-7.12,0-4.06,1.79-7.15,5.24-7.15a4.33,4.33,0,0,1,3.87,2.08c1.05,1.71,1.15,3.92,1.1,6Zm4.72-2.28c0-1.57-.56-3.57-2.33-3.57-1.44,0-2.4,1.35-2.4,3.57Z"/><path class="cls-1" d="M431.94,802.16h2.64v2.62h-2.64Zm0,4.43h2.64v13.68h-2.64Z"/><path class="cls-1" d="M438.84,806.59h2.33c0,.56,0,1.1,0,1.69a3.2,3.2,0,0,1,3.25-2c2.25,0,3.7,1.25,3.7,4.23v9.74h-2.64v-8.88c0-1.1-.22-2.45-1.84-2.45-1.27,0-2.13.78-2.13,2.57v8.76h-2.64Z"/><path class="cls-1" d="M457.32,810.46c0-1.3-.64-1.86-1.74-1.86a1.36,1.36,0,0,0-1.47,1.42c0,1.32,1.44,1.57,3,2.06a4,4,0,0,1,3.16,4.16,4.31,4.31,0,0,1-4.55,4.33c-2.57,0-4.5-1.44-4.72-4.53h2.64a2,2,0,0,0,2.13,2.13,1.6,1.6,0,0,0,1.71-1.76c0-1.37-1.42-1.69-3.06-2.23s-3.13-1.44-3.13-4.06c0-2.23,1.59-3.82,4.36-3.82s4.14,1.54,4.28,4.16Z"/><path class="cls-1" d="M471,806.59h2.52c0,.61,0,1.2,0,1.84a2.85,2.85,0,0,1,3-2.13,3,3,0,0,1,2.13.73,2.68,2.68,0,0,1,.69,1.15,3,3,0,0,1,1-1.22,4.34,4.34,0,0,1,2.35-.66,3.67,3.67,0,0,1,3.13,1.49,5.5,5.5,0,0,1,.86,3.23v9.25H484v-8.86a3.35,3.35,0,0,0-.32-1.71,1.52,1.52,0,0,0-1.47-.76,1.85,1.85,0,0,0-1.54.59,2.71,2.71,0,0,0-.54,1.81v8.93h-2.64v-8.84a3.5,3.5,0,0,0-.32-1.74,1.49,1.49,0,0,0-1.44-.76,1.93,1.93,0,0,0-1.54.56,2.85,2.85,0,0,0-.54,1.86v8.91H471Z"/><path class="cls-1" d="M490,813.42c0-3.92,1.66-7.12,5.29-7.12s5.26,3.21,5.26,7.15-1.66,7.12-5.26,7.12-5.29-3.21-5.29-7.12Zm2.79,0c0,3.35.91,4.63,2.52,4.63s2.45-1.27,2.45-4.65-.91-4.65-2.52-4.65-2.45,1.25-2.45,4.65Z"/><path class="cls-1" d="M503.85,806.59h2.33c0,.56,0,1.1,0,1.69a3.2,3.2,0,0,1,3.25-2c2.25,0,3.7,1.25,3.7,4.23v9.74h-2.64v-8.88c0-1.1-.22-2.45-1.84-2.45-1.27,0-2.13.78-2.13,2.57v8.76h-2.64Z"/><path class="cls-1" d="M524.95,809.09h-1.64v-2.5h1.64v-3.25h2.64v3.25h1.62v2.5h-1.62v11.19h-2.64Z"/><path class="cls-1" d="M534,814.35c0,1.91.66,3.74,2.42,3.74a2.24,2.24,0,0,0,2.2-2.08h2.62a5.56,5.56,0,0,1-1.86,3.6,4.9,4.9,0,0,1-3,1c-3.65,0-5.26-3.33-5.26-7.12,0-4.06,1.79-7.15,5.24-7.15a4.33,4.33,0,0,1,3.87,2.08c1.05,1.71,1.15,3.92,1.1,6Zm5.31-13.51,1,2.13-5.6,2.67-.93-1.74Zm-.59,11.23c0-1.57-.56-3.57-2.33-3.57-1.44,0-2.4,1.35-2.4,3.57Z"/><path class="cls-1" d="M545,802.16h2.64v18.11H545Z"/><path class="cls-1" d="M554.16,814.35c0,1.91.66,3.74,2.42,3.74a2.24,2.24,0,0,0,2.2-2.08h2.62a5.57,5.57,0,0,1-1.86,3.6,4.9,4.9,0,0,1-3,1c-3.65,0-5.26-3.33-5.26-7.12,0-4.06,1.79-7.15,5.24-7.15a4.33,4.33,0,0,1,3.87,2.08c1.05,1.71,1.15,3.92,1.1,6Zm5.31-13.51,1,2.13-5.6,2.67L554,803.9Zm-.59,11.23c0-1.57-.56-3.57-2.33-3.57-1.44,0-2.4,1.35-2.4,3.57Z"/><path class="cls-1" d="M564.9,806.59h2.42v1.79a3,3,0,0,1,3-2.08c2.57,0,4.43,2.45,4.43,7.15,0,4.45-1.59,7.12-4.43,7.12a2.91,2.91,0,0,1-2.77-1.86v6.17H564.9Zm7.2,6.83c0-3.06-.81-4.48-2.3-4.48a1.83,1.83,0,0,0-1.62.93c-.49.66-.64,1.54-.64,3.57s.15,2.89.64,3.55a1.81,1.81,0,0,0,1.62,1c1.49,0,2.3-1.44,2.3-4.5Z"/><path class="cls-1" d="M578,802.16h2.64v4.21c0,.54,0,1,0,1.59.39-1,1.25-1.67,2.91-1.67a3.45,3.45,0,0,1,2.79,1.15,4.76,4.76,0,0,1,.93,3.23v9.59h-2.64v-8.81a3.18,3.18,0,0,0-.42-1.86,1.55,1.55,0,0,0-1.4-.66,1.9,1.9,0,0,0-1.57.64,2.73,2.73,0,0,0-.59,2v8.69H578Z"/><path class="cls-1" d="M590.52,813.42c0-3.92,1.66-7.12,5.29-7.12s5.26,3.21,5.26,7.15-1.66,7.12-5.26,7.12-5.29-3.21-5.29-7.12Zm2.79,0c0,3.35.91,4.63,2.52,4.63s2.45-1.27,2.45-4.65-.91-4.65-2.52-4.65-2.45,1.25-2.45,4.65Z"/><path class="cls-1" d="M604.35,806.59h2.33c0,.56,0,1.1,0,1.69a3.2,3.2,0,0,1,3.25-2c2.25,0,3.7,1.25,3.7,4.23v9.74H611v-8.88c0-1.1-.22-2.45-1.84-2.45-1.27,0-2.13.78-2.13,2.57v8.76h-2.64Z"/><path class="cls-1" d="M619.79,814.35c0,1.91.66,3.74,2.42,3.74a2.24,2.24,0,0,0,2.2-2.08H627a5.57,5.57,0,0,1-1.86,3.6,4.9,4.9,0,0,1-3,1c-3.65,0-5.26-3.33-5.26-7.12,0-4.06,1.79-7.15,5.24-7.15a4.33,4.33,0,0,1,3.87,2.08c1.05,1.71,1.15,3.92,1.1,6Zm4.72-2.28c0-1.57-.56-3.57-2.33-3.57-1.44,0-2.4,1.35-2.4,3.57Z"/><path class="cls-1" d="M638,806.59h2.42v1.79a3,3,0,0,1,3-2.08c2.57,0,4.43,2.45,4.43,7.15,0,4.45-1.59,7.12-4.43,7.12a2.91,2.91,0,0,1-2.77-1.86v6.17H638Zm7.2,6.83c0-3.06-.81-4.48-2.3-4.48a1.83,1.83,0,0,0-1.62.93c-.49.66-.64,1.54-.64,3.57s.15,2.89.64,3.55a1.81,1.81,0,0,0,1.62,1c1.49,0,2.3-1.44,2.3-4.5Z"/><path class="cls-1" d="M650.4,813.42c0-3.92,1.66-7.12,5.29-7.12s5.26,3.21,5.26,7.15-1.66,7.12-5.26,7.12-5.29-3.21-5.29-7.12Zm2.79,0c0,3.35.91,4.63,2.52,4.63s2.45-1.27,2.45-4.65-.91-4.65-2.52-4.65-2.45,1.25-2.45,4.65Z"/><path class="cls-1" d="M664.22,806.59h2.42c0,.83,0,1.52,0,2.2.56-2.08,2-2.5,3.55-2.5v3.21a2,2,0,0,0-1.13-.32c-1.2,0-2.18,1.17-2.18,3.35v7.73h-2.64Z"/><path class="cls-1" d="M673.42,809.09h-1.64v-2.5h1.64v-3.25h2.64v3.25h1.62v2.5h-1.62v11.19h-2.64Z"/><path class="cls-1" d="M689.35,820.27h-2.42c0-.73,0-1.27,0-1.79a3.09,3.09,0,0,1-3,2.08c-2.57,0-4.43-2.45-4.43-7.12,0-4.48,1.59-7.15,4.43-7.15a3,3,0,0,1,3,2.15c0-.61,0-1.17,0-1.86h2.42Zm-7.2-6.8c0,3,.83,4.48,2.3,4.48a1.84,1.84,0,0,0,1.69-1c.49-.66.56-1.54.56-3.55s-.07-2.91-.56-3.57a1.87,1.87,0,0,0-1.69-.93c-1.47,0-2.3,1.42-2.3,4.5Z"/><path class="cls-1" d="M693.32,802.16H696v6.22a2.75,2.75,0,0,1,2.77-2.08c2.84,0,4.43,2.67,4.43,7.12,0,4.7-1.86,7.15-4.43,7.15a3,3,0,0,1-3-2.13v1.84h-2.42Zm7.2,11.26c0-2.77-.69-4.48-2.28-4.48-2,0-2.28,2.18-2.28,4.5s.32,4.5,2.28,4.5c1.59,0,2.28-1.74,2.28-4.5Z"/><path class="cls-1" d="M706.72,802.16h2.64v18.11h-2.64Z"/><path class="cls-1" d="M715.88,814.35c0,1.91.66,3.74,2.42,3.74a2.24,2.24,0,0,0,2.2-2.08h2.62a5.57,5.57,0,0,1-1.86,3.6,4.9,4.9,0,0,1-3,1c-3.65,0-5.26-3.33-5.26-7.12,0-4.06,1.79-7.15,5.24-7.15a4.33,4.33,0,0,1,3.87,2.08c1.05,1.71,1.15,3.92,1.1,6Zm4.72-2.28c0-1.57-.56-3.57-2.33-3.57-1.44,0-2.4,1.35-2.4,3.57Z"/><path class="cls-1" d="M729.46,820.27h-2.64V817h2.64Z"/><path class="cls-1" d="M1116.57,419.95a6.72,6.72,0,0,1-.42,2.47,4.13,4.13,0,0,1-1.84,2,5.27,5.27,0,0,1-2.62.66c-2.74,0-4.75-1.57-4.87-4.58,0-.29,0-.61,0-.91h3c0,.1,0,.22,0,.34.15,2,.91,2.37,1.91,2.37a1.63,1.63,0,0,0,1.52-.86,4.27,4.27,0,0,0,.34-2v-12.8h3Z"/><path class="cls-1" d="M1123,418.8c0,1.91.66,3.74,2.42,3.74a2.24,2.24,0,0,0,2.2-2.08h2.62a5.56,5.56,0,0,1-1.86,3.6,4.9,4.9,0,0,1-3,1c-3.65,0-5.26-3.33-5.26-7.12,0-4.06,1.79-7.15,5.24-7.15a4.33,4.33,0,0,1,3.87,2.08c1.05,1.71,1.15,3.92,1.1,6Zm4.72-2.28c0-1.57-.56-3.57-2.33-3.57-1.44,0-2.4,1.35-2.4,3.57Z"/><path class="cls-1" d="M1141.25,411h2.52c0,.61,0,1.2,0,1.84a2.85,2.85,0,0,1,3-2.13,3,3,0,0,1,2.13.73,2.68,2.68,0,0,1,.68,1.15,3,3,0,0,1,1-1.22,4.34,4.34,0,0,1,2.35-.66,3.68,3.68,0,0,1,3.13,1.49,5.5,5.5,0,0,1,.86,3.23v9.25h-2.64v-8.86a3.34,3.34,0,0,0-.32-1.71,1.52,1.52,0,0,0-1.47-.76,1.84,1.84,0,0,0-1.54.59,2.7,2.7,0,0,0-.54,1.81v8.93h-2.64v-8.84a3.51,3.51,0,0,0-.32-1.74,1.49,1.49,0,0,0-1.44-.76,1.93,1.93,0,0,0-1.54.56,2.85,2.85,0,0,0-.54,1.86v8.91h-2.67Z"/><path class="cls-1" d="M1163.2,418.8c0,1.91.66,3.74,2.42,3.74a2.24,2.24,0,0,0,2.2-2.08h2.62a5.56,5.56,0,0,1-1.86,3.6,4.9,4.9,0,0,1-3,1c-3.65,0-5.26-3.33-5.26-7.12,0-4.06,1.79-7.15,5.24-7.15a4.33,4.33,0,0,1,3.87,2.08c1.05,1.71,1.15,3.92,1.1,6Zm4.72-2.28c0-1.57-.56-3.57-2.33-3.57-1.44,0-2.4,1.35-2.4,3.57Z"/><path class="cls-1" d="M1181.85,413.54h-1.64V411h1.64v-3.25h2.64V411h1.62v2.5h-1.62v11.19h-2.64Z"/><path class="cls-1" d="M1189.19,406.61h2.64v2.62h-2.64Zm0,4.43h2.64v13.68h-2.64Z"/><path class="cls-1" d="M1198.34,418.8c0,1.91.66,3.74,2.42,3.74a2.24,2.24,0,0,0,2.2-2.08h2.62a5.56,5.56,0,0,1-1.86,3.6,4.9,4.9,0,0,1-3,1c-3.65,0-5.26-3.33-5.26-7.12,0-4.06,1.79-7.15,5.24-7.15a4.33,4.33,0,0,1,3.87,2.08c1.05,1.71,1.15,3.92,1.1,6Zm4.72-2.28c0-1.57-.56-3.57-2.32-3.57-1.45,0-2.4,1.35-2.4,3.57Z"/><path class="cls-1" d="M1209.08,411h2.33c0,.56,0,1.1,0,1.69a3.2,3.2,0,0,1,3.26-2c2.25,0,3.7,1.25,3.7,4.23v9.74h-2.64v-8.88c0-1.1-.22-2.45-1.83-2.45-1.27,0-2.13.78-2.13,2.57v8.76h-2.64Z"/><path class="cls-1" d="M1227.56,414.91c0-1.3-.64-1.86-1.74-1.86a1.36,1.36,0,0,0-1.47,1.42c0,1.32,1.44,1.57,3,2.06a4,4,0,0,1,3.16,4.16A4.3,4.3,0,0,1,1226,425c-2.57,0-4.5-1.44-4.72-4.53h2.64a2,2,0,0,0,2.13,2.13,1.6,1.6,0,0,0,1.71-1.76c0-1.37-1.42-1.69-3.06-2.23s-3.13-1.44-3.13-4.06c0-2.23,1.59-3.82,4.36-3.82s4.14,1.54,4.28,4.16Z"/><path class="cls-1" d="M1250.31,424.72h-2.42c0-.81,0-1.4,0-2a3,3,0,0,1-3,2.28c-2.57,0-4.43-2.45-4.43-7.12,0-4.48,1.59-7.15,4.43-7.15a2.81,2.81,0,0,1,2.79,2c0-.54,0-1.08,0-1.69v-4.43h2.64Zm-7.2-6.83c0,3.06.83,4.48,2.3,4.48a1.87,1.87,0,0,0,1.69-.93c.49-.69.56-1.54.56-3.57s-.07-2.89-.56-3.55a1.84,1.84,0,0,0-1.69-1c-1.47,0-2.3,1.44-2.3,4.5Z"/><path class="cls-1" d="M1254.28,411h2.42c0,.83,0,1.52,0,2.2.56-2.08,2-2.5,3.55-2.5V414a2,2,0,0,0-1.12-.32c-1.2,0-2.18,1.17-2.18,3.35v7.73h-2.64Z"/><path class="cls-1" d="M1261.86,417.87c0-3.92,1.66-7.12,5.29-7.12s5.26,3.21,5.26,7.15-1.66,7.12-5.26,7.12-5.29-3.21-5.29-7.12Zm2.79,0c0,3.35.91,4.63,2.52,4.63s2.45-1.27,2.45-4.65-.91-4.65-2.52-4.65-2.45,1.25-2.45,4.65Z"/><path class="cls-1" d="M1276,406.61h2.64v2.62H1276Zm0,4.43h2.64v13.68H1276Z"/><path class="cls-1" d="M1283.35,413.54h-1.64V411h1.64v-3.25H1286V411h1.62v2.5H1286v11.19h-2.64Z"/><path class="cls-1" d="M1293.53,424.72h-2.64v-3.23h2.64Z"/><path class="cls-1" d="M1116.57,525.5a6.72,6.72,0,0,1-.42,2.47,4.13,4.13,0,0,1-1.84,2,5.27,5.27,0,0,1-2.62.66c-2.74,0-4.75-1.57-4.87-4.58,0-.29,0-.61,0-.91h3c0,.1,0,.22,0,.34.15,2,.91,2.37,1.91,2.37a1.63,1.63,0,0,0,1.52-.86,4.27,4.27,0,0,0,.34-2v-12.8h3Z"/><path class="cls-1" d="M1123,524.35c0,1.91.66,3.74,2.42,3.74a2.24,2.24,0,0,0,2.2-2.08h2.62a5.56,5.56,0,0,1-1.86,3.6,4.9,4.9,0,0,1-3,1c-3.65,0-5.26-3.33-5.26-7.12,0-4.06,1.79-7.15,5.24-7.15a4.33,4.33,0,0,1,3.87,2.08c1.05,1.71,1.15,3.92,1.1,6Zm4.72-2.28c0-1.57-.56-3.57-2.33-3.57-1.44,0-2.4,1.35-2.4,3.57Z"/><path class="cls-1" d="M1141.16,516.59h2.42c0,.83,0,1.52,0,2.2.56-2.08,2-2.5,3.55-2.5v3.21a2,2,0,0,0-1.13-.32c-1.2,0-2.18,1.17-2.18,3.35v7.73h-2.64Z"/><path class="cls-1" d="M1151.68,524.35c0,1.91.66,3.74,2.42,3.74a2.24,2.24,0,0,0,2.2-2.08h2.62a5.56,5.56,0,0,1-1.86,3.6,4.9,4.9,0,0,1-3,1c-3.65,0-5.26-3.33-5.26-7.12,0-4.06,1.79-7.15,5.24-7.15a4.33,4.33,0,0,1,3.87,2.08c1.05,1.71,1.15,3.92,1.1,6Zm4.72-2.28c0-1.57-.56-3.57-2.32-3.57-1.44,0-2.4,1.35-2.4,3.57Z"/><path class="cls-1" d="M1171.57,530.07a5.16,5.16,0,0,1-1.22,3.72,4.78,4.78,0,0,1-3.67,1.37,4.5,4.5,0,0,1-4.7-4h2.77a1.76,1.76,0,0,0,.56,1.08,2,2,0,0,0,1.39.44c1.44,0,2.25-.81,2.28-2.77v-1.37a2.67,2.67,0,0,1-2.81,2c-3,0-4.43-2.67-4.43-7.12s1.42-7.15,4.43-7.15a3.16,3.16,0,0,1,3.16,2.13c0-.59,0-1.17,0-1.84h2.28Zm-7.2-6.61c0,3,.83,4.48,2.3,4.48a1.84,1.84,0,0,0,1.69-1c.49-.66.56-1.54.56-3.55s-.07-2.91-.56-3.57a1.87,1.87,0,0,0-1.69-.93c-1.47,0-2.3,1.42-2.3,4.5Z"/><path class="cls-1" d="M1184.69,530.27h-2.42c0-.73,0-1.27,0-1.79a3.09,3.09,0,0,1-3,2.08c-2.57,0-4.43-2.45-4.43-7.12,0-4.48,1.59-7.15,4.43-7.15a3,3,0,0,1,3,2.15c0-.61,0-1.17,0-1.86h2.42Zm-7.2-6.8c0,3,.83,4.48,2.3,4.48a1.84,1.84,0,0,0,1.69-1c.49-.66.56-1.54.56-3.55s-.07-2.91-.56-3.57a1.87,1.87,0,0,0-1.69-.93c-1.47,0-2.3,1.42-2.3,4.5Z"/><path class="cls-1" d="M1188.65,516.59h2.42c0,.83,0,1.52,0,2.2.56-2.08,2-2.5,3.55-2.5v3.21a2,2,0,0,0-1.12-.32c-1.2,0-2.18,1.17-2.18,3.35v7.73h-2.64Z"/><path class="cls-1" d="M1206.07,530.27h-2.42c0-.81,0-1.4,0-2a3,3,0,0,1-3,2.28c-2.57,0-4.43-2.45-4.43-7.12,0-4.48,1.59-7.15,4.43-7.15a2.81,2.81,0,0,1,2.79,2c0-.54,0-1.08,0-1.69v-4.43h2.64Zm-7.2-6.83c0,3.06.83,4.48,2.3,4.48a1.87,1.87,0,0,0,1.69-.93c.49-.69.56-1.54.56-3.57s-.07-2.89-.56-3.55a1.84,1.84,0,0,0-1.69-1c-1.47,0-2.3,1.44-2.3,4.5Z"/><path class="cls-1" d="M1212.29,524.35c0,1.91.66,3.74,2.42,3.74a2.24,2.24,0,0,0,2.2-2.08h2.62a5.57,5.57,0,0,1-1.86,3.6,4.9,4.9,0,0,1-3,1c-3.65,0-5.26-3.33-5.26-7.12,0-4.06,1.79-7.15,5.24-7.15a4.33,4.33,0,0,1,3.87,2.08c1.05,1.71,1.15,3.92,1.1,6Zm4.72-2.28c0-1.57-.56-3.57-2.33-3.57-1.44,0-2.4,1.35-2.4,3.57Z"/><path class="cls-1" d="M1230.76,512.16h2.64v18.11h-2.64Z"/><path class="cls-1" d="M1239.91,524.35c0,1.91.66,3.74,2.42,3.74a2.24,2.24,0,0,0,2.2-2.08h2.62a5.56,5.56,0,0,1-1.86,3.6,4.9,4.9,0,0,1-3,1c-3.65,0-5.26-3.33-5.26-7.12,0-4.06,1.79-7.15,5.24-7.15a4.33,4.33,0,0,1,3.87,2.08c1.05,1.71,1.15,3.92,1.1,6Zm4.72-2.28c0-1.57-.56-3.57-2.33-3.57-1.44,0-2.4,1.35-2.4,3.57Z"/><path class="cls-1" d="M1258.09,516.59h2.42c0,.83,0,1.52,0,2.2.56-2.08,2-2.5,3.55-2.5v3.21a2,2,0,0,0-1.12-.32c-1.2,0-2.18,1.17-2.18,3.35v7.73h-2.64Z"/><path class="cls-1" d="M1268.61,524.35c0,1.91.66,3.74,2.42,3.74a2.24,2.24,0,0,0,2.2-2.08h2.62a5.57,5.57,0,0,1-1.86,3.6,4.9,4.9,0,0,1-3,1c-3.65,0-5.26-3.33-5.26-7.12,0-4.06,1.79-7.15,5.24-7.15a4.33,4.33,0,0,1,3.87,2.08c1.05,1.71,1.15,3.92,1.1,6Zm4.72-2.28c0-1.57-.56-3.57-2.33-3.57-1.44,0-2.4,1.35-2.4,3.57Z"/><path class="cls-1" d="M1288.29,525.28c-.1,2.79-1.54,5.29-4.43,5.29-3.4,0-5.29-2.86-5.29-7.12,0-4.53,2.06-7.15,5.26-7.15,2.91,0,4.38,2.47,4.43,5.34h-2.74c-.1-2.06-.86-2.84-1.88-2.84a1.71,1.71,0,0,0-1.66,1.08,7.81,7.81,0,0,0-.61,3.57c0,3.28.83,4.65,2.3,4.65,1.22,0,1.79-1.2,1.88-2.81Z"/><path class="cls-1" d="M1291.2,516.59h2.42c0,.83,0,1.52,0,2.2.56-2.08,2-2.5,3.55-2.5v3.21a2,2,0,0,0-1.12-.32c-1.2,0-2.18,1.17-2.18,3.35v7.73h-2.64Z"/><path class="cls-1" d="M1309,530.27h-2.42c0-.59,0-1.17,0-1.81a3,3,0,0,1-3.18,2.11c-2.23,0-3.67-1.25-3.67-4.23v-9.74h2.64v8.88c0,1.1.22,2.47,1.84,2.47,1.25,0,2.13-.81,2.13-2.59v-8.76H1309Z"/><path class="cls-1" d="M1313.46,519.08h-1.64v-2.5h1.64v-3.25h2.64v3.25h1.62v2.5h-1.62v11.19h-2.64Z"/><path class="cls-1" d="M1322.49,524.35c0,1.91.66,3.74,2.42,3.74a2.24,2.24,0,0,0,2.2-2.08h2.62a5.56,5.56,0,0,1-1.86,3.6,4.9,4.9,0,0,1-3,1c-3.65,0-5.26-3.33-5.26-7.12,0-4.06,1.79-7.15,5.24-7.15a4.33,4.33,0,0,1,3.87,2.08c1.05,1.71,1.15,3.92,1.1,6Zm4.72-2.28c0-1.57-.56-3.57-2.33-3.57-1.44,0-2.4,1.35-2.4,3.57Z"/><path class="cls-1" d="M1342.46,530.27H1340c0-.59,0-1.17,0-1.81a3,3,0,0,1-3.18,2.11c-2.23,0-3.67-1.25-3.67-4.23v-9.74h2.64v8.88c0,1.1.22,2.47,1.83,2.47,1.25,0,2.13-.81,2.13-2.59v-8.76h2.64Z"/><path class="cls-1" d="M1346.42,516.59h2.42c0,.83,0,1.52,0,2.2.56-2.08,2-2.5,3.55-2.5v3.21a2,2,0,0,0-1.13-.32c-1.2,0-2.18,1.17-2.18,3.35v7.73h-2.64Z"/><path class="cls-1" d="M1356.92,530.27h-2.64V527h2.64Z"/><path class="cls-1" d="M1116.57,711.41a6.72,6.72,0,0,1-.42,2.47,4.13,4.13,0,0,1-1.84,2,5.27,5.27,0,0,1-2.62.66c-2.74,0-4.75-1.57-4.87-4.58,0-.29,0-.61,0-.91h3c0,.1,0,.22,0,.34.15,2,.91,2.37,1.91,2.37a1.63,1.63,0,0,0,1.52-.86,4.27,4.27,0,0,0,.34-2v-12.8h3Z"/><path class="cls-1" d="M1123,710.26c0,1.91.66,3.74,2.42,3.74a2.24,2.24,0,0,0,2.2-2.08h2.62a5.56,5.56,0,0,1-1.86,3.6,4.9,4.9,0,0,1-3,1c-3.65,0-5.26-3.33-5.26-7.12,0-4.06,1.79-7.15,5.24-7.15a4.33,4.33,0,0,1,3.87,2.08c1.05,1.71,1.15,3.92,1.1,6Zm4.72-2.28c0-1.57-.56-3.57-2.33-3.57-1.44,0-2.4,1.35-2.4,3.57Z"/><path class="cls-1" d="M1146.44,706.36c0-1.3-.64-1.86-1.74-1.86a1.36,1.36,0,0,0-1.47,1.42c0,1.32,1.45,1.57,3,2.06a4,4,0,0,1,3.16,4.16,4.31,4.31,0,0,1-4.55,4.33c-2.57,0-4.5-1.44-4.72-4.53h2.64a2,2,0,0,0,2.13,2.13,1.6,1.6,0,0,0,1.71-1.76c0-1.37-1.42-1.69-3.06-2.23s-3.13-1.44-3.13-4.06c0-2.23,1.59-3.82,4.36-3.82s4.14,1.54,4.28,4.16Z"/><path class="cls-1" d="M1151.92,709.32c0-3.92,1.67-7.12,5.29-7.12s5.26,3.21,5.26,7.15-1.66,7.12-5.26,7.12-5.29-3.21-5.29-7.12Zm2.79,0c0,3.35.91,4.63,2.52,4.63s2.45-1.27,2.45-4.65-.91-4.65-2.52-4.65-2.45,1.25-2.45,4.65Z"/><path class="cls-1" d="M1175,716.18h-2.42c0-.59,0-1.17,0-1.81a3,3,0,0,1-3.18,2.11c-2.23,0-3.67-1.25-3.67-4.23V702.5h2.64v8.88c0,1.1.22,2.47,1.83,2.47,1.25,0,2.13-.81,2.13-2.59V702.5H1175Z"/><path class="cls-1" d="M1178.94,702.5h2.42c0,.83,0,1.52,0,2.2.56-2.08,2-2.5,3.55-2.5v3.21a2,2,0,0,0-1.13-.32c-1.2,0-2.18,1.17-2.18,3.35v7.73h-2.64Z"/><path class="cls-1" d="M1187.84,698.07h2.64v2.62h-2.64Zm0,4.43h2.64v13.68h-2.64Z"/><path class="cls-1" d="M1200,706.36c0-1.3-.64-1.86-1.74-1.86a1.36,1.36,0,0,0-1.47,1.42c0,1.32,1.44,1.57,3,2.06a4,4,0,0,1,3.16,4.16,4.31,4.31,0,0,1-4.55,4.33c-2.57,0-4.5-1.44-4.72-4.53h2.64a2,2,0,0,0,2.13,2.13,1.6,1.6,0,0,0,1.71-1.76c0-1.37-1.42-1.69-3.06-2.23S1194,708.64,1194,706c0-2.23,1.59-3.82,4.36-3.82s4.14,1.54,4.28,4.16Z"/><path class="cls-1" d="M1209,716.18h-2.64v-3.23H1209Z"/><path class="cls-1" d="M1116.57,803.6a6.72,6.72,0,0,1-.42,2.47,4.13,4.13,0,0,1-1.84,2,5.27,5.27,0,0,1-2.62.66c-2.74,0-4.75-1.57-4.87-4.58,0-.29,0-.61,0-.91h3c0,.1,0,.22,0,.34.15,2,.91,2.37,1.91,2.37a1.63,1.63,0,0,0,1.52-.86,4.27,4.27,0,0,0,.34-2v-12.8h3Z"/><path class="cls-1" d="M1123,802.45c0,1.91.66,3.74,2.42,3.74a2.24,2.24,0,0,0,2.2-2.08h2.62a5.57,5.57,0,0,1-1.86,3.6,4.9,4.9,0,0,1-3,1c-3.65,0-5.26-3.33-5.26-7.12,0-4.06,1.79-7.15,5.24-7.15a4.33,4.33,0,0,1,3.87,2.08c1.05,1.71,1.15,3.92,1.1,6Zm4.72-2.28c0-1.57-.56-3.57-2.33-3.57-1.44,0-2.4,1.35-2.4,3.57Z"/><path class="cls-1" d="M1141.16,794.7h2.42v1.79a3,3,0,0,1,3-2.08c2.57,0,4.43,2.45,4.43,7.15,0,4.45-1.59,7.12-4.43,7.12a2.91,2.91,0,0,1-2.77-1.86V813h-2.64Zm7.2,6.83c0-3.06-.81-4.48-2.3-4.48a1.83,1.83,0,0,0-1.62.93c-.49.66-.64,1.54-.64,3.57s.15,2.89.64,3.55a1.81,1.81,0,0,0,1.62,1c1.49,0,2.3-1.44,2.3-4.5Z"/><path class="cls-1" d="M1163.43,808.38H1161c0-.73,0-1.27,0-1.79a3.09,3.09,0,0,1-3,2.08c-2.57,0-4.43-2.45-4.43-7.12,0-4.48,1.59-7.15,4.43-7.15a3,3,0,0,1,3,2.15c0-.61,0-1.17,0-1.86h2.42Zm-7.2-6.8c0,3,.83,4.48,2.3,4.48a1.84,1.84,0,0,0,1.69-1c.49-.66.56-1.54.56-3.55s-.07-2.91-.56-3.57a1.86,1.86,0,0,0-1.69-.93c-1.47,0-2.3,1.42-2.3,4.5Z"/><path class="cls-1" d="M1167.39,794.7h2.42c0,.83,0,1.52,0,2.2.56-2.08,2-2.5,3.55-2.5v3.21a2,2,0,0,0-1.12-.32c-1.2,0-2.18,1.17-2.18,3.35v7.73h-2.64Z"/><path class="cls-1" d="M1176.29,790.27h2.64v18.11h-2.64Z"/><path class="cls-1" d="M1185.45,802.45c0,1.91.66,3.74,2.42,3.74a2.24,2.24,0,0,0,2.2-2.08h2.62a5.56,5.56,0,0,1-1.86,3.6,4.9,4.9,0,0,1-3,1c-3.65,0-5.26-3.33-5.26-7.12,0-4.06,1.79-7.15,5.24-7.15a4.33,4.33,0,0,1,3.87,2.08c1.05,1.71,1.15,3.92,1.1,6Zm4.72-2.28c0-1.57-.56-3.57-2.33-3.57-1.44,0-2.4,1.35-2.4,3.57Z"/><path class="cls-1" d="M1203.92,797.19h-1.37v-2.5h1.37V794c0-3.79,3.21-4,4.65-4v2.3c-.93,0-2,.24-2,2v.46h2v2.5h-2v11.19h-2.64Z"/><path class="cls-1" d="M1210.18,801.52c0-3.92,1.67-7.12,5.29-7.12s5.26,3.21,5.26,7.15-1.66,7.12-5.26,7.12-5.29-3.21-5.29-7.12Zm2.79,0c0,3.35.91,4.63,2.52,4.63s2.45-1.27,2.45-4.65-.91-4.65-2.52-4.65-2.45,1.25-2.45,4.65Z"/><path class="cls-1" d="M1224,794.7h2.42c0,.83,0,1.52,0,2.2.56-2.08,2-2.5,3.55-2.5v3.21a2,2,0,0,0-1.13-.32c-1.2,0-2.18,1.17-2.18,3.35v7.73H1224Z"/><path class="cls-1" d="M1233.21,797.19h-1.64v-2.5h1.64v-3.25h2.64v3.25h1.62v2.5h-1.62v11.19h-2.64Z"/><path class="cls-1" d="M1247.69,794.7h2.42v1.79a3,3,0,0,1,3-2.08c2.57,0,4.43,2.45,4.43,7.15,0,4.45-1.59,7.12-4.43,7.12a2.91,2.91,0,0,1-2.77-1.86V813h-2.64Zm7.2,6.83c0-3.06-.81-4.48-2.3-4.48a1.83,1.83,0,0,0-1.62.93c-.49.66-.64,1.54-.64,3.57s.15,2.89.64,3.55a1.81,1.81,0,0,0,1.62,1c1.49,0,2.3-1.44,2.3-4.5Z"/><path class="cls-1" d="M1260.12,801.52c0-3.92,1.66-7.12,5.29-7.12s5.26,3.21,5.26,7.15-1.66,7.12-5.26,7.12-5.29-3.21-5.29-7.12Zm2.79,0c0,3.35.91,4.63,2.52,4.63s2.45-1.27,2.45-4.65-.91-4.65-2.52-4.65-2.45,1.25-2.45,4.65Z"/><path class="cls-1" d="M1283.17,808.38h-2.42c0-.59,0-1.17,0-1.81a3,3,0,0,1-3.18,2.11c-2.23,0-3.67-1.25-3.67-4.23V794.7h2.64v8.88c0,1.1.22,2.47,1.84,2.47,1.25,0,2.13-.81,2.13-2.59V794.7h2.64Z"/><path class="cls-1" d="M1287.14,794.7h2.42c0,.83,0,1.52,0,2.2.56-2.08,2-2.5,3.55-2.5v3.21a2,2,0,0,0-1.13-.32c-1.2,0-2.18,1.17-2.18,3.35v7.73h-2.64Z"/><path class="cls-1" d="M1303.28,794.7h2.52c0,.61,0,1.2,0,1.84a2.85,2.85,0,0,1,3-2.13,3,3,0,0,1,2.13.73,2.68,2.68,0,0,1,.69,1.15,3,3,0,0,1,1-1.22,4.33,4.33,0,0,1,2.35-.66,3.68,3.68,0,0,1,3.13,1.49,5.5,5.5,0,0,1,.86,3.23v9.25h-2.64v-8.86a3.35,3.35,0,0,0-.32-1.71,1.52,1.52,0,0,0-1.47-.76,1.84,1.84,0,0,0-1.54.59,2.7,2.7,0,0,0-.54,1.81v8.93h-2.64v-8.84a3.51,3.51,0,0,0-.32-1.74A1.49,1.49,0,0,0,1308,797a1.92,1.92,0,0,0-1.54.56,2.84,2.84,0,0,0-.54,1.86v8.91h-2.67Z"/><path class="cls-1" d="M1325.23,802.45c0,1.91.66,3.74,2.42,3.74a2.24,2.24,0,0,0,2.2-2.08h2.62a5.56,5.56,0,0,1-1.86,3.6,4.9,4.9,0,0,1-3,1c-3.65,0-5.26-3.33-5.26-7.12,0-4.06,1.79-7.15,5.24-7.15a4.33,4.33,0,0,1,3.87,2.08c1.05,1.71,1.15,3.92,1.1,6Zm4.72-2.28c0-1.57-.56-3.57-2.33-3.57-1.44,0-2.4,1.35-2.4,3.57Z"/><path class="cls-1" d="M1343.71,797.19h-1.37v-2.5h1.37V794c0-3.79,3.21-4,4.65-4v2.3c-.93,0-2,.24-2,2v.46h2v2.5h-2v11.19h-2.64Z"/><path class="cls-1" d="M1359.81,808.38h-2.42c0-.73,0-1.27,0-1.79a3.09,3.09,0,0,1-3,2.08c-2.57,0-4.43-2.45-4.43-7.12,0-4.48,1.59-7.15,4.43-7.15a3,3,0,0,1,3,2.15c0-.61,0-1.17,0-1.86h2.42Zm-7.2-6.8c0,3,.83,4.48,2.3,4.48a1.84,1.84,0,0,0,1.69-1c.49-.66.56-1.54.56-3.55s-.07-2.91-.56-3.57a1.87,1.87,0,0,0-1.69-.93c-1.47,0-2.3,1.42-2.3,4.5Z"/><path class="cls-1" d="M1364.07,790.27h2.64v2.62h-2.64Zm0,4.43h2.64v13.68h-2.64Z"/><path class="cls-1" d="M1371,794.7h2.42c0,.83,0,1.52,0,2.2.56-2.08,2-2.5,3.55-2.5v3.21a2,2,0,0,0-1.13-.32c-1.2,0-2.18,1.17-2.18,3.35v7.73H1371Z"/><path class="cls-1" d="M1381.49,802.45c0,1.91.66,3.74,2.42,3.74a2.24,2.24,0,0,0,2.2-2.08h2.62a5.56,5.56,0,0,1-1.86,3.6,4.9,4.9,0,0,1-3,1c-3.65,0-5.26-3.33-5.26-7.12,0-4.06,1.79-7.15,5.24-7.15a4.33,4.33,0,0,1,3.87,2.08c1.05,1.71,1.15,3.92,1.1,6Zm4.72-2.28c0-1.57-.56-3.57-2.33-3.57-1.44,0-2.4,1.35-2.4,3.57Z"/><path class="cls-1" d="M1408.6,803.38c-.1,2.79-1.54,5.29-4.43,5.29-3.4,0-5.29-2.86-5.29-7.12,0-4.53,2.06-7.15,5.26-7.15,2.91,0,4.38,2.47,4.43,5.34h-2.74c-.1-2.06-.86-2.84-1.88-2.84a1.71,1.71,0,0,0-1.66,1.08,7.81,7.81,0,0,0-.61,3.57c0,3.28.83,4.65,2.3,4.65,1.22,0,1.79-1.2,1.88-2.81Z"/><path class="cls-1" d="M1410.82,801.52c0-3.92,1.67-7.12,5.29-7.12s5.26,3.21,5.26,7.15-1.66,7.12-5.26,7.12-5.29-3.21-5.29-7.12Zm2.79,0c0,3.35.91,4.63,2.52,4.63s2.45-1.27,2.45-4.65-.91-4.65-2.52-4.65-2.45,1.25-2.45,4.65Z"/><path class="cls-1" d="M1424.75,794.7h2.52c0,.61,0,1.2,0,1.84a2.85,2.85,0,0,1,3-2.13,3,3,0,0,1,2.13.73,2.66,2.66,0,0,1,.69,1.15,3,3,0,0,1,1-1.22,4.33,4.33,0,0,1,2.35-.66,3.67,3.67,0,0,1,3.13,1.49,5.5,5.5,0,0,1,.86,3.23v9.25h-2.64v-8.86a3.35,3.35,0,0,0-.32-1.71A1.52,1.52,0,0,0,1436,797a1.85,1.85,0,0,0-1.54.59,2.71,2.71,0,0,0-.54,1.81v8.93h-2.64v-8.84a3.5,3.5,0,0,0-.32-1.74,1.49,1.49,0,0,0-1.44-.76,1.92,1.92,0,0,0-1.54.56,2.84,2.84,0,0,0-.54,1.86v8.91h-2.67Z"/><path class="cls-1" d="M1444.45,794.7h2.42v1.79a3,3,0,0,1,3-2.08c2.57,0,4.43,2.45,4.43,7.15,0,4.45-1.59,7.12-4.43,7.12a2.91,2.91,0,0,1-2.77-1.86V813h-2.64Zm7.2,6.83c0-3.06-.81-4.48-2.3-4.48a1.83,1.83,0,0,0-1.62.93c-.49.66-.64,1.54-.64,3.57s.15,2.89.64,3.55a1.81,1.81,0,0,0,1.62,1c1.49,0,2.3-1.44,2.3-4.5Z"/><path class="cls-1" d="M1457.56,794.7H1460c0,.83,0,1.52,0,2.2.56-2.08,2-2.5,3.55-2.5v3.21a2,2,0,0,0-1.13-.32c-1.2,0-2.18,1.17-2.18,3.35v7.73h-2.64Z"/><path class="cls-1" d="M1468.08,802.45c0,1.91.66,3.74,2.42,3.74a2.24,2.24,0,0,0,2.2-2.08h2.62a5.57,5.57,0,0,1-1.86,3.6,4.9,4.9,0,0,1-3,1c-3.65,0-5.26-3.33-5.26-7.12,0-4.06,1.79-7.15,5.24-7.15a4.33,4.33,0,0,1,3.87,2.08c1.05,1.71,1.15,3.92,1.1,6Zm4.72-2.28c0-1.57-.56-3.57-2.33-3.57-1.44,0-2.4,1.35-2.4,3.57Z"/><path class="cls-1" d="M1478.82,794.7h2.32c0,.56,0,1.1,0,1.69a3.2,3.2,0,0,1,3.25-2c2.25,0,3.7,1.25,3.7,4.23v9.74h-2.64v-8.88c0-1.1-.22-2.45-1.83-2.45-1.27,0-2.13.78-2.13,2.57v8.76h-2.64Z"/><path class="cls-1" d="M1501.17,808.38h-2.42c0-.81,0-1.4,0-2a3,3,0,0,1-3,2.28c-2.57,0-4.43-2.45-4.43-7.12,0-4.48,1.59-7.15,4.43-7.15a2.81,2.81,0,0,1,2.79,2c0-.54,0-1.08,0-1.69v-4.43h2.64Zm-7.2-6.83c0,3.06.83,4.48,2.3,4.48a1.87,1.87,0,0,0,1.69-.93c.49-.69.56-1.54.56-3.57s-.07-2.89-.56-3.55a1.84,1.84,0,0,0-1.69-1c-1.47,0-2.3,1.44-2.3,4.5Z"/><path class="cls-1" d="M1505.13,794.7h2.42c0,.83,0,1.52,0,2.2.56-2.08,2-2.5,3.55-2.5v3.21a2,2,0,0,0-1.13-.32c-1.2,0-2.18,1.17-2.18,3.35v7.73h-2.64Z"/><path class="cls-1" d="M1515.65,802.45c0,1.91.66,3.74,2.42,3.74a2.24,2.24,0,0,0,2.2-2.08h2.62a5.57,5.57,0,0,1-1.86,3.6,4.9,4.9,0,0,1-3,1c-3.65,0-5.26-3.33-5.26-7.12,0-4.06,1.79-7.15,5.24-7.15a4.33,4.33,0,0,1,3.87,2.08c1.05,1.71,1.15,3.92,1.1,6Zm4.72-2.28c0-1.57-.56-3.57-2.33-3.57-1.44,0-2.4,1.35-2.4,3.57Z"/><path class="cls-1" d="M1529.23,808.38h-2.64v-3.23h2.64Z"/><path class="cls-1" d="M1116.57,618.45a6.72,6.72,0,0,1-.42,2.47,4.13,4.13,0,0,1-1.84,2,5.27,5.27,0,0,1-2.62.66c-2.74,0-4.75-1.57-4.87-4.58,0-.29,0-.61,0-.91h3c0,.1,0,.22,0,.34.15,2,.91,2.37,1.91,2.37a1.63,1.63,0,0,0,1.52-.86,4.27,4.27,0,0,0,.34-2v-12.8h3Z"/><path class="cls-1" d="M1123,617.3c0,1.91.66,3.74,2.42,3.74a2.24,2.24,0,0,0,2.2-2.08h2.62a5.56,5.56,0,0,1-1.86,3.6,4.9,4.9,0,0,1-3,1c-3.65,0-5.26-3.33-5.26-7.12,0-4.06,1.79-7.15,5.24-7.15a4.33,4.33,0,0,1,3.87,2.08c1.05,1.71,1.15,3.92,1.1,6Zm4.72-2.28c0-1.57-.56-3.57-2.33-3.57-1.44,0-2.4,1.35-2.4,3.57Z"/><path class="cls-1" d="M1150.31,623.22h-2.42c0-.81,0-1.4,0-2a3,3,0,0,1-3,2.28c-2.57,0-4.43-2.45-4.43-7.12,0-4.48,1.59-7.15,4.43-7.15a2.81,2.81,0,0,1,2.79,2c0-.54,0-1.08,0-1.69v-4.43h2.64Zm-7.2-6.83c0,3.06.83,4.48,2.3,4.48a1.87,1.87,0,0,0,1.69-.93c.49-.69.56-1.54.56-3.57s-.07-2.89-.56-3.55a1.84,1.84,0,0,0-1.69-1c-1.47,0-2.3,1.44-2.3,4.5Z"/><path class="cls-1" d="M1156.52,617.3c0,1.91.66,3.74,2.42,3.74a2.24,2.24,0,0,0,2.2-2.08h2.62a5.56,5.56,0,0,1-1.86,3.6,4.9,4.9,0,0,1-3,1c-3.65,0-5.26-3.33-5.26-7.12,0-4.06,1.79-7.15,5.24-7.15a4.33,4.33,0,0,1,3.87,2.08c1.05,1.71,1.15,3.92,1.1,6Zm5.31-13.51,1,2.13-5.6,2.67-.93-1.74Zm-.59,11.23c0-1.57-.56-3.57-2.33-3.57-1.44,0-2.4,1.35-2.4,3.57Z"/><path class="cls-1" d="M1176.2,618.23c-.1,2.79-1.54,5.29-4.43,5.29-3.4,0-5.29-2.86-5.29-7.12,0-4.53,2.06-7.15,5.26-7.15,2.91,0,4.38,2.47,4.43,5.34h-2.74c-.1-2.06-.86-2.84-1.88-2.84a1.71,1.71,0,0,0-1.66,1.08,7.81,7.81,0,0,0-.61,3.57c0,3.28.83,4.65,2.3,4.65,1.22,0,1.79-1.2,1.88-2.81Z"/><path class="cls-1" d="M1179.11,609.54h2.42c0,.83,0,1.52,0,2.2.56-2.08,2-2.5,3.55-2.5v3.21a2,2,0,0,0-1.13-.32c-1.2,0-2.18,1.17-2.18,3.35v7.73h-2.64Z"/><path class="cls-1" d="M1186.69,616.37c0-3.92,1.67-7.12,5.29-7.12s5.26,3.21,5.26,7.15-1.67,7.12-5.26,7.12-5.29-3.21-5.29-7.12Zm2.79,0c0,3.35.91,4.63,2.52,4.63s2.45-1.27,2.45-4.65-.91-4.65-2.52-4.65-2.45,1.25-2.45,4.65Z"/><path class="cls-1" d="M1200.81,605.11h2.64v2.62h-2.64Zm0,4.43h2.64v13.68h-2.64Z"/><path class="cls-1" d="M1213,613.41c0-1.3-.64-1.86-1.74-1.86a1.36,1.36,0,0,0-1.47,1.42c0,1.32,1.45,1.57,3,2.06a4,4,0,0,1,3.16,4.16,4.31,4.31,0,0,1-4.55,4.33c-2.57,0-4.5-1.44-4.72-4.53h2.64a2,2,0,0,0,2.13,2.13,1.6,1.6,0,0,0,1.71-1.76c0-1.37-1.42-1.69-3.06-2.23s-3.13-1.44-3.13-4.06c0-2.23,1.59-3.82,4.36-3.82s4.14,1.54,4.28,4.16Z"/><path class="cls-1" d="M1221.41,617.3c0,1.91.66,3.74,2.42,3.74A2.24,2.24,0,0,0,1226,619h2.62a5.56,5.56,0,0,1-1.86,3.6,4.9,4.9,0,0,1-3,1c-3.65,0-5.26-3.33-5.26-7.12,0-4.06,1.79-7.15,5.24-7.15a4.33,4.33,0,0,1,3.87,2.08c1.05,1.71,1.15,3.92,1.1,6Zm4.72-2.28c0-1.57-.56-3.57-2.33-3.57-1.44,0-2.4,1.35-2.4,3.57Z"/><path class="cls-1" d="M1239.89,605.11h2.64v18.11h-2.64Z"/><path class="cls-1" d="M1249,617.3c0,1.91.66,3.74,2.42,3.74a2.24,2.24,0,0,0,2.2-2.08h2.62a5.56,5.56,0,0,1-1.86,3.6,4.9,4.9,0,0,1-3,1c-3.65,0-5.26-3.33-5.26-7.12,0-4.06,1.79-7.15,5.24-7.15a4.33,4.33,0,0,1,3.87,2.08c1.05,1.71,1.15,3.92,1.1,6Zm4.72-2.28c0-1.57-.56-3.57-2.33-3.57-1.44,0-2.4,1.35-2.4,3.57Z"/><path class="cls-1" d="M1265.07,613.41c0-1.3-.64-1.86-1.74-1.86a1.36,1.36,0,0,0-1.47,1.42c0,1.32,1.44,1.57,3,2.06a4,4,0,0,1,3.16,4.16,4.3,4.3,0,0,1-4.55,4.33c-2.57,0-4.5-1.44-4.72-4.53h2.64a2,2,0,0,0,2.13,2.13,1.6,1.6,0,0,0,1.71-1.76c0-1.37-1.42-1.69-3.06-2.23s-3.13-1.44-3.13-4.06c0-2.23,1.59-3.82,4.36-3.82s4.14,1.54,4.28,4.16Z"/><path class="cls-1" d="M1281.58,623.74c0,2.45-1,4.14-3.35,4.28-.27,0-.56,0-.83,0v-2.52h.2c1-.12,1.35-.86,1.35-2.18v-13.8h2.64Zm-2.64-18.62h2.64v2.62h-2.64Z"/><path class="cls-1" d="M1295,623.22h-2.42c0-.73,0-1.27,0-1.79a3.09,3.09,0,0,1-3,2.08c-2.57,0-4.43-2.45-4.43-7.12,0-4.48,1.59-7.15,4.43-7.15a3,3,0,0,1,3,2.15c0-.61,0-1.17,0-1.86H1295Zm-7.2-6.8c0,3,.83,4.48,2.3,4.48a1.84,1.84,0,0,0,1.69-1c.49-.66.56-1.54.56-3.55s-.07-2.91-.56-3.57a1.86,1.86,0,0,0-1.69-.93c-1.47,0-2.3,1.42-2.3,4.5Z"/><path class="cls-1" d="M1299,609.54h2.52c0,.61,0,1.2,0,1.84a2.85,2.85,0,0,1,3-2.13,3,3,0,0,1,2.13.73,2.68,2.68,0,0,1,.69,1.15,3,3,0,0,1,1-1.22,4.33,4.33,0,0,1,2.35-.66,3.68,3.68,0,0,1,3.13,1.49,5.5,5.5,0,0,1,.86,3.23v9.25H1312v-8.86a3.35,3.35,0,0,0-.32-1.71,1.52,1.52,0,0,0-1.47-.76,1.84,1.84,0,0,0-1.54.59,2.7,2.7,0,0,0-.54,1.81v8.93h-2.64v-8.84a3.51,3.51,0,0,0-.32-1.74,1.49,1.49,0,0,0-1.45-.76,1.92,1.92,0,0,0-1.54.56,2.84,2.84,0,0,0-.54,1.86v8.91H1299Z"/><path class="cls-1" d="M1318.72,605.11h2.64v6.22a2.75,2.75,0,0,1,2.77-2.08c2.84,0,4.43,2.67,4.43,7.12,0,4.7-1.86,7.15-4.43,7.15a3,3,0,0,1-3-2.13v1.84h-2.42Zm7.2,11.26c0-2.77-.68-4.48-2.28-4.48-2,0-2.28,2.18-2.28,4.5s.32,4.5,2.28,4.5c1.59,0,2.28-1.74,2.28-4.5Z"/><path class="cls-1" d="M1334.09,617.3c0,1.91.66,3.74,2.42,3.74a2.24,2.24,0,0,0,2.2-2.08h2.62a5.56,5.56,0,0,1-1.86,3.6,4.9,4.9,0,0,1-3,1c-3.65,0-5.26-3.33-5.26-7.12,0-4.06,1.79-7.15,5.24-7.15a4.33,4.33,0,0,1,3.87,2.08c1.05,1.71,1.15,3.92,1.1,6Zm4.72-2.28c0-1.57-.56-3.57-2.33-3.57-1.44,0-2.4,1.35-2.4,3.57Z"/><path class="cls-1" d="M1350.12,613.41c0-1.3-.64-1.86-1.74-1.86a1.36,1.36,0,0,0-1.47,1.42c0,1.32,1.44,1.57,3,2.06a4,4,0,0,1,3.16,4.16,4.3,4.3,0,0,1-4.55,4.33c-2.57,0-4.5-1.44-4.72-4.53h2.64a2,2,0,0,0,2.13,2.13,1.6,1.6,0,0,0,1.71-1.76c0-1.37-1.42-1.69-3.06-2.23s-3.13-1.44-3.13-4.06c0-2.23,1.59-3.82,4.36-3.82s4.14,1.54,4.28,4.16Z"/><path class="cls-1" d="M1366,617.3c0,1.91.66,3.74,2.42,3.74a2.24,2.24,0,0,0,2.2-2.08h2.62a5.56,5.56,0,0,1-1.86,3.6,4.9,4.9,0,0,1-3,1c-3.65,0-5.26-3.33-5.26-7.12,0-4.06,1.79-7.15,5.24-7.15a4.33,4.33,0,0,1,3.87,2.08c1.05,1.71,1.15,3.92,1.1,6Zm4.72-2.28c0-1.57-.56-3.57-2.33-3.57-1.44,0-2.4,1.35-2.4,3.57Z"/><path class="cls-1" d="M1377.18,612h-1.64v-2.5h1.64v-3.25h2.64v3.25h1.62V612h-1.62v11.19h-2.64Z"/><path class="cls-1" d="M1392,605.11h2.64v18.11H1392Z"/><path class="cls-1" d="M1401.11,617.3c0,1.91.66,3.74,2.42,3.74a2.24,2.24,0,0,0,2.2-2.08h2.62a5.56,5.56,0,0,1-1.86,3.6,4.9,4.9,0,0,1-3,1c-3.65,0-5.26-3.33-5.26-7.12,0-4.06,1.79-7.15,5.24-7.15a4.33,4.33,0,0,1,3.87,2.08c1.05,1.71,1.15,3.92,1.1,6Zm4.72-2.28c0-1.57-.56-3.57-2.33-3.57-1.44,0-2.4,1.35-2.4,3.57Z"/><path class="cls-1" d="M1417.14,613.41c0-1.3-.64-1.86-1.74-1.86a1.36,1.36,0,0,0-1.47,1.42c0,1.32,1.44,1.57,3,2.06a4,4,0,0,1,3.16,4.16,4.31,4.31,0,0,1-4.55,4.33c-2.57,0-4.5-1.44-4.72-4.53h2.64a2,2,0,0,0,2.13,2.13,1.6,1.6,0,0,0,1.71-1.76c0-1.37-1.42-1.69-3.06-2.23s-3.13-1.44-3.13-4.06c0-2.23,1.59-3.82,4.36-3.82s4.14,1.54,4.28,4.16Z"/><path class="cls-1" d="M1430.74,605.11h2.64v6.22a2.75,2.75,0,0,1,2.77-2.08c2.84,0,4.43,2.67,4.43,7.12,0,4.7-1.86,7.15-4.43,7.15a3,3,0,0,1-3-2.13v1.84h-2.42Zm7.2,11.26c0-2.77-.69-4.48-2.28-4.48-2,0-2.28,2.18-2.28,4.5s.32,4.5,2.28,4.5c1.59,0,2.28-1.74,2.28-4.5Z"/><path class="cls-1" d="M1443.86,609.54h2.42c0,.83,0,1.52,0,2.2.56-2.08,2-2.5,3.55-2.5v3.21a2,2,0,0,0-1.13-.32c-1.2,0-2.18,1.17-2.18,3.35v7.73h-2.64Z"/><path class="cls-1" d="M1461.28,623.22h-2.42c0-.73,0-1.27,0-1.79a3.09,3.09,0,0,1-3,2.08c-2.57,0-4.43-2.45-4.43-7.12,0-4.48,1.59-7.15,4.43-7.15a3,3,0,0,1,3,2.15c0-.61,0-1.17,0-1.86h2.42Zm-7.2-6.8c0,3,.83,4.48,2.3,4.48a1.84,1.84,0,0,0,1.69-1c.49-.66.56-1.54.56-3.55s-.07-2.91-.56-3.57a1.87,1.87,0,0,0-1.69-.93c-1.47,0-2.3,1.42-2.3,4.5Z"/><path class="cls-1" d="M1470.53,613.41c0-1.3-.64-1.86-1.74-1.86a1.36,1.36,0,0,0-1.47,1.42c0,1.32,1.45,1.57,3,2.06a4,4,0,0,1,3.16,4.16,4.31,4.31,0,0,1-4.55,4.33c-2.57,0-4.5-1.44-4.72-4.53h2.64a2,2,0,0,0,2.13,2.13,1.6,1.6,0,0,0,1.71-1.76c0-1.37-1.42-1.69-3.06-2.23s-3.13-1.44-3.13-4.06c0-2.23,1.59-3.82,4.36-3.82s4.14,1.54,4.28,4.16Z"/><path class="cls-1" d="M1479.53,623.22h-2.64V620h2.64Z"/></svg>