<svg xmlns="http://www.w3.org/2000/svg" viewBox="0 0 1920 1080"><defs><style>.cls-1{fill:red;}.cls-2{fill:#fff;}</style></defs><title>4c_ui2</title><g id="textes_jeu_4" data-name="textes jeu 4"><path class="cls-1" d="M390,499.17H821.08a0,0,0,0,1,0,0v34a20.59,20.59,0,0,1-20.59,20.59H390a20.59,20.59,0,0,1-20.59-20.59V519.76A20.59,20.59,0,0,1,390,499.17Z"/><path class="cls-1" d="M384.84,712.1H701.08a0,0,0,0,1,0,0v34a20.59,20.59,0,0,1-20.59,20.59H384.84a20.59,20.59,0,0,1-20.59-20.59V732.69A20.59,20.59,0,0,1,384.84,712.1Z"/><path class="cls-1" d="M1117.21,776.48h425.33a0,0,0,0,1,0,0v34A20.59,20.59,0,0,1,1522,831.09H1117.21a20.59,20.59,0,0,1-20.59-20.59V797.07A20.59,20.59,0,0,1,1117.21,776.48Z"/><path class="cls-2" d="M379.23,516.29H384a6.53,6.53,0,0,1,5.75,2.64,11.17,11.17,0,0,1,1.69,6.41c0,5.7-2.79,9.06-7.34,9.06h-4.89Zm3,15.35h1.86c3.5,0,4.33-3.33,4.33-6.29a8.65,8.65,0,0,0-1-4.65,3.67,3.67,0,0,0-3.43-1.64h-1.76Z"/><path class="cls-2" d="M395.85,516.29h2.82l-2.35,5.56h-2.42Z"/><path class="cls-2" d="M410.7,534.4h-2.42c0-.73,0-1.27,0-1.79a3.09,3.09,0,0,1-3,2.08c-2.57,0-4.43-2.45-4.43-7.12,0-4.48,1.59-7.15,4.43-7.15a3,3,0,0,1,3,2.15c0-.61,0-1.17,0-1.86h2.42Zm-7.2-6.8c0,3,.83,4.48,2.3,4.48a1.84,1.84,0,0,0,1.69-1c.49-.66.56-1.54.56-3.55s-.07-2.91-.56-3.57a1.87,1.87,0,0,0-1.69-.93c-1.47,0-2.3,1.42-2.3,4.5Z"/><path class="cls-2" d="M414.66,520.72h2.42c0,.83,0,1.52,0,2.2.56-2.08,2-2.5,3.55-2.5v3.21a2,2,0,0,0-1.12-.32c-1.2,0-2.18,1.17-2.18,3.35v7.73h-2.64Z"/><path class="cls-2" d="M423.28,520.72h2.42c0,.83,0,1.52,0,2.2.56-2.08,2-2.5,3.55-2.5v3.21a2,2,0,0,0-1.12-.32c-1.2,0-2.18,1.17-2.18,3.35v7.73h-2.64Z"/><path class="cls-2" d="M432.18,516.29h2.64v2.62h-2.64Zm0,4.43h2.64V534.4h-2.64Z"/><path class="cls-2" d="M444.15,534.4H441.7l-4-13.68h2.69l2.52,9.77,2.33-9.77h2.67Z"/><path class="cls-2" d="M452.47,528.48c0,1.91.66,3.74,2.42,3.74a2.24,2.24,0,0,0,2.2-2.08h2.62a5.56,5.56,0,0,1-1.86,3.6,4.9,4.9,0,0,1-3,1c-3.65,0-5.26-3.33-5.26-7.12,0-4.06,1.79-7.15,5.24-7.15a4.33,4.33,0,0,1,3.87,2.08c1.05,1.71,1.15,3.92,1.1,6Zm4.72-2.28c0-1.57-.56-3.57-2.33-3.57-1.44,0-2.4,1.35-2.4,3.57Z"/><path class="cls-2" d="M463.21,520.72h2.42c0,.83,0,1.52,0,2.2.56-2.08,2-2.5,3.55-2.5v3.21a2,2,0,0,0-1.13-.32c-1.2,0-2.18,1.17-2.18,3.35v7.73h-2.64Z"/><path class="cls-2" d="M488.42,534.4H486c0-.73,0-1.27,0-1.79a3.09,3.09,0,0,1-3,2.08c-2.57,0-4.43-2.45-4.43-7.12,0-4.48,1.59-7.15,4.43-7.15a3,3,0,0,1,3,2.15c0-.61,0-1.17,0-1.86h2.42Zm-7.2-6.8c0,3,.83,4.48,2.3,4.48a1.84,1.84,0,0,0,1.69-1c.49-.66.56-1.54.56-3.55s-.07-2.91-.56-3.57a1.87,1.87,0,0,0-1.69-.93c-1.47,0-2.3,1.42-2.3,4.5Z"/><path class="cls-2" d="M497.44,534.4H495l-4-13.68h2.69l2.52,9.77,2.33-9.77h2.67Z"/><path class="cls-2" d="M505.76,528.48c0,1.91.66,3.74,2.42,3.74a2.24,2.24,0,0,0,2.2-2.08H513a5.57,5.57,0,0,1-1.86,3.6,4.9,4.9,0,0,1-3,1c-3.65,0-5.26-3.33-5.26-7.12,0-4.06,1.79-7.15,5.24-7.15a4.33,4.33,0,0,1,3.87,2.08c1.05,1.71,1.15,3.92,1.1,6Zm4.72-2.28c0-1.57-.56-3.57-2.33-3.57-1.44,0-2.4,1.35-2.4,3.57Z"/><path class="cls-2" d="M525.44,529.41c-.1,2.79-1.54,5.29-4.43,5.29-3.4,0-5.29-2.86-5.29-7.12,0-4.53,2.06-7.15,5.26-7.15,2.91,0,4.38,2.47,4.43,5.34h-2.74c-.1-2.06-.86-2.84-1.88-2.84a1.71,1.71,0,0,0-1.66,1.08,7.81,7.81,0,0,0-.61,3.57c0,3.28.83,4.65,2.3,4.65,1.22,0,1.79-1.2,1.88-2.81Z"/><path class="cls-2" d="M545,534.4h-2.42c0-.59,0-1.17,0-1.81a3,3,0,0,1-3.18,2.11c-2.23,0-3.67-1.25-3.67-4.23v-9.74h2.64v8.88c0,1.1.22,2.47,1.84,2.47,1.25,0,2.13-.81,2.13-2.59v-8.76H545Z"/><path class="cls-2" d="M549,520.72h2.33c0,.56,0,1.1,0,1.69a3.2,3.2,0,0,1,3.25-2c2.25,0,3.7,1.25,3.7,4.23v9.74h-2.64v-8.88c0-1.1-.22-2.45-1.84-2.45-1.27,0-2.13.78-2.13,2.57v8.76H549Z"/><path class="cls-2" d="M578.53,529.41c-.1,2.79-1.54,5.29-4.43,5.29-3.4,0-5.29-2.86-5.29-7.12,0-4.53,2.06-7.15,5.26-7.15,2.91,0,4.38,2.47,4.43,5.34h-2.74c-.1-2.06-.86-2.84-1.88-2.84a1.71,1.71,0,0,0-1.66,1.08,7.81,7.81,0,0,0-.61,3.57c0,3.28.83,4.65,2.3,4.65,1.22,0,1.79-1.2,1.88-2.81Z"/><path class="cls-2" d="M590.6,534.4h-2.42c0-.73,0-1.27,0-1.79a3.09,3.09,0,0,1-3,2.08c-2.57,0-4.43-2.45-4.43-7.12,0-4.48,1.59-7.15,4.43-7.15a3,3,0,0,1,3,2.15c0-.61,0-1.17,0-1.86h2.42Zm-7.2-6.8c0,3,.83,4.48,2.3,4.48a1.84,1.84,0,0,0,1.69-1c.49-.66.56-1.54.56-3.55s-.07-2.91-.56-3.57a1.87,1.87,0,0,0-1.69-.93c-1.47,0-2.3,1.42-2.3,4.5Z"/><path class="cls-2" d="M594.85,523.22h-1.37v-2.5h1.37V520c0-3.79,3.21-4,4.65-4v2.3c-.93,0-2,.24-2,2v.46h2v2.5h-2V534.4h-2.64Z"/><path class="cls-2" d="M604.05,528.48c0,1.91.66,3.74,2.42,3.74a2.24,2.24,0,0,0,2.2-2.08h2.62a5.56,5.56,0,0,1-1.86,3.6,4.9,4.9,0,0,1-3,1c-3.65,0-5.26-3.33-5.26-7.12,0-4.06,1.79-7.15,5.24-7.15a4.33,4.33,0,0,1,3.87,2.08c1.05,1.71,1.15,3.92,1.1,6ZM609.36,515l1,2.13-5.61,2.67-.93-1.74Zm-.59,11.23c0-1.57-.56-3.57-2.33-3.57-1.44,0-2.4,1.35-2.4,3.57Z"/><path class="cls-2" d="M622.23,520.72h2.42v1.79a3,3,0,0,1,3-2.08c2.57,0,4.43,2.45,4.43,7.15,0,4.45-1.59,7.12-4.43,7.12a2.91,2.91,0,0,1-2.77-1.86V539h-2.64Zm7.2,6.83c0-3.06-.81-4.48-2.3-4.48a1.83,1.83,0,0,0-1.62.93c-.49.66-.64,1.54-.64,3.57s.15,2.89.64,3.55a1.81,1.81,0,0,0,1.62,1c1.49,0,2.3-1.44,2.3-4.5Z"/><path class="cls-2" d="M634.66,527.55c0-3.92,1.67-7.12,5.29-7.12s5.26,3.21,5.26,7.15-1.66,7.12-5.26,7.12-5.29-3.21-5.29-7.12Zm2.79,0c0,3.35.91,4.63,2.52,4.63s2.45-1.27,2.45-4.65-.91-4.65-2.52-4.65-2.45,1.25-2.45,4.65Z"/><path class="cls-2" d="M657.72,534.4h-2.42c0-.59,0-1.17,0-1.81a3,3,0,0,1-3.18,2.11c-2.23,0-3.67-1.25-3.67-4.23v-9.74h2.64v8.88c0,1.1.22,2.47,1.84,2.47,1.25,0,2.13-.81,2.13-2.59v-8.76h2.64Z"/><path class="cls-2" d="M661.68,520.72h2.42c0,.83,0,1.52,0,2.2.56-2.08,2-2.5,3.55-2.5v3.21a2,2,0,0,0-1.13-.32c-1.2,0-2.18,1.17-2.18,3.35v7.73h-2.64Z"/><path class="cls-2" d="M678,516.29h2.64V534.4H678Z"/><path class="cls-2" d="M687.17,528.48c0,1.91.66,3.74,2.42,3.74a2.24,2.24,0,0,0,2.2-2.08h2.62a5.56,5.56,0,0,1-1.86,3.6,4.9,4.9,0,0,1-3,1c-3.65,0-5.26-3.33-5.26-7.12,0-4.06,1.79-7.15,5.24-7.15a4.33,4.33,0,0,1,3.87,2.08c1.05,1.71,1.15,3.92,1.1,6Zm4.72-2.28c0-1.57-.56-3.57-2.32-3.57-1.44,0-2.4,1.35-2.4,3.57Z"/><path class="cls-2" d="M705.35,520.72h2.42c0,.83,0,1.52,0,2.2.56-2.08,2-2.5,3.55-2.5v3.21a2,2,0,0,0-1.13-.32c-1.2,0-2.18,1.17-2.18,3.35v7.73h-2.64Z"/><path class="cls-2" d="M715.88,528.48c0,1.91.66,3.74,2.42,3.74a2.24,2.24,0,0,0,2.2-2.08h2.62a5.56,5.56,0,0,1-1.86,3.6,4.9,4.9,0,0,1-3,1c-3.65,0-5.26-3.33-5.26-7.12,0-4.06,1.79-7.15,5.24-7.15a4.33,4.33,0,0,1,3.87,2.08c1.05,1.71,1.15,3.92,1.1,6Zm4.72-2.28c0-1.57-.56-3.57-2.33-3.57-1.44,0-2.4,1.35-2.4,3.57Z"/><path class="cls-2" d="M735.55,529.41c-.1,2.79-1.54,5.29-4.43,5.29-3.4,0-5.29-2.86-5.29-7.12,0-4.53,2.06-7.15,5.26-7.15,2.91,0,4.38,2.47,4.43,5.34h-2.74c-.1-2.06-.86-2.84-1.88-2.84a1.71,1.71,0,0,0-1.67,1.08,7.81,7.81,0,0,0-.61,3.57c0,3.28.83,4.65,2.3,4.65,1.22,0,1.79-1.2,1.88-2.81Z"/><path class="cls-2" d="M738.46,520.72h2.42c0,.83,0,1.52,0,2.2.56-2.08,2-2.5,3.55-2.5v3.21a2,2,0,0,0-1.13-.32c-1.2,0-2.18,1.17-2.18,3.35v7.73h-2.64Z"/><path class="cls-2" d="M756.3,534.4h-2.42c0-.59,0-1.17,0-1.81a3,3,0,0,1-3.18,2.11c-2.23,0-3.67-1.25-3.67-4.23v-9.74h2.64v8.88c0,1.1.22,2.47,1.84,2.47,1.25,0,2.13-.81,2.13-2.59v-8.76h2.64Z"/><path class="cls-2" d="M760.73,523.22h-1.64v-2.5h1.64v-3.25h2.64v3.25H765v2.5h-1.62V534.4h-2.64Z"/><path class="cls-2" d="M769.76,528.48c0,1.91.66,3.74,2.42,3.74a2.24,2.24,0,0,0,2.2-2.08H777a5.57,5.57,0,0,1-1.86,3.6,4.9,4.9,0,0,1-3,1c-3.65,0-5.26-3.33-5.26-7.12,0-4.06,1.79-7.15,5.24-7.15a4.33,4.33,0,0,1,3.87,2.08c1.05,1.71,1.15,3.92,1.1,6Zm4.72-2.28c0-1.57-.56-3.57-2.33-3.57-1.44,0-2.4,1.35-2.4,3.57Z"/><path class="cls-2" d="M789.72,534.4H787.3c0-.59,0-1.17,0-1.81a3,3,0,0,1-3.18,2.11c-2.23,0-3.67-1.25-3.67-4.23v-9.74h2.64v8.88c0,1.1.22,2.47,1.84,2.47,1.25,0,2.13-.81,2.13-2.59v-8.76h2.64Z"/><path class="cls-2" d="M793.69,520.72h2.42c0,.83,0,1.52,0,2.2.56-2.08,2-2.5,3.55-2.5v3.21a2,2,0,0,0-1.13-.32c-1.2,0-2.18,1.17-2.18,3.35v7.73h-2.64Z"/><path class="cls-2" d="M804.18,534.4h-2.64v-3.23h2.64Z"/><path class="cls-2" d="M387.53,743.75a6.72,6.72,0,0,1-.42,2.47,4.13,4.13,0,0,1-1.84,2,5.27,5.27,0,0,1-2.62.66c-2.74,0-4.75-1.57-4.87-4.58,0-.29,0-.61,0-.91h3c0,.1,0,.22,0,.34.15,2,.91,2.37,1.91,2.37a1.64,1.64,0,0,0,1.52-.86,4.28,4.28,0,0,0,.34-2v-12.8h3Z"/><path class="cls-2" d="M393.94,742.6c0,1.91.66,3.74,2.42,3.74a2.24,2.24,0,0,0,2.2-2.08h2.62a5.57,5.57,0,0,1-1.86,3.6,4.9,4.9,0,0,1-3,1c-3.65,0-5.26-3.33-5.26-7.12,0-4.06,1.79-7.15,5.24-7.15a4.33,4.33,0,0,1,3.87,2.08c1.05,1.71,1.15,3.92,1.1,6Zm4.72-2.28c0-1.57-.56-3.57-2.33-3.57-1.44,0-2.4,1.35-2.4,3.57Z"/><path class="cls-2" d="M412.12,734.84h2.42v1.79a3,3,0,0,1,3-2.08c2.57,0,4.43,2.45,4.43,7.15,0,4.45-1.59,7.12-4.43,7.12a2.91,2.91,0,0,1-2.77-1.86v6.17h-2.64Zm7.2,6.83c0-3.06-.81-4.48-2.3-4.48a1.83,1.83,0,0,0-1.62.93c-.49.66-.64,1.54-.64,3.57s.15,2.89.64,3.55a1.8,1.8,0,0,0,1.62,1c1.49,0,2.3-1.44,2.3-4.5Z"/><path class="cls-2" d="M425.24,734.84h2.42c0,.83,0,1.52,0,2.2.56-2.08,2-2.5,3.55-2.5v3.21a2,2,0,0,0-1.13-.32c-1.2,0-2.18,1.17-2.18,3.35v7.73h-2.64Z"/><path class="cls-2" d="M435.76,742.6c0,1.91.66,3.74,2.42,3.74a2.24,2.24,0,0,0,2.2-2.08H443a5.57,5.57,0,0,1-1.86,3.6,4.9,4.9,0,0,1-3,1c-3.65,0-5.26-3.33-5.26-7.12,0-4.06,1.79-7.15,5.24-7.15a4.33,4.33,0,0,1,3.87,2.08c1.05,1.71,1.15,3.92,1.1,6Zm4.72-2.28c0-1.57-.56-3.57-2.33-3.57-1.44,0-2.4,1.35-2.4,3.57Z"/><path class="cls-2" d="M446.5,734.84h2.33c0,.56,0,1.1,0,1.69a3.2,3.2,0,0,1,3.25-2c2.25,0,3.7,1.25,3.7,4.23v9.74h-2.64v-8.88c0-1.1-.22-2.45-1.84-2.45-1.27,0-2.13.78-2.13,2.57v8.76H446.5Z"/><path class="cls-2" d="M468.84,748.53h-2.42c0-.81,0-1.4,0-2a3,3,0,0,1-3,2.28c-2.57,0-4.43-2.45-4.43-7.12,0-4.48,1.59-7.15,4.43-7.15a2.81,2.81,0,0,1,2.79,2c0-.54,0-1.08,0-1.69v-4.43h2.64Zm-7.2-6.83c0,3.06.83,4.48,2.3,4.48a1.87,1.87,0,0,0,1.69-.93c.49-.69.56-1.54.56-3.57s-.07-2.89-.56-3.55a1.84,1.84,0,0,0-1.69-1c-1.47,0-2.3,1.44-2.3,4.5Z"/><path class="cls-2" d="M478.09,738.71c0-1.3-.64-1.86-1.74-1.86a1.36,1.36,0,0,0-1.47,1.42c0,1.32,1.44,1.57,3,2.06a4,4,0,0,1,3.16,4.16,4.31,4.31,0,0,1-4.55,4.33c-2.57,0-4.5-1.44-4.72-4.53h2.64a2,2,0,0,0,2.13,2.13,1.6,1.6,0,0,0,1.71-1.76c0-1.37-1.42-1.69-3.06-2.23s-3.13-1.44-3.13-4.06c0-2.23,1.59-3.82,4.36-3.82s4.14,1.54,4.28,4.16Z"/><path class="cls-2" d="M500.92,748.53H498.5c0-.59,0-1.17,0-1.81a3,3,0,0,1-3.18,2.11c-2.23,0-3.67-1.25-3.67-4.23v-9.74h2.64v8.88c0,1.1.22,2.47,1.83,2.47,1.25,0,2.13-.81,2.13-2.59v-8.76h2.64Z"/><path class="cls-2" d="M504.88,734.84h2.33c0,.56,0,1.1,0,1.69a3.2,3.2,0,0,1,3.26-2c2.25,0,3.7,1.25,3.7,4.23v9.74h-2.64v-8.88c0-1.1-.22-2.45-1.83-2.45-1.27,0-2.13.78-2.13,2.57v8.76h-2.64Z"/><path class="cls-2" d="M534.44,743.53c-.1,2.79-1.54,5.29-4.43,5.29-3.4,0-5.29-2.86-5.29-7.12,0-4.53,2.06-7.15,5.26-7.15,2.91,0,4.38,2.47,4.43,5.34h-2.74c-.1-2.06-.86-2.84-1.88-2.84a1.71,1.71,0,0,0-1.66,1.08,7.81,7.81,0,0,0-.61,3.57c0,3.28.83,4.65,2.3,4.65,1.22,0,1.79-1.2,1.88-2.81Z"/><path class="cls-2" d="M537.35,730.41H540v4.21c0,.54,0,1,0,1.59.39-1,1.25-1.67,2.91-1.67a3.45,3.45,0,0,1,2.79,1.15,4.76,4.76,0,0,1,.93,3.23v9.59H544v-8.81a3.18,3.18,0,0,0-.42-1.86,1.55,1.55,0,0,0-1.39-.66,1.9,1.9,0,0,0-1.57.64,2.73,2.73,0,0,0-.59,2v8.69h-2.64Z"/><path class="cls-2" d="M552.79,742.6c0,1.91.66,3.74,2.42,3.74a2.24,2.24,0,0,0,2.2-2.08H560a5.57,5.57,0,0,1-1.86,3.6,4.9,4.9,0,0,1-3,1c-3.65,0-5.26-3.33-5.26-7.12,0-4.06,1.79-7.15,5.24-7.15a4.33,4.33,0,0,1,3.87,2.08c1.05,1.71,1.15,3.92,1.1,6Zm4.72-2.28c0-1.57-.56-3.57-2.33-3.57-1.44,0-2.4,1.35-2.4,3.57Z"/><path class="cls-2" d="M561.87,734.84h2.72l2,9.67,2.1-9.2h2.23l2.18,9.2,1.86-9.67h2.72l-3.35,13.68h-2.5l-2-9.23-2,9.23h-2.57Z"/><path class="cls-2" d="M580.47,730.41h2.64V733h-2.64Zm0,4.43h2.64v13.68h-2.64Z"/><path class="cls-2" d="M587.37,734.84h2.33c0,.56,0,1.1,0,1.69a3.2,3.2,0,0,1,3.25-2c2.25,0,3.7,1.25,3.7,4.23v9.74H594v-8.88c0-1.1-.22-2.45-1.84-2.45-1.27,0-2.13.78-2.13,2.57v8.76h-2.64Z"/><path class="cls-2" d="M609.71,748.33a5.16,5.16,0,0,1-1.22,3.72,4.78,4.78,0,0,1-3.67,1.37,4.5,4.5,0,0,1-4.7-4h2.77a1.76,1.76,0,0,0,.56,1.08,2,2,0,0,0,1.39.44c1.44,0,2.25-.81,2.28-2.77v-1.37a2.67,2.67,0,0,1-2.81,2c-3,0-4.43-2.67-4.43-7.12s1.42-7.15,4.43-7.15a3.16,3.16,0,0,1,3.16,2.13c0-.59,0-1.17,0-1.84h2.28Zm-7.2-6.61c0,3,.83,4.48,2.3,4.48a1.84,1.84,0,0,0,1.69-1c.49-.66.56-1.54.56-3.55s-.07-2.91-.56-3.57a1.87,1.87,0,0,0-1.69-.93c-1.47,0-2.3,1.42-2.3,4.5Z"/><path class="cls-2" d="M618.78,740.3v2.59H613V740.3Z"/><path class="cls-2" d="M631.29,748.33a5.16,5.16,0,0,1-1.22,3.72,4.78,4.78,0,0,1-3.67,1.37,4.5,4.5,0,0,1-4.7-4h2.77a1.76,1.76,0,0,0,.56,1.08,2,2,0,0,0,1.39.44c1.44,0,2.25-.81,2.28-2.77v-1.37a2.67,2.67,0,0,1-2.81,2c-3,0-4.43-2.67-4.43-7.12s1.42-7.15,4.43-7.15a3.16,3.16,0,0,1,3.16,2.13c0-.59,0-1.17,0-1.84h2.28Zm-7.2-6.61c0,3,.83,4.48,2.3,4.48a1.84,1.84,0,0,0,1.69-1c.49-.66.56-1.54.56-3.55s-.07-2.91-.56-3.57a1.87,1.87,0,0,0-1.69-.93c-1.47,0-2.3,1.42-2.3,4.5Z"/><path class="cls-2" d="M644.48,748.53h-2.42c0-.59,0-1.17,0-1.81a3,3,0,0,1-3.18,2.11c-2.23,0-3.67-1.25-3.67-4.23v-9.74h2.64v8.88c0,1.1.22,2.47,1.84,2.47,1.25,0,2.13-.81,2.13-2.59v-8.76h2.64Z"/><path class="cls-2" d="M648.54,734.84h2.52c0,.61,0,1.2,0,1.84a2.85,2.85,0,0,1,3-2.13,3,3,0,0,1,2.13.73,2.67,2.67,0,0,1,.69,1.15,3,3,0,0,1,1-1.22,4.34,4.34,0,0,1,2.35-.66,3.67,3.67,0,0,1,3.13,1.49,5.5,5.5,0,0,1,.86,3.23v9.25h-2.64v-8.86a3.34,3.34,0,0,0-.32-1.71,1.52,1.52,0,0,0-1.47-.76,1.85,1.85,0,0,0-1.54.59,2.71,2.71,0,0,0-.54,1.81v8.93H655v-8.84a3.5,3.5,0,0,0-.32-1.74,1.48,1.48,0,0,0-1.44-.76,1.92,1.92,0,0,0-1.54.56,2.84,2.84,0,0,0-.54,1.86v8.91h-2.67Z"/><path class="cls-2" d="M671.37,748.53h-2.64V745.3h2.64Z"/><path class="cls-2" d="M1116.57,803.6a6.74,6.74,0,0,1-.42,2.47,4.14,4.14,0,0,1-1.84,2,5.27,5.27,0,0,1-2.62.66c-2.74,0-4.75-1.57-4.87-4.58,0-.29,0-.61,0-.91h3c0,.1,0,.22,0,.34.15,2,.91,2.37,1.91,2.37a1.63,1.63,0,0,0,1.52-.86,4.27,4.27,0,0,0,.34-2v-12.8h3Z"/><path class="cls-2" d="M1123,802.45c0,1.91.66,3.74,2.42,3.74a2.24,2.24,0,0,0,2.2-2.08h2.62a5.56,5.56,0,0,1-1.86,3.6,4.9,4.9,0,0,1-3,1c-3.65,0-5.26-3.33-5.26-7.12,0-4.06,1.79-7.15,5.24-7.15a4.33,4.33,0,0,1,3.87,2.08c1.05,1.71,1.15,3.92,1.1,6Zm4.72-2.28c0-1.57-.56-3.57-2.33-3.57-1.44,0-2.4,1.35-2.4,3.57Z"/><path class="cls-2" d="M1141.16,794.7h2.42v1.79a3,3,0,0,1,3-2.08c2.57,0,4.43,2.45,4.43,7.15,0,4.45-1.59,7.12-4.43,7.12a2.91,2.91,0,0,1-2.77-1.86V813h-2.64Zm7.2,6.83c0-3.06-.81-4.48-2.3-4.48a1.83,1.83,0,0,0-1.62.93c-.49.66-.64,1.54-.64,3.57s.15,2.89.64,3.55a1.81,1.81,0,0,0,1.62,1c1.49,0,2.3-1.44,2.3-4.5Z"/><path class="cls-2" d="M1163.43,808.38H1161c0-.73,0-1.27,0-1.79a3.09,3.09,0,0,1-3,2.08c-2.57,0-4.43-2.45-4.43-7.12,0-4.48,1.59-7.15,4.43-7.15a3,3,0,0,1,3,2.15c0-.61,0-1.17,0-1.86h2.42Zm-7.2-6.8c0,3,.83,4.48,2.3,4.48a1.84,1.84,0,0,0,1.69-1c.49-.66.56-1.54.56-3.55s-.07-2.91-.56-3.57a1.87,1.87,0,0,0-1.69-.93c-1.47,0-2.3,1.42-2.3,4.5Z"/><path class="cls-2" d="M1167.39,794.7h2.42c0,.83,0,1.52,0,2.2.56-2.08,2-2.5,3.55-2.5v3.21a2,2,0,0,0-1.13-.32c-1.2,0-2.18,1.17-2.18,3.35v7.73h-2.64Z"/><path class="cls-2" d="M1176.29,790.27h2.64v18.11h-2.64Z"/><path class="cls-2" d="M1185.45,802.45c0,1.91.66,3.74,2.42,3.74a2.24,2.24,0,0,0,2.2-2.08h2.62a5.57,5.57,0,0,1-1.86,3.6,4.91,4.91,0,0,1-3,1c-3.65,0-5.26-3.33-5.26-7.12,0-4.06,1.79-7.15,5.24-7.15a4.33,4.33,0,0,1,3.87,2.08c1.05,1.71,1.15,3.92,1.1,6Zm4.72-2.28c0-1.57-.56-3.57-2.32-3.57-1.44,0-2.4,1.35-2.4,3.57Z"/><path class="cls-2" d="M1203.92,797.19h-1.37v-2.5h1.37V794c0-3.79,3.21-4,4.65-4v2.3c-.93,0-2,.24-2,2v.46h2v2.5h-2v11.19h-2.64Z"/><path class="cls-2" d="M1210.18,801.52c0-3.92,1.66-7.12,5.29-7.12s5.26,3.21,5.26,7.15-1.66,7.12-5.26,7.12-5.29-3.21-5.29-7.12Zm2.79,0c0,3.35.91,4.63,2.52,4.63s2.45-1.27,2.45-4.65-.91-4.65-2.52-4.65-2.45,1.25-2.45,4.65Z"/><path class="cls-2" d="M1224,794.7h2.42c0,.83,0,1.52,0,2.2.56-2.08,2-2.5,3.55-2.5v3.21a2,2,0,0,0-1.13-.32c-1.2,0-2.18,1.17-2.18,3.35v7.73H1224Z"/><path class="cls-2" d="M1233.21,797.19h-1.64v-2.5h1.64v-3.25h2.64v3.25h1.62v2.5h-1.62v11.19h-2.64Z"/><path class="cls-2" d="M1247.69,794.7h2.42v1.79a3,3,0,0,1,3-2.08c2.57,0,4.43,2.45,4.43,7.15,0,4.45-1.59,7.12-4.43,7.12a2.91,2.91,0,0,1-2.77-1.86V813h-2.64Zm7.2,6.83c0-3.06-.81-4.48-2.3-4.48a1.83,1.83,0,0,0-1.62.93c-.49.66-.64,1.54-.64,3.57s.15,2.89.64,3.55a1.81,1.81,0,0,0,1.62,1c1.49,0,2.3-1.44,2.3-4.5Z"/><path class="cls-2" d="M1260.12,801.52c0-3.92,1.67-7.12,5.29-7.12s5.26,3.21,5.26,7.15-1.66,7.12-5.26,7.12-5.29-3.21-5.29-7.12Zm2.79,0c0,3.35.91,4.63,2.52,4.63s2.45-1.27,2.45-4.65-.91-4.65-2.52-4.65-2.45,1.25-2.45,4.65Z"/><path class="cls-2" d="M1283.17,808.38h-2.42c0-.59,0-1.17,0-1.81a3,3,0,0,1-3.18,2.11c-2.23,0-3.67-1.25-3.67-4.23V794.7h2.64v8.88c0,1.1.22,2.47,1.83,2.47,1.25,0,2.13-.81,2.13-2.59V794.7h2.64Z"/><path class="cls-2" d="M1287.14,794.7h2.42c0,.83,0,1.52,0,2.2.56-2.08,2-2.5,3.55-2.5v3.21a2,2,0,0,0-1.13-.32c-1.2,0-2.18,1.17-2.18,3.35v7.73h-2.64Z"/><path class="cls-2" d="M1303.29,794.7h2.52c0,.61,0,1.2,0,1.84a2.85,2.85,0,0,1,3-2.13,3,3,0,0,1,2.13.73,2.66,2.66,0,0,1,.69,1.15,3,3,0,0,1,1-1.22,4.33,4.33,0,0,1,2.35-.66,3.67,3.67,0,0,1,3.13,1.49,5.5,5.5,0,0,1,.86,3.23v9.25h-2.64v-8.86a3.35,3.35,0,0,0-.32-1.71,1.52,1.52,0,0,0-1.47-.76,1.85,1.85,0,0,0-1.54.59,2.71,2.71,0,0,0-.54,1.81v8.93h-2.64v-8.84a3.5,3.5,0,0,0-.32-1.74A1.49,1.49,0,0,0,1308,797a1.92,1.92,0,0,0-1.54.56,2.84,2.84,0,0,0-.54,1.86v8.91h-2.67Z"/><path class="cls-2" d="M1325.23,802.45c0,1.91.66,3.74,2.42,3.74a2.24,2.24,0,0,0,2.2-2.08h2.62a5.57,5.57,0,0,1-1.86,3.6,4.91,4.91,0,0,1-3,1c-3.65,0-5.26-3.33-5.26-7.12,0-4.06,1.79-7.15,5.24-7.15a4.33,4.33,0,0,1,3.87,2.08c1.05,1.71,1.15,3.92,1.1,6Zm4.72-2.28c0-1.57-.56-3.57-2.32-3.57-1.44,0-2.4,1.35-2.4,3.57Z"/><path class="cls-2" d="M1343.71,797.19h-1.37v-2.5h1.37V794c0-3.79,3.21-4,4.65-4v2.3c-.93,0-2,.24-2,2v.46h2v2.5h-2v11.19h-2.64Z"/><path class="cls-2" d="M1359.81,808.38h-2.42c0-.73,0-1.27,0-1.79a3.09,3.09,0,0,1-3,2.08c-2.57,0-4.43-2.45-4.43-7.12,0-4.48,1.59-7.15,4.43-7.15a3,3,0,0,1,3,2.15c0-.61,0-1.17,0-1.86h2.42Zm-7.2-6.8c0,3,.83,4.48,2.3,4.48a1.84,1.84,0,0,0,1.69-1c.49-.66.56-1.54.56-3.55s-.07-2.91-.56-3.57a1.87,1.87,0,0,0-1.69-.93c-1.47,0-2.3,1.42-2.3,4.5Z"/><path class="cls-2" d="M1364.07,790.27h2.64v2.62h-2.64Zm0,4.43h2.64v13.68h-2.64Z"/><path class="cls-2" d="M1371,794.7h2.42c0,.83,0,1.52,0,2.2.56-2.08,2-2.5,3.55-2.5v3.21a2,2,0,0,0-1.13-.32c-1.2,0-2.18,1.17-2.18,3.35v7.73H1371Z"/><path class="cls-2" d="M1381.49,802.45c0,1.91.66,3.74,2.42,3.74a2.24,2.24,0,0,0,2.2-2.08h2.62a5.57,5.57,0,0,1-1.86,3.6,4.91,4.91,0,0,1-3,1c-3.65,0-5.26-3.33-5.26-7.12,0-4.06,1.79-7.15,5.24-7.15a4.33,4.33,0,0,1,3.87,2.08c1.05,1.71,1.15,3.92,1.1,6Zm4.72-2.28c0-1.57-.56-3.57-2.32-3.57-1.44,0-2.4,1.35-2.4,3.57Z"/><path class="cls-2" d="M1408.6,803.38c-.1,2.79-1.54,5.29-4.43,5.29-3.4,0-5.29-2.86-5.29-7.12,0-4.53,2.05-7.15,5.26-7.15,2.91,0,4.38,2.47,4.43,5.34h-2.74c-.1-2.06-.86-2.84-1.88-2.84a1.71,1.71,0,0,0-1.66,1.08,7.81,7.81,0,0,0-.61,3.57c0,3.28.83,4.65,2.3,4.65,1.22,0,1.79-1.2,1.88-2.81Z"/><path class="cls-2" d="M1410.82,801.52c0-3.92,1.66-7.12,5.29-7.12s5.26,3.21,5.26,7.15-1.66,7.12-5.26,7.12-5.29-3.21-5.29-7.12Zm2.79,0c0,3.35.91,4.63,2.52,4.63s2.45-1.27,2.45-4.65-.91-4.65-2.52-4.65-2.45,1.25-2.45,4.65Z"/><path class="cls-2" d="M1424.75,794.7h2.52c0,.61,0,1.2,0,1.84a2.85,2.85,0,0,1,3-2.13,3,3,0,0,1,2.13.73,2.67,2.67,0,0,1,.69,1.15,3,3,0,0,1,1-1.22,4.34,4.34,0,0,1,2.35-.66,3.67,3.67,0,0,1,3.13,1.49,5.5,5.5,0,0,1,.86,3.23v9.25h-2.64v-8.86a3.34,3.34,0,0,0-.32-1.71A1.52,1.52,0,0,0,1436,797a1.85,1.85,0,0,0-1.54.59,2.71,2.71,0,0,0-.54,1.81v8.93h-2.64v-8.84a3.5,3.5,0,0,0-.32-1.74,1.48,1.48,0,0,0-1.44-.76,1.92,1.92,0,0,0-1.54.56,2.84,2.84,0,0,0-.54,1.86v8.91h-2.67Z"/><path class="cls-2" d="M1444.45,794.7h2.42v1.79a3,3,0,0,1,3-2.08c2.57,0,4.43,2.45,4.43,7.15,0,4.45-1.59,7.12-4.43,7.12a2.91,2.91,0,0,1-2.77-1.86V813h-2.64Zm7.2,6.83c0-3.06-.81-4.48-2.3-4.48a1.83,1.83,0,0,0-1.62.93c-.49.66-.64,1.54-.64,3.57s.15,2.89.64,3.55a1.81,1.81,0,0,0,1.62,1c1.49,0,2.3-1.44,2.3-4.5Z"/><path class="cls-2" d="M1457.56,794.7H1460c0,.83,0,1.52,0,2.2.56-2.08,2-2.5,3.55-2.5v3.21a2,2,0,0,0-1.13-.32c-1.2,0-2.18,1.17-2.18,3.35v7.73h-2.64Z"/><path class="cls-2" d="M1468.08,802.45c0,1.91.66,3.74,2.42,3.74a2.24,2.24,0,0,0,2.2-2.08h2.62a5.56,5.56,0,0,1-1.86,3.6,4.9,4.9,0,0,1-3,1c-3.65,0-5.26-3.33-5.26-7.12,0-4.06,1.79-7.15,5.24-7.15a4.33,4.33,0,0,1,3.87,2.08c1.05,1.71,1.15,3.92,1.1,6Zm4.72-2.28c0-1.57-.56-3.57-2.33-3.57-1.44,0-2.4,1.35-2.4,3.57Z"/><path class="cls-2" d="M1478.82,794.7h2.32c0,.56,0,1.1,0,1.69a3.2,3.2,0,0,1,3.25-2c2.25,0,3.7,1.25,3.7,4.23v9.74h-2.64v-8.88c0-1.1-.22-2.45-1.84-2.45-1.27,0-2.13.78-2.13,2.57v8.76h-2.64Z"/><path class="cls-2" d="M1501.17,808.38h-2.42c0-.81,0-1.4,0-2a3,3,0,0,1-3,2.28c-2.57,0-4.43-2.45-4.43-7.12,0-4.48,1.59-7.15,4.43-7.15a2.81,2.81,0,0,1,2.79,2c0-.54,0-1.08,0-1.69v-4.43h2.64Zm-7.2-6.83c0,3.06.83,4.48,2.3,4.48a1.87,1.87,0,0,0,1.69-.93c.49-.69.56-1.54.56-3.57s-.07-2.89-.56-3.55a1.84,1.84,0,0,0-1.69-1c-1.47,0-2.3,1.44-2.3,4.5Z"/><path class="cls-2" d="M1505.13,794.7h2.42c0,.83,0,1.52,0,2.2.56-2.08,2-2.5,3.55-2.5v3.21a2,2,0,0,0-1.12-.32c-1.2,0-2.18,1.17-2.18,3.35v7.73h-2.64Z"/><path class="cls-2" d="M1515.65,802.45c0,1.91.66,3.74,2.42,3.74a2.24,2.24,0,0,0,2.2-2.08h2.62a5.56,5.56,0,0,1-1.86,3.6,4.9,4.9,0,0,1-3,1c-3.65,0-5.26-3.33-5.26-7.12,0-4.06,1.79-7.15,5.24-7.15a4.33,4.33,0,0,1,3.87,2.08c1.05,1.71,1.15,3.92,1.1,6Zm4.72-2.28c0-1.57-.56-3.57-2.33-3.57-1.44,0-2.4,1.35-2.4,3.57Z"/></g><g id="vignettes_jeu_4_-_mauvaises_réponses" data-name="vignettes jeu 4 - mauvaises réponses"><polygon class="cls-1" points="356.35 216.42 226.06 184.86 95.76 216.42 95.76 0.14 356.35 0.14 356.35 216.42"/><path class="cls-2" d="M136.87,76.48l6.19-26.65h6.61V90h-6.45V71.54L139.28,90h-4.7l-4.08-18.62V90H124V49.83h6.61Z"/><path class="cls-2" d="M173.44,75.62,175.35,90H168.6l-1.1-8.35h-4.92L161.45,90h-6.73l1.91-14.36,4.08-25.85h8.68Zm-6.81-.36L165,63.09l-1.61,12.17Z"/><path class="cls-2" d="M197.54,82q0,8.67-8.68,8.7T180.21,82V49.83h6.69V82q0,2.27,2,2.27t2-2.27V49.83h6.69Z"/><path class="cls-2" d="M217.06,90h-8.68l-4.08-25.83L202.4,49.83h6.75l3.55,31.51,3.58-31.51H223l-1.91,14.42Z"/><path class="cls-2" d="M244.21,75.62,246.12,90h-6.75l-1.11-8.35h-4.92L232.22,90h-6.73l1.91-14.36,4.08-25.85h8.68Zm-6.81-.36L235.8,63.09l-1.61,12.17Z"/><path class="cls-2" d="M251.28,49.83H258V90h-6.69Z"/><path class="cls-2" d="M264.53,57.88q0-8.67,8.66-8.68t8.68,8.68v5.7h-6.69v-5.7q0-2.25-2-2.27h0q-1.95,0-1.95,2.27v3.58q0,2.45,5.14,6.15,5.5,3.92,5.5,9.4v5q0,8.7-8.66,8.7T264.53,82v-5.7h6.69V82q0,2.27,2,2.27t2-2.27v-4.5q0-2.67-5.14-6.37-5.5-3.92-5.5-9.54Z"/><path class="cls-2" d="M288.33,49.83h15.75v6.41H295V66.72h7.79v6.43H295V83.63h9.06V90H288.33Z"/><path class="cls-2" d="M309.54,57.88q0-8.67,8.66-8.68t8.68,8.68v5.7h-6.69v-5.7q0-2.25-2-2.27h0q-1.95,0-1.95,2.27v3.58q0,2.45,5.14,6.15,5.5,3.92,5.5,9.4v5q0,8.7-8.66,8.7T309.54,82v-5.7h6.69V82q0,2.27,2,2.27t2-2.27v-4.5q0-2.67-5.14-6.37-5.5-3.92-5.5-9.54Z"/><path class="cls-2" d="M137.12,104.83h8.78q8.07,0,8.07,8.7v5.92q0,5.46-4.38,7.07L156,145h-7.29l-4.58-17.29h-.36V145h-6.69Zm6.69,6.41v10.48h.8a5,5,0,0,0,1.41-.12,2.06,2.06,0,0,0,1.27-2.15v-5.92q0-2.29-2-2.29Z"/><path class="cls-2" d="M160.9,104.83h15.74v6.41h-9.06v10.48h7.79v6.43h-7.79v10.48h9.06V145H160.9Zm15-4.5-5.82,3.78h-5.74l6.39-5.88h5.18Z"/><path class="cls-2" d="M181.5,104.83h8.78q8.07,0,8.07,8.7v5.92q0,6.37-5.76,8.25a13.76,13.76,0,0,1-4,.44h-.42V145H181.5Zm6.69,6.41v10.48h.8a5,5,0,0,0,1.41-.12,2.06,2.06,0,0,0,1.27-2.15v-5.92q0-2.29-2-2.29Z"/><path class="cls-2" d="M221.15,137q0,8.67-8.68,8.7t-8.66-8.7v-24.1q0-8.67,8.66-8.68t8.68,8.68Zm-6.69-24.1q0-2.25-2-2.27h0q-1.95,0-1.95,2.27V137q0,2.27,2,2.27t2-2.27Z"/><path class="cls-2" d="M227.61,104.83h6.61l4.46,19.8v-19.8h6.27V145h-6.61l-4.26-19.26V145h-6.47Z"/><path class="cls-2" d="M251.41,112.88q0-8.67,8.66-8.68t8.68,8.68v5.7h-6.69v-5.7q0-2.25-2-2.27h0q-1.95,0-1.95,2.27v3.58q0,2.45,5.14,6.15,5.5,3.92,5.5,9.4v5q0,8.7-8.66,8.7t-8.68-8.7v-5.7h6.69V137q0,2.27,2,2.27t2-2.27v-4.5q0-2.67-5.14-6.37-5.5-3.92-5.5-9.54Z"/><path class="cls-2" d="M275.21,104.83H291v6.41h-9.06v10.48h7.79v6.43h-7.79v10.48H291V145H275.21Z"/><path class="cls-2" d="M296.41,112.88q0-8.67,8.66-8.68t8.68,8.68v5.7h-6.69v-5.7q0-2.25-2-2.27h0q-1.95,0-1.95,2.27v3.58q0,2.45,5.14,6.15,5.5,3.92,5.5,9.4v5q0,8.7-8.66,8.7t-8.68-8.7v-5.7h6.69V137q0,2.27,2,2.27t2-2.27v-4.5q0-2.67-5.14-6.37-5.5-3.92-5.5-9.54Z"/></g></svg>