<svg id="textes_jeu_4" data-name="textes jeu 4" xmlns="http://www.w3.org/2000/svg" viewBox="0 0 1920 1080"><defs><style>.cls-1{fill:#666;}</style></defs><title>4d_ui1</title><path class="cls-1" d="M482.67,602.38a6.72,6.72,0,0,1-.42,2.47,4.13,4.13,0,0,1-1.83,2,5.28,5.28,0,0,1-2.62.66c-2.74,0-4.75-1.57-4.87-4.58,0-.29,0-.61,0-.91h3c0,.1,0,.22,0,.34.15,2,.91,2.37,1.91,2.37a1.64,1.64,0,0,0,1.52-.86,4.28,4.28,0,0,0,.34-2V589h3Z"/><path class="cls-1" d="M489.08,601.23c0,1.91.66,3.74,2.42,3.74a2.24,2.24,0,0,0,2.2-2.08h2.62a5.56,5.56,0,0,1-1.86,3.6,4.9,4.9,0,0,1-3,1c-3.65,0-5.26-3.33-5.26-7.12,0-4.06,1.79-7.15,5.24-7.15a4.33,4.33,0,0,1,3.87,2.08c1.05,1.71,1.15,3.92,1.1,6Zm4.72-2.28c0-1.57-.56-3.57-2.33-3.57-1.44,0-2.4,1.35-2.4,3.57Z"/><path class="cls-1" d="M512.55,597.33c0-1.3-.64-1.86-1.74-1.86a1.36,1.36,0,0,0-1.47,1.42c0,1.32,1.44,1.57,3,2.06a4,4,0,0,1,3.16,4.16,4.3,4.3,0,0,1-4.55,4.33c-2.57,0-4.5-1.44-4.72-4.53h2.64A2,2,0,0,0,511,605a1.6,1.6,0,0,0,1.71-1.76c0-1.37-1.42-1.69-3.06-2.23s-3.13-1.44-3.13-4.06c0-2.23,1.59-3.82,4.36-3.82s4.14,1.54,4.28,4.16Z"/><path class="cls-1" d="M527.87,607.15h-2.42c0-.73,0-1.27,0-1.79a3.09,3.09,0,0,1-3,2.08c-2.57,0-4.43-2.45-4.43-7.12,0-4.48,1.59-7.15,4.43-7.15a3,3,0,0,1,3,2.15c0-.61,0-1.17,0-1.86h2.42Zm-7.2-6.8c0,3,.83,4.48,2.3,4.48a1.84,1.84,0,0,0,1.69-1c.49-.66.56-1.54.56-3.55s-.07-2.91-.56-3.57a1.87,1.87,0,0,0-1.69-.93c-1.47,0-2.3,1.42-2.3,4.5Z"/><path class="cls-1" d="M532.12,589h2.64v18.11h-2.64Z"/><path class="cls-1" d="M548.25,607.15h-2.42c0-.59,0-1.17,0-1.81a3,3,0,0,1-3.18,2.11c-2.23,0-3.67-1.25-3.67-4.23v-9.74h2.64v8.88c0,1.1.22,2.47,1.84,2.47,1.25,0,2.13-.81,2.13-2.59v-8.76h2.64Z"/><path class="cls-1" d="M554.46,601.23c0,1.91.66,3.74,2.42,3.74a2.24,2.24,0,0,0,2.2-2.08h2.62a5.56,5.56,0,0,1-1.86,3.6,4.9,4.9,0,0,1-3,1c-3.65,0-5.26-3.33-5.26-7.12,0-4.06,1.79-7.15,5.24-7.15a4.33,4.33,0,0,1,3.87,2.08c1.05,1.71,1.15,3.92,1.1,6Zm4.72-2.28c0-1.57-.56-3.57-2.32-3.57-1.44,0-2.4,1.35-2.4,3.57Z"/><path class="cls-1" d="M572.74,593.47h2.52c0,.61,0,1.2,0,1.84a2.85,2.85,0,0,1,3-2.13,3,3,0,0,1,2.13.73,2.67,2.67,0,0,1,.69,1.15,3,3,0,0,1,1-1.22,4.34,4.34,0,0,1,2.35-.66,3.67,3.67,0,0,1,3.13,1.49,5.5,5.5,0,0,1,.86,3.23v9.25h-2.64v-8.86a3.34,3.34,0,0,0-.32-1.71,1.52,1.52,0,0,0-1.47-.76,1.85,1.85,0,0,0-1.54.59,2.71,2.71,0,0,0-.54,1.81v8.93h-2.64v-8.84a3.5,3.5,0,0,0-.32-1.74,1.48,1.48,0,0,0-1.44-.76,1.92,1.92,0,0,0-1.54.56,2.84,2.84,0,0,0-.54,1.86v8.91h-2.67Z"/><path class="cls-1" d="M591.75,600.3c0-3.92,1.66-7.12,5.29-7.12s5.26,3.21,5.26,7.15-1.66,7.12-5.26,7.12-5.29-3.21-5.29-7.12Zm2.79,0c0,3.35.91,4.63,2.52,4.63s2.45-1.27,2.45-4.65-.91-4.65-2.52-4.65-2.45,1.25-2.45,4.65Z"/><path class="cls-1" d="M605.58,593.47h2.33c0,.56,0,1.1,0,1.69a3.2,3.2,0,0,1,3.25-2c2.25,0,3.7,1.25,3.7,4.23v9.74h-2.64v-8.88c0-1.1-.22-2.45-1.84-2.45-1.27,0-2.13.78-2.13,2.57v8.76h-2.64Z"/><path class="cls-1" d="M626.5,589h2.64v2.62H626.5Zm0,4.43h2.64v13.68H626.5Z"/><path class="cls-1" d="M633.4,593.47h2.33c0,.56,0,1.1,0,1.69a3.2,3.2,0,0,1,3.25-2c2.25,0,3.7,1.25,3.7,4.23v9.74H640v-8.88c0-1.1-.22-2.45-1.84-2.45-1.27,0-2.13.78-2.13,2.57v8.76H633.4Z"/><path class="cls-1" d="M647.05,596h-1.64v-2.5h1.64v-3.25h2.64v3.25h1.62V596h-1.62v11.19h-2.64Z"/><path class="cls-1" d="M656.08,601.23c0,1.91.66,3.74,2.42,3.74a2.24,2.24,0,0,0,2.2-2.08h2.62a5.57,5.57,0,0,1-1.86,3.6,4.9,4.9,0,0,1-3,1c-3.65,0-5.26-3.33-5.26-7.12,0-4.06,1.79-7.15,5.24-7.15a4.33,4.33,0,0,1,3.87,2.08c1.05,1.71,1.15,3.92,1.1,6Zm4.72-2.28c0-1.57-.56-3.57-2.33-3.57-1.44,0-2.4,1.35-2.4,3.57Z"/><path class="cls-1" d="M666.82,593.47h2.42c0,.83,0,1.52,0,2.2.56-2.08,2-2.5,3.55-2.5v3.21a2,2,0,0,0-1.13-.32c-1.2,0-2.18,1.17-2.18,3.35v7.73h-2.64Z"/><path class="cls-1" d="M675.73,589h2.64v18.11h-2.64Z"/><path class="cls-1" d="M681.94,600.3c0-3.92,1.67-7.12,5.29-7.12s5.26,3.21,5.26,7.15-1.66,7.12-5.26,7.12-5.29-3.21-5.29-7.12Zm2.79,0c0,3.35.91,4.63,2.52,4.63s2.45-1.27,2.45-4.65-.91-4.65-2.52-4.65-2.45,1.25-2.45,4.65Z"/><path class="cls-1" d="M704.7,602.15c-.1,2.79-1.54,5.29-4.43,5.29-3.4,0-5.29-2.86-5.29-7.12,0-4.53,2.06-7.15,5.26-7.15,2.91,0,4.38,2.47,4.43,5.34h-2.74c-.1-2.06-.86-2.84-1.88-2.84a1.71,1.71,0,0,0-1.66,1.08,7.81,7.81,0,0,0-.61,3.57c0,3.28.83,4.65,2.3,4.65,1.22,0,1.79-1.2,1.88-2.81Z"/><path class="cls-1" d="M716.84,607.15h-2.42c0-.59,0-1.17,0-1.81a3,3,0,0,1-3.18,2.11c-2.23,0-3.67-1.25-3.67-4.23v-9.74h2.64v8.88c0,1.1.22,2.47,1.84,2.47,1.25,0,2.13-.81,2.13-2.59v-8.76h2.64Z"/><path class="cls-1" d="M721.26,596h-1.64v-2.5h1.64v-3.25h2.64v3.25h1.62V596h-1.62v11.19h-2.64Z"/><path class="cls-1" d="M730.29,601.23c0,1.91.66,3.74,2.42,3.74a2.24,2.24,0,0,0,2.2-2.08h2.62a5.56,5.56,0,0,1-1.86,3.6,4.9,4.9,0,0,1-3,1c-3.65,0-5.26-3.33-5.26-7.12,0-4.06,1.79-7.15,5.24-7.15a4.33,4.33,0,0,1,3.87,2.08c1.05,1.71,1.15,3.92,1.1,6Zm4.72-2.28c0-1.57-.56-3.57-2.33-3.57-1.44,0-2.4,1.35-2.4,3.57Z"/><path class="cls-1" d="M750.26,607.15h-2.42c0-.59,0-1.17,0-1.81a3,3,0,0,1-3.18,2.11c-2.23,0-3.67-1.25-3.67-4.23v-9.74h2.64v8.88c0,1.1.22,2.47,1.83,2.47,1.25,0,2.13-.81,2.13-2.59v-8.76h2.64Z"/><path class="cls-1" d="M754.22,593.47h2.42c0,.83,0,1.52,0,2.2.56-2.08,2-2.5,3.55-2.5v3.21a2,2,0,0,0-1.13-.32c-1.2,0-2.18,1.17-2.18,3.35v7.73h-2.64Z"/><path class="cls-1" d="M764.72,607.15h-2.64v-3.23h2.64Z"/><path class="cls-1" d="M482.67,685.35a6.72,6.72,0,0,1-.42,2.47,4.13,4.13,0,0,1-1.83,2,5.28,5.28,0,0,1-2.62.66c-2.74,0-4.75-1.57-4.87-4.58,0-.29,0-.61,0-.91h3c0,.1,0,.22,0,.34.15,2,.91,2.37,1.91,2.37a1.64,1.64,0,0,0,1.52-.86,4.28,4.28,0,0,0,.34-2V672h3Z"/><path class="cls-1" d="M489.08,684.2c0,1.91.66,3.74,2.42,3.74a2.24,2.24,0,0,0,2.2-2.08h2.62a5.56,5.56,0,0,1-1.86,3.6,4.9,4.9,0,0,1-3,1c-3.65,0-5.26-3.33-5.26-7.12,0-4.06,1.79-7.15,5.24-7.15a4.33,4.33,0,0,1,3.87,2.08c1.05,1.71,1.15,3.92,1.1,6Zm4.72-2.28c0-1.57-.56-3.57-2.33-3.57-1.44,0-2.4,1.35-2.4,3.57Z"/><path class="cls-1" d="M507.55,672h2.64v18.11h-2.64Z"/><path class="cls-1" d="M516.71,684.2c0,1.91.66,3.74,2.42,3.74a2.24,2.24,0,0,0,2.2-2.08H524a5.57,5.57,0,0,1-1.86,3.6,4.9,4.9,0,0,1-3,1c-3.65,0-5.26-3.33-5.26-7.12,0-4.06,1.79-7.15,5.24-7.15a4.33,4.33,0,0,1,3.87,2.08c1.05,1.71,1.15,3.92,1.1,6Zm4.72-2.28c0-1.57-.56-3.57-2.33-3.57-1.44,0-2.4,1.35-2.4,3.57Z"/><path class="cls-1" d="M534.89,676.44h2.42c0,.83,0,1.52,0,2.2.56-2.08,2-2.5,3.55-2.5v3.21a2,2,0,0,0-1.12-.32c-1.2,0-2.18,1.17-2.18,3.35v7.73h-2.64Z"/><path class="cls-1" d="M552.31,690.12h-2.42c0-.73,0-1.27,0-1.79a3.09,3.09,0,0,1-3,2.08c-2.57,0-4.43-2.45-4.43-7.12,0-4.48,1.59-7.15,4.43-7.15a3,3,0,0,1,3,2.15c0-.61,0-1.17,0-1.86h2.42Zm-7.2-6.8c0,3,.83,4.48,2.3,4.48a1.84,1.84,0,0,0,1.69-1c.49-.66.56-1.54.56-3.55s-.07-2.91-.56-3.57a1.87,1.87,0,0,0-1.69-.93c-1.47,0-2.3,1.42-2.3,4.5Z"/><path class="cls-1" d="M556.27,676.44h2.42v1.79a3,3,0,0,1,3-2.08c2.57,0,4.43,2.45,4.43,7.15,0,4.45-1.59,7.12-4.43,7.12a2.91,2.91,0,0,1-2.77-1.86v6.17h-2.64Zm7.2,6.83c0-3.06-.81-4.48-2.3-4.48a1.83,1.83,0,0,0-1.62.93c-.49.66-.64,1.54-.64,3.57s.15,2.89.64,3.55a1.81,1.81,0,0,0,1.62,1c1.49,0,2.3-1.44,2.3-4.5Z"/><path class="cls-1" d="M569.39,676.44h2.42v1.79a3,3,0,0,1,3-2.08c2.57,0,4.43,2.45,4.43,7.15,0,4.45-1.59,7.12-4.43,7.12a2.91,2.91,0,0,1-2.77-1.86v6.17h-2.64Zm7.2,6.83c0-3.06-.81-4.48-2.3-4.48a1.83,1.83,0,0,0-1.62.93c-.49.66-.64,1.54-.64,3.57s.15,2.89.64,3.55a1.8,1.8,0,0,0,1.62,1c1.49,0,2.3-1.44,2.3-4.5Z"/><path class="cls-1" d="M584.75,684.2c0,1.91.66,3.74,2.42,3.74a2.24,2.24,0,0,0,2.2-2.08H592a5.56,5.56,0,0,1-1.86,3.6,4.9,4.9,0,0,1-3,1c-3.65,0-5.26-3.33-5.26-7.12,0-4.06,1.79-7.15,5.24-7.15a4.33,4.33,0,0,1,3.87,2.08c1.05,1.71,1.15,3.92,1.1,6Zm4.72-2.28c0-1.57-.56-3.57-2.33-3.57-1.44,0-2.4,1.35-2.4,3.57Z"/><path class="cls-1" d="M595.79,672h2.64v18.11h-2.64Z"/><path class="cls-1" d="M603,672h2.64v18.11H603Z"/><path class="cls-1" d="M612.13,684.2c0,1.91.66,3.74,2.42,3.74a2.24,2.24,0,0,0,2.2-2.08h2.62a5.57,5.57,0,0,1-1.86,3.6,4.9,4.9,0,0,1-3,1c-3.65,0-5.26-3.33-5.26-7.12,0-4.06,1.79-7.15,5.24-7.15a4.33,4.33,0,0,1,3.87,2.08c1.05,1.71,1.15,3.92,1.1,6Zm4.72-2.28c0-1.57-.56-3.57-2.33-3.57-1.44,0-2.4,1.35-2.4,3.57Z"/><path class="cls-1" d="M639.47,690.12H637c0-.81,0-1.4,0-2a3,3,0,0,1-3,2.28c-2.57,0-4.43-2.45-4.43-7.12,0-4.48,1.59-7.15,4.43-7.15a2.81,2.81,0,0,1,2.79,2c0-.54,0-1.08,0-1.69V672h2.64Zm-7.2-6.83c0,3.06.83,4.48,2.3,4.48a1.87,1.87,0,0,0,1.69-.93c.49-.69.56-1.54.56-3.57s-.07-2.89-.56-3.55a1.84,1.84,0,0,0-1.69-1c-1.47,0-2.3,1.44-2.3,4.5Z"/><path class="cls-1" d="M652.58,690.12h-2.42c0-.73,0-1.27,0-1.79a3.09,3.09,0,0,1-3,2.08c-2.57,0-4.43-2.45-4.43-7.12,0-4.48,1.59-7.15,4.43-7.15a3,3,0,0,1,3,2.15c0-.61,0-1.17,0-1.86h2.42Zm-7.2-6.8c0,3,.83,4.48,2.3,4.48a1.84,1.84,0,0,0,1.69-1c.49-.66.56-1.54.56-3.55s-.07-2.91-.56-3.57a1.87,1.87,0,0,0-1.69-.93c-1.47,0-2.3,1.42-2.3,4.5Z"/><path class="cls-1" d="M656.54,676.44h2.33c0,.56,0,1.1,0,1.69a3.2,3.2,0,0,1,3.25-2c2.25,0,3.7,1.25,3.7,4.23v9.74h-2.64v-8.88c0-1.1-.22-2.45-1.84-2.45-1.27,0-2.13.78-2.13,2.57v8.76h-2.64Z"/><path class="cls-1" d="M675,680.31c0-1.3-.64-1.86-1.74-1.86a1.36,1.36,0,0,0-1.47,1.42c0,1.32,1.44,1.57,3,2.06a4,4,0,0,1,3.16,4.16,4.31,4.31,0,0,1-4.55,4.33c-2.57,0-4.5-1.44-4.72-4.53h2.64A2,2,0,0,0,673.5,688a1.6,1.6,0,0,0,1.71-1.76c0-1.37-1.42-1.69-3.06-2.23S669,682.59,669,680c0-2.23,1.59-3.82,4.36-3.82s4.14,1.54,4.28,4.16Z"/><path class="cls-1" d="M688.92,672h2.64v18.11h-2.64Z"/><path class="cls-1" d="M705,690.12h-2.42c0-.73,0-1.27,0-1.79a3.09,3.09,0,0,1-3,2.08c-2.57,0-4.43-2.45-4.43-7.12,0-4.48,1.59-7.15,4.43-7.15a3,3,0,0,1,3,2.15c0-.61,0-1.17,0-1.86H705Zm-7.2-6.8c0,3,.83,4.48,2.3,4.48a1.84,1.84,0,0,0,1.69-1c.49-.66.56-1.54.56-3.55s-.07-2.91-.56-3.57a1.87,1.87,0,0,0-1.69-.93c-1.47,0-2.3,1.42-2.3,4.5Z"/><path class="cls-1" d="M719.28,690.64c0,2.45-1,4.14-3.35,4.28-.27,0-.56,0-.83,0v-2.52h.2c1-.12,1.35-.86,1.35-2.18v-13.8h2.64ZM716.64,672h2.64v2.62h-2.64Z"/><path class="cls-1" d="M722.83,683.27c0-3.92,1.66-7.12,5.29-7.12s5.26,3.21,5.26,7.15-1.66,7.12-5.26,7.12-5.29-3.21-5.29-7.12Zm2.79,0c0,3.35.91,4.63,2.52,4.63s2.45-1.27,2.45-4.65-.91-4.65-2.52-4.65-2.45,1.25-2.45,4.65Z"/><path class="cls-1" d="M745.88,690.12h-2.42c0-.59,0-1.17,0-1.81a3,3,0,0,1-3.18,2.11c-2.23,0-3.67-1.25-3.67-4.23v-9.74h2.64v8.88c0,1.1.22,2.47,1.83,2.47,1.25,0,2.13-.81,2.13-2.59v-8.76h2.64Z"/><path class="cls-1" d="M749.84,676.44h2.42c0,.83,0,1.52,0,2.2.56-2.08,2-2.5,3.55-2.5v3.21a2,2,0,0,0-1.12-.32c-1.2,0-2.18,1.17-2.18,3.35v7.73h-2.64Z"/><path class="cls-1" d="M758.46,676.44h2.33c0,.56,0,1.1,0,1.69a3.2,3.2,0,0,1,3.25-2c2.25,0,3.7,1.25,3.7,4.23v9.74h-2.64v-8.88c0-1.1-.22-2.45-1.84-2.45-1.27,0-2.13.78-2.13,2.57v8.76h-2.64Z"/><path class="cls-1" d="M773.9,684.2c0,1.91.66,3.74,2.42,3.74a2.24,2.24,0,0,0,2.2-2.08h2.62a5.57,5.57,0,0,1-1.86,3.6,4.9,4.9,0,0,1-3,1c-3.65,0-5.26-3.33-5.26-7.12,0-4.06,1.79-7.15,5.24-7.15a4.33,4.33,0,0,1,3.87,2.08c1.05,1.71,1.15,3.92,1.1,6Zm5.31-13.51,1,2.13-5.6,2.67-.93-1.74Zm-.59,11.23c0-1.57-.56-3.57-2.33-3.57-1.44,0-2.4,1.35-2.4,3.57Z"/><path class="cls-1" d="M786.89,684.2c0,1.91.66,3.74,2.42,3.74a2.24,2.24,0,0,0,2.2-2.08h2.62a5.57,5.57,0,0,1-1.86,3.6,4.9,4.9,0,0,1-3,1c-3.65,0-5.26-3.33-5.26-7.12,0-4.06,1.79-7.15,5.24-7.15a4.33,4.33,0,0,1,3.87,2.08c1.05,1.71,1.15,3.92,1.1,6Zm4.72-2.28c0-1.57-.56-3.57-2.33-3.57-1.44,0-2.4,1.35-2.4,3.57Z"/><path class="cls-1" d="M800.47,690.12h-2.64v-3.23h2.64Z"/><path class="cls-1" d="M1076.83,605.48a6.71,6.71,0,0,1-.42,2.47,4.12,4.12,0,0,1-1.83,2,5.27,5.27,0,0,1-2.62.66c-2.74,0-4.75-1.57-4.87-4.58,0-.29,0-.61,0-.9h3c0,.1,0,.22,0,.34.15,2,.91,2.38,1.91,2.38a1.63,1.63,0,0,0,1.52-.86,4.27,4.27,0,0,0,.34-2v-12.8h3Z"/><path class="cls-1" d="M1083.24,604.33c0,1.91.66,3.74,2.42,3.74a2.24,2.24,0,0,0,2.2-2.08h2.62a5.56,5.56,0,0,1-1.86,3.6,4.9,4.9,0,0,1-3,1c-3.65,0-5.26-3.33-5.26-7.12,0-4.06,1.79-7.15,5.24-7.15a4.33,4.33,0,0,1,3.87,2.08c1.05,1.71,1.15,3.92,1.1,6Zm4.72-2.28c0-1.57-.56-3.57-2.33-3.57-1.44,0-2.4,1.35-2.4,3.57Z"/><path class="cls-1" d="M1100.79,599.07h-1.37v-2.5h1.37v-.73c0-3.79,3.21-4,4.65-4v2.3c-.93,0-2,.24-2,2v.46h2v2.5h-2v11.19h-2.64Z"/><path class="cls-1" d="M1107.05,603.4c0-3.92,1.66-7.12,5.29-7.12s5.26,3.21,5.26,7.15-1.66,7.12-5.26,7.12-5.29-3.21-5.29-7.12Zm2.79,0c0,3.35.91,4.63,2.52,4.63s2.45-1.27,2.45-4.65-.91-4.65-2.52-4.65-2.45,1.25-2.45,4.65Z"/><path class="cls-1" d="M1120.88,596.57h2.42c0,.83,0,1.52,0,2.2.56-2.08,2-2.5,3.55-2.5v3.21a2,2,0,0,0-1.13-.32c-1.2,0-2.18,1.17-2.18,3.35v7.73h-2.64Z"/><path class="cls-1" d="M1129.59,596.57h2.52c0,.61,0,1.2,0,1.84a2.85,2.85,0,0,1,3-2.13,3,3,0,0,1,2.13.73,2.68,2.68,0,0,1,.68,1.15,3,3,0,0,1,1-1.22,4.33,4.33,0,0,1,2.35-.66,3.68,3.68,0,0,1,3.13,1.49,5.5,5.5,0,0,1,.86,3.23v9.25h-2.64v-8.86a3.34,3.34,0,0,0-.32-1.71,1.53,1.53,0,0,0-1.47-.76,1.84,1.84,0,0,0-1.54.59,2.7,2.7,0,0,0-.54,1.81v8.93h-2.64v-8.84a3.5,3.5,0,0,0-.32-1.74,1.49,1.49,0,0,0-1.44-.76,1.92,1.92,0,0,0-1.54.56,2.84,2.84,0,0,0-.54,1.86v8.91h-2.67Z"/><path class="cls-1" d="M1158.39,610.25H1156c0-.59,0-1.17,0-1.81a3,3,0,0,1-3.18,2.11c-2.23,0-3.67-1.25-3.67-4.23v-9.74h2.64v8.88c0,1.1.22,2.47,1.84,2.47,1.25,0,2.13-.81,2.13-2.6v-8.76h2.64Z"/><path class="cls-1" d="M1162.65,592.14h2.64v18.11h-2.64Z"/><path class="cls-1" d="M1171.8,604.33c0,1.91.66,3.74,2.42,3.74a2.24,2.24,0,0,0,2.2-2.08H1179a5.56,5.56,0,0,1-1.86,3.6,4.9,4.9,0,0,1-3,1c-3.65,0-5.26-3.33-5.26-7.12,0-4.06,1.79-7.15,5.24-7.15a4.33,4.33,0,0,1,3.87,2.08c1.05,1.71,1.15,3.92,1.1,6Zm4.72-2.28c0-1.57-.56-3.57-2.32-3.57-1.44,0-2.4,1.35-2.4,3.57Z"/><path class="cls-1" d="M1198.28,610.25h-2.42c0-.59,0-1.17,0-1.81a3,3,0,0,1-3.18,2.11c-2.23,0-3.67-1.25-3.67-4.23v-9.74h2.64v8.88c0,1.1.22,2.47,1.84,2.47,1.25,0,2.13-.81,2.13-2.6v-8.76h2.64Z"/><path class="cls-1" d="M1202.24,596.57h2.33c0,.56,0,1.1,0,1.69a3.2,3.2,0,0,1,3.25-2c2.25,0,3.7,1.25,3.7,4.23v9.74h-2.64v-8.88c0-1.1-.22-2.45-1.84-2.45-1.27,0-2.13.78-2.13,2.57v8.76h-2.64Z"/><path class="cls-1" d="M1217.68,604.33c0,1.91.66,3.74,2.42,3.74a2.24,2.24,0,0,0,2.2-2.08h2.62a5.57,5.57,0,0,1-1.86,3.6,4.9,4.9,0,0,1-3,1c-3.65,0-5.26-3.33-5.26-7.12,0-4.06,1.79-7.15,5.24-7.15a4.33,4.33,0,0,1,3.87,2.08c1.05,1.71,1.15,3.92,1.1,6Zm4.72-2.28c0-1.57-.56-3.57-2.33-3.57-1.44,0-2.4,1.35-2.4,3.57Z"/><path class="cls-1" d="M1234.94,596.57h2.42c0,.83,0,1.52,0,2.2.56-2.08,2-2.5,3.55-2.5v3.21a2,2,0,0,0-1.13-.32c-1.2,0-2.18,1.17-2.18,3.35v7.73h-2.64Z"/><path class="cls-1" d="M1245.46,604.33c0,1.91.66,3.74,2.42,3.74a2.24,2.24,0,0,0,2.2-2.08h2.62a5.56,5.56,0,0,1-1.86,3.6,4.9,4.9,0,0,1-3,1c-3.65,0-5.26-3.33-5.26-7.12,0-4.06,1.79-7.15,5.24-7.15a4.33,4.33,0,0,1,3.87,2.08c1.05,1.71,1.15,3.92,1.1,6Zm4.72-2.28c0-1.57-.56-3.57-2.33-3.57-1.44,0-2.4,1.35-2.4,3.57Z"/><path class="cls-1" d="M1256.5,592.14h2.64v18.11h-2.64Z"/><path class="cls-1" d="M1272.55,610.25h-2.42c0-.73,0-1.27,0-1.79a3.09,3.09,0,0,1-3,2.08c-2.57,0-4.43-2.45-4.43-7.12,0-4.48,1.59-7.15,4.43-7.15a3,3,0,0,1,3,2.15c0-.61,0-1.18,0-1.86h2.42Zm-7.2-6.8c0,3,.83,4.48,2.3,4.48a1.84,1.84,0,0,0,1.69-1c.49-.66.56-1.54.56-3.55s-.07-2.91-.56-3.57a1.87,1.87,0,0,0-1.69-.93c-1.47,0-2.3,1.42-2.3,4.5Z"/><path class="cls-1" d="M1276.51,596.57h2.33c0,.56,0,1.1,0,1.69a3.2,3.2,0,0,1,3.25-2c2.25,0,3.7,1.25,3.7,4.23v9.74h-2.64v-8.88c0-1.1-.22-2.45-1.84-2.45-1.27,0-2.13.78-2.13,2.57v8.76h-2.64Z"/><path class="cls-1" d="M1298.64,605.26c-.1,2.79-1.54,5.29-4.43,5.29-3.4,0-5.29-2.87-5.29-7.12,0-4.53,2.06-7.15,5.26-7.15,2.91,0,4.38,2.47,4.43,5.34h-2.74c-.1-2.06-.86-2.84-1.88-2.84a1.71,1.71,0,0,0-1.66,1.08,7.81,7.81,0,0,0-.61,3.57c0,3.28.83,4.65,2.3,4.65,1.22,0,1.79-1.2,1.88-2.81Z"/><path class="cls-1" d="M1303.8,604.33c0,1.91.66,3.74,2.42,3.74a2.24,2.24,0,0,0,2.2-2.08H1311a5.56,5.56,0,0,1-1.86,3.6,4.9,4.9,0,0,1-3,1c-3.65,0-5.26-3.33-5.26-7.12,0-4.06,1.79-7.15,5.24-7.15a4.33,4.33,0,0,1,3.87,2.08c1.05,1.71,1.15,3.92,1.1,6Zm4.72-2.28c0-1.57-.56-3.57-2.33-3.57-1.44,0-2.4,1.35-2.4,3.57Z"/><path class="cls-1" d="M1321.05,596.57h2.42v1.79a3,3,0,0,1,3-2.08c2.57,0,4.43,2.45,4.43,7.15,0,4.46-1.59,7.12-4.43,7.12a2.91,2.91,0,0,1-2.77-1.86v6.17h-2.64Zm7.2,6.83c0-3.06-.81-4.48-2.3-4.48a1.83,1.83,0,0,0-1.62.93c-.49.66-.64,1.54-.64,3.57s.15,2.89.64,3.55a1.81,1.81,0,0,0,1.62,1c1.49,0,2.3-1.45,2.3-4.5Z"/><path class="cls-1" d="M1343.32,610.25h-2.42c0-.73,0-1.27,0-1.79a3.09,3.09,0,0,1-3,2.08c-2.57,0-4.43-2.45-4.43-7.12,0-4.48,1.59-7.15,4.43-7.15a3,3,0,0,1,3,2.15c0-.61,0-1.18,0-1.86h2.42Zm-7.2-6.8c0,3,.83,4.48,2.3,4.48a1.84,1.84,0,0,0,1.69-1c.49-.66.56-1.54.56-3.55s-.07-2.91-.56-3.57a1.87,1.87,0,0,0-1.69-.93c-1.47,0-2.3,1.42-2.3,4.5Z"/><path class="cls-1" d="M1347.28,596.57h2.42c0,.83,0,1.52,0,2.2.56-2.08,2-2.5,3.55-2.5v3.21a2,2,0,0,0-1.13-.32c-1.2,0-2.18,1.17-2.18,3.35v7.73h-2.64Z"/><path class="cls-1" d="M1362.88,599.07h-1.64v-2.5h1.64v-3.25h2.64v3.25h1.62v2.5h-1.62v11.19h-2.64Z"/><path class="cls-1" d="M1371.91,604.33c0,1.91.66,3.74,2.42,3.74a2.24,2.24,0,0,0,2.2-2.08h2.62a5.57,5.57,0,0,1-1.86,3.6,4.9,4.9,0,0,1-3,1c-3.65,0-5.26-3.33-5.26-7.12,0-4.06,1.79-7.15,5.24-7.15a4.33,4.33,0,0,1,3.87,2.08c1.05,1.71,1.15,3.92,1.1,6Zm5.31-13.51,1,2.13-5.6,2.67-.93-1.74Zm-.59,11.23c0-1.57-.56-3.57-2.33-3.57-1.44,0-2.4,1.35-2.4,3.57Z"/><path class="cls-1" d="M1382.94,592.14h2.64v18.11h-2.64Z"/><path class="cls-1" d="M1392.09,604.33c0,1.91.66,3.74,2.42,3.74a2.24,2.24,0,0,0,2.2-2.08h2.62a5.57,5.57,0,0,1-1.86,3.6,4.9,4.9,0,0,1-3,1c-3.65,0-5.26-3.33-5.26-7.12,0-4.06,1.79-7.15,5.24-7.15a4.33,4.33,0,0,1,3.87,2.08c1.05,1.71,1.15,3.92,1.1,6Zm5.31-13.51,1,2.13-5.61,2.67-.93-1.74Zm-.59,11.23c0-1.57-.56-3.57-2.33-3.57-1.44,0-2.4,1.35-2.4,3.57Z"/><path class="cls-1" d="M1402.83,596.57h2.42v1.79a3,3,0,0,1,3-2.08c2.57,0,4.43,2.45,4.43,7.15,0,4.46-1.59,7.12-4.43,7.12a2.91,2.91,0,0,1-2.77-1.86v6.17h-2.64Zm7.2,6.83c0-3.06-.81-4.48-2.3-4.48a1.83,1.83,0,0,0-1.62.93c-.49.66-.64,1.54-.64,3.57s.15,2.89.64,3.55a1.81,1.81,0,0,0,1.62,1c1.49,0,2.3-1.45,2.3-4.5Z"/><path class="cls-1" d="M1415.95,592.14h2.64v4.21c0,.54,0,1,0,1.59.39-1,1.25-1.66,2.91-1.66a3.45,3.45,0,0,1,2.79,1.15,4.75,4.75,0,0,1,.93,3.23v9.59h-2.64v-8.81a3.18,3.18,0,0,0-.42-1.86,1.55,1.55,0,0,0-1.4-.66,1.9,1.9,0,0,0-1.57.64,2.73,2.73,0,0,0-.59,2v8.69h-2.64Z"/><path class="cls-1" d="M1428.45,603.4c0-3.92,1.67-7.12,5.29-7.12s5.26,3.21,5.26,7.15-1.66,7.12-5.26,7.12-5.29-3.21-5.29-7.12Zm2.79,0c0,3.35.91,4.63,2.52,4.63s2.45-1.27,2.45-4.65-.91-4.65-2.52-4.65-2.45,1.25-2.45,4.65Z"/><path class="cls-1" d="M1442.28,596.57h2.33c0,.56,0,1.1,0,1.69a3.2,3.2,0,0,1,3.25-2c2.25,0,3.7,1.25,3.7,4.23v9.74h-2.64v-8.88c0-1.1-.22-2.45-1.84-2.45-1.27,0-2.13.78-2.13,2.57v8.76h-2.64Z"/><path class="cls-1" d="M1457.72,604.33c0,1.91.66,3.74,2.42,3.74a2.24,2.24,0,0,0,2.2-2.08H1465a5.57,5.57,0,0,1-1.86,3.6,4.9,4.9,0,0,1-3,1c-3.65,0-5.26-3.33-5.26-7.12,0-4.06,1.79-7.15,5.24-7.15a4.33,4.33,0,0,1,3.87,2.08c1.05,1.71,1.15,3.92,1.1,6Zm4.72-2.28c0-1.57-.56-3.57-2.33-3.57-1.44,0-2.4,1.35-2.4,3.57Z"/><path class="cls-1" d="M1474.29,603.4c0-3.92,1.67-7.12,5.29-7.12s5.26,3.21,5.26,7.15-1.66,7.12-5.26,7.12-5.29-3.21-5.29-7.12Zm2.79,0c0,3.35.91,4.63,2.52,4.63s2.45-1.27,2.45-4.65-.91-4.65-2.52-4.65-2.45,1.25-2.45,4.65Z"/><path class="cls-1" d="M1497.34,610.25h-2.42c0-.59,0-1.17,0-1.81a3,3,0,0,1-3.18,2.11c-2.23,0-3.67-1.25-3.67-4.23v-9.74h2.64v8.88c0,1.1.22,2.47,1.84,2.47,1.25,0,2.13-.81,2.13-2.6v-8.76h2.64Z"/><path class="cls-1" d="M1507.82,596.57h2.42v1.79a3,3,0,0,1,3-2.08c2.57,0,4.43,2.45,4.43,7.15,0,4.46-1.59,7.12-4.43,7.12a2.91,2.91,0,0,1-2.77-1.86v6.17h-2.64Zm7.2,6.83c0-3.06-.81-4.48-2.3-4.48a1.83,1.83,0,0,0-1.62.93c-.49.66-.64,1.54-.64,3.57s.15,2.89.64,3.55a1.81,1.81,0,0,0,1.62,1c1.49,0,2.3-1.45,2.3-4.5Z"/><path class="cls-1" d="M1530.09,610.25h-2.42c0-.73,0-1.27,0-1.79a3.09,3.09,0,0,1-3,2.08c-2.57,0-4.43-2.45-4.43-7.12,0-4.48,1.59-7.15,4.43-7.15a3,3,0,0,1,3,2.15c0-.61,0-1.18,0-1.86h2.42Zm-7.2-6.8c0,3,.83,4.48,2.3,4.48a1.84,1.84,0,0,0,1.69-1c.49-.66.56-1.54.56-3.55s-.07-2.91-.56-3.57a1.87,1.87,0,0,0-1.69-.93c-1.47,0-2.3,1.42-2.3,4.5Z"/><path class="cls-1" d="M1534,596.57h2.42c0,.83,0,1.52,0,2.2.56-2.08,2-2.5,3.55-2.5v3.21a2,2,0,0,0-1.12-.32c-1.2,0-2.18,1.17-2.18,3.35v7.73H1534Z"/><path class="cls-1" d="M1549.27,596.57h2.52c0,.61,0,1.2,0,1.84a2.85,2.85,0,0,1,3-2.13,3,3,0,0,1,2.13.73,2.66,2.66,0,0,1,.69,1.15,3,3,0,0,1,1-1.22,4.33,4.33,0,0,1,2.35-.66,3.68,3.68,0,0,1,3.13,1.49,5.5,5.5,0,0,1,.86,3.23v9.25h-2.64v-8.86a3.35,3.35,0,0,0-.32-1.71,1.53,1.53,0,0,0-1.47-.76,1.85,1.85,0,0,0-1.54.59,2.71,2.71,0,0,0-.54,1.81v8.93h-2.64v-8.84a3.49,3.49,0,0,0-.32-1.74,1.49,1.49,0,0,0-1.44-.76,1.92,1.92,0,0,0-1.54.56,2.84,2.84,0,0,0-.54,1.86v8.91h-2.67Z"/><path class="cls-1" d="M1578.13,610.25h-2.42c0-.73,0-1.27,0-1.79a3.09,3.09,0,0,1-3,2.08c-2.57,0-4.43-2.45-4.43-7.12,0-4.48,1.59-7.15,4.43-7.15a3,3,0,0,1,3,2.15c0-.61,0-1.18,0-1.86h2.42Zm-7.2-6.8c0,3,.83,4.48,2.3,4.48a1.84,1.84,0,0,0,1.69-1c.49-.66.56-1.54.56-3.55s-.07-2.91-.56-3.57a1.87,1.87,0,0,0-1.69-.93c-1.47,0-2.3,1.42-2.3,4.5Z"/><path class="cls-1" d="M1582.38,592.14H1585v2.62h-2.64Zm0,4.43H1585v13.68h-2.64Z"/><path class="cls-1" d="M1589.57,592.14h2.64v18.11h-2.64Z"/><path class="cls-1" d="M1597.75,612.58h-2.15l1.71-5.56h2.52Z"/><path class="cls-1" d="M1077.39,634.62c-.1,2.79-1.54,5.29-4.43,5.29-3.4,0-5.29-2.87-5.29-7.12,0-4.53,2.06-7.15,5.26-7.15,2.91,0,4.38,2.47,4.43,5.34h-2.74c-.1-2.06-.86-2.84-1.88-2.84a1.71,1.71,0,0,0-1.66,1.08,7.81,7.81,0,0,0-.61,3.57c0,3.28.83,4.65,2.3,4.65,1.22,0,1.79-1.2,1.88-2.81Z"/><path class="cls-1" d="M1082.55,633.69c0,1.91.66,3.74,2.42,3.74a2.24,2.24,0,0,0,2.2-2.08h2.62a5.57,5.57,0,0,1-1.86,3.6,4.9,4.9,0,0,1-3,1c-3.65,0-5.26-3.33-5.26-7.12,0-4.06,1.79-7.15,5.24-7.15a4.33,4.33,0,0,1,3.87,2.08c1.05,1.71,1.15,3.92,1.1,6Zm4.72-2.28c0-1.57-.56-3.57-2.33-3.57-1.44,0-2.4,1.35-2.4,3.57Z"/><path class="cls-1" d="M1093.59,621.5h2.64v18.11h-2.64Z"/><path class="cls-1" d="M1109.64,639.62h-2.42c0-.73,0-1.27,0-1.79a3.09,3.09,0,0,1-3,2.08c-2.57,0-4.43-2.45-4.43-7.12,0-4.48,1.59-7.15,4.43-7.15a3,3,0,0,1,3,2.15c0-.61,0-1.18,0-1.86h2.42Zm-7.2-6.8c0,3,.83,4.48,2.3,4.48a1.84,1.84,0,0,0,1.69-1c.49-.66.56-1.54.56-3.55s-.07-2.91-.56-3.57a1.87,1.87,0,0,0-1.69-.93c-1.47,0-2.3,1.42-2.3,4.5Z"/><path class="cls-1" d="M1121.14,625.93h2.52c0,.61,0,1.2,0,1.84a2.85,2.85,0,0,1,3-2.13,3,3,0,0,1,2.13.73,2.68,2.68,0,0,1,.68,1.15,3,3,0,0,1,1-1.22,4.33,4.33,0,0,1,2.35-.66,3.68,3.68,0,0,1,3.13,1.49,5.5,5.5,0,0,1,.86,3.23v9.25h-2.64v-8.86a3.34,3.34,0,0,0-.32-1.71,1.53,1.53,0,0,0-1.47-.76,1.84,1.84,0,0,0-1.54.59,2.7,2.7,0,0,0-.54,1.81v8.93h-2.64v-8.84a3.5,3.5,0,0,0-.32-1.74,1.49,1.49,0,0,0-1.44-.76,1.92,1.92,0,0,0-1.54.56,2.84,2.84,0,0,0-.54,1.86v8.91h-2.67Z"/><path class="cls-1" d="M1140.15,632.76c0-3.92,1.67-7.12,5.29-7.12s5.26,3.21,5.26,7.15-1.66,7.12-5.26,7.12-5.29-3.21-5.29-7.12Zm2.79,0c0,3.35.91,4.63,2.52,4.63s2.45-1.27,2.45-4.65-.91-4.65-2.52-4.65-2.45,1.25-2.45,4.65Z"/><path class="cls-1" d="M1154,625.93h2.33c0,.56,0,1.1,0,1.69a3.2,3.2,0,0,1,3.25-2c2.25,0,3.7,1.25,3.7,4.23v9.74h-2.64v-8.88c0-1.1-.22-2.45-1.84-2.45-1.27,0-2.13.78-2.13,2.57v8.76H1154Z"/><path class="cls-1" d="M1167.63,628.43H1166v-2.5h1.64v-3.25h2.64v3.25h1.62v2.5h-1.62v11.19h-2.64Z"/><path class="cls-1" d="M1174.68,625.93h2.42c0,.83,0,1.52,0,2.2.56-2.08,2-2.5,3.55-2.5v3.21a2,2,0,0,0-1.13-.32c-1.2,0-2.18,1.17-2.18,3.35v7.73h-2.64Z"/><path class="cls-1" d="M1185.2,633.69c0,1.91.66,3.74,2.42,3.74a2.24,2.24,0,0,0,2.2-2.08h2.62a5.56,5.56,0,0,1-1.86,3.6,4.9,4.9,0,0,1-3,1c-3.65,0-5.26-3.33-5.26-7.12,0-4.06,1.79-7.15,5.24-7.15a4.33,4.33,0,0,1,3.87,2.08c1.05,1.71,1.15,3.92,1.1,6Zm4.72-2.28c0-1.57-.56-3.57-2.33-3.57-1.44,0-2.4,1.35-2.4,3.57Z"/><path class="cls-1" d="M1203.48,625.93H1206c0,.61,0,1.2,0,1.84a2.85,2.85,0,0,1,3-2.13,3,3,0,0,1,2.13.73,2.68,2.68,0,0,1,.68,1.15,3,3,0,0,1,1-1.22,4.33,4.33,0,0,1,2.35-.66,3.68,3.68,0,0,1,3.13,1.49,5.5,5.5,0,0,1,.86,3.23v9.25h-2.64v-8.86a3.34,3.34,0,0,0-.32-1.71,1.53,1.53,0,0,0-1.47-.76,1.84,1.84,0,0,0-1.54.59,2.7,2.7,0,0,0-.54,1.81v8.93H1210v-8.84a3.5,3.5,0,0,0-.32-1.74,1.49,1.49,0,0,0-1.44-.76,1.92,1.92,0,0,0-1.54.56,2.84,2.84,0,0,0-.54,1.86v8.91h-2.67Z"/><path class="cls-1" d="M1232.33,639.62h-2.42c0-.73,0-1.27,0-1.79a3.09,3.09,0,0,1-3,2.08c-2.57,0-4.43-2.45-4.43-7.12,0-4.48,1.59-7.15,4.43-7.15a3,3,0,0,1,3,2.15c0-.61,0-1.18,0-1.86h2.42Zm-7.2-6.8c0,3,.83,4.48,2.3,4.48a1.84,1.84,0,0,0,1.69-1c.49-.66.56-1.54.56-3.55s-.07-2.91-.56-3.57a1.87,1.87,0,0,0-1.69-.93c-1.47,0-2.3,1.42-2.3,4.5Z"/><path class="cls-1" d="M1243.83,625.93h2.52c0,.61,0,1.2,0,1.84a2.85,2.85,0,0,1,3-2.13,3,3,0,0,1,2.13.73,2.66,2.66,0,0,1,.69,1.15,3,3,0,0,1,1-1.22,4.33,4.33,0,0,1,2.35-.66,3.68,3.68,0,0,1,3.13,1.49,5.5,5.5,0,0,1,.86,3.23v9.25h-2.64v-8.86a3.35,3.35,0,0,0-.32-1.71,1.53,1.53,0,0,0-1.47-.76,1.85,1.85,0,0,0-1.54.59,2.71,2.71,0,0,0-.54,1.81v8.93h-2.64v-8.84A3.49,3.49,0,0,0,1250,629a1.49,1.49,0,0,0-1.44-.76,1.92,1.92,0,0,0-1.54.56,2.84,2.84,0,0,0-.54,1.86v8.91h-2.67Z"/><path class="cls-1" d="M1262.84,632.76c0-3.92,1.67-7.12,5.29-7.12s5.26,3.21,5.26,7.15-1.66,7.12-5.26,7.12-5.29-3.21-5.29-7.12Zm2.79,0c0,3.35.91,4.63,2.52,4.63s2.45-1.27,2.45-4.65-.91-4.65-2.52-4.65-2.45,1.25-2.45,4.65Z"/><path class="cls-1" d="M1277.13,628.43h-1.64v-2.5h1.64v-3.25h2.64v3.25h1.62v2.5h-1.62v11.19h-2.64Z"/><path class="cls-1" d="M1284.47,621.5h2.64v2.62h-2.64Zm0,4.43h2.64v13.68h-2.64Z"/><path class="cls-1" d="M1296.44,639.62H1294l-4-13.68h2.69l2.52,9.77,2.33-9.77h2.67Z"/><path class="cls-1" d="M1311.66,639.62h-2.42c0-.73,0-1.27,0-1.79a3.09,3.09,0,0,1-3,2.08c-2.57,0-4.43-2.45-4.43-7.12,0-4.48,1.59-7.15,4.43-7.15a3,3,0,0,1,3,2.15c0-.61,0-1.18,0-1.86h2.42Zm-7.2-6.8c0,3,.83,4.48,2.3,4.48a1.84,1.84,0,0,0,1.69-1c.49-.66.56-1.54.56-3.55s-.07-2.91-.56-3.57a1.87,1.87,0,0,0-1.69-.93c-1.47,0-2.3,1.42-2.3,4.5Z"/><path class="cls-1" d="M1316.08,628.43h-1.64v-2.5h1.64v-3.25h2.64v3.25h1.62v2.5h-1.62v11.19h-2.64Z"/><path class="cls-1" d="M1323.42,621.5h2.64v2.62h-2.64Zm0,4.43h2.64v13.68h-2.64Z"/><path class="cls-1" d="M1329.64,632.76c0-3.92,1.66-7.12,5.29-7.12s5.26,3.21,5.26,7.15-1.67,7.12-5.26,7.12-5.29-3.21-5.29-7.12Zm2.79,0c0,3.35.91,4.63,2.52,4.63s2.45-1.27,2.45-4.65-.91-4.65-2.52-4.65-2.45,1.25-2.45,4.65Z"/><path class="cls-1" d="M1343.46,625.93h2.33c0,.56,0,1.1,0,1.69a3.2,3.2,0,0,1,3.26-2c2.25,0,3.7,1.25,3.7,4.23v9.74h-2.64v-8.88c0-1.1-.22-2.45-1.83-2.45-1.27,0-2.13.78-2.13,2.57v8.76h-2.64Z"/><path class="cls-1" d="M1367.32,634.82h-2.91V621.5h2.91Zm0,4.8h-2.91v-3.3h2.91Z"/><path class="cls-1" d="M1076.83,703.39a6.72,6.72,0,0,1-.42,2.47,4.13,4.13,0,0,1-1.83,2,5.28,5.28,0,0,1-2.62.66c-2.74,0-4.75-1.57-4.87-4.58,0-.29,0-.61,0-.91h3c0,.1,0,.22,0,.34.15,2,.91,2.37,1.91,2.37a1.64,1.64,0,0,0,1.52-.86,4.28,4.28,0,0,0,.34-2v-12.8h3Z"/><path class="cls-1" d="M1083.24,702.24c0,1.91.66,3.74,2.42,3.74a2.24,2.24,0,0,0,2.2-2.08h2.62a5.56,5.56,0,0,1-1.86,3.6,4.9,4.9,0,0,1-3,1c-3.65,0-5.26-3.33-5.26-7.12,0-4.06,1.79-7.15,5.24-7.15a4.33,4.33,0,0,1,3.87,2.08c1.05,1.71,1.15,3.92,1.1,6ZM1088,700c0-1.57-.56-3.57-2.33-3.57-1.44,0-2.4,1.35-2.4,3.57Z"/><path class="cls-1" d="M1101.42,694.48h2.42c0,.83,0,1.52,0,2.2.56-2.08,2-2.5,3.55-2.5v3.21a2,2,0,0,0-1.12-.32c-1.2,0-2.18,1.17-2.18,3.35v7.73h-2.64Z"/><path class="cls-1" d="M1111.94,702.24c0,1.91.66,3.74,2.42,3.74a2.24,2.24,0,0,0,2.2-2.08h2.62a5.57,5.57,0,0,1-1.86,3.6,4.9,4.9,0,0,1-3,1c-3.65,0-5.26-3.33-5.26-7.12,0-4.06,1.79-7.15,5.24-7.15a4.33,4.33,0,0,1,3.87,2.08c1.05,1.71,1.15,3.92,1.1,6Zm4.72-2.28c0-1.57-.56-3.57-2.33-3.57-1.44,0-2.4,1.35-2.4,3.57Z"/><path class="cls-1" d="M1127.43,708.16H1125l-4-13.68h2.69l2.52,9.77,2.33-9.77h2.67Z"/><path class="cls-1" d="M1134,690.05h2.64v2.62H1134Zm0,4.43h2.64v13.68H1134Z"/><path class="cls-1" d="M1143.16,702.24c0,1.91.66,3.74,2.42,3.74a2.24,2.24,0,0,0,2.2-2.08h2.62a5.56,5.56,0,0,1-1.86,3.6,4.9,4.9,0,0,1-3,1c-3.65,0-5.26-3.33-5.26-7.12,0-4.06,1.79-7.15,5.24-7.15a4.33,4.33,0,0,1,3.87,2.08c1.05,1.71,1.15,3.92,1.1,6Zm4.72-2.28c0-1.57-.56-3.57-2.33-3.57-1.44,0-2.4,1.35-2.4,3.57Z"/><path class="cls-1" d="M1153.9,694.48h2.33c0,.56,0,1.1,0,1.69a3.2,3.2,0,0,1,3.25-2c2.25,0,3.7,1.25,3.7,4.23v9.74h-2.64v-8.88c0-1.1-.22-2.45-1.84-2.45-1.27,0-2.13.78-2.13,2.57v8.76h-2.64Z"/><path class="cls-1" d="M1172.38,698.35c0-1.3-.64-1.86-1.74-1.86a1.36,1.36,0,0,0-1.47,1.42c0,1.32,1.44,1.57,3,2.06a4,4,0,0,1,3.16,4.16,4.31,4.31,0,0,1-4.55,4.33c-2.57,0-4.5-1.44-4.72-4.53h2.64a2,2,0,0,0,2.13,2.13,1.6,1.6,0,0,0,1.71-1.76c0-1.37-1.42-1.69-3.06-2.23s-3.13-1.44-3.13-4.06c0-2.23,1.59-3.82,4.36-3.82s4.14,1.54,4.28,4.16Z"/><path class="cls-1" d="M1191.27,698.35c0-1.3-.64-1.86-1.74-1.86a1.36,1.36,0,0,0-1.47,1.42c0,1.32,1.44,1.57,3,2.06a4,4,0,0,1,3.16,4.16,4.31,4.31,0,0,1-4.55,4.33c-2.57,0-4.5-1.44-4.72-4.53h2.64a2,2,0,0,0,2.13,2.13,1.6,1.6,0,0,0,1.71-1.76c0-1.37-1.42-1.69-3.06-2.23s-3.13-1.44-3.13-4.06c0-2.23,1.59-3.82,4.36-3.82s4.14,1.54,4.28,4.16Z"/><path class="cls-1" d="M1206.66,708.16h-2.42c0-.59,0-1.17,0-1.81a3,3,0,0,1-3.18,2.11c-2.23,0-3.67-1.25-3.67-4.23v-9.74h2.64v8.88c0,1.1.22,2.47,1.84,2.47,1.25,0,2.13-.81,2.13-2.59v-8.76h2.64Z"/><path class="cls-1" d="M1210.62,694.48H1213c0,.83,0,1.52,0,2.2.56-2.08,2-2.5,3.55-2.5v3.21a2,2,0,0,0-1.13-.32c-1.2,0-2.18,1.17-2.18,3.35v7.73h-2.64Z"/><path class="cls-1" d="M1227,690.05h2.64v18.11H1227Z"/><path class="cls-1" d="M1236.12,702.24c0,1.91.66,3.74,2.42,3.74a2.24,2.24,0,0,0,2.2-2.08h2.62a5.56,5.56,0,0,1-1.86,3.6,4.9,4.9,0,0,1-3,1c-3.65,0-5.26-3.33-5.26-7.12,0-4.06,1.79-7.15,5.24-7.15a4.33,4.33,0,0,1,3.87,2.08c1.05,1.71,1.15,3.92,1.1,6Zm4.72-2.28c0-1.57-.56-3.57-2.33-3.57-1.44,0-2.4,1.35-2.4,3.57Z"/><path class="cls-1" d="M1252.15,698.35c0-1.3-.64-1.86-1.74-1.86a1.36,1.36,0,0,0-1.47,1.42c0,1.32,1.44,1.57,3,2.06a4,4,0,0,1,3.16,4.16,4.31,4.31,0,0,1-4.55,4.33c-2.57,0-4.5-1.44-4.72-4.53h2.64a2,2,0,0,0,2.13,2.13,1.6,1.6,0,0,0,1.71-1.76c0-1.37-1.42-1.69-3.06-2.23s-3.13-1.44-3.13-4.06c0-2.23,1.59-3.82,4.36-3.82s4.14,1.54,4.28,4.16Z"/><path class="cls-1" d="M1266,690.05h2.64v18.11H1266Z"/><path class="cls-1" d="M1273.24,690.05h2.64v2.62h-2.64Zm0,4.43h2.64v13.68h-2.64Z"/><path class="cls-1" d="M1282.39,702.24c0,1.91.66,3.74,2.42,3.74a2.24,2.24,0,0,0,2.2-2.08h2.62a5.57,5.57,0,0,1-1.86,3.6,4.9,4.9,0,0,1-3,1c-3.65,0-5.26-3.33-5.26-7.12,0-4.06,1.79-7.15,5.24-7.15a4.33,4.33,0,0,1,3.87,2.08c1.05,1.71,1.15,3.92,1.1,6Zm4.72-2.28c0-1.57-.56-3.57-2.33-3.57-1.44,0-2.4,1.35-2.4,3.57Z"/><path class="cls-1" d="M1302.36,708.16h-2.42c0-.59,0-1.17,0-1.81a3,3,0,0,1-3.18,2.11c-2.23,0-3.67-1.25-3.67-4.23v-9.74h2.64v8.88c0,1.1.22,2.47,1.84,2.47,1.25,0,2.13-.81,2.13-2.59v-8.76h2.64Z"/><path class="cls-1" d="M1308.74,701.09l-3.52-6.61h3.11l2,4.65,2.1-4.65h3l-3.5,6.61,3.89,7.07h-3.13l-2.37-5.09-2.3,5.09h-3.13Z"/><path class="cls-1" d="M1325.87,694.48h2.42v1.79a3,3,0,0,1,3-2.08c2.57,0,4.43,2.45,4.43,7.15,0,4.45-1.59,7.12-4.43,7.12a2.91,2.91,0,0,1-2.77-1.86v6.17h-2.64Zm7.2,6.83c0-3.06-.81-4.48-2.3-4.48a1.83,1.83,0,0,0-1.62.93c-.49.66-.64,1.54-.64,3.57s.15,2.89.64,3.55a1.81,1.81,0,0,0,1.62,1c1.49,0,2.3-1.44,2.3-4.5Z"/><path class="cls-1" d="M1338.3,701.31c0-3.92,1.66-7.12,5.29-7.12s5.26,3.21,5.26,7.15-1.67,7.12-5.26,7.12-5.29-3.21-5.29-7.12Zm2.79,0c0,3.35.91,4.63,2.52,4.63s2.45-1.27,2.45-4.65-.91-4.65-2.52-4.65-2.45,1.25-2.45,4.65Z"/><path class="cls-1" d="M1361.35,708.16h-2.42c0-.59,0-1.17,0-1.81a3,3,0,0,1-3.18,2.11c-2.23,0-3.67-1.25-3.67-4.23v-9.74h2.64v8.88c0,1.1.22,2.47,1.84,2.47,1.25,0,2.13-.81,2.13-2.59v-8.76h2.64Z"/><path class="cls-1" d="M1365.31,694.48h2.42c0,.83,0,1.52,0,2.2.56-2.08,2-2.5,3.55-2.5v3.21a2,2,0,0,0-1.13-.32c-1.2,0-2.18,1.17-2.18,3.35v7.73h-2.64Z"/><path class="cls-1" d="M1390.52,708.16h-2.42c0-.73,0-1.27,0-1.79a3.09,3.09,0,0,1-3,2.08c-2.57,0-4.43-2.45-4.43-7.12,0-4.48,1.59-7.15,4.43-7.15a3,3,0,0,1,3,2.15c0-.61,0-1.17,0-1.86h2.42Zm-7.2-6.8c0,3,.83,4.48,2.3,4.48a1.84,1.84,0,0,0,1.69-1c.49-.66.56-1.54.56-3.55s-.07-2.91-.56-3.57a1.87,1.87,0,0,0-1.69-.93c-1.47,0-2.3,1.42-2.3,4.5Z"/><path class="cls-1" d="M1399.55,708.16h-2.45l-4-13.68h2.69l2.52,9.77,2.33-9.77h2.67Z"/><path class="cls-1" d="M1404.93,701.31c0-3.92,1.66-7.12,5.29-7.12s5.26,3.21,5.26,7.15-1.66,7.12-5.26,7.12-5.29-3.21-5.29-7.12Zm2.79,0c0,3.35.91,4.63,2.52,4.63s2.45-1.27,2.45-4.65-.91-4.65-2.52-4.65-2.45,1.25-2.45,4.65Z"/><path class="cls-1" d="M1419,690.05h2.64v2.62H1419Zm0,4.43h2.64v13.68H1419Z"/><path class="cls-1" d="M1425.95,694.48h2.42c0,.83,0,1.52,0,2.2.56-2.08,2-2.5,3.55-2.5v3.21a2,2,0,0,0-1.12-.32c-1.2,0-2.18,1.17-2.18,3.35v7.73h-2.64Z"/><path class="cls-1" d="M1451.23,708.16h-2.42c0-.59,0-1.17,0-1.81a3,3,0,0,1-3.18,2.11c-2.23,0-3.67-1.25-3.67-4.23v-9.74h2.64v8.88c0,1.1.22,2.47,1.83,2.47,1.25,0,2.13-.81,2.13-2.59v-8.76h2.64Z"/><path class="cls-1" d="M1455.19,694.48h2.33c0,.56,0,1.1,0,1.69a3.2,3.2,0,0,1,3.26-2c2.25,0,3.7,1.25,3.7,4.23v9.74h-2.64v-8.88c0-1.1-.22-2.45-1.83-2.45-1.27,0-2.13.78-2.13,2.57v8.76h-2.64Z"/><path class="cls-1" d="M1470.63,702.24c0,1.91.66,3.74,2.42,3.74a2.24,2.24,0,0,0,2.2-2.08h2.62a5.57,5.57,0,0,1-1.86,3.6,4.9,4.9,0,0,1-3,1c-3.65,0-5.26-3.33-5.26-7.12,0-4.06,1.79-7.15,5.24-7.15a4.33,4.33,0,0,1,3.87,2.08c1.05,1.71,1.15,3.92,1.1,6Zm4.72-2.28c0-1.57-.56-3.57-2.32-3.57-1.44,0-2.4,1.35-2.4,3.57Z"/><path class="cls-1" d="M1488.81,694.48h2.42c0,.83,0,1.52,0,2.2.56-2.08,2-2.5,3.55-2.5v3.21a2,2,0,0,0-1.13-.32c-1.2,0-2.18,1.17-2.18,3.35v7.73h-2.64Z"/><path class="cls-1" d="M1499.33,702.24c0,1.91.66,3.74,2.42,3.74a2.24,2.24,0,0,0,2.2-2.08h2.62a5.57,5.57,0,0,1-1.86,3.6,4.9,4.9,0,0,1-3,1c-3.65,0-5.26-3.33-5.26-7.12,0-4.06,1.79-7.15,5.24-7.15a4.33,4.33,0,0,1,3.87,2.08c1.05,1.71,1.15,3.92,1.1,6Zm5.31-13.51,1,2.13-5.61,2.67-.93-1.74Zm-.59,11.23c0-1.57-.56-3.57-2.33-3.57-1.44,0-2.4,1.35-2.4,3.57Z"/><path class="cls-1" d="M1510.07,694.48h2.42v1.79a3,3,0,0,1,3-2.08c2.57,0,4.43,2.45,4.43,7.15,0,4.45-1.59,7.12-4.43,7.12a2.91,2.91,0,0,1-2.77-1.86v6.17h-2.64Zm7.2,6.83c0-3.06-.81-4.48-2.3-4.48a1.83,1.83,0,0,0-1.62.93c-.49.66-.64,1.54-.64,3.57s.15,2.89.64,3.55a1.81,1.81,0,0,0,1.62,1c1.49,0,2.3-1.44,2.3-4.5Z"/><path class="cls-1" d="M1522.5,701.31c0-3.92,1.67-7.12,5.29-7.12s5.26,3.21,5.26,7.15-1.66,7.12-5.26,7.12-5.29-3.21-5.29-7.12Zm2.79,0c0,3.35.91,4.63,2.52,4.63s2.45-1.27,2.45-4.65-.91-4.65-2.52-4.65-2.45,1.25-2.45,4.65Z"/><path class="cls-1" d="M1536.33,694.48h2.33c0,.56,0,1.1,0,1.69a3.2,3.2,0,0,1,3.25-2c2.25,0,3.7,1.25,3.7,4.23v9.74h-2.64v-8.88c0-1.1-.22-2.45-1.84-2.45-1.27,0-2.13.78-2.13,2.57v8.76h-2.64Z"/><path class="cls-1" d="M1554.8,698.35c0-1.3-.64-1.86-1.74-1.86a1.36,1.36,0,0,0-1.47,1.42c0,1.32,1.44,1.57,3,2.06a4,4,0,0,1,3.16,4.16,4.3,4.3,0,0,1-4.55,4.33c-2.57,0-4.5-1.44-4.72-4.53h2.64a2,2,0,0,0,2.13,2.13,1.6,1.6,0,0,0,1.71-1.76c0-1.37-1.42-1.69-3.06-2.23s-3.13-1.44-3.13-4.06c0-2.23,1.59-3.82,4.36-3.82s4.14,1.54,4.28,4.16Z"/><path class="cls-1" d="M1563.22,702.24c0,1.91.66,3.74,2.42,3.74a2.24,2.24,0,0,0,2.2-2.08h2.62a5.57,5.57,0,0,1-1.86,3.6,4.9,4.9,0,0,1-3,1c-3.65,0-5.26-3.33-5.26-7.12,0-4.06,1.79-7.15,5.24-7.15a4.33,4.33,0,0,1,3.87,2.08c1.05,1.71,1.15,3.92,1.1,6Zm4.72-2.28c0-1.57-.56-3.57-2.32-3.57-1.44,0-2.4,1.35-2.4,3.57Z"/><path class="cls-1" d="M1584.63,703.36h-2.91V690.05h2.91Zm0,4.8h-2.91v-3.3h2.91Z"/></svg>