<svg xmlns="http://www.w3.org/2000/svg" viewBox="0 0 1920 1080"><defs><style>.cls-1{fill:red;}.cls-2{fill:#fff;}</style></defs><title>4d_ui2</title><g id="textes_jeu_4" data-name="textes jeu 4"><path class="cls-1" d="M483.31,654.18H810.45a0,0,0,0,1,0,0V686.9a20.59,20.59,0,0,1-20.59,20.59H483.31a20.59,20.59,0,0,1-20.59-20.59V674.77A20.59,20.59,0,0,1,483.31,654.18Z"/><path class="cls-1" d="M1077.47,675.52H1611.6a0,0,0,0,1,0,0v32.71A20.59,20.59,0,0,1,1591,728.82H1077.47a20.59,20.59,0,0,1-20.59-20.59V696.11a20.59,20.59,0,0,1,20.59-20.59Z"/><path class="cls-2" d="M482.67,685.35a6.72,6.72,0,0,1-.42,2.47,4.13,4.13,0,0,1-1.83,2,5.28,5.28,0,0,1-2.62.66c-2.74,0-4.75-1.57-4.87-4.58,0-.29,0-.61,0-.91h3c0,.1,0,.22,0,.34.15,2,.91,2.37,1.91,2.37a1.64,1.64,0,0,0,1.52-.86,4.28,4.28,0,0,0,.34-2V672h3Z"/><path class="cls-2" d="M489.08,684.2c0,1.91.66,3.74,2.42,3.74a2.24,2.24,0,0,0,2.2-2.08h2.62a5.56,5.56,0,0,1-1.86,3.6,4.9,4.9,0,0,1-3,1c-3.65,0-5.26-3.33-5.26-7.12,0-4.06,1.79-7.15,5.24-7.15a4.33,4.33,0,0,1,3.87,2.08c1.05,1.71,1.15,3.92,1.1,6Zm4.72-2.28c0-1.57-.56-3.57-2.33-3.57-1.44,0-2.4,1.35-2.4,3.57Z"/><path class="cls-2" d="M507.55,672h2.64v18.11h-2.64Z"/><path class="cls-2" d="M516.71,684.2c0,1.91.66,3.74,2.42,3.74a2.24,2.24,0,0,0,2.2-2.08H524a5.57,5.57,0,0,1-1.86,3.6,4.9,4.9,0,0,1-3,1c-3.65,0-5.26-3.33-5.26-7.12,0-4.06,1.79-7.15,5.24-7.15a4.33,4.33,0,0,1,3.87,2.08c1.05,1.71,1.15,3.92,1.1,6Zm4.72-2.28c0-1.57-.56-3.57-2.33-3.57-1.44,0-2.4,1.35-2.4,3.57Z"/><path class="cls-2" d="M534.89,676.44h2.42c0,.83,0,1.52,0,2.2.56-2.08,2-2.5,3.55-2.5v3.21a2,2,0,0,0-1.12-.32c-1.2,0-2.18,1.17-2.18,3.35v7.73h-2.64Z"/><path class="cls-2" d="M552.31,690.12h-2.42c0-.73,0-1.27,0-1.79a3.09,3.09,0,0,1-3,2.08c-2.57,0-4.43-2.45-4.43-7.12,0-4.48,1.59-7.15,4.43-7.15a3,3,0,0,1,3,2.15c0-.61,0-1.17,0-1.86h2.42Zm-7.2-6.8c0,3,.83,4.48,2.3,4.48a1.84,1.84,0,0,0,1.69-1c.49-.66.56-1.54.56-3.55s-.07-2.91-.56-3.57a1.87,1.87,0,0,0-1.69-.93c-1.47,0-2.3,1.42-2.3,4.5Z"/><path class="cls-2" d="M556.27,676.44h2.42v1.79a3,3,0,0,1,3-2.08c2.57,0,4.43,2.45,4.43,7.15,0,4.45-1.59,7.12-4.43,7.12a2.91,2.91,0,0,1-2.77-1.86v6.17h-2.64Zm7.2,6.83c0-3.06-.81-4.48-2.3-4.48a1.83,1.83,0,0,0-1.62.93c-.49.66-.64,1.54-.64,3.57s.15,2.89.64,3.55a1.81,1.81,0,0,0,1.62,1c1.49,0,2.3-1.44,2.3-4.5Z"/><path class="cls-2" d="M569.39,676.44h2.42v1.79a3,3,0,0,1,3-2.08c2.57,0,4.43,2.45,4.43,7.15,0,4.45-1.59,7.12-4.43,7.12a2.91,2.91,0,0,1-2.77-1.86v6.17h-2.64Zm7.2,6.83c0-3.06-.81-4.48-2.3-4.48a1.83,1.83,0,0,0-1.62.93c-.49.66-.64,1.54-.64,3.57s.15,2.89.64,3.55a1.8,1.8,0,0,0,1.62,1c1.49,0,2.3-1.44,2.3-4.5Z"/><path class="cls-2" d="M584.75,684.2c0,1.91.66,3.74,2.42,3.74a2.24,2.24,0,0,0,2.2-2.08H592a5.56,5.56,0,0,1-1.86,3.6,4.9,4.9,0,0,1-3,1c-3.65,0-5.26-3.33-5.26-7.12,0-4.06,1.79-7.15,5.24-7.15a4.33,4.33,0,0,1,3.87,2.08c1.05,1.71,1.15,3.92,1.1,6Zm4.72-2.28c0-1.57-.56-3.57-2.33-3.57-1.44,0-2.4,1.35-2.4,3.57Z"/><path class="cls-2" d="M595.79,672h2.64v18.11h-2.64Z"/><path class="cls-2" d="M603,672h2.64v18.11H603Z"/><path class="cls-2" d="M612.13,684.2c0,1.91.66,3.74,2.42,3.74a2.24,2.24,0,0,0,2.2-2.08h2.62a5.57,5.57,0,0,1-1.86,3.6,4.9,4.9,0,0,1-3,1c-3.65,0-5.26-3.33-5.26-7.12,0-4.06,1.79-7.15,5.24-7.15a4.33,4.33,0,0,1,3.87,2.08c1.05,1.71,1.15,3.92,1.1,6Zm4.72-2.28c0-1.57-.56-3.57-2.33-3.57-1.44,0-2.4,1.35-2.4,3.57Z"/><path class="cls-2" d="M639.47,690.12H637c0-.81,0-1.4,0-2a3,3,0,0,1-3,2.28c-2.57,0-4.43-2.45-4.43-7.12,0-4.48,1.59-7.15,4.43-7.15a2.81,2.81,0,0,1,2.79,2c0-.54,0-1.08,0-1.69V672h2.64Zm-7.2-6.83c0,3.06.83,4.48,2.3,4.48a1.87,1.87,0,0,0,1.69-.93c.49-.69.56-1.54.56-3.57s-.07-2.89-.56-3.55a1.84,1.84,0,0,0-1.69-1c-1.47,0-2.3,1.44-2.3,4.5Z"/><path class="cls-2" d="M652.58,690.12h-2.42c0-.73,0-1.27,0-1.79a3.09,3.09,0,0,1-3,2.08c-2.57,0-4.43-2.45-4.43-7.12,0-4.48,1.59-7.15,4.43-7.15a3,3,0,0,1,3,2.15c0-.61,0-1.17,0-1.86h2.42Zm-7.2-6.8c0,3,.83,4.48,2.3,4.48a1.84,1.84,0,0,0,1.69-1c.49-.66.56-1.54.56-3.55s-.07-2.91-.56-3.57a1.87,1.87,0,0,0-1.69-.93c-1.47,0-2.3,1.42-2.3,4.5Z"/><path class="cls-2" d="M656.54,676.44h2.33c0,.56,0,1.1,0,1.69a3.2,3.2,0,0,1,3.25-2c2.25,0,3.7,1.25,3.7,4.23v9.74h-2.64v-8.88c0-1.1-.22-2.45-1.84-2.45-1.27,0-2.13.78-2.13,2.57v8.76h-2.64Z"/><path class="cls-2" d="M675,680.31c0-1.3-.64-1.86-1.74-1.86a1.36,1.36,0,0,0-1.47,1.42c0,1.32,1.44,1.57,3,2.06a4,4,0,0,1,3.16,4.16,4.31,4.31,0,0,1-4.55,4.33c-2.57,0-4.5-1.44-4.72-4.53h2.64A2,2,0,0,0,673.5,688a1.6,1.6,0,0,0,1.71-1.76c0-1.37-1.42-1.69-3.06-2.23S669,682.59,669,680c0-2.23,1.59-3.82,4.36-3.82s4.14,1.54,4.28,4.16Z"/><path class="cls-2" d="M688.92,672h2.64v18.11h-2.64Z"/><path class="cls-2" d="M705,690.12h-2.42c0-.73,0-1.27,0-1.79a3.09,3.09,0,0,1-3,2.08c-2.57,0-4.43-2.45-4.43-7.12,0-4.48,1.59-7.15,4.43-7.15a3,3,0,0,1,3,2.15c0-.61,0-1.17,0-1.86H705Zm-7.2-6.8c0,3,.83,4.48,2.3,4.48a1.84,1.84,0,0,0,1.69-1c.49-.66.56-1.54.56-3.55s-.07-2.91-.56-3.57a1.87,1.87,0,0,0-1.69-.93c-1.47,0-2.3,1.42-2.3,4.5Z"/><path class="cls-2" d="M719.28,690.64c0,2.45-1,4.14-3.35,4.28-.27,0-.56,0-.83,0v-2.52h.2c1-.12,1.35-.86,1.35-2.18v-13.8h2.64ZM716.64,672h2.64v2.62h-2.64Z"/><path class="cls-2" d="M722.83,683.27c0-3.92,1.66-7.12,5.29-7.12s5.26,3.21,5.26,7.15-1.66,7.12-5.26,7.12-5.29-3.21-5.29-7.12Zm2.79,0c0,3.35.91,4.63,2.52,4.63s2.45-1.27,2.45-4.65-.91-4.65-2.52-4.65-2.45,1.25-2.45,4.65Z"/><path class="cls-2" d="M745.88,690.12h-2.42c0-.59,0-1.17,0-1.81a3,3,0,0,1-3.18,2.11c-2.23,0-3.67-1.25-3.67-4.23v-9.74h2.64v8.88c0,1.1.22,2.47,1.83,2.47,1.25,0,2.13-.81,2.13-2.59v-8.76h2.64Z"/><path class="cls-2" d="M749.84,676.44h2.42c0,.83,0,1.52,0,2.2.56-2.08,2-2.5,3.55-2.5v3.21a2,2,0,0,0-1.12-.32c-1.2,0-2.18,1.17-2.18,3.35v7.73h-2.64Z"/><path class="cls-2" d="M758.46,676.44h2.33c0,.56,0,1.1,0,1.69a3.2,3.2,0,0,1,3.25-2c2.25,0,3.7,1.25,3.7,4.23v9.74h-2.64v-8.88c0-1.1-.22-2.45-1.84-2.45-1.27,0-2.13.78-2.13,2.57v8.76h-2.64Z"/><path class="cls-2" d="M773.9,684.2c0,1.91.66,3.74,2.42,3.74a2.24,2.24,0,0,0,2.2-2.08h2.62a5.57,5.57,0,0,1-1.86,3.6,4.9,4.9,0,0,1-3,1c-3.65,0-5.26-3.33-5.26-7.12,0-4.06,1.79-7.15,5.24-7.15a4.33,4.33,0,0,1,3.87,2.08c1.05,1.71,1.15,3.92,1.1,6Zm5.31-13.51,1,2.13-5.6,2.67-.93-1.74Zm-.59,11.23c0-1.57-.56-3.57-2.33-3.57-1.44,0-2.4,1.35-2.4,3.57Z"/><path class="cls-2" d="M786.89,684.2c0,1.91.66,3.74,2.42,3.74a2.24,2.24,0,0,0,2.2-2.08h2.62a5.57,5.57,0,0,1-1.86,3.6,4.9,4.9,0,0,1-3,1c-3.65,0-5.26-3.33-5.26-7.12,0-4.06,1.79-7.15,5.24-7.15a4.33,4.33,0,0,1,3.87,2.08c1.05,1.71,1.15,3.92,1.1,6Zm4.72-2.28c0-1.57-.56-3.57-2.33-3.57-1.44,0-2.4,1.35-2.4,3.57Z"/><path class="cls-2" d="M800.47,690.12h-2.64v-3.23h2.64Z"/><path class="cls-2" d="M1076.83,703.39a6.72,6.72,0,0,1-.42,2.47,4.13,4.13,0,0,1-1.83,2,5.28,5.28,0,0,1-2.62.66c-2.74,0-4.75-1.57-4.87-4.58,0-.29,0-.61,0-.91h3c0,.1,0,.22,0,.34.15,2,.91,2.37,1.91,2.37a1.64,1.64,0,0,0,1.52-.86,4.28,4.28,0,0,0,.34-2v-12.8h3Z"/><path class="cls-2" d="M1083.24,702.24c0,1.91.66,3.74,2.42,3.74a2.24,2.24,0,0,0,2.2-2.08h2.62a5.56,5.56,0,0,1-1.86,3.6,4.9,4.9,0,0,1-3,1c-3.65,0-5.26-3.33-5.26-7.12,0-4.06,1.79-7.15,5.24-7.15a4.33,4.33,0,0,1,3.87,2.08c1.05,1.71,1.15,3.92,1.1,6ZM1088,700c0-1.57-.56-3.57-2.33-3.57-1.44,0-2.4,1.35-2.4,3.57Z"/><path class="cls-2" d="M1101.42,694.48h2.42c0,.83,0,1.52,0,2.2.56-2.08,2-2.5,3.55-2.5v3.21a2,2,0,0,0-1.12-.32c-1.2,0-2.18,1.17-2.18,3.35v7.73h-2.64Z"/><path class="cls-2" d="M1111.94,702.24c0,1.91.66,3.74,2.42,3.74a2.24,2.24,0,0,0,2.2-2.08h2.62a5.57,5.57,0,0,1-1.86,3.6,4.9,4.9,0,0,1-3,1c-3.65,0-5.26-3.33-5.26-7.12,0-4.06,1.79-7.15,5.24-7.15a4.33,4.33,0,0,1,3.87,2.08c1.05,1.71,1.15,3.92,1.1,6Zm4.72-2.28c0-1.57-.56-3.57-2.33-3.57-1.44,0-2.4,1.35-2.4,3.57Z"/><path class="cls-2" d="M1127.43,708.16H1125l-4-13.68h2.69l2.52,9.77,2.33-9.77h2.67Z"/><path class="cls-2" d="M1134,690.05h2.64v2.62H1134Zm0,4.43h2.64v13.68H1134Z"/><path class="cls-2" d="M1143.16,702.24c0,1.91.66,3.74,2.42,3.74a2.24,2.24,0,0,0,2.2-2.08h2.62a5.56,5.56,0,0,1-1.86,3.6,4.9,4.9,0,0,1-3,1c-3.65,0-5.26-3.33-5.26-7.12,0-4.06,1.79-7.15,5.24-7.15a4.33,4.33,0,0,1,3.87,2.08c1.05,1.71,1.15,3.92,1.1,6Zm4.72-2.28c0-1.57-.56-3.57-2.33-3.57-1.44,0-2.4,1.35-2.4,3.57Z"/><path class="cls-2" d="M1153.9,694.48h2.33c0,.56,0,1.1,0,1.69a3.2,3.2,0,0,1,3.25-2c2.25,0,3.7,1.25,3.7,4.23v9.74h-2.64v-8.88c0-1.1-.22-2.45-1.84-2.45-1.27,0-2.13.78-2.13,2.57v8.76h-2.64Z"/><path class="cls-2" d="M1172.38,698.35c0-1.3-.64-1.86-1.74-1.86a1.36,1.36,0,0,0-1.47,1.42c0,1.32,1.44,1.57,3,2.06a4,4,0,0,1,3.16,4.16,4.31,4.31,0,0,1-4.55,4.33c-2.57,0-4.5-1.44-4.72-4.53h2.64a2,2,0,0,0,2.13,2.13,1.6,1.6,0,0,0,1.71-1.76c0-1.37-1.42-1.69-3.06-2.23s-3.13-1.44-3.13-4.06c0-2.23,1.59-3.82,4.36-3.82s4.14,1.54,4.28,4.16Z"/><path class="cls-2" d="M1191.27,698.35c0-1.3-.64-1.86-1.74-1.86a1.36,1.36,0,0,0-1.47,1.42c0,1.32,1.44,1.57,3,2.06a4,4,0,0,1,3.16,4.16,4.31,4.31,0,0,1-4.55,4.33c-2.57,0-4.5-1.44-4.72-4.53h2.64a2,2,0,0,0,2.13,2.13,1.6,1.6,0,0,0,1.71-1.76c0-1.37-1.42-1.69-3.06-2.23s-3.13-1.44-3.13-4.06c0-2.23,1.59-3.82,4.36-3.82s4.14,1.54,4.28,4.16Z"/><path class="cls-2" d="M1206.66,708.16h-2.42c0-.59,0-1.17,0-1.81a3,3,0,0,1-3.18,2.11c-2.23,0-3.67-1.25-3.67-4.23v-9.74h2.64v8.88c0,1.1.22,2.47,1.84,2.47,1.25,0,2.13-.81,2.13-2.59v-8.76h2.64Z"/><path class="cls-2" d="M1210.62,694.48H1213c0,.83,0,1.52,0,2.2.56-2.08,2-2.5,3.55-2.5v3.21a2,2,0,0,0-1.13-.32c-1.2,0-2.18,1.17-2.18,3.35v7.73h-2.64Z"/><path class="cls-2" d="M1227,690.05h2.64v18.11H1227Z"/><path class="cls-2" d="M1236.12,702.24c0,1.91.66,3.74,2.42,3.74a2.24,2.24,0,0,0,2.2-2.08h2.62a5.56,5.56,0,0,1-1.86,3.6,4.9,4.9,0,0,1-3,1c-3.65,0-5.26-3.33-5.26-7.12,0-4.06,1.79-7.15,5.24-7.15a4.33,4.33,0,0,1,3.87,2.08c1.05,1.71,1.15,3.92,1.1,6Zm4.72-2.28c0-1.57-.56-3.57-2.33-3.57-1.44,0-2.4,1.35-2.4,3.57Z"/><path class="cls-2" d="M1252.15,698.35c0-1.3-.64-1.86-1.74-1.86a1.36,1.36,0,0,0-1.47,1.42c0,1.32,1.44,1.57,3,2.06a4,4,0,0,1,3.16,4.16,4.31,4.31,0,0,1-4.55,4.33c-2.57,0-4.5-1.44-4.72-4.53h2.64a2,2,0,0,0,2.13,2.13,1.6,1.6,0,0,0,1.71-1.76c0-1.37-1.42-1.69-3.06-2.23s-3.13-1.44-3.13-4.06c0-2.23,1.59-3.82,4.36-3.82s4.14,1.54,4.28,4.16Z"/><path class="cls-2" d="M1266,690.05h2.64v18.11H1266Z"/><path class="cls-2" d="M1273.24,690.05h2.64v2.62h-2.64Zm0,4.43h2.64v13.68h-2.64Z"/><path class="cls-2" d="M1282.39,702.24c0,1.91.66,3.74,2.42,3.74a2.24,2.24,0,0,0,2.2-2.08h2.62a5.57,5.57,0,0,1-1.86,3.6,4.9,4.9,0,0,1-3,1c-3.65,0-5.26-3.33-5.26-7.12,0-4.06,1.79-7.15,5.24-7.15a4.33,4.33,0,0,1,3.87,2.08c1.05,1.71,1.15,3.92,1.1,6Zm4.72-2.28c0-1.57-.56-3.57-2.33-3.57-1.44,0-2.4,1.35-2.4,3.57Z"/><path class="cls-2" d="M1302.36,708.16h-2.42c0-.59,0-1.17,0-1.81a3,3,0,0,1-3.18,2.11c-2.23,0-3.67-1.25-3.67-4.23v-9.74h2.64v8.88c0,1.1.22,2.47,1.84,2.47,1.25,0,2.13-.81,2.13-2.59v-8.76h2.64Z"/><path class="cls-2" d="M1308.74,701.09l-3.52-6.61h3.11l2,4.65,2.1-4.65h3l-3.5,6.61,3.89,7.07h-3.13l-2.37-5.09-2.3,5.09h-3.13Z"/><path class="cls-2" d="M1325.87,694.48h2.42v1.79a3,3,0,0,1,3-2.08c2.57,0,4.43,2.45,4.43,7.15,0,4.45-1.59,7.12-4.43,7.12a2.91,2.91,0,0,1-2.77-1.86v6.17h-2.64Zm7.2,6.83c0-3.06-.81-4.48-2.3-4.48a1.83,1.83,0,0,0-1.62.93c-.49.66-.64,1.54-.64,3.57s.15,2.89.64,3.55a1.81,1.81,0,0,0,1.62,1c1.49,0,2.3-1.44,2.3-4.5Z"/><path class="cls-2" d="M1338.3,701.31c0-3.92,1.66-7.12,5.29-7.12s5.26,3.21,5.26,7.15-1.67,7.12-5.26,7.12-5.29-3.21-5.29-7.12Zm2.79,0c0,3.35.91,4.63,2.52,4.63s2.45-1.27,2.45-4.65-.91-4.65-2.52-4.65-2.45,1.25-2.45,4.65Z"/><path class="cls-2" d="M1361.35,708.16h-2.42c0-.59,0-1.17,0-1.81a3,3,0,0,1-3.18,2.11c-2.23,0-3.67-1.25-3.67-4.23v-9.74h2.64v8.88c0,1.1.22,2.47,1.84,2.47,1.25,0,2.13-.81,2.13-2.59v-8.76h2.64Z"/><path class="cls-2" d="M1365.31,694.48h2.42c0,.83,0,1.52,0,2.2.56-2.08,2-2.5,3.55-2.5v3.21a2,2,0,0,0-1.13-.32c-1.2,0-2.18,1.17-2.18,3.35v7.73h-2.64Z"/><path class="cls-2" d="M1390.52,708.16h-2.42c0-.73,0-1.27,0-1.79a3.09,3.09,0,0,1-3,2.08c-2.57,0-4.43-2.45-4.43-7.12,0-4.48,1.59-7.15,4.43-7.15a3,3,0,0,1,3,2.15c0-.61,0-1.17,0-1.86h2.42Zm-7.2-6.8c0,3,.83,4.48,2.3,4.48a1.84,1.84,0,0,0,1.69-1c.49-.66.56-1.54.56-3.55s-.07-2.91-.56-3.57a1.87,1.87,0,0,0-1.69-.93c-1.47,0-2.3,1.42-2.3,4.5Z"/><path class="cls-2" d="M1399.55,708.16h-2.45l-4-13.68h2.69l2.52,9.77,2.33-9.77h2.67Z"/><path class="cls-2" d="M1404.93,701.31c0-3.92,1.66-7.12,5.29-7.12s5.26,3.21,5.26,7.15-1.66,7.12-5.26,7.12-5.29-3.21-5.29-7.12Zm2.79,0c0,3.35.91,4.63,2.52,4.63s2.45-1.27,2.45-4.65-.91-4.65-2.52-4.65-2.45,1.25-2.45,4.65Z"/><path class="cls-2" d="M1419,690.05h2.64v2.62H1419Zm0,4.43h2.64v13.68H1419Z"/><path class="cls-2" d="M1425.95,694.48h2.42c0,.83,0,1.52,0,2.2.56-2.08,2-2.5,3.55-2.5v3.21a2,2,0,0,0-1.12-.32c-1.2,0-2.18,1.17-2.18,3.35v7.73h-2.64Z"/><path class="cls-2" d="M1451.23,708.16h-2.42c0-.59,0-1.17,0-1.81a3,3,0,0,1-3.18,2.11c-2.23,0-3.67-1.25-3.67-4.23v-9.74h2.64v8.88c0,1.1.22,2.47,1.83,2.47,1.25,0,2.13-.81,2.13-2.59v-8.76h2.64Z"/><path class="cls-2" d="M1455.19,694.48h2.33c0,.56,0,1.1,0,1.69a3.2,3.2,0,0,1,3.26-2c2.25,0,3.7,1.25,3.7,4.23v9.74h-2.64v-8.88c0-1.1-.22-2.45-1.83-2.45-1.27,0-2.13.78-2.13,2.57v8.76h-2.64Z"/><path class="cls-2" d="M1470.63,702.24c0,1.91.66,3.74,2.42,3.74a2.24,2.24,0,0,0,2.2-2.08h2.62a5.57,5.57,0,0,1-1.86,3.6,4.9,4.9,0,0,1-3,1c-3.65,0-5.26-3.33-5.26-7.12,0-4.06,1.79-7.15,5.24-7.15a4.33,4.33,0,0,1,3.87,2.08c1.05,1.71,1.15,3.92,1.1,6Zm4.72-2.28c0-1.57-.56-3.57-2.32-3.57-1.44,0-2.4,1.35-2.4,3.57Z"/><path class="cls-2" d="M1488.81,694.48h2.42c0,.83,0,1.52,0,2.2.56-2.08,2-2.5,3.55-2.5v3.21a2,2,0,0,0-1.13-.32c-1.2,0-2.18,1.17-2.18,3.35v7.73h-2.64Z"/><path class="cls-2" d="M1499.33,702.24c0,1.91.66,3.74,2.42,3.74a2.24,2.24,0,0,0,2.2-2.08h2.62a5.57,5.57,0,0,1-1.86,3.6,4.9,4.9,0,0,1-3,1c-3.65,0-5.26-3.33-5.26-7.12,0-4.06,1.79-7.15,5.24-7.15a4.33,4.33,0,0,1,3.87,2.08c1.05,1.71,1.15,3.92,1.1,6Zm5.31-13.51,1,2.13-5.61,2.67-.93-1.74Zm-.59,11.23c0-1.57-.56-3.57-2.33-3.57-1.44,0-2.4,1.35-2.4,3.57Z"/><path class="cls-2" d="M1510.07,694.48h2.42v1.79a3,3,0,0,1,3-2.08c2.57,0,4.43,2.45,4.43,7.15,0,4.45-1.59,7.12-4.43,7.12a2.91,2.91,0,0,1-2.77-1.86v6.17h-2.64Zm7.2,6.83c0-3.06-.81-4.48-2.3-4.48a1.83,1.83,0,0,0-1.62.93c-.49.66-.64,1.54-.64,3.57s.15,2.89.64,3.55a1.81,1.81,0,0,0,1.62,1c1.49,0,2.3-1.44,2.3-4.5Z"/><path class="cls-2" d="M1522.5,701.31c0-3.92,1.67-7.12,5.29-7.12s5.26,3.21,5.26,7.15-1.66,7.12-5.26,7.12-5.29-3.21-5.29-7.12Zm2.79,0c0,3.35.91,4.63,2.52,4.63s2.45-1.27,2.45-4.65-.91-4.65-2.52-4.65-2.45,1.25-2.45,4.65Z"/><path class="cls-2" d="M1536.33,694.48h2.33c0,.56,0,1.1,0,1.69a3.2,3.2,0,0,1,3.25-2c2.25,0,3.7,1.25,3.7,4.23v9.74h-2.64v-8.88c0-1.1-.22-2.45-1.84-2.45-1.27,0-2.13.78-2.13,2.57v8.76h-2.64Z"/><path class="cls-2" d="M1554.8,698.35c0-1.3-.64-1.86-1.74-1.86a1.36,1.36,0,0,0-1.47,1.42c0,1.32,1.44,1.57,3,2.06a4,4,0,0,1,3.16,4.16,4.3,4.3,0,0,1-4.55,4.33c-2.57,0-4.5-1.44-4.72-4.53h2.64a2,2,0,0,0,2.13,2.13,1.6,1.6,0,0,0,1.71-1.76c0-1.37-1.42-1.69-3.06-2.23s-3.13-1.44-3.13-4.06c0-2.23,1.59-3.82,4.36-3.82s4.14,1.54,4.28,4.16Z"/><path class="cls-2" d="M1563.22,702.24c0,1.91.66,3.74,2.42,3.74a2.24,2.24,0,0,0,2.2-2.08h2.62a5.57,5.57,0,0,1-1.86,3.6,4.9,4.9,0,0,1-3,1c-3.65,0-5.26-3.33-5.26-7.12,0-4.06,1.79-7.15,5.24-7.15a4.33,4.33,0,0,1,3.87,2.08c1.05,1.71,1.15,3.92,1.1,6Zm4.72-2.28c0-1.57-.56-3.57-2.32-3.57-1.44,0-2.4,1.35-2.4,3.57Z"/><path class="cls-2" d="M1584.63,703.36h-2.91V690.05h2.91Zm0,4.8h-2.91v-3.3h2.91Z"/></g><g id="vignettes_jeu_4_-_mauvaises_réponses" data-name="vignettes jeu 4 - mauvaises réponses"><polygon class="cls-1" points="356.35 216.42 226.06 184.86 95.76 216.42 95.76 0.14 356.35 0.14 356.35 216.42"/><path class="cls-2" d="M136.87,76.48l6.19-26.65h6.61V90h-6.45V71.54L139.28,90h-4.7l-4.08-18.62V90H124V49.83h6.61Z"/><path class="cls-2" d="M173.44,75.62,175.35,90H168.6l-1.1-8.35h-4.92L161.45,90h-6.73l1.91-14.36,4.08-25.85h8.68Zm-6.81-.36L165,63.09l-1.61,12.17Z"/><path class="cls-2" d="M197.54,82q0,8.67-8.68,8.7T180.21,82V49.83h6.69V82q0,2.27,2,2.27t2-2.27V49.83h6.69Z"/><path class="cls-2" d="M217.06,90h-8.68l-4.08-25.83L202.4,49.83h6.75l3.55,31.51,3.58-31.51H223l-1.91,14.42Z"/><path class="cls-2" d="M244.21,75.62,246.12,90h-6.75l-1.11-8.35h-4.92L232.22,90h-6.73l1.91-14.36,4.08-25.85h8.68Zm-6.81-.36L235.8,63.09l-1.61,12.17Z"/><path class="cls-2" d="M251.28,49.83H258V90h-6.69Z"/><path class="cls-2" d="M264.53,57.88q0-8.67,8.66-8.68t8.68,8.68v5.7h-6.69v-5.7q0-2.25-2-2.27h0q-1.95,0-1.95,2.27v3.58q0,2.45,5.14,6.15,5.5,3.92,5.5,9.4v5q0,8.7-8.66,8.7T264.53,82v-5.7h6.69V82q0,2.27,2,2.27t2-2.27v-4.5q0-2.67-5.14-6.37-5.5-3.92-5.5-9.54Z"/><path class="cls-2" d="M288.33,49.83h15.75v6.41H295V66.72h7.79v6.43H295V83.63h9.06V90H288.33Z"/><path class="cls-2" d="M309.54,57.88q0-8.67,8.66-8.68t8.68,8.68v5.7h-6.69v-5.7q0-2.25-2-2.27h0q-1.95,0-1.95,2.27v3.58q0,2.45,5.14,6.15,5.5,3.92,5.5,9.4v5q0,8.7-8.66,8.7T309.54,82v-5.7h6.69V82q0,2.27,2,2.27t2-2.27v-4.5q0-2.67-5.14-6.37-5.5-3.92-5.5-9.54Z"/><path class="cls-2" d="M137.12,104.83h8.78q8.07,0,8.07,8.7v5.92q0,5.46-4.38,7.07L156,145h-7.29l-4.58-17.29h-.36V145h-6.69Zm6.69,6.41v10.48h.8a5,5,0,0,0,1.41-.12,2.06,2.06,0,0,0,1.27-2.15v-5.92q0-2.29-2-2.29Z"/><path class="cls-2" d="M160.9,104.83h15.74v6.41h-9.06v10.48h7.79v6.43h-7.79v10.48h9.06V145H160.9Zm15-4.5-5.82,3.78h-5.74l6.39-5.88h5.18Z"/><path class="cls-2" d="M181.5,104.83h8.78q8.07,0,8.07,8.7v5.92q0,6.37-5.76,8.25a13.76,13.76,0,0,1-4,.44h-.42V145H181.5Zm6.69,6.41v10.48h.8a5,5,0,0,0,1.41-.12,2.06,2.06,0,0,0,1.27-2.15v-5.92q0-2.29-2-2.29Z"/><path class="cls-2" d="M221.15,137q0,8.67-8.68,8.7t-8.66-8.7v-24.1q0-8.67,8.66-8.68t8.68,8.68Zm-6.69-24.1q0-2.25-2-2.27h0q-1.95,0-1.95,2.27V137q0,2.27,2,2.27t2-2.27Z"/><path class="cls-2" d="M227.61,104.83h6.61l4.46,19.8v-19.8h6.27V145h-6.61l-4.26-19.26V145h-6.47Z"/><path class="cls-2" d="M251.41,112.88q0-8.67,8.66-8.68t8.68,8.68v5.7h-6.69v-5.7q0-2.25-2-2.27h0q-1.95,0-1.95,2.27v3.58q0,2.45,5.14,6.15,5.5,3.92,5.5,9.4v5q0,8.7-8.66,8.7t-8.68-8.7v-5.7h6.69V137q0,2.27,2,2.27t2-2.27v-4.5q0-2.67-5.14-6.37-5.5-3.92-5.5-9.54Z"/><path class="cls-2" d="M275.21,104.83H291v6.41h-9.06v10.48h7.79v6.43h-7.79v10.48H291V145H275.21Z"/><path class="cls-2" d="M296.41,112.88q0-8.67,8.66-8.68t8.68,8.68v5.7h-6.69v-5.7q0-2.25-2-2.27h0q-1.95,0-1.95,2.27v3.58q0,2.45,5.14,6.15,5.5,3.92,5.5,9.4v5q0,8.7-8.66,8.7t-8.68-8.7v-5.7h6.69V137q0,2.27,2,2.27t2-2.27v-4.5q0-2.67-5.14-6.37-5.5-3.92-5.5-9.54Z"/></g></svg>