<svg xmlns="http://www.w3.org/2000/svg" viewBox="0 0 1920 1080"><defs><style>.cls-1{fill:#4e96b3;}.cls-2,.cls-3{fill:#fff;}.cls-3{stroke:#4e96b3;stroke-miterlimit:10;stroke-width:2px;}</style></defs><title>index_titre</title><g id="contenu_animé" data-name="contenu animé"><rect class="cls-1" x="725.61" y="436.81" width="494.56" height="94.78" rx="19.91" ry="19.91"/><path class="cls-2" d="M762.48,453.76H771q6.32,0,6.32,8.19a28.93,28.93,0,0,1-.35,4.25l-1.28,8.88q-1.34,9.15-7.33,11.8a10.08,10.08,0,0,1-4,.63h-.95l-3.7,25.32h-5.84Zm4.63,8.4-2.48,16.92H766a4.29,4.29,0,0,0,1.71-.24q1.73-.93,2.15-3.76l1.28-8.88a9,9,0,0,0,.12-1.39q0-2.65-2.07-2.65Z"/><path class="cls-2" d="M786.28,453.76h8.51q6.32,0,6.32,8.19a28.93,28.93,0,0,1-.35,4.25l-1.28,8.88q-1.16,7.8-6.11,10.27l2.56,27.49h-6.4l-1.49-26-.76.15-3.76,25.83h-5.84Zm4.63,8.4-2.48,16.92h1.34a4.29,4.29,0,0,0,1.71-.24q1.73-.93,2.15-3.76l1.28-8.88a9,9,0,0,0,.12-1.39q0-2.65-2.07-2.65Z"/><path class="cls-2" d="M811,453.76h15.16l-1.22,8.4h-9.31l-2.48,16.92h8L820,487.51h-8l-2.48,16.92h9.31l-1.22,8.4H802.4Zm6.73-2.29H814.5l4-7.62h4.58Z"/><path class="cls-2" d="M833.68,453.76h8.51q6.32,0,6.32,8.19a28.93,28.93,0,0,1-.35,4.25l-1.28,8.88q-1.34,9.15-7.33,11.8a10.08,10.08,0,0,1-4,.63h-.95l-3.7,25.32h-5.84Zm4.63,8.4-2.48,16.92h1.34a4.29,4.29,0,0,0,1.71-.24q1.73-.93,2.15-3.76l1.28-8.88a9,9,0,0,0,.12-1.39q0-2.65-2.07-2.65Z"/><path class="cls-2" d="M866.45,491.87l-1.16,21h-5.91l.68-12.52h-6l-3,12.52h-5.89L850.17,492l9.71-38.2h8Zm-5.91,0,1.34-24.57-5.8,24.57Z"/><path class="cls-2" d="M880.58,453.76h8.51q6.32,0,6.32,8.19a28.93,28.93,0,0,1-.35,4.25l-1.28,8.88q-1.16,7.8-6.11,10.27l2.56,27.49h-6.4l-1.49-26-.76.15-3.76,25.83H872Zm4.63,8.4-2.48,16.92h1.34a4.29,4.29,0,0,0,1.71-.24q1.73-.93,2.15-3.76l1.28-8.88a9,9,0,0,0,.12-1.39q0-2.65-2.07-2.65Z"/><path class="cls-2" d="M905.32,453.76h15.16l-1.22,8.4h-9.31l-2.48,16.92h8l-1.22,8.43h-8l-2.48,16.92h9.31l-1.22,8.4H896.7Z"/><path class="cls-2" d="M928,453.76h8.51q6.32,0,6.32,8.19a28.93,28.93,0,0,1-.35,4.25l-1.28,8.88q-1.16,7.8-6.11,10.27l2.56,27.49h-6.4l-1.49-26L929,487l-3.76,25.83h-5.84Zm4.63,8.4-2.48,16.92h1.34a4.29,4.29,0,0,0,1.71-.24q1.73-.93,2.15-3.76l1.28-8.88a9,9,0,0,0,.12-1.39q0-2.65-2.07-2.65Z"/><path class="cls-2" d="M957.77,512.82l8.61-59.07h5.85l-7.39,50.67h9.31l-1.22,8.4Z"/><path class="cls-2" d="M983.56,453.73h7.23l-1.26,8.67-3.8,11h-3.8l2.62-9.84h-2.42Z"/><path class="cls-2" d="M999.33,453.76h15.16l-1.22,8.4H1004l-2.48,16.92h8l-1.22,8.43h-8l-2.48,16.92h9.31l-1.22,8.4H990.71Z"/><path class="cls-2" d="M1022,453.76h5.84l.54,34.26,5-34.26h5.41l-8.61,59.07h-5.84l-.5-33.18L1019,512.82h-5.62Z"/><path class="cls-2" d="M1062.46,453.76l-1.22,8.4h-5.47l-7.39,50.67h-5.84l7.39-50.67h-5.47l1.22-8.4Z"/><path class="cls-2" d="M1069.35,453.76h8.51q6.32,0,6.32,8.19a28.93,28.93,0,0,1-.35,4.25l-1.28,8.88q-1.16,7.8-6.11,10.27l2.56,27.49h-6.4l-1.49-26-.76.15-3.76,25.83h-5.84Zm4.63,8.4-2.48,16.92h1.34a4.29,4.29,0,0,0,1.71-.24q1.73-.93,2.15-3.76l1.28-8.88a8.93,8.93,0,0,0,.12-1.39q0-2.65-2.06-2.65Z"/><path class="cls-2" d="M1094.08,453.76h15.16l-1.22,8.4h-9.31l-2.48,16.92h8l-1.22,8.43h-8l-2.48,16.92h9.31l-1.22,8.4h-15.16Z"/><path class="cls-2" d="M1131.89,453.76l-1.22,8.4h-5.47l-7.39,50.67H1112l7.39-50.67h-5.47l1.22-8.4Z"/><path class="cls-2" d="M1138.88,453.76h5.84l-8.61,59.07h-5.84Z"/><path class="cls-2" d="M1153.37,453.76h15.16l-1.22,8.4H1158l-2.48,16.92h8l-1.22,8.43h-8l-2.48,16.92h9.31l-1.22,8.4h-15.16Z"/><path class="cls-2" d="M1176,453.76h5.84l.54,34.26,5-34.26h5.41l-8.61,59.07h-5.84l-.5-33.18L1173,512.82h-5.62Z"/><path class="cls-1" d="M531.5,218.86v13.87H520v73.18H505.5V232.73H494V218.86Z"/><path class="cls-1" d="M542.89,218.86h19q17.48,0,17.48,18.83v12.83q0,11.83-9.48,15.3l14,40.09H568.06l-9.91-37.44h-.78v37.44H542.89Zm14.48,13.87v22.7h1.74a10.85,10.85,0,0,0,3-.26q2.74-1.09,2.74-4.65V237.69q0-5-4.26-5Z"/><path class="cls-1" d="M631,274.69l4.13,31.22H620.49l-2.39-18.09H607.45L605,305.91H590.45l4.13-31.09,8.83-56h18.78Zm-14.74-.78-3.48-26.35-3.48,26.35Z"/><path class="cls-1" d="M646.06,218.86h14.3L670,261.73V218.86h13.57v87h-14.3l-9.22-41.7v41.7h-14Z"/><path class="cls-1" d="M697.58,236.3q0-18.78,18.74-18.78T735.1,236.3v12.35H720.62V236.3q0-4.87-4.26-4.91h-.09q-4.22,0-4.22,4.91V244q0,5.3,11.13,13.3,11.91,8.48,11.91,20.35v10.78q0,18.83-18.74,18.83t-18.78-18.83V276.12h14.48v12.35q0,4.91,4.3,4.91t4.26-4.91v-9.74q0-5.78-11.13-13.78-11.91-8.48-11.91-20.65Z"/><path class="cls-1" d="M749.1,218.86h19q17.48,0,17.48,18.83v12.83q0,13.78-12.48,17.87a29.8,29.8,0,0,1-8.61,1h-.91v36.57H749.1Zm14.48,13.87v22.7h1.74a10.85,10.85,0,0,0,3-.26q2.74-1.09,2.74-4.65V237.69q0-5-4.26-5Z"/><path class="cls-1" d="M834.92,288.47q0,18.78-18.78,18.83T797.4,288.47V236.3q0-18.78,18.74-18.78t18.78,18.78ZM820.44,236.3q0-4.87-4.26-4.91h-.09q-4.22,0-4.22,4.91v52.17q0,4.91,4.26,4.91t4.3-4.91Z"/><path class="cls-1" d="M848.92,218.86h19q17.48,0,17.48,18.83v12.83q0,11.83-9.48,15.3l14,40.09H874.09l-9.91-37.44h-.78v37.44H848.92Zm14.48,13.87v22.7h1.74a10.85,10.85,0,0,0,3-.26q2.74-1.09,2.74-4.65V237.69q0-5-4.26-5Z"/><path class="cls-1" d="M933.44,218.86v13.87H921.91v73.18H907.43V232.73H895.91V218.86Z"/><path class="cls-1" d="M944,236.3q0-18.78,18.74-18.78t18.78,18.78v12.35H967V236.3q0-4.87-4.26-4.91h-.09q-4.22,0-4.22,4.91V244q0,5.3,11.13,13.3,11.92,8.48,11.91,20.35v10.78q0,18.83-18.74,18.83T944,288.47V276.12h14.48v12.35q0,4.91,4.3,4.91t4.26-4.91v-9.74Q967,273,955.87,265,944,256.47,944,244.3Z"/><path class="cls-1" d="M1021.12,218.86h19q17.48,0,17.48,18.83v12.83q0,11.83-9.48,15.3l14,40.09H1046.3l-9.91-37.44h-.78v37.44h-14.48Zm14.48,13.87v22.7h1.74a10.84,10.84,0,0,0,3-.26q2.74-1.09,2.74-4.65V237.69q0-5-4.26-5Z"/><path class="cls-1" d="M1109.25,288.47q0,18.78-18.78,18.83t-18.74-18.83V236.3q0-18.78,18.74-18.78t18.78,18.78Zm-14.48-52.17q0-4.87-4.26-4.91h-.09q-4.22,0-4.22,4.91v52.17q0,4.91,4.26,4.91t4.3-4.91Z"/><path class="cls-1" d="M1160.34,288.47q0,18.78-18.78,18.83t-18.74-18.83V218.86h14.48v69.61q0,4.91,4.26,4.91t4.3-4.91V218.86h14.48Z"/><path class="cls-1" d="M1208.81,218.86v13.87h-11.52v73.18h-14.48V232.73h-11.52V218.86Z"/><path class="cls-1" d="M1220.42,218.86h14.48v87h-14.48Z"/><path class="cls-1" d="M1250,218.86h34.09v13.87h-19.61v22.7h16.87v13.91h-16.87V292h19.61v13.87H1250Z"/><path class="cls-1" d="M1296.76,218.86h19q17.48,0,17.48,18.83v12.83q0,11.83-9.48,15.3l14,40.09h-15.78L1312,268.47h-.78v37.44h-14.48Zm14.48,13.87v22.7H1313a10.84,10.84,0,0,0,3-.26q2.74-1.09,2.74-4.65V237.69q0-5-4.26-5Z"/><path class="cls-1" d="M1347.36,236.3q0-18.78,18.74-18.78t18.78,18.78v12.35h-14.48V236.3q0-4.87-4.26-4.91h-.09q-4.22,0-4.22,4.91V244q0,5.3,11.13,13.3,11.91,8.48,11.91,20.35v10.78q0,18.83-18.74,18.83t-18.78-18.83V276.12h14.48v12.35q0,4.91,4.3,4.91t4.26-4.91v-9.74q0-5.78-11.13-13.78-11.91-8.48-11.91-20.65Z"/><path class="cls-1" d="M651.88,160.76h8.92q8.2,0,8.2,8.84v6q0,5.55-4.45,7.18l6.55,18.81h-7.41L659,184h-.37v17.57h-6.8Zm6.8,6.51v10.65h.82a5.11,5.11,0,0,0,1.43-.12,2.1,2.1,0,0,0,1.29-2.18v-6q0-2.33-2-2.33Z"/><path class="cls-1" d="M676,160.76h16v6.51h-9.2v10.65h7.92v6.53h-7.92v10.65H692v6.51H676Z"/><path class="cls-1" d="M715.19,193.43q0,8.82-8.82,8.84t-8.8-8.84V168.95q0-8.82,8.8-8.82t8.82,8.82v5.8h-6.8v-5.8q0-2.29-2-2.31h0q-2,0-2,2.31v24.49q0,2.31,2,2.31t2-2.31v-5.8h6.8Z"/><path class="cls-1" d="M721.56,160.76h6.8v17.16h4V160.76h6.8v40.85h-6.8V184.46h-4v17.16h-6.8Z"/><path class="cls-1" d="M746.15,160.76h16v6.51h-9.2v10.65h7.92v6.53h-7.92v10.65h9.2v6.51h-16Z"/><path class="cls-1" d="M768.1,160.76H777q8.2,0,8.2,8.84v6q0,5.55-4.45,7.18l6.55,18.81h-7.41L775.27,184h-.37v17.57h-6.8Zm6.8,6.51v10.65h.82a5.11,5.11,0,0,0,1.43-.12,2.1,2.1,0,0,0,1.29-2.18v-6q0-2.33-2-2.33Z"/><path class="cls-1" d="M809.47,193.43q0,8.82-8.82,8.84t-8.8-8.84V168.95q0-8.82,8.8-8.82t8.82,8.82v5.8h-6.8v-5.8q0-2.29-2-2.31h0q-2,0-2,2.31v24.49q0,2.31,2,2.31t2-2.31v-5.8h6.8Z"/><path class="cls-1" d="M815.83,160.76h6.8v17.16h4V160.76h6.8v40.85h-6.8V184.46h-4v17.16h-6.8Z"/><path class="cls-1" d="M840.42,160.76h16v6.51h-9.2v10.65h7.92v6.53h-7.92v10.65h9.2v6.51h-16Z"/><path class="cls-1" d="M874.42,160.76h9.41q8.2,0,8.2,8.84v23.2q0,8.8-8.55,8.82h-9.06Zm6.8,6.51v27.83h2q2,0,2-2.31V169.6q0-2.33-2-2.33Z"/><path class="cls-1" d="M898.6,160.74h8.16v6.33l-2.29,7.79h-4.75l1.18-6.67H898.6Z"/><path class="cls-1" d="M913.74,160.76h16v6.51h-9.2v10.65h7.92v6.53h-7.92v10.65h9.2v6.51h-16Z"/><path class="cls-1" d="M948.77,187.84l6.28-27.08h6.71v40.85h-6.55V182.82l-4,18.79h-4.77L942.3,182.7v18.92h-6.61V160.76h6.71Z"/><path class="cls-1" d="M968.75,160.76h8.92q8.2,0,8.2,8.84v6q0,6.47-5.86,8.39a14,14,0,0,1-4,.45h-.43v17.16h-6.79Zm6.79,6.51v10.65h.82a5.11,5.11,0,0,0,1.43-.12,2.1,2.1,0,0,0,1.29-2.18v-6q0-2.33-2-2.33Z"/><path class="cls-1" d="M991.83,201.62V160.76h6.79v34.34h9.2v6.51Z"/><path class="cls-1" d="M1030.17,193.43q0,8.82-8.82,8.84t-8.79-8.84V168.95q0-8.82,8.79-8.82t8.82,8.82Zm-6.79-24.49q0-2.29-2-2.31h0q-2,0-2,2.31v24.49q0,2.31,2,2.31t2-2.31Z"/><path class="cls-1" d="M1036.84,160.76h6.8v40.85h-6.8Z"/><path class="cls-1" d="M1062.75,160.76h9.41q8.2,0,8.2,8.84v23.2q0,8.8-8.55,8.82h-9.06Zm6.79,6.51v27.83h2q2,0,2-2.31V169.6q0-2.33-2-2.33Z"/><path class="cls-1" d="M1104.12,187l1.94,14.65h-6.86l-1.12-8.49h-5l-1.14,8.49h-6.84L1087,187l4.14-26.26H1100Zm-6.92-.37-1.63-12.37-1.63,12.37Z"/><path class="cls-1" d="M1111.2,160.76h6.71l4.53,20.12V160.76h6.37v40.85h-6.71L1117.77,182v19.57h-6.57Z"/><path class="cls-1" d="M1135.38,168.95q0-8.82,8.79-8.82t8.82,8.82v5.8h-6.79v-5.8q0-2.29-2-2.31h0q-2,0-2,2.31v3.63q0,2.49,5.22,6.24,5.59,4,5.59,9.55v5.06q0,8.84-8.79,8.84t-8.82-8.84v-5.8h6.79v5.8q0,2.31,2,2.31t2-2.31v-4.57q0-2.71-5.22-6.47-5.59-4-5.59-9.69Z"/><path class="cls-1" d="M1171.59,201.62V160.76h6.79v34.34h9.2v6.51Z"/><path class="cls-1" d="M1192.73,160.76h16v6.51h-9.2v10.65h7.92v6.53h-7.92v10.65h9.2v6.51h-16Z"/><path class="cls-1" d="M1214.28,168.95q0-8.82,8.79-8.82t8.82,8.82v5.8h-6.79v-5.8q0-2.29-2-2.31h0q-2,0-2,2.31v3.63q0,2.49,5.22,6.24,5.59,4,5.59,9.55v5.06q0,8.84-8.79,8.84t-8.82-8.84v-5.8h6.79v5.8q0,2.31,2,2.31t2-2.31v-4.57q0-2.71-5.22-6.47-5.59-4-5.59-9.69Z"/><path class="cls-1" d="M929.57,355.67a18.47,18.47,0,0,1-12,3.79c-8.49,0-10.61-4.65-9.67-9,1-4.86,6-7.55,9.59-8.57a6.18,6.18,0,0,1-1.8-5.79c.86-4,5.43-6.57,10.16-6.57,6.49,0,7.63,3.75,7.1,6.37-.9,4.08-5.43,6-7.3,6.69l5.34,6.16a17.11,17.11,0,0,0,3.43-4.77l4,1.1a21.25,21.25,0,0,1-4.73,6.69l6,6.94h-7.67Zm-9.71-11c-2.16.94-5.35,2.41-6,5.3-.94,4.45,3.06,5.39,5.63,5.39a11.92,11.92,0,0,0,7.3-2.57Zm7.92-8.57c.45-2-.82-2.77-2.73-2.77-2.49,0-3.63,1.31-3.92,2.65s1,3.06,1.88,4.16C925.45,339.11,927.32,338.29,927.77,336.13Z"/><path class="cls-1" d="M975.2,344.41,974,359.06h-6.86l.67-8.49h-5l-2.94,8.49h-6.84l5-14.59,9.71-26.26h8.82Zm-6.84-.37,1-12.37L965.09,344Z"/><path class="cls-1" d="M998.11,350.88q-1.88,8.82-10.69,8.84-7.24,0-7.24-6a13.85,13.85,0,0,1,.33-2.84l5.2-24.49q1.88-8.82,10.67-8.82,7.26,0,7.26,6a13.78,13.78,0,0,1-.33,2.82l-1.22,5.8h-6.8l1.22-5.8a3.75,3.75,0,0,0,.1-.82q0-1.47-1.61-1.49h0q-2,0-2.47,2.31l-5.2,24.49a3.69,3.69,0,0,0-.1.82q0,1.49,1.61,1.49,2,0,2.51-2.31l1.22-5.8h6.8Z"/><path class="cls-1" d="M1027.39,318.2l-1.39,6.51h-5.41l-7.29,34.34h-6.79l7.29-34.34h-5.41l1.39-6.51Z"/><path class="cls-1" d="M1032.84,318.2h6.8L1031,359.06h-6.8Z"/><path class="cls-1" d="M1051.1,359.06h-8.82l1.43-26.24,1.16-14.61h6.86l-3.18,32,10.43-32h6.86l-5,14.65Z"/><path class="cls-1" d="M1071.08,318.2h6.8l-8.67,40.85h-6.8Z"/><path class="cls-1" d="M1100.93,318.2l-1.39,6.51h-5.41l-7.29,34.34h-6.79l7.29-34.34h-5.41l1.39-6.51Z"/><path class="cls-1" d="M1106.28,318.2h16l-1.39,6.51h-9.2l-2.24,10.65h7.92L1116,341.9h-7.92l-2.27,10.65h9.2l-1.39,6.51h-16Zm15.22-4.57-6.73,3.84h-5.84l7.78-6H1122Z"/><path class="cls-1" d="M1125.07,326.39q1.88-8.82,10.67-8.82,7.26,0,7.26,6a13.78,13.78,0,0,1-.33,2.82l-1.22,5.8h-6.8l1.22-5.8a3.75,3.75,0,0,0,.1-.82q0-1.47-1.61-1.49h0q-2,0-2.47,2.31l-.78,3.63a2.43,2.43,0,0,0-.06.55q0,2.35,4,5.69a9.42,9.42,0,0,1,3.82,7.39,10,10,0,0,1-.25,2.16l-1.08,5.06q-1.88,8.84-10.67,8.84-7.27,0-7.26-6a13.77,13.77,0,0,1,.33-2.82l1.22-5.8h6.8l-1.22,5.8a3.69,3.69,0,0,0-.1.82q0,1.49,1.63,1.49,2,0,2.49-2.31l1-4.57a3.2,3.2,0,0,0,.06-.63q0-2.51-3.92-5.84a9.45,9.45,0,0,1-3.78-7.43,11,11,0,0,1,.25-2.27Z"/><path class="cls-1" d="M1174.63,344.41l-1.16,14.65h-6.86l.67-8.49h-5l-2.94,8.49h-6.84l5-14.59,9.71-26.26h8.82Zm-6.84-.37,1-12.37L1164.53,344Z"/><path class="cls-1" d="M1197.75,350.88q-1.88,8.82-10.69,8.84-7.25,0-7.24-6a13.85,13.85,0,0,1,.33-2.84l6.94-32.67h6.79l-6.94,32.67a3.69,3.69,0,0,0-.1.82q0,1.49,1.61,1.49,2,0,2.51-2.31l6.94-32.67h6.8Z"/><path class="cls-1" d="M1216.48,318.2l.88,11.71,5.84-11.71h6.86L1219,338.63l2.43,20.43h-6.86l-.59-13-6.12,13H1201l11.12-20.43-2.45-20.43Z"/><path class="cls-1" d="M1235.32,318.2h6.8l-8.67,40.85h-6.8Z"/><path class="cls-1" d="M1240.52,359.06l8.67-40.85H1256l-7.29,34.34h9.2l-1.39,6.51Z"/><path class="cls-1" d="M1270.43,318.2h6.8l-8.67,40.85h-6.8Z"/><path class="cls-1" d="M1295.92,344.41l-1.16,14.65h-6.86l.67-8.49h-5l-2.94,8.49h-6.84l5-14.59,9.71-26.26h8.82Zm-6.84-.37,1-12.37L1285.82,344Z"/><path class="cls-1" d="M1308.67,318.2h6.8l-8.67,40.85H1300Z"/><path class="cls-1" d="M1322.55,318.2h8.92q6.67,0,6.67,5.86a14.49,14.49,0,0,1-.35,3l-1.27,6q-1.18,5.55-6,7.18l2.55,18.81h-7.41l-.92-17.57h-.37l-3.73,17.57h-6.79Zm5.41,6.51-2.24,10.65h.82a5.36,5.36,0,0,0,1.45-.12,2.76,2.76,0,0,0,1.75-2.18l1.27-6a3.69,3.69,0,0,0,.1-.82q0-1.51-1.61-1.51Z"/><path class="cls-1" d="M1346.71,318.2h16l-1.39,6.51h-9.2l-2.24,10.65h7.92l-1.39,6.53h-7.92l-2.27,10.65h9.2l-1.39,6.51h-16Z"/><path class="cls-1" d="M1366.52,326.39q1.88-8.82,10.67-8.82,7.26,0,7.26,6a13.78,13.78,0,0,1-.33,2.82l-1.22,5.8h-6.8l1.22-5.8a3.75,3.75,0,0,0,.1-.82q0-1.47-1.61-1.49h0q-2,0-2.47,2.31l-.78,3.63a2.43,2.43,0,0,0-.06.55q0,2.35,4,5.69a9.42,9.42,0,0,1,3.82,7.39,10,10,0,0,1-.25,2.16l-1.08,5.06q-1.88,8.84-10.67,8.84-7.27,0-7.26-6a13.77,13.77,0,0,1,.33-2.82l1.22-5.8h6.8l-1.22,5.8a3.69,3.69,0,0,0-.1.82q0,1.49,1.63,1.49,2,0,2.49-2.31l1-4.57a3.2,3.2,0,0,0,.06-.63q0-2.51-3.92-5.84a9.45,9.45,0,0,1-3.78-7.43,11,11,0,0,1,.25-2.27Z"/><path class="cls-3" d="M715.9,455l1.18,21.87A10.63,10.63,0,0,1,707,488l-53.14,2.86-.14,1.84a54.75,54.75,0,0,1-4.54,7l-1.2-8.36-1.75-.21a10.58,10.58,0,0,1-9.33-10l-1.18-21.87a10.63,10.63,0,0,1,10-11.17l58.92-3.17A10.63,10.63,0,0,1,715.9,455ZM695,462.65a4.4,4.4,0,1,0,4.63,4.16A4.4,4.4,0,0,0,695,462.65Zm-18.41,1a4.4,4.4,0,1,0,4.63,4.16A4.4,4.4,0,0,0,676.61,463.64Zm-19.08,1a4.4,4.4,0,1,0,4.63,4.16A4.4,4.4,0,0,0,657.52,464.66Z"/><path class="cls-3" d="M669.36,496.59l64.26-3.44A11.59,11.59,0,0,1,745.8,504.1L747.08,528a11.54,11.54,0,0,1-9,11.9l-1.87.43-.32,9.2a59.71,59.71,0,0,1-5.73-7l-.37-2-58,3.1a11.59,11.59,0,0,1-12.18-10.94l-1.28-23.86A11.59,11.59,0,0,1,669.36,496.59Zm8.07,23.12a4.8,4.8,0,1,0,4.54-5A4.8,4.8,0,0,0,677.43,519.72Zm20.08-1.07a4.8,4.8,0,1,0,4.54-5A4.8,4.8,0,0,0,697.51,518.64Zm20.81-1.11a4.8,4.8,0,1,0,4.54-5A4.8,4.8,0,0,0,718.32,517.53Z"/></g></svg>