<svg xmlns="http://www.w3.org/2000/svg" viewBox="0 0 1920 1080"><defs><style>.cls-1{isolation:isolate;}.cls-2{fill:#9bcb8c;}.cls-3,.cls-5{fill:#fff;}.cls-4{fill:#666;}.cls-5{opacity:0.3;}.cls-6,.cls-7{fill:none;stroke:#fff;stroke-linecap:round;stroke-miterlimit:10;stroke-width:5px;}.cls-7{stroke-dasharray:1 14.96;}.cls-8{fill:#4e96b3;}.cls-9{fill:#464646;opacity:0.7;mix-blend-mode:soft-light;}</style></defs><title>2b_ui</title><g class="cls-1"><g id="contenus"><path class="cls-2" d="M689.64,527.61h201a0,0,0,0,1,0,0v42.8a16,16,0,0,1-16,16h-185a16,16,0,0,1-16-16v-26.8A16,16,0,0,1,689.64,527.61Z"/><path class="cls-3" d="M694.44,561.71c.06,2.14.78,3.15,2.62,3.15a2.22,2.22,0,0,0,2.39-2.45c0-1.87-2.23-2.31-4.45-3.17s-4.45-2.17-4.45-5.65c0-3.9,2.39-6.4,6.32-6.4s5.93,1.84,6.54,5.9h-4.12a2.19,2.19,0,0,0-2.25-2.39,2.1,2.1,0,0,0-2.14,2.25c0,1.95,2.23,2.31,4.45,3.2s4.45,2.28,4.45,6.21-2.89,6.23-6.82,6.23c-4.7,0-6.76-2.53-6.76-6.87Z"/><path class="cls-3" d="M710.21,567.25l-4.29-14.86h3.9l2.28,9.13,2.12-9.13h3.9l-6,20.82h-3.79Z"/><path class="cls-3" d="M721.31,547.6H725v20.6h-3.73Z"/><path class="cls-3" d="M736.26,568.19h-3.4l-4.56-15.81h3.79l2.42,10.13,2.09-10.13h3.79Z"/><path class="cls-3" d="M743.63,547.6h3.73v3.12h-3.73Zm0,4.79h3.73v15.81h-3.73Z"/><path class="cls-3" d="M755.48,561.62c0,1.56.42,3.4,2.09,3.4,1,0,1.67-.61,1.95-1.95h3.7a6.36,6.36,0,0,1-2.28,4.42,5.79,5.79,0,0,1-3.37,1c-4.15,0-6.1-3.67-6.1-8.24s1.95-8.24,6.1-8.24a5,5,0,0,1,4.59,2.53c1.17,2,1.25,4.62,1.17,7Zm4.12-3.17c0-.95-.14-3.34-2-3.34-1.31,0-2.14,1.11-2.14,3.34Z"/><path class="cls-3" d="M786.31,562.9a6.4,6.4,0,0,1-.5,2.64,4.83,4.83,0,0,1-2.37,2.39,7.07,7.07,0,0,1-3.06.64c-3.51,0-5.93-1.95-5.93-5.68v-1.17h4.23v.39c0,2.06.47,2.56,1.7,2.56a1.51,1.51,0,0,0,1.31-.5,3.65,3.65,0,0,0,.39-2.06V547.6h4.23Z"/><path class="cls-3" d="M793,568.19h-4.29l5.62-20.6h3.9l5.84,20.6h-4.29l-1.06-3.92H794Zm3.34-14.56-1.31,6.74h2.62Z"/><path class="cls-3" d="M810.44,561.71c.06,2.14.78,3.15,2.62,3.15a2.22,2.22,0,0,0,2.39-2.45c0-1.87-2.23-2.31-4.45-3.17s-4.45-2.17-4.45-5.65c0-3.9,2.39-6.4,6.32-6.4s5.93,1.84,6.54,5.9h-4.12a2.19,2.19,0,0,0-2.25-2.39,2.1,2.1,0,0,0-2.14,2.25c0,1.95,2.23,2.31,4.45,3.2s4.45,2.28,4.45,6.21-2.89,6.23-6.82,6.23c-4.7,0-6.76-2.53-6.76-6.87Z"/><path class="cls-3" d="M823.68,568.19V547.6h6.15l2.84,13.28,2.84-13.28h6.15v20.6h-3.73v-16l-3.73,16h-3.06l-3.73-16v16Z"/><path class="cls-3" d="M846.36,547.6h4.23v20.6h-4.23Z"/><path class="cls-3" d="M864.87,559.7V547.6h3.73v20.6h-3.79L859,555v13.19h-3.73V547.6h4.29Z"/><path class="cls-4" d="M691,633h5.93a7.33,7.33,0,0,1,6.37,3,12.56,12.56,0,0,1,2,7.26c0,5.62-2.78,10.3-8.27,10.3H691Zm4.23,16.7h1.84c3.42,0,3.92-4.23,3.92-6.4a9.61,9.61,0,0,0-.95-4.68,3.23,3.23,0,0,0-3.12-1.73h-1.7Z"/><path class="cls-4" d="M709.38,633h3.73v3.12h-3.73Zm0,4.79h3.73v15.81h-3.73Z"/><path class="cls-4" d="M723.79,642.45c-.06-1.17-.53-1.78-1.67-1.78a1.19,1.19,0,0,0-1.34,1.22c0,1.34,1.78,1.45,3.56,2a4.52,4.52,0,0,1,3.56,4.84c0,3-2.34,5.18-5.59,5.18-3,0-5.43-1.67-5.76-5.4h3.73a2,2,0,0,0,2.14,2,1.41,1.41,0,0,0,1.53-1.59c0-1.36-1.78-1.5-3.56-2.09s-3.56-1.67-3.56-4.81c0-2.64,1.84-4.59,5.4-4.59s5.07,1.95,5.29,5Z"/><path class="cls-4" d="M731.3,637.77h3.4v1.5a3.16,3.16,0,0,1,3.06-1.84c2.84,0,5,2.56,5,8.24,0,5.34-1.75,8.24-5,8.24a3,3,0,0,1-2.73-1.5v6.18H731.3Zm7.71,7.88c0-3.48-.72-4.48-2-4.48a1.56,1.56,0,0,0-1.36.7c-.47.58-.58,1.34-.58,3.81s.11,3.23.58,3.81a1.56,1.56,0,0,0,1.36.7c1.31,0,2-1,2-4.51Z"/><path class="cls-4" d="M745.58,645.65c0-4.54,1.95-8.21,6.1-8.21s6.1,3.67,6.1,8.24-1.95,8.24-6.1,8.24-6.1-3.67-6.1-8.24Zm4,.06c0,3.7.83,4.7,2.2,4.7s2.09-1,2.09-4.73-.83-4.73-2.2-4.73-2.09,1-2.09,4.73Z"/><path class="cls-4" d="M761.35,637.77h3.23v1.5a3.3,3.3,0,0,1,3.37-1.84c2.5,0,4.09,1.39,4.09,4.59v11.55h-3.73V643.26c0-1.09-.25-2.09-1.56-2.09-1,0-1.67.5-1.67,1.84v10.58h-3.73Z"/><path class="cls-4" d="M776.77,633h3.73v3.12h-3.73Zm0,4.79h3.73v15.81h-3.73Z"/><path class="cls-4" d="M785.23,633H789v6.29a2.64,2.64,0,0,1,2.73-1.84c3.23,0,5,2.89,5,8.24,0,5.68-2.14,8.24-5,8.24a3.09,3.09,0,0,1-3.06-1.89v1.56h-3.4Zm7.71,12.66c0-3-.56-4.48-2-4.48-2,0-2,2.14-2,4.51s0,4.51,2,4.51c1.42,0,2-1.45,2-4.51Z"/><path class="cls-4" d="M800.64,633h3.73v3.12h-3.73Zm0,4.79h3.73v15.81h-3.73Z"/><path class="cls-4" d="M809.49,633h3.73v20.6h-3.73Z"/><path class="cls-4" d="M818.34,633h3.73v3.12h-3.73Zm0,4.79h3.73v15.81h-3.73Z"/><path class="cls-4" d="M827.19,641.28h-1.67v-3.51h1.67v-3h3.73v3h1.67v3.51h-1.67v12.3h-3.73Z"/><path class="cls-4" d="M838.76,647c0,1.56.42,3.4,2.09,3.4,1,0,1.67-.61,1.95-1.95h3.7a6.36,6.36,0,0,1-2.28,4.43,5.79,5.79,0,0,1-3.37,1c-4.15,0-6.1-3.67-6.1-8.24s1.95-8.24,6.1-8.24a5,5,0,0,1,4.59,2.53c1.17,2,1.25,4.62,1.17,7Zm5.59-15.95,1.42,3-6.46,2.87L838,634.49Zm-1.48,12.77c0-.95-.14-3.34-2-3.34-1.31,0-2.14,1.11-2.14,3.34Z"/><path class="cls-4" d="M859.63,633h3.73v3.12h-3.73Zm0,4.79h3.73v15.81h-3.73Z"/><path class="cls-4" d="M868.26,637.77h3.51v1.84a2.92,2.92,0,0,1,3.23-2.17,3.52,3.52,0,0,1,2.25.7,2.68,2.68,0,0,1,.75,1,3.12,3.12,0,0,1,1-1.06,5,5,0,0,1,2.59-.67,4.45,4.45,0,0,1,3.59,1.53,5.2,5.2,0,0,1,1.14,3.37v11.24h-3.73V643a2,2,0,0,0-.39-1.42,1.56,1.56,0,0,0-1.25-.42,2.08,2.08,0,0,0-1.31.33,1.57,1.57,0,0,0-.5,1.28v10.8h-3.73V643a2,2,0,0,0-.39-1.42,1.56,1.56,0,0,0-1.25-.42,2.08,2.08,0,0,0-1.31.33,1.57,1.57,0,0,0-.5,1.28v10.8h-3.73Z"/><path class="cls-4" d="M891,637.77h3.51v1.84a2.92,2.92,0,0,1,3.23-2.17,3.52,3.52,0,0,1,2.25.7,2.68,2.68,0,0,1,.75,1,3.12,3.12,0,0,1,1-1.06,5,5,0,0,1,2.59-.67A4.45,4.45,0,0,1,908,639a5.2,5.2,0,0,1,1.14,3.37v11.24h-3.73V643a2,2,0,0,0-.39-1.42,1.56,1.56,0,0,0-1.25-.42,2.08,2.08,0,0,0-1.31.33,1.57,1.57,0,0,0-.5,1.28v10.8H898.2V643a2,2,0,0,0-.39-1.42,1.56,1.56,0,0,0-1.25-.42,2.08,2.08,0,0,0-1.31.33,1.57,1.57,0,0,0-.5,1.28v10.8H891Z"/><path class="cls-4" d="M917,647c0,1.56.42,3.4,2.09,3.4,1,0,1.67-.61,1.95-1.95h3.7a6.36,6.36,0,0,1-2.28,4.43,5.79,5.79,0,0,1-3.37,1c-4.15,0-6.1-3.67-6.1-8.24s1.95-8.24,6.1-8.24a5,5,0,0,1,4.59,2.53c1.17,2,1.25,4.62,1.17,7Zm5.59-15.95,1.42,3-6.46,2.87-1.28-2.42Zm-1.48,12.77c0-.95-.14-3.34-2-3.34-1.31,0-2.14,1.11-2.14,3.34Z"/><path class="cls-4" d="M939.33,653.58h-3.4V651.8a3,3,0,0,1-3.06,2.12c-2.84,0-5-2.56-5-8.24,0-5.34,1.75-8.24,5-8.24a2.78,2.78,0,0,1,2.76,1.67c0-.45,0-.89,0-1.34V633h3.73Zm-7.71-7.88c0,3.48.78,4.48,2,4.48a1.63,1.63,0,0,0,1.48-.7c.47-.58.47-1.34.47-3.81s0-3.23-.47-3.81a1.63,1.63,0,0,0-1.48-.7c-1.25,0-2,1-2,4.51Z"/><path class="cls-4" d="M944.05,633h3.73v3.12h-3.73Zm0,4.79h3.73v15.81h-3.73Z"/><path class="cls-4" d="M963.2,653.58h-3.4v-1.5a3.12,3.12,0,0,1-3.06,1.84c-2.84,0-5-2.56-5-8.24,0-5.34,1.75-8.24,5-8.24a3,3,0,0,1,3.06,1.95v-1.61h3.4Zm-7.71-7.88c0,3.48.78,4.48,2,4.48a1.63,1.63,0,0,0,1.48-.7c.47-.58.47-1.34.47-3.81s0-3.23-.47-3.81a1.63,1.63,0,0,0-1.48-.7c-1.25,0-2,1-2,4.51Z"/><path class="cls-4" d="M967.93,641.28h-1.67v-3.51h1.67v-3h3.73v3h1.67v3.51h-1.67v12.3h-3.73Z"/><path class="cls-4" d="M979.5,647c0,1.56.42,3.4,2.09,3.4,1,0,1.67-.61,1.95-1.95h3.7a6.36,6.36,0,0,1-2.28,4.43,5.79,5.79,0,0,1-3.37,1c-4.15,0-6.1-3.67-6.1-8.24s1.95-8.24,6.1-8.24a5,5,0,0,1,4.59,2.53c1.17,2,1.25,4.62,1.17,7Zm4.12-3.17c0-.95-.14-3.34-2-3.34-1.31,0-2.14,1.11-2.14,3.34Z"/><path class="cls-4" d="M691.1,687v-20.6h6.15l2.84,13.28,2.84-13.28h6.15V687h-3.73V671l-3.73,16h-3.06l-3.73-16v16Z"/><path class="cls-4" d="M712.88,679c0-4.54,1.95-8.21,6.1-8.21s6.1,3.67,6.1,8.24-1.95,8.24-6.1,8.24-6.1-3.67-6.1-8.24Zm4,.06c0,3.7.83,4.7,2.2,4.7s2.09-1,2.09-4.73-.83-4.73-2.2-4.73-2.09,1-2.09,4.73Z"/><path class="cls-4" d="M728.66,666.37h3.73v6.29a2.64,2.64,0,0,1,2.73-1.84c3.23,0,5,2.89,5,8.24,0,5.68-2.14,8.24-5,8.24a3.09,3.09,0,0,1-3.06-1.89V687h-3.4ZM736.37,679c0-3-.56-4.48-2-4.48-2,0-2,2.14-2,4.51s0,4.51,2,4.51c1.42,0,2-1.45,2-4.51Z"/><path class="cls-4" d="M744.07,666.37h3.73v3.12h-3.73Zm0,4.79h3.73V687h-3.73Z"/><path class="cls-4" d="M752.92,666.37h3.73V687h-3.73Z"/><path class="cls-4" d="M761.77,666.37h3.73v3.12h-3.73Zm0,4.79h3.73V687h-3.73Z"/><path class="cls-4" d="M770.62,674.67H769v-3.51h1.67v-3h3.73v3H776v3.51h-1.67V687h-3.73Z"/><path class="cls-4" d="M782.2,680.4c0,1.56.42,3.4,2.09,3.4,1,0,1.67-.61,1.95-1.95h3.7a6.36,6.36,0,0,1-2.28,4.43,5.79,5.79,0,0,1-3.37,1c-4.15,0-6.1-3.67-6.1-8.24s1.95-8.24,6.1-8.24a5,5,0,0,1,4.59,2.53c1.17,2,1.25,4.62,1.17,7Zm5.59-15.95,1.42,3-6.46,2.87-1.28-2.42Zm-1.48,12.77c0-.95-.14-3.34-2-3.34-1.31,0-2.14,1.11-2.14,3.34Z"/><path class="cls-4" d="M802.67,666.37h9.52v3.9H806.9v3.9h5.29v3.9H806.9V687h-4.23Z"/><path class="cls-4" d="M816,671.16h3.4v2.06c.56-2,1.95-2.39,4-2.39v4.59a2.8,2.8,0,0,0-1.64-.47c-1.39,0-2,1.17-2,2.78V687H816Z"/><path class="cls-4" d="M836.65,687h-3.4v-1.5a3.12,3.12,0,0,1-3.06,1.84c-2.84,0-5-2.56-5-8.24,0-5.34,1.75-8.24,5-8.24a3,3,0,0,1,3.06,1.95v-1.61h3.4Zm-7.71-7.88c0,3.48.78,4.48,2,4.48a1.63,1.63,0,0,0,1.48-.7c.47-.58.47-1.34.47-3.81s0-3.23-.47-3.81a1.63,1.63,0,0,0-1.48-.7c-1.25,0-2,1-2,4.51Z"/><path class="cls-4" d="M841,671.16h3.23v1.5a3.3,3.3,0,0,1,3.37-1.84c2.5,0,4.09,1.39,4.09,4.59V687h-3.73V676.65c0-1.09-.25-2.09-1.56-2.09-1,0-1.67.5-1.67,1.84V687H841Z"/><path class="cls-4" d="M866.31,681c0,3.23-1.61,6.35-5.09,6.35-3.76,0-6.12-3-6.12-8.24s2.37-8.24,6.12-8.24c3.48,0,5.09,3.06,5.09,6.35h-3.9c0-1.89-.5-2.84-1.48-2.84a1.42,1.42,0,0,0-1.39,1,9.61,9.61,0,0,0-.5,3.73c0,3.62.7,4.73,1.89,4.73s1.48-1.28,1.48-2.84Z"/><path class="cls-4" d="M872.88,680.4c0,1.56.42,3.4,2.09,3.4,1,0,1.67-.61,1.95-1.95h3.7a6.36,6.36,0,0,1-2.28,4.43,5.79,5.79,0,0,1-3.37,1c-4.15,0-6.1-3.67-6.1-8.24s1.95-8.24,6.1-8.24a5,5,0,0,1,4.59,2.53c1.17,2,1.25,4.62,1.17,7Zm4.12-3.17c0-.95-.14-3.34-2-3.34-1.31,0-2.14,1.11-2.14,3.34Z"/><path class="cls-4" d="M896.75,680.4c0,1.56.42,3.4,2.09,3.4,1,0,1.67-.61,1.95-1.95h3.7a6.36,6.36,0,0,1-2.28,4.43,5.79,5.79,0,0,1-3.37,1c-4.15,0-6.1-3.67-6.1-8.24s1.95-8.24,6.1-8.24a5,5,0,0,1,4.59,2.53c1.17,2,1.25,4.62,1.17,7Zm4.12-3.17c0-.95-.14-3.34-2-3.34-1.31,0-2.14,1.11-2.14,3.34Z"/><path class="cls-4" d="M908.38,671.16h3.23v1.5a3.3,3.3,0,0,1,3.37-1.84c2.5,0,4.09,1.39,4.09,4.59V687h-3.73V676.65c0-1.09-.25-2.09-1.56-2.09-1,0-1.67.5-1.67,1.84V687h-3.73Z"/><path class="cls-4" d="M923.8,674.67h-1.67v-3.51h1.67v-3h3.73v3h1.67v3.51h-1.67V687H923.8Z"/><path class="cls-4" d="M932.64,666.37h3.73v3.12h-3.73Zm0,4.79h3.73V687h-3.73Z"/><path class="cls-4" d="M944.5,680.4c0,1.56.42,3.4,2.09,3.4,1,0,1.67-.61,1.95-1.95h3.7a6.36,6.36,0,0,1-2.28,4.43,5.79,5.79,0,0,1-3.37,1c-4.15,0-6.1-3.67-6.1-8.24s1.95-8.24,6.1-8.24a5,5,0,0,1,4.59,2.53c1.17,2,1.25,4.62,1.17,7Zm4.62-12.52-1.28,2.42-6.46-2.87,1.42-3Zm-.5,9.35c0-.95-.14-3.34-2-3.34-1.31,0-2.14,1.11-2.14,3.34Z"/><path class="cls-4" d="M956.13,671.16h3.4v2.06c.56-2,1.95-2.39,4-2.39v4.59a2.8,2.8,0,0,0-1.64-.47c-1.39,0-2,1.17-2,2.78V687h-3.73Z"/><path class="cls-4" d="M969.49,680.4c0,1.56.42,3.4,2.09,3.4,1,0,1.67-.61,1.95-1.95h3.7a6.36,6.36,0,0,1-2.28,4.43,5.79,5.79,0,0,1-3.37,1c-4.15,0-6.1-3.67-6.1-8.24s1.95-8.24,6.1-8.24a5,5,0,0,1,4.59,2.53c1.17,2,1.25,4.62,1.17,7Zm4.12-3.17c0-.95-.14-3.34-2-3.34-1.31,0-2.14,1.11-2.14,3.34Z"/><path class="cls-2" d="M1121.22,527.61h201a0,0,0,0,1,0,0v42.8a16,16,0,0,1-16,16h-185a16,16,0,0,1-16-16v-26.8A16,16,0,0,1,1121.22,527.61Z"/><path class="cls-3" d="M1126,561.71c.06,2.14.78,3.15,2.62,3.15a2.22,2.22,0,0,0,2.39-2.45c0-1.87-2.23-2.31-4.45-3.17s-4.45-2.17-4.45-5.65c0-3.9,2.39-6.4,6.32-6.4s5.93,1.84,6.54,5.9h-4.12a2.19,2.19,0,0,0-2.25-2.39,2.1,2.1,0,0,0-2.14,2.25c0,1.95,2.23,2.31,4.45,3.2s4.45,2.28,4.45,6.21-2.89,6.23-6.82,6.23c-4.7,0-6.76-2.53-6.76-6.87Z"/><path class="cls-3" d="M1141.79,567.25l-4.29-14.86h3.9l2.28,9.13,2.12-9.13h3.9l-6,20.82h-3.79Z"/><path class="cls-3" d="M1152.89,547.6h3.73v20.6h-3.73Z"/><path class="cls-3" d="M1167.83,568.19h-3.4l-4.56-15.81h3.79l2.42,10.13,2.09-10.13H1172Z"/><path class="cls-3" d="M1175.2,547.6h3.73v3.12h-3.73Zm0,4.79h3.73v15.81h-3.73Z"/><path class="cls-3" d="M1187.06,561.62c0,1.56.42,3.4,2.09,3.4,1,0,1.67-.61,1.95-1.95h3.7a6.36,6.36,0,0,1-2.28,4.42,5.79,5.79,0,0,1-3.37,1c-4.15,0-6.1-3.67-6.1-8.24s1.95-8.24,6.1-8.24a5,5,0,0,1,4.59,2.53c1.17,2,1.25,4.62,1.17,7Zm4.12-3.17c0-.95-.14-3.34-2-3.34-1.31,0-2.14,1.11-2.14,3.34Z"/><path class="cls-3" d="M1217.89,562.9a6.4,6.4,0,0,1-.5,2.64,4.83,4.83,0,0,1-2.37,2.39,7.07,7.07,0,0,1-3.06.64c-3.51,0-5.93-1.95-5.93-5.68v-1.17h4.23v.39c0,2.06.47,2.56,1.7,2.56a1.51,1.51,0,0,0,1.31-.5,3.65,3.65,0,0,0,.39-2.06V547.6h4.23Z"/><path class="cls-3" d="M1224.59,568.19h-4.29l5.62-20.6h3.9l5.84,20.6h-4.29l-1.06-3.92h-4.73Zm3.34-14.56-1.31,6.74h2.62Z"/><path class="cls-3" d="M1242,561.71c.06,2.14.78,3.15,2.62,3.15a2.22,2.22,0,0,0,2.39-2.45c0-1.87-2.23-2.31-4.45-3.17s-4.45-2.17-4.45-5.65c0-3.9,2.39-6.4,6.32-6.4s5.93,1.84,6.54,5.9h-4.12a2.19,2.19,0,0,0-2.25-2.39,2.1,2.1,0,0,0-2.14,2.25c0,1.95,2.23,2.31,4.45,3.2s4.45,2.28,4.45,6.21-2.89,6.23-6.82,6.23c-4.7,0-6.76-2.53-6.76-6.87Z"/><path class="cls-3" d="M1255.26,568.19V547.6h6.15l2.84,13.28,2.84-13.28h6.15v20.6h-3.73v-16l-3.73,16h-3.06l-3.73-16v16Z"/><path class="cls-3" d="M1277.93,547.6h4.23v20.6h-4.23Z"/><path class="cls-3" d="M1296.44,559.7V547.6h3.73v20.6h-3.79L1290.6,555v13.19h-3.73V547.6h4.29Z"/><path class="cls-4" d="M1133.14,620.19h-3.4v-1.78a3,3,0,0,1-3.06,2.12c-2.84,0-5-2.56-5-8.24,0-5.34,1.75-8.24,5-8.24a2.78,2.78,0,0,1,2.76,1.67c0-.45,0-.89,0-1.34V599.6h3.73Zm-7.71-7.88c0,3.48.78,4.48,2,4.48a1.63,1.63,0,0,0,1.48-.7c.47-.58.47-1.34.47-3.81s0-3.23-.47-3.81a1.63,1.63,0,0,0-1.48-.7c-1.25,0-2,1-2,4.51Z"/><path class="cls-4" d="M1137.86,599.6h3.73v3.12h-3.73Zm0,4.79h3.73v15.81h-3.73Z"/><path class="cls-4" d="M1152.81,620.19h-3.4l-4.56-15.81h3.79l2.42,10.13,2.09-10.13h3.79Z"/><path class="cls-4" d="M1158.76,612.26c0-4.54,1.95-8.21,6.1-8.21s6.1,3.67,6.1,8.24-1.95,8.24-6.1,8.24-6.1-3.67-6.1-8.24Zm4,.06c0,3.7.83,4.7,2.2,4.7s2.09-1,2.09-4.73-.83-4.73-2.2-4.73-2.09,1-2.09,4.73Z"/><path class="cls-4" d="M1174.54,604.38h3.4v2.06c.56-2,1.95-2.39,4-2.39v4.59a2.81,2.81,0,0,0-1.64-.47c-1.39,0-2,1.17-2,2.78v9.24h-3.73Z"/><path class="cls-4" d="M1194.8,614.18c0,3.23-1.61,6.35-5.09,6.35-3.76,0-6.12-3-6.12-8.24s2.37-8.24,6.12-8.24c3.48,0,5.09,3.06,5.09,6.35h-3.9c0-1.89-.5-2.84-1.48-2.84a1.42,1.42,0,0,0-1.39,1,9.6,9.6,0,0,0-.5,3.73c0,3.62.7,4.73,1.89,4.73s1.48-1.28,1.48-2.84Z"/><path class="cls-4" d="M1201.36,613.62c0,1.56.42,3.4,2.09,3.4,1,0,1.67-.61,1.95-1.95h3.7a6.36,6.36,0,0,1-2.28,4.42,5.79,5.79,0,0,1-3.37,1c-4.15,0-6.1-3.67-6.1-8.24s1.95-8.24,6.1-8.24a5,5,0,0,1,4.59,2.53c1.17,2,1.25,4.62,1.17,7Zm5.59-15.95,1.42,3-6.46,2.87-1.28-2.42Zm-1.48,12.78c0-.95-.14-3.34-2-3.34-1.31,0-2.14,1.11-2.14,3.34Z"/><path class="cls-4" d="M1216.39,613.62c0,1.56.42,3.4,2.09,3.4,1,0,1.67-.61,1.95-1.95h3.7a6.36,6.36,0,0,1-2.28,4.42,5.79,5.79,0,0,1-3.37,1c-4.15,0-6.1-3.67-6.1-8.24s1.95-8.24,6.1-8.24a5,5,0,0,1,4.59,2.53c1.17,2,1.25,4.62,1.17,7Zm4.12-3.17c0-.95-.14-3.34-2-3.34-1.31,0-2.14,1.11-2.14,3.34Z"/><path class="cls-4" d="M1122.28,649.46c2.5-2.5,4.23-4.4,5.46-5.62,2.42-2.45,2.73-3.34,2.73-4.59a2.12,2.12,0,0,0-2-2.37c-.95,0-2.14.45-2.14,2.78h-4.23a7.24,7.24,0,0,1,1.84-5.32,6.19,6.19,0,0,1,4.56-1.7c3.7,0,6.35,2.73,6.35,6.68a7.44,7.44,0,0,1-1.39,4.54,70.34,70.34,0,0,1-5.57,5.82h7v3.9h-12.61Z"/><path class="cls-4" d="M1151.28,647c0,1.56.42,3.4,2.09,3.4,1,0,1.67-.61,1.95-1.95h3.7a6.36,6.36,0,0,1-2.28,4.43,5.79,5.79,0,0,1-3.37,1c-4.15,0-6.1-3.67-6.1-8.24s1.95-8.24,6.1-8.24A5,5,0,0,1,1158,640c1.17,2,1.25,4.62,1.17,7Zm4.12-3.17c0-.95-.14-3.34-2-3.34-1.31,0-2.14,1.11-2.14,3.34Z"/><path class="cls-4" d="M1162.91,637.77h3.23v1.5a3.3,3.3,0,0,1,3.37-1.84c2.5,0,4.09,1.39,4.09,4.59v11.55h-3.73V643.26c0-1.09-.25-2.09-1.56-2.09-1,0-1.67.5-1.67,1.84v10.58h-3.73Z"/><path class="cls-4" d="M1178.21,641.28h-1.45v-3.51h1.45v-.64c0-4.17,3.67-4.51,5.79-4.51v3.23c-.86,0-2.06,0-2.06,1.64v.28H1184v3.51h-2.06v12.3h-3.73Z"/><path class="cls-4" d="M1197.33,653.58h-3.4v-1.5a3.12,3.12,0,0,1-3.06,1.84c-2.84,0-5-2.56-5-8.24,0-5.34,1.75-8.24,5-8.24a3,3,0,0,1,3.06,1.95v-1.61h3.4Zm-7.71-7.88c0,3.48.78,4.48,2,4.48a1.63,1.63,0,0,0,1.48-.7c.47-.58.47-1.34.47-3.81s0-3.23-.47-3.81a1.63,1.63,0,0,0-1.48-.7c-1.25,0-2,1-2,4.51Z"/><path class="cls-4" d="M1201.67,637.77h3.23v1.5a3.3,3.3,0,0,1,3.37-1.84c2.5,0,4.09,1.39,4.09,4.59v11.55h-3.73V643.26c0-1.09-.25-2.09-1.56-2.09-1,0-1.67.5-1.67,1.84v10.58h-3.73Z"/><path class="cls-4" d="M1217.08,641.28h-1.67v-3.51h1.67v-3h3.73v3h1.67v3.51h-1.67v12.3h-3.73Z"/><path class="cls-4" d="M1231.5,642.45c-.06-1.17-.53-1.78-1.67-1.78a1.19,1.19,0,0,0-1.34,1.22c0,1.34,1.78,1.45,3.56,2a4.52,4.52,0,0,1,3.56,4.84c0,3-2.34,5.18-5.59,5.18-3,0-5.43-1.67-5.76-5.4H1228a2,2,0,0,0,2.14,2,1.41,1.41,0,0,0,1.53-1.59c0-1.36-1.78-1.5-3.56-2.09s-3.56-1.67-3.56-4.81c0-2.64,1.84-4.59,5.4-4.59s5.07,1.95,5.29,5Z"/><path class="cls-4" d="M1256,636.77a11.37,11.37,0,0,0,0,18.81v3.84c-4.29-1.67-8.41-6.68-8.41-13.25s4.12-11.58,8.41-13.25Z"/><path class="cls-4" d="M1264.41,636.71h-3.06V633h7v20.6h-4Z"/><path class="cls-4" d="M1288.12,633v3.51h-7.35l-.17,4a3.2,3.2,0,0,1,3.06-1.45c3.12,0,5.51,2.39,5.51,7,0,4.93-2.23,7.88-6.79,7.88-4.17,0-6-2.48-6.23-6.4h4.23a2.29,2.29,0,0,0,2.06,2.5c1.73,0,2.39-1.11,2.39-3.7,0-2.42-.89-3.42-2.23-3.42a2.1,2.1,0,0,0-2,1.78h-4.12L1277,633Z"/><path class="cls-4" d="M1312.5,653.58h-3.4v-1.5a3.12,3.12,0,0,1-3.06,1.84c-2.84,0-5-2.56-5-8.24,0-5.34,1.75-8.24,5-8.24a3,3,0,0,1,3.06,1.95v-1.61h3.4Zm-7.71-7.88c0,3.48.78,4.48,2,4.48a1.63,1.63,0,0,0,1.48-.7c.47-.58.47-1.34.47-3.81s0-3.23-.47-3.81a1.63,1.63,0,0,0-1.48-.7c-1.25,0-2,1-2,4.51Z"/><path class="cls-4" d="M1316.83,637.77h3.23v1.5a3.3,3.3,0,0,1,3.37-1.84c2.5,0,4.09,1.39,4.09,4.59v11.55h-3.73V643.26c0-1.09-.25-2.09-1.56-2.09-1,0-1.67.5-1.67,1.84v10.58h-3.73Z"/><path class="cls-4" d="M1337.82,642.45c-.06-1.17-.53-1.78-1.67-1.78a1.19,1.19,0,0,0-1.34,1.22c0,1.34,1.78,1.45,3.56,2a4.52,4.52,0,0,1,3.56,4.84c0,3-2.34,5.18-5.59,5.18-3,0-5.43-1.67-5.76-5.4h3.73a2,2,0,0,0,2.14,2,1.41,1.41,0,0,0,1.53-1.59c0-1.36-1.78-1.5-3.56-2.09s-3.56-1.67-3.56-4.81c0-2.64,1.84-4.59,5.4-4.59s5.07,1.95,5.29,5Z"/><path class="cls-4" d="M1357.57,647c0,1.56.42,3.4,2.09,3.4,1,0,1.67-.61,1.95-1.95h3.7a6.36,6.36,0,0,1-2.28,4.43,5.79,5.79,0,0,1-3.37,1c-4.15,0-6.1-3.67-6.1-8.24s1.95-8.24,6.1-8.24a5,5,0,0,1,4.59,2.53c1.17,2,1.25,4.62,1.17,7Zm4.12-3.17c0-.95-.14-3.34-2-3.34-1.31,0-2.14,1.11-2.14,3.34Z"/><path class="cls-4" d="M1369.59,641.28h-1.67v-3.51h1.67v-3h3.73v3H1375v3.51h-1.67v12.3h-3.73Z"/><path class="cls-4" d="M1386.73,649.46c2.5-2.5,4.23-4.4,5.46-5.62,2.42-2.45,2.73-3.34,2.73-4.59a2.12,2.12,0,0,0-2-2.37c-.95,0-2.14.45-2.14,2.78h-4.23a7.24,7.24,0,0,1,1.84-5.32,6.19,6.19,0,0,1,4.56-1.7c3.7,0,6.35,2.73,6.35,6.68a7.44,7.44,0,0,1-1.39,4.54,70.34,70.34,0,0,1-5.57,5.82h7v3.9h-12.61Z"/><path class="cls-4" d="M1408.1,636.71H1405V633h7v20.6h-4Z"/><path class="cls-4" d="M1439.6,653.58h-3.4v-1.5a3.12,3.12,0,0,1-3.06,1.84c-2.84,0-5-2.56-5-8.24,0-5.34,1.75-8.24,5-8.24a3,3,0,0,1,3.06,1.95v-1.61h3.4Zm-7.71-7.88c0,3.48.78,4.48,2,4.48a1.63,1.63,0,0,0,1.48-.7c.47-.58.47-1.34.47-3.81s0-3.23-.47-3.81a1.63,1.63,0,0,0-1.48-.7c-1.25,0-2,1-2,4.51Z"/><path class="cls-4" d="M1443.94,637.77h3.23v1.5a3.3,3.3,0,0,1,3.37-1.84c2.5,0,4.09,1.39,4.09,4.59v11.55h-3.73V643.26c0-1.09-.25-2.09-1.56-2.09-1,0-1.67.5-1.67,1.84v10.58h-3.73Z"/><path class="cls-4" d="M1464.92,642.45c-.06-1.17-.53-1.78-1.67-1.78a1.19,1.19,0,0,0-1.34,1.22c0,1.34,1.78,1.45,3.56,2a4.52,4.52,0,0,1,3.56,4.84c0,3-2.34,5.18-5.59,5.18-3,0-5.43-1.67-5.76-5.4h3.73a2,2,0,0,0,2.14,2,1.41,1.41,0,0,0,1.53-1.59c0-1.36-1.78-1.5-3.56-2.09S1458,645.18,1458,642c0-2.64,1.84-4.59,5.4-4.59s5.07,1.95,5.29,5Z"/><path class="cls-4" d="M1471.93,655.58a11.37,11.37,0,0,0,0-18.81v-3.84c4.29,1.67,8.41,6.68,8.41,13.25s-4.12,11.58-8.41,13.25Z"/><path class="cls-4" d="M1132.24,678.48V666.37H1136V687h-3.79l-5.79-13.19V687h-3.73v-20.6H1127Z"/><path class="cls-4" d="M1144,680.4c0,1.56.42,3.4,2.09,3.4,1,0,1.67-.61,1.95-1.95h3.7a6.36,6.36,0,0,1-2.28,4.43,5.79,5.79,0,0,1-3.37,1c-4.15,0-6.1-3.67-6.1-8.24s1.95-8.24,6.1-8.24a5,5,0,0,1,4.59,2.53c1.17,2,1.25,4.62,1.17,7Zm5.59-15.95,1.42,3-6.46,2.87-1.28-2.42Zm-1.48,12.77c0-.95-.14-3.34-2-3.34-1.31,0-2.14,1.11-2.14,3.34Z"/><path class="cls-4" d="M1159,680.4c0,1.56.42,3.4,2.09,3.4,1,0,1.67-.61,1.95-1.95h3.7a6.36,6.36,0,0,1-2.28,4.43,5.79,5.79,0,0,1-3.37,1c-4.15,0-6.1-3.67-6.1-8.24s1.95-8.24,6.1-8.24a5,5,0,0,1,4.59,2.53c1.17,2,1.25,4.62,1.17,7Zm4.12-3.17c0-.95-.14-3.34-2-3.34-1.31,0-2.14,1.11-2.14,3.34Z"/><path class="cls-4" d="M1179.85,666.37h3.73V687h-3.73Z"/><path class="cls-4" d="M1191.7,680.4c0,1.56.42,3.4,2.09,3.4,1,0,1.67-.61,1.95-1.95h3.7a6.36,6.36,0,0,1-2.28,4.43,5.79,5.79,0,0,1-3.37,1c-4.15,0-6.1-3.67-6.1-8.24s1.95-8.24,6.1-8.24a5,5,0,0,1,4.59,2.53c1.17,2,1.25,4.62,1.17,7Zm4.12-3.17c0-.95-.14-3.34-2-3.34-1.31,0-2.14,1.11-2.14,3.34Z"/><path class="cls-4" d="M1216.8,670.1h-3.06v-3.73h7V687h-4Z"/><path class="cls-4" d="M1228.6,682.85c2.5-2.5,4.23-4.4,5.46-5.62,2.42-2.45,2.73-3.34,2.73-4.59a2.12,2.12,0,0,0-2-2.37c-.95,0-2.14.45-2.14,2.78h-4.23a7.24,7.24,0,0,1,1.84-5.32,6.19,6.19,0,0,1,4.56-1.7c3.7,0,6.35,2.73,6.35,6.68a7.44,7.44,0,0,1-1.39,4.54,70.35,70.35,0,0,1-5.57,5.82h7V687H1228.6Z"/><path class="cls-4" d="M1248.94,666h3.73l-6.4,21.26h-3.73Z"/><path class="cls-4" d="M1253.87,673.05c0-4.45,2.62-7,6.46-7s6.46,2.56,6.46,7v7.24c0,4.45-2.62,7-6.46,7s-6.46-2.56-6.46-7Zm4,7c0,2.37,1,3.45,2.5,3.45s2.5-1.08,2.5-3.45v-6.68c0-2.37-1-3.45-2.5-3.45s-2.5,1.09-2.5,3.45Z"/><path class="cls-4" d="M1270.7,671.72c0-3.34,2.56-5.68,6.21-5.68s6.21,2.34,6.21,5.71a4.58,4.58,0,0,1-2.17,3.92c1.81.7,2.84,2.81,2.84,5,0,4.31-3,6.62-6.87,6.62S1270,685,1270,680.68a5.5,5.5,0,0,1,2.84-5.07,4.16,4.16,0,0,1-2.17-3.87Zm3.73,9a2.49,2.49,0,1,0,5,0,2.48,2.48,0,1,0-5,0Zm.56-8.38a1.93,1.93,0,1,0,3.84,0,2,2,0,1,0-3.84,0Z"/><path class="cls-4" d="M1291,666h3.73l-6.4,21.26h-3.73Z"/><path class="cls-4" d="M1300.84,670.1h-3.06v-3.73h7V687h-4Z"/><path class="cls-4" d="M1313.72,687l4.45-6.4c.31-.45.64-.95.83-1.25a2.49,2.49,0,0,1-1.06.22c-3.28,0-5.73-2.87-5.73-6.51s2.42-7,6.68-7a6.6,6.6,0,0,1,4.51,1.5c1.25,1.06,2.23,3,2.23,5.79,0,2.42-.86,4.2-2.45,6.54l-4.87,7.1Zm7.43-14.28c0-1.84-.92-3.06-2.31-3.06s-2.25,1.22-2.25,3.09.86,3.23,2.25,3.23,2.31-1.22,2.31-3.23Z"/><path class="cls-4" d="M1340.71,666.37l-4.45,6.4c-.31.45-.64.95-.83,1.25a2.49,2.49,0,0,1,1.06-.22c3.28,0,5.73,2.87,5.73,6.51s-2.42,7-6.68,7a6.6,6.6,0,0,1-4.51-1.5c-1.25-1.06-2.23-3-2.23-5.79,0-2.42.86-4.2,2.45-6.54l4.87-7.1Zm-7.49,14.28c0,1.84.92,3.06,2.31,3.06s2.25-1.22,2.25-3.09-.86-3.23-2.25-3.23-2.31,1.22-2.31,3.23Z"/><path class="cls-4" d="M1357.29,666.37l-4.45,6.4c-.31.45-.64.95-.83,1.25a2.49,2.49,0,0,1,1.06-.22c3.28,0,5.73,2.87,5.73,6.51s-2.42,7-6.68,7a6.6,6.6,0,0,1-4.51-1.5c-1.25-1.06-2.23-3-2.23-5.79,0-2.42.86-4.2,2.45-6.54l4.87-7.1Zm-7.49,14.28c0,1.84.92,3.06,2.31,3.06s2.25-1.22,2.25-3.09-.86-3.23-2.25-3.23-2.31,1.22-2.31,3.23Z"/><rect class="cls-5" x="810.43" y="354.66" width="294.79" height="69" rx="8.8" ry="8.8"/><path class="cls-4" d="M870.21,372.48h14.4v5.6h-8.32v5.68h8.32v5.6h-8.32v7.12h8.32v5.6h-14.4Zm12.44-9,2,4.28-9.28,4.12-1.84-3.48Z"/><path class="cls-4" d="M894.85,378.08h-5v-5.6h16v5.6h-5v24h-6.08Z"/><path class="cls-4" d="M911.61,402.08h-6.16l8.08-29.6h5.6l8.4,29.6h-6.16l-1.52-5.64h-6.8Zm4.8-20.92-1.88,9.68h3.76Z"/><path class="cls-4" d="M932.05,378.08h-5v-5.6h16v5.6h-5v24h-6.08Z"/><path class="cls-4" d="M981,390.6c0,6.76-3.76,12-10.72,12-6.48,0-10.72-5-10.72-15.36s4.24-15.36,10.72-15.36c7.16,0,10.8,5.4,10.72,12.28h-6.24c-.16-5.28-1.68-6.52-4-6.52-2.8,0-5,2.52-5,9.6s2.16,9.6,5,9.6c3.16,0,3.84-3.12,4-6.28Z"/><path class="cls-4" d="M986.85,372.48h6.08v29.6h-6.08Z"/><path class="cls-4" d="M997.41,372.48h5.92l4.92,20.36,5-20.36h5.68l-8.08,29.6h-5.36Z"/><path class="cls-4" d="M1023.41,372.48h6.08v29.6h-6.08Z"/><path class="cls-4" d="M1036.41,372.48h6.08v24h7.76v5.6h-13.84Z"/><polygon class="cls-5" points="902.24 423.66 958.74 459.66 1013.4 423.66 902.24 423.66"/></g><g id="etapes_jeu2" data-name="etapes jeu2"><line class="cls-6" x1="555.81" y1="247.16" x2="556.31" y2="247.16"/><line class="cls-7" x1="571.26" y1="247.16" x2="1361.42" y2="247.16"/><line class="cls-6" x1="1368.89" y1="247.16" x2="1369.39" y2="247.16"/><circle class="cls-8" cx="699.29" cy="247.16" r="39.31"/><path class="cls-3" d="M702.47,221.86V263.3H709v6.87H689V263.3h6.53V228.73H689v-6.87Z"/><path class="cls-9" d="M699.29,207.84H699v78.61h.31a39.31,39.31,0,1,0,0-78.63Z"/><circle class="cls-8" cx="835.94" cy="247.16" r="19.32"/><path class="cls-3" d="M830.87,253.37a6.64,6.64,0,0,1,3.19-5.49q3.21-2.29,3.22-3.88v-4.66q0-1.61-1.48-1.61h0q-1.49,0-1.49,1.61v3.18h-3.42v-3.18q0-5,4.91-5t4.92,5v4.74a6.71,6.71,0,0,1-3.21,5.57q-3.21,2.29-3.21,4v1.43h6.41v3.38h-9.84Z"/><path class="cls-9" d="M835.94,227.84h-.15v38.63h.15a19.32,19.32,0,1,0,0-38.63Z"/><circle class="cls-8" cx="972.6" cy="247.16" r="19.32"/><path class="cls-3" d="M973.94,239.34q0-1.6-1.49-1.61h0q-1.48,0-1.48,1.61v3.18h-3.42v-3.18q0-5,4.91-5t4.92,5v4.13a3.41,3.41,0,0,1-1.88,3.3,3.41,3.41,0,0,1,1.88,3.3v3.79q0,5-4.92,5t-4.91-5v-3.18H971v3.18q0,1.61,1.48,1.61h0q1.49,0,1.49-1.61v-3.79q0-1.29-.54-1.54a2.47,2.47,0,0,0-.9-.12h-1.13V245h1.39a1.44,1.44,0,0,0,.73-.15q.45-.25.45-1.45Z"/><path class="cls-9" d="M972.6,227.84h-.15v38.63h.15a19.32,19.32,0,1,0,0-38.63Z"/><circle class="cls-8" cx="1109.25" cy="247.16" r="19.32"/><path class="cls-3" d="M1113.61,234.73V250.3h1.32v3.38h-1.32v4.79h-3.42v-4.79h-6.95v-3l6-15.95Zm-7,15.57h3.57V240.21Z"/><path class="cls-9" d="M1109.25,227.84h-.15v38.63h.15a19.32,19.32,0,1,0,0-38.63Z"/><circle class="cls-8" cx="1245.91" cy="247.16" r="19.32"/><path class="cls-3" d="M1247.25,247.12q0-1.26-.53-1.49a2.4,2.4,0,0,0-.93-.13h-.33q-1,0-1.16.93l0,1h-3.42l.51-12.67h9.33v3.38h-6l-.24,5.11a3,3,0,0,1,2.37-1l.42,0a3.57,3.57,0,0,1,2.72,1.44,6,6,0,0,1,.76,3.45v6.74q0,5-4.92,5t-4.91-5V251h3.42v2.81q0,1.61,1.48,1.61h0q1.49,0,1.49-1.61Z"/><path class="cls-9" d="M1245.91,227.84h-.15v38.63h.15a19.32,19.32,0,1,0,0-38.63Z"/></g></g></svg>