<svg xmlns="http://www.w3.org/2000/svg" viewBox="0 0 1920 1080"><defs><style>.cls-1{isolation:isolate;}.cls-2,.cls-7{fill:#fff;}.cls-2{opacity:0.3;}.cls-3{fill:#666;}.cls-4,.cls-5{fill:none;stroke:#fff;stroke-linecap:round;stroke-miterlimit:10;stroke-width:5px;}.cls-5{stroke-dasharray:1 14.96;}.cls-6{fill:#4e96b3;}.cls-8{fill:#464646;opacity:0.7;mix-blend-mode:soft-light;}</style></defs><title>2e_ui</title><g class="cls-1"><g id="contenus"><rect class="cls-2" x="835.7" y="354.66" width="244.24" height="69" rx="8.8" ry="8.8"/><path class="cls-3" d="M901.79,390.6c0,6.76-3.76,12-10.72,12-6.48,0-10.72-5-10.72-15.36s4.24-15.36,10.72-15.36c7.16,0,10.8,5.4,10.72,12.28h-6.24c-.16-5.28-1.68-6.52-4-6.52-2.8,0-5,2.52-5,9.6s2.16,9.6,5,9.6c3.16,0,3.84-3.12,4-6.28Z"/><path class="cls-3" d="M906.39,387.24c0-9.24,3.6-15.32,10.88-15.32s10.88,6.08,10.88,15.36-3.6,15.36-10.88,15.36-10.88-6.08-10.88-15.36Zm6.24.08c0,7.08,1.52,9.72,4.64,9.72s4.64-2.64,4.64-9.76-1.52-9.76-4.64-9.76-4.64,2.64-4.64,9.76Z"/><path class="cls-3" d="M947.51,389.88v-17.4h5.36v29.6h-5.44l-8.32-19v19h-5.36v-29.6h6.16Z"/><path class="cls-3" d="M963,378.08h-5v-5.6h16v5.6h-5v24H963Z"/><path class="cls-3" d="M979.75,402.08h-6.16l8.08-29.6h5.6l8.4,29.6h-6.16L988,396.44h-6.8Zm4.8-20.92-1.88,9.68h3.76Z"/><path class="cls-3" d="M1018.71,390.6c0,6.76-3.76,12-10.72,12-6.48,0-10.72-5-10.72-15.36s4.24-15.36,10.72-15.36c7.16,0,10.8,5.4,10.72,12.28h-6.24c-.16-5.28-1.68-6.52-4-6.52-2.8,0-5,2.52-5,9.6s2.16,9.6,5,9.6c3.16,0,3.84-3.12,4-6.28Z"/><path class="cls-3" d="M1027.83,378.08h-5v-5.6h16v5.6h-5v24h-6.08Z"/><polygon class="cls-2" points="902.24 423.66 958.74 459.66 1013.4 423.66 902.24 423.66"/><path class="cls-3" d="M608,568.19V547.6h6.15L617,560.87l2.84-13.28H626v20.6h-3.73v-16l-3.73,16h-3.06l-3.73-16v16Z"/><path class="cls-3" d="M633.28,568.19H629l5.62-20.6h3.9l5.84,20.6h-4.29L639,564.27h-4.73Zm3.34-14.56-1.31,6.74h2.62Z"/><path class="cls-3" d="M647.28,547.6h5.34c2.92,0,4.79.75,5.68,1.81a7.07,7.07,0,0,1,1.67,4.76,7.59,7.59,0,0,1-.61,3.12,5.54,5.54,0,0,1-2.42,2.7l3.9,8.21H656.1l-4.54-10.46c.47,0,.72,0,1.06,0a3.27,3.27,0,0,0,2.09-.78,3.2,3.2,0,0,0,.92-2.37,3,3,0,0,0-1-2.5,3.23,3.23,0,0,0-2.17-.56h-1v16.7h-4.23Z"/><path class="cls-3" d="M665.61,551.49h-3.45v-3.9h11.13v3.9h-3.45v16.7h-4.23Z"/><path class="cls-3" d="M676.77,547.6H681v20.6h-4.23Z"/><path class="cls-3" d="M695.28,559.7V547.6H699v20.6h-3.79L689.43,555v13.19H685.7V547.6H690Z"/><path class="cls-3" d="M722.8,562.9a6.4,6.4,0,0,1-.5,2.64,4.83,4.83,0,0,1-2.37,2.39,7.07,7.07,0,0,1-3.06.64c-3.51,0-5.93-1.95-5.93-5.68v-1.17h4.23v.39c0,2.06.47,2.56,1.7,2.56a1.5,1.5,0,0,0,1.31-.5,3.65,3.65,0,0,0,.39-2.06V547.6h4.23Z"/><path class="cls-3" d="M738,568.19h-3.4v-1.5a3.12,3.12,0,0,1-3.06,1.84c-2.84,0-5-2.56-5-8.24,0-5.34,1.75-8.24,5-8.24a3,3,0,0,1,3.06,1.95v-1.61H738Zm-7.71-7.88c0,3.48.78,4.48,2,4.48a1.63,1.63,0,0,0,1.48-.7c.47-.58.47-1.34.47-3.81s0-3.23-.47-3.81a1.63,1.63,0,0,0-1.48-.7c-1.25,0-2,1-2,4.51Z"/><path class="cls-3" d="M752.65,562.18c0,3.23-1.61,6.35-5.09,6.35-3.76,0-6.12-3-6.12-8.24s2.37-8.24,6.12-8.24c3.48,0,5.09,3.06,5.09,6.35h-3.9c0-1.89-.5-2.84-1.47-2.84a1.42,1.42,0,0,0-1.39,1,9.6,9.6,0,0,0-.5,3.73c0,3.62.7,4.73,1.89,4.73s1.47-1.28,1.47-2.84Z"/><path class="cls-3" d="M766.51,573.2h-3.73v-5c0-.45,0-.89,0-1.36a2.77,2.77,0,0,1-2.75,1.7c-3.23,0-5-2.89-5-8.24,0-5.68,2.14-8.24,5-8.24,1.47,0,2.75.81,2.95,1.84v-1.5h3.51Zm-7.71-12.89c0,3.48.78,4.48,2,4.48a1.63,1.63,0,0,0,1.47-.7c.47-.58.47-1.34.47-3.81s0-3.23-.47-3.81a1.63,1.63,0,0,0-1.47-.7c-1.25,0-2,1-2,4.51Z"/><path class="cls-3" d="M781.53,568.19h-3.37v-1.67c-.47,1.28-1.28,2-3.23,2-2.51,0-4.09-1.39-4.09-4.59V552.38h3.73v10.33c0,1.09.25,2.09,1.56,2.09,1,0,1.67-.5,1.67-1.84V552.38h3.73Z"/><path class="cls-3" d="M789.27,561.62c0,1.56.42,3.4,2.09,3.4,1,0,1.67-.61,1.95-1.95H797a6.36,6.36,0,0,1-2.28,4.42,5.79,5.79,0,0,1-3.37,1c-4.15,0-6.09-3.67-6.09-8.24s1.95-8.24,6.09-8.24a5,5,0,0,1,4.59,2.53c1.17,2,1.25,4.62,1.17,7Zm4.12-3.17c0-.95-.14-3.34-2-3.34-1.31,0-2.14,1.11-2.14,3.34Z"/><path class="cls-3" d="M806.85,557.06c-.06-1.17-.53-1.78-1.67-1.78a1.19,1.19,0,0,0-1.34,1.22c0,1.34,1.78,1.45,3.56,2a4.52,4.52,0,0,1,3.56,4.84c0,3-2.34,5.18-5.59,5.18-3,0-5.43-1.67-5.76-5.4h3.73a2,2,0,0,0,2.14,2,1.41,1.41,0,0,0,1.53-1.59c0-1.36-1.78-1.5-3.56-2.09s-3.56-1.67-3.56-4.82c0-2.64,1.84-4.59,5.4-4.59s5.06,1.95,5.29,5Z"/><path class="cls-3" d="M621.54,594.09c0,4.26-2.42,7.88-7.07,7.88-4.45,0-7.32-3.56-7.32-10.69,0-7,2.73-10.69,7.32-10.69s7.13,3.73,7.07,8.15h-3.45c-.08-3.28-1.14-4.93-3.37-4.93-2.59,0-4.09,2.42-4.09,7.54s1.75,7.38,4.09,7.38c2.59,0,3.26-2.37,3.37-4.65Z"/><path class="cls-3" d="M625.38,581h3v4.79c0,.61,0,1.17,0,1.81.45-1.14,1.42-1.89,3.31-1.89a3.92,3.92,0,0,1,3.17,1.31,5.41,5.41,0,0,1,1.06,3.67v10.91h-3v-10a3.62,3.62,0,0,0-.47-2.12,1.77,1.77,0,0,0-1.59-.75,2.17,2.17,0,0,0-1.78.72,3.11,3.11,0,0,0-.67,2.28v9.88h-3Z"/><path class="cls-3" d="M642.94,594.85c0,2.17.75,4.26,2.76,4.26a2.55,2.55,0,0,0,2.5-2.37h3a6.33,6.33,0,0,1-2.12,4.09,5.57,5.57,0,0,1-3.37,1.09c-4.15,0-6-3.79-6-8.1,0-4.62,2-8.13,6-8.13a4.93,4.93,0,0,1,4.4,2.37c1.2,1.95,1.31,4.45,1.25,6.79Zm5.37-2.59c0-1.78-.64-4.06-2.64-4.06-1.64,0-2.73,1.53-2.73,4.06Z"/><path class="cls-3" d="M655.26,586h2.87c0,.7,0,1.36,0,2.09a3.24,3.24,0,0,1,3.45-2.42,3.43,3.43,0,0,1,2.42.83,3,3,0,0,1,.78,1.31,3.44,3.44,0,0,1,1.11-1.39,4.93,4.93,0,0,1,2.67-.75,4.18,4.18,0,0,1,3.56,1.7,6.26,6.26,0,0,1,1,3.67v10.52h-3V591.51a3.8,3.8,0,0,0-.36-1.95,1.73,1.73,0,0,0-1.67-.86,2.1,2.1,0,0,0-1.75.67,3.08,3.08,0,0,0-.61,2.06v10.16h-3v-10a4,4,0,0,0-.36-2,1.69,1.69,0,0,0-1.64-.86,2.19,2.19,0,0,0-1.75.64,3.24,3.24,0,0,0-.61,2.12v10.13h-3Z"/><path class="cls-3" d="M678,581h3v3h-3Zm0,5h3v15.56h-3Z"/><path class="cls-3" d="M685.84,586h2.64c0,.64,0,1.25,0,1.92a3.64,3.64,0,0,1,3.7-2.25c2.56,0,4.2,1.42,4.2,4.81v11.08h-3v-10.1c0-1.25-.25-2.78-2.09-2.78-1.45,0-2.42.89-2.42,2.92v10h-3Z"/><path class="cls-3" d="M719.71,601.58H717c0-.92,0-1.59,0-2.25a3.41,3.41,0,0,1-3.42,2.59c-2.92,0-5-2.78-5-8.1,0-5.09,1.81-8.13,5-8.13a3.19,3.19,0,0,1,3.17,2.25c0-.61,0-1.22,0-1.92v-5h3Zm-8.18-7.77c0,3.48.95,5.09,2.62,5.09a2.12,2.12,0,0,0,1.92-1.06c.56-.78.64-1.75.64-4.06s-.08-3.28-.64-4a2.09,2.09,0,0,0-1.92-1.09c-1.67,0-2.62,1.64-2.62,5.12Z"/><path class="cls-3" d="M726.77,594.85c0,2.17.75,4.26,2.75,4.26a2.55,2.55,0,0,0,2.5-2.37h3a6.33,6.33,0,0,1-2.12,4.09,5.58,5.58,0,0,1-3.37,1.09c-4.15,0-6-3.79-6-8.1,0-4.62,2-8.13,6-8.13a4.93,4.93,0,0,1,4.4,2.37c1.2,1.95,1.31,4.45,1.25,6.79Zm5.37-2.59c0-1.78-.64-4.06-2.64-4.06-1.64,0-2.73,1.53-2.73,4.06Z"/><path class="cls-3" d="M745,590.42c0-1.48-.72-2.12-2-2.12a1.55,1.55,0,0,0-1.67,1.61c0,1.5,1.64,1.78,3.45,2.34s3.59,1.59,3.59,4.73a4.89,4.89,0,0,1-5.18,4.93c-2.92,0-5.12-1.64-5.37-5.15h3a2.32,2.32,0,0,0,2.42,2.42,1.82,1.82,0,0,0,1.95-2c0-1.56-1.62-1.92-3.48-2.53s-3.56-1.64-3.56-4.62c0-2.53,1.81-4.34,5-4.34s4.7,1.75,4.87,4.73Z"/><path class="cls-3" d="M760.72,581h3.4v17.45H770v3.15h-9.27Z"/><path class="cls-3" d="M773.77,581h3v3h-3Zm0,5h3v15.56h-3Z"/><path class="cls-3" d="M781.95,581h3v20.6h-3Z"/><path class="cls-3" d="M800.2,601.58h-2.76c0-.83,0-1.45,0-2a3.51,3.51,0,0,1-3.42,2.37c-2.92,0-5-2.78-5-8.1,0-5.09,1.81-8.13,5-8.13a3.4,3.4,0,0,1,3.42,2.45c0-.7,0-1.34,0-2.12h2.76ZM792,593.84c0,3.45.95,5.09,2.62,5.09a2.09,2.09,0,0,0,1.92-1.09c.56-.75.64-1.75.64-4s-.08-3.31-.64-4.06a2.12,2.12,0,0,0-1.92-1.06c-1.67,0-2.62,1.61-2.62,5.12Z"/><path class="cls-3" d="M810.72,590.42c0-1.48-.72-2.12-2-2.12a1.55,1.55,0,0,0-1.67,1.61c0,1.5,1.64,1.78,3.45,2.34s3.59,1.59,3.59,4.73a4.9,4.9,0,0,1-5.18,4.93c-2.92,0-5.12-1.64-5.37-5.15h3a2.32,2.32,0,0,0,2.42,2.42,1.82,1.82,0,0,0,1.95-2c0-1.56-1.61-1.92-3.48-2.53S803.9,593,803.9,590c0-2.53,1.81-4.34,5-4.34s4.7,1.75,4.87,4.73Z"/><path class="cls-3" d="M607.43,620.94c0-4.34,2.62-6.9,6.29-6.9s6.32,2.56,6.32,6.9v7.46c0,4.34-2.64,6.9-6.32,6.9s-6.29-2.56-6.29-6.9Zm3.2,7.26c0,2.87,1.53,4,3.09,4s3.12-1.14,3.12-4v-7.07c0-2.87-1.56-4-3.12-4s-3.09,1.14-3.09,4Z"/><path class="cls-3" d="M634.53,614.37l-4.43,6.37c-.33.5-.75,1-1,1.42a2.76,2.76,0,0,1,1.59-.47c3.17,0,5.68,2.73,5.68,6.57s-2.42,7-6.43,7a6.06,6.06,0,0,1-4.45-1.67,7.34,7.34,0,0,1-2-5.51c0-2.56,1-4.4,2.39-6.48l5-7.26ZM627,628.65c0,2.31,1.22,3.76,2.92,3.76s2.87-1.53,2.87-3.92-1.06-3.9-2.87-3.9-2.92,1.5-2.92,4Z"/><path class="cls-3" d="M643.83,635h-3V631.3h3Z"/><path class="cls-3" d="M648.44,620.94c0-4.34,2.62-6.9,6.29-6.9s6.32,2.56,6.32,6.9v7.46c0,4.34-2.64,6.9-6.32,6.9s-6.29-2.56-6.29-6.9Zm3.2,7.26c0,2.87,1.53,4,3.09,4s3.12-1.14,3.12-4v-7.07c0-2.87-1.56-4-3.12-4s-3.09,1.14-3.09,4Z"/><path class="cls-3" d="M669.73,617.38h-3.17v-3h6.37V635h-3.2Z"/><path class="cls-3" d="M684.84,635h-3V631.3h3Z"/><path class="cls-3" d="M689.46,620.94c0-4.34,2.62-6.9,6.29-6.9s6.32,2.56,6.32,6.9v7.46c0,4.34-2.64,6.9-6.32,6.9s-6.29-2.56-6.29-6.9Zm3.2,7.26c0,2.87,1.53,4,3.09,4s3.12-1.14,3.12-4v-7.07c0-2.87-1.56-4-3.12-4s-3.09,1.14-3.09,4Z"/><path class="cls-3" d="M705.73,631.66c2.37-2.45,4.15-4.43,5.54-5.93,2.34-2.42,3.09-3.62,3.09-5.34,0-2-1.2-3-2.59-3s-2.7.78-2.75,3.56h-3.4a7.29,7.29,0,0,1,1.84-5.26,5.89,5.89,0,0,1,4.37-1.67c3.54,0,6,2.64,6,6.4a7.92,7.92,0,0,1-1.92,5.21c-1.36,1.7-3.23,3.62-5.73,6.18h7.74V635H705.73Z"/><path class="cls-3" d="M725.85,635h-3V631.3h3Z"/><path class="cls-3" d="M730.47,620.94c0-4.34,2.62-6.9,6.29-6.9s6.32,2.56,6.32,6.9v7.46c0,4.34-2.64,6.9-6.32,6.9s-6.29-2.56-6.29-6.9Zm3.2,7.26c0,2.87,1.53,4,3.09,4s3.12-1.14,3.12-4v-7.07c0-2.87-1.56-4-3.12-4s-3.09,1.14-3.09,4Z"/><path class="cls-3" d="M747,619.86C747.08,616,749.5,614,753,614s5.65,2.12,5.65,5.29a4,4,0,0,1-2.75,4.2c2.73.83,3.59,3.17,3.59,5.48a6,6,0,0,1-6.37,6.29,6.3,6.3,0,0,1-5.68-2.92,7.45,7.45,0,0,1-1-3.7h3.48c0,2.25,1.28,3.51,3.15,3.51s2.89-1.31,2.89-3.34a3.34,3.34,0,0,0-3.67-3.56h-1.14v-3h.95c2,0,3.06-1,3.06-2.62a2.27,2.27,0,0,0-2.39-2.5c-1.56,0-2.23,1.2-2.25,2.7Z"/><path class="cls-3" d="M766.87,635h-3V631.3h3Z"/><path class="cls-3" d="M771.48,620.94c0-4.34,2.62-6.9,6.29-6.9s6.32,2.56,6.32,6.9v7.46c0,4.34-2.64,6.9-6.32,6.9s-6.29-2.56-6.29-6.9Zm3.2,7.26c0,2.87,1.53,4,3.09,4s3.12-1.14,3.12-4v-7.07c0-2.87-1.56-4-3.12-4s-3.09,1.14-3.09,4Z"/><path class="cls-3" d="M795,630.88h-7.6v-3l7.49-13.5h3.31v13.5h1.92v3h-1.92V635H795Zm0-3v-8.68l-4.59,8.68Z"/><path class="cls-3" d="M610,668.56c0,2.48-.56,5-3.17,5.46a5.31,5.31,0,0,1-.67.06v-1.81a1.94,1.94,0,0,0,.25-.06c1.45-.33,1.73-1.73,1.73-3.87V653.22H610Zm-1.87-20.79H610v2.75h-1.87Z"/><path class="cls-3" d="M625,668.36h-1.73c0-1.34,0-2.17,0-2.89a4.16,4.16,0,0,1-4,3.26c-3,0-5.07-3.17-5.07-7.9s1.89-8,5.07-8c1.7,0,3.2.86,4,3.28,0-.92,0-1.78,0-2.92H625Zm-8.91-7.54c0,3.42,1.22,6.07,3.54,6.07a3,3,0,0,0,2.64-1.67,8.45,8.45,0,0,0,.86-4.42,8.32,8.32,0,0,0-.86-4.43,3,3,0,0,0-2.64-1.67c-2.31,0-3.54,2.64-3.54,6.1Z"/><path class="cls-3" d="M639.74,663.21c-.33,3.09-2,5.51-5,5.51-4,0-5.84-3.79-5.84-7.9,0-5,2.34-8,5.76-8,3.12,0,4.87,2.39,5,5.59h-1.89c-.31-3-1.75-3.84-3.17-3.84a2.94,2.94,0,0,0-2.75,1.61,9,9,0,0,0-1,4.56c0,4,1.36,6.18,3.76,6.18,1.86,0,2.92-1.5,3.2-3.76Z"/><path class="cls-3" d="M653.23,674h-1.87v-5.59c0-1.34,0-2.12.06-2.84a4.07,4.07,0,0,1-3.9,3.2c-3.17,0-5.07-3.28-5.07-7.9,0-4.81,2.06-8,5.07-8,1.78,0,3.28,1,4,3.26,0-.92,0-1.75,0-2.89h1.78Zm-8.91-13.14c0,3.42,1.22,6.07,3.53,6.07a3,3,0,0,0,2.64-1.67,8.44,8.44,0,0,0,.86-4.42,8.31,8.31,0,0,0-.86-4.43,3,3,0,0,0-2.64-1.67c-2.31,0-3.53,2.64-3.53,6.1Z"/><path class="cls-3" d="M668.17,668.36h-1.73c0-.86,0-1.7.06-2.64a4.25,4.25,0,0,1-4.23,3c-2.59,0-4.34-1.5-4.34-5.18V653.22h1.87V663c0,1.53.22,3.92,2.89,3.92,2.2,0,3.62-1.53,3.62-4.7v-9h1.87Z"/><path class="cls-3" d="M674.15,661.35c0,3.14,1.28,5.62,3.84,5.62a3.44,3.44,0,0,0,3.4-3h1.84a6.06,6.06,0,0,1-1.89,3.56,5.06,5.06,0,0,1-3.34,1.2c-4.17,0-5.79-4-5.79-7.9,0-4.7,2.17-8,5.73-8A4.7,4.7,0,0,1,682,655c1.22,1.81,1.42,4.15,1.39,6.35Zm7.35-1.64c-.06-3.14-1.36-5.26-3.65-5.26s-3.65,2.25-3.7,5.26Z"/><path class="cls-3" d="M693.46,657.14c0-1.92-1-2.62-2.45-2.62a2.13,2.13,0,0,0-2.2,2.25c0,1.7,1.42,2.31,3.26,2.87,1.67.5,3.62,1.53,3.62,4.56a4.34,4.34,0,0,1-4.51,4.51c-2.76,0-4.59-1.64-4.73-4.81h1.84c0,2.06,1.22,3.09,2.89,3.09a2.43,2.43,0,0,0,2.56-2.64c0-1.84-1.28-2.56-3.31-3.2s-3.56-1.61-3.56-4.31a3.9,3.9,0,0,1,4.23-4c2.59,0,4.12,1.48,4.2,4.29Z"/><path class="cls-3" d="M702,668.36h-1.89v-3H702Z"/><path class="cls-3" d="M707.57,653.22h1.78c0,.78,0,1.59-.05,2.48a3.74,3.74,0,0,1,3.84-2.84,3.58,3.58,0,0,1,2.64,1,3.52,3.52,0,0,1,.83,1.81,4.14,4.14,0,0,1,1.25-1.92,4.63,4.63,0,0,1,2.78-.92,3.89,3.89,0,0,1,3.53,1.95,9.11,9.11,0,0,1,.7,4.15v9.41H723v-9.27a9.1,9.1,0,0,0-.31-2.81,2.32,2.32,0,0,0-2.31-1.59,2.77,2.77,0,0,0-2.45,1.22,5.93,5.93,0,0,0-.81,3.31v9.13h-1.86v-9.18a9.08,9.08,0,0,0-.31-2.89,2.29,2.29,0,0,0-2.28-1.59,2.86,2.86,0,0,0-2.45,1.17,6,6,0,0,0-.81,3.42v9.07h-1.87Z"/><path class="cls-3" d="M739.6,668.36h-1.73c0-1.34,0-2.17,0-2.89a4.16,4.16,0,0,1-4,3.26c-3,0-5.07-3.17-5.07-7.9s1.89-8,5.07-8c1.7,0,3.2.86,4,3.28,0-.92,0-1.78,0-2.92h1.73Zm-8.91-7.54c0,3.42,1.22,6.07,3.54,6.07a3,3,0,0,0,2.64-1.67,8.45,8.45,0,0,0,.86-4.42,8.32,8.32,0,0,0-.86-4.43,3,3,0,0,0-2.64-1.67c-2.31,0-3.54,2.64-3.54,6.1Z"/><path class="cls-3" d="M744.38,653.22h1.72c0,1.39,0,2.25-.05,3.17.75-3,2.7-3.48,4-3.54V655a1.26,1.26,0,0,0-.7-.19c-1.28,0-3.15,1.59-3.15,5.4v8.13h-1.86Z"/><path class="cls-3" d="M754.06,655h-2.12v-1.75h2.12v-4.79h1.86v4.79H758V655h-2.09v13.39h-1.86Z"/><path class="cls-3" d="M761.63,647.77h1.87v2.73h-1.87Zm0,5.46h1.87v15.14h-1.87Z"/><path class="cls-3" d="M768.51,653.22h1.67c0,.86,0,1.64-.05,2.59a4.32,4.32,0,0,1,4.29-3c2.59,0,4.34,1.5,4.34,5.18v10.33h-1.86v-9.74c0-1.53-.22-3.92-2.89-3.92-2.2,0-3.62,1.53-3.62,4.7v9h-1.87Z"/><path class="cls-3" d="M785.17,668.36,789.6,662c.36-.56.86-1.09,1.25-1.64a4,4,0,0,1-2.48.83c-3,0-5.57-2.5-5.57-6.65s2.42-7.15,6.07-7.15a5.44,5.44,0,0,1,4.31,1.95,7.45,7.45,0,0,1,1.7,5.09,10.73,10.73,0,0,1-2.25,6.4l-5.18,7.51Zm7.54-14.25c0-3.12-1.75-4.9-3.9-4.9-2.37,0-3.87,2-3.87,5.23,0,2.92,1.42,5,3.87,5s3.9-1.92,3.9-5.26Z"/><path class="cls-3" d="M809.52,647.77v1.78H802.4l-.83,6.35a4.12,4.12,0,0,1,3.51-1.56c3.23,0,5.46,3,5.46,7,0,4.37-2.17,7.38-6,7.38-3.15,0-5.65-2.14-6-6.4h2.06c.25,2.76,1.95,4.48,4,4.48,2.56,0,3.84-2.14,3.84-5.29s-1.61-5.26-3.73-5.26a3.78,3.78,0,0,0-3.34,2.17l-1.89-.14,1.17-10.52Z"/><path class="cls-3" d="M832,663.6a9.09,9.09,0,0,1-8.13,5.12c-5.65,0-9.83-4.56-9.83-10.55s4.23-10.77,9.85-10.77a8.65,8.65,0,0,1,8.88,8.68c0,5.87-4.54,7.93-6.21,7.93a1.77,1.77,0,0,1-1.87-1.84A3.58,3.58,0,0,1,821.6,664c-1.28,0-3.23-1.09-3.23-4.17,0-3.67,2.39-7.35,5.34-7.35a3,3,0,0,1,2.89,2l.42-1.64h1.42l-1.95,7.29a6.44,6.44,0,0,0-.25,1.25.93.93,0,0,0,1,1.09c1.53,0,4.12-1.95,4.12-6a7.21,7.21,0,0,0-7.51-7.6c-4.56,0-8.27,3.81-8.27,9.35s3.62,9.13,8.24,9.13a7.27,7.27,0,0,0,6.62-3.7Zm-11.94-4c0,1.95,1,2.64,1.95,2.64,2,0,3-1.92,3.28-3.06a11.66,11.66,0,0,0,.75-2.78,2.25,2.25,0,0,0-2.17-2.42c-1.81,0-3.81,2.56-3.81,5.59Z"/><path class="cls-3" d="M846.81,668.08a6.64,6.64,0,0,1-1.28,4.54,5.05,5.05,0,0,1-4.06,1.67,4.94,4.94,0,0,1-5.09-4.76h1.89a3.28,3.28,0,0,0,.86,2.12,3.35,3.35,0,0,0,2.42.92c1.59,0,3.42-.72,3.42-4.34,0-.72,0-1.7,0-2.7a3.94,3.94,0,0,1-3.9,3.2c-3.26,0-5.07-3.28-5.07-7.9s1.81-8,5.07-8c1.78,0,3.17.83,4.09,3.28,0-.92,0-1.78,0-2.92h1.64Zm-8.91-7.26c0,3.42,1.22,6.07,3.54,6.07a3,3,0,0,0,2.64-1.67,8.45,8.45,0,0,0,.86-4.42,8.32,8.32,0,0,0-.86-4.43,3,3,0,0,0-2.64-1.67c-2.31,0-3.54,2.64-3.54,6.1Z"/><path class="cls-3" d="M851.65,653.22h1.78c0,.78,0,1.59-.06,2.48a3.75,3.75,0,0,1,3.84-2.84,3.58,3.58,0,0,1,2.64,1,3.52,3.52,0,0,1,.84,1.81,4.13,4.13,0,0,1,1.25-1.92,4.63,4.63,0,0,1,2.78-.92,3.9,3.9,0,0,1,3.54,1.95A9.11,9.11,0,0,1,869,659v9.41h-1.87v-9.27a9.11,9.11,0,0,0-.31-2.81,2.32,2.32,0,0,0-2.31-1.59,2.77,2.77,0,0,0-2.45,1.22,5.92,5.92,0,0,0-.81,3.31v9.13h-1.86v-9.18a9.05,9.05,0,0,0-.31-2.89,2.29,2.29,0,0,0-2.28-1.59,2.86,2.86,0,0,0-2.45,1.17,6,6,0,0,0-.81,3.42v9.07h-1.86Z"/><path class="cls-3" d="M883.67,668.36h-1.73c0-1.34,0-2.17,0-2.89a4.16,4.16,0,0,1-4,3.26c-3,0-5.07-3.17-5.07-7.9s1.89-8,5.07-8c1.7,0,3.2.86,4,3.28,0-.92,0-1.78,0-2.92h1.73Zm-8.91-7.54c0,3.42,1.22,6.07,3.54,6.07a3,3,0,0,0,2.64-1.67,8.45,8.45,0,0,0,.86-4.42,8.32,8.32,0,0,0-.86-4.43,3,3,0,0,0-2.64-1.67c-2.31,0-3.54,2.64-3.54,6.1Z"/><path class="cls-3" d="M888.68,647.77h1.86v2.73h-1.86Zm0,5.46h1.86v15.14h-1.86Z"/><path class="cls-3" d="M895.77,647.77h1.86v20.6h-1.86Z"/><path class="cls-3" d="M905.35,668.36h-1.89v-3h1.89Z"/><path class="cls-3" d="M920.87,663.21c-.33,3.09-2,5.51-5,5.51-4,0-5.84-3.79-5.84-7.9,0-5,2.34-8,5.76-8,3.12,0,4.87,2.39,5,5.59H918.9c-.31-3-1.75-3.84-3.17-3.84a2.94,2.94,0,0,0-2.76,1.61,9,9,0,0,0-1,4.56c0,4,1.36,6.18,3.76,6.18,1.87,0,2.92-1.5,3.2-3.76Z"/><path class="cls-3" d="M923.6,660.76c0-4.31,1.78-7.9,5.84-7.9s5.82,3.59,5.82,7.93-1.78,7.93-5.82,7.93-5.84-3.59-5.84-7.93Zm1.95.06c0,4,1.31,6.15,3.92,6.15s3.84-2.14,3.84-6.18-1.31-6.18-3.9-6.18-3.87,2.14-3.87,6.18Z"/><path class="cls-3" d="M939.29,653.22h1.78c0,.78,0,1.59-.06,2.48a3.75,3.75,0,0,1,3.84-2.84,3.59,3.59,0,0,1,2.64,1,3.53,3.53,0,0,1,.83,1.81,4.14,4.14,0,0,1,1.25-1.92,4.63,4.63,0,0,1,2.78-.92,3.89,3.89,0,0,1,3.53,1.95,9.11,9.11,0,0,1,.7,4.15v9.41h-1.86v-9.27a9.13,9.13,0,0,0-.31-2.81,2.32,2.32,0,0,0-2.31-1.59,2.77,2.77,0,0,0-2.45,1.22,5.93,5.93,0,0,0-.81,3.31v9.13H947v-9.18a9.06,9.06,0,0,0-.31-2.89,2.29,2.29,0,0,0-2.28-1.59,2.86,2.86,0,0,0-2.45,1.17,6,6,0,0,0-.81,3.42v9.07h-1.87Z"/><path class="cls-3" d="M1140.41,568.19V547.6h6.15l2.84,13.28,2.84-13.28h6.15v20.6h-3.73v-16l-3.73,16h-3.06l-3.73-16v16Z"/><path class="cls-3" d="M1165.67,568.19h-4.29l5.62-20.6h3.9l5.84,20.6h-4.29l-1.06-3.92h-4.73Zm3.34-14.56-1.31,6.74h2.62Z"/><path class="cls-3" d="M1179.67,547.6H1185c2.92,0,4.79.75,5.68,1.81a7.07,7.07,0,0,1,1.67,4.76,7.59,7.59,0,0,1-.61,3.12,5.54,5.54,0,0,1-2.42,2.7l3.9,8.21h-4.73L1184,557.73c.47,0,.72,0,1.06,0a3.27,3.27,0,0,0,2.09-.78,3.2,3.2,0,0,0,.92-2.37,3,3,0,0,0-1-2.5,3.23,3.23,0,0,0-2.17-.56h-1v16.7h-4.23Z"/><path class="cls-3" d="M1198,551.49h-3.45v-3.9h11.13v3.9h-3.45v16.7H1198Z"/><path class="cls-3" d="M1209.16,547.6h4.23v20.6h-4.23Z"/><path class="cls-3" d="M1227.67,559.7V547.6h3.73v20.6h-3.79L1221.82,555v13.19h-3.73V547.6h4.29Z"/><path class="cls-3" d="M1255.19,562.9a6.4,6.4,0,0,1-.5,2.64,4.83,4.83,0,0,1-2.37,2.39,7.07,7.07,0,0,1-3.06.64c-3.51,0-5.93-1.95-5.93-5.68v-1.17h4.23v.39c0,2.06.47,2.56,1.7,2.56a1.5,1.5,0,0,0,1.31-.5,3.65,3.65,0,0,0,.39-2.06V547.6h4.23Z"/><path class="cls-3" d="M1270.41,568.19H1267v-1.5a3.12,3.12,0,0,1-3.06,1.84c-2.84,0-5-2.56-5-8.24,0-5.34,1.75-8.24,5-8.24A3,3,0,0,1,1267,554v-1.61h3.4Zm-7.71-7.88c0,3.48.78,4.48,2,4.48a1.63,1.63,0,0,0,1.48-.7c.47-.58.47-1.34.47-3.81s0-3.23-.47-3.81a1.63,1.63,0,0,0-1.48-.7c-1.25,0-2,1-2,4.51Z"/><path class="cls-3" d="M1285,562.18c0,3.23-1.61,6.35-5.09,6.35-3.76,0-6.12-3-6.12-8.24s2.37-8.24,6.12-8.24c3.48,0,5.09,3.06,5.09,6.35h-3.9c0-1.89-.5-2.84-1.47-2.84a1.42,1.42,0,0,0-1.39,1,9.6,9.6,0,0,0-.5,3.73c0,3.62.7,4.73,1.89,4.73s1.47-1.28,1.47-2.84Z"/><path class="cls-3" d="M1298.9,573.2h-3.73v-5c0-.45,0-.89,0-1.36a2.77,2.77,0,0,1-2.75,1.7c-3.23,0-5-2.89-5-8.24,0-5.68,2.14-8.24,5-8.24,1.47,0,2.75.81,2.95,1.84v-1.5h3.51Zm-7.71-12.89c0,3.48.78,4.48,2,4.48a1.63,1.63,0,0,0,1.47-.7c.47-.58.47-1.34.47-3.81s0-3.23-.47-3.81a1.63,1.63,0,0,0-1.47-.7c-1.25,0-2,1-2,4.51Z"/><path class="cls-3" d="M1313.93,568.19h-3.37v-1.67c-.47,1.28-1.28,2-3.23,2-2.51,0-4.09-1.39-4.09-4.59V552.38H1307v10.33c0,1.09.25,2.09,1.56,2.09,1,0,1.67-.5,1.67-1.84V552.38h3.73Z"/><path class="cls-3" d="M1321.66,561.62c0,1.56.42,3.4,2.09,3.4,1,0,1.67-.61,1.95-1.95h3.7a6.36,6.36,0,0,1-2.28,4.42,5.79,5.79,0,0,1-3.37,1c-4.15,0-6.09-3.67-6.09-8.24s1.95-8.24,6.09-8.24a5,5,0,0,1,4.59,2.53c1.17,2,1.25,4.62,1.17,7Zm4.12-3.17c0-.95-.14-3.34-2-3.34-1.31,0-2.14,1.11-2.14,3.34Z"/><path class="cls-3" d="M1339.25,557.06c-.06-1.17-.53-1.78-1.67-1.78a1.19,1.19,0,0,0-1.34,1.22c0,1.34,1.78,1.45,3.56,2a4.52,4.52,0,0,1,3.56,4.84c0,3-2.34,5.18-5.59,5.18-3,0-5.43-1.67-5.76-5.4h3.73a2,2,0,0,0,2.14,2,1.41,1.41,0,0,0,1.53-1.59c0-1.36-1.78-1.5-3.56-2.09s-3.56-1.67-3.56-4.82c0-2.64,1.84-4.59,5.4-4.59s5.06,1.95,5.29,5Z"/><path class="cls-3" d="M1153.93,594.09c0,4.26-2.42,7.88-7.07,7.88-4.45,0-7.32-3.56-7.32-10.69,0-7,2.73-10.69,7.32-10.69s7.13,3.73,7.07,8.15h-3.45c-.08-3.28-1.14-4.93-3.37-4.93-2.59,0-4.09,2.42-4.09,7.54s1.75,7.38,4.09,7.38c2.59,0,3.26-2.37,3.37-4.65Z"/><path class="cls-3" d="M1157.77,581h3v4.79c0,.61,0,1.17,0,1.81.45-1.14,1.42-1.89,3.31-1.89a3.92,3.92,0,0,1,3.17,1.31,5.41,5.41,0,0,1,1.06,3.67v10.91h-3v-10a3.62,3.62,0,0,0-.47-2.12,1.77,1.77,0,0,0-1.59-.75,2.17,2.17,0,0,0-1.78.72,3.11,3.11,0,0,0-.67,2.28v9.88h-3Z"/><path class="cls-3" d="M1175.33,594.85c0,2.17.75,4.26,2.76,4.26a2.55,2.55,0,0,0,2.5-2.37h3a6.33,6.33,0,0,1-2.12,4.09,5.57,5.57,0,0,1-3.37,1.09c-4.15,0-6-3.79-6-8.1,0-4.62,2-8.13,6-8.13a4.93,4.93,0,0,1,4.4,2.37c1.2,1.95,1.31,4.45,1.25,6.79Zm5.37-2.59c0-1.78-.64-4.06-2.64-4.06-1.64,0-2.73,1.53-2.73,4.06Z"/><path class="cls-3" d="M1187.65,586h2.87c0,.7,0,1.36,0,2.09a3.24,3.24,0,0,1,3.45-2.42,3.43,3.43,0,0,1,2.42.83,3,3,0,0,1,.78,1.31,3.44,3.44,0,0,1,1.11-1.39,4.93,4.93,0,0,1,2.67-.75,4.18,4.18,0,0,1,3.56,1.7,6.26,6.26,0,0,1,1,3.67v10.52h-3V591.51a3.8,3.8,0,0,0-.36-1.95,1.73,1.73,0,0,0-1.67-.86,2.1,2.1,0,0,0-1.75.67,3.08,3.08,0,0,0-.61,2.06v10.16h-3v-10a4,4,0,0,0-.36-2,1.69,1.69,0,0,0-1.64-.86,2.19,2.19,0,0,0-1.75.64,3.24,3.24,0,0,0-.61,2.12v10.13h-3Z"/><path class="cls-3" d="M1210.39,581h3v3h-3Zm0,5h3v15.56h-3Z"/><path class="cls-3" d="M1218.23,586h2.64c0,.64,0,1.25,0,1.92a3.64,3.64,0,0,1,3.7-2.25c2.56,0,4.2,1.42,4.2,4.81v11.08h-3v-10.1c0-1.25-.25-2.78-2.09-2.78-1.45,0-2.42.89-2.42,2.92v10h-3Z"/><path class="cls-3" d="M1252.1,601.58h-2.75c0-.92,0-1.59,0-2.25a3.41,3.41,0,0,1-3.42,2.59c-2.92,0-5-2.78-5-8.1,0-5.09,1.81-8.13,5-8.13a3.19,3.19,0,0,1,3.17,2.25c0-.61,0-1.22,0-1.92v-5h3Zm-8.18-7.77c0,3.48.95,5.09,2.62,5.09a2.12,2.12,0,0,0,1.92-1.06c.56-.78.64-1.75.64-4.06s-.08-3.28-.64-4a2.09,2.09,0,0,0-1.92-1.09c-1.67,0-2.62,1.64-2.62,5.12Z"/><path class="cls-3" d="M1259.16,594.85c0,2.17.75,4.26,2.75,4.26a2.55,2.55,0,0,0,2.5-2.37h3a6.33,6.33,0,0,1-2.12,4.09,5.58,5.58,0,0,1-3.37,1.09c-4.15,0-6-3.79-6-8.1,0-4.62,2-8.13,6-8.13a4.93,4.93,0,0,1,4.4,2.37c1.2,1.95,1.31,4.45,1.25,6.79Zm5.37-2.59c0-1.78-.64-4.06-2.64-4.06-1.64,0-2.73,1.53-2.73,4.06Z"/><path class="cls-3" d="M1277.39,590.42c0-1.48-.72-2.12-2-2.12a1.55,1.55,0,0,0-1.67,1.61c0,1.5,1.64,1.78,3.45,2.34s3.59,1.59,3.59,4.73a4.89,4.89,0,0,1-5.18,4.93c-2.92,0-5.12-1.64-5.37-5.15h3a2.32,2.32,0,0,0,2.42,2.42,1.82,1.82,0,0,0,1.95-2c0-1.56-1.62-1.92-3.48-2.53s-3.56-1.64-3.56-4.62c0-2.53,1.81-4.34,5-4.34s4.7,1.75,4.87,4.73Z"/><path class="cls-3" d="M1293.11,581h3.4v17.45h5.87v3.15h-9.27Z"/><path class="cls-3" d="M1306.16,581h3v3h-3Zm0,5h3v15.56h-3Z"/><path class="cls-3" d="M1314.34,581h3v20.6h-3Z"/><path class="cls-3" d="M1332.6,601.58h-2.76c0-.83,0-1.45,0-2a3.51,3.51,0,0,1-3.42,2.37c-2.92,0-5-2.78-5-8.1,0-5.09,1.81-8.13,5-8.13a3.4,3.4,0,0,1,3.42,2.45c0-.7,0-1.34,0-2.12h2.76Zm-8.18-7.74c0,3.45.95,5.09,2.62,5.09a2.09,2.09,0,0,0,1.92-1.09c.56-.75.64-1.75.64-4s-.08-3.31-.64-4.06a2.12,2.12,0,0,0-1.92-1.06c-1.67,0-2.62,1.61-2.62,5.12Z"/><path class="cls-3" d="M1343.11,590.42c0-1.48-.72-2.12-2-2.12a1.55,1.55,0,0,0-1.67,1.61c0,1.5,1.64,1.78,3.45,2.34s3.59,1.59,3.59,4.73a4.9,4.9,0,0,1-5.18,4.93c-2.92,0-5.12-1.64-5.37-5.15h3a2.32,2.32,0,0,0,2.42,2.42,1.82,1.82,0,0,0,1.95-2c0-1.56-1.61-1.92-3.48-2.53s-3.56-1.64-3.56-4.62c0-2.53,1.81-4.34,5-4.34s4.7,1.75,4.87,4.73Z"/><path class="cls-3" d="M1139.82,620.94c0-4.34,2.62-6.9,6.29-6.9s6.32,2.56,6.32,6.9v7.46c0,4.34-2.64,6.9-6.32,6.9s-6.29-2.56-6.29-6.9Zm3.2,7.26c0,2.87,1.53,4,3.09,4s3.12-1.14,3.12-4v-7.07c0-2.87-1.56-4-3.12-4s-3.09,1.14-3.09,4Z"/><path class="cls-3" d="M1166.93,614.37l-4.43,6.37c-.33.5-.75,1-1,1.42a2.76,2.76,0,0,1,1.59-.47c3.17,0,5.68,2.73,5.68,6.57s-2.42,7-6.43,7a6.06,6.06,0,0,1-4.45-1.67,7.34,7.34,0,0,1-2-5.51c0-2.56,1-4.4,2.39-6.48l5-7.26Zm-7.52,14.28c0,2.31,1.22,3.76,2.92,3.76s2.87-1.53,2.87-3.92-1.06-3.9-2.87-3.9-2.92,1.5-2.92,4Z"/><path class="cls-3" d="M1176.22,635h-3V631.3h3Z"/><path class="cls-3" d="M1180.84,620.94c0-4.34,2.62-6.9,6.29-6.9s6.32,2.56,6.32,6.9v7.46c0,4.34-2.64,6.9-6.32,6.9s-6.29-2.56-6.29-6.9Zm3.2,7.26c0,2.87,1.53,4,3.09,4s3.12-1.14,3.12-4v-7.07c0-2.87-1.56-4-3.12-4s-3.09,1.14-3.09,4Z"/><path class="cls-3" d="M1202.12,617.38H1199v-3h6.37V635h-3.2Z"/><path class="cls-3" d="M1217.23,635h-3V631.3h3Z"/><path class="cls-3" d="M1221.85,620.94c0-4.34,2.62-6.9,6.29-6.9s6.32,2.56,6.32,6.9v7.46c0,4.34-2.64,6.9-6.32,6.9s-6.29-2.56-6.29-6.9Zm3.2,7.26c0,2.87,1.53,4,3.09,4s3.12-1.14,3.12-4v-7.07c0-2.87-1.56-4-3.12-4s-3.09,1.14-3.09,4Z"/><path class="cls-3" d="M1238.13,631.66c2.37-2.45,4.15-4.43,5.54-5.93,2.34-2.42,3.09-3.62,3.09-5.34,0-2-1.2-3-2.59-3s-2.7.78-2.75,3.56H1238a7.29,7.29,0,0,1,1.84-5.26,5.89,5.89,0,0,1,4.37-1.67c3.54,0,6,2.64,6,6.4a7.92,7.92,0,0,1-1.92,5.21c-1.36,1.7-3.23,3.62-5.73,6.18h7.74V635h-12.19Z"/><path class="cls-3" d="M1258.25,635h-3V631.3h3Z"/><path class="cls-3" d="M1262.86,620.94c0-4.34,2.62-6.9,6.29-6.9s6.32,2.56,6.32,6.9v7.46c0,4.34-2.64,6.9-6.32,6.9s-6.29-2.56-6.29-6.9Zm3.2,7.26c0,2.87,1.53,4,3.09,4s3.12-1.14,3.12-4v-7.07c0-2.87-1.56-4-3.12-4s-3.09,1.14-3.09,4Z"/><path class="cls-3" d="M1279.42,619.86c.06-3.81,2.48-5.82,5.93-5.82s5.65,2.12,5.65,5.29a4,4,0,0,1-2.75,4.2c2.73.83,3.59,3.17,3.59,5.48a6,6,0,0,1-6.37,6.29,6.3,6.3,0,0,1-5.68-2.92,7.45,7.45,0,0,1-1-3.7h3.48c0,2.25,1.28,3.51,3.15,3.51s2.89-1.31,2.89-3.34a3.34,3.34,0,0,0-3.67-3.56h-1.14v-3h.95c2,0,3.06-1,3.06-2.62a2.27,2.27,0,0,0-2.39-2.5c-1.56,0-2.23,1.2-2.25,2.7Z"/><path class="cls-3" d="M1299.26,635h-3V631.3h3Z"/><path class="cls-3" d="M1303.88,620.94c0-4.34,2.62-6.9,6.29-6.9s6.32,2.56,6.32,6.9v7.46c0,4.34-2.64,6.9-6.32,6.9s-6.29-2.56-6.29-6.9Zm3.2,7.26c0,2.87,1.53,4,3.09,4s3.12-1.14,3.12-4v-7.07c0-2.87-1.56-4-3.12-4s-3.09,1.14-3.09,4Z"/><path class="cls-3" d="M1327.42,630.88h-7.6v-3l7.49-13.5h3.31v13.5h1.92v3h-1.92V635h-3.2Zm0-3v-8.68l-4.59,8.68Z"/><path class="cls-3" d="M1140.63,647.77h1.86v20.6h-1.86Z"/><path class="cls-3" d="M1148.7,661.35c0,3.14,1.28,5.62,3.84,5.62a3.44,3.44,0,0,0,3.39-3h1.84a6.07,6.07,0,0,1-1.89,3.56,5.06,5.06,0,0,1-3.34,1.2c-4.18,0-5.79-4-5.79-7.9,0-4.7,2.17-8,5.73-8a4.7,4.7,0,0,1,4.06,2.14c1.22,1.81,1.42,4.15,1.39,6.35Zm7.35-1.64c-.05-3.14-1.36-5.26-3.65-5.26s-3.65,2.25-3.7,5.26Z"/><path class="cls-3" d="M1162.31,655h-1.7v-1.75h1.7v-1.14c0-4.54,3.59-4.68,4.51-4.68V649c-1.39.08-2.64.75-2.64,3.2v1h2.64V655h-2.64v13.39h-1.86Z"/><path class="cls-3" d="M1179.36,668.36h-1.73c0-1.34,0-2.17,0-2.89a4.16,4.16,0,0,1-4,3.26c-3,0-5.07-3.17-5.07-7.9s1.89-8,5.07-8c1.7,0,3.2.86,4,3.28,0-.92,0-1.78,0-2.92h1.73Zm-8.91-7.54c0,3.42,1.22,6.07,3.54,6.07a3,3,0,0,0,2.64-1.67,8.45,8.45,0,0,0,.86-4.42,8.32,8.32,0,0,0-.86-4.43,3,3,0,0,0-2.64-1.67c-2.31,0-3.54,2.64-3.54,6.1Z"/><path class="cls-3" d="M1190.24,657.14c0-1.92-1-2.62-2.45-2.62a2.13,2.13,0,0,0-2.2,2.25c0,1.7,1.42,2.31,3.26,2.87,1.67.5,3.62,1.53,3.62,4.56a4.34,4.34,0,0,1-4.51,4.51c-2.75,0-4.59-1.64-4.73-4.81h1.84c0,2.06,1.22,3.09,2.89,3.09a2.43,2.43,0,0,0,2.56-2.64c0-1.84-1.28-2.56-3.31-3.2s-3.56-1.61-3.56-4.31a3.9,3.9,0,0,1,4.23-4c2.59,0,4.12,1.48,4.2,4.29Z"/><path class="cls-3" d="M1196.47,647.77h1.87v5.34c0,.81,0,1.59-.06,2.5a3.93,3.93,0,0,1,4.06-2.76,4.08,4.08,0,0,1,3.26,1.36c.83.95,1.11,2.28,1.11,4.17v10h-1.87V659a5.5,5.5,0,0,0-.7-3.28,2.63,2.63,0,0,0-2.2-1,3.12,3.12,0,0,0-2.67,1.22c-.64.83-.95,1.78-.95,3.84v8.6h-1.87Z"/><path class="cls-3" d="M1211.64,647.77h1.87v2.73h-1.87Zm0,5.46h1.87v15.14h-1.87Z"/><path class="cls-3" d="M1217.7,660.76c0-4.31,1.78-7.9,5.84-7.9s5.82,3.59,5.82,7.93-1.78,7.93-5.82,7.93-5.84-3.59-5.84-7.93Zm1.95.06c0,4,1.31,6.15,3.92,6.15s3.84-2.14,3.84-6.18-1.31-6.18-3.9-6.18-3.87,2.14-3.87,6.18Z"/><path class="cls-3" d="M1233.34,653.22H1235c0,.86,0,1.64-.05,2.59a4.32,4.32,0,0,1,4.29-3c2.59,0,4.34,1.5,4.34,5.18v10.33h-1.86v-9.74c0-1.53-.22-3.92-2.89-3.92-2.2,0-3.62,1.53-3.62,4.7v9h-1.87Z"/><path class="cls-3" d="M1256.47,662.68a9.31,9.31,0,0,1-.45,3.12,4.83,4.83,0,0,1-4.45,2.92,4.72,4.72,0,0,1-4.93-4.42,7.24,7.24,0,0,1-.06-.81h2l.08.42c.45,2.5,1.89,2.92,3,2.92a2.67,2.67,0,0,0,2.34-1.73,6.85,6.85,0,0,0,.39-2.7V647.77h2.09Z"/><path class="cls-3" d="M1261.08,668.36h-2.14l5.87-20.6h2.06l6,20.6h-2.12l-1.75-6.1h-6.18Zm4.79-17.9-2.53,9.91h5.06Z"/><path class="cls-3" d="M1287.88,661.65c0,3.56-2.09,7.07-6.43,7.07s-7.15-3.7-7.15-10.66c0-6.51,2.42-10.66,7.15-10.66,4.34,0,6.46,3.62,6.43,7.51h-2.06c-.05-2.7-1.11-5.57-4.26-5.57-3.59,0-5.12,3.48-5.12,8.91,0,5.84,2.17,8.52,5.12,8.52,3.17,0,4.15-2.64,4.26-5.12Z"/><path class="cls-3" d="M1291.66,647.77h2.09v10l6.46-10h2.37L1295.81,658l7.29,10.41h-2.48l-6.87-9.94v9.94h-2.09Z"/><path class="cls-3" d="M1322.94,663.6a9.09,9.09,0,0,1-8.13,5.12c-5.65,0-9.83-4.56-9.83-10.55s4.23-10.77,9.85-10.77a8.65,8.65,0,0,1,8.88,8.68c0,5.87-4.54,7.93-6.21,7.93a1.77,1.77,0,0,1-1.87-1.84,3.58,3.58,0,0,1-3.06,1.78c-1.28,0-3.23-1.09-3.23-4.17,0-3.67,2.39-7.35,5.34-7.35a3,3,0,0,1,2.89,2l.42-1.64h1.42l-1.95,7.29a6.44,6.44,0,0,0-.25,1.25.94.94,0,0,0,1,1.09c1.53,0,4.12-1.95,4.12-6a7.21,7.21,0,0,0-7.51-7.6c-4.56,0-8.27,3.81-8.27,9.35s3.62,9.13,8.24,9.13a7.27,7.27,0,0,0,6.62-3.7Zm-11.94-4c0,1.95,1,2.64,1.95,2.64,2,0,2.95-1.92,3.28-3.06a11.61,11.61,0,0,0,.75-2.78,2.25,2.25,0,0,0-2.17-2.42c-1.81,0-3.81,2.56-3.81,5.59Z"/><path class="cls-3" d="M1337.8,668.08a6.63,6.63,0,0,1-1.28,4.54,5,5,0,0,1-4.06,1.67,4.94,4.94,0,0,1-5.09-4.76h1.89a3.28,3.28,0,0,0,.86,2.12,3.35,3.35,0,0,0,2.42.92c1.59,0,3.42-.72,3.42-4.34,0-.72,0-1.7,0-2.7a3.94,3.94,0,0,1-3.9,3.2c-3.26,0-5.07-3.28-5.07-7.9s1.81-8,5.07-8c1.78,0,3.17.83,4.09,3.28,0-.92,0-1.78,0-2.92h1.64Zm-8.91-7.26c0,3.42,1.22,6.07,3.53,6.07a3,3,0,0,0,2.64-1.67,8.44,8.44,0,0,0,.86-4.42,8.31,8.31,0,0,0-.86-4.43,3,3,0,0,0-2.64-1.67c-2.31,0-3.53,2.64-3.53,6.1Z"/><path class="cls-3" d="M1342.64,653.22h1.78c0,.78,0,1.59-.06,2.48a3.75,3.75,0,0,1,3.84-2.84,3.59,3.59,0,0,1,2.64,1,3.53,3.53,0,0,1,.83,1.81,4.14,4.14,0,0,1,1.25-1.92,4.63,4.63,0,0,1,2.78-.92,3.89,3.89,0,0,1,3.53,1.95,9.11,9.11,0,0,1,.7,4.15v9.41h-1.86v-9.27a9.13,9.13,0,0,0-.31-2.81,2.32,2.32,0,0,0-2.31-1.59,2.77,2.77,0,0,0-2.45,1.22,5.93,5.93,0,0,0-.81,3.31v9.13h-1.87v-9.18a9.06,9.06,0,0,0-.31-2.89,2.29,2.29,0,0,0-2.28-1.59,2.86,2.86,0,0,0-2.45,1.17,6,6,0,0,0-.81,3.42v9.07h-1.87Z"/><path class="cls-3" d="M1374.67,668.36h-1.73c0-1.34,0-2.17,0-2.89a4.16,4.16,0,0,1-4,3.26c-3,0-5.07-3.17-5.07-7.9s1.89-8,5.07-8c1.7,0,3.2.86,4,3.28,0-.92,0-1.78,0-2.92h1.73Zm-8.91-7.54c0,3.42,1.22,6.07,3.53,6.07a3,3,0,0,0,2.64-1.67,8.44,8.44,0,0,0,.86-4.42,8.31,8.31,0,0,0-.86-4.43,3,3,0,0,0-2.64-1.67c-2.31,0-3.53,2.64-3.53,6.1Z"/><path class="cls-3" d="M1379.67,647.77h1.86v2.73h-1.86Zm0,5.46h1.86v15.14h-1.86Z"/><path class="cls-3" d="M1386.77,647.77h1.86v20.6h-1.86Z"/><path class="cls-3" d="M1396.34,668.36h-1.89v-3h1.89Z"/><path class="cls-3" d="M1411.87,663.21c-.33,3.09-2,5.51-5,5.51-4,0-5.85-3.79-5.85-7.9,0-5,2.34-8,5.76-8,3.12,0,4.87,2.39,5,5.59h-1.89c-.31-3-1.75-3.84-3.17-3.84a2.94,2.94,0,0,0-2.75,1.61,9,9,0,0,0-1,4.56c0,4,1.36,6.18,3.76,6.18,1.86,0,2.92-1.5,3.2-3.76Z"/><path class="cls-3" d="M1414.59,660.76c0-4.31,1.78-7.9,5.84-7.9s5.82,3.59,5.82,7.93-1.78,7.93-5.82,7.93-5.84-3.59-5.84-7.93Zm1.95.06c0,4,1.31,6.15,3.92,6.15s3.84-2.14,3.84-6.18-1.31-6.18-3.9-6.18-3.87,2.14-3.87,6.18Z"/><path class="cls-3" d="M1430.28,653.22h1.78c0,.78,0,1.59-.06,2.48a3.75,3.75,0,0,1,3.84-2.84,3.58,3.58,0,0,1,2.64,1,3.52,3.52,0,0,1,.84,1.81,4.13,4.13,0,0,1,1.25-1.92,4.63,4.63,0,0,1,2.78-.92,3.9,3.9,0,0,1,3.54,1.95,9.11,9.11,0,0,1,.7,4.15v9.41h-1.87v-9.27a9.11,9.11,0,0,0-.31-2.81,2.32,2.32,0,0,0-2.31-1.59,2.77,2.77,0,0,0-2.45,1.22,5.92,5.92,0,0,0-.81,3.31v9.13H1438v-9.18a9.05,9.05,0,0,0-.31-2.89,2.29,2.29,0,0,0-2.28-1.59,2.86,2.86,0,0,0-2.45,1.17,6,6,0,0,0-.81,3.42v9.07h-1.86Z"/></g><g id="etapes_jeu2" data-name="etapes jeu2"><line class="cls-4" x1="555.81" y1="247.16" x2="556.31" y2="247.16"/><line class="cls-5" x1="571.26" y1="247.16" x2="1361.42" y2="247.16"/><line class="cls-4" x1="1368.89" y1="247.16" x2="1369.39" y2="247.16"/><circle class="cls-6" cx="689.29" cy="247.16" r="19.32"/><path class="cls-7" d="M690.85,234.73v20.37h3.21v3.38h-9.84v-3.38h3.21v-17h-3.21v-3.38Z"/><path class="cls-8" d="M689.29,227.84h-.15v38.63h.15a19.32,19.32,0,1,0,0-38.63Z"/><circle class="cls-6" cx="962.6" cy="247.16" r="19.32"/><path class="cls-7" d="M963.94,239.34q0-1.6-1.49-1.61h0q-1.48,0-1.48,1.61v3.18h-3.42v-3.18q0-5,4.91-5t4.92,5v4.13a3.41,3.41,0,0,1-1.88,3.3,3.41,3.41,0,0,1,1.88,3.3v3.79q0,5-4.92,5t-4.91-5v-3.18H961v3.18q0,1.61,1.48,1.61h0q1.49,0,1.49-1.61v-3.79q0-1.29-.54-1.54a2.49,2.49,0,0,0-.9-.12h-1.13V245h1.39a1.44,1.44,0,0,0,.73-.14q.45-.25.45-1.45Z"/><path class="cls-8" d="M962.6,227.84h-.15v38.63h.15a19.32,19.32,0,1,0,0-38.63Z"/><circle class="cls-6" cx="1235.91" cy="247.16" r="19.32"/><path class="cls-7" d="M1237.26,247.12q0-1.26-.53-1.49a2.4,2.4,0,0,0-.93-.13h-.33q-1,0-1.16.93l0,1h-3.42l.51-12.67h9.33v3.38h-6l-.24,5.11a3,3,0,0,1,2.37-1l.42,0a3.57,3.57,0,0,1,2.72,1.44,6,6,0,0,1,.76,3.45v6.74q0,5-4.92,5t-4.91-5V251h3.42v2.81q0,1.61,1.48,1.61h0q1.49,0,1.49-1.61Z"/><path class="cls-8" d="M1235.91,227.84h-.15v38.63h.15a19.32,19.32,0,1,0,0-38.63Z"/><circle class="cls-6" cx="825.95" cy="247.16" r="39.31"/><path class="cls-7" d="M815.63,259.81q0-6.53,6.5-11.18t6.55-7.91v-9.48q0-3.27-3-3.28h0q-3,0-3,3.28v6.48h-7v-6.48q0-10.17,10-10.17t10,10.17v9.65q0,6.65-6.53,11.33t-6.53,8.18v2.91h13.05v6.87h-20Z"/><path class="cls-8" d="M825.95,207.85h-.31v78.61h.31a39.31,39.31,0,1,0,0-78.62Z"/><circle class="cls-6" cx="1099.26" cy="247.16" r="19.32"/><path class="cls-7" d="M1103.61,234.73V250.3h1.32v3.38h-1.32v4.79h-3.43v-4.79h-6.95v-3l6-15.95Zm-7,15.57h3.57V240.21Z"/><path class="cls-8" d="M1099.26,227.84h-.15v38.63h.15a19.32,19.32,0,1,0,0-38.63Z"/></g></g></svg>