<svg xmlns="http://www.w3.org/2000/svg" viewBox="0 0 1920 1080"><defs><style>.cls-1{isolation:isolate;}.cls-2,.cls-5{fill:#fff;}.cls-2{opacity:0.3;}.cls-3{fill:#666;}.cls-4{fill:#9bcb8c;}.cls-6,.cls-7{fill:none;stroke:#fff;stroke-linecap:round;stroke-miterlimit:10;stroke-width:5px;}.cls-7{stroke-dasharray:1 14.96;}.cls-8{fill:#4e96b3;}.cls-9{fill:#464646;opacity:0.7;mix-blend-mode:soft-light;}</style></defs><title>2d_ui</title><g class="cls-1"><g id="contenus"><rect class="cls-2" x="835.7" y="354.66" width="244.24" height="69" rx="8.8" ry="8.8"/><path class="cls-3" d="M917.59,378.08h-5v-5.6h16v5.6h-5v24h-6.08Z"/><path class="cls-3" d="M933.63,372.48h6.08v29.6h-6.08Z"/><path class="cls-3" d="M949.67,378.08h-5v-5.6h16v5.6h-5v24h-6.08Z"/><path class="cls-3" d="M965.71,372.48h7.68c4.2,0,6.88,1.08,8.16,2.6a10.16,10.16,0,0,1,2.4,6.84,10.91,10.91,0,0,1-.88,4.48,8,8,0,0,1-3.48,3.88l5.6,11.8h-6.8l-6.52-15c.68,0,1,0,1.52,0a4.7,4.7,0,0,0,3-1.12,4.6,4.6,0,0,0,1.32-3.4,4.27,4.27,0,0,0-1.4-3.6,4.64,4.64,0,0,0-3.12-.8h-1.4v24h-6.08Z"/><path class="cls-3" d="M989.83,372.48h14.4v5.6h-8.32v5.68h8.32v5.6h-8.32v7.12h8.32v5.6h-14.4Z"/><polygon class="cls-2" points="902.24 423.66 958.74 459.66 1013.4 423.66 902.24 423.66"/><path class="cls-4" d="M661.45,527.61H771.76a0,0,0,0,1,0,0v42.8a16,16,0,0,1-16,16H661.45a16,16,0,0,1-16-16v-26.8A16,16,0,0,1,661.45,527.61Z"/><path class="cls-5" d="M707.65,560.2c0,4.7-2.62,8.38-7.46,8.38-4.51,0-7.46-3.48-7.46-10.69s3-10.69,7.46-10.69c5,0,7.51,3.76,7.46,8.54h-4.34c-.11-3.67-1.17-4.54-2.78-4.54-1.95,0-3.45,1.75-3.45,6.68s1.5,6.68,3.45,6.68c2.2,0,2.67-2.17,2.78-4.37Z"/><path class="cls-5" d="M710.18,547.6h4.12l3.42,14.17,3.48-14.17h4l-5.62,20.6H715.8Z"/><path class="cls-3" d="M618.43,612.2c0,4.7-2.62,8.38-7.46,8.38-4.51,0-7.46-3.48-7.46-10.69s2.95-10.69,7.46-10.69c5,0,7.51,3.76,7.46,8.54h-4.34c-.11-3.67-1.17-4.54-2.78-4.54-1.95,0-3.45,1.75-3.45,6.68s1.5,6.68,3.45,6.68c2.2,0,2.67-2.17,2.78-4.37Z"/><path class="cls-3" d="M622.32,599.6h3.73v5.79c.28-.61.92-1.34,2.81-1.34a3.79,3.79,0,0,1,3.14,1.31,5,5,0,0,1,1,3.31v11.52h-3.73V609.78a2.71,2.71,0,0,0-.31-1.39,1.28,1.28,0,0,0-1.22-.61,1.55,1.55,0,0,0-1.7,1.73v10.69h-3.73Z"/><path class="cls-3" d="M648,620.19h-3.4v-1.5a3.12,3.12,0,0,1-3.06,1.84c-2.84,0-5-2.56-5-8.24,0-5.34,1.75-8.24,5-8.24a3,3,0,0,1,3.06,1.95v-1.61H648Zm-7.71-7.88c0,3.48.78,4.48,2,4.48a1.63,1.63,0,0,0,1.48-.7c.47-.58.47-1.34.47-3.81s0-3.23-.47-3.81a1.63,1.63,0,0,0-1.48-.7c-1.25,0-2,1-2,4.51Z"/><path class="cls-3" d="M663.06,620.19h-3.37v-1.67c-.47,1.28-1.28,2-3.23,2-2.5,0-4.09-1.39-4.09-4.59V604.38h3.73v10.33c0,1.09.25,2.09,1.56,2.09,1,0,1.67-.5,1.67-1.84V604.38h3.73Z"/><path class="cls-3" d="M667.68,607.89h-1.45v-3.51h1.45v-.64c0-4.17,3.67-4.51,5.79-4.51v3.23c-.86,0-2.06,0-2.06,1.64v.28h2.06v3.51h-2.06v12.3h-3.73Z"/><path class="cls-3" d="M676.53,607.89h-1.45v-3.51h1.45v-.64c0-4.17,3.67-4.51,5.79-4.51v3.23c-.86,0-2.06,0-2.06,1.64v.28h2.06v3.51h-2.06v12.3h-3.73Z"/><path class="cls-3" d="M688.35,613.62c0,1.56.42,3.4,2.09,3.4,1,0,1.67-.61,1.95-1.95h3.7a6.36,6.36,0,0,1-2.28,4.42,5.79,5.79,0,0,1-3.37,1c-4.15,0-6.1-3.67-6.1-8.24s1.95-8.24,6.1-8.24a5,5,0,0,1,4.59,2.53c1.17,2,1.25,4.62,1.17,7Zm4.12-3.17c0-.95-.14-3.34-2-3.34-1.31,0-2.14,1.11-2.14,3.34Z"/><path class="cls-3" d="M710.67,620.19H707.3v-1.67c-.47,1.28-1.28,2-3.23,2-2.5,0-4.09-1.39-4.09-4.59V604.38h3.73v10.33c0,1.09.25,2.09,1.56,2.09,1,0,1.67-.5,1.67-1.84V604.38h3.73Z"/><path class="cls-3" d="M715,604.38h3.4v2.06c.56-2,1.95-2.39,4-2.39v4.59a2.81,2.81,0,0,0-1.64-.47c-1.39,0-2,1.17-2,2.78v9.24H715Z"/><path class="cls-3" d="M734.24,604.38h3.39v2.06c.56-2,1.95-2.39,4-2.39v4.59a2.8,2.8,0,0,0-1.64-.47c-1.39,0-2,1.17-2,2.78v9.24h-3.73Z"/><path class="cls-3" d="M743.45,612.26c0-4.54,1.95-8.21,6.1-8.21s6.1,3.67,6.1,8.24-1.95,8.24-6.1,8.24-6.1-3.67-6.1-8.24Zm4,.06c0,3.7.83,4.7,2.2,4.7s2.09-1,2.09-4.73-.83-4.73-2.2-4.73-2.09,1-2.09,4.73Z"/><path class="cls-3" d="M769.91,620.19h-3.37v-1.67c-.47,1.28-1.28,2-3.23,2-2.51,0-4.09-1.39-4.09-4.59V604.38H763v10.33c0,1.09.25,2.09,1.56,2.09,1,0,1.67-.5,1.67-1.84V604.38h3.73Z"/><path class="cls-3" d="M774.64,607.89H773v-3.51h1.67v-3h3.73v3H780v3.51h-1.67v12.3h-3.73Z"/><path class="cls-3" d="M783.49,599.6h3.73v3.12h-3.73Zm0,4.79h3.73v15.81h-3.73Z"/><path class="cls-3" d="M795.34,613.62c0,1.56.42,3.4,2.09,3.4,1,0,1.67-.61,1.95-1.95h3.7a6.36,6.36,0,0,1-2.28,4.42,5.79,5.79,0,0,1-3.37,1c-4.15,0-6.1-3.67-6.1-8.24s1.95-8.24,6.1-8.24a5,5,0,0,1,4.59,2.53c1.17,2,1.25,4.62,1.17,7Zm4.12-3.17c0-.95-.14-3.34-2-3.34-1.31,0-2.14,1.11-2.14,3.34Z"/><path class="cls-3" d="M807,604.38h3.4v2.06c.56-2,1.95-2.39,4-2.39v4.59a2.8,2.8,0,0,0-1.64-.47c-1.39,0-2,1.17-2,2.78v9.24H807Z"/><path class="cls-4" d="M1163.18,527.61H1617a0,0,0,0,1,0,0v42.8a16,16,0,0,1-16,16H1163.18a16,16,0,0,1-16-16v-26.8A16,16,0,0,1,1163.18,527.61Z"/><path class="cls-5" d="M1180.71,560.2c0,4.7-2.62,8.38-7.46,8.38-4.51,0-7.46-3.48-7.46-10.69s3-10.69,7.46-10.69c5,0,7.52,3.76,7.46,8.54h-4.34c-.11-3.67-1.17-4.54-2.78-4.54-1.95,0-3.45,1.75-3.45,6.68s1.5,6.68,3.45,6.68c2.2,0,2.67-2.17,2.78-4.37Z"/><path class="cls-5" d="M1183.85,560.26c0-4.54,1.95-8.21,6.1-8.21s6.09,3.67,6.09,8.24-1.95,8.24-6.09,8.24-6.1-3.67-6.1-8.24Zm4,.06c0,3.7.83,4.7,2.2,4.7s2.09-1,2.09-4.73-.83-4.73-2.2-4.73-2.09,1-2.09,4.73Z"/><path class="cls-5" d="M1199.63,552.38h3.23v1.5a3.3,3.3,0,0,1,3.37-1.84c2.51,0,4.09,1.39,4.09,4.59v11.55h-3.73V557.87c0-1.09-.25-2.09-1.56-2.09-1,0-1.67.5-1.67,1.84v10.58h-3.73Z"/><path class="cls-5" d="M1225.34,568.19h-3.4v-1.78a3,3,0,0,1-3.06,2.12c-2.84,0-5-2.56-5-8.24,0-5.34,1.75-8.24,5-8.24a2.78,2.78,0,0,1,2.76,1.67c0-.45,0-.89,0-1.34V547.6h3.73Zm-7.71-7.88c0,3.48.78,4.48,2,4.48a1.63,1.63,0,0,0,1.47-.7c.47-.58.47-1.34.47-3.81s0-3.23-.47-3.81a1.63,1.63,0,0,0-1.47-.7c-1.25,0-2,1-2,4.51Z"/><path class="cls-5" d="M1240.37,568.19H1237v-1.67c-.47,1.28-1.28,2-3.23,2-2.5,0-4.09-1.39-4.09-4.59V552.38h3.73v10.33c0,1.09.25,2.09,1.56,2.09,1,0,1.67-.5,1.67-1.84V552.38h3.73Z"/><path class="cls-5" d="M1255,562.18c0,3.23-1.62,6.35-5.09,6.35-3.76,0-6.12-3-6.12-8.24s2.37-8.24,6.12-8.24c3.48,0,5.09,3.06,5.09,6.35h-3.9c0-1.89-.5-2.84-1.48-2.84a1.42,1.42,0,0,0-1.39,1,9.6,9.6,0,0,0-.5,3.73c0,3.62.7,4.73,1.89,4.73s1.48-1.28,1.48-2.84Z"/><path class="cls-5" d="M1258.57,555.89h-1.67v-3.51h1.67v-3h3.73v3H1264v3.51h-1.67v12.3h-3.73Z"/><path class="cls-5" d="M1270.14,561.62c0,1.56.42,3.4,2.09,3.4,1,0,1.67-.61,1.95-1.95h3.7a6.36,6.36,0,0,1-2.28,4.43,5.79,5.79,0,0,1-3.37,1c-4.15,0-6.09-3.67-6.09-8.24s1.95-8.24,6.09-8.24a5,5,0,0,1,4.59,2.53c1.17,2,1.25,4.62,1.17,7Zm4.12-3.17c0-.95-.14-3.34-2-3.34-1.31,0-2.14,1.11-2.14,3.34Z"/><path class="cls-5" d="M1292.46,568.19h-3.37v-1.67c-.47,1.28-1.28,2-3.23,2-2.5,0-4.09-1.39-4.09-4.59V552.38h3.73v10.33c0,1.09.25,2.09,1.56,2.09,1,0,1.67-.5,1.67-1.84V552.38h3.73Z"/><path class="cls-5" d="M1296.8,552.38h3.4v2.06c.56-2,1.95-2.39,4-2.39v4.59a2.81,2.81,0,0,0-1.64-.47c-1.39,0-2,1.17-2,2.78v9.24h-3.73Z"/><path class="cls-5" d="M1316,552.38h3.39v2.06c.56-2,1.95-2.39,4-2.39v4.59a2.8,2.8,0,0,0-1.64-.47c-1.39,0-2,1.17-2,2.78v9.24H1316Z"/><path class="cls-5" d="M1325.23,560.26c0-4.54,1.95-8.21,6.1-8.21s6.1,3.67,6.1,8.24-1.95,8.24-6.1,8.24-6.1-3.67-6.1-8.24Zm4,.06c0,3.7.83,4.7,2.2,4.7s2.09-1,2.09-4.73-.83-4.73-2.2-4.73-2.09,1-2.09,4.73Z"/><path class="cls-5" d="M1351.7,568.19h-3.37v-1.67c-.47,1.28-1.28,2-3.23,2-2.51,0-4.09-1.39-4.09-4.59V552.38h3.73v10.33c0,1.09.25,2.09,1.56,2.09,1,0,1.67-.5,1.67-1.84V552.38h3.73Z"/><path class="cls-5" d="M1356.43,555.89h-1.67v-3.51h1.67v-3h3.73v3h1.67v3.51h-1.67v12.3h-3.73Z"/><path class="cls-5" d="M1365.27,547.6H1369v3.12h-3.73Zm0,4.79H1369v15.81h-3.73Z"/><path class="cls-5" d="M1377.13,561.62c0,1.56.42,3.4,2.09,3.4,1,0,1.67-.61,1.95-1.95h3.7a6.36,6.36,0,0,1-2.28,4.43,5.79,5.79,0,0,1-3.37,1c-4.15,0-6.09-3.67-6.09-8.24s1.95-8.24,6.09-8.24a5,5,0,0,1,4.59,2.53c1.17,2,1.25,4.62,1.17,7Zm4.12-3.17c0-.95-.14-3.34-2-3.34-1.31,0-2.14,1.11-2.14,3.34Z"/><path class="cls-5" d="M1388.76,552.38h3.4v2.06c.56-2,1.95-2.39,4-2.39v4.59a2.8,2.8,0,0,0-1.64-.47c-1.39,0-2,1.17-2,2.78v9.24h-3.73Z"/><path class="cls-5" d="M1408.38,547.6h3.73v20.6h-3.73Z"/><path class="cls-5" d="M1416.08,560.26c0-4.54,1.95-8.21,6.09-8.21s6.09,3.67,6.09,8.24-1.95,8.24-6.09,8.24-6.09-3.67-6.09-8.24Zm4,.06c0,3.7.84,4.7,2.2,4.7s2.09-1,2.09-4.73-.84-4.73-2.2-4.73-2.09,1-2.09,4.73Z"/><path class="cls-5" d="M1431.86,552.38h3.23v1.5a3.3,3.3,0,0,1,3.37-1.84c2.5,0,4.09,1.39,4.09,4.59v11.55h-3.73V557.87c0-1.09-.25-2.09-1.56-2.09-1,0-1.67.5-1.67,1.84v10.58h-3.73Z"/><path class="cls-5" d="M1457.57,568a5.49,5.49,0,0,1-1.48,4,5.85,5.85,0,0,1-4.26,1.48,5.24,5.24,0,0,1-5.46-4.4h3.9a1.46,1.46,0,0,0,.53.67,2,2,0,0,0,1,.22c1.67,0,2-1,2.09-2.39,0-.28,0-.56,0-.83-.39,1.17-1.22,1.73-2.78,1.73-3.51,0-5-2.89-5-8.24s1.47-8.24,5-8.24a3.33,3.33,0,0,1,3.28,1.89v-1.56h3.17Zm-7.71-7.71c0,3.48.78,4.48,2,4.48a1.63,1.63,0,0,0,1.47-.7c.47-.58.47-1.34.47-3.81s0-3.23-.47-3.81a1.63,1.63,0,0,0-1.47-.7c-1.25,0-2,1-2,4.51Z"/><path class="cls-5" d="M1472.6,568.19h-3.37v-1.67c-.47,1.28-1.28,2-3.23,2-2.51,0-4.09-1.39-4.09-4.59V552.38h3.73v10.33c0,1.09.25,2.09,1.56,2.09,1,0,1.67-.5,1.67-1.84V552.38h3.73Z"/><path class="cls-5" d="M1480.33,561.62c0,1.56.42,3.4,2.09,3.4,1,0,1.67-.61,1.95-1.95h3.7a6.36,6.36,0,0,1-2.28,4.43,5.79,5.79,0,0,1-3.37,1c-4.15,0-6.09-3.67-6.09-8.24s1.95-8.24,6.09-8.24a5,5,0,0,1,4.59,2.53c1.17,2,1.25,4.62,1.17,7Zm4.12-3.17c0-.95-.14-3.34-2-3.34-1.31,0-2.14,1.11-2.14,3.34Z"/><path class="cls-5" d="M1511.5,568.19h-3.4v-1.78a3,3,0,0,1-3.06,2.12c-2.84,0-5-2.56-5-8.24,0-5.34,1.75-8.24,5-8.24a2.78,2.78,0,0,1,2.75,1.67c0-.45,0-.89,0-1.34V547.6h3.73Zm-7.71-7.88c0,3.48.78,4.48,2,4.48a1.63,1.63,0,0,0,1.48-.7c.47-.58.47-1.34.47-3.81s0-3.23-.47-3.81a1.63,1.63,0,0,0-1.48-.7c-1.25,0-2,1-2,4.51Z"/><path class="cls-5" d="M1516.23,547.6H1520v3.12h-3.73Zm0,4.79H1520v15.81h-3.73Z"/><path class="cls-5" d="M1530.64,557.06c-.06-1.17-.53-1.78-1.67-1.78a1.19,1.19,0,0,0-1.34,1.22c0,1.34,1.78,1.45,3.56,2a4.52,4.52,0,0,1,3.56,4.84c0,3-2.34,5.18-5.59,5.18-3,0-5.43-1.67-5.76-5.4h3.73a2,2,0,0,0,2.14,2,1.41,1.41,0,0,0,1.53-1.59c0-1.36-1.78-1.5-3.56-2.09s-3.56-1.67-3.56-4.81c0-2.64,1.84-4.59,5.4-4.59s5.07,1.95,5.29,5Z"/><path class="cls-5" d="M1538.54,555.89h-1.67v-3.51h1.67v-3h3.73v3h1.67v3.51h-1.67v12.3h-3.73Z"/><path class="cls-5" d="M1557.41,568.19H1554v-1.5a3.12,3.12,0,0,1-3.06,1.84c-2.84,0-5-2.56-5-8.24,0-5.34,1.75-8.24,5-8.24A3,3,0,0,1,1554,554v-1.61h3.4Zm-7.71-7.88c0,3.48.78,4.48,2,4.48a1.63,1.63,0,0,0,1.47-.7c.47-.58.47-1.34.47-3.81s0-3.23-.47-3.81a1.63,1.63,0,0,0-1.47-.7c-1.25,0-2,1-2,4.51Z"/><path class="cls-5" d="M1561.75,552.38H1565v1.5a3.3,3.3,0,0,1,3.37-1.84c2.51,0,4.09,1.39,4.09,4.59v11.55h-3.73V557.87c0-1.09-.25-2.09-1.56-2.09-1,0-1.67.5-1.67,1.84v10.58h-3.73Z"/><path class="cls-5" d="M1587.07,562.18c0,3.23-1.61,6.35-5.09,6.35-3.76,0-6.12-3-6.12-8.24s2.37-8.24,6.12-8.24c3.48,0,5.09,3.06,5.09,6.35h-3.9c0-1.89-.5-2.84-1.48-2.84a1.42,1.42,0,0,0-1.39,1,9.6,9.6,0,0,0-.5,3.73c0,3.62.7,4.73,1.89,4.73s1.48-1.28,1.48-2.84Z"/><path class="cls-5" d="M1593.64,561.62c0,1.56.42,3.4,2.09,3.4,1,0,1.67-.61,1.95-1.95h3.7a6.36,6.36,0,0,1-2.28,4.43,5.79,5.79,0,0,1-3.37,1c-4.15,0-6.09-3.67-6.09-8.24s1.95-8.24,6.09-8.24a5,5,0,0,1,4.59,2.53c1.17,2,1.25,4.62,1.17,7Zm4.12-3.17c0-.95-.14-3.34-2-3.34-1.31,0-2.14,1.11-2.14,3.34Z"/><path class="cls-3" d="M1255.67,611.56h-3.06v-3.73h7v20.6h-4Z"/><path class="cls-3" d="M1267.3,614.51c0-4.45,2.62-7,6.46-7s6.46,2.56,6.46,7v7.24c0,4.45-2.62,7-6.46,7s-6.46-2.56-6.46-7Zm4,7c0,2.37,1,3.45,2.5,3.45s2.5-1.09,2.5-3.45v-6.68c0-2.37-1-3.45-2.5-3.45s-2.5,1.09-2.5,3.45Z"/><path class="cls-3" d="M1303.75,628.42h-3.4v-1.5a3.12,3.12,0,0,1-3.06,1.84c-2.84,0-5-2.56-5-8.24,0-5.34,1.75-8.24,5-8.24a3,3,0,0,1,3.06,1.95v-1.61h3.4Zm-7.71-7.88c0,3.48.78,4.48,2,4.48a1.63,1.63,0,0,0,1.47-.7c.47-.58.47-1.34.47-3.81s0-3.23-.47-3.81a1.63,1.63,0,0,0-1.47-.7c-1.25,0-2,1-2,4.51Z"/><path class="cls-3" d="M1308.09,612.61h3.23v1.5a3.3,3.3,0,0,1,3.37-1.84c2.51,0,4.09,1.39,4.09,4.59v11.55H1315V618.1c0-1.09-.25-2.09-1.56-2.09-1,0-1.67.5-1.67,1.84v10.58h-3.73Z"/><path class="cls-3" d="M1329.07,617.29c-.06-1.17-.53-1.78-1.67-1.78a1.19,1.19,0,0,0-1.34,1.22c0,1.34,1.78,1.45,3.56,2a4.52,4.52,0,0,1,3.56,4.84c0,3-2.34,5.18-5.59,5.18-3,0-5.43-1.67-5.76-5.4h3.73a2,2,0,0,0,2.14,2,1.41,1.41,0,0,0,1.53-1.59c0-1.36-1.78-1.5-3.56-2.09s-3.56-1.67-3.56-4.81c0-2.64,1.84-4.59,5.4-4.59s5.07,1.95,5.29,5Z"/><path class="cls-3" d="M1356.12,628.42h-3.4v-1.78a3,3,0,0,1-3.06,2.12c-2.84,0-5-2.56-5-8.24,0-5.34,1.75-8.24,5-8.24a2.78,2.78,0,0,1,2.76,1.67c0-.45,0-.89,0-1.34v-4.79h3.73Zm-7.71-7.88c0,3.48.78,4.48,2,4.48a1.63,1.63,0,0,0,1.47-.7c.47-.58.47-1.34.47-3.81s0-3.23-.47-3.81a1.63,1.63,0,0,0-1.47-.7c-1.25,0-2,1-2,4.51Z"/><path class="cls-3" d="M1361.23,607.83h4l-3,7h-3.34Z"/><path class="cls-3" d="M1371.14,621.85c0,1.56.42,3.4,2.09,3.4,1,0,1.67-.61,1.95-1.95h3.7a6.36,6.36,0,0,1-2.28,4.43,5.79,5.79,0,0,1-3.37,1c-4.15,0-6.09-3.67-6.09-8.24s1.95-8.24,6.09-8.24a5,5,0,0,1,4.59,2.53c1.17,2,1.25,4.62,1.17,7Zm4.12-3.17c0-.95-.14-3.34-2-3.34-1.31,0-2.14,1.11-2.14,3.34Z"/><path class="cls-3" d="M1385.22,620.18l-4.06-7.57h4.4l1.95,4.84,2.06-4.84h4.29l-4.06,7.57,4.62,8.24h-4.45l-2.45-5.51-2.34,5.51h-4.45Z"/><path class="cls-3" d="M1397.24,612.61h3.4v1.5a3.16,3.16,0,0,1,3.06-1.84c2.84,0,5,2.56,5,8.24,0,5.34-1.75,8.24-5,8.24a3,3,0,0,1-2.73-1.5v6.18h-3.73Zm7.71,7.88c0-3.48-.72-4.48-2-4.48a1.56,1.56,0,0,0-1.36.7c-.47.58-.58,1.34-.58,3.81s.11,3.23.58,3.81a1.56,1.56,0,0,0,1.36.7c1.31,0,2-1,2-4.51Z"/><path class="cls-3" d="M1415.66,621.85c0,1.56.42,3.4,2.09,3.4,1,0,1.67-.61,1.95-1.95h3.7a6.36,6.36,0,0,1-2.28,4.43,5.79,5.79,0,0,1-3.37,1c-4.15,0-6.09-3.67-6.09-8.24s1.95-8.24,6.09-8.24a5,5,0,0,1,4.59,2.53c1.17,2,1.25,4.62,1.17,7Zm5.59-15.95,1.42,3-6.46,2.87-1.28-2.42Zm-1.48,12.77c0-.95-.14-3.34-2-3.34-1.31,0-2.14,1.11-2.14,3.34Z"/><path class="cls-3" d="M1427.29,612.61h3.4v2.06c.56-2,1.95-2.39,4-2.39v4.59a2.81,2.81,0,0,0-1.64-.47c-1.39,0-2,1.17-2,2.78v9.24h-3.73Z"/><path class="cls-3" d="M1438.06,607.83h3.73v3.12h-3.73Zm0,4.79h3.73v15.81h-3.73Z"/><path class="cls-3" d="M1449.91,621.85c0,1.56.42,3.4,2.09,3.4,1,0,1.67-.61,1.95-1.95h3.7a6.36,6.36,0,0,1-2.28,4.43,5.79,5.79,0,0,1-3.37,1c-4.15,0-6.09-3.67-6.09-8.24s1.95-8.24,6.09-8.24a5,5,0,0,1,4.59,2.53c1.17,2,1.25,4.62,1.17,7Zm4.12-3.17c0-.95-.14-3.34-2-3.34-1.31,0-2.14,1.11-2.14,3.34Z"/><path class="cls-3" d="M1461.54,612.61h3.23v1.5a3.3,3.3,0,0,1,3.37-1.84c2.5,0,4.09,1.39,4.09,4.59v11.55h-3.73V618.1c0-1.09-.25-2.09-1.56-2.09-1,0-1.67.5-1.67,1.84v10.58h-3.73Z"/><path class="cls-3" d="M1486.86,622.41c0,3.23-1.61,6.35-5.09,6.35-3.76,0-6.12-3-6.12-8.24s2.37-8.24,6.12-8.24c3.48,0,5.09,3.06,5.09,6.35H1483c0-1.89-.5-2.84-1.47-2.84a1.42,1.42,0,0,0-1.39,1,9.61,9.61,0,0,0-.5,3.73c0,3.62.7,4.73,1.89,4.73s1.47-1.28,1.47-2.84Z"/><path class="cls-3" d="M1493.43,621.85c0,1.56.42,3.4,2.09,3.4,1,0,1.67-.61,1.95-1.95h3.7a6.36,6.36,0,0,1-2.28,4.43,5.79,5.79,0,0,1-3.37,1c-4.15,0-6.1-3.67-6.1-8.24s1.95-8.24,6.1-8.24a5,5,0,0,1,4.59,2.53c1.17,2,1.25,4.62,1.17,7Zm4.12-3.17c0-.95-.14-3.34-2-3.34-1.31,0-2.14,1.11-2.14,3.34Z"/><path class="cls-3" d="M1233.16,661.81v-20.6h6.15l2.84,13.28,2.84-13.28h6.15v20.6h-3.73v-16l-3.73,16h-3.06l-3.73-16v16Z"/><path class="cls-3" d="M1254.94,653.88c0-4.54,1.95-8.21,6.1-8.21s6.1,3.67,6.1,8.24-1.95,8.24-6.1,8.24-6.1-3.67-6.1-8.24Zm4,.06c0,3.7.83,4.7,2.2,4.7s2.09-1,2.09-4.73-.83-4.73-2.2-4.73-2.09,1-2.09,4.73Z"/><path class="cls-3" d="M1270.72,641.22h3.73v6.29a2.64,2.64,0,0,1,2.73-1.84c3.23,0,5,2.89,5,8.24,0,5.68-2.14,8.24-5,8.24a3.09,3.09,0,0,1-3.06-1.89v1.56h-3.4Zm7.71,12.66c0-3-.56-4.48-2-4.48-2,0-2,2.14-2,4.51s0,4.51,2,4.51c1.42,0,2-1.45,2-4.51Z"/><path class="cls-3" d="M1286.13,641.22h3.73v3.12h-3.73Zm0,4.79h3.73v15.81h-3.73Z"/><path class="cls-3" d="M1295,641.22h3.73v20.6H1295Z"/><path class="cls-3" d="M1303.83,641.22h3.73v3.12h-3.73Zm0,4.79h3.73v15.81h-3.73Z"/><path class="cls-3" d="M1312.68,649.51H1311V646h1.67v-3h3.73v3h1.67v3.51h-1.67v12.3h-3.73Z"/><path class="cls-3" d="M1324.26,655.24c0,1.56.42,3.4,2.09,3.4,1,0,1.67-.61,1.95-1.95h3.7a6.36,6.36,0,0,1-2.28,4.43,5.79,5.79,0,0,1-3.37,1c-4.15,0-6.1-3.67-6.1-8.24s1.95-8.24,6.1-8.24a5,5,0,0,1,4.59,2.53c1.17,2,1.25,4.62,1.17,7Zm5.59-15.95,1.42,3-6.46,2.87-1.28-2.42Zm-1.47,12.77c0-.95-.14-3.34-2-3.34-1.31,0-2.14,1.11-2.14,3.34Z"/><path class="cls-3" d="M1344.73,641.22h9.52v3.9H1349V649h5.29v3.9H1349v8.91h-4.23Z"/><path class="cls-3" d="M1358.06,646h3.4v2.06c.56-2,1.95-2.39,4-2.39v4.59a2.81,2.81,0,0,0-1.64-.47c-1.39,0-2,1.17-2,2.78v9.24h-3.73Z"/><path class="cls-3" d="M1378.71,661.81h-3.4v-1.5a3.12,3.12,0,0,1-3.06,1.84c-2.84,0-5-2.56-5-8.24,0-5.34,1.75-8.24,5-8.24a3,3,0,0,1,3.06,1.95V646h3.4Zm-7.71-7.88c0,3.48.78,4.48,2,4.48a1.63,1.63,0,0,0,1.47-.7c.47-.58.47-1.34.47-3.81s0-3.23-.47-3.81a1.63,1.63,0,0,0-1.47-.7c-1.25,0-2,1-2,4.51Z"/><path class="cls-3" d="M1383,646h3.23v1.5a3.3,3.3,0,0,1,3.37-1.84c2.51,0,4.09,1.39,4.09,4.59v11.55H1390V651.49c0-1.09-.25-2.09-1.56-2.09-1,0-1.67.5-1.67,1.84v10.58H1383Z"/><path class="cls-3" d="M1408.37,655.8c0,3.23-1.61,6.35-5.09,6.35-3.76,0-6.12-3-6.12-8.24s2.37-8.24,6.12-8.24c3.48,0,5.09,3.06,5.09,6.35h-3.9c0-1.89-.5-2.84-1.47-2.84a1.42,1.42,0,0,0-1.39,1,9.61,9.61,0,0,0-.5,3.73c0,3.62.7,4.73,1.89,4.73s1.47-1.28,1.47-2.84Z"/><path class="cls-3" d="M1414.94,655.24c0,1.56.42,3.4,2.09,3.4,1,0,1.67-.61,1.95-1.95h3.7a6.36,6.36,0,0,1-2.28,4.43,5.79,5.79,0,0,1-3.37,1c-4.15,0-6.1-3.67-6.1-8.24s1.95-8.24,6.1-8.24a5,5,0,0,1,4.59,2.53c1.17,2,1.25,4.62,1.17,7Zm4.12-3.17c0-.95-.14-3.34-2-3.34-1.31,0-2.14,1.11-2.14,3.34Z"/><path class="cls-3" d="M1438.81,655.24c0,1.56.42,3.4,2.09,3.4,1,0,1.67-.61,1.95-1.95h3.7a6.36,6.36,0,0,1-2.28,4.43,5.79,5.79,0,0,1-3.37,1c-4.15,0-6.1-3.67-6.1-8.24s1.95-8.24,6.1-8.24a5,5,0,0,1,4.59,2.53c1.17,2,1.25,4.62,1.17,7Zm4.12-3.17c0-.95-.14-3.34-2-3.34-1.31,0-2.14,1.11-2.14,3.34Z"/><path class="cls-3" d="M1450.44,646h3.23v1.5a3.3,3.3,0,0,1,3.37-1.84c2.5,0,4.09,1.39,4.09,4.59v11.55h-3.73V651.49c0-1.09-.25-2.09-1.56-2.09-1,0-1.67.5-1.67,1.84v10.58h-3.73Z"/><path class="cls-3" d="M1465.85,649.51h-1.67V646h1.67v-3h3.73v3h1.67v3.51h-1.67v12.3h-3.73Z"/><path class="cls-3" d="M1474.7,641.22h3.73v3.12h-3.73Zm0,4.79h3.73v15.81h-3.73Z"/><path class="cls-3" d="M1486.56,655.24c0,1.56.42,3.4,2.09,3.4,1,0,1.67-.61,1.95-1.95h3.7a6.36,6.36,0,0,1-2.28,4.43,5.79,5.79,0,0,1-3.37,1c-4.15,0-6.09-3.67-6.09-8.24s1.95-8.24,6.09-8.24a5,5,0,0,1,4.59,2.53c1.17,2,1.25,4.62,1.17,7Zm4.62-12.52-1.28,2.42-6.46-2.87,1.42-3Zm-.5,9.35c0-.95-.14-3.34-2-3.34-1.31,0-2.14,1.11-2.14,3.34Z"/><path class="cls-3" d="M1498.19,646h3.4v2.06c.56-2,1.95-2.39,4-2.39v4.59a2.8,2.8,0,0,0-1.64-.47c-1.39,0-2,1.17-2,2.78v9.24h-3.73Z"/><path class="cls-3" d="M1511.54,655.24c0,1.56.42,3.4,2.09,3.4,1,0,1.67-.61,1.95-1.95h3.7a6.36,6.36,0,0,1-2.28,4.43,5.79,5.79,0,0,1-3.37,1c-4.15,0-6.09-3.67-6.09-8.24s1.95-8.24,6.09-8.24a5,5,0,0,1,4.59,2.53c1.17,2,1.25,4.62,1.17,7Zm4.12-3.17c0-.95-.14-3.34-2-3.34-1.31,0-2.14,1.11-2.14,3.34Z"/></g><g id="etapes_jeu2" data-name="etapes jeu2"><line class="cls-6" x1="555.81" y1="247.16" x2="556.31" y2="247.16"/><line class="cls-7" x1="571.26" y1="247.16" x2="1361.42" y2="247.16"/><line class="cls-6" x1="1368.89" y1="247.16" x2="1369.39" y2="247.16"/><circle class="cls-8" cx="689.29" cy="247.16" r="19.32"/><path class="cls-5" d="M690.85,234.73v20.37h3.21v3.38h-9.84v-3.38h3.21v-17h-3.21v-3.38Z"/><path class="cls-9" d="M689.29,227.84h-.15v38.63h.15a19.32,19.32,0,1,0,0-38.63Z"/><circle class="cls-8" cx="1099.26" cy="247.16" r="19.32"/><path class="cls-5" d="M1103.61,234.73V250.3h1.32v3.38h-1.32v4.79h-3.42v-4.79h-6.95v-3l6-15.95Zm-7,15.57h3.57V240.21Z"/><path class="cls-9" d="M1099.26,227.84h-.15v38.63h.15a19.32,19.32,0,1,0,0-38.63Z"/><circle class="cls-8" cx="1235.91" cy="247.16" r="19.32"/><path class="cls-5" d="M1237.26,247.12q0-1.26-.53-1.49a2.4,2.4,0,0,0-.93-.13h-.33q-1,0-1.16.93l0,1h-3.42l.51-12.67h9.33v3.38h-6l-.24,5.11a3,3,0,0,1,2.37-1l.42,0a3.57,3.57,0,0,1,2.72,1.44,6,6,0,0,1,.76,3.45v6.74q0,5-4.92,5t-4.91-5V251h3.42v2.81q0,1.61,1.48,1.61h0q1.49,0,1.49-1.61Z"/><path class="cls-9" d="M1235.91,227.84h-.15v38.63h.15a19.32,19.32,0,1,0,0-38.63Z"/><circle class="cls-8" cx="825.95" cy="247.16" r="19.32"/><path class="cls-5" d="M820.88,253.37a6.64,6.64,0,0,1,3.2-5.49q3.21-2.29,3.22-3.88v-4.66q0-1.61-1.48-1.61h0q-1.49,0-1.49,1.61v3.18h-3.43v-3.18q0-5,4.91-5t4.92,5v4.74a6.71,6.71,0,0,1-3.21,5.57q-3.21,2.29-3.21,4v1.43h6.41v3.38h-9.84Z"/><path class="cls-9" d="M825.95,227.84h-.15v38.63h.15a19.32,19.32,0,1,0,0-38.63Z"/><circle class="cls-8" cx="962.6" cy="247.16" r="39.31"/><path class="cls-5" d="M965.34,231.24q0-3.25-3-3.28h0q-3,0-3,3.28v6.48h-7v-6.48q0-10.15,10-10.15t10,10.15v8.4q0,4.75-3.82,6.72,3.82,2,3.82,6.72v7.71q0,10.15-10,10.15t-10-10.15v-6.48h7v6.48q0,3.28,3,3.28h0q3,0,3-3.28v-7.71q0-2.64-1.11-3.13a5,5,0,0,0-1.82-.25h-2.29v-6.87h2.83a2.92,2.92,0,0,0,1.48-.3q.91-.52.91-3Z"/><path class="cls-9" d="M962.6,207.85h-.31v78.61h.31a39.31,39.31,0,1,0,0-78.62Z"/></g></g></svg>