<svg xmlns="http://www.w3.org/2000/svg" viewBox="0 0 1920 1080"><defs><style>.cls-1{isolation:isolate;}.cls-2,.cls-7{fill:#fff;}.cls-2{opacity:0.3;}.cls-3{fill:#666;}.cls-4,.cls-5{fill:none;stroke:#fff;stroke-linecap:round;stroke-miterlimit:10;stroke-width:5px;}.cls-5{stroke-dasharray:1 14.96;}.cls-6{fill:#4e96b3;}.cls-8{fill:#464646;opacity:0.7;mix-blend-mode:soft-light;}</style></defs><title>2f_ui</title><g class="cls-1"><g id="contenus"><rect class="cls-2" x="605.92" y="354.66" width="703.81" height="69" rx="8.8" ry="8.8"/><path class="cls-3" d="M653.87,372.48h14.4v5.6H660v5.68h8.32v5.6H660v7.12h8.32v5.6h-14.4Z"/><path class="cls-3" d="M680.47,386.08l-6.56-13.6h6.24l3.68,8.4,3.68-8.4h6.32l-6.64,13.6,7.68,16h-6.4l-4.64-10.48-4.72,10.48h-6.4Z"/><path class="cls-3" d="M707.71,372.48a9.88,9.88,0,0,1,7,2.48,10.78,10.78,0,0,1,0,14.32,9.88,9.88,0,0,1-7,2.48h-2.32v10.32h-6.08v-29.6Zm-2.32,13.68h2.24a3.2,3.2,0,0,0,2.64-1,4.3,4.3,0,0,0,.88-3.08,4.35,4.35,0,0,0-.88-3.12,3.32,3.32,0,0,0-2.64-.92h-2.24Z"/><path class="cls-3" d="M723.15,372.48h14.4v5.6h-8.32v5.68h8.32v5.6h-8.32v7.12h8.32v5.6h-14.4Zm12.44-9,2,4.28-9.28,4.12-1.84-3.48Z"/><path class="cls-3" d="M744.47,372.48h7.68c4.2,0,6.88,1.08,8.16,2.6a10.16,10.16,0,0,1,2.4,6.84,10.91,10.91,0,0,1-.88,4.48,8,8,0,0,1-3.48,3.88l5.6,11.8h-6.8l-6.52-15c.68,0,1,0,1.52,0a4.7,4.7,0,0,0,3-1.12,4.6,4.6,0,0,0,1.32-3.4,4.27,4.27,0,0,0-1.4-3.6,4.64,4.64,0,0,0-3.12-.8h-1.4v24h-6.08Z"/><path class="cls-3" d="M768.31,372.48h6.08v29.6h-6.08Z"/><path class="cls-3" d="M781.31,372.48h14.4v5.6h-8.32v5.68h8.32v5.6h-8.32v7.12h8.32v5.6h-14.4Z"/><path class="cls-3" d="M816.51,389.88v-17.4h5.36v29.6h-5.44l-8.32-19v19h-5.36v-29.6h6.16Z"/><path class="cls-3" d="M848.91,390.6c0,6.76-3.76,12-10.72,12-6.48,0-10.72-5-10.72-15.36s4.24-15.36,10.72-15.36c7.16,0,10.8,5.4,10.72,12.28h-6.24c-.16-5.28-1.68-6.52-4-6.52-2.8,0-5,2.52-5,9.6s2.16,9.6,5,9.6c3.16,0,3.84-3.12,4-6.28Z"/><path class="cls-3" d="M855,372.48h14.4v5.6h-8.32v5.68h8.32v5.6h-8.32v7.12h8.32v5.6H855Z"/><path class="cls-3" d="M881.23,392.76c.08,3.08,1.12,4.52,3.76,4.52a3.2,3.2,0,0,0,3.44-3.52c0-2.68-3.2-3.32-6.4-4.56s-6.4-3.12-6.4-8.12c0-5.6,3.44-9.2,9.08-9.2,5.48,0,8.52,2.64,9.4,8.48h-5.92c-.08-2.16-1.28-3.44-3.24-3.44a3,3,0,0,0-3.08,3.24c0,2.8,3.2,3.32,6.4,4.6s6.4,3.28,6.4,8.92-4.16,9-9.8,9c-6.76,0-9.72-3.64-9.72-9.88Z"/><path class="cls-3" d="M921.55,372.48a9.88,9.88,0,0,1,7,2.48,10.78,10.78,0,0,1,0,14.32,9.88,9.88,0,0,1-7,2.48h-2.32v10.32h-6.08v-29.6Zm-2.32,13.68h2.24a3.2,3.2,0,0,0,2.64-1,4.3,4.3,0,0,0,.88-3.08,4.35,4.35,0,0,0-.88-3.12,3.32,3.32,0,0,0-2.64-.92h-2.24Z"/><path class="cls-3" d="M936.71,372.48h7.68c4.2,0,6.88,1.08,8.16,2.6a10.16,10.16,0,0,1,2.4,6.84,10.91,10.91,0,0,1-.88,4.48,8,8,0,0,1-3.48,3.88l5.6,11.8h-6.8l-6.52-15c.68,0,1,0,1.52,0a4.7,4.7,0,0,0,3-1.12,4.6,4.6,0,0,0,1.32-3.4,4.27,4.27,0,0,0-1.4-3.6,4.64,4.64,0,0,0-3.12-.8h-1.4v24h-6.08Z"/><path class="cls-3" d="M959.35,387.24c0-9.24,3.6-15.32,10.88-15.32s10.88,6.08,10.88,15.36-3.6,15.36-10.88,15.36-10.88-6.08-10.88-15.36Zm6.24.08c0,7.08,1.52,9.72,4.64,9.72s4.64-2.64,4.64-9.76-1.52-9.76-4.64-9.76-4.64,2.64-4.64,9.76Z"/><path class="cls-3" d="M986.39,372.48h13.68v5.6h-7.6v5.6h7.6v5.6h-7.6v12.8h-6.08Z"/><path class="cls-3" d="M1006.23,372.48h14.4v5.6h-8.32v5.68h8.32v5.6h-8.32v7.12h8.32v5.6h-14.4Z"/><path class="cls-3" d="M1032.47,392.76c.08,3.08,1.12,4.52,3.76,4.52a3.2,3.2,0,0,0,3.44-3.52c0-2.68-3.2-3.32-6.4-4.56s-6.4-3.12-6.4-8.12c0-5.6,3.44-9.2,9.08-9.2,5.48,0,8.52,2.64,9.4,8.48h-5.92c-.08-2.16-1.28-3.44-3.24-3.44a3,3,0,0,0-3.08,3.24c0,2.8,3.2,3.32,6.4,4.6s6.4,3.28,6.4,8.92-4.16,9-9.8,9c-6.76,0-9.72-3.64-9.72-9.88Z"/><path class="cls-3" d="M1056.31,392.76c.08,3.08,1.12,4.52,3.76,4.52a3.2,3.2,0,0,0,3.44-3.52c0-2.68-3.2-3.32-6.4-4.56s-6.4-3.12-6.4-8.12c0-5.6,3.44-9.2,9.08-9.2,5.48,0,8.52,2.64,9.4,8.48h-5.92c-.08-2.16-1.28-3.44-3.24-3.44a3,3,0,0,0-3.08,3.24c0,2.8,3.2,3.32,6.4,4.6s6.4,3.28,6.4,8.92-4.16,9-9.8,9c-6.76,0-9.72-3.64-9.72-9.88Z"/><path class="cls-3" d="M1075.23,372.48h6.08v29.6h-6.08Z"/><path class="cls-3" d="M1086.75,387.24c0-9.24,3.6-15.32,10.88-15.32s10.88,6.08,10.88,15.36-3.6,15.36-10.88,15.36-10.88-6.08-10.88-15.36Zm6.24.08c0,7.08,1.52,9.72,4.64,9.72s4.64-2.64,4.64-9.76-1.52-9.76-4.64-9.76-4.64,2.64-4.64,9.76Z"/><path class="cls-3" d="M1127.87,389.88v-17.4h5.36v29.6h-5.44l-8.32-19v19h-5.36v-29.6h6.16Z"/><path class="cls-3" d="M1153.91,389.88v-17.4h5.36v29.6h-5.44l-8.32-19v19h-5.36v-29.6h6.16Z"/><path class="cls-3" d="M1166.35,372.48h14.4v5.6h-8.32v5.68h8.32v5.6h-8.32v7.12h8.32v5.6h-14.4Z"/><path class="cls-3" d="M1188,372.48H1194v24h7.76v5.6H1188Z"/><path class="cls-3" d="M1207.31,372.48h6.08v24h7.76v5.6h-13.84Z"/><path class="cls-3" d="M1226.67,372.48h14.4v5.6h-8.32v5.68h8.32v5.6h-8.32v7.12h8.32v5.6h-14.4Z"/><path class="cls-3" d="M1252.91,392.76c.08,3.08,1.12,4.52,3.76,4.52a3.2,3.2,0,0,0,3.44-3.52c0-2.68-3.2-3.32-6.4-4.56s-6.4-3.12-6.4-8.12c0-5.6,3.44-9.2,9.08-9.2,5.48,0,8.52,2.64,9.4,8.48h-5.92c-.08-2.16-1.28-3.44-3.24-3.44a3,3,0,0,0-3.08,3.24c0,2.8,3.2,3.32,6.4,4.6s6.4,3.28,6.4,8.92-4.16,9-9.8,9c-6.76,0-9.72-3.64-9.72-9.88Z"/><polygon class="cls-2" points="902.24 423.66 958.74 459.66 1013.4 423.66 902.24 423.66"/><path class="cls-3" d="M534.73,536.17h-4.29l5.62-20.6H540l5.84,20.6h-4.29l-1.06-3.92h-4.73Zm6.07-23.46-1.28,2.42-6.46-2.87,1.42-3Zm-2.73,8.91-1.31,6.74h2.62Z"/><path class="cls-3" d="M557.82,515.58h3.73v20.6h-3.73Z"/><path class="cls-3" d="M577,536.17h-3.4v-1.5a3.11,3.11,0,0,1-3.06,1.84c-2.84,0-5-2.56-5-8.24,0-5.34,1.75-8.24,5-8.24a3,3,0,0,1,3.06,1.95v-1.61H577Zm-7.71-7.88c0,3.48.78,4.48,2,4.48a1.63,1.63,0,0,0,1.47-.7c.47-.58.47-1.34.47-3.81s0-3.23-.47-3.81a1.63,1.63,0,0,0-1.47-.7c-1.25,0-2,1-2,4.51Z"/><path class="cls-3" d="M596.11,525c-.06-1.17-.53-1.78-1.67-1.78a1.19,1.19,0,0,0-1.34,1.22c0,1.34,1.78,1.45,3.56,2a4.52,4.52,0,0,1,3.56,4.84c0,3-2.34,5.18-5.59,5.18-3,0-5.43-1.67-5.76-5.4h3.73a2,2,0,0,0,2.14,2,1.41,1.41,0,0,0,1.53-1.59c0-1.36-1.78-1.5-3.56-2.09s-3.56-1.67-3.56-4.81c0-2.64,1.84-4.59,5.4-4.59s5.06,1.95,5.29,5Z"/><path class="cls-3" d="M614.31,536.17h-3.37V534.5c-.47,1.28-1.28,2-3.23,2-2.5,0-4.09-1.39-4.09-4.59V520.37h3.73v10.33c0,1.09.25,2.09,1.56,2.09,1,0,1.67-.5,1.67-1.84V520.37h3.73Z"/><path class="cls-3" d="M619,515.58h3.73v3.12H619Zm0,4.79h3.73v15.81H619Z"/><path class="cls-3" d="M627.88,523.87h-1.67v-3.51h1.67v-3h3.73v3h1.67v3.51h-1.67v12.3h-3.73Z"/><path class="cls-3" d="M639.46,529.61c0,1.56.42,3.4,2.09,3.4,1,0,1.67-.61,1.95-1.95h3.7a6.36,6.36,0,0,1-2.28,4.43,5.79,5.79,0,0,1-3.37,1c-4.15,0-6.1-3.67-6.1-8.24s1.95-8.24,6.1-8.24a5,5,0,0,1,4.59,2.53c1.17,2,1.25,4.62,1.17,7Zm4.12-3.17c0-.95-.14-3.34-2-3.34-1.31,0-2.14,1.11-2.14,3.34Z"/><path class="cls-3" d="M670.62,536.17h-3.39v-1.78a3,3,0,0,1-3.06,2.12c-2.84,0-5-2.56-5-8.24,0-5.34,1.75-8.24,5-8.24a2.78,2.78,0,0,1,2.76,1.67c0-.45,0-.89,0-1.34v-4.79h3.73Zm-7.71-7.88c0,3.48.78,4.48,2,4.48a1.63,1.63,0,0,0,1.48-.7c.47-.58.47-1.34.47-3.81s0-3.23-.47-3.81a1.63,1.63,0,0,0-1.48-.7c-1.25,0-2,1-2,4.51Z"/><path class="cls-3" d="M678.36,529.61c0,1.56.42,3.4,2.09,3.4,1,0,1.67-.61,1.95-1.95h3.7a6.36,6.36,0,0,1-2.28,4.43,5.79,5.79,0,0,1-3.37,1c-4.15,0-6.09-3.67-6.09-8.24s1.95-8.24,6.09-8.24a5,5,0,0,1,4.59,2.53c1.17,2,1.25,4.62,1.17,7Zm4.12-3.17c0-.95-.14-3.34-2-3.34-1.31,0-2.14,1.11-2.14,3.34Z"/><path class="cls-3" d="M699,520.37h3.51v1.84a2.92,2.92,0,0,1,3.23-2.17,3.51,3.51,0,0,1,2.25.7,2.68,2.68,0,0,1,.75,1,3.11,3.11,0,0,1,1-1.06,5,5,0,0,1,2.59-.67,4.45,4.45,0,0,1,3.59,1.53,5.2,5.2,0,0,1,1.14,3.37v11.24h-3.73V525.6a2,2,0,0,0-.39-1.42,1.56,1.56,0,0,0-1.25-.42,2.08,2.08,0,0,0-1.31.33,1.57,1.57,0,0,0-.5,1.28v10.8h-3.73V525.6a2,2,0,0,0-.39-1.42,1.55,1.55,0,0,0-1.25-.42,2.08,2.08,0,0,0-1.31.33,1.57,1.57,0,0,0-.5,1.28v10.8H699Z"/><path class="cls-3" d="M720.85,528.24c0-4.54,1.95-8.21,6.09-8.21s6.1,3.67,6.1,8.24-1.95,8.24-6.1,8.24-6.09-3.67-6.09-8.24Zm4,.06c0,3.7.83,4.7,2.2,4.7s2.09-1,2.09-4.73-.83-4.73-2.2-4.73-2.09,1-2.09,4.73Z"/><path class="cls-3" d="M736.62,520.37h3.23v1.5a3.3,3.3,0,0,1,3.37-1.84c2.5,0,4.09,1.39,4.09,4.59v11.55h-3.73V525.85c0-1.09-.25-2.09-1.56-2.09-1,0-1.67.5-1.67,1.84v10.58h-3.73Z"/><path class="cls-3" d="M774.72,528.19c0,4.7-2.62,8.38-7.46,8.38-4.51,0-7.46-3.48-7.46-10.69s2.95-10.69,7.46-10.69c5,0,7.51,3.76,7.46,8.54h-4.34c-.11-3.67-1.17-4.54-2.78-4.54-1.95,0-3.45,1.75-3.45,6.68s1.5,6.68,3.45,6.68c2.2,0,2.67-2.17,2.78-4.37Z"/><path class="cls-3" d="M778.72,515.58h5.93a7.33,7.33,0,0,1,6.37,3,12.56,12.56,0,0,1,2,7.26c0,5.62-2.78,10.3-8.27,10.3h-6.07Zm4.23,16.7h1.84c3.42,0,3.92-4.23,3.92-6.4a9.61,9.61,0,0,0-.95-4.68,3.23,3.23,0,0,0-3.12-1.73H783Z"/><path class="cls-3" d="M796.84,515.58h5.93a7.33,7.33,0,0,1,6.37,3,12.56,12.56,0,0,1,2,7.26c0,5.62-2.78,10.3-8.27,10.3h-6.07Zm4.23,16.7h1.84c3.42,0,3.92-4.23,3.92-6.4a9.61,9.61,0,0,0-.95-4.68,3.23,3.23,0,0,0-3.12-1.73h-1.7Z"/><path class="cls-3" d="M815.73,539h-2.95l2-7h3.51Z"/><path class="cls-3" d="M833,537c0,3-1.5,4.51-4.23,4.51h-1.11V538h.22c1,0,1.39-.5,1.39-1.61v-16H833Zm-3.73-21.43H833v3.12h-3.73Z"/><path class="cls-3" d="M838.55,515.58h4l-3,7h-3.34Z"/><path class="cls-3" d="M855.75,536.17h-3.4v-1.5a3.11,3.11,0,0,1-3.06,1.84c-2.84,0-5-2.56-5-8.24,0-5.34,1.75-8.24,5-8.24a3,3,0,0,1,3.06,1.95v-1.61h3.4ZM848,528.3c0,3.48.78,4.48,2,4.48a1.63,1.63,0,0,0,1.47-.7c.47-.58.47-1.34.47-3.81s0-3.23-.47-3.81a1.63,1.63,0,0,0-1.47-.7c-1.25,0-2,1-2,4.51Z"/><path class="cls-3" d="M860.47,515.58h3.73v3.12h-3.73Zm0,4.79h3.73v15.81h-3.73Z"/><path class="cls-3" d="M877.78,520.37h3.4v1.5a3.16,3.16,0,0,1,3.06-1.84c2.84,0,5,2.56,5,8.24,0,5.34-1.75,8.24-5,8.24a3,3,0,0,1-2.73-1.5v6.18h-3.73Zm7.71,7.88c0-3.48-.72-4.48-2-4.48a1.56,1.56,0,0,0-1.36.7c-.47.58-.58,1.34-.58,3.81s.11,3.23.58,3.81a1.56,1.56,0,0,0,1.36.7c1.31,0,2-1,2-4.51Z"/><path class="cls-3" d="M892.8,520.37h3.4v2.06c.56-2,1.95-2.39,4-2.39v4.59a2.81,2.81,0,0,0-1.64-.47c-1.39,0-2,1.17-2,2.78v9.24H892.8Z"/><path class="cls-3" d="M903.57,515.58h3.73v3.12h-3.73Zm0,4.79h3.73v15.81h-3.73Z"/><path class="cls-3" d="M918,525c-.05-1.17-.53-1.78-1.67-1.78a1.19,1.19,0,0,0-1.34,1.22c0,1.34,1.78,1.45,3.56,2a4.52,4.52,0,0,1,3.56,4.84c0,3-2.34,5.18-5.59,5.18-3,0-5.43-1.67-5.76-5.4h3.73a2,2,0,0,0,2.14,2,1.41,1.41,0,0,0,1.53-1.59c0-1.36-1.78-1.5-3.56-2.09s-3.56-1.67-3.56-4.81c0-2.64,1.84-4.59,5.4-4.59s5.07,1.95,5.29,5Z"/><path class="cls-3" d="M945,536.17h-3.37V534.5c-.47,1.28-1.28,2-3.23,2-2.5,0-4.09-1.39-4.09-4.59V520.37h3.73v10.33c0,1.09.25,2.09,1.56,2.09,1,0,1.67-.5,1.67-1.84V520.37H945Z"/><path class="cls-3" d="M949.37,520.37h3.23v1.5A3.3,3.3,0,0,1,956,520c2.5,0,4.09,1.39,4.09,4.59v11.55h-3.73V525.85c0-1.09-.25-2.09-1.56-2.09-1,0-1.67.5-1.67,1.84v10.58h-3.73Z"/><path class="cls-3" d="M967.79,529.61c0,1.56.42,3.4,2.09,3.4,1,0,1.67-.61,1.95-1.95h3.7a6.36,6.36,0,0,1-2.28,4.43,5.79,5.79,0,0,1-3.37,1c-4.15,0-6.1-3.67-6.1-8.24s1.95-8.24,6.1-8.24a5,5,0,0,1,4.59,2.53c1.17,2,1.25,4.62,1.17,7Zm4.12-3.17c0-.95-.14-3.34-2-3.34-1.31,0-2.14,1.11-2.14,3.34Z"/><path class="cls-3" d="M999,536.17h-3.4v-1.5a3.12,3.12,0,0,1-3.06,1.84c-2.84,0-5-2.56-5-8.24,0-5.34,1.75-8.24,5-8.24a3,3,0,0,1,3.06,1.95v-1.61H999Zm-7.71-7.88c0,3.48.78,4.48,2,4.48a1.63,1.63,0,0,0,1.47-.7c.47-.58.47-1.34.47-3.81s0-3.23-.47-3.81a1.63,1.63,0,0,0-1.47-.7c-1.25,0-2,1-2,4.51Z"/><path class="cls-3" d="M1003.3,520.37h3.23v1.5a3.3,3.3,0,0,1,3.37-1.84c2.51,0,4.09,1.39,4.09,4.59v11.55h-3.73V525.85c0-1.09-.25-2.09-1.56-2.09-1,0-1.67.5-1.67,1.84v10.58h-3.73Z"/><path class="cls-3" d="M1018.32,520.37h3.23v1.5a3.3,3.3,0,0,1,3.37-1.84c2.51,0,4.09,1.39,4.09,4.59v11.55h-3.73V525.85c0-1.09-.25-2.09-1.56-2.09-1,0-1.67.5-1.67,1.84v10.58h-3.73Z"/><path class="cls-3" d="M1036.75,529.61c0,1.56.42,3.4,2.09,3.4,1,0,1.67-.61,1.95-1.95h3.7a6.36,6.36,0,0,1-2.28,4.43,5.79,5.79,0,0,1-3.37,1c-4.15,0-6.09-3.67-6.09-8.24s1.95-8.24,6.09-8.24a5,5,0,0,1,4.59,2.53c1.17,2,1.25,4.62,1.17,7Zm5.59-15.95,1.42,3-6.46,2.87-1.28-2.42Zm-1.47,12.77c0-.95-.14-3.34-2-3.34-1.31,0-2.14,1.11-2.14,3.34Z"/><path class="cls-3" d="M1051.77,529.61c0,1.56.42,3.4,2.09,3.4,1,0,1.67-.61,1.95-1.95h3.7a6.36,6.36,0,0,1-2.28,4.43,5.79,5.79,0,0,1-3.37,1c-4.15,0-6.09-3.67-6.09-8.24s1.95-8.24,6.09-8.24a5,5,0,0,1,4.59,2.53c1.17,2,1.25,4.62,1.17,7Zm4.12-3.17c0-.95-.14-3.34-2-3.34-1.31,0-2.14,1.11-2.14,3.34Z"/><path class="cls-3" d="M1078.2,525c-.05-1.17-.53-1.78-1.67-1.78a1.19,1.19,0,0,0-1.34,1.22c0,1.34,1.78,1.45,3.56,2a4.52,4.52,0,0,1,3.56,4.84c0,3-2.34,5.18-5.59,5.18-3,0-5.43-1.67-5.76-5.4h3.73a2,2,0,0,0,2.14,2,1.41,1.41,0,0,0,1.53-1.59c0-1.36-1.78-1.5-3.56-2.09s-3.56-1.67-3.56-4.81c0-2.64,1.84-4.59,5.4-4.59s5.07,1.95,5.29,5Z"/><path class="cls-3" d="M1096.4,536.17H1093v-1.5a3.12,3.12,0,0,1-3.06,1.84c-2.84,0-5-2.56-5-8.24,0-5.34,1.75-8.24,5-8.24A3,3,0,0,1,1093,522v-1.61h3.4Zm-7.71-7.88c0,3.48.78,4.48,2,4.48a1.63,1.63,0,0,0,1.47-.7c.47-.58.47-1.34.47-3.81s0-3.23-.47-3.81a1.63,1.63,0,0,0-1.47-.7c-1.25,0-2,1-2,4.51Z"/><path class="cls-3" d="M1100.74,515.58h3.73v6.29a2.64,2.64,0,0,1,2.73-1.84c3.23,0,5,2.89,5,8.24,0,5.68-2.14,8.24-5,8.24a3.09,3.09,0,0,1-3.06-1.89v1.56h-3.4Zm7.71,12.66c0-3-.56-4.48-2-4.48-2,0-2,2.14-2,4.51s0,4.51,2,4.51c1.42,0,2-1.45,2-4.51Z"/><path class="cls-3" d="M1115.77,515.58h3.73v6.29a2.64,2.64,0,0,1,2.73-1.84c3.23,0,5,2.89,5,8.24,0,5.68-2.14,8.24-5,8.24a3.09,3.09,0,0,1-3.06-1.89v1.56h-3.4Zm7.71,12.66c0-3-.56-4.48-2-4.48-2,0-2,2.14-2,4.51s0,4.51,2,4.51c1.42,0,2-1.45,2-4.51Z"/><path class="cls-3" d="M1141.48,536.17h-3.39v-1.5a3.12,3.12,0,0,1-3.06,1.84c-2.84,0-5-2.56-5-8.24,0-5.34,1.75-8.24,5-8.24a3,3,0,0,1,3.06,1.95v-1.61h3.39Zm-7.71-7.88c0,3.48.78,4.48,2,4.48a1.63,1.63,0,0,0,1.48-.7c.47-.58.47-1.34.47-3.81s0-3.23-.47-3.81a1.63,1.63,0,0,0-1.48-.7c-1.25,0-2,1-2,4.51Z"/><path class="cls-3" d="M1146.21,523.87h-1.67v-3.51h1.67v-3h3.73v3h1.67v3.51h-1.67v12.3h-3.73Z"/><path class="cls-3" d="M1155.06,515.58h3.73v3.12h-3.73Zm0,4.79h3.73v15.81h-3.73Z"/><path class="cls-3" d="M1174.2,541.18h-3.73v-5c0-.45,0-.89,0-1.36a2.77,2.77,0,0,1-2.76,1.7c-3.23,0-5-2.89-5-8.24,0-5.68,2.14-8.24,5-8.24,1.47,0,2.76.81,3,1.84v-1.5h3.51Zm-7.71-12.89c0,3.48.78,4.48,2,4.48a1.63,1.63,0,0,0,1.47-.7c.47-.58.47-1.34.47-3.81s0-3.23-.47-3.81a1.63,1.63,0,0,0-1.47-.7c-1.25,0-2,1-2,4.51Z"/><path class="cls-3" d="M1189.23,536.17h-3.37V534.5c-.47,1.28-1.28,2-3.23,2-2.5,0-4.09-1.39-4.09-4.59V520.37h3.73v10.33c0,1.09.25,2.09,1.56,2.09,1,0,1.67-.5,1.67-1.84V520.37h3.73Z"/><path class="cls-3" d="M1197,529.61c0,1.56.42,3.4,2.09,3.4,1,0,1.67-.61,1.95-1.95h3.7a6.36,6.36,0,0,1-2.28,4.43,5.79,5.79,0,0,1-3.37,1c-4.15,0-6.09-3.67-6.09-8.24S1194.9,520,1199,520a5,5,0,0,1,4.59,2.53c1.17,2,1.25,4.62,1.17,7Zm4.12-3.17c0-.95-.14-3.34-2-3.34-1.31,0-2.14,1.11-2.14,3.34Z"/><path class="cls-3" d="M1217.44,520.37h3.39v1.5a3.16,3.16,0,0,1,3.06-1.84c2.84,0,5,2.56,5,8.24,0,5.34-1.75,8.24-5,8.24a3,3,0,0,1-2.73-1.5v6.18h-3.73Zm7.71,7.88c0-3.48-.72-4.48-2-4.48a1.56,1.56,0,0,0-1.36.7c-.47.58-.58,1.34-.58,3.81s.11,3.23.58,3.81a1.56,1.56,0,0,0,1.36.7c1.31,0,2-1,2-4.51Z"/><path class="cls-3" d="M1231.71,528.24c0-4.54,1.95-8.21,6.1-8.21s6.09,3.67,6.09,8.24-1.95,8.24-6.09,8.24-6.1-3.67-6.1-8.24Zm4,.06c0,3.7.83,4.7,2.2,4.7s2.09-1,2.09-4.73-.83-4.73-2.2-4.73-2.09,1-2.09,4.73Z"/><path class="cls-3" d="M1258.18,536.17h-3.37V534.5c-.47,1.28-1.28,2-3.23,2-2.51,0-4.09-1.39-4.09-4.59V520.37h3.73v10.33c0,1.09.25,2.09,1.56,2.09,1,0,1.67-.5,1.67-1.84V520.37h3.73Z"/><path class="cls-3" d="M1262.52,520.37h3.4v2.06c.56-2,1.95-2.39,4-2.39v4.59a2.8,2.8,0,0,0-1.64-.47c-1.39,0-2,1.17-2,2.78v9.24h-3.73Z"/><path class="cls-3" d="M1288.23,536.17h-3.4l-4.56-15.81h3.79l2.42,10.13,2.09-10.13h3.79Z"/><path class="cls-3" d="M1294.18,528.24c0-4.54,1.95-8.21,6.1-8.21s6.09,3.67,6.09,8.24-1.95,8.24-6.09,8.24-6.1-3.67-6.1-8.24Zm4,.06c0,3.7.83,4.7,2.2,4.7s2.09-1,2.09-4.73-.83-4.73-2.2-4.73-2.09,1-2.09,4.73Z"/><path class="cls-3" d="M1312.44,535.23l-4.29-14.86h3.9l2.28,9.13,2.12-9.13h3.9l-6,20.82h-3.79Z"/><path class="cls-3" d="M1333.28,536.17h-3.4v-1.5a3.12,3.12,0,0,1-3.06,1.84c-2.84,0-5-2.56-5-8.24,0-5.34,1.75-8.24,5-8.24a3,3,0,0,1,3.06,1.95v-1.61h3.4Zm-7.71-7.88c0,3.48.78,4.48,2,4.48a1.63,1.63,0,0,0,1.47-.7c.47-.58.47-1.34.47-3.81s0-3.23-.47-3.81a1.63,1.63,0,0,0-1.47-.7c-1.25,0-2,1-2,4.51Z"/><path class="cls-3" d="M1348.3,536a5.49,5.49,0,0,1-1.47,4,5.84,5.84,0,0,1-4.26,1.48,5.23,5.23,0,0,1-5.46-4.4h3.9a1.45,1.45,0,0,0,.53.67,2,2,0,0,0,1,.22c1.67,0,2-1,2.09-2.39a8.23,8.23,0,0,0,0-.83c-.39,1.17-1.22,1.73-2.78,1.73-3.51,0-5-2.89-5-8.24s1.48-8.24,5-8.24a3.34,3.34,0,0,1,3.29,1.89v-1.56h3.17Zm-7.71-7.71c0,3.48.78,4.48,2,4.48a1.63,1.63,0,0,0,1.48-.7c.47-.58.47-1.34.47-3.81s0-3.23-.47-3.81a1.63,1.63,0,0,0-1.48-.7c-1.25,0-2,1-2,4.51Z"/><path class="cls-3" d="M1356,529.61c0,1.56.42,3.4,2.09,3.4,1,0,1.67-.61,1.95-1.95h3.7a6.36,6.36,0,0,1-2.28,4.43,5.79,5.79,0,0,1-3.37,1c-4.15,0-6.09-3.67-6.09-8.24s1.95-8.24,6.09-8.24a5,5,0,0,1,4.59,2.53c1.17,2,1.25,4.62,1.17,7Zm4.12-3.17c0-.95-.14-3.34-2-3.34-1.31,0-2.14,1.11-2.14,3.34Z"/><path class="cls-3" d="M1367.67,520.37h3.4v2.06c.56-2,1.95-2.39,4-2.39v4.59a2.81,2.81,0,0,0-1.64-.47c-1.39,0-2,1.17-2,2.78v9.24h-3.73Z"/><path class="cls-3" d="M1390.29,529.61c0,1.56.42,3.4,2.09,3.4,1,0,1.67-.61,1.95-1.95h3.7a6.36,6.36,0,0,1-2.28,4.43,5.79,5.79,0,0,1-3.37,1c-4.15,0-6.1-3.67-6.1-8.24s1.95-8.24,6.1-8.24a5,5,0,0,1,4.59,2.53c1.17,2,1.25,4.62,1.17,7Zm4.12-3.17c0-.95-.14-3.34-2-3.34-1.31,0-2.14,1.11-2.14,3.34Z"/><path class="cls-3" d="M1401.92,520.37h3.23v1.5a3.3,3.3,0,0,1,3.37-1.84c2.5,0,4.09,1.39,4.09,4.59v11.55h-3.73V525.85c0-1.09-.25-2.09-1.56-2.09-1,0-1.67.5-1.67,1.84v10.58h-3.73Z"/><path class="cls-3" d="M1426.57,536.17h-4.29l5.62-20.6h3.9l5.84,20.6h-4.29l-1.06-3.92h-4.73Zm3.34-14.56-1.31,6.74h2.62Z"/><path class="cls-3" d="M1446.39,525c-.05-1.17-.53-1.78-1.67-1.78a1.19,1.19,0,0,0-1.34,1.22c0,1.34,1.78,1.45,3.56,2a4.52,4.52,0,0,1,3.56,4.84c0,3-2.34,5.18-5.59,5.18-3,0-5.43-1.67-5.76-5.4h3.73a2,2,0,0,0,2.14,2,1.41,1.41,0,0,0,1.53-1.59c0-1.36-1.78-1.5-3.56-2.09s-3.56-1.67-3.56-4.81c0-2.64,1.84-4.59,5.4-4.59s5.07,1.95,5.29,5Z"/><path class="cls-3" d="M1454.29,515.58H1458v3.12h-3.73Zm0,4.79H1458v15.81h-3.73Z"/><path class="cls-3" d="M1466.14,529.61c0,1.56.42,3.4,2.09,3.4,1,0,1.67-.61,1.95-1.95h3.7a6.36,6.36,0,0,1-2.28,4.43,5.79,5.79,0,0,1-3.37,1c-4.15,0-6.09-3.67-6.09-8.24s1.95-8.24,6.09-8.24a5,5,0,0,1,4.59,2.53c1.17,2,1.25,4.62,1.17,7Zm4.12-3.17c0-.95-.14-3.34-2-3.34-1.31,0-2.14,1.11-2.14,3.34Z"/><path class="cls-3" d="M1481.61,536.17h-3.73v-4.12h3.73Z"/><path class="cls-3" d="M535.56,642.5c.06,2.14.78,3.15,2.62,3.15a2.22,2.22,0,0,0,2.39-2.45c0-1.86-2.23-2.31-4.45-3.17s-4.45-2.17-4.45-5.65c0-3.9,2.39-6.4,6.32-6.4s5.93,1.84,6.54,5.9H540.4a2.19,2.19,0,0,0-2.25-2.39,2.1,2.1,0,0,0-2.14,2.25c0,1.95,2.23,2.31,4.45,3.2s4.45,2.28,4.45,6.21-2.89,6.23-6.82,6.23c-4.7,0-6.76-2.53-6.76-6.87Z"/><path class="cls-3" d="M552,642.42c0,1.56.42,3.4,2.09,3.4,1,0,1.67-.61,1.95-1.95h3.7a6.36,6.36,0,0,1-2.28,4.43,5.79,5.79,0,0,1-3.37,1c-4.15,0-6.09-3.67-6.09-8.24s1.95-8.24,6.09-8.24a5,5,0,0,1,4.59,2.53c1.17,2,1.25,4.62,1.17,7Zm4.12-3.17c0-.95-.14-3.34-2-3.34-1.31,0-2.14,1.11-2.14,3.34Z"/><path class="cls-3" d="M563.61,633.18H567v1.5a3.16,3.16,0,0,1,3.06-1.84c2.84,0,5,2.56,5,8.24,0,5.34-1.75,8.24-5,8.24a3,3,0,0,1-2.73-1.5V654h-3.73Zm7.71,7.88c0-3.48-.72-4.48-2-4.48a1.56,1.56,0,0,0-1.36.7c-.47.58-.58,1.34-.58,3.81s.11,3.23.58,3.81a1.56,1.56,0,0,0,1.36.7c1.31,0,2-1,2-4.51Z"/><path class="cls-3" d="M579,636.68h-1.67v-3.51H579v-3h3.73v3h1.67v3.51h-1.67V649H579Z"/><path class="cls-3" d="M590.6,642.42c0,1.56.42,3.4,2.09,3.4,1,0,1.67-.61,1.95-1.95h3.7a6.36,6.36,0,0,1-2.28,4.43,5.79,5.79,0,0,1-3.37,1c-4.15,0-6.09-3.67-6.09-8.24s1.95-8.24,6.09-8.24a5,5,0,0,1,4.59,2.53c1.17,2,1.25,4.62,1.17,7Zm4.12-3.17c0-.95-.14-3.34-2-3.34-1.31,0-2.14,1.11-2.14,3.34Z"/><path class="cls-3" d="M602.4,633.18h3.51V635a2.92,2.92,0,0,1,3.23-2.17,3.52,3.52,0,0,1,2.25.7,2.68,2.68,0,0,1,.75,1,3.13,3.13,0,0,1,1-1.06,5,5,0,0,1,2.59-.67,4.45,4.45,0,0,1,3.59,1.53,5.2,5.2,0,0,1,1.14,3.37V649h-3.73V638.41a2,2,0,0,0-.39-1.42,1.55,1.55,0,0,0-1.25-.42,2.08,2.08,0,0,0-1.31.33,1.57,1.57,0,0,0-.5,1.28V649h-3.73V638.41a2,2,0,0,0-.39-1.42,1.56,1.56,0,0,0-1.25-.42,2.08,2.08,0,0,0-1.31.33,1.57,1.57,0,0,0-.5,1.28V649H602.4Z"/><path class="cls-3" d="M625,628.39h3.73v6.29a2.64,2.64,0,0,1,2.73-1.84c3.23,0,5,2.89,5,8.24,0,5.68-2.14,8.24-5,8.24a3.09,3.09,0,0,1-3.06-1.89V649H625Zm7.71,12.66c0-3-.56-4.48-2-4.48-2,0-2,2.14-2,4.51s0,4.51,2,4.51c1.42,0,2-1.45,2-4.51Z"/><path class="cls-3" d="M640,633.18h3.4v2.06c.56-2,1.95-2.39,4-2.39v4.59a2.8,2.8,0,0,0-1.64-.47c-1.39,0-2,1.17-2,2.78V649H640Z"/><path class="cls-3" d="M653.37,642.42c0,1.56.42,3.4,2.09,3.4,1,0,1.67-.61,1.95-1.95h3.7a6.36,6.36,0,0,1-2.28,4.43,5.79,5.79,0,0,1-3.37,1c-4.15,0-6.09-3.67-6.09-8.24s1.95-8.24,6.09-8.24a5,5,0,0,1,4.59,2.53c1.17,2,1.25,4.62,1.17,7Zm4.12-3.17c0-.95-.14-3.34-2-3.34-1.31,0-2.14,1.11-2.14,3.34Z"/><path class="cls-3" d="M673.68,644.87c2.51-2.5,4.23-4.4,5.46-5.62,2.42-2.45,2.73-3.34,2.73-4.59a2.12,2.12,0,0,0-2-2.37c-.95,0-2.14.45-2.14,2.78h-4.23a7.24,7.24,0,0,1,1.84-5.32,6.19,6.19,0,0,1,4.56-1.7c3.7,0,6.35,2.73,6.35,6.68a7.43,7.43,0,0,1-1.39,4.54,70.26,70.26,0,0,1-5.57,5.82h7V649H673.68Z"/><path class="cls-3" d="M690.1,635.07c0-4.45,2.62-7,6.46-7s6.46,2.56,6.46,7v7.24c0,4.45-2.62,7-6.46,7s-6.46-2.56-6.46-7Zm4,7c0,2.37,1,3.45,2.51,3.45s2.5-1.09,2.5-3.45v-6.68c0-2.37-1-3.45-2.5-3.45s-2.51,1.09-2.51,3.45Z"/><path class="cls-3" d="M706.68,635.07c0-4.45,2.62-7,6.46-7s6.46,2.56,6.46,7v7.24c0,4.45-2.62,7-6.46,7s-6.46-2.56-6.46-7Zm4,7c0,2.37,1,3.45,2.5,3.45s2.5-1.09,2.5-3.45v-6.68c0-2.37-1-3.45-2.5-3.45s-2.5,1.09-2.5,3.45Z"/><path class="cls-3" d="M728.22,632.12h-3.06v-3.73h7V649h-4Z"/><path class="cls-3" d="M755.52,639.24v3.62h-6.93v-3.62Z"/><path class="cls-3" d="M771.82,642.5c.05,2.14.78,3.15,2.62,3.15a2.22,2.22,0,0,0,2.39-2.45c0-1.86-2.23-2.31-4.45-3.17s-4.45-2.17-4.45-5.65c0-3.9,2.39-6.4,6.32-6.4s5.93,1.84,6.54,5.9h-4.12a2.19,2.19,0,0,0-2.25-2.39,2.1,2.1,0,0,0-2.14,2.25c0,1.95,2.23,2.31,4.45,3.2s4.45,2.28,4.45,6.21-2.89,6.23-6.82,6.23c-4.7,0-6.76-2.53-6.76-6.87Z"/><path class="cls-3" d="M788.24,642.42c0,1.56.42,3.4,2.09,3.4,1,0,1.67-.61,1.95-1.95H796a6.36,6.36,0,0,1-2.28,4.43,5.79,5.79,0,0,1-3.37,1c-4.15,0-6.1-3.67-6.1-8.24s1.95-8.24,6.1-8.24a5,5,0,0,1,4.59,2.53c1.17,2,1.25,4.62,1.17,7Zm4.12-3.17c0-.95-.14-3.34-2-3.34-1.31,0-2.14,1.11-2.14,3.34Z"/><path class="cls-3" d="M799.87,633.18h3.39v1.5a3.16,3.16,0,0,1,3.06-1.84c2.84,0,5,2.56,5,8.24,0,5.34-1.75,8.24-5,8.24a3,3,0,0,1-2.73-1.5V654h-3.73Zm7.71,7.88c0-3.48-.72-4.48-2-4.48a1.56,1.56,0,0,0-1.36.7c-.47.58-.58,1.34-.58,3.81s.11,3.23.58,3.81a1.56,1.56,0,0,0,1.36.7c1.31,0,2-1,2-4.51Z"/><path class="cls-3" d="M815.28,636.68h-1.67v-3.51h1.67v-3H819v3h1.67v3.51H819V649h-3.73Z"/><path class="cls-3" d="M826.86,642.42c0,1.56.42,3.4,2.09,3.4,1,0,1.67-.61,1.95-1.95h3.7a6.36,6.36,0,0,1-2.28,4.43,5.79,5.79,0,0,1-3.37,1c-4.15,0-6.1-3.67-6.1-8.24s1.95-8.24,6.1-8.24a5,5,0,0,1,4.59,2.53c1.17,2,1.25,4.62,1.17,7Zm4.12-3.17c0-.95-.14-3.34-2-3.34-1.31,0-2.14,1.11-2.14,3.34Z"/><path class="cls-3" d="M838.66,633.18h3.51V635a2.92,2.92,0,0,1,3.23-2.17,3.51,3.51,0,0,1,2.25.7,2.68,2.68,0,0,1,.75,1,3.11,3.11,0,0,1,1-1.06,5,5,0,0,1,2.59-.67,4.45,4.45,0,0,1,3.59,1.53,5.2,5.2,0,0,1,1.14,3.37V649H853V638.41a2,2,0,0,0-.39-1.42,1.56,1.56,0,0,0-1.25-.42,2.08,2.08,0,0,0-1.31.33,1.57,1.57,0,0,0-.5,1.28V649h-3.73V638.41a2,2,0,0,0-.39-1.42,1.55,1.55,0,0,0-1.25-.42,2.08,2.08,0,0,0-1.31.33,1.57,1.57,0,0,0-.5,1.28V649h-3.73Z"/><path class="cls-3" d="M861.25,628.39H865v6.29a2.64,2.64,0,0,1,2.73-1.84c3.23,0,5,2.89,5,8.24,0,5.68-2.14,8.24-5,8.24a3.09,3.09,0,0,1-3.06-1.89V649h-3.4ZM869,641.05c0-3-.56-4.48-2-4.48-2,0-2,2.14-2,4.51s0,4.51,2,4.51c1.42,0,2-1.45,2-4.51Z"/><path class="cls-3" d="M876.28,633.18h3.4v2.06c.56-2,1.95-2.39,4-2.39v4.59A2.81,2.81,0,0,0,882,637c-1.39,0-2,1.17-2,2.78V649h-3.73Z"/><path class="cls-3" d="M889.63,642.42c0,1.56.42,3.4,2.09,3.4,1,0,1.67-.61,1.95-1.95h3.7a6.36,6.36,0,0,1-2.28,4.43,5.79,5.79,0,0,1-3.37,1c-4.15,0-6.09-3.67-6.09-8.24s1.95-8.24,6.09-8.24a5,5,0,0,1,4.59,2.53c1.17,2,1.25,4.62,1.17,7Zm4.12-3.17c0-.95-.14-3.34-2-3.34-1.31,0-2.14,1.11-2.14,3.34Z"/><path class="cls-3" d="M909.95,644.87c2.5-2.5,4.23-4.4,5.46-5.62,2.42-2.45,2.73-3.34,2.73-4.59a2.12,2.12,0,0,0-2-2.37c-.95,0-2.14.45-2.14,2.78h-4.23a7.25,7.25,0,0,1,1.84-5.32,6.19,6.19,0,0,1,4.56-1.7c3.7,0,6.35,2.73,6.35,6.68a7.44,7.44,0,0,1-1.39,4.54,70.42,70.42,0,0,1-5.57,5.82h7V649H909.95Z"/><path class="cls-3" d="M926.36,635.07c0-4.45,2.62-7,6.46-7s6.46,2.56,6.46,7v7.24c0,4.45-2.62,7-6.46,7s-6.46-2.56-6.46-7Zm4,7c0,2.37,1,3.45,2.5,3.45s2.5-1.09,2.5-3.45v-6.68c0-2.37-1-3.45-2.5-3.45s-2.5,1.09-2.5,3.45Z"/><path class="cls-3" d="M942.95,635.07c0-4.45,2.62-7,6.46-7s6.46,2.56,6.46,7v7.24c0,4.45-2.62,7-6.46,7s-6.46-2.56-6.46-7Zm4,7c0,2.37,1,3.45,2.51,3.45s2.5-1.09,2.5-3.45v-6.68c0-2.37-1-3.45-2.5-3.45s-2.51,1.09-2.51,3.45Z"/><path class="cls-3" d="M959.7,644.87c2.51-2.5,4.23-4.4,5.46-5.62,2.42-2.45,2.73-3.34,2.73-4.59a2.12,2.12,0,0,0-2-2.37c-.95,0-2.14.45-2.14,2.78h-4.23a7.24,7.24,0,0,1,1.84-5.32,6.19,6.19,0,0,1,4.56-1.7c3.7,0,6.35,2.73,6.35,6.68a7.43,7.43,0,0,1-1.39,4.54,70.26,70.26,0,0,1-5.57,5.82h7V649H959.7Z"/><path class="cls-3" d="M991.78,639.24v3.62h-6.93v-3.62Z"/><path class="cls-3" d="M1003.07,628.39h3.34l4,15.53,4-15.53h3.23L1011.9,649h-3.06Z"/><path class="cls-3" d="M1018.74,641.19c0-4.45,1.89-8.1,6-8.1s6,3.65,6,8.13-1.89,8.1-6,8.1-6-3.65-6-8.1Zm3.17.06c0,3.81,1,5.26,2.87,5.26s2.78-1.45,2.78-5.29-1-5.29-2.87-5.29-2.78,1.42-2.78,5.29Z"/><path class="cls-3" d="M1036.94,648.26l-4.31-14.83h3.14l2.7,10.27,2.67-10.27h3.15l-6.21,20.79H1035Z"/><path class="cls-3" d="M1057.14,649h-2.75c0-.83,0-1.45,0-2a3.51,3.51,0,0,1-3.42,2.37c-2.92,0-5-2.78-5-8.1,0-5.09,1.81-8.13,5-8.13a3.4,3.4,0,0,1,3.42,2.45c0-.7,0-1.34,0-2.12h2.75Zm-8.18-7.74c0,3.45.95,5.09,2.62,5.09a2.09,2.09,0,0,0,1.92-1.09c.56-.75.64-1.75.64-4s-.08-3.31-.64-4.06a2.12,2.12,0,0,0-1.92-1.06c-1.67,0-2.62,1.61-2.62,5.12Z"/><path class="cls-3" d="M1072.05,648.76a5.87,5.87,0,0,1-1.39,4.23,5.44,5.44,0,0,1-4.17,1.56,5.12,5.12,0,0,1-5.34-4.54h3.15a2,2,0,0,0,.64,1.22,2.31,2.31,0,0,0,1.59.5c1.64,0,2.56-.92,2.59-3.15V647a3,3,0,0,1-3.2,2.28c-3.42,0-5-3-5-8.1s1.61-8.13,5-8.13a3.59,3.59,0,0,1,3.59,2.42c0-.67,0-1.34,0-2.09h2.59Zm-8.18-7.51c0,3.45.95,5.09,2.62,5.09a2.09,2.09,0,0,0,1.92-1.09c.56-.75.64-1.75.64-4s-.08-3.31-.64-4.06a2.12,2.12,0,0,0-1.92-1.06c-1.67,0-2.62,1.61-2.62,5.12Z"/><path class="cls-3" d="M1079.12,642.25c0,2.17.75,4.26,2.75,4.26a2.55,2.55,0,0,0,2.5-2.37h3a6.33,6.33,0,0,1-2.12,4.09,5.58,5.58,0,0,1-3.37,1.09c-4.15,0-6-3.79-6-8.1,0-4.62,2-8.13,6-8.13a4.93,4.93,0,0,1,4.4,2.37c1.2,1.95,1.31,4.45,1.25,6.79Zm5.37-2.59c0-1.78-.64-4.06-2.64-4.06-1.64,0-2.73,1.53-2.73,4.06Z"/><path class="cls-3" d="M1110.2,649h-2.76c0-.83,0-1.45,0-2a3.51,3.51,0,0,1-3.42,2.37c-2.92,0-5-2.78-5-8.1,0-5.09,1.81-8.13,5-8.13a3.4,3.4,0,0,1,3.42,2.45c0-.7,0-1.34,0-2.12h2.76Zm-2.48-18.62-1,2-6.37-3,1.17-2.42ZM1102,641.25c0,3.45.95,5.09,2.62,5.09a2.09,2.09,0,0,0,1.92-1.09c.56-.75.64-1.75.64-4s-.08-3.31-.64-4.06a2.12,2.12,0,0,0-1.92-1.06c-1.67,0-2.62,1.61-2.62,5.12Z"/><path class="cls-3" d="M1123.69,636.27h-1.87v-2.84h1.87v-3.7h3v3.7h1.84v2.84h-1.84V649h-3Z"/><path class="cls-3" d="M1131.71,633.43h2.75c0,.95,0,1.73,0,2.5.64-2.37,2.25-2.84,4-2.84v3.65a2.25,2.25,0,0,0-1.28-.36c-1.36,0-2.48,1.34-2.48,3.81V649h-3Z"/><path class="cls-3" d="M1151.52,649h-2.75c0-.83,0-1.45,0-2a3.51,3.51,0,0,1-3.42,2.37c-2.92,0-5-2.78-5-8.1,0-5.09,1.81-8.13,5-8.13a3.4,3.4,0,0,1,3.42,2.45c0-.7,0-1.34,0-2.12h2.75Zm-8.18-7.74c0,3.45.95,5.09,2.62,5.09a2.09,2.09,0,0,0,1.92-1.09c.56-.75.64-1.75.64-4s-.08-3.31-.64-4.06a2.12,2.12,0,0,0-1.92-1.06c-1.67,0-2.62,1.61-2.62,5.12Z"/><path class="cls-3" d="M1161.79,649H1159l-4.59-15.56h3.06l2.87,11.1,2.64-11.1h3Z"/><path class="cls-3" d="M1171.25,642.25c0,2.17.75,4.26,2.76,4.26a2.55,2.55,0,0,0,2.5-2.37h3a6.33,6.33,0,0,1-2.12,4.09,5.57,5.57,0,0,1-3.37,1.09c-4.15,0-6-3.79-6-8.1,0-4.62,2-8.13,6-8.13a4.92,4.92,0,0,1,4.4,2.37c1.2,1.95,1.31,4.45,1.25,6.79Zm5.37-2.59c0-1.78-.64-4.06-2.64-4.06-1.64,0-2.73,1.53-2.73,4.06Z"/><path class="cls-3" d="M1183.46,633.43h2.76c0,.95,0,1.73,0,2.5.64-2.37,2.25-2.84,4-2.84v3.65a2.25,2.25,0,0,0-1.28-.36c-1.36,0-2.48,1.34-2.48,3.81V649h-3Z"/><path class="cls-3" d="M1199.27,637.82c0-1.48-.72-2.12-2-2.12a1.55,1.55,0,0,0-1.67,1.61c0,1.5,1.64,1.78,3.45,2.34s3.59,1.59,3.59,4.73a4.9,4.9,0,0,1-5.18,4.93c-2.92,0-5.12-1.64-5.37-5.15h3a2.32,2.32,0,0,0,2.42,2.42,1.82,1.82,0,0,0,1.95-2c0-1.56-1.61-1.92-3.48-2.53s-3.56-1.64-3.56-4.62c0-2.53,1.81-4.34,5-4.34s4.7,1.75,4.87,4.73Z"/><path class="cls-3" d="M1215.07,628.39h3V649h-3Z"/><path class="cls-3" d="M1224.09,628.39h3.2l-2.67,6.32h-2.75Z"/><path class="cls-3" d="M1232.35,649h-3.45l5.71-20.6h3.2l5.87,20.6h-3.45l-1.31-4.76h-5.29Zm3.9-15.84-1.78,8H1238Z"/><path class="cls-3" d="M1252.52,637.82c0-1.48-.72-2.12-2-2.12a1.55,1.55,0,0,0-1.67,1.61c0,1.5,1.64,1.78,3.45,2.34s3.59,1.59,3.59,4.73a4.9,4.9,0,0,1-5.18,4.93c-2.92,0-5.12-1.64-5.37-5.15h3a2.32,2.32,0,0,0,2.42,2.42,1.82,1.82,0,0,0,1.95-2c0-1.56-1.61-1.92-3.48-2.53s-3.56-1.64-3.56-4.62c0-2.53,1.81-4.34,5-4.34s4.7,1.75,4.87,4.73Z"/><path class="cls-3" d="M1259.87,628.39h3v3h-3Zm0,5h3V649h-3Z"/><path class="cls-3" d="M1270.27,642.25c0,2.17.75,4.26,2.76,4.26a2.55,2.55,0,0,0,2.5-2.37h3a6.33,6.33,0,0,1-2.12,4.09,5.57,5.57,0,0,1-3.37,1.09c-4.15,0-6-3.79-6-8.1,0-4.62,2-8.13,6-8.13a4.93,4.93,0,0,1,4.4,2.37c1.2,1.95,1.31,4.45,1.25,6.79Zm5.37-2.59c0-1.78-.64-4.06-2.64-4.06-1.64,0-2.73,1.53-2.73,4.06Z"/><path class="cls-3" d="M537.9,679.63v3h-6.54v-3Z"/><path class="cls-3" d="M550.42,668.39h9.88v3.15h-6.48v5.2h6.48v3.12h-6.48v6h6.48V689h-9.88Z"/><path class="cls-3" d="M567.67,680.94l-4-7.51h3.54l2.31,5.29,2.39-5.29h3.42l-4,7.51,4.43,8h-3.56l-2.7-5.79L566.89,689h-3.56Z"/><path class="cls-3" d="M578.69,673.43h2.75v2a3.41,3.41,0,0,1,3.4-2.37c2.92,0,5,2.78,5,8.13,0,5.07-1.81,8.1-5,8.1a3.31,3.31,0,0,1-3.15-2.12v7h-3Zm8.18,7.77c0-3.48-.92-5.09-2.62-5.09a2.08,2.08,0,0,0-1.84,1.06c-.56.75-.72,1.75-.72,4.06s.17,3.28.72,4a2.05,2.05,0,0,0,1.84,1.09c1.7,0,2.62-1.64,2.62-5.12Z"/><path class="cls-3" d="M596.16,682.25c0,2.17.75,4.26,2.76,4.26a2.55,2.55,0,0,0,2.5-2.37h3a6.33,6.33,0,0,1-2.12,4.09,5.57,5.57,0,0,1-3.37,1.09c-4.15,0-6-3.79-6-8.1,0-4.62,2-8.13,6-8.13a4.92,4.92,0,0,1,4.4,2.37c1.2,1.95,1.31,4.45,1.25,6.79Zm6-15.36,1.17,2.42-6.37,3-1.06-2Zm-.67,12.77c0-1.78-.64-4.06-2.64-4.06-1.64,0-2.73,1.53-2.73,4.06Z"/><path class="cls-3" d="M608.38,673.43h2.76c0,.95,0,1.73,0,2.5.64-2.37,2.25-2.84,4-2.84v3.65a2.25,2.25,0,0,0-1.28-.36c-1.36,0-2.48,1.34-2.48,3.81V689h-3Z"/><path class="cls-3" d="M618.51,668.39h3v3h-3Zm0,5h3V689h-3Z"/><path class="cls-3" d="M628.91,682.25c0,2.17.75,4.26,2.76,4.26a2.55,2.55,0,0,0,2.5-2.37h3a6.33,6.33,0,0,1-2.12,4.09,5.57,5.57,0,0,1-3.37,1.09c-4.15,0-6-3.79-6-8.1,0-4.62,2-8.13,6-8.13a4.93,4.93,0,0,1,4.4,2.37c1.2,1.95,1.31,4.45,1.25,6.79Zm5.37-2.59c0-1.78-.64-4.06-2.64-4.06-1.64,0-2.73,1.53-2.73,4.06Z"/><path class="cls-3" d="M641.13,673.43h2.64c0,.64,0,1.25,0,1.92a3.64,3.64,0,0,1,3.7-2.25c2.56,0,4.2,1.42,4.2,4.81V689h-3v-10.1c0-1.25-.25-2.78-2.09-2.78-1.45,0-2.42.89-2.42,2.92v10h-3Z"/><path class="cls-3" d="M666.28,683.31c-.11,3.17-1.75,6-5,6-3.87,0-6-3.26-6-8.1,0-5.15,2.34-8.13,6-8.13,3.31,0,5,2.81,5,6.07h-3.12c-.11-2.34-1-3.23-2.14-3.23a2,2,0,0,0-1.89,1.22,8.88,8.88,0,0,0-.7,4.06c0,3.73.95,5.29,2.62,5.29,1.39,0,2-1.36,2.14-3.2Z"/><path class="cls-3" d="M672.15,682.25c0,2.17.75,4.26,2.75,4.26a2.55,2.55,0,0,0,2.5-2.37h3a6.33,6.33,0,0,1-2.12,4.09,5.58,5.58,0,0,1-3.37,1.09c-4.15,0-6-3.79-6-8.1,0-4.62,2-8.13,6-8.13a4.93,4.93,0,0,1,4.4,2.37c1.2,1.95,1.31,4.45,1.25,6.79Zm5.37-2.59c0-1.78-.64-4.06-2.64-4.06-1.64,0-2.73,1.53-2.73,4.06Z"/><path class="cls-3" d="M692.82,668.39h3v4.79c0,.61,0,1.17,0,1.81.45-1.14,1.42-1.89,3.31-1.89a3.92,3.92,0,0,1,3.17,1.31,5.41,5.41,0,0,1,1.06,3.67V689h-3V679a3.62,3.62,0,0,0-.47-2.12,1.77,1.77,0,0,0-1.59-.75,2.16,2.16,0,0,0-1.78.72,3.11,3.11,0,0,0-.67,2.28V689h-3Z"/><path class="cls-3" d="M718.18,689h-2.75c0-.67,0-1.34,0-2.06a3.37,3.37,0,0,1-3.62,2.39c-2.53,0-4.17-1.42-4.17-4.81V673.43h3v10.1c0,1.25.25,2.81,2.09,2.81,1.42,0,2.42-.92,2.42-3v-10h3Z"/><path class="cls-3" d="M722.79,673.43h2.87c0,.7,0,1.36,0,2.09a3.24,3.24,0,0,1,3.45-2.42,3.43,3.43,0,0,1,2.42.83,3.05,3.05,0,0,1,.78,1.31,3.43,3.43,0,0,1,1.11-1.39,4.93,4.93,0,0,1,2.67-.75,4.18,4.18,0,0,1,3.56,1.7,6.26,6.26,0,0,1,1,3.67V689h-3V678.91a3.79,3.79,0,0,0-.36-1.95,1.73,1.73,0,0,0-1.67-.86,2.1,2.1,0,0,0-1.75.67,3.08,3.08,0,0,0-.61,2.06V689h-3v-10a4,4,0,0,0-.36-2,1.69,1.69,0,0,0-1.64-.86,2.19,2.19,0,0,0-1.75.64,3.24,3.24,0,0,0-.61,2.12V689h-3Z"/><path class="cls-3" d="M755.6,689h-2.75c0-.83,0-1.45,0-2a3.51,3.51,0,0,1-3.42,2.37c-2.92,0-5-2.78-5-8.1,0-5.09,1.81-8.13,5-8.13a3.4,3.4,0,0,1,3.42,2.45c0-.7,0-1.34,0-2.12h2.75Zm-8.18-7.74c0,3.45.95,5.09,2.62,5.09a2.09,2.09,0,0,0,1.92-1.09c.56-.75.64-1.75.64-4s-.08-3.31-.64-4.06A2.12,2.12,0,0,0,750,676.1c-1.67,0-2.62,1.61-2.62,5.12Z"/><path class="cls-3" d="M760.44,668.39h3v3h-3Zm0,5h3V689h-3Z"/><path class="cls-3" d="M768.28,673.43h2.64c0,.64,0,1.25,0,1.92a3.64,3.64,0,0,1,3.7-2.25c2.56,0,4.2,1.42,4.2,4.81V689h-3v-10.1c0-1.25-.25-2.78-2.09-2.78-1.45,0-2.42.89-2.42,2.92v10h-3Z"/><path class="cls-3" d="M785.84,682.25c0,2.17.75,4.26,2.75,4.26a2.55,2.55,0,0,0,2.5-2.37h3a6.33,6.33,0,0,1-2.12,4.09,5.58,5.58,0,0,1-3.37,1.09c-4.15,0-6-3.79-6-8.1,0-4.62,2-8.13,6-8.13a4.93,4.93,0,0,1,4.4,2.37c1.2,1.95,1.31,4.45,1.25,6.79Zm5.37-2.59c0-1.78-.64-4.06-2.64-4.06-1.64,0-2.73,1.53-2.73,4.06Z"/><path class="cls-3" d="M806.52,673.43h2.75c0,.95,0,1.73,0,2.5.64-2.37,2.25-2.84,4-2.84v3.65a2.25,2.25,0,0,0-1.28-.36c-1.36,0-2.48,1.34-2.48,3.81V689h-3Z"/><path class="cls-3" d="M816.64,668.39h3v3h-3Zm0,5h3V689h-3Z"/><path class="cls-3" d="M834.65,683.31c-.11,3.17-1.75,6-5,6-3.87,0-6-3.26-6-8.1,0-5.15,2.34-8.13,6-8.13,3.31,0,5,2.81,5,6.07H831.5c-.11-2.34-1-3.23-2.14-3.23a2,2,0,0,0-1.89,1.22,8.88,8.88,0,0,0-.7,4.06c0,3.73.95,5.29,2.62,5.29,1.39,0,2-1.36,2.14-3.2Z"/><path class="cls-3" d="M838,668.39h3v4.79c0,.61,0,1.17,0,1.81.45-1.14,1.42-1.89,3.31-1.89a3.92,3.92,0,0,1,3.17,1.31,5.41,5.41,0,0,1,1.06,3.67V689h-3V679a3.62,3.62,0,0,0-.47-2.12,1.77,1.77,0,0,0-1.59-.75,2.16,2.16,0,0,0-1.78.72,3.11,3.11,0,0,0-.67,2.28V689h-3Z"/><path class="cls-3" d="M855.51,682.25c0,2.17.75,4.26,2.76,4.26a2.55,2.55,0,0,0,2.5-2.37h3a6.33,6.33,0,0,1-2.12,4.09,5.57,5.57,0,0,1-3.37,1.09c-4.15,0-6-3.79-6-8.1,0-4.62,2-8.13,6-8.13a4.92,4.92,0,0,1,4.4,2.37c1.2,1.95,1.31,4.45,1.25,6.79Zm5.37-2.59c0-1.78-.64-4.06-2.64-4.06-1.64,0-2.73,1.53-2.73,4.06Z"/></g><g id="etapes_jeu2" data-name="etapes jeu2"><line class="cls-4" x1="555.81" y1="247.16" x2="556.31" y2="247.16"/><line class="cls-5" x1="571.26" y1="247.16" x2="1361.42" y2="247.16"/><line class="cls-4" x1="1368.89" y1="247.16" x2="1369.39" y2="247.16"/><circle class="cls-6" cx="689.29" cy="247.16" r="19.32"/><path class="cls-7" d="M690.85,234.73v20.37h3.21v3.38h-9.84v-3.38h3.21v-17h-3.21v-3.38Z"/><path class="cls-8" d="M689.29,227.84h-.15v38.63h.15a19.32,19.32,0,1,0,0-38.63Z"/><circle class="cls-6" cx="825.95" cy="247.16" r="19.32"/><path class="cls-7" d="M820.88,253.37a6.64,6.64,0,0,1,3.19-5.49q3.21-2.29,3.22-3.88v-4.66q0-1.61-1.48-1.61h0q-1.49,0-1.49,1.61v3.18h-3.42v-3.18q0-5,4.91-5t4.92,5v4.74a6.72,6.72,0,0,1-3.21,5.57q-3.21,2.29-3.21,4v1.43h6.41v3.38h-9.84Z"/><path class="cls-8" d="M825.95,227.84h-.15v38.63h.15a19.32,19.32,0,1,0,0-38.63Z"/><circle class="cls-6" cx="962.6" cy="247.16" r="19.32"/><path class="cls-7" d="M963.94,239.34q0-1.6-1.49-1.61h0q-1.48,0-1.48,1.61v3.18h-3.42v-3.18q0-5,4.91-5t4.92,5v4.13a3.41,3.41,0,0,1-1.88,3.3,3.41,3.41,0,0,1,1.88,3.3v3.79q0,5-4.92,5t-4.91-5v-3.18H961v3.18q0,1.61,1.48,1.61h0q1.49,0,1.49-1.61v-3.79q0-1.29-.54-1.54a2.49,2.49,0,0,0-.9-.12h-1.13V245h1.39a1.44,1.44,0,0,0,.73-.14q.45-.25.45-1.45Z"/><path class="cls-8" d="M962.6,227.84h-.15v38.63h.15a19.32,19.32,0,1,0,0-38.63Z"/><circle class="cls-6" cx="1270.62" cy="247.16" r="19.32"/><path class="cls-7" d="M1272,247.12q0-1.26-.53-1.49a2.41,2.41,0,0,0-.93-.13h-.33q-1,0-1.16.93l0,1h-3.42l.51-12.67h9.33v3.38h-6l-.24,5.11a3,3,0,0,1,2.37-1l.42,0a3.57,3.57,0,0,1,2.72,1.44,6,6,0,0,1,.76,3.45v6.74q0,5-4.92,5t-4.91-5V251H1269v2.81q0,1.61,1.48,1.61h0q1.49,0,1.49-1.61Z"/><circle class="cls-6" cx="1114.11" cy="247.16" r="39.31"/><path class="cls-7" d="M1123,221.86v31.7h2.68v6.87H1123v9.75h-7v-9.75h-14.14v-6.11l12.22-32.46Zm-14.23,31.7H1116V233Z"/><path class="cls-8" d="M1114.11,207.85h-.31v78.61h.31a39.31,39.31,0,1,0,0-78.62Z"/></g></g></svg>