<svg xmlns="http://www.w3.org/2000/svg" viewBox="0 0 1920 1080"><defs><style>.cls-1{isolation:isolate;}.cls-2{fill:#9bcb8c;}.cls-3,.cls-5{fill:#fff;}.cls-4{fill:#666;}.cls-5{opacity:0.3;}.cls-6,.cls-7{fill:none;stroke:#fff;stroke-linecap:round;stroke-miterlimit:10;stroke-width:5px;}.cls-7{stroke-dasharray:1 14.96;}.cls-8{fill:#4e96b3;}.cls-9{fill:#464646;opacity:0.7;mix-blend-mode:soft-light;}</style></defs><title>2c_ui</title><g class="cls-1"><g id="contenus"><path class="cls-2" d="M636.19,527.61H746.5a0,0,0,0,1,0,0v42.8a16,16,0,0,1-16,16H636.19a16,16,0,0,1-16-16v-26.8A16,16,0,0,1,636.19,527.61Z"/><path class="cls-3" d="M642.15,547.6h5.93a7.33,7.33,0,0,1,6.37,3,12.56,12.56,0,0,1,2,7.26c0,5.62-2.78,10.3-8.27,10.3h-6.07Zm4.23,16.7h1.84c3.42,0,3.92-4.23,3.92-6.4a9.6,9.6,0,0,0-.95-4.68,3.23,3.23,0,0,0-3.12-1.73h-1.7Z"/><path class="cls-3" d="M660.54,547.6h3.73v3.12h-3.73Zm0,4.79h3.73v15.81h-3.73Z"/><path class="cls-3" d="M675.48,568.19h-3.4l-4.56-15.81h3.79l2.42,10.13,2.09-10.13h3.79Z"/><path class="cls-3" d="M685.58,561.62c0,1.56.42,3.4,2.09,3.4,1,0,1.67-.61,1.95-1.95h3.7A6.36,6.36,0,0,1,691,567.5a5.79,5.79,0,0,1-3.37,1c-4.15,0-6.1-3.67-6.1-8.24s1.95-8.24,6.1-8.24a5,5,0,0,1,4.59,2.53c1.17,2,1.25,4.62,1.17,7Zm4.12-3.17c0-.95-.14-3.34-2-3.34-1.31,0-2.14,1.11-2.14,3.34Z"/><path class="cls-3" d="M697.21,552.38h3.4v2.06c.56-2,1.95-2.39,4-2.39v4.59a2.81,2.81,0,0,0-1.64-.47c-1.39,0-2,1.17-2,2.78v9.24h-3.73Z"/><path class="cls-3" d="M713.41,557.06c-.06-1.17-.53-1.78-1.67-1.78a1.19,1.19,0,0,0-1.34,1.22c0,1.34,1.78,1.45,3.56,2a4.52,4.52,0,0,1,3.56,4.84c0,3-2.34,5.18-5.59,5.18-3,0-5.43-1.67-5.76-5.4h3.73a2,2,0,0,0,2.14,2,1.41,1.41,0,0,0,1.53-1.59c0-1.36-1.78-1.5-3.56-2.09s-3.56-1.67-3.56-4.82c0-2.64,1.84-4.59,5.4-4.59s5.07,1.95,5.29,5Z"/><path class="cls-4" d="M642.26,620.19V599.6h6.15l2.84,13.28,2.84-13.28h6.15v20.6h-3.73v-16l-3.73,16h-3.06l-3.73-16v16Z"/><path class="cls-4" d="M675.48,620.19h-3.4v-1.5a3.12,3.12,0,0,1-3.06,1.84c-2.84,0-5-2.56-5-8.24,0-5.34,1.75-8.24,5-8.24a3,3,0,0,1,3.06,1.95v-1.61h3.4Zm-7.71-7.88c0,3.48.78,4.48,2,4.48a1.63,1.63,0,0,0,1.47-.7c.47-.58.47-1.34.47-3.81s0-3.23-.47-3.81a1.63,1.63,0,0,0-1.47-.7c-1.25,0-2,1-2,4.51Z"/><path class="cls-4" d="M679.82,604.38H683v1.5a3.3,3.3,0,0,1,3.37-1.84c2.5,0,4.09,1.39,4.09,4.59v11.55h-3.73V609.87c0-1.08-.25-2.09-1.56-2.09-1,0-1.67.5-1.67,1.84v10.58h-3.73Z"/><path class="cls-4" d="M705.53,620a5.49,5.49,0,0,1-1.47,4,5.85,5.85,0,0,1-4.26,1.48,5.24,5.24,0,0,1-5.46-4.4h3.9a1.46,1.46,0,0,0,.53.67,2,2,0,0,0,1,.22c1.67,0,2-1,2.09-2.39a8.23,8.23,0,0,0,0-.83c-.39,1.17-1.22,1.73-2.78,1.73-3.51,0-5-2.89-5-8.24s1.47-8.24,5-8.24a3.34,3.34,0,0,1,3.28,1.89v-1.56h3.17Zm-7.71-7.71c0,3.48.78,4.48,2,4.48a1.63,1.63,0,0,0,1.48-.7c.47-.58.47-1.34.47-3.81s0-3.23-.47-3.81a1.63,1.63,0,0,0-1.48-.7c-1.25,0-2,1-2,4.51Z"/><path class="cls-4" d="M713.27,613.62c0,1.56.42,3.4,2.09,3.4,1,0,1.67-.61,1.95-1.95H721a6.36,6.36,0,0,1-2.28,4.42,5.79,5.79,0,0,1-3.37,1c-4.15,0-6.09-3.67-6.09-8.24s1.95-8.24,6.09-8.24a5,5,0,0,1,4.59,2.53c1.17,2,1.25,4.62,1.17,7Zm4.12-3.17c0-.95-.14-3.34-2-3.34-1.31,0-2.14,1.11-2.14,3.34Z"/><path class="cls-4" d="M724.9,604.38h3.4v2.06c.56-2,1.95-2.39,4-2.39v4.59a2.81,2.81,0,0,0-1.64-.47c-1.39,0-2,1.17-2,2.78v9.24H724.9Z"/><path class="cls-4" d="M735.33,623h-3l2-7h3.51Z"/><path class="cls-4" d="M748.52,599.6h3.73v6.29A2.64,2.64,0,0,1,755,604c3.23,0,5,2.89,5,8.24,0,5.68-2.14,8.24-5,8.24a3.09,3.09,0,0,1-3.06-1.89v1.56h-3.4Zm7.71,12.66c0-3-.56-4.48-2-4.48-2,0-2,2.14-2,4.51s0,4.51,2,4.51c1.42,0,2-1.45,2-4.51Z"/><path class="cls-4" d="M763.55,604.38h3.4v2.06c.56-2,1.95-2.39,4-2.39v4.59a2.81,2.81,0,0,0-1.64-.47c-1.39,0-2,1.17-2,2.78v9.24h-3.73Z"/><path class="cls-4" d="M774.31,599.6H778v3.12h-3.73Zm0,4.79H778v15.81h-3.73Z"/><path class="cls-4" d="M793.07,614.18c0,3.23-1.61,6.35-5.09,6.35-3.76,0-6.12-3-6.12-8.24S784.22,604,788,604c3.48,0,5.09,3.06,5.09,6.35h-3.9c0-1.89-.5-2.84-1.47-2.84a1.42,1.42,0,0,0-1.39,1,9.6,9.6,0,0,0-.5,3.73c0,3.62.7,4.73,1.89,4.73s1.47-1.28,1.47-2.84Z"/><path class="cls-4" d="M795.49,612.26c0-4.54,1.95-8.21,6.09-8.21s6.1,3.67,6.1,8.24-1.95,8.24-6.1,8.24-6.09-3.67-6.09-8.24Zm4,.06c0,3.7.83,4.7,2.2,4.7s2.09-1,2.09-4.73-.83-4.73-2.2-4.73-2.09,1-2.09,4.73Z"/><path class="cls-4" d="M811.66,599.6h3.73v20.6h-3.73Z"/><path class="cls-4" d="M823.51,613.62c0,1.56.42,3.4,2.09,3.4,1,0,1.67-.61,1.95-1.95h3.7A6.36,6.36,0,0,1,829,619.5a5.79,5.79,0,0,1-3.37,1c-4.15,0-6.1-3.67-6.1-8.24s1.95-8.24,6.1-8.24a5,5,0,0,1,4.59,2.53c1.17,2,1.25,4.62,1.17,7Zm4.12-3.17c0-.95-.14-3.34-2-3.34-1.31,0-2.14,1.11-2.14,3.34Z"/><path class="cls-4" d="M835.14,604.38h3.4v2.06c.56-2,1.95-2.39,4-2.39v4.59a2.8,2.8,0,0,0-1.64-.47c-1.39,0-2,1.17-2,2.78v9.24h-3.73Z"/><path class="cls-4" d="M845.57,623h-3l2-7h3.51Z"/><path class="cls-4" d="M869.06,614.18c0,3.23-1.61,6.35-5.09,6.35-3.76,0-6.12-3-6.12-8.24S860.21,604,864,604c3.48,0,5.09,3.06,5.09,6.35h-3.9c0-1.89-.5-2.84-1.47-2.84a1.42,1.42,0,0,0-1.39,1,9.6,9.6,0,0,0-.5,3.73c0,3.62.7,4.73,1.89,4.73s1.47-1.28,1.47-2.84Z"/><path class="cls-4" d="M871.48,612.26c0-4.54,1.95-8.21,6.09-8.21s6.1,3.67,6.1,8.24-1.95,8.24-6.1,8.24-6.09-3.67-6.09-8.24Zm4,.06c0,3.7.83,4.7,2.2,4.7s2.09-1,2.09-4.73-.83-4.73-2.2-4.73-2.09,1-2.09,4.73Z"/><path class="cls-4" d="M897.94,620.19h-3.37v-1.67c-.47,1.28-1.28,2-3.23,2-2.5,0-4.09-1.39-4.09-4.59V604.38H891v10.33c0,1.09.25,2.09,1.56,2.09,1,0,1.67-.5,1.67-1.84V604.38h3.73Z"/><path class="cls-4" d="M902.28,604.38h3.4v2.06c.56-2,1.95-2.39,4-2.39v4.59a2.81,2.81,0,0,0-1.64-.47c-1.39,0-2,1.17-2,2.78v9.24h-3.73Z"/><path class="cls-4" d="M913,599.6h3.73v3.12H913Zm0,4.79h3.73v15.81H913Z"/><path class="cls-4" d="M921.51,604.38h3.4v2.06c.56-2,1.95-2.39,4-2.39v4.59a2.8,2.8,0,0,0-1.64-.47c-1.39,0-2,1.17-2,2.78v9.24h-3.73Z"/><path class="cls-2" d="M1163.18,527.61h290.69a0,0,0,0,1,0,0v42.8a16,16,0,0,1-16,16H1163.18a16,16,0,0,1-16-16v-26.8A16,16,0,0,1,1163.18,527.61Z"/><path class="cls-3" d="M1164.63,568.19V547.6h6.15l2.84,13.28,2.84-13.28h6.15v20.6h-3.73v-16l-3.73,16h-3.06l-3.73-16v16Z"/><path class="cls-3" d="M1190.57,561.62c0,1.56.42,3.4,2.09,3.4,1,0,1.67-.61,1.95-1.95h3.7a6.36,6.36,0,0,1-2.28,4.42,5.79,5.79,0,0,1-3.37,1c-4.15,0-6.09-3.67-6.09-8.24s1.95-8.24,6.09-8.24a5,5,0,0,1,4.59,2.53c1.17,2,1.25,4.62,1.17,7Zm4.12-3.17c0-.95-.14-3.34-2-3.34-1.31,0-2.14,1.11-2.14,3.34Z"/><path class="cls-3" d="M1208.15,557.06c-.06-1.17-.53-1.78-1.67-1.78a1.19,1.19,0,0,0-1.34,1.22c0,1.34,1.78,1.45,3.56,2a4.52,4.52,0,0,1,3.56,4.84c0,3-2.34,5.18-5.59,5.18-3,0-5.43-1.67-5.76-5.4h3.73a2,2,0,0,0,2.14,2,1.41,1.41,0,0,0,1.53-1.59c0-1.36-1.78-1.5-3.56-2.09s-3.56-1.67-3.56-4.82c0-2.64,1.84-4.59,5.4-4.59s5.07,1.95,5.29,5Z"/><path class="cls-3" d="M1234.81,562.18c0,3.23-1.61,6.35-5.09,6.35-3.76,0-6.12-3-6.12-8.24s2.37-8.24,6.12-8.24c3.48,0,5.09,3.06,5.09,6.35h-3.9c0-1.89-.5-2.84-1.47-2.84a1.42,1.42,0,0,0-1.39,1,9.6,9.6,0,0,0-.5,3.73c0,3.62.7,4.73,1.89,4.73s1.47-1.28,1.47-2.84Z"/><path class="cls-3" d="M1241.38,561.62c0,1.56.42,3.4,2.09,3.4,1,0,1.67-.61,1.95-1.95h3.7a6.36,6.36,0,0,1-2.28,4.42,5.79,5.79,0,0,1-3.37,1c-4.15,0-6.1-3.67-6.1-8.24s1.95-8.24,6.1-8.24a5,5,0,0,1,4.59,2.53c1.17,2,1.25,4.62,1.17,7Zm4.12-3.17c0-.95-.14-3.34-2-3.34-1.31,0-2.14,1.11-2.14,3.34Z"/><path class="cls-3" d="M1253,552.38h3.23v1.5a3.3,3.3,0,0,1,3.37-1.84c2.5,0,4.09,1.39,4.09,4.59v11.55H1260V557.87c0-1.08-.25-2.09-1.56-2.09-1,0-1.67.5-1.67,1.84v10.58H1253Z"/><path class="cls-3" d="M1268.42,555.89h-1.67v-3.51h1.67v-3h3.73v3h1.67v3.51h-1.67v12.3h-3.73Z"/><path class="cls-3" d="M1276.88,552.38h3.4v2.06c.56-2,1.95-2.39,4-2.39v4.59a2.8,2.8,0,0,0-1.64-.47c-1.39,0-2,1.17-2,2.78v9.24h-3.73Z"/><path class="cls-3" d="M1290.24,561.62c0,1.56.42,3.4,2.09,3.4,1,0,1.67-.61,1.95-1.95h3.7a6.36,6.36,0,0,1-2.28,4.42,5.79,5.79,0,0,1-3.37,1c-4.15,0-6.09-3.67-6.09-8.24s1.95-8.24,6.09-8.24a5,5,0,0,1,4.59,2.53c1.17,2,1.25,4.62,1.17,7Zm4.12-3.17c0-.95-.14-3.34-2-3.34-1.31,0-2.14,1.11-2.14,3.34Z"/><path class="cls-3" d="M1307.82,557.06c-.06-1.17-.53-1.78-1.67-1.78a1.19,1.19,0,0,0-1.34,1.22c0,1.34,1.78,1.45,3.56,2a4.52,4.52,0,0,1,3.56,4.84c0,3-2.34,5.18-5.59,5.18-3,0-5.43-1.67-5.76-5.4h3.73a2,2,0,0,0,2.14,2,1.41,1.41,0,0,0,1.53-1.59c0-1.36-1.78-1.5-3.56-2.09s-3.56-1.67-3.56-4.82c0-2.64,1.84-4.59,5.4-4.59s5.07,1.95,5.29,5Z"/><path class="cls-3" d="M1334.87,568.19h-3.4v-1.78a3,3,0,0,1-3.06,2.12c-2.84,0-5-2.56-5-8.24,0-5.34,1.75-8.24,5-8.24a2.78,2.78,0,0,1,2.75,1.67c0-.45,0-.89,0-1.34V547.6h3.73Zm-7.71-7.88c0,3.48.78,4.48,2,4.48a1.63,1.63,0,0,0,1.47-.7c.47-.58.47-1.34.47-3.81s0-3.23-.47-3.81a1.63,1.63,0,0,0-1.47-.7c-1.25,0-2,1-2,4.51Z"/><path class="cls-3" d="M1340,547.6h4l-3,7h-3.34Z"/><path class="cls-3" d="M1346.89,547.6h3.73v3.12h-3.73Zm0,4.79h3.73v15.81h-3.73Z"/><path class="cls-3" d="M1355.35,552.38h3.23v1.5a3.3,3.3,0,0,1,3.37-1.84c2.5,0,4.09,1.39,4.09,4.59v11.55h-3.73V557.87c0-1.08-.25-2.09-1.56-2.09-1,0-1.67.5-1.67,1.84v10.58h-3.73Z"/><path class="cls-3" d="M1370.76,555.89h-1.67v-3.51h1.67v-3h3.73v3h1.67v3.51h-1.67v12.3h-3.73Z"/><path class="cls-3" d="M1382.34,561.62c0,1.56.42,3.4,2.09,3.4,1,0,1.67-.61,1.95-1.95h3.7a6.36,6.36,0,0,1-2.28,4.42,5.79,5.79,0,0,1-3.37,1c-4.15,0-6.09-3.67-6.09-8.24s1.95-8.24,6.09-8.24a5,5,0,0,1,4.59,2.53c1.17,2,1.25,4.62,1.17,7Zm5.59-15.95,1.42,3-6.46,2.87-1.28-2.42Zm-1.47,12.78c0-.95-.14-3.34-2-3.34-1.31,0-2.14,1.11-2.14,3.34Z"/><path class="cls-3" d="M1394,552.38h3.4v2.06c.56-2,1.95-2.39,4-2.39v4.59a2.8,2.8,0,0,0-1.64-.47c-1.39,0-2,1.17-2,2.78v9.24H1394Z"/><path class="cls-3" d="M1407.32,561.62c0,1.56.42,3.4,2.09,3.4,1,0,1.67-.61,1.95-1.95h3.7a6.36,6.36,0,0,1-2.28,4.42,5.79,5.79,0,0,1-3.37,1c-4.15,0-6.1-3.67-6.1-8.24s1.95-8.24,6.1-8.24a5,5,0,0,1,4.59,2.53c1.17,2,1.25,4.62,1.17,7Zm6.88-10.85H1411l-1.75-2.34-1.75,2.34h-3.17l3.14-4.12h3.56Zm-2.76,7.68c0-.95-.14-3.34-2-3.34-1.31,0-2.14,1.11-2.14,3.34Z"/><path class="cls-3" d="M1419.34,555.89h-1.67v-3.51h1.67v-3h3.73v3h1.67v3.51h-1.67v12.3h-3.73Z"/><path class="cls-3" d="M1433.76,557.06c-.06-1.17-.53-1.78-1.67-1.78a1.19,1.19,0,0,0-1.34,1.22c0,1.34,1.78,1.45,3.56,2a4.52,4.52,0,0,1,3.56,4.84c0,3-2.34,5.18-5.59,5.18-3,0-5.43-1.67-5.76-5.4h3.73a2,2,0,0,0,2.14,2,1.41,1.41,0,0,0,1.53-1.59c0-1.36-1.78-1.5-3.56-2.09s-3.56-1.67-3.56-4.82c0-2.64,1.84-4.59,5.4-4.59s5.07,1.95,5.29,5Z"/><path class="cls-4" d="M1178.63,612.2c0,4.7-2.62,8.38-7.46,8.38-4.51,0-7.46-3.48-7.46-10.69s3-10.69,7.46-10.69c5,0,7.51,3.76,7.46,8.54h-4.34c-.11-3.67-1.17-4.54-2.78-4.54-1.95,0-3.45,1.75-3.45,6.68s1.5,6.68,3.45,6.68c2.2,0,2.67-2.17,2.78-4.37Z"/><path class="cls-4" d="M1193.21,620.19h-3.37v-1.67c-.47,1.28-1.28,2-3.23,2-2.5,0-4.09-1.39-4.09-4.59V604.38h3.73v10.33c0,1.09.25,2.09,1.56,2.09,1,0,1.67-.5,1.67-1.84V604.38h3.73Z"/><path class="cls-4" d="M1197.94,599.6h3.73v3.12h-3.73Zm0,4.79h3.73v15.81h-3.73Z"/><path class="cls-4" d="M1212.36,609.06c-.06-1.17-.53-1.78-1.67-1.78a1.19,1.19,0,0,0-1.34,1.22c0,1.34,1.78,1.45,3.56,2a4.52,4.52,0,0,1,3.56,4.84c0,3-2.34,5.18-5.59,5.18-3,0-5.43-1.67-5.76-5.4h3.73a2,2,0,0,0,2.14,2,1.41,1.41,0,0,0,1.53-1.59c0-1.36-1.78-1.5-3.56-2.09s-3.56-1.67-3.56-4.82c0-2.64,1.84-4.59,5.4-4.59s5.07,1.95,5.29,5Z"/><path class="cls-4" d="M1220.26,599.6H1224v3.12h-3.73Zm0,4.79H1224v15.81h-3.73Z"/><path class="cls-4" d="M1228.71,604.38h3.23v1.5a3.3,3.3,0,0,1,3.37-1.84c2.5,0,4.09,1.39,4.09,4.59v11.55h-3.73V609.87c0-1.08-.25-2.09-1.56-2.09-1,0-1.67.5-1.67,1.84v10.58h-3.73Z"/><path class="cls-4" d="M1247.14,613.62c0,1.56.42,3.4,2.09,3.4,1,0,1.67-.61,1.95-1.95h3.7a6.36,6.36,0,0,1-2.28,4.42,5.79,5.79,0,0,1-3.37,1c-4.15,0-6.09-3.67-6.09-8.24s1.95-8.24,6.09-8.24a5,5,0,0,1,4.59,2.53c1.17,2,1.25,4.62,1.17,7Zm4.12-3.17c0-.95-.14-3.34-2-3.34-1.31,0-2.14,1.11-2.14,3.34Z"/><path class="cls-4" d="M1164.63,653.58V633h6.15l2.84,13.28,2.84-13.28h6.15v20.6h-3.73v-16l-3.73,16h-3.06l-3.73-16v16Z"/><path class="cls-4" d="M1190.57,647c0,1.56.42,3.4,2.09,3.4,1,0,1.67-.61,1.95-1.95h3.7a6.36,6.36,0,0,1-2.28,4.43,5.79,5.79,0,0,1-3.37,1c-4.15,0-6.09-3.67-6.09-8.24s1.95-8.24,6.09-8.24a5,5,0,0,1,4.59,2.53c1.17,2,1.25,4.62,1.17,7Zm5.59-15.95,1.42,3-6.46,2.87-1.28-2.42Zm-1.47,12.77c0-.95-.14-3.34-2-3.34-1.31,0-2.14,1.11-2.14,3.34Z"/><path class="cls-4" d="M1212.5,647.57c0,3.23-1.61,6.35-5.09,6.35-3.76,0-6.12-3-6.12-8.24s2.37-8.24,6.12-8.24c3.48,0,5.09,3.06,5.09,6.35h-3.9c0-1.89-.5-2.84-1.47-2.84a1.42,1.42,0,0,0-1.39,1,9.6,9.6,0,0,0-.5,3.73c0,3.62.7,4.73,1.89,4.73s1.47-1.28,1.47-2.84Z"/><path class="cls-4" d="M1226.35,653.58H1223v-1.5a3.12,3.12,0,0,1-3.06,1.84c-2.84,0-5-2.56-5-8.24,0-5.34,1.75-8.24,5-8.24a3,3,0,0,1,3.06,1.95v-1.61h3.4Zm-7.71-7.88c0,3.48.78,4.48,2,4.48a1.63,1.63,0,0,0,1.48-.7c.47-.58.47-1.34.47-3.81s0-3.23-.47-3.81a1.63,1.63,0,0,0-1.48-.7c-1.25,0-2,1-2,4.51Z"/><path class="cls-4" d="M1230.69,637.77h3.23v1.5a3.3,3.3,0,0,1,3.37-1.84c2.5,0,4.09,1.39,4.09,4.59v11.55h-3.73V643.26c0-1.09-.25-2.09-1.56-2.09-1,0-1.67.5-1.67,1.84v10.58h-3.73Z"/><path class="cls-4" d="M1246.11,633h3.73v3.12h-3.73Zm0,4.79h3.73v15.81h-3.73Z"/><path class="cls-4" d="M1265.25,658.59h-3.73v-5c0-.45,0-.89,0-1.36a2.77,2.77,0,0,1-2.75,1.7c-3.23,0-5-2.89-5-8.24,0-5.68,2.14-8.24,5-8.24,1.47,0,2.75.81,3,1.84v-1.5h3.51Zm-7.71-12.89c0,3.48.78,4.48,2,4.48a1.63,1.63,0,0,0,1.47-.7c.47-.58.47-1.34.47-3.81s0-3.23-.47-3.81a1.63,1.63,0,0,0-1.47-.7c-1.25,0-2,1-2,4.51Z"/><path class="cls-4" d="M1280.28,653.58h-3.37v-1.67c-.47,1.28-1.28,2-3.23,2-2.5,0-4.09-1.39-4.09-4.59V637.77h3.73V648.1c0,1.09.25,2.09,1.56,2.09,1,0,1.67-.5,1.67-1.84V637.77h3.73Z"/><path class="cls-4" d="M1288,647c0,1.56.42,3.4,2.09,3.4,1,0,1.67-.61,1.95-1.95h3.7a6.36,6.36,0,0,1-2.28,4.43,5.79,5.79,0,0,1-3.37,1c-4.15,0-6.09-3.67-6.09-8.24s1.95-8.24,6.09-8.24a5,5,0,0,1,4.59,2.53c1.17,2,1.25,4.62,1.17,7Zm4.12-3.17c0-.95-.14-3.34-2-3.34-1.31,0-2.14,1.11-2.14,3.34Z"/><path class="cls-4" d="M1308.66,637.77h3.51v1.84a2.92,2.92,0,0,1,3.23-2.17,3.51,3.51,0,0,1,2.25.7,2.68,2.68,0,0,1,.75,1,3.12,3.12,0,0,1,1-1.06,5,5,0,0,1,2.59-.67,4.45,4.45,0,0,1,3.59,1.53,5.2,5.2,0,0,1,1.14,3.37v11.24H1323V643a2,2,0,0,0-.39-1.42,1.56,1.56,0,0,0-1.25-.42,2.08,2.08,0,0,0-1.31.33,1.57,1.57,0,0,0-.5,1.28v10.8h-3.73V643a2,2,0,0,0-.39-1.42,1.56,1.56,0,0,0-1.25-.42,2.08,2.08,0,0,0-1.31.33,1.57,1.57,0,0,0-.5,1.28v10.8h-3.73Z"/><path class="cls-4" d="M1330.5,645.65c0-4.54,1.95-8.21,6.09-8.21s6.1,3.67,6.1,8.24-1.95,8.24-6.1,8.24-6.09-3.67-6.09-8.24Zm4,.06c0,3.7.83,4.7,2.2,4.7s2.09-1,2.09-4.73-.83-4.73-2.2-4.73-2.09,1-2.09,4.73Z"/><path class="cls-4" d="M1346.67,641.28H1345v-3.51h1.67v-3h3.73v3h1.67v3.51h-1.67v12.3h-3.73Z"/><path class="cls-4" d="M1354.1,645.65c0-4.54,1.95-8.21,6.09-8.21s6.1,3.67,6.1,8.24-1.95,8.24-6.1,8.24-6.09-3.67-6.09-8.24Zm4,.06c0,3.7.83,4.7,2.2,4.7s2.09-1,2.09-4.73-.83-4.73-2.2-4.73-2.09,1-2.09,4.73Z"/><path class="cls-4" d="M1386.82,636.77a11.37,11.37,0,0,0,0,18.81v3.84c-4.29-1.67-8.41-6.68-8.41-13.25s4.12-11.58,8.41-13.25Z"/><path class="cls-4" d="M1390.66,637.77h3.4v2.06c.56-2,1.95-2.39,4-2.39V642a2.8,2.8,0,0,0-1.64-.47c-1.39,0-2,1.17-2,2.78v9.24h-3.73Z"/><path class="cls-4" d="M1404,647c0,1.56.42,3.4,2.09,3.4,1,0,1.67-.61,1.95-1.95h3.7a6.36,6.36,0,0,1-2.28,4.43,5.79,5.79,0,0,1-3.37,1c-4.15,0-6.09-3.67-6.09-8.24s1.95-8.24,6.09-8.24a5,5,0,0,1,4.59,2.53c1.17,2,1.25,4.62,1.17,7Zm4.12-3.17c0-.95-.14-3.34-2-3.34-1.31,0-2.14,1.11-2.14,3.34Z"/><path class="cls-4" d="M1415.81,637.77h3.51v1.84a2.92,2.92,0,0,1,3.23-2.17,3.52,3.52,0,0,1,2.25.7,2.68,2.68,0,0,1,.75,1,3.12,3.12,0,0,1,1-1.06,5,5,0,0,1,2.59-.67,4.45,4.45,0,0,1,3.59,1.53,5.2,5.2,0,0,1,1.14,3.37v11.24h-3.73V643a2,2,0,0,0-.39-1.42,1.56,1.56,0,0,0-1.25-.42,2.08,2.08,0,0,0-1.31.33,1.57,1.57,0,0,0-.5,1.28v10.8H1423V643a2,2,0,0,0-.39-1.42,1.56,1.56,0,0,0-1.25-.42,2.08,2.08,0,0,0-1.31.33,1.57,1.57,0,0,0-.5,1.28v10.8h-3.73Z"/><path class="cls-4" d="M1438.79,633h3.73v3.12h-3.73Zm0,4.79h3.73v15.81h-3.73Z"/><path class="cls-4" d="M1453.21,642.45c-.06-1.17-.53-1.78-1.67-1.78a1.19,1.19,0,0,0-1.34,1.22c0,1.34,1.78,1.45,3.56,2a4.52,4.52,0,0,1,3.56,4.84c0,3-2.34,5.18-5.59,5.18-3,0-5.43-1.67-5.76-5.4h3.73a2,2,0,0,0,2.14,2,1.41,1.41,0,0,0,1.53-1.59c0-1.36-1.78-1.5-3.56-2.09s-3.56-1.67-3.56-4.81c0-2.64,1.84-4.59,5.4-4.59s5.07,1.95,5.29,5Z"/><path class="cls-4" d="M1464.12,647c0,1.56.42,3.4,2.09,3.4,1,0,1.67-.61,1.95-1.95h3.7a6.36,6.36,0,0,1-2.28,4.43,5.79,5.79,0,0,1-3.37,1c-4.15,0-6.1-3.67-6.1-8.24s1.95-8.24,6.1-8.24a5,5,0,0,1,4.59,2.53c1.17,2,1.25,4.62,1.17,7Zm4.12-3.17c0-.95-.14-3.34-2-3.34-1.31,0-2.14,1.11-2.14,3.34Z"/><path class="cls-4" d="M1488,647c0,1.56.42,3.4,2.09,3.4,1,0,1.67-.61,1.95-1.95h3.7a6.36,6.36,0,0,1-2.28,4.43,5.79,5.79,0,0,1-3.37,1c-4.15,0-6.1-3.67-6.1-8.24s1.95-8.24,6.1-8.24a5,5,0,0,1,4.59,2.53c1.17,2,1.25,4.62,1.17,7Zm4.12-3.17c0-.95-.14-3.34-2-3.34-1.31,0-2.14,1.11-2.14,3.34Z"/><path class="cls-4" d="M1499.62,637.77h3.23v1.5a3.3,3.3,0,0,1,3.37-1.84c2.5,0,4.09,1.39,4.09,4.59v11.55h-3.73V643.26c0-1.09-.25-2.09-1.56-2.09-1,0-1.67.5-1.67,1.84v10.58h-3.73Z"/><path class="cls-4" d="M1526.89,647c0,1.56.42,3.4,2.09,3.4,1,0,1.67-.61,1.95-1.95h3.7a6.36,6.36,0,0,1-2.28,4.43,5.79,5.79,0,0,1-3.37,1c-4.15,0-6.1-3.67-6.1-8.24s1.95-8.24,6.1-8.24a5,5,0,0,1,4.59,2.53c1.17,2,1.25,4.62,1.17,7Zm5.59-15.95,1.42,3-6.46,2.87-1.28-2.42ZM1531,643.84c0-.95-.14-3.34-2-3.34-1.31,0-2.14,1.11-2.14,3.34Z"/><path class="cls-4" d="M1538.91,641.28h-1.67v-3.51h1.67v-3h3.73v3h1.67v3.51h-1.67v12.3h-3.73Z"/><path class="cls-4" d="M1557.78,653.58h-3.4v-1.5a3.12,3.12,0,0,1-3.06,1.84c-2.84,0-5-2.56-5-8.24,0-5.34,1.75-8.24,5-8.24a3,3,0,0,1,3.06,1.95v-1.61h3.4Zm-7.71-7.88c0,3.48.78,4.48,2,4.48a1.63,1.63,0,0,0,1.48-.7c.47-.58.47-1.34.47-3.81s0-3.23-.47-3.81a1.63,1.63,0,0,0-1.48-.7c-1.25,0-2,1-2,4.51Z"/><path class="cls-4" d="M1562.5,641.28h-1.67v-3.51h1.67v-3h3.73v3h1.67v3.51h-1.67v12.3h-3.73Z"/><path class="cls-4" d="M1570.46,655.58a11.37,11.37,0,0,0,0-18.81v-3.84c4.29,1.67,8.41,6.68,8.41,13.25s-4.12,11.58-8.41,13.25Z"/><path class="cls-4" d="M1178.63,679c0,4.7-2.62,8.38-7.46,8.38-4.51,0-7.46-3.48-7.46-10.69s3-10.69,7.46-10.69c5,0,7.51,3.76,7.46,8.54h-4.34c-.11-3.67-1.17-4.54-2.78-4.54-1.95,0-3.45,1.75-3.45,6.68s1.5,6.68,3.45,6.68c2.2,0,2.67-2.17,2.78-4.37Z"/><path class="cls-4" d="M1181.77,679c0-4.54,1.95-8.21,6.09-8.21s6.1,3.67,6.1,8.24-1.95,8.24-6.1,8.24-6.09-3.67-6.09-8.24Zm4,.06c0,3.7.83,4.7,2.2,4.7s2.09-1,2.09-4.73-.83-4.73-2.2-4.73-2.09,1-2.09,4.73Z"/><path class="cls-4" d="M1208.24,687h-3.37V685.3c-.47,1.28-1.28,2-3.23,2-2.5,0-4.09-1.39-4.09-4.59V671.16h3.73v10.33c0,1.08.25,2.09,1.56,2.09,1,0,1.67-.5,1.67-1.84V671.16h3.73Z"/><path class="cls-4" d="M1212.58,671.16h3.4v2.06c.56-2,1.95-2.39,4-2.39v4.59a2.8,2.8,0,0,0-1.64-.47c-1.39,0-2,1.17-2,2.78V687h-3.73Z"/><path class="cls-4" d="M1228.77,675.84c-.06-1.17-.53-1.78-1.67-1.78a1.19,1.19,0,0,0-1.34,1.22c0,1.34,1.78,1.45,3.56,2a4.52,4.52,0,0,1,3.56,4.84c0,3-2.34,5.18-5.59,5.18-3,0-5.43-1.67-5.76-5.4h3.73a2,2,0,0,0,2.14,2,1.41,1.41,0,0,0,1.53-1.59c0-1.36-1.78-1.5-3.56-2.09s-3.56-1.67-3.56-4.81c0-2.64,1.84-4.59,5.4-4.59s5.07,1.95,5.29,5Z"/><path class="cls-4" d="M1239.68,680.4c0,1.56.42,3.4,2.09,3.4,1,0,1.67-.61,1.95-1.95h3.7a6.37,6.37,0,0,1-2.28,4.43,5.79,5.79,0,0,1-3.37,1c-4.15,0-6.09-3.67-6.09-8.24s1.95-8.24,6.09-8.24a5,5,0,0,1,4.59,2.53c1.17,2,1.25,4.62,1.17,7Zm4.12-3.17c0-.95-.14-3.34-2-3.34-1.31,0-2.14,1.11-2.14,3.34Z"/><path class="cls-4" d="M1270.85,687h-3.4v-1.5a3.12,3.12,0,0,1-3.06,1.84c-2.84,0-5-2.56-5-8.24,0-5.34,1.75-8.24,5-8.24a3,3,0,0,1,3.06,1.95v-1.61h3.4Zm-2.67-19.09-1.28,2.42-6.46-2.87,1.42-3Zm-5,11.22c0,3.48.78,4.48,2,4.48a1.63,1.63,0,0,0,1.47-.7c.47-.58.47-1.34.47-3.81s0-3.23-.47-3.81a1.63,1.63,0,0,0-1.47-.7c-1.25,0-2,1-2,4.51Z"/><path class="cls-4" d="M1284,671.16h3.4v1.5a3.16,3.16,0,0,1,3.06-1.84c2.84,0,5,2.56,5,8.24,0,5.34-1.75,8.24-5,8.24a3,3,0,0,1-2.73-1.5V692H1284Zm7.71,7.88c0-3.48-.72-4.48-2-4.48a1.56,1.56,0,0,0-1.36.7c-.47.58-.58,1.34-.58,3.81s.11,3.23.58,3.81a1.56,1.56,0,0,0,1.36.7c1.31,0,2-1,2-4.51Z"/><path class="cls-4" d="M1299.45,666.37h3.73v3.12h-3.73Zm0,4.79h3.73V687h-3.73Z"/><path class="cls-4" d="M1311.3,680.4c0,1.56.42,3.4,2.09,3.4,1,0,1.67-.61,1.95-1.95h3.7a6.37,6.37,0,0,1-2.28,4.43,5.79,5.79,0,0,1-3.37,1c-4.15,0-6.09-3.67-6.09-8.24s1.95-8.24,6.09-8.24a5,5,0,0,1,4.59,2.53c1.17,2,1.25,4.62,1.17,7Zm4.12-3.17c0-.95-.14-3.34-2-3.34-1.31,0-2.14,1.11-2.14,3.34Z"/><path class="cls-4" d="M1333.62,687h-3.4v-1.78a3,3,0,0,1-3.06,2.12c-2.84,0-5-2.56-5-8.24,0-5.34,1.75-8.24,5-8.24a2.78,2.78,0,0,1,2.75,1.67c0-.45,0-.89,0-1.34v-4.79h3.73Zm-7.71-7.88c0,3.48.78,4.48,2,4.48a1.63,1.63,0,0,0,1.47-.7c.47-.58.47-1.34.47-3.81s0-3.23-.47-3.81a1.63,1.63,0,0,0-1.47-.7c-1.25,0-2,1-2,4.51Z"/><path class="cls-4" d="M1354.9,670.16a11.37,11.37,0,0,0,0,18.81v3.84c-4.29-1.67-8.41-6.68-8.41-13.25s4.12-11.58,8.41-13.25Z"/><path class="cls-4" d="M1358.91,671.16h3.51V673a2.92,2.92,0,0,1,3.23-2.17,3.51,3.51,0,0,1,2.25.7,2.67,2.67,0,0,1,.75,1,3.12,3.12,0,0,1,1-1.06,5,5,0,0,1,2.59-.67,4.44,4.44,0,0,1,3.59,1.53,5.19,5.19,0,0,1,1.14,3.37V687h-3.73V676.39a2,2,0,0,0-.39-1.42,1.56,1.56,0,0,0-1.25-.42,2.08,2.08,0,0,0-1.31.33,1.57,1.57,0,0,0-.5,1.28V687h-3.73V676.39a2,2,0,0,0-.39-1.42,1.56,1.56,0,0,0-1.25-.42,2.08,2.08,0,0,0-1.31.33,1.57,1.57,0,0,0-.5,1.28V687h-3.73Z"/><path class="cls-4" d="M1392.19,687h-3.4v-1.5a3.12,3.12,0,0,1-3.06,1.84c-2.84,0-5-2.56-5-8.24,0-5.34,1.75-8.24,5-8.24a3,3,0,0,1,3.06,1.95v-1.61h3.4Zm-7.71-7.88c0,3.48.78,4.48,2,4.48a1.63,1.63,0,0,0,1.48-.7c.47-.58.47-1.34.47-3.81s0-3.23-.47-3.81a1.63,1.63,0,0,0-1.48-.7c-1.25,0-2,1-2,4.51Z"/><path class="cls-4" d="M1396.53,671.16h3.4v2.06c.56-2,1.95-2.39,4-2.39v4.59a2.8,2.8,0,0,0-1.64-.47c-1.39,0-2,1.17-2,2.78V687h-3.73Z"/><path class="cls-4" d="M1417.18,687h-3.4v-1.5a3.12,3.12,0,0,1-3.06,1.84c-2.84,0-5-2.56-5-8.24,0-5.34,1.75-8.24,5-8.24a3,3,0,0,1,3.06,1.95v-1.61h3.4Zm-7.71-7.88c0,3.48.78,4.48,2,4.48a1.63,1.63,0,0,0,1.47-.7c.47-.58.47-1.34.47-3.81s0-3.23-.47-3.81a1.63,1.63,0,0,0-1.47-.7c-1.25,0-2,1-2,4.51Z"/><path class="cls-4" d="M1421.9,674.67h-1.67v-3.51h1.67v-3h3.73v3h1.67v3.51h-1.67V687h-3.73Z"/><path class="cls-4" d="M1430.36,666.37h3.73v5.79c.28-.61.92-1.34,2.81-1.34a3.79,3.79,0,0,1,3.14,1.31,5,5,0,0,1,1,3.31V687h-3.73V676.56a2.71,2.71,0,0,0-.31-1.39,1.28,1.28,0,0,0-1.22-.61,1.72,1.72,0,0,0-1.22.42,1.7,1.7,0,0,0-.47,1.31V687h-3.73Z"/><path class="cls-4" d="M1444.64,679c0-4.54,1.95-8.21,6.1-8.21s6.09,3.67,6.09,8.24-1.95,8.24-6.09,8.24-6.1-3.67-6.1-8.24Zm4,.06c0,3.7.83,4.7,2.2,4.7s2.09-1,2.09-4.73-.83-4.73-2.2-4.73-2.09,1-2.09,4.73Z"/><path class="cls-4" d="M1460.41,671.16h3.23v1.5a3.3,3.3,0,0,1,3.37-1.84c2.5,0,4.09,1.39,4.09,4.59V687h-3.73V676.65c0-1.09-.25-2.09-1.56-2.09-1,0-1.67.5-1.67,1.84V687h-3.73Z"/><path class="cls-4" d="M1474.94,689a11.37,11.37,0,0,0,0-18.81v-3.84c4.29,1.67,8.41,6.68,8.41,13.25s-4.12,11.58-8.41,13.25Z"/><rect class="cls-5" x="825.35" y="354.66" width="264.95" height="69" rx="8.8" ry="8.8"/><path class="cls-4" d="M892.51,372.48h6.08v24h7.76v5.6H892.51Z"/><path class="cls-4" d="M909,387.24c0-9.24,3.6-15.32,10.88-15.32s10.88,6.08,10.88,15.36-3.6,15.36-10.88,15.36S909,396.56,909,387.28Zm6.24.08c0,7.08,1.52,9.72,4.64,9.72s4.64-2.64,4.64-9.76-1.52-9.76-4.64-9.76-4.64,2.64-4.64,9.76Z"/><path class="cls-4" d="M936.23,372.48h6.08v29.6h-6.08Z"/><path class="cls-4" d="M953.87,392.76c.08,3.08,1.12,4.52,3.76,4.52a3.2,3.2,0,0,0,3.44-3.52c0-2.68-3.2-3.32-6.4-4.56s-6.4-3.12-6.4-8.12c0-5.6,3.44-9.2,9.08-9.2,5.48,0,8.52,2.64,9.4,8.48h-5.92c-.08-2.16-1.28-3.44-3.24-3.44a3,3,0,0,0-3.08,3.24c0,2.8,3.2,3.32,6.4,4.6s6.4,3.28,6.4,8.92-4.16,9-9.8,9c-6.76,0-9.72-3.64-9.72-9.88Z"/><path class="cls-4" d="M972.79,372.48h6.08v29.6h-6.08Z"/><path class="cls-4" d="M985.51,372.48h7.68c4.2,0,6.88,1.08,8.16,2.6a10.16,10.16,0,0,1,2.4,6.84,10.93,10.93,0,0,1-.88,4.48,8,8,0,0,1-3.48,3.88l5.6,11.8h-6.8l-6.52-15c.68,0,1,0,1.52,0a4.7,4.7,0,0,0,3-1.12,4.6,4.6,0,0,0,1.32-3.4,4.26,4.26,0,0,0-1.4-3.6,4.64,4.64,0,0,0-3.12-.8h-1.4v24h-6.08Z"/><path class="cls-4" d="M1014.27,392.76c.08,3.08,1.12,4.52,3.76,4.52a3.2,3.2,0,0,0,3.44-3.52c0-2.68-3.2-3.32-6.4-4.56s-6.4-3.12-6.4-8.12c0-5.6,3.44-9.2,9.08-9.2,5.48,0,8.52,2.64,9.4,8.48h-5.92c-.08-2.16-1.28-3.44-3.24-3.44a3,3,0,0,0-3.08,3.24c0,2.8,3.2,3.32,6.4,4.6s6.4,3.28,6.4,8.92-4.16,9-9.8,9c-6.76,0-9.72-3.64-9.72-9.88Z"/><polygon class="cls-5" points="902.24 423.66 958.74 459.66 1013.4 423.66 902.24 423.66"/></g><g id="etapes_jeu2" data-name="etapes jeu2"><line class="cls-6" x1="555.81" y1="247.16" x2="556.31" y2="247.16"/><line class="cls-7" x1="571.26" y1="247.16" x2="1361.42" y2="247.16"/><line class="cls-6" x1="1368.89" y1="247.16" x2="1369.39" y2="247.16"/><circle class="cls-8" cx="689.29" cy="247.16" r="19.32"/><path class="cls-3" d="M690.85,234.73v20.37h3.21v3.38h-9.84v-3.38h3.21v-17h-3.21v-3.38Z"/><path class="cls-9" d="M689.29,227.84h-.15v38.63h.15a19.32,19.32,0,1,0,0-38.63Z"/><circle class="cls-8" cx="962.6" cy="247.16" r="19.32"/><path class="cls-3" d="M963.94,239.34q0-1.6-1.49-1.61h0q-1.48,0-1.48,1.61v3.18h-3.42v-3.18q0-5,4.91-5t4.92,5v4.13a3.41,3.41,0,0,1-1.88,3.3,3.41,3.41,0,0,1,1.88,3.3v3.79q0,5-4.92,5t-4.91-5v-3.18H961v3.18q0,1.61,1.48,1.61h0q1.49,0,1.49-1.61v-3.79q0-1.29-.54-1.54a2.47,2.47,0,0,0-.89-.12h-1.13V245h1.39a1.45,1.45,0,0,0,.73-.15q.45-.25.45-1.45Z"/><path class="cls-9" d="M962.6,227.84h-.15v38.63h.15a19.32,19.32,0,1,0,0-38.63Z"/><circle class="cls-8" cx="1099.26" cy="247.16" r="19.32"/><path class="cls-3" d="M1103.61,234.73V250.3h1.32v3.38h-1.32v4.79h-3.42v-4.79h-6.95v-3l6-15.95Zm-7,15.57h3.57V240.21Z"/><path class="cls-9" d="M1099.26,227.84h-.15v38.63h.15a19.32,19.32,0,1,0,0-38.63Z"/><circle class="cls-8" cx="828.35" cy="247.16" r="19.32"/><path class="cls-3" d="M823.28,253.37a6.64,6.64,0,0,1,3.19-5.49q3.21-2.29,3.22-3.88v-4.66q0-1.61-1.48-1.61h0q-1.49,0-1.49,1.61v3.18h-3.42v-3.18q0-5,4.91-5t4.92,5v4.74a6.71,6.71,0,0,1-3.21,5.57q-3.21,2.29-3.21,4v1.43h6.41v3.38h-9.84Z"/><path class="cls-9" d="M828.35,227.84h-.15v38.63h.15a19.32,19.32,0,1,0,0-38.63Z"/><circle class="cls-8" cx="1235.91" cy="247.16" r="39.31"/><path class="cls-3" d="M1238.65,247.08q0-2.56-1.08-3a4.85,4.85,0,0,0-1.89-.27l-.67,0q-2.12.1-2.36,1.9l-.07,1.95h-7l1-25.79h19v6.87h-12.29l-.49,10.39a6.06,6.06,0,0,1,4.83-2,7.93,7.93,0,0,1,.86,0,7.26,7.26,0,0,1,5.54,2.93q1.55,2.12,1.55,7v13.72q0,10.15-10,10.15t-10-10.15v-5.71h7v5.71q0,3.28,3,3.28h0q3,0,3-3.28Z"/><path class="cls-9" d="M1235.91,207.85h-.31v78.61h.31a39.31,39.31,0,1,0,0-78.62Z"/></g></g></svg>