<svg xmlns="http://www.w3.org/2000/svg" viewBox="0 0 343.11 117.3"><defs><style>.cls-1{fill:#4e96b3;}.cls-2{fill:#fcc600;}.cls-3{fill:#fff;}</style></defs><title>bt_a_vous_de_jouer</title><g id="Calque_2" data-name="Calque 2"><g id="boutons"><rect class="cls-1" width="327.56" height="75.61" rx="37.8" ry="37.8"/><path class="cls-2" d="M319.43,117.3c-4.72,0-9.57,0-14.41-.06a6,6,0,0,1-4.21-2.07c-4.86-5.71-10.57-12.47-16-19.26a10,10,0,0,1-2.13-5.64c-.16-4.84-.12-9.73-.08-14.47l0-2.21a7.69,7.69,0,0,1,5.22-7.43,6.86,6.86,0,0,1,2.52-.5,6.77,6.77,0,0,1,5.23,2.66,7.6,7.6,0,0,1,.88,1.35c0-2.18,0-4.36,0-6.53,0-7,.08-14.11.15-21l0-4.7c.05-5,2.9-8.18,7.43-8.18h.09c4.41,0,7.29,3.22,7.33,8.09,0,3.21,0,6.43,0,9.64q0,3.67,0,7.34a7.82,7.82,0,0,1,3.16-.72c2,0,4.56.89,6.36,4.63A7.18,7.18,0,0,1,325,57a7.44,7.44,0,0,1,2.59.48,7,7,0,0,1,4.19,4,6.34,6.34,0,0,1,3.49-1,7.27,7.27,0,0,1,1.35.13A7.92,7.92,0,0,1,343,68.12c0,2.52,0,5,0,7.56.06,6.08.12,12.37-.26,18.57a119.79,119.79,0,0,1-2.22,15.08c-.28,1.48-.56,3-.83,4.43a4.8,4.8,0,0,1-4.24,3.46C330.26,117.27,324.84,117.3,319.43,117.3Z"/><path class="cls-3" d="M298.77,90.47c.06-1.1.14-1.88.13-2.67-.05-8.22-.17-16.44-.17-24.67,0-8.55.12-17.11.2-25.66,0-3.78,1.93-5.9,5.16-5.86s5,2.11,5,5.77c0,5.78,0,11.56,0,17.34,0,1.21.16,2.42.26,3.78,5.11-4.41,8.88-3,10.59,3.94,1.79-2.33,4-3.74,6.76-2.72s3.46,3.51,3.52,6.49c1.71-2,3.17-3.76,5.89-3.25a5.55,5.55,0,0,1,4.52,5.16c0,8.67.32,17.36-.21,26-.4,6.45-1.87,12.85-3,19.24a2.6,2.6,0,0,1-2,1.53q-15.23.15-30.46,0a3.72,3.72,0,0,1-2.45-1.25c-5.4-6.35-10.77-12.72-16-19.21A7.65,7.65,0,0,1,285,90.19c-.19-5.52-.1-11.06-.06-16.59a5.34,5.34,0,0,1,3.74-5.27,4.22,4.22,0,0,1,5.08,1.47,6.87,6.87,0,0,1,1.36,3.79,84.12,84.12,0,0,1,0,10.64C294.87,87.17,296.4,88.74,298.77,90.47Z"/><path class="cls-3" d="M58.36,41.71,60,52.63H54.91l-1-6.54H48.8l-1,6.54H42.75l1.63-10.89,3.55-19.91h6.89ZM45.5,16.08h3.94L52,20.57H49.18Zm7.78,25.63L51.36,28.88,49.44,41.71Z"/><path class="cls-3" d="M82.16,52.63H75.27L71.71,32.72,70.08,21.83h5.08l3.53,23.73,3.55-23.73h5.08L85.69,32.76Z"/><path class="cls-3" d="M104.43,46.72q0,6.46-7.23,6.48T90,46.72V27.87q0-6.47,7.21-6.46t7.23,6.46Zm-5-18.84q0-2.08-2.18-2.08h0Q95,25.79,95,27.87V46.72q0,2.08,2.18,2.08t2.2-2.08Z"/><path class="cls-3" d="M123,46.72q0,6.46-7.23,6.48t-7.21-6.48V21.89h5V46.72q0,2.08,2.18,2.08t2.2-2.08V21.89h5Z"/><path class="cls-3" d="M127,27.87q0-6.47,7.21-6.46t7.23,6.46V32h-5V27.87q0-2.08-2.18-2.08h0q-2.17,0-2.17,2.08v2.79q0,2.06,4.71,5t4.71,7.12v3.89q0,6.48-7.21,6.48T127,46.72V42.58h5v4.14q0,2.08,2.2,2.08t2.18-2.08V43.2q0-2.24-4.71-5.22T127,30.77Z"/><path class="cls-3" d="M154.76,21.83h7.74q6.7,0,6.7,6.48V46.16q0,6.45-7,6.46h-7.42Zm5,4.37v22H162q2.18,0,2.18-2.08V28.32A1.9,1.9,0,0,0,162,26.2Z"/><path class="cls-3" d="M173.47,21.83h13V26.2h-8V35h6.89v4.4h-6.89v8.81h8v4.39h-13Z"/><path class="cls-3" d="M197.48,42.58h5v4.14q0,2.08,2.2,2.08t2.18-2.08V21.89h5V46.72q0,6.48-7.21,6.48t-7.23-6.48Z"/><path class="cls-3" d="M230.62,46.72q0,6.46-7.23,6.48t-7.21-6.48V27.87q0-6.47,7.21-6.46t7.23,6.46Zm-5-18.84q0-2.08-2.18-2.08h0q-2.17,0-2.17,2.08V46.72q0,2.08,2.18,2.08t2.2-2.08Z"/><path class="cls-3" d="M249.14,46.72q0,6.46-7.23,6.48t-7.21-6.48V21.89h5V46.72q0,2.08,2.18,2.08t2.2-2.08V21.89h5Z"/><path class="cls-3" d="M253.58,21.83h13V26.2h-8V35h6.89v4.4h-6.89v8.81h8v4.39h-13Z"/><path class="cls-3" d="M270.35,21.83h7.32q6.69,0,6.7,6.48v4.62a5.2,5.2,0,0,1-4,5.36l5.65,14.33h-5.51L276,39.08l-.64.09V52.63h-5Zm5,4.37V35h1.16A5.51,5.51,0,0,0,278,34.9a1.91,1.91,0,0,0,1.37-2V28.32a1.9,1.9,0,0,0-2.18-2.11Z"/></g></g></svg>