<svg xmlns="http://www.w3.org/2000/svg" viewBox="0 0 247.41 136.05"><defs><style>.cls-1{fill:#fcc600;}.cls-2{fill:#4e96b3;}.cls-3{fill:#fff;}</style></defs><title>bt_je_valide</title><g id="Calque_2" data-name="Calque 2"><g id="boutons"><path class="cls-1" d="M159.72,49.47a56.57,56.57,0,0,0-9.48-17.71c.31-.2.62-.39.91-.6a4.55,4.55,0,0,0,2-3.72c.05-1.41,0-2.83,0-4.25a27.81,27.81,0,0,1,.17-5.56c.27-1.46.59-2.92,1-4.35a9.3,9.3,0,0,0-.1-5.35c-.52-1.71-1.08-3.41-1.59-5.12a3.33,3.33,0,0,1-.13-1.19,1.5,1.5,0,0,1,1.2-1.39,5.17,5.17,0,0,1,5.75,2,14.35,14.35,0,0,1,2.25,5.33,48.76,48.76,0,0,1,.89,6.07,7.24,7.24,0,0,0,.42,1.69,1.12,1.12,0,0,0,1.59.69,10.78,10.78,0,0,0,1.17-.6c2.92-1.59,5.84-3.19,8.77-4.76a6.61,6.61,0,0,1,1.88-.73,3.37,3.37,0,0,1,3.54,1.58,4.16,4.16,0,0,1,.45,4.24c-.34.77,0,1.26.83,1.27a3.66,3.66,0,0,1,3.41,4.69,3.32,3.32,0,0,1-.41.75.83.83,0,0,0,.54,1.4,3.61,3.61,0,0,1,2.72,4.31A2.7,2.7,0,0,1,186,29.88a1.18,1.18,0,0,0,0,2.1,3.2,3.2,0,0,1,0,5.5c-2.23,1.39-4.53,2.69-6.85,3.93A113.14,113.14,0,0,1,166.67,47a11.43,11.43,0,0,1-2,.55,14,14,0,0,0-4.65,1.77Z"/><path class="cls-1" d="M154,40.27a69.49,69.49,0,0,1,3.7,8.8l.79,2.26a1.33,1.33,0,0,1-.68,1.8c-1.41.78-2.8,1.58-4.21,2.36a.73.73,0,0,0-.43.78c.05,1,0,2.09.07,3.14a1.37,1.37,0,0,1-.91,1.42l-9.75,4.3a1.29,1.29,0,0,1-1.68-.51C139.66,62.78,55,101.15,53.78,99.31l-4.2-6.4-4.65-7.08c-.77-1.17-1.54-2.33-2.29-3.5a1.3,1.3,0,0,1,.7-2.13c2.35-1,88.17-42.19,90.52-43.19L141,34l5.36-2.28a1.23,1.23,0,0,1,1.45.27A29.22,29.22,0,0,1,152,37.09C152.71,38.13,153.32,39.21,154,40.27Zm-1.63,12.89,3.42-1.83-.87-2.44a50.41,50.41,0,0,0-4.68-9.94,29.57,29.57,0,0,0-3.35-4.36.37.37,0,0,0-.52-.1c-.43.21-.87.38-1.31.57l-1.73.77A74,74,0,0,1,152.33,53.16Z"/><rect class="cls-2" y="60.44" width="247.41" height="75.61" rx="37.8" ry="37.8"/><path class="cls-3" d="M54.5,103.61h5v4.69q0,2.36,2.2,2.36t2.18-2.36V80.22h5V108.3q0,7.34-7.21,7.33T54.5,108.3Z"/><path class="cls-3" d="M73.56,80.22h13v5h-8v10h6.89v5H78.58v10h8v5h-13Z"/><path class="cls-3" d="M109.82,115.07h-6.89L99.38,92.55,97.75,80.22h5.08l3.53,26.85,3.55-26.85H115l-1.63,12.36Z"/><path class="cls-3" d="M131.33,102.71,133,115.07h-5.08l-1-7.39h-5.13l-1,7.39h-5.06l1.63-12.31,3.55-22.54h6.89Zm-5.08,0-1.92-14.49-1.92,14.49Z"/><path class="cls-3" d="M136,115.07V80.22h5v29.89h8v5Z"/><path class="cls-3" d="M152.13,80.22h5v34.85h-5Z"/><path class="cls-3" d="M161.86,80.22h7.74q6.7,0,6.7,7.34v20.19q0,7.3-7,7.32h-7.42Zm5,5v24.94h2.2q2.18,0,2.18-2.36V87.56q0-2.38-2.18-2.38Z"/><path class="cls-3" d="M180.56,80.22h13v5h-8v10h6.89v5h-6.89v10h8v5h-13Z"/></g></g></svg>