<svg xmlns="http://www.w3.org/2000/svg" viewBox="0 0 1920 1080"><defs><style>.cls-1{fill:#bd9500;}.cls-2{fill:#f27162;}.cls-3{fill:#fff;}</style></defs><title>game3_flag2</title><g id="vignette_etape_jeu3" data-name="vignette etape jeu3"><polygon class="cls-1" points="206.5 206.75 134.96 179.41 63.41 206.75 63.41 -0.72 206.5 -0.72 206.5 206.75"/><polygon class="cls-2" points="215.11 196.46 143.57 169.13 72.03 196.46 72.03 0 215.11 0 215.11 196.46"/><path class="cls-3" d="M104,105.79q0-7.71,7.68-13.2,7.2-5.15,7.23-8.61V73.14q0-3.18-2.73-3.18h-.06q-2.76,0-2.76,3.18v8H104v-8Q104,61,116.14,61T128.3,73.14v11q0,7.85-7.71,13.37-7.21,5.15-7.21,8.92v2.76H128.3v9H104Z"/><path class="cls-3" d="M155.26,61.83,144,118.2H136l11.23-56.37Z"/><path class="cls-3" d="M186.28,61.86V95.68h3.07v9h-3.07V118.2H176.9V104.66H160.75V97L174.9,61.86Zm-16,33.83h6.64V78.83Z"/></g></svg>