<svg xmlns="http://www.w3.org/2000/svg" xmlns:xlink="http://www.w3.org/1999/xlink" viewBox="0 0 1920 1080"><defs><style>.cls-1{fill:none;}.cls-2{opacity:0.12;}.cls-3{clip-path:url(#clip-path);}.cls-4{fill:#fff;}.cls-5{opacity:0.17;}.cls-6{clip-path:url(#clip-path-2);}.cls-7{fill:#bd9500;}.cls-8{fill:#f27162;}</style><clipPath id="clip-path"><rect class="cls-1" x="-1032.51" y="1536.71" width="1920" height="1080"/></clipPath><clipPath id="clip-path-2"><rect class="cls-1" x="1013.82" y="1536.71" width="1920" height="1080"/></clipPath></defs><title>game3_flag4</title><g id="contenus_animés" data-name="contenus animés"><g class="cls-2"><g class="cls-3"><polygon class="cls-4" points="100.25 806.18 100.67 801.69 72.72 801.72 100.25 806.18"/><polygon class="cls-4" points="629.53 967.98 -72.51 2616.71 797.55 1063.99 629.53 967.98"/><polygon class="cls-4" points="504.52 887.17 -72.51 2616.71 603.62 933.27 504.52 887.17"/><polygon class="cls-4" points="-248.83 802 -72.51 2616.71 44.84 801.74 -248.83 802"/></g></g><g class="cls-5"><g class="cls-6"><polygon class="cls-4" points="1797.5 802 1973.82 2616.71 2091.17 801.74 1797.5 802"/><polygon class="cls-4" points="1098.89 1025.99 1973.82 2616.71 1393.8 888.17 1098.89 1025.99"/><polygon class="cls-4" points="1019.82 1062.95 1973.82 2616.71 1073.55 1037.84 1019.82 1062.95"/></g></g></g><g id="vignette_etape_jeu3" data-name="vignette etape jeu3"><polygon class="cls-7" points="206.5 206.75 134.96 179.41 63.41 206.75 63.41 -0.72 206.5 -0.72 206.5 206.75"/><polygon class="cls-8" points="215.11 196.46 143.57 169.13 72.03 196.46 72.03 0 215.11 0 215.11 196.46"/><path class="cls-4" d="M127.35,61.86V95.68h3.07v9h-3.07V118.2H118V104.66H101.82V97L116,61.86Zm-16,33.83H118V78.83Z"/><path class="cls-4" d="M155.26,61.83,144,118.2H136l11.23-56.37Z"/><path class="cls-4" d="M186.28,61.86V95.68h3.07v9h-3.07V118.2H176.9V104.66H160.75V97l14.16-35.18Zm-16,33.83h6.64V78.83Z"/></g></svg>