<svg xmlns="http://www.w3.org/2000/svg" viewBox="0 0 1136.36 82.42"><defs><style>.cls-1{fill:#fcc600;}.cls-2{fill:#4e96b3;}</style></defs><title>game3_bt_end</title><g id="Calque_2" data-name="Calque 2"><g id="boutons"><rect class="cls-1" width="1136.36" height="82.42" rx="41.21" ry="41.21"/><path class="cls-2" d="M47.49,58.54H40L36.1,36.84,34.32,25h5.54l3.85,25.87L47.58,25h5.54L51.34,36.88Z"/><path class="cls-2" d="M71.76,52.1q0,7-7.88,7.07T56,52.1V31.56q0-7,7.86-7t7.88,7ZM66.29,31.56q0-2.27-2.38-2.27h0q-2.36,0-2.36,2.27V52.1q0,2.27,2.38,2.27t2.4-2.27Z"/><path class="cls-2" d="M76.51,25H82V58.54H76.51Z"/><path class="cls-2" d="M87.12,25h8q7.3,0,7.3,7.07v5a5.67,5.67,0,0,1-4.32,5.85l6.16,15.62h-6L93.29,43.77l-.7.1V58.54H87.12Zm5.48,4.76v9.62h1.26a6,6,0,0,0,1.57-.14,2.08,2.08,0,0,0,1.49-2.15V32a2.07,2.07,0,0,0-2.38-2.3Z"/><path class="cls-2" d="M116.56,58.54V25H122V53.76h8.73v4.78Z"/><path class="cls-2" d="M134.06,25h14.21v4.76h-8.73v9.62h7.51v4.8h-7.51v9.6h8.73v4.78H134.06Z"/><path class="cls-2" d="M162.17,25h8q7.3,0,7.3,7.07v5q0,5.21-5.25,6.72a13.84,13.84,0,0,1-3.66.37h-.89V58.54h-5.48Zm5.48,4.76v9.62h1.26a6,6,0,0,0,1.57-.14A2.08,2.08,0,0,0,172,37.07V32a2.07,2.07,0,0,0-2.38-2.3Z"/><path class="cls-2" d="M181.51,25h8q7.3,0,7.3,7.07v5a5.67,5.67,0,0,1-4.32,5.85l6.16,15.62h-6l-4.94-14.77-.7.1V58.54h-5.48ZM187,29.74v9.62h1.26a6,6,0,0,0,1.57-.14,2.08,2.08,0,0,0,1.49-2.15V32a2.07,2.07,0,0,0-2.38-2.3Z"/><path class="cls-2" d="M216.17,52.1q0,7-7.88,7.07t-7.86-7.07V31.56q0-7,7.86-7t7.88,7Zm-5.48-20.54q0-2.27-2.38-2.27h0q-2.36,0-2.36,2.27V52.1q0,2.27,2.38,2.27t2.4-2.27Z"/><path class="cls-2" d="M236.17,52.1q0,7-7.88,7.07t-7.86-7.07V31.56q0-7,7.86-7t7.88,7v4.51h-5.48V31.56q0-2.27-2.38-2.27h0q-2.36,0-2.36,2.27V52.1q0,2.27,2.38,2.27t2.4-2.27V47.59h5.48Z"/><path class="cls-2" d="M240.62,25h5.48V39.36h4.78V25h5.48V58.54h-5.48V44.16H246.1V58.54h-5.48Z"/><path class="cls-2" d="M276.67,46.64l1.78,11.91h-5.54l-1.06-7.12h-5.6l-1.08,7.12h-5.52l1.78-11.87L265.3,25h7.51Zm-5.54,0-2.09-14-2.09,14Z"/><path class="cls-2" d="M281.84,25h5.48V58.54h-5.48Z"/><path class="cls-2" d="M292.45,25h5.48l5.19,19.48V25h5.07V58.54h-5.48l-5-18.86V58.54h-5.27Z"/><path class="cls-2" d="M323.05,25h14.21v4.76h-8.73v9.62H336v4.8h-7.51v9.6h8.73v4.78H323.05Zm7-1.37h-3l2.75-4.9H334Z"/><path class="cls-2" d="M341.33,25h8q7.3,0,7.3,7.07v5q0,5.21-5.25,6.72a13.84,13.84,0,0,1-3.66.37h-.89V58.54h-5.48Zm5.48,4.76v9.62h1.26a6,6,0,0,0,1.57-.14,2.08,2.08,0,0,0,1.49-2.15V32a2.07,2.07,0,0,0-2.38-2.3Z"/><path class="cls-2" d="M360.77,25h5.48V58.54h-5.48Z"/><path class="cls-2" d="M371,31.56q0-7,7.86-7t7.88,7v4.51h-5.48V31.56q0-2.27-2.38-2.27h0q-2.36,0-2.36,2.27v3q0,2.25,5.13,5.5t5.13,7.76V52.1q0,7.07-7.86,7.07T371,52.1V47.59h5.48V52.1q0,2.27,2.4,2.27t2.38-2.27V48.26q0-2.44-5.13-5.69T371,34.71Z"/><path class="cls-2" d="M406.73,52.1q0,7-7.88,7.07T391,52.1V31.56q0-7,7.86-7t7.88,7Zm-5.48-20.54q0-2.27-2.38-2.27h0q-2.36,0-2.36,2.27V52.1q0,2.27,2.38,2.27t2.4-2.27Z"/><path class="cls-2" d="M411.37,25h8.44q7.3,0,7.3,7.07V51.5q0,7-7.65,7h-8.09Zm5.48,4.76v24h2.4q2.38,0,2.38-2.26V32a2.07,2.07,0,0,0-2.38-2.3Z"/><path class="cls-2" d="M431.76,25H446v4.76h-8.73v9.62h7.51v4.8h-7.51v9.6H446v4.78H431.76Z"/><path class="cls-2" d="M466.65,33.16h-6.78V27.59l2.07-7h3.56l-1.12,6.33h2.26Zm9.49,0h-6.78V27.59l2.07-7H475l-1.12,6.33h2.26Z"/><path class="cls-2" d="M480.14,20.56h8q7.3,0,7.3,8v5.71q0,5-4.32,6.6l6.16,17.68h-6l-4.94-16.71-.7.1V58.54h-5.48Zm5.48,5.4V36.84h1.26a5.28,5.28,0,0,0,1.57-.16,2.35,2.35,0,0,0,1.49-2.42V28.56q0-2.59-2.38-2.59Z"/><path class="cls-2" d="M500.35,25h14.21v4.76h-8.73v9.62h7.51v4.8h-7.51v9.6h8.73v4.78H500.35Zm7-1.37h-3L507,18.7h4.3Z"/><path class="cls-2" d="M518.63,25h8.44q7.3,0,7.3,7.07V51.5q0,7-7.65,7h-8.09Zm5.48,4.76v24h2.4q2.38,0,2.38-2.26V32a2.07,2.07,0,0,0-2.38-2.3Z"/><path class="cls-2" d="M539.11,25h5.48V58.54h-5.48Z"/><path class="cls-2" d="M565.07,52.1q0,7-7.88,7.07t-7.86-7.07V31.56q0-7,7.86-7t7.88,7v4.51h-5.48V31.56q0-2.27-2.38-2.27h0q-2.36,0-2.36,2.27V52.1q0,2.27,2.38,2.27t2.4-2.27V44.22h-2.38V39.44h7.86Z"/><path class="cls-2" d="M569.72,25h14.21v4.76H575.2v9.62h7.51v4.8H575.2v9.6h8.73v4.78H569.72Z"/><path class="cls-2" d="M588,25h8q7.3,0,7.3,7.07v5A5.67,5.67,0,0,1,599,42.92l6.16,15.62h-6l-4.94-14.77-.7.1V58.54H588Zm5.48,4.76v9.62h1.26a6,6,0,0,0,1.57-.14,2.08,2.08,0,0,0,1.49-2.15V32a2.07,2.07,0,0,0-2.38-2.3Z"/><path class="cls-2" d="M633,52.1q0,7-7.88,7.07t-7.86-7.07V25h5.48V52.1q0,2.27,2.38,2.27t2.4-2.27V25H633Z"/><path class="cls-2" d="M637.83,25h5.48l5.19,19.48V25h5.07V58.54h-5.48l-5-18.86V58.54h-5.27Z"/><path class="cls-2" d="M658.6,25h14.21v4.76h-8.73v9.62h7.51v4.8h-7.51v9.6h8.73v4.78H658.6Z"/><path class="cls-2" d="M686.71,58.54V25h5.48V53.76h8.73v4.78Z"/><path class="cls-2" d="M704.21,25h14.21v4.76h-8.73v9.62h7.51v4.8h-7.51v9.6h8.73v4.78H704.21Z"/><path class="cls-2" d="M736.68,25v4.76h-5.13V58.54h-5.48V29.74h-5.13V25Z"/><path class="cls-2" d="M754.35,25v4.76h-5.13V58.54h-5.48V29.74h-5.13V25Z"/><path class="cls-2" d="M757.84,25h8q7.3,0,7.3,7.07v5a5.67,5.67,0,0,1-4.32,5.85L775,58.54h-6L764,43.77l-.7.1V58.54h-5.48Zm5.48,4.76v9.62h1.26a6,6,0,0,0,1.57-.14,2.08,2.08,0,0,0,1.49-2.15V32a2.07,2.07,0,0,0-2.38-2.3Z"/><path class="cls-2" d="M777,25h14.21v4.76h-8.73v9.62H790v4.8h-7.51v9.6h8.73v4.78H777Z"/><path class="cls-2" d="M805.11,25h8.44q7.3,0,7.3,7.07V51.5q0,7-7.65,7h-8.09Zm5.48,4.76v24H813q2.38,0,2.38-2.26V32a2.07,2.07,0,0,0-2.38-2.3Z"/><path class="cls-2" d="M825.5,25h14.21v4.76H831v9.62h7.51v4.8H831v9.6h8.73v4.78H825.5Z"/><path class="cls-2" d="M865.54,48l6.37-23h5.48V58.54h-5.25V39.71l-4.69,18.84h-3.72l-4.82-18.84V58.54h-5.3V25h5.48Z"/><path class="cls-2" d="M897.77,52.1q0,7-7.88,7.07T882,52.1V31.56q0-7,7.86-7t7.88,7Zm-5.48-20.54q0-2.27-2.38-2.27h0q-2.36,0-2.36,2.27V52.1q0,2.27,2.38,2.27t2.4-2.27Z"/><path class="cls-2" d="M916.61,25v4.76h-5.13V58.54H906V29.74h-5.13V25Z"/><path class="cls-2" d="M920.19,25h5.48V58.54h-5.48Z"/><path class="cls-2" d="M942.22,58.54h-7.51l-3.87-21.7L929.06,25h5.54l3.85,25.87L942.32,25h5.54l-1.78,11.91Z"/><path class="cls-2" d="M966.42,46.64l1.78,11.91h-5.54l-1.06-7.12H956l-1.08,7.12H949.4l1.78-11.87L955.06,25h7.51Zm-5.54,0-2.09-14-2.09,14Z"/><path class="cls-2" d="M984.77,25v4.76h-5.13V58.54h-5.48V29.74H969V25Z"/><path class="cls-2" d="M988.36,25h5.48V58.54h-5.48Z"/><path class="cls-2" d="M1014.32,52.1q0,7-7.88,7.07t-7.86-7.07V31.56q0-7,7.86-7t7.88,7Zm-5.48-20.54q0-2.27-2.38-2.27h0q-2.36,0-2.36,2.27V52.1q0,2.27,2.38,2.27t2.4-2.27Z"/><path class="cls-2" d="M1019,25h5.48l5.19,19.48V25h5.07V58.54h-5.48l-5-18.86V58.54H1019Z"/><path class="cls-2" d="M1039.74,20.54h6.78v5.58l-2.07,7h-3.56l1.12-6.33h-2.27Zm9.49,0H1056v5.58l-2.07,7h-3.56l1.12-6.33h-2.27Z"/><path class="cls-2" d="M1075.3,41.2q0-7.68,0-15.36c0-.31,0-.62,0-.93.12-2.76,2.06-3.83,4.47-2.46,1.07.61,2.14,1.24,3.21,1.87l18.86,11c2,1.18,4,2.33,6,3.58s2,3.4,0,4.74c-.39.27-.8.53-1.21.77q-8.68,5-17.37,10c-3.21,1.85-6.41,3.73-9.67,5.49-2.22,1.19-4.12,0-4.15-2.51-.05-5.4,0-10.8,0-16.21Z"/></g></g></svg>