<svg xmlns="http://www.w3.org/2000/svg" xmlns:xlink="http://www.w3.org/1999/xlink" viewBox="0 0 1920 1080"><defs><style>.cls-1{fill:none;}.cls-2{opacity:0.12;}.cls-3{clip-path:url(#clip-path);}.cls-4{fill:#fff;}.cls-5{fill:#bd9500;}.cls-6{fill:#f27162;}</style><clipPath id="clip-path"><rect class="cls-1" x="1286.66" y="1536.71" width="1920" height="1080"/></clipPath></defs><title>game3_flag3</title><g id="contenus_animés" data-name="contenus animés"><g class="cls-2"><g class="cls-3"><polygon class="cls-4" points="1371.74 1025.99 2246.66 2616.71 1666.64 888.17 1371.74 1025.99"/><polygon class="cls-4" points="1292.67 1062.95 2246.66 2616.71 1346.4 1037.84 1292.67 1062.95"/></g></g></g><g id="vignette_etape_jeu3" data-name="vignette etape jeu3"><polygon class="cls-5" points="206.5 206.75 134.96 179.41 63.41 206.75 63.41 -0.72 206.5 -0.72 206.5 206.75"/><polygon class="cls-6" points="215.11 196.46 143.57 169.13 72.03 196.46 72.03 0 215.11 0 215.11 196.46"/><path class="cls-4" d="M113.3,106.89q.08,3.18,2.87,3.18t2.84-3.18v-9.4q0-2.67-.9-3.07a4.74,4.74,0,0,0-1.75-.23H113v-9h4a2.75,2.75,0,0,0,1.29-.23q.73-.42.73-2.93V73.14Q118.93,70,116.17,70t-2.87,3.18v8H104v-8Q104,61,116.17,61T128.3,73.14v9q0,5.74-3.77,7.68,3.77,1.94,3.77,7.68v9.4q0,12.19-12.13,12.19T104,106.89v-8h9.29Z"/><path class="cls-4" d="M155.26,61.83,144,118.2H136l11.23-56.37Z"/><path class="cls-4" d="M186.27,61.86V95.68h3.07v9h-3.07V118.2H176.9V104.66H160.75V97L174.9,61.86Zm-16,33.83h6.64V78.83Z"/></g></svg>