<svg xmlns="http://www.w3.org/2000/svg" viewBox="0 0 515 274.06"><defs><style>.cls-1{fill:#828282;opacity:0.16;}.cls-2{fill:#4e96b3;}.cls-3{fill:#fff;}</style></defs><title>game1_bulle1</title><g id="Calque_2" data-name="Calque 2"><g id="bulle_jeu_1" data-name="bulle jeu 1"><path class="cls-1" d="M515,274.06C463.5,253.15,424,210.4,412.88,196h45.48c18,0,32.64-13.76,32.64-30.73V9H32.64C14.61,9,0,22.76,0,39.73V165.24C0,182.22,14.61,196,32.64,196h327C406.53,260.55,515,274.06,515,274.06Z"/><path class="cls-2" d="M515,274.06c-50.15-21.62-88.62-71-99.43-85.91h44.28a31.78,31.78,0,0,0,31.78-31.78V0H45.33A31.78,31.78,0,0,0,13.56,31.78v124.6a31.78,31.78,0,0,0,31.78,31.78H363.77C409.39,254.93,515,274.06,515,274.06Z"/><path class="cls-3" d="M73,37.55h2.37l5.45,19.81,5.48-19.81h2.27l-6.66,23H79.63Z"/><path class="cls-3" d="M89.75,52.1c0-4.83,2-8.84,6.54-8.84s6.51,4,6.51,8.88-2,8.88-6.51,8.88-6.54-4-6.54-8.88Zm2.18.06c0,4.48,1.46,6.88,4.39,6.88s4.3-2.4,4.3-6.91-1.46-6.91-4.36-6.91-4.33,2.4-4.33,6.91Z"/><path class="cls-3" d="M107.51,37.55h2.09v3.05h-2.09Zm0,6.1h2.09V60.6h-2.09Z"/><path class="cls-3" d="M126.35,54.84C126,58.3,124.11,61,120.74,61c-4.52,0-6.54-4.24-6.54-8.84,0-5.54,2.62-8.91,6.45-8.91,3.49,0,5.45,2.68,5.61,6.26h-2.12c-.34-3.36-2-4.3-3.55-4.3A3.29,3.29,0,0,0,117.5,47a10,10,0,0,0-1.09,5.11c0,4.45,1.53,6.91,4.2,6.91,2.09,0,3.27-1.68,3.58-4.2Z"/><path class="cls-3" d="M130.55,37.55h2.09v3.05h-2.09Zm0,6.1h2.09V60.6h-2.09Z"/><path class="cls-3" d="M158.37,60.6h-1.93c0-1,0-1.9.06-3A4.75,4.75,0,0,1,151.76,61c-2.9,0-4.86-1.68-4.86-5.79V43.66H149v10.9c0,1.71.25,4.39,3.24,4.39,2.46,0,4-1.71,4-5.26v-10h2.09Z"/><path class="cls-3" d="M163.72,43.66h1.87c0,1,0,1.84-.06,2.9a4.83,4.83,0,0,1,4.8-3.3c2.9,0,4.86,1.68,4.86,5.79V60.6H173.1V49.7c0-1.71-.25-4.39-3.24-4.39-2.46,0-4,1.71-4,5.26v10h-2.09Z"/><path class="cls-3" d="M189.26,43.66h2c0,.87,0,1.78-.06,2.77a4.19,4.19,0,0,1,4.3-3.18,4,4,0,0,1,3,1.15,4,4,0,0,1,.93,2,4.63,4.63,0,0,1,1.4-2.15,5.19,5.19,0,0,1,3.11-1,4.36,4.36,0,0,1,4,2.18,10.2,10.2,0,0,1,.78,4.64V60.6h-2.09V50.23a10.21,10.21,0,0,0-.34-3.15,2.59,2.59,0,0,0-2.58-1.78,3.1,3.1,0,0,0-2.74,1.37,6.63,6.63,0,0,0-.9,3.71V60.6h-2.09V50.32a10.13,10.13,0,0,0-.34-3.24A2.56,2.56,0,0,0,195,45.31a3.2,3.2,0,0,0-2.74,1.31,6.67,6.67,0,0,0-.9,3.83V60.6h-2.09Z"/><path class="cls-3" d="M213.06,52.1c0-4.83,2-8.84,6.54-8.84s6.51,4,6.51,8.88-2,8.88-6.51,8.88-6.54-4-6.54-8.88Zm2.18.06c0,4.48,1.46,6.88,4.39,6.88s4.3-2.4,4.3-6.91-1.46-6.91-4.36-6.91-4.33,2.4-4.33,6.91Z"/><path class="cls-3" d="M241.71,60.6h-1.93c0-1.56,0-2.49,0-3.36A4.62,4.62,0,0,1,235.32,61c-3.36,0-5.67-3.55-5.67-8.84s2.12-8.91,5.67-8.91c1.9,0,3.46,1,4.36,3.58-.06-1-.06-1.93-.06-3.18v-6.1h2.09Zm-10-8.47c0,3.83,1.37,6.79,4,6.79a3.33,3.33,0,0,0,3-1.87,9.37,9.37,0,0,0,1-5,9.37,9.37,0,0,0-1-5,3.36,3.36,0,0,0-3-1.84c-2.58,0-4,2.93-4,6.79Z"/><path class="cls-3" d="M248.4,52.75c0,3.52,1.43,6.29,4.3,6.29a3.85,3.85,0,0,0,3.8-3.36h2.06a6.78,6.78,0,0,1-2.12,4A5.66,5.66,0,0,1,252.7,61c-4.67,0-6.48-4.48-6.48-8.84,0-5.26,2.43-8.91,6.42-8.91a5.26,5.26,0,0,1,4.55,2.4c1.37,2,1.59,4.64,1.56,7.1Zm7.44-12.18L255.07,42l-6.94-3.71.84-1.68Zm.78,10.34c-.06-3.52-1.53-5.89-4.08-5.89s-4.08,2.52-4.14,5.89Z"/><path class="cls-3" d="M263.45,37.55h2.09v23h-2.09Z"/><path class="cls-3" d="M272.48,52.75c0,3.52,1.43,6.29,4.3,6.29a3.85,3.85,0,0,0,3.8-3.36h2.06a6.78,6.78,0,0,1-2.12,4A5.66,5.66,0,0,1,276.78,61c-4.67,0-6.48-4.48-6.48-8.84,0-5.26,2.43-8.91,6.42-8.91a5.26,5.26,0,0,1,4.55,2.4c1.37,2,1.59,4.64,1.56,7.1Zm8.22-1.84c-.06-3.52-1.53-5.89-4.08-5.89s-4.08,2.52-4.14,5.89Z"/><path class="cls-3" d="M296.83,45.62h-2.37v-2h2.37V38.3h2.09v5.36h2.34v2h-2.34v15h-2.09Z"/><path class="cls-3" d="M308.08,60.19l-4.89-16.54h2.18l3.77,13.49,4-13.49h2.15L308,66.86H305.9Z"/><path class="cls-3" d="M318.73,43.66h1.93c0,1.28,0,2.21,0,3.24.87-2.55,2.43-3.64,4.45-3.64,3.39,0,5.7,3.52,5.7,8.91,0,5.17-2.12,8.84-5.7,8.84a4.6,4.6,0,0,1-4.33-3.49c.06.75.06,1.62.06,3.08v6.26h-2.09Zm10,8.44c0-3.83-1.34-6.79-4-6.79a3.24,3.24,0,0,0-2.9,1.87,9,9,0,0,0-1,5,9.1,9.1,0,0,0,1,5,3.24,3.24,0,0,0,2.9,1.87c2.62,0,4-3,4-6.82Z"/><path class="cls-3" d="M336.57,52.75c0,3.52,1.43,6.29,4.3,6.29a3.85,3.85,0,0,0,3.8-3.36h2.06a6.78,6.78,0,0,1-2.12,4A5.66,5.66,0,0,1,340.87,61c-4.67,0-6.48-4.48-6.48-8.84,0-5.26,2.43-8.91,6.42-8.91a5.26,5.26,0,0,1,4.55,2.4c1.37,2,1.59,4.64,1.56,7.1Zm8.22-1.84c-.06-3.52-1.53-5.89-4.08-5.89s-4.08,2.52-4.14,5.89Z"/><path class="cls-3" d="M371.27,60.6h-1.93c0-1.56,0-2.49,0-3.36A4.62,4.62,0,0,1,364.88,61c-3.36,0-5.67-3.55-5.67-8.84s2.12-8.91,5.67-8.91c1.9,0,3.46,1,4.36,3.58-.06-1-.06-1.93-.06-3.18v-6.1h2.09Zm-10-8.47c0,3.83,1.37,6.79,4,6.79a3.33,3.33,0,0,0,3-1.87,9.37,9.37,0,0,0,1-5,9.37,9.37,0,0,0-1-5,3.36,3.36,0,0,0-3-1.84c-2.58,0-4,2.93-4,6.79Z"/><path class="cls-3" d="M378,52.75c0,3.52,1.43,6.29,4.3,6.29a3.85,3.85,0,0,0,3.8-3.36h2.06a6.78,6.78,0,0,1-2.12,4A5.66,5.66,0,0,1,382.26,61c-4.67,0-6.48-4.48-6.48-8.84,0-5.26,2.43-8.91,6.42-8.91a5.26,5.26,0,0,1,4.55,2.4c1.37,2,1.59,4.64,1.56,7.1Zm8.22-1.84c-.06-3.52-1.53-5.89-4.08-5.89S378,47.55,378,50.91Z"/><path class="cls-3" d="M415.8,53.09c0,4-2.34,7.91-7.19,7.91s-8-4.14-8-11.93c0-7.29,2.71-11.93,8-11.93,4.86,0,7.23,4,7.19,8.41h-2.3c-.06-3-1.25-6.23-4.76-6.23-4,0-5.73,3.89-5.73,10,0,6.54,2.43,9.53,5.73,9.53,3.55,0,4.64-3,4.76-5.73Z"/><path class="cls-3" d="M418,37.55h2.37l5.45,19.81,5.48-19.81h2.27l-6.66,23h-2.24Z"/><path class="cls-3" d="M82.68,105.6H80.75c0-1.49,0-2.43,0-3.24C80,104.67,78.45,106,76.3,106c-3.36,0-5.67-3.55-5.67-8.84s2.12-8.91,5.67-8.91c1.9,0,3.58,1,4.48,3.67,0-1,0-2,0-3.27h1.93Zm-10-8.44c0,3.83,1.37,6.79,4,6.79a3.33,3.33,0,0,0,3-1.87,9.44,9.44,0,0,0,1-5,9.3,9.3,0,0,0-1-5,3.33,3.33,0,0,0-3-1.87c-2.58,0-4,3-4,6.82Z"/><path class="cls-3" d="M93.21,105.6H91.12L86,88.66h2.12l4,14.14L96,88.66h2.09Z"/><path class="cls-3" d="M102.58,97.75c0,3.52,1.43,6.29,4.3,6.29a3.85,3.85,0,0,0,3.8-3.36h2.06a6.78,6.78,0,0,1-2.12,4,5.66,5.66,0,0,1-3.74,1.34c-4.67,0-6.48-4.48-6.48-8.84,0-5.26,2.43-8.91,6.42-8.91a5.26,5.26,0,0,1,4.55,2.4c1.37,2,1.59,4.64,1.56,7.1Zm8.22-1.84c-.06-3.52-1.53-5.89-4.08-5.89s-4.08,2.52-4.14,5.89Z"/><path class="cls-3" d="M128.53,99.84c-.37,3.46-2.24,6.17-5.61,6.17-4.52,0-6.54-4.24-6.54-8.84,0-5.54,2.62-8.91,6.45-8.91,3.49,0,5.45,2.68,5.61,6.26h-2.12c-.34-3.36-2-4.3-3.55-4.3A3.29,3.29,0,0,0,119.68,92a10,10,0,0,0-1.09,5.11c0,4.45,1.53,6.91,4.2,6.91,2.09,0,3.27-1.68,3.58-4.2Z"/><path class="cls-3" d="M141.48,82.55h2.09v23h-2.09Z"/><path class="cls-3" d="M150.52,97.75c0,3.52,1.43,6.29,4.3,6.29a3.85,3.85,0,0,0,3.8-3.36h2.06a6.78,6.78,0,0,1-2.12,4,5.66,5.66,0,0,1-3.74,1.34c-4.67,0-6.48-4.48-6.48-8.84,0-5.26,2.43-8.91,6.42-8.91a5.26,5.26,0,0,1,4.55,2.4c1.37,2,1.59,4.64,1.56,7.1Zm8.22-1.84c-.06-3.52-1.53-5.89-4.08-5.89s-4.08,2.52-4.14,5.89Z"/><path class="cls-3" d="M172.13,93c0-2.15-1.12-2.93-2.74-2.93a2.39,2.39,0,0,0-2.46,2.52c0,1.9,1.59,2.58,3.64,3.21,1.87.56,4,1.71,4,5.11a4.86,4.86,0,0,1-5,5c-3.08,0-5.14-1.84-5.29-5.39h2.06c0,2.3,1.37,3.46,3.24,3.46a2.72,2.72,0,0,0,2.86-3c0-2.06-1.43-2.87-3.71-3.58s-4-1.81-4-4.83c0-2.71,2-4.45,4.73-4.45s4.61,1.65,4.7,4.8Z"/><path class="cls-3" d="M199.57,105.41a6.14,6.14,0,0,1-1.65,4.52,6.54,6.54,0,0,1-4.77,1.65,5.86,5.86,0,0,1-6.1-4.92h4.36a1.63,1.63,0,0,0,.59.75,2.26,2.26,0,0,0,1.15.25c1.87,0,2.27-1.12,2.34-2.68a9.33,9.33,0,0,0,0-.93c-.44,1.31-1.37,1.93-3.11,1.93-3.92,0-5.57-3.24-5.57-9.22s1.65-9.22,5.57-9.22A3.73,3.73,0,0,1,196,89.65V87.91h3.55Zm-8.63-8.63c0,3.89.87,5,2.27,5a1.82,1.82,0,0,0,1.65-.78c.53-.65.53-1.49.53-4.27s0-3.61-.53-4.27a1.82,1.82,0,0,0-1.65-.78c-1.4,0-2.27,1.12-2.27,5Z"/><path class="cls-3" d="M204.43,87.91h3.8v2.3c.62-2.21,2.18-2.68,4.48-2.68v5.14a3.14,3.14,0,0,0-1.84-.53c-1.56,0-2.27,1.31-2.27,3.11V105.6h-4.17Z"/><path class="cls-3" d="M227.54,105.6h-3.8v-1.68a3.49,3.49,0,0,1-3.43,2.06c-3.18,0-5.57-2.87-5.57-9.22,0-6,2-9.22,5.57-9.22a3.35,3.35,0,0,1,3.43,2.18V87.91h3.8Zm-8.63-8.81c0,3.89.87,5,2.27,5a1.82,1.82,0,0,0,1.65-.78c.53-.65.53-1.49.53-4.27s0-3.61-.53-4.27a1.82,1.82,0,0,0-1.65-.78c-1.4,0-2.27,1.12-2.27,5Z"/><path class="cls-3" d="M232.4,87.91H236v1.68c.69-1.25,1.59-2.06,3.77-2.06,2.8,0,4.58,1.56,4.58,5.14V105.6h-4.17V94c0-1.21-.28-2.34-1.74-2.34-1.09,0-1.87.56-1.87,2.06V105.6H232.4Z"/><path class="cls-3" d="M261.17,105.6h-3.8v-2a3.33,3.33,0,0,1-3.43,2.37c-3.18,0-5.57-2.87-5.57-9.22,0-6,2-9.22,5.57-9.22A3.11,3.11,0,0,1,257,89.41c0-.5,0-1,0-1.49V82.55h4.17Zm-8.63-8.81c0,3.89.87,5,2.27,5a1.82,1.82,0,0,0,1.65-.78c.53-.65.53-1.49.53-4.27s0-3.61-.53-4.27a1.82,1.82,0,0,0-1.65-.78c-1.4,0-2.27,1.12-2.27,5Z"/><path class="cls-3" d="M269.83,98.25c0,1.74.47,3.8,2.34,3.8,1.09,0,1.87-.69,2.18-2.18h4.14a7.12,7.12,0,0,1-2.55,5,6.48,6.48,0,0,1-3.77,1.15c-4.64,0-6.82-4.11-6.82-9.22s2.18-9.22,6.82-9.22a5.57,5.57,0,0,1,5.14,2.83c1.31,2.27,1.4,5.17,1.31,7.88Zm4.61-3.55c0-1.06-.16-3.74-2.21-3.74-1.46,0-2.4,1.25-2.4,3.74Z"/><path class="cls-3" d="M289.51,93.14c-.06-1.31-.59-2-1.87-2a1.33,1.33,0,0,0-1.5,1.37c0,1.49,2,1.62,4,2.24s4,1.81,4,5.42c0,3.3-2.62,5.79-6.26,5.79-3.39,0-6.07-1.87-6.45-6h4.17a2.27,2.27,0,0,0,2.4,2.24,1.58,1.58,0,0,0,1.71-1.78c0-1.53-2-1.68-4-2.34s-4-1.87-4-5.39c0-3,2.06-5.14,6-5.14s5.67,2.18,5.92,5.61Z"/><path class="cls-3" d="M307.83,87.91h3.8v2.3c.62-2.21,2.18-2.68,4.48-2.68v5.14a3.14,3.14,0,0,0-1.84-.53c-1.56,0-2.27,1.31-2.27,3.11V105.6h-4.17Z"/><path class="cls-3" d="M331.4,105.6h-3.77v-1.87c-.53,1.43-1.43,2.24-3.61,2.24-2.8,0-4.58-1.56-4.58-5.14V87.91h4.17V99.46c0,1.21.28,2.34,1.74,2.34,1.09,0,1.87-.56,1.87-2.06V87.91h4.17Z"/><path class="cls-3" d="M336.26,82.55h4.17v7a3,3,0,0,1,3.05-2.06c3.61,0,5.57,3.24,5.57,9.22,0,6.35-2.4,9.22-5.57,9.22a3.46,3.46,0,0,1-3.43-2.12v1.74h-3.8Zm8.63,14.17c0-3.39-.62-5-2.21-5-2.24,0-2.24,2.4-2.24,5s0,5,2.24,5c1.59,0,2.21-1.62,2.21-5Z"/><path class="cls-3" d="M353.08,87.91h3.8v2.3c.62-2.21,2.18-2.68,4.48-2.68v5.14a3.14,3.14,0,0,0-1.84-.53c-1.56,0-2.27,1.31-2.27,3.11V105.6h-4.17Z"/><path class="cls-3" d="M365.13,82.55h4.17V86h-4.17Zm0,5.36h4.17V105.6h-4.17Z"/><path class="cls-3" d="M386.56,111.21h-4.17V105.6c0-.5,0-1,0-1.53a3.1,3.1,0,0,1-3.08,1.9c-3.61,0-5.57-3.24-5.57-9.22,0-6.35,2.4-9.22,5.57-9.22,1.65,0,3.08.9,3.3,2.06V87.91h3.92Zm-8.63-14.42c0,3.89.87,5,2.27,5a1.82,1.82,0,0,0,1.65-.78c.53-.65.53-1.49.53-4.27s0-3.61-.53-4.27a1.82,1.82,0,0,0-1.65-.78c-1.4,0-2.27,1.12-2.27,5Z"/><path class="cls-3" d="M403.38,105.6h-3.77v-1.87c-.53,1.43-1.43,2.24-3.61,2.24-2.8,0-4.58-1.56-4.58-5.14V87.91h4.17V99.46c0,1.21.28,2.34,1.74,2.34,1.09,0,1.87-.56,1.87-2.06V87.91h4.17Z"/><path class="cls-3" d="M412,98.25c0,1.74.47,3.8,2.34,3.8,1.09,0,1.87-.69,2.18-2.18h4.14a7.12,7.12,0,0,1-2.55,5,6.48,6.48,0,0,1-3.77,1.15c-4.64,0-6.82-4.11-6.82-9.22s2.18-9.22,6.82-9.22a5.57,5.57,0,0,1,5.14,2.83c1.31,2.27,1.4,5.17,1.31,7.88Zm4.61-3.55c0-1.06-.16-3.74-2.21-3.74C413,91,412,92.21,412,94.7Z"/><path class="cls-3" d="M431.72,93.14c-.06-1.31-.59-2-1.87-2a1.33,1.33,0,0,0-1.5,1.37c0,1.49,2,1.62,4,2.24s4,1.81,4,5.42c0,3.3-2.62,5.79-6.26,5.79-3.39,0-6.07-1.87-6.45-6h4.17a2.27,2.27,0,0,0,2.4,2.24,1.58,1.58,0,0,0,1.71-1.78c0-1.53-2-1.68-4-2.34s-4-1.87-4-5.39c0-3,2.06-5.14,6-5.14s5.67,2.18,5.92,5.61Z"/><path class="cls-3" d="M102.71,142.75c0,3.52,1.43,6.29,4.3,6.29a3.85,3.85,0,0,0,3.8-3.36h2.06a6.78,6.78,0,0,1-2.12,4A5.66,5.66,0,0,1,107,151c-4.67,0-6.48-4.48-6.48-8.84,0-5.26,2.43-8.91,6.42-8.91a5.26,5.26,0,0,1,4.55,2.4c1.37,2,1.59,4.64,1.56,7.1Zm8.22-1.84c-.06-3.52-1.53-5.89-4.08-5.89s-4.08,2.52-4.14,5.89Z"/><path class="cls-3" d="M118.31,135.62h-2.37v-2h2.37V128.3h2.09v5.36h2.34v2H120.4v15h-2.09Z"/><path class="cls-3" d="M147,156.21h-4.17V150.6c0-.5,0-1,0-1.53a3.1,3.1,0,0,1-3.08,1.9c-3.61,0-5.57-3.24-5.57-9.22,0-6.35,2.4-9.22,5.57-9.22,1.65,0,3.08.9,3.3,2.06v-1.68H147Zm-8.63-14.42c0,3.89.87,5,2.27,5a1.82,1.82,0,0,0,1.65-.78c.53-.65.53-1.49.53-4.27s0-3.61-.53-4.27a1.82,1.82,0,0,0-1.65-.78c-1.4,0-2.27,1.12-2.27,5Z"/><path class="cls-3" d="M163.81,150.6H160v-1.87c-.53,1.43-1.43,2.24-3.61,2.24-2.8,0-4.58-1.56-4.58-5.14V132.91H156v11.55c0,1.21.28,2.34,1.74,2.34,1.09,0,1.87-.56,1.87-2.06V132.91h4.17Z"/><path class="cls-3" d="M172.47,143.25c0,1.74.47,3.8,2.34,3.8,1.09,0,1.87-.69,2.18-2.18h4.14a7.12,7.12,0,0,1-2.55,5,6.48,6.48,0,0,1-3.77,1.15c-4.64,0-6.82-4.11-6.82-9.22s2.18-9.22,6.82-9.22a5.57,5.57,0,0,1,5.14,2.83c1.31,2.27,1.4,5.17,1.31,7.88Zm4.61-3.55c0-1.06-.16-3.74-2.21-3.74-1.46,0-2.4,1.25-2.4,3.74Z"/><path class="cls-3" d="M185.93,127.55h4.17v23h-4.17Z"/><path class="cls-3" d="M207.35,156.21h-4.17V150.6c0-.5,0-1,0-1.53a3.1,3.1,0,0,1-3.08,1.9c-3.61,0-5.57-3.24-5.57-9.22,0-6.35,2.4-9.22,5.57-9.22,1.65,0,3.08.9,3.3,2.06v-1.68h3.92Zm-8.63-14.42c0,3.89.87,5,2.27,5a1.82,1.82,0,0,0,1.65-.78c.53-.65.53-1.49.53-4.27s0-3.61-.53-4.27a1.82,1.82,0,0,0-1.65-.78c-1.4,0-2.27,1.12-2.27,5Z"/><path class="cls-3" d="M224.17,150.6H220.4v-1.87c-.53,1.43-1.43,2.24-3.61,2.24-2.8,0-4.58-1.56-4.58-5.14V132.91h4.17v11.55c0,1.21.28,2.34,1.74,2.34,1.09,0,1.87-.56,1.87-2.06V132.91h4.17Z"/><path class="cls-3" d="M232.83,143.25c0,1.74.47,3.8,2.34,3.8,1.09,0,1.87-.69,2.18-2.18h4.14a7.12,7.12,0,0,1-2.55,5,6.48,6.48,0,0,1-3.77,1.15c-4.64,0-6.82-4.11-6.82-9.22s2.18-9.22,6.82-9.22a5.57,5.57,0,0,1,5.14,2.83c1.31,2.27,1.4,5.17,1.31,7.88Zm4.61-3.55c0-1.06-.16-3.74-2.21-3.74-1.46,0-2.4,1.25-2.4,3.74Z"/><path class="cls-3" d="M252.51,138.14c-.06-1.31-.59-2-1.87-2a1.33,1.33,0,0,0-1.5,1.37c0,1.49,2,1.62,4,2.24s4,1.81,4,5.42c0,3.3-2.62,5.79-6.26,5.79-3.39,0-6.07-1.87-6.45-6h4.17a2.27,2.27,0,0,0,2.4,2.24,1.58,1.58,0,0,0,1.71-1.78c0-1.53-2-1.68-4-2.34s-4-1.87-4-5.39c0-3,2.06-5.14,6-5.14s5.67,2.18,5.92,5.61Z"/><path class="cls-3" d="M274.63,143.25c0,1.74.47,3.8,2.34,3.8,1.09,0,1.87-.69,2.18-2.18h4.14a7.12,7.12,0,0,1-2.55,5A6.48,6.48,0,0,1,277,151c-4.64,0-6.82-4.11-6.82-9.22s2.18-9.22,6.82-9.22a5.57,5.57,0,0,1,5.14,2.83c1.31,2.27,1.4,5.17,1.31,7.88Zm4.61-3.55c0-1.06-.16-3.74-2.21-3.74-1.46,0-2.4,1.25-2.4,3.74Z"/><path class="cls-3" d="M290.39,141.38l-4.55-8.47h4.92l2.18,5.42,2.3-5.42H300l-4.55,8.47,5.17,9.22h-5l-2.74-6.17-2.62,6.17h-5Z"/><path class="cls-3" d="M306.71,143.25c0,1.74.47,3.8,2.34,3.8,1.09,0,1.87-.69,2.18-2.18h4.14a7.12,7.12,0,0,1-2.55,5A6.48,6.48,0,0,1,309,151c-4.64,0-6.82-4.11-6.82-9.22s2.18-9.22,6.82-9.22a5.57,5.57,0,0,1,5.14,2.83c1.31,2.27,1.4,5.17,1.31,7.88Zm4.61-3.55c0-1.06-.16-3.74-2.21-3.74-1.46,0-2.4,1.25-2.4,3.74Z"/><path class="cls-3" d="M319.91,132.91h3.92V135c.56-1.74,1.68-2.43,3.61-2.43a3.93,3.93,0,0,1,2.52.78,3,3,0,0,1,.84,1.15,3.5,3.5,0,0,1,1.15-1.18,5.57,5.57,0,0,1,2.9-.75,5,5,0,0,1,4,1.71,5.81,5.81,0,0,1,1.28,3.77V150.6H336V138.77a2.2,2.2,0,0,0-.44-1.59,1.74,1.74,0,0,0-1.4-.47,2.33,2.33,0,0,0-1.46.37,1.76,1.76,0,0,0-.56,1.43V150.6h-4.17V138.77a2.21,2.21,0,0,0-.44-1.59,1.74,1.74,0,0,0-1.4-.47,2.33,2.33,0,0,0-1.46.37,1.75,1.75,0,0,0-.56,1.43V150.6h-4.17Z"/><path class="cls-3" d="M345.2,132.91H349v1.68a3.53,3.53,0,0,1,3.43-2.06c3.18,0,5.57,2.86,5.57,9.22,0,6-2,9.22-5.57,9.22a3.4,3.4,0,0,1-3.05-1.68v6.91H345.2Zm8.63,8.81c0-3.89-.81-5-2.27-5a1.75,1.75,0,0,0-1.53.78c-.53.65-.65,1.49-.65,4.27s.12,3.61.65,4.27a1.75,1.75,0,0,0,1.53.78c1.46,0,2.27-1.12,2.27-5Z"/><path class="cls-3" d="M362.46,127.55h4.17v23h-4.17Z"/><path class="cls-3" d="M375.72,143.25c0,1.74.47,3.8,2.34,3.8,1.09,0,1.87-.69,2.18-2.18h4.14a7.12,7.12,0,0,1-2.55,5,6.48,6.48,0,0,1-3.77,1.15c-4.64,0-6.82-4.11-6.82-9.22s2.18-9.22,6.82-9.22a5.57,5.57,0,0,1,5.14,2.83c1.31,2.27,1.4,5.17,1.31,7.88Zm4.61-3.55c0-1.06-.16-3.74-2.21-3.74-1.46,0-2.4,1.25-2.4,3.74Z"/><path class="cls-3" d="M395.41,138.14c-.06-1.31-.59-2-1.87-2a1.33,1.33,0,0,0-1.5,1.37c0,1.49,2,1.62,4,2.24s4,1.81,4,5.42c0,3.3-2.62,5.79-6.26,5.79-3.39,0-6.07-1.87-6.45-6h4.17a2.27,2.27,0,0,0,2.4,2.24,1.58,1.58,0,0,0,1.71-1.78c0-1.53-2-1.68-4-2.34s-4-1.87-4-5.39c0-3,2.06-5.14,6-5.14s5.67,2.18,5.92,5.61Z"/><path class="cls-3" d="M408.11,150.6h-4.17V146h4.17Z"/></g></g></svg>