<svg xmlns="http://www.w3.org/2000/svg" viewBox="0 0 445.13 236.88"><defs><style>.cls-1{fill:#ccc;opacity:0.5;}.cls-2{fill:#4e96b3;}.cls-3{fill:#fff;}</style></defs><title>game3b_bulle</title><g id="Calque_2" data-name="Calque 2"><g id="bulles_jeu_3" data-name="bulles jeu 3"><path class="cls-1" d="M445.13,236.88c-44.51-18.07-78.67-55-88.26-67.49h39.31c15.58,0,28.21-11.89,28.21-26.56V7.78H28.21C12.63,7.78,0,19.67,0,34.34V142.83c0,14.67,12.63,26.56,28.21,26.56H310.89C351.38,225.21,445.13,236.88,445.13,236.88Z"/><path class="cls-2" d="M445.13,236.88c-43.34-18.68-76.6-61.36-85.94-74.25h38.27a27.47,27.47,0,0,0,27.47-27.47V0H39.18A27.47,27.47,0,0,0,11.72,27.47v107.7a27.47,27.47,0,0,0,27.47,27.47H314.42C353.85,220.34,445.13,236.88,445.13,236.88Z"/><path class="cls-3" d="M69.61,48v15.7a3.76,3.76,0,0,0,.65,2.52,2.6,2.6,0,0,0,2.21.81,2.71,2.71,0,0,0,2.24-.81,4,4,0,0,0,.62-2.52V48h4.73V64.44a6.88,6.88,0,0,1-1.71,5c-1.21,1.25-3.11,2-5.89,2s-4.67-.75-5.89-2a7,7,0,0,1-1.71-5V48Z"/><path class="cls-3" d="M85.06,53.32h3.61V55c.69-1.25,1.59-2.06,3.77-2.06,2.8,0,4.58,1.56,4.58,5.14V71H92.85V59.45c0-1.21-.28-2.34-1.74-2.34-1.09,0-1.87.56-1.87,2.06V71H85.06Z"/><path class="cls-3" d="M105.68,63.66c0,1.74.47,3.8,2.34,3.8,1.09,0,1.87-.69,2.18-2.18h4.14a7.12,7.12,0,0,1-2.55,5A6.48,6.48,0,0,1,108,71.38c-4.64,0-6.82-4.11-6.82-9.22s2.18-9.22,6.82-9.22a5.57,5.57,0,0,1,5.14,2.83c1.31,2.27,1.4,5.17,1.31,7.88Zm4.61-3.55c0-1.06-.16-3.74-2.21-3.74-1.46,0-2.4,1.25-2.4,3.74Z"/><path class="cls-3" d="M132.4,63.66c0,1.74.47,3.8,2.34,3.8,1.09,0,1.87-.69,2.18-2.18h4.14a7.12,7.12,0,0,1-2.55,5,6.48,6.48,0,0,1-3.77,1.15c-4.64,0-6.82-4.11-6.82-9.22s2.18-9.22,6.82-9.22a5.57,5.57,0,0,1,5.14,2.83c1.31,2.27,1.4,5.17,1.31,7.88ZM137,60.11c0-1.06-.16-3.74-2.21-3.74-1.46,0-2.4,1.25-2.4,3.74Z"/><path class="cls-3" d="M145.42,53.32h3.8v2.3c.62-2.21,2.18-2.68,4.48-2.68v5.14a3.13,3.13,0,0,0-1.84-.53c-1.56,0-2.27,1.31-2.27,3.11V71h-4.17Z"/><path class="cls-3" d="M157,53.32h3.8v2.3c.62-2.21,2.18-2.68,4.48-2.68v5.14a3.13,3.13,0,0,0-1.84-.53c-1.56,0-2.27,1.31-2.27,3.11V71H157Z"/><path class="cls-3" d="M172,63.66c0,1.74.47,3.8,2.34,3.8,1.09,0,1.87-.69,2.18-2.18h4.14a7.12,7.12,0,0,1-2.55,5,6.48,6.48,0,0,1-3.77,1.15c-4.64,0-6.82-4.11-6.82-9.22s2.18-9.22,6.82-9.22a5.57,5.57,0,0,1,5.14,2.83c1.31,2.27,1.4,5.17,1.31,7.88Zm4.61-3.55c0-1.06-.16-3.74-2.21-3.74-1.46,0-2.4,1.25-2.4,3.74Z"/><path class="cls-3" d="M197,71H193.2V69.14c-.53,1.43-1.43,2.24-3.61,2.24-2.8,0-4.58-1.56-4.58-5.14V53.32h4.17V64.87c0,1.21.28,2.34,1.74,2.34,1.09,0,1.87-.56,1.87-2.06V53.32H197Z"/><path class="cls-3" d="M201.82,53.32h3.8v2.3c.62-2.21,2.18-2.68,4.48-2.68v5.14a3.13,3.13,0,0,0-1.84-.53c-1.56,0-2.27,1.31-2.27,3.11V71h-4.17Z"/><path class="cls-3" d="M229.26,58.46c0-2.15-1.12-2.93-2.74-2.93a2.39,2.39,0,0,0-2.46,2.52c0,1.9,1.59,2.58,3.64,3.21,1.87.56,4,1.71,4,5.11a4.86,4.86,0,0,1-5,5c-3.08,0-5.14-1.84-5.29-5.39h2.06c0,2.3,1.37,3.46,3.24,3.46a2.72,2.72,0,0,0,2.86-3c0-2.06-1.43-2.87-3.71-3.58s-4-1.81-4-4.83c0-2.71,2-4.45,4.73-4.45s4.61,1.65,4.7,4.8Z"/><path class="cls-3" d="M238.2,48h2.27L238,53.85h-2Z"/><path class="cls-3" d="M246.83,63.16c0,3.52,1.43,6.29,4.3,6.29a3.85,3.85,0,0,0,3.8-3.36H257a6.78,6.78,0,0,1-2.12,4,5.67,5.67,0,0,1-3.74,1.34c-4.67,0-6.48-4.48-6.48-8.84,0-5.26,2.43-8.91,6.42-8.91a5.26,5.26,0,0,1,4.55,2.4c1.37,2,1.59,4.64,1.56,7.1ZM255,61.32c-.06-3.52-1.53-5.89-4.08-5.89s-4.08,2.52-4.14,5.89Z"/><path class="cls-3" d="M268.44,58.46c0-2.15-1.12-2.93-2.74-2.93a2.39,2.39,0,0,0-2.46,2.52c0,1.9,1.59,2.58,3.64,3.21,1.87.56,4,1.71,4,5.11a4.86,4.86,0,0,1-5,5c-3.08,0-5.14-1.84-5.29-5.39h2.06c0,2.3,1.37,3.46,3.24,3.46a2.72,2.72,0,0,0,2.86-3c0-2.06-1.43-2.87-3.71-3.58s-4-1.81-4-4.83c0-2.71,2-4.45,4.73-4.45s4.61,1.65,4.7,4.8Z"/><path class="cls-3" d="M276.23,56h-2.37v-2h2.37V48.71h2.09v5.36h2.34v2h-2.34V71h-2.09Z"/><path class="cls-3" d="M304.35,70.7c0,2.43-.5,4-1.43,5.08a5.65,5.65,0,0,1-4.55,1.87,5.53,5.53,0,0,1-5.7-5.33h2.12a3.67,3.67,0,0,0,1,2.37,3.75,3.75,0,0,0,2.71,1c1.77,0,3.83-.81,3.83-4.86,0-.81,0-1.9,0-3A4.41,4.41,0,0,1,298,71.41c-3.64,0-5.67-3.67-5.67-8.84s2-8.91,5.67-8.91c2,0,3.55.93,4.58,3.67,0-1,0-2,0-3.27h1.84Zm-10-8.13c0,3.83,1.37,6.79,4,6.79a3.33,3.33,0,0,0,3-1.87,9.44,9.44,0,0,0,1-5,9.3,9.3,0,0,0-1-5,3.33,3.33,0,0,0-3-1.87c-2.58,0-4,3-4,6.82Z"/><path class="cls-3" d="M310,48H312V71H310Z"/><path class="cls-3" d="M317.9,48H320V51H317.9Zm0,6.1H320V71H317.9Z"/><path class="cls-3" d="M332.41,58.46c0-2.15-1.12-2.93-2.74-2.93a2.39,2.39,0,0,0-2.46,2.52c0,1.9,1.59,2.58,3.64,3.21,1.87.56,4,1.71,4,5.11a4.86,4.86,0,0,1-5,5c-3.08,0-5.14-1.84-5.29-5.39h2.06c0,2.3,1.37,3.46,3.24,3.46a2.72,2.72,0,0,0,2.86-3c0-2.06-1.43-2.87-3.71-3.58s-4-1.81-4-4.83c0-2.71,2-4.45,4.73-4.45s4.61,1.65,4.7,4.8Z"/><path class="cls-3" d="M346.21,58.46c0-2.15-1.12-2.93-2.74-2.93A2.39,2.39,0,0,0,341,58.05c0,1.9,1.59,2.58,3.64,3.21,1.87.56,4,1.71,4,5.11a4.86,4.86,0,0,1-5,5c-3.08,0-5.14-1.84-5.29-5.39h2.06c0,2.3,1.37,3.46,3.24,3.46a2.72,2.72,0,0,0,2.86-3c0-2.06-1.43-2.87-3.71-3.58s-4-1.81-4-4.83c0-2.71,2-4.45,4.73-4.45s4.61,1.65,4.7,4.8Z"/><path class="cls-3" d="M354.53,63.16c0,3.52,1.43,6.29,4.3,6.29a3.85,3.85,0,0,0,3.8-3.36h2.06a6.78,6.78,0,0,1-2.12,4,5.67,5.67,0,0,1-3.74,1.34c-4.67,0-6.48-4.48-6.48-8.84,0-5.26,2.43-8.91,6.42-8.91a5.26,5.26,0,0,1,4.55,2.4c1.37,2,1.59,4.64,1.56,7.1Zm8.22-1.84c-.06-3.52-1.53-5.89-4.08-5.89s-4.08,2.52-4.14,5.89Zm-.65-14.26.87,1.68-7,3.71L355.21,51Z"/><path class="cls-3" d="M370.66,63.16c0,3.52,1.43,6.29,4.3,6.29a3.85,3.85,0,0,0,3.8-3.36h2.06a6.78,6.78,0,0,1-2.12,4A5.67,5.67,0,0,1,375,71.41c-4.67,0-6.48-4.48-6.48-8.84,0-5.26,2.43-8.91,6.42-8.91a5.26,5.26,0,0,1,4.55,2.4c1.37,2,1.59,4.64,1.56,7.1Zm8.22-1.84c-.06-3.52-1.53-5.89-4.08-5.89s-4.08,2.52-4.14,5.89Z"/><path class="cls-3" d="M125.83,116H123.9c0-1.56,0-2.49,0-3.36a4.62,4.62,0,0,1-4.48,3.77c-3.36,0-5.67-3.55-5.67-8.84s2.12-8.91,5.67-8.91c1.9,0,3.46,1,4.36,3.58-.06-1-.06-1.93-.06-3.18V93h2.09Zm-10-8.47c0,3.83,1.37,6.79,4,6.79a3.33,3.33,0,0,0,3-1.87,9.38,9.38,0,0,0,1-5,9.37,9.37,0,0,0-1-5,3.36,3.36,0,0,0-3-1.84c-2.58,0-4,2.93-4,6.79Z"/><path class="cls-3" d="M142.34,116h-1.93c0-1.49,0-2.43,0-3.24-.75,2.3-2.34,3.64-4.48,3.64-3.36,0-5.67-3.55-5.67-8.84s2.12-8.91,5.67-8.91c1.9,0,3.58,1,4.48,3.67,0-1,0-2,0-3.27h1.93Zm-10-8.44c0,3.83,1.37,6.79,4,6.79a3.33,3.33,0,0,0,3-1.87,9.44,9.44,0,0,0,1-5,9.3,9.3,0,0,0-1-5,3.33,3.33,0,0,0-3-1.87c-2.58,0-4,3-4,6.82Z"/><path class="cls-3" d="M147.69,99.07h1.87c0,1,0,1.84-.06,2.9a4.83,4.83,0,0,1,4.8-3.3c2.9,0,4.86,1.68,4.86,5.79V116h-2.09v-10.9c0-1.71-.25-4.39-3.24-4.39-2.46,0-4,1.71-4,5.26v10h-2.09Z"/><path class="cls-3" d="M171.24,103.46c0-2.15-1.12-2.93-2.74-2.93a2.39,2.39,0,0,0-2.46,2.52c0,1.9,1.59,2.58,3.64,3.21,1.87.56,4,1.71,4,5.11a4.86,4.86,0,0,1-5,5c-3.08,0-5.14-1.84-5.29-5.39h2.06c0,2.3,1.37,3.46,3.24,3.46a2.72,2.72,0,0,0,2.86-3c0-2.06-1.43-2.87-3.71-3.58s-4-1.81-4-4.83c0-2.71,2-4.45,4.73-4.45s4.61,1.65,4.7,4.8Z"/><path class="cls-3" d="M198.12,110.25c-.37,3.46-2.24,6.17-5.61,6.17-4.52,0-6.54-4.24-6.54-8.84,0-5.54,2.62-8.91,6.45-8.91,3.49,0,5.45,2.68,5.61,6.26h-2.12c-.34-3.36-2-4.3-3.55-4.3a3.29,3.29,0,0,0-3.08,1.81,10,10,0,0,0-1.09,5.11c0,4.45,1.53,6.91,4.2,6.91,2.09,0,3.27-1.68,3.58-4.2Z"/><path class="cls-3" d="M203.41,108.16c0,3.52,1.43,6.29,4.3,6.29a3.85,3.85,0,0,0,3.8-3.36h2.06a6.78,6.78,0,0,1-2.12,4,5.67,5.67,0,0,1-3.74,1.34c-4.67,0-6.48-4.48-6.48-8.84,0-5.26,2.43-8.91,6.42-8.91a5.26,5.26,0,0,1,4.55,2.4c1.37,2,1.59,4.64,1.56,7.1Zm8.22-1.84c-.06-3.52-1.53-5.89-4.08-5.89s-4.08,2.52-4.14,5.89Z"/><path class="cls-3" d="M219,101h-2.37v-2H219V93.71h2.09v5.36h2.34v2H221.1v15H219Z"/><path class="cls-3" d="M237.33,108.16c0,3.52,1.43,6.29,4.3,6.29a3.85,3.85,0,0,0,3.8-3.36h2.06a6.78,6.78,0,0,1-2.12,4,5.67,5.67,0,0,1-3.74,1.34c-4.67,0-6.48-4.48-6.48-8.84,0-5.26,2.43-8.91,6.42-8.91a5.26,5.26,0,0,1,4.55,2.4c1.37,2,1.59,4.64,1.56,7.1Zm8.22-1.84c-.06-3.52-1.53-5.89-4.08-5.89s-4.08,2.52-4.14,5.89Z"/><path class="cls-3" d="M258.94,103.46c0-2.15-1.12-2.93-2.74-2.93a2.39,2.39,0,0,0-2.46,2.52c0,1.9,1.59,2.58,3.64,3.21,1.87.56,4,1.71,4,5.11a4.86,4.86,0,0,1-5,5c-3.08,0-5.14-1.84-5.29-5.39h2.06c0,2.3,1.37,3.46,3.24,3.46a2.72,2.72,0,0,0,2.86-3c0-2.06-1.43-2.87-3.71-3.58s-4-1.81-4-4.83c0-2.71,2-4.45,4.73-4.45s4.61,1.65,4.7,4.8Z"/><path class="cls-3" d="M265.92,99.07h1.93c0,1.28,0,2.21,0,3.24.87-2.55,2.43-3.64,4.45-3.64,3.39,0,5.7,3.52,5.7,8.91,0,5.17-2.12,8.84-5.7,8.84a4.6,4.6,0,0,1-4.33-3.49c.06.75.06,1.62.06,3.08v6.26h-2.09Zm10,8.44c0-3.83-1.34-6.79-4-6.79a3.24,3.24,0,0,0-2.9,1.87,9,9,0,0,0-1,5,9.1,9.1,0,0,0,1,5,3.24,3.24,0,0,0,2.9,1.87c2.62,0,4-3,4-6.82Z"/><path class="cls-3" d="M293.58,116h-1.93c0-1.49,0-2.43,0-3.24-.75,2.3-2.34,3.64-4.48,3.64-3.36,0-5.67-3.55-5.67-8.84s2.12-8.91,5.67-8.91c1.9,0,3.58,1,4.48,3.67,0-1,0-2,0-3.27h1.93Zm-10-8.44c0,3.83,1.37,6.79,4,6.79a3.33,3.33,0,0,0,3-1.87,9.44,9.44,0,0,0,1-5,9.3,9.3,0,0,0-1-5,3.33,3.33,0,0,0-3-1.87c-2.58,0-4,3-4,6.82Z"/><path class="cls-3" d="M310.08,110.25c-.37,3.46-2.24,6.17-5.61,6.17-4.52,0-6.54-4.24-6.54-8.84,0-5.54,2.62-8.91,6.45-8.91,3.49,0,5.45,2.68,5.61,6.26h-2.12c-.34-3.36-2-4.3-3.55-4.3a3.29,3.29,0,0,0-3.08,1.81,10,10,0,0,0-1.09,5.11c0,4.45,1.53,6.91,4.2,6.91,2.09,0,3.27-1.68,3.58-4.2Z"/><path class="cls-3" d="M315.38,108.16c0,3.52,1.43,6.29,4.3,6.29a3.85,3.85,0,0,0,3.8-3.36h2.06a6.78,6.78,0,0,1-2.12,4,5.67,5.67,0,0,1-3.74,1.34c-4.67,0-6.48-4.48-6.48-8.84,0-5.26,2.43-8.91,6.42-8.91a5.26,5.26,0,0,1,4.55,2.4c1.37,2,1.59,4.64,1.56,7.1Zm8.22-1.84c-.06-3.52-1.53-5.89-4.08-5.89s-4.08,2.52-4.14,5.89Z"/><path class="cls-3" d="M332.69,116h-2.12v-3.3h2.12Z"/></g></g></svg>