<svg xmlns="http://www.w3.org/2000/svg" viewBox="0 0 144.8 44.14"><defs><style>.cls-1{fill:#fff;}</style></defs><title>txt_erreurs</title><g id="Calque_2" data-name="Calque 2"><g id="score"><path class="cls-1" d="M0,5.85l14.33-.55.21,5.45-8.8.34.42,11,7.57-.29.21,5.46-7.57.29.42,11,8.8-.34.21,5.45-14.33.55Z"/><path class="cls-1" d="M20,5.07l8-.31q7.36-.26,7.67,7.78L36,18.3q.19,5.06-4.09,6.82L38.75,42.7l-6.05.23L27.08,26.28l-.7.13L27,43.15l-5.52.21Zm5.73,5.23.42,11,1.27,0A5.35,5.35,0,0,0,29,21a2.37,2.37,0,0,0,1.41-2.5l-.22-5.76q-.1-2.62-2.5-2.52Z"/><path class="cls-1" d="M42,4.23l8-.31q7.36-.26,7.67,7.78l.22,5.76q.19,5.05-4.1,6.82l6.89,17.58-6,.23L49.05,25.44l-.7.13L49,42.31l-5.52.21Zm5.73,5.23.42,11,1.27,0A5.32,5.32,0,0,0,51,20.16a2.37,2.37,0,0,0,1.41-2.5l-.22-5.76q-.1-2.62-2.5-2.52Z"/><path class="cls-1" d="M64,3.38,78.3,2.83l.21,5.45-8.8.34.42,11,7.57-.29.21,5.46L70.34,25l.42,11,8.8-.34.21,5.45-14.33.55Z"/><path class="cls-1" d="M100.86,32.86q.31,8-7.63,8.37T85,33.47L83.8,2.61l5.52-.21,1.19,30.86q.1,2.6,2.5,2.5t2.32-2.69L94.14,2.22,99.67,2Z"/><path class="cls-1" d="M106.14,1.75l8-.31q7.36-.26,7.67,7.78l.22,5.76q.19,5.05-4.1,6.82l6.89,17.58-6.05.23L113.2,23l-.7.12.65,16.75-5.52.21ZM111.88,7l.42,11,1.27,0a5.32,5.32,0,0,0,1.58-.22,2.37,2.37,0,0,0,1.41-2.5l-.22-5.76q-.1-2.62-2.5-2.52Z"/><path class="cls-1" d="M128,8.36q-.31-8,7.61-8.35t8.25,7.73l.2,5.15-5.52.21L138.36,8q-.1-2.58-2.5-2.5h0q-2.38.09-2.28,2.69l.13,3.47q.1,2.56,5.41,6.07t5.51,8.64l.19,4.84q.31,8.06-7.61,8.37t-8.25-7.75l-.2-5.15,5.52-.21.2,5.15q.1,2.6,2.52,2.5t2.3-2.69L139.09,27q-.11-2.77-5.42-6.28t-5.52-8.78Z"/></g></g></svg>