<svg xmlns="http://www.w3.org/2000/svg" viewBox="0 0 1920 1080"><defs><style>.cls-1{fill:#fcc600;}.cls-2,.cls-4{fill:#fff;}.cls-2{opacity:0.3;}.cls-3{fill:#525252;}.cls-5{fill:#7a5d00;opacity:0.22;}.cls-6{fill:#fefeff;}.cls-7{fill:#434a54;}.cls-8{fill:#4d5661;}</style></defs><title>1b_ui</title><g id="backgrounds"><rect class="cls-1" width="1920" height="1080"/></g><g id="contenu"><path class="cls-2" d="M848.07,89.07H281.73a8.8,8.8,0,0,0-8.8,8.8v51.4a8.8,8.8,0,0,0,8.8,8.8H509.32l56.5,36,54.66-36H848.07a8.8,8.8,0,0,0,8.8-8.8V97.87A8.8,8.8,0,0,0,848.07,89.07Z"/><path class="cls-3" d="M329,109.37V131a5.2,5.2,0,0,0,.9,3.48,3.59,3.59,0,0,0,3.05,1.12,3.74,3.74,0,0,0,3.1-1.12,5.47,5.47,0,0,0,.86-3.48V109.37h6.54v22.75c0,2.8-.69,5.25-2.37,6.93s-4.3,2.75-8.13,2.75-6.45-1-8.13-2.75a9.69,9.69,0,0,1-2.37-6.93V109.37Z"/><path class="cls-3" d="M365.49,128.08V109.37h5.76V141.2H365.4l-8.95-20.39V141.2h-5.76V109.37h6.62Z"/><path class="cls-3" d="M378.86,109.37h15.48v6H385.4v6.11h8.95v6H385.4v7.66h8.95v6H378.86Z"/><path class="cls-3" d="M415.76,109.37h6.54v25.81h8.34v6H415.76Z"/><path class="cls-3" d="M436.58,109.37h15.48v6h-8.95v6.11h8.95v6h-8.95v7.66h8.95v6H436.58Z"/><path class="cls-3" d="M463.08,115.39h-5.33v-6h17.21v6h-5.33V141.2h-6.54Z"/><path class="cls-3" d="M483.89,115.39h-5.33v-6h17.21v6h-5.33V141.2h-6.54Z"/><path class="cls-3" d="M501.14,109.37h8.26c4.52,0,7.4,1.16,8.77,2.8a10.92,10.92,0,0,1,2.58,7.36,11.75,11.75,0,0,1-.95,4.82,8.57,8.57,0,0,1-3.74,4.17l6,12.69h-7.31l-7-16.17c.73,0,1.12,0,1.63,0a5.06,5.06,0,0,0,3.23-1.2,4.94,4.94,0,0,0,1.42-3.66,4.59,4.59,0,0,0-1.51-3.87,5,5,0,0,0-3.36-.86h-1.51V141.2h-6.54Z"/><path class="cls-3" d="M527.07,109.37h15.48v6h-8.95v6.11h8.95v6h-8.95v7.66h8.95v6H527.07Z"/><path class="cls-3" d="M569,131.18c.09,3.31,1.2,4.86,4,4.86a3.44,3.44,0,0,0,3.7-3.79c0-2.88-3.44-3.57-6.88-4.9s-6.88-3.35-6.88-8.73c0-6,3.7-9.89,9.76-9.89,5.89,0,9.16,2.84,10.11,9.12h-6.37c-.09-2.32-1.38-3.7-3.48-3.7a3.25,3.25,0,0,0-3.31,3.48c0,3,3.44,3.57,6.88,4.95s6.88,3.53,6.88,9.59-4.47,9.64-10.54,9.64c-7.27,0-10.45-3.91-10.45-10.62Z"/><path class="cls-3" d="M592.88,115.39h-5.33v-6h17.21v6h-5.33V141.2h-6.54Z"/><path class="cls-3" d="M610.13,109.37h8.26c4.52,0,7.4,1.16,8.78,2.8a10.93,10.93,0,0,1,2.58,7.36,11.74,11.74,0,0,1-.95,4.82,8.57,8.57,0,0,1-3.74,4.17l6,12.69h-7.31l-7-16.17c.73,0,1.12,0,1.63,0a5.06,5.06,0,0,0,3.23-1.2,4.94,4.94,0,0,0,1.42-3.66,4.59,4.59,0,0,0-1.51-3.87,5,5,0,0,0-3.35-.86h-1.51V141.2h-6.54Z"/><path class="cls-3" d="M642.21,109.37V131a5.2,5.2,0,0,0,.9,3.48,3.59,3.59,0,0,0,3.05,1.12,3.74,3.74,0,0,0,3.1-1.12,5.47,5.47,0,0,0,.86-3.48V109.37h6.54v22.75c0,2.8-.69,5.25-2.37,6.93s-4.3,2.75-8.13,2.75-6.45-1-8.13-2.75a9.69,9.69,0,0,1-2.37-6.93V109.37Z"/><path class="cls-3" d="M685.53,128.85c0,7.27-4,12.95-11.53,12.95-7,0-11.53-5.38-11.53-16.52S667,108.77,674,108.77c7.7,0,11.61,5.81,11.53,13.21h-6.71c-.17-5.68-1.81-7-4.3-7-3,0-5.33,2.71-5.33,10.32s2.32,10.32,5.33,10.32c3.4,0,4.13-3.35,4.3-6.75Z"/><path class="cls-3" d="M695.33,115.39H690v-6H707.2v6h-5.33V141.2h-6.54Z"/><path class="cls-3" d="M719,109.37V131a5.2,5.2,0,0,0,.9,3.48,3.59,3.59,0,0,0,3.05,1.12,3.74,3.74,0,0,0,3.1-1.12,5.47,5.47,0,0,0,.86-3.48V109.37h6.54v22.75c0,2.8-.69,5.25-2.37,6.93s-4.3,2.75-8.13,2.75-6.45-1-8.13-2.75a9.69,9.69,0,0,1-2.37-6.93V109.37Z"/><path class="cls-3" d="M740.58,109.37h8.26c4.52,0,7.4,1.16,8.78,2.8a10.93,10.93,0,0,1,2.58,7.36,11.74,11.74,0,0,1-.95,4.82,8.57,8.57,0,0,1-3.74,4.17l6,12.69h-7.31l-7-16.17c.73,0,1.12,0,1.63,0a5.06,5.06,0,0,0,3.23-1.2,4.94,4.94,0,0,0,1.42-3.66,4.59,4.59,0,0,0-1.51-3.87,5,5,0,0,0-3.35-.86h-1.51V141.2h-6.54Z"/><path class="cls-3" d="M766.51,109.37H782v6h-8.95v6.11H782v6h-8.95v7.66H782v6H766.51Zm13.38-9.72,2.19,4.6-10,4.43-2-3.74Z"/><path class="cls-3" d="M789.74,109.37h15.49v6h-8.95v6.11h8.95v6h-8.95v7.66h8.95v6H789.74Z"/><path class="cls-4" d="M919.36,163.24a2.5,2.5,0,0,1-2.5-2.5v-.5a2.5,2.5,0,1,1,5,0v.5A2.5,2.5,0,0,1,919.36,163.24Z"/><path class="cls-4" d="M919.36,960.87a2.5,2.5,0,0,1-2.5-2.5v-1a2.5,2.5,0,0,1,5,0v1A2.5,2.5,0,0,1,919.36,960.87Zm0-16a2.5,2.5,0,0,1-2.5-2.5v-1a2.5,2.5,0,0,1,5,0v1A2.5,2.5,0,0,1,919.36,944.91Zm0-16a2.5,2.5,0,0,1-2.5-2.5v-1a2.5,2.5,0,0,1,5,0v1A2.5,2.5,0,0,1,919.36,929Zm0-16a2.5,2.5,0,0,1-2.5-2.5v-1a2.5,2.5,0,0,1,5,0v1A2.5,2.5,0,0,1,919.36,913Zm0-16a2.5,2.5,0,0,1-2.5-2.5v-1a2.5,2.5,0,0,1,5,0v1A2.5,2.5,0,0,1,919.36,897.06Zm0-16a2.5,2.5,0,0,1-2.5-2.5v-1a2.5,2.5,0,0,1,5,0v1A2.5,2.5,0,0,1,919.36,881.1Zm0-16a2.5,2.5,0,0,1-2.5-2.5v-1a2.5,2.5,0,0,1,5,0v1A2.5,2.5,0,0,1,919.36,865.15Zm0-16a2.5,2.5,0,0,1-2.5-2.5v-1a2.5,2.5,0,0,1,5,0v1A2.5,2.5,0,0,1,919.36,849.2Zm0-16a2.5,2.5,0,0,1-2.5-2.5v-1a2.5,2.5,0,0,1,5,0v1A2.5,2.5,0,0,1,919.36,833.25Zm0-16a2.5,2.5,0,0,1-2.5-2.5v-1a2.5,2.5,0,0,1,5,0v1A2.5,2.5,0,0,1,919.36,817.29Zm0-16a2.5,2.5,0,0,1-2.5-2.5v-1a2.5,2.5,0,0,1,5,0v1A2.5,2.5,0,0,1,919.36,801.34Zm0-16a2.5,2.5,0,0,1-2.5-2.5v-1a2.5,2.5,0,0,1,5,0v1A2.5,2.5,0,0,1,919.36,785.39Zm0-16a2.5,2.5,0,0,1-2.5-2.5v-1a2.5,2.5,0,0,1,5,0v1A2.5,2.5,0,0,1,919.36,769.43Zm0-16a2.5,2.5,0,0,1-2.5-2.5v-1a2.5,2.5,0,0,1,5,0v1A2.5,2.5,0,0,1,919.36,753.48Zm0-16a2.5,2.5,0,0,1-2.5-2.5v-1a2.5,2.5,0,0,1,5,0v1A2.5,2.5,0,0,1,919.36,737.53Zm0-16a2.5,2.5,0,0,1-2.5-2.5v-1a2.5,2.5,0,0,1,5,0v1A2.5,2.5,0,0,1,919.36,721.58Zm0-16a2.5,2.5,0,0,1-2.5-2.5v-1a2.5,2.5,0,0,1,5,0v1A2.5,2.5,0,0,1,919.36,705.62Zm0-16a2.5,2.5,0,0,1-2.5-2.5v-1a2.5,2.5,0,0,1,5,0v1A2.5,2.5,0,0,1,919.36,689.67Zm0-16a2.5,2.5,0,0,1-2.5-2.5v-1a2.5,2.5,0,0,1,5,0v1A2.5,2.5,0,0,1,919.36,673.72Zm0-16a2.5,2.5,0,0,1-2.5-2.5v-1a2.5,2.5,0,0,1,5,0v1A2.5,2.5,0,0,1,919.36,657.77Zm0-16a2.5,2.5,0,0,1-2.5-2.5v-1a2.5,2.5,0,0,1,5,0v1A2.5,2.5,0,0,1,919.36,641.81Zm0-16a2.5,2.5,0,0,1-2.5-2.5v-1a2.5,2.5,0,0,1,5,0v1A2.5,2.5,0,0,1,919.36,625.86Zm0-16a2.5,2.5,0,0,1-2.5-2.5v-1a2.5,2.5,0,0,1,5,0v1A2.5,2.5,0,0,1,919.36,609.91Zm0-16a2.5,2.5,0,0,1-2.5-2.5v-1a2.5,2.5,0,0,1,5,0v1A2.5,2.5,0,0,1,919.36,594Zm0-16a2.5,2.5,0,0,1-2.5-2.5v-1a2.5,2.5,0,0,1,5,0v1A2.5,2.5,0,0,1,919.36,578Zm0-16a2.5,2.5,0,0,1-2.5-2.5v-1a2.5,2.5,0,0,1,5,0v1A2.5,2.5,0,0,1,919.36,562.05Zm0-16a2.5,2.5,0,0,1-2.5-2.5v-1a2.5,2.5,0,0,1,5,0v1A2.5,2.5,0,0,1,919.36,546.1Zm0-16a2.5,2.5,0,0,1-2.5-2.5v-1a2.5,2.5,0,0,1,5,0v1A2.5,2.5,0,0,1,919.36,530.15Zm0-16a2.5,2.5,0,0,1-2.5-2.5v-1a2.5,2.5,0,0,1,5,0v1A2.5,2.5,0,0,1,919.36,514.19Zm0-16a2.5,2.5,0,0,1-2.5-2.5v-1a2.5,2.5,0,0,1,5,0v1A2.5,2.5,0,0,1,919.36,498.24Zm0-16a2.5,2.5,0,0,1-2.5-2.5v-1a2.5,2.5,0,1,1,5,0v1A2.5,2.5,0,0,1,919.36,482.29Zm0-16a2.5,2.5,0,0,1-2.5-2.5v-1a2.5,2.5,0,0,1,5,0v1A2.5,2.5,0,0,1,919.36,466.34Zm0-16a2.5,2.5,0,0,1-2.5-2.5v-1a2.5,2.5,0,0,1,5,0v1A2.5,2.5,0,0,1,919.36,450.38Zm0-16a2.5,2.5,0,0,1-2.5-2.5v-1a2.5,2.5,0,1,1,5,0v1A2.5,2.5,0,0,1,919.36,434.43Zm0-16a2.5,2.5,0,0,1-2.5-2.5v-1a2.5,2.5,0,0,1,5,0v1A2.5,2.5,0,0,1,919.36,418.48Zm0-16a2.5,2.5,0,0,1-2.5-2.5v-1a2.5,2.5,0,1,1,5,0v1A2.5,2.5,0,0,1,919.36,402.52Zm0-16a2.5,2.5,0,0,1-2.5-2.5v-1a2.5,2.5,0,0,1,5,0v1A2.5,2.5,0,0,1,919.36,386.57Zm0-16a2.5,2.5,0,0,1-2.5-2.5v-1a2.5,2.5,0,1,1,5,0v1A2.5,2.5,0,0,1,919.36,370.62Zm0-16a2.5,2.5,0,0,1-2.5-2.5v-1a2.5,2.5,0,0,1,5,0v1A2.5,2.5,0,0,1,919.36,354.67Zm0-16a2.5,2.5,0,0,1-2.5-2.5v-1a2.5,2.5,0,1,1,5,0v1A2.5,2.5,0,0,1,919.36,338.71Zm0-16a2.5,2.5,0,0,1-2.5-2.5v-1a2.5,2.5,0,1,1,5,0v1A2.5,2.5,0,0,1,919.36,322.76Zm0-16a2.5,2.5,0,0,1-2.5-2.5v-1a2.5,2.5,0,1,1,5,0v1A2.5,2.5,0,0,1,919.36,306.81Zm0-16a2.5,2.5,0,0,1-2.5-2.5v-1a2.5,2.5,0,0,1,5,0v1A2.5,2.5,0,0,1,919.36,290.86Zm0-16a2.5,2.5,0,0,1-2.5-2.5v-1a2.5,2.5,0,0,1,5,0v1A2.5,2.5,0,0,1,919.36,274.9Zm0-16a2.5,2.5,0,0,1-2.5-2.5v-1a2.5,2.5,0,0,1,5,0v1A2.5,2.5,0,0,1,919.36,259Zm0-16a2.5,2.5,0,0,1-2.5-2.5v-1a2.5,2.5,0,1,1,5,0v1A2.5,2.5,0,0,1,919.36,243Zm0-16a2.5,2.5,0,0,1-2.5-2.5v-1a2.5,2.5,0,0,1,5,0v1A2.5,2.5,0,0,1,919.36,227Zm0-16a2.5,2.5,0,0,1-2.5-2.5v-1a2.5,2.5,0,1,1,5,0v1A2.5,2.5,0,0,1,919.36,211.09Zm0-16a2.5,2.5,0,0,1-2.5-2.5v-1a2.5,2.5,0,0,1,5,0v1A2.5,2.5,0,0,1,919.36,195.14Zm0-16a2.5,2.5,0,0,1-2.5-2.5v-1a2.5,2.5,0,0,1,5,0v1A2.5,2.5,0,0,1,919.36,179.19Z"/><path class="cls-4" d="M919.36,976.32a2.5,2.5,0,0,1-2.5-2.5v-.5a2.5,2.5,0,0,1,5,0v.5A2.5,2.5,0,0,1,919.36,976.32Z"/><rect class="cls-5" x="1009.66" y="80.3" width="747.8" height="966.04" transform="translate(-1.4 3.46) rotate(-0.14)"/><rect class="cls-6" x="1023.46" y="56.51" width="747.8" height="975.17" transform="matrix(1, 0, 0, 1, -1.36, 3.49)"/><path class="cls-5" d="M1849.82,794.42l-3-1.61a4.71,4.71,0,0,0-2.33-5.09,4.76,4.76,0,0,0-6.46,1.91l-42.23,77.66a4.76,4.76,0,1,0,8.37,4.55l31.69-58.28,2.35,1.28-49.74,91.49a4.83,4.83,0,0,0,1.94,6.55l1.41.77-111.68,205.41a20.53,20.53,0,0,0,36.07,19.61l111.68-205.41,1.41.77a4.83,4.83,0,0,0,6.55-1.93l59-108.46a26.92,26.92,0,0,0-45-29.22Z"/><path class="cls-7" d="M1696.37,1157.48h0a20.53,20.53,0,0,1-8.23-27.84l135.09-248.46,36.07,19.61-135.09,248.46A20.53,20.53,0,0,1,1696.37,1157.48Z"/><path class="cls-8" d="M1837.31,944.62l-38.9-21.15a4.83,4.83,0,0,1-1.93-6.55l59-108.46A27,27,0,0,1,1892,797.65h0a27,27,0,0,1,10.81,36.57l-59,108.46A4.83,4.83,0,0,1,1837.31,944.62Z"/><rect class="cls-8" x="1846.97" y="802.48" width="6.44" height="23.47" transform="translate(613.8 -784.99) rotate(28.54)"/><path class="cls-8" d="M1805.73,884.34h0a4.76,4.76,0,0,1-1.91-6.46L1846,800.21a4.76,4.76,0,0,1,6.46-1.91h0a4.76,4.76,0,0,1,1.91,6.46l-42.23,77.66A4.76,4.76,0,0,1,1805.73,884.34Z"/></g></svg>