<svg xmlns="http://www.w3.org/2000/svg" viewBox="0 0 353.65 136.05"><defs><style>.cls-1{fill:#fff;}.cls-2{fill:#4e96b3;}</style></defs><title>bt_valider_la_lettre</title><g id="Calque_2" data-name="Calque 2"><g id="boutons"><path class="cls-1" d="M212.84,49.47a56.57,56.57,0,0,0-9.48-17.71c.31-.2.62-.39.91-.6a4.55,4.55,0,0,0,2-3.72c.05-1.41,0-2.83,0-4.25a27.81,27.81,0,0,1,.17-5.56c.27-1.46.59-2.92,1-4.35a9.3,9.3,0,0,0-.1-5.35c-.52-1.71-1.08-3.41-1.59-5.12a3.33,3.33,0,0,1-.13-1.19,1.5,1.5,0,0,1,1.2-1.39,5.17,5.17,0,0,1,5.75,2,14.35,14.35,0,0,1,2.25,5.33,48.76,48.76,0,0,1,.89,6.07,7.24,7.24,0,0,0,.42,1.69,1.12,1.12,0,0,0,1.59.69,10.78,10.78,0,0,0,1.17-.6c2.92-1.59,5.84-3.19,8.77-4.76a6.61,6.61,0,0,1,1.88-.73A3.37,3.37,0,0,1,233,11.5a4.16,4.16,0,0,1,.45,4.24c-.34.77,0,1.26.83,1.27a3.66,3.66,0,0,1,3.41,4.69,3.32,3.32,0,0,1-.41.75.83.83,0,0,0,.54,1.4,3.61,3.61,0,0,1,2.72,4.31,2.7,2.7,0,0,1-1.45,1.73,1.18,1.18,0,0,0,0,2.1,3.2,3.2,0,0,1,0,5.5c-2.23,1.39-4.53,2.69-6.85,3.93A113.14,113.14,0,0,1,219.79,47a11.43,11.43,0,0,1-2,.55,14,14,0,0,0-4.65,1.77Z"/><path class="cls-1" d="M207.09,40.27a69.49,69.49,0,0,1,3.7,8.8l.79,2.26a1.33,1.33,0,0,1-.68,1.8c-1.41.78-2.8,1.58-4.21,2.36a.73.73,0,0,0-.43.78c.05,1,0,2.09.07,3.14a1.37,1.37,0,0,1-.91,1.42l-9.75,4.3a1.29,1.29,0,0,1-1.68-.51c-1.19-1.84-85.87,36.52-87.07,34.69l-4.2-6.4-4.65-7.08c-.77-1.17-1.54-2.33-2.29-3.5a1.3,1.3,0,0,1,.7-2.13C98.82,79.22,184.64,38,187,37l7.17-3,5.36-2.28A1.23,1.23,0,0,1,201,32a29.22,29.22,0,0,1,4.19,5.14C205.83,38.13,206.45,39.21,207.09,40.27Zm-1.63,12.89,3.42-1.83L208,48.88a50.41,50.41,0,0,0-4.68-9.94A29.57,29.57,0,0,0,200,34.58a.37.37,0,0,0-.52-.1c-.43.21-.87.38-1.31.57l-1.73.77A74,74,0,0,1,205.45,53.16Z"/><rect class="cls-2" y="60.44" width="353.65" height="75.61" rx="37.8" ry="37.8"/><path class="cls-1" d="M56.93,115.07H50L46.49,92.55,44.86,80.22h5.08l3.53,26.85L57,80.22H62.1L60.47,92.58Z"/><path class="cls-1" d="M78.44,102.71l1.63,12.36H75l-1-7.39H68.88l-1,7.39H62.83l1.63-12.31L68,80.22h6.89Zm-5.08,0L71.44,88.22l-1.92,14.49Z"/><path class="cls-1" d="M83.09,115.07V80.22h5v29.89h8v5Z"/><path class="cls-1" d="M99.24,80.22h5v34.85h-5Z"/><path class="cls-1" d="M109,80.22h7.74q6.7,0,6.7,7.34v20.19q0,7.3-7,7.32H109Zm5,5v24.94h2.2q2.18,0,2.18-2.36V87.56q0-2.38-2.18-2.38Z"/><path class="cls-1" d="M127.67,80.22h13v5h-8v10h6.89v5H132.7v10h8v5h-13Z"/><path class="cls-1" d="M156,83.24l-6.82,26.87h7.12v5H143.55v-3l6.82-26.87h-6.59v-5H156Z"/><path class="cls-1" d="M169.09,115.07V80.22h5v29.89h8v5Z"/><path class="cls-1" d="M199.16,102.71l1.63,12.36h-5.08l-1-7.39h-5.13l-1,7.39h-5.06l1.63-12.31,3.55-22.54h6.89Zm-5.08,0-1.92-14.49-1.92,14.49Z"/><path class="cls-1" d="M212.84,115.07V80.22h5v29.89h8v5Z"/><path class="cls-1" d="M228.89,80.22h13v5h-8v10h6.89v5h-6.89v10h8v5h-13Z"/><path class="cls-1" d="M258.68,80.22v5H254v29.89h-5V85.18h-4.71v-5Z"/><path class="cls-1" d="M274.89,80.22v5h-4.71v29.89h-5V85.18h-4.71v-5Z"/><path class="cls-1" d="M278.09,80.22h7.32q6.69,0,6.7,7.34V92.8q0,4.6-4,6.06l5.65,16.22h-5.51l-4.53-15.33-.64.09v15.24h-5Zm5,5v10h1.15a4.85,4.85,0,0,0,1.44-.14,2.16,2.16,0,0,0,1.37-2.22V87.56q0-2.38-2.19-2.38Z"/><path class="cls-1" d="M296.63,80.22h13v5h-8v10h6.89v5h-6.89v10h8v5h-13Z"/></g></g></svg>