<svg xmlns="http://www.w3.org/2000/svg" viewBox="0 0 1920 1080"><defs><style>.cls-1{fill:#8cc63f;}.cls-2{fill:#fff;}</style></defs><title>game4b2</title><g id="contenu"><path class="cls-1" d="M808,588.26h395.56a0,0,0,0,1,0,0V656.6A20.59,20.59,0,0,1,1183,677.19H808a20.59,20.59,0,0,1-20.59-20.59V608.85A20.59,20.59,0,0,1,808,588.26Z"/><path class="cls-1" d="M808,721.07h336.56a0,0,0,0,1,0,0v68.34A20.59,20.59,0,0,1,1124,810H808a20.59,20.59,0,0,1-20.59-20.59V741.66A20.59,20.59,0,0,1,808,721.07Z"/><path class="cls-2" d="M803.91,646.07h-4l6.56-23.68h3.68l6.75,23.68h-4l-1.5-5.47h-6.08Zm4.48-18.21-2,9.15h4.1Z"/><path class="cls-2" d="M820.58,622.39H824v3.42h-3.46Zm0,5.79H824v17.89h-3.46Z"/><path class="cls-2" d="M841.57,646.07h-3.17c0-1.06,0-1.82,0-2.59a3.92,3.92,0,0,1-3.94,3c-3.36,0-5.79-3.2-5.79-9.31,0-5.86,2.08-9.34,5.79-9.34a3.67,3.67,0,0,1,3.65,2.59c0-.7,0-1.41,0-2.21v-5.79h3.46Zm-9.41-8.93c0,4,1.09,5.86,3,5.86a2.44,2.44,0,0,0,2.21-1.21c.64-.9.74-2,.74-4.67s-.1-3.78-.74-4.64a2.41,2.41,0,0,0-2.21-1.25c-1.92,0-3,1.89-3,5.89Z"/><path class="cls-2" d="M849.7,638.32c0,2.5.86,4.9,3.17,4.9,1.5,0,2.53-1,2.88-2.72h3.42a7.28,7.28,0,0,1-2.43,4.7,6.41,6.41,0,0,1-3.87,1.25c-4.77,0-6.88-4.35-6.88-9.31,0-5.31,2.33-9.34,6.85-9.34a5.66,5.66,0,0,1,5.06,2.72c1.38,2.24,1.5,5.12,1.44,7.81Zm6.18-3c0-2-.74-4.67-3-4.67-1.89,0-3.14,1.76-3.14,4.67Z"/><path class="cls-2" d="M863.75,628.18h3.17c0,1.09,0,2,0,2.88.74-2.72,2.59-3.26,4.64-3.26V632a2.59,2.59,0,0,0-1.47-.42c-1.57,0-2.85,1.54-2.85,4.38v10.11h-3.46Z"/><path class="cls-2" d="M896.71,646.07h-3.17c0-1,0-1.66,0-2.34a4,4,0,0,1-3.94,2.72c-3.36,0-5.79-3.2-5.79-9.31,0-5.86,2.08-9.34,5.79-9.34a3.91,3.91,0,0,1,3.94,2.82c0-.8,0-1.54,0-2.43h3.17Zm-2.85-21.41-1.18,2.27-7.33-3.49,1.34-2.78Zm-6.56,12.51c0,4,1.09,5.86,3,5.86a2.41,2.41,0,0,0,2.21-1.25c.64-.87.74-2,.74-4.64s-.1-3.81-.74-4.67a2.44,2.44,0,0,0-2.21-1.21c-1.92,0-3,1.86-3,5.89Z"/><path class="cls-2" d="M910.73,637.11c0-5.12,2.18-9.31,6.91-9.31s6.88,4.19,6.88,9.34-2.18,9.31-6.88,9.31-6.91-4.19-6.91-9.31Zm3.65.06c0,4.38,1.18,6,3.3,6s3.2-1.66,3.2-6.08-1.18-6.08-3.3-6.08-3.2,1.63-3.2,6.08Z"/><path class="cls-2" d="M928.8,622.39h3.46v8.13a3.59,3.59,0,0,1,3.62-2.72c3.71,0,5.79,3.49,5.79,9.31,0,6.14-2.43,9.34-5.79,9.34a3.91,3.91,0,0,1-3.9-2.78v2.4H928.8Zm9.41,14.72c0-3.62-.9-5.86-3-5.86-2.56,0-3,2.85-3,5.89s.42,5.89,3,5.89c2.08,0,3-2.27,3-5.89Z"/><path class="cls-2" d="M946.56,631.44h-2.14v-3.26h2.14v-4.26H950v4.26h2.11v3.26H950v14.62h-3.46Z"/><path class="cls-2" d="M958.37,638.32c0,2.5.86,4.9,3.17,4.9,1.5,0,2.53-1,2.88-2.72h3.42a7.28,7.28,0,0,1-2.43,4.7,6.41,6.41,0,0,1-3.87,1.25c-4.77,0-6.88-4.35-6.88-9.31,0-5.31,2.33-9.34,6.85-9.34a5.66,5.66,0,0,1,5.06,2.72c1.38,2.24,1.5,5.12,1.44,7.81Zm6.18-3c0-2-.74-4.67-3-4.67-1.89,0-3.14,1.76-3.14,4.67Z"/><path class="cls-2" d="M972.42,628.18h3c0,.74,0,1.44,0,2.21a4.18,4.18,0,0,1,4.26-2.59c2.94,0,4.83,1.63,4.83,5.54v12.73h-3.46V634.45c0-1.44-.29-3.2-2.4-3.2-1.66,0-2.78,1-2.78,3.36v11.46h-3.46Z"/><path class="cls-2" d="M990.05,622.39h3.46v3.42h-3.46Zm0,5.79h3.46v17.89h-3.46Z"/><path class="cls-2" d="M999.08,628.18h3.17c0,1.09,0,2,0,2.88.74-2.72,2.59-3.26,4.64-3.26V632a2.59,2.59,0,0,0-1.47-.42c-1.57,0-2.85,1.54-2.85,4.38v10.11h-3.46Z"/><path class="cls-2" d="M1032.13,646.07H1029c0-.77,0-1.54,0-2.37-.64,1.89-2,2.75-4.16,2.75-2.91,0-4.8-1.63-4.8-5.54V628.18h3.46V639.8c0,1.44.29,3.23,2.4,3.23,1.63,0,2.78-1.06,2.78-3.39V628.18h3.46Z"/><path class="cls-2" d="M1037.32,628.18h3c0,.74,0,1.44,0,2.21a4.18,4.18,0,0,1,4.26-2.59c2.94,0,4.83,1.63,4.83,5.54v12.73H1046V634.45c0-1.44-.29-3.2-2.4-3.2-1.66,0-2.78,1-2.78,3.36v11.46h-3.46Z"/><path class="cls-2" d="M1067.23,638.32c0,2.5.86,4.9,3.17,4.9,1.5,0,2.53-1,2.88-2.72h3.42a7.28,7.28,0,0,1-2.43,4.7,6.41,6.41,0,0,1-3.87,1.25c-4.77,0-6.88-4.35-6.88-9.31,0-5.31,2.33-9.34,6.85-9.34a5.66,5.66,0,0,1,5.06,2.72c1.38,2.24,1.5,5.12,1.44,7.81Zm6.18-3c0-2-.74-4.67-3-4.67-1.89,0-3.14,1.76-3.14,4.67Z"/><path class="cls-2" d="M1081.28,628.18h3c0,.74,0,1.44,0,2.21a4.18,4.18,0,0,1,4.26-2.59c2.94,0,4.83,1.63,4.83,5.54v12.73h-3.46V634.45c0-1.44-.29-3.2-2.4-3.2-1.66,0-2.78,1-2.78,3.36v11.46h-3.46Z"/><path class="cls-2" d="M1099.14,631.44H1097v-3.26h2.14v-4.26h3.46v4.26h2.11v3.26h-2.11v14.62h-3.46Z"/><path class="cls-2" d="M1108.35,628.18h3.17c0,1.09,0,2,0,2.88.74-2.72,2.59-3.26,4.64-3.26V632a2.59,2.59,0,0,0-1.47-.42c-1.57,0-2.85,1.54-2.85,4.38v10.11h-3.46Z"/><path class="cls-2" d="M1122.11,638.32c0,2.5.86,4.9,3.17,4.9,1.5,0,2.53-1,2.88-2.72h3.42a7.28,7.28,0,0,1-2.43,4.7,6.41,6.41,0,0,1-3.87,1.25c-4.77,0-6.88-4.35-6.88-9.31,0-5.31,2.33-9.34,6.85-9.34a5.66,5.66,0,0,1,5.06,2.72c1.38,2.24,1.5,5.12,1.44,7.81Zm6.18-3c0-2-.74-4.67-3-4.67-1.89,0-3.14,1.76-3.14,4.67Z"/><path class="cls-2" d="M1136.77,631.44h-2.14v-3.26h2.14v-4.26h3.46v4.26h2.11v3.26h-2.11v14.62h-3.46Z"/><path class="cls-2" d="M1146.37,622.39h3.46v3.42h-3.46Zm0,5.79h3.46v17.89h-3.46Z"/><path class="cls-2" d="M1158.34,638.32c0,2.5.86,4.9,3.17,4.9,1.5,0,2.53-1,2.88-2.72h3.42a7.28,7.28,0,0,1-2.43,4.7,6.41,6.41,0,0,1-3.87,1.25c-4.77,0-6.88-4.35-6.88-9.31,0-5.31,2.33-9.34,6.85-9.34a5.66,5.66,0,0,1,5.06,2.72c1.38,2.24,1.5,5.12,1.44,7.81Zm6.18-3c0-2-.74-4.67-3-4.67-1.89,0-3.14,1.76-3.14,4.67Z"/><path class="cls-2" d="M1172.39,628.18h3c0,.74,0,1.44,0,2.21a4.18,4.18,0,0,1,4.26-2.59c2.94,0,4.83,1.63,4.83,5.54v12.73H1181V634.45c0-1.44-.29-3.2-2.4-3.2-1.66,0-2.78,1-2.78,3.36v11.46h-3.46Z"/><path class="cls-2" d="M1193.73,646.07h-3.46v-4.22h3.46Z"/><path class="cls-2" d="M808,749.69a8,8,0,0,1,5.7,1.86,8.16,8.16,0,0,1,0,11.23,8.1,8.1,0,0,1-5.7,1.86h-2v8.74h-3.9V749.69Zm-2,11.33H808a3.79,3.79,0,0,0,3-.9,5,5,0,0,0,0-6,3.92,3.92,0,0,0-2.94-.86h-1.92Z"/><path class="cls-2" d="M820.1,755.49h3.17c0,1.09,0,2,0,2.88.74-2.72,2.59-3.26,4.64-3.26v4.19a2.59,2.59,0,0,0-1.47-.42c-1.57,0-2.85,1.54-2.85,4.38v10.11H820.1Z"/><path class="cls-2" d="M833.86,765.63c0,2.5.86,4.9,3.17,4.9,1.5,0,2.53-1,2.88-2.72h3.42a7.28,7.28,0,0,1-2.43,4.7,6.41,6.41,0,0,1-3.87,1.25c-4.77,0-6.88-4.35-6.88-9.31,0-5.31,2.33-9.34,6.85-9.34a5.66,5.66,0,0,1,5.06,2.72c1.38,2.24,1.5,5.12,1.44,7.81ZM840.81,748l1.34,2.78-7.33,3.49L833.61,752ZM840,762.65c0-2-.74-4.67-3-4.67-1.89,0-3.14,1.76-3.14,4.67Z"/><path class="cls-2" d="M854.82,760.54c0-1.7-.83-2.43-2.27-2.43a1.78,1.78,0,0,0-1.92,1.86c0,1.73,1.89,2,4,2.69s4.13,1.82,4.13,5.44a5.63,5.63,0,0,1-6,5.66c-3.36,0-5.89-1.89-6.18-5.92h3.46a2.67,2.67,0,0,0,2.78,2.78,2.1,2.1,0,0,0,2.24-2.3c0-1.79-1.86-2.21-4-2.91s-4.1-1.89-4.1-5.31c0-2.91,2.08-5,5.7-5s5.41,2,5.6,5.44Z"/><path class="cls-2" d="M865.83,765.63c0,2.5.86,4.9,3.17,4.9,1.5,0,2.53-1,2.88-2.72h3.42a7.28,7.28,0,0,1-2.43,4.7,6.41,6.41,0,0,1-3.87,1.25c-4.77,0-6.88-4.35-6.88-9.31,0-5.31,2.33-9.34,6.85-9.34a5.66,5.66,0,0,1,5.06,2.72c1.38,2.24,1.5,5.12,1.44,7.81Zm6.18-3c0-2-.74-4.67-3-4.67-1.89,0-3.14,1.76-3.14,4.67Z"/><path class="cls-2" d="M879.88,755.49h3c0,.74,0,1.44,0,2.21a4.18,4.18,0,0,1,4.26-2.59c2.94,0,4.83,1.63,4.83,5.54v12.73h-3.46V761.76c0-1.44-.29-3.2-2.4-3.2-1.66,0-2.78,1-2.78,3.36v11.46h-3.46Z"/><path class="cls-2" d="M897.73,758.75h-2.14v-3.26h2.14v-4.26h3.46v4.26h2.11v3.26h-2.11v14.62h-3.46Z"/><path class="cls-2" d="M909.54,765.63c0,2.5.86,4.9,3.17,4.9,1.5,0,2.53-1,2.88-2.72H919a7.28,7.28,0,0,1-2.43,4.7,6.41,6.41,0,0,1-3.87,1.25c-4.77,0-6.88-4.35-6.88-9.31,0-5.31,2.33-9.34,6.85-9.34a5.66,5.66,0,0,1,5.06,2.72c1.38,2.24,1.5,5.12,1.44,7.81Zm6.18-3c0-2-.74-4.67-3-4.67-1.89,0-3.14,1.76-3.14,4.67Z"/><path class="cls-2" d="M923.59,755.49h3.17c0,1.09,0,2,0,2.88.74-2.72,2.59-3.26,4.64-3.26v4.19a2.59,2.59,0,0,0-1.47-.42c-1.57,0-2.85,1.54-2.85,4.38v10.11h-3.46Z"/><path class="cls-2" d="M951.49,760.54c0-1.7-.83-2.43-2.27-2.43A1.78,1.78,0,0,0,947.3,760c0,1.73,1.89,2,4,2.69s4.13,1.82,4.13,5.44a5.63,5.63,0,0,1-6,5.66c-3.36,0-5.89-1.89-6.17-5.92h3.46a2.67,2.67,0,0,0,2.78,2.78,2.1,2.1,0,0,0,2.24-2.3c0-1.79-1.86-2.21-4-2.91s-4.1-1.89-4.1-5.31c0-2.91,2.08-5,5.7-5s5.41,2,5.6,5.44Z"/><path class="cls-2" d="M958.66,764.41c0-5.12,2.18-9.31,6.91-9.31s6.88,4.19,6.88,9.34-2.18,9.31-6.88,9.31-6.91-4.19-6.91-9.31Zm3.65.06c0,4.38,1.18,6,3.3,6s3.2-1.66,3.2-6.08-1.18-6.08-3.3-6.08-3.2,1.63-3.2,6.08Z"/><path class="cls-2" d="M976.74,755.49h3c0,.74,0,1.44,0,2.21A4.18,4.18,0,0,1,984,755.1c2.94,0,4.83,1.63,4.83,5.54v12.73h-3.46V761.76c0-1.44-.29-3.2-2.4-3.2-1.66,0-2.78,1-2.78,3.36v11.46h-3.46Z"/><path class="cls-2" d="M1003.72,755.49h3.17v2.34a3.93,3.93,0,0,1,3.9-2.72c3.36,0,5.79,3.2,5.79,9.34,0,5.82-2.08,9.31-5.79,9.31a3.8,3.8,0,0,1-3.62-2.43v8.06h-3.46Zm9.41,8.93c0-4-1.06-5.86-3-5.86a2.39,2.39,0,0,0-2.11,1.21c-.64.87-.83,2-.83,4.67s.19,3.78.83,4.64a2.36,2.36,0,0,0,2.11,1.25c2,0,3-1.89,3-5.89Z"/><path class="cls-2" d="M1032.84,773.37h-3.17c0-1,0-1.66,0-2.34a4,4,0,0,1-3.94,2.72c-3.36,0-5.79-3.2-5.79-9.31,0-5.86,2.08-9.34,5.79-9.34a3.91,3.91,0,0,1,3.94,2.82c0-.8,0-1.54,0-2.43h3.17Zm-9.41-8.9c0,4,1.09,5.86,3,5.86a2.41,2.41,0,0,0,2.21-1.25c.64-.87.74-2,.74-4.64s-.1-3.81-.74-4.67a2.44,2.44,0,0,0-2.21-1.21c-1.92,0-3,1.86-3,5.89Z"/><path class="cls-2" d="M1038,755.49h3.17c0,1.09,0,2,0,2.88.74-2.72,2.59-3.26,4.64-3.26v4.19a2.59,2.59,0,0,0-1.47-.42c-1.57,0-2.85,1.54-2.85,4.38v10.11H1038Z"/><path class="cls-2" d="M1060.52,766.85c-.13,3.65-2,6.91-5.79,6.91-4.45,0-6.91-3.74-6.91-9.31,0-5.92,2.69-9.34,6.88-9.34,3.81,0,5.73,3.23,5.79,7h-3.58c-.13-2.69-1.12-3.71-2.46-3.71a2.24,2.24,0,0,0-2.18,1.41,10.21,10.21,0,0,0-.8,4.67c0,4.29,1.09,6.08,3,6.08,1.6,0,2.34-1.57,2.46-3.68Z"/><path class="cls-2" d="M1063.43,764.41c0-5.12,2.18-9.31,6.91-9.31s6.88,4.19,6.88,9.34-2.18,9.31-6.88,9.31-6.91-4.19-6.91-9.31Zm3.65.06c0,4.38,1.18,6,3.3,6s3.2-1.66,3.2-6.08-1.18-6.08-3.3-6.08-3.2,1.63-3.2,6.08Z"/><path class="cls-2" d="M1093.57,773.37h-3.17c0-.77,0-1.54,0-2.37-.64,1.89-2,2.75-4.16,2.75-2.91,0-4.8-1.63-4.8-5.54V755.49h3.46V767.1c0,1.44.29,3.23,2.4,3.23,1.63,0,2.78-1.06,2.78-3.39V755.49h3.46Z"/><path class="cls-2" d="M1098.76,755.49h3.17c0,1.09,0,2,0,2.88.74-2.72,2.59-3.26,4.64-3.26v4.19a2.59,2.59,0,0,0-1.47-.42c-1.57,0-2.85,1.54-2.85,4.38v10.11h-3.46Z"/><path class="cls-2" d="M1116.93,760.54c0-1.7-.83-2.43-2.27-2.43a1.78,1.78,0,0,0-1.92,1.86c0,1.73,1.89,2,4,2.69s4.13,1.82,4.13,5.44a5.63,5.63,0,0,1-6,5.66c-3.36,0-5.89-1.89-6.17-5.92h3.46a2.67,2.67,0,0,0,2.78,2.78,2.1,2.1,0,0,0,2.24-2.3c0-1.79-1.86-2.21-4-2.91s-4.1-1.89-4.1-5.31c0-2.91,2.08-5,5.7-5s5.41,2,5.6,5.44Z"/><path class="cls-2" d="M1128.71,773.37h-3.46v-4.22h3.46Z"/></g><g id="vignettes_réponses" data-name="vignettes réponses"><polygon class="cls-1" points="356.35 216.42 226.06 184.86 95.76 216.42 95.76 0.14 356.35 0.14 356.35 216.42"/><path class="cls-2" d="M128.16,64.46h9.66q8.89,0,8.89,9.57v6.52q0,6-4.82,7.78l7.1,20.38h-8l-5-19h-.4v19h-7.36Zm7.36,7.05V83.06h.88a5.51,5.51,0,0,0,1.55-.13,2.27,2.27,0,0,0,1.39-2.37V74q0-2.52-2.17-2.52Z"/><path class="cls-2" d="M154.33,64.46h17.33v7.05h-10V83.06h8.58v7.08h-8.58v11.54h10v7.05H154.33Zm16.54-5-6.41,4.16h-6.32l7-6.48h5.7Z"/><path class="cls-2" d="M177,64.46h9.66q8.89,0,8.89,9.57v6.52q0,7-6.35,9.09a15.16,15.16,0,0,1-4.38.49h-.46v18.59H177Zm7.36,7.05V83.06h.88a5.51,5.51,0,0,0,1.55-.13,2.27,2.27,0,0,0,1.39-2.37V74q0-2.52-2.17-2.52Z"/><path class="cls-2" d="M220.65,99.86q0,9.55-9.55,9.57t-9.53-9.57V73.33q0-9.55,9.53-9.55t9.55,9.55Zm-7.36-26.53q0-2.48-2.17-2.5h0q-2.14,0-2.14,2.5V99.86q0,2.5,2.17,2.5t2.19-2.5Z"/><path class="cls-2" d="M227.77,64.46H235L240,86.26V64.46h6.9v44.26h-7.27l-4.69-21.2v21.2h-7.12Z"/><path class="cls-2" d="M254,73.33q0-9.55,9.53-9.55T273,73.33v6.28h-7.36V73.33q0-2.48-2.17-2.5h0q-2.14,0-2.14,2.5v3.94q0,2.7,5.66,6.76Q273,88.34,273,94.38v5.48q0,9.57-9.53,9.57T254,99.86V93.58h7.36v6.28q0,2.5,2.19,2.5t2.17-2.5v-5q0-2.94-5.66-7Q254,83.59,254,77.4Z"/><path class="cls-2" d="M280.16,64.46h17.33v7.05h-10V83.06h8.58v7.08h-8.58v11.54h10v7.05H280.16Z"/><path class="cls-2" d="M303.51,73.33q0-9.55,9.53-9.55t9.55,9.55v6.28h-7.36V73.33q0-2.48-2.17-2.5h0q-2.14,0-2.14,2.5v3.94q0,2.7,5.66,6.76,6.06,4.31,6.06,10.35v5.48q0,9.57-9.53,9.57t-9.55-9.57V93.58h7.36v6.28q0,2.5,2.19,2.5t2.17-2.5v-5q0-2.94-5.66-7-6.06-4.31-6.06-10.5Z"/></g></svg>