<svg xmlns="http://www.w3.org/2000/svg" viewBox="0 0 278.01 92.41"><defs><style>.cls-1{isolation:isolate;}.cls-2{fill:#7a5d00;opacity:0.22;}.cls-3{fill:#fefeff;}.cls-4{fill:#d8d8d8;mix-blend-mode:multiply;}</style></defs><title>game1b_item10</title><g class="cls-1"><g id="Calque_2" data-name="Calque 2"><g id="Calque_7" data-name="Calque 7"><polygon class="cls-2" points="251.32 10.83 5.64 6.51 0 92.41 272.1 85.24 270.41 27.55 251.32 10.83"/><polygon class="cls-3" points="245.97 1.22 11.55 0 5.91 85.89 278.01 78.73 276.14 29.25 245.97 1.22"/><path d="M38,23l3.19,0,.19,12.6,4.07-.06,0,2.94-7.26.11Z"/><path d="M47.89,22.89l7.56-.11,0,2.94-4.37.07,0,3,4.37-.07,0,2.94-4.37.07.06,3.74,4.37-.07,0,2.94-7.56.11Z"/><path d="M65.1,22.64l4.47-.07a5.53,5.53,0,0,1,4.84,2.22A9.47,9.47,0,0,1,76,30.24c.06,4.24-2,7.8-6.12,7.86l-4.58.07Zm3.38,12.55,1.39,0c2.58,0,2.91-3.24,2.89-4.87A7.25,7.25,0,0,0,72,26.77a2.44,2.44,0,0,0-2.37-1.27l-1.28,0Z"/><path d="M78.63,22.43l7.56-.11,0,2.94-4.37.07,0,3,4.37-.07,0,2.94L82,31.24,82,35l4.37-.07,0,2.94L78.86,38Zm6.46-4.84,1.1,2.23-4.84,2.24-1-1.81Z"/><path d="M88.37,22.29l3.11,0,2.74,10.65,2.46-10.73,3,0-4,15.6-2.81,0Z"/><path d="M101.85,22.08l7.56-.11,0,2.94-4.37.07,0,3,4.37-.07,0,2.94-4.37.07.06,3.74,4.37-.07,0,2.94-7.56.11Z"/><path d="M112.87,21.92l3.19,0,.19,12.6,4.07-.06,0,2.94-7.26.11Z"/><path d="M121.33,29.54c-.07-4.85,1.77-8.07,5.59-8.13s5.76,3.11,5.83,8-1.77,8.09-5.59,8.15-5.76-3.11-5.83-8Zm3.28,0c.06,3.72.87,5.09,2.51,5.06s2.41-1.42,2.36-5.16-.87-5.11-2.51-5.09-2.41,1.42-2.36,5.16Z"/><path d="M139.75,21.52a5.18,5.18,0,0,1,3.67,1.25,5,5,0,0,1,1.48,3.74,5,5,0,0,1-1.37,3.78,5.19,5.19,0,0,1-3.63,1.36l-1.22,0,.08,5.42-3.19,0-.23-15.54Zm-1.11,7.2,1.18,0a1.68,1.68,0,0,0,1.38-.52,2.25,2.25,0,0,0,.44-1.62,2.28,2.28,0,0,0-.49-1.63,1.74,1.74,0,0,0-1.39-.46l-1.18,0Z"/><path d="M151.95,21.33a5.19,5.19,0,0,1,3.67,1.25,5,5,0,0,1,1.48,3.74,5,5,0,0,1-1.37,3.78,5.18,5.18,0,0,1-3.63,1.36l-1.22,0,.08,5.42-3.19,0-.23-15.54Zm-1.11,7.2,1.18,0a1.68,1.68,0,0,0,1.38-.52,2.26,2.26,0,0,0,.44-1.62,2.28,2.28,0,0,0-.49-1.63,1.74,1.74,0,0,0-1.39-.46l-1.18,0Z"/><path d="M159.74,21.22l7.56-.11,0,2.94-4.37.07,0,3,4.37-.07,0,2.94-4.37.07.06,3.74,4.37-.07,0,2.94-7.56.11Z"/><path d="M170.91,36.59l-.23-15.54,4.64-.07,2.29,10,2-10,4.64-.07.23,15.54-2.81,0-.18-12.05-2.63,12.09-2.31,0-3-12,.18,12.05Z"/><path d="M187.63,20.8l7.56-.11,0,2.94-4.37.07,0,3,4.37-.07,0,2.94-4.37.07.06,3.74,4.37-.07,0,2.94-7.56.11Z"/><path d="M205.92,29.66l-.14-9.13,2.81,0L208.83,36l-2.86,0-4.52-9.89.15,10-2.81,0-.23-15.54,3.23,0Z"/><path d="M213.64,23.35l-2.6,0,0-2.94,8.4-.13,0,2.94-2.6,0L217,35.9l-3.19,0Z"/><path d="M49.28,48.08l3.19,0,.19,12.6,4.07-.06,0,2.94-7.26.11Z"/><path d="M59.13,47.93l7.56-.11,0,2.94-4.37.07,0,3,4.37-.07,0,2.94-4.37.07.06,3.74,4.37-.07,0,2.94-7.56.11Z"/><path d="M72.75,58.37c.07,1.62.62,2.36,2,2.34a1.68,1.68,0,0,0,1.78-1.87c0-1.41-1.71-1.72-3.39-2.34s-3.38-1.59-3.42-4.21a4.46,4.46,0,0,1,4.69-4.9c2.88,0,4.49,1.32,5,4.38l-3.11,0A1.65,1.65,0,0,0,74.58,50,1.59,1.59,0,0,0,73,51.75c0,1.47,1.71,1.72,3.4,2.36s3.38,1.67,3.43,4.63-2.11,4.74-5.07,4.78c-3.55.05-5.13-1.83-5.18-5.11Z"/><path d="M88.86,63l-.23-15.54,4.64-.07,2.29,10,2-10,4.64-.07.23,15.54-2.81,0-.18-12.05L96.8,62.9l-2.31,0-3-12L91.68,63Z"/><path d="M104.92,55c-.07-4.85,1.77-8.07,5.59-8.13s5.76,3.11,5.83,8-1.77,8.09-5.59,8.15-5.76-3.11-5.83-8Zm3.28,0c.06,3.72.87,5.09,2.51,5.06s2.41-1.42,2.36-5.16-.87-5.11-2.51-5.09-2.41,1.42-2.36,5.16Z"/><path d="M119.94,50l-2.6,0,0-2.94,8.4-.13,0,2.94-2.6,0,.19,12.6-3.19,0Z"/><path d="M128,46.9l3.19,0,.23,15.54-3.19,0Z"/><path d="M133.23,46.82l3.11,0,2.74,10.65,2.46-10.73,3,0-4,15.6-2.81,0Z"/><path d="M147.66,62.14l-3.23,0,4-15.6,2.94,0L156,62l-3.23,0-.84-2.95-3.57.05Zm2.35-11-.91,5.09,2,0Z"/><path d="M157.88,49.39l-2.6,0,0-2.94,8.4-.13,0,2.94-2.6,0,.19,12.6-3.19,0Z"/><path d="M165.94,46.33l3.19,0,.23,15.54-3.19,0Z"/><path d="M171.79,54c-.07-4.85,1.77-8.07,5.59-8.13s5.76,3.11,5.83,8-1.77,8.09-5.59,8.15-5.76-3.11-5.83-8Zm3.28,0c.06,3.72.87,5.09,2.51,5.06s2.41-1.42,2.36-5.16-.87-5.11-2.51-5.09S175,50.22,175.07,54Z"/><path d="M193.08,55.06l-.14-9.13,2.81,0L196,61.42l-2.86,0-4.52-9.89.15,10-2.81,0L185.72,46,189,46Z"/><path d="M201.76,56.44c.07,1.62.62,2.36,2,2.34a1.68,1.68,0,0,0,1.78-1.87c0-1.41-1.71-1.72-3.39-2.34s-3.38-1.59-3.42-4.21a4.46,4.46,0,0,1,4.69-4.9c2.88,0,4.49,1.32,5,4.38l-3.11,0a1.65,1.65,0,0,0-1.73-1.78A1.59,1.59,0,0,0,202,49.82c0,1.47,1.71,1.72,3.4,2.36s3.38,1.67,3.43,4.63-2.11,4.74-5.07,4.78c-3.55.05-5.13-1.83-5.18-5.11Z"/><polygon class="cls-4" points="276.14 29.25 245.97 1.22 250.14 27.28 276.14 29.25"/></g></g></g></svg>