<svg xmlns="http://www.w3.org/2000/svg" viewBox="0 0 1920 1080"><defs><style>.cls-1{isolation:isolate;}.cls-2{fill:#666;}.cls-3,.cls-7{fill:#fff;}.cls-3{opacity:0.3;}.cls-4,.cls-5{fill:none;stroke:#fff;stroke-linecap:round;stroke-miterlimit:10;stroke-width:5px;}.cls-5{stroke-dasharray:1 14.96;}.cls-6{fill:#4e96b3;}.cls-8{fill:#464646;opacity:0.7;mix-blend-mode:soft-light;}</style></defs><title>game4c1</title><g class="cls-1"><g id="contenu"><path class="cls-2" d="M615.37,500.48h11.36v3.62h-7.46v6h7.46v3.58h-7.46v6.88h7.46v3.62H615.37Z"/><path class="cls-2" d="M632.43,500.48h3.46v23.68h-3.46Z"/><path class="cls-2" d="M641.83,500.48h3.46v23.68h-3.46Z"/><path class="cls-2" d="M653.8,516.42c0,2.5.86,4.9,3.17,4.9,1.5,0,2.53-1,2.88-2.72h3.42a7.28,7.28,0,0,1-2.43,4.7,6.41,6.41,0,0,1-3.87,1.25c-4.77,0-6.88-4.35-6.88-9.31,0-5.31,2.34-9.34,6.85-9.34a5.66,5.66,0,0,1,5.06,2.72c1.38,2.24,1.5,5.12,1.44,7.81Zm6.18-3c0-2-.74-4.67-3-4.67-1.89,0-3.14,1.76-3.14,4.67Z"/><path class="cls-2" d="M689.55,524.16h-3.17c0-1.06,0-1.82,0-2.59a3.92,3.92,0,0,1-3.94,3c-3.36,0-5.79-3.2-5.79-9.31,0-5.86,2.08-9.34,5.79-9.34a3.67,3.67,0,0,1,3.65,2.59c0-.7,0-1.41,0-2.21v-5.79h3.46Zm-9.41-8.93c0,4,1.09,5.86,3,5.86a2.44,2.44,0,0,0,2.21-1.22c.64-.9.74-2,.74-4.67s-.1-3.78-.74-4.64a2.41,2.41,0,0,0-2.21-1.25c-1.92,0-3,1.89-3,5.89Z"/><path class="cls-2" d="M693.83,515.2c0-5.12,2.18-9.31,6.91-9.31s6.88,4.19,6.88,9.34-2.18,9.31-6.88,9.31-6.91-4.19-6.91-9.31Zm3.65.06c0,4.38,1.18,6,3.3,6s3.2-1.66,3.2-6.08-1.18-6.08-3.29-6.08-3.2,1.63-3.2,6.08Z"/><path class="cls-2" d="M712.3,500.48h3.46v3.42H712.3Zm0,5.79h3.46v17.89H712.3Z"/><path class="cls-2" d="M721.93,509.54h-2.14v-3.26h2.14V502h3.46v4.26h2.11v3.26h-2.11v14.62h-3.46Z"/><path class="cls-2" d="M743.82,516.42c0,2.5.86,4.9,3.17,4.9,1.5,0,2.53-1,2.88-2.72h3.42a7.28,7.28,0,0,1-2.43,4.7,6.41,6.41,0,0,1-3.87,1.25c-4.77,0-6.88-4.35-6.88-9.31,0-5.31,2.33-9.34,6.85-9.34a5.66,5.66,0,0,1,5.06,2.72c1.38,2.24,1.5,5.12,1.44,7.81Zm8.58-12.19h-3.1l-2.5-2.69-2.5,2.69h-3.14l4-4.42h3.33Zm-2.4,9.22c0-2-.74-4.67-3-4.67-1.89,0-3.14,1.76-3.14,4.67Z"/><path class="cls-2" d="M758.47,509.54h-2.14v-3.26h2.14V502h3.46v4.26H764v3.26h-2.11v14.62h-3.46Z"/><path class="cls-2" d="M767.69,506.27h3.17c0,1.09,0,2,0,2.88.74-2.72,2.59-3.26,4.64-3.26v4.19a2.59,2.59,0,0,0-1.47-.42c-1.57,0-2.85,1.54-2.85,4.38v10.11h-3.46Z"/><path class="cls-2" d="M781.45,516.42c0,2.5.86,4.9,3.17,4.9,1.5,0,2.53-1,2.88-2.72h3.42a7.28,7.28,0,0,1-2.43,4.7,6.41,6.41,0,0,1-3.87,1.25c-4.77,0-6.88-4.35-6.88-9.31,0-5.31,2.33-9.34,6.85-9.34a5.66,5.66,0,0,1,5.06,2.72c1.38,2.24,1.5,5.12,1.44,7.81Zm6.18-3c0-2-.74-4.67-3-4.67-1.89,0-3.13,1.76-3.13,4.67Z"/><path class="cls-2" d="M805.22,506.27h3.17v2.34a3.93,3.93,0,0,1,3.9-2.72c3.36,0,5.79,3.2,5.79,9.34,0,5.82-2.08,9.31-5.79,9.31a3.8,3.8,0,0,1-3.62-2.43v8.06h-3.46Zm9.41,8.93c0-4-1.06-5.86-3-5.86a2.39,2.39,0,0,0-2.11,1.22c-.64.86-.83,2-.83,4.67s.19,3.78.83,4.64a2.36,2.36,0,0,0,2.11,1.25c2,0,3-1.89,3-5.89Z"/><path class="cls-2" d="M825.32,516.42c0,2.5.86,4.9,3.17,4.9,1.5,0,2.53-1,2.88-2.72h3.42a7.28,7.28,0,0,1-2.43,4.7,6.41,6.41,0,0,1-3.87,1.25c-4.77,0-6.88-4.35-6.88-9.31,0-5.31,2.33-9.34,6.85-9.34a5.66,5.66,0,0,1,5.06,2.72c1.38,2.24,1.5,5.12,1.44,7.81Zm6.18-3c0-2-.74-4.67-3-4.67-1.89,0-3.13,1.76-3.13,4.67Z"/><path class="cls-2" d="M839.37,506.27h3.17c0,1.09,0,2,0,2.88.74-2.72,2.59-3.26,4.64-3.26v4.19a2.59,2.59,0,0,0-1.47-.42c-1.57,0-2.85,1.54-2.85,4.38v10.11h-3.46Z"/><path class="cls-2" d="M857.54,511.33c0-1.7-.83-2.43-2.27-2.43a1.78,1.78,0,0,0-1.92,1.86c0,1.73,1.89,2,4,2.69s4.13,1.82,4.13,5.44a5.63,5.63,0,0,1-6,5.66c-3.36,0-5.89-1.89-6.18-5.92h3.46a2.67,2.67,0,0,0,2.78,2.78,2.09,2.09,0,0,0,2.24-2.3c0-1.79-1.86-2.21-4-2.91s-4.1-1.89-4.1-5.31c0-2.91,2.08-5,5.7-5s5.41,2,5.6,5.44Z"/><path class="cls-2" d="M864.71,515.2c0-5.12,2.18-9.31,6.91-9.31s6.88,4.19,6.88,9.34-2.18,9.31-6.88,9.31-6.91-4.19-6.91-9.31Zm3.65.06c0,4.38,1.18,6,3.3,6s3.2-1.66,3.2-6.08-1.18-6.08-3.3-6.08-3.2,1.63-3.2,6.08Z"/><path class="cls-2" d="M882.79,506.27h3c0,.74,0,1.44,0,2.21a4.18,4.18,0,0,1,4.26-2.59c2.94,0,4.83,1.63,4.83,5.54v12.73h-3.46V512.54c0-1.44-.29-3.2-2.4-3.2-1.66,0-2.78,1-2.78,3.36v11.46h-3.46Z"/><path class="cls-2" d="M900,506.27h3c0,.74,0,1.44,0,2.21a4.18,4.18,0,0,1,4.26-2.59c2.94,0,4.83,1.63,4.83,5.54v12.73h-3.46V512.54c0-1.44-.29-3.2-2.4-3.2-1.66,0-2.78,1-2.78,3.36v11.46H900Z"/><path class="cls-2" d="M920.23,516.42c0,2.5.87,4.9,3.17,4.9,1.5,0,2.53-1,2.88-2.72h3.42a7.29,7.29,0,0,1-2.43,4.7,6.41,6.41,0,0,1-3.87,1.25c-4.77,0-6.88-4.35-6.88-9.31,0-5.31,2.34-9.34,6.85-9.34a5.66,5.66,0,0,1,5.05,2.72c1.38,2.24,1.5,5.12,1.44,7.81Zm6.18-3c0-2-.74-4.67-3-4.67-1.89,0-3.14,1.76-3.14,4.67Z"/><path class="cls-2" d="M934.66,500.48h3.46v23.68h-3.46Z"/><path class="cls-2" d="M944.07,500.48h3.46v23.68h-3.46Z"/><path class="cls-2" d="M956,516.42c0,2.5.86,4.9,3.17,4.9,1.5,0,2.53-1,2.88-2.72h3.42a7.28,7.28,0,0,1-2.43,4.7,6.41,6.41,0,0,1-3.87,1.25c-4.77,0-6.88-4.35-6.88-9.31,0-5.31,2.33-9.34,6.85-9.34a5.66,5.66,0,0,1,5.06,2.72c1.38,2.24,1.5,5.12,1.44,7.81Zm6.18-3c0-2-.74-4.67-3-4.67-1.89,0-3.13,1.76-3.13,4.67Z"/><path class="cls-2" d="M971.37,527.2h-2.82l2.24-7.26h3.29Z"/><path class="cls-2" d="M998.21,524.16H995c0-.77,0-1.54,0-2.37-.64,1.89-2,2.75-4.16,2.75-2.91,0-4.8-1.63-4.8-5.54V506.27h3.46v11.62c0,1.44.29,3.23,2.4,3.23,1.63,0,2.78-1.06,2.78-3.39V506.27h3.46Z"/><path class="cls-2" d="M1003.4,506.27h3c0,.74,0,1.44,0,2.21a4.18,4.18,0,0,1,4.26-2.59c2.94,0,4.83,1.63,4.83,5.54v12.73H1012V512.54c0-1.44-.29-3.2-2.4-3.2-1.66,0-2.78,1-2.78,3.36v11.46h-3.46Z"/><path class="cls-2" d="M1021,500.48h3.46v3.42H1021Zm0,5.79h3.46v17.89H1021Z"/><path class="cls-2" d="M1042,530.17h-3.46v-6c0-.9,0-1.57,0-2.21a3.69,3.69,0,0,1-3.65,2.59c-3.71,0-5.79-3.49-5.79-9.31,0-6.14,2.43-9.34,5.79-9.34a3.76,3.76,0,0,1,3.84,2.72c0-.74,0-1.47,0-2.34H1042Zm-9.41-14.91c0,4,1.09,5.86,3,5.86a2.41,2.41,0,0,0,2.21-1.25c.64-.86.74-2,.74-4.64s-.1-3.81-.74-4.67a2.44,2.44,0,0,0-2.21-1.22c-1.92,0-3,1.86-3,5.89Z"/><path class="cls-2" d="M1059.27,524.16h-3.17c0-.77,0-1.54,0-2.37-.64,1.89-2,2.75-4.16,2.75-2.91,0-4.8-1.63-4.8-5.54V506.27h3.46v11.62c0,1.44.29,3.23,2.4,3.23,1.63,0,2.78-1.06,2.78-3.39V506.27h3.46Z"/><path class="cls-2" d="M1067.4,516.42c0,2.5.86,4.9,3.17,4.9,1.5,0,2.53-1,2.88-2.72h3.42a7.28,7.28,0,0,1-2.43,4.7,6.41,6.41,0,0,1-3.87,1.25c-4.77,0-6.88-4.35-6.88-9.31,0-5.31,2.34-9.34,6.85-9.34a5.66,5.66,0,0,1,5.06,2.72c1.38,2.24,1.5,5.12,1.44,7.81Zm6.18-3c0-2-.74-4.67-3-4.67-1.89,0-3.14,1.76-3.14,4.67Z"/><path class="cls-2" d="M1094.12,516.42c0,2.5.86,4.9,3.17,4.9,1.5,0,2.53-1,2.88-2.72h3.42a7.28,7.28,0,0,1-2.43,4.7,6.41,6.41,0,0,1-3.87,1.25c-4.77,0-6.88-4.35-6.88-9.31,0-5.31,2.33-9.34,6.85-9.34a5.66,5.66,0,0,1,5.06,2.72c1.38,2.24,1.5,5.12,1.44,7.81Zm6.18-3c0-2-.74-4.67-3-4.67-1.89,0-3.13,1.76-3.13,4.67Z"/><path class="cls-2" d="M1108.77,509.54h-2.14v-3.26h2.14V502h3.46v4.26h2.11v3.26h-2.11v14.62h-3.46Z"/><path class="cls-2" d="M1127.72,500.48h3.46v8.13a3.59,3.59,0,0,1,3.62-2.72c3.71,0,5.79,3.49,5.79,9.31,0,6.14-2.43,9.34-5.79,9.34a3.91,3.91,0,0,1-3.9-2.78v2.4h-3.17Zm9.41,14.72c0-3.62-.9-5.86-3-5.86-2.56,0-3,2.85-3,5.89s.42,5.89,3,5.89c2.08,0,3-2.27,3-5.89Z"/><path class="cls-2" d="M1145.25,500.48h3.46v3.42h-3.46Zm0,5.79h3.46v17.89h-3.46Z"/><path class="cls-2" d="M1157.22,516.42c0,2.5.86,4.9,3.17,4.9,1.5,0,2.53-1,2.88-2.72h3.42a7.28,7.28,0,0,1-2.43,4.7,6.41,6.41,0,0,1-3.87,1.25c-4.77,0-6.88-4.35-6.88-9.31,0-5.31,2.33-9.34,6.85-9.34a5.66,5.66,0,0,1,5.06,2.72c1.38,2.24,1.5,5.12,1.44,7.81Zm6.18-3c0-2-.74-4.67-3-4.67-1.89,0-3.13,1.76-3.13,4.67Z"/><path class="cls-2" d="M1171.27,506.27h3c0,.74,0,1.44,0,2.21a4.18,4.18,0,0,1,4.26-2.59c2.94,0,4.83,1.63,4.83,5.54v12.73h-3.46V512.54c0-1.44-.29-3.2-2.4-3.2-1.66,0-2.78,1-2.78,3.36v11.46h-3.46Z"/><path class="cls-2" d="M1198.37,506.27h3.3c0,.8,0,1.57,0,2.4a3.73,3.73,0,0,1,4-2.78,3.94,3.94,0,0,1,2.78,1,3.49,3.49,0,0,1,.9,1.5,4,4,0,0,1,1.28-1.6,5.67,5.67,0,0,1,3.07-.86,4.8,4.8,0,0,1,4.1,2,7.19,7.19,0,0,1,1.12,4.22v12.09h-3.46V512.58a4.37,4.37,0,0,0-.42-2.24,2,2,0,0,0-1.92-1,2.42,2.42,0,0,0-2,.77,3.54,3.54,0,0,0-.7,2.37v11.68h-3.46V512.61a4.57,4.57,0,0,0-.42-2.27,1.94,1.94,0,0,0-1.89-1,2.52,2.52,0,0,0-2,.74,3.73,3.73,0,0,0-.7,2.43v11.65h-3.49Z"/><path class="cls-2" d="M1227.08,516.42c0,2.5.86,4.9,3.17,4.9,1.5,0,2.53-1,2.88-2.72h3.42a7.28,7.28,0,0,1-2.43,4.7,6.41,6.41,0,0,1-3.87,1.25c-4.77,0-6.88-4.35-6.88-9.31,0-5.31,2.34-9.34,6.85-9.34a5.66,5.66,0,0,1,5.06,2.72c1.38,2.24,1.5,5.12,1.44,7.81Zm6.18-3c0-2-.74-4.67-3-4.67-1.89,0-3.14,1.76-3.14,4.67Z"/><path class="cls-2" d="M1250.85,506.27H1254v2.34a3.92,3.92,0,0,1,3.9-2.72c3.36,0,5.79,3.2,5.79,9.34,0,5.82-2.08,9.31-5.79,9.31a3.8,3.8,0,0,1-3.62-2.43v8.06h-3.46Zm9.41,8.93c0-4-1.06-5.86-3-5.86a2.39,2.39,0,0,0-2.11,1.22c-.64.86-.83,2-.83,4.67s.19,3.78.83,4.64a2.36,2.36,0,0,0,2.11,1.25c2,0,3-1.89,3-5.89Z"/><path class="cls-2" d="M1268,506.27h3.17c0,1.09,0,2,0,2.88.74-2.72,2.59-3.26,4.64-3.26v4.19a2.59,2.59,0,0,0-1.47-.42c-1.57,0-2.85,1.54-2.85,4.38v10.11H1268Z"/><path class="cls-2" d="M1281.76,516.42c0,2.5.86,4.9,3.17,4.9,1.5,0,2.53-1,2.88-2.72h3.42a7.28,7.28,0,0,1-2.43,4.7,6.41,6.41,0,0,1-3.87,1.25c-4.77,0-6.88-4.35-6.88-9.31,0-5.31,2.34-9.34,6.85-9.34a5.66,5.66,0,0,1,5.06,2.72c1.38,2.24,1.5,5.12,1.44,7.81Zm6.94-17.66,1.34,2.78-7.33,3.49-1.22-2.27Zm-.77,14.69c0-2-.74-4.67-3-4.67-1.89,0-3.14,1.76-3.14,4.67Z"/><path class="cls-2" d="M1302.72,511.33c0-1.7-.83-2.43-2.27-2.43a1.78,1.78,0,0,0-1.92,1.86c0,1.73,1.89,2,4,2.69s4.13,1.82,4.13,5.44a5.63,5.63,0,0,1-6,5.66c-3.36,0-5.89-1.89-6.17-5.92H1298a2.67,2.67,0,0,0,2.78,2.78,2.1,2.1,0,0,0,2.24-2.3c0-1.79-1.86-2.21-4-2.91s-4.1-1.89-4.1-5.31c0-2.91,2.08-5,5.7-5s5.41,2,5.6,5.44Z"/><path class="cls-2" d="M1313.73,516.42c0,2.5.86,4.9,3.17,4.9,1.5,0,2.53-1,2.88-2.72h3.42a7.28,7.28,0,0,1-2.43,4.7,6.41,6.41,0,0,1-3.87,1.25c-4.77,0-6.88-4.35-6.88-9.31,0-5.31,2.33-9.34,6.85-9.34a5.66,5.66,0,0,1,5.06,2.72c1.38,2.24,1.5,5.12,1.44,7.81Zm6.18-3c0-2-.74-4.67-3-4.67-1.89,0-3.14,1.76-3.14,4.67Z"/><path class="cls-2" d="M1327.78,506.27h3c0,.74,0,1.44,0,2.21a4.18,4.18,0,0,1,4.26-2.59c2.94,0,4.83,1.63,4.83,5.54v12.73h-3.46V512.54c0-1.44-.29-3.2-2.4-3.2-1.66,0-2.78,1-2.78,3.36v11.46h-3.46Z"/><path class="cls-2" d="M1345.64,509.54h-2.14v-3.26h2.14V502h3.46v4.26h2.11v3.26h-2.11v14.62h-3.46Z"/><path class="cls-2" d="M1357.44,516.42c0,2.5.86,4.9,3.17,4.9,1.5,0,2.53-1,2.88-2.72h3.42a7.28,7.28,0,0,1-2.43,4.7,6.41,6.41,0,0,1-3.87,1.25c-4.77,0-6.88-4.35-6.88-9.31,0-5.31,2.34-9.34,6.85-9.34a5.66,5.66,0,0,1,5.06,2.72c1.38,2.24,1.5,5.12,1.44,7.81Zm6.18-3c0-2-.74-4.67-3-4.67-1.89,0-3.14,1.76-3.14,4.67Z"/><path class="cls-2" d="M1371.49,506.27h3.17c0,1.09,0,2,0,2.88.74-2.72,2.59-3.26,4.64-3.26v4.19a2.59,2.59,0,0,0-1.47-.42c-1.57,0-2.85,1.54-2.85,4.38v10.11h-3.46Z"/><path class="cls-2" d="M1385.22,524.16h-3.46v-4.22h3.46Z"/><path class="cls-2" d="M615.37,622.66h11.36v3.62h-7.46v6h7.46v3.58h-7.46v6.88h7.46v3.62H615.37Z"/><path class="cls-2" d="M632.43,622.66h3.46v23.68h-3.46Z"/><path class="cls-2" d="M641.83,622.66h3.46v23.68h-3.46Z"/><path class="cls-2" d="M653.8,638.6c0,2.5.86,4.9,3.17,4.9,1.5,0,2.53-1,2.88-2.72h3.42a7.28,7.28,0,0,1-2.43,4.7,6.41,6.41,0,0,1-3.87,1.25c-4.77,0-6.88-4.35-6.88-9.31,0-5.31,2.34-9.34,6.85-9.34a5.66,5.66,0,0,1,5.06,2.72c1.38,2.24,1.5,5.12,1.44,7.81Zm6.18-3c0-2-.74-4.67-3-4.67-1.89,0-3.14,1.76-3.14,4.67Z"/><path class="cls-2" d="M689.55,646.34h-3.17c0-1.06,0-1.82,0-2.59a3.92,3.92,0,0,1-3.94,3c-3.36,0-5.79-3.2-5.79-9.31,0-5.86,2.08-9.34,5.79-9.34a3.67,3.67,0,0,1,3.65,2.59c0-.7,0-1.41,0-2.21v-5.79h3.46Zm-9.41-8.93c0,4,1.09,5.86,3,5.86a2.44,2.44,0,0,0,2.21-1.22c.64-.9.74-2,.74-4.67s-.1-3.78-.74-4.64a2.41,2.41,0,0,0-2.21-1.25c-1.92,0-3,1.89-3,5.89Z"/><path class="cls-2" d="M693.83,637.38c0-5.12,2.18-9.31,6.91-9.31s6.88,4.19,6.88,9.34-2.18,9.31-6.88,9.31-6.91-4.19-6.91-9.31Zm3.65.06c0,4.38,1.18,6,3.3,6s3.2-1.66,3.2-6.08-1.18-6.08-3.29-6.08-3.2,1.63-3.2,6.08Z"/><path class="cls-2" d="M712.3,622.66h3.46v3.42H712.3Zm0,5.79h3.46v17.89H712.3Z"/><path class="cls-2" d="M721.93,631.72h-2.14v-3.26h2.14V624.2h3.46v4.26h2.11v3.26h-2.11v14.62h-3.46Z"/><path class="cls-2" d="M740.87,628.45H744c0,1.09,0,2,0,2.88.74-2.72,2.59-3.26,4.64-3.26v4.19a2.59,2.59,0,0,0-1.47-.42c-1.57,0-2.85,1.54-2.85,4.38v10.11h-3.46Z"/><path class="cls-2" d="M754.63,638.6c0,2.5.86,4.9,3.17,4.9,1.5,0,2.53-1,2.88-2.72h3.42a7.28,7.28,0,0,1-2.43,4.7,6.41,6.41,0,0,1-3.87,1.25c-4.77,0-6.88-4.35-6.88-9.31,0-5.31,2.33-9.34,6.85-9.34a5.66,5.66,0,0,1,5.06,2.72c1.38,2.24,1.5,5.12,1.44,7.81Zm6.18-3c0-2-.74-4.67-3-4.67-1.89,0-3.14,1.76-3.14,4.67Z"/><path class="cls-2" d="M768.68,628.45h3.17v2.34a3.92,3.92,0,0,1,3.9-2.72c3.36,0,5.79,3.2,5.79,9.34,0,5.82-2.08,9.31-5.79,9.31a3.8,3.8,0,0,1-3.62-2.43v8.06h-3.46Zm9.41,8.93c0-4-1.06-5.86-3-5.86a2.39,2.39,0,0,0-2.11,1.22c-.64.86-.83,2-.83,4.67s.19,3.78.83,4.64a2.36,2.36,0,0,0,2.11,1.25c2,0,3-1.89,3-5.89Z"/><path class="cls-2" d="M785.83,628.45H789c0,1.09,0,2,0,2.88.74-2.72,2.59-3.26,4.64-3.26v4.19a2.59,2.59,0,0,0-1.47-.42c-1.57,0-2.85,1.54-2.85,4.38v10.11h-3.46Z"/><path class="cls-2" d="M799.59,638.6c0,2.5.87,4.9,3.17,4.9,1.5,0,2.53-1,2.88-2.72h3.42a7.29,7.29,0,0,1-2.43,4.7,6.41,6.41,0,0,1-3.87,1.25c-4.77,0-6.88-4.35-6.88-9.31,0-5.31,2.34-9.34,6.85-9.34a5.66,5.66,0,0,1,5.05,2.72c1.38,2.24,1.5,5.12,1.44,7.81Zm6.18-3c0-2-.74-4.67-3-4.67-1.89,0-3.14,1.76-3.14,4.67Z"/><path class="cls-2" d="M813.64,628.45h3c0,.74,0,1.44,0,2.21a4.18,4.18,0,0,1,4.26-2.59c2.94,0,4.83,1.63,4.83,5.54v12.73h-3.46V634.72c0-1.44-.29-3.2-2.4-3.2-1.66,0-2.78,1-2.78,3.36v11.46h-3.46Z"/><path class="cls-2" d="M842.86,646.34h-3.17c0-1.06,0-1.82,0-2.59a3.92,3.92,0,0,1-3.94,3c-3.36,0-5.79-3.2-5.79-9.31,0-5.86,2.08-9.34,5.79-9.34a3.67,3.67,0,0,1,3.65,2.59c0-.7,0-1.41,0-2.21v-5.79h3.46Zm-9.41-8.93c0,4,1.09,5.86,3,5.86a2.44,2.44,0,0,0,2.21-1.22c.64-.9.74-2,.74-4.67s-.1-3.78-.74-4.64a2.41,2.41,0,0,0-2.21-1.25c-1.92,0-3,1.89-3,5.89Z"/><path class="cls-2" d="M848,628.45h3.17c0,1.09,0,2,0,2.88.74-2.72,2.59-3.26,4.64-3.26v4.19a2.59,2.59,0,0,0-1.47-.42c-1.57,0-2.85,1.54-2.85,4.38v10.11H848Z"/><path class="cls-2" d="M861.8,638.6c0,2.5.86,4.9,3.17,4.9,1.5,0,2.53-1,2.88-2.72h3.42a7.28,7.28,0,0,1-2.43,4.7,6.41,6.41,0,0,1-3.87,1.25c-4.77,0-6.88-4.35-6.88-9.31,0-5.31,2.34-9.34,6.85-9.34a5.66,5.66,0,0,1,5.06,2.72c1.38,2.24,1.5,5.12,1.44,7.81Zm6.18-3c0-2-.74-4.67-3-4.67-1.89,0-3.14,1.76-3.14,4.67Z"/><path class="cls-2" d="M885.58,628.45h3.17v2.34a3.92,3.92,0,0,1,3.9-2.72c3.36,0,5.79,3.2,5.79,9.34,0,5.82-2.08,9.31-5.79,9.31a3.8,3.8,0,0,1-3.62-2.43v8.06h-3.46Zm9.41,8.93c0-4-1.06-5.86-3-5.86a2.39,2.39,0,0,0-2.11,1.22c-.64.86-.83,2-.83,4.67s.19,3.78.83,4.64A2.36,2.36,0,0,0,892,643.3c2,0,3-1.89,3-5.89Z"/><path class="cls-2" d="M901.83,637.38c0-5.12,2.18-9.31,6.91-9.31s6.88,4.19,6.88,9.34-2.18,9.31-6.88,9.31-6.91-4.19-6.91-9.31Zm3.65.06c0,4.38,1.18,6,3.3,6s3.2-1.66,3.2-6.08-1.18-6.08-3.3-6.08-3.2,1.63-3.2,6.08Z"/><path class="cls-2" d="M920.3,622.66h3.46v3.42H920.3Zm0,5.79h3.46v17.89H920.3Z"/><path class="cls-2" d="M929.32,628.45h3c0,.74,0,1.44,0,2.21a4.18,4.18,0,0,1,4.26-2.59c2.94,0,4.83,1.63,4.83,5.54v12.73H938V634.72c0-1.44-.29-3.2-2.4-3.2-1.66,0-2.78,1-2.78,3.36v11.46h-3.46Z"/><path class="cls-2" d="M947.18,631.72H945v-3.26h2.14V624.2h3.46v4.26h2.11v3.26h-2.11v14.62h-3.46Z"/><path class="cls-2" d="M966.12,628.45h3.17v2.34a3.92,3.92,0,0,1,3.9-2.72c3.36,0,5.79,3.2,5.79,9.34,0,5.82-2.08,9.31-5.79,9.31a3.8,3.8,0,0,1-3.62-2.43v8.06h-3.46Zm9.41,8.93c0-4-1.06-5.86-3-5.86a2.39,2.39,0,0,0-2.11,1.22c-.64.86-.83,2-.83,4.67s.19,3.78.83,4.64a2.36,2.36,0,0,0,2.11,1.25c2,0,3-1.89,3-5.89Z"/><path class="cls-2" d="M995.24,646.34h-3.17c0-1,0-1.66,0-2.34a4,4,0,0,1-3.94,2.72c-3.36,0-5.79-3.2-5.79-9.31,0-5.86,2.08-9.34,5.79-9.34a3.91,3.91,0,0,1,3.94,2.82c0-.8,0-1.54,0-2.43h3.17Zm-9.41-8.9c0,4,1.09,5.86,3,5.86a2.4,2.4,0,0,0,2.21-1.25c.64-.86.74-2,.74-4.64s-.1-3.81-.74-4.67a2.44,2.44,0,0,0-2.21-1.22c-1.92,0-3,1.86-3,5.89Z"/><path class="cls-2" d="M1000.42,628.45h3.17c0,1.09,0,2,0,2.88.74-2.72,2.59-3.26,4.64-3.26v4.19a2.59,2.59,0,0,0-1.47-.42c-1.57,0-2.85,1.54-2.85,4.38v10.11h-3.46Z"/><path class="cls-2" d="M1021.41,628.45h3.17v2.34a3.92,3.92,0,0,1,3.9-2.72c3.36,0,5.79,3.2,5.79,9.34,0,5.82-2.08,9.31-5.79,9.31a3.8,3.8,0,0,1-3.62-2.43v8.06h-3.46Zm9.41,8.93c0-4-1.06-5.86-3-5.86a2.39,2.39,0,0,0-2.11,1.22c-.64.86-.83,2-.83,4.67s.19,3.78.83,4.64a2.36,2.36,0,0,0,2.11,1.25c2,0,3-1.89,3-5.89Z"/><path class="cls-2" d="M1037.67,637.38c0-5.12,2.18-9.31,6.91-9.31s6.88,4.19,6.88,9.34-2.18,9.31-6.88,9.31-6.91-4.19-6.91-9.31Zm3.65.06c0,4.38,1.18,6,3.3,6s3.2-1.66,3.2-6.08-1.18-6.08-3.3-6.08-3.2,1.63-3.2,6.08Z"/><path class="cls-2" d="M1056.13,622.66h3.46v3.42h-3.46Zm0,5.79h3.46v17.89h-3.46Z"/><path class="cls-2" d="M1065.16,628.45h3c0,.74,0,1.44,0,2.21a4.18,4.18,0,0,1,4.26-2.59c2.94,0,4.83,1.63,4.83,5.54v12.73h-3.46V634.72c0-1.44-.29-3.2-2.4-3.2-1.66,0-2.78,1-2.78,3.36v11.46h-3.46Z"/><path class="cls-2" d="M1083,631.72h-2.14v-3.26H1083V624.2h3.46v4.26h2.11v3.26h-2.11v14.62H1083Z"/><path class="cls-2" d="M1102.34,622.66h3.46v23.68h-3.46Z"/><path class="cls-2" d="M1114.31,638.6c0,2.5.86,4.9,3.17,4.9,1.5,0,2.53-1,2.88-2.72h3.42a7.28,7.28,0,0,1-2.43,4.7,6.41,6.41,0,0,1-3.87,1.25c-4.77,0-6.88-4.35-6.88-9.31,0-5.31,2.34-9.34,6.85-9.34a5.66,5.66,0,0,1,5.06,2.72c1.38,2.24,1.5,5.12,1.44,7.81Zm6.18-3c0-2-.74-4.67-3-4.67-1.89,0-3.14,1.76-3.14,4.67Z"/><path class="cls-2" d="M1153.8,637.73c0,4.9-2.78,9.06-8.13,9.06-5.12,0-8.42-4.1-8.42-12.29,0-8,3.14-12.29,8.42-12.29,5.44,0,8.19,4.29,8.13,9.38h-4c-.1-3.78-1.31-5.66-3.87-5.66-3,0-4.7,2.78-4.7,8.67,0,6,2,8.48,4.7,8.48,3,0,3.74-2.72,3.87-5.34Z"/><path class="cls-2" d="M1156.45,622.66h3.84l4.61,17.85,4.61-17.85h3.71l-6.62,23.68h-3.52Z"/><path class="cls-2" d="M1177.54,646.34h-3.46v-4.22h3.46Z"/><path class="cls-2" d="M630.79,745.17c0,4.9-2.78,9.06-8.13,9.06-5.12,0-8.42-4.1-8.42-12.29,0-8,3.14-12.29,8.42-12.29,5.44,0,8.19,4.29,8.13,9.38h-4c-.1-3.78-1.31-5.66-3.87-5.66-3,0-4.7,2.78-4.7,8.67,0,6,2,8.48,4.7,8.48,3,0,3.74-2.72,3.87-5.34Z"/><path class="cls-2" d="M636.55,730.1h3.68l-3.07,7.26H634Z"/><path class="cls-2" d="M647,746c0,2.5.86,4.9,3.17,4.9,1.5,0,2.53-1,2.88-2.72h3.42a7.28,7.28,0,0,1-2.43,4.7,6.41,6.41,0,0,1-3.87,1.25c-4.77,0-6.88-4.35-6.88-9.31,0-5.31,2.33-9.34,6.85-9.34a5.66,5.66,0,0,1,5.06,2.72c1.38,2.24,1.5,5.12,1.44,7.81Zm6.18-3c0-2-.74-4.67-3-4.67-1.89,0-3.14,1.76-3.14,4.67Z"/><path class="cls-2" d="M667.91,740.95c0-1.7-.83-2.43-2.27-2.43a1.78,1.78,0,0,0-1.92,1.86c0,1.73,1.89,2,4,2.69s4.13,1.82,4.13,5.44a5.63,5.63,0,0,1-6,5.66c-3.36,0-5.89-1.89-6.18-5.92h3.46a2.67,2.67,0,0,0,2.78,2.78,2.09,2.09,0,0,0,2.24-2.3c0-1.79-1.86-2.21-4-2.91s-4.1-1.89-4.1-5.31c0-2.91,2.08-5,5.7-5s5.41,2,5.6,5.44Z"/><path class="cls-2" d="M676.59,739.16h-2.14v-3.26h2.14v-4.26H680v4.26h2.11v3.26H680v14.62h-3.46Z"/><path class="cls-2" d="M709.5,753.78h-3.17c0-.77,0-1.54,0-2.37-.64,1.89-2,2.75-4.16,2.75-2.91,0-4.8-1.63-4.8-5.54V735.89h3.46v11.62c0,1.44.29,3.23,2.4,3.23,1.63,0,2.78-1.06,2.78-3.39V735.89h3.46Z"/><path class="cls-2" d="M714.69,735.89h3c0,.74,0,1.44,0,2.21a4.18,4.18,0,0,1,4.26-2.59c2.94,0,4.83,1.63,4.83,5.54v12.73h-3.46V742.16c0-1.44-.29-3.2-2.4-3.2-1.66,0-2.78,1-2.78,3.36v11.46h-3.46Z"/><path class="cls-2" d="M755.25,747.25c-.13,3.65-2,6.91-5.79,6.91-4.45,0-6.91-3.74-6.91-9.31,0-5.92,2.69-9.34,6.88-9.34,3.81,0,5.73,3.23,5.79,7h-3.58c-.13-2.69-1.12-3.71-2.46-3.71a2.24,2.24,0,0,0-2.18,1.41,10.21,10.21,0,0,0-.8,4.67c0,4.29,1.09,6.08,3,6.08,1.6,0,2.34-1.57,2.46-3.68Z"/><path class="cls-2" d="M758.16,744.82c0-5.12,2.18-9.31,6.91-9.31s6.88,4.19,6.88,9.34-2.18,9.31-6.88,9.31-6.91-4.19-6.91-9.31Zm3.65.06c0,4.38,1.18,6,3.3,6s3.2-1.66,3.2-6.08-1.18-6.08-3.29-6.08-3.2,1.63-3.2,6.08Z"/><path class="cls-2" d="M776.37,735.89h3.3c0,.8,0,1.57,0,2.4a3.73,3.73,0,0,1,4-2.78,3.94,3.94,0,0,1,2.78,1,3.5,3.5,0,0,1,.9,1.5,4,4,0,0,1,1.28-1.6,5.67,5.67,0,0,1,3.07-.86,4.8,4.8,0,0,1,4.1,2,7.2,7.2,0,0,1,1.12,4.22v12.09h-3.46V742.2A4.37,4.37,0,0,0,793,740a2,2,0,0,0-1.92-1,2.42,2.42,0,0,0-2,.77,3.54,3.54,0,0,0-.71,2.37v11.68h-3.46V742.23a4.58,4.58,0,0,0-.42-2.27,1.94,1.94,0,0,0-1.89-1,2.52,2.52,0,0,0-2,.74,3.73,3.73,0,0,0-.7,2.43v11.65h-3.49Z"/><path class="cls-2" d="M802.13,735.89h3.17v2.34a3.93,3.93,0,0,1,3.9-2.72c3.36,0,5.79,3.2,5.79,9.34,0,5.82-2.08,9.31-5.79,9.31a3.8,3.8,0,0,1-3.62-2.43v8.06h-3.46Zm9.41,8.93c0-4-1.06-5.86-3-5.86a2.39,2.39,0,0,0-2.11,1.22c-.64.86-.83,2-.83,4.67s.19,3.78.83,4.64a2.36,2.36,0,0,0,2.11,1.25c2,0,3-1.89,3-5.89Z"/><path class="cls-2" d="M819.67,730.1h3.46v23.68h-3.46Z"/><path class="cls-2" d="M831.64,746c0,2.5.86,4.9,3.17,4.9,1.5,0,2.53-1,2.88-2.72h3.42a7.28,7.28,0,0,1-2.43,4.7,6.41,6.41,0,0,1-3.87,1.25c-4.77,0-6.88-4.35-6.88-9.31,0-5.31,2.33-9.34,6.85-9.34a5.66,5.66,0,0,1,5.06,2.72c1.38,2.24,1.5,5.12,1.44,7.81Zm6.94-17.66,1.34,2.78-7.33,3.49-1.22-2.27Zm-.77,14.69c0-2-.74-4.67-3-4.67-1.89,0-3.14,1.76-3.14,4.67Z"/><path class="cls-2" d="M845.81,735.89h3.3c0,.8,0,1.57,0,2.4a3.73,3.73,0,0,1,4-2.78,3.94,3.94,0,0,1,2.78,1,3.5,3.5,0,0,1,.9,1.5,4,4,0,0,1,1.28-1.6,5.67,5.67,0,0,1,3.07-.86,4.8,4.8,0,0,1,4.1,2,7.2,7.2,0,0,1,1.12,4.22v12.09h-3.46V742.2a4.37,4.37,0,0,0-.42-2.24,2,2,0,0,0-1.92-1,2.42,2.42,0,0,0-2,.77,3.54,3.54,0,0,0-.71,2.37v11.68h-3.46V742.23a4.58,4.58,0,0,0-.42-2.27,1.94,1.94,0,0,0-1.89-1,2.52,2.52,0,0,0-2,.74,3.73,3.73,0,0,0-.7,2.43v11.65h-3.49Z"/><path class="cls-2" d="M874.51,746c0,2.5.86,4.9,3.17,4.9,1.5,0,2.53-1,2.88-2.72H884a7.28,7.28,0,0,1-2.43,4.7,6.41,6.41,0,0,1-3.87,1.25c-4.77,0-6.88-4.35-6.88-9.31,0-5.31,2.34-9.34,6.85-9.34a5.66,5.66,0,0,1,5.06,2.72c1.38,2.24,1.5,5.12,1.44,7.81Zm6.18-3c0-2-.74-4.67-3-4.67-1.89,0-3.14,1.76-3.14,4.67Z"/><path class="cls-2" d="M888.56,735.89h3c0,.74,0,1.44,0,2.21a4.18,4.18,0,0,1,4.26-2.59c2.94,0,4.83,1.63,4.83,5.54v12.73H897.2V742.16c0-1.44-.29-3.2-2.4-3.2-1.66,0-2.78,1-2.78,3.36v11.46h-3.46Z"/><path class="cls-2" d="M906.42,739.16h-2.14v-3.26h2.14v-4.26h3.46v4.26H912v3.26h-2.11v14.62h-3.46Z"/><path class="cls-2" d="M939.24,753.78h-3.17c0-1,0-1.66,0-2.34a4,4,0,0,1-3.94,2.72c-3.36,0-5.79-3.2-5.79-9.31,0-5.86,2.08-9.34,5.79-9.34a3.91,3.91,0,0,1,3.94,2.82c0-.8,0-1.54,0-2.43h3.17Zm-9.41-8.9c0,4,1.09,5.86,3,5.86a2.4,2.4,0,0,0,2.21-1.25c.64-.86.74-2,.74-4.64s-.1-3.81-.74-4.67a2.44,2.44,0,0,0-2.21-1.22c-1.92,0-3,1.86-3,5.89Z"/><path class="cls-2" d="M956.49,753.78h-3.17c0-.77,0-1.54,0-2.37-.64,1.89-2,2.75-4.16,2.75-2.91,0-4.8-1.63-4.8-5.54V735.89h3.46v11.62c0,1.44.29,3.23,2.4,3.23,1.63,0,2.78-1.06,2.78-3.39V735.89h3.46Z"/><path class="cls-2" d="M989,745.17c0,4.9-2.78,9.06-8.13,9.06-5.12,0-8.42-4.1-8.42-12.29,0-8,3.14-12.29,8.42-12.29,5.44,0,8.19,4.29,8.13,9.38h-4c-.1-3.78-1.31-5.66-3.87-5.66-3,0-4.7,2.78-4.7,8.67,0,6,2,8.48,4.7,8.48,3,0,3.74-2.72,3.87-5.34Z"/><path class="cls-2" d="M991.68,730.1h3.84l4.61,17.85,4.61-17.85h3.71l-6.62,23.68H998.3Z"/><path class="cls-2" d="M1010.33,756.82h-2.82l2.24-7.26h3.3Z"/><path class="cls-2" d="M1030,746c0,2.5.86,4.9,3.17,4.9,1.5,0,2.53-1,2.88-2.72h3.42a7.28,7.28,0,0,1-2.43,4.7,6.41,6.41,0,0,1-3.87,1.25c-4.77,0-6.88-4.35-6.88-9.31,0-5.31,2.33-9.34,6.85-9.34a5.66,5.66,0,0,1,5.06,2.72c1.38,2.24,1.5,5.12,1.44,7.81Zm6.18-3c0-2-.74-4.67-3-4.67-1.89,0-3.14,1.76-3.14,4.67Z"/><path class="cls-2" d="M1044.4,730.1h3.46v23.68h-3.46Z"/><path class="cls-2" d="M1053.81,730.1h3.46v23.68h-3.46Z"/><path class="cls-2" d="M1065.78,746c0,2.5.86,4.9,3.17,4.9,1.5,0,2.53-1,2.88-2.72h3.42a7.28,7.28,0,0,1-2.43,4.7,6.41,6.41,0,0,1-3.87,1.25c-4.77,0-6.88-4.35-6.88-9.31,0-5.31,2.34-9.34,6.85-9.34a5.66,5.66,0,0,1,5.06,2.72c1.38,2.24,1.5,5.12,1.44,7.81Zm6.18-3c0-2-.74-4.67-3-4.67-1.89,0-3.14,1.76-3.14,4.67Z"/><path class="cls-2" d="M1103.43,753.78h-3.17c0-1.06,0-1.82,0-2.59a3.92,3.92,0,0,1-3.94,3c-3.36,0-5.79-3.2-5.79-9.31,0-5.86,2.08-9.34,5.79-9.34a3.67,3.67,0,0,1,3.65,2.59c0-.7,0-1.41,0-2.21V730.1h3.46Zm-9.41-8.93c0,4,1.09,5.86,3,5.86a2.44,2.44,0,0,0,2.21-1.22c.64-.9.74-2,.74-4.67s-.1-3.78-.74-4.64a2.41,2.41,0,0,0-2.21-1.25c-1.92,0-3,1.89-3,5.89Z"/><path class="cls-2" d="M1107.72,744.82c0-5.12,2.18-9.31,6.91-9.31s6.88,4.19,6.88,9.34-2.18,9.31-6.88,9.31-6.91-4.19-6.91-9.31Zm3.65.06c0,4.38,1.18,6,3.3,6s3.2-1.66,3.2-6.08-1.18-6.08-3.3-6.08-3.2,1.63-3.2,6.08Z"/><path class="cls-2" d="M1126.18,730.1h3.46v3.42h-3.46Zm0,5.79h3.46v17.89h-3.46Z"/><path class="cls-2" d="M1135.82,739.16h-2.14v-3.26h2.14v-4.26h3.46v4.26h2.11v3.26h-2.11v14.62h-3.46Z"/><path class="cls-2" d="M1156.8,735.89h3.3c0,.8,0,1.57,0,2.4a3.73,3.73,0,0,1,4-2.78,3.94,3.94,0,0,1,2.78,1,3.49,3.49,0,0,1,.9,1.5,4,4,0,0,1,1.28-1.6,5.67,5.67,0,0,1,3.07-.86,4.8,4.8,0,0,1,4.1,2,7.19,7.19,0,0,1,1.12,4.22v12.09h-3.46V742.2a4.37,4.37,0,0,0-.42-2.24,2,2,0,0,0-1.92-1,2.42,2.42,0,0,0-2,.77,3.54,3.54,0,0,0-.7,2.37v11.68h-3.46V742.23a4.58,4.58,0,0,0-.42-2.27,1.94,1.94,0,0,0-1.89-1,2.52,2.52,0,0,0-2,.74,3.73,3.73,0,0,0-.7,2.43v11.65h-3.49Z"/><path class="cls-2" d="M1185.5,746c0,2.5.86,4.9,3.17,4.9,1.5,0,2.53-1,2.88-2.72H1195a7.28,7.28,0,0,1-2.43,4.7,6.41,6.41,0,0,1-3.87,1.25c-4.77,0-6.88-4.35-6.88-9.31,0-5.31,2.34-9.34,6.85-9.34a5.66,5.66,0,0,1,5.06,2.72c1.38,2.24,1.5,5.12,1.44,7.81Zm6.18-3c0-2-.74-4.67-3-4.67-1.89,0-3.14,1.76-3.14,4.67Z"/><path class="cls-2" d="M1200.16,739.16H1198v-3.26h2.14v-4.26h3.46v4.26h2.11v3.26h-2.11v14.62h-3.46Z"/><path class="cls-2" d="M1210,739.16h-2.14v-3.26H1210v-4.26h3.46v4.26h2.11v3.26h-2.11v14.62H1210Z"/><path class="cls-2" d="M1219.2,735.89h3.17c0,1.09,0,2,0,2.88.74-2.72,2.59-3.26,4.64-3.26v4.19a2.59,2.59,0,0,0-1.47-.42c-1.57,0-2.85,1.54-2.85,4.38v10.11h-3.46Z"/><path class="cls-2" d="M1233,746c0,2.5.86,4.9,3.17,4.9,1.5,0,2.53-1,2.88-2.72h3.42a7.28,7.28,0,0,1-2.43,4.7,6.41,6.41,0,0,1-3.87,1.25c-4.77,0-6.88-4.35-6.88-9.31,0-5.31,2.33-9.34,6.85-9.34a5.66,5.66,0,0,1,5.06,2.72c1.38,2.24,1.5,5.12,1.44,7.81Zm6.18-3c0-2-.74-4.67-3-4.67-1.89,0-3.14,1.76-3.14,4.67Z"/><path class="cls-2" d="M1261.59,746c0,2.5.86,4.9,3.17,4.9,1.5,0,2.53-1,2.88-2.72h3.42a7.28,7.28,0,0,1-2.43,4.7,6.41,6.41,0,0,1-3.87,1.25c-4.77,0-6.88-4.35-6.88-9.31,0-5.31,2.34-9.34,6.85-9.34a5.66,5.66,0,0,1,5.06,2.72c1.38,2.24,1.5,5.12,1.44,7.81Zm6.18-3c0-2-.74-4.67-3-4.67-1.89,0-3.14,1.76-3.14,4.67Z"/><path class="cls-2" d="M1275.64,735.89h3c0,.74,0,1.44,0,2.21a4.18,4.18,0,0,1,4.26-2.59c2.94,0,4.83,1.63,4.83,5.54v12.73h-3.46V742.16c0-1.44-.29-3.2-2.4-3.2-1.66,0-2.78,1-2.78,3.36v11.46h-3.46Z"/><path class="cls-2" d="M1316.49,753.78h-3.17c0-1,0-1.66,0-2.34a4,4,0,0,1-3.94,2.72c-3.36,0-5.79-3.2-5.79-9.31,0-5.86,2.08-9.34,5.79-9.34a3.91,3.91,0,0,1,3.94,2.82c0-.8,0-1.54,0-2.43h3.17Zm-9.41-8.9c0,4,1.09,5.86,3,5.86a2.4,2.4,0,0,0,2.21-1.25c.64-.86.74-2,.74-4.64s-.1-3.81-.74-4.67a2.44,2.44,0,0,0-2.21-1.22c-1.92,0-3,1.86-3,5.89Z"/><path class="cls-2" d="M1328.3,753.78h-3.2l-5.28-17.89h3.52l3.3,12.77,3-12.77h3.49Z"/><path class="cls-2" d="M1348.2,753.78H1345c0-1,0-1.66,0-2.34a4,4,0,0,1-3.94,2.72c-3.36,0-5.79-3.2-5.79-9.31,0-5.86,2.08-9.34,5.79-9.34a3.91,3.91,0,0,1,3.94,2.82c0-.8,0-1.54,0-2.43h3.17Zm-9.41-8.9c0,4,1.09,5.86,3,5.86a2.41,2.41,0,0,0,2.21-1.25c.64-.86.74-2,.74-4.64s-.1-3.81-.74-4.67a2.44,2.44,0,0,0-2.21-1.22c-1.92,0-3,1.86-3,5.89Z"/><path class="cls-2" d="M1353.38,735.89h3c0,.74,0,1.44,0,2.21a4.18,4.18,0,0,1,4.26-2.59c2.94,0,4.83,1.63,4.83,5.54v12.73H1362V742.16c0-1.44-.29-3.2-2.4-3.2-1.66,0-2.78,1-2.78,3.36v11.46h-3.46Z"/><path class="cls-2" d="M1371.24,739.16h-2.14v-3.26h2.14v-4.26h3.46v4.26h2.11v3.26h-2.11v14.62h-3.46Z"/><path class="cls-2" d="M615.21,774.29h3.29c0,.8,0,1.57,0,2.4a3.73,3.73,0,0,1,4-2.78,3.93,3.93,0,0,1,2.78,1,3.49,3.49,0,0,1,.9,1.5,4,4,0,0,1,1.28-1.6,5.67,5.67,0,0,1,3.07-.86,4.8,4.8,0,0,1,4.1,2,7.19,7.19,0,0,1,1.12,4.22v12.1h-3.46V780.6a4.37,4.37,0,0,0-.42-2.24,2,2,0,0,0-1.92-1,2.42,2.42,0,0,0-2,.77,3.54,3.54,0,0,0-.7,2.37v11.68h-3.46V780.63a4.59,4.59,0,0,0-.42-2.27,1.94,1.94,0,0,0-1.89-1,2.52,2.52,0,0,0-2,.74,3.72,3.72,0,0,0-.71,2.43v11.65h-3.49Z"/><path class="cls-2" d="M643.91,784.44c0,2.5.86,4.9,3.17,4.9,1.5,0,2.53-1,2.88-2.72h3.42a7.27,7.27,0,0,1-2.43,4.7,6.41,6.41,0,0,1-3.87,1.25c-4.77,0-6.88-4.35-6.88-9.31,0-5.31,2.33-9.34,6.85-9.34a5.66,5.66,0,0,1,5.06,2.72c1.38,2.24,1.5,5.12,1.44,7.81Zm6.18-3c0-2-.74-4.67-3-4.67-1.89,0-3.13,1.76-3.13,4.67Z"/><path class="cls-2" d="M664.87,779.35c0-1.7-.83-2.43-2.27-2.43a1.78,1.78,0,0,0-1.92,1.86c0,1.73,1.89,2,4,2.69s4.13,1.82,4.13,5.44a5.63,5.63,0,0,1-6,5.66c-3.36,0-5.89-1.89-6.18-5.92h3.46a2.67,2.67,0,0,0,2.78,2.78,2.09,2.09,0,0,0,2.24-2.3c0-1.79-1.86-2.21-4-2.91s-4.1-1.89-4.1-5.31c0-2.91,2.08-5,5.7-5s5.41,2,5.6,5.44Z"/><path class="cls-2" d="M694.34,785.65c-.13,3.65-2,6.91-5.79,6.91-4.45,0-6.91-3.74-6.91-9.31,0-5.92,2.69-9.34,6.88-9.34,3.81,0,5.73,3.23,5.79,7h-3.58c-.13-2.69-1.12-3.71-2.46-3.71a2.24,2.24,0,0,0-2.18,1.41,10.19,10.19,0,0,0-.8,4.67c0,4.29,1.09,6.08,3,6.08,1.6,0,2.34-1.57,2.46-3.68Z"/><path class="cls-2" d="M697.26,783.22c0-5.12,2.18-9.31,6.91-9.31s6.88,4.19,6.88,9.34-2.18,9.31-6.88,9.31-6.91-4.19-6.91-9.31Zm3.65.06c0,4.38,1.18,6,3.3,6s3.2-1.66,3.2-6.08-1.18-6.08-3.3-6.08-3.2,1.63-3.2,6.08Z"/><path class="cls-2" d="M715.47,774.29h3.3c0,.8,0,1.57,0,2.4a3.73,3.73,0,0,1,4-2.78,3.94,3.94,0,0,1,2.78,1,3.5,3.5,0,0,1,.9,1.5,3.94,3.94,0,0,1,1.28-1.6,5.67,5.67,0,0,1,3.07-.86,4.8,4.8,0,0,1,4.1,2,7.2,7.2,0,0,1,1.12,4.22v12.1h-3.46V780.6a4.37,4.37,0,0,0-.42-2.24,2,2,0,0,0-1.92-1,2.41,2.41,0,0,0-2,.77,3.54,3.54,0,0,0-.71,2.37v11.68H724V780.63a4.58,4.58,0,0,0-.42-2.27,1.94,1.94,0,0,0-1.89-1,2.52,2.52,0,0,0-2,.74,3.72,3.72,0,0,0-.7,2.43v11.65h-3.49Z"/><path class="cls-2" d="M741.22,774.29h3.17v2.34a3.92,3.92,0,0,1,3.9-2.72c3.36,0,5.79,3.2,5.79,9.34,0,5.82-2.08,9.31-5.79,9.31a3.8,3.8,0,0,1-3.62-2.43v8.06h-3.46Zm9.41,8.93c0-4-1.06-5.86-3-5.86a2.39,2.39,0,0,0-2.11,1.22c-.64.86-.83,2-.83,4.67s.19,3.78.83,4.64a2.36,2.36,0,0,0,2.11,1.25c2,0,3-1.89,3-5.89Z"/><path class="cls-2" d="M761.32,784.44c0,2.5.86,4.9,3.17,4.9,1.5,0,2.53-1,2.88-2.72h3.42a7.28,7.28,0,0,1-2.43,4.7,6.41,6.41,0,0,1-3.87,1.25c-4.77,0-6.88-4.35-6.88-9.31,0-5.31,2.33-9.34,6.85-9.34a5.66,5.66,0,0,1,5.06,2.72c1.38,2.24,1.5,5.12,1.44,7.81Zm6.94-17.66,1.34,2.78L762.28,773l-1.22-2.27Zm-.77,14.69c0-2-.74-4.67-3-4.67-1.89,0-3.14,1.76-3.14,4.67Z"/><path class="cls-2" d="M776,777.56h-2.14v-3.26H776V770h3.46v4.26h2.11v3.26h-2.11v14.62H776Z"/><path class="cls-2" d="M787.78,784.44c0,2.5.86,4.9,3.17,4.9,1.5,0,2.53-1,2.88-2.72h3.42a7.28,7.28,0,0,1-2.43,4.7,6.41,6.41,0,0,1-3.87,1.25c-4.77,0-6.88-4.35-6.88-9.31,0-5.31,2.34-9.34,6.85-9.34a5.66,5.66,0,0,1,5.06,2.72c1.38,2.24,1.5,5.12,1.44,7.81Zm6.18-3c0-2-.74-4.67-3-4.67-1.89,0-3.14,1.76-3.14,4.67Z"/><path class="cls-2" d="M801.83,774.29h3c0,.74,0,1.44,0,2.21a4.18,4.18,0,0,1,4.26-2.59c2.94,0,4.83,1.63,4.83,5.54v12.74h-3.46V780.57c0-1.44-.29-3.2-2.4-3.2-1.66,0-2.78,1-2.78,3.36v11.46h-3.46Z"/><path class="cls-2" d="M830.76,785.65c-.13,3.65-2,6.91-5.79,6.91-4.45,0-6.91-3.74-6.91-9.31,0-5.92,2.69-9.34,6.88-9.34,3.81,0,5.73,3.23,5.79,7h-3.58c-.13-2.69-1.12-3.71-2.46-3.71a2.24,2.24,0,0,0-2.18,1.41,10.21,10.21,0,0,0-.8,4.67c0,4.29,1.09,6.08,3,6.08,1.6,0,2.34-1.57,2.46-3.68Z"/><path class="cls-2" d="M837.51,784.44c0,2.5.86,4.9,3.17,4.9,1.5,0,2.53-1,2.88-2.72H847a7.28,7.28,0,0,1-2.43,4.7,6.41,6.41,0,0,1-3.87,1.25c-4.77,0-6.88-4.35-6.88-9.31,0-5.31,2.33-9.34,6.85-9.34a5.66,5.66,0,0,1,5.06,2.72c1.38,2.24,1.5,5.12,1.44,7.81Zm6.18-3c0-2-.74-4.67-3-4.67-1.89,0-3.14,1.76-3.14,4.67Z"/><path class="cls-2" d="M858.47,779.35c0-1.7-.83-2.43-2.27-2.43a1.78,1.78,0,0,0-1.92,1.86c0,1.73,1.89,2,4,2.69s4.13,1.82,4.13,5.44a5.63,5.63,0,0,1-6,5.66c-3.36,0-5.89-1.89-6.18-5.92h3.46a2.67,2.67,0,0,0,2.78,2.78,2.09,2.09,0,0,0,2.24-2.3c0-1.79-1.86-2.21-4-2.91s-4.1-1.89-4.1-5.31c0-2.91,2.08-5,5.7-5s5.41,2,5.6,5.44Z"/><path class="cls-2" d="M876.26,774.29h3.17v2.34a3.92,3.92,0,0,1,3.9-2.72c3.36,0,5.79,3.2,5.79,9.34,0,5.82-2.08,9.31-5.79,9.31a3.8,3.8,0,0,1-3.62-2.43v8.06h-3.46Zm9.41,8.93c0-4-1.06-5.86-3-5.86a2.4,2.4,0,0,0-2.11,1.22c-.64.86-.83,2-.83,4.67s.19,3.78.83,4.64a2.36,2.36,0,0,0,2.11,1.25c2,0,3-1.89,3-5.89Z"/><path class="cls-2" d="M892.52,783.22c0-5.12,2.18-9.31,6.91-9.31s6.88,4.19,6.88,9.34-2.18,9.31-6.88,9.31-6.91-4.19-6.91-9.31Zm3.65.06c0,4.38,1.18,6,3.3,6s3.2-1.66,3.2-6.08-1.18-6.08-3.3-6.08-3.2,1.63-3.2,6.08Z"/><path class="cls-2" d="M922.66,792.18h-3.17c0-.77,0-1.54,0-2.37-.64,1.89-2,2.75-4.16,2.75-2.91,0-4.8-1.63-4.8-5.54V774.29H914v11.62c0,1.44.29,3.23,2.4,3.23,1.63,0,2.78-1.06,2.78-3.39V774.29h3.46Z"/><path class="cls-2" d="M927.85,774.29H931c0,1.09,0,2,0,2.88.74-2.72,2.59-3.26,4.64-3.26v4.19a2.58,2.58,0,0,0-1.47-.42c-1.57,0-2.85,1.54-2.85,4.38v10.11h-3.46Z"/><path class="cls-2" d="M960.52,785.65c-.13,3.65-2,6.91-5.79,6.91-4.45,0-6.91-3.74-6.91-9.31,0-5.92,2.69-9.34,6.88-9.34,3.81,0,5.73,3.23,5.79,7H956.9c-.13-2.69-1.12-3.71-2.46-3.71a2.24,2.24,0,0,0-2.18,1.41,10.21,10.21,0,0,0-.8,4.67c0,4.29,1.09,6.08,3,6.08,1.6,0,2.34-1.57,2.46-3.68Z"/><path class="cls-2" d="M967.27,784.44c0,2.5.86,4.9,3.17,4.9,1.5,0,2.53-1,2.88-2.72h3.42a7.28,7.28,0,0,1-2.43,4.7,6.41,6.41,0,0,1-3.87,1.25c-4.77,0-6.88-4.35-6.88-9.31,0-5.31,2.33-9.34,6.85-9.34a5.66,5.66,0,0,1,5.06,2.72c1.38,2.24,1.5,5.12,1.44,7.81Zm6.18-3c0-2-.74-4.67-3-4.67-1.89,0-3.14,1.76-3.14,4.67Z"/><path class="cls-2" d="M991,774.29h3.17v2.34a3.92,3.92,0,0,1,3.9-2.72c3.36,0,5.79,3.2,5.79,9.34,0,5.82-2.08,9.31-5.79,9.31a3.8,3.8,0,0,1-3.62-2.43v8.06H991Zm9.41,8.93c0-4-1.06-5.86-3-5.86a2.39,2.39,0,0,0-2.11,1.22c-.64.86-.83,2-.83,4.67s.19,3.78.83,4.64a2.36,2.36,0,0,0,2.11,1.25c2,0,3-1.89,3-5.89Z"/><path class="cls-2" d="M1007.3,783.22c0-5.12,2.18-9.31,6.91-9.31s6.88,4.19,6.88,9.34-2.18,9.31-6.88,9.31-6.91-4.19-6.91-9.31Zm3.65.06c0,4.38,1.18,6,3.29,6s3.2-1.66,3.2-6.08-1.18-6.08-3.3-6.08-3.2,1.63-3.2,6.08Z"/><path class="cls-2" d="M1032.29,779.35c0-1.7-.83-2.43-2.27-2.43a1.78,1.78,0,0,0-1.92,1.86c0,1.73,1.89,2,4,2.69s4.13,1.82,4.13,5.44a5.63,5.63,0,0,1-6,5.66c-3.36,0-5.89-1.89-6.18-5.92h3.46a2.67,2.67,0,0,0,2.78,2.78,2.1,2.1,0,0,0,2.24-2.3c0-1.79-1.86-2.21-4-2.91s-4.1-1.89-4.1-5.31c0-2.91,2.08-5,5.7-5s5.41,2,5.6,5.44Z"/><path class="cls-2" d="M1041,777.56h-2.14v-3.26H1041V770h3.46v4.26h2.11v3.26h-2.11v14.62H1041Z"/><path class="cls-2" d="M1052.77,784.44c0,2.5.86,4.9,3.17,4.9,1.5,0,2.53-1,2.88-2.72h3.42a7.28,7.28,0,0,1-2.43,4.7,6.41,6.41,0,0,1-3.87,1.25c-4.77,0-6.88-4.35-6.88-9.31,0-5.31,2.34-9.34,6.85-9.34a5.66,5.66,0,0,1,5.06,2.72c1.38,2.24,1.5,5.12,1.44,7.81Zm6.18-3c0-2-.74-4.67-3-4.67-1.89,0-3.14,1.76-3.14,4.67Z"/><path class="cls-2" d="M1076.55,774.29h3.17v2.34a3.92,3.92,0,0,1,3.9-2.72c3.36,0,5.79,3.2,5.79,9.34,0,5.82-2.08,9.31-5.79,9.31a3.8,3.8,0,0,1-3.62-2.43v8.06h-3.46Zm9.41,8.93c0-4-1.06-5.86-3-5.86a2.4,2.4,0,0,0-2.11,1.22c-.64.86-.83,2-.83,4.67s.19,3.78.83,4.64a2.36,2.36,0,0,0,2.11,1.25c2,0,3-1.89,3-5.89Z"/><path class="cls-2" d="M1093.7,774.29h3.17c0,1.09,0,2,0,2.88.74-2.72,2.59-3.26,4.64-3.26v4.19a2.58,2.58,0,0,0-1.47-.42c-1.57,0-2.85,1.54-2.85,4.38v10.11h-3.46Z"/><path class="cls-2" d="M1107.46,784.44c0,2.5.86,4.9,3.17,4.9,1.5,0,2.53-1,2.88-2.72h3.42a7.28,7.28,0,0,1-2.43,4.7,6.41,6.41,0,0,1-3.87,1.25c-4.77,0-6.88-4.35-6.88-9.31,0-5.31,2.34-9.34,6.85-9.34a5.66,5.66,0,0,1,5.06,2.72c1.38,2.24,1.5,5.12,1.44,7.81Zm6.94-17.66,1.34,2.78-7.33,3.49-1.22-2.27Zm-.77,14.69c0-2-.74-4.67-3-4.67-1.89,0-3.14,1.76-3.14,4.67Z"/><path class="cls-2" d="M1133.19,785.65c-.13,3.65-2,6.91-5.79,6.91-4.45,0-6.91-3.74-6.91-9.31,0-5.92,2.69-9.34,6.88-9.34,3.81,0,5.73,3.23,5.79,7h-3.58c-.13-2.69-1.12-3.71-2.46-3.71a2.24,2.24,0,0,0-2.18,1.41,10.22,10.22,0,0,0-.8,4.67c0,4.29,1.09,6.08,3,6.08,1.6,0,2.34-1.57,2.46-3.68Z"/><path class="cls-2" d="M1137.38,768.5h3.46v3.42h-3.46Zm0,5.79h3.46v17.89h-3.46Z"/><path class="cls-2" d="M1153.31,779.35c0-1.7-.83-2.43-2.27-2.43a1.78,1.78,0,0,0-1.92,1.86c0,1.73,1.89,2,4,2.69s4.13,1.82,4.13,5.44a5.63,5.63,0,0,1-6,5.66c-3.36,0-5.89-1.89-6.18-5.92h3.46a2.67,2.67,0,0,0,2.78,2.78,2.09,2.09,0,0,0,2.24-2.3c0-1.79-1.86-2.21-4-2.91s-4.1-1.89-4.1-5.31c0-2.91,2.08-5,5.7-5s5.41,2,5.6,5.44Z"/><path class="cls-2" d="M1164.32,784.44c0,2.5.86,4.9,3.17,4.9,1.5,0,2.53-1,2.88-2.72h3.42a7.28,7.28,0,0,1-2.43,4.7,6.41,6.41,0,0,1-3.87,1.25c-4.77,0-6.88-4.35-6.88-9.31,0-5.31,2.34-9.34,6.85-9.34a5.66,5.66,0,0,1,5.06,2.72c1.38,2.24,1.5,5.12,1.44,7.81Zm6.94-17.66,1.34,2.78-7.33,3.49-1.22-2.27Zm-.77,14.69c0-2-.74-4.67-3-4.67-1.89,0-3.14,1.76-3.14,4.67Z"/><path class="cls-2" d="M1178.5,774.29h3.29c0,.8,0,1.57,0,2.4a3.73,3.73,0,0,1,4-2.78,3.93,3.93,0,0,1,2.78,1,3.49,3.49,0,0,1,.9,1.5,4,4,0,0,1,1.28-1.6,5.67,5.67,0,0,1,3.07-.86,4.8,4.8,0,0,1,4.1,2,7.19,7.19,0,0,1,1.12,4.22v12.1h-3.46V780.6a4.37,4.37,0,0,0-.42-2.24,2,2,0,0,0-1.92-1,2.42,2.42,0,0,0-2,.77,3.54,3.54,0,0,0-.7,2.37v11.68H1187V780.63a4.59,4.59,0,0,0-.42-2.27,1.94,1.94,0,0,0-1.89-1,2.52,2.52,0,0,0-2,.74,3.72,3.72,0,0,0-.71,2.43v11.65h-3.49Z"/><path class="cls-2" d="M1207.2,784.44c0,2.5.86,4.9,3.17,4.9,1.5,0,2.53-1,2.88-2.72h3.42a7.28,7.28,0,0,1-2.43,4.7,6.41,6.41,0,0,1-3.87,1.25c-4.77,0-6.88-4.35-6.88-9.31,0-5.31,2.33-9.34,6.85-9.34a5.66,5.66,0,0,1,5.06,2.72c1.38,2.24,1.5,5.12,1.44,7.81Zm6.18-3c0-2-.74-4.67-3-4.67-1.89,0-3.14,1.76-3.14,4.67Z"/><path class="cls-2" d="M1221.25,774.29h3c0,.74,0,1.44,0,2.21a4.18,4.18,0,0,1,4.26-2.59c2.94,0,4.83,1.63,4.83,5.54v12.74h-3.46V780.57c0-1.44-.29-3.2-2.4-3.2-1.66,0-2.78,1-2.78,3.36v11.46h-3.46Z"/><path class="cls-2" d="M1239.11,777.56H1237v-3.26h2.14V770h3.46v4.26h2.11v3.26h-2.11v14.62h-3.46Z"/><path class="cls-2" d="M1252.42,792.18H1249V788h3.46Z"/><path class="cls-3" d="M1489.21,335.35H426.44a8.8,8.8,0,0,0-8.8,8.8v51.4a8.8,8.8,0,0,0,8.8,8.8H902.24l56.5,36,54.66-36h475.81a8.8,8.8,0,0,0,8.8-8.8v-51.4A8.8,8.8,0,0,0,1489.21,335.35Z"/><path class="cls-2" d="M479,383.16a9.27,9.27,0,0,1-1.48.16,5.47,5.47,0,0,1-4-1.4,9.8,9.8,0,0,1-5.28,1.4c-7.28,0-10.88-6.08-10.88-15.36s3.6-15.36,10.88-15.36,10.88,6.08,10.88,15.36a23.79,23.79,0,0,1-1.76,9.6,2.49,2.49,0,0,0,1.64,0Zm-10.8-25c-3.08,0-4.6,2.76-4.6,9.76,0,.92,0,1.6.08,2.28a8.59,8.59,0,0,1,3.08-.56,5.94,5.94,0,0,1,2.76.6,8.81,8.81,0,0,1,3.12,2.6,31.82,31.82,0,0,0,.24-4.92c0-7-1.52-9.76-4.64-9.76Zm.08,19.52a2.88,2.88,0,0,0,1.84-.52,5.09,5.09,0,0,0-4.56-2.36,3.26,3.26,0,0,0-1.08.2,4,4,0,0,0,3.76,2.68Z"/><path class="cls-2" d="M499.77,382.76h-4.84v-2.4c-.68,1.84-1.84,2.88-4.64,2.88-3.6,0-5.88-2-5.88-6.6V360h5.36v14.84c0,1.56.36,3,2.24,3,1.4,0,2.4-.72,2.4-2.64V360h5.36Z"/><path class="cls-2" d="M510.89,373.32c0,2.24.6,4.88,3,4.88,1.4,0,2.4-.88,2.8-2.8H522c-.44,3.16-1.72,5.2-3.28,6.36a8.31,8.31,0,0,1-4.84,1.48c-6,0-8.76-5.28-8.76-11.84s2.8-11.84,8.76-11.84a7.16,7.16,0,0,1,6.6,3.64c1.68,2.92,1.8,6.64,1.68,10.12Zm5.92-4.56c0-1.36-.2-4.8-2.84-4.8-1.88,0-3.08,1.6-3.08,4.8Z"/><path class="cls-2" d="M528.17,353.17h5.36v29.59h-5.36Z"/><path class="cls-2" d="M548.89,366.77c-.08-1.68-.76-2.56-2.4-2.56a1.71,1.71,0,0,0-1.92,1.76c0,1.92,2.56,2.08,5.12,2.88s5.12,2.32,5.12,7c0,4.24-3.36,7.44-8,7.44-4.36,0-7.8-2.4-8.28-7.76h5.36a2.92,2.92,0,0,0,3.08,2.88,2,2,0,0,0,2.2-2.28c0-2-2.56-2.16-5.12-3s-5.12-2.4-5.12-6.92c0-3.8,2.64-6.6,7.76-6.6s7.28,2.8,7.6,7.2Z"/><path class="cls-2" d="M581,366.77c-.08-1.68-.76-2.56-2.4-2.56a1.71,1.71,0,0,0-1.92,1.76c0,1.92,2.56,2.08,5.12,2.88s5.12,2.32,5.12,7c0,4.24-3.36,7.44-8,7.44-4.36,0-7.8-2.4-8.28-7.76h5.36a2.92,2.92,0,0,0,3.08,2.88,2,2,0,0,0,2.2-2.28c0-2-2.56-2.16-5.12-3s-5.12-2.4-5.12-6.92c0-3.8,2.64-6.6,7.76-6.6s7.28,2.8,7.6,7.2Z"/><path class="cls-2" d="M590.69,371.36c0-6.52,2.8-11.8,8.76-11.8s8.76,5.28,8.76,11.84-2.8,11.84-8.76,11.84-8.76-5.28-8.76-11.84Zm5.68.08c0,5.32,1.2,6.76,3.16,6.76,1.8,0,3-1.44,3-6.8s-1.2-6.8-3.16-6.8c-1.8,0-3,1.44-3,6.8Z"/><path class="cls-2" d="M613.37,360H618v2.16c.88-1.6,2-2.64,4.84-2.64,3.6,0,5.88,2,5.88,6.6v16.6h-5.36V367.92c0-1.56-.36-3-2.24-3-1.4,0-2.4.72-2.4,2.64v15.2h-5.36Z"/><path class="cls-2" d="M635.53,365.08h-2.4v-5h2.4v-4.32h5.36V360h2.4v5h-2.4v17.68h-5.36Z"/><path class="cls-2" d="M661,353.17h5.36v29.59H661Z"/><path class="cls-2" d="M678,373.32c0,2.24.6,4.88,3,4.88,1.4,0,2.4-.88,2.8-2.8h5.32c-.44,3.16-1.72,5.2-3.28,6.36a8.31,8.31,0,0,1-4.84,1.48c-6,0-8.76-5.28-8.76-11.84s2.8-11.84,8.76-11.84a7.16,7.16,0,0,1,6.6,3.64c1.68,2.92,1.8,6.64,1.68,10.12Zm5.92-4.56c0-1.36-.2-4.8-2.84-4.8-1.88,0-3.08,1.6-3.08,4.8Z"/><path class="cls-2" d="M703.29,366.77c-.08-1.68-.76-2.56-2.4-2.56A1.71,1.71,0,0,0,699,366c0,1.92,2.56,2.08,5.12,2.88s5.12,2.32,5.12,7c0,4.24-3.36,7.44-8,7.44-4.36,0-7.8-2.4-8.28-7.76h5.36a2.92,2.92,0,0,0,3.08,2.88,2,2,0,0,0,2.2-2.28c0-2-2.56-2.16-5.12-3s-5.12-2.4-5.12-6.92c0-3.8,2.64-6.6,7.76-6.6s7.28,2.8,7.6,7.2Z"/><path class="cls-2" d="M742.17,382.76h-4.88V380.6a4.48,4.48,0,0,1-4.4,2.64c-4.08,0-7.16-3.68-7.16-11.84,0-7.68,2.52-11.84,7.16-11.84a4.3,4.3,0,0,1,4.4,2.8V360h4.88Zm-11.08-11.32c0,5,1.12,6.44,2.92,6.44a2.34,2.34,0,0,0,2.12-1c.68-.84.68-1.92.68-5.48s0-4.64-.68-5.48a2.34,2.34,0,0,0-2.12-1c-1.8,0-2.92,1.44-2.92,6.48Z"/><path class="cls-2" d="M749,365.08h-2.4v-5H749v-4.32h5.36V360h2.4v5h-2.4v17.68H749Z"/><path class="cls-2" d="M759.65,371.36c0-6.52,2.8-11.8,8.76-11.8s8.76,5.28,8.76,11.84-2.8,11.84-8.76,11.84-8.76-5.28-8.76-11.84Zm5.68.08c0,5.32,1.2,6.76,3.16,6.76,1.8,0,3-1.44,3-6.8s-1.2-6.8-3.16-6.8c-1.8,0-3,1.44-3,6.8Z"/><path class="cls-2" d="M797.69,382.76h-4.84v-2.4c-.68,1.84-1.84,2.88-4.64,2.88-3.6,0-5.88-2-5.88-6.6V360h5.36v14.84c0,1.56.36,3,2.24,3,1.4,0,2.4-.72,2.4-2.64V360h5.36Z"/><path class="cls-2" d="M804.49,365.08h-2.4v-5h2.4v-4.32h5.36V360h2.4v5h-2.4v17.68h-5.36Z"/><path class="cls-2" d="M825.21,366.77c-.08-1.68-.76-2.56-2.4-2.56a1.71,1.71,0,0,0-1.92,1.76c0,1.92,2.56,2.08,5.12,2.88s5.12,2.32,5.12,7c0,4.24-3.36,7.44-8,7.44-4.36,0-7.8-2.4-8.28-7.76h5.36a2.92,2.92,0,0,0,3.08,2.88,2,2,0,0,0,2.2-2.28c0-2-2.56-2.16-5.12-3s-5.12-2.4-5.12-6.92c0-3.8,2.64-6.6,7.76-6.6s7.28,2.8,7.6,7.2Z"/><path class="cls-2" d="M864.09,382.76h-4.88V380.2a4.28,4.28,0,0,1-4.4,3c-4.08,0-7.16-3.68-7.16-11.84,0-7.68,2.52-11.84,7.16-11.84a4,4,0,0,1,4,2.4c0-.64,0-1.28,0-1.92v-6.88h5.36ZM853,371.44c0,5,1.12,6.44,2.92,6.44a2.34,2.34,0,0,0,2.12-1c.68-.84.68-1.92.68-5.48s0-4.64-.68-5.48a2.34,2.34,0,0,0-2.12-1c-1.8,0-2.92,1.44-2.92,6.48Z"/><path class="cls-2" d="M871.45,353.17h5.68l-4.24,10h-4.8Z"/><path class="cls-2" d="M896.17,382.76h-4.84v-2.4c-.68,1.84-1.84,2.88-4.64,2.88-3.6,0-5.88-2-5.88-6.6V360h5.36v14.84c0,1.56.36,3,2.24,3,1.4,0,2.4-.72,2.4-2.64V360h5.36Z"/><path class="cls-2" d="M902.41,360h4.64v2.16c.88-1.6,2-2.64,4.84-2.64,3.6,0,5.88,2,5.88,6.6v16.6h-5.36V367.92c0-1.56-.36-3-2.24-3-1.4,0-2.4.72-2.4,2.64v15.2h-5.36Z"/><path class="cls-2" d="M928.89,373.32c0,2.24.6,4.88,3,4.88,1.4,0,2.4-.88,2.8-2.8H940c-.44,3.16-1.72,5.2-3.28,6.36a8.31,8.31,0,0,1-4.84,1.48c-6,0-8.76-5.28-8.76-11.84s2.8-11.84,8.76-11.84a7.15,7.15,0,0,1,6.6,3.64c1.68,2.92,1.8,6.64,1.68,10.12Zm5.92-4.56c0-1.36-.2-4.8-2.84-4.8-1.88,0-3.08,1.6-3.08,4.8Z"/><path class="cls-2" d="M958.33,353.17h5.36v9a3.8,3.8,0,0,1,3.92-2.64c4.64,0,7.16,4.16,7.16,11.84,0,8.16-3.08,11.84-7.16,11.84a4.44,4.44,0,0,1-4.4-2.72v2.24h-4.88Zm11.08,18.2c0-4.36-.8-6.44-2.84-6.44-2.88,0-2.88,3.08-2.88,6.48s0,6.48,2.88,6.48c2,0,2.84-2.08,2.84-6.48Z"/><path class="cls-2" d="M978.85,371.36c0-6.52,2.8-11.8,8.76-11.8s8.76,5.28,8.76,11.84-2.8,11.84-8.76,11.84-8.76-5.28-8.76-11.84Zm5.68.08c0,5.32,1.2,6.76,3.16,6.76,1.8,0,3-1.44,3-6.8s-1.2-6.8-3.16-6.8c-1.8,0-3,1.44-3,6.8Z"/><path class="cls-2" d="M1001.53,360h4.64v2.16c.88-1.6,2-2.64,4.84-2.64,3.6,0,5.88,2,5.88,6.6v16.6h-5.36V367.92c0-1.56-.36-3-2.24-3-1.4,0-2.4.72-2.4,2.64v15.2h-5.36Z"/><path class="cls-2" d="M1023.13,360h4.64v2.16c.88-1.6,2-2.64,4.84-2.64,3.6,0,5.88,2,5.88,6.6v16.6h-5.36V367.92c0-1.56-.36-3-2.24-3-1.4,0-2.4.72-2.4,2.64v15.2h-5.36Z"/><path class="cls-2" d="M1049.61,373.32c0,2.24.6,4.88,3,4.88,1.4,0,2.4-.88,2.8-2.8h5.32c-.44,3.16-1.72,5.2-3.28,6.36a8.31,8.31,0,0,1-4.84,1.48c-6,0-8.76-5.28-8.76-11.84s2.8-11.84,8.76-11.84a7.15,7.15,0,0,1,6.6,3.64c1.68,2.92,1.8,6.64,1.68,10.12Zm5.92-4.56c0-1.36-.2-4.8-2.84-4.8-1.88,0-3.08,1.6-3.08,4.8Z"/><path class="cls-2" d="M1079.61,353.17H1085v29.59h-5.36Z"/><path class="cls-2" d="M1096.65,373.32c0,2.24.6,4.88,3,4.88,1.4,0,2.4-.88,2.8-2.8h5.32c-.44,3.16-1.72,5.2-3.28,6.36a8.31,8.31,0,0,1-4.84,1.48c-6,0-8.76-5.28-8.76-11.84s2.8-11.84,8.76-11.84a7.16,7.16,0,0,1,6.6,3.64c1.68,2.92,1.8,6.64,1.68,10.12Zm5.92-4.56c0-1.36-.2-4.8-2.84-4.8-1.88,0-3.08,1.6-3.08,4.8Z"/><path class="cls-2" d="M1113.93,365.08h-2.4v-5h2.4v-4.32h5.36V360h2.4v5h-2.4v17.68h-5.36Z"/><path class="cls-2" d="M1126.65,365.08h-2.4v-5h2.4v-4.32H1132V360h2.4v5H1132v17.68h-5.36Z"/><path class="cls-2" d="M1138.81,360h4.88v3c.8-2.84,2.8-3.44,5.76-3.44v6.6a4,4,0,0,0-2.36-.68c-2,0-2.92,1.68-2.92,4v13.28h-5.36Z"/><path class="cls-2" d="M1158,373.32c0,2.24.6,4.88,3,4.88,1.4,0,2.4-.88,2.8-2.8h5.32c-.44,3.16-1.72,5.2-3.28,6.36a8.31,8.31,0,0,1-4.84,1.48c-6,0-8.76-5.28-8.76-11.84s2.8-11.84,8.76-11.84a7.16,7.16,0,0,1,6.6,3.64c1.68,2.92,1.8,6.64,1.68,10.12Zm5.92-4.56c0-1.36-.2-4.8-2.84-4.8-1.88,0-3.08,1.6-3.08,4.8Z"/><path class="cls-2" d="M1202.81,382.76h-4.88V380.2a4.27,4.27,0,0,1-4.4,3c-4.08,0-7.16-3.68-7.16-11.84,0-7.68,2.52-11.84,7.16-11.84a4,4,0,0,1,4,2.4c0-.64,0-1.28,0-1.92v-6.88h5.36Zm-11.08-11.32c0,5,1.12,6.44,2.92,6.44a2.34,2.34,0,0,0,2.12-1c.68-.84.68-1.92.68-5.48s0-4.64-.68-5.48a2.34,2.34,0,0,0-2.12-1c-1.8,0-2.92,1.44-2.92,6.48Z"/><path class="cls-2" d="M1213.93,373.32c0,2.24.6,4.88,3,4.88,1.4,0,2.4-.88,2.8-2.8H1225c-.44,3.16-1.72,5.2-3.28,6.36a8.31,8.31,0,0,1-4.84,1.48c-6,0-8.76-5.28-8.76-11.84s2.8-11.84,8.76-11.84a7.15,7.15,0,0,1,6.6,3.64c1.68,2.92,1.8,6.64,1.68,10.12Zm5.92-4.56c0-1.36-.2-4.8-2.84-4.8-1.88,0-3.08,1.6-3.08,4.8Z"/><path class="cls-2" d="M1243.61,360h5v2.64c.72-2.24,2.16-3.12,4.64-3.12a5.05,5.05,0,0,1,3.24,1,3.83,3.83,0,0,1,1.08,1.48,4.48,4.48,0,0,1,1.48-1.52,7.16,7.16,0,0,1,3.72-1,6.39,6.39,0,0,1,5.16,2.2,7.47,7.47,0,0,1,1.64,4.84v16.16h-5.36v-15.2a2.83,2.83,0,0,0-.56-2,2.23,2.23,0,0,0-1.8-.6,3,3,0,0,0-1.88.48,2.25,2.25,0,0,0-.72,1.84v15.52h-5.36v-15.2a2.83,2.83,0,0,0-.56-2,2.23,2.23,0,0,0-1.8-.6,3,3,0,0,0-1.88.48,2.25,2.25,0,0,0-.72,1.84v15.52h-5.36Z"/><path class="cls-2" d="M1275,371.36c0-6.52,2.8-11.8,8.76-11.8s8.76,5.28,8.76,11.84-2.8,11.84-8.76,11.84S1275,378,1275,371.4Zm5.68.08c0,5.32,1.2,6.76,3.16,6.76,1.8,0,3-1.44,3-6.8s-1.2-6.8-3.16-6.8c-1.8,0-3,1.44-3,6.8Z"/><path class="cls-2" d="M1298.25,365.08h-2.4v-5h2.4v-4.32h5.36V360h2.4v5h-2.4v17.68h-5.36Z"/><path class="cls-2" d="M1311,353.17h5.36v4.48H1311Zm0,6.88h5.36v22.72H1311Z"/><path class="cls-2" d="M1332.45,382.76h-4.88L1321,360h5.44l3.48,14.56,3-14.56h5.44Z"/><path class="cls-2" d="M1357.45,382.76h-4.88V380.6a4.48,4.48,0,0,1-4.4,2.64c-4.08,0-7.16-3.68-7.16-11.84,0-7.68,2.52-11.84,7.16-11.84a4.3,4.3,0,0,1,4.4,2.8V360h4.88Zm-11.08-11.32c0,5,1.12,6.44,2.92,6.44a2.34,2.34,0,0,0,2.12-1c.68-.84.68-1.92.68-5.48s0-4.64-.68-5.48a2.34,2.34,0,0,0-2.12-1c-1.8,0-2.92,1.44-2.92,6.48Z"/><path class="cls-2" d="M1364.25,365.08h-2.4v-5h2.4v-4.32h5.36V360h2.4v5h-2.4v17.68h-5.36Z"/><path class="cls-2" d="M1377,353.17h5.36v4.48H1377Zm0,6.88h5.36v22.72H1377Z"/><path class="cls-2" d="M1388.05,371.36c0-6.52,2.8-11.8,8.76-11.8s8.76,5.28,8.76,11.84-2.8,11.84-8.76,11.84-8.76-5.28-8.76-11.84Zm5.68.08c0,5.32,1.2,6.76,3.16,6.76,1.8,0,3-1.44,3-6.8s-1.2-6.8-3.16-6.8c-1.8,0-3,1.44-3,6.8Z"/><path class="cls-2" d="M1410.73,360h4.64v2.16c.88-1.6,2-2.64,4.84-2.64,3.6,0,5.88,2,5.88,6.6v16.6h-5.36V367.92c0-1.56-.36-3-2.24-3-1.4,0-2.4.72-2.4,2.64v15.2h-5.36Z"/><path class="cls-2" d="M1448.89,374.76c0-3.2-.6-5.88,1.24-8.24s4.84-3.64,4.84-5.84c0-1.6-1-2.4-2.64-2.4-1.32,0-2.4.88-2.4,2.84v1h-6.08v-1.44c0-5.28,3.44-8,8.76-8,4.76,0,8.6,3.28,8.6,8.24,0,3.36-1.76,5.16-3.44,6.68-3.16,2.8-3,2.64-3,7.16Zm5.92,8h-5.92v-6.08h5.92Z"/></g><g id="etapes_jeu" data-name="etapes jeu"><line class="cls-4" x1="555.81" y1="239.15" x2="556.31" y2="239.15"/><line class="cls-5" x1="571.26" y1="239.15" x2="1361.42" y2="239.15"/><line class="cls-4" x1="1368.89" y1="239.15" x2="1369.39" y2="239.15"/><circle class="cls-6" cx="689.29" cy="239.15" r="19.32"/><path class="cls-7" d="M690.85,226.72v20.37h3.21v3.38h-9.84v-3.37h3.21v-17h-3.21v-3.38Z"/><path class="cls-8" d="M689.29,219.83h-.15v38.63h.15a19.32,19.32,0,1,0,0-38.63Z"/><circle class="cls-6" cx="825.95" cy="239.15" r="39.31"/><path class="cls-7" d="M815.63,251.8q0-6.53,6.5-11.18t6.55-7.91v-9.48q0-3.28-3-3.28h0q-3,0-3,3.28v6.48h-7v-6.48q0-10.17,10-10.17t10,10.17v9.65q0,6.65-6.53,11.33t-6.53,8.18v2.91h13.05v6.87h-20Z"/><path class="cls-8" d="M825.95,199.84h-.31v78.61h.31a39.31,39.31,0,1,0,0-78.62Z"/><circle class="cls-6" cx="962.6" cy="239.15" r="19.32"/><path class="cls-7" d="M963.95,231.33q0-1.6-1.49-1.61h0q-1.48,0-1.48,1.61v3.18h-3.42v-3.18q0-5,4.91-5t4.92,5v4.13a3.42,3.42,0,0,1-1.87,3.3,3.41,3.41,0,0,1,1.88,3.3v3.79q0,5-4.92,5t-4.91-5v-3.18H961v3.18q0,1.61,1.48,1.61h0q1.49,0,1.49-1.61v-3.79q0-1.29-.54-1.54a2.49,2.49,0,0,0-.9-.12h-1.13V237h1.39a1.44,1.44,0,0,0,.73-.15q.45-.25.45-1.45Z"/><path class="cls-8" d="M962.6,219.83h-.15v38.63h.15a19.32,19.32,0,1,0,0-38.63Z"/><circle class="cls-6" cx="1099.26" cy="239.15" r="19.32"/><path class="cls-7" d="M1103.61,226.72v15.57h1.32v3.38h-1.32v4.79h-3.42v-4.79h-6.95v-3l6-15.95Zm-7,15.57h3.57V232.2Z"/><path class="cls-8" d="M1099.26,219.83h-.15v38.63h.15a19.32,19.32,0,1,0,0-38.63Z"/><circle class="cls-6" cx="1235.91" cy="239.15" r="19.32"/><path class="cls-7" d="M1237.26,239.11q0-1.26-.53-1.49a2.41,2.41,0,0,0-.93-.13h-.33q-1,0-1.16.93l0,1h-3.42l.51-12.67h9.33v3.38h-6l-.24,5.11a3,3,0,0,1,2.37-1l.42,0a3.57,3.57,0,0,1,2.72,1.44,6,6,0,0,1,.76,3.45v6.74q0,5-4.92,5t-4.91-5V243h3.42v2.81q0,1.61,1.48,1.61h0q1.49,0,1.49-1.61Z"/><path class="cls-8" d="M1235.91,219.83h-.15v38.63h.15a19.32,19.32,0,1,0,0-38.63Z"/></g></g></svg>