<svg xmlns="http://www.w3.org/2000/svg" viewBox="0 0 660.35 83.1"><defs><style>.cls-1{isolation:isolate;}.cls-2{fill:#fff;}.cls-3{fill:#4e96b3;stroke:#4e96b3;stroke-miterlimit:10;stroke-width:5px;mix-blend-mode:multiply;}</style></defs><title>game1b_item_zone6_txt</title><g class="cls-1"><g id="Calque_2" data-name="Calque 2"><g id="Calque_9" data-name="Calque 9"><rect class="cls-2" x="0.11" width="659.14" height="83.1" rx="6.31" ry="6.31" transform="translate(659.36 83.1) rotate(180)"/></g><g id="Calque_13" data-name="Calque 13"><circle class="cls-3" cx="13.75" cy="18.39" r="11.25"/><path class="cls-2" d="M16.91,11.14,14,15.28c-.2.29-.41.61-.54.81a1.62,1.62,0,0,1,.68-.14c2.12,0,3.71,1.85,3.71,4.21a4.26,4.26,0,0,1-4.32,4.52,4.27,4.27,0,0,1-2.92-1A4.72,4.72,0,0,1,9.21,20a7.11,7.11,0,0,1,1.58-4.23l3.15-4.59Zm-4.84,9.24c0,1.19.59,2,1.49,2s1.46-.79,1.46-2-.56-2.09-1.46-2.09-1.49.79-1.49,2.09Z"/><path d="M34.92,11.14h2.74v10.8h3.49v2.52H34.92Z"/><path d="M42.48,11.14H45l-1.91,4.5H41Z"/><path d="M46.78,11.14h2.74V24.46H46.78Z"/><path d="M58.75,19V11.14h2.41V24.46H58.72L55,15.93v8.53H52.56V11.14h2.77Z"/><path d="M65.72,13.66H63.48V11.14h7.2v2.52H68.45v10.8H65.72Z"/><path d="M72.93,11.14h3.46c1.89,0,3.1.49,3.67,1.17a4.58,4.58,0,0,1,1.08,3.08,4.91,4.91,0,0,1-.4,2,3.58,3.58,0,0,1-1.57,1.75l2.52,5.31H78.64l-2.93-6.77c.31,0,.47,0,.68,0a2.12,2.12,0,0,0,1.35-.5,2.07,2.07,0,0,0,.59-1.53A1.92,1.92,0,0,0,77.7,14a2.09,2.09,0,0,0-1.4-.36h-.63v10.8H72.93Z"/><path d="M83.12,17.78c0-4.16,1.62-6.9,4.9-6.9s4.9,2.74,4.9,6.91S91.3,24.72,88,24.72s-4.9-2.74-4.9-6.91Zm2.81,0c0,3.19.68,4.38,2.09,4.38S90.11,21,90.11,17.8s-.68-4.39-2.09-4.39-2.09,1.19-2.09,4.39Z"/><path d="M95.36,11.14H99.2a4.74,4.74,0,0,1,4.12,2,8.12,8.12,0,0,1,1.31,4.7c0,3.64-1.8,6.66-5.35,6.66H95.36Zm2.74,10.8h1.19c2.21,0,2.54-2.74,2.54-4.14a6.22,6.22,0,0,0-.61-3,2.09,2.09,0,0,0-2-1.12H98.1Z"/><path d="M109.8,11.14v9.07a2.17,2.17,0,0,0,.38,1.46,1.5,1.5,0,0,0,1.28.47,1.56,1.56,0,0,0,1.3-.47,2.29,2.29,0,0,0,.36-1.46V11.14h2.74v9.52a4,4,0,0,1-1,2.9,5.6,5.6,0,0,1-6.81,0,4.05,4.05,0,0,1-1-2.9V11.14Z"/><path d="M127.93,19.3c0,3-1.69,5.42-4.83,5.42-2.92,0-4.83-2.25-4.83-6.91s1.91-6.91,4.83-6.91c3.22,0,4.86,2.43,4.83,5.53h-2.81c-.07-2.38-.76-2.94-1.8-2.94-1.26,0-2.23,1.13-2.23,4.32s1,4.32,2.23,4.32c1.42,0,1.73-1.4,1.8-2.83Z"/><path d="M132,13.66h-2.23V11.14H137v2.52h-2.23v10.8H132Z"/><path d="M139.24,11.14H142V24.46h-2.74Z"/><path d="M144.43,17.78c0-4.16,1.62-6.9,4.9-6.9s4.9,2.74,4.9,6.91-1.62,6.91-4.9,6.91-4.9-2.74-4.9-6.91Zm2.81,0c0,3.19.68,4.38,2.09,4.38s2.09-1.19,2.09-4.39-.68-4.39-2.09-4.39-2.09,1.19-2.09,4.39Z"/><path d="M162.93,19V11.14h2.41V24.46H162.9l-3.75-8.53v8.53h-2.41V11.14h2.77Z"/><path d="M185.37,18.31H183V15.64h2.41Zm0,6.16H183V21.8h2.41Z"/><path d="M201.18,11.14h3.06a4.86,4.86,0,0,1,4.36,1.93,8.33,8.33,0,0,1,1.17,4.74c0,5.1-2.49,6.66-5.49,6.66h-3.1Zm1.35,12.08h1.64c3.13,0,4.23-2,4.23-5.42a6.87,6.87,0,0,0-.94-4.07,3.75,3.75,0,0,0-3.33-1.35h-1.6Z"/><path d="M212.5,11.14h1.21V12.9H212.5Zm0,3.53h1.21v9.79H212.5Z"/><path d="M220.89,17.21c0-1.24-.65-1.69-1.58-1.69A1.38,1.38,0,0,0,217.88,17c0,1.1.92,1.49,2.11,1.85a2.86,2.86,0,0,1,2.34,3,2.81,2.81,0,0,1-2.92,2.92,2.9,2.9,0,0,1-3.06-3.11h1.19a1.79,1.79,0,0,0,1.87,2,1.57,1.57,0,0,0,1.66-1.71c0-1.19-.83-1.66-2.14-2.07s-2.3-1-2.3-2.79a2.73,2.73,0,0,1,5.46.2Z"/><path d="M225.39,15.8H224V14.67h1.37v-3.1h1.21v3.1h1.35V15.8h-1.35v8.66h-1.21Z"/><path d="M230.28,11.14h1.21V12.9h-1.21Zm0,3.53h1.21v9.79h-1.21Z"/><path d="M234.73,14.67h1.08c0,.56,0,1.06,0,1.67a2.79,2.79,0,0,1,2.77-1.91c1.68,0,2.81,1,2.81,3.35v6.68h-1.21v-6.3c0-1-.14-2.54-1.87-2.54-1.42,0-2.34,1-2.34,3v5.8h-1.21Z"/><path d="M250.84,24.28a4.3,4.3,0,0,1-.83,2.94,3.27,3.27,0,0,1-2.63,1.08,3.2,3.2,0,0,1-3.29-3.08h1.22a2.12,2.12,0,0,0,.56,1.37,2.17,2.17,0,0,0,1.57.59c1,0,2.21-.47,2.21-2.81,0-.47,0-1.1,0-1.75a2.55,2.55,0,0,1-2.52,2.07c-2.11,0-3.28-2.12-3.28-5.11s1.17-5.15,3.28-5.15c1.15,0,2.05.54,2.65,2.12,0-.59,0-1.15,0-1.89h1.06Zm-5.76-4.7c0,2.21.79,3.93,2.29,3.93a1.93,1.93,0,0,0,1.71-1.08,5.46,5.46,0,0,0,.56-2.86,5.38,5.38,0,0,0-.56-2.86,1.93,1.93,0,0,0-1.71-1.08c-1.5,0-2.29,1.71-2.29,3.94Z"/><path d="M260.51,24.46h-1.12c0-.56,0-1.1,0-1.71a2.75,2.75,0,0,1-2.74,1.94c-1.68,0-2.81-1-2.81-3.35V14.67h1.21V21c0,1,.14,2.54,1.87,2.54,1.42,0,2.34-1,2.34-3v-5.8h1.21Z"/><path d="M264.37,19.93c0,2,.83,3.64,2.49,3.64a2.23,2.23,0,0,0,2.2-1.94h1.19a3.92,3.92,0,0,1-1.22,2.3,3.28,3.28,0,0,1-2.16.77c-2.7,0-3.75-2.59-3.75-5.11,0-3,1.4-5.15,3.71-5.15a3,3,0,0,1,2.63,1.39,7.12,7.12,0,0,1,.9,4.11Zm4.75-1.06c0-2-.88-3.4-2.36-3.4s-2.36,1.46-2.4,3.4Z"/><path d="M272.1,23.35l4.7-7.54H272.4V14.67h5.83v1.15l-4.68,7.51h4.84v1.13h-6.3Z"/><path d="M283.87,18.83V20h-3.82V18.83Z"/><path d="M289.22,24.46H288l-3-9.79h1.22l2.32,8.17,2.25-8.17h1.21Z"/><path d="M293.34,19.55c0-2.79,1.15-5.11,3.78-5.11s3.76,2.32,3.76,5.13-1.15,5.13-3.76,5.13-3.78-2.32-3.78-5.13Zm1.26,0c0,2.59.85,4,2.54,4s2.48-1.39,2.48-4-.85-4-2.52-4-2.5,1.39-2.5,4Z"/><path d="M310,24.46h-1.12c0-.56,0-1.1,0-1.71a2.75,2.75,0,0,1-2.74,1.94c-1.68,0-2.81-1-2.81-3.35V14.67h1.21V21c0,1,.14,2.54,1.87,2.54,1.42,0,2.34-1,2.34-3v-5.8H310Z"/><path d="M317.06,17.21c0-1.24-.65-1.69-1.58-1.69A1.38,1.38,0,0,0,314.05,17c0,1.1.92,1.49,2.11,1.85a2.86,2.86,0,0,1,2.34,3,2.81,2.81,0,0,1-2.92,2.92,2.9,2.9,0,0,1-3.06-3.11h1.19a1.79,1.79,0,0,0,1.87,2,1.57,1.57,0,0,0,1.66-1.71c0-1.19-.83-1.66-2.14-2.07s-2.3-1-2.3-2.79a2.73,2.73,0,0,1,5.46.2Z"/><path d="M335.52,21.2h-1.33V11.14h1.33Zm0,3.26h-1.33V22.54h1.33Z"/><path d="M351.72,11.14h1.35V24.46h-1.35Z"/><path d="M356.2,14.67h1.08c0,.56,0,1.06,0,1.67A2.79,2.79,0,0,1,360,14.43c1.68,0,2.81,1,2.81,3.35v6.68h-1.21v-6.3c0-1-.14-2.54-1.87-2.54-1.42,0-2.34,1-2.34,3v5.8H356.2Z"/><path d="M366.34,15.8H365V14.67h1.37v-3.1h1.21v3.1h1.35V15.8h-1.35v8.66h-1.21Z"/><path d="M371.63,19.93c0,2,.83,3.64,2.49,3.64a2.23,2.23,0,0,0,2.2-1.94h1.19a3.92,3.92,0,0,1-1.22,2.3,3.28,3.28,0,0,1-2.16.77c-2.7,0-3.75-2.59-3.75-5.11,0-3,1.4-5.15,3.71-5.15a3,3,0,0,1,2.63,1.39,7.12,7.12,0,0,1,.9,4.11Zm4.75-1.06c0-2-.88-3.4-2.36-3.4s-2.36,1.46-2.4,3.4ZM376,10.62l.5,1-4,2.14-.45-.85Z"/><path d="M380.18,14.67h1.12c0,.9,0,1.46,0,2.05a2.65,2.65,0,0,1,2.61-2.29v1.4a.82.82,0,0,0-.45-.13c-.83,0-2,1-2,3.49v5.26h-1.21Z"/><path d="M386.44,19.93c0,2,.83,3.64,2.49,3.64a2.23,2.23,0,0,0,2.2-1.94h1.19a3.92,3.92,0,0,1-1.22,2.3,3.28,3.28,0,0,1-2.16.77c-2.7,0-3.75-2.59-3.75-5.11,0-3,1.4-5.15,3.71-5.15a3,3,0,0,1,2.63,1.39,7.12,7.12,0,0,1,.9,4.11Zm4.75-1.06c0-2-.88-3.4-2.36-3.4s-2.36,1.46-2.4,3.4Z"/><path d="M398.94,17.21c0-1.24-.65-1.69-1.58-1.69A1.38,1.38,0,0,0,395.93,17c0,1.1.92,1.49,2.11,1.85a2.86,2.86,0,0,1,2.34,3,2.81,2.81,0,0,1-2.92,2.92,2.9,2.9,0,0,1-3.06-3.11h1.19a1.79,1.79,0,0,0,1.87,2,1.57,1.57,0,0,0,1.66-1.71c0-1.19-.83-1.66-2.14-2.07s-2.3-1-2.3-2.79a2.73,2.73,0,0,1,5.46.2Z"/><path d="M406.91,17.21c0-1.24-.65-1.69-1.58-1.69A1.38,1.38,0,0,0,403.9,17c0,1.1.92,1.49,2.11,1.85a2.86,2.86,0,0,1,2.34,3,2.81,2.81,0,0,1-2.92,2.92,2.9,2.9,0,0,1-3.06-3.11h1.19a1.79,1.79,0,0,0,1.87,2,1.57,1.57,0,0,0,1.66-1.71c0-1.19-.83-1.66-2.14-2.07s-2.3-1-2.3-2.79a2.73,2.73,0,0,1,5.46.2Z"/><path d="M411.72,19.93c0,2,.83,3.64,2.49,3.64a2.23,2.23,0,0,0,2.2-1.94h1.19a3.92,3.92,0,0,1-1.22,2.3,3.28,3.28,0,0,1-2.16.77c-2.7,0-3.75-2.59-3.75-5.11,0-3,1.4-5.15,3.71-5.15a3,3,0,0,1,2.63,1.39,7.12,7.12,0,0,1,.9,4.11Zm4.75-1.06c0-2-.88-3.4-2.36-3.4s-2.36,1.46-2.4,3.4Z"/><path d="M419.44,23.35l4.7-7.54h-4.39V14.67h5.83v1.15l-4.68,7.51h4.84v1.13h-6.3Z"/><path d="M441,11.14h1.21V24.46H441Z"/><path d="M446.21,19.93c0,2,.83,3.64,2.49,3.64a2.23,2.23,0,0,0,2.2-1.94h1.19a3.92,3.92,0,0,1-1.22,2.3,3.28,3.28,0,0,1-2.16.77c-2.7,0-3.75-2.59-3.75-5.11,0-3,1.4-5.15,3.71-5.15a3,3,0,0,1,2.63,1.39,7.12,7.12,0,0,1,.9,4.11ZM451,18.86c0-2-.88-3.4-2.36-3.4s-2.36,1.46-2.4,3.4Z"/><path d="M467.62,11.14h1.21V24.46h-1.21Z"/><path d="M472.84,19.93c0,2,.83,3.64,2.48,3.64a2.23,2.23,0,0,0,2.2-1.94h1.19a3.92,3.92,0,0,1-1.22,2.3,3.28,3.28,0,0,1-2.16.77c-2.7,0-3.74-2.59-3.74-5.11,0-3,1.4-5.15,3.71-5.15a3,3,0,0,1,2.63,1.39,7.13,7.13,0,0,1,.9,4.11Zm4.75-1.06c0-2-.88-3.4-2.36-3.4s-2.36,1.46-2.39,3.4Z"/><path d="M487.83,21.13c-.22,2-1.3,3.57-3.24,3.57-2.61,0-3.78-2.45-3.78-5.11,0-3.21,1.51-5.15,3.73-5.15,2,0,3.15,1.55,3.24,3.62h-1.22c-.2-1.94-1.13-2.48-2.05-2.48a1.9,1.9,0,0,0-1.78,1,5.81,5.81,0,0,0-.63,3c0,2.57.88,4,2.43,4,1.21,0,1.89-1,2.07-2.43Z"/><path d="M490.59,15.8h-1.37V14.67h1.37v-3.1h1.21v3.1h1.35V15.8h-1.35v8.66h-1.21Z"/><path d="M495.88,19.93c0,2,.83,3.64,2.49,3.64a2.23,2.23,0,0,0,2.2-1.94h1.19a3.92,3.92,0,0,1-1.22,2.3,3.27,3.27,0,0,1-2.16.77c-2.7,0-3.75-2.59-3.75-5.11,0-3,1.4-5.15,3.71-5.15A3,3,0,0,1,501,15.82a7.11,7.11,0,0,1,.9,4.11Zm4.75-1.06c0-2-.88-3.4-2.36-3.4s-2.36,1.46-2.4,3.4Z"/><path d="M511,24.46h-1.12c0-.56,0-1.1,0-1.71a2.75,2.75,0,0,1-2.74,1.94c-1.67,0-2.81-1-2.81-3.35V14.67h1.21V21c0,1,.14,2.54,1.87,2.54,1.42,0,2.34-1,2.34-3v-5.8H511Z"/><path d="M514.09,14.67h1.12c0,.9,0,1.46,0,2.05a2.65,2.65,0,0,1,2.61-2.29v1.4a.82.82,0,0,0-.45-.13c-.83,0-2,1-2,3.49v5.26h-1.21Z"/><path d="M532.51,14.67h1.12c0,.74,0,1.28,0,1.87a2.64,2.64,0,0,1,2.58-2.11c2,0,3.29,2,3.29,5.15s-1.22,5.11-3.29,5.11a2.66,2.66,0,0,1-2.5-2c0,.43,0,.94,0,1.78v3.62h-1.21Zm5.76,4.88c0-2.21-.77-3.93-2.29-3.93a1.87,1.87,0,0,0-1.67,1.08,5.18,5.18,0,0,0-.59,2.86,5.26,5.26,0,0,0,.59,2.86A1.87,1.87,0,0,0,536,23.51c1.51,0,2.29-1.71,2.29-3.94Z"/><path d="M548.5,24.46h-1.12c0-.86,0-1.4,0-1.87a2.69,2.69,0,0,1-2.59,2.11c-1.95,0-3.28-2.05-3.28-5.11s1.22-5.15,3.28-5.15a2.64,2.64,0,0,1,2.59,2.12c0-.59,0-1.15,0-1.89h1.12Zm-5.76-4.88c0,2.21.79,3.93,2.29,3.93a1.93,1.93,0,0,0,1.71-1.08,5.46,5.46,0,0,0,.56-2.86,5.38,5.38,0,0,0-.56-2.86A1.93,1.93,0,0,0,545,15.62c-1.49,0-2.29,1.71-2.29,3.94Z"/><path d="M551.59,14.67h1.12c0,.9,0,1.46,0,2.05a2.65,2.65,0,0,1,2.61-2.29v1.4a.81.81,0,0,0-.45-.13c-.83,0-2,1-2,3.49v5.26h-1.21Z"/><path d="M576.59,24.46h-1.12c0-.56,0-1.1,0-1.71a2.75,2.75,0,0,1-2.74,1.94c-1.67,0-2.81-1-2.81-3.35V14.67h1.21V21c0,1,.14,2.54,1.87,2.54,1.42,0,2.34-1,2.34-3v-5.8h1.21Z"/><path d="M579.68,14.67h1.08c0,.56,0,1.06,0,1.67a2.79,2.79,0,0,1,2.77-1.91c1.67,0,2.81,1,2.81,3.35v6.68H585.1v-6.3c0-1-.14-2.54-1.87-2.54-1.42,0-2.34,1-2.34,3v5.8h-1.21Z"/><path d="M590.12,19.93c0,2,.83,3.64,2.48,3.64a2.23,2.23,0,0,0,2.2-1.94H596a3.91,3.91,0,0,1-1.22,2.3,3.27,3.27,0,0,1-2.16.77c-2.7,0-3.75-2.59-3.75-5.11,0-3,1.4-5.15,3.71-5.15a3,3,0,0,1,2.63,1.39,7.12,7.12,0,0,1,.9,4.11Zm4.75-1.06c0-2-.88-3.4-2.36-3.4s-2.36,1.46-2.39,3.4Z"/><path d="M611.38,14.67h1.12c0,.74,0,1.28,0,1.87a2.64,2.64,0,0,1,2.58-2.11c2,0,3.29,2,3.29,5.15s-1.22,5.11-3.29,5.11a2.66,2.66,0,0,1-2.5-2c0,.43,0,.94,0,1.78v3.62h-1.21Zm5.76,4.88c0-2.21-.77-3.93-2.29-3.93a1.87,1.87,0,0,0-1.67,1.08,5.18,5.18,0,0,0-.59,2.86,5.26,5.26,0,0,0,.59,2.86,1.87,1.87,0,0,0,1.67,1.08c1.51,0,2.29-1.71,2.29-3.94Z"/><path d="M620.92,11.14h1.21V14.6c0,.52,0,1,0,1.62a2.54,2.54,0,0,1,2.63-1.78,2.64,2.64,0,0,1,2.11.88,3.91,3.91,0,0,1,.72,2.7v6.45h-1.21V18.38a3.56,3.56,0,0,0-.45-2.12,1.7,1.7,0,0,0-1.42-.63,2,2,0,0,0-1.73.79,3.67,3.67,0,0,0-.61,2.48v5.56h-1.21Z"/><path d="M630.59,14.67h1.12c0,.9,0,1.46,0,2.05a2.66,2.66,0,0,1,2.61-2.29v1.4a.81.81,0,0,0-.45-.13c-.83,0-2,1-2,3.49v5.26h-1.21Z"/><path d="M642.52,24.46h-1.12c0-.86,0-1.4,0-1.87a2.69,2.69,0,0,1-2.59,2.11c-1.95,0-3.28-2.05-3.28-5.11s1.22-5.15,3.28-5.15a2.64,2.64,0,0,1,2.59,2.12c0-.59,0-1.15,0-1.89h1.12Zm-5.76-4.88c0,2.21.79,3.93,2.29,3.93a1.93,1.93,0,0,0,1.71-1.08,5.46,5.46,0,0,0,.56-2.86,5.38,5.38,0,0,0-.56-2.86A1.93,1.93,0,0,0,639,15.62c-1.49,0-2.29,1.71-2.29,3.94Z"/><path d="M649.56,17.21c0-1.24-.65-1.69-1.58-1.69A1.38,1.38,0,0,0,646.56,17c0,1.1.92,1.49,2.11,1.85a2.86,2.86,0,0,1,2.34,3,2.81,2.81,0,0,1-2.92,2.92A2.9,2.9,0,0,1,645,21.58h1.19a1.79,1.79,0,0,0,1.87,2,1.57,1.57,0,0,0,1.66-1.71c0-1.19-.83-1.66-2.14-2.07s-2.3-1-2.3-2.79a2.73,2.73,0,0,1,5.46.2Z"/><path d="M654.37,19.93c0,2,.83,3.64,2.49,3.64a2.23,2.23,0,0,0,2.2-1.94h1.19a3.92,3.92,0,0,1-1.22,2.3,3.27,3.27,0,0,1-2.16.77c-2.7,0-3.75-2.59-3.75-5.11,0-3,1.4-5.15,3.71-5.15a3,3,0,0,1,2.63,1.39,7.11,7.11,0,0,1,.9,4.11Zm4.75-1.06c0-2-.88-3.4-2.36-3.4s-2.36,1.46-2.4,3.4Z"/><path d="M16.18,46.06H15.06c0-.9,0-1.44,0-1.94a2.67,2.67,0,0,1-2.59,2.18c-1.95,0-3.28-2.05-3.28-5.11S10.43,36,12.48,36A2.58,2.58,0,0,1,15,38.11c0-.58,0-1.12,0-1.84V32.74h1.21Zm-5.76-4.9c0,2.21.79,3.93,2.29,3.93A1.92,1.92,0,0,0,14.41,44,5.42,5.42,0,0,0,15,41.15a5.42,5.42,0,0,0-.56-2.86,1.94,1.94,0,0,0-1.71-1.06c-1.49,0-2.29,1.69-2.29,3.93Z"/><path d="M20.4,32.74h1.31l-1.42,3.4H19.13Z"/><path d="M31.06,46.06H29.95c0-.86,0-1.4,0-1.87a2.69,2.69,0,0,1-2.59,2.11c-1.94,0-3.28-2.05-3.28-5.11S25.32,36,27.37,36A2.64,2.64,0,0,1,30,38.16c0-.59,0-1.15,0-1.89h1.12ZM25.3,41.18c0,2.21.79,3.93,2.29,3.93A1.93,1.93,0,0,0,29.3,44a5.46,5.46,0,0,0,.56-2.86,5.38,5.38,0,0,0-.56-2.86,1.93,1.93,0,0,0-1.71-1.08c-1.49,0-2.29,1.71-2.29,3.94Z"/><path d="M40.6,42.73c-.22,2-1.3,3.57-3.24,3.57-2.61,0-3.78-2.45-3.78-5.11C33.58,38,35.09,36,37.31,36c2,0,3.15,1.55,3.24,3.62H39.32c-.2-1.94-1.13-2.48-2.05-2.48a1.9,1.9,0,0,0-1.78,1,5.81,5.81,0,0,0-.63,3c0,2.57.88,4,2.43,4,1.21,0,1.89-1,2.07-2.43Z"/><path d="M49.33,42.73c-.22,2-1.3,3.57-3.24,3.57-2.61,0-3.78-2.45-3.78-5.11C42.31,38,43.82,36,46,36c2,0,3.15,1.55,3.24,3.62H48.05c-.2-1.94-1.13-2.48-2.05-2.48a1.9,1.9,0,0,0-1.78,1,5.81,5.81,0,0,0-.63,3c0,2.57.88,4,2.43,4,1.21,0,1.89-1,2.07-2.43Z"/><path d="M51.62,36.27h1.12c0,.9,0,1.46,0,2.05A2.65,2.65,0,0,1,55.31,36v1.4a.81.81,0,0,0-.45-.13c-.83,0-2,1-2,3.49v5.26H51.62Z"/><path d="M56.58,41.15c0-2.79,1.15-5.11,3.78-5.11s3.76,2.32,3.76,5.13S63,46.3,60.36,46.3,56.58,44,56.58,41.17Zm1.26,0c0,2.59.85,4,2.54,4s2.49-1.39,2.49-4-.85-4-2.52-4-2.5,1.39-2.5,4Z"/><path d="M73.15,42.73c-.22,2-1.3,3.57-3.24,3.57-2.61,0-3.78-2.45-3.78-5.11C66.12,38,67.64,36,69.85,36c2,0,3.15,1.55,3.24,3.62H71.87c-.2-1.94-1.13-2.48-2.05-2.48a1.9,1.9,0,0,0-1.78,1,5.8,5.8,0,0,0-.63,3c0,2.57.88,4,2.43,4,1.21,0,1.89-1,2.07-2.43Z"/><path d="M75.43,32.74h1.21V36.2c0,.52,0,1,0,1.62A2.54,2.54,0,0,1,79.23,36a2.64,2.64,0,0,1,2.11.88,3.91,3.91,0,0,1,.72,2.7v6.45H80.85V40a3.56,3.56,0,0,0-.45-2.12A1.7,1.7,0,0,0,79,37.22a2,2,0,0,0-1.73.79,3.67,3.67,0,0,0-.61,2.48v5.56H75.43Z"/><path d="M85.87,41.53c0,2,.83,3.64,2.49,3.64a2.23,2.23,0,0,0,2.2-1.94h1.19a3.92,3.92,0,0,1-1.22,2.3,3.27,3.27,0,0,1-2.16.77c-2.7,0-3.75-2.59-3.75-5.11,0-3,1.4-5.15,3.71-5.15a3,3,0,0,1,2.63,1.39,7.11,7.11,0,0,1,.9,4.11Zm4.75-1.06c0-2-.88-3.4-2.36-3.4s-2.36,1.46-2.4,3.4Z"/><path d="M95.88,46.06H94.65V44.15h1.22Z"/><path d="M105.78,32.74h2.54c2,0,2.79.34,3.29.79A4,4,0,0,1,113,36.75a4.53,4.53,0,0,1-.59,2.41,3.23,3.23,0,0,1-2.3,1.53l2.67,5.37h-1.51l-3-6.19a3.91,3.91,0,0,0,.47,0,2.94,2.94,0,0,0,2.09-.72,3,3,0,0,0,.77-2.25,3,3,0,0,0-1-2.45,4,4,0,0,0-2.32-.45h-1.15V46.06h-1.35Z"/><path d="M116.29,41.53c0,2,.83,3.64,2.49,3.64a2.23,2.23,0,0,0,2.2-1.94h1.19a3.92,3.92,0,0,1-1.22,2.3,3.28,3.28,0,0,1-2.16.77c-2.7,0-3.75-2.59-3.75-5.11,0-3,1.4-5.15,3.71-5.15a3,3,0,0,1,2.63,1.39,7.12,7.12,0,0,1,.9,4.11ZM121,40.46c0-2-.88-3.4-2.36-3.4s-2.36,1.46-2.4,3.4Z"/><path d="M124.84,36.27h1.08c0,.56,0,1.06,0,1.67A2.79,2.79,0,0,1,128.66,36c1.67,0,2.81,1,2.81,3.35v6.68h-1.21v-6.3c0-1-.14-2.54-1.87-2.54-1.42,0-2.34,1-2.34,3v5.8h-1.21Z"/><path d="M138.45,38.81c0-1.24-.65-1.69-1.58-1.69a1.38,1.38,0,0,0-1.42,1.46c0,1.1.92,1.49,2.11,1.85a2.86,2.86,0,0,1,2.34,3A2.81,2.81,0,0,1,137,46.3a2.9,2.9,0,0,1-3.06-3.11h1.19a1.79,1.79,0,0,0,1.87,2,1.57,1.57,0,0,0,1.66-1.71c0-1.19-.83-1.66-2.14-2.07s-2.3-1-2.3-2.79a2.73,2.73,0,0,1,5.46.2Z"/><path d="M143.26,41.53c0,2,.83,3.64,2.49,3.64a2.23,2.23,0,0,0,2.2-1.94h1.19a3.92,3.92,0,0,1-1.22,2.3,3.27,3.27,0,0,1-2.16.77c-2.7,0-3.75-2.59-3.75-5.11,0-3,1.4-5.15,3.71-5.15a3,3,0,0,1,2.63,1.39,7.11,7.11,0,0,1,.9,4.11ZM148,40.46c0-2-.88-3.4-2.36-3.4s-2.36,1.46-2.4,3.4Z"/><path d="M152,32.74h1.21V34.5H152Zm0,3.53h1.21v9.79H152Z"/><path d="M162.84,45.88a4.3,4.3,0,0,1-.83,2.94,3.27,3.27,0,0,1-2.63,1.08,3.2,3.2,0,0,1-3.29-3.08h1.22a2.12,2.12,0,0,0,.56,1.37,2.17,2.17,0,0,0,1.57.59c1,0,2.21-.47,2.21-2.81,0-.47,0-1.1,0-1.75a2.55,2.55,0,0,1-2.52,2.07c-2.11,0-3.28-2.12-3.28-5.11S157,36,159.15,36c1.15,0,2.05.54,2.65,2.12,0-.59,0-1.15,0-1.89h1.06Zm-5.76-4.7c0,2.21.79,3.93,2.29,3.93A1.92,1.92,0,0,0,161.08,44a5.46,5.46,0,0,0,.56-2.86,5.38,5.38,0,0,0-.56-2.86,1.92,1.92,0,0,0-1.71-1.08c-1.49,0-2.29,1.71-2.29,3.94Z"/><path d="M165.94,36.27H167c0,.56,0,1.06,0,1.67A2.79,2.79,0,0,1,169.75,36c1.67,0,2.81,1,2.81,3.35v6.68h-1.21v-6.3c0-1-.14-2.54-1.87-2.54-1.42,0-2.34,1-2.34,3v5.8h-1.21Z"/><path d="M176.38,41.53c0,2,.83,3.64,2.48,3.64a2.23,2.23,0,0,0,2.2-1.94h1.19a3.92,3.92,0,0,1-1.22,2.3,3.28,3.28,0,0,1-2.16.77c-2.7,0-3.74-2.59-3.74-5.11,0-3,1.4-5.15,3.71-5.15a3,3,0,0,1,2.63,1.39,7.13,7.13,0,0,1,.9,4.11Zm4.75-1.06c0-2-.88-3.4-2.36-3.4s-2.36,1.46-2.39,3.4Z"/><path d="M184.1,44.95l4.7-7.54H184.4V36.27h5.83v1.15l-4.68,7.51h4.84v1.13h-6.3Z"/><path d="M195.87,40.43v1.21h-3.82V40.43Z"/><path d="M201.22,46.06H200l-3-9.79h1.22l2.32,8.17,2.25-8.17h1.21Z"/><path d="M205.34,41.15c0-2.79,1.15-5.11,3.78-5.11s3.76,2.32,3.76,5.13-1.15,5.13-3.76,5.13-3.78-2.32-3.78-5.13Zm1.26,0c0,2.59.85,4,2.54,4s2.48-1.39,2.48-4-.85-4-2.52-4-2.5,1.39-2.5,4Z"/><path d="M222,46.06h-1.12c0-.56,0-1.1,0-1.71a2.75,2.75,0,0,1-2.74,1.94c-1.67,0-2.81-1-2.81-3.35V36.27h1.21v6.3c0,1,.14,2.54,1.87,2.54,1.42,0,2.34-1,2.34-3v-5.8H222Z"/><path d="M229.06,38.81c0-1.24-.65-1.69-1.58-1.69a1.38,1.38,0,0,0-1.42,1.46c0,1.1.92,1.49,2.11,1.85a2.86,2.86,0,0,1,2.34,3,2.81,2.81,0,0,1-2.92,2.92,2.89,2.89,0,0,1-3.06-3.11h1.19a1.8,1.8,0,0,0,1.87,2,1.57,1.57,0,0,0,1.66-1.71c0-1.19-.83-1.66-2.14-2.07s-2.3-1-2.3-2.79a2.73,2.73,0,0,1,5.46.2Z"/><path d="M245.13,38.81c0-1.24-.65-1.69-1.58-1.69a1.38,1.38,0,0,0-1.42,1.46c0,1.1.92,1.49,2.11,1.85a2.86,2.86,0,0,1,2.34,3,2.81,2.81,0,0,1-2.92,2.92,2.9,2.9,0,0,1-3.06-3.11h1.19a1.79,1.79,0,0,0,1.87,2,1.57,1.57,0,0,0,1.66-1.71c0-1.19-.83-1.66-2.14-2.07s-2.3-1-2.3-2.79a2.73,2.73,0,0,1,5.46.2Z"/><path d="M255.73,46.06h-1.12c0-.56,0-1.1,0-1.71a2.75,2.75,0,0,1-2.74,1.94c-1.67,0-2.81-1-2.81-3.35V36.27h1.21v6.3c0,1,.14,2.54,1.87,2.54,1.42,0,2.34-1,2.34-3v-5.8h1.21Z"/><path d="M258.82,36.27h1.12c0,.9,0,1.46,0,2.05A2.65,2.65,0,0,1,262.51,36v1.4a.81.81,0,0,0-.45-.13c-.83,0-2,1-2,3.49v5.26h-1.21Z"/><path d="M272.76,32.74H274V46.06h-1.21Z"/><path d="M278.34,32.74h1.31l-1.42,3.4h-1.17Z"/><path d="M283.32,41.53c0,2,.83,3.64,2.48,3.64a2.23,2.23,0,0,0,2.2-1.94h1.19a3.92,3.92,0,0,1-1.22,2.3,3.28,3.28,0,0,1-2.16.77c-2.7,0-3.74-2.59-3.74-5.11,0-3,1.4-5.15,3.71-5.15a3,3,0,0,1,2.63,1.39,7.13,7.13,0,0,1,.9,4.11Zm4.75-1.06c0-2-.88-3.4-2.36-3.4s-2.36,1.46-2.39,3.4Z"/><path d="M291.88,36.27H293c0,.56,0,1.06,0,1.67A2.79,2.79,0,0,1,295.69,36c1.67,0,2.81,1,2.81,3.35v6.68h-1.21v-6.3c0-1-.14-2.54-1.87-2.54-1.42,0-2.34,1-2.34,3v5.8h-1.21Z"/><path d="M302,37.4h-1.37V36.27H302v-3.1h1.21v3.1h1.35V37.4h-1.35v8.66H302Z"/><path d="M306.76,36.27h1.12c0,.9,0,1.46,0,2.05A2.66,2.66,0,0,1,310.45,36v1.4a.81.81,0,0,0-.45-.13c-.83,0-2,1-2,3.49v5.26h-1.21Z"/><path d="M313,41.53c0,2,.83,3.64,2.49,3.64a2.23,2.23,0,0,0,2.2-1.94h1.19a3.92,3.92,0,0,1-1.22,2.3,3.27,3.27,0,0,1-2.16.77c-2.7,0-3.75-2.59-3.75-5.11,0-3,1.4-5.15,3.71-5.15a3,3,0,0,1,2.63,1.39,7.11,7.11,0,0,1,.9,4.11Zm4.75-1.06c0-2-.88-3.4-2.36-3.4s-2.36,1.46-2.4,3.4Z"/><path d="M321.57,36.27h1.12c0,.74,0,1.28,0,1.87A2.64,2.64,0,0,1,325.25,36c2,0,3.29,2,3.29,5.15s-1.22,5.11-3.29,5.11a2.66,2.66,0,0,1-2.5-2c0,.43,0,.94,0,1.78v3.62h-1.21Zm5.76,4.88c0-2.21-.77-3.93-2.29-3.93a1.87,1.87,0,0,0-1.67,1.08,5.18,5.18,0,0,0-.59,2.86,5.26,5.26,0,0,0,.59,2.86A1.87,1.87,0,0,0,325,45.11c1.51,0,2.29-1.71,2.29-3.94Z"/><path d="M331.11,36.27h1.12c0,.9,0,1.46,0,2.05A2.66,2.66,0,0,1,334.81,36v1.4a.81.81,0,0,0-.45-.13c-.83,0-2,1-2,3.49v5.26h-1.21Z"/><path d="M337,32.74h1.21V34.5H337Zm0,3.53h1.21v9.79H337Z"/><path d="M345.35,38.81c0-1.24-.65-1.69-1.58-1.69a1.38,1.38,0,0,0-1.42,1.46c0,1.1.92,1.49,2.11,1.85a2.86,2.86,0,0,1,2.34,3,2.81,2.81,0,0,1-2.92,2.92,2.89,2.89,0,0,1-3.06-3.11H342a1.8,1.8,0,0,0,1.87,2,1.57,1.57,0,0,0,1.66-1.71c0-1.19-.83-1.66-2.14-2.07s-2.3-1-2.3-2.79a2.73,2.73,0,0,1,5.46.2Z"/><path d="M350.16,41.53c0,2,.83,3.64,2.48,3.64a2.23,2.23,0,0,0,2.2-1.94H356a3.91,3.91,0,0,1-1.22,2.3,3.27,3.27,0,0,1-2.16.77c-2.7,0-3.75-2.59-3.75-5.11,0-3,1.4-5.15,3.71-5.15a3,3,0,0,1,2.63,1.39,7.12,7.12,0,0,1,.9,4.11Zm4.75-1.06c0-2-.88-3.4-2.36-3.4s-2.36,1.46-2.39,3.4Z"/><path d="M367.57,41.53c0,2,.83,3.64,2.49,3.64a2.23,2.23,0,0,0,2.2-1.94h1.19a3.92,3.92,0,0,1-1.22,2.3,3.28,3.28,0,0,1-2.16.77c-2.7,0-3.75-2.59-3.75-5.11,0-3,1.4-5.15,3.71-5.15a3,3,0,0,1,2.63,1.39,7.12,7.12,0,0,1,.9,4.11Zm4.75-1.06c0-2-.88-3.4-2.36-3.4s-2.36,1.46-2.4,3.4Z"/><path d="M376.59,37.4h-1.37V36.27h1.37v-3.1h1.21v3.1h1.35V37.4h-1.35v8.66h-1.21Z"/><path d="M389.46,36.27h1.15c0,.5,0,1,0,1.6A2.42,2.42,0,0,1,393.06,36a2.32,2.32,0,0,1,1.71.67,2.29,2.29,0,0,1,.54,1.17,2.69,2.69,0,0,1,.81-1.24,3,3,0,0,1,1.8-.59,2.52,2.52,0,0,1,2.29,1.26,5.9,5.9,0,0,1,.45,2.68v6.09h-1.21v-6a5.93,5.93,0,0,0-.2-1.82,1.5,1.5,0,0,0-1.5-1,1.79,1.79,0,0,0-1.58.79,3.83,3.83,0,0,0-.52,2.14v5.91h-1.21V40.12a5.84,5.84,0,0,0-.2-1.87,1.48,1.48,0,0,0-1.48-1,1.85,1.85,0,0,0-1.58.76,3.85,3.85,0,0,0-.52,2.21v5.87h-1.21Z"/><path d="M404.51,41.53c0,2,.83,3.64,2.48,3.64a2.23,2.23,0,0,0,2.2-1.94h1.19a3.92,3.92,0,0,1-1.22,2.3,3.28,3.28,0,0,1-2.16.77c-2.7,0-3.74-2.59-3.74-5.11,0-3,1.4-5.15,3.71-5.15a3,3,0,0,1,2.63,1.39,7.13,7.13,0,0,1,.9,4.11Zm4.75-1.06c0-2-.88-3.4-2.36-3.4s-2.36,1.46-2.39,3.4Z"/><path d="M413.06,36.27h1.08c0,.56,0,1.06,0,1.67A2.79,2.79,0,0,1,416.88,36c1.67,0,2.81,1,2.81,3.35v6.68h-1.21v-6.3c0-1-.14-2.54-1.87-2.54-1.42,0-2.34,1-2.34,3v5.8h-1.21Z"/><path d="M423.19,37.4h-1.37V36.27h1.37v-3.1h1.21v3.1h1.35V37.4H424.4v8.66h-1.21Z"/><path d="M428.09,32.74h1.21V34.5h-1.21Zm0,3.53h1.21v9.79h-1.21Z"/><path d="M432,41.15c0-2.79,1.15-5.11,3.78-5.11s3.76,2.32,3.76,5.13-1.15,5.13-3.76,5.13S432,44,432,41.17Zm1.26,0c0,2.59.85,4,2.54,4s2.48-1.39,2.48-4-.85-4-2.52-4-2.5,1.39-2.5,4Z"/><path d="M442.13,36.27h1.08c0,.56,0,1.06,0,1.67A2.79,2.79,0,0,1,445.95,36c1.67,0,2.81,1,2.81,3.35v6.68h-1.21v-6.3c0-1-.14-2.54-1.87-2.54-1.42,0-2.34,1-2.34,3v5.8h-1.21Z"/><path d="M451.8,36.27h1.08c0,.56,0,1.06,0,1.67A2.79,2.79,0,0,1,455.61,36c1.67,0,2.81,1,2.81,3.35v6.68h-1.21v-6.3c0-1-.14-2.54-1.87-2.54-1.42,0-2.34,1-2.34,3v5.8H451.8Z"/><path d="M462.24,41.53c0,2,.83,3.64,2.49,3.64a2.23,2.23,0,0,0,2.2-1.94h1.19a3.92,3.92,0,0,1-1.22,2.3,3.27,3.27,0,0,1-2.16.77c-2.7,0-3.75-2.59-3.75-5.11,0-3,1.4-5.15,3.71-5.15a3,3,0,0,1,2.63,1.39,7.11,7.11,0,0,1,.9,4.11ZM467,40.46c0-2-.88-3.4-2.36-3.4s-2.36,1.46-2.4,3.4Z"/><path d="M470,44.95l4.7-7.54h-4.39V36.27h5.83v1.15l-4.68,7.51h4.84v1.13H470Z"/><path d="M493.18,46.06h-1.12c0-.9,0-1.44,0-1.94a2.67,2.67,0,0,1-2.59,2.18c-1.94,0-3.28-2.05-3.28-5.11S487.44,36,489.49,36A2.57,2.57,0,0,1,492,38.11c0-.58,0-1.12,0-1.84V32.74h1.21Zm-5.76-4.9c0,2.21.79,3.93,2.29,3.93A1.93,1.93,0,0,0,491.42,44a5.42,5.42,0,0,0,.56-2.86,5.42,5.42,0,0,0-.56-2.86,1.94,1.94,0,0,0-1.71-1.06c-1.49,0-2.29,1.69-2.29,3.93Z"/><path d="M497.05,41.53c0,2,.83,3.64,2.49,3.64a2.23,2.23,0,0,0,2.2-1.94h1.19a3.92,3.92,0,0,1-1.22,2.3,3.27,3.27,0,0,1-2.16.77c-2.7,0-3.75-2.59-3.75-5.11,0-3,1.4-5.15,3.71-5.15a3,3,0,0,1,2.63,1.39,7.11,7.11,0,0,1,.9,4.11Zm4.75-1.06c0-2-.88-3.4-2.36-3.4s-2.36,1.46-2.4,3.4Z"/><path d="M509.55,38.81c0-1.24-.65-1.69-1.58-1.69a1.38,1.38,0,0,0-1.42,1.46c0,1.1.92,1.49,2.11,1.85a2.86,2.86,0,0,1,2.34,3,2.81,2.81,0,0,1-2.92,2.92A2.9,2.9,0,0,1,505,43.18h1.19a1.79,1.79,0,0,0,1.87,2,1.57,1.57,0,0,0,1.66-1.71c0-1.19-.83-1.66-2.14-2.07s-2.3-1-2.3-2.79a2.73,2.73,0,0,1,5.46.2Z"/><path d="M521.66,36.27h1.12c0,.74,0,1.28,0,1.87A2.64,2.64,0,0,1,525.34,36c2,0,3.29,2,3.29,5.15s-1.22,5.11-3.29,5.11a2.66,2.66,0,0,1-2.5-2c0,.43,0,.94,0,1.78v3.62h-1.21Zm5.76,4.88c0-2.21-.77-3.93-2.29-3.93a1.87,1.87,0,0,0-1.67,1.08,5.19,5.19,0,0,0-.59,2.86,5.27,5.27,0,0,0,.59,2.86,1.87,1.87,0,0,0,1.67,1.08c1.51,0,2.29-1.71,2.29-3.94Z"/><path d="M530.68,41.15c0-2.79,1.15-5.11,3.78-5.11s3.76,2.32,3.76,5.13-1.15,5.13-3.76,5.13-3.78-2.32-3.78-5.13Zm1.26,0c0,2.59.85,4,2.54,4s2.49-1.39,2.49-4-.85-4-2.52-4-2.5,1.39-2.5,4Z"/><path d="M540.94,32.74h1.21V34.5h-1.21Zm0,3.53h1.21v9.79h-1.21Z"/><path d="M545.39,36.27h1.08c0,.56,0,1.06,0,1.67A2.79,2.79,0,0,1,549.2,36c1.68,0,2.81,1,2.81,3.35v6.68h-1.21v-6.3c0-1-.14-2.54-1.87-2.54-1.42,0-2.34,1-2.34,3v5.8h-1.21Z"/><path d="M555.52,37.4h-1.37V36.27h1.37v-3.1h1.21v3.1h1.35V37.4h-1.35v8.66h-1.21Z"/><path d="M564.22,38.81c0-1.24-.65-1.69-1.58-1.69a1.38,1.38,0,0,0-1.42,1.46c0,1.1.92,1.49,2.11,1.85a2.86,2.86,0,0,1,2.34,3,2.81,2.81,0,0,1-2.92,2.92,2.9,2.9,0,0,1-3.06-3.11h1.19a1.79,1.79,0,0,0,1.87,2,1.57,1.57,0,0,0,1.66-1.71c0-1.19-.83-1.66-2.14-2.07s-2.3-1-2.3-2.79a2.73,2.73,0,0,1,5.46.2Z"/><path d="M576.33,36.27h1.12c0,.74,0,1.28,0,1.87A2.63,2.63,0,0,1,580,36c2,0,3.29,2,3.29,5.15S582.08,46.3,580,46.3a2.66,2.66,0,0,1-2.5-2c0,.43,0,.94,0,1.78v3.62h-1.21Zm5.76,4.88c0-2.21-.78-3.93-2.29-3.93a1.87,1.87,0,0,0-1.67,1.08,5.18,5.18,0,0,0-.59,2.86,5.26,5.26,0,0,0,.59,2.86,1.87,1.87,0,0,0,1.67,1.08c1.51,0,2.29-1.71,2.29-3.94Z"/><path d="M585.35,41.15c0-2.79,1.15-5.11,3.78-5.11s3.76,2.32,3.76,5.13-1.15,5.13-3.76,5.13-3.78-2.32-3.78-5.13Zm1.26,0c0,2.59.85,4,2.54,4s2.48-1.39,2.48-4-.85-4-2.52-4-2.5,1.39-2.5,4Z"/><path d="M599.41,38.81c0-1.24-.65-1.69-1.58-1.69a1.38,1.38,0,0,0-1.42,1.46c0,1.1.92,1.49,2.11,1.85a2.86,2.86,0,0,1,2.34,3,2.81,2.81,0,0,1-2.92,2.92,2.9,2.9,0,0,1-3.06-3.11h1.19a1.79,1.79,0,0,0,1.87,2,1.57,1.57,0,0,0,1.66-1.71c0-1.19-.83-1.66-2.14-2.07s-2.3-1-2.3-2.79a2.73,2.73,0,0,1,5.46.2Z"/><path d="M603.59,32.74h1.21V34.5h-1.21Zm0,3.53h1.21v9.79h-1.21Z"/><path d="M608.5,37.4h-1.37V36.27h1.37v-3.1h1.21v3.1h1.35V37.4h-1.35v8.66H608.5Z"/><path d="M613.4,32.74h1.21V34.5H613.4Zm0,3.53h1.21v9.79H613.4Z"/><path d="M618.09,37.4H617V36.27h1.1v-.74a2.71,2.71,0,0,1,2.92-3v1.06c-.9.05-1.71.49-1.71,2.07v.63H621V37.4H619.3v8.66h-1.21Z"/><path d="M627,38.81c0-1.24-.65-1.69-1.58-1.69A1.38,1.38,0,0,0,624,38.57c0,1.1.92,1.49,2.11,1.85a2.86,2.86,0,0,1,2.34,3,2.81,2.81,0,0,1-2.92,2.92,2.9,2.9,0,0,1-3.06-3.11h1.19a1.79,1.79,0,0,0,1.87,2,1.57,1.57,0,0,0,1.66-1.71c0-1.19-.83-1.66-2.14-2.07s-2.3-1-2.3-2.79a2.73,2.73,0,0,1,5.46.2Z"/><path d="M645.57,49.68h-1.21V46.06c0-.86,0-1.37,0-1.84a2.63,2.63,0,0,1-2.52,2.07c-2.05,0-3.28-2.12-3.28-5.11S639.93,36,641.88,36a2.58,2.58,0,0,1,2.56,2.11c0-.59,0-1.13,0-1.87h1.15Zm-5.76-8.5c0,2.21.79,3.93,2.29,3.93A1.92,1.92,0,0,0,643.8,44a5.46,5.46,0,0,0,.56-2.86,5.38,5.38,0,0,0-.56-2.86,1.92,1.92,0,0,0-1.71-1.08c-1.49,0-2.29,1.71-2.29,3.94Z"/><path d="M655.23,46.06h-1.12c0-.56,0-1.1,0-1.71a2.75,2.75,0,0,1-2.74,1.94c-1.67,0-2.81-1-2.81-3.35V36.27h1.21v6.3c0,1,.14,2.54,1.87,2.54,1.42,0,2.34-1,2.34-3v-5.8h1.21Z"/><path d="M658.47,32.74h1.21V34.5h-1.21Zm0,3.53h1.21v9.79h-1.21Z"/><path d="M10.5,63.13c0,2,.83,3.64,2.48,3.64a2.23,2.23,0,0,0,2.2-1.94h1.19a3.91,3.91,0,0,1-1.22,2.3A3.27,3.27,0,0,1,13,67.9c-2.7,0-3.75-2.59-3.75-5.11,0-3,1.4-5.15,3.71-5.15A3,3,0,0,1,15.58,59a7.12,7.12,0,0,1,.9,4.11Zm4.75-1.06c0-2-.88-3.4-2.36-3.4s-2.36,1.46-2.39,3.4Z"/><path d="M20.39,62.68l-2.52-4.81h1.37l1.87,3.85L23,57.87h1.35l-2.54,4.81,2.67,5H23.09l-2-4-2,4H17.76Z"/><path d="M26.47,57.87h1.12c0,.74,0,1.28,0,1.87a2.63,2.63,0,0,1,2.57-2.11c2,0,3.29,2,3.29,5.15s-1.22,5.11-3.29,5.11a2.66,2.66,0,0,1-2.5-2c0,.43,0,.94,0,1.78v3.62H26.47Zm5.76,4.88c0-2.21-.77-3.93-2.29-3.93a1.88,1.88,0,0,0-1.68,1.08,5.19,5.19,0,0,0-.59,2.86,5.27,5.27,0,0,0,.59,2.86,1.88,1.88,0,0,0,1.68,1.08c1.51,0,2.29-1.71,2.29-3.94Z"/><path d="M36,57.87h1.12c0,.9,0,1.46,0,2.05a2.65,2.65,0,0,1,2.61-2.29V59a.82.82,0,0,0-.45-.13c-.83,0-2,1-2,3.49v5.26H36Z"/><path d="M41.86,54.34h1.21V56.1H41.86Zm0,3.53h1.21v9.79H41.86Z"/><path d="M46.34,57.87h1.15c0,.5,0,1,0,1.6a2.42,2.42,0,0,1,2.48-1.84,2.32,2.32,0,0,1,1.71.67,2.28,2.28,0,0,1,.54,1.17A2.67,2.67,0,0,1,53,58.23a3,3,0,0,1,1.8-.59,2.52,2.52,0,0,1,2.29,1.26,5.89,5.89,0,0,1,.45,2.68v6.09H56.33v-6a5.9,5.9,0,0,0-.2-1.82,1.5,1.5,0,0,0-1.49-1,1.79,1.79,0,0,0-1.58.79,3.83,3.83,0,0,0-.52,2.14v5.91H51.33V61.72a5.87,5.87,0,0,0-.2-1.87,1.48,1.48,0,0,0-1.48-1,1.85,1.85,0,0,0-1.58.76,3.85,3.85,0,0,0-.52,2.21v5.87H46.34Z"/><path d="M61.39,63.13c0,2,.83,3.64,2.49,3.64a2.23,2.23,0,0,0,2.2-1.94h1.19A3.92,3.92,0,0,1,66,67.12a3.28,3.28,0,0,1-2.16.77c-2.7,0-3.75-2.59-3.75-5.11,0-3,1.4-5.15,3.71-5.15A3,3,0,0,1,66.47,59a7.12,7.12,0,0,1,.9,4.11Zm4.75-1.06c0-2-.88-3.4-2.36-3.4s-2.36,1.46-2.4,3.4Z"/><path d="M69.94,57.87H71c0,.56,0,1.06,0,1.67a2.79,2.79,0,0,1,2.77-1.91c1.68,0,2.81,1,2.81,3.35v6.68H75.36v-6.3c0-1-.14-2.54-1.87-2.54-1.42,0-2.34,1-2.34,3v5.8H69.94Z"/><path d="M80.07,59H78.71V57.87h1.37v-3.1h1.21v3.1h1.35V59H81.28v8.66H80.07Z"/><path d="M92.87,67.66H91.67l-3-9.79h1.22L92.26,66l2.25-8.17h1.21Z"/><path d="M97,62.75c0-2.79,1.15-5.11,3.78-5.11s3.76,2.32,3.76,5.13-1.15,5.13-3.76,5.13S97,65.57,97,62.77Zm1.26,0c0,2.59.85,4,2.54,4s2.49-1.39,2.49-4-.85-4-2.52-4-2.5,1.39-2.5,4Z"/><path d="M107.58,59h-1.37V57.87h1.37v-3.1h1.21v3.1h1.35V59h-1.35v8.66h-1.21Z"/><path d="M112.33,57.87h1.12c0,.9,0,1.46,0,2.05A2.66,2.66,0,0,1,116,57.63V59a.81.81,0,0,0-.45-.13c-.83,0-2,1-2,3.49v5.26h-1.21Z"/><path d="M118.59,63.13c0,2,.83,3.64,2.48,3.64a2.23,2.23,0,0,0,2.2-1.94h1.19a3.91,3.91,0,0,1-1.22,2.3,3.27,3.27,0,0,1-2.16.77c-2.7,0-3.75-2.59-3.75-5.11,0-3,1.4-5.15,3.71-5.15A3,3,0,0,1,123.67,59a7.12,7.12,0,0,1,.9,4.11Zm4.75-1.06c0-2-.88-3.4-2.36-3.4s-2.36,1.46-2.39,3.4Z"/><path d="M132.24,57.87h1.15c0,.5,0,1,0,1.6a2.42,2.42,0,0,1,2.48-1.84,2.32,2.32,0,0,1,1.71.67,2.29,2.29,0,0,1,.54,1.17,2.69,2.69,0,0,1,.81-1.24,3,3,0,0,1,1.8-.59A2.52,2.52,0,0,1,143,58.89a5.9,5.9,0,0,1,.45,2.68v6.09h-1.21v-6a5.93,5.93,0,0,0-.2-1.82,1.5,1.5,0,0,0-1.5-1,1.79,1.79,0,0,0-1.58.79,3.83,3.83,0,0,0-.52,2.14v5.91h-1.21V61.72a5.84,5.84,0,0,0-.2-1.87,1.48,1.48,0,0,0-1.48-1,1.85,1.85,0,0,0-1.58.76,3.85,3.85,0,0,0-.52,2.21v5.87h-1.21Z"/><path d="M146,62.75c0-2.79,1.15-5.11,3.78-5.11s3.76,2.32,3.76,5.13-1.15,5.13-3.76,5.13S146,65.57,146,62.77Zm1.26,0c0,2.59.85,4,2.54,4s2.49-1.39,2.49-4-.85-4-2.52-4-2.5,1.39-2.5,4Z"/><path d="M156.57,59h-1.37V57.87h1.37v-3.1h1.21v3.1h1.35V59h-1.35v8.66h-1.21Z"/><path d="M161.47,54.34h1.21V56.1h-1.21Zm0,3.53h1.21v9.79h-1.21Z"/><path d="M168.9,67.66H167.7l-3-9.79H166L168.29,66l2.25-8.17h1.21Z"/><path d="M180,67.66h-1.12c0-.86,0-1.4,0-1.87a2.69,2.69,0,0,1-2.59,2.11c-1.95,0-3.28-2.05-3.28-5.11s1.22-5.15,3.28-5.15a2.64,2.64,0,0,1,2.59,2.12c0-.59,0-1.15,0-1.89H180Zm-5.76-4.88c0,2.21.79,3.93,2.29,3.93a1.92,1.92,0,0,0,1.71-1.08,5.46,5.46,0,0,0,.56-2.86,5.38,5.38,0,0,0-.56-2.86,1.92,1.92,0,0,0-1.71-1.08c-1.49,0-2.29,1.71-2.29,3.94Z"/><path d="M183.56,59h-1.37V57.87h1.37v-3.1h1.21v3.1h1.35V59h-1.35v8.66h-1.21Z"/><path d="M188.45,54.34h1.21V56.1h-1.21Zm0,3.53h1.21v9.79h-1.21Z"/><path d="M192.38,62.75c0-2.79,1.15-5.11,3.78-5.11s3.76,2.32,3.76,5.13-1.15,5.13-3.76,5.13-3.78-2.32-3.78-5.13Zm1.26,0c0,2.59.85,4,2.54,4s2.49-1.39,2.49-4-.85-4-2.52-4-2.5,1.39-2.5,4Z"/><path d="M202.49,57.87h1.08c0,.56,0,1.06,0,1.67a2.79,2.79,0,0,1,2.77-1.91c1.67,0,2.81,1,2.81,3.35v6.68h-1.21v-6.3c0-1-.14-2.54-1.87-2.54-1.42,0-2.34,1-2.34,3v5.8h-1.21Z"/><path d="M218,63.13c0,2,.83,3.64,2.49,3.64a2.23,2.23,0,0,0,2.2-1.94h1.19a3.92,3.92,0,0,1-1.22,2.3,3.27,3.27,0,0,1-2.16.77c-2.7,0-3.75-2.59-3.75-5.11,0-3,1.4-5.15,3.71-5.15A3,3,0,0,1,223.07,59a7.11,7.11,0,0,1,.9,4.11Zm4.75-1.06c0-2-.88-3.4-2.36-3.4s-2.36,1.46-2.4,3.4Z"/><path d="M227,59h-1.37V57.87H227v-3.1h1.21v3.1h1.35V59h-1.35v8.66H227Z"/><path d="M239.81,67.66H238.6l-3-9.79h1.22L239.19,66l2.25-8.17h1.21Z"/><path d="M243.93,62.75c0-2.79,1.15-5.11,3.78-5.11s3.76,2.32,3.76,5.13-1.15,5.13-3.76,5.13-3.78-2.32-3.78-5.13Zm1.26,0c0,2.59.85,4,2.54,4s2.49-1.39,2.49-4-.85-4-2.52-4-2.5,1.39-2.5,4Z"/><path d="M254.51,59h-1.37V57.87h1.37v-3.1h1.21v3.1h1.35V59h-1.35v8.66h-1.21Z"/><path d="M259.26,57.87h1.12c0,.9,0,1.46,0,2.05A2.66,2.66,0,0,1,263,57.63V59a.81.81,0,0,0-.45-.13c-.83,0-2,1-2,3.49v5.26h-1.21Z"/><path d="M265.53,63.13c0,2,.83,3.64,2.48,3.64a2.23,2.23,0,0,0,2.2-1.94h1.19a3.91,3.91,0,0,1-1.22,2.3,3.27,3.27,0,0,1-2.16.77c-2.7,0-3.75-2.59-3.75-5.11,0-3,1.4-5.15,3.71-5.15A3,3,0,0,1,270.6,59a7.12,7.12,0,0,1,.9,4.11Zm4.75-1.06c0-2-.88-3.4-2.36-3.4s-2.36,1.46-2.39,3.4Z"/><path d="M282.12,67.66h-1.21l-3-9.79h1.22L281.51,66l2.25-8.17H285Z"/><path d="M286.24,62.75c0-2.79,1.15-5.11,3.78-5.11s3.76,2.32,3.76,5.13S292.64,67.9,290,67.9s-3.78-2.32-3.78-5.13Zm1.26,0c0,2.59.85,4,2.54,4s2.49-1.39,2.49-4-.85-4-2.52-4-2.5,1.39-2.5,4Z"/><path d="M296.51,54.34h1.21V67.66h-1.21Z"/><path d="M300.43,62.75c0-2.79,1.15-5.11,3.78-5.11S308,60,308,62.77s-1.15,5.13-3.76,5.13-3.78-2.32-3.78-5.13Zm1.26,0c0,2.59.85,4,2.54,4s2.48-1.39,2.48-4-.85-4-2.52-4-2.5,1.39-2.5,4Z"/><path d="M310.55,57.87h1.08c0,.56,0,1.06,0,1.67a2.79,2.79,0,0,1,2.77-1.91c1.68,0,2.81,1,2.81,3.35v6.68H316v-6.3c0-1-.14-2.54-1.87-2.54-1.42,0-2.34,1-2.34,3v5.8h-1.21Z"/><path d="M320.68,59h-1.37V57.87h1.37v-3.1h1.21v3.1h1.35V59h-1.35v8.66h-1.21Z"/><path d="M326,63.13c0,2,.83,3.64,2.49,3.64a2.23,2.23,0,0,0,2.2-1.94h1.19a3.92,3.92,0,0,1-1.22,2.3,3.27,3.27,0,0,1-2.16.77c-2.7,0-3.75-2.59-3.75-5.11,0-3,1.4-5.15,3.71-5.15A3,3,0,0,1,331,59a7.11,7.11,0,0,1,.9,4.11Zm4.75-1.06c0-2-.88-3.4-2.36-3.4s-2.36,1.46-2.4,3.4Zm-.38-8.25.5,1-4,2.14-.45-.85Z"/><path d="M346,67.66h-1.12c0-.9,0-1.44,0-1.94a2.67,2.67,0,0,1-2.59,2.18c-1.94,0-3.28-2.05-3.28-5.11s1.22-5.15,3.28-5.15a2.57,2.57,0,0,1,2.52,2.07c0-.58,0-1.12,0-1.84V54.34H346Zm-5.76-4.9c0,2.21.79,3.93,2.29,3.93a1.93,1.93,0,0,0,1.71-1.08,5.42,5.42,0,0,0,.56-2.86,5.42,5.42,0,0,0-.56-2.86,1.94,1.94,0,0,0-1.71-1.06c-1.5,0-2.29,1.69-2.29,3.93Z"/><path d="M349.89,63.13c0,2,.83,3.64,2.49,3.64a2.23,2.23,0,0,0,2.2-1.94h1.19a3.92,3.92,0,0,1-1.22,2.3,3.28,3.28,0,0,1-2.16.77c-2.7,0-3.75-2.59-3.75-5.11,0-3,1.4-5.15,3.71-5.15A3,3,0,0,1,355,59a7.12,7.12,0,0,1,.9,4.11Zm4.75-1.06c0-2-.88-3.4-2.36-3.4s-2.36,1.46-2.4,3.4Z"/><path d="M363.5,57.87h1.12c0,.74,0,1.28,0,1.87a2.63,2.63,0,0,1,2.57-2.11c2,0,3.29,2,3.29,5.15s-1.22,5.11-3.29,5.11a2.66,2.66,0,0,1-2.5-2c0,.43,0,.94,0,1.78v3.62H363.5Zm5.76,4.88c0-2.21-.77-3.93-2.29-3.93a1.88,1.88,0,0,0-1.68,1.08,5.19,5.19,0,0,0-.59,2.86,5.27,5.27,0,0,0,.59,2.86A1.88,1.88,0,0,0,367,66.71c1.51,0,2.29-1.71,2.29-3.94Z"/><path d="M372.52,62.75c0-2.79,1.15-5.11,3.78-5.11s3.76,2.32,3.76,5.13-1.15,5.13-3.76,5.13-3.78-2.32-3.78-5.13Zm1.26,0c0,2.59.85,4,2.54,4s2.48-1.39,2.48-4-.85-4-2.52-4-2.5,1.39-2.5,4Z"/><path d="M386.58,60.41c0-1.24-.65-1.69-1.58-1.69a1.38,1.38,0,0,0-1.42,1.46c0,1.1.92,1.49,2.11,1.85A2.86,2.86,0,0,1,388,65a2.81,2.81,0,0,1-2.92,2.92A2.89,2.89,0,0,1,382,64.78h1.19a1.8,1.8,0,0,0,1.87,2,1.57,1.57,0,0,0,1.66-1.71c0-1.19-.83-1.66-2.14-2.07s-2.3-1-2.3-2.79a2.73,2.73,0,0,1,5.46.2Z"/><path d="M391.08,59h-1.37V57.87h1.37v-3.1h1.21v3.1h1.35V59h-1.35v8.66h-1.21Z"/><path d="M402.4,67.66h-1.12c0-.56,0-1.1,0-1.71a2.75,2.75,0,0,1-2.74,1.94c-1.67,0-2.81-1-2.81-3.35V57.87H397v6.3c0,1,.14,2.54,1.87,2.54,1.42,0,2.34-1,2.34-3v-5.8h1.21Z"/><path d="M405.64,54.34h1.21V67.66h-1.21Z"/><path d="M410.86,63.13c0,2,.83,3.64,2.48,3.64a2.23,2.23,0,0,0,2.2-1.94h1.19a3.91,3.91,0,0,1-1.22,2.3,3.27,3.27,0,0,1-2.16.77c-2.7,0-3.75-2.59-3.75-5.11,0-3,1.4-5.15,3.71-5.15A3,3,0,0,1,415.94,59a7.12,7.12,0,0,1,.9,4.11Zm4.75-1.06c0-2-.88-3.4-2.36-3.4s-2.36,1.46-2.39,3.4Z"/><path d="M419.41,57.87h1.12c0,.9,0,1.46,0,2.05a2.66,2.66,0,0,1,2.61-2.29V59a.81.81,0,0,0-.45-.13c-.83,0-2,1-2,3.49v5.26h-1.21Z"/><path d="M436.62,64.33c-.22,2-1.3,3.57-3.24,3.57-2.61,0-3.78-2.45-3.78-5.11,0-3.21,1.51-5.15,3.73-5.15,2,0,3.15,1.55,3.24,3.62h-1.22c-.2-1.94-1.13-2.48-2.05-2.48a1.9,1.9,0,0,0-1.78,1,5.8,5.8,0,0,0-.63,3c0,2.57.88,4,2.43,4,1.21,0,1.89-1,2.07-2.43Z"/><path d="M438.9,54.34h1.21V57.8c0,.52,0,1,0,1.62a2.54,2.54,0,0,1,2.63-1.78,2.64,2.64,0,0,1,2.11.88,3.91,3.91,0,0,1,.72,2.7v6.45h-1.21V61.58a3.55,3.55,0,0,0-.45-2.12,1.7,1.7,0,0,0-1.42-.63,2,2,0,0,0-1.73.79,3.67,3.67,0,0,0-.61,2.48v5.56H438.9Z"/><path d="M449.34,63.13c0,2,.83,3.64,2.49,3.64a2.23,2.23,0,0,0,2.2-1.94h1.19a3.92,3.92,0,0,1-1.22,2.3,3.28,3.28,0,0,1-2.16.77c-2.7,0-3.75-2.59-3.75-5.11,0-3,1.4-5.15,3.71-5.15A3,3,0,0,1,454.42,59a7.12,7.12,0,0,1,.9,4.11Zm4.75-1.06c0-2-.88-3.4-2.36-3.4s-2.36,1.46-2.4,3.4Z"/><path d="M457.06,66.55l4.7-7.54h-4.39V57.87h5.83V59l-4.68,7.51h4.84v1.13h-6.3Z"/><path d="M471.59,63.13c0,2,.83,3.64,2.48,3.64a2.23,2.23,0,0,0,2.2-1.94h1.19a3.92,3.92,0,0,1-1.22,2.3,3.28,3.28,0,0,1-2.16.77c-2.7,0-3.74-2.59-3.74-5.11,0-3,1.4-5.15,3.71-5.15A3,3,0,0,1,476.67,59a7.13,7.13,0,0,1,.9,4.11Zm4.75-1.06c0-2-.88-3.4-2.36-3.4s-2.36,1.46-2.39,3.4Z"/><path d="M480.28,54.34h1.21V67.66h-1.21Z"/><path d="M484.87,54.34h1.21V67.66h-1.21Z"/><path d="M490.09,63.13c0,2,.83,3.64,2.49,3.64a2.23,2.23,0,0,0,2.2-1.94H496a3.92,3.92,0,0,1-1.22,2.3,3.28,3.28,0,0,1-2.16.77c-2.7,0-3.75-2.59-3.75-5.11,0-3,1.4-5.15,3.71-5.15A3,3,0,0,1,495.17,59a7.12,7.12,0,0,1,.9,4.11Zm4.75-1.06c0-2-.88-3.4-2.36-3.4s-2.36,1.46-2.4,3.4Z"/><path d="M500.1,67.66h-1.22V65.76h1.22Z"/></g></g></g></svg>