<svg xmlns="http://www.w3.org/2000/svg" viewBox="0 0 1920 1080"><defs><style>.cls-1{isolation:isolate;}.cls-2,.cls-7{fill:#fff;}.cls-2{opacity:0.3;}.cls-3{fill:#666;}.cls-4,.cls-5{fill:none;stroke:#fff;stroke-linecap:round;stroke-miterlimit:10;stroke-width:5px;}.cls-5{stroke-dasharray:1 14.96;}.cls-6{fill:#4e96b3;}.cls-8{fill:#464646;opacity:0.7;mix-blend-mode:soft-light;}</style></defs><title>game4d1</title><g class="cls-1"><g id="contenu"><path class="cls-2" d="M1724.3,335.35H195.7a8.8,8.8,0,0,0-8.8,8.8v51.4a8.8,8.8,0,0,0,8.8,8.8H904.42l56.5,36,54.66-36H1724.3a8.8,8.8,0,0,0,8.8-8.8v-51.4A8.8,8.8,0,0,0,1724.3,335.35Z"/><path class="cls-3" d="M225,383.16a9.29,9.29,0,0,1-1.48.16,5.47,5.47,0,0,1-4-1.4,9.81,9.81,0,0,1-5.28,1.4c-7.28,0-10.88-6.08-10.88-15.36s3.6-15.36,10.88-15.36,10.88,6.08,10.88,15.36a23.79,23.79,0,0,1-1.76,9.6,2.51,2.51,0,0,0,1.64,0Zm-10.8-25c-3.08,0-4.6,2.76-4.6,9.76,0,.92,0,1.6.08,2.28a8.62,8.62,0,0,1,3.08-.56,6,6,0,0,1,2.76.6,8.79,8.79,0,0,1,3.12,2.6,31.81,31.81,0,0,0,.24-4.92c0-7-1.52-9.76-4.64-9.76Zm.08,19.52a2.87,2.87,0,0,0,1.84-.52,5.09,5.09,0,0,0-4.56-2.36,3.21,3.21,0,0,0-1.08.2,4,4,0,0,0,3.76,2.68Z"/><path class="cls-3" d="M245.78,382.76h-4.84v-2.4c-.68,1.84-1.84,2.88-4.64,2.88-3.6,0-5.88-2-5.88-6.6V360h5.36v14.84c0,1.56.36,3,2.24,3,1.4,0,2.4-.72,2.4-2.64V360h5.36Z"/><path class="cls-3" d="M256.9,373.32c0,2.24.6,4.88,3,4.88,1.4,0,2.4-.88,2.8-2.8H268c-.44,3.16-1.72,5.2-3.28,6.36a8.32,8.32,0,0,1-4.84,1.48c-6,0-8.76-5.28-8.76-11.84s2.8-11.84,8.76-11.84a7.15,7.15,0,0,1,6.6,3.64c1.68,2.92,1.8,6.64,1.68,10.12Zm5.92-4.56c0-1.36-.2-4.8-2.84-4.8-1.88,0-3.08,1.6-3.08,4.8Z"/><path class="cls-3" d="M301.7,382.76h-4.88V380.2a4.27,4.27,0,0,1-4.4,3c-4.08,0-7.16-3.68-7.16-11.84,0-7.68,2.52-11.84,7.16-11.84a4,4,0,0,1,4,2.4c0-.64,0-1.28,0-1.92v-6.88h5.36Zm-11.08-11.32c0,5,1.12,6.44,2.92,6.44a2.34,2.34,0,0,0,2.12-1c.68-.84.68-1.92.68-5.48s0-4.64-.68-5.48a2.34,2.34,0,0,0-2.12-1c-1.8,0-2.92,1.44-2.92,6.48Z"/><path class="cls-3" d="M312.82,373.32c0,2.24.6,4.88,3,4.88,1.4,0,2.4-.88,2.8-2.8h5.32c-.44,3.16-1.72,5.2-3.28,6.36a8.32,8.32,0,0,1-4.84,1.48c-6,0-8.76-5.28-8.76-11.84s2.8-11.84,8.76-11.84a7.15,7.15,0,0,1,6.6,3.64c1.68,2.92,1.8,6.64,1.68,10.12Zm5.92-4.56c0-1.36-.2-4.8-2.84-4.8-1.88,0-3.08,1.6-3.08,4.8Z"/><path class="cls-3" d="M338.26,382.76h-4.88L326.82,360h5.44l3.48,14.56,3-14.56h5.44Z"/><path class="cls-3" d="M352.78,373.32c0,2.24.6,4.88,3,4.88,1.4,0,2.4-.88,2.8-2.8h5.32c-.44,3.16-1.72,5.2-3.28,6.36a8.32,8.32,0,0,1-4.84,1.48c-6,0-8.76-5.28-8.76-11.84s2.8-11.84,8.76-11.84a7.15,7.15,0,0,1,6.6,3.64c1.68,2.92,1.8,6.64,1.68,10.12Zm5.92-4.56c0-1.36-.2-4.8-2.84-4.8-1.88,0-3.08,1.6-3.08,4.8Z"/><path class="cls-3" d="M368.3,377.72l8.32-12.64H369.1v-5H383v5l-8.16,12.64H383v5H368.3Z"/><path class="cls-3" d="M398.18,368.76V374h-10v-5.2Z"/><path class="cls-3" d="M413.1,382.76h-4.88L401.66,360h5.44l3.48,14.56,3-14.56H419Z"/><path class="cls-3" d="M421.66,371.36c0-6.52,2.8-11.8,8.76-11.8s8.76,5.28,8.76,11.84-2.8,11.84-8.76,11.84-8.76-5.28-8.76-11.84Zm5.68.08c0,5.32,1.2,6.76,3.16,6.76,1.8,0,3-1.44,3-6.8s-1.2-6.8-3.16-6.8c-1.8,0-3,1.44-3,6.8Z"/><path class="cls-3" d="M459.7,382.76h-4.84v-2.4c-.68,1.84-1.84,2.88-4.64,2.88-3.6,0-5.88-2-5.88-6.6V360h5.36v14.84c0,1.56.36,3,2.24,3,1.4,0,2.4-.72,2.4-2.64V360h5.36Z"/><path class="cls-3" d="M474.5,366.76c-.08-1.68-.76-2.56-2.4-2.56a1.71,1.71,0,0,0-1.92,1.76c0,1.92,2.56,2.08,5.12,2.88s5.12,2.32,5.12,7c0,4.24-3.36,7.44-8,7.44-4.36,0-7.8-2.4-8.28-7.76h5.36a2.92,2.92,0,0,0,3.08,2.88,2,2,0,0,0,2.2-2.28c0-2-2.56-2.16-5.12-3s-5.12-2.4-5.12-6.92c0-3.8,2.64-6.6,7.76-6.6s7.28,2.8,7.6,7.2Z"/><path class="cls-3" d="M506.58,366.76c-.08-1.68-.76-2.56-2.4-2.56a1.71,1.71,0,0,0-1.92,1.76c0,1.92,2.56,2.08,5.12,2.88s5.12,2.32,5.12,7c0,4.24-3.36,7.44-8,7.44-4.36,0-7.8-2.4-8.28-7.76h5.36a2.92,2.92,0,0,0,3.08,2.88,2,2,0,0,0,2.2-2.28c0-2-2.56-2.16-5.12-3s-5.12-2.4-5.12-6.92c0-3.8,2.64-6.6,7.76-6.6s7.28,2.8,7.6,7.2Z"/><path class="cls-3" d="M532.74,382.76h-4.88V380.6a4.48,4.48,0,0,1-4.4,2.64c-4.08,0-7.16-3.68-7.16-11.84,0-7.68,2.52-11.84,7.16-11.84a4.3,4.3,0,0,1,4.4,2.8V360h4.88Zm-11.08-11.32c0,5,1.12,6.44,2.92,6.44a2.34,2.34,0,0,0,2.12-1c.68-.84.68-1.92.68-5.48s0-4.64-.68-5.48a2.34,2.34,0,0,0-2.12-1c-1.8,0-2.92,1.44-2.92,6.48Z"/><path class="cls-3" d="M548.3,382.76h-4.88L536.86,360h5.44l3.48,14.56,3-14.56h5.44Z"/><path class="cls-3" d="M556.86,371.36c0-6.52,2.8-11.8,8.76-11.8s8.76,5.28,8.76,11.84-2.8,11.84-8.76,11.84-8.76-5.28-8.76-11.84Zm5.68.08c0,5.32,1.2,6.76,3.16,6.76,1.8,0,3-1.44,3-6.8s-1.2-6.8-3.16-6.8c-1.8,0-3,1.44-3,6.8Z"/><path class="cls-3" d="M580.1,353.17h5.36v4.48H580.1Zm0,6.88h5.36v22.72H580.1Z"/><path class="cls-3" d="M592.26,360h4.88v3c.8-2.84,2.8-3.44,5.76-3.44v6.6a4,4,0,0,0-2.36-.68c-2,0-2.92,1.68-2.92,4v13.28h-5.36Z"/><path class="cls-3" d="M635.26,382.76h-4.88V380.2a4.27,4.27,0,0,1-4.4,3c-4.08,0-7.16-3.68-7.16-11.84,0-7.68,2.52-11.84,7.16-11.84a4,4,0,0,1,4,2.4c0-.64,0-1.28,0-1.92v-6.88h5.36Zm-11.08-11.32c0,5,1.12,6.44,2.92,6.44a2.34,2.34,0,0,0,2.12-1c.68-.84.68-1.92.68-5.48s0-4.64-.68-5.48a2.34,2.34,0,0,0-2.12-1c-1.8,0-2.92,1.44-2.92,6.48Z"/><path class="cls-3" d="M646.38,373.32c0,2.24.6,4.88,3,4.88,1.4,0,2.4-.88,2.8-2.8h5.32c-.44,3.16-1.72,5.2-3.28,6.36a8.32,8.32,0,0,1-4.84,1.48c-6,0-8.76-5.28-8.76-11.84s2.8-11.84,8.76-11.84a7.15,7.15,0,0,1,6.6,3.64c1.68,2.92,1.8,6.64,1.68,10.12Zm5.92-4.56c0-1.36-.2-4.8-2.84-4.8-1.88,0-3.08,1.6-3.08,4.8Z"/><path class="cls-3" d="M685.14,382.76h-4.88L673.7,360h5.44l3.48,14.56,3-14.56h5.44Z"/><path class="cls-3" d="M693.7,371.36c0-6.52,2.8-11.8,8.76-11.8s8.76,5.28,8.76,11.84-2.8,11.84-8.76,11.84S693.7,378,693.7,371.4Zm5.68.08c0,5.32,1.2,6.76,3.16,6.76,1.8,0,3-1.44,3-6.8s-1.2-6.8-3.16-6.8c-1.8,0-3,1.44-3,6.8Z"/><path class="cls-3" d="M731.74,382.76H726.9v-2.4c-.68,1.84-1.84,2.88-4.64,2.88-3.6,0-5.88-2-5.88-6.6V360h5.36v14.84c0,1.56.36,3,2.24,3,1.4,0,2.4-.72,2.4-2.64V360h5.36Z"/><path class="cls-3" d="M746.54,366.76c-.08-1.68-.76-2.56-2.4-2.56a1.71,1.71,0,0,0-1.92,1.76c0,1.92,2.56,2.08,5.12,2.88s5.12,2.32,5.12,7c0,4.24-3.36,7.44-8,7.44-4.36,0-7.8-2.4-8.28-7.76h5.36a2.92,2.92,0,0,0,3.08,2.88,2,2,0,0,0,2.2-2.28c0-2-2.56-2.16-5.12-3s-5.12-2.4-5.12-6.92c0-3.8,2.64-6.6,7.76-6.6s7.28,2.8,7.6,7.2Z"/><path class="cls-3" d="M766.66,368.76V374h-10v-5.2Z"/><path class="cls-3" d="M772.5,360h5v2.64c.72-2.24,2.16-3.12,4.64-3.12a5.05,5.05,0,0,1,3.24,1A3.84,3.84,0,0,1,786.5,362a4.47,4.47,0,0,1,1.48-1.52,7.15,7.15,0,0,1,3.72-1,6.39,6.39,0,0,1,5.16,2.2,7.47,7.47,0,0,1,1.64,4.84v16.16h-5.36v-15.2a2.83,2.83,0,0,0-.56-2,2.24,2.24,0,0,0-1.8-.6,3,3,0,0,0-1.88.48,2.25,2.25,0,0,0-.72,1.84v15.52h-5.36v-15.2a2.83,2.83,0,0,0-.56-2,2.24,2.24,0,0,0-1.8-.6,3,3,0,0,0-1.88.48,2.25,2.25,0,0,0-.72,1.84v15.52H772.5Z"/><path class="cls-3" d="M809.86,373.32c0,2.24.6,4.88,3,4.88,1.4,0,2.4-.88,2.8-2.8H821c-.44,3.16-1.72,5.2-3.28,6.36a8.32,8.32,0,0,1-4.84,1.48c-6,0-8.76-5.28-8.76-11.84s2.8-11.84,8.76-11.84a7.15,7.15,0,0,1,6.6,3.64c1.68,2.92,1.8,6.64,1.68,10.12Zm9.88-15.6h-4.56l-2.52-3.36-2.52,3.36h-4.56l4.52-5.92h5.12Zm-4,11c0-1.36-.2-4.8-2.84-4.8-1.88,0-3.08,1.6-3.08,4.8Z"/><path class="cls-3" d="M826.82,360h5v2.64c.72-2.24,2.16-3.12,4.64-3.12a5.05,5.05,0,0,1,3.24,1,3.84,3.84,0,0,1,1.08,1.48,4.47,4.47,0,0,1,1.48-1.52,7.15,7.15,0,0,1,3.72-1,6.39,6.39,0,0,1,5.16,2.2,7.47,7.47,0,0,1,1.64,4.84v16.16h-5.36v-15.2a2.83,2.83,0,0,0-.56-2,2.24,2.24,0,0,0-1.8-.6,3,3,0,0,0-1.88.48,2.25,2.25,0,0,0-.72,1.84v15.52h-5.36v-15.2a2.83,2.83,0,0,0-.56-2,2.24,2.24,0,0,0-1.8-.6,3,3,0,0,0-1.88.48,2.25,2.25,0,0,0-.72,1.84v15.52h-5.36Z"/><path class="cls-3" d="M864.18,373.32c0,2.24.6,4.88,3,4.88,1.4,0,2.4-.88,2.8-2.8h5.32c-.44,3.16-1.72,5.2-3.28,6.36a8.32,8.32,0,0,1-4.84,1.48c-6,0-8.76-5.28-8.76-11.84s2.8-11.84,8.76-11.84a7.15,7.15,0,0,1,6.6,3.64c1.68,2.92,1.8,6.64,1.68,10.12Zm5.92-4.56c0-1.36-.2-4.8-2.84-4.8-1.88,0-3.08,1.6-3.08,4.8Z"/><path class="cls-3" d="M909,382.76H904.1V380.6a4.48,4.48,0,0,1-4.4,2.64c-4.08,0-7.16-3.68-7.16-11.84,0-7.68,2.52-11.84,7.16-11.84a4.3,4.3,0,0,1,4.4,2.8V360H909ZM897.9,371.44c0,5,1.12,6.44,2.92,6.44a2.34,2.34,0,0,0,2.12-1c.68-.84.68-1.92.68-5.48s0-4.64-.68-5.48a2.34,2.34,0,0,0-2.12-1c-1.8,0-2.92,1.44-2.92,6.48Z"/><path class="cls-3" d="M924.54,382.76h-4.88L913.1,360h5.44L922,374.6,925,360h5.44Z"/><path class="cls-3" d="M949.54,382.76h-4.88V380.6a4.48,4.48,0,0,1-4.4,2.64c-4.08,0-7.16-3.68-7.16-11.84,0-7.68,2.52-11.84,7.16-11.84a4.3,4.3,0,0,1,4.4,2.8V360h4.88Zm-11.08-11.32c0,5,1.12,6.44,2.92,6.44a2.34,2.34,0,0,0,2.12-1c.68-.84.68-1.92.68-5.48s0-4.64-.68-5.48a2.34,2.34,0,0,0-2.12-1c-1.8,0-2.92,1.44-2.92,6.48Z"/><path class="cls-3" d="M955.78,360h4.64v2.16c.88-1.6,2-2.64,4.84-2.64,3.6,0,5.88,2,5.88,6.6v16.6h-5.36V367.92c0-1.56-.36-3-2.24-3-1.4,0-2.4.72-2.4,2.64v15.2h-5.36Z"/><path class="cls-3" d="M977.94,365.08h-2.4v-5h2.4v-4.32h5.36V360h2.4v5h-2.4v17.68h-5.36Z"/><path class="cls-3" d="M1003.38,353.17h5.36v29.6h-5.36Z"/><path class="cls-3" d="M1030.9,382.76H1026V380.6a4.48,4.48,0,0,1-4.4,2.64c-4.08,0-7.16-3.68-7.16-11.84,0-7.68,2.52-11.84,7.16-11.84a4.3,4.3,0,0,1,4.4,2.8V360h4.88Zm-11.08-11.32c0,5,1.12,6.44,2.92,6.44a2.34,2.34,0,0,0,2.12-1c.68-.84.68-1.92.68-5.48s0-4.64-.68-5.48a2.34,2.34,0,0,0-2.12-1c-1.8,0-2.92,1.44-2.92,6.48Z"/><path class="cls-3" d="M1049.86,360h4.88v3c.8-2.84,2.8-3.44,5.76-3.44v6.6a4,4,0,0,0-2.36-.68c-2,0-2.92,1.68-2.92,4v13.28h-5.36Z"/><path class="cls-3" d="M1069.06,373.32c0,2.24.6,4.88,3,4.88,1.4,0,2.4-.88,2.8-2.8h5.32c-.44,3.16-1.72,5.2-3.28,6.36a8.32,8.32,0,0,1-4.84,1.48c-6,0-8.76-5.28-8.76-11.84s2.8-11.84,8.76-11.84a7.15,7.15,0,0,1,6.6,3.64c1.68,2.92,1.8,6.64,1.68,10.12Zm8-22.92,2,4.28-9.28,4.12-1.84-3.48ZM1075,368.76c0-1.36-.2-4.8-2.84-4.8-1.88,0-3.08,1.6-3.08,4.8Z"/><path class="cls-3" d="M1101.14,382.76h-4.88V380.2a4.27,4.27,0,0,1-4.4,3c-4.08,0-7.16-3.68-7.16-11.84,0-7.68,2.52-11.84,7.16-11.84a4,4,0,0,1,4,2.4c0-.64,0-1.28,0-1.92v-6.88h5.36Zm-11.08-11.32c0,5,1.12,6.44,2.92,6.44a2.34,2.34,0,0,0,2.12-1c.68-.84.68-1.92.68-5.48s0-4.64-.68-5.48a2.34,2.34,0,0,0-2.12-1c-1.8,0-2.92,1.44-2.92,6.48Z"/><path class="cls-3" d="M1122.74,382.76h-4.88V380.6a4.48,4.48,0,0,1-4.4,2.64c-4.08,0-7.16-3.68-7.16-11.84,0-7.68,2.52-11.84,7.16-11.84a4.3,4.3,0,0,1,4.4,2.8V360h4.88Zm-11.08-11.32c0,5,1.12,6.44,2.92,6.44a2.34,2.34,0,0,0,2.12-1c.68-.84.68-1.92.68-5.48s0-4.64-.68-5.48a2.34,2.34,0,0,0-2.12-1c-1.8,0-2.92,1.44-2.92,6.48Z"/><path class="cls-3" d="M1143.78,374.12c0,4.64-2.32,9.12-7.32,9.12-5.4,0-8.8-4.24-8.8-11.84s3.4-11.84,8.8-11.84c5,0,7.32,4.4,7.32,9.12h-5.6c0-2.72-.72-4.08-2.12-4.08a2,2,0,0,0-2,1.44,13.8,13.8,0,0,0-.72,5.36c0,5.2,1,6.8,2.72,6.8s2.12-1.84,2.12-4.08Z"/><path class="cls-3" d="M1148.9,365.08h-2.4v-5h2.4v-4.32h5.36V360h2.4v5h-2.4v17.68h-5.36Z"/><path class="cls-3" d="M1161.62,353.17H1167v4.48h-5.36Zm0,6.88H1167v22.72h-5.36Z"/><path class="cls-3" d="M1172.7,371.36c0-6.52,2.8-11.8,8.76-11.8s8.76,5.28,8.76,11.84-2.8,11.84-8.76,11.84-8.76-5.28-8.76-11.84Zm5.68.08c0,5.32,1.2,6.76,3.16,6.76,1.8,0,3-1.44,3-6.8s-1.2-6.8-3.16-6.8c-1.8,0-3,1.44-3,6.8Z"/><path class="cls-3" d="M1195.38,360H1200v2.16c.88-1.6,2-2.64,4.84-2.64,3.6,0,5.88,2,5.88,6.6v16.6h-5.36V367.92c0-1.56-.36-3-2.24-3-1.4,0-2.4.72-2.4,2.64v15.2h-5.36Z"/><path class="cls-3" d="M1245.06,382.76h-4.88V380.2a4.27,4.27,0,0,1-4.4,3c-4.08,0-7.16-3.68-7.16-11.84,0-7.68,2.52-11.84,7.16-11.84a4,4,0,0,1,4,2.4c0-.64,0-1.28,0-1.92v-6.88h5.36ZM1234,371.44c0,5,1.12,6.44,2.92,6.44a2.34,2.34,0,0,0,2.12-1c.68-.84.68-1.92.68-5.48s0-4.64-.68-5.48a2.34,2.34,0,0,0-2.12-1c-1.8,0-2.92,1.44-2.92,6.48Z"/><path class="cls-3" d="M1256.18,373.32c0,2.24.6,4.88,3,4.88,1.4,0,2.4-.88,2.8-2.8h5.32c-.44,3.16-1.72,5.2-3.28,6.36a8.32,8.32,0,0,1-4.84,1.48c-6,0-8.76-5.28-8.76-11.84s2.8-11.84,8.76-11.84a7.15,7.15,0,0,1,6.6,3.64c1.68,2.92,1.8,6.64,1.68,10.12Zm5.92-4.56c0-1.36-.2-4.8-2.84-4.8-1.88,0-3.08,1.6-3.08,4.8Z"/><path class="cls-3" d="M1286.18,353.17h5.36v29.6h-5.36Z"/><path class="cls-3" d="M1313.7,382.76h-4.88V380.6a4.48,4.48,0,0,1-4.4,2.64c-4.08,0-7.16-3.68-7.16-11.84,0-7.68,2.52-11.84,7.16-11.84a4.3,4.3,0,0,1,4.4,2.8V360h4.88Zm-11.08-11.32c0,5,1.12,6.44,2.92,6.44a2.34,2.34,0,0,0,2.12-1c.68-.84.68-1.92.68-5.48s0-4.64-.68-5.48a2.34,2.34,0,0,0-2.12-1c-1.8,0-2.92,1.44-2.92,6.48Z"/><path class="cls-3" d="M1333.22,353.17h5.36v29.6h-5.36Z"/><path class="cls-3" d="M1350.26,373.32c0,2.24.6,4.88,3,4.88,1.4,0,2.4-.88,2.8-2.8h5.32c-.44,3.16-1.72,5.2-3.28,6.36a8.32,8.32,0,0,1-4.84,1.48c-6,0-8.76-5.28-8.76-11.84s2.8-11.84,8.76-11.84a7.15,7.15,0,0,1,6.6,3.64c1.68,2.92,1.8,6.64,1.68,10.12Zm5.92-4.56c0-1.36-.2-4.8-2.84-4.8-1.88,0-3.08,1.6-3.08,4.8Z"/><path class="cls-3" d="M1367.54,365.08h-2.4v-5h2.4v-4.32h5.36V360h2.4v5h-2.4v17.68h-5.36Z"/><path class="cls-3" d="M1380.26,365.08h-2.4v-5h2.4v-4.32h5.36V360h2.4v5h-2.4v17.68h-5.36Z"/><path class="cls-3" d="M1392.42,360h4.88v3c.8-2.84,2.8-3.44,5.76-3.44v6.6a4,4,0,0,0-2.36-.68c-2,0-2.92,1.68-2.92,4v13.28h-5.36Z"/><path class="cls-3" d="M1411.62,373.32c0,2.24.6,4.88,3,4.88,1.4,0,2.4-.88,2.8-2.8h5.32c-.44,3.16-1.72,5.2-3.28,6.36a8.32,8.32,0,0,1-4.84,1.48c-6,0-8.76-5.28-8.76-11.84s2.8-11.84,8.76-11.84a7.15,7.15,0,0,1,6.6,3.64c1.68,2.92,1.8,6.64,1.68,10.12Zm5.92-4.56c0-1.36-.2-4.8-2.84-4.8-1.88,0-3.08,1.6-3.08,4.8Z"/><path class="cls-3" d="M1456.42,382.76h-4.88V380.2a4.27,4.27,0,0,1-4.4,3c-4.08,0-7.16-3.68-7.16-11.84,0-7.68,2.52-11.84,7.16-11.84a4,4,0,0,1,4,2.4c0-.64,0-1.28,0-1.92v-6.88h5.36Zm-11.08-11.32c0,5,1.12,6.44,2.92,6.44a2.34,2.34,0,0,0,2.12-1c.68-.84.68-1.92.68-5.48s0-4.64-.68-5.48a2.34,2.34,0,0,0-2.12-1c-1.8,0-2.92,1.44-2.92,6.48Z"/><path class="cls-3" d="M1467.54,373.32c0,2.24.6,4.88,3,4.88,1.4,0,2.4-.88,2.8-2.8h5.32c-.44,3.16-1.72,5.2-3.28,6.36a8.32,8.32,0,0,1-4.84,1.48c-6,0-8.76-5.28-8.76-11.84s2.8-11.84,8.76-11.84a7.15,7.15,0,0,1,6.6,3.64c1.68,2.92,1.8,6.64,1.68,10.12Zm5.92-4.56c0-1.36-.2-4.8-2.84-4.8-1.88,0-3.08,1.6-3.08,4.8Z"/><path class="cls-3" d="M1497.22,360h5v2.64c.72-2.24,2.16-3.12,4.64-3.12a5.05,5.05,0,0,1,3.24,1,3.84,3.84,0,0,1,1.08,1.48,4.47,4.47,0,0,1,1.48-1.52,7.15,7.15,0,0,1,3.72-1,6.39,6.39,0,0,1,5.16,2.2,7.47,7.47,0,0,1,1.64,4.84v16.16h-5.36v-15.2a2.83,2.83,0,0,0-.56-2,2.24,2.24,0,0,0-1.8-.6,3,3,0,0,0-1.88.48,2.25,2.25,0,0,0-.72,1.84v15.52h-5.36v-15.2a2.83,2.83,0,0,0-.56-2,2.24,2.24,0,0,0-1.8-.6,3,3,0,0,0-1.88.48,2.25,2.25,0,0,0-.72,1.84v15.52h-5.36Z"/><path class="cls-3" d="M1528.62,371.36c0-6.52,2.8-11.8,8.76-11.8s8.76,5.28,8.76,11.84-2.8,11.84-8.76,11.84-8.76-5.28-8.76-11.84Zm5.68.08c0,5.32,1.2,6.76,3.16,6.76,1.8,0,3-1.44,3-6.8s-1.2-6.8-3.16-6.8c-1.8,0-3,1.44-3,6.8Z"/><path class="cls-3" d="M1551.86,365.08h-2.4v-5h2.4v-4.32h5.36V360h2.4v5h-2.4v17.68h-5.36Z"/><path class="cls-3" d="M1564.58,353.17h5.36v4.48h-5.36Zm0,6.88h5.36v22.72h-5.36Z"/><path class="cls-3" d="M1586.06,382.76h-4.88L1574.62,360h5.44l3.48,14.56,3-14.56H1592Z"/><path class="cls-3" d="M1611.06,382.76h-4.88V380.6a4.48,4.48,0,0,1-4.4,2.64c-4.08,0-7.16-3.68-7.16-11.84,0-7.68,2.52-11.84,7.16-11.84a4.3,4.3,0,0,1,4.4,2.8V360h4.88ZM1600,371.44c0,5,1.12,6.44,2.92,6.44a2.34,2.34,0,0,0,2.12-1c.68-.84.68-1.92.68-5.48s0-4.64-.68-5.48a2.34,2.34,0,0,0-2.12-1c-1.8,0-2.92,1.44-2.92,6.48Z"/><path class="cls-3" d="M1617.86,365.08h-2.4v-5h2.4v-4.32h5.36V360h2.4v5h-2.4v17.68h-5.36Z"/><path class="cls-3" d="M1630.58,353.17h5.36v4.48h-5.36Zm0,6.88h5.36v22.72h-5.36Z"/><path class="cls-3" d="M1641.66,371.36c0-6.52,2.8-11.8,8.76-11.8s8.76,5.28,8.76,11.84-2.8,11.84-8.76,11.84-8.76-5.28-8.76-11.84Zm5.68.08c0,5.32,1.2,6.76,3.16,6.76,1.8,0,3-1.44,3-6.8s-1.2-6.8-3.16-6.8c-1.8,0-3,1.44-3,6.8Z"/><path class="cls-3" d="M1664.34,360H1669v2.16c.88-1.6,2-2.64,4.84-2.64,3.6,0,5.88,2,5.88,6.6v16.6h-5.36V367.92c0-1.56-.36-3-2.24-3-1.4,0-2.4.72-2.4,2.64v15.2h-5.36Z"/><path class="cls-3" d="M1702.5,374.76c0-3.2-.6-5.88,1.24-8.24s4.84-3.64,4.84-5.84c0-1.6-1-2.4-2.64-2.4-1.32,0-2.4.88-2.4,2.84v1h-6.08v-1.44c0-5.28,3.44-8,8.76-8,4.76,0,8.6,3.28,8.6,8.24,0,3.36-1.76,5.16-3.44,6.68-3.16,2.8-3,2.64-3,7.16Zm5.92,8h-5.92v-6.08h5.92Z"/><path class="cls-3" d="M802.05,523.89V500.21h5.79L812,517.36l4-17.15h5.79v23.68h-3.49V504.34l-4.8,19.55h-3l-4.93-19.55v19.55Z"/><path class="cls-3" d="M830.12,516.14c0,2.5.86,4.9,3.17,4.9,1.5,0,2.53-1,2.88-2.72h3.42a7.28,7.28,0,0,1-2.43,4.7,6.41,6.41,0,0,1-3.87,1.25c-4.77,0-6.88-4.35-6.88-9.31,0-5.31,2.34-9.34,6.85-9.34a5.66,5.66,0,0,1,5.06,2.72c1.38,2.24,1.5,5.12,1.44,7.81Zm6.18-3c0-2-.74-4.67-3-4.67-1.89,0-3.14,1.76-3.14,4.67Z"/><path class="cls-3" d="M851.08,511.06c0-1.7-.83-2.43-2.27-2.43a1.78,1.78,0,0,0-1.92,1.86c0,1.73,1.89,2,4,2.69S855,515,855,518.61a5.63,5.63,0,0,1-6,5.66c-3.36,0-5.89-1.89-6.18-5.92h3.46a2.67,2.67,0,0,0,2.78,2.78,2.1,2.1,0,0,0,2.24-2.3c0-1.79-1.86-2.21-4-2.91s-4.1-1.89-4.1-5.31c0-2.91,2.08-5,5.7-5s5.41,2,5.6,5.44Z"/><path class="cls-3" d="M868.87,506H872v2.34a3.92,3.92,0,0,1,3.9-2.72c3.36,0,5.79,3.2,5.79,9.34,0,5.82-2.08,9.31-5.79,9.31a3.8,3.8,0,0,1-3.62-2.43v8.06h-3.46Zm9.41,8.93c0-4-1.06-5.86-3-5.86a2.39,2.39,0,0,0-2.11,1.22c-.64.86-.83,2-.83,4.67s.19,3.78.83,4.64a2.36,2.36,0,0,0,2.11,1.25c2,0,3-1.89,3-5.89Z"/><path class="cls-3" d="M885.13,514.93c0-5.12,2.18-9.31,6.91-9.31s6.88,4.19,6.88,9.34-2.18,9.31-6.88,9.31-6.91-4.19-6.91-9.31Zm3.65.06c0,4.38,1.18,6,3.3,6s3.2-1.66,3.2-6.08-1.18-6.08-3.3-6.08-3.2,1.63-3.2,6.08Z"/><path class="cls-3" d="M903.59,500.21H907v3.42h-3.46Zm0,5.79H907v17.89h-3.46Z"/><path class="cls-3" d="M912.61,506h3c0,.74,0,1.44,0,2.21a4.18,4.18,0,0,1,4.26-2.59c2.94,0,4.83,1.63,4.83,5.54v12.73h-3.46V512.27c0-1.44-.29-3.2-2.4-3.2-1.66,0-2.78,1-2.78,3.36v11.46h-3.46Z"/><path class="cls-3" d="M930.47,509.26h-2.14V506h2.14v-4.26h3.46V506H936v3.26h-2.11v14.62h-3.46Z"/><path class="cls-3" d="M946.6,511.06c0-1.7-.83-2.43-2.27-2.43a1.78,1.78,0,0,0-1.92,1.86c0,1.73,1.89,2,4,2.69s4.13,1.82,4.13,5.44a5.63,5.63,0,0,1-6,5.66c-3.36,0-5.89-1.89-6.18-5.92h3.46a2.67,2.67,0,0,0,2.78,2.78,2.1,2.1,0,0,0,2.24-2.3c0-1.79-1.86-2.21-4-2.91s-4.1-1.89-4.1-5.31c0-2.91,2.08-5,5.7-5s5.41,2,5.6,5.44Z"/><path class="cls-3" d="M964.77,509.26H963V506h1.79v-1c0-5,4.19-5.25,6.08-5.25v3c-1.22,0-2.62.32-2.62,2.59V506h2.62v3.26h-2.62v14.62h-3.46Z"/><path class="cls-3" d="M973,514.93c0-5.12,2.18-9.31,6.91-9.31s6.88,4.19,6.88,9.34-2.18,9.31-6.88,9.31S973,520.08,973,515Zm3.65.06c0,4.38,1.18,6,3.3,6s3.2-1.66,3.2-6.08-1.18-6.08-3.3-6.08-3.2,1.63-3.2,6.08Z"/><path class="cls-3" d="M991,506h3.17c0,1.09,0,2,0,2.88.74-2.72,2.59-3.26,4.64-3.26v4.19a2.59,2.59,0,0,0-1.47-.42c-1.57,0-2.85,1.54-2.85,4.38v10.11H991Z"/><path class="cls-3" d="M1003.08,509.26h-2.14V506h2.14v-4.26h3.46V506h2.11v3.26h-2.11v14.62h-3.46Z"/><path class="cls-3" d="M1019.2,511.06c0-1.7-.83-2.43-2.27-2.43a1.78,1.78,0,0,0-1.92,1.86c0,1.73,1.89,2,4,2.69s4.13,1.82,4.13,5.44a5.63,5.63,0,0,1-6,5.66c-3.36,0-5.89-1.89-6.18-5.92h3.46a2.67,2.67,0,0,0,2.78,2.78,2.1,2.1,0,0,0,2.24-2.3c0-1.79-1.86-2.21-4-2.91s-4.1-1.89-4.1-5.31c0-2.91,2.08-5,5.7-5s5.41,2,5.6,5.44Z"/><path class="cls-3" d="M1031,523.89h-3.46v-4.22H1031Z"/><path class="cls-3" d="M802.05,647.07V623.39h5.79L812,640.54l4-17.15h5.79v23.68h-3.49V627.52l-4.8,19.55h-3l-4.93-19.55v19.55Z"/><path class="cls-3" d="M830.12,639.32c0,2.5.86,4.9,3.17,4.9,1.5,0,2.53-1,2.88-2.72h3.42a7.28,7.28,0,0,1-2.43,4.7,6.41,6.41,0,0,1-3.87,1.25c-4.77,0-6.88-4.35-6.88-9.31,0-5.31,2.34-9.34,6.85-9.34a5.66,5.66,0,0,1,5.06,2.72c1.38,2.24,1.5,5.12,1.44,7.81Zm6.18-3c0-2-.74-4.67-3-4.67-1.89,0-3.14,1.76-3.14,4.67Z"/><path class="cls-3" d="M851.08,634.24c0-1.7-.83-2.43-2.27-2.43a1.78,1.78,0,0,0-1.92,1.86c0,1.73,1.89,2,4,2.69s4.13,1.82,4.13,5.44a5.63,5.63,0,0,1-6,5.66c-3.36,0-5.89-1.89-6.18-5.92h3.46a2.67,2.67,0,0,0,2.78,2.78,2.1,2.1,0,0,0,2.24-2.3c0-1.79-1.86-2.21-4-2.91s-4.1-1.89-4.1-5.31c0-2.91,2.08-5,5.7-5s5.41,2,5.6,5.44Z"/><path class="cls-3" d="M875.78,634.24c0-1.7-.83-2.43-2.27-2.43a1.78,1.78,0,0,0-1.92,1.86c0,1.73,1.89,2,4,2.69s4.13,1.82,4.13,5.44a5.63,5.63,0,0,1-6,5.66c-3.36,0-5.89-1.89-6.18-5.92H871a2.67,2.67,0,0,0,2.78,2.78A2.1,2.1,0,0,0,876,642c0-1.79-1.86-2.21-4-2.91s-4.1-1.89-4.1-5.31c0-2.91,2.08-5,5.7-5s5.41,2,5.6,5.44Z"/><path class="cls-3" d="M882.95,638.11c0-5.12,2.18-9.31,6.91-9.31s6.88,4.19,6.88,9.34-2.18,9.31-6.88,9.31-6.91-4.19-6.91-9.31Zm3.65.06c0,4.38,1.18,6,3.3,6s3.2-1.66,3.2-6.08-1.18-6.08-3.3-6.08-3.2,1.63-3.2,6.08Z"/><path class="cls-3" d="M913.09,647.07h-3.17c0-.77,0-1.54,0-2.37-.64,1.89-2,2.75-4.16,2.75-2.91,0-4.8-1.63-4.8-5.54V629.18h3.46V640.8c0,1.44.29,3.23,2.4,3.23,1.63,0,2.78-1.06,2.78-3.39V629.18h3.46Z"/><path class="cls-3" d="M918.28,623.39h3.46v5.5c0,.7,0,1.34,0,2.08.51-1.31,1.63-2.18,3.81-2.18a4.51,4.51,0,0,1,3.65,1.5,6.22,6.22,0,0,1,1.22,4.22v12.54h-3.46V635.55a4.16,4.16,0,0,0-.54-2.43,2,2,0,0,0-1.82-.86,2.49,2.49,0,0,0-2,.83,3.57,3.57,0,0,0-.77,2.62v11.36h-3.46Z"/><path class="cls-3" d="M947.49,647.07h-3.17c0-1,0-1.66,0-2.34a4,4,0,0,1-3.94,2.72c-3.36,0-5.79-3.2-5.79-9.31,0-5.86,2.08-9.34,5.79-9.34a3.91,3.91,0,0,1,3.94,2.82c0-.8,0-1.54,0-2.43h3.17Zm-9.41-8.9c0,4,1.09,5.86,3,5.86a2.4,2.4,0,0,0,2.21-1.25c.64-.86.74-2,.74-4.64s-.1-3.81-.74-4.67a2.44,2.44,0,0,0-2.21-1.22c-1.92,0-3,1.86-3,5.89Z"/><path class="cls-3" d="M953.06,623.39h3.46v3.42h-3.46Zm0,5.79h3.46v17.89h-3.46Z"/><path class="cls-3" d="M962.69,632.44h-2.14v-3.26h2.14v-4.26h3.46v4.26h2.11v3.26h-2.11v14.62h-3.46Z"/><path class="cls-3" d="M978.82,634.24c0-1.7-.83-2.43-2.27-2.43a1.78,1.78,0,0,0-1.92,1.86c0,1.73,1.89,2,4,2.69s4.13,1.82,4.13,5.44a5.63,5.63,0,0,1-6,5.66c-3.36,0-5.89-1.89-6.18-5.92h3.46a2.67,2.67,0,0,0,2.78,2.78,2.1,2.1,0,0,0,2.24-2.3c0-1.79-1.86-2.21-4-2.91s-4.1-1.89-4.1-5.31c0-2.91,2.08-5,5.7-5s5.41,2,5.6,5.44Z"/><path class="cls-3" d="M1008.58,647.07h-3.17c0-1.06,0-1.82,0-2.59a3.92,3.92,0,0,1-3.94,3c-3.36,0-5.79-3.2-5.79-9.31,0-5.86,2.08-9.34,5.79-9.34a3.67,3.67,0,0,1,3.65,2.59c0-.7,0-1.41,0-2.21v-5.79h3.46Zm-9.41-8.93c0,4,1.09,5.86,3,5.86a2.44,2.44,0,0,0,2.21-1.22c.64-.9.74-2,.74-4.67s-.1-3.78-.74-4.64a2.4,2.4,0,0,0-2.21-1.25c-1.92,0-3,1.89-3,5.89Z"/><path class="cls-3" d="M1015.11,623.39h3.68l-3.07,7.26h-3.17Z"/><path class="cls-3" d="M1025.51,639.32c0,2.5.86,4.9,3.17,4.9,1.5,0,2.53-1,2.88-2.72H1035a7.28,7.28,0,0,1-2.43,4.7,6.41,6.41,0,0,1-3.87,1.25c-4.77,0-6.88-4.35-6.88-9.31,0-5.31,2.34-9.34,6.85-9.34a5.66,5.66,0,0,1,5.06,2.72c1.38,2.24,1.5,5.12,1.44,7.81Zm6.94-17.66,1.34,2.78-7.33,3.49-1.22-2.27Zm-.77,14.69c0-2-.74-4.67-3-4.67-1.89,0-3.14,1.76-3.14,4.67Z"/><path class="cls-3" d="M1045.76,647.07h-3.2l-5.28-17.89h3.52l3.3,12.77,3-12.77h3.49Z"/><path class="cls-3" d="M1052.8,638.11c0-5.12,2.18-9.31,6.91-9.31s6.88,4.19,6.88,9.34-2.18,9.31-6.88,9.31-6.91-4.19-6.91-9.31Zm3.65.06c0,4.38,1.18,6,3.3,6s3.2-1.66,3.2-6.08-1.18-6.08-3.3-6.08-3.2,1.63-3.2,6.08Z"/><path class="cls-3" d="M1071.27,623.39h3.46v23.68h-3.46Z"/><path class="cls-3" d="M1092.35,647.07h-3.17c0-.77,0-1.54,0-2.37-.64,1.89-2,2.75-4.16,2.75-2.91,0-4.8-1.63-4.8-5.54V629.18h3.46V640.8c0,1.44.29,3.23,2.4,3.23,1.63,0,2.78-1.06,2.78-3.39V629.18h3.46Z"/><path class="cls-3" d="M1098.15,632.44H1096v-3.26h2.14v-4.26h3.46v4.26h2.11v3.26h-2.11v14.62h-3.46Z"/><path class="cls-3" d="M1107.75,623.39h3.46v3.42h-3.46Zm0,5.79h3.46v17.89h-3.46Z"/><path class="cls-3" d="M1115.88,638.11c0-5.12,2.18-9.31,6.91-9.31s6.88,4.19,6.88,9.34-2.18,9.31-6.88,9.31-6.91-4.19-6.91-9.31Zm3.65.06c0,4.38,1.18,6,3.3,6s3.2-1.66,3.2-6.08-1.18-6.08-3.3-6.08-3.2,1.63-3.2,6.08Z"/><path class="cls-3" d="M1134,629.18h3c0,.74,0,1.44,0,2.21a4.18,4.18,0,0,1,4.26-2.59c2.94,0,4.83,1.63,4.83,5.54v12.74h-3.46V635.45c0-1.44-.29-3.2-2.4-3.2-1.66,0-2.78,1-2.78,3.36v11.46H1134Z"/><path class="cls-3" d="M1155.3,647.07h-3.46v-4.22h3.46Z"/><path class="cls-3" d="M802.05,767.37V743.69h5.79L812,760.85l4-17.15h5.79v23.68h-3.49V747.82l-4.8,19.55h-3l-4.93-19.55v19.55Z"/><path class="cls-3" d="M830.12,759.63c0,2.5.86,4.9,3.17,4.9,1.5,0,2.53-1,2.88-2.72h3.42a7.28,7.28,0,0,1-2.43,4.7,6.41,6.41,0,0,1-3.87,1.25c-4.77,0-6.88-4.35-6.88-9.31,0-5.31,2.34-9.34,6.85-9.34a5.66,5.66,0,0,1,5.06,2.72c1.38,2.24,1.5,5.12,1.44,7.81Zm6.18-3c0-2-.74-4.67-3-4.67-1.89,0-3.14,1.76-3.14,4.67Z"/><path class="cls-3" d="M851.08,754.54c0-1.7-.83-2.43-2.27-2.43a1.78,1.78,0,0,0-1.92,1.86c0,1.73,1.89,2,4,2.69s4.13,1.82,4.13,5.44a5.63,5.63,0,0,1-6,5.66c-3.36,0-5.89-1.89-6.18-5.92h3.46a2.67,2.67,0,0,0,2.78,2.78,2.1,2.1,0,0,0,2.24-2.3c0-1.79-1.86-2.21-4-2.91s-4.1-1.89-4.1-5.31c0-2.91,2.08-5,5.7-5s5.41,2,5.6,5.44Z"/><path class="cls-3" d="M880.84,767.37h-3.17c0-1,0-1.66,0-2.34a4,4,0,0,1-3.94,2.72c-3.36,0-5.79-3.2-5.79-9.31,0-5.86,2.08-9.34,5.79-9.34a3.91,3.91,0,0,1,3.94,2.82c0-.8,0-1.54,0-2.43h3.17Zm-9.41-8.9c0,4,1.09,5.86,3,5.86a2.4,2.4,0,0,0,2.21-1.25c.64-.86.74-2,.74-4.64s-.1-3.81-.74-4.67a2.44,2.44,0,0,0-2.21-1.22c-1.92,0-3,1.86-3,5.89Z"/><path class="cls-3" d="M886,749.49h3.17v2.34a3.92,3.92,0,0,1,3.9-2.72c3.36,0,5.79,3.2,5.79,9.34,0,5.82-2.08,9.31-5.79,9.31a3.8,3.8,0,0,1-3.62-2.43v8.06H886Zm9.41,8.93c0-4-1.06-5.86-3-5.86a2.39,2.39,0,0,0-2.11,1.22c-.64.86-.83,2-.83,4.67s.19,3.78.83,4.64a2.36,2.36,0,0,0,2.11,1.25c2,0,3-1.89,3-5.89Z"/><path class="cls-3" d="M903.78,752.75h-2.14v-3.26h2.14v-4.26h3.46v4.26h2.11v3.26h-2.11v14.62h-3.46Z"/><path class="cls-3" d="M913.38,743.69h3.46v3.42h-3.46Zm0,5.79h3.46v17.89h-3.46Z"/><path class="cls-3" d="M923,752.75h-2.14v-3.26H923v-4.26h3.46v4.26h2.11v3.26h-2.11v14.62H923Z"/><path class="cls-3" d="M944.29,767.37h-3.17c0-.77,0-1.54,0-2.37-.64,1.89-2,2.75-4.16,2.75-2.91,0-4.8-1.63-4.8-5.54V749.49h3.46V761.1c0,1.44.29,3.23,2.4,3.23,1.63,0,2.78-1.06,2.78-3.39V749.49h3.46Z"/><path class="cls-3" d="M961.44,767.37h-3.17c0-1.06,0-1.82,0-2.59a3.92,3.92,0,0,1-3.94,3c-3.36,0-5.79-3.2-5.79-9.31,0-5.86,2.08-9.34,5.79-9.34a3.67,3.67,0,0,1,3.65,2.59c0-.7,0-1.41,0-2.21v-5.79h3.46ZM952,758.45c0,4,1.09,5.86,3,5.86a2.44,2.44,0,0,0,2.21-1.22c.64-.9.74-2,.74-4.67s-.1-3.78-.74-4.64a2.4,2.4,0,0,0-2.21-1.25c-1.92,0-3,1.89-3,5.89Z"/><path class="cls-3" d="M969.57,759.63c0,2.5.86,4.9,3.17,4.9,1.5,0,2.53-1,2.88-2.72H979a7.28,7.28,0,0,1-2.43,4.7,6.41,6.41,0,0,1-3.87,1.25c-4.77,0-6.88-4.35-6.88-9.31,0-5.31,2.34-9.34,6.85-9.34a5.66,5.66,0,0,1,5.06,2.72c1.38,2.24,1.5,5.12,1.44,7.81Zm6.18-3c0-2-.74-4.67-3-4.67-1.89,0-3.14,1.76-3.14,4.67Z"/><path class="cls-3" d="M990.53,754.54c0-1.7-.83-2.43-2.27-2.43a1.78,1.78,0,0,0-1.92,1.86c0,1.73,1.89,2,4,2.69s4.13,1.82,4.13,5.44a5.63,5.63,0,0,1-6,5.66c-3.36,0-5.89-1.89-6.18-5.92h3.46a2.67,2.67,0,0,0,2.78,2.78,2.1,2.1,0,0,0,2.24-2.3c0-1.79-1.86-2.21-4-2.91s-4.1-1.89-4.1-5.31c0-2.91,2.08-5,5.7-5s5.41,2,5.6,5.44Z"/><path class="cls-3" d="M1008.32,749.49h3.17v2.34a3.92,3.92,0,0,1,3.9-2.72c3.36,0,5.79,3.2,5.79,9.34,0,5.82-2.08,9.31-5.79,9.31a3.8,3.8,0,0,1-3.62-2.43v8.06h-3.46Zm9.41,8.93c0-4-1.06-5.86-3-5.86a2.39,2.39,0,0,0-2.11,1.22c-.64.86-.83,2-.83,4.67s.19,3.78.83,4.64a2.36,2.36,0,0,0,2.11,1.25c2,0,3-1.89,3-5.89Z"/><path class="cls-3" d="M1024.58,758.41c0-5.12,2.18-9.31,6.91-9.31s6.88,4.19,6.88,9.34-2.18,9.31-6.88,9.31-6.91-4.19-6.91-9.31Zm3.65.06c0,4.38,1.18,6,3.3,6s3.2-1.66,3.2-6.08-1.18-6.08-3.3-6.08-3.2,1.63-3.2,6.08Z"/><path class="cls-3" d="M1054.72,767.37h-3.17c0-.77,0-1.54,0-2.37-.64,1.89-2,2.75-4.16,2.75-2.91,0-4.8-1.63-4.8-5.54V749.49h3.46V761.1c0,1.44.29,3.23,2.4,3.23,1.63,0,2.78-1.06,2.78-3.39V749.49h3.46Z"/><path class="cls-3" d="M1059.91,749.49h3.17c0,1.09,0,2,0,2.88.74-2.72,2.59-3.26,4.64-3.26v4.19a2.58,2.58,0,0,0-1.47-.42c-1.57,0-2.85,1.54-2.85,4.38v10.11h-3.46Z"/><path class="cls-3" d="M1081.28,743.69h3.46v23.68h-3.46Z"/><path class="cls-3" d="M1093.25,759.63c0,2.5.86,4.9,3.17,4.9,1.5,0,2.53-1,2.88-2.72h3.42a7.28,7.28,0,0,1-2.43,4.7,6.41,6.41,0,0,1-3.87,1.25c-4.77,0-6.88-4.35-6.88-9.31,0-5.31,2.34-9.34,6.85-9.34a5.66,5.66,0,0,1,5.06,2.72c1.38,2.24,1.5,5.12,1.44,7.81Zm6.18-3c0-2-.74-4.67-3-4.67-1.89,0-3.14,1.76-3.14,4.67Z"/><path class="cls-3" d="M1117,749.49h3.17v2.34a3.92,3.92,0,0,1,3.9-2.72c3.36,0,5.79,3.2,5.79,9.34,0,5.82-2.08,9.31-5.79,9.31a3.8,3.8,0,0,1-3.62-2.43v8.06H1117Zm9.41,8.93c0-4-1.06-5.86-3-5.86a2.39,2.39,0,0,0-2.11,1.22c-.64.86-.83,2-.83,4.67s.19,3.78.83,4.64a2.36,2.36,0,0,0,2.11,1.25c2,0,3-1.89,3-5.89Z"/><path class="cls-3" d="M1133.28,758.41c0-5.12,2.18-9.31,6.91-9.31s6.88,4.19,6.88,9.34-2.18,9.31-6.88,9.31-6.91-4.19-6.91-9.31Zm3.65.06c0,4.38,1.18,6,3.3,6s3.2-1.66,3.2-6.08-1.18-6.08-3.3-6.08-3.2,1.63-3.2,6.08Z"/><path class="cls-3" d="M1158.27,754.54c0-1.7-.83-2.43-2.27-2.43a1.78,1.78,0,0,0-1.92,1.86c0,1.73,1.89,2,4,2.69s4.13,1.82,4.13,5.44a5.63,5.63,0,0,1-6,5.66c-3.36,0-5.89-1.89-6.18-5.92h3.46a2.67,2.67,0,0,0,2.78,2.78,2.1,2.1,0,0,0,2.24-2.3c0-1.79-1.86-2.21-4-2.91s-4.1-1.89-4.1-5.31c0-2.91,2.08-5,5.7-5s5.41,2,5.6,5.44Z"/><path class="cls-3" d="M1166.94,752.75h-2.14v-3.26h2.14v-4.26h3.46v4.26h2.11v3.26h-2.11v14.62h-3.46Z"/><path class="cls-3" d="M1178.75,759.63c0,2.5.86,4.9,3.17,4.9,1.5,0,2.53-1,2.88-2.72h3.42a7.28,7.28,0,0,1-2.43,4.7,6.41,6.41,0,0,1-3.87,1.25c-4.77,0-6.88-4.35-6.88-9.31,0-5.31,2.34-9.34,6.85-9.34a5.66,5.66,0,0,1,5.06,2.72c1.38,2.24,1.5,5.12,1.44,7.81Zm6.18-3c0-2-.74-4.67-3-4.67-1.89,0-3.14,1.76-3.14,4.67Z"/><path class="cls-3" d="M1196.51,767.37h-3.46v-4.22h3.46Z"/></g><g id="etapes_jeu" data-name="etapes jeu"><line class="cls-4" x1="555.81" y1="239.15" x2="556.31" y2="239.15"/><line class="cls-5" x1="571.26" y1="239.15" x2="1361.42" y2="239.15"/><line class="cls-4" x1="1368.89" y1="239.15" x2="1369.39" y2="239.15"/><circle class="cls-6" cx="689.29" cy="239.15" r="19.32"/><path class="cls-7" d="M690.85,226.72v20.37h3.21v3.38h-9.84v-3.38h3.21v-17h-3.21v-3.37Z"/><path class="cls-8" d="M689.29,219.83h-.15v38.63h.15a19.32,19.32,0,1,0,0-38.63Z"/><circle class="cls-6" cx="1099.26" cy="239.15" r="19.32"/><path class="cls-7" d="M1103.61,226.72v15.57h1.32v3.38h-1.32v4.79h-3.42v-4.79h-6.95v-3l6-15.95Zm-7,15.57h3.57V232.2Z"/><path class="cls-8" d="M1099.26,219.83h-.15v38.63h.15a19.32,19.32,0,1,0,0-38.63Z"/><circle class="cls-6" cx="1235.91" cy="239.15" r="19.32"/><path class="cls-7" d="M1237.26,239.11q0-1.26-.53-1.49a2.39,2.39,0,0,0-.93-.13h-.33q-1,0-1.16.93l0,1h-3.42l.51-12.67h9.33v3.38h-6l-.24,5.11a3,3,0,0,1,2.37-1l.42,0a3.57,3.57,0,0,1,2.72,1.44,6,6,0,0,1,.76,3.45v6.74q0,5-4.92,5t-4.91-5V243h3.42v2.81q0,1.61,1.48,1.61h0q1.49,0,1.49-1.61Z"/><path class="cls-8" d="M1235.91,219.83h-.15v38.63h.15a19.32,19.32,0,1,0,0-38.63Z"/><circle class="cls-6" cx="825.95" cy="239.15" r="19.32"/><path class="cls-7" d="M820.88,245.37a6.64,6.64,0,0,1,3.19-5.49q3.21-2.29,3.22-3.88v-4.66q0-1.61-1.48-1.61h0q-1.49,0-1.49,1.61v3.18h-3.42v-3.18q0-5,4.91-5t4.92,5v4.74a6.71,6.71,0,0,1-3.21,5.57q-3.21,2.29-3.21,4v1.43h6.41v3.38h-9.84Z"/><path class="cls-8" d="M825.95,219.83h-.15v38.63h.15a19.32,19.32,0,1,0,0-38.63Z"/><circle class="cls-6" cx="962.6" cy="239.15" r="39.31"/><path class="cls-7" d="M965.34,223.23q0-3.25-3-3.28h0q-3,0-3,3.28v6.48h-7v-6.48q0-10.15,10-10.15t10,10.15v8.4q0,4.75-3.82,6.72,3.82,2,3.82,6.72v7.71q0,10.15-10,10.15t-10-10.15v-6.48h7v6.48q0,3.28,3,3.28h0q3,0,3-3.28v-7.71q0-2.63-1.11-3.13a5,5,0,0,0-1.82-.25h-2.29v-6.87h2.83a2.93,2.93,0,0,0,1.48-.3q.91-.52.91-3Z"/><path class="cls-8" d="M962.6,199.84h-.31v78.61h.31a39.31,39.31,0,1,0,0-78.62Z"/></g></g></svg>