<svg xmlns="http://www.w3.org/2000/svg" viewBox="0 0 659.65 72.63"><defs><style>.cls-1{isolation:isolate;}.cls-2{fill:#fff;}.cls-3{fill:#4e96b3;stroke:#4e96b3;stroke-miterlimit:10;stroke-width:5px;mix-blend-mode:multiply;}</style></defs><title>game1b_item_zone2_txt</title><g class="cls-1"><g id="Calque_2" data-name="Calque 2"><g id="Calque_9" data-name="Calque 9"><rect class="cls-2" width="404" height="72.63" rx="6.31" ry="6.31" transform="translate(404 72.63) rotate(180)"/></g><g id="Calque_13" data-name="Calque 13"><circle class="cls-3" cx="270.14" cy="18.13" r="11.25"/><path class="cls-2" d="M266,22.26c1.62-1.62,2.74-2.84,3.53-3.64,1.57-1.58,1.76-2.16,1.76-3A1.37,1.37,0,0,0,270,14.12c-.61,0-1.39.29-1.39,1.8h-2.74A4.69,4.69,0,0,1,267,12.48a4.22,4.22,0,0,1,7.06,3.22,4.81,4.81,0,0,1-.9,2.93,45.3,45.3,0,0,1-3.6,3.76h4.55v2.52H266Z"/><path d="M294.19,11.6h2.74v10.8h3.49v2.52h-6.23Z"/><path d="M302.91,11.6h6.48v2.52h-3.75v2.56h3.75V19.2h-3.75v3.21h3.75v2.52h-6.48Z"/><path d="M314.72,20.73c0,1.39.5,2,1.69,2A1.44,1.44,0,0,0,318,21.18c0-1.21-1.44-1.49-2.88-2.05s-2.88-1.4-2.88-3.66a3.83,3.83,0,0,1,4.09-4.14c2.47,0,3.83,1.19,4.23,3.82h-2.67a1.42,1.42,0,0,0-1.46-1.55A1.36,1.36,0,0,0,315,15.06c0,1.26,1.44,1.49,2.88,2.07a3.92,3.92,0,0,1,2.88,4c0,2.5-1.87,4-4.41,4-3,0-4.37-1.64-4.37-4.45Z"/><path d="M338.06,19.76c0,3-1.69,5.42-4.83,5.42-2.92,0-4.82-2.25-4.82-6.91s1.91-6.91,4.82-6.91c3.22,0,4.86,2.43,4.83,5.53h-2.81c-.07-2.38-.76-2.93-1.8-2.93-1.26,0-2.23,1.13-2.23,4.32s1,4.32,2.23,4.32c1.42,0,1.73-1.4,1.8-2.83Z"/><path d="M340.13,18.25c0-4.16,1.62-6.9,4.9-6.9s4.9,2.74,4.9,6.91-1.62,6.91-4.9,6.91-4.9-2.74-4.9-6.91Zm2.81,0c0,3.19.68,4.38,2.09,4.38s2.09-1.19,2.09-4.39-.68-4.39-2.09-4.39-2.09,1.19-2.09,4.39Z"/><path d="M351.85,18.25c0-4.16,1.62-6.9,4.9-6.9s4.9,2.74,4.9,6.91-1.62,6.91-4.9,6.91-4.9-2.74-4.9-6.91Zm2.81,0c0,3.19.69,4.38,2.09,4.38s2.09-1.19,2.09-4.39-.68-4.39-2.09-4.39-2.09,1.19-2.09,4.39Z"/><path d="M364.11,11.6h3.46c1.89,0,3.1.49,3.67,1.17a4.58,4.58,0,0,1,1.08,3.08,4.91,4.91,0,0,1-.4,2,3.58,3.58,0,0,1-1.57,1.75l2.52,5.31h-3.06l-2.93-6.77c.31,0,.47,0,.68,0a2.12,2.12,0,0,0,1.35-.5,2.07,2.07,0,0,0,.59-1.53,1.92,1.92,0,0,0-.63-1.62,2.09,2.09,0,0,0-1.4-.36h-.63v10.8h-2.74Z"/><path d="M374.82,11.6h3.83a4.74,4.74,0,0,1,4.12,2,8.12,8.12,0,0,1,1.31,4.7c0,3.64-1.8,6.66-5.35,6.66h-3.92Zm2.74,10.8h1.19c2.21,0,2.54-2.74,2.54-4.14a6.21,6.21,0,0,0-.61-3,2.09,2.09,0,0,0-2-1.12h-1.1Z"/><path d="M386,18.25c0-4.16,1.62-6.9,4.9-6.9s4.9,2.74,4.9,6.91-1.62,6.91-4.9,6.91-4.9-2.74-4.9-6.91Zm2.81,0c0,3.19.68,4.38,2.09,4.38S393,21.47,393,18.26s-.68-4.39-2.09-4.39-2.09,1.19-2.09,4.39Z"/><path d="M404.52,19.43V11.6h2.41V24.93h-2.45l-3.75-8.53v8.53h-2.41V11.6h2.77Z"/><path d="M416.24,19.43V11.6h2.41V24.93H416.2l-3.74-8.53v8.53H410V11.6h2.77Z"/><path d="M421.83,11.6h6.48v2.52h-3.75v2.56h3.75V19.2h-3.75v3.21h3.75v2.52h-6.48Zm5.6-4.07.92,1.93-4.18,1.85-.83-1.57Z"/><path d="M431.55,11.6H438v2.52h-3.75v2.56H438V19.2h-3.75v3.21H438v2.52h-6.48Z"/><path d="M443.36,20.73c0,1.39.5,2,1.69,2a1.44,1.44,0,0,0,1.55-1.58c0-1.21-1.44-1.49-2.88-2.05s-2.88-1.4-2.88-3.66a3.83,3.83,0,0,1,4.09-4.14c2.47,0,3.83,1.19,4.23,3.82h-2.66A1.42,1.42,0,0,0,445,13.6a1.36,1.36,0,0,0-1.39,1.46c0,1.26,1.44,1.49,2.88,2.07a3.91,3.91,0,0,1,2.88,4c0,2.5-1.87,4-4.41,4-3,0-4.37-1.64-4.37-4.45Z"/><path d="M457.58,11.6h3.83a4.74,4.74,0,0,1,4.12,2,8.12,8.12,0,0,1,1.31,4.7c0,3.64-1.8,6.66-5.35,6.66h-3.92Zm2.74,10.8h1.19c2.21,0,2.54-2.74,2.54-4.14a6.21,6.21,0,0,0-.61-3,2.09,2.09,0,0,0-2-1.12h-1.1Z"/><path d="M469.44,11.6h6.48v2.52h-3.75v2.56h3.75V19.2h-3.75v3.21h3.75v2.52h-6.48Z"/><path d="M482,11.6h2.66l2.21,9.16,2.25-9.16h2.56L488,24.93h-2.41Z"/><path d="M492.79,18.25c0-4.16,1.62-6.9,4.9-6.9s4.9,2.74,4.9,6.91-1.62,6.91-4.9,6.91-4.9-2.74-4.9-6.91Zm2.81,0c0,3.19.69,4.38,2.09,4.38s2.09-1.19,2.09-4.39-.68-4.39-2.09-4.39-2.09,1.19-2.09,4.39Z"/><path d="M506,14.12h-2.23V11.6H511v2.52h-2.23v10.8H506Z"/><path d="M513.22,11.6h3.46c1.89,0,3.1.49,3.67,1.17a4.57,4.57,0,0,1,1.08,3.08,4.91,4.91,0,0,1-.4,2,3.59,3.59,0,0,1-1.57,1.75L522,24.93h-3.06L516,18.16c.31,0,.47,0,.68,0a2.11,2.11,0,0,0,1.35-.5,2.07,2.07,0,0,0,.59-1.53,1.92,1.92,0,0,0-.63-1.62,2.09,2.09,0,0,0-1.4-.36H516v10.8h-2.74Z"/><path d="M524.07,11.6h6.48v2.52h-3.74v2.56h3.74V19.2h-3.74v3.21h3.74v2.52h-6.48Z"/><path d="M539.37,11.6h3.84a4.74,4.74,0,0,1,4.12,2,8.13,8.13,0,0,1,1.31,4.7c0,3.64-1.8,6.66-5.35,6.66h-3.93Zm2.74,10.8h1.19c2.21,0,2.54-2.74,2.54-4.14a6.21,6.21,0,0,0-.61-3,2.09,2.09,0,0,0-2-1.12h-1.1Z"/><path d="M551.23,11.6h6.48v2.52H554v2.56h3.74V19.2H554v3.21h3.74v2.52h-6.48Z"/><path d="M563,20.73c0,1.39.5,2,1.69,2a1.44,1.44,0,0,0,1.55-1.58c0-1.21-1.44-1.49-2.88-2.05s-2.88-1.4-2.88-3.66a3.82,3.82,0,0,1,4.09-4.14c2.47,0,3.83,1.19,4.23,3.82h-2.67a1.41,1.41,0,0,0-1.46-1.55,1.36,1.36,0,0,0-1.39,1.46c0,1.26,1.44,1.49,2.88,2.07a3.92,3.92,0,0,1,2.88,4c0,2.5-1.87,4-4.41,4-3,0-4.37-1.64-4.37-4.45Z"/><path d="M573.05,14.12h-2.23V11.6H578v2.52h-2.23v10.8h-2.74Z"/><path d="M580.27,11.6H583V24.93h-2.74Z"/><path d="M592.24,19.43V11.6h2.41V24.93H592.2l-3.75-8.53v8.53H586V11.6h2.77Z"/><path d="M599.38,24.93h-2.77l3.64-13.32h2.52l3.78,13.32h-2.77l-.68-2.54H600Zm2.16-9.42-.85,4.36h1.69Z"/><path d="M608.58,14.12h-2.23V11.6h7.2v2.52h-2.23v10.8h-2.74Z"/><path d="M616.12,24.93h-2.77L617,11.6h2.52l3.78,13.32h-2.77l-.68-2.54h-3.06Zm2.16-9.42-.85,4.36h1.69Z"/><path d="M625.18,11.6h2.74V24.93h-2.74Z"/><path d="M630.9,11.6h3.46c1.89,0,3.1.49,3.67,1.17a4.58,4.58,0,0,1,1.08,3.08,4.93,4.93,0,0,1-.4,2,3.59,3.59,0,0,1-1.57,1.75l2.52,5.31h-3.06l-2.93-6.77c.31,0,.47,0,.68,0a2.12,2.12,0,0,0,1.35-.5,2.07,2.07,0,0,0,.59-1.53,1.92,1.92,0,0,0-.63-1.62,2.09,2.09,0,0,0-1.4-.36h-.63v10.8H630.9Z"/><path d="M641.75,11.6h6.48v2.52h-3.75v2.56h3.75V19.2h-3.75v3.21h3.75v2.52h-6.48Z"/><path d="M659.65,18.77h-2.41V16.1h2.41Zm0,6.16h-2.41V22.26h2.41Z"/><path d="M229,33.2h1.35V46.53H229Z"/><path d="M233.5,36.73h1.08c0,.56,0,1.06,0,1.67a2.79,2.79,0,0,1,2.77-1.91c1.68,0,2.81,1,2.81,3.35v6.68h-1.21v-6.3c0-1-.14-2.54-1.87-2.54-1.42,0-2.34,1-2.34,3v5.8H233.5Z"/><path d="M249.61,46.53H248.5c0-.9,0-1.44,0-1.94a2.67,2.67,0,0,1-2.59,2.18c-1.94,0-3.28-2.05-3.28-5.11s1.22-5.15,3.28-5.15a2.57,2.57,0,0,1,2.52,2.07c0-.58,0-1.12,0-1.84V33.2h1.21Zm-5.76-4.9c0,2.21.79,3.93,2.29,3.93a1.93,1.93,0,0,0,1.71-1.08,5.42,5.42,0,0,0,.56-2.86,5.42,5.42,0,0,0-.56-2.86,1.94,1.94,0,0,0-1.71-1.06c-1.5,0-2.29,1.69-2.29,3.93Z"/><path d="M252.85,33.2h1.21V35h-1.21Zm0,3.53h1.21v9.79h-1.21Z"/><path d="M263.74,50.15h-1.21V46.53c0-.86,0-1.37,0-1.84a2.63,2.63,0,0,1-2.52,2.07c-2.05,0-3.28-2.12-3.28-5.11s1.33-5.15,3.28-5.15a2.58,2.58,0,0,1,2.56,2.11c0-.59,0-1.13,0-1.87h1.15ZM258,41.65c0,2.21.79,3.93,2.29,3.93A1.93,1.93,0,0,0,262,44.49a5.46,5.46,0,0,0,.56-2.86,5.38,5.38,0,0,0-.56-2.86,1.93,1.93,0,0,0-1.71-1.08c-1.49,0-2.29,1.71-2.29,3.94Z"/><path d="M273.41,46.53h-1.12c0-.56,0-1.1,0-1.71a2.75,2.75,0,0,1-2.74,1.94c-1.67,0-2.81-1-2.81-3.35V36.73H268V43c0,1,.14,2.54,1.87,2.54,1.42,0,2.34-1,2.34-3v-5.8h1.21Z"/><path d="M277.28,42c0,2,.83,3.64,2.48,3.64a2.23,2.23,0,0,0,2.2-1.94h1.19a3.91,3.91,0,0,1-1.22,2.3,3.27,3.27,0,0,1-2.16.77c-2.7,0-3.75-2.59-3.75-5.11,0-3,1.4-5.15,3.71-5.15a3,3,0,0,1,2.63,1.39,7.12,7.12,0,0,1,.9,4.11ZM282,40.93c0-2-.88-3.4-2.36-3.4s-2.36,1.46-2.39,3.4Z"/><path d="M285,45.41l4.7-7.54h-4.39V36.73h5.83v1.15l-4.68,7.51h4.84v1.13H285Z"/><path d="M298.9,33.2h1.21V35H298.9Zm0,3.53h1.21v9.79H298.9Z"/><path d="M309.79,43.2c-.22,2-1.3,3.57-3.24,3.57-2.61,0-3.78-2.45-3.78-5.11,0-3.21,1.51-5.15,3.73-5.15,2,0,3.15,1.55,3.24,3.62h-1.22c-.2-1.94-1.13-2.48-2.05-2.48a1.9,1.9,0,0,0-1.78,1,5.8,5.8,0,0,0-.63,3c0,2.57.88,4,2.43,4,1.21,0,1.89-1,2.07-2.43Z"/><path d="M312.22,33.2h1.21V35h-1.21Zm0,3.53h1.21v9.79h-1.21Z"/><path d="M321.86,33.2h1.21V46.53h-1.21Z"/><path d="M327.08,42c0,2,.83,3.64,2.49,3.64a2.23,2.23,0,0,0,2.2-1.94H333a3.92,3.92,0,0,1-1.22,2.3,3.27,3.27,0,0,1-2.16.77c-2.7,0-3.75-2.59-3.75-5.11,0-3,1.4-5.15,3.71-5.15a3,3,0,0,1,2.63,1.39,7.11,7.11,0,0,1,.9,4.11Zm4.75-1.06c0-2-.88-3.4-2.36-3.4s-2.36,1.46-2.4,3.4Z"/><path d="M344.63,39.27c0-1.24-.65-1.69-1.58-1.69A1.38,1.38,0,0,0,341.63,39c0,1.1.92,1.49,2.11,1.85a2.86,2.86,0,0,1,2.34,3,2.81,2.81,0,0,1-2.92,2.92,2.9,2.9,0,0,1-3.06-3.11h1.19a1.79,1.79,0,0,0,1.87,2,1.57,1.57,0,0,0,1.66-1.71c0-1.19-.83-1.66-2.14-2.07s-2.3-1-2.3-2.79a2.73,2.73,0,0,1,5.46.2Z"/><path d="M349.44,42c0,2,.83,3.64,2.48,3.64a2.23,2.23,0,0,0,2.2-1.94h1.19a3.91,3.91,0,0,1-1.22,2.3,3.27,3.27,0,0,1-2.16.77c-2.7,0-3.75-2.59-3.75-5.11,0-3,1.4-5.15,3.71-5.15a3,3,0,0,1,2.63,1.39,7.12,7.12,0,0,1,.9,4.11Zm4.75-1.06c0-2-.88-3.4-2.36-3.4s-2.36,1.46-2.39,3.4Z"/><path d="M358,36.73h1.12c0,.9,0,1.46,0,2.05a2.66,2.66,0,0,1,2.61-2.29v1.4a.81.81,0,0,0-.45-.13c-.83,0-2,1-2,3.49v5.26H358Z"/><path d="M366.92,46.53h-1.21l-3-9.79H364l2.32,8.17,2.25-8.17h1.21Z"/><path d="M371.83,33.2H373V35h-1.21Zm0,3.53H373v9.79h-1.21Z"/><path d="M382.72,43.2c-.22,2-1.3,3.57-3.24,3.57-2.61,0-3.78-2.45-3.78-5.11,0-3.21,1.51-5.15,3.73-5.15,2,0,3.15,1.55,3.24,3.62h-1.22c-.2-1.94-1.13-2.48-2.05-2.48a1.9,1.9,0,0,0-1.78,1,5.8,5.8,0,0,0-.63,3c0,2.57.88,4,2.43,4,1.21,0,1.89-1,2.07-2.43Z"/><path d="M385.78,42c0,2,.83,3.64,2.49,3.64a2.23,2.23,0,0,0,2.2-1.94h1.19a3.92,3.92,0,0,1-1.22,2.3,3.27,3.27,0,0,1-2.16.77c-2.7,0-3.75-2.59-3.75-5.11,0-3,1.4-5.15,3.71-5.15a3,3,0,0,1,2.63,1.39,7.11,7.11,0,0,1,.9,4.11Zm4.75-1.06c0-2-.88-3.4-2.36-3.4s-2.36,1.46-2.4,3.4Z"/><path d="M405.83,43.2c-.22,2-1.3,3.57-3.24,3.57-2.61,0-3.78-2.45-3.78-5.11,0-3.21,1.51-5.15,3.73-5.15,2,0,3.15,1.55,3.24,3.62h-1.22c-.2-1.94-1.13-2.48-2.05-2.48a1.9,1.9,0,0,0-1.78,1,5.8,5.8,0,0,0-.63,3c0,2.57.88,4,2.43,4,1.21,0,1.89-1,2.07-2.43Z"/><path d="M407.6,41.61c0-2.79,1.15-5.11,3.78-5.11s3.76,2.32,3.76,5.13-1.15,5.13-3.76,5.13-3.78-2.32-3.78-5.13Zm1.26,0c0,2.59.85,4,2.54,4s2.49-1.39,2.49-4-.85-4-2.52-4-2.5,1.39-2.5,4Z"/><path d="M417.71,36.73h1.08c0,.56,0,1.06,0,1.67a2.79,2.79,0,0,1,2.77-1.91c1.67,0,2.81,1,2.81,3.35v6.68h-1.21v-6.3c0-1-.14-2.54-1.87-2.54-1.42,0-2.34,1-2.34,3v5.8h-1.21Z"/><path d="M433.82,43.2c-.22,2-1.3,3.57-3.24,3.57-2.61,0-3.78-2.45-3.78-5.11,0-3.21,1.51-5.15,3.73-5.15,2,0,3.15,1.55,3.24,3.62h-1.22c-.2-1.94-1.13-2.48-2.05-2.48a1.9,1.9,0,0,0-1.78,1,5.81,5.81,0,0,0-.63,3c0,2.57.88,4,2.43,4,1.21,0,1.89-1,2.07-2.43Z"/><path d="M436.88,42c0,2,.83,3.64,2.49,3.64a2.23,2.23,0,0,0,2.2-1.94h1.19a3.92,3.92,0,0,1-1.22,2.3,3.27,3.27,0,0,1-2.16.77c-2.7,0-3.75-2.59-3.75-5.11,0-3,1.4-5.15,3.71-5.15A3,3,0,0,1,442,37.88a7.11,7.11,0,0,1,.9,4.11Zm4.75-1.06c0-2-.88-3.4-2.36-3.4s-2.36,1.46-2.4,3.4Z"/><path d="M445.43,36.73h1.12c0,.9,0,1.46,0,2.05a2.65,2.65,0,0,1,2.61-2.29v1.4a.82.82,0,0,0-.45-.13c-.83,0-2,1-2,3.49v5.26h-1.21Z"/><path d="M451.14,36.73h1.08c0,.56,0,1.06,0,1.67A2.79,2.79,0,0,1,455,36.5c1.67,0,2.81,1,2.81,3.35v6.68h-1.21v-6.3c0-1-.14-2.54-1.87-2.54-1.42,0-2.34,1-2.34,3v5.8h-1.21Z"/><path d="M461.58,42c0,2,.83,3.64,2.49,3.64a2.23,2.23,0,0,0,2.2-1.94h1.19a3.92,3.92,0,0,1-1.22,2.3,3.27,3.27,0,0,1-2.16.77c-2.7,0-3.75-2.59-3.75-5.11,0-3,1.4-5.15,3.71-5.15a3,3,0,0,1,2.63,1.39,7.11,7.11,0,0,1,.9,4.11Zm4.75-1.06c0-2-.88-3.4-2.36-3.4s-2.36,1.46-2.4,3.4ZM466,32.68l.5,1-4,2.14-.45-.85Z"/><path d="M470.51,48h-1.06l1.19-3.4h1.21Z"/><path d="M477.92,41.61c0-2.79,1.15-5.11,3.78-5.11s3.76,2.32,3.76,5.13-1.15,5.13-3.76,5.13-3.78-2.32-3.78-5.13Zm1.26,0c0,2.59.85,4,2.54,4s2.48-1.39,2.48-4-.85-4-2.52-4-2.5,1.39-2.5,4Z"/><path d="M494.61,46.53h-1.12c0-.56,0-1.1,0-1.71a2.75,2.75,0,0,1-2.74,1.94c-1.68,0-2.81-1-2.81-3.35V36.73h1.21V43c0,1,.14,2.54,1.87,2.54,1.42,0,2.34-1,2.34-3v-5.8h1.21Z"/><path d="M502.91,33.2h1.21V46.53h-1.21Z"/><path d="M508.13,42c0,2,.83,3.64,2.48,3.64a2.23,2.23,0,0,0,2.2-1.94H514a3.92,3.92,0,0,1-1.22,2.3,3.28,3.28,0,0,1-2.16.77c-2.7,0-3.74-2.59-3.74-5.11,0-3,1.4-5.15,3.71-5.15a3,3,0,0,1,2.63,1.39,7.13,7.13,0,0,1,.9,4.11Zm4.75-1.06c0-2-.88-3.4-2.36-3.4s-2.36,1.46-2.39,3.4Z"/><path d="M521.73,36.73h1.08c0,.56,0,1.06,0,1.67a2.79,2.79,0,0,1,2.77-1.91c1.67,0,2.81,1,2.81,3.35v6.68h-1.21v-6.3c0-1-.14-2.54-1.87-2.54-1.42,0-2.34,1-2.34,3v5.8h-1.21Z"/><path d="M530.88,41.61c0-2.79,1.15-5.11,3.78-5.11s3.76,2.32,3.76,5.13-1.15,5.13-3.76,5.13-3.78-2.32-3.78-5.13Zm1.26,0c0,2.59.85,4,2.54,4s2.48-1.39,2.48-4-.85-4-2.52-4-2.5,1.39-2.5,4Z"/><path d="M541,36.73h1.15c0,.5,0,1,0,1.6a2.42,2.42,0,0,1,2.48-1.84,2.32,2.32,0,0,1,1.71.67,2.28,2.28,0,0,1,.54,1.17,2.67,2.67,0,0,1,.81-1.24,3,3,0,0,1,1.8-.59,2.52,2.52,0,0,1,2.29,1.26,5.89,5.89,0,0,1,.45,2.68v6.09H551v-6a5.9,5.9,0,0,0-.2-1.82,1.5,1.5,0,0,0-1.49-1,1.79,1.79,0,0,0-1.58.79,3.83,3.83,0,0,0-.52,2.14v5.91H546V40.58a5.87,5.87,0,0,0-.2-1.87,1.48,1.48,0,0,0-1.48-1,1.85,1.85,0,0,0-1.58.76,3.85,3.85,0,0,0-.52,2.21v5.87H541Z"/><path d="M561.14,42c0,2,.83,3.64,2.48,3.64a2.23,2.23,0,0,0,2.2-1.94H567a3.92,3.92,0,0,1-1.22,2.3,3.28,3.28,0,0,1-2.16.77c-2.7,0-3.74-2.59-3.74-5.11,0-3,1.4-5.15,3.71-5.15a3,3,0,0,1,2.63,1.39,7.13,7.13,0,0,1,.9,4.11Zm4.75-1.06c0-2-.88-3.4-2.36-3.4s-2.36,1.46-2.39,3.4Z"/><path d="M570.15,37.87h-1.37V36.73h1.37v-3.1h1.21v3.1h1.35v1.13h-1.35v8.66h-1.21Z"/><path d="M580.11,33.2h1.21V46.53h-1.21Z"/><path d="M591,46.53h-1.12c0-.86,0-1.4,0-1.87a2.69,2.69,0,0,1-2.59,2.11c-1.94,0-3.28-2.05-3.28-5.11s1.22-5.15,3.28-5.15a2.64,2.64,0,0,1,2.59,2.12c0-.59,0-1.15,0-1.89H591Zm-5.76-4.88c0,2.21.79,3.93,2.29,3.93a1.93,1.93,0,0,0,1.71-1.08,5.46,5.46,0,0,0,.56-2.86,5.38,5.38,0,0,0-.56-2.86,1.93,1.93,0,0,0-1.71-1.08c-1.49,0-2.29,1.71-2.29,3.94Z"/><path d="M599.4,37.87h-1.1V36.73h1.1V36a2.71,2.71,0,0,1,2.92-3V34c-.9.05-1.71.49-1.71,2.07v.63h1.71v1.13h-1.71v8.66H599.4Z"/><path d="M603.47,41.61c0-2.79,1.15-5.11,3.78-5.11S611,38.82,611,41.63s-1.15,5.13-3.76,5.13-3.78-2.32-3.78-5.13Zm1.26,0c0,2.59.85,4,2.54,4s2.48-1.39,2.48-4-.85-4-2.52-4-2.5,1.39-2.5,4Z"/><path d="M613.59,36.73h1.08c0,.56,0,1.06,0,1.67a2.79,2.79,0,0,1,2.77-1.91c1.67,0,2.81,1,2.81,3.35v6.68H619v-6.3c0-1-.14-2.54-1.87-2.54-1.42,0-2.34,1-2.34,3v5.8h-1.21Z"/><path d="M629.7,43.2c-.22,2-1.3,3.57-3.24,3.57-2.61,0-3.78-2.45-3.78-5.11,0-3.21,1.51-5.15,3.73-5.15,2,0,3.15,1.55,3.24,3.62h-1.22c-.2-1.94-1.13-2.48-2.05-2.48a1.9,1.9,0,0,0-1.78,1,5.8,5.8,0,0,0-.63,3c0,2.57.88,4,2.43,4,1.21,0,1.89-1,2.07-2.43Z"/><path d="M632.45,37.87h-1.37V36.73h1.37v-3.1h1.21v3.1H635v1.13h-1.35v8.66h-1.21Z"/><path d="M637.35,33.2h1.21V35h-1.21Zm0,3.53h1.21v9.79h-1.21Z"/><path d="M641.27,41.61c0-2.79,1.15-5.11,3.78-5.11s3.76,2.32,3.76,5.13-1.15,5.13-3.76,5.13-3.78-2.32-3.78-5.13Zm1.26,0c0,2.59.85,4,2.54,4s2.49-1.39,2.49-4-.85-4-2.52-4-2.5,1.39-2.5,4Z"/><path d="M651.39,36.73h1.08c0,.56,0,1.06,0,1.67a2.79,2.79,0,0,1,2.77-1.91c1.67,0,2.81,1,2.81,3.35v6.68h-1.21v-6.3c0-1-.14-2.54-1.87-2.54-1.42,0-2.34,1-2.34,3v5.8h-1.21Z"/><path d="M390.44,68.13h-1.12c0-.9,0-1.44,0-1.94a2.67,2.67,0,0,1-2.59,2.18c-1.95,0-3.28-2.05-3.28-5.11s1.22-5.15,3.28-5.15a2.58,2.58,0,0,1,2.52,2.07c0-.58,0-1.12,0-1.84V54.8h1.21Zm-5.76-4.9c0,2.21.79,3.93,2.29,3.93a1.92,1.92,0,0,0,1.71-1.08,5.42,5.42,0,0,0,.56-2.86,5.42,5.42,0,0,0-.56-2.86A1.94,1.94,0,0,0,387,59.29c-1.49,0-2.29,1.69-2.29,3.93Z"/><path d="M400.11,68.13H399c0-.56,0-1.1,0-1.71a2.75,2.75,0,0,1-2.74,1.94c-1.67,0-2.81-1-2.81-3.35V58.33h1.21v6.3c0,1,.14,2.54,1.87,2.54,1.42,0,2.34-1,2.34-3v-5.8h1.21Z"/><path d="M414.71,68.13h-1.12c0-.9,0-1.44,0-1.94A2.67,2.67,0,0,1,411,68.36c-1.95,0-3.28-2.05-3.28-5.11S409,58.1,411,58.1a2.58,2.58,0,0,1,2.52,2.07c0-.58,0-1.12,0-1.84V54.8h1.21Zm-5.76-4.9c0,2.21.79,3.93,2.29,3.93a1.92,1.92,0,0,0,1.71-1.08,5.42,5.42,0,0,0,.56-2.86,5.42,5.42,0,0,0-.56-2.86,1.94,1.94,0,0,0-1.71-1.06c-1.49,0-2.29,1.69-2.29,3.93Z"/><path d="M418.57,63.59c0,2,.83,3.64,2.48,3.64a2.23,2.23,0,0,0,2.2-1.94h1.19a3.92,3.92,0,0,1-1.22,2.3,3.28,3.28,0,0,1-2.16.77c-2.7,0-3.74-2.59-3.74-5.11,0-3,1.4-5.15,3.71-5.15a3,3,0,0,1,2.63,1.39,7.13,7.13,0,0,1,.9,4.11Zm4.75-1.06c0-2-.88-3.4-2.36-3.4s-2.36,1.46-2.39,3.4Z"/><path d="M431.07,60.87c0-1.24-.65-1.69-1.58-1.69a1.38,1.38,0,0,0-1.42,1.46c0,1.1.92,1.49,2.11,1.85a2.86,2.86,0,0,1,2.34,3,2.81,2.81,0,0,1-2.92,2.92,2.9,2.9,0,0,1-3.06-3.11h1.19a1.79,1.79,0,0,0,1.87,2,1.57,1.57,0,0,0,1.66-1.71c0-1.19-.83-1.66-2.14-2.07s-2.3-1-2.3-2.79a2.73,2.73,0,0,1,5.46.2Z"/><path d="M435.57,59.47H434.2V58.33h1.37v-3.1h1.21v3.1h1.35v1.13h-1.35v8.66h-1.21Z"/><path d="M440.46,54.8h1.21v1.76h-1.21Zm0,3.53h1.21v9.79h-1.21Z"/><path d="M444.91,58.33H446c0,.56,0,1.06,0,1.67a2.79,2.79,0,0,1,2.77-1.91c1.68,0,2.81,1,2.81,3.35v6.68h-1.21v-6.3c0-1-.14-2.54-1.87-2.54-1.42,0-2.34,1-2.34,3v5.8h-1.21Z"/><path d="M461,68.13H459.9c0-.86,0-1.4,0-1.87a2.69,2.69,0,0,1-2.59,2.11c-1.94,0-3.28-2.05-3.28-5.11s1.22-5.15,3.28-5.15a2.64,2.64,0,0,1,2.59,2.12c0-.59,0-1.15,0-1.89H461Zm-5.76-4.88c0,2.21.79,3.93,2.29,3.93a1.93,1.93,0,0,0,1.71-1.08,5.46,5.46,0,0,0,.56-2.86,5.38,5.38,0,0,0-.56-2.86,1.93,1.93,0,0,0-1.71-1.08c-1.49,0-2.29,1.71-2.29,3.94Z"/><path d="M464.58,59.47h-1.37V58.33h1.37v-3.1h1.21v3.1h1.35v1.13h-1.35v8.66h-1.21Z"/><path d="M475.55,68.13h-1.12c0-.86,0-1.4,0-1.87a2.69,2.69,0,0,1-2.59,2.11c-1.95,0-3.28-2.05-3.28-5.11s1.22-5.15,3.28-5.15a2.64,2.64,0,0,1,2.59,2.12c0-.59,0-1.15,0-1.89h1.12Zm-5.76-4.88c0,2.21.79,3.93,2.29,3.93a1.93,1.93,0,0,0,1.71-1.08,5.46,5.46,0,0,0,.56-2.86,5.38,5.38,0,0,0-.56-2.86,1.93,1.93,0,0,0-1.71-1.08c-1.49,0-2.29,1.71-2.29,3.94Z"/><path d="M478.78,54.8H480v1.76h-1.21Zm0,3.53H480v9.79h-1.21Z"/><path d="M483.23,58.33h1.12c0,.9,0,1.46,0,2.05a2.65,2.65,0,0,1,2.61-2.29v1.4a.81.81,0,0,0-.45-.13c-.83,0-2,1-2,3.49v5.26h-1.21Z"/><path d="M489.49,63.59c0,2,.83,3.64,2.48,3.64a2.23,2.23,0,0,0,2.2-1.94h1.19a3.92,3.92,0,0,1-1.22,2.3,3.28,3.28,0,0,1-2.16.77c-2.7,0-3.74-2.59-3.74-5.11,0-3,1.4-5.15,3.71-5.15a3,3,0,0,1,2.63,1.39,7.13,7.13,0,0,1,.9,4.11Zm4.75-1.06c0-2-.88-3.4-2.36-3.4s-2.36,1.46-2.39,3.4Z"/><path d="M499.5,68.13h-1.22V66.22h1.22Z"/><path d="M505.84,68.13h-1.39l3.8-13.32h1.33l3.85,13.32h-1.37l-1.13-3.94h-4Zm3.1-11.58L507.3,63h3.28Z"/><path d="M516.6,68.25c0,1.6-.36,3.26-2.05,3.53a3.48,3.48,0,0,1-.43,0V70.65a1.15,1.15,0,0,0,.16,0c.94-.22,1.12-1.12,1.12-2.5V58.33h1.21ZM515.4,54.8h1.21v1.78H515.4Z"/><path d="M519.32,63.21c0-2.79,1.15-5.11,3.78-5.11s3.76,2.32,3.76,5.13-1.15,5.13-3.76,5.13-3.78-2.32-3.78-5.13Zm1.26,0c0,2.59.85,4,2.54,4s2.48-1.39,2.48-4-.85-4-2.52-4-2.5,1.39-2.5,4Z"/><path d="M536,68.13h-1.12c0-.56,0-1.1,0-1.71a2.75,2.75,0,0,1-2.74,1.94c-1.68,0-2.81-1-2.81-3.35V58.33h1.21v6.3c0,1,.14,2.54,1.87,2.54,1.42,0,2.34-1,2.34-3v-5.8H536Z"/><path d="M539.57,59.47H538.2V58.33h1.37v-3.1h1.21v3.1h1.35v1.13h-1.35v8.66h-1.21Z"/><path d="M544.86,63.59c0,2,.83,3.64,2.49,3.64a2.23,2.23,0,0,0,2.2-1.94h1.19a3.92,3.92,0,0,1-1.22,2.3,3.28,3.28,0,0,1-2.16.77c-2.7,0-3.75-2.59-3.75-5.11,0-3,1.4-5.15,3.71-5.15a3,3,0,0,1,2.63,1.39,7.12,7.12,0,0,1,.9,4.11Zm4.75-1.06c0-2-.88-3.4-2.36-3.4s-2.36,1.46-2.4,3.4Z"/><path d="M552.58,67l4.7-7.54h-4.39V58.33h5.83v1.15L554,67h4.84v1.13h-6.3Z"/><path d="M570.28,60.87c0-1.24-.65-1.69-1.58-1.69a1.38,1.38,0,0,0-1.42,1.46c0,1.1.92,1.49,2.11,1.85a2.86,2.86,0,0,1,2.34,3,2.81,2.81,0,0,1-2.92,2.92,2.89,2.89,0,0,1-3.06-3.11h1.19a1.8,1.8,0,0,0,1.87,2,1.57,1.57,0,0,0,1.66-1.71c0-1.19-.83-1.66-2.14-2.07s-2.3-1-2.3-2.79a2.73,2.73,0,0,1,5.46.2Z"/><path d="M573.79,63.21c0-2.79,1.15-5.11,3.78-5.11s3.76,2.32,3.76,5.13-1.15,5.13-3.76,5.13-3.78-2.32-3.78-5.13Zm1.26,0c0,2.59.85,4,2.54,4s2.49-1.39,2.49-4-.85-4-2.52-4-2.5,1.39-2.5,4Z"/><path d="M583.9,58.33H585c0,.56,0,1.06,0,1.67a2.79,2.79,0,0,1,2.77-1.91c1.67,0,2.81,1,2.81,3.35v6.68h-1.21v-6.3c0-1-.14-2.54-1.87-2.54-1.42,0-2.34,1-2.34,3v5.8H583.9Z"/><path d="M605.07,68.13H604c0-.86,0-1.4,0-1.87a2.69,2.69,0,0,1-2.59,2.11c-1.95,0-3.28-2.05-3.28-5.11s1.22-5.15,3.28-5.15A2.64,2.64,0,0,1,604,60.22c0-.59,0-1.15,0-1.89h1.12Zm-5.76-4.88c0,2.21.79,3.93,2.29,3.93a1.93,1.93,0,0,0,1.71-1.08,5.46,5.46,0,0,0,.56-2.86,5.38,5.38,0,0,0-.56-2.86,1.93,1.93,0,0,0-1.71-1.08c-1.49,0-2.29,1.71-2.29,3.94Z"/><path d="M614.61,68.13H613.5c0-.9,0-1.44,0-1.94a2.67,2.67,0,0,1-2.59,2.18c-1.94,0-3.28-2.05-3.28-5.11s1.22-5.15,3.28-5.15a2.58,2.58,0,0,1,2.52,2.07c0-.58,0-1.12,0-1.84V54.8h1.21Zm-5.76-4.9c0,2.21.79,3.93,2.29,3.93a1.93,1.93,0,0,0,1.71-1.08,5.42,5.42,0,0,0,.56-2.86,5.42,5.42,0,0,0-.56-2.86,1.94,1.94,0,0,0-1.71-1.06c-1.5,0-2.29,1.69-2.29,3.93Z"/><path d="M617.71,58.33h1.12c0,.9,0,1.46,0,2.05a2.65,2.65,0,0,1,2.61-2.29v1.4a.82.82,0,0,0-.45-.13c-.83,0-2,1-2,3.49v5.26h-1.21Z"/><path d="M624,63.59c0,2,.83,3.64,2.49,3.64a2.23,2.23,0,0,0,2.2-1.94h1.19a3.92,3.92,0,0,1-1.22,2.3,3.28,3.28,0,0,1-2.16.77c-2.7,0-3.75-2.59-3.75-5.11,0-3,1.4-5.15,3.71-5.15A3,3,0,0,1,629,59.48a7.12,7.12,0,0,1,.9,4.11Zm4.75-1.06c0-2-.88-3.4-2.36-3.4s-2.36,1.46-2.4,3.4Z"/><path d="M636.46,60.87c0-1.24-.65-1.69-1.58-1.69a1.38,1.38,0,0,0-1.42,1.46c0,1.1.92,1.49,2.11,1.85a2.86,2.86,0,0,1,2.34,3A2.81,2.81,0,0,1,635,68.36a2.9,2.9,0,0,1-3.06-3.11h1.19a1.79,1.79,0,0,0,1.87,2,1.57,1.57,0,0,0,1.66-1.71c0-1.19-.83-1.66-2.14-2.07s-2.3-1-2.3-2.79a2.73,2.73,0,0,1,5.46.2Z"/><path d="M644.44,60.87c0-1.24-.65-1.69-1.58-1.69a1.38,1.38,0,0,0-1.42,1.46c0,1.1.92,1.49,2.11,1.85a2.86,2.86,0,0,1,2.34,3A2.81,2.81,0,0,1,643,68.36a2.9,2.9,0,0,1-3.06-3.11h1.19a1.79,1.79,0,0,0,1.87,2,1.57,1.57,0,0,0,1.66-1.71c0-1.19-.83-1.66-2.14-2.07s-2.3-1-2.3-2.79a2.73,2.73,0,0,1,5.46.2Z"/><path d="M649.24,63.59c0,2,.83,3.64,2.49,3.64a2.23,2.23,0,0,0,2.2-1.94h1.19a3.92,3.92,0,0,1-1.22,2.3,3.27,3.27,0,0,1-2.16.77c-2.7,0-3.75-2.59-3.75-5.11,0-3,1.4-5.15,3.71-5.15a3,3,0,0,1,2.63,1.39,7.11,7.11,0,0,1,.9,4.11ZM654,62.53c0-2-.88-3.4-2.36-3.4s-2.36,1.46-2.4,3.4Z"/><path d="M659.25,68.13H658V66.22h1.22Z"/></g></g></g></svg>