<svg xmlns="http://www.w3.org/2000/svg" viewBox="0 0 1920 1080"><defs><style>.cls-1{fill:#8cc63f;}.cls-2{fill:#fff;}</style></defs><title>game4f2</title><g id="contenu"><path class="cls-1" d="M685.56,580.12h428a0,0,0,0,1,0,0v60.16A20.59,20.59,0,0,1,1093,660.87H685.56A20.59,20.59,0,0,1,665,640.28V600.71A20.59,20.59,0,0,1,685.56,580.12Z"/><path class="cls-1" d="M683.56,690.09H912.28a0,0,0,0,1,0,0v60.16a20.59,20.59,0,0,1-20.59,20.59H683.56A20.59,20.59,0,0,1,663,750.24V710.67A20.59,20.59,0,0,1,683.56,690.09Z"/><path class="cls-2" d="M675.56,607.16h3.84L684,625l4.61-17.86h3.71l-6.62,23.68h-3.52Z"/><path class="cls-2" d="M693.58,621.88c0-5.12,2.18-9.31,6.91-9.31s6.88,4.19,6.88,9.34-2.18,9.31-6.88,9.31-6.91-4.19-6.91-9.31Zm3.65.06c0,4.38,1.18,6,3.3,6s3.2-1.66,3.2-6.08-1.18-6.08-3.29-6.08-3.2,1.63-3.2,6.08Z"/><path class="cls-2" d="M712.27,616.22h-2.14V613h2.14V608.7h3.46V613h2.11v3.26h-2.11v14.62h-3.46Z"/><path class="cls-2" d="M721.48,613h3.17c0,1.09,0,2,0,2.88.74-2.72,2.59-3.26,4.64-3.26v4.19a2.58,2.58,0,0,0-1.47-.42c-1.57,0-2.85,1.54-2.85,4.38v10.11h-3.46Z"/><path class="cls-2" d="M735.24,623.1c0,2.5.86,4.9,3.17,4.9,1.5,0,2.53-1,2.88-2.72h3.42a7.27,7.27,0,0,1-2.43,4.7,6.41,6.41,0,0,1-3.87,1.25c-4.77,0-6.88-4.35-6.88-9.31,0-5.31,2.33-9.34,6.85-9.34a5.66,5.66,0,0,1,5.06,2.72c1.38,2.24,1.5,5.12,1.44,7.81Zm6.18-3c0-2-.74-4.67-3-4.67-1.89,0-3.13,1.76-3.13,4.67Z"/><path class="cls-2" d="M770.7,624.31c-.13,3.65-2,6.91-5.79,6.91-4.45,0-6.91-3.74-6.91-9.31,0-5.92,2.69-9.34,6.88-9.34,3.81,0,5.73,3.23,5.79,7h-3.58c-.13-2.69-1.12-3.71-2.46-3.71a2.24,2.24,0,0,0-2.18,1.41,10.21,10.21,0,0,0-.8,4.67c0,4.29,1.09,6.08,3,6.08,1.6,0,2.34-1.57,2.46-3.68Z"/><path class="cls-2" d="M773.61,621.88c0-5.12,2.18-9.31,6.91-9.31s6.88,4.19,6.88,9.34-2.18,9.31-6.88,9.31-6.91-4.19-6.91-9.31Zm3.65.06c0,4.38,1.18,6,3.3,6s3.2-1.66,3.2-6.08-1.18-6.08-3.29-6.08-3.2,1.63-3.2,6.08Z"/><path class="cls-2" d="M791.82,613h3.3c0,.8,0,1.57,0,2.4a3.73,3.73,0,0,1,4-2.78,3.93,3.93,0,0,1,2.78,1,3.49,3.49,0,0,1,.9,1.5,4,4,0,0,1,1.28-1.6,5.68,5.68,0,0,1,3.07-.86,4.8,4.8,0,0,1,4.1,2,7.19,7.19,0,0,1,1.12,4.22v12.09h-3.46V619.26a4.37,4.37,0,0,0-.42-2.24,2,2,0,0,0-1.92-1,2.42,2.42,0,0,0-2,.77,3.54,3.54,0,0,0-.7,2.37v11.68h-3.46V619.29a4.58,4.58,0,0,0-.42-2.27,1.94,1.94,0,0,0-1.89-1,2.52,2.52,0,0,0-2,.74,3.72,3.72,0,0,0-.7,2.43v11.65h-3.49Z"/><path class="cls-2" d="M817.58,613h3.17v2.34a3.92,3.92,0,0,1,3.9-2.72c3.36,0,5.79,3.2,5.79,9.34,0,5.82-2.08,9.31-5.79,9.31a3.8,3.8,0,0,1-3.62-2.43v8.06h-3.46Zm9.41,8.93c0-4-1.06-5.86-3-5.86a2.39,2.39,0,0,0-2.11,1.22c-.64.86-.83,2-.83,4.67s.19,3.78.83,4.64A2.36,2.36,0,0,0,824,627.8c2,0,3-1.89,3-5.89Z"/><path class="cls-2" d="M834.73,613h3.17c0,1.09,0,2,0,2.88.74-2.72,2.59-3.26,4.64-3.26v4.19a2.59,2.59,0,0,0-1.47-.42c-1.57,0-2.85,1.54-2.85,4.38v10.11h-3.46Z"/><path class="cls-2" d="M848.49,623.1c0,2.5.86,4.9,3.17,4.9,1.5,0,2.53-1,2.88-2.72H858a7.28,7.28,0,0,1-2.43,4.7,6.41,6.41,0,0,1-3.87,1.25c-4.77,0-6.88-4.35-6.88-9.31,0-5.31,2.33-9.34,6.85-9.34a5.66,5.66,0,0,1,5.06,2.72c1.38,2.24,1.5,5.12,1.44,7.81Zm6.94-17.66,1.34,2.78-7.33,3.49-1.22-2.27Zm-.77,14.69c0-2-.74-4.67-3-4.67-1.89,0-3.14,1.76-3.14,4.67Z"/><path class="cls-2" d="M862.54,607.16H866v5.5c0,.7,0,1.34,0,2.08.51-1.31,1.63-2.18,3.81-2.18a4.51,4.51,0,0,1,3.65,1.5,6.22,6.22,0,0,1,1.21,4.22v12.54h-3.46V619.32a4.16,4.16,0,0,0-.54-2.43,2,2,0,0,0-1.82-.86,2.49,2.49,0,0,0-2,.83,3.57,3.57,0,0,0-.77,2.62v11.36h-3.46Z"/><path class="cls-2" d="M882.73,623.1c0,2.5.86,4.9,3.17,4.9,1.5,0,2.53-1,2.88-2.72h3.42a7.27,7.27,0,0,1-2.43,4.7,6.41,6.41,0,0,1-3.87,1.25c-4.77,0-6.88-4.35-6.88-9.31,0-5.31,2.33-9.34,6.85-9.34a5.66,5.66,0,0,1,5.06,2.72c1.38,2.24,1.5,5.12,1.44,7.81Zm6.18-3c0-2-.74-4.67-3-4.67-1.89,0-3.13,1.76-3.13,4.67Z"/><path class="cls-2" d="M896.78,613h3c0,.74,0,1.44,0,2.21a4.18,4.18,0,0,1,4.26-2.59c2.94,0,4.83,1.63,4.83,5.54v12.74h-3.46V619.22c0-1.44-.29-3.2-2.4-3.2-1.66,0-2.78,1-2.78,3.36v11.46h-3.46Z"/><path class="cls-2" d="M920.94,618c0-1.7-.83-2.43-2.27-2.43a1.78,1.78,0,0,0-1.92,1.86c0,1.73,1.89,2,4,2.69s4.13,1.82,4.13,5.44a5.63,5.63,0,0,1-6,5.66c-3.36,0-5.89-1.89-6.17-5.92h3.46a2.67,2.67,0,0,0,2.78,2.78,2.1,2.1,0,0,0,2.24-2.3c0-1.79-1.86-2.21-4-2.91s-4.1-1.89-4.1-5.31c0-2.91,2.08-5,5.7-5s5.41,2,5.6,5.44Z"/><path class="cls-2" d="M929.38,607.16h3.46v3.42h-3.46Zm0,5.79h3.46v17.89h-3.46Z"/><path class="cls-2" d="M937.51,621.88c0-5.12,2.18-9.31,6.91-9.31s6.88,4.19,6.88,9.34-2.18,9.31-6.88,9.31-6.91-4.19-6.91-9.31Zm3.65.06c0,4.38,1.18,6,3.3,6s3.2-1.66,3.2-6.08-1.18-6.08-3.29-6.08-3.2,1.63-3.2,6.08Z"/><path class="cls-2" d="M955.59,613h3c0,.74,0,1.44,0,2.21a4.18,4.18,0,0,1,4.26-2.59c2.94,0,4.83,1.63,4.83,5.54v12.74h-3.46V619.22c0-1.44-.29-3.2-2.4-3.2-1.66,0-2.78,1-2.78,3.36v11.46h-3.46Z"/><path class="cls-2" d="M994.54,630.84h-3.17c0-1.06,0-1.82,0-2.59a3.92,3.92,0,0,1-3.94,3c-3.36,0-5.79-3.2-5.79-9.31,0-5.86,2.08-9.34,5.79-9.34a3.67,3.67,0,0,1,3.65,2.59c0-.7,0-1.41,0-2.21v-5.79h3.46Zm-9.41-8.93c0,4,1.09,5.86,3,5.86a2.44,2.44,0,0,0,2.21-1.22c.64-.9.74-2,.74-4.67s-.1-3.78-.74-4.64a2.4,2.4,0,0,0-2.21-1.25c-1.92,0-3,1.89-3,5.89Z"/><path class="cls-2" d="M1011.78,630.84h-3.17c0-.77,0-1.54,0-2.37-.64,1.89-2,2.75-4.16,2.75-2.91,0-4.8-1.63-4.8-5.54V613h3.46v11.62c0,1.44.29,3.23,2.4,3.23,1.63,0,2.78-1.06,2.78-3.39V613h3.46Z"/><path class="cls-2" d="M1026.69,613h3.17v2.34a3.92,3.92,0,0,1,3.9-2.72c3.36,0,5.79,3.2,5.79,9.34,0,5.82-2.08,9.31-5.79,9.31a3.8,3.8,0,0,1-3.62-2.43v8.06h-3.46Zm9.41,8.93c0-4-1.06-5.86-3-5.86a2.39,2.39,0,0,0-2.11,1.22c-.64.86-.83,2-.83,4.67s.19,3.78.83,4.64a2.36,2.36,0,0,0,2.11,1.25c2,0,3-1.89,3-5.89Z"/><path class="cls-2" d="M1043,621.88c0-5.12,2.18-9.31,6.91-9.31s6.88,4.19,6.88,9.34-2.18,9.31-6.88,9.31S1043,627,1043,621.91Zm3.65.06c0,4.38,1.18,6,3.3,6s3.2-1.66,3.2-6.08-1.18-6.08-3.3-6.08-3.2,1.63-3.2,6.08Z"/><path class="cls-2" d="M1067.94,618c0-1.7-.83-2.43-2.27-2.43a1.78,1.78,0,0,0-1.92,1.86c0,1.73,1.89,2,4,2.69s4.13,1.82,4.13,5.44a5.63,5.63,0,0,1-6,5.66c-3.36,0-5.89-1.89-6.17-5.92h3.46a2.67,2.67,0,0,0,2.78,2.78,2.1,2.1,0,0,0,2.24-2.3c0-1.79-1.86-2.21-4-2.91s-4.1-1.89-4.1-5.31c0-2.91,2.08-5,5.7-5s5.41,2,5.6,5.44Z"/><path class="cls-2" d="M1076.61,616.22h-2.14V613h2.14V608.7h3.46V613h2.11v3.26h-2.11v14.62h-3.46Z"/><path class="cls-2" d="M1088.42,623.1c0,2.5.86,4.9,3.17,4.9,1.5,0,2.53-1,2.88-2.72h3.42a7.27,7.27,0,0,1-2.43,4.7,6.41,6.41,0,0,1-3.87,1.25c-4.77,0-6.88-4.35-6.88-9.31,0-5.31,2.33-9.34,6.85-9.34a5.66,5.66,0,0,1,5.06,2.72c1.38,2.24,1.5,5.12,1.44,7.81Zm6.18-3c0-2-.74-4.67-3-4.67-1.89,0-3.13,1.76-3.13,4.67Z"/><path class="cls-2" d="M1106.18,630.84h-3.46v-4.22h3.46Z"/><path class="cls-2" d="M675.56,714.62h3.84L684,732.48l4.61-17.85h3.71l-6.62,23.68h-3.52Z"/><path class="cls-2" d="M693.58,729.34c0-5.12,2.18-9.31,6.91-9.31s6.88,4.19,6.88,9.34-2.18,9.31-6.88,9.31-6.91-4.19-6.91-9.31Zm3.65.06c0,4.38,1.18,6,3.3,6s3.2-1.66,3.2-6.08-1.18-6.08-3.29-6.08-3.2,1.63-3.2,6.08Z"/><path class="cls-2" d="M718.57,725.47c0-1.7-.83-2.43-2.27-2.43a1.78,1.78,0,0,0-1.92,1.86c0,1.73,1.89,2,4,2.69s4.13,1.82,4.13,5.44a5.63,5.63,0,0,1-6,5.66c-3.36,0-5.89-1.89-6.18-5.92h3.46a2.67,2.67,0,0,0,2.78,2.78,2.1,2.1,0,0,0,2.24-2.3c0-1.79-1.86-2.21-4-2.91s-4.1-1.89-4.1-5.31c0-2.91,2.08-5,5.7-5s5.41,2,5.6,5.44Z"/><path class="cls-2" d="M736.49,720.41h3.29c0,.8,0,1.57,0,2.4a3.73,3.73,0,0,1,4-2.78,3.94,3.94,0,0,1,2.78,1,3.49,3.49,0,0,1,.9,1.5,4,4,0,0,1,1.28-1.6,5.67,5.67,0,0,1,3.07-.86,4.8,4.8,0,0,1,4.1,2A7.19,7.19,0,0,1,757,726.2V738.3h-3.46V726.72a4.37,4.37,0,0,0-.42-2.24,2,2,0,0,0-1.92-1,2.42,2.42,0,0,0-2,.77,3.54,3.54,0,0,0-.7,2.37V738.3H745V726.75a4.58,4.58,0,0,0-.42-2.27,1.94,1.94,0,0,0-1.89-1,2.52,2.52,0,0,0-2,.74,3.72,3.72,0,0,0-.71,2.43V738.3h-3.49Z"/><path class="cls-2" d="M761.35,729.34c0-5.12,2.18-9.31,6.91-9.31s6.88,4.19,6.88,9.34-2.18,9.31-6.88,9.31-6.91-4.19-6.91-9.31Zm3.65.06c0,4.38,1.18,6,3.3,6s3.2-1.66,3.2-6.08-1.18-6.08-3.29-6.08-3.2,1.63-3.2,6.08Z"/><path class="cls-2" d="M780,723.68H777.9v-3.26H780v-4.26h3.46v4.26h2.11v3.26H783.5V738.3H780Z"/><path class="cls-2" d="M789.64,714.62h3.46V718h-3.46Zm0,5.79h3.46V738.3h-3.46Z"/><path class="cls-2" d="M805.29,738.3h-3.2l-5.28-17.89h3.52l3.3,12.77,3-12.77h3.49Z"/><path class="cls-2" d="M825.19,738.3H822c0-1,0-1.66,0-2.34a4,4,0,0,1-3.94,2.72c-3.36,0-5.79-3.2-5.79-9.31,0-5.86,2.08-9.34,5.79-9.34a3.91,3.91,0,0,1,3.94,2.81c0-.8,0-1.54,0-2.43h3.17Zm-9.41-8.89c0,4,1.09,5.86,3,5.86A2.4,2.4,0,0,0,821,734c.64-.86.74-2,.74-4.64s-.1-3.81-.74-4.67a2.44,2.44,0,0,0-2.21-1.22c-1.92,0-3,1.86-3,5.89Z"/><path class="cls-2" d="M831,723.68h-2.14v-3.26H831v-4.26h3.46v4.26h2.11v3.26h-2.11V738.3H831Z"/><path class="cls-2" d="M840.59,714.62H844V718h-3.46Zm0,5.79H844V738.3h-3.46Z"/><path class="cls-2" d="M848.71,729.34c0-5.12,2.18-9.31,6.91-9.31s6.88,4.19,6.88,9.34-2.18,9.31-6.88,9.31-6.91-4.19-6.91-9.31Zm3.65.06c0,4.38,1.18,6,3.3,6s3.2-1.66,3.2-6.08-1.18-6.08-3.29-6.08-3.2,1.63-3.2,6.08Z"/><path class="cls-2" d="M866.79,720.41h3c0,.74,0,1.44,0,2.21a4.18,4.18,0,0,1,4.26-2.59c2.94,0,4.83,1.63,4.83,5.54V738.3h-3.46V726.68c0-1.44-.29-3.2-2.4-3.2-1.66,0-2.78,1-2.78,3.36V738.3h-3.46Z"/><path class="cls-2" d="M891,725.47c0-1.7-.83-2.43-2.27-2.43a1.78,1.78,0,0,0-1.92,1.86c0,1.73,1.89,2,4,2.69s4.13,1.82,4.13,5.44a5.63,5.63,0,0,1-6,5.66c-3.36,0-5.89-1.89-6.18-5.92h3.46a2.67,2.67,0,0,0,2.78,2.78,2.09,2.09,0,0,0,2.24-2.3c0-1.79-1.86-2.21-4-2.91s-4.1-1.89-4.1-5.31c0-2.91,2.08-5,5.7-5s5.41,2,5.6,5.44Z"/><path class="cls-2" d="M902.73,738.3h-3.46v-4.22h3.46Z"/></g><g id="vignettes_réponses" data-name="vignettes réponses"><polygon class="cls-1" points="356.35 216.42 226.06 184.86 95.76 216.42 95.76 0.14 356.35 0.14 356.35 216.42"/><path class="cls-2" d="M128.16,64.46h9.66q8.89,0,8.89,9.57v6.52q0,6-4.82,7.78l7.1,20.38h-8l-5-19h-.4v19h-7.36Zm7.36,7.05V83.06h.88a5.51,5.51,0,0,0,1.55-.13,2.27,2.27,0,0,0,1.39-2.37V74q0-2.52-2.17-2.52Z"/><path class="cls-2" d="M154.33,64.46h17.33v7.05h-10V83.06h8.58v7.08H161.7v11.54h10v7.05H154.33Zm16.54-5-6.41,4.16h-6.32l7-6.48h5.7Z"/><path class="cls-2" d="M177,64.46h9.66q8.89,0,8.89,9.57v6.52q0,7-6.35,9.09a15.16,15.16,0,0,1-4.38.49h-.46v18.59H177Zm7.36,7.05V83.06h.88a5.51,5.51,0,0,0,1.55-.13,2.27,2.27,0,0,0,1.39-2.37V74q0-2.52-2.17-2.52Z"/><path class="cls-2" d="M220.65,99.86q0,9.55-9.55,9.57t-9.53-9.57V73.33q0-9.55,9.53-9.55t9.55,9.55Zm-7.36-26.53q0-2.48-2.17-2.5h0q-2.14,0-2.14,2.5V99.86q0,2.5,2.17,2.5t2.19-2.5Z"/><path class="cls-2" d="M227.77,64.46H235L240,86.26V64.46h6.9v44.26h-7.27l-4.69-21.2v21.2h-7.12Z"/><path class="cls-2" d="M254,73.33q0-9.55,9.53-9.55T273,73.33v6.28h-7.36V73.33q0-2.48-2.17-2.5h0q-2.14,0-2.14,2.5v3.94q0,2.7,5.66,6.76Q273,88.34,273,94.38v5.48q0,9.57-9.53,9.57T254,99.86V93.58h7.36v6.28q0,2.5,2.19,2.5t2.17-2.5v-5q0-2.94-5.66-7Q254,83.59,254,77.4Z"/><path class="cls-2" d="M280.16,64.46h17.33v7.05h-10V83.06h8.58v7.08h-8.58v11.54h10v7.05H280.16Z"/><path class="cls-2" d="M303.51,73.33q0-9.55,9.53-9.55t9.55,9.55v6.28h-7.36V73.33q0-2.48-2.17-2.5h0q-2.14,0-2.14,2.5v3.94q0,2.7,5.66,6.76,6.06,4.31,6.06,10.35v5.48q0,9.57-9.53,9.57t-9.55-9.57V93.58h7.36v6.28q0,2.5,2.19,2.5t2.17-2.5v-5q0-2.94-5.66-7-6.06-4.31-6.06-10.5Z"/></g></svg>