<?xml version="1.0" encoding="utf-8"?>
<!-- Generator: Adobe Illustrator 21.1.0, SVG Export Plug-In . SVG Version: 6.00 Build 0)  -->
<svg version="1.1" id="Calque_1" xmlns="http://www.w3.org/2000/svg" xmlns:xlink="http://www.w3.org/1999/xlink" x="0px" y="0px"
	 viewBox="0 0 1920 1080" style="enable-background:new 0 0 1920 1080;" xml:space="preserve">
<style type="text/css">
	.st0{fill:#8CC63F;}
	.st1{fill:#FFFFFF;}
</style>
<title>game3d2</title>
<g id="contenu">
	<path class="st0" d="M484.1,473h1060.3l0,0v68.3c0,11.4-9.2,20.6-20.6,20.6H484.1c-11.4,0-20.6-9.2-20.6-20.6l0,0v-47.8
		C463.5,482.2,472.8,473,484.1,473z"/>
	<path class="st1" d="M482.4,508.9h-3l4.9-17.8h2.8l5.1,17.8h-3l-1.1-4.1h-4.6L482.4,508.9z M488.2,488.9l-0.9,1.7l-5.5-2.6l1-2.1
		L488.2,488.9z M485.8,495.3l-1.5,6.9h3.1L485.8,495.3z"/>
	<path class="st1" d="M503.2,498h-1.6v-2.5h1.6v-3.2h2.6v3.2h1.6v2.5h-1.6v11h-2.6V498z"/>
	<path class="st1" d="M510.1,495.5h2.4c0,0.8,0,1.5,0,2.2c0.5-2,1.9-2.5,3.5-2.5v3.1c-0.3-0.2-0.7-0.3-1.1-0.3
		c-1.2,0-2.1,1.1-2.1,3.3v7.6h-2.6L510.1,495.5z"/>
	<path class="st1" d="M527.2,508.9h-2.4c0-0.7,0-1.2,0-1.8c-0.4,1.3-1.7,2.1-3,2c-2.5,0-4.3-2.4-4.3-7c0-4.4,1.6-7,4.3-7
		c1.4-0.1,2.6,0.8,3,2.1c0-0.6,0-1.1,0-1.8h2.4V508.9z M520.1,502.3c0,3,0.8,4.4,2.3,4.4c0.7,0,1.3-0.3,1.7-0.9
		c0.5-0.6,0.5-1.5,0.5-3.5s-0.1-2.9-0.5-3.5c-0.3-0.6-1-0.9-1.7-0.9C521,497.8,520.1,499.2,520.1,502.3L520.1,502.3z"/>
	<path class="st1" d="M536,508.9h-2.4l-4-13.4h2.6l2.5,9.6l2.3-9.6h2.6L536,508.9z"/>
	<path class="st1" d="M544.2,503.1c0,1.9,0.7,3.7,2.4,3.7c1.1,0,2.1-0.9,2.2-2h2.6c-0.1,1.4-0.8,2.6-1.8,3.5
		c-0.8,0.6-1.9,0.9-2.9,0.9c-3.6,0-5.2-3.3-5.2-7c0-4,1.8-7,5.1-7c1.5-0.1,3,0.7,3.8,2c0.9,1.8,1.3,3.8,1.1,5.9H544.2z M548.8,500.9
		c0-1.5-0.5-3.5-2.3-3.5c-1.4,0-2.3,1.3-2.3,3.5H548.8z"/>
	<path class="st1" d="M554.8,495.5h2.4c0,0.8,0,1.5,0,2.2c0.5-2,1.9-2.5,3.5-2.5v3.1c-0.3-0.2-0.7-0.3-1.1-0.3
		c-1.2,0-2.1,1.1-2.1,3.3v7.6h-2.6L554.8,495.5z"/>
	<path class="st1" d="M568.4,499.3c0-1.3-0.6-1.8-1.7-1.8c-0.7-0.1-1.4,0.5-1.4,1.2c0,0.1,0,0.1,0,0.2c0,1.3,1.4,1.5,3,2
		c1.9,0.4,3.2,2.1,3.1,4.1c0,2.3-1.9,4.2-4.2,4.3c-0.1,0-0.2,0-0.3,0c-2.5,0-4.4-1.4-4.6-4.4h2.6c-0.1,1.1,0.8,2,1.9,2.1
		c0.1,0,0.1,0,0.2,0c0.9,0.1,1.6-0.6,1.7-1.4c0-0.1,0-0.2,0-0.3c0-1.3-1.4-1.7-3-2.2s-3.1-1.4-3.1-4c0-2.2,1.6-3.7,4.3-3.7
		s4.1,1.5,4.2,4.1L568.4,499.3z"/>
	<path class="st1" d="M582.7,495.5h2.5c0,0.6,0,1.2,0,1.8c0.3-1.3,1.6-2.2,3-2.1c0.8,0,1.5,0.2,2.1,0.7c0.3,0.3,0.5,0.7,0.7,1.1
		c0.2-0.5,0.6-0.9,1-1.2c0.7-0.4,1.5-0.7,2.3-0.6c1.2-0.1,2.4,0.5,3.1,1.5c0.6,0.9,0.9,2.1,0.8,3.2v9.1h-2.6v-8.7
		c0-0.6-0.1-1.2-0.3-1.7c-0.3-0.5-0.9-0.8-1.4-0.7c-0.6-0.1-1.1,0.2-1.5,0.6c-0.4,0.5-0.6,1.1-0.5,1.8v8.8H589v-8.7
		c0-0.6-0.1-1.2-0.3-1.7c-0.3-0.5-0.8-0.8-1.4-0.7c-0.6-0.1-1.1,0.2-1.5,0.5c-0.4,0.5-0.6,1.2-0.5,1.8v8.7h-2.6L582.7,495.5z"/>
	<path class="st1" d="M604.2,503.1c0,1.9,0.7,3.7,2.4,3.7c1.1,0,2.1-0.9,2.2-2h2.6c-0.1,1.4-0.8,2.6-1.8,3.5
		c-0.8,0.6-1.9,0.9-2.9,0.9c-3.6,0-5.2-3.3-5.2-7c0-4,1.8-7,5.1-7c1.5-0.1,3,0.7,3.8,2c0.9,1.8,1.3,3.8,1.1,5.9H604.2z M608.8,500.9
		c0-1.5-0.5-3.5-2.3-3.5c-1.4,0-2.3,1.3-2.3,3.5H608.8z"/>
	<path class="st1" d="M619.9,499.3c0-1.3-0.6-1.8-1.7-1.8c-0.7-0.1-1.4,0.5-1.4,1.2c0,0.1,0,0.1,0,0.2c0,1.3,1.4,1.5,3,2
		c1.9,0.4,3.2,2.1,3.1,4.1c0,2.3-1.9,4.2-4.2,4.3c-0.1,0-0.2,0-0.3,0c-2.5,0-4.4-1.4-4.6-4.4h2.6c-0.1,1.1,0.8,2,1.9,2.1
		c0.1,0,0.1,0,0.2,0c0.9,0.1,1.6-0.6,1.7-1.4c0-0.1,0-0.2,0-0.3c0-1.3-1.4-1.7-3-2.2s-3.1-1.4-3.1-4c0-2.2,1.6-3.7,4.3-3.7
		s4.1,1.5,4.2,4.1L619.9,499.3z"/>
	<path class="st1" d="M636.3,503.1c0,1.9,0.7,3.7,2.4,3.7c1.1,0,2.1-0.9,2.2-2h2.6c-0.1,1.4-0.8,2.6-1.8,3.5
		c-0.8,0.6-1.9,0.9-2.9,0.9c-3.6,0-5.2-3.3-5.2-7c0-4,1.8-7,5.1-7c1.5-0.1,3,0.7,3.8,2c0.9,1.8,1.3,3.8,1.1,5.9H636.3z M640.9,500.9
		c0-1.5-0.5-3.5-2.3-3.5c-1.4,0-2.3,1.3-2.3,3.5H640.9z"/>
	<path class="st1" d="M648.8,502l-3.5-6.5h3l2,4.6l2.1-4.6h3L652,502l3.8,6.9h-3.1l-2.3-5l-2.3,5h-3.1L648.8,502z"/>
	<path class="st1" d="M658.3,495.5h2.4v1.8c0.4-1.2,1.6-2.1,2.9-2c2.5,0,4.3,2.4,4.3,7c0,4.4-1.6,7-4.3,7c-1.2,0-2.3-0.7-2.7-1.8v6
		h-2.6V495.5z M665.4,502.2c0-3-0.8-4.4-2.3-4.4c-0.7,0-1.3,0.3-1.6,0.9c-0.5,0.6-0.6,1.5-0.6,3.5s0.1,2.8,0.6,3.5
		c0.3,0.6,0.9,0.9,1.6,0.9C664.6,506.7,665.4,505.2,665.4,502.2L665.4,502.2z"/>
	<path class="st1" d="M673.4,503.1c0,1.9,0.7,3.7,2.4,3.7c1.1,0,2.1-0.9,2.2-2h2.6c-0.1,1.4-0.8,2.6-1.8,3.5
		c-0.8,0.6-1.9,0.9-2.9,0.9c-3.6,0-5.2-3.3-5.2-7c0-4,1.8-7,5.1-7c1.5-0.1,3,0.7,3.8,2c0.9,1.8,1.3,3.8,1.1,5.9H673.4z M678.6,489.9
		l1,2.1l-5.5,2.6l-0.9-1.7L678.6,489.9z M678,500.9c0-1.5-0.5-3.5-2.3-3.5c-1.4,0-2.3,1.3-2.3,3.5H678z"/>
	<path class="st1" d="M683.9,495.5h2.4c0,0.8,0,1.5,0,2.2c0.5-2,1.9-2.5,3.5-2.5v3.1c-0.3-0.2-0.7-0.3-1.1-0.3
		c-1.2,0-2.1,1.1-2.1,3.3v7.6h-2.6L683.9,495.5z"/>
	<path class="st1" d="M692.6,491.2h2.6v2.6h-2.6V491.2z M692.6,495.5h2.6v13.4h-2.6V495.5z"/>
	<path class="st1" d="M701.6,503.1c0,1.9,0.7,3.7,2.4,3.7c1.1,0,2.1-0.9,2.2-2h2.6c-0.1,1.4-0.8,2.6-1.8,3.5
		c-0.8,0.6-1.9,0.9-2.9,0.9c-3.6,0-5.2-3.3-5.2-7c0-4,1.8-7,5.1-7c1.5-0.1,3,0.7,3.8,2c0.9,1.8,1.3,3.8,1.1,5.9H701.6z M706.2,500.9
		c0-1.5-0.5-3.5-2.3-3.5c-1.4,0-2.3,1.3-2.3,3.5H706.2z"/>
	<path class="st1" d="M712.2,495.5h2.3c0,0.5,0,1.1,0,1.7c0.5-1.3,1.8-2.1,3.2-1.9c2.2,0,3.6,1.2,3.6,4.1v9.5h-2.6v-8.7
		c0-1.1-0.2-2.4-1.8-2.4c-1.2,0-2.1,0.8-2.1,2.5v8.6h-2.6L712.2,495.5z"/>
	<path class="st1" d="M733.8,504c-0.1,2.7-1.5,5.2-4.3,5.2c-3.3,0-5.2-2.8-5.2-7c0-4.4,2-7,5.2-7c2.9,0,4.3,2.4,4.3,5.2h-2.7
		c-0.1-2-0.8-2.8-1.8-2.8c-0.7,0-1.4,0.4-1.6,1.1c-0.5,1.1-0.7,2.3-0.6,3.5c0,3.2,0.8,4.6,2.3,4.6c1.2,0,1.8-1.2,1.8-2.8L733.8,504z
		"/>
	<path class="st1" d="M738.9,503.1c0,1.9,0.7,3.7,2.4,3.7c1.1,0,2.1-0.9,2.2-2h2.5c-0.1,1.4-0.8,2.6-1.8,3.5
		c-0.8,0.6-1.9,0.9-2.9,0.9c-3.6,0-5.2-3.3-5.2-7c0-4,1.8-7,5.1-7c1.5-0.1,3,0.7,3.8,2c0.9,1.8,1.3,3.8,1.1,5.9H738.9z M743.5,500.9
		c0-1.5-0.5-3.5-2.3-3.5c-1.4,0-2.3,1.3-2.3,3.5H743.5z"/>
	<path class="st1" d="M754.6,499.3c0-1.3-0.6-1.8-1.7-1.8c-0.7-0.1-1.4,0.5-1.4,1.2c0,0.1,0,0.1,0,0.2c0,1.3,1.4,1.5,3,2
		c1.9,0.4,3.2,2.1,3.1,4.1c0,2.3-1.9,4.2-4.2,4.3c-0.1,0-0.2,0-0.3,0c-2.5,0-4.4-1.4-4.6-4.4h2.6c-0.1,1.1,0.8,2,1.9,2.1
		c0.1,0,0.1,0,0.2,0c0.9,0.1,1.6-0.6,1.7-1.4c0-0.1,0-0.2,0-0.3c0-1.3-1.4-1.7-3-2.2s-3.1-1.4-3.1-4c0-2.2,1.6-3.7,4.3-3.7
		s4.1,1.5,4.2,4.1L754.6,499.3z"/>
	<path class="st1" d="M768.8,495.5h2.4v1.8c0.4-1.2,1.6-2.1,2.9-2c2.5,0,4.3,2.4,4.3,7c0,4.4-1.6,7-4.3,7c-1.2,0-2.3-0.7-2.7-1.8v6
		h-2.6V495.5z M775.9,502.2c0-3-0.8-4.4-2.3-4.4c-0.7,0-1.3,0.3-1.6,0.9c-0.5,0.6-0.6,1.5-0.6,3.5s0.1,2.8,0.6,3.5
		c0.3,0.6,0.9,0.9,1.6,0.9C775.1,506.7,775.9,505.2,775.9,502.2L775.9,502.2z"/>
	<path class="st1" d="M781.7,495.5h2.3c0,0.8,0,1.5,0,2.2c0.5-2,1.9-2.5,3.5-2.5v3.1c-0.3-0.2-0.7-0.3-1.1-0.3
		c-1.2,0-2.1,1.1-2.1,3.3v7.6h-2.6L781.7,495.5z"/>
	<path class="st1" d="M789.1,502.2c0-3.8,1.6-7,5.2-7s5.2,3.1,5.2,7s-1.6,7-5.2,7S789.1,506.1,789.1,502.2z M791.8,502.2
		c0,3.3,0.9,4.5,2.5,4.5s2.4-1.2,2.4-4.6s-0.9-4.6-2.5-4.6S791.8,498.9,791.8,502.2L791.8,502.2z"/>
	<path class="st1" d="M803,498h-1.3v-2.5h1.3v-0.7c0-3.7,3.1-3.9,4.6-3.9v2.3c-0.9,0-2,0.2-2,1.9v0.5h2v2.5h-2v11H803V498z"/>
	<path class="st1" d="M812,503.1c0,1.9,0.7,3.7,2.4,3.7c1.1,0,2.1-0.9,2.2-2h2.6c-0.1,1.4-0.8,2.6-1.8,3.5c-0.8,0.6-1.9,0.9-2.9,0.9
		c-3.6,0-5.2-3.3-5.2-7c0-4,1.8-7,5.1-7c1.5-0.1,3,0.7,3.8,2c0.9,1.8,1.3,3.8,1.1,5.9H812z M816.6,500.9c0-1.5-0.5-3.5-2.3-3.5
		c-1.4,0-2.3,1.3-2.3,3.5H816.6z"/>
	<path class="st1" d="M827.7,499.3c0-1.3-0.6-1.8-1.7-1.8c-0.7-0.1-1.4,0.5-1.4,1.2c0,0.1,0,0.1,0,0.2c0,1.3,1.4,1.5,3,2
		c1.9,0.4,3.2,2.1,3.1,4.1c0,2.3-1.9,4.2-4.2,4.3c-0.1,0-0.2,0-0.3,0c-2.5,0-4.4-1.4-4.6-4.4h2.6c-0.1,1.1,0.8,2,1.9,2.1
		c0.1,0,0.1,0,0.2,0c0.9,0.1,1.6-0.6,1.7-1.4c0-0.1,0-0.2,0-0.3c0-1.3-1.4-1.7-3-2.2s-3.1-1.4-3.1-4c0-2.2,1.6-3.7,4.3-3.7
		s4.1,1.5,4.2,4.1L827.7,499.3z"/>
	<path class="st1" d="M838.9,499.3c0-1.3-0.6-1.8-1.7-1.8c-0.7-0.1-1.4,0.5-1.4,1.2c0,0.1,0,0.1,0,0.2c0,1.3,1.4,1.5,3,2
		c1.9,0.4,3.2,2.1,3.1,4.1c0,2.3-1.9,4.2-4.2,4.3c-0.1,0-0.2,0-0.3,0c-2.5,0-4.4-1.4-4.6-4.4h2.6c-0.1,1.1,0.8,2,1.9,2.1
		c0.1,0,0.1,0,0.2,0c0.9,0.1,1.6-0.6,1.7-1.4c0-0.1,0-0.2,0-0.3c0-1.3-1.4-1.7-3-2.2s-3.1-1.4-3.1-4c0-2.2,1.6-3.7,4.3-3.7
		s4.1,1.5,4.2,4.1L838.9,499.3z"/>
	<path class="st1" d="M845.3,491.2h2.6v2.6h-2.6V491.2z M845.3,495.5h2.6v13.4h-2.6V495.5z"/>
	<path class="st1" d="M851.4,502.2c0-3.8,1.6-7,5.2-7s5.2,3.1,5.2,7s-1.6,7-5.2,7S851.4,506.1,851.4,502.2z M854.1,502.2
		c0,3.3,0.9,4.5,2.5,4.5s2.4-1.2,2.4-4.6s-0.9-4.6-2.5-4.6S854.1,498.9,854.1,502.2L854.1,502.2z"/>
	<path class="st1" d="M864.9,495.5h2.3c0,0.5,0,1.1,0,1.7c0.5-1.3,1.8-2.1,3.2-1.9c2.2,0,3.6,1.2,3.6,4.1v9.5h-2.6v-8.7
		c0-1.1-0.2-2.4-1.8-2.4c-1.2,0-2.1,0.8-2.1,2.5v8.6h-2.6V495.5z"/>
	<path class="st1" d="M877.9,495.5h2.3c0,0.5,0,1.1,0,1.7c0.5-1.3,1.8-2.1,3.2-1.9c2.2,0,3.6,1.2,3.6,4.1v9.5h-2.6v-8.7
		c0-1.1-0.2-2.4-1.8-2.4c-1.2,0-2.1,0.8-2.1,2.5v8.6h-2.6L877.9,495.5z"/>
	<path class="st1" d="M893,503.1c0,1.9,0.7,3.7,2.4,3.7c1.1,0,2.1-0.9,2.2-2h2.6c-0.1,1.4-0.8,2.6-1.8,3.5c-0.8,0.6-1.9,0.9-2.9,0.9
		c-3.6,0-5.2-3.3-5.2-7c0-4,1.8-7,5.1-7c1.5-0.1,3,0.7,3.8,2c0.9,1.8,1.3,3.8,1.1,5.9H893z M897.6,500.9c0-1.5-0.5-3.5-2.3-3.5
		c-1.4,0-2.3,1.3-2.3,3.5H897.6z"/>
	<path class="st1" d="M903.8,491.2h2.6v17.8h-2.6V491.2z"/>
	<path class="st1" d="M910.9,491.2h2.6v17.8h-2.6V491.2z"/>
	<path class="st1" d="M919.9,503.1c0,1.9,0.7,3.7,2.4,3.7c1.1,0,2.1-0.9,2.2-2h2.6c-0.1,1.4-0.8,2.6-1.8,3.5
		c-0.8,0.6-1.9,0.9-2.9,0.9c-3.6,0-5.2-3.3-5.2-7c0-4,1.8-7,5.1-7c1.5-0.1,3,0.7,3.8,2c0.9,1.8,1.3,3.8,1.1,5.9H919.9z M924.5,500.9
		c0-1.5-0.5-3.5-2.3-3.5c-1.4,0-2.3,1.3-2.3,3.5H924.5z"/>
	<path class="st1" d="M935.6,499.3c0-1.3-0.6-1.8-1.7-1.8c-0.7-0.1-1.4,0.5-1.4,1.2c0,0.1,0,0.1,0,0.2c0,1.3,1.4,1.5,3,2
		c1.9,0.4,3.2,2.1,3.1,4.1c0,2.3-1.9,4.2-4.2,4.3c-0.1,0-0.2,0-0.3,0c-2.5,0-4.4-1.4-4.6-4.4h2.6c-0.1,1.1,0.8,2,1.9,2.1
		c0.1,0,0.1,0,0.2,0c0.9,0.1,1.6-0.6,1.7-1.4c0-0.1,0-0.2,0-0.3c0-1.3-1.4-1.7-3-2.2s-3.1-1.4-3.1-4c0-2.2,1.6-3.7,4.3-3.7
		s4.1,1.5,4.2,4.1L935.6,499.3z"/>
	<path class="st1" d="M952,503.1c0,1.9,0.7,3.7,2.4,3.7c1.1,0,2.1-0.9,2.2-2h2.6c-0.1,1.4-0.8,2.6-1.8,3.5c-0.8,0.6-1.9,0.9-2.9,0.9
		c-3.6,0-5.2-3.3-5.2-7c0-4,1.8-7,5.1-7c1.5-0.1,3,0.7,3.8,2c0.9,1.8,1.3,3.8,1.1,5.9H952z M956.6,500.9c0-1.5-0.5-3.5-2.3-3.5
		c-1.4,0-2.3,1.3-2.3,3.5H956.6z"/>
	<path class="st1" d="M962.9,498h-1.6v-2.5h1.6v-3.2h2.6v3.2h1.6v2.5h-1.6v11h-2.6V498z"/>
	<path class="st1" d="M978,495.5h2.4v1.8c0.4-1.2,1.6-2.1,2.9-2c2.5,0,4.3,2.4,4.3,7c0,4.4-1.6,7-4.3,7c-1.2,0-2.3-0.7-2.7-1.8v6
		H978V495.5z M985.1,502.2c0-3-0.8-4.4-2.3-4.4c-0.7,0-1.3,0.3-1.6,0.9c-0.5,0.6-0.6,1.5-0.6,3.5s0.1,2.8,0.6,3.5
		c0.3,0.6,0.9,0.9,1.6,0.9C984.3,506.7,985.1,505.2,985.1,502.2L985.1,502.2z"/>
	<path class="st1" d="M993,503.1c0,1.9,0.7,3.7,2.4,3.7c1.1,0,2.1-0.9,2.2-2h2.6c-0.1,1.4-0.8,2.6-1.8,3.5c-0.8,0.6-1.9,0.9-2.9,0.9
		c-3.6,0-5.2-3.3-5.2-7c0-4,1.8-7,5.1-7c1.5-0.1,3,0.7,3.8,2c0.9,1.8,1.3,3.8,1.1,5.9H993z M997.6,500.9c0-1.5-0.5-3.5-2.3-3.5
		c-1.4,0-2.3,1.3-2.3,3.5H997.6z"/>
	<path class="st1" d="M1003.6,495.5h2.4c0,0.8,0,1.5,0,2.2c0.5-2,1.9-2.5,3.5-2.5v3.1c-0.3-0.2-0.7-0.3-1.1-0.3
		c-1.2,0-2.1,1.1-2.1,3.3v7.6h-2.6L1003.6,495.5z"/>
	<path class="st1" d="M1017.2,499.3c0-1.3-0.6-1.8-1.7-1.8c-0.7-0.1-1.4,0.5-1.4,1.2c0,0.1,0,0.1,0,0.2c0,1.3,1.4,1.5,3,2
		c1.9,0.4,3.2,2.1,3.1,4.1c0,2.3-1.9,4.2-4.2,4.3c-0.1,0-0.2,0-0.3,0c-2.5,0-4.4-1.4-4.6-4.4h2.6c-0.1,1.1,0.8,2,1.9,2.1
		c0.1,0,0.1,0,0.2,0c0.9,0.1,1.6-0.6,1.7-1.4c0-0.1,0-0.2,0-0.3c0-1.3-1.4-1.7-3-2.2s-3.1-1.4-3.1-4c0-2.2,1.6-3.7,4.3-3.7
		s4.1,1.5,4.2,4.1L1017.2,499.3z"/>
	<path class="st1" d="M1022.6,502.2c0-3.8,1.6-7,5.2-7s5.2,3.1,5.2,7s-1.6,7-5.2,7S1022.6,506.1,1022.6,502.2z M1025.3,502.2
		c0,3.3,0.9,4.5,2.5,4.5s2.4-1.2,2.4-4.6s-0.9-4.6-2.5-4.6S1025.3,498.9,1025.3,502.2L1025.3,502.2z"/>
	<path class="st1" d="M1036.2,495.5h2.3c0,0.5,0,1.1,0,1.7c0.5-1.3,1.8-2.1,3.2-1.9c2.2,0,3.6,1.2,3.6,4.1v9.5h-2.6v-8.7
		c0-1.1-0.2-2.4-1.8-2.4c-1.2,0-2.1,0.8-2.1,2.5v8.6h-2.6L1036.2,495.5z"/>
	<path class="st1" d="M1049.1,495.5h2.3c0,0.5,0,1.1,0,1.7c0.5-1.3,1.8-2.1,3.2-1.9c2.2,0,3.6,1.2,3.6,4.1v9.5h-2.6v-8.7
		c0-1.1-0.2-2.4-1.8-2.4c-1.2,0-2.1,0.8-2.1,2.5v8.6h-2.6L1049.1,495.5z"/>
	<path class="st1" d="M1064.2,503.1c0,1.9,0.7,3.7,2.4,3.7c1.1,0,2.1-0.9,2.2-2h2.6c-0.1,1.4-0.8,2.6-1.8,3.5
		c-0.8,0.6-1.9,0.9-2.9,0.9c-3.6,0-5.2-3.3-5.2-7c0-4,1.8-7,5.1-7c1.5-0.1,3,0.7,3.8,2c0.9,1.8,1.3,3.8,1.1,5.9H1064.2z
		 M1068.9,500.9c0-1.5-0.6-3.5-2.3-3.5c-1.4,0-2.3,1.3-2.3,3.5H1068.9z"/>
	<path class="st1" d="M1075.1,491.2h2.6v17.8h-2.6V491.2z"/>
	<path class="st1" d="M1082.1,491.2h2.6v17.8h-2.6V491.2z"/>
	<path class="st1" d="M1091.1,503.1c0,1.9,0.7,3.7,2.4,3.7c1.1,0,2.1-0.9,2.2-2h2.6c-0.1,1.4-0.8,2.6-1.8,3.5
		c-0.8,0.6-1.9,0.9-2.9,0.9c-3.6,0-5.2-3.3-5.2-7c0-4,1.8-7,5.1-7c1.5-0.1,3,0.7,3.8,2c0.9,1.8,1.3,3.8,1.1,5.9H1091.1z
		 M1095.7,500.9c0-1.5-0.6-3.5-2.3-3.5c-1.4,0-2.3,1.3-2.3,3.5H1095.7z"/>
	<path class="st1" d="M1106.8,499.3c0-1.3-0.6-1.8-1.7-1.8c-0.7-0.1-1.4,0.5-1.4,1.2c0,0.1,0,0.1,0,0.2c0,1.3,1.4,1.5,3,2
		c1.9,0.4,3.2,2.1,3.1,4.1c0,2.3-1.9,4.2-4.2,4.3c-0.1,0-0.2,0-0.3,0c-2.5,0-4.4-1.4-4.6-4.4h2.6c-0.1,1.1,0.8,2,1.9,2.1
		c0.1,0,0.1,0,0.2,0c0.9,0.1,1.6-0.6,1.7-1.4c0-0.1,0-0.2,0-0.3c0-1.3-1.4-1.7-3-2.2s-3.1-1.4-3.1-4c0-2.2,1.6-3.7,4.3-3.7
		s4.1,1.5,4.2,4.1L1106.8,499.3z"/>
	<path class="st1" d="M1113.8,511.2h-2.1l1.7-5.5h2.5L1113.8,511.2z"/>
	<path class="st1" d="M1128.6,509.4c0,2.4-1,4.1-3.3,4.2c-0.3,0-0.6,0-0.8,0v-2.5h0.2c1-0.1,1.3-0.8,1.3-2.1v-13.5h2.6L1128.6,509.4
		z M1126,491.2h2.6v2.6h-2.6V491.2z"/>
	<path class="st1" d="M1133.7,491.2h2.8l-2.3,5.5h-2.4L1133.7,491.2z"/>
	<path class="st1" d="M1148.3,508.9h-2.4c0-0.7,0-1.2,0-1.8c-0.4,1.3-1.7,2.1-3,2c-2.5,0-4.3-2.4-4.3-7c0-4.4,1.6-7,4.3-7
		c1.4-0.1,2.6,0.8,3,2.1c0-0.6,0-1.1,0-1.8h2.4V508.9z M1141.2,502.3c0,3,0.8,4.4,2.3,4.4c0.7,0,1.3-0.3,1.7-0.9
		c0.5-0.6,0.6-1.5,0.6-3.5s-0.1-2.9-0.6-3.5c-0.3-0.6-1-0.9-1.7-0.9C1142.1,497.8,1141.2,499.2,1141.2,502.3L1141.2,502.3z"/>
	<path class="st1" d="M1152.5,491.2h2.6v2.6h-2.6V491.2z M1152.5,495.5h2.6v13.4h-2.6V495.5z"/>
	<path class="st1" d="M1176.3,508.9h-2.3c0-0.7,0-1.2,0-1.8c-0.4,1.3-1.7,2.1-3,2c-2.5,0-4.3-2.4-4.3-7c0-4.4,1.6-7,4.3-7
		c1.4-0.1,2.6,0.8,3,2.1c0-0.6,0-1.1,0-1.8h2.4L1176.3,508.9z M1169.3,502.3c0,3,0.8,4.4,2.3,4.4c0.7,0,1.3-0.3,1.7-0.9
		c0.5-0.6,0.6-1.5,0.6-3.5s-0.1-2.9-0.6-3.5c-0.3-0.6-1-0.9-1.7-0.9C1170.1,497.8,1169.3,499.2,1169.3,502.3L1169.3,502.3z"/>
	<path class="st1" d="M1189,504c-0.1,2.7-1.5,5.2-4.3,5.2c-3.3,0-5.2-2.8-5.2-7c0-4.4,2-7,5.2-7c2.9,0,4.3,2.4,4.3,5.2h-2.7
		c-0.1-2-0.8-2.8-1.8-2.8c-0.7,0-1.4,0.4-1.6,1.1c-0.5,1.1-0.7,2.3-0.6,3.5c0,3.2,0.8,4.6,2.3,4.6c1.2,0,1.8-1.2,1.8-2.8L1189,504z"
		/>
	<path class="st1" d="M1200.8,513.4h-2.6v-4.5c0-0.7,0-1.2,0-1.7c-0.4,1.2-1.5,2-2.7,1.9c-2.8,0-4.3-2.6-4.3-7c0-4.6,1.8-7,4.3-7
		c1.3-0.1,2.5,0.7,2.9,2c0-0.5,0-1.1,0-1.8h2.4V513.4z M1193.8,502.3c0,3,0.8,4.4,2.3,4.4c0.7,0,1.3-0.3,1.7-0.9
		c0.5-0.6,0.6-1.5,0.6-3.5s-0.1-2.9-0.6-3.5c-0.3-0.6-1-0.9-1.7-0.9C1194.6,497.8,1193.8,499.2,1193.8,502.3L1193.8,502.3z"/>
	<path class="st1" d="M1213.8,508.9h-2.4c0-0.6,0-1.1,0-1.8c-0.4,1.4-1.7,2.2-3.1,2.1c-2.2,0-3.6-1.2-3.6-4.1v-9.5h2.6v8.7
		c0,1.1,0.2,2.4,1.8,2.4c1.2,0,2.1-0.8,2.1-2.5v-8.6h2.6L1213.8,508.9z"/>
	<path class="st1" d="M1217.9,491.2h2.6v2.6h-2.6V491.2z M1217.9,495.5h2.6v13.4h-2.6V495.5z"/>
	<path class="st1" d="M1229.9,499.3c0-1.3-0.6-1.8-1.7-1.8c-0.7-0.1-1.4,0.5-1.4,1.2c0,0.1,0,0.1,0,0.2c0,1.3,1.4,1.5,3,2
		c1.9,0.4,3.2,2.1,3.1,4.1c0,2.3-1.9,4.2-4.2,4.3c-0.1,0-0.2,0-0.3,0c-2.5,0-4.4-1.4-4.6-4.4h2.6c-0.1,1.1,0.8,2,1.9,2.1
		c0.1,0,0.1,0,0.2,0c0.9,0.1,1.6-0.6,1.7-1.4c0-0.1,0-0.2,0-0.3c0-1.3-1.4-1.7-3-2.2s-3.1-1.4-3.1-4c0-2.2,1.6-3.7,4.3-3.7
		s4.1,1.5,4.2,4.1L1229.9,499.3z"/>
	<path class="st1" d="M1253,508.9h-2.4c0-0.8,0-1.4,0-1.9c-0.3,1.4-1.6,2.3-3,2.2c-2.5,0-4.3-2.4-4.3-7c0-4.4,1.6-7,4.3-7
		c1.2-0.1,2.4,0.7,2.7,1.9c0-0.5,0-1.1,0-1.7v-4.3h2.6V508.9z M1245.9,502.2c0,3,0.8,4.4,2.3,4.4c0.7,0,1.3-0.3,1.7-0.9
		c0.5-0.7,0.6-1.5,0.6-3.5s-0.1-2.8-0.6-3.5c-0.3-0.6-1-1-1.7-0.9C1246.8,497.8,1245.9,499.2,1245.9,502.2L1245.9,502.2z"/>
	<path class="st1" d="M1259.1,503.1c0,1.9,0.7,3.7,2.4,3.7c1.1,0,2.1-0.9,2.2-2h2.6c-0.1,1.4-0.8,2.6-1.8,3.5
		c-0.8,0.6-1.9,0.9-2.9,0.9c-3.6,0-5.2-3.3-5.2-7c0-4,1.8-7,5.1-7c1.5-0.1,3,0.7,3.8,2c0.9,1.8,1.3,3.8,1.1,5.9H1259.1z
		 M1263.8,500.9c0-1.5-0.6-3.5-2.3-3.5c-1.4,0-2.3,1.3-2.3,3.5H1263.8z"/>
	<path class="st1" d="M1274.8,499.3c0-1.3-0.6-1.8-1.7-1.8c-0.7-0.1-1.4,0.5-1.4,1.2c0,0.1,0,0.1,0,0.2c0,1.3,1.4,1.5,3,2
		c1.9,0.4,3.2,2.1,3.1,4.1c0,2.3-1.9,4.2-4.2,4.3c-0.1,0-0.2,0-0.3,0c-2.5,0-4.4-1.4-4.6-4.4h2.6c-0.1,1.1,0.8,2,1.9,2.1
		c0.1,0,0.1,0,0.2,0c0.9,0.1,1.6-0.6,1.7-1.4c0-0.1,0-0.2,0-0.3c0-1.3-1.4-1.7-3-2.2s-3.1-1.4-3.1-4c0-2.2,1.6-3.7,4.3-3.7
		s4.1,1.5,4.2,4.1L1274.8,499.3z"/>
	<path class="st1" d="M1298,513.4h-2.6v-4.5c0-0.7,0-1.2,0-1.7c-0.4,1.2-1.5,2-2.7,1.9c-2.8,0-4.3-2.6-4.3-7c0-4.6,1.8-7,4.3-7
		c1.3-0.1,2.5,0.7,2.9,2c0-0.5,0-1.1,0-1.8h2.4V513.4z M1290.9,502.3c0,3,0.8,4.4,2.3,4.4c0.7,0,1.3-0.3,1.7-0.9
		c0.5-0.6,0.6-1.5,0.6-3.5s-0.1-2.9-0.6-3.5c-0.3-0.6-1-0.9-1.7-0.9C1291.8,497.8,1290.9,499.2,1290.9,502.3L1290.9,502.3z"/>
	<path class="st1" d="M1310.9,508.9h-2.4c0-0.6,0-1.1,0-1.8c-0.4,1.4-1.7,2.2-3.1,2.1c-2.2,0-3.6-1.2-3.6-4.1v-9.5h2.6v8.7
		c0,1.1,0.2,2.4,1.8,2.4c1.2,0,2.1-0.8,2.1-2.5v-8.6h2.6L1310.9,508.9z"/>
	<path class="st1" d="M1323.8,508.9h-2.4c0-0.7,0-1.2,0-1.8c-0.4,1.3-1.7,2.1-3,2c-2.5,0-4.3-2.4-4.3-7c0-4.4,1.6-7,4.3-7
		c1.4-0.1,2.6,0.8,3,2.1c0-0.6,0-1.1,0-1.8h2.4V508.9z M1316.7,502.3c0,3,0.8,4.4,2.3,4.4c0.7,0,1.3-0.3,1.7-0.9
		c0.5-0.6,0.6-1.5,0.6-3.5s-0.1-2.9-0.6-3.5c-0.3-0.6-1-0.9-1.7-0.9C1317.6,497.8,1316.7,499.2,1316.7,502.3L1316.7,502.3z"/>
	<path class="st1" d="M1328,491.2h2.6v17.8h-2.6V491.2z"/>
	<path class="st1" d="M1335,491.2h2.6v2.6h-2.6V491.2z M1335,495.5h2.6v13.4h-2.6V495.5z"/>
	<path class="st1" d="M1342.2,498h-1.6v-2.5h1.6v-3.2h2.6v3.2h1.6v2.5h-1.6v11h-2.6V498z"/>
	<path class="st1" d="M1351.1,503.1c0,1.9,0.7,3.7,2.4,3.7c1.1,0,2.1-0.9,2.2-2h2.6c-0.1,1.4-0.8,2.6-1.8,3.5
		c-0.8,0.6-1.9,0.9-2.9,0.9c-3.6,0-5.2-3.3-5.2-7c0-4,1.8-7,5.1-7c1.5-0.1,3,0.7,3.8,2c0.9,1.8,1.3,3.8,1.1,5.9H1351.1z
		 M1356.3,489.9l1,2.1l-5.5,2.6l-0.9-1.7L1356.3,489.9z M1355.7,500.9c0-1.5-0.6-3.5-2.3-3.5c-1.4,0-2.3,1.3-2.3,3.5H1355.7z"/>
	<path class="st1" d="M1366.8,499.3c0-1.3-0.6-1.8-1.7-1.8c-0.7-0.1-1.4,0.5-1.4,1.2c0,0.1,0,0.1,0,0.2c0,1.3,1.4,1.5,3,2
		c1.9,0.4,3.2,2.1,3.1,4.1c0,2.3-1.9,4.2-4.2,4.3c-0.1,0-0.2,0-0.3,0c-2.5,0-4.4-1.4-4.6-4.4h2.6c-0.1,1.1,0.8,2,1.9,2.1
		c0.1,0,0.1,0,0.2,0c0.9,0.1,1.6-0.6,1.7-1.4c0-0.1,0-0.2,0-0.3c0-1.3-1.4-1.7-3-2.2s-3.1-1.4-3.1-4c0-2.2,1.6-3.7,4.3-3.7
		s4.1,1.5,4.2,4.1L1366.8,499.3z"/>
	<path class="st1" d="M1381,495.5h2.4c0,0.8,0,1.5,0,2.2c0.6-2,1.9-2.5,3.5-2.5v3.1c-0.3-0.2-0.7-0.3-1.1-0.3
		c-1.2,0-2.1,1.1-2.1,3.3v7.6h-2.6V495.5z"/>
	<path class="st1" d="M1391.3,503.1c0,1.9,0.7,3.7,2.4,3.7c1.1,0,2.1-0.9,2.2-2h2.6c-0.1,1.4-0.8,2.6-1.8,3.5
		c-0.8,0.6-1.9,0.9-2.9,0.9c-3.6,0-5.2-3.3-5.2-7c0-4,1.8-7,5.1-7c1.5-0.1,3,0.7,3.8,2c0.9,1.8,1.3,3.8,1.1,5.9H1391.3z
		 M1395.9,500.9c0-1.5-0.6-3.5-2.3-3.5c-1.4,0-2.3,1.3-2.3,3.5H1395.9z"/>
	<path class="st1" d="M1402.1,491.2h2.6v17.8h-2.6V491.2z"/>
	<path class="st1" d="M1417.9,508.9h-2.4c0-0.7,0-1.2,0-1.8c-0.4,1.3-1.7,2.1-3,2c-2.5,0-4.3-2.4-4.3-7c0-4.4,1.6-7,4.3-7
		c1.4-0.1,2.6,0.8,3,2.1c0-0.6,0-1.1,0-1.8h2.4V508.9z M1410.8,502.3c0,3,0.8,4.4,2.3,4.4c0.7,0,1.3-0.3,1.7-0.9
		c0.5-0.6,0.6-1.5,0.6-3.5s-0.1-2.9-0.6-3.5c-0.3-0.6-1-0.9-1.7-0.9C1411.6,497.8,1410.8,499.2,1410.8,502.3L1410.8,502.3z"/>
	<path class="st1" d="M1422.2,498h-1.6v-2.5h1.6v-3.2h2.6v3.2h1.6v2.5h-1.6v11h-2.6V498z"/>
	<path class="st1" d="M1429.4,491.2h2.6v2.6h-2.6L1429.4,491.2z M1429.4,495.5h2.6v13.4h-2.6L1429.4,495.5z"/>
	<path class="st1" d="M1435.5,502.2c0-3.8,1.6-7,5.2-7s5.2,3.1,5.2,7s-1.6,7-5.2,7S1435.5,506.1,1435.5,502.2z M1438.3,502.2
		c0,3.3,0.9,4.5,2.5,4.5s2.4-1.2,2.4-4.6s-0.9-4.6-2.5-4.6S1438.3,498.9,1438.3,502.2L1438.3,502.2z"/>
	<path class="st1" d="M1449.1,495.5h2.3c0,0.5,0,1.1,0,1.7c0.5-1.3,1.8-2.1,3.2-1.9c2.2,0,3.6,1.2,3.6,4.1v9.5h-2.6v-8.7
		c0-1.1-0.2-2.4-1.8-2.4c-1.2,0-2.1,0.8-2.1,2.5v8.6h-2.6L1449.1,495.5z"/>
	<path class="st1" d="M1462,495.5h2.3c0,0.5,0,1.1,0,1.7c0.5-1.3,1.8-2.1,3.2-1.9c2.2,0,3.6,1.2,3.6,4.1v9.5h-2.6v-8.7
		c0-1.1-0.2-2.4-1.8-2.4c-1.2,0-2.1,0.8-2.1,2.5v8.6h-2.6V495.5z"/>
	<path class="st1" d="M1477.2,503.1c0,1.9,0.7,3.7,2.4,3.7c1.1,0,2.1-0.9,2.2-2h2.6c-0.1,1.4-0.8,2.6-1.8,3.5
		c-0.8,0.6-1.9,0.9-2.9,0.9c-3.6,0-5.2-3.3-5.2-7c0-4,1.8-7,5.1-7c1.5-0.1,3,0.7,3.8,2c0.9,1.8,1.3,3.8,1.1,5.9H1477.2z
		 M1481.8,500.9c0-1.5-0.6-3.5-2.3-3.5c-1.4,0-2.3,1.3-2.3,3.5H1481.8z"/>
	<path class="st1" d="M1488,491.2h2.6v17.8h-2.6V491.2z"/>
	<path class="st1" d="M1495,491.2h2.6v17.8h-2.6V491.2z"/>
	<path class="st1" d="M1504,503.1c0,1.9,0.7,3.7,2.4,3.7c1.1,0,2.1-0.9,2.2-2h2.6c-0.1,1.4-0.8,2.6-1.8,3.5
		c-0.8,0.6-1.9,0.9-2.9,0.9c-3.6,0-5.2-3.3-5.2-7c0-4,1.8-7,5.1-7c1.5-0.1,3,0.7,3.8,2c0.9,1.8,1.3,3.8,1.1,5.9H1504z M1508.6,500.9
		c0-1.5-0.6-3.5-2.3-3.5c-1.4,0-2.3,1.3-2.3,3.5H1508.6z"/>
	<path class="st1" d="M1519.7,499.3c0-1.3-0.6-1.8-1.7-1.8c-0.7-0.1-1.4,0.5-1.4,1.2c0,0.1,0,0.1,0,0.2c0,1.3,1.4,1.5,3,2
		c1.9,0.4,3.2,2.1,3.1,4.1c0,2.3-1.9,4.2-4.2,4.3c-0.1,0-0.2,0-0.3,0c-2.5,0-4.4-1.4-4.6-4.4h2.6c-0.1,1.1,0.8,2,1.9,2.1
		c0.1,0,0.1,0,0.2,0c0.9,0.1,1.6-0.6,1.7-1.4c0-0.1,0-0.2,0-0.3c0-1.3-1.4-1.7-3-2.2s-3.1-1.4-3.1-4c0-2.2,1.6-3.7,4.3-3.7
		s4.1,1.5,4.2,4.1L1519.7,499.3z"/>
	<path class="st1" d="M483.1,531.9c0,1.9,0.6,3.7,2.4,3.7c1.1,0,2.1-0.9,2.2-2h2.6c-0.1,1.4-0.8,2.6-1.8,3.5
		c-0.8,0.6-1.9,0.9-2.9,0.9c-3.6,0-5.2-3.3-5.2-7c0-4,1.8-7,5.1-7c1.5-0.1,3,0.7,3.8,2c0.9,1.8,1.3,3.8,1.1,5.9H483.1z M487.7,529.7
		c0-1.5-0.5-3.5-2.3-3.5c-1.4,0-2.4,1.3-2.4,3.5H487.7z"/>
	<path class="st1" d="M494.1,526.8h-1.6v-2.5h1.6v-3.2h2.6v3.2h1.6v2.5h-1.6v11h-2.6V526.8z"/>
	<path class="st1" d="M517.3,537.7h-2.4c0-0.8,0-1.4,0-1.9c-0.3,1.4-1.6,2.3-3,2.2c-2.5,0-4.3-2.4-4.3-7c0-4.4,1.6-7,4.3-7
		c1.2-0.1,2.4,0.7,2.7,1.9c0-0.5,0-1.1,0-1.7V520h2.6L517.3,537.7z M510.2,531c0,3,0.8,4.4,2.3,4.4c0.7,0,1.3-0.3,1.7-0.9
		c0.5-0.7,0.5-1.5,0.5-3.5s-0.1-2.8-0.5-3.5c-0.3-0.6-1-1-1.7-0.9C511,526.6,510.2,528,510.2,531L510.2,531z"/>
	<path class="st1" d="M523.3,531.9c0,1.9,0.7,3.7,2.4,3.7c1.1,0,2.1-0.9,2.2-2h2.6c-0.1,1.4-0.8,2.6-1.8,3.5
		c-0.8,0.6-1.9,0.9-2.9,0.9c-3.6,0-5.2-3.3-5.2-7c0-4,1.8-7,5.1-7c1.5-0.1,3,0.7,3.8,2c0.9,1.8,1.3,3.8,1.1,5.9H523.3z M528,529.7
		c0-1.5-0.5-3.5-2.3-3.5c-1.4,0-2.3,1.3-2.3,3.5H528z"/>
	<path class="st1" d="M539.1,528.1c0-1.3-0.6-1.8-1.7-1.8c-0.7-0.1-1.4,0.5-1.4,1.2c0,0.1,0,0.1,0,0.2c0,1.3,1.4,1.5,3,2
		c1.9,0.4,3.2,2.1,3.1,4.1c0,2.3-1.9,4.2-4.2,4.3c-0.1,0-0.2,0-0.3,0c-2.5,0-4.4-1.4-4.6-4.4h2.6c-0.1,1.1,0.8,2,1.9,2.1
		c0.1,0,0.1,0,0.2,0c0.9,0.1,1.6-0.6,1.7-1.4c0-0.1,0-0.2,0-0.3c0-1.3-1.4-1.7-3-2.2s-3.1-1.4-3.1-4c0-2.2,1.6-3.7,4.3-3.7
		s4.1,1.5,4.2,4.1L539.1,528.1z"/>
	<path class="st1" d="M561.2,532.8c-0.1,2.7-1.5,5.2-4.3,5.2c-3.3,0-5.2-2.8-5.2-7c0-4.4,2-7,5.2-7c2.9,0,4.3,2.4,4.3,5.2h-2.7
		c-0.1-2-0.8-2.8-1.8-2.8c-0.7,0-1.4,0.4-1.6,1.1c-0.5,1.1-0.7,2.3-0.6,3.5c0,3.2,0.8,4.6,2.3,4.6c1.2,0,1.8-1.2,1.8-2.8
		L561.2,532.8z"/>
	<path class="st1" d="M563.4,531c0-3.8,1.6-7,5.2-7s5.2,3.1,5.2,7s-1.6,7-5.2,7S563.4,534.9,563.4,531z M566.1,531
		c0,3.3,0.9,4.5,2.5,4.5s2.4-1.2,2.4-4.6s-0.9-4.6-2.5-4.6S566.1,527.6,566.1,531L566.1,531z"/>
	<path class="st1" d="M577,524.3h2.5c0,0.6,0,1.2,0,1.8c0.3-1.3,1.6-2.2,3-2.1c0.8,0,1.5,0.2,2.1,0.7c0.3,0.3,0.5,0.7,0.7,1.1
		c0.2-0.5,0.6-0.9,1-1.2c0.7-0.4,1.5-0.7,2.3-0.7c1.2-0.1,2.4,0.5,3.1,1.5c0.6,0.9,0.9,2.1,0.8,3.2v9.1h-2.6V529
		c0-0.6-0.1-1.2-0.3-1.7c-0.3-0.5-0.9-0.8-1.4-0.7c-0.6-0.1-1.1,0.2-1.5,0.6c-0.4,0.5-0.6,1.2-0.6,1.8v8.8h-2.6v-8.7
		c0-0.6-0.1-1.2-0.3-1.7c-0.3-0.5-0.8-0.8-1.4-0.7c-0.6-0.1-1.1,0.2-1.5,0.5c-0.4,0.5-0.6,1.2-0.5,1.8v8.7H577V524.3z"/>
	<path class="st1" d="M596.3,524.3h2.4v1.8c0.4-1.2,1.6-2.1,2.9-2c2.5,0,4.3,2.4,4.3,7c0,4.4-1.6,7-4.3,7c-1.2,0-2.3-0.7-2.7-1.8v6
		h-2.6L596.3,524.3z M603.4,531c0-3-0.8-4.4-2.3-4.4c-0.7,0-1.3,0.3-1.6,0.9c-0.5,0.7-0.6,1.5-0.6,3.5s0.1,2.8,0.6,3.5
		c0.3,0.6,0.9,0.9,1.6,0.9C602.6,535.4,603.4,534,603.4,531L603.4,531z"/>
	<path class="st1" d="M611.4,531.9c0,1.9,0.7,3.7,2.4,3.7c1.1,0,2.1-0.9,2.2-2h2.6c-0.1,1.4-0.8,2.6-1.8,3.5
		c-0.8,0.6-1.9,0.9-2.9,0.9c-3.6,0-5.2-3.3-5.2-7c0-4,1.8-7,5.1-7c1.5-0.1,3,0.7,3.8,2c0.9,1.8,1.3,3.8,1.1,5.9H611.4z M616.6,518.7
		l1,2.1l-5.5,2.6l-0.9-1.7L616.6,518.7z M616,529.7c0-1.5-0.5-3.5-2.3-3.5c-1.4,0-2.3,1.3-2.3,3.5H616z"/>
	<path class="st1" d="M622.4,526.8h-1.6v-2.5h1.6v-3.2h2.6v3.2h1.6v2.5H625v11h-2.6V526.8z"/>
	<path class="st1" d="M631.2,531.9c0,1.9,0.7,3.7,2.4,3.7c1.1,0,2.1-0.9,2.2-2h2.6c-0.1,1.4-0.8,2.6-1.8,3.5
		c-0.8,0.6-1.9,0.9-2.9,0.9c-3.6,0-5.2-3.3-5.2-7c0-4,1.8-7,5.1-7c1.5-0.1,3,0.7,3.8,2c0.9,1.8,1.3,3.8,1.1,5.9H631.2z M635.9,529.7
		c0-1.5-0.5-3.5-2.3-3.5c-1.4,0-2.3,1.3-2.3,3.5H635.9z"/>
	<path class="st1" d="M641.8,524.3h2.3c0,0.5,0,1.1,0,1.7c0.5-1.3,1.8-2.1,3.2-1.9c2.2,0,3.6,1.2,3.6,4.2v9.5h-2.6V529
		c0-1.1-0.2-2.4-1.8-2.4c-1.2,0-2.1,0.8-2.1,2.5v8.6h-2.6L641.8,524.3z"/>
	<path class="st1" d="M663.5,532.8c-0.1,2.7-1.5,5.2-4.3,5.2c-3.3,0-5.2-2.8-5.2-7c0-4.4,2-7,5.2-7c2.9,0,4.3,2.4,4.3,5.2h-2.7
		c-0.1-2-0.8-2.8-1.8-2.8c-0.7,0-1.4,0.4-1.6,1.1c-0.5,1.1-0.7,2.3-0.6,3.5c0,3.2,0.8,4.6,2.3,4.6c1.2,0,1.8-1.2,1.8-2.8
		L663.5,532.8z"/>
	<path class="st1" d="M668.5,531.9c0,1.9,0.7,3.7,2.4,3.7c1.1,0,2.1-0.9,2.2-2h2.6c-0.1,1.4-0.8,2.6-1.8,3.5
		c-0.8,0.6-1.9,0.9-2.9,0.9c-3.6,0-5.2-3.3-5.2-7c0-4,1.8-7,5.1-7c1.5-0.1,3,0.7,3.8,2c0.9,1.8,1.3,3.8,1.1,5.9H668.5z M673.2,529.7
		c0-1.5-0.5-3.5-2.3-3.5c-1.4,0-2.3,1.3-2.3,3.5H673.2z"/>
	<path class="st1" d="M684.3,528.1c0-1.3-0.6-1.8-1.7-1.8c-0.7-0.1-1.4,0.5-1.4,1.2c0,0.1,0,0.1,0,0.2c0,1.3,1.4,1.5,3,2
		c1.9,0.4,3.2,2.1,3.1,4.1c0,2.3-1.9,4.2-4.2,4.3c-0.1,0-0.2,0-0.3,0c-2.5,0-4.4-1.4-4.6-4.4h2.6c-0.1,1.1,0.8,2,1.9,2.1
		c0.1,0,0.1,0,0.2,0c0.9,0.1,1.6-0.6,1.7-1.4c0-0.1,0-0.2,0-0.3c0-1.3-1.4-1.7-3-2.2s-3.1-1.4-3.1-4c0-2.2,1.6-3.7,4.3-3.7
		s4.1,1.5,4.2,4.1L684.3,528.1z"/>
	<path class="st1" d="M697.6,524.3h2.4c0,0.8,0,1.5,0,2.2c0.5-2,1.9-2.5,3.5-2.5v3.1c-0.3-0.2-0.7-0.3-1.1-0.3
		c-1.2,0-2.1,1.2-2.1,3.3v7.6h-2.6L697.6,524.3z"/>
	<path class="st1" d="M707.9,531.9c0,1.9,0.7,3.7,2.4,3.7c1.1,0,2.1-0.9,2.2-2h2.5c-0.1,1.4-0.8,2.6-1.8,3.5
		c-0.8,0.6-1.9,0.9-2.9,0.9c-3.6,0-5.2-3.3-5.2-7c0-4,1.8-7,5.1-7c1.5-0.1,3,0.7,3.8,2c0.9,1.8,1.3,3.8,1.1,5.9H707.9z M712.6,529.7
		c0-1.5-0.5-3.5-2.3-3.5c-1.4,0-2.3,1.3-2.3,3.5H712.6z"/>
	<path class="st1" d="M718.8,520h2.6v17.8h-2.6V520z"/>
	<path class="st1" d="M734.5,537.7h-2.4c0-0.7,0-1.2,0-1.8c-0.4,1.3-1.7,2.1-3,2c-2.5,0-4.3-2.4-4.3-7c0-4.4,1.6-7,4.3-7
		c1.4-0.1,2.6,0.8,3,2.1c0-0.6,0-1.2,0-1.8h2.4V537.7z M727.4,531.1c0,3,0.8,4.4,2.3,4.4c0.7,0,1.3-0.3,1.7-0.9
		c0.5-0.7,0.5-1.5,0.5-3.5s-0.1-2.9-0.5-3.5c-0.3-0.6-1-0.9-1.7-0.9C728.3,526.6,727.4,528,727.4,531.1L727.4,531.1z"/>
	<path class="st1" d="M738.8,526.8h-1.6v-2.5h1.6v-3.2h2.6v3.2h1.6v2.5h-1.6v11h-2.6L738.8,526.8z"/>
	<path class="st1" d="M746,520h2.6v2.6H746V520z M746,524.3h2.6v13.4H746V524.3z"/>
	<path class="st1" d="M757.8,537.7h-2.4l-4-13.4h2.6l2.5,9.6l2.3-9.6h2.6L757.8,537.7z"/>
	<path class="st1" d="M765.9,531.9c0,1.9,0.7,3.7,2.4,3.7c1.1,0,2.1-0.9,2.2-2h2.5c-0.1,1.4-0.8,2.6-1.8,3.5
		c-0.8,0.6-1.9,0.9-2.9,0.9c-3.6,0-5.2-3.3-5.2-7c0-4,1.8-7,5.1-7c1.5-0.1,3,0.7,3.8,2c0.9,1.8,1.3,3.8,1.1,5.9H765.9z M770.6,529.7
		c0-1.5-0.5-3.5-2.3-3.5c-1.4,0-2.3,1.3-2.3,3.5H770.6z"/>
	<path class="st1" d="M781.7,528.1c0-1.3-0.6-1.8-1.7-1.8c-0.7-0.1-1.4,0.5-1.4,1.2c0,0.1,0,0.1,0,0.2c0,1.3,1.4,1.5,3,2
		c1.9,0.4,3.2,2.1,3.1,4.1c0,2.3-1.9,4.2-4.2,4.3c-0.1,0-0.2,0-0.3,0c-2.5,0-4.4-1.4-4.6-4.4h2.6c-0.1,1.1,0.8,2,1.9,2.1
		c0.1,0,0.1,0,0.2,0c0.9,0.1,1.6-0.6,1.7-1.4c0-0.1,0-0.2,0-0.3c0-1.3-1.4-1.7-3-2.2s-3.1-1.4-3.1-4c0-2.2,1.6-3.7,4.3-3.7
		s4.1,1.5,4.2,4.1L781.7,528.1z"/>
	<path class="st1" d="M804,537.7h-2.4c0-0.7,0-1.2,0-1.8c-0.4,1.3-1.7,2.1-3,2c-2.5,0-4.3-2.4-4.3-7c0-4.4,1.6-7,4.3-7
		c1.4-0.1,2.6,0.8,3,2.1c0-0.6,0-1.2,0-1.8h2.4V537.7z M801.9,521.7l-0.9,1.7l-5.5-2.6l1-2.1L801.9,521.7z M796.9,531.1
		c0,3,0.8,4.4,2.3,4.4c0.7,0,1.3-0.3,1.7-0.9c0.5-0.7,0.5-1.5,0.5-3.5s-0.1-2.9-0.5-3.5c-0.3-0.6-1-0.9-1.7-0.9
		C797.8,526.6,796.9,528,796.9,531.1L796.9,531.1z"/>
	<path class="st1" d="M815.5,520h2.5v17.8h-2.6L815.5,520z"/>
	<path class="st1" d="M831.2,537.7h-2.4c0-0.7,0-1.2,0-1.8c-0.4,1.3-1.7,2.1-3,2c-2.5,0-4.3-2.4-4.3-7c0-4.4,1.6-7,4.3-7
		c1.4-0.1,2.6,0.8,3,2.1c0-0.6,0-1.2,0-1.8h2.4V537.7z M824.1,531.1c0,3,0.8,4.4,2.3,4.4c0.7,0,1.3-0.3,1.7-0.9
		c0.5-0.7,0.5-1.5,0.5-3.5s-0.1-2.9-0.5-3.5c-0.3-0.6-1-0.9-1.7-0.9C825,526.6,824.1,528,824.1,531.1L824.1,531.1z"/>
	<path class="st1" d="M847.6,528.1c0-1.3-0.6-1.8-1.7-1.8c-0.7-0.1-1.4,0.5-1.4,1.2c0,0.1,0,0.1,0,0.2c0,1.3,1.4,1.5,3,2
		c1.9,0.4,3.2,2.1,3.1,4.1c0,2.3-1.8,4.2-4.2,4.3c-0.1,0-0.2,0-0.4,0c-2.5,0-4.4-1.4-4.6-4.4h2.6c-0.1,1.1,0.8,2,1.9,2.1
		c0.1,0,0.1,0,0.2,0c0.9,0.1,1.6-0.6,1.7-1.4c0-0.1,0-0.2,0-0.3c0-1.3-1.4-1.7-3-2.2s-3.1-1.4-3.1-4c0-2.2,1.6-3.7,4.3-3.7
		s4.1,1.5,4.2,4.1L847.6,528.1z"/>
	<path class="st1" d="M855.8,531.9c0,1.9,0.7,3.7,2.4,3.7c1.1,0,2.1-0.9,2.2-2h2.6c-0.1,1.4-0.8,2.6-1.8,3.5
		c-0.8,0.6-1.9,0.9-2.9,0.9c-3.6,0-5.2-3.3-5.2-7c0-4,1.8-7,5.1-7c1.5-0.1,3,0.7,3.8,2c0.9,1.8,1.3,3.8,1.1,5.9H855.8z M861,518.7
		l1,2.1l-5.5,2.6l-0.9-1.7L861,518.7z M860.4,529.7c0-1.5-0.5-3.5-2.3-3.5c-1.4,0-2.3,1.3-2.3,3.5H860.4z"/>
	<path class="st1" d="M875.1,532.8c-0.1,2.7-1.5,5.2-4.3,5.2c-3.3,0-5.2-2.8-5.2-7c0-4.4,2-7,5.2-7c2.9,0,4.3,2.4,4.3,5.2h-2.7
		c-0.1-2-0.8-2.8-1.8-2.8c-0.7,0-1.4,0.4-1.6,1.1c-0.5,1.1-0.7,2.3-0.6,3.5c0,3.2,0.8,4.6,2.3,4.6c1.2,0,1.8-1.2,1.8-2.8
		L875.1,532.8z"/>
	<path class="st1" d="M887,537.7h-2.4c0-0.6,0-1.2,0-1.8c-0.4,1.4-1.7,2.2-3.1,2.1c-2.2,0-3.6-1.2-3.6-4.2v-9.5h2.6v8.7
		c0,1.1,0.2,2.4,1.8,2.4c1.2,0,2.1-0.8,2.1-2.5v-8.6h2.6V537.7z"/>
	<path class="st1" d="M890.9,524.3h2.4c0,0.8,0,1.5,0,2.2c0.5-2,1.9-2.5,3.5-2.5v3.1c-0.3-0.2-0.7-0.3-1.1-0.3
		c-1.2,0-2.1,1.2-2.1,3.3v7.6h-2.6L890.9,524.3z"/>
	<path class="st1" d="M899.6,520h2.6v2.6h-2.6V520z M899.6,524.3h2.6v13.4h-2.6V524.3z"/>
	<path class="st1" d="M906.9,526.8h-1.6v-2.5h1.6v-3.2h2.6v3.2h1.5v2.5h-1.6v11h-2.6L906.9,526.8z"/>
	<path class="st1" d="M915.7,531.9c0,1.9,0.7,3.7,2.4,3.7c1.1,0,2.1-0.9,2.2-2h2.6c-0.1,1.4-0.8,2.6-1.8,3.5
		c-0.8,0.6-1.9,0.9-2.9,0.9c-3.6,0-5.2-3.3-5.2-7c0-4,1.8-7,5.1-7c1.5-0.1,3,0.7,3.8,2c0.9,1.8,1.3,3.8,1.1,5.9H915.7z M920.9,518.7
		l1,2.1l-5.5,2.6l-0.9-1.7L920.9,518.7z M920.3,529.7c0-1.5-0.5-3.5-2.3-3.5c-1.4,0-2.3,1.3-2.3,3.5H920.3z"/>
	<path class="st1" d="M942.5,537.7h-2.4c0-0.7,0-1.2,0-1.8c-0.4,1.3-1.7,2.1-3,2c-2.5,0-4.3-2.4-4.3-7c0-4.4,1.6-7,4.3-7
		c1.4-0.1,2.6,0.8,3,2.1c0-0.6,0-1.2,0-1.8h2.4V537.7z M935.5,531.1c0,3,0.8,4.4,2.3,4.4c0.7,0,1.3-0.3,1.7-0.9
		c0.5-0.7,0.5-1.5,0.5-3.5s-0.1-2.9-0.5-3.5c-0.3-0.6-1-0.9-1.7-0.9C936.3,526.6,935.5,528,935.5,531.1L935.5,531.1z"/>
	<path class="st1" d="M946.7,520h2.6v2.6h-2.6V520z M946.7,524.3h2.6v13.4h-2.6V524.3z"/>
	<path class="st1" d="M953.5,524.3h2.3c0,0.5,0,1.1,0,1.7c0.5-1.3,1.8-2.1,3.2-1.9c2.2,0,3.6,1.2,3.6,4.2v9.5H960V529
		c0-1.1-0.2-2.4-1.8-2.4c-1.2,0-2.1,0.8-2.1,2.5v8.6h-2.6L953.5,524.3z"/>
	<path class="st1" d="M971.6,528.1c0-1.3-0.6-1.8-1.7-1.8c-0.7-0.1-1.4,0.5-1.4,1.2c0,0.1,0,0.1,0,0.2c0,1.3,1.4,1.5,3,2
		c1.9,0.4,3.2,2.1,3.1,4.1c0,2.3-1.9,4.2-4.2,4.3c-0.1,0-0.2,0-0.3,0c-2.5,0-4.4-1.4-4.6-4.4h2.5c-0.1,1.1,0.8,2,1.9,2.1
		c0.1,0,0.1,0,0.2,0c0.9,0.1,1.6-0.6,1.7-1.4c0-0.1,0-0.2,0-0.3c0-1.3-1.4-1.7-3-2.2s-3.1-1.4-3.1-4c0-2.2,1.6-3.7,4.3-3.7
		s4.1,1.5,4.2,4.1L971.6,528.1z"/>
	<path class="st1" d="M977.9,520h2.6v2.6h-2.6V520z M977.9,524.3h2.6v13.4h-2.6V524.3z"/>
	<path class="st1" d="M1001,542.2h-2.6v-4.5c0-0.7,0-1.2,0-1.7c-0.4,1.2-1.5,2-2.7,1.9c-2.8,0-4.3-2.6-4.3-7c0-4.6,1.8-7,4.3-7
		c1.3-0.1,2.5,0.7,2.9,2c0-0.5,0-1.1,0-1.8h2.5V542.2z M993.9,531.1c0,3,0.8,4.4,2.3,4.4c0.7,0,1.3-0.3,1.7-0.9
		c0.5-0.7,0.5-1.5,0.5-3.5s-0.1-2.9-0.5-3.5c-0.3-0.6-1-0.9-1.7-0.9C994.8,526.6,993.9,528,993.9,531.1L993.9,531.1z"/>
	<path class="st1" d="M1013.9,537.7h-2.4c0-0.6,0-1.2,0-1.8c-0.4,1.4-1.7,2.2-3.1,2.1c-2.2,0-3.6-1.2-3.6-4.2v-9.5h2.6v8.7
		c0,1.1,0.2,2.4,1.8,2.4c1.2,0,2.1-0.8,2.1-2.5v-8.6h2.6L1013.9,537.7z"/>
	<path class="st1" d="M1018.8,520h2.8l-2.3,5.5h-2.4L1018.8,520z"/>
	<path class="st1" d="M1033.4,537.7h-2.4c0-0.6,0-1.2,0-1.8c-0.4,1.3-1.7,2.2-3.1,2.1c-2.2,0-3.6-1.2-3.6-4.2v-9.5h2.6v8.7
		c0,1.1,0.2,2.4,1.8,2.4c1.2,0,2.1-0.8,2.1-2.5v-8.6h2.6L1033.4,537.7z"/>
	<path class="st1" d="M1037.3,524.3h2.3c0,0.5,0,1.1,0,1.7c0.5-1.3,1.8-2.1,3.2-1.9c2.2,0,3.6,1.2,3.6,4.2v9.5h-2.6V529
		c0-1.1-0.2-2.4-1.8-2.4c-1.2,0-2.1,0.8-2.1,2.5v8.6h-2.6L1037.3,524.3z"/>
	<path class="st1" d="M1052.5,531.9c0,1.9,0.7,3.7,2.4,3.7c1.1,0,2.1-0.9,2.2-2h2.6c-0.1,1.4-0.8,2.6-1.8,3.5
		c-0.8,0.6-1.9,0.9-2.9,0.9c-3.6,0-5.2-3.3-5.2-7c0-4,1.8-7,5.1-7c1.5-0.1,3,0.7,3.8,2c0.9,1.8,1.3,3.8,1.1,5.9H1052.5z
		 M1057.1,529.7c0-1.5-0.6-3.5-2.3-3.5c-1.4,0-2.3,1.3-2.3,3.5H1057.1z"/>
	<path class="st1" d="M1072.5,531.9c0,1.9,0.7,3.7,2.4,3.7c1.1,0,2.1-0.9,2.2-2h2.6c-0.1,1.4-0.8,2.6-1.8,3.5
		c-0.8,0.6-1.9,0.9-2.9,0.9c-3.6,0-5.2-3.3-5.2-7c0-4,1.8-7,5.1-7c1.5-0.1,3,0.7,3.8,2c0.9,1.8,1.3,3.8,1.1,5.9H1072.5z
		 M1077.2,529.7c0-1.5-0.6-3.5-2.3-3.5c-1.4,0-2.3,1.3-2.3,3.5H1077.2z"/>
	<path class="st1" d="M1085,530.8l-3.5-6.5h3l2,4.6l2.1-4.6h3l-3.4,6.5l3.8,6.9h-3l-2.3-5l-2.3,5h-3.1L1085,530.8z"/>
	<path class="st1" d="M1103.3,532.8c-0.1,2.7-1.5,5.2-4.3,5.2c-3.3,0-5.2-2.8-5.2-7c0-4.4,2-7,5.2-7c2.9,0,4.3,2.4,4.3,5.2h-2.7
		c-0.1-2-0.8-2.8-1.8-2.8c-0.7,0-1.4,0.4-1.6,1.1c-0.5,1.1-0.7,2.3-0.6,3.5c0,3.2,0.8,4.6,2.3,4.6c1.2,0,1.8-1.2,1.8-2.8
		L1103.3,532.8z"/>
	<path class="st1" d="M1108.4,531.9c0,1.9,0.7,3.7,2.4,3.7c1.1,0,2.1-0.9,2.2-2h2.6c-0.1,1.4-0.8,2.6-1.8,3.5
		c-0.8,0.6-1.9,0.9-2.9,0.9c-3.6,0-5.2-3.3-5.2-7c0-4,1.8-7,5.1-7c1.5-0.1,3,0.7,3.8,2c0.9,1.8,1.3,3.8,1.1,5.9H1108.4z M1113,529.7
		c0-1.5-0.6-3.5-2.3-3.5c-1.4,0-2.3,1.3-2.3,3.5H1113z"/>
	<path class="st1" d="M1119.2,520h2.6v17.8h-2.6V520z"/>
	<path class="st1" d="M1126.2,520h2.6v17.8h-2.6V520z"/>
	<path class="st1" d="M1135.2,531.9c0,1.9,0.7,3.7,2.4,3.7c1.1,0,2.1-0.9,2.2-2h2.6c-0.1,1.4-0.8,2.6-1.8,3.5
		c-0.8,0.6-1.9,0.9-2.9,0.9c-3.6,0-5.2-3.3-5.2-7c0-4,1.8-7,5.1-7c1.5-0.1,3,0.7,3.8,2c0.9,1.8,1.3,3.8,1.1,5.9H1135.2z
		 M1139.9,529.7c0-1.5-0.6-3.5-2.3-3.5c-1.4,0-2.3,1.3-2.3,3.5H1139.9z"/>
	<path class="st1" d="M1145.8,524.3h2.2c0,0.5,0,1.1,0,1.7c0.5-1.3,1.8-2.1,3.2-1.9c2.2,0,3.6,1.2,3.6,4.2v9.5h-2.6V529
		c0-1.1-0.2-2.4-1.8-2.4c-1.2,0-2.1,0.8-2.1,2.5v8.6h-2.6L1145.8,524.3z"/>
	<path class="st1" d="M1159.2,526.8h-1.6v-2.5h1.6v-3.2h2.6v3.2h1.6v2.5h-1.6v11h-2.6V526.8z"/>
	<path class="st1" d="M1168,531.9c0,1.9,0.7,3.7,2.4,3.7c1.1,0,2.1-0.9,2.2-2h2.6c-0.1,1.4-0.8,2.6-1.8,3.5
		c-0.8,0.6-1.9,0.9-2.9,0.9c-3.6,0-5.2-3.3-5.2-7c0-4,1.8-7,5.1-7c1.5-0.1,3,0.7,3.8,2c0.9,1.8,1.3,3.8,1.1,5.9H1168z M1172.6,529.7
		c0-1.5-0.6-3.5-2.3-3.5c-1.4,0-2.3,1.3-2.3,3.5H1172.6z"/>
	<path class="st1" d="M1185.8,524.3h2.4c0,0.8,0,1.5,0,2.2c0.6-2,1.9-2.5,3.5-2.5v3.1c-0.3-0.2-0.7-0.3-1.1-0.3
		c-1.2,0-2.1,1.2-2.1,3.3v7.6h-2.6L1185.8,524.3z"/>
	<path class="st1" d="M1196.2,531.9c0,1.9,0.7,3.7,2.4,3.7c1.1,0,2.1-0.9,2.2-2h2.6c-0.1,1.4-0.8,2.6-1.8,3.5
		c-0.8,0.6-1.9,0.9-2.9,0.9c-3.6,0-5.2-3.3-5.2-7c0-4,1.8-7,5.1-7c1.5-0.1,3,0.7,3.8,2c0.9,1.8,1.3,3.8,1.1,5.9H1196.2z
		 M1201.4,518.7l1,2.1l-5.5,2.6l-0.9-1.7L1201.4,518.7z M1200.8,529.7c0-1.5-0.6-3.5-2.3-3.5c-1.4,0-2.3,1.3-2.3,3.5H1200.8z"/>
	<path class="st1" d="M1211.9,528.1c0-1.3-0.6-1.8-1.7-1.8c-0.7-0.1-1.4,0.5-1.4,1.2c0,0.1,0,0.1,0,0.2c0,1.3,1.4,1.5,3,2
		c1.9,0.4,3.2,2.1,3.1,4.1c0,2.3-1.9,4.2-4.2,4.3c-0.1,0-0.2,0-0.3,0c-2.5,0-4.4-1.4-4.6-4.4h2.6c-0.1,1.1,0.8,2,1.9,2.1
		c0.1,0,0.1,0,0.2,0c0.9,0.1,1.6-0.6,1.7-1.4c0-0.1,0-0.2,0-0.3c0-1.3-1.4-1.7-3-2.2s-3.1-1.4-3.1-4c0-2.2,1.6-3.7,4.3-3.7
		s4.1,1.5,4.2,4.1L1211.9,528.1z"/>
	<path class="st1" d="M1218.2,520h2.6v2.6h-2.6V520z M1218.2,524.3h2.6v13.4h-2.6V524.3z"/>
	<path class="st1" d="M1230.2,528.1c0-1.3-0.6-1.8-1.7-1.8c-0.7-0.1-1.4,0.5-1.4,1.2c0,0.1,0,0.1,0,0.2c0,1.3,1.4,1.5,3,2
		c1.9,0.4,3.2,2.1,3.1,4.1c0,2.3-1.9,4.2-4.2,4.3c-0.1,0-0.2,0-0.3,0c-2.5,0-4.4-1.4-4.6-4.4h2.6c-0.1,1.1,0.8,2,1.9,2.1
		c0.1,0,0.1,0,0.2,0c0.9,0.1,1.6-0.6,1.7-1.4c0-0.1,0-0.2,0-0.3c0-1.3-1.4-1.7-3-2.2s-3.1-1.4-3.1-4c0-2.2,1.6-3.7,4.3-3.7
		s4.1,1.5,4.2,4.1L1230.2,528.1z"/>
	<path class="st1" d="M1236.7,526.8h-1.6v-2.5h1.6v-3.2h2.6v3.2h1.6v2.5h-1.6v11h-2.6V526.8z"/>
	<path class="st1" d="M1252.3,537.7h-2.4c0-0.7,0-1.2,0-1.8c-0.4,1.3-1.7,2.1-3,2c-2.5,0-4.3-2.4-4.3-7c0-4.4,1.6-7,4.3-7
		c1.4-0.1,2.6,0.8,3,2.1c0-0.6,0-1.2,0-1.8h2.4V537.7z M1245.2,531.1c0,3,0.8,4.4,2.3,4.4c0.7,0,1.3-0.3,1.7-0.9
		c0.5-0.7,0.6-1.5,0.6-3.5s-0.1-2.9-0.6-3.5c-0.3-0.6-1-0.9-1.7-0.9C1246.1,526.6,1245.2,528,1245.2,531.1L1245.2,531.1z"/>
	<path class="st1" d="M1256.2,524.3h2.3c0,0.5,0,1.1,0,1.7c0.5-1.3,1.8-2.1,3.2-1.9c2.2,0,3.6,1.2,3.6,4.2v9.5h-2.6V529
		c0-1.1-0.2-2.4-1.8-2.4c-1.2,0-2.1,0.8-2.1,2.5v8.6h-2.6L1256.2,524.3z"/>
	<path class="st1" d="M1277.9,532.8c-0.1,2.7-1.5,5.2-4.3,5.2c-3.3,0-5.2-2.8-5.2-7c0-4.4,2-7,5.2-7c2.9,0,4.3,2.4,4.3,5.2h-2.7
		c-0.1-2-0.8-2.8-1.8-2.8c-0.7,0-1.4,0.4-1.6,1.1c-0.5,1.1-0.7,2.3-0.6,3.5c0,3.2,0.8,4.6,2.3,4.6c1.2,0,1.8-1.2,1.8-2.8
		L1277.9,532.8z"/>
	<path class="st1" d="M1282.9,531.9c0,1.9,0.7,3.7,2.4,3.7c1.1,0,2.1-0.9,2.2-2h2.6c-0.1,1.4-0.8,2.6-1.8,3.5
		c-0.8,0.6-1.9,0.9-2.9,0.9c-3.6,0-5.2-3.3-5.2-7c0-4,1.8-7,5.1-7c1.5-0.1,3,0.7,3.8,2c0.9,1.8,1.3,3.8,1.1,5.9H1282.9z
		 M1287.6,529.7c0-1.5-0.6-3.5-2.3-3.5c-1.4,0-2.3,1.3-2.3,3.5H1287.6z"/>
	<path class="st1" d="M1300.8,524.3h2.4v1.8c0.4-1.2,1.6-2.1,2.9-2c2.5,0,4.3,2.4,4.3,7c0,4.4-1.6,7-4.3,7c-1.2,0-2.3-0.7-2.7-1.8v6
		h-2.6L1300.8,524.3z M1307.8,531c0-3-0.8-4.4-2.3-4.4c-0.7,0-1.3,0.3-1.6,0.9c-0.5,0.7-0.6,1.5-0.6,3.5s0.1,2.8,0.6,3.5
		c0.3,0.6,0.9,0.9,1.6,0.9C1307,535.4,1307.8,534,1307.8,531L1307.8,531z"/>
	<path class="st1" d="M1313.6,520h2.6v4.1c0,0.5,0,1,0,1.6c0.4-1,1.2-1.6,2.9-1.6c1-0.1,2,0.4,2.7,1.1c0.7,0.9,1,2,0.9,3.2v9.4h-2.6
		v-8.6c0.1-0.6-0.1-1.3-0.4-1.8c-0.3-0.4-0.8-0.7-1.4-0.7c-0.6,0-1.2,0.2-1.5,0.6c-0.5,0.6-0.7,1.3-0.6,2v8.5h-2.6L1313.6,520z"/>
	<path class="st1" d="M1328.7,537.1l-3.7-12.8h2.7l2.3,8.9l2.3-8.9h2.7l-5.3,17.9h-2.7L1328.7,537.1z"/>
	<path class="st1" d="M1342.7,528.1c0-1.3-0.6-1.8-1.7-1.8c-0.7-0.1-1.4,0.5-1.4,1.2c0,0.1,0,0.1,0,0.2c0,1.3,1.4,1.5,3,2
		c1.9,0.4,3.2,2.1,3.1,4.1c0,2.3-1.9,4.2-4.2,4.3c-0.1,0-0.2,0-0.3,0c-2.5,0-4.4-1.4-4.6-4.4h2.6c-0.1,1.1,0.8,2,1.9,2.1
		c0.1,0,0.1,0,0.2,0c0.9,0.1,1.6-0.6,1.7-1.4c0-0.1,0-0.2,0-0.3c0-1.3-1.4-1.7-3-2.2s-3.1-1.4-3.1-4c0-2.2,1.6-3.7,4.3-3.7
		s4.1,1.5,4.2,4.1L1342.7,528.1z"/>
	<path class="st1" d="M1349,520h2.6v2.6h-2.6V520z M1349,524.3h2.6v13.4h-2.6V524.3z"/>
	<path class="st1" d="M1364.8,542.2h-2.6v-4.5c0-0.7,0-1.2,0-1.7c-0.4,1.2-1.5,2-2.7,1.9c-2.8,0-4.3-2.6-4.3-7c0-4.6,1.8-7,4.3-7
		c1.3-0.1,2.5,0.7,2.9,2c0-0.5,0-1.1,0-1.8h2.4V542.2z M1357.7,531.1c0,3,0.8,4.4,2.3,4.4c0.7,0,1.3-0.3,1.7-0.9
		c0.5-0.7,0.6-1.5,0.6-3.5s-0.1-2.9-0.6-3.5c-0.3-0.6-1-0.9-1.7-0.9C1358.6,526.6,1357.7,528,1357.7,531.1L1357.7,531.1z"/>
	<path class="st1" d="M1377.7,537.7h-2.4c0-0.6,0-1.2,0-1.8c-0.4,1.4-1.7,2.2-3.1,2.1c-2.2,0-3.6-1.2-3.6-4.2v-9.5h2.6v8.7
		c0,1.1,0.2,2.4,1.8,2.4c1.2,0,2.1-0.8,2.1-2.5v-8.6h2.6L1377.7,537.7z"/>
	<path class="st1" d="M1383.8,531.9c0,1.9,0.7,3.7,2.4,3.7c1.1,0,2.1-0.9,2.2-2h2.6c-0.1,1.4-0.8,2.6-1.8,3.5
		c-0.8,0.6-1.9,0.9-2.9,0.9c-3.6,0-5.2-3.3-5.2-7c0-4,1.8-7,5.1-7c1.5-0.1,3,0.7,3.8,2c0.9,1.8,1.3,3.8,1.1,5.9H1383.8z
		 M1388.4,529.7c0-1.5-0.6-3.5-2.3-3.5c-1.4,0-2.3,1.3-2.3,3.5H1388.4z"/>
	<path class="st1" d="M1403.9,531.9c0,1.9,0.7,3.7,2.4,3.7c1.1,0,2.1-0.9,2.2-2h2.6c-0.1,1.4-0.8,2.6-1.8,3.5
		c-0.8,0.6-1.9,0.9-2.9,0.9c-3.6,0-5.2-3.3-5.2-7c0-4,1.8-7,5.1-7c1.5-0.1,3,0.7,3.8,2c0.9,1.8,1.3,3.8,1.1,5.9H1403.9z
		 M1408.5,529.7c0-1.5-0.6-3.5-2.3-3.5c-1.4,0-2.3,1.3-2.3,3.5H1408.5z"/>
	<path class="st1" d="M1414.8,526.8h-1.6v-2.5h1.6v-3.2h2.6v3.2h1.6v2.5h-1.6v11h-2.6L1414.8,526.8z"/>
	<path class="st1" d="M1429.2,524.3h2.5c0,0.6,0,1.2,0,1.8c0.3-1.3,1.6-2.2,3-2.1c0.8,0,1.5,0.2,2.1,0.7c0.3,0.3,0.5,0.7,0.7,1.1
		c0.2-0.5,0.6-0.9,1-1.2c0.7-0.4,1.5-0.7,2.3-0.7c1.2-0.1,2.4,0.5,3.1,1.5c0.6,0.9,0.9,2.1,0.8,3.2v9.1h-2.6V529
		c0-0.6-0.1-1.2-0.3-1.7c-0.3-0.5-0.9-0.8-1.4-0.7c-0.6-0.1-1.1,0.2-1.5,0.6c-0.4,0.5-0.6,1.1-0.5,1.8v8.8h-2.6V529
		c0-0.6-0.1-1.2-0.3-1.7c-0.3-0.5-0.8-0.8-1.4-0.7c-0.6-0.1-1.1,0.2-1.5,0.5c-0.4,0.5-0.6,1.2-0.5,1.8v8.7h-2.6L1429.2,524.3z"/>
	<path class="st1" d="M1450.7,531.9c0,1.9,0.7,3.7,2.4,3.7c1.1,0,2.1-0.9,2.2-2h2.6c-0.1,1.4-0.8,2.6-1.8,3.5
		c-0.8,0.6-1.9,0.9-2.9,0.9c-3.6,0-5.2-3.3-5.2-7c0-4,1.8-7,5.1-7c1.5-0.1,3,0.7,3.8,2c0.9,1.8,1.3,3.8,1.1,5.9H1450.7z
		 M1455.3,529.7c0-1.5-0.6-3.5-2.3-3.5c-1.4,0-2.3,1.3-2.3,3.5H1455.3z"/>
	<path class="st1" d="M1461.2,524.3h2.3c0,0.5,0,1.1,0,1.7c0.5-1.3,1.8-2.1,3.2-1.9c2.2,0,3.6,1.2,3.6,4.2v9.5h-2.6V529
		c0-1.1-0.2-2.4-1.8-2.4c-1.2,0-2.1,0.8-2.1,2.5v8.6h-2.6L1461.2,524.3z"/>
	<path class="st1" d="M1474.6,526.8h-1.6v-2.5h1.6v-3.2h2.6v3.2h1.6v2.5h-1.6v11h-2.6V526.8z"/>
	<path class="st1" d="M1490.2,537.7h-2.4c0-0.7,0-1.2,0-1.8c-0.4,1.3-1.7,2.1-3,2c-2.5,0-4.3-2.4-4.3-7c0-4.4,1.6-7,4.3-7
		c1.4-0.1,2.6,0.8,3,2.1c0-0.6,0-1.2,0-1.8h2.4V537.7z M1483.2,531.1c0,3,0.8,4.4,2.3,4.4c0.7,0,1.3-0.3,1.7-0.9
		c0.5-0.7,0.6-1.5,0.6-3.5s-0.1-2.9-0.6-3.5c-0.3-0.6-1-0.9-1.7-0.9C1484,526.6,1483.2,528,1483.2,531.1L1483.2,531.1z"/>
	<path class="st1" d="M1494.4,520h2.6v17.8h-2.6V520z"/>
	<path class="st1" d="M1503.4,531.9c0,1.9,0.7,3.7,2.4,3.7c1.1,0,2.1-0.9,2.2-2h2.6c-0.1,1.4-0.8,2.6-1.8,3.5
		c-0.8,0.6-1.9,0.9-2.9,0.9c-3.6,0-5.2-3.3-5.2-7c0-4,1.8-7,5.1-7c1.5-0.1,3,0.7,3.8,2c0.9,1.8,1.3,3.8,1.1,5.9H1503.4z M1508,529.7
		c0-1.5-0.6-3.5-2.3-3.5c-1.4,0-2.3,1.3-2.3,3.5H1508z"/>
	<path class="st1" d="M1516.7,537.7h-2.6v-3.2h2.6V537.7z"/>
</g>
<g id="vignettes_réponses">
	<polygon class="st0" points="356.4,216.4 226.1,184.9 95.8,216.4 95.8,0.1 356.4,0.1 	"/>
	<path class="st1" d="M128.2,64.5h9.7c5.9,0,8.9,3.2,8.9,9.6v6.5c0,4-1.6,6.6-4.8,7.8l7.1,20.4h-8l-5-19h-0.4v19h-7.4L128.2,64.5z
		 M135.5,71.5v11.5h0.9c0.5,0,1,0,1.6-0.1c0.9-0.4,1.5-1.4,1.4-2.4V74c0-1.7-0.7-2.5-2.2-2.5L135.5,71.5z"/>
	<path class="st1" d="M154.3,64.5h17.3v7.1h-10v11.5h8.6v7.1h-8.5v11.5h10v7.1h-17.4V64.5z M170.9,59.5l-6.4,4.2h-6.3l7-6.5h5.7
		L170.9,59.5z"/>
	<path class="st1" d="M177,64.5h9.7c5.9,0,8.9,3.2,8.9,9.6v6.5c0,4.7-2.1,7.7-6.4,9.1c-1.4,0.4-2.9,0.5-4.4,0.5h-0.5v18.6H177V64.5z
		 M184.4,71.5v11.5h0.9c0.5,0,1,0,1.6-0.1c0.9-0.4,1.5-1.4,1.4-2.4V74c0-1.7-0.7-2.5-2.2-2.5L184.4,71.5z"/>
	<path class="st1" d="M220.6,99.9c0,6.4-3.2,9.6-9.6,9.6c-6.4,0-9.5-3.2-9.5-9.6V73.3c0-6.4,3.2-9.5,9.5-9.5s9.5,3.2,9.6,9.5V99.9z
		 M213.3,73.3c0-1.7-0.7-2.5-2.2-2.5l0,0c-1.4,0-2.1,0.8-2.1,2.5v26.5c0,1.7,0.7,2.5,2.2,2.5c1.4,0,2.2-0.8,2.2-2.5L213.3,73.3z"/>
	<path class="st1" d="M227.8,64.5h7.2l5,21.8V64.5h6.9v44.3h-7.3l-4.7-21.2v21.2h-7.1L227.8,64.5z"/>
	<path class="st1" d="M254,73.3c0-6.4,3.2-9.5,9.5-9.5s9.5,3.2,9.5,9.5v6.3h-7.4v-6.3c0-1.7-0.7-2.5-2.2-2.5l0,0
		c-1.4,0-2.1,0.8-2.1,2.5v3.9c0,1.8,1.9,4.1,5.7,6.8c4,2.9,6,6.3,6,10.3v5.5c0,6.4-3.2,9.6-9.5,9.6s-9.5-3.2-9.5-9.6v-6.3h7.4v6.3
		c0,1.7,0.7,2.5,2.2,2.5c1.5,0,2.2-0.8,2.2-2.5v-5c0-2-1.9-4.3-5.7-7c-4-2.8-6.1-6.3-6.1-10.5V73.3z"/>
	<path class="st1" d="M280.2,64.5h17.3v7.1h-10v11.5h8.6v7.1h-8.6v11.5h10v7.1h-17.3V64.5z"/>
	<path class="st1" d="M303.5,73.3c0-6.4,3.2-9.5,9.5-9.5s9.5,3.2,9.5,9.5v6.3h-7.4v-6.3c0-1.7-0.7-2.5-2.2-2.5l0,0
		c-1.4,0-2.1,0.8-2.1,2.5v3.9c0,1.8,1.9,4.1,5.7,6.8c4,2.9,6.1,6.3,6.1,10.3v5.5c0,6.4-3.2,9.6-9.5,9.6s-9.5-3.2-9.5-9.6v-6.3h7.4
		v6.3c0,1.7,0.7,2.5,2.2,2.5c1.5,0,2.2-0.8,2.2-2.5v-5c0-2-1.9-4.3-5.7-7c-4-2.9-6.1-6.4-6.1-10.5L303.5,73.3z"/>
</g>
</svg>
