<svg xmlns="http://www.w3.org/2000/svg" viewBox="0 0 1920 1080"><defs><style>.cls-1{isolation:isolate;}.cls-2,.cls-7{fill:#fff;}.cls-2{opacity:0.3;}.cls-3{fill:#666;}.cls-4,.cls-5{fill:none;stroke:#fff;stroke-linecap:round;stroke-miterlimit:10;stroke-width:5px;}.cls-5{stroke-dasharray:1 14.96;}.cls-6{fill:#4e96b3;}.cls-8{fill:#464646;opacity:0.7;mix-blend-mode:soft-light;}</style></defs><title>game3c1</title><g class="cls-1"><g id="contenu"><rect class="cls-2" x="232.05" y="335.35" width="1451.55" height="69" rx="8.8" ry="8.8"/><polygon class="cls-2" points="902.24 404.35 958.74 440.35 1013.4 404.35 902.24 404.35"/><path class="cls-3" d="M279.11,383.16a9.27,9.27,0,0,1-1.48.16,5.47,5.47,0,0,1-4-1.4,9.8,9.8,0,0,1-5.28,1.4c-7.28,0-10.88-6.08-10.88-15.36s3.6-15.36,10.88-15.36,10.88,6.08,10.88,15.36a23.78,23.78,0,0,1-1.76,9.6,2.5,2.5,0,0,0,1.64,0Zm-10.8-25c-3.08,0-4.6,2.76-4.6,9.76,0,.92,0,1.6.08,2.28a8.61,8.61,0,0,1,3.08-.56,6,6,0,0,1,2.76.6,8.8,8.8,0,0,1,3.12,2.6A31.94,31.94,0,0,0,273,368c0-7-1.52-9.76-4.64-9.76Zm.08,19.52a2.88,2.88,0,0,0,1.84-.52,5.09,5.09,0,0,0-4.56-2.36,3.23,3.23,0,0,0-1.08.2,4,4,0,0,0,3.76,2.68Z"/><path class="cls-3" d="M299.87,382.76H295v-2.4c-.68,1.84-1.84,2.88-4.64,2.88-3.6,0-5.88-2-5.88-6.6V360h5.36v14.84c0,1.56.36,3,2.24,3,1.4,0,2.4-.72,2.4-2.64V360h5.36Z"/><path class="cls-3" d="M311,373.32c0,2.24.6,4.88,3,4.88,1.4,0,2.4-.88,2.8-2.8h5.32c-.44,3.16-1.72,5.2-3.28,6.36a8.32,8.32,0,0,1-4.84,1.48c-6,0-8.76-5.28-8.76-11.84s2.8-11.84,8.76-11.84a7.16,7.16,0,0,1,6.6,3.64c1.68,2.92,1.8,6.64,1.68,10.12Zm5.92-4.56c0-1.36-.2-4.8-2.84-4.8-1.88,0-3.08,1.6-3.08,4.8Z"/><path class="cls-3" d="M328.28,353.17h5.36v29.6h-5.36Z"/><path class="cls-3" d="M341,353.17h5.36v29.6H341Z"/><path class="cls-3" d="M358,373.32c0,2.24.6,4.88,3,4.88,1.4,0,2.4-.88,2.8-2.8h5.32c-.44,3.16-1.72,5.2-3.28,6.36a8.31,8.31,0,0,1-4.84,1.48c-6,0-8.76-5.28-8.76-11.84s2.8-11.84,8.76-11.84a7.15,7.15,0,0,1,6.6,3.64c1.68,2.92,1.8,6.64,1.68,10.12Zm5.92-4.56c0-1.36-.2-4.8-2.84-4.8-1.88,0-3.08,1.6-3.08,4.8Z"/><path class="cls-3" d="M386.39,358.61a16.34,16.34,0,0,0,0,27v5.52c-6.16-2.4-12.08-9.6-12.08-19s5.92-16.64,12.08-19Z"/><path class="cls-3" d="M400.47,366.77c-.08-1.68-.76-2.56-2.4-2.56a1.71,1.71,0,0,0-1.92,1.76c0,1.92,2.56,2.08,5.12,2.88s5.12,2.32,5.12,7c0,4.24-3.36,7.44-8,7.44-4.36,0-7.8-2.4-8.28-7.76h5.36a2.92,2.92,0,0,0,3.08,2.88,2,2,0,0,0,2.2-2.28c0-2-2.56-2.16-5.12-3s-5.12-2.4-5.12-6.92c0-3.8,2.64-6.6,7.76-6.6s7.28,2.8,7.6,7.2Z"/><path class="cls-3" d="M410.55,385.64a16.34,16.34,0,0,0,0-27v-5.52c6.16,2.4,12.08,9.6,12.08,19s-5.92,16.64-12.08,19Z"/><path class="cls-3" d="M441.55,365.08h-2.08v-5h2.08v-.92c0-6,5.28-6.48,8.32-6.48v4.64c-1.24,0-3,0-3,2.36v.4h3v5h-3v17.68h-5.36Z"/><path class="cls-3" d="M452.59,371.36c0-6.52,2.8-11.8,8.76-11.8s8.76,5.28,8.76,11.84-2.8,11.84-8.76,11.84-8.76-5.28-8.76-11.84Zm5.68.08c0,5.32,1.2,6.76,3.16,6.76,1.8,0,3-1.44,3-6.8s-1.2-6.8-3.16-6.8c-1.8,0-3,1.44-3,6.8Z"/><path class="cls-3" d="M475.28,360h4.88v3c.8-2.84,2.8-3.44,5.76-3.44v6.6a4,4,0,0,0-2.36-.68c-2,0-2.92,1.68-2.92,4v13.28h-5.36Z"/><path class="cls-3" d="M490.43,360h5v2.64c.72-2.24,2.16-3.12,4.64-3.12a5.05,5.05,0,0,1,3.24,1,3.83,3.83,0,0,1,1.08,1.48,4.47,4.47,0,0,1,1.48-1.52,7.16,7.16,0,0,1,3.72-1,6.39,6.39,0,0,1,5.16,2.2,7.46,7.46,0,0,1,1.64,4.84v16.16h-5.36v-15.2a2.84,2.84,0,0,0-.56-2,2.24,2.24,0,0,0-1.8-.6,3,3,0,0,0-1.88.48,2.25,2.25,0,0,0-.72,1.84v15.52h-5.36v-15.2a2.84,2.84,0,0,0-.56-2,2.24,2.24,0,0,0-1.8-.6,3,3,0,0,0-1.88.48,2.25,2.25,0,0,0-.72,1.84v15.52h-5.36Z"/><path class="cls-3" d="M538.07,382.76h-4.84v-2.4c-.68,1.84-1.84,2.88-4.64,2.88-3.6,0-5.88-2-5.88-6.6V360h5.36v14.84c0,1.56.36,3,2.24,3,1.4,0,2.4-.72,2.4-2.64V360h5.36Z"/><path class="cls-3" d="M544.88,353.17h5.36v29.6h-5.36Z"/><path class="cls-3" d="M561.91,373.32c0,2.24.6,4.88,3,4.88,1.4,0,2.4-.88,2.8-2.8H573c-.44,3.16-1.72,5.2-3.28,6.36a8.31,8.31,0,0,1-4.84,1.48c-6,0-8.76-5.28-8.76-11.84s2.8-11.84,8.76-11.84a7.15,7.15,0,0,1,6.6,3.64c1.68,2.92,1.8,6.64,1.68,10.12Zm5.92-4.56c0-1.36-.2-4.8-2.84-4.8-1.88,0-3.08,1.6-3.08,4.8Z"/><path class="cls-3" d="M590.27,358.61a16.34,16.34,0,0,0,0,27v5.52c-6.16-2.4-12.08-9.6-12.08-19s5.92-16.64,12.08-19Z"/><path class="cls-3" d="M604.35,366.77c-.08-1.68-.76-2.56-2.4-2.56A1.71,1.71,0,0,0,600,366c0,1.92,2.56,2.08,5.12,2.88s5.12,2.32,5.12,7c0,4.24-3.36,7.44-8,7.44-4.36,0-7.8-2.4-8.28-7.76h5.36a2.92,2.92,0,0,0,3.08,2.88,2,2,0,0,0,2.2-2.28c0-2-2.56-2.16-5.12-3s-5.12-2.4-5.12-6.92c0-3.8,2.64-6.6,7.76-6.6s7.28,2.8,7.6,7.2Z"/><path class="cls-3" d="M614.43,385.64a16.34,16.34,0,0,0,0-27v-5.52c6.16,2.4,12.08,9.6,12.08,19s-5.92,16.64-12.08,19Z"/><path class="cls-3" d="M654.35,382.76h-4.88L642.91,360h5.44l3.48,14.56,3-14.56h5.44Z"/><path class="cls-3" d="M662.91,371.36c0-6.52,2.8-11.8,8.76-11.8s8.76,5.28,8.76,11.84-2.8,11.84-8.76,11.84-8.76-5.28-8.76-11.84Zm5.68.08c0,5.32,1.2,6.76,3.16,6.76,1.8,0,3-1.44,3-6.8s-1.2-6.8-3.16-6.8c-1.8,0-3,1.44-3,6.8Z"/><path class="cls-3" d="M701,382.76h-4.84v-2.4c-.68,1.84-1.84,2.88-4.64,2.88-3.6,0-5.88-2-5.88-6.6V360H691v14.84c0,1.56.36,3,2.24,3,1.4,0,2.4-.72,2.4-2.64V360H701Z"/><path class="cls-3" d="M715.75,366.77c-.08-1.68-.76-2.56-2.4-2.56a1.71,1.71,0,0,0-1.92,1.76c0,1.92,2.56,2.08,5.12,2.88s5.12,2.32,5.12,7c0,4.24-3.36,7.44-8,7.44-4.36,0-7.8-2.4-8.28-7.76h5.36a2.92,2.92,0,0,0,3.08,2.88,2,2,0,0,0,2.2-2.28c0-2-2.56-2.16-5.12-3s-5.12-2.4-5.12-6.92c0-3.8,2.64-6.6,7.76-6.6s7.28,2.8,7.6,7.2Z"/><path class="cls-3" d="M747.83,366.77c-.08-1.68-.76-2.56-2.4-2.56a1.71,1.71,0,0,0-1.92,1.76c0,1.92,2.56,2.08,5.12,2.88s5.12,2.32,5.12,7c0,4.24-3.36,7.44-8,7.44-4.36,0-7.8-2.4-8.28-7.76h5.36a2.92,2.92,0,0,0,3.08,2.88,2,2,0,0,0,2.2-2.28c0-2-2.56-2.16-5.12-3s-5.12-2.4-5.12-6.92c0-3.8,2.64-6.6,7.76-6.6s7.28,2.8,7.6,7.2Z"/><path class="cls-3" d="M763.51,373.32c0,2.24.6,4.88,3,4.88,1.4,0,2.4-.88,2.8-2.8h5.32c-.44,3.16-1.72,5.2-3.28,6.36a8.31,8.31,0,0,1-4.84,1.48c-6,0-8.76-5.28-8.76-11.84s2.8-11.84,8.76-11.84a7.15,7.15,0,0,1,6.6,3.64c1.68,2.92,1.8,6.64,1.68,10.12Zm5.92-4.56c0-1.36-.2-4.8-2.84-4.8-1.88,0-3.08,1.6-3.08,4.8Z"/><path class="cls-3" d="M780.47,360h5v2.64c.72-2.24,2.16-3.12,4.64-3.12a5.05,5.05,0,0,1,3.24,1,3.83,3.83,0,0,1,1.08,1.48,4.49,4.49,0,0,1,1.48-1.52,7.16,7.16,0,0,1,3.72-1,6.39,6.39,0,0,1,5.16,2.2,7.47,7.47,0,0,1,1.64,4.84v16.16h-5.36v-15.2a2.84,2.84,0,0,0-.56-2,2.24,2.24,0,0,0-1.8-.6,3,3,0,0,0-1.88.48,2.25,2.25,0,0,0-.72,1.84v15.52h-5.36v-15.2a2.84,2.84,0,0,0-.56-2,2.24,2.24,0,0,0-1.8-.6,3,3,0,0,0-1.88.48,2.25,2.25,0,0,0-.72,1.84v15.52h-5.36Z"/><path class="cls-3" d="M813,353.17h5.36v9a3.8,3.8,0,0,1,3.92-2.64c4.64,0,7.16,4.16,7.16,11.84,0,8.16-3.08,11.84-7.16,11.84a4.44,4.44,0,0,1-4.4-2.72v2.24H813ZM824,371.36c0-4.36-.8-6.44-2.84-6.44-2.88,0-2.88,3.08-2.88,6.48s0,6.48,2.88,6.48c2,0,2.84-2.08,2.84-6.48Z"/><path class="cls-3" d="M835.11,353.17h5.36v29.6h-5.36Z"/><path class="cls-3" d="M852.15,373.32c0,2.24.6,4.88,3,4.88,1.4,0,2.4-.88,2.8-2.8h5.32c-.44,3.16-1.72,5.2-3.28,6.36a8.32,8.32,0,0,1-4.84,1.48c-6,0-8.76-5.28-8.76-11.84s2.8-11.84,8.76-11.84a7.16,7.16,0,0,1,6.6,3.64c1.68,2.92,1.8,6.64,1.68,10.12Zm5.92-4.56c0-1.36-.2-4.8-2.84-4.8-1.88,0-3.08,1.6-3.08,4.8Z"/><path class="cls-3" d="M880.51,358.61a16.34,16.34,0,0,0,0,27v5.52c-6.16-2.4-12.08-9.6-12.08-19s5.92-16.64,12.08-19Z"/><path class="cls-3" d="M886,360h4.64v2.16c.88-1.6,2-2.64,4.84-2.64,3.6,0,5.88,2,5.88,6.6v16.6H896V367.92c0-1.56-.36-3-2.24-3-1.4,0-2.4.72-2.4,2.64v15.2H886Z"/><path class="cls-3" d="M908.19,365.08h-2.4v-5h2.4v-4.32h5.36V360H916v5h-2.4v17.68h-5.36Z"/><path class="cls-3" d="M919.63,385.64a16.34,16.34,0,0,0,0-27v-5.52c6.16,2.4,12.08,9.6,12.08,19s-5.92,16.64-12.08,19Z"/><path class="cls-3" d="M965.59,382.76h-4.88V380.6a4.48,4.48,0,0,1-4.4,2.64c-4.08,0-7.16-3.68-7.16-11.84,0-7.68,2.52-11.84,7.16-11.84a4.3,4.3,0,0,1,4.4,2.8V360h4.88Zm-11.08-11.32c0,5,1.12,6.44,2.92,6.44a2.34,2.34,0,0,0,2.12-1c.68-.84.68-1.92.68-5.48s0-4.64-.68-5.48a2.34,2.34,0,0,0-2.12-1c-1.8,0-2.92,1.44-2.92,6.48Z"/><path class="cls-3" d="M987.19,382.76h-4.88V380.2a4.27,4.27,0,0,1-4.4,3c-4.08,0-7.16-3.68-7.16-11.84,0-7.68,2.52-11.84,7.16-11.84a4,4,0,0,1,4,2.4c0-.64,0-1.28,0-1.92v-6.88h5.36Zm-11.08-11.32c0,5,1.12,6.44,2.92,6.44a2.34,2.34,0,0,0,2.12-1c.68-.84.68-1.92.68-5.48s0-4.64-.68-5.48a2.34,2.34,0,0,0-2.12-1c-1.8,0-2.92,1.44-2.92,6.48Z"/><path class="cls-3" d="M1008.79,382.76h-4.88V380.6a4.48,4.48,0,0,1-4.4,2.64c-4.08,0-7.16-3.68-7.16-11.84,0-7.68,2.52-11.84,7.16-11.84a4.3,4.3,0,0,1,4.4,2.8V360h4.88Zm-11.08-11.32c0,5,1.12,6.44,2.92,6.44a2.34,2.34,0,0,0,2.12-1c.68-.84.68-1.92.68-5.48s0-4.64-.68-5.48a2.34,2.34,0,0,0-2.12-1c-1.8,0-2.92,1.44-2.92,6.48Z"/><path class="cls-3" d="M1015,360h4.88v2.16a4.54,4.54,0,0,1,4.4-2.64c4.08,0,7.16,3.68,7.16,11.84,0,7.68-2.52,11.84-7.16,11.84a4.36,4.36,0,0,1-3.92-2.16V390H1015Zm11.08,11.32c0-5-1-6.44-2.92-6.44a2.24,2.24,0,0,0-2,1c-.68.84-.84,1.92-.84,5.48s.16,4.64.84,5.48a2.24,2.24,0,0,0,2,1c1.88,0,2.92-1.44,2.92-6.48Z"/><path class="cls-3" d="M1037.19,365.08h-2.4v-5h2.4v-4.32h5.36V360h2.4v5h-2.4v17.68h-5.36Z"/><path class="cls-3" d="M1053.83,373.32c0,2.24.6,4.88,3,4.88,1.4,0,2.4-.88,2.8-2.8h5.32c-.44,3.16-1.72,5.2-3.28,6.36a8.32,8.32,0,0,1-4.84,1.48c-6,0-8.76-5.28-8.76-11.84s2.8-11.84,8.76-11.84a7.16,7.16,0,0,1,6.6,3.64c1.68,2.92,1.8,6.64,1.68,10.12Zm8-22.92,2,4.28-9.28,4.12-1.84-3.48Zm-2.12,18.36c0-1.36-.2-4.8-2.84-4.8-1.88,0-3.08,1.6-3.08,4.8Z"/><path class="cls-3" d="M1075.43,373.32c0,2.24.6,4.88,3,4.88,1.4,0,2.4-.88,2.8-2.8h5.32c-.44,3.16-1.72,5.2-3.28,6.36a8.32,8.32,0,0,1-4.84,1.48c-6,0-8.76-5.28-8.76-11.84s2.8-11.84,8.76-11.84a7.16,7.16,0,0,1,6.6,3.64c1.68,2.92,1.8,6.64,1.68,10.12Zm5.92-4.56c0-1.36-.2-4.8-2.84-4.8-1.88,0-3.08,1.6-3.08,4.8Z"/><path class="cls-3" d="M1103.79,358.61a16.34,16.34,0,0,0,0,27v5.52c-6.16-2.4-12.08-9.6-12.08-19s5.92-16.64,12.08-19Z"/><path class="cls-3" d="M1117.87,366.77c-.08-1.68-.76-2.56-2.4-2.56a1.71,1.71,0,0,0-1.92,1.76c0,1.92,2.56,2.08,5.12,2.88s5.12,2.32,5.12,7c0,4.24-3.36,7.44-8,7.44-4.36,0-7.8-2.4-8.28-7.76h5.36a2.92,2.92,0,0,0,3.08,2.88,2,2,0,0,0,2.2-2.28c0-2-2.56-2.16-5.12-3s-5.12-2.4-5.12-6.92c0-3.8,2.64-6.6,7.76-6.6s7.28,2.8,7.6,7.2Z"/><path class="cls-3" d="M1128,385.64a16.34,16.34,0,0,0,0-27v-5.52c6.16,2.4,12.08,9.6,12.08,19s-5.92,16.64-12.08,19Z"/><path class="cls-3" d="M1158.55,360h4.88v2.16a4.54,4.54,0,0,1,4.4-2.64c4.08,0,7.16,3.68,7.16,11.84,0,7.68-2.52,11.84-7.16,11.84a4.36,4.36,0,0,1-3.92-2.16V390h-5.36Zm11.08,11.32c0-5-1-6.44-2.92-6.44a2.24,2.24,0,0,0-2,1c-.68.84-.84,1.92-.84,5.48s.16,4.64.84,5.48a2.24,2.24,0,0,0,2,1c1.88,0,2.92-1.44,2.92-6.48Z"/><path class="cls-3" d="M1179.07,371.36c0-6.52,2.8-11.8,8.76-11.8s8.76,5.28,8.76,11.84-2.8,11.84-8.76,11.84-8.76-5.28-8.76-11.84Zm5.68.08c0,5.32,1.2,6.76,3.16,6.76,1.8,0,3-1.44,3-6.8s-1.2-6.8-3.16-6.8c-1.8,0-3,1.44-3,6.8Z"/><path class="cls-3" d="M1217.11,382.76h-4.84v-2.4c-.68,1.84-1.84,2.88-4.64,2.88-3.6,0-5.88-2-5.88-6.6V360h5.36v14.84c0,1.56.36,3,2.24,3,1.4,0,2.4-.72,2.4-2.64V360h5.36Z"/><path class="cls-3" d="M1223.35,360h4.88v3c.8-2.84,2.8-3.44,5.76-3.44v6.6a4,4,0,0,0-2.36-.68c-2,0-2.92,1.68-2.92,4v13.28h-5.36Z"/><path class="cls-3" d="M1251,360h4.88v2.16a4.54,4.54,0,0,1,4.4-2.64c4.08,0,7.16,3.68,7.16,11.84,0,7.68-2.52,11.84-7.16,11.84a4.36,4.36,0,0,1-3.92-2.16V390H1251Zm11.08,11.32c0-5-1-6.44-2.92-6.44a2.24,2.24,0,0,0-2,1c-.68.84-.84,1.92-.84,5.48s.16,4.64.84,5.48a2.24,2.24,0,0,0,2,1c1.88,0,2.92-1.44,2.92-6.48Z"/><path class="cls-3" d="M1287.95,382.76h-4.88V380.6a4.48,4.48,0,0,1-4.4,2.64c-4.08,0-7.16-3.68-7.16-11.84,0-7.68,2.52-11.84,7.16-11.84a4.3,4.3,0,0,1,4.4,2.8V360h4.88Zm-11.08-11.32c0,5,1.12,6.44,2.92,6.44a2.34,2.34,0,0,0,2.12-1c.68-.84.68-1.92.68-5.48s0-4.64-.68-5.48a2.34,2.34,0,0,0-2.12-1c-1.8,0-2.92,1.44-2.92,6.48Z"/><path class="cls-3" d="M1294.19,360h4.88v3c.8-2.84,2.8-3.44,5.76-3.44v6.6a4,4,0,0,0-2.36-.68c-2,0-2.92,1.68-2.92,4v13.28h-5.36Z"/><path class="cls-3" d="M1309.67,353.17H1315v29.6h-5.36Z"/><path class="cls-3" d="M1326.71,373.32c0,2.24.6,4.88,3,4.88,1.4,0,2.4-.88,2.8-2.8h5.32c-.44,3.16-1.72,5.2-3.28,6.36a8.32,8.32,0,0,1-4.84,1.48c-6,0-8.76-5.28-8.76-11.84s2.8-11.84,8.76-11.84a7.16,7.16,0,0,1,6.6,3.64c1.68,2.92,1.8,6.64,1.68,10.12Zm5.92-4.56c0-1.36-.2-4.8-2.84-4.8-1.88,0-3.08,1.6-3.08,4.8Z"/><path class="cls-3" d="M1343.43,360h4.88v3c.8-2.84,2.8-3.44,5.76-3.44v6.6a4,4,0,0,0-2.36-.68c-2,0-2.92,1.68-2.92,4v13.28h-5.36Z"/><path class="cls-3" d="M1386.43,382.76h-4.88V380.2a4.27,4.27,0,0,1-4.4,3c-4.08,0-7.16-3.68-7.16-11.84,0-7.68,2.52-11.84,7.16-11.84a4,4,0,0,1,4,2.4c0-.64,0-1.28,0-1.92v-6.88h5.36Zm-11.08-11.32c0,5,1.12,6.44,2.92,6.44a2.34,2.34,0,0,0,2.12-1c.68-.84.68-1.92.68-5.48s0-4.64-.68-5.48a2.34,2.34,0,0,0-2.12-1c-1.8,0-2.92,1.44-2.92,6.48Z"/><path class="cls-3" d="M1397.55,373.32c0,2.24.6,4.88,3,4.88,1.4,0,2.4-.88,2.8-2.8h5.32c-.44,3.16-1.72,5.2-3.28,6.36a8.32,8.32,0,0,1-4.84,1.48c-6,0-8.76-5.28-8.76-11.84s2.8-11.84,8.76-11.84a7.16,7.16,0,0,1,6.6,3.64c1.68,2.92,1.8,6.64,1.68,10.12Zm5.92-4.56c0-1.36-.2-4.8-2.84-4.8-1.88,0-3.08,1.6-3.08,4.8Z"/><path class="cls-3" d="M1427.55,353.17h5.36v29.6h-5.36Z"/><path class="cls-3" d="M1440.83,353.17h5.68l-4.24,10h-4.8Z"/><path class="cls-3" d="M1455.07,373.32c0,2.24.6,4.88,3,4.88,1.4,0,2.4-.88,2.8-2.8h5.32c-.44,3.16-1.72,5.2-3.28,6.36a8.32,8.32,0,0,1-4.84,1.48c-6,0-8.76-5.28-8.76-11.84s2.8-11.84,8.76-11.84a7.16,7.16,0,0,1,6.6,3.64c1.68,2.92,1.8,6.64,1.68,10.12Zm5.92-4.56c0-1.36-.2-4.8-2.84-4.8-1.88,0-3.08,1.6-3.08,4.8Z"/><path class="cls-3" d="M1471.79,360h4.64v2.16c.88-1.6,2-2.64,4.84-2.64,3.6,0,5.88,2,5.88,6.6v16.6h-5.36V367.92c0-1.56-.36-3-2.24-3-1.4,0-2.4.72-2.4,2.64v15.2h-5.36Z"/><path class="cls-3" d="M1493.95,365.08h-2.4v-5h2.4v-4.32h5.36V360h2.4v5h-2.4v17.68h-5.36Z"/><path class="cls-3" d="M1506.11,360H1511v3c.8-2.84,2.8-3.44,5.76-3.44v6.6a4,4,0,0,0-2.36-.68c-2,0-2.92,1.68-2.92,4v13.28h-5.36Z"/><path class="cls-3" d="M1525.31,373.32c0,2.24.6,4.88,3,4.88,1.4,0,2.4-.88,2.8-2.8h5.32c-.44,3.16-1.72,5.2-3.28,6.36a8.31,8.31,0,0,1-4.84,1.48c-6,0-8.76-5.28-8.76-11.84s2.8-11.84,8.76-11.84a7.15,7.15,0,0,1,6.6,3.64c1.68,2.92,1.8,6.64,1.68,10.12Zm5.92-4.56c0-1.36-.2-4.8-2.84-4.8-1.88,0-3.08,1.6-3.08,4.8Z"/><path class="cls-3" d="M1542,360h4.88v2.16a4.54,4.54,0,0,1,4.4-2.64c4.08,0,7.16,3.68,7.16,11.84,0,7.68-2.52,11.84-7.16,11.84a4.36,4.36,0,0,1-3.92-2.16V390H1542Zm11.08,11.32c0-5-1-6.44-2.92-6.44a2.24,2.24,0,0,0-2,1c-.68.84-.84,1.92-.84,5.48s.16,4.64.84,5.48a2.24,2.24,0,0,0,2,1c1.88,0,2.92-1.44,2.92-6.48Z"/><path class="cls-3" d="M1563.63,360h4.88v3c.8-2.84,2.8-3.44,5.76-3.44v6.6a4,4,0,0,0-2.36-.68c-2,0-2.92,1.68-2.92,4v13.28h-5.36Z"/><path class="cls-3" d="M1579.11,353.17h5.36v4.48h-5.36Zm0,6.88h5.36v22.72h-5.36Z"/><path class="cls-3" d="M1599.83,366.77c-.08-1.68-.76-2.56-2.4-2.56a1.71,1.71,0,0,0-1.92,1.76c0,1.92,2.56,2.08,5.12,2.88s5.12,2.32,5.12,7c0,4.24-3.36,7.44-8,7.44-4.36,0-7.8-2.4-8.28-7.76h5.36a2.92,2.92,0,0,0,3.08,2.88,2,2,0,0,0,2.2-2.28c0-2-2.56-2.16-5.12-3s-5.12-2.4-5.12-6.92c0-3.8,2.64-6.6,7.76-6.6s7.28,2.8,7.6,7.2Z"/><path class="cls-3" d="M1615.51,373.32c0,2.24.6,4.88,3,4.88,1.4,0,2.4-.88,2.8-2.8h5.32c-.44,3.16-1.72,5.2-3.28,6.36a8.31,8.31,0,0,1-4.84,1.48c-6,0-8.76-5.28-8.76-11.84s2.8-11.84,8.76-11.84a7.15,7.15,0,0,1,6.6,3.64c1.68,2.92,1.8,6.64,1.68,10.12Zm5.92-4.56c0-1.36-.2-4.8-2.84-4.8-1.88,0-3.08,1.6-3.08,4.8Z"/><path class="cls-3" d="M1648.79,374.76c0-3.2-.6-5.88,1.24-8.24s4.84-3.64,4.84-5.84c0-1.6-1-2.4-2.64-2.4-1.32,0-2.4.88-2.4,2.84v1h-6.08v-1.44c0-5.28,3.44-8,8.76-8,4.76,0,8.6,3.28,8.6,8.24,0,3.36-1.76,5.16-3.44,6.68-3.16,2.8-3,2.64-3,7.16Zm5.92,8h-5.92v-6.08h5.92Z"/><path class="cls-3" d="M483.13,505.88h-3.22v-2.71h9.36v2.71h-3.22v15h-2.93Z"/><path class="cls-3" d="M490.83,507.51h2.38c0,.82,0,1.49,0,2.16.55-2,1.94-2.45,3.48-2.45v3.14a1.94,1.94,0,0,0-1.1-.31c-1.18,0-2.14,1.15-2.14,3.29v7.58h-2.59Z"/><path class="cls-3" d="M501.15,515.12c0,1.87.65,3.67,2.38,3.67a2.2,2.2,0,0,0,2.16-2h2.57a5.46,5.46,0,0,1-1.82,3.53,4.81,4.81,0,0,1-2.9.94c-3.58,0-5.16-3.26-5.16-7,0-4,1.75-7,5.14-7a4.25,4.25,0,0,1,3.79,2,10.73,10.73,0,0,1,1.08,5.86Zm4.66-10.25-.91,1.7L499.4,504l1-2.09Zm0,8c0-1.54-.55-3.5-2.28-3.5-1.42,0-2.35,1.32-2.35,3.5Z"/><path class="cls-3" d="M516.87,511.3c0-1.27-.62-1.82-1.7-1.82a1.34,1.34,0,0,0-1.44,1.39c0,1.3,1.42,1.54,3,2a3.88,3.88,0,0,1,3.1,4.08,4.22,4.22,0,0,1-4.46,4.25c-2.52,0-4.42-1.42-4.63-4.44h2.59a2,2,0,0,0,2.09,2.09,1.57,1.57,0,0,0,1.68-1.73c0-1.34-1.39-1.66-3-2.18s-3.07-1.42-3.07-4c0-2.18,1.56-3.74,4.27-3.74s4.06,1.51,4.2,4.08Z"/><path class="cls-3" d="M539.19,520.93h-2.38c0-.72,0-1.25,0-1.75a3,3,0,0,1-3,2c-2.52,0-4.34-2.4-4.34-7,0-4.39,1.56-7,4.34-7a2.94,2.94,0,0,1,3,2.11c0-.6,0-1.15,0-1.82h2.38Zm-7.06-6.67c0,3,.82,4.39,2.26,4.39a1.8,1.8,0,0,0,1.66-.94c.48-.65.55-1.51.55-3.48s-.07-2.86-.55-3.5a1.83,1.83,0,0,0-1.66-.91c-1.44,0-2.26,1.39-2.26,4.42Z"/><path class="cls-3" d="M543.54,510h-1.61v-2.45h1.61v-3.19h2.59v3.19h1.58V510h-1.58v11h-2.59Z"/><path class="cls-3" d="M550.9,510H549.3v-2.45h1.61v-3.19h2.59v3.19h1.58V510H553.5v11H550.9Z"/><path class="cls-3" d="M559.76,515.12c0,1.87.65,3.67,2.38,3.67a2.2,2.2,0,0,0,2.16-2h2.57a5.47,5.47,0,0,1-1.82,3.53,4.81,4.81,0,0,1-2.9.94c-3.58,0-5.16-3.26-5.16-7,0-4,1.75-7,5.14-7a4.25,4.25,0,0,1,3.79,2,10.72,10.72,0,0,1,1.08,5.86Zm4.63-2.23c0-1.54-.55-3.5-2.28-3.5-1.42,0-2.35,1.32-2.35,3.5Z"/><path class="cls-3" d="M570.3,507.51h2.28c0,.55,0,1.08,0,1.66a3.14,3.14,0,0,1,3.19-1.94c2.21,0,3.63,1.22,3.63,4.15v9.55h-2.59v-8.71c0-1.08-.22-2.4-1.8-2.4-1.25,0-2.09.77-2.09,2.52v8.59H570.3Z"/><path class="cls-3" d="M583.69,510h-1.61v-2.45h1.61v-3.19h2.59v3.19h1.58V510h-1.58v11h-2.59Z"/><path class="cls-3" d="M590.89,503.16h2.59v2.57h-2.59Zm0,4.34h2.59v13.42h-2.59Z"/><path class="cls-3" d="M602.62,520.93h-2.4l-4-13.42h2.64l2.47,9.58,2.28-9.58h2.62Z"/><path class="cls-3" d="M610.78,515.12c0,1.87.65,3.67,2.38,3.67a2.2,2.2,0,0,0,2.16-2h2.57a5.47,5.47,0,0,1-1.82,3.53,4.81,4.81,0,0,1-2.9.94c-3.58,0-5.16-3.26-5.16-7,0-4,1.75-7,5.14-7a4.25,4.25,0,0,1,3.79,2,10.72,10.72,0,0,1,1.08,5.86Zm4.63-2.23c0-1.54-.55-3.5-2.28-3.5-1.42,0-2.35,1.32-2.35,3.5Z"/><path class="cls-3" d="M637.59,520.93h-2.38c0-.72,0-1.25,0-1.75a3,3,0,0,1-3,2c-2.52,0-4.34-2.4-4.34-7,0-4.39,1.56-7,4.34-7a2.94,2.94,0,0,1,3,2.11c0-.6,0-1.15,0-1.82h2.38Zm-2.14-16.06-.89,1.7-5.5-2.62,1-2.09Zm-4.92,9.39c0,3,.82,4.39,2.26,4.39a1.8,1.8,0,0,0,1.66-.94c.48-.65.55-1.51.55-3.48s-.07-2.86-.55-3.5a1.83,1.83,0,0,0-1.66-.91c-1.44,0-2.26,1.39-2.26,4.42Z"/><path class="cls-3" d="M649.06,503.16h2.59v17.76h-2.59Z"/><path class="cls-3" d="M656.84,503.16h2.76l-2.3,5.45h-2.37Z"/><path class="cls-3" d="M671.41,520.93H669c0-.72,0-1.25,0-1.75a3,3,0,0,1-3,2c-2.52,0-4.34-2.4-4.34-7,0-4.39,1.56-7,4.34-7a2.94,2.94,0,0,1,3,2.11c0-.6,0-1.15,0-1.82h2.38Zm-7.06-6.67c0,3,.82,4.39,2.26,4.39a1.8,1.8,0,0,0,1.66-.94c.48-.65.55-1.51.55-3.48s-.07-2.86-.55-3.5a1.83,1.83,0,0,0-1.66-.91c-1.44,0-2.26,1.39-2.26,4.42Z"/><path class="cls-3" d="M684.06,516c-.1,2.74-1.51,5.18-4.35,5.18-3.34,0-5.18-2.81-5.18-7,0-4.44,2-7,5.16-7,2.86,0,4.3,2.42,4.34,5.23h-2.69c-.1-2-.84-2.78-1.85-2.78a1.68,1.68,0,0,0-1.63,1.06,7.65,7.65,0,0,0-.6,3.5c0,3.22.82,4.56,2.26,4.56,1.2,0,1.75-1.18,1.85-2.76Z"/><path class="cls-3" d="M687.37,510h-1.61v-2.45h1.61v-3.19H690v3.19h1.58V510H690v11h-2.59Z"/><path class="cls-3" d="M703.33,520.93H701c0-.58,0-1.15,0-1.78a2.91,2.91,0,0,1-3.12,2.06c-2.18,0-3.6-1.22-3.6-4.15v-9.55h2.59v8.71c0,1.08.22,2.42,1.8,2.42,1.22,0,2.09-.79,2.09-2.54v-8.59h2.59Z"/><path class="cls-3" d="M716.19,520.93h-2.38c0-.72,0-1.25,0-1.75a3,3,0,0,1-3,2c-2.52,0-4.34-2.4-4.34-7,0-4.39,1.56-7,4.34-7a2.94,2.94,0,0,1,3,2.11c0-.6,0-1.15,0-1.82h2.38Zm-7.06-6.67c0,3,.82,4.39,2.26,4.39a1.8,1.8,0,0,0,1.66-.94c.48-.65.55-1.51.55-3.48s-.07-2.86-.55-3.5a1.83,1.83,0,0,0-1.66-.91c-1.44,0-2.26,1.39-2.26,4.42Z"/><path class="cls-3" d="M720.37,503.16H723v17.76h-2.59Z"/><path class="cls-3" d="M727.42,503.16H730v2.57h-2.59Zm0,4.34H730v13.42h-2.59Z"/><path class="cls-3" d="M734.65,510H733v-2.45h1.61v-3.19h2.59v3.19h1.58V510h-1.58v11h-2.59Z"/><path class="cls-3" d="M743.5,515.12c0,1.87.65,3.67,2.38,3.67a2.2,2.2,0,0,0,2.16-2h2.57a5.46,5.46,0,0,1-1.82,3.53,4.81,4.81,0,0,1-2.9.94c-3.58,0-5.16-3.26-5.16-7,0-4,1.75-7,5.14-7a4.25,4.25,0,0,1,3.79,2,10.73,10.73,0,0,1,1.08,5.86Zm5.21-13.25,1,2.09-5.5,2.62-.91-1.7Zm-.58,11c0-1.54-.55-3.5-2.28-3.5-1.42,0-2.35,1.32-2.35,3.5Z"/><path class="cls-3" d="M770.31,520.93h-2.38c0-.79,0-1.37,0-1.94a2.94,2.94,0,0,1-3,2.23c-2.52,0-4.34-2.4-4.34-7,0-4.39,1.56-7,4.34-7a2.75,2.75,0,0,1,2.74,1.94c0-.53,0-1.06,0-1.66v-4.34h2.59Zm-7.06-6.7c0,3,.82,4.39,2.26,4.39a1.83,1.83,0,0,0,1.66-.91c.48-.67.55-1.51.55-3.5s-.07-2.83-.55-3.48a1.8,1.8,0,0,0-1.66-.94c-1.44,0-2.26,1.42-2.26,4.42Z"/><path class="cls-3" d="M776.41,515.12c0,1.87.65,3.67,2.38,3.67a2.2,2.2,0,0,0,2.16-2h2.57a5.47,5.47,0,0,1-1.82,3.53,4.81,4.81,0,0,1-2.9.94c-3.58,0-5.16-3.26-5.16-7,0-4,1.75-7,5.14-7a4.25,4.25,0,0,1,3.79,2,10.72,10.72,0,0,1,1.08,5.86Zm4.63-2.23c0-1.54-.55-3.5-2.28-3.5-1.42,0-2.35,1.32-2.35,3.5Z"/><path class="cls-3" d="M799.21,520.93h-2.4l-4-13.42h2.64l2.47,9.58,2.28-9.58h2.62Z"/><path class="cls-3" d="M804.49,514.21c0-3.84,1.63-7,5.19-7s5.16,3.14,5.16,7-1.63,7-5.16,7-5.19-3.14-5.19-7Zm2.74,0c0,3.29.89,4.54,2.47,4.54s2.4-1.25,2.4-4.56-.89-4.56-2.47-4.56-2.4,1.22-2.4,4.56Z"/><path class="cls-3" d="M818.5,510h-1.61v-2.45h1.61v-3.19h2.59v3.19h1.58V510h-1.58v11H818.5Z"/><path class="cls-3" d="M825.42,507.51h2.38c0,.82,0,1.49,0,2.16.55-2,1.94-2.45,3.48-2.45v3.14a1.94,1.94,0,0,0-1.1-.31c-1.18,0-2.14,1.15-2.14,3.29v7.58h-2.59Z"/><path class="cls-3" d="M835.73,515.12c0,1.87.65,3.67,2.38,3.67a2.2,2.2,0,0,0,2.16-2h2.57a5.47,5.47,0,0,1-1.82,3.53,4.81,4.81,0,0,1-2.9.94c-3.58,0-5.16-3.26-5.16-7,0-4,1.75-7,5.14-7a4.25,4.25,0,0,1,3.79,2,10.72,10.72,0,0,1,1.08,5.86Zm4.63-2.23c0-1.54-.55-3.5-2.28-3.5-1.42,0-2.35,1.32-2.35,3.5Z"/><path class="cls-3" d="M855.77,515.12c0,1.87.65,3.67,2.38,3.67a2.2,2.2,0,0,0,2.16-2h2.57a5.46,5.46,0,0,1-1.82,3.53,4.81,4.81,0,0,1-2.9.94c-3.58,0-5.16-3.26-5.16-7,0-4,1.75-7,5.14-7a4.25,4.25,0,0,1,3.79,2,10.73,10.73,0,0,1,1.08,5.86Zm4.63-2.23c0-1.54-.55-3.5-2.28-3.5-1.42,0-2.35,1.32-2.35,3.5Z"/><path class="cls-3" d="M866.31,507.51h2.28c0,.55,0,1.08,0,1.66a3.14,3.14,0,0,1,3.19-1.94c2.21,0,3.62,1.22,3.62,4.15v9.55h-2.59v-8.71c0-1.08-.22-2.4-1.8-2.4-1.25,0-2.09.77-2.09,2.52v8.59h-2.59Z"/><path class="cls-3" d="M879.7,510h-1.61v-2.45h1.61v-3.19h2.59v3.19h1.58V510h-1.58v11H879.7Z"/><path class="cls-3" d="M886.61,507.51H889c0,.82,0,1.49,0,2.16.55-2,1.94-2.45,3.48-2.45v3.14a1.94,1.94,0,0,0-1.1-.31c-1.18,0-2.14,1.15-2.14,3.29v7.58h-2.59Z"/><path class="cls-3" d="M896.93,515.12c0,1.87.65,3.67,2.38,3.67a2.2,2.2,0,0,0,2.16-2H904a5.47,5.47,0,0,1-1.82,3.53,4.81,4.81,0,0,1-2.9.94c-3.58,0-5.16-3.26-5.16-7,0-4,1.75-7,5.14-7a4.25,4.25,0,0,1,3.79,2,10.72,10.72,0,0,1,1.08,5.86Zm4.63-2.23c0-1.54-.55-3.5-2.28-3.5-1.42,0-2.35,1.32-2.35,3.5Z"/><path class="cls-3" d="M907.47,507.51h2.38v1.75a2.94,2.94,0,0,1,2.93-2c2.52,0,4.34,2.4,4.34,7,0,4.37-1.56,7-4.34,7a2.85,2.85,0,0,1-2.71-1.82v6h-2.59Zm7.06,6.7c0-3-.79-4.39-2.26-4.39a1.79,1.79,0,0,0-1.58.91c-.48.65-.62,1.51-.62,3.5s.14,2.83.62,3.48a1.77,1.77,0,0,0,1.58.94c1.46,0,2.26-1.42,2.26-4.42Z"/><path class="cls-3" d="M920.33,507.51h2.38c0,.82,0,1.49,0,2.16.55-2,1.94-2.45,3.48-2.45v3.14a1.94,1.94,0,0,0-1.1-.31c-1.18,0-2.14,1.15-2.14,3.29v7.58h-2.59Z"/><path class="cls-3" d="M929.07,503.16h2.59v2.57h-2.59Zm0,4.34h2.59v13.42h-2.59Z"/><path class="cls-3" d="M941,511.3c0-1.27-.62-1.82-1.7-1.82a1.34,1.34,0,0,0-1.44,1.39c0,1.3,1.42,1.54,3,2a3.88,3.88,0,0,1,3.1,4.08,4.22,4.22,0,0,1-4.46,4.25c-2.52,0-4.42-1.42-4.63-4.44h2.59a2,2,0,0,0,2.09,2.09,1.57,1.57,0,0,0,1.68-1.73c0-1.34-1.39-1.66-3-2.18s-3.07-1.42-3.07-4c0-2.18,1.56-3.74,4.27-3.74s4.06,1.51,4.2,4.08Z"/><path class="cls-3" d="M949.28,515.12c0,1.87.65,3.67,2.38,3.67a2.2,2.2,0,0,0,2.16-2h2.57a5.46,5.46,0,0,1-1.82,3.53,4.81,4.81,0,0,1-2.9.94c-3.58,0-5.16-3.26-5.16-7,0-4,1.75-7,5.14-7a4.25,4.25,0,0,1,3.79,2,10.73,10.73,0,0,1,1.08,5.86Zm4.63-2.23c0-1.54-.55-3.5-2.28-3.5-1.42,0-2.35,1.32-2.35,3.5Z"/><path class="cls-3" d="M960.77,523.21h-2.11l1.68-5.45h2.47Z"/><path class="cls-3" d="M974.72,521.43c0,2.4-1,4.06-3.29,4.2-.26,0-.55,0-.82,0v-2.47h.19c1-.12,1.32-.84,1.32-2.14V507.51h2.59Zm-2.59-18.27h2.59v2.57h-2.59Z"/><path class="cls-3" d="M979.88,503.16h2.76l-2.3,5.45H978Z"/><path class="cls-3" d="M994.45,520.93h-2.38c0-.72,0-1.25,0-1.75a3,3,0,0,1-3,2c-2.52,0-4.34-2.4-4.34-7,0-4.39,1.56-7,4.34-7a2.94,2.94,0,0,1,3,2.11c0-.6,0-1.15,0-1.82h2.38Zm-7.06-6.67c0,3,.82,4.39,2.26,4.39a1.8,1.8,0,0,0,1.66-.94c.48-.65.55-1.51.55-3.48s-.07-2.86-.55-3.5a1.83,1.83,0,0,0-1.66-.91c-1.44,0-2.26,1.39-2.26,4.42Z"/><path class="cls-3" d="M998.62,503.16h2.59v2.57h-2.59Zm0,4.34h2.59v13.42h-2.59Z"/><path class="cls-3" d="M1021.66,520.93h-2.38c0-.72,0-1.25,0-1.75a3,3,0,0,1-3,2c-2.52,0-4.34-2.4-4.34-7,0-4.39,1.56-7,4.34-7a2.94,2.94,0,0,1,3,2.11c0-.6,0-1.15,0-1.82h2.38Zm-7.06-6.67c0,3,.82,4.39,2.26,4.39a1.8,1.8,0,0,0,1.66-.94c.48-.65.55-1.51.55-3.48s-.07-2.86-.55-3.5a1.83,1.83,0,0,0-1.66-.91c-1.44,0-2.26,1.39-2.26,4.42Z"/><path class="cls-3" d="M1025.55,507.51h2.38v1.75a2.94,2.94,0,0,1,2.93-2c2.52,0,4.34,2.4,4.34,7,0,4.37-1.56,7-4.34,7a2.85,2.85,0,0,1-2.71-1.82v6h-2.59Zm7.06,6.7c0-3-.79-4.39-2.26-4.39a1.79,1.79,0,0,0-1.58.91c-.48.65-.62,1.51-.62,3.5s.14,2.83.62,3.48a1.77,1.77,0,0,0,1.58.94c1.46,0,2.26-1.42,2.26-4.42Z"/><path class="cls-3" d="M1038.41,507.51h2.38v1.75a2.94,2.94,0,0,1,2.93-2c2.52,0,4.34,2.4,4.34,7,0,4.37-1.56,7-4.34,7a2.85,2.85,0,0,1-2.71-1.82v6h-2.59Zm7.06,6.7c0-3-.79-4.39-2.26-4.39a1.8,1.8,0,0,0-1.58.91c-.48.65-.62,1.51-.62,3.5s.14,2.83.62,3.48a1.77,1.77,0,0,0,1.58.94c1.46,0,2.26-1.42,2.26-4.42Z"/><path class="cls-3" d="M1051.28,507.51h2.38c0,.82,0,1.49,0,2.16.55-2,1.94-2.45,3.48-2.45v3.14a1.94,1.94,0,0,0-1.1-.31c-1.18,0-2.14,1.15-2.14,3.29v7.58h-2.59Z"/><path class="cls-3" d="M1060,503.16h2.59v2.57H1060Zm0,4.34h2.59v13.42H1060Z"/><path class="cls-3" d="M1072,511.3c0-1.27-.62-1.82-1.7-1.82a1.34,1.34,0,0,0-1.44,1.39c0,1.3,1.42,1.54,3,2a3.88,3.88,0,0,1,3.1,4.08,4.22,4.22,0,0,1-4.46,4.25c-2.52,0-4.42-1.42-4.63-4.44h2.59a2,2,0,0,0,2.09,2.09,1.57,1.57,0,0,0,1.68-1.73c0-1.34-1.39-1.66-3-2.18s-3.07-1.42-3.07-4c0-2.18,1.56-3.74,4.27-3.74s4.06,1.51,4.2,4.08Z"/><path class="cls-3" d="M1094.28,525.44h-2.59v-4.51c0-.67,0-1.18,0-1.66a2.77,2.77,0,0,1-2.74,1.94c-2.78,0-4.34-2.62-4.34-7,0-4.61,1.82-7,4.34-7a2.82,2.82,0,0,1,2.88,2c0-.55,0-1.1,0-1.75h2.45Zm-7.06-11.18c0,3,.82,4.39,2.26,4.39a1.8,1.8,0,0,0,1.66-.94c.48-.65.55-1.51.55-3.48s-.07-2.86-.55-3.5a1.83,1.83,0,0,0-1.66-.91c-1.44,0-2.26,1.39-2.26,4.42Z"/><path class="cls-3" d="M1107.22,520.93h-2.37c0-.58,0-1.15,0-1.78a2.91,2.91,0,0,1-3.12,2.06c-2.18,0-3.6-1.22-3.6-4.15v-9.55h2.59v8.71c0,1.08.22,2.42,1.8,2.42,1.22,0,2.09-.79,2.09-2.54v-8.59h2.59Z"/><path class="cls-3" d="M1113.31,515.12c0,1.87.65,3.67,2.38,3.67a2.2,2.2,0,0,0,2.16-2h2.57a5.46,5.46,0,0,1-1.82,3.53,4.81,4.81,0,0,1-2.9.94c-3.58,0-5.16-3.26-5.16-7,0-4,1.75-7,5.14-7a4.25,4.25,0,0,1,3.79,2,10.73,10.73,0,0,1,1.08,5.86Zm4.63-2.23c0-1.54-.55-3.5-2.28-3.5-1.42,0-2.35,1.32-2.35,3.5Z"/><path class="cls-3" d="M1136.12,520.93h-2.4l-4-13.42h2.64l2.47,9.58,2.28-9.58h2.62Z"/><path class="cls-3" d="M1141.39,514.21c0-3.84,1.63-7,5.18-7s5.16,3.14,5.16,7-1.63,7-5.16,7-5.18-3.14-5.18-7Zm2.74,0c0,3.29.89,4.54,2.47,4.54s2.4-1.25,2.4-4.56-.89-4.56-2.47-4.56-2.4,1.22-2.4,4.56Z"/><path class="cls-3" d="M1155.41,510h-1.61v-2.45h1.61v-3.19H1158v3.19h1.58V510H1158v11h-2.59Z"/><path class="cls-3" d="M1162.32,507.51h2.38c0,.82,0,1.49,0,2.16.55-2,1.94-2.45,3.48-2.45v3.14a1.94,1.94,0,0,0-1.1-.31c-1.18,0-2.14,1.15-2.14,3.29v7.58h-2.59Z"/><path class="cls-3" d="M1172.64,515.12c0,1.87.65,3.67,2.38,3.67a2.2,2.2,0,0,0,2.16-2h2.57a5.45,5.45,0,0,1-1.82,3.53,4.81,4.81,0,0,1-2.9.94c-3.58,0-5.16-3.26-5.16-7,0-4,1.75-7,5.14-7a4.25,4.25,0,0,1,3.79,2,10.75,10.75,0,0,1,1.08,5.86Zm4.63-2.23c0-1.54-.55-3.5-2.28-3.5-1.42,0-2.35,1.32-2.35,3.5Z"/><path class="cls-3" d="M1192.68,515.12c0,1.87.65,3.67,2.38,3.67a2.2,2.2,0,0,0,2.16-2h2.57a5.47,5.47,0,0,1-1.82,3.53,4.81,4.81,0,0,1-2.9.94c-3.58,0-5.16-3.26-5.16-7,0-4,1.75-7,5.14-7a4.25,4.25,0,0,1,3.79,2,10.72,10.72,0,0,1,1.08,5.86Zm4.63-2.23c0-1.54-.55-3.5-2.28-3.5-1.42,0-2.35,1.32-2.35,3.5Z"/><path class="cls-3" d="M1203.22,507.51h2.28c0,.55,0,1.08,0,1.66a3.14,3.14,0,0,1,3.19-1.94c2.21,0,3.63,1.22,3.63,4.15v9.55h-2.59v-8.71c0-1.08-.22-2.4-1.8-2.4-1.25,0-2.09.77-2.09,2.52v8.59h-2.59Z"/><path class="cls-3" d="M1216.61,510H1215v-2.45h1.61v-3.19h2.59v3.19h1.58V510h-1.58v11h-2.59Z"/><path class="cls-3" d="M1223.52,507.51h2.38c0,.82,0,1.49,0,2.16.55-2,1.94-2.45,3.48-2.45v3.14a1.94,1.94,0,0,0-1.1-.31c-1.18,0-2.14,1.15-2.14,3.29v7.58h-2.59Z"/><path class="cls-3" d="M1233.84,515.12c0,1.87.65,3.67,2.38,3.67a2.2,2.2,0,0,0,2.16-2h2.57a5.47,5.47,0,0,1-1.82,3.53,4.81,4.81,0,0,1-2.9.94c-3.58,0-5.16-3.26-5.16-7,0-4,1.75-7,5.14-7a4.25,4.25,0,0,1,3.79,2,10.72,10.72,0,0,1,1.08,5.86Zm4.63-2.23c0-1.54-.55-3.5-2.28-3.5-1.42,0-2.35,1.32-2.35,3.5Z"/><path class="cls-3" d="M1244.38,507.51h2.38v1.75a2.94,2.94,0,0,1,2.93-2c2.52,0,4.34,2.4,4.34,7,0,4.37-1.56,7-4.34,7a2.86,2.86,0,0,1-2.71-1.82v6h-2.59Zm7.06,6.7c0-3-.79-4.39-2.26-4.39a1.79,1.79,0,0,0-1.58.91c-.48.65-.62,1.51-.62,3.5s.14,2.83.63,3.48a1.77,1.77,0,0,0,1.58.94c1.46,0,2.26-1.42,2.26-4.42Z"/><path class="cls-3" d="M1256.57,514.21c0-3.84,1.63-7,5.18-7s5.16,3.14,5.16,7-1.63,7-5.16,7-5.18-3.14-5.18-7ZM1266,506h-2.33l-1.87-2-1.9,2h-2.33l3-3.31h2.5Zm-6.65,8.28c0,3.29.89,4.54,2.47,4.54s2.4-1.25,2.4-4.56-.89-4.56-2.47-4.56-2.4,1.22-2.4,4.56Z"/><path class="cls-3" d="M1270.59,510H1269v-2.45h1.61v-3.19h2.59v3.19h1.58V510h-1.58v11h-2.59Z"/><path class="cls-3" d="M1293.77,520.93h-2.38c0-.72,0-1.25,0-1.75a3,3,0,0,1-3,2c-2.52,0-4.34-2.4-4.34-7,0-4.39,1.56-7,4.34-7a2.94,2.94,0,0,1,3,2.11c0-.6,0-1.15,0-1.82h2.38Zm-7.06-6.67c0,3,.82,4.39,2.26,4.39a1.8,1.8,0,0,0,1.66-.94c.48-.65.55-1.51.55-3.48s-.07-2.86-.55-3.5a1.83,1.83,0,0,0-1.66-.91c-1.44,0-2.26,1.39-2.26,4.42Z"/><path class="cls-3" d="M1297.94,503.16h2.59v17.76h-2.59Z"/><path class="cls-3" d="M1305,503.16h2.59v17.76H1305Z"/><path class="cls-3" d="M1320.75,520.93h-2.38c0-.72,0-1.25,0-1.75a3,3,0,0,1-3,2c-2.52,0-4.34-2.4-4.34-7,0-4.39,1.56-7,4.34-7a2.94,2.94,0,0,1,3,2.11c0-.6,0-1.15,0-1.82h2.38Zm-7.06-6.67c0,3,.82,4.39,2.26,4.39a1.8,1.8,0,0,0,1.66-.94c.48-.65.55-1.51.55-3.48s-.07-2.86-.55-3.5a1.83,1.83,0,0,0-1.66-.91c-1.44,0-2.26,1.39-2.26,4.42Z"/><path class="cls-3" d="M1324.92,503.16h2.59v2.57h-2.59Zm0,4.34h2.59v13.42h-2.59Z"/><path class="cls-3" d="M1332.14,510h-1.61v-2.45h1.61v-3.19h2.59v3.19h1.58V510h-1.58v11h-2.59Z"/><path class="cls-3" d="M1351.54,511.3c0-1.27-.62-1.82-1.71-1.82a1.34,1.34,0,0,0-1.44,1.39c0,1.3,1.42,1.54,3,2a3.88,3.88,0,0,1,3.1,4.08,4.22,4.22,0,0,1-4.46,4.25c-2.52,0-4.42-1.42-4.63-4.44H1348a2,2,0,0,0,2.09,2.09,1.57,1.57,0,0,0,1.68-1.73c0-1.34-1.39-1.66-3-2.18s-3.07-1.42-3.07-4c0-2.18,1.56-3.74,4.27-3.74s4.06,1.51,4.2,4.08Z"/><path class="cls-3" d="M1358.59,503.16h2.76l-2.3,5.45h-2.38Z"/><path class="cls-3" d="M1373.16,520.93h-2.38c0-.72,0-1.25,0-1.75a3,3,0,0,1-3,2c-2.52,0-4.34-2.4-4.34-7,0-4.39,1.56-7,4.34-7a2.94,2.94,0,0,1,3,2.11c0-.6,0-1.15,0-1.82h2.38Zm-7.06-6.67c0,3,.82,4.39,2.26,4.39a1.8,1.8,0,0,0,1.66-.94c.48-.65.55-1.51.55-3.48s-.07-2.86-.55-3.5a1.83,1.83,0,0,0-1.66-.91c-1.44,0-2.26,1.39-2.26,4.42Z"/><path class="cls-3" d="M1386,520.73a5.06,5.06,0,0,1-1.2,3.65,4.69,4.69,0,0,1-3.6,1.34,4.41,4.41,0,0,1-4.61-3.91h2.71a1.72,1.72,0,0,0,.55,1.06,2,2,0,0,0,1.37.43c1.42,0,2.21-.79,2.23-2.71v-1.34a2.62,2.62,0,0,1-2.76,2c-3,0-4.34-2.62-4.34-7s1.39-7,4.34-7a3.1,3.1,0,0,1,3.1,2.09c0-.58,0-1.15,0-1.8H1386Zm-7.06-6.48c0,3,.82,4.39,2.26,4.39a1.8,1.8,0,0,0,1.66-.94c.48-.65.55-1.51.55-3.48s-.07-2.86-.55-3.5a1.83,1.83,0,0,0-1.66-.91c-1.44,0-2.26,1.39-2.26,4.42Z"/><path class="cls-3" d="M1389.91,507.51h2.38c0,.82,0,1.49,0,2.16.55-2,1.94-2.45,3.48-2.45v3.14a1.94,1.94,0,0,0-1.1-.31c-1.18,0-2.14,1.15-2.14,3.29v7.58h-2.59Z"/><path class="cls-3" d="M1407,520.93h-2.38c0-.72,0-1.25,0-1.75a3,3,0,0,1-3,2c-2.52,0-4.34-2.4-4.34-7,0-4.39,1.56-7,4.34-7a2.94,2.94,0,0,1,3,2.11c0-.6,0-1.15,0-1.82H1407Zm-7.06-6.67c0,3,.82,4.39,2.26,4.39a1.8,1.8,0,0,0,1.66-.94c.48-.65.55-1.51.55-3.48s-.07-2.86-.55-3.5a1.83,1.83,0,0,0-1.66-.91c-1.44,0-2.26,1.39-2.26,4.42Z"/><path class="cls-3" d="M1410.89,507.51h2.28c0,.55,0,1.08,0,1.66a3.14,3.14,0,0,1,3.19-1.94c2.21,0,3.63,1.22,3.63,4.15v9.55h-2.59v-8.71c0-1.08-.22-2.4-1.8-2.4-1.25,0-2.09.77-2.09,2.52v8.59h-2.59Z"/><path class="cls-3" d="M1432.8,520.93h-2.38c0-.79,0-1.37,0-1.94a2.94,2.94,0,0,1-3,2.23c-2.52,0-4.34-2.4-4.34-7,0-4.39,1.56-7,4.34-7a2.75,2.75,0,0,1,2.74,1.94c0-.53,0-1.06,0-1.66v-4.34h2.59Zm-7.06-6.7c0,3,.82,4.39,2.26,4.39a1.83,1.83,0,0,0,1.66-.91c.48-.67.55-1.51.55-3.5s-.07-2.83-.55-3.48a1.8,1.8,0,0,0-1.66-.94c-1.44,0-2.26,1.42-2.26,4.42Z"/><path class="cls-3" d="M1437,503.16h2.59v2.57H1437Zm0,4.34h2.59v13.42H1437Z"/><path class="cls-3" d="M1443.74,507.51h2.38c0,.82,0,1.49,0,2.16.55-2,1.94-2.45,3.48-2.45v3.14a1.94,1.94,0,0,0-1.1-.31c-1.18,0-2.14,1.15-2.14,3.29v7.58h-2.59Z"/><path class="cls-3" d="M1454,520.93h-2.59v-3.17H1454Z"/><path class="cls-3" d="M479.55,615.48h2.88l3.46,13.39,3.46-13.39h2.79l-5,17.76h-2.64Z"/><path class="cls-3" d="M493.06,626.52c0-3.84,1.63-7,5.19-7s5.16,3.14,5.16,7-1.63,7-5.16,7-5.19-3.14-5.19-7Zm2.74,0c0,3.29.89,4.54,2.47,4.54s2.4-1.25,2.4-4.56-.89-4.56-2.47-4.56-2.4,1.22-2.4,4.56Z"/><path class="cls-3" d="M507.08,622.27h-1.61v-2.45h1.61v-3.19h2.59v3.19h1.58v2.45h-1.58v11h-2.59Z"/><path class="cls-3" d="M514,619.82h2.38c0,.82,0,1.49,0,2.16.55-2,1.94-2.45,3.48-2.45v3.14a1.94,1.94,0,0,0-1.1-.31c-1.18,0-2.14,1.15-2.14,3.29v7.58H514Z"/><path class="cls-3" d="M524.31,627.43c0,1.87.65,3.67,2.38,3.67a2.2,2.2,0,0,0,2.16-2h2.57a5.47,5.47,0,0,1-1.82,3.53,4.81,4.81,0,0,1-2.9.94c-3.58,0-5.16-3.26-5.16-7,0-4,1.75-7,5.14-7a4.25,4.25,0,0,1,3.79,2,10.72,10.72,0,0,1,1.08,5.86Zm4.63-2.23c0-1.54-.55-3.5-2.28-3.5-1.42,0-2.35,1.32-2.35,3.5Z"/><path class="cls-3" d="M548.84,627.43c0,1.87.65,3.67,2.38,3.67a2.2,2.2,0,0,0,2.16-2h2.57a5.47,5.47,0,0,1-1.82,3.53,4.81,4.81,0,0,1-2.9.94c-3.58,0-5.16-3.26-5.16-7,0-4,1.75-7,5.14-7a4.25,4.25,0,0,1,3.79,2,10.72,10.72,0,0,1,1.08,5.86Zm4.63-2.23c0-1.54-.55-3.5-2.28-3.5-1.42,0-2.35,1.32-2.35,3.5Z"/><path class="cls-3" d="M559.38,619.82h2.28c0,.55,0,1.08,0,1.66a3.14,3.14,0,0,1,3.19-1.94c2.21,0,3.63,1.22,3.63,4.15v9.55h-2.59v-8.71c0-1.08-.22-2.4-1.8-2.4-1.25,0-2.09.77-2.09,2.52v8.59h-2.59Z"/><path class="cls-3" d="M572.77,622.27h-1.61v-2.45h1.61v-3.19h2.59v3.19h1.58v2.45h-1.58v11h-2.59Z"/><path class="cls-3" d="M579.68,619.82h2.38c0,.82,0,1.49,0,2.16.55-2,1.94-2.45,3.48-2.45v3.14a1.94,1.94,0,0,0-1.1-.31c-1.18,0-2.14,1.15-2.14,3.29v7.58h-2.59Z"/><path class="cls-3" d="M590,627.43c0,1.87.65,3.67,2.38,3.67a2.2,2.2,0,0,0,2.16-2h2.57a5.46,5.46,0,0,1-1.82,3.53,4.81,4.81,0,0,1-2.9.94c-3.58,0-5.16-3.26-5.16-7,0-4,1.75-7,5.14-7a4.25,4.25,0,0,1,3.79,2,10.73,10.73,0,0,1,1.08,5.86Zm4.63-2.23c0-1.54-.55-3.5-2.28-3.5-1.42,0-2.35,1.32-2.35,3.5Z"/><path class="cls-3" d="M600.54,619.82h2.38v1.75a2.94,2.94,0,0,1,2.93-2c2.52,0,4.34,2.4,4.34,7,0,4.37-1.56,7-4.34,7a2.85,2.85,0,0,1-2.71-1.82v6h-2.59Zm7.06,6.7c0-3-.79-4.39-2.26-4.39a1.8,1.8,0,0,0-1.58.91c-.48.65-.62,1.51-.62,3.5s.14,2.83.62,3.48a1.77,1.77,0,0,0,1.58.94c1.46,0,2.26-1.42,2.26-4.42Z"/><path class="cls-3" d="M613.4,619.82h2.38c0,.82,0,1.49,0,2.16.55-2,1.94-2.45,3.48-2.45v3.14a1.94,1.94,0,0,0-1.1-.31c-1.18,0-2.14,1.15-2.14,3.29v7.58H613.4Z"/><path class="cls-3" d="M622.14,615.48h2.59V618h-2.59Zm0,4.34h2.59v13.42h-2.59Z"/><path class="cls-3" d="M634.09,623.61c0-1.27-.62-1.82-1.7-1.82a1.34,1.34,0,0,0-1.44,1.39c0,1.3,1.42,1.54,3,2a3.88,3.88,0,0,1,3.1,4.08,4.22,4.22,0,0,1-4.46,4.25c-2.52,0-4.42-1.42-4.63-4.44h2.59a2,2,0,0,0,2.09,2.09,1.57,1.57,0,0,0,1.68-1.73c0-1.34-1.39-1.66-3-2.18s-3.07-1.42-3.07-4c0-2.18,1.56-3.74,4.27-3.74s4.06,1.51,4.2,4.08Z"/><path class="cls-3" d="M642.35,627.43c0,1.87.65,3.67,2.38,3.67a2.2,2.2,0,0,0,2.16-2h2.57a5.46,5.46,0,0,1-1.82,3.53,4.81,4.81,0,0,1-2.9.94c-3.58,0-5.16-3.26-5.16-7,0-4,1.75-7,5.14-7a4.25,4.25,0,0,1,3.79,2,10.73,10.73,0,0,1,1.08,5.86ZM647,625.2c0-1.54-.55-3.5-2.28-3.5-1.42,0-2.35,1.32-2.35,3.5Z"/><path class="cls-3" d="M664.67,619.82H667v1.75a2.94,2.94,0,0,1,2.93-2c2.52,0,4.34,2.4,4.34,7,0,4.37-1.56,7-4.34,7a2.85,2.85,0,0,1-2.71-1.82v6h-2.59Zm7.06,6.7c0-3-.79-4.39-2.26-4.39a1.8,1.8,0,0,0-1.58.91c-.48.65-.62,1.51-.62,3.5s.14,2.83.62,3.48a1.77,1.77,0,0,0,1.58.94c1.46,0,2.26-1.42,2.26-4.42Z"/><path class="cls-3" d="M677.53,619.82h2.38c0,.82,0,1.49,0,2.16.55-2,1.94-2.45,3.48-2.45v3.14a1.94,1.94,0,0,0-1.1-.31c-1.18,0-2.14,1.15-2.14,3.29v7.58h-2.59Z"/><path class="cls-3" d="M685,626.52c0-3.84,1.63-7,5.18-7s5.16,3.14,5.16,7-1.63,7-5.16,7-5.18-3.14-5.18-7Zm2.74,0c0,3.29.89,4.54,2.47,4.54s2.4-1.25,2.4-4.56-.89-4.56-2.47-4.56-2.4,1.22-2.4,4.56Z"/><path class="cls-3" d="M698.53,619.82h2.38v1.75a2.94,2.94,0,0,1,2.93-2c2.52,0,4.34,2.4,4.34,7,0,4.37-1.56,7-4.34,7a2.85,2.85,0,0,1-2.71-1.82v6h-2.59Zm7.06,6.7c0-3-.79-4.39-2.26-4.39a1.8,1.8,0,0,0-1.58.91c-.48.65-.62,1.51-.62,3.5s.14,2.83.62,3.48a1.77,1.77,0,0,0,1.58.94c1.46,0,2.26-1.42,2.26-4.42Z"/><path class="cls-3" d="M710.72,626.52c0-3.84,1.63-7,5.18-7s5.16,3.14,5.16,7-1.63,7-5.16,7-5.18-3.14-5.18-7Zm2.74,0c0,3.29.89,4.54,2.47,4.54s2.4-1.25,2.4-4.56-.89-4.56-2.47-4.56-2.4,1.22-2.4,4.56Z"/><path class="cls-3" d="M729.47,623.61c0-1.27-.62-1.82-1.71-1.82a1.34,1.34,0,0,0-1.44,1.39c0,1.3,1.42,1.54,3,2a3.88,3.88,0,0,1,3.1,4.08,4.22,4.22,0,0,1-4.46,4.25c-2.52,0-4.42-1.42-4.63-4.44h2.59a2,2,0,0,0,2.09,2.09,1.57,1.57,0,0,0,1.68-1.73c0-1.34-1.39-1.66-3-2.18s-3.07-1.42-3.07-4c0-2.18,1.56-3.74,4.27-3.74s4.06,1.51,4.2,4.08Z"/><path class="cls-3" d="M737.72,627.43c0,1.87.65,3.67,2.38,3.67a2.2,2.2,0,0,0,2.16-2h2.57a5.45,5.45,0,0,1-1.82,3.53,4.81,4.81,0,0,1-2.9.94c-3.58,0-5.16-3.26-5.16-7,0-4,1.75-7,5.14-7a4.25,4.25,0,0,1,3.79,2,10.75,10.75,0,0,1,1.08,5.86Zm4.63-2.23c0-1.54-.55-3.5-2.28-3.5-1.42,0-2.35,1.32-2.35,3.5Z"/><path class="cls-3" d="M769,633.24h-2.38c0-.79,0-1.37,0-1.94a2.94,2.94,0,0,1-3,2.23c-2.52,0-4.34-2.4-4.34-7,0-4.39,1.56-7,4.34-7a2.75,2.75,0,0,1,2.74,1.94c0-.53,0-1.06,0-1.66v-4.34H769Zm-7.06-6.7c0,3,.82,4.39,2.26,4.39a1.83,1.83,0,0,0,1.66-.91c.48-.67.55-1.51.55-3.5s-.07-2.83-.55-3.48a1.8,1.8,0,0,0-1.66-.94c-1.44,0-2.26,1.42-2.26,4.42Z"/><path class="cls-3" d="M775.12,627.43c0,1.87.65,3.67,2.38,3.67a2.2,2.2,0,0,0,2.16-2h2.57a5.45,5.45,0,0,1-1.82,3.53,4.81,4.81,0,0,1-2.9.94c-3.58,0-5.16-3.26-5.16-7,0-4,1.75-7,5.14-7a4.25,4.25,0,0,1,3.79,2,10.75,10.75,0,0,1,1.08,5.86Zm4.63-2.23c0-1.54-.55-3.5-2.28-3.5-1.42,0-2.35,1.32-2.35,3.5Z"/><path class="cls-3" d="M790.84,623.61c0-1.27-.62-1.82-1.7-1.82a1.34,1.34,0,0,0-1.44,1.39c0,1.3,1.42,1.54,3,2a3.88,3.88,0,0,1,3.1,4.08,4.22,4.22,0,0,1-4.46,4.25c-2.52,0-4.42-1.42-4.63-4.44h2.59a2,2,0,0,0,2.09,2.09,1.57,1.57,0,0,0,1.68-1.73c0-1.34-1.39-1.66-3-2.18s-3.07-1.42-3.07-4c0-2.18,1.56-3.74,4.27-3.74s4.06,1.51,4.2,4.08Z"/><path class="cls-3" d="M813.86,623.61c0-1.27-.62-1.82-1.7-1.82a1.34,1.34,0,0,0-1.44,1.39c0,1.3,1.42,1.54,3,2a3.88,3.88,0,0,1,3.1,4.08,4.22,4.22,0,0,1-4.46,4.25c-2.52,0-4.42-1.42-4.63-4.44h2.59a2,2,0,0,0,2.09,2.09,1.57,1.57,0,0,0,1.68-1.73c0-1.34-1.39-1.66-3-2.18s-3.07-1.42-3.07-4c0-2.18,1.56-3.74,4.27-3.74s4.06,1.51,4.2,4.08Z"/><path class="cls-3" d="M822.12,627.43c0,1.87.65,3.67,2.38,3.67a2.2,2.2,0,0,0,2.16-2h2.57a5.46,5.46,0,0,1-1.82,3.53,4.81,4.81,0,0,1-2.9.94c-3.58,0-5.16-3.26-5.16-7,0-4,1.75-7,5.14-7a4.25,4.25,0,0,1,3.79,2,10.73,10.73,0,0,1,1.08,5.86Zm4.63-2.23c0-1.54-.55-3.5-2.28-3.5-1.42,0-2.35,1.32-2.35,3.5Z"/><path class="cls-3" d="M832.65,619.82H835c0,.82,0,1.49,0,2.16.55-2,1.94-2.45,3.48-2.45v3.14a1.94,1.94,0,0,0-1.1-.31c-1.18,0-2.14,1.15-2.14,3.29v7.58h-2.59Z"/><path class="cls-3" d="M846.19,633.24h-2.4l-4-13.42h2.64l2.47,9.58,2.28-9.58h2.62Z"/><path class="cls-3" d="M852.64,615.48h2.59V618h-2.59Zm0,4.34h2.59v13.42h-2.59Z"/><path class="cls-3" d="M868.17,628.34c-.1,2.74-1.51,5.18-4.34,5.18-3.34,0-5.18-2.81-5.18-7,0-4.44,2-7,5.16-7,2.86,0,4.3,2.42,4.34,5.23h-2.69c-.1-2-.84-2.78-1.85-2.78A1.68,1.68,0,0,0,862,623a7.66,7.66,0,0,0-.6,3.5c0,3.22.82,4.56,2.26,4.56,1.2,0,1.75-1.18,1.85-2.76Z"/><path class="cls-3" d="M873.24,627.43c0,1.87.65,3.67,2.38,3.67a2.2,2.2,0,0,0,2.16-2h2.57a5.46,5.46,0,0,1-1.82,3.53,4.81,4.81,0,0,1-2.9.94c-3.58,0-5.16-3.26-5.16-7,0-4,1.75-7,5.14-7a4.25,4.25,0,0,1,3.79,2,10.73,10.73,0,0,1,1.08,5.86Zm4.63-2.23c0-1.54-.55-3.5-2.28-3.5-1.42,0-2.35,1.32-2.35,3.5Z"/><path class="cls-3" d="M889,623.61c0-1.27-.62-1.82-1.7-1.82a1.34,1.34,0,0,0-1.44,1.39c0,1.3,1.42,1.54,3,2a3.88,3.88,0,0,1,3.1,4.08,4.22,4.22,0,0,1-4.46,4.25c-2.52,0-4.42-1.42-4.63-4.44h2.59a2,2,0,0,0,2.09,2.09,1.57,1.57,0,0,0,1.68-1.73c0-1.34-1.39-1.66-3-2.18s-3.07-1.42-3.07-4c0-2.18,1.56-3.74,4.27-3.74s4.06,1.51,4.2,4.08Z"/><path class="cls-3" d="M915.77,633.24h-2.38c0-.79,0-1.37,0-1.94a2.94,2.94,0,0,1-3,2.23c-2.52,0-4.34-2.4-4.34-7,0-4.39,1.56-7,4.34-7a2.75,2.75,0,0,1,2.74,1.94c0-.53,0-1.06,0-1.66v-4.34h2.59Zm-7.06-6.7c0,3,.82,4.39,2.26,4.39a1.83,1.83,0,0,0,1.66-.91c.48-.67.55-1.51.55-3.5s-.07-2.83-.55-3.48a1.8,1.8,0,0,0-1.66-.94c-1.44,0-2.26,1.42-2.26,4.42Z"/><path class="cls-3" d="M921.86,627.43c0,1.87.65,3.67,2.38,3.67a2.2,2.2,0,0,0,2.16-2H929a5.45,5.45,0,0,1-1.82,3.53,4.81,4.81,0,0,1-2.9.94c-3.58,0-5.16-3.26-5.16-7,0-4,1.75-7,5.14-7a4.25,4.25,0,0,1,3.79,2,10.75,10.75,0,0,1,1.08,5.86Zm4.63-2.23c0-1.54-.55-3.5-2.28-3.5-1.42,0-2.35,1.32-2.35,3.5Z"/><path class="cls-3" d="M953.16,633a5.06,5.06,0,0,1-1.2,3.65,4.69,4.69,0,0,1-3.6,1.34,4.41,4.41,0,0,1-4.61-3.91h2.71a1.72,1.72,0,0,0,.55,1.06,2,2,0,0,0,1.37.43c1.42,0,2.21-.79,2.23-2.71v-1.34a2.61,2.61,0,0,1-2.76,2c-3,0-4.34-2.62-4.34-7s1.39-7,4.34-7a3.1,3.1,0,0,1,3.1,2.09c0-.58,0-1.15,0-1.8h2.23Zm-7.06-6.48c0,3,.82,4.39,2.26,4.39A1.8,1.8,0,0,0,950,630c.48-.65.55-1.51.55-3.48s-.07-2.86-.55-3.5a1.83,1.83,0,0,0-1.66-.91c-1.44,0-2.26,1.39-2.26,4.42Z"/><path class="cls-3" d="M957.05,619.82h2.38c0,.82,0,1.49,0,2.16.55-2,1.94-2.45,3.48-2.45v3.14a1.94,1.94,0,0,0-1.1-.31c-1.18,0-2.14,1.15-2.14,3.29v7.58h-2.59Z"/><path class="cls-3" d="M974.14,633.24h-2.38c0-.72,0-1.25,0-1.75a3,3,0,0,1-3,2c-2.52,0-4.34-2.4-4.34-7,0-4.39,1.56-7,4.34-7a2.94,2.94,0,0,1,3,2.11c0-.6,0-1.15,0-1.82h2.38Zm-7.06-6.67c0,3,.82,4.39,2.26,4.39A1.8,1.8,0,0,0,971,630c.48-.65.55-1.51.55-3.48s-.07-2.86-.55-3.5a1.83,1.83,0,0,0-1.66-.91c-1.44,0-2.26,1.39-2.26,4.42Z"/><path class="cls-3" d="M978,619.82h2.28c0,.55,0,1.08,0,1.66a3.14,3.14,0,0,1,3.19-1.94c2.21,0,3.62,1.22,3.62,4.15v9.55h-2.59v-8.71c0-1.08-.22-2.4-1.8-2.4-1.25,0-2.09.77-2.09,2.52v8.59H978Z"/><path class="cls-3" d="M999.94,633.24h-2.38c0-.79,0-1.37,0-1.94a2.94,2.94,0,0,1-3,2.23c-2.52,0-4.34-2.4-4.34-7,0-4.39,1.56-7,4.34-7a2.75,2.75,0,0,1,2.74,1.94c0-.53,0-1.06,0-1.66v-4.34h2.59Zm-7.06-6.7c0,3,.82,4.39,2.26,4.39a1.83,1.83,0,0,0,1.66-.91c.48-.67.55-1.51.55-3.5s-.07-2.83-.55-3.48a1.8,1.8,0,0,0-1.66-.94c-1.44,0-2.26,1.42-2.26,4.42Z"/><path class="cls-3" d="M1006,627.43c0,1.87.65,3.67,2.38,3.67a2.2,2.2,0,0,0,2.16-2h2.57a5.46,5.46,0,0,1-1.82,3.53,4.81,4.81,0,0,1-2.9.94c-3.58,0-5.16-3.26-5.16-7,0-4,1.75-7,5.14-7a4.25,4.25,0,0,1,3.79,2,10.73,10.73,0,0,1,1.08,5.86Zm4.63-2.23c0-1.54-.55-3.5-2.28-3.5-1.42,0-2.35,1.32-2.35,3.5Z"/><path class="cls-3" d="M1037.34,637.75h-2.59v-4.51c0-.67,0-1.18,0-1.66a2.77,2.77,0,0,1-2.74,1.94c-2.78,0-4.34-2.62-4.34-7,0-4.61,1.82-7,4.34-7a2.82,2.82,0,0,1,2.88,2c0-.55,0-1.1,0-1.75h2.45Zm-7.06-11.18c0,3,.82,4.39,2.26,4.39a1.8,1.8,0,0,0,1.66-.94c.48-.65.55-1.51.55-3.48s-.07-2.86-.55-3.5a1.83,1.83,0,0,0-1.66-.91c-1.44,0-2.26,1.39-2.26,4.42Z"/><path class="cls-3" d="M1050.27,633.24h-2.38c0-.58,0-1.15,0-1.78a2.91,2.91,0,0,1-3.12,2.06c-2.18,0-3.6-1.22-3.6-4.15v-9.55h2.59v8.71c0,1.08.22,2.42,1.8,2.42,1.22,0,2.09-.79,2.09-2.54v-8.59h2.59Z"/><path class="cls-3" d="M1063.14,633.24h-2.38c0-.72,0-1.25,0-1.75a3,3,0,0,1-3,2c-2.52,0-4.34-2.4-4.34-7,0-4.39,1.56-7,4.34-7a2.94,2.94,0,0,1,3,2.11c0-.6,0-1.15,0-1.82h2.38Zm-7.06-6.67c0,3,.82,4.39,2.26,4.39A1.8,1.8,0,0,0,1060,630c.48-.65.55-1.51.55-3.48s-.07-2.86-.55-3.5a1.83,1.83,0,0,0-1.66-.91c-1.44,0-2.26,1.39-2.26,4.42Z"/><path class="cls-3" d="M1067.31,615.48h2.59v17.76h-2.59Z"/><path class="cls-3" d="M1074.37,615.48H1077V618h-2.59Zm0,4.34H1077v13.42h-2.59Z"/><path class="cls-3" d="M1081.59,622.27H1080v-2.45h1.61v-3.19h2.59v3.19h1.58v2.45h-1.58v11h-2.59Z"/><path class="cls-3" d="M1090.45,627.43c0,1.87.65,3.67,2.38,3.67a2.2,2.2,0,0,0,2.16-2h2.57a5.46,5.46,0,0,1-1.82,3.53,4.81,4.81,0,0,1-2.9.94c-3.58,0-5.16-3.26-5.16-7,0-4,1.75-7,5.14-7a4.25,4.25,0,0,1,3.79,2,10.73,10.73,0,0,1,1.08,5.86Zm5.21-13.25,1,2.09-5.5,2.62-.91-1.7Zm-.58,11c0-1.54-.55-3.5-2.28-3.5-1.42,0-2.35,1.32-2.35,3.5Z"/><path class="cls-3" d="M1115,627.43c0,1.87.65,3.67,2.38,3.67a2.2,2.2,0,0,0,2.16-2h2.57a5.46,5.46,0,0,1-1.82,3.53,4.81,4.81,0,0,1-2.9.94c-3.58,0-5.16-3.26-5.16-7,0-4,1.75-7,5.14-7a4.25,4.25,0,0,1,3.79,2,10.73,10.73,0,0,1,1.08,5.86Zm4.63-2.23c0-1.54-.55-3.5-2.28-3.5-1.42,0-2.35,1.32-2.35,3.5Z"/><path class="cls-3" d="M1126,622.27h-1.61v-2.45H1126v-3.19h2.59v3.19h1.58v2.45h-1.58v11H1126Z"/><path class="cls-3" d="M1149.64,633.24h-2.4l-4-13.42h2.64l2.47,9.58,2.28-9.58h2.62Z"/><path class="cls-3" d="M1154.92,626.52c0-3.84,1.63-7,5.18-7s5.16,3.14,5.16,7-1.63,7-5.16,7-5.18-3.14-5.18-7Zm2.74,0c0,3.29.89,4.54,2.47,4.54s2.4-1.25,2.4-4.56-.89-4.56-2.47-4.56-2.4,1.22-2.4,4.56Z"/><path class="cls-3" d="M1173.66,623.61c0-1.27-.62-1.82-1.7-1.82a1.34,1.34,0,0,0-1.44,1.39c0,1.3,1.42,1.54,3,2a3.88,3.88,0,0,1,3.1,4.08,4.22,4.22,0,0,1-4.46,4.25c-2.52,0-4.42-1.42-4.63-4.44h2.59a2,2,0,0,0,2.09,2.09,1.57,1.57,0,0,0,1.68-1.73c0-1.34-1.39-1.66-3-2.18s-3.07-1.42-3.07-4c0-2.18,1.56-3.74,4.27-3.74s4.06,1.51,4.2,4.08Z"/><path class="cls-3" d="M1193.71,627.43c0,1.87.65,3.67,2.38,3.67a2.2,2.2,0,0,0,2.16-2h2.57a5.46,5.46,0,0,1-1.82,3.53,4.81,4.81,0,0,1-2.9.94c-3.58,0-5.16-3.26-5.16-7,0-4,1.75-7,5.14-7a4.25,4.25,0,0,1,3.79,2,10.73,10.73,0,0,1,1.08,5.86Zm4.63-2.23c0-1.54-.55-3.5-2.28-3.5-1.42,0-2.35,1.32-2.35,3.5Z"/><path class="cls-3" d="M1204.24,619.82h2.28c0,.55,0,1.08,0,1.66a3.14,3.14,0,0,1,3.19-1.94c2.21,0,3.62,1.22,3.62,4.15v9.55h-2.59v-8.71c0-1.08-.22-2.4-1.8-2.4-1.25,0-2.09.77-2.09,2.52v8.59h-2.59Z"/><path class="cls-3" d="M1226.16,633a5.06,5.06,0,0,1-1.2,3.65,4.69,4.69,0,0,1-3.6,1.34,4.41,4.41,0,0,1-4.61-3.91h2.71a1.72,1.72,0,0,0,.55,1.06,2,2,0,0,0,1.37.43c1.42,0,2.21-.79,2.23-2.71v-1.34a2.62,2.62,0,0,1-2.76,2c-3,0-4.34-2.62-4.34-7s1.39-7,4.34-7a3.1,3.1,0,0,1,3.1,2.09c0-.58,0-1.15,0-1.8h2.23Zm-7.06-6.48c0,3,.82,4.39,2.26,4.39A1.8,1.8,0,0,0,1223,630c.48-.65.55-1.51.55-3.48s-.07-2.86-.55-3.5a1.83,1.83,0,0,0-1.66-.91c-1.44,0-2.26,1.39-2.26,4.42Z"/><path class="cls-3" d="M1239,633.24h-2.38c0-.72,0-1.25,0-1.75a3,3,0,0,1-3,2c-2.52,0-4.34-2.4-4.34-7,0-4.39,1.56-7,4.34-7a2.94,2.94,0,0,1,3,2.11c0-.6,0-1.15,0-1.82H1239Zm-7.06-6.67c0,3,.82,4.39,2.26,4.39a1.8,1.8,0,0,0,1.66-.94c.48-.65.55-1.51.55-3.48s-.07-2.86-.55-3.5a1.83,1.83,0,0,0-1.66-.91c-1.44,0-2.26,1.39-2.26,4.42Z"/><path class="cls-3" d="M1251.88,633a5.06,5.06,0,0,1-1.2,3.65,4.69,4.69,0,0,1-3.6,1.34,4.41,4.41,0,0,1-4.61-3.91h2.71a1.73,1.73,0,0,0,.55,1.06,2,2,0,0,0,1.37.43c1.42,0,2.21-.79,2.23-2.71v-1.34a2.61,2.61,0,0,1-2.76,2c-3,0-4.34-2.62-4.34-7s1.39-7,4.34-7a3.1,3.1,0,0,1,3.1,2.09c0-.58,0-1.15,0-1.8h2.23Zm-7.06-6.48c0,3,.82,4.39,2.26,4.39a1.8,1.8,0,0,0,1.66-.94c.48-.65.55-1.51.55-3.48s-.07-2.86-.55-3.5a1.83,1.83,0,0,0-1.66-.91c-1.44,0-2.26,1.39-2.26,4.42Z"/><path class="cls-3" d="M1258,627.43c0,1.87.65,3.67,2.38,3.67a2.2,2.2,0,0,0,2.16-2h2.57a5.45,5.45,0,0,1-1.82,3.53,4.81,4.81,0,0,1-2.9.94c-3.58,0-5.16-3.26-5.16-7,0-4,1.75-7,5.14-7a4.25,4.25,0,0,1,3.79,2,10.75,10.75,0,0,1,1.08,5.86Zm4.63-2.23c0-1.54-.55-3.5-2.28-3.5-1.42,0-2.35,1.32-2.35,3.5Z"/><path class="cls-3" d="M1268.61,619.82h2.47c0,.6,0,1.18,0,1.8a2.8,2.8,0,0,1,3-2.09,3,3,0,0,1,2.09.72,2.62,2.62,0,0,1,.67,1.13,3,3,0,0,1,1-1.2,4.25,4.25,0,0,1,2.3-.65,3.6,3.6,0,0,1,3.07,1.46,5.4,5.4,0,0,1,.84,3.17v9.07h-2.59v-8.69a3.28,3.28,0,0,0-.31-1.68,1.49,1.49,0,0,0-1.44-.74,1.81,1.81,0,0,0-1.51.58,2.66,2.66,0,0,0-.53,1.78v8.76H1275v-8.66a3.43,3.43,0,0,0-.31-1.7,1.46,1.46,0,0,0-1.42-.74,1.89,1.89,0,0,0-1.51.55,2.79,2.79,0,0,0-.53,1.82v8.74h-2.62Z"/><path class="cls-3" d="M1290.14,627.43c0,1.87.65,3.67,2.38,3.67a2.2,2.2,0,0,0,2.16-2h2.57a5.46,5.46,0,0,1-1.82,3.53,4.81,4.81,0,0,1-2.9.94c-3.58,0-5.16-3.26-5.16-7,0-4,1.75-7,5.14-7a4.25,4.25,0,0,1,3.79,2,10.73,10.73,0,0,1,1.08,5.86Zm4.63-2.23c0-1.54-.55-3.5-2.28-3.5-1.42,0-2.35,1.32-2.35,3.5Z"/><path class="cls-3" d="M1300.67,619.82H1303c0,.55,0,1.08,0,1.66a3.14,3.14,0,0,1,3.19-1.94c2.21,0,3.62,1.22,3.62,4.15v9.55h-2.59v-8.71c0-1.08-.22-2.4-1.8-2.4-1.25,0-2.09.77-2.09,2.52v8.59h-2.59Z"/><path class="cls-3" d="M1314.07,622.27h-1.61v-2.45h1.61v-3.19h2.59v3.19h1.58v2.45h-1.58v11h-2.59Z"/><path class="cls-3" d="M1326.16,623.61c0-1.27-.62-1.82-1.71-1.82a1.34,1.34,0,0,0-1.44,1.39c0,1.3,1.42,1.54,3,2a3.88,3.88,0,0,1,3.1,4.08,4.22,4.22,0,0,1-4.46,4.25c-2.52,0-4.42-1.42-4.63-4.44h2.59a2,2,0,0,0,2.09,2.09,1.57,1.57,0,0,0,1.68-1.73c0-1.34-1.39-1.66-3-2.18s-3.07-1.42-3.07-4c0-2.18,1.56-3.74,4.27-3.74s4.06,1.51,4.2,4.08Z"/><path class="cls-3" d="M1353,633.24h-2.38c0-.72,0-1.25,0-1.75a3,3,0,0,1-3,2c-2.52,0-4.34-2.4-4.34-7,0-4.39,1.56-7,4.34-7a2.94,2.94,0,0,1,3,2.11c0-.6,0-1.15,0-1.82H1353Zm-7.06-6.67c0,3,.82,4.39,2.26,4.39a1.8,1.8,0,0,0,1.66-.94c.48-.65.55-1.51.55-3.48s-.07-2.86-.55-3.5a1.83,1.83,0,0,0-1.66-.91c-1.44,0-2.26,1.39-2.26,4.42Z"/><path class="cls-3" d="M1365.91,633.24h-2.38c0-.58,0-1.15,0-1.78a2.91,2.91,0,0,1-3.12,2.06c-2.18,0-3.6-1.22-3.6-4.15v-9.55h2.59v8.71c0,1.08.22,2.42,1.8,2.42,1.22,0,2.09-.79,2.09-2.54v-8.59h2.59Z"/><path class="cls-3" d="M1386.77,623.61c0-1.27-.62-1.82-1.71-1.82a1.34,1.34,0,0,0-1.44,1.39c0,1.3,1.42,1.54,3,2a3.88,3.88,0,0,1,3.1,4.08,4.22,4.22,0,0,1-4.46,4.25c-2.52,0-4.42-1.42-4.63-4.44h2.59a2,2,0,0,0,2.09,2.09,1.57,1.57,0,0,0,1.68-1.73c0-1.34-1.39-1.66-3-2.18s-3.07-1.42-3.07-4c0-2.18,1.56-3.74,4.27-3.74s4.06,1.51,4.2,4.08Z"/><path class="cls-3" d="M1395,627.43c0,1.87.65,3.67,2.38,3.67a2.2,2.2,0,0,0,2.16-2h2.57a5.45,5.45,0,0,1-1.82,3.53,4.81,4.81,0,0,1-2.9.94c-3.58,0-5.16-3.26-5.16-7,0-4,1.75-7,5.14-7a4.25,4.25,0,0,1,3.79,2,10.75,10.75,0,0,1,1.08,5.86Zm4.63-2.23c0-1.54-.55-3.5-2.28-3.5-1.42,0-2.35,1.32-2.35,3.5Z"/><path class="cls-3" d="M1405.56,619.82h2.38c0,.82,0,1.49,0,2.16.55-2,1.94-2.45,3.48-2.45v3.14a1.94,1.94,0,0,0-1.1-.31c-1.18,0-2.14,1.15-2.14,3.29v7.58h-2.59Z"/><path class="cls-3" d="M1419.1,633.24h-2.4l-4-13.42h2.64l2.47,9.58,2.28-9.58h2.62Z"/><path class="cls-3" d="M1425.55,615.48h2.59V618h-2.59Zm0,4.34h2.59v13.42h-2.59Z"/><path class="cls-3" d="M1441.08,628.34c-.1,2.74-1.51,5.18-4.34,5.18-3.34,0-5.18-2.81-5.18-7,0-4.44,2-7,5.16-7,2.86,0,4.3,2.42,4.34,5.23h-2.69c-.1-2-.84-2.78-1.85-2.78a1.68,1.68,0,0,0-1.63,1.06,7.65,7.65,0,0,0-.6,3.5c0,3.22.82,4.56,2.26,4.56,1.2,0,1.75-1.18,1.85-2.76Z"/><path class="cls-3" d="M1446.14,627.43c0,1.87.65,3.67,2.38,3.67a2.2,2.2,0,0,0,2.16-2h2.57a5.45,5.45,0,0,1-1.82,3.53,4.81,4.81,0,0,1-2.9.94c-3.58,0-5.16-3.26-5.16-7,0-4,1.75-7,5.14-7a4.25,4.25,0,0,1,3.79,2,10.75,10.75,0,0,1,1.08,5.86Zm4.63-2.23c0-1.54-.55-3.5-2.28-3.5-1.42,0-2.35,1.32-2.35,3.5Z"/><path class="cls-3" d="M1477.44,633.24h-2.38c0-.79,0-1.37,0-1.94a2.94,2.94,0,0,1-3,2.23c-2.52,0-4.34-2.4-4.34-7,0-4.39,1.56-7,4.34-7a2.75,2.75,0,0,1,2.74,1.94c0-.53,0-1.06,0-1.66v-4.34h2.59Zm-7.06-6.7c0,3,.82,4.39,2.26,4.39a1.83,1.83,0,0,0,1.66-.91c.48-.67.55-1.51.55-3.5s-.07-2.83-.55-3.48a1.8,1.8,0,0,0-1.66-.94c-1.44,0-2.26,1.42-2.26,4.42Z"/><path class="cls-3" d="M1483.54,627.43c0,1.87.65,3.67,2.38,3.67a2.2,2.2,0,0,0,2.16-2h2.57a5.47,5.47,0,0,1-1.82,3.53,4.81,4.81,0,0,1-2.9.94c-3.58,0-5.16-3.26-5.16-7,0-4,1.75-7,5.14-7a4.25,4.25,0,0,1,3.79,2,10.72,10.72,0,0,1,1.08,5.86Zm4.63-2.23c0-1.54-.55-3.5-2.28-3.5-1.42,0-2.35,1.32-2.35,3.5Z"/><path class="cls-3" d="M1506.15,615.48h2.59v17.76h-2.59Z"/><path class="cls-3" d="M1521.9,633.24h-2.38c0-.72,0-1.25,0-1.75a3,3,0,0,1-3,2c-2.52,0-4.34-2.4-4.34-7,0-4.39,1.56-7,4.34-7a2.94,2.94,0,0,1,3,2.11c0-.6,0-1.15,0-1.82h2.38Zm-7.06-6.67c0,3,.82,4.39,2.26,4.39a1.8,1.8,0,0,0,1.66-.94c.48-.65.55-1.51.55-3.48s-.07-2.86-.55-3.5a1.83,1.83,0,0,0-1.66-.91c-1.44,0-2.26,1.39-2.26,4.42Z"/><path class="cls-3" d="M480.87,648.62h2.38v1.75a2.94,2.94,0,0,1,2.93-2c2.52,0,4.34,2.4,4.34,7,0,4.37-1.56,7-4.34,7a2.86,2.86,0,0,1-2.71-1.82v6h-2.59Zm7.06,6.7c0-3-.79-4.39-2.26-4.39a1.79,1.79,0,0,0-1.58.91c-.48.65-.62,1.51-.62,3.5s.14,2.83.63,3.48a1.77,1.77,0,0,0,1.58.94c1.46,0,2.26-1.42,2.26-4.42Z"/><path class="cls-3" d="M495.94,656.23c0,1.87.65,3.67,2.38,3.67a2.2,2.2,0,0,0,2.16-2H503a5.46,5.46,0,0,1-1.82,3.53,4.81,4.81,0,0,1-2.9.94c-3.58,0-5.16-3.26-5.16-7,0-4,1.75-7,5.14-7a4.25,4.25,0,0,1,3.79,2,10.73,10.73,0,0,1,1.08,5.86Zm4.63-2.23c0-1.54-.55-3.5-2.28-3.5-1.42,0-2.35,1.32-2.35,3.5Z"/><path class="cls-3" d="M506.48,648.62h2.38c0,.82,0,1.49,0,2.16.55-2,1.94-2.45,3.48-2.45v3.14a1.94,1.94,0,0,0-1.1-.31c-1.18,0-2.14,1.15-2.14,3.29V662h-2.59Z"/><path class="cls-3" d="M520.11,652.41c0-1.27-.62-1.82-1.71-1.82A1.34,1.34,0,0,0,517,652c0,1.3,1.42,1.54,3,2a3.88,3.88,0,0,1,3.1,4.08,4.22,4.22,0,0,1-4.46,4.25c-2.52,0-4.42-1.42-4.63-4.44h2.59a2,2,0,0,0,2.09,2.09,1.57,1.57,0,0,0,1.68-1.73c0-1.34-1.39-1.66-3-2.18s-3.07-1.42-3.07-4c0-2.18,1.56-3.74,4.27-3.74s4.06,1.51,4.2,4.08Z"/><path class="cls-3" d="M525.49,655.32c0-3.84,1.63-7,5.18-7s5.16,3.14,5.16,7-1.63,7-5.16,7-5.18-3.14-5.18-7Zm2.74,0c0,3.29.89,4.54,2.47,4.54s2.4-1.25,2.4-4.56-.89-4.56-2.47-4.56-2.4,1.22-2.4,4.56Z"/><path class="cls-3" d="M539,648.62h2.28c0,.55,0,1.08,0,1.66a3.14,3.14,0,0,1,3.19-1.94c2.21,0,3.63,1.22,3.63,4.15V662h-2.59v-8.71c0-1.08-.22-2.4-1.8-2.4-1.25,0-2.09.77-2.09,2.52V662H539Z"/><path class="cls-3" d="M552,648.62h2.28c0,.55,0,1.08,0,1.66a3.14,3.14,0,0,1,3.19-1.94c2.21,0,3.63,1.22,3.63,4.15V662h-2.59v-8.71c0-1.08-.22-2.4-1.8-2.4-1.25,0-2.09.77-2.09,2.52V662H552Z"/><path class="cls-3" d="M567.13,656.23c0,1.87.65,3.67,2.38,3.67a2.2,2.2,0,0,0,2.16-2h2.57a5.46,5.46,0,0,1-1.82,3.53,4.81,4.81,0,0,1-2.9.94c-3.58,0-5.16-3.26-5.16-7,0-4,1.75-7,5.14-7a4.25,4.25,0,0,1,3.79,2,10.73,10.73,0,0,1,1.08,5.86Zm4.63-2.23c0-1.54-.55-3.5-2.28-3.5-1.42,0-2.35,1.32-2.35,3.5Z"/><path class="cls-3" d="M593.72,657.14c-.1,2.74-1.51,5.18-4.34,5.18-3.34,0-5.18-2.81-5.18-7,0-4.44,2-7,5.16-7,2.86,0,4.3,2.42,4.34,5.23H591c-.1-2-.84-2.78-1.85-2.78a1.68,1.68,0,0,0-1.63,1.06,7.66,7.66,0,0,0-.6,3.5c0,3.22.82,4.56,2.26,4.56,1.2,0,1.75-1.18,1.85-2.76Z"/><path class="cls-3" d="M595.9,655.32c0-3.84,1.63-7,5.18-7s5.16,3.14,5.16,7-1.63,7-5.16,7-5.18-3.14-5.18-7Zm2.74,0c0,3.29.89,4.54,2.47,4.54s2.4-1.25,2.4-4.56-.89-4.56-2.47-4.56-2.4,1.22-2.4,4.56Z"/><path class="cls-3" d="M609.46,648.62h2.38c0,.82,0,1.49,0,2.16.55-2,1.94-2.45,3.48-2.45v3.14a1.94,1.94,0,0,0-1.1-.31c-1.18,0-2.14,1.15-2.14,3.29V662h-2.59Z"/><path class="cls-3" d="M617.91,648.62h2.38c0,.82,0,1.49,0,2.16.55-2,1.94-2.45,3.48-2.45v3.14a1.94,1.94,0,0,0-1.1-.31c-1.18,0-2.14,1.15-2.14,3.29V662h-2.59Z"/><path class="cls-3" d="M628.23,656.23c0,1.87.65,3.67,2.38,3.67a2.2,2.2,0,0,0,2.16-2h2.57a5.47,5.47,0,0,1-1.82,3.53,4.81,4.81,0,0,1-2.9.94c-3.58,0-5.16-3.26-5.16-7,0-4,1.75-7,5.14-7a4.25,4.25,0,0,1,3.79,2,10.72,10.72,0,0,1,1.08,5.86Zm4.63-2.23c0-1.54-.55-3.5-2.28-3.5-1.42,0-2.35,1.32-2.35,3.5Z"/><path class="cls-3" d="M643.95,652.41c0-1.27-.62-1.82-1.71-1.82A1.34,1.34,0,0,0,640.8,652c0,1.3,1.42,1.54,3,2a3.88,3.88,0,0,1,3.1,4.08,4.22,4.22,0,0,1-4.46,4.25c-2.52,0-4.42-1.42-4.63-4.44h2.59a2,2,0,0,0,2.09,2.09,1.57,1.57,0,0,0,1.68-1.73c0-1.34-1.39-1.66-3-2.18s-3.07-1.42-3.07-4c0-2.18,1.56-3.74,4.27-3.74s4.06,1.51,4.2,4.08Z"/><path class="cls-3" d="M650,648.62h2.38v1.75a2.94,2.94,0,0,1,2.93-2c2.52,0,4.34,2.4,4.34,7,0,4.37-1.56,7-4.34,7a2.86,2.86,0,0,1-2.71-1.82v6H650Zm7.06,6.7c0-3-.79-4.39-2.26-4.39a1.79,1.79,0,0,0-1.58.91c-.48.65-.62,1.51-.62,3.5s.14,2.83.63,3.48a1.77,1.77,0,0,0,1.58.94c1.46,0,2.26-1.42,2.26-4.42Z"/><path class="cls-3" d="M662.19,655.32c0-3.84,1.63-7,5.19-7s5.16,3.14,5.16,7-1.63,7-5.16,7-5.19-3.14-5.19-7Zm2.74,0c0,3.29.89,4.54,2.47,4.54s2.4-1.25,2.4-4.56-.89-4.56-2.47-4.56-2.4,1.22-2.4,4.56Z"/><path class="cls-3" d="M675.75,648.62H678c0,.55,0,1.08,0,1.66a3.14,3.14,0,0,1,3.19-1.94c2.21,0,3.62,1.22,3.62,4.15V662h-2.59v-8.71c0-1.08-.22-2.4-1.8-2.4-1.25,0-2.09.77-2.09,2.52V662h-2.59Z"/><path class="cls-3" d="M697.66,662h-2.38c0-.79,0-1.37,0-1.94a2.94,2.94,0,0,1-3,2.23c-2.52,0-4.34-2.4-4.34-7,0-4.39,1.56-7,4.34-7a2.75,2.75,0,0,1,2.74,1.94c0-.53,0-1.06,0-1.66v-4.34h2.59Zm-7.06-6.7c0,3,.82,4.39,2.26,4.39a1.83,1.83,0,0,0,1.66-.91c.48-.67.55-1.51.55-3.5s-.07-2.83-.55-3.48a1.8,1.8,0,0,0-1.66-.94c-1.44,0-2.26,1.42-2.26,4.42Z"/><path class="cls-3" d="M703.76,656.23c0,1.87.65,3.67,2.38,3.67a2.2,2.2,0,0,0,2.16-2h2.57a5.46,5.46,0,0,1-1.82,3.53,4.81,4.81,0,0,1-2.9.94c-3.58,0-5.16-3.26-5.16-7,0-4,1.75-7,5.14-7a4.25,4.25,0,0,1,3.79,2,10.73,10.73,0,0,1,1.08,5.86Zm4.63-2.23c0-1.54-.55-3.5-2.28-3.5-1.42,0-2.35,1.32-2.35,3.5Z"/><path class="cls-3" d="M714.29,648.62h2.28c0,.55,0,1.08,0,1.66a3.14,3.14,0,0,1,3.19-1.94c2.21,0,3.62,1.22,3.62,4.15V662h-2.59v-8.71c0-1.08-.22-2.4-1.8-2.4-1.25,0-2.09.77-2.09,2.52V662h-2.59Z"/><path class="cls-3" d="M727.68,651.07h-1.61v-2.45h1.61v-3.19h2.59v3.19h1.58v2.45h-1.58v11h-2.59Z"/><path class="cls-3" d="M750.87,662h-2.38c0-.72,0-1.25,0-1.75a3,3,0,0,1-3,2c-2.52,0-4.34-2.4-4.34-7,0-4.39,1.56-7,4.34-7a2.94,2.94,0,0,1,3,2.11c0-.6,0-1.15,0-1.82h2.38ZM748.73,646l-.89,1.7-5.5-2.62,1-2.09Zm-4.92,9.39c0,3,.82,4.39,2.26,4.39a1.8,1.8,0,0,0,1.66-.94c.48-.65.55-1.51.55-3.48s-.07-2.86-.55-3.5a1.83,1.83,0,0,0-1.66-.91c-1.44,0-2.26,1.39-2.26,4.42Z"/><path class="cls-3" d="M762.15,648.62h2.47c0,.6,0,1.18,0,1.8a2.8,2.8,0,0,1,3-2.09,3,3,0,0,1,2.09.72,2.62,2.62,0,0,1,.67,1.13,3,3,0,0,1,1-1.2,4.25,4.25,0,0,1,2.3-.65,3.6,3.6,0,0,1,3.07,1.46,5.4,5.4,0,0,1,.84,3.17V662h-2.59v-8.69a3.28,3.28,0,0,0-.31-1.68,1.49,1.49,0,0,0-1.44-.74,1.81,1.81,0,0,0-1.51.58,2.66,2.66,0,0,0-.53,1.78V662h-2.59v-8.66a3.43,3.43,0,0,0-.31-1.7,1.46,1.46,0,0,0-1.42-.74,1.89,1.89,0,0,0-1.51.55,2.79,2.79,0,0,0-.53,1.82V662h-2.62Z"/><path class="cls-3" d="M783.68,656.23c0,1.87.65,3.67,2.38,3.67a2.2,2.2,0,0,0,2.16-2h2.57a5.46,5.46,0,0,1-1.82,3.53,4.81,4.81,0,0,1-2.9.94c-3.58,0-5.16-3.26-5.16-7,0-4,1.75-7,5.14-7a4.25,4.25,0,0,1,3.79,2,10.73,10.73,0,0,1,1.08,5.86Zm4.63-2.23c0-1.54-.55-3.5-2.28-3.5-1.42,0-2.35,1.32-2.35,3.5Z"/><path class="cls-3" d="M799.39,652.41c0-1.27-.62-1.82-1.7-1.82a1.34,1.34,0,0,0-1.44,1.39c0,1.3,1.42,1.54,3,2a3.88,3.88,0,0,1,3.1,4.08,4.22,4.22,0,0,1-4.46,4.25c-2.52,0-4.42-1.42-4.63-4.44h2.59a2,2,0,0,0,2.09,2.09,1.57,1.57,0,0,0,1.68-1.73c0-1.34-1.39-1.66-3-2.18s-3.07-1.42-3.07-4c0-2.18,1.56-3.74,4.27-3.74s4.06,1.51,4.2,4.08Z"/><path class="cls-3" d="M817.71,662h-2.4l-4-13.42H814l2.47,9.58,2.28-9.58h2.62Z"/><path class="cls-3" d="M832.64,662h-2.38c0-.72,0-1.25,0-1.75a3,3,0,0,1-3,2c-2.52,0-4.34-2.4-4.34-7,0-4.39,1.56-7,4.34-7a2.94,2.94,0,0,1,3,2.11c0-.6,0-1.15,0-1.82h2.38Zm-7.06-6.67c0,3,.82,4.39,2.26,4.39a1.8,1.8,0,0,0,1.66-.94c.48-.65.55-1.51.55-3.48s-.07-2.86-.55-3.5a1.83,1.83,0,0,0-1.66-.91c-1.44,0-2.26,1.39-2.26,4.42Z"/><path class="cls-3" d="M836.81,644.27h2.59V662h-2.59Z"/><path class="cls-3" d="M845.79,656.23c0,1.87.65,3.67,2.38,3.67a2.2,2.2,0,0,0,2.16-2h2.57a5.46,5.46,0,0,1-1.82,3.53,4.81,4.81,0,0,1-2.9.94c-3.58,0-5.16-3.26-5.16-7,0-4,1.75-7,5.14-7a4.25,4.25,0,0,1,3.79,2,10.73,10.73,0,0,1,1.08,5.86Zm4.63-2.23c0-1.54-.55-3.5-2.28-3.5-1.42,0-2.35,1.32-2.35,3.5Z"/><path class="cls-3" d="M865.37,662H863c0-.58,0-1.15,0-1.78a2.91,2.91,0,0,1-3.12,2.06c-2.18,0-3.6-1.22-3.6-4.15v-9.55h2.59v8.71c0,1.08.22,2.42,1.8,2.42,1.22,0,2.09-.79,2.09-2.54v-8.59h2.59Z"/><path class="cls-3" d="M869.26,648.62h2.38c0,.82,0,1.49,0,2.16.55-2,1.94-2.45,3.48-2.45v3.14a1.94,1.94,0,0,0-1.1-.31c-1.18,0-2.14,1.15-2.14,3.29V662h-2.59Z"/><path class="cls-3" d="M882.89,652.41c0-1.27-.62-1.82-1.71-1.82a1.34,1.34,0,0,0-1.44,1.39c0,1.3,1.42,1.54,3,2a3.88,3.88,0,0,1,3.1,4.08,4.22,4.22,0,0,1-4.46,4.25c-2.52,0-4.42-1.42-4.63-4.44h2.59A2,2,0,0,0,881.4,660a1.57,1.57,0,0,0,1.68-1.73c0-1.34-1.39-1.66-3-2.18s-3.07-1.42-3.07-4c0-2.18,1.56-3.74,4.27-3.74s4.06,1.51,4.2,4.08Z"/><path class="cls-3" d="M891.72,662h-2.59v-3.17h2.59Z"/><path class="cls-3" d="M899.16,662h-2.59v-3.17h2.59Z"/><path class="cls-3" d="M906.6,662H904v-3.17h2.59Z"/><path class="cls-3" d="M489.08,776.63a6.59,6.59,0,0,1-.41,2.42,4.05,4.05,0,0,1-1.8,1.94,5.17,5.17,0,0,1-2.57.65,4.39,4.39,0,0,1-4.78-4.49c0-.29,0-.6,0-.89h2.93c0,.1,0,.22,0,.34.14,1.94.89,2.33,1.87,2.33a1.6,1.6,0,0,0,1.49-.84,4.2,4.2,0,0,0,.34-2V763.55h2.93Z"/><path class="cls-3" d="M495,775.5c0,1.87.65,3.67,2.38,3.67a2.2,2.2,0,0,0,2.16-2h2.57a5.45,5.45,0,0,1-1.82,3.53,4.81,4.81,0,0,1-2.9.94c-3.58,0-5.16-3.26-5.16-7,0-4,1.75-7,5.14-7a4.25,4.25,0,0,1,3.79,2,10.75,10.75,0,0,1,1.08,5.86Zm4.63-2.23c0-1.54-.55-3.5-2.28-3.5-1.42,0-2.35,1.32-2.35,3.5Z"/><path class="cls-3" d="M512.12,767.9h2.28c0,.55,0,1.08,0,1.66a3.14,3.14,0,0,1,3.19-1.94c2.21,0,3.63,1.22,3.63,4.15v9.55H518.6V772.6c0-1.08-.22-2.4-1.8-2.4-1.25,0-2.09.77-2.09,2.52v8.59h-2.59Z"/><path class="cls-3" d="M526.9,775.5c0,1.87.65,3.67,2.38,3.67a2.2,2.2,0,0,0,2.16-2H534a5.46,5.46,0,0,1-1.82,3.53,4.81,4.81,0,0,1-2.9.94c-3.58,0-5.16-3.26-5.16-7,0-4,1.75-7,5.14-7a4.25,4.25,0,0,1,3.79,2,10.73,10.73,0,0,1,1.08,5.86Zm4.63-2.23c0-1.54-.55-3.5-2.28-3.5-1.42,0-2.35,1.32-2.35,3.5Z"/><path class="cls-3" d="M549,781.31h-2.4l-4-13.42h2.64l2.47,9.58L550,767.9h2.62Z"/><path class="cls-3" d="M553.9,774.59c0-3.84,1.63-7,5.18-7s5.16,3.14,5.16,7-1.63,7-5.16,7-5.18-3.14-5.18-7Zm2.74,0c0,3.29.89,4.54,2.47,4.54s2.4-1.25,2.4-4.56-.89-4.56-2.47-4.56-2.4,1.22-2.4,4.56Z"/><path class="cls-3" d="M576.15,781.31h-2.38c0-.58,0-1.15,0-1.78a2.91,2.91,0,0,1-3.12,2.06c-2.18,0-3.6-1.22-3.6-4.15V767.9h2.59v8.71c0,1.08.22,2.42,1.8,2.42,1.22,0,2.09-.79,2.09-2.54V767.9h2.59Z"/><path class="cls-3" d="M584.86,771.69c0-1.27-.62-1.82-1.7-1.82a1.34,1.34,0,0,0-1.44,1.39c0,1.3,1.42,1.54,3,2a3.88,3.88,0,0,1,3.1,4.08,4.22,4.22,0,0,1-4.46,4.25c-2.52,0-4.42-1.42-4.63-4.44h2.59a2,2,0,0,0,2.09,2.09,1.57,1.57,0,0,0,1.68-1.73c0-1.34-1.39-1.66-3-2.18s-3.07-1.42-3.07-4c0-2.18,1.56-3.74,4.27-3.74s4.06,1.51,4.2,4.08Z"/><path class="cls-3" d="M606.25,776.42c-.1,2.74-1.51,5.18-4.34,5.18-3.34,0-5.18-2.81-5.18-7,0-4.44,2-7,5.16-7,2.86,0,4.3,2.42,4.34,5.23h-2.69c-.1-2-.84-2.78-1.85-2.78a1.68,1.68,0,0,0-1.63,1.06,7.66,7.66,0,0,0-.6,3.5c0,3.22.82,4.56,2.26,4.56,1.2,0,1.75-1.18,1.85-2.76Z"/><path class="cls-3" d="M608.07,774.59c0-3.84,1.63-7,5.18-7s5.16,3.14,5.16,7-1.63,7-5.16,7-5.18-3.14-5.18-7Zm2.74,0c0,3.29.89,4.54,2.47,4.54s2.4-1.25,2.4-4.56-.89-4.56-2.47-4.56-2.4,1.22-2.4,4.56Z"/><path class="cls-3" d="M621.27,767.9h2.28c0,.55,0,1.08,0,1.66a3.14,3.14,0,0,1,3.19-1.94c2.21,0,3.63,1.22,3.63,4.15v9.55h-2.59V772.6c0-1.08-.22-2.4-1.8-2.4-1.25,0-2.09.77-2.09,2.52v8.59h-2.59Z"/><path class="cls-3" d="M633.84,767.9h2.28c0,.55,0,1.08,0,1.66a3.14,3.14,0,0,1,3.19-1.94c2.21,0,3.63,1.22,3.63,4.15v9.55h-2.59V772.6c0-1.08-.22-2.4-1.8-2.4-1.25,0-2.09.77-2.09,2.52v8.59h-2.59Z"/><path class="cls-3" d="M655.4,781.31H653c0-.72,0-1.25,0-1.75a3,3,0,0,1-3,2c-2.52,0-4.34-2.4-4.34-7,0-4.39,1.56-7,4.34-7a2.94,2.94,0,0,1,3,2.11c0-.6,0-1.15,0-1.82h2.38Zm-7.06-6.67c0,3,.82,4.39,2.26,4.39a1.8,1.8,0,0,0,1.66-.94c.48-.65.55-1.51.55-3.48s-.07-2.86-.55-3.5a1.83,1.83,0,0,0-1.66-.91c-1.44,0-2.26,1.39-2.26,4.42Z"/><path class="cls-3" d="M659.21,763.55h2.59v2.57h-2.59Zm0,4.34h2.59v13.42h-2.59Z"/><path class="cls-3" d="M670.8,771.69c0-1.27-.62-1.82-1.7-1.82a1.34,1.34,0,0,0-1.44,1.39c0,1.3,1.42,1.54,3,2a3.88,3.88,0,0,1,3.1,4.08,4.22,4.22,0,0,1-4.46,4.25c-2.52,0-4.42-1.42-4.63-4.44h2.59a2,2,0,0,0,2.09,2.09,1.57,1.57,0,0,0,1.68-1.73c0-1.34-1.39-1.66-3-2.18s-3.07-1.42-3.07-4c0-2.18,1.56-3.74,4.27-3.74s4.06,1.51,4.2,4.08Z"/><path class="cls-3" d="M683.43,767.9h2.38v1.75a2.94,2.94,0,0,1,2.93-2c2.52,0,4.34,2.4,4.34,7,0,4.37-1.56,7-4.34,7a2.86,2.86,0,0,1-2.71-1.82v6h-2.59Zm7.06,6.7c0-3-.79-4.39-2.26-4.39a1.79,1.79,0,0,0-1.58.91c-.48.65-.62,1.51-.62,3.5s.14,2.83.63,3.48a1.77,1.77,0,0,0,1.58.94c1.46,0,2.26-1.42,2.26-4.42Z"/><path class="cls-3" d="M704.91,781.31h-2.38c0-.72,0-1.25,0-1.75a3,3,0,0,1-3,2c-2.52,0-4.34-2.4-4.34-7,0-4.39,1.56-7,4.34-7a2.94,2.94,0,0,1,3,2.11c0-.6,0-1.15,0-1.82h2.38Zm-7.06-6.67c0,3,.82,4.39,2.26,4.39a1.8,1.8,0,0,0,1.66-.94c.48-.65.55-1.51.55-3.48s-.07-2.86-.55-3.5a1.83,1.83,0,0,0-1.66-.91c-1.44,0-2.26,1.39-2.26,4.42Z"/><path class="cls-3" d="M713.62,771.69c0-1.27-.62-1.82-1.7-1.82a1.34,1.34,0,0,0-1.44,1.39c0,1.3,1.42,1.54,3,2a3.88,3.88,0,0,1,3.1,4.08,4.22,4.22,0,0,1-4.46,4.25c-2.52,0-4.42-1.42-4.63-4.44H710a2,2,0,0,0,2.09,2.09,1.57,1.57,0,0,0,1.68-1.73c0-1.34-1.39-1.66-3-2.18s-3.07-1.42-3.07-4c0-2.18,1.56-3.74,4.27-3.74s4.06,1.51,4.2,4.08Z"/><path class="cls-3" d="M726.7,770.34h-1.61V767.9h1.61V764.7h2.59v3.19h1.58v2.45h-1.58v11H726.7Z"/><path class="cls-3" d="M733.25,767.9h2.38c0,.82,0,1.49,0,2.16.55-2,1.94-2.45,3.48-2.45v3.14a1.94,1.94,0,0,0-1.1-.31c-1.18,0-2.14,1.15-2.14,3.29v7.58h-2.59Z"/><path class="cls-3" d="M743.21,775.5c0,1.87.65,3.67,2.38,3.67a2.2,2.2,0,0,0,2.16-2h2.57a5.45,5.45,0,0,1-1.82,3.53,4.81,4.81,0,0,1-2.9.94c-3.58,0-5.16-3.26-5.16-7,0-4,1.75-7,5.14-7a4.25,4.25,0,0,1,3.79,2,10.75,10.75,0,0,1,1.08,5.86Zm4.66-10.25L747,767l-5.5-2.62,1-2.09Zm0,8c0-1.54-.55-3.5-2.28-3.5-1.42,0-2.35,1.32-2.35,3.5Z"/><path class="cls-3" d="M758.57,771.69c0-1.27-.62-1.82-1.71-1.82a1.34,1.34,0,0,0-1.44,1.39c0,1.3,1.42,1.54,3,2a3.88,3.88,0,0,1,3.1,4.08A4.22,4.22,0,0,1,757,781.6c-2.52,0-4.42-1.42-4.63-4.44H755a2,2,0,0,0,2.09,2.09,1.57,1.57,0,0,0,1.68-1.73c0-1.34-1.39-1.66-3-2.18s-3.07-1.42-3.07-4c0-2.18,1.56-3.74,4.27-3.74s4.06,1.51,4.2,4.08Z"/><path class="cls-3" d="M771.2,763.55h2.59v6.1a2.69,2.69,0,0,1,2.71-2c2.78,0,4.34,2.62,4.34,7,0,4.61-1.82,7-4.34,7a2.93,2.93,0,0,1-2.93-2.09v1.8H771.2Zm7.06,11c0-2.71-.67-4.39-2.23-4.39-1.92,0-2.23,2.14-2.23,4.42S774.1,779,776,779c1.56,0,2.23-1.7,2.23-4.42Z"/><path class="cls-3" d="M784,763.55h2.59v2.57H784Zm0,4.34h2.59v13.42H784Z"/><path class="cls-3" d="M792.6,775.5c0,1.87.65,3.67,2.38,3.67a2.2,2.2,0,0,0,2.16-2h2.57a5.45,5.45,0,0,1-1.82,3.53,4.81,4.81,0,0,1-2.9.94c-3.58,0-5.16-3.26-5.16-7,0-4,1.75-7,5.14-7a4.25,4.25,0,0,1,3.79,2,10.75,10.75,0,0,1,1.08,5.86Zm4.63-2.23c0-1.54-.55-3.5-2.28-3.5-1.42,0-2.35,1.32-2.35,3.5Z"/><path class="cls-3" d="M802.78,767.9h2.28c0,.55,0,1.08,0,1.66a3.14,3.14,0,0,1,3.19-1.94c2.21,0,3.62,1.22,3.62,4.15v9.55h-2.59V772.6c0-1.08-.22-2.4-1.8-2.4-1.25,0-2.09.77-2.09,2.52v8.59h-2.59Z"/><path class="cls-3" d="M816.6,783.59h-2.11l1.68-5.45h2.47Z"/><path class="cls-3" d="M827.07,767.9h2.47c0,.6,0,1.18,0,1.8a2.8,2.8,0,0,1,3-2.09,3,3,0,0,1,2.09.72,2.62,2.62,0,0,1,.67,1.13,3,3,0,0,1,1-1.2,4.25,4.25,0,0,1,2.3-.65,3.6,3.6,0,0,1,3.07,1.46,5.4,5.4,0,0,1,.84,3.17v9.07h-2.59v-8.69a3.28,3.28,0,0,0-.31-1.68,1.49,1.49,0,0,0-1.44-.74,1.81,1.81,0,0,0-1.51.58,2.66,2.66,0,0,0-.53,1.78v8.76h-2.59v-8.66a3.43,3.43,0,0,0-.31-1.7,1.46,1.46,0,0,0-1.42-.74,1.89,1.89,0,0,0-1.51.55,2.79,2.79,0,0,0-.53,1.82v8.74h-2.62Z"/><path class="cls-3" d="M855,781.31h-2.38c0-.72,0-1.25,0-1.75a3,3,0,0,1-3,2c-2.52,0-4.34-2.4-4.34-7,0-4.39,1.56-7,4.34-7a2.94,2.94,0,0,1,3,2.11c0-.6,0-1.15,0-1.82H855Zm-7.06-6.67c0,3,.82,4.39,2.26,4.39a1.8,1.8,0,0,0,1.66-.94c.48-.65.55-1.51.55-3.48s-.07-2.86-.55-3.5a1.83,1.83,0,0,0-1.66-.91c-1.44,0-2.26,1.39-2.26,4.42Z"/><path class="cls-3" d="M858.82,763.55h2.59v2.57h-2.59Zm0,4.34h2.59v13.42h-2.59Z"/><path class="cls-3" d="M870.41,771.69c0-1.27-.62-1.82-1.7-1.82a1.34,1.34,0,0,0-1.44,1.39c0,1.3,1.42,1.54,3,2a3.88,3.88,0,0,1,3.1,4.08,4.22,4.22,0,0,1-4.46,4.25c-2.52,0-4.42-1.42-4.63-4.44h2.59a2,2,0,0,0,2.09,2.09,1.57,1.57,0,0,0,1.68-1.73c0-1.34-1.39-1.66-3-2.18s-3.07-1.42-3.07-4c0-2.18,1.56-3.74,4.27-3.74s4.06,1.51,4.2,4.08Z"/><path class="cls-3" d="M888,781.31h-2.4l-4-13.42h2.64l2.47,9.58L889,767.9h2.62Z"/><path class="cls-3" d="M892.92,774.59c0-3.84,1.63-7,5.19-7s5.16,3.14,5.16,7-1.63,7-5.16,7-5.19-3.14-5.19-7Zm2.74,0c0,3.29.89,4.54,2.47,4.54s2.4-1.25,2.4-4.56-.89-4.56-2.47-4.56-2.4,1.22-2.4,4.56Z"/><path class="cls-3" d="M906.58,770.34H905V767.9h1.61V764.7h2.59v3.19h1.58v2.45h-1.58v11h-2.59Z"/><path class="cls-3" d="M913.13,767.9h2.38c0,.82,0,1.49,0,2.16.55-2,1.94-2.45,3.48-2.45v3.14a1.94,1.94,0,0,0-1.1-.31c-1.18,0-2.14,1.15-2.14,3.29v7.58h-2.59Z"/><path class="cls-3" d="M923.09,775.5c0,1.87.65,3.67,2.38,3.67a2.2,2.2,0,0,0,2.16-2h2.57a5.46,5.46,0,0,1-1.82,3.53,4.81,4.81,0,0,1-2.9.94c-3.58,0-5.16-3.26-5.16-7,0-4,1.75-7,5.14-7a4.25,4.25,0,0,1,3.79,2,10.73,10.73,0,0,1,1.08,5.86Zm4.63-2.23c0-1.54-.55-3.5-2.28-3.5-1.42,0-2.35,1.32-2.35,3.5Z"/><path class="cls-3" d="M940.2,767.9h2.38c0,.82,0,1.49,0,2.16.55-2,1.94-2.45,3.48-2.45v3.14a1.94,1.94,0,0,0-1.1-.31c-1.18,0-2.14,1.15-2.14,3.29v7.58H940.2Z"/><path class="cls-3" d="M950.16,775.5c0,1.87.65,3.67,2.38,3.67a2.2,2.2,0,0,0,2.16-2h2.57a5.46,5.46,0,0,1-1.82,3.53,4.81,4.81,0,0,1-2.9.94c-3.58,0-5.16-3.26-5.16-7,0-4,1.75-7,5.14-7a4.25,4.25,0,0,1,3.79,2,10.73,10.73,0,0,1,1.08,5.86Zm4.63-2.23c0-1.54-.55-3.5-2.28-3.5-1.42,0-2.35,1.32-2.35,3.5Z"/><path class="cls-3" d="M960.34,767.9h2.28c0,.55,0,1.08,0,1.66a3.14,3.14,0,0,1,3.19-1.94c2.21,0,3.63,1.22,3.63,4.15v9.55h-2.59V772.6c0-1.08-.22-2.4-1.8-2.4-1.25,0-2.09.77-2.09,2.52v8.59h-2.59Z"/><path class="cls-3" d="M972.24,774.59c0-3.84,1.63-7,5.18-7s5.16,3.14,5.16,7-1.63,7-5.16,7-5.18-3.14-5.18-7Zm2.74,0c0,3.29.89,4.54,2.47,4.54s2.4-1.25,2.4-4.56-.89-4.56-2.47-4.56-2.4,1.22-2.4,4.56Z"/><path class="cls-3" d="M985.54,767.9H988c0,.6,0,1.18,0,1.8a2.8,2.8,0,0,1,3-2.09,3,3,0,0,1,2.09.72,2.62,2.62,0,0,1,.67,1.13,3,3,0,0,1,1-1.2,4.25,4.25,0,0,1,2.3-.65,3.6,3.6,0,0,1,3.07,1.46,5.39,5.39,0,0,1,.84,3.17v9.07H998.3v-8.69a3.28,3.28,0,0,0-.31-1.68,1.49,1.49,0,0,0-1.44-.74,1.81,1.81,0,0,0-1.51.58,2.66,2.66,0,0,0-.53,1.78v8.76h-2.59v-8.66a3.45,3.45,0,0,0-.31-1.7,1.46,1.46,0,0,0-1.42-.74,1.89,1.89,0,0,0-1.51.55,2.79,2.79,0,0,0-.53,1.82v8.74h-2.62Z"/><path class="cls-3" d="M1004.59,767.9h2.47c0,.6,0,1.18,0,1.8a2.8,2.8,0,0,1,3-2.09,3,3,0,0,1,2.09.72,2.64,2.64,0,0,1,.67,1.13,3,3,0,0,1,1-1.2,4.25,4.25,0,0,1,2.3-.65,3.6,3.6,0,0,1,3.07,1.46,5.39,5.39,0,0,1,.84,3.17v9.07h-2.59v-8.69a3.28,3.28,0,0,0-.31-1.68,1.49,1.49,0,0,0-1.44-.74,1.81,1.81,0,0,0-1.51.58,2.65,2.65,0,0,0-.53,1.78v8.76H1011v-8.66a3.45,3.45,0,0,0-.31-1.7,1.46,1.46,0,0,0-1.42-.74,1.89,1.89,0,0,0-1.51.55,2.79,2.79,0,0,0-.53,1.82v8.74h-2.62Z"/><path class="cls-3" d="M1025.76,775.5c0,1.87.65,3.67,2.38,3.67a2.2,2.2,0,0,0,2.16-2h2.57a5.46,5.46,0,0,1-1.82,3.53,4.81,4.81,0,0,1-2.9.94c-3.58,0-5.16-3.26-5.16-7,0-4,1.75-7,5.14-7a4.25,4.25,0,0,1,3.79,2,10.73,10.73,0,0,1,1.08,5.86Zm5.21-13.25,1,2.09-5.5,2.62-.91-1.7Zm-.58,11c0-1.54-.55-3.5-2.28-3.5-1.42,0-2.35,1.32-2.35,3.5Z"/><path class="cls-3" d="M1038.14,775.5c0,1.87.65,3.67,2.38,3.67a2.2,2.2,0,0,0,2.16-2h2.57a5.47,5.47,0,0,1-1.82,3.53,4.81,4.81,0,0,1-2.9.94c-3.58,0-5.16-3.26-5.16-7,0-4,1.75-7,5.14-7a4.25,4.25,0,0,1,3.79,2,10.72,10.72,0,0,1,1.08,5.86Zm4.63-2.23c0-1.54-.55-3.5-2.28-3.5-1.42,0-2.35,1.32-2.35,3.5Z"/><path class="cls-3" d="M1055.35,767.9h2.47c0,.6,0,1.18,0,1.8a2.8,2.8,0,0,1,3-2.09,3,3,0,0,1,2.09.72,2.62,2.62,0,0,1,.67,1.13,3,3,0,0,1,1-1.2,4.25,4.25,0,0,1,2.3-.65,3.6,3.6,0,0,1,3.07,1.46,5.39,5.39,0,0,1,.84,3.17v9.07h-2.59v-8.69a3.28,3.28,0,0,0-.31-1.68,1.49,1.49,0,0,0-1.44-.74,1.81,1.81,0,0,0-1.51.58,2.66,2.66,0,0,0-.53,1.78v8.76h-2.59v-8.66a3.45,3.45,0,0,0-.31-1.7,1.46,1.46,0,0,0-1.42-.74,1.89,1.89,0,0,0-1.51.55,2.79,2.79,0,0,0-.53,1.82v8.74h-2.62Z"/><path class="cls-3" d="M1075.32,763.55h2.76l-2.3,5.45h-2.38Z"/><path class="cls-3" d="M1080.84,763.55h2.59v2.57h-2.59Zm0,4.34h2.59v13.42h-2.59Z"/><path class="cls-3" d="M1087.25,767.9h2.28c0,.55,0,1.08,0,1.66a3.14,3.14,0,0,1,3.19-1.94c2.21,0,3.62,1.22,3.62,4.15v9.55h-2.59V772.6c0-1.08-.22-2.4-1.8-2.4-1.25,0-2.09.77-2.09,2.52v8.59h-2.59Z"/><path class="cls-3" d="M1108.58,776.42c-.1,2.74-1.51,5.18-4.34,5.18-3.34,0-5.18-2.81-5.18-7,0-4.44,2-7,5.16-7,2.86,0,4.3,2.42,4.34,5.23h-2.69c-.1-2-.84-2.78-1.85-2.78a1.68,1.68,0,0,0-1.63,1.06,7.66,7.66,0,0,0-.6,3.5c0,3.22.82,4.56,2.26,4.56,1.2,0,1.75-1.18,1.85-2.76Z"/><path class="cls-3" d="M1111.37,763.55H1114v2.57h-2.59Zm0,4.34H1114v13.42h-2.59Z"/><path class="cls-3" d="M1118.23,770.34h-1.61V767.9h1.61V764.7h2.59v3.19h1.58v2.45h-1.58v11h-2.59Z"/><path class="cls-3" d="M1126.73,775.5c0,1.87.65,3.67,2.38,3.67a2.2,2.2,0,0,0,2.16-2h2.57a5.46,5.46,0,0,1-1.82,3.53,4.81,4.81,0,0,1-2.9.94c-3.58,0-5.16-3.26-5.16-7,0-4,1.75-7,5.14-7a4.25,4.25,0,0,1,3.79,2,10.73,10.73,0,0,1,1.08,5.86Zm4.63-2.23c0-1.54-.55-3.5-2.28-3.5-1.42,0-2.35,1.32-2.35,3.5Z"/><path class="cls-3" d="M1152.82,781.31h-2.38c0-.72,0-1.25,0-1.75a3,3,0,0,1-3,2c-2.52,0-4.34-2.4-4.34-7,0-4.39,1.56-7,4.34-7a2.94,2.94,0,0,1,3,2.11c0-.6,0-1.15,0-1.82h2.38Zm-2.14-16.06-.89,1.7-5.5-2.62,1-2.09Zm-4.92,9.39c0,3,.82,4.39,2.26,4.39a1.8,1.8,0,0,0,1.66-.94c.48-.65.55-1.51.55-3.48s-.07-2.86-.55-3.5a1.83,1.83,0,0,0-1.66-.91c-1.44,0-2.26,1.39-2.26,4.42Z"/><path class="cls-3" d="M1168.25,781.31h-2.4l-4-13.42h2.64l2.47,9.58,2.28-9.58h2.62Z"/><path class="cls-3" d="M1173.17,774.59c0-3.84,1.63-7,5.19-7s5.16,3.14,5.16,7-1.63,7-5.16,7-5.19-3.14-5.19-7Zm2.74,0c0,3.29.89,4.54,2.47,4.54s2.4-1.25,2.4-4.56-.89-4.56-2.47-4.56-2.4,1.22-2.4,4.56Z"/><path class="cls-3" d="M1195.42,781.31H1193c0-.58,0-1.15,0-1.78a2.91,2.91,0,0,1-3.12,2.06c-2.18,0-3.6-1.22-3.6-4.15V767.9h2.59v8.71c0,1.08.22,2.42,1.8,2.42,1.22,0,2.09-.79,2.09-2.54V767.9h2.59Z"/><path class="cls-3" d="M1204.13,771.69c0-1.27-.62-1.82-1.71-1.82a1.34,1.34,0,0,0-1.44,1.39c0,1.3,1.42,1.54,3,2a3.88,3.88,0,0,1,3.1,4.08,4.22,4.22,0,0,1-4.46,4.25c-2.52,0-4.42-1.42-4.63-4.44h2.59a2,2,0,0,0,2.09,2.09,1.57,1.57,0,0,0,1.68-1.73c0-1.34-1.39-1.66-3-2.18s-3.07-1.42-3.07-4c0-2.18,1.56-3.74,4.27-3.74s4.06,1.51,4.2,4.08Z"/><path class="cls-3" d="M1219,775.5c0,1.87.65,3.67,2.38,3.67a2.2,2.2,0,0,0,2.16-2h2.57a5.45,5.45,0,0,1-1.82,3.53,4.81,4.81,0,0,1-2.9.94c-3.58,0-5.16-3.26-5.16-7,0-4,1.75-7,5.14-7a4.25,4.25,0,0,1,3.79,2,10.75,10.75,0,0,1,1.08,5.86Zm5.21-13.25,1,2.09-5.5,2.62-.91-1.7Zm-.58,11c0-1.54-.55-3.5-2.28-3.5-1.42,0-2.35,1.32-2.35,3.5Z"/><path class="cls-3" d="M1237.9,776.42c-.1,2.74-1.51,5.18-4.34,5.18-3.34,0-5.18-2.81-5.18-7,0-4.44,2-7,5.16-7,2.86,0,4.3,2.42,4.34,5.23h-2.69c-.1-2-.84-2.78-1.85-2.78a1.68,1.68,0,0,0-1.63,1.06,7.66,7.66,0,0,0-.6,3.5c0,3.22.82,4.56,2.26,4.56,1.2,0,1.75-1.18,1.85-2.76Z"/><path class="cls-3" d="M1240.39,767.9h2.38c0,.82,0,1.49,0,2.16.55-2,1.94-2.45,3.48-2.45v3.14a1.94,1.94,0,0,0-1.1-.31c-1.18,0-2.14,1.15-2.14,3.29v7.58h-2.59Z"/><path class="cls-3" d="M1248.77,763.55h2.59v2.57h-2.59Zm0,4.34h2.59v13.42h-2.59Z"/><path class="cls-3" d="M1255.18,767.9h2.38c0,.82,0,1.49,0,2.16.55-2,1.94-2.45,3.48-2.45v3.14a1.94,1.94,0,0,0-1.1-.31c-1.18,0-2.14,1.15-2.14,3.29v7.58h-2.59Z"/><path class="cls-3" d="M1265.14,775.5c0,1.87.65,3.67,2.38,3.67a2.2,2.2,0,0,0,2.16-2h2.57a5.47,5.47,0,0,1-1.82,3.53,4.81,4.81,0,0,1-2.9.94c-3.58,0-5.16-3.26-5.16-7,0-4,1.75-7,5.14-7a4.25,4.25,0,0,1,3.79,2,10.72,10.72,0,0,1,1.08,5.86Zm4.63-2.23c0-1.54-.55-3.5-2.28-3.5-1.42,0-2.35,1.32-2.35,3.5Z"/><path class="cls-3" d="M1278.1,781.31h-2.59v-3.17h2.59Z"/></g><g id="etapes_jeu" data-name="etapes jeu"><line class="cls-4" x1="555.81" y1="227.84" x2="556.31" y2="227.84"/><line class="cls-5" x1="571.26" y1="227.84" x2="1361.42" y2="227.84"/><line class="cls-4" x1="1368.89" y1="227.84" x2="1369.39" y2="227.84"/><circle class="cls-6" cx="699.29" cy="227.84" r="19.32"/><path class="cls-7" d="M700.85,215.41v20.37h3.21v3.38h-9.84v-3.38h3.21v-17h-3.21v-3.38Z"/><path class="cls-8" d="M699.29,208.53h-.15v38.63h.15a19.32,19.32,0,1,0,0-38.63Z"/><circle class="cls-6" cx="878.98" cy="227.84" r="39.31"/><path class="cls-7" d="M868.66,240.49q0-6.53,6.5-11.18t6.55-7.91v-9.48q0-3.27-3-3.28h0q-3,0-3,3.28v6.48h-7v-6.48q0-10.17,10-10.17t10,10.17v9.65q0,6.65-6.53,11.33t-6.53,8.18V244h13.05v6.87h-20Z"/><path class="cls-8" d="M879,188.53h-.31v78.61H879a39.31,39.31,0,1,0,0-78.63Z"/><circle class="cls-6" cx="1058.68" cy="227.84" r="19.32"/><path class="cls-7" d="M1060,220q0-1.6-1.49-1.61h0q-1.48,0-1.48,1.61v3.18h-3.42V220q0-5,4.91-5t4.92,5v4.13a3.41,3.41,0,0,1-1.87,3.3,3.41,3.41,0,0,1,1.88,3.3v3.79q0,5-4.92,5t-4.91-5v-3.18H1057v3.18q0,1.61,1.48,1.61h0q1.49,0,1.49-1.61v-3.79q0-1.29-.54-1.54a2.46,2.46,0,0,0-.9-.12h-1.13v-3.38h1.39a1.44,1.44,0,0,0,.73-.15q.45-.25.45-1.45Z"/><path class="cls-8" d="M1058.68,208.53h-.15v38.63h.15a19.32,19.32,0,1,0,0-38.63Z"/><circle class="cls-6" cx="1238.37" cy="227.84" r="19.32"/><path class="cls-7" d="M1242.73,215.41V231H1244v3.38h-1.32v4.79h-3.42v-4.79h-6.95v-3l6-15.95Zm-7,15.57h3.57V220.89Z"/><path class="cls-8" d="M1238.37,208.53h-.15v38.63h.15a19.32,19.32,0,1,0,0-38.63Z"/></g></g></svg>