<svg xmlns="http://www.w3.org/2000/svg" viewBox="0 0 1920 1080"><defs><style>.cls-1{isolation:isolate;}.cls-2,.cls-7{fill:#fff;}.cls-2{opacity:0.3;}.cls-3{fill:#666;}.cls-4,.cls-5{fill:none;stroke:#fff;stroke-linecap:round;stroke-miterlimit:10;stroke-width:5px;}.cls-5{stroke-dasharray:1 14.96;}.cls-6{fill:#4e96b3;}.cls-8{fill:#464646;opacity:0.7;mix-blend-mode:soft-light;}</style></defs><title>game4f1</title><g class="cls-1"><g id="contenu"><rect class="cls-2" x="311.76" y="335.35" width="1296.48" height="69" rx="8.8" ry="8.8"/><polygon class="cls-2" points="904.42 404.35 960.92 440.35 1015.58 404.35 904.42 404.35"/><path class="cls-3" d="M366.4,383.16a9.27,9.27,0,0,1-1.48.16,5.47,5.47,0,0,1-4-1.4,9.81,9.81,0,0,1-5.28,1.4c-7.28,0-10.88-6.08-10.88-15.36s3.6-15.36,10.88-15.36,10.88,6.08,10.88,15.36a23.79,23.79,0,0,1-1.76,9.6,2.5,2.5,0,0,0,1.64,0Zm-10.8-25c-3.08,0-4.6,2.76-4.6,9.76,0,.92,0,1.6.08,2.28a8.62,8.62,0,0,1,3.08-.56,5.94,5.94,0,0,1,2.76.6,8.79,8.79,0,0,1,3.12,2.6,31.83,31.83,0,0,0,.24-4.92c0-7-1.52-9.76-4.64-9.76Zm.08,19.52a2.87,2.87,0,0,0,1.84-.52,5.1,5.1,0,0,0-4.56-2.36,3.24,3.24,0,0,0-1.08.2,4,4,0,0,0,3.76,2.68Z"/><path class="cls-3" d="M387.16,382.76h-4.84v-2.4c-.68,1.84-1.84,2.88-4.64,2.88-3.6,0-5.88-2-5.88-6.6V360h5.36v14.84c0,1.56.36,3,2.24,3,1.4,0,2.4-.72,2.4-2.64V360h5.36Z"/><path class="cls-3" d="M398.28,373.32c0,2.24.6,4.88,3,4.88,1.4,0,2.4-.88,2.8-2.8h5.32c-.44,3.16-1.72,5.2-3.28,6.36a8.31,8.31,0,0,1-4.84,1.48c-6,0-8.76-5.28-8.76-11.84s2.8-11.84,8.76-11.84a7.15,7.15,0,0,1,6.6,3.64c1.68,2.92,1.8,6.64,1.68,10.12Zm5.92-4.56c0-1.36-.2-4.8-2.84-4.8-1.88,0-3.08,1.6-3.08,4.8Z"/><path class="cls-3" d="M415.56,353.17h5.36v29.59h-5.36Z"/><path class="cls-3" d="M428.28,353.17h5.36v29.59h-5.36Z"/><path class="cls-3" d="M445.32,373.32c0,2.24.6,4.88,3,4.88,1.4,0,2.4-.88,2.8-2.8h5.32c-.44,3.16-1.72,5.2-3.28,6.36a8.32,8.32,0,0,1-4.84,1.48c-6,0-8.76-5.28-8.76-11.84s2.8-11.84,8.76-11.84a7.15,7.15,0,0,1,6.6,3.64c1.68,2.92,1.8,6.64,1.68,10.12Zm5.92-4.56c0-1.36-.2-4.8-2.84-4.8-1.88,0-3.08,1.6-3.08,4.8Z"/><path class="cls-3" d="M470.6,366.77c-.08-1.68-.76-2.56-2.4-2.56a1.71,1.71,0,0,0-1.92,1.76c0,1.92,2.56,2.08,5.12,2.88s5.12,2.32,5.12,7c0,4.24-3.36,7.44-8,7.44-4.36,0-7.8-2.4-8.28-7.76h5.36a2.92,2.92,0,0,0,3.08,2.88,2,2,0,0,0,2.2-2.28c0-2-2.56-2.16-5.12-3s-5.12-2.4-5.12-6.92c0-3.8,2.64-6.6,7.76-6.6s7.28,2.8,7.6,7.2Z"/><path class="cls-3" d="M502.68,366.77c-.08-1.68-.76-2.56-2.4-2.56a1.71,1.71,0,0,0-1.92,1.76c0,1.92,2.56,2.08,5.12,2.88s5.12,2.32,5.12,7c0,4.24-3.36,7.44-8,7.44-4.36,0-7.8-2.4-8.28-7.76h5.36a2.92,2.92,0,0,0,3.08,2.88,2,2,0,0,0,2.2-2.28c0-2-2.56-2.16-5.12-3s-5.12-2.4-5.12-6.92c0-3.8,2.64-6.6,7.76-6.6s7.28,2.8,7.6,7.2Z"/><path class="cls-3" d="M512.4,371.36c0-6.52,2.8-11.8,8.76-11.8s8.76,5.28,8.76,11.84-2.8,11.84-8.76,11.84S512.4,378,512.4,371.4Zm5.68.08c0,5.32,1.2,6.76,3.16,6.76,1.8,0,3-1.44,3-6.8s-1.2-6.8-3.16-6.8c-1.8,0-3,1.44-3,6.8Z"/><path class="cls-3" d="M535.08,360h4.64v2.16c.88-1.6,2-2.64,4.84-2.64,3.6,0,5.88,2,5.88,6.6v16.6h-5.36V367.93c0-1.56-.36-3-2.24-3-1.4,0-2.4.72-2.4,2.64v15.2h-5.36Z"/><path class="cls-3" d="M557.24,365.09h-2.4v-5h2.4v-4.32h5.36V360H565v5h-2.4v17.68h-5.36Z"/><path class="cls-3" d="M582.68,353.17H588v29.59h-5.36Z"/><path class="cls-3" d="M599.72,373.32c0,2.24.6,4.88,3,4.88,1.4,0,2.4-.88,2.8-2.8h5.32c-.44,3.16-1.72,5.2-3.28,6.36a8.31,8.31,0,0,1-4.84,1.48c-6,0-8.76-5.28-8.76-11.84s2.8-11.84,8.76-11.84a7.15,7.15,0,0,1,6.6,3.64c1.68,2.92,1.8,6.64,1.68,10.12Zm5.92-4.56c0-1.36-.2-4.8-2.84-4.8-1.88,0-3.08,1.6-3.08,4.8Z"/><path class="cls-3" d="M625,366.77c-.08-1.68-.76-2.56-2.4-2.56a1.71,1.71,0,0,0-1.92,1.76c0,1.92,2.56,2.08,5.12,2.88s5.12,2.32,5.12,7c0,4.24-3.36,7.44-8,7.44-4.36,0-7.8-2.4-8.28-7.76H620a2.92,2.92,0,0,0,3.08,2.88,2,2,0,0,0,2.2-2.28c0-2-2.56-2.16-5.12-3s-5.12-2.4-5.12-6.92c0-3.8,2.64-6.6,7.76-6.6s7.28,2.8,7.6,7.2Z"/><path class="cls-3" d="M648.52,360h4.88v3c.8-2.84,2.8-3.44,5.76-3.44v6.6a4,4,0,0,0-2.36-.68c-2,0-2.92,1.68-2.92,4v13.28h-5.36Z"/><path class="cls-3" d="M667.72,373.32c0,2.24.6,4.88,3,4.88,1.4,0,2.4-.88,2.8-2.8h5.32c-.44,3.16-1.72,5.2-3.28,6.36a8.32,8.32,0,0,1-4.84,1.48c-6,0-8.76-5.28-8.76-11.84s2.8-11.84,8.76-11.84a7.16,7.16,0,0,1,6.6,3.64c1.68,2.92,1.8,6.64,1.68,10.12Zm8-22.92,2,4.28-9.28,4.12-1.84-3.48Zm-2.12,18.36c0-1.36-.2-4.8-2.84-4.8-1.88,0-3.08,1.6-3.08,4.8Z"/><path class="cls-3" d="M684.44,360h4.88v2.16a4.54,4.54,0,0,1,4.4-2.64c4.08,0,7.16,3.68,7.16,11.84,0,7.68-2.52,11.84-7.16,11.84a4.36,4.36,0,0,1-3.92-2.16V390h-5.36Zm11.08,11.32c0-5-1-6.44-2.92-6.44a2.24,2.24,0,0,0-2,1c-.68.84-.84,1.92-.84,5.48s.16,4.64.84,5.48a2.24,2.24,0,0,0,2,1c1.88,0,2.92-1.44,2.92-6.48Z"/><path class="cls-3" d="M705,371.36c0-6.52,2.8-11.8,8.76-11.8s8.76,5.28,8.76,11.84-2.8,11.84-8.76,11.84S705,378,705,371.4Zm5.68.08c0,5.32,1.2,6.76,3.16,6.76,1.8,0,3-1.44,3-6.8s-1.2-6.8-3.16-6.8c-1.8,0-3,1.44-3,6.8Z"/><path class="cls-3" d="M727.64,360h4.64v2.16c.88-1.6,2-2.64,4.84-2.64,3.6,0,5.88,2,5.88,6.6v16.6h-5.36V367.93c0-1.56-.36-3-2.24-3-1.4,0-2.4.72-2.4,2.64v15.2h-5.36Z"/><path class="cls-3" d="M757.8,366.77c-.08-1.68-.76-2.56-2.4-2.56a1.71,1.71,0,0,0-1.92,1.76c0,1.92,2.56,2.08,5.12,2.88s5.12,2.32,5.12,7c0,4.24-3.36,7.44-8,7.44-4.36,0-7.8-2.4-8.28-7.76h5.36a2.92,2.92,0,0,0,3.08,2.88,2,2,0,0,0,2.2-2.28c0-2-2.56-2.16-5.12-3s-5.12-2.4-5.12-6.92c0-3.8,2.64-6.6,7.76-6.6s7.28,2.8,7.6,7.2Z"/><path class="cls-3" d="M773.48,373.32c0,2.24.6,4.88,3,4.88,1.4,0,2.4-.88,2.8-2.8h5.32c-.44,3.16-1.72,5.2-3.28,6.36a8.31,8.31,0,0,1-4.84,1.48c-6,0-8.76-5.28-8.76-11.84s2.8-11.84,8.76-11.84a7.15,7.15,0,0,1,6.6,3.64c1.68,2.92,1.8,6.64,1.68,10.12Zm5.92-4.56c0-1.36-.2-4.8-2.84-4.8-1.88,0-3.08,1.6-3.08,4.8Z"/><path class="cls-3" d="M798.76,366.77c-.08-1.68-.76-2.56-2.4-2.56a1.71,1.71,0,0,0-1.92,1.76c0,1.92,2.56,2.08,5.12,2.88s5.12,2.32,5.12,7c0,4.24-3.36,7.44-8,7.44-4.36,0-7.8-2.4-8.28-7.76h5.36a2.92,2.92,0,0,0,3.08,2.88,2,2,0,0,0,2.2-2.28c0-2-2.56-2.16-5.12-3s-5.12-2.4-5.12-6.92c0-3.8,2.64-6.6,7.76-6.6s7.28,2.8,7.6,7.2Z"/><path class="cls-3" d="M837.64,390h-5.36v-7.2c0-.64,0-1.28,0-2a4,4,0,0,1-4,2.44c-4.64,0-7.16-4.16-7.16-11.84,0-8.16,3.08-11.84,7.16-11.84,2.12,0,4,1.16,4.24,2.64V360h5Zm-11.08-18.52c0,5,1.12,6.44,2.92,6.44a2.34,2.34,0,0,0,2.12-1c.68-.84.68-1.92.68-5.48s0-4.64-.68-5.48a2.34,2.34,0,0,0-2.12-1c-1.8,0-2.92,1.44-2.92,6.48Z"/><path class="cls-3" d="M859.24,382.76H854.4v-2.4c-.68,1.84-1.84,2.88-4.64,2.88-3.6,0-5.88-2-5.88-6.6V360h5.36v14.84c0,1.56.36,3,2.24,3,1.4,0,2.4-.72,2.4-2.64V360h5.36Z"/><path class="cls-3" d="M870.36,373.32c0,2.24.6,4.88,3,4.88,1.4,0,2.4-.88,2.8-2.8h5.32c-.44,3.16-1.72,5.2-3.28,6.36a8.32,8.32,0,0,1-4.84,1.48c-6,0-8.76-5.28-8.76-11.84s2.8-11.84,8.76-11.84a7.16,7.16,0,0,1,6.6,3.64c1.68,2.92,1.8,6.64,1.68,10.12Zm5.92-4.56c0-1.36-.2-4.8-2.84-4.8-1.88,0-3.08,1.6-3.08,4.8Z"/><path class="cls-3" d="M915.16,382.76h-4.88V380.2a4.27,4.27,0,0,1-4.4,3c-4.08,0-7.16-3.68-7.16-11.84,0-7.68,2.52-11.84,7.16-11.84a4,4,0,0,1,4,2.4c0-.64,0-1.28,0-1.92v-6.88h5.36Zm-11.08-11.32c0,5,1.12,6.44,2.92,6.44a2.34,2.34,0,0,0,2.12-1c.68-.84.68-1.92.68-5.48s0-4.64-.68-5.48a2.34,2.34,0,0,0-2.12-1c-1.8,0-2.92,1.44-2.92,6.48Z"/><path class="cls-3" d="M920.32,371.36c0-6.52,2.8-11.8,8.76-11.8s8.76,5.28,8.76,11.84-2.8,11.84-8.76,11.84-8.76-5.28-8.76-11.84Zm5.68.08c0,5.32,1.2,6.76,3.16,6.76,1.8,0,3-1.44,3-6.8s-1.2-6.8-3.16-6.8c-1.8,0-3,1.44-3,6.8Z"/><path class="cls-3" d="M943.56,353.17h5.36v4.48h-5.36Zm0,6.88h5.36v22.72h-5.36Z"/><path class="cls-3" d="M956.28,365.09h-2.4v-5h2.4v-4.32h5.36V360H964v5h-2.4v17.68h-5.36Z"/><path class="cls-3" d="M996.52,382.76h-4.88V380.6a4.48,4.48,0,0,1-4.4,2.64c-4.08,0-7.16-3.68-7.16-11.84,0-7.68,2.52-11.84,7.16-11.84a4.3,4.3,0,0,1,4.4,2.8V360h4.88Zm-11.08-11.32c0,5,1.12,6.44,2.92,6.44a2.34,2.34,0,0,0,2.12-1c.68-.84.68-1.92.68-5.48s0-4.64-.68-5.48a2.34,2.34,0,0,0-2.12-1c-1.8,0-2.92,1.44-2.92,6.48Z"/><path class="cls-3" d="M1002.76,360h4.88v2.16a4.54,4.54,0,0,1,4.4-2.64c4.08,0,7.16,3.68,7.16,11.84,0,7.68-2.52,11.84-7.16,11.84a4.36,4.36,0,0,1-3.92-2.16V390h-5.36Zm11.08,11.32c0-5-1-6.44-2.92-6.44a2.24,2.24,0,0,0-2,1c-.68.84-.84,1.92-.84,5.48s.16,4.64.84,5.48a2.24,2.24,0,0,0,2,1c1.88,0,2.92-1.44,2.92-6.48Z"/><path class="cls-3" d="M1024.36,360h4.88v2.16a4.54,4.54,0,0,1,4.4-2.64c4.08,0,7.16,3.68,7.16,11.84,0,7.68-2.52,11.84-7.16,11.84a4.36,4.36,0,0,1-3.92-2.16V390h-5.36Zm11.08,11.32c0-5-1-6.44-2.92-6.44a2.24,2.24,0,0,0-2,1c-.68.84-.84,1.92-.84,5.48s.16,4.64.84,5.48a2.24,2.24,0,0,0,2,1c1.88,0,2.92-1.44,2.92-6.48Z"/><path class="cls-3" d="M1044.88,371.36c0-6.52,2.8-11.8,8.76-11.8s8.76,5.28,8.76,11.84-2.8,11.84-8.76,11.84-8.76-5.28-8.76-11.84Zm5.68.08c0,5.32,1.2,6.76,3.16,6.76,1.8,0,3-1.44,3-6.8s-1.2-6.8-3.16-6.8c-1.8,0-3,1.44-3,6.8Z"/><path class="cls-3" d="M1067.56,360h4.88v3c.8-2.84,2.8-3.44,5.76-3.44v6.6a4,4,0,0,0-2.36-.68c-2,0-2.92,1.68-2.92,4v13.28h-5.36Z"/><path class="cls-3" d="M1083.24,365.09h-2.4v-5h2.4v-4.32h5.36V360h2.4v5h-2.4v17.68h-5.36Z"/><path class="cls-3" d="M1099.88,373.32c0,2.24.6,4.88,3,4.88,1.4,0,2.4-.88,2.8-2.8H1111c-.44,3.16-1.72,5.2-3.28,6.36a8.31,8.31,0,0,1-4.84,1.48c-6,0-8.76-5.28-8.76-11.84s2.8-11.84,8.76-11.84a7.15,7.15,0,0,1,6.6,3.64c1.68,2.92,1.8,6.64,1.68,10.12Zm5.92-4.56c0-1.36-.2-4.8-2.84-4.8-1.88,0-3.08,1.6-3.08,4.8Z"/><path class="cls-3" d="M1116.6,360h4.88v3c.8-2.84,2.8-3.44,5.76-3.44v6.6a4,4,0,0,0-2.36-.68c-2,0-2.92,1.68-2.92,4v13.28h-5.36Z"/><path class="cls-3" d="M1144.8,353.17h5.36v29.59h-5.36Z"/><path class="cls-3" d="M1172.32,382.76h-4.88V380.6a4.48,4.48,0,0,1-4.4,2.64c-4.08,0-7.16-3.68-7.16-11.84,0-7.68,2.52-11.84,7.16-11.84a4.3,4.3,0,0,1,4.4,2.8V360h4.88Zm-11.08-11.32c0,5,1.12,6.44,2.92,6.44a2.34,2.34,0,0,0,2.12-1c.68-.84.68-1.92.68-5.48s0-4.64-.68-5.48a2.34,2.34,0,0,0-2.12-1c-1.8,0-2.92,1.44-2.92,6.48Z"/><path class="cls-3" d="M1191.84,353.17h5.36v29.59h-5.36Z"/><path class="cls-3" d="M1208.88,373.32c0,2.24.6,4.88,3,4.88,1.4,0,2.4-.88,2.8-2.8H1220c-.44,3.16-1.72,5.2-3.28,6.36a8.31,8.31,0,0,1-4.84,1.48c-6,0-8.76-5.28-8.76-11.84s2.8-11.84,8.76-11.84a7.15,7.15,0,0,1,6.6,3.64c1.68,2.92,1.8,6.64,1.68,10.12Zm5.92-4.56c0-1.36-.2-4.8-2.84-4.8-1.88,0-3.08,1.6-3.08,4.8Z"/><path class="cls-3" d="M1226.16,365.09h-2.4v-5h2.4v-4.32h5.36V360h2.4v5h-2.4v17.68h-5.36Z"/><path class="cls-3" d="M1238.88,365.09h-2.4v-5h2.4v-4.32h5.36V360h2.4v5h-2.4v17.68h-5.36Z"/><path class="cls-3" d="M1251,360h4.88v3c.8-2.84,2.8-3.44,5.76-3.44v6.6a4,4,0,0,0-2.36-.68c-2,0-2.92,1.68-2.92,4v13.28H1251Z"/><path class="cls-3" d="M1270.24,373.32c0,2.24.6,4.88,3,4.88,1.4,0,2.4-.88,2.8-2.8h5.32c-.44,3.16-1.72,5.2-3.28,6.36a8.32,8.32,0,0,1-4.84,1.48c-6,0-8.76-5.28-8.76-11.84s2.8-11.84,8.76-11.84a7.15,7.15,0,0,1,6.6,3.64c1.68,2.92,1.8,6.64,1.68,10.12Zm5.92-4.56c0-1.36-.2-4.8-2.84-4.8-1.88,0-3.08,1.6-3.08,4.8Z"/><path class="cls-3" d="M1315,382.76h-4.88V380.2a4.27,4.27,0,0,1-4.4,3c-4.08,0-7.16-3.68-7.16-11.84,0-7.68,2.52-11.84,7.16-11.84a4,4,0,0,1,4,2.4c0-.64,0-1.28,0-1.92v-6.88H1315ZM1304,371.44c0,5,1.12,6.44,2.92,6.44a2.34,2.34,0,0,0,2.12-1c.68-.84.68-1.92.68-5.48s0-4.64-.68-5.48a2.34,2.34,0,0,0-2.12-1c-1.8,0-2.92,1.44-2.92,6.48Z"/><path class="cls-3" d="M1326.16,373.32c0,2.24.6,4.88,3,4.88,1.4,0,2.4-.88,2.8-2.8h5.32c-.44,3.16-1.72,5.2-3.28,6.36a8.32,8.32,0,0,1-4.84,1.48c-6,0-8.76-5.28-8.76-11.84s2.8-11.84,8.76-11.84a7.15,7.15,0,0,1,6.6,3.64c1.68,2.92,1.8,6.64,1.68,10.12Zm5.92-4.56c0-1.36-.2-4.8-2.84-4.8-1.88,0-3.08,1.6-3.08,4.8Z"/><path class="cls-3" d="M1355.84,360h5v2.64c.72-2.24,2.16-3.12,4.64-3.12a5.05,5.05,0,0,1,3.24,1,3.83,3.83,0,0,1,1.08,1.48,4.47,4.47,0,0,1,1.48-1.52,7.16,7.16,0,0,1,3.72-1,6.39,6.39,0,0,1,5.16,2.2,7.47,7.47,0,0,1,1.64,4.84v16.16h-5.36v-15.2a2.84,2.84,0,0,0-.56-2,2.24,2.24,0,0,0-1.8-.6,3,3,0,0,0-1.88.48,2.25,2.25,0,0,0-.72,1.84v15.52h-5.36v-15.2a2.84,2.84,0,0,0-.56-2,2.24,2.24,0,0,0-1.8-.6,3,3,0,0,0-1.88.48,2.25,2.25,0,0,0-.72,1.84v15.52h-5.36Z"/><path class="cls-3" d="M1387.24,371.36c0-6.52,2.8-11.8,8.76-11.8s8.76,5.28,8.76,11.84-2.8,11.84-8.76,11.84-8.76-5.28-8.76-11.84Zm5.68.08c0,5.32,1.2,6.76,3.16,6.76,1.8,0,3-1.44,3-6.8s-1.2-6.8-3.16-6.8c-1.8,0-3,1.44-3,6.8Z"/><path class="cls-3" d="M1410.48,365.09h-2.4v-5h2.4v-4.32h5.36V360h2.4v5h-2.4v17.68h-5.36Z"/><path class="cls-3" d="M1423.2,353.17h5.36v4.48h-5.36Zm0,6.88h5.36v22.72h-5.36Z"/><path class="cls-3" d="M1444.68,382.76h-4.88L1433.24,360h5.44l3.48,14.56,3-14.56h5.44Z"/><path class="cls-3" d="M1469.68,382.76h-4.88V380.6a4.48,4.48,0,0,1-4.4,2.64c-4.08,0-7.16-3.68-7.16-11.84,0-7.68,2.52-11.84,7.16-11.84a4.3,4.3,0,0,1,4.4,2.8V360h4.88Zm-11.08-11.32c0,5,1.12,6.44,2.92,6.44a2.34,2.34,0,0,0,2.12-1c.68-.84.68-1.92.68-5.48s0-4.64-.68-5.48a2.34,2.34,0,0,0-2.12-1c-1.8,0-2.92,1.44-2.92,6.48Z"/><path class="cls-3" d="M1476.48,365.09h-2.4v-5h2.4v-4.32h5.36V360h2.4v5h-2.4v17.68h-5.36Z"/><path class="cls-3" d="M1489.2,353.17h5.36v4.48h-5.36Zm0,6.88h5.36v22.72h-5.36Z"/><path class="cls-3" d="M1500.28,371.36c0-6.52,2.8-11.8,8.76-11.8s8.76,5.28,8.76,11.84-2.8,11.84-8.76,11.84-8.76-5.28-8.76-11.84Zm5.68.08c0,5.32,1.2,6.76,3.16,6.76,1.8,0,3-1.44,3-6.8s-1.2-6.8-3.16-6.8c-1.8,0-3,1.44-3,6.8Z"/><path class="cls-3" d="M1523,360h4.64v2.16c.88-1.6,2-2.64,4.84-2.64,3.6,0,5.88,2,5.88,6.6v16.6H1533V367.93c0-1.56-.36-3-2.24-3-1.4,0-2.4.72-2.4,2.64v15.2H1523Z"/><path class="cls-3" d="M1561.12,374.76c0-3.2-.6-5.88,1.24-8.24s4.84-3.64,4.84-5.84c0-1.6-1-2.4-2.64-2.4-1.32,0-2.4.88-2.4,2.84v1h-6.08v-1.44c0-5.28,3.44-8,8.76-8,4.76,0,8.6,3.28,8.6,8.24,0,3.36-1.76,5.16-3.44,6.68-3.16,2.8-3,2.64-3,7.16Zm5.92,8h-5.92v-6.08H1567Z"/><path class="cls-3" d="M675.56,493h3.84L684,510.83,688.62,493h3.71l-6.62,23.68h-3.52Z"/><path class="cls-3" d="M693.58,507.7c0-5.12,2.18-9.31,6.91-9.31s6.88,4.19,6.88,9.34-2.18,9.31-6.88,9.31-6.91-4.19-6.91-9.31Zm3.65.06c0,4.38,1.18,6,3.3,6s3.2-1.66,3.2-6.08-1.18-6.08-3.3-6.08-3.2,1.63-3.2,6.08Z"/><path class="cls-3" d="M712.27,502h-2.14v-3.26h2.14v-4.26h3.46v4.26h2.11V502h-2.11v14.62h-3.46Z"/><path class="cls-3" d="M721.48,498.77h3.17c0,1.09,0,2,0,2.88.74-2.72,2.59-3.26,4.64-3.26v4.19a2.58,2.58,0,0,0-1.47-.42c-1.57,0-2.85,1.54-2.85,4.38v10.11h-3.46Z"/><path class="cls-3" d="M735.24,508.91c0,2.5.87,4.9,3.17,4.9,1.5,0,2.53-1,2.88-2.72h3.42a7.28,7.28,0,0,1-2.43,4.7,6.41,6.41,0,0,1-3.87,1.25c-4.77,0-6.88-4.35-6.88-9.31,0-5.31,2.34-9.34,6.85-9.34a5.66,5.66,0,0,1,5.05,2.72c1.38,2.24,1.5,5.12,1.44,7.81Zm6.18-3c0-2-.74-4.67-3-4.67-1.89,0-3.14,1.76-3.14,4.67Z"/><path class="cls-3" d="M771,516.66h-3.17c0-1.06,0-1.82,0-2.59a3.92,3.92,0,0,1-3.94,3c-3.36,0-5.79-3.2-5.79-9.31,0-5.86,2.08-9.34,5.79-9.34a3.67,3.67,0,0,1,3.65,2.59c0-.71,0-1.41,0-2.21V493H771Zm-9.41-8.93c0,4,1.09,5.86,3,5.86a2.44,2.44,0,0,0,2.21-1.22c.64-.9.74-2,.74-4.67s-.1-3.78-.74-4.64a2.4,2.4,0,0,0-2.21-1.25c-1.92,0-3,1.89-3,5.89Z"/><path class="cls-3" d="M776.55,493H780v3.42h-3.46Zm0,5.79H780v17.89h-3.46Z"/><path class="cls-3" d="M792.49,503.83c0-1.7-.83-2.43-2.27-2.43a1.78,1.78,0,0,0-1.92,1.86c0,1.73,1.89,2,4,2.69s4.13,1.82,4.13,5.44a5.63,5.63,0,0,1-6,5.66c-3.36,0-5.89-1.89-6.17-5.92h3.46a2.67,2.67,0,0,0,2.78,2.78,2.1,2.1,0,0,0,2.24-2.3c0-1.79-1.86-2.21-4-2.91s-4.1-1.89-4.1-5.31c0-2.91,2.08-5,5.7-5s5.41,2,5.6,5.44Z"/><path class="cls-3" d="M800.55,498.77h3.17v2.34a3.92,3.92,0,0,1,3.9-2.72c3.36,0,5.79,3.2,5.79,9.34,0,5.82-2.08,9.31-5.79,9.31a3.8,3.8,0,0,1-3.62-2.43v8.06h-3.46ZM810,507.7c0-4-1.06-5.86-3-5.86a2.39,2.39,0,0,0-2.11,1.22c-.64.86-.83,2-.83,4.67s.19,3.78.83,4.64a2.36,2.36,0,0,0,2.11,1.25c2,0,3-1.89,3-5.89Z"/><path class="cls-3" d="M816.81,507.7c0-5.12,2.18-9.31,6.91-9.31s6.88,4.19,6.88,9.34-2.18,9.31-6.88,9.31-6.91-4.19-6.91-9.31Zm3.65.06c0,4.38,1.18,6,3.3,6s3.2-1.66,3.2-6.08-1.18-6.08-3.3-6.08-3.2,1.63-3.2,6.08Z"/><path class="cls-3" d="M834.89,498.77h3c0,.74,0,1.44,0,2.21a4.18,4.18,0,0,1,4.26-2.59c2.94,0,4.83,1.63,4.83,5.54v12.73h-3.46V505c0-1.44-.29-3.2-2.4-3.2-1.66,0-2.78,1-2.78,3.36v11.46h-3.46Z"/><path class="cls-3" d="M852.52,493H856v3.42h-3.46Zm0,5.79H856v17.89h-3.46Z"/><path class="cls-3" d="M861.55,493H865v8.13a3.59,3.59,0,0,1,3.62-2.72c3.71,0,5.79,3.49,5.79,9.31,0,6.14-2.43,9.34-5.79,9.34a3.91,3.91,0,0,1-3.9-2.78v2.4h-3.17ZM871,507.7c0-3.62-.9-5.86-3-5.86-2.56,0-3,2.85-3,5.89s.42,5.89,3,5.89c2.08,0,3-2.27,3-5.89Z"/><path class="cls-3" d="M879.08,493h3.46v3.42h-3.46Zm0,5.79h3.46v17.89h-3.46Z"/><path class="cls-3" d="M888.49,493h3.46v23.68h-3.46Z"/><path class="cls-3" d="M897.9,493h3.46v3.42H897.9Zm0,5.79h3.46v17.89H897.9Z"/><path class="cls-3" d="M907.53,502h-2.14v-3.26h2.14v-4.26H911v4.26h2.11V502H911v14.62h-3.46Z"/><path class="cls-3" d="M919.34,508.91c0,2.5.87,4.9,3.17,4.9,1.5,0,2.53-1,2.88-2.72h3.42a7.28,7.28,0,0,1-2.43,4.7A6.41,6.41,0,0,1,922.5,517c-4.77,0-6.88-4.35-6.88-9.31,0-5.31,2.34-9.34,6.85-9.34a5.66,5.66,0,0,1,5.05,2.72c1.38,2.24,1.5,5.12,1.44,7.81Zm6.94-17.66,1.34,2.78-7.33,3.49-1.22-2.27Zm-.77,14.69c0-2-.74-4.67-3-4.67-1.89,0-3.14,1.76-3.14,4.67Z"/><path class="cls-3" d="M943.11,498.77h3.17v2.34a3.92,3.92,0,0,1,3.9-2.72c3.36,0,5.79,3.2,5.79,9.34,0,5.82-2.08,9.31-5.79,9.31a3.8,3.8,0,0,1-3.62-2.43v8.06h-3.46Zm9.41,8.93c0-4-1.06-5.86-3-5.86a2.39,2.39,0,0,0-2.11,1.22c-.64.86-.83,2-.83,4.67s.19,3.78.83,4.64a2.36,2.36,0,0,0,2.11,1.25c2,0,3-1.89,3-5.89Z"/><path class="cls-3" d="M959.37,507.7c0-5.12,2.18-9.31,6.91-9.31s6.88,4.19,6.88,9.34S971,517,966.28,517s-6.91-4.19-6.91-9.31Zm3.65.06c0,4.38,1.18,6,3.3,6s3.2-1.66,3.2-6.08-1.18-6.08-3.3-6.08-3.2,1.63-3.2,6.08Z"/><path class="cls-3" d="M989.51,516.66h-3.17c0-.77,0-1.54,0-2.37-.64,1.89-2,2.75-4.16,2.75-2.91,0-4.8-1.63-4.8-5.54V498.77h3.46v11.62c0,1.44.29,3.23,2.4,3.23,1.63,0,2.78-1.06,2.78-3.39V498.77h3.46Z"/><path class="cls-3" d="M994.7,498.77h3.17c0,1.09,0,2,0,2.88.74-2.72,2.59-3.26,4.64-3.26v4.19a2.58,2.58,0,0,0-1.47-.42c-1.57,0-2.85,1.54-2.85,4.38v10.11H994.7Z"/><path class="cls-3" d="M1027.37,510.13c-.13,3.65-2,6.91-5.79,6.91-4.45,0-6.91-3.74-6.91-9.31,0-5.92,2.69-9.34,6.88-9.34,3.81,0,5.73,3.23,5.79,7h-3.58c-.13-2.69-1.12-3.71-2.46-3.71a2.24,2.24,0,0,0-2.18,1.41,10.19,10.19,0,0,0-.8,4.67c0,4.29,1.09,6.08,3,6.08,1.6,0,2.34-1.57,2.46-3.68Z"/><path class="cls-3" d="M1030.28,507.7c0-5.12,2.18-9.31,6.91-9.31s6.88,4.19,6.88,9.34-2.18,9.31-6.88,9.31-6.91-4.19-6.91-9.31Zm3.65.06c0,4.38,1.18,6,3.3,6s3.2-1.66,3.2-6.08-1.18-6.08-3.3-6.08-3.2,1.63-3.2,6.08Z"/><path class="cls-3" d="M1048.49,498.77h3.3c0,.8,0,1.57,0,2.4a3.73,3.73,0,0,1,4-2.78,3.94,3.94,0,0,1,2.78,1,3.51,3.51,0,0,1,.9,1.5,4,4,0,0,1,1.28-1.6,5.67,5.67,0,0,1,3.07-.86,4.8,4.8,0,0,1,4.1,2,7.2,7.2,0,0,1,1.12,4.22v12.09h-3.46V505.08a4.37,4.37,0,0,0-.42-2.24,2,2,0,0,0-1.92-1,2.42,2.42,0,0,0-2,.77,3.54,3.54,0,0,0-.71,2.37v11.68H1057V505.11a4.57,4.57,0,0,0-.42-2.27,1.94,1.94,0,0,0-1.89-1,2.52,2.52,0,0,0-2,.74,3.72,3.72,0,0,0-.7,2.43v11.65h-3.49Z"/><path class="cls-3" d="M1074.38,498.77h3.29c0,.8,0,1.57,0,2.4a3.73,3.73,0,0,1,4-2.78,3.94,3.94,0,0,1,2.78,1,3.49,3.49,0,0,1,.9,1.5,4,4,0,0,1,1.28-1.6,5.67,5.67,0,0,1,3.07-.86,4.8,4.8,0,0,1,4.1,2,7.19,7.19,0,0,1,1.12,4.22v12.09h-3.46V505.08a4.37,4.37,0,0,0-.42-2.24,2,2,0,0,0-1.92-1,2.42,2.42,0,0,0-2,.77,3.54,3.54,0,0,0-.7,2.37v11.68h-3.46V505.11a4.58,4.58,0,0,0-.42-2.27,1.94,1.94,0,0,0-1.89-1,2.52,2.52,0,0,0-2,.74,3.72,3.72,0,0,0-.71,2.43v11.65h-3.49Z"/><path class="cls-3" d="M1103.08,508.91c0,2.5.86,4.9,3.17,4.9,1.5,0,2.53-1,2.88-2.72h3.42a7.28,7.28,0,0,1-2.43,4.7,6.41,6.41,0,0,1-3.87,1.25c-4.77,0-6.88-4.35-6.88-9.31,0-5.31,2.33-9.34,6.85-9.34a5.66,5.66,0,0,1,5.06,2.72c1.38,2.24,1.5,5.12,1.44,7.81Zm6.18-3c0-2-.74-4.67-3-4.67-1.89,0-3.14,1.76-3.14,4.67Z"/><path class="cls-3" d="M1117.13,498.77h3c0,.74,0,1.44,0,2.21a4.18,4.18,0,0,1,4.26-2.59c2.94,0,4.83,1.63,4.83,5.54v12.73h-3.46V505c0-1.44-.29-3.2-2.4-3.2-1.66,0-2.78,1-2.78,3.36v11.46h-3.46Z"/><path class="cls-3" d="M1146.05,510.13c-.13,3.65-2,6.91-5.79,6.91-4.45,0-6.91-3.74-6.91-9.31,0-5.92,2.69-9.34,6.88-9.34,3.81,0,5.73,3.23,5.79,7h-3.58c-.13-2.69-1.12-3.71-2.46-3.71a2.24,2.24,0,0,0-2.18,1.41,10.21,10.21,0,0,0-.8,4.67c0,4.29,1.09,6.08,3,6.08,1.6,0,2.34-1.57,2.46-3.68Z"/><path class="cls-3" d="M1152.8,508.91c0,2.5.87,4.9,3.17,4.9,1.5,0,2.53-1,2.88-2.72h3.42a7.28,7.28,0,0,1-2.43,4.7A6.41,6.41,0,0,1,1156,517c-4.77,0-6.88-4.35-6.88-9.31,0-5.31,2.34-9.34,6.85-9.34a5.66,5.66,0,0,1,5.05,2.72c1.38,2.24,1.5,5.12,1.44,7.81Zm6.18-3c0-2-.74-4.67-3-4.67-1.89,0-3.14,1.76-3.14,4.67Z"/><path class="cls-3" d="M1166.85,498.77H1170c0,1.09,0,2,0,2.88.74-2.72,2.59-3.26,4.64-3.26v4.19a2.58,2.58,0,0,0-1.47-.42c-1.57,0-2.85,1.54-2.85,4.38v10.11h-3.46Z"/><path class="cls-3" d="M1188.23,493h3.46v23.68h-3.46Z"/><path class="cls-3" d="M1200.2,508.91c0,2.5.86,4.9,3.17,4.9,1.5,0,2.53-1,2.88-2.72h3.42a7.27,7.27,0,0,1-2.43,4.7,6.41,6.41,0,0,1-3.87,1.25c-4.77,0-6.88-4.35-6.88-9.31,0-5.31,2.33-9.34,6.85-9.34a5.66,5.66,0,0,1,5.06,2.72c1.38,2.24,1.5,5.12,1.44,7.81Zm6.18-3c0-2-.74-4.67-3-4.67-1.89,0-3.13,1.76-3.13,4.67Z"/><path class="cls-3" d="M1224,498.77h3.17v2.34a3.92,3.92,0,0,1,3.9-2.72c3.36,0,5.79,3.2,5.79,9.34,0,5.82-2.08,9.31-5.79,9.31a3.81,3.81,0,0,1-3.62-2.43v8.06H1224Zm9.41,8.93c0-4-1.06-5.86-3-5.86a2.39,2.39,0,0,0-2.11,1.22c-.64.86-.83,2-.83,4.67s.19,3.78.83,4.64a2.36,2.36,0,0,0,2.11,1.25c2,0,3-1.89,3-5.89Z"/><path class="cls-3" d="M1240.23,507.7c0-5.12,2.18-9.31,6.91-9.31s6.88,4.19,6.88,9.34-2.18,9.31-6.88,9.31-6.91-4.19-6.91-9.31Zm3.65.06c0,4.38,1.18,6,3.3,6s3.2-1.66,3.2-6.08-1.18-6.08-3.29-6.08-3.2,1.63-3.2,6.08Z"/><path class="cls-3" d="M1265.22,503.83c0-1.7-.83-2.43-2.27-2.43a1.78,1.78,0,0,0-1.92,1.86c0,1.73,1.89,2,4,2.69s4.13,1.82,4.13,5.44a5.63,5.63,0,0,1-6,5.66c-3.36,0-5.89-1.89-6.18-5.92h3.46a2.67,2.67,0,0,0,2.78,2.78,2.1,2.1,0,0,0,2.24-2.3c0-1.79-1.86-2.21-4-2.91s-4.1-1.89-4.1-5.31c0-2.91,2.08-5,5.7-5s5.41,2,5.6,5.44Z"/><path class="cls-3" d="M1273.89,502h-2.14v-3.26h2.14v-4.26h3.46v4.26h2.11V502h-2.11v14.62h-3.46Z"/><path class="cls-3" d="M1285.7,508.91c0,2.5.87,4.9,3.17,4.9,1.5,0,2.53-1,2.88-2.72h3.42a7.28,7.28,0,0,1-2.43,4.7,6.41,6.41,0,0,1-3.87,1.25c-4.77,0-6.88-4.35-6.88-9.31,0-5.31,2.34-9.34,6.85-9.34a5.66,5.66,0,0,1,5.05,2.72c1.38,2.24,1.5,5.12,1.44,7.81Zm6.18-3c0-2-.74-4.67-3-4.67-1.89,0-3.14,1.76-3.14,4.67Z"/><path class="cls-3" d="M1303.46,516.66H1300v-4.22h3.46Z"/><path class="cls-3" d="M675.56,607.16h3.84L684,625l4.61-17.86h3.71l-6.62,23.68h-3.52Z"/><path class="cls-3" d="M693.58,621.88c0-5.12,2.18-9.31,6.91-9.31s6.88,4.19,6.88,9.34-2.18,9.31-6.88,9.31-6.91-4.19-6.91-9.31Zm3.65.06c0,4.38,1.18,6,3.3,6s3.2-1.66,3.2-6.08-1.18-6.08-3.3-6.08-3.2,1.63-3.2,6.08Z"/><path class="cls-3" d="M712.27,616.22h-2.14V613h2.14V608.7h3.46V613h2.11v3.26h-2.11v14.62h-3.46Z"/><path class="cls-3" d="M721.48,613h3.17c0,1.09,0,2,0,2.88.74-2.72,2.59-3.26,4.64-3.26v4.19a2.58,2.58,0,0,0-1.47-.42c-1.57,0-2.85,1.54-2.85,4.38v10.11h-3.46Z"/><path class="cls-3" d="M735.24,623.1c0,2.5.87,4.9,3.17,4.9,1.5,0,2.53-1,2.88-2.72h3.42a7.28,7.28,0,0,1-2.43,4.7,6.41,6.41,0,0,1-3.87,1.25c-4.77,0-6.88-4.35-6.88-9.31,0-5.31,2.34-9.34,6.85-9.34a5.66,5.66,0,0,1,5.05,2.72c1.38,2.24,1.5,5.12,1.44,7.81Zm6.18-3c0-2-.74-4.67-3-4.67-1.89,0-3.14,1.76-3.14,4.67Z"/><path class="cls-3" d="M770.7,624.31c-.13,3.65-2,6.91-5.79,6.91-4.45,0-6.91-3.74-6.91-9.31,0-5.92,2.69-9.34,6.88-9.34,3.81,0,5.73,3.23,5.79,7h-3.58c-.13-2.69-1.12-3.71-2.46-3.71a2.24,2.24,0,0,0-2.18,1.41,10.21,10.21,0,0,0-.8,4.67c0,4.29,1.09,6.08,3,6.08,1.6,0,2.34-1.57,2.46-3.68Z"/><path class="cls-3" d="M773.61,621.88c0-5.12,2.18-9.31,6.91-9.31s6.88,4.19,6.88,9.34-2.18,9.31-6.88,9.31-6.91-4.19-6.91-9.31Zm3.65.06c0,4.38,1.18,6,3.3,6s3.2-1.66,3.2-6.08-1.18-6.08-3.3-6.08-3.2,1.63-3.2,6.08Z"/><path class="cls-3" d="M791.82,613h3.29c0,.8,0,1.57,0,2.4a3.73,3.73,0,0,1,4-2.78,3.94,3.94,0,0,1,2.78,1,3.51,3.51,0,0,1,.9,1.5,4,4,0,0,1,1.28-1.6,5.68,5.68,0,0,1,3.07-.86,4.8,4.8,0,0,1,4.1,2,7.19,7.19,0,0,1,1.12,4.22v12.09h-3.46V619.26a4.37,4.37,0,0,0-.42-2.24,2,2,0,0,0-1.92-1,2.42,2.42,0,0,0-2,.77,3.54,3.54,0,0,0-.7,2.37v11.68h-3.46V619.29a4.59,4.59,0,0,0-.42-2.27,1.94,1.94,0,0,0-1.89-1,2.52,2.52,0,0,0-2,.74,3.72,3.72,0,0,0-.7,2.43v11.65h-3.49Z"/><path class="cls-3" d="M817.58,613h3.17v2.34a3.92,3.92,0,0,1,3.9-2.72c3.36,0,5.79,3.2,5.79,9.34,0,5.82-2.08,9.31-5.79,9.31a3.8,3.8,0,0,1-3.62-2.43v8.06h-3.46Zm9.41,8.93c0-4-1.06-5.86-3-5.86a2.39,2.39,0,0,0-2.11,1.22c-.64.86-.83,2-.83,4.67s.19,3.78.83,4.64A2.36,2.36,0,0,0,824,627.8c2,0,3-1.89,3-5.89Z"/><path class="cls-3" d="M834.73,613h3.17c0,1.09,0,2,0,2.88.74-2.72,2.59-3.26,4.64-3.26v4.19a2.58,2.58,0,0,0-1.47-.42c-1.57,0-2.85,1.54-2.85,4.38v10.11h-3.46Z"/><path class="cls-3" d="M848.49,623.1c0,2.5.86,4.9,3.17,4.9,1.5,0,2.53-1,2.88-2.72H858a7.28,7.28,0,0,1-2.43,4.7,6.41,6.41,0,0,1-3.87,1.25c-4.77,0-6.88-4.35-6.88-9.31,0-5.31,2.34-9.34,6.85-9.34a5.66,5.66,0,0,1,5.06,2.72c1.38,2.24,1.5,5.12,1.44,7.81Zm6.94-17.66,1.34,2.78-7.33,3.49-1.22-2.27Zm-.77,14.69c0-2-.74-4.67-3-4.67-1.89,0-3.14,1.76-3.14,4.67Z"/><path class="cls-3" d="M862.54,607.16H866v5.5c0,.7,0,1.34,0,2.08.51-1.31,1.63-2.18,3.81-2.18a4.51,4.51,0,0,1,3.65,1.5,6.22,6.22,0,0,1,1.22,4.22v12.54h-3.46V619.32a4.16,4.16,0,0,0-.54-2.43,2,2,0,0,0-1.82-.86,2.49,2.49,0,0,0-2,.83,3.57,3.57,0,0,0-.77,2.62v11.36h-3.46Z"/><path class="cls-3" d="M882.73,623.1c0,2.5.87,4.9,3.17,4.9,1.5,0,2.53-1,2.88-2.72h3.42a7.28,7.28,0,0,1-2.43,4.7,6.41,6.41,0,0,1-3.87,1.25c-4.77,0-6.88-4.35-6.88-9.31,0-5.31,2.34-9.34,6.85-9.34a5.66,5.66,0,0,1,5.05,2.72c1.38,2.24,1.5,5.12,1.44,7.81Zm6.18-3c0-2-.74-4.67-3-4.67-1.89,0-3.14,1.76-3.14,4.67Z"/><path class="cls-3" d="M896.78,613h3c0,.74,0,1.44,0,2.21a4.18,4.18,0,0,1,4.26-2.59c2.94,0,4.83,1.63,4.83,5.54v12.74h-3.46V619.22c0-1.44-.29-3.2-2.4-3.2-1.66,0-2.78,1-2.78,3.36v11.46h-3.46Z"/><path class="cls-3" d="M920.94,618c0-1.7-.83-2.43-2.27-2.43a1.78,1.78,0,0,0-1.92,1.86c0,1.73,1.89,2,4,2.69s4.13,1.82,4.13,5.44a5.63,5.63,0,0,1-6,5.66c-3.36,0-5.89-1.89-6.18-5.92h3.46a2.67,2.67,0,0,0,2.78,2.78,2.1,2.1,0,0,0,2.24-2.3c0-1.79-1.86-2.21-4-2.91s-4.1-1.89-4.1-5.31c0-2.91,2.08-5,5.7-5s5.41,2,5.6,5.44Z"/><path class="cls-3" d="M929.38,607.16h3.46v3.42h-3.46Zm0,5.79h3.46v17.89h-3.46Z"/><path class="cls-3" d="M937.51,621.88c0-5.12,2.18-9.31,6.91-9.31s6.88,4.19,6.88,9.34-2.18,9.31-6.88,9.31-6.91-4.19-6.91-9.31Zm3.65.06c0,4.38,1.18,6,3.3,6s3.2-1.66,3.2-6.08-1.18-6.08-3.3-6.08-3.2,1.63-3.2,6.08Z"/><path class="cls-3" d="M955.59,613h3c0,.74,0,1.44,0,2.21a4.18,4.18,0,0,1,4.26-2.59c2.94,0,4.83,1.63,4.83,5.54v12.74h-3.46V619.22c0-1.44-.29-3.2-2.4-3.2-1.66,0-2.78,1-2.78,3.36v11.46h-3.46Z"/><path class="cls-3" d="M994.54,630.84h-3.17c0-1.06,0-1.82,0-2.59a3.92,3.92,0,0,1-3.94,3c-3.36,0-5.79-3.2-5.79-9.31,0-5.86,2.08-9.34,5.79-9.34a3.67,3.67,0,0,1,3.65,2.59c0-.7,0-1.41,0-2.21v-5.79h3.46Zm-9.41-8.93c0,4,1.09,5.86,3,5.86a2.44,2.44,0,0,0,2.21-1.22c.64-.9.74-2,.74-4.67s-.1-3.78-.74-4.64a2.4,2.4,0,0,0-2.21-1.25c-1.92,0-3,1.89-3,5.89Z"/><path class="cls-3" d="M1011.78,630.84h-3.17c0-.77,0-1.54,0-2.37-.64,1.89-2,2.75-4.16,2.75-2.91,0-4.8-1.63-4.8-5.54V613h3.46v11.62c0,1.44.29,3.23,2.4,3.23,1.63,0,2.78-1.06,2.78-3.39V613h3.46Z"/><path class="cls-3" d="M1026.7,613h3.17v2.34a3.92,3.92,0,0,1,3.9-2.72c3.36,0,5.79,3.2,5.79,9.34,0,5.82-2.08,9.31-5.79,9.31a3.8,3.8,0,0,1-3.62-2.43v8.06h-3.46Zm9.41,8.93c0-4-1.06-5.86-3-5.86a2.39,2.39,0,0,0-2.11,1.22c-.64.86-.83,2-.83,4.67s.19,3.78.83,4.64a2.36,2.36,0,0,0,2.11,1.25c2,0,3-1.89,3-5.89Z"/><path class="cls-3" d="M1043,621.88c0-5.12,2.18-9.31,6.91-9.31s6.88,4.19,6.88,9.34-2.18,9.31-6.88,9.31S1043,627,1043,621.91Zm3.65.06c0,4.38,1.18,6,3.3,6s3.2-1.66,3.2-6.08-1.18-6.08-3.29-6.08-3.2,1.63-3.2,6.08Z"/><path class="cls-3" d="M1067.94,618c0-1.7-.83-2.43-2.27-2.43a1.78,1.78,0,0,0-1.92,1.86c0,1.73,1.89,2,4,2.69s4.13,1.82,4.13,5.44a5.63,5.63,0,0,1-6,5.66c-3.36,0-5.89-1.89-6.18-5.92h3.46a2.67,2.67,0,0,0,2.78,2.78,2.09,2.09,0,0,0,2.24-2.3c0-1.79-1.86-2.21-4-2.91s-4.1-1.89-4.1-5.31c0-2.91,2.08-5,5.7-5s5.41,2,5.6,5.44Z"/><path class="cls-3" d="M1076.61,616.22h-2.14V613h2.14V608.7h3.46V613h2.11v3.26h-2.11v14.62h-3.46Z"/><path class="cls-3" d="M1088.42,623.1c0,2.5.87,4.9,3.17,4.9,1.5,0,2.53-1,2.88-2.72h3.42a7.28,7.28,0,0,1-2.43,4.7,6.41,6.41,0,0,1-3.87,1.25c-4.77,0-6.88-4.35-6.88-9.31,0-5.31,2.34-9.34,6.85-9.34a5.66,5.66,0,0,1,5.05,2.72c1.38,2.24,1.5,5.12,1.44,7.81Zm6.18-3c0-2-.74-4.67-3-4.67-1.89,0-3.14,1.76-3.14,4.67Z"/><path class="cls-3" d="M1106.18,630.84h-3.46v-4.22h3.46Z"/><path class="cls-3" d="M675.56,714.62h3.84L684,732.48l4.61-17.85h3.71l-6.62,23.68h-3.52Z"/><path class="cls-3" d="M693.58,729.34c0-5.12,2.18-9.31,6.91-9.31s6.88,4.19,6.88,9.34-2.18,9.31-6.88,9.31-6.91-4.19-6.91-9.31Zm3.65.06c0,4.38,1.18,6,3.3,6s3.2-1.66,3.2-6.08-1.18-6.08-3.3-6.08-3.2,1.63-3.2,6.08Z"/><path class="cls-3" d="M718.57,725.47c0-1.7-.83-2.43-2.27-2.43a1.78,1.78,0,0,0-1.92,1.86c0,1.73,1.89,2,4,2.69s4.13,1.82,4.13,5.44a5.63,5.63,0,0,1-6,5.66c-3.36,0-5.89-1.89-6.17-5.92h3.46a2.67,2.67,0,0,0,2.78,2.78,2.1,2.1,0,0,0,2.24-2.3c0-1.79-1.86-2.21-4-2.91s-4.1-1.89-4.1-5.31c0-2.91,2.08-5,5.7-5s5.41,2,5.6,5.44Z"/><path class="cls-3" d="M736.49,720.41h3.3c0,.8,0,1.57,0,2.4a3.73,3.73,0,0,1,4-2.78,3.94,3.94,0,0,1,2.78,1,3.51,3.51,0,0,1,.9,1.5,4,4,0,0,1,1.28-1.6,5.67,5.67,0,0,1,3.07-.86,4.8,4.8,0,0,1,4.1,2A7.2,7.2,0,0,1,757,726.2V738.3h-3.46V726.72a4.37,4.37,0,0,0-.42-2.24,2,2,0,0,0-1.92-1,2.42,2.42,0,0,0-2,.77,3.54,3.54,0,0,0-.71,2.37V738.3H745V726.75a4.57,4.57,0,0,0-.42-2.27,1.94,1.94,0,0,0-1.89-1,2.52,2.52,0,0,0-2,.74,3.72,3.72,0,0,0-.7,2.43V738.3h-3.49Z"/><path class="cls-3" d="M761.35,729.34c0-5.12,2.18-9.31,6.91-9.31s6.88,4.19,6.88,9.34-2.18,9.31-6.88,9.31-6.91-4.19-6.91-9.31Zm3.65.06c0,4.38,1.18,6,3.3,6s3.2-1.66,3.2-6.08-1.18-6.08-3.3-6.08-3.2,1.63-3.2,6.08Z"/><path class="cls-3" d="M780,723.68H777.9v-3.26H780v-4.26h3.46v4.26h2.11v3.26H783.5V738.3H780Z"/><path class="cls-3" d="M789.64,714.62h3.46V718h-3.46Zm0,5.79h3.46V738.3h-3.46Z"/><path class="cls-3" d="M805.29,738.3h-3.2l-5.28-17.89h3.52l3.3,12.77,3-12.77h3.49Z"/><path class="cls-3" d="M825.19,738.3H822c0-1,0-1.66,0-2.34a4,4,0,0,1-3.94,2.72c-3.36,0-5.79-3.2-5.79-9.31,0-5.86,2.08-9.34,5.79-9.34a3.91,3.91,0,0,1,3.94,2.81c0-.8,0-1.54,0-2.43h3.17Zm-9.41-8.89c0,4,1.09,5.86,3,5.86A2.41,2.41,0,0,0,821,734c.64-.86.74-2,.74-4.64s-.1-3.81-.74-4.67a2.44,2.44,0,0,0-2.21-1.22c-1.92,0-3,1.86-3,5.89Z"/><path class="cls-3" d="M831,723.68h-2.14v-3.26H831v-4.26h3.46v4.26h2.11v3.26h-2.11V738.3H831Z"/><path class="cls-3" d="M840.59,714.62H844V718h-3.46Zm0,5.79H844V738.3h-3.46Z"/><path class="cls-3" d="M848.71,729.34c0-5.12,2.18-9.31,6.91-9.31s6.88,4.19,6.88,9.34-2.18,9.31-6.88,9.31-6.91-4.19-6.91-9.31Zm3.65.06c0,4.38,1.18,6,3.3,6s3.2-1.66,3.2-6.08-1.18-6.08-3.3-6.08-3.2,1.63-3.2,6.08Z"/><path class="cls-3" d="M866.79,720.41h3c0,.74,0,1.44,0,2.21a4.18,4.18,0,0,1,4.26-2.59c2.94,0,4.83,1.63,4.83,5.54V738.3h-3.46V726.68c0-1.44-.29-3.2-2.4-3.2-1.66,0-2.78,1-2.78,3.36V738.3h-3.46Z"/><path class="cls-3" d="M891,725.47c0-1.7-.83-2.43-2.27-2.43a1.78,1.78,0,0,0-1.92,1.86c0,1.73,1.89,2,4,2.69s4.13,1.82,4.13,5.44a5.63,5.63,0,0,1-6,5.66c-3.36,0-5.89-1.89-6.17-5.92h3.46a2.67,2.67,0,0,0,2.78,2.78,2.1,2.1,0,0,0,2.24-2.3c0-1.79-1.86-2.21-4-2.91s-4.1-1.89-4.1-5.31c0-2.91,2.08-5,5.7-5s5.41,2,5.6,5.44Z"/><path class="cls-3" d="M902.73,738.3h-3.46v-4.22h3.46Z"/><path class="cls-3" d="M675.56,822h3.84L684,839.84,688.62,822h3.71l-6.62,23.68h-3.52Z"/><path class="cls-3" d="M693.58,836.7c0-5.12,2.18-9.31,6.91-9.31s6.88,4.19,6.88,9.34-2.18,9.31-6.88,9.31-6.91-4.19-6.91-9.31Zm3.65.06c0,4.38,1.18,6,3.3,6s3.2-1.66,3.2-6.08-1.18-6.08-3.3-6.08-3.2,1.63-3.2,6.08Z"/><path class="cls-3" d="M718.57,832.83c0-1.7-.83-2.43-2.27-2.43a1.78,1.78,0,0,0-1.92,1.86c0,1.73,1.89,2,4,2.69s4.13,1.82,4.13,5.44a5.63,5.63,0,0,1-6,5.66c-3.36,0-5.89-1.89-6.17-5.92h3.46a2.67,2.67,0,0,0,2.78,2.78,2.1,2.1,0,0,0,2.24-2.3c0-1.79-1.86-2.21-4-2.91s-4.1-1.89-4.1-5.31c0-2.91,2.08-5,5.7-5s5.41,2,5.6,5.44Z"/><path class="cls-3" d="M748,839.13c-.13,3.65-2,6.91-5.79,6.91-4.45,0-6.91-3.74-6.91-9.31,0-5.92,2.69-9.34,6.88-9.34,3.81,0,5.73,3.23,5.79,7h-3.58c-.13-2.69-1.12-3.71-2.46-3.71a2.24,2.24,0,0,0-2.18,1.41,10.21,10.21,0,0,0-.8,4.67c0,4.29,1.09,6.08,3,6.08,1.6,0,2.34-1.57,2.46-3.68Z"/><path class="cls-3" d="M751,836.7c0-5.12,2.18-9.31,6.91-9.31s6.88,4.19,6.88,9.34-2.18,9.31-6.88,9.31-6.91-4.19-6.91-9.31Zm3.65.06c0,4.38,1.18,6,3.3,6s3.2-1.66,3.2-6.08-1.18-6.08-3.3-6.08-3.2,1.63-3.2,6.08Z"/><path class="cls-3" d="M769,827.78h3c0,.74,0,1.44,0,2.21a4.18,4.18,0,0,1,4.26-2.59c2.94,0,4.83,1.63,4.83,5.54v12.73h-3.46V834c0-1.44-.29-3.2-2.4-3.2-1.66,0-2.78,1-2.78,3.36v11.46H769Z"/><path class="cls-3" d="M798.25,845.66h-3.17c0-1.06,0-1.82,0-2.59a3.92,3.92,0,0,1-3.94,3c-3.36,0-5.79-3.2-5.79-9.31,0-5.86,2.08-9.34,5.79-9.34a3.67,3.67,0,0,1,3.65,2.59c0-.7,0-1.41,0-2.21V822h3.46Zm-9.41-8.93c0,4,1.09,5.86,3,5.86a2.44,2.44,0,0,0,2.21-1.21c.64-.9.74-2,.74-4.67s-.1-3.78-.74-4.64a2.4,2.4,0,0,0-2.21-1.25c-1.92,0-3,1.89-3,5.89Z"/><path class="cls-3" d="M803.82,822h3.46v3.42h-3.46Zm0,5.79h3.46v17.89h-3.46Z"/><path class="cls-3" d="M813.45,831H811.3v-3.26h2.14v-4.26h3.46v4.26H819V831H816.9v14.62h-3.46Z"/><path class="cls-3" d="M823,822h3.46v3.42H823Zm0,5.79h3.46v17.89H823Z"/><path class="cls-3" d="M831.18,836.7c0-5.12,2.18-9.31,6.91-9.31s6.88,4.19,6.88,9.34-2.18,9.31-6.88,9.31-6.91-4.19-6.91-9.31Zm3.65.06c0,4.38,1.18,6,3.3,6s3.2-1.66,3.2-6.08-1.18-6.08-3.3-6.08-3.2,1.63-3.2,6.08Z"/><path class="cls-3" d="M849.26,827.78h3c0,.74,0,1.44,0,2.21a4.18,4.18,0,0,1,4.26-2.59c2.94,0,4.83,1.63,4.83,5.54v12.73H857.9V834c0-1.44-.29-3.2-2.4-3.2-1.66,0-2.78,1-2.78,3.36v11.46h-3.46Z"/><path class="cls-3" d="M873.42,832.83c0-1.7-.83-2.43-2.27-2.43a1.78,1.78,0,0,0-1.92,1.86c0,1.73,1.89,2,4,2.69s4.13,1.82,4.13,5.44a5.63,5.63,0,0,1-6,5.66c-3.36,0-5.89-1.89-6.17-5.92h3.46a2.67,2.67,0,0,0,2.78,2.78,2.1,2.1,0,0,0,2.24-2.3c0-1.79-1.86-2.21-4-2.91s-4.1-1.89-4.1-5.31c0-2.91,2.08-5,5.7-5s5.41,2,5.6,5.44Z"/><path class="cls-3" d="M899.88,825.44c-3.46,2.4-5.66,6.85-5.66,11.9a14.51,14.51,0,0,0,5.66,11.93v3.62c-4.7-2.37-8.86-8.16-8.86-15.55s4.19-13.28,8.86-15.52Z"/><path class="cls-3" d="M908.3,831v14.62h-3.46V831h-1.76v-3.26h1.76v-1c0-5,4.19-5.25,6.08-5.25v3c-1.22,0-2.62.32-2.62,2.59v.61h7.94v17.89h-3.49V831Zm4.45-5.63V822h3.49v3.42Z"/><path class="cls-3" d="M921.73,827.78h3c0,.74,0,1.44,0,2.21a4.18,4.18,0,0,1,4.26-2.59c2.94,0,4.83,1.63,4.83,5.54v12.73h-3.46V834c0-1.44-.29-3.2-2.4-3.2-1.66,0-2.78,1-2.78,3.36v11.46h-3.46Z"/><path class="cls-3" d="M951,845.66h-3.17c0-1,0-1.66,0-2.34a4,4,0,0,1-3.94,2.72c-3.36,0-5.79-3.2-5.79-9.31,0-5.86,2.08-9.34,5.79-9.34a3.91,3.91,0,0,1,3.94,2.82c0-.8,0-1.54,0-2.43H951Zm-9.41-8.9c0,4,1.09,5.86,3,5.86a2.41,2.41,0,0,0,2.21-1.25c.64-.87.74-2,.74-4.64s-.1-3.81-.74-4.67a2.44,2.44,0,0,0-2.21-1.21c-1.92,0-3,1.86-3,5.89Z"/><path class="cls-3" d="M956.13,827.78h3c0,.74,0,1.44,0,2.21a4.18,4.18,0,0,1,4.26-2.59c2.94,0,4.83,1.63,4.83,5.54v12.73h-3.46V834c0-1.44-.29-3.2-2.4-3.2-1.66,0-2.78,1-2.78,3.36v11.46h-3.46Z"/><path class="cls-3" d="M985.06,839.13c-.13,3.65-2,6.91-5.79,6.91-4.45,0-6.91-3.74-6.91-9.31,0-5.92,2.69-9.34,6.88-9.34,3.81,0,5.73,3.23,5.79,7h-3.58c-.13-2.69-1.12-3.71-2.46-3.71a2.24,2.24,0,0,0-2.18,1.41,10.19,10.19,0,0,0-.8,4.67c0,4.29,1.09,6.08,3,6.08,1.6,0,2.34-1.57,2.46-3.68Z"/><path class="cls-3" d="M989.25,822h3.46v3.42h-3.46Zm0,5.79h3.46v17.89h-3.46Z"/><path class="cls-3" d="M1001.22,837.92c0,2.5.86,4.9,3.17,4.9,1.5,0,2.53-1,2.88-2.72h3.42a7.28,7.28,0,0,1-2.43,4.7,6.41,6.41,0,0,1-3.87,1.25c-4.77,0-6.88-4.35-6.88-9.31,0-5.31,2.34-9.34,6.85-9.34a5.66,5.66,0,0,1,5.06,2.72c1.38,2.24,1.5,5.12,1.44,7.81Zm6.21-13.66-1.22,2.27L998.89,823l1.34-2.78Zm0,10.69c0-2-.74-4.67-3-4.67-1.89,0-3.14,1.76-3.14,4.67Z"/><path class="cls-3" d="M1015.27,827.78h3.17c0,1.09,0,2,0,2.88.74-2.72,2.59-3.26,4.64-3.26v4.19a2.59,2.59,0,0,0-1.47-.42c-1.57,0-2.85,1.54-2.85,4.38v10.11h-3.46Z"/><path class="cls-3" d="M1029,837.92c0,2.5.87,4.9,3.17,4.9,1.5,0,2.53-1,2.88-2.72h3.42a7.29,7.29,0,0,1-2.43,4.7,6.41,6.41,0,0,1-3.87,1.25c-4.77,0-6.88-4.35-6.88-9.31,0-5.31,2.34-9.34,6.85-9.34a5.66,5.66,0,0,1,5.05,2.72c1.38,2.24,1.5,5.12,1.44,7.81Zm6.18-3c0-2-.74-4.67-3-4.67-1.89,0-3.14,1.76-3.14,4.67Z"/><path class="cls-3" d="M1050,832.83c0-1.7-.83-2.43-2.27-2.43a1.78,1.78,0,0,0-1.92,1.86c0,1.73,1.89,2,4,2.69s4.13,1.82,4.13,5.44a5.63,5.63,0,0,1-6,5.66c-3.36,0-5.89-1.89-6.18-5.92h3.46a2.67,2.67,0,0,0,2.78,2.78,2.1,2.1,0,0,0,2.24-2.3c0-1.79-1.86-2.21-4-2.91s-4.1-1.89-4.1-5.31c0-2.91,2.08-5,5.7-5s5.41,2,5.6,5.44Z"/><path class="cls-3" d="M1061.77,845.66h-3.46v-4.22h3.46Z"/><path class="cls-3" d="M1071.69,845.66h-3.46v-4.22h3.46Z"/><path class="cls-3" d="M1081.6,845.66h-3.46v-4.22h3.46Z"/><path class="cls-3" d="M1086.6,849.28c3.46-2.4,5.66-6.88,5.66-11.9a14.51,14.51,0,0,0-5.66-11.94v-3.62c4.7,2.37,8.89,8.13,8.89,15.55s-4.22,13.28-8.89,15.52Z"/></g><g id="etapes_jeu" data-name="etapes jeu"><line class="cls-4" x1="555.81" y1="239.15" x2="556.31" y2="239.15"/><line class="cls-5" x1="571.26" y1="239.15" x2="1361.42" y2="239.15"/><line class="cls-4" x1="1368.89" y1="239.15" x2="1369.39" y2="239.15"/><circle class="cls-6" cx="689.29" cy="239.15" r="19.32"/><path class="cls-7" d="M690.85,226.72v20.37h3.21v3.38h-9.84v-3.38h3.21v-17h-3.21v-3.38Z"/><path class="cls-8" d="M689.29,219.83h-.15v38.63h.15a19.32,19.32,0,1,0,0-38.63Z"/><circle class="cls-6" cx="825.95" cy="239.15" r="19.32"/><path class="cls-7" d="M820.88,245.37a6.64,6.64,0,0,1,3.19-5.49q3.21-2.29,3.22-3.88v-4.66q0-1.61-1.48-1.61h0q-1.49,0-1.49,1.61v3.18h-3.42v-3.18q0-5,4.91-5t4.92,5v4.74a6.71,6.71,0,0,1-3.21,5.57q-3.21,2.29-3.21,4v1.43h6.41v3.38h-9.84Z"/><path class="cls-8" d="M825.95,219.83h-.15v38.63h.15a19.32,19.32,0,1,0,0-38.63Z"/><circle class="cls-6" cx="962.6" cy="239.15" r="19.32"/><path class="cls-7" d="M963.94,231.33q0-1.6-1.49-1.61h0q-1.48,0-1.48,1.61v3.18h-3.42v-3.18q0-5,4.91-5t4.92,5v4.13a3.41,3.41,0,0,1-1.88,3.3,3.41,3.41,0,0,1,1.88,3.3v3.79q0,5-4.92,5t-4.91-5v-3.18H961v3.18q0,1.61,1.48,1.61h0q1.49,0,1.49-1.61v-3.79q0-1.29-.54-1.54a2.47,2.47,0,0,0-.9-.12h-1.13V237h1.39a1.45,1.45,0,0,0,.73-.14q.45-.25.45-1.45Z"/><path class="cls-8" d="M962.6,219.83h-.15v38.63h.15a19.32,19.32,0,1,0,0-38.63Z"/><circle class="cls-6" cx="1099.26" cy="239.15" r="19.32"/><path class="cls-7" d="M1103.61,226.72v15.57h1.32v3.38h-1.32v4.79h-3.42v-4.79h-6.95v-3l6-15.95Zm-7,15.57h3.57V232.2Z"/><path class="cls-8" d="M1099.26,219.83h-.15v38.63h.15a19.32,19.32,0,1,0,0-38.63Z"/><circle class="cls-6" cx="1235.91" cy="239.15" r="39.31"/><path class="cls-7" d="M1238.65,239.07q0-2.56-1.08-3a4.86,4.86,0,0,0-1.9-.27l-.67,0q-2.12.1-2.36,1.9l-.07,1.95h-7l1-25.78h19v6.87h-12.29l-.49,10.39a6.06,6.06,0,0,1,4.83-2,8,8,0,0,1,.86,0,7.26,7.26,0,0,1,5.54,2.93q1.55,2.12,1.55,7v13.72q0,10.15-10,10.15t-10-10.15v-5.71h7v5.71q0,3.28,3,3.28h0q3,0,3-3.28Z"/><path class="cls-8" d="M1235.91,199.84h-.31v78.61h.31a39.31,39.31,0,1,0,0-78.62Z"/></g></g></svg>