<svg xmlns="http://www.w3.org/2000/svg" viewBox="0 0 295.61 104.76"><defs><style>.cls-1{isolation:isolate;}.cls-2{fill:#7a5d00;opacity:0.22;}.cls-3{fill:#fefeff;}.cls-4{fill:#d8d8d8;mix-blend-mode:multiply;}</style></defs><title>game1b_item7</title><g class="cls-1"><g id="Calque_2" data-name="Calque 2"><g id="Calque_7" data-name="Calque 7"><polygon class="cls-2" points="267.36 28.74 12.3 6 0 91.24 286.99 104.76 288.79 47.04 267.36 28.74"/><polygon class="cls-3" points="261.68 18.69 19.7 0 7.4 85.24 294.39 98.76 295.44 49.22 261.68 18.69"/><path d="M53.09,37.59l3.1.17,2,10.81L61.39,38l3,.16L59.3,53.49l-2.81-.15Z"/><path d="M64.94,46c.26-4.84,2.32-7.93,6.14-7.72s5.53,3.5,5.27,8.36S74,54.58,70.21,54.37,64.68,50.87,64.94,46Zm3.27.22c-.2,3.71.52,5.14,2.16,5.23s2.51-1.25,2.71-5-.52-5.16-2.16-5.25-2.51,1.25-2.71,5Z"/><path d="M81.33,49.78c0,1.62.46,2.4,1.84,2.48a1.68,1.68,0,0,0,1.9-1.75c.08-1.4-1.58-1.83-3.23-2.57s-3.27-1.82-3.12-4.44a4.46,4.46,0,0,1,5-4.56c2.87.16,4.39,1.63,4.69,4.71l-3.1-.17a1.65,1.65,0,0,0-1.6-1.9A1.59,1.59,0,0,0,82,43.19c-.08,1.47,1.58,1.83,3.22,2.59s3.26,1.9,3.1,4.86S85.91,55.22,83,55.06c-3.54-.19-5-2.18-4.81-5.45Z"/><path d="M108,50.08c-.21,3.54-2.31,6.2-6,6-3.4-.18-5.48-2.92-5.18-8.35s2.66-7.93,6.05-7.75c3.75.2,5.51,3.14,5.27,6.74l-3.27-.18c.07-2.77-.7-3.47-1.91-3.53-1.47-.08-2.67,1.18-2.87,4.89s.86,5.09,2.33,5.17c1.66.09,2.1-1.53,2.27-3.18Z"/><path d="M110.15,48.43c.26-4.84,2.32-7.93,6.14-7.72s5.53,3.49,5.27,8.36-2.32,7.95-6.14,7.74-5.53-3.5-5.27-8.36Zm3.27.22c-.2,3.71.52,5.14,2.16,5.23s2.51-1.25,2.71-5-.52-5.16-2.16-5.25-2.51,1.25-2.71,5Z"/><path d="M123.48,49.15c.26-4.84,2.32-7.93,6.14-7.72s5.53,3.5,5.27,8.36-2.32,7.95-6.14,7.74-5.53-3.49-5.27-8.36Zm3.27.22c-.2,3.71.52,5.14,2.16,5.23s2.51-1.25,2.71-5-.52-5.16-2.16-5.25-2.51,1.25-2.71,5Z"/><path d="M137.87,42.17l4,.22c2.2.12,3.58.76,4.2,1.59a5.33,5.33,0,0,1,1.06,3.65,5.73,5.73,0,0,1-.59,2.32,4.18,4.18,0,0,1-1.93,1.94l2.6,6.34L143.68,58l-3-8.07c.36,0,.55,0,.8,0a2.47,2.47,0,0,0,1.6-.5,2.41,2.41,0,0,0,.79-1.74,2.24,2.24,0,0,0-.63-1.93,2.43,2.43,0,0,0-1.61-.51l-.73,0-.68,12.58L137,57.69Z"/><path d="M150,42.83l4.47.24a5.53,5.53,0,0,1,4.68,2.54,9.47,9.47,0,0,1,1.23,5.55c-.23,4.24-2.52,7.64-6.65,7.42l-4.57-.25Zm2.51,12.75,1.38.07c2.58.14,3.13-3,3.22-4.66a7.25,7.25,0,0,0-.52-3.56A2.44,2.44,0,0,0,154.34,46l-1.28-.07Z"/><path d="M162.34,51.25c.26-4.84,2.32-7.93,6.14-7.72s5.53,3.5,5.27,8.36-2.32,7.95-6.14,7.74-5.53-3.49-5.27-8.36Zm3.27.22c-.2,3.71.52,5.14,2.16,5.23s2.51-1.25,2.71-5-.52-5.16-2.16-5.25-2.51,1.25-2.71,5Z"/><path d="M183.51,53.79l.49-9.12,2.81.15L186,60.33l-2.85-.15L179.3,50l-.54,9.94-2.81-.15.84-15.51,3.23.17Z"/><path d="M196.84,54.51l.49-9.12,2.81.15-.84,15.51-2.85-.15-3.82-10.17-.54,9.94-2.81-.15L190.12,45l3.23.17Z"/><path d="M203.54,45.72l7.55.41-.16,2.94-4.36-.24-.16,3,4.36.24L210.61,55l-4.36-.24-.2,3.73,4.36.24-.16,2.94-7.55-.41Zm6.78-4.39.95,2.3-5,1.9-.87-1.88Z"/><path d="M214.55,46.32l7.55.41-.16,2.94-4.36-.24-.16,3,4.36.24-.16,2.94-4.36-.24-.2,3.73,4.36.24-.16,2.94-7.55-.41Z"/><path d="M227.42,57.67c0,1.62.46,2.4,1.84,2.48a1.68,1.68,0,0,0,1.9-1.75c.08-1.4-1.58-1.83-3.23-2.57s-3.27-1.82-3.12-4.44a4.46,4.46,0,0,1,5-4.56c2.87.16,4.39,1.63,4.69,4.71l-3.1-.17a1.65,1.65,0,0,0-1.6-1.9,1.59,1.59,0,0,0-1.71,1.61c-.08,1.47,1.58,1.83,3.22,2.59s3.26,1.9,3.1,4.86S232,63.11,229,63c-3.54-.19-5-2.18-4.81-5.45Z"/><polygon class="cls-4" points="295.61 49.24 261.85 18.71 262.09 45.82 295.61 49.24"/></g></g></g></svg>