<svg xmlns="http://www.w3.org/2000/svg" viewBox="0 0 235.97 110.32"><defs><style>.cls-1{isolation:isolate;}.cls-2{fill:#7a5d00;opacity:0.22;}.cls-3{fill:#fefeff;}.cls-4{fill:#d8d8d8;mix-blend-mode:multiply;}</style></defs><title>game1b_item9</title><g class="cls-1"><g id="Calque_2" data-name="Calque 2"><g id="Calque_7" data-name="Calque 7"><polygon class="cls-2" points="196.27 110.32 0 92.54 4.12 6.56 224.92 38.68 216.8 95.82 196.27 110.32"/><polygon class="cls-3" points="195.96 105.58 11.05 85.98 15.17 0 235.97 32.12 228.6 81.08 195.96 105.58"/><path d="M46.25,40.7l3.17.36L48,53.57l4,.46L51.72,57l-7.22-.82Z"/><path d="M56,41.81l7.51.85-.33,2.92-4.34-.49-.34,3,4.34.49-.33,2.92L58.21,51l-.42,3.71,4.34.49L61.8,58.1l-7.51-.85Z"/><path d="M73.15,43.75l4.44.5a5.53,5.53,0,0,1,4.52,2.82A9.47,9.47,0,0,1,83,52.68c-.48,4.21-3,7.48-7.07,7l-4.55-.52ZM74.9,56.62l1.38.16c2.57.29,3.3-2.84,3.49-4.46a7.25,7.25,0,0,0-.31-3.59,2.44,2.44,0,0,0-2.19-1.56L76,47Z"/><path d="M86.59,45.27l7.51.85L93.77,49l-4.34-.49-.34,3,4.34.49-.33,2.92-4.34-.49-.42,3.71,4.34.49-.33,2.92-7.51-.85Z"/><path d="M98.76,57.36c-.14,1.61.32,2.42,1.69,2.58a1.68,1.68,0,0,0,2-1.63c.16-1.4-1.47-1.92-3.07-2.76s-3.15-2-2.86-4.61a4.46,4.46,0,0,1,5.28-4.26c2.86.32,4.29,1.88,4.4,5l-3.09-.35a1.65,1.65,0,0,0-1.49-2,1.59,1.59,0,0,0-1.8,1.51c-.17,1.46,1.47,1.92,3.07,2.78s3.14,2.09,2.81,5-2.7,4.43-5.64,4.09c-3.53-.4-4.85-2.47-4.49-5.73Z"/><path d="M110.92,51l-2.59-.29.33-2.92,8.34.95-.33,2.92-2.59-.29-1.42,12.52-3.17-.36Z"/><path d="M119.3,49l3.17.36-1.75,15.44-3.17-.36Z"/><path d="M131.84,59.59l1-9.08,2.8.32-1.75,15.44L131.07,66l-3.22-10.38-1.12,9.89-2.8-.32,1.75-15.44,3.21.36Z"/><path d="M139.09,66.86l-3.21-.36,6-15,2.92.33,2.63,15.94-3.21-.36-.46-3-3.55-.4Zm3.74-10.63-1.55,4.94,2,.22Z"/><path d="M150.86,55.52l-2.59-.29.33-2.92,8.34.95-.33,2.92L154,55.88l-1.42,12.52L149.44,68Z"/><path d="M157.87,69l-3.21-.36,6-15,2.92.33,2.63,15.94L163,69.57l-.46-3-3.55-.4Zm3.74-10.63-1.55,4.94,2,.22Z"/><path d="M169.8,54.71l3.17.36L171.22,70.5,168,70.14Z"/><path d="M176.12,55.42l4,.45c2.19.25,3.52,1,4.1,1.84a5.33,5.33,0,0,1,.85,3.71,5.74,5.74,0,0,1-.72,2.28,4.18,4.18,0,0,1-2,1.82L184.53,72l-3.55-.4-2.51-8.23c.35,0,.54.06.8.07A2.47,2.47,0,0,0,180.9,63a2.41,2.41,0,0,0,.89-1.7,2.24,2.24,0,0,0-.52-2,2.43,2.43,0,0,0-1.58-.6L179,58.7l-1.42,12.52-3.17-.36Z"/><path d="M188.39,56.81l7.51.85-.33,2.92-4.34-.49-.34,3,4.34.49-.33,2.92L190.56,66l-.42,3.71,4.34.49-.33,2.92-7.51-.85Z"/><polygon class="cls-4" points="228.74 81.09 196.1 105.6 200.8 78.93 228.74 81.09"/></g></g></g></svg>