<svg xmlns="http://www.w3.org/2000/svg" viewBox="0 0 281.56 103.23"><defs><style>.cls-1{isolation:isolate;}.cls-2{fill:#7a5d00;opacity:0.22;}.cls-3{fill:#fefeff;}.cls-4{fill:#d8d8d8;mix-blend-mode:multiply;}</style></defs><title>game1b_item2</title><g class="cls-1"><g id="Calque_2" data-name="Calque 2"><g id="Calque_7" data-name="Calque 7"><polygon class="cls-2" points="254.6 9.35 0 21.99 17.12 103.23 274.88 87.32 270.21 29.77 254.6 9.35"/><polygon class="cls-3" points="247.82 0 6.69 15.2 23.81 96.44 281.56 80.53 277.07 31.19 247.82 0"/><path d="M58.75,47.76l3.19-.19.73,12.58,4.07-.24.17,2.93-7.25.42Z"/><path d="M71.29,62.59l-3.23.19L71.39,47l2.93-.17,5.3,15.26-3.23.19-1-2.91-3.56.21Zm1.88-11.11-.69,5.13,2-.11Z"/><path d="M86.95,46.12l4.46-.26a5.53,5.53,0,0,1,4.93,2,9.47,9.47,0,0,1,1.85,5.38c.25,4.23-1.65,7.88-5.78,8.12l-4.57.27Zm3.92,12.39,1.38-.08c2.58-.15,2.77-3.36,2.68-5A7.24,7.24,0,0,0,94,50a2.44,2.44,0,0,0-2.42-1.16l-1.28.07Z"/><path d="M102.32,60.79,99.09,61l3.33-15.76,2.93-.17,5.3,15.26-3.23.19-1-2.91-3.56.21Zm1.88-11.11-.69,5.13,2-.11Z"/><path d="M112,47.61l-2.6.15-.17-2.93,8.38-.49.17,2.93-2.6.15L115.9,60l-3.19.18Z"/><path d="M120.05,44.2l7.55-.44.17,2.93-4.36.25.17,3,4.36-.25.17,2.93-4.36.25.22,3.73,4.36-.25.17,2.93-7.55.44Z"/><path d="M137.41,43.19l7.55-.44.17,2.93-4.36.25.17,3,4.36-.25.17,2.93-4.36.25.22,3.73,4.36-.25.17,2.93-7.55.44Z"/><path d="M150.18,45.4l-2.6.15-.17-2.93,8.38-.49.17,2.93-2.6.15.73,12.58-3.19.19Z"/><path d="M164.6,41.62l3.19-.18L168.52,54l4.07-.24.17,2.93-7.25.42Z"/><path d="M174.43,41l7.55-.44.17,2.93-4.36.25.17,3,4.36-.25.17,2.93-4.36.25.22,3.73,4.36-.25.17,2.93-7.55.44Z"/><path d="M191.79,40l3.19-.18.73,12.58,4.07-.24.17,2.93-7.25.42Z"/><path d="M201.48,39.48l3.19-.19.9,15.51-3.19.19Z"/><path d="M208,39.1l7.55-.44.17,2.93-4.36.25.17,3,4.36-.25.17,2.93-4.36.25.22,3.73,4.36-.25.17,2.93-7.55.44Z"/><path d="M222,38.29l.61,10.56a2.54,2.54,0,0,0,.54,1.67,1.75,1.75,0,0,0,1.52.46,1.83,1.83,0,0,0,1.48-.63,2.67,2.67,0,0,0,.32-1.72l-.61-10.56,3.19-.19L229.67,49a4.64,4.64,0,0,1-1,3.44,6.53,6.53,0,0,1-7.92.46,4.73,4.73,0,0,1-1.35-3.31l-.64-11.09Z"/><polygon class="cls-4" points="277.24 31.18 247.99 0 243.55 31.54 277.24 31.18"/></g></g></g></svg>