<svg xmlns="http://www.w3.org/2000/svg" viewBox="0 0 659.25 77.78"><defs><style>.cls-1{isolation:isolate;}.cls-2{fill:#fff;}.cls-3{fill:#4e96b3;stroke:#4e96b3;stroke-miterlimit:10;stroke-width:5px;mix-blend-mode:multiply;}</style></defs><title>game1b_item_zone5_txt</title><g class="cls-1"><g id="Calque_2" data-name="Calque 2"><g id="Calque_9" data-name="Calque 9"><rect class="cls-2" x="298.22" width="361.03" height="77.78" rx="6.31" ry="6.31" transform="translate(957.47 77.78) rotate(180)"/></g><g id="Calque_13" data-name="Calque 13"><circle class="cls-3" cx="13.75" cy="16.06" r="11.25"/><path class="cls-2" d="M17.18,8.77V11H12.43l-.11,2.56a2.07,2.07,0,0,1,2-.94c2,0,3.56,1.55,3.56,4.56,0,3.19-1.44,5.1-4.39,5.1-2.7,0-3.87-1.6-4-4.14h2.74a1.48,1.48,0,0,0,1.33,1.62c1.12,0,1.55-.72,1.55-2.39s-.58-2.21-1.44-2.21a1.36,1.36,0,0,0-1.3,1.15H9.66L10,8.77Z"/><path d="M37.7,8.77h2.74v10.8h3.49v2.52H37.7Z"/><path d="M46.41,8.77H52.9v2.52H49.15v2.56H52.9v2.52H49.15v3.21H52.9v2.52H46.41Z"/><path d="M61.71,8.77h3.83a4.74,4.74,0,0,1,4.12,2A8.12,8.12,0,0,1,71,15.43c0,3.64-1.8,6.66-5.35,6.66H61.71Zm2.74,10.8h1.19c2.21,0,2.54-2.74,2.54-4.14a6.22,6.22,0,0,0-.61-3,2.09,2.09,0,0,0-2-1.12h-1.1Z"/><path d="M73.57,8.77h6.48v2.52H76.31v2.56h3.75v2.52H76.31v3.21h3.75v2.52H73.57Z"/><path d="M85.38,17.89c0,1.39.5,2,1.69,2a1.44,1.44,0,0,0,1.55-1.58c0-1.21-1.44-1.49-2.88-2.05s-2.88-1.4-2.88-3.65A3.83,3.83,0,0,1,86.95,8.5c2.47,0,3.84,1.19,4.23,3.82H88.52a1.41,1.41,0,0,0-1.46-1.55,1.36,1.36,0,0,0-1.39,1.46c0,1.26,1.44,1.49,2.88,2.07a3.92,3.92,0,0,1,2.88,4c0,2.5-1.87,4-4.41,4-3,0-4.37-1.64-4.37-4.45Z"/><path d="M95.39,11.29H93.16V8.77h7.2v2.52H98.13v10.8H95.39Z"/><path d="M102.61,8.77h2.74V22.09h-2.74Z"/><path d="M114.58,16.6V8.77H117V22.09h-2.45l-3.75-8.53v8.53h-2.41V8.77h2.77Z"/><path d="M121.73,22.09H119l3.64-13.32h2.52l3.78,13.32h-2.77l-.68-2.54h-3.06Zm2.16-9.42L123,17h1.69Z"/><path d="M130.92,11.29h-2.23V8.77h7.2v2.52h-2.23v10.8h-2.74Z"/><path d="M138.46,22.09h-2.77l3.64-13.32h2.52l3.78,13.32h-2.77l-.68-2.54h-3.06Zm2.16-9.42L139.78,17h1.69Z"/><path d="M147.52,8.77h2.74V22.09h-2.74Z"/><path d="M153.24,8.77h3.46c1.89,0,3.1.49,3.67,1.17A4.57,4.57,0,0,1,161.45,13a4.93,4.93,0,0,1-.4,2,3.6,3.6,0,0,1-1.57,1.75L162,22.09h-3.06L156,15.32c.31,0,.47,0,.68,0a2.11,2.11,0,0,0,1.35-.5,2.07,2.07,0,0,0,.59-1.53,1.92,1.92,0,0,0-.63-1.62,2.09,2.09,0,0,0-1.4-.36H156v10.8h-2.74Z"/><path d="M164.1,8.77h6.48v2.52h-3.75v2.56h3.75v2.52h-3.75v3.21h3.75v2.52H164.1Z"/><path d="M182,15.93h-2.41V13.27H182Zm0,6.16h-2.41V19.42H182Z"/><path d="M190.27,8.77h2.54c2,0,2.79.34,3.29.79a4,4,0,0,1,1.39,3.22,4.53,4.53,0,0,1-.59,2.41,3.23,3.23,0,0,1-2.3,1.53l2.67,5.37h-1.51l-3-6.19a3.91,3.91,0,0,0,.47,0,2.94,2.94,0,0,0,2.09-.72,3,3,0,0,0,.77-2.25,3,3,0,0,0-1-2.45,4,4,0,0,0-2.32-.45h-1.15V22.09h-1.35Z"/><path d="M200.78,17.55c0,2,.83,3.64,2.48,3.64a2.23,2.23,0,0,0,2.2-1.94h1.19a3.92,3.92,0,0,1-1.22,2.3,3.28,3.28,0,0,1-2.16.77c-2.7,0-3.74-2.59-3.74-5.11,0-3,1.4-5.15,3.71-5.15a3,3,0,0,1,2.63,1.39,7.13,7.13,0,0,1,.9,4.11Zm4.75-1.06c0-2-.88-3.4-2.36-3.4s-2.36,1.46-2.39,3.4Z"/><path d="M209.33,12.29h1.08c0,.56,0,1.06,0,1.67a2.79,2.79,0,0,1,2.77-1.91c1.67,0,2.81,1,2.81,3.35v6.68h-1.21v-6.3c0-1-.14-2.54-1.87-2.54-1.42,0-2.34,1-2.34,3v5.8h-1.21Z"/><path d="M222.94,14.83c0-1.24-.65-1.69-1.58-1.69a1.38,1.38,0,0,0-1.42,1.46c0,1.1.92,1.49,2.11,1.85a2.86,2.86,0,0,1,2.34,3,2.81,2.81,0,0,1-2.92,2.92,2.9,2.9,0,0,1-3.06-3.12h1.19a1.79,1.79,0,0,0,1.87,2,1.57,1.57,0,0,0,1.66-1.71c0-1.19-.83-1.66-2.14-2.07s-2.3-1-2.3-2.79a2.73,2.73,0,0,1,5.46.2Z"/><path d="M227.74,17.55c0,2,.83,3.64,2.49,3.64a2.23,2.23,0,0,0,2.2-1.94h1.19a3.92,3.92,0,0,1-1.22,2.3,3.27,3.27,0,0,1-2.16.77c-2.7,0-3.75-2.59-3.75-5.11,0-3,1.4-5.15,3.71-5.15a3,3,0,0,1,2.63,1.39,7.11,7.11,0,0,1,.9,4.11Zm4.75-1.06c0-2-.88-3.4-2.36-3.4s-2.36,1.46-2.4,3.4Z"/><path d="M236.44,8.77h1.21v1.76h-1.21Zm0,3.53h1.21v9.79h-1.21Z"/><path d="M247.33,21.91a4.3,4.3,0,0,1-.83,2.94,3.27,3.27,0,0,1-2.63,1.08,3.2,3.2,0,0,1-3.29-3.08h1.22a2.12,2.12,0,0,0,.56,1.37,2.17,2.17,0,0,0,1.57.59c1,0,2.21-.47,2.21-2.81,0-.47,0-1.1,0-1.75a2.55,2.55,0,0,1-2.52,2.07c-2.11,0-3.28-2.12-3.28-5.11s1.17-5.15,3.28-5.15c1.15,0,2.05.54,2.65,2.12,0-.59,0-1.15,0-1.89h1.06Zm-5.76-4.7c0,2.21.79,3.93,2.29,3.93a1.93,1.93,0,0,0,1.71-1.08,5.46,5.46,0,0,0,.56-2.86,5.38,5.38,0,0,0-.56-2.86,1.93,1.93,0,0,0-1.71-1.08c-1.49,0-2.29,1.71-2.29,3.94Z"/><path d="M250.42,12.29h1.08c0,.56,0,1.06,0,1.67a2.79,2.79,0,0,1,2.77-1.91c1.67,0,2.81,1,2.81,3.35v6.68h-1.21v-6.3c0-1-.14-2.54-1.87-2.54-1.42,0-2.34,1-2.34,3v5.8h-1.21Z"/><path d="M260.86,17.55c0,2,.83,3.64,2.48,3.64a2.23,2.23,0,0,0,2.2-1.94h1.19a3.91,3.91,0,0,1-1.22,2.3,3.27,3.27,0,0,1-2.16.77c-2.7,0-3.75-2.59-3.75-5.11,0-3,1.4-5.15,3.71-5.15a3,3,0,0,1,2.63,1.39,7.12,7.12,0,0,1,.9,4.11Zm4.75-1.06c0-2-.88-3.4-2.36-3.4s-2.36,1.46-2.39,3.4Z"/><path d="M268.59,21l4.7-7.54h-4.39V12.29h5.83v1.15L270,21h4.84v1.13h-6.3Z"/><path d="M280.36,16.45v1.21h-3.82V16.45Z"/><path d="M285.7,22.09H284.5l-3-9.79h1.22l2.32,8.17,2.25-8.17h1.21Z"/><path d="M289.82,17.17c0-2.79,1.15-5.11,3.78-5.11s3.76,2.32,3.76,5.13-1.15,5.13-3.76,5.13-3.78-2.32-3.78-5.13Zm1.26,0c0,2.59.85,4,2.54,4s2.48-1.39,2.48-4-.85-4-2.52-4-2.5,1.39-2.5,4Z"/><path d="M306.51,22.09H305.4c0-.56,0-1.1,0-1.71a2.75,2.75,0,0,1-2.74,1.94c-1.67,0-2.81-1-2.81-3.35V12.29h1.21v6.3c0,1,.14,2.54,1.87,2.54,1.42,0,2.34-1,2.34-3v-5.8h1.21Z"/><path d="M313.55,14.83c0-1.24-.65-1.69-1.58-1.69a1.38,1.38,0,0,0-1.42,1.46c0,1.1.92,1.49,2.11,1.85a2.86,2.86,0,0,1,2.34,3,2.81,2.81,0,0,1-2.92,2.92A2.9,2.9,0,0,1,309,19.21h1.19a1.79,1.79,0,0,0,1.87,2,1.57,1.57,0,0,0,1.66-1.71c0-1.19-.83-1.66-2.14-2.07s-2.3-1-2.3-2.79a2.73,2.73,0,0,1,5.46.2Z"/><path d="M326.58,14.83c0-1.24-.65-1.69-1.58-1.69a1.38,1.38,0,0,0-1.42,1.46c0,1.1.92,1.49,2.11,1.85a2.86,2.86,0,0,1,2.34,3,2.81,2.81,0,0,1-2.92,2.92A2.9,2.9,0,0,1,322,19.21h1.19a1.79,1.79,0,0,0,1.87,2,1.57,1.57,0,0,0,1.66-1.71c0-1.19-.83-1.66-2.14-2.07s-2.3-1-2.3-2.79a2.73,2.73,0,0,1,5.46.2Z"/><path d="M337.18,22.09h-1.12c0-.56,0-1.1,0-1.71a2.75,2.75,0,0,1-2.74,1.94c-1.68,0-2.81-1-2.81-3.35V12.29h1.21v6.3c0,1,.14,2.54,1.87,2.54,1.42,0,2.34-1,2.34-3v-5.8h1.21Z"/><path d="M340.28,12.29h1.12c0,.9,0,1.46,0,2.05A2.66,2.66,0,0,1,344,12.06v1.4a.82.82,0,0,0-.45-.13c-.83,0-2,1-2,3.49v5.26h-1.21Z"/><path d="M351.19,8.77h1.21V22.09h-1.21Z"/><path d="M356.77,8.77h1.31l-1.42,3.4h-1.17Z"/><path d="M361.12,8.77h1.21v1.76h-1.21Zm0,3.53h1.21v9.79h-1.21Z"/><path d="M372,22.09H370.9c0-.9,0-1.44,0-1.94a2.67,2.67,0,0,1-2.59,2.18c-1.95,0-3.28-2.05-3.28-5.11s1.22-5.15,3.28-5.15a2.57,2.57,0,0,1,2.52,2.07c0-.58,0-1.12,0-1.84V8.77H372Zm-5.76-4.9c0,2.21.79,3.93,2.29,3.93A1.92,1.92,0,0,0,370.25,20a5.42,5.42,0,0,0,.56-2.86,5.42,5.42,0,0,0-.56-2.86,1.94,1.94,0,0,0-1.71-1.06c-1.49,0-2.29,1.69-2.29,3.92Z"/><path d="M375.88,17.55c0,2,.83,3.64,2.49,3.64a2.23,2.23,0,0,0,2.2-1.94h1.19a3.92,3.92,0,0,1-1.22,2.3,3.28,3.28,0,0,1-2.16.77c-2.7,0-3.75-2.59-3.75-5.11,0-3,1.4-5.15,3.71-5.15A3,3,0,0,1,381,13.45a7.12,7.12,0,0,1,.9,4.11Zm4.75-1.06c0-2-.88-3.4-2.36-3.4s-2.36,1.46-2.4,3.4Z"/><path d="M384.43,12.29h1.08c0,.56,0,1.06,0,1.67a2.79,2.79,0,0,1,2.77-1.91c1.68,0,2.81,1,2.81,3.35v6.68h-1.21v-6.3c0-1-.14-2.54-1.87-2.54-1.42,0-2.34,1-2.34,3v5.8h-1.21Z"/><path d="M394.57,13.43H393.2V12.29h1.37V9.2h1.21v3.1h1.35v1.13h-1.35v8.66h-1.21Z"/><path d="M399.46,8.77h1.21v1.76h-1.21Zm0,3.53h1.21v9.79h-1.21Z"/><path d="M404.38,13.43H403V12.29h1.37V9.2h1.21v3.1h1.35v1.13h-1.35v8.66h-1.21Z"/><path d="M409.67,17.55c0,2,.83,3.64,2.48,3.64a2.23,2.23,0,0,0,2.2-1.94h1.19a3.92,3.92,0,0,1-1.22,2.3,3.28,3.28,0,0,1-2.16.77c-2.7,0-3.74-2.59-3.74-5.11,0-3,1.4-5.15,3.71-5.15a3,3,0,0,1,2.63,1.39,7.13,7.13,0,0,1,.9,4.11Zm4.75-1.06c0-2-.88-3.4-2.36-3.4s-2.36,1.46-2.39,3.4ZM414,8.24l.5,1-4,2.14-.45-.85Z"/><path d="M16.18,43.69H15.06c0-.9,0-1.44,0-1.94a2.67,2.67,0,0,1-2.59,2.18c-1.95,0-3.28-2.05-3.28-5.11s1.22-5.15,3.28-5.15A2.57,2.57,0,0,1,15,35.73c0-.58,0-1.12,0-1.84V30.37h1.21Zm-5.76-4.9c0,2.21.79,3.93,2.29,3.93a1.92,1.92,0,0,0,1.71-1.08A5.42,5.42,0,0,0,15,38.77a5.42,5.42,0,0,0-.56-2.86,1.94,1.94,0,0,0-1.71-1.06c-1.49,0-2.29,1.69-2.29,3.92Z"/><path d="M25.84,43.69H24.73c0-.56,0-1.1,0-1.71A2.75,2.75,0,0,1,22,43.92c-1.67,0-2.81-1-2.81-3.35V33.89h1.21v6.3c0,1,.14,2.54,1.87,2.54,1.42,0,2.34-1,2.34-3v-5.8h1.21Z"/><path d="M34,33.89h1.12c0,.9,0,1.46,0,2.05a2.66,2.66,0,0,1,2.61-2.29v1.4a.81.81,0,0,0-.45-.13c-.83,0-2,1-2,3.49v5.26H34Z"/><path d="M40.26,39.15c0,2,.83,3.64,2.49,3.64a2.23,2.23,0,0,0,2.2-1.94h1.19a3.92,3.92,0,0,1-1.22,2.3,3.27,3.27,0,0,1-2.16.77C40,43.92,39,41.33,39,38.81c0-3,1.4-5.15,3.71-5.15A3,3,0,0,1,45.33,35a7.11,7.11,0,0,1,.9,4.11ZM45,38.09c0-2-.88-3.4-2.36-3.4s-2.36,1.46-2.4,3.4Z"/><path d="M55.25,40.36c-.22,2-1.3,3.57-3.24,3.57-2.61,0-3.78-2.45-3.78-5.11,0-3.21,1.51-5.15,3.73-5.15,2,0,3.15,1.55,3.24,3.62H54c-.2-1.94-1.13-2.48-2.05-2.48a1.9,1.9,0,0,0-1.78,1,5.79,5.79,0,0,0-.63,3c0,2.57.88,4,2.43,4,1.21,0,1.89-1,2.07-2.43Z"/><path d="M57.54,33.89h1.12c0,.9,0,1.46,0,2.05a2.65,2.65,0,0,1,2.61-2.29v1.4a.81.81,0,0,0-.45-.13c-.83,0-2,1-2,3.49v5.26H57.54Z"/><path d="M69.81,43.69H68.7c0-.56,0-1.1,0-1.71A2.75,2.75,0,0,1,66,43.92c-1.68,0-2.81-1-2.81-3.35V33.89H64.4v6.3c0,1,.14,2.54,1.87,2.54,1.42,0,2.34-1,2.34-3v-5.8h1.21Z"/><path d="M73.38,35H72V33.89h1.37V30.8h1.21v3.1h1.35V35H74.58v8.66H73.38Z"/><path d="M78.67,39.15c0,2,.83,3.64,2.49,3.64a2.23,2.23,0,0,0,2.2-1.94h1.19a3.92,3.92,0,0,1-1.22,2.3,3.28,3.28,0,0,1-2.16.77c-2.7,0-3.75-2.59-3.75-5.11,0-3,1.4-5.15,3.71-5.15A3,3,0,0,1,83.75,35a7.12,7.12,0,0,1,.9,4.11Zm4.75-1.06c0-2-.88-3.4-2.36-3.4s-2.36,1.46-2.4,3.4Z"/><path d="M93.79,43.69H92.67c0-.56,0-1.1,0-1.71A2.75,2.75,0,0,1,90,43.92c-1.67,0-2.81-1-2.81-3.35V33.89h1.21v6.3c0,1,.14,2.54,1.87,2.54,1.42,0,2.34-1,2.34-3v-5.8h1.21Z"/><path d="M96.89,33.89H98c0,.9,0,1.46,0,2.05a2.65,2.65,0,0,1,2.61-2.29v1.4a.81.81,0,0,0-.45-.13c-.83,0-2,1-2,3.49v5.26H96.89Z"/><path d="M108.42,39.15c0,2,.83,3.64,2.48,3.64a2.23,2.23,0,0,0,2.2-1.94h1.19a3.92,3.92,0,0,1-1.22,2.3,3.28,3.28,0,0,1-2.16.77c-2.7,0-3.74-2.59-3.74-5.11,0-3,1.4-5.15,3.71-5.15A3,3,0,0,1,113.5,35a7.13,7.13,0,0,1,.9,4.11Zm4.75-1.06c0-2-.88-3.4-2.36-3.4s-2.36,1.46-2.39,3.4Z"/><path d="M117.44,35h-1.37V33.89h1.37V30.8h1.21v3.1H120V35h-1.35v8.66h-1.21Z"/><path d="M127.29,33.89h1.15c0,.5,0,1,0,1.6a2.42,2.42,0,0,1,2.48-1.84,2.32,2.32,0,0,1,1.71.67,2.29,2.29,0,0,1,.54,1.17,2.69,2.69,0,0,1,.81-1.24,3,3,0,0,1,1.8-.59A2.52,2.52,0,0,1,138,34.92a5.9,5.9,0,0,1,.45,2.68v6.09h-1.21v-6a5.93,5.93,0,0,0-.2-1.82,1.5,1.5,0,0,0-1.5-1,1.79,1.79,0,0,0-1.58.79,3.83,3.83,0,0,0-.52,2.14v5.91h-1.21V37.75a5.84,5.84,0,0,0-.2-1.87,1.48,1.48,0,0,0-1.48-1,1.85,1.85,0,0,0-1.58.76,3.85,3.85,0,0,0-.52,2.21v5.87h-1.21Z"/><path d="M142.33,39.15c0,2,.83,3.64,2.48,3.64a2.23,2.23,0,0,0,2.2-1.94h1.19a3.92,3.92,0,0,1-1.22,2.3,3.28,3.28,0,0,1-2.16.77c-2.7,0-3.74-2.59-3.74-5.11,0-3,1.4-5.15,3.71-5.15A3,3,0,0,1,147.41,35a7.13,7.13,0,0,1,.9,4.11Zm4.75-1.06c0-2-.88-3.4-2.36-3.4s-2.36,1.46-2.39,3.4Z"/><path d="M150.88,33.89H152c0,.56,0,1.06,0,1.67a2.79,2.79,0,0,1,2.77-1.91c1.67,0,2.81,1,2.81,3.35v6.68H156.3v-6.3c0-1-.14-2.54-1.87-2.54-1.42,0-2.34,1-2.34,3v5.8h-1.21Z"/><path d="M161,35h-1.37V33.89H161V30.8h1.21v3.1h1.35V35h-1.35v8.66H161Z"/><path d="M165.91,30.37h1.21v1.76h-1.21Zm0,3.53h1.21v9.79h-1.21Z"/><path d="M169.84,38.77c0-2.79,1.15-5.11,3.78-5.11s3.76,2.32,3.76,5.13-1.15,5.13-3.76,5.13-3.78-2.32-3.78-5.13Zm1.26,0c0,2.59.85,4,2.54,4s2.48-1.39,2.48-4-.85-4-2.52-4-2.5,1.39-2.5,4Z"/><path d="M180,33.89H181c0,.56,0,1.06,0,1.67a2.79,2.79,0,0,1,2.77-1.91c1.67,0,2.81,1,2.81,3.35v6.68h-1.21v-6.3c0-1-.14-2.54-1.87-2.54-1.42,0-2.34,1-2.34,3v5.8H180Z"/><path d="M189.62,33.89h1.08c0,.56,0,1.06,0,1.67a2.79,2.79,0,0,1,2.77-1.91c1.67,0,2.81,1,2.81,3.35v6.68H195v-6.3c0-1-.14-2.54-1.87-2.54-1.42,0-2.34,1-2.34,3v5.8h-1.21Z"/><path d="M200.06,39.15c0,2,.83,3.64,2.49,3.64a2.23,2.23,0,0,0,2.2-1.94h1.19a3.92,3.92,0,0,1-1.22,2.3,3.28,3.28,0,0,1-2.16.77c-2.7,0-3.75-2.59-3.75-5.11,0-3,1.4-5.15,3.71-5.15A3,3,0,0,1,205.14,35a7.12,7.12,0,0,1,.9,4.11Zm4.75-1.06c0-2-.88-3.4-2.36-3.4s-2.36,1.46-2.4,3.4Z"/><path d="M207.78,42.57l4.7-7.54h-4.39V33.89h5.83V35l-4.68,7.51h4.84v1.13h-6.3Z"/><path d="M225.48,36.43c0-1.24-.65-1.69-1.58-1.69a1.38,1.38,0,0,0-1.42,1.46c0,1.1.92,1.49,2.11,1.85a2.86,2.86,0,0,1,2.34,3A2.81,2.81,0,0,1,224,43.92a2.89,2.89,0,0,1-3.06-3.12h1.19a1.8,1.8,0,0,0,1.87,2,1.57,1.57,0,0,0,1.66-1.71c0-1.19-.83-1.66-2.14-2.07s-2.3-1-2.3-2.79a2.73,2.73,0,0,1,5.46.2Z"/><path d="M229,38.77c0-2.79,1.15-5.11,3.78-5.11s3.76,2.32,3.76,5.13-1.15,5.13-3.76,5.13S229,41.6,229,38.79Zm1.26,0c0,2.59.85,4,2.54,4s2.49-1.39,2.49-4-.85-4-2.52-4-2.5,1.39-2.5,4Z"/><path d="M239.1,33.89h1.08c0,.56,0,1.06,0,1.67a2.79,2.79,0,0,1,2.77-1.91c1.67,0,2.81,1,2.81,3.35v6.68h-1.21v-6.3c0-1-.14-2.54-1.87-2.54-1.42,0-2.34,1-2.34,3v5.8H239.1Z"/><path d="M253.82,33.89h1.08c0,.56,0,1.06,0,1.67a2.79,2.79,0,0,1,2.77-1.91c1.67,0,2.81,1,2.81,3.35v6.68h-1.21v-6.3c0-1-.14-2.54-1.87-2.54-1.42,0-2.34,1-2.34,3v5.8h-1.21Z"/><path d="M263,38.77c0-2.79,1.15-5.11,3.78-5.11s3.76,2.32,3.76,5.13-1.15,5.13-3.76,5.13S263,41.6,263,38.79Zm1.26,0c0,2.59.85,4,2.54,4s2.48-1.39,2.48-4-.85-4-2.52-4-2.5,1.39-2.5,4Z"/><path d="M273.12,33.89h1.15c0,.5,0,1,0,1.6a2.42,2.42,0,0,1,2.49-1.84,2.32,2.32,0,0,1,1.71.67A2.28,2.28,0,0,1,279,35.5a2.67,2.67,0,0,1,.81-1.24,3,3,0,0,1,1.8-.59,2.52,2.52,0,0,1,2.29,1.26,5.89,5.89,0,0,1,.45,2.68v6.09h-1.21v-6a5.9,5.9,0,0,0-.2-1.82,1.5,1.5,0,0,0-1.49-1,1.79,1.79,0,0,0-1.58.79,3.83,3.83,0,0,0-.52,2.14v5.91h-1.21V37.75a5.87,5.87,0,0,0-.2-1.87,1.48,1.48,0,0,0-1.48-1,1.85,1.85,0,0,0-1.58.76,3.86,3.86,0,0,0-.52,2.21v5.87h-1.21Z"/><path d="M293.23,39.15c0,2,.83,3.64,2.48,3.64a2.23,2.23,0,0,0,2.2-1.94h1.19a3.92,3.92,0,0,1-1.22,2.3,3.28,3.28,0,0,1-2.16.77c-2.7,0-3.74-2.59-3.74-5.11,0-3,1.4-5.15,3.71-5.15A3,3,0,0,1,298.31,35a7.13,7.13,0,0,1,.9,4.11ZM298,38.09c0-2-.88-3.4-2.36-3.4s-2.36,1.46-2.39,3.4Z"/><path d="M302.24,35h-1.37V33.89h1.37V30.8h1.21v3.1h1.35V35h-1.35v8.66h-1.21Z"/><path d="M316,36.43c0-1.24-.65-1.69-1.58-1.69A1.38,1.38,0,0,0,313,36.2c0,1.1.92,1.49,2.11,1.85a2.86,2.86,0,0,1,2.34,3,2.81,2.81,0,0,1-2.92,2.92,2.9,2.9,0,0,1-3.06-3.12h1.19a1.79,1.79,0,0,0,1.87,2,1.57,1.57,0,0,0,1.66-1.71c0-1.19-.83-1.66-2.14-2.07s-2.3-1-2.3-2.79a2.73,2.73,0,0,1,5.46.2Z"/><path d="M326.48,43.69h-1.12c0-.86,0-1.4,0-1.87a2.69,2.69,0,0,1-2.59,2.11c-1.95,0-3.28-2.05-3.28-5.11s1.22-5.15,3.28-5.15a2.64,2.64,0,0,1,2.59,2.12c0-.59,0-1.15,0-1.89h1.12Zm-5.76-4.88c0,2.21.79,3.93,2.29,3.93a1.92,1.92,0,0,0,1.71-1.08,5.46,5.46,0,0,0,.56-2.86,5.38,5.38,0,0,0-.56-2.86A1.92,1.92,0,0,0,323,34.85c-1.49,0-2.29,1.71-2.29,3.94Z"/><path d="M334.88,35h-1.1V33.89h1.1v-.74a2.71,2.71,0,0,1,2.92-3v1.06c-.9.05-1.71.49-1.71,2.07v.63h1.71V35h-1.71v8.66h-1.21Z"/><path d="M338.95,38.77c0-2.79,1.15-5.11,3.78-5.11s3.76,2.32,3.76,5.13-1.15,5.13-3.76,5.13-3.78-2.32-3.78-5.13Zm1.26,0c0,2.59.85,4,2.54,4s2.49-1.39,2.49-4-.85-4-2.52-4-2.5,1.39-2.5,4Z"/><path d="M349.06,33.89h1.08c0,.56,0,1.06,0,1.67a2.79,2.79,0,0,1,2.77-1.91c1.67,0,2.81,1,2.81,3.35v6.68h-1.21v-6.3c0-1-.14-2.54-1.87-2.54-1.42,0-2.34,1-2.34,3v5.8h-1.21Z"/><path d="M365.17,40.36c-.22,2-1.3,3.57-3.24,3.57-2.61,0-3.78-2.45-3.78-5.11,0-3.21,1.51-5.15,3.73-5.15,2,0,3.15,1.55,3.24,3.62H363.9c-.2-1.94-1.13-2.48-2.05-2.48a1.9,1.9,0,0,0-1.78,1,5.79,5.79,0,0,0-.63,3c0,2.57.88,4,2.43,4,1.21,0,1.89-1,2.07-2.43Z"/><path d="M367.93,35h-1.37V33.89h1.37V30.8h1.21v3.1h1.35V35h-1.35v8.66h-1.21Z"/><path d="M372.82,30.37H374v1.76h-1.21Zm0,3.53H374v9.79h-1.21Z"/><path d="M376.75,38.77c0-2.79,1.15-5.11,3.78-5.11s3.76,2.32,3.76,5.13-1.15,5.13-3.76,5.13-3.78-2.32-3.78-5.13Zm1.26,0c0,2.59.85,4,2.54,4s2.48-1.39,2.48-4-.85-4-2.52-4-2.5,1.39-2.5,4Z"/><path d="M386.86,33.89h1.08c0,.56,0,1.06,0,1.67a2.79,2.79,0,0,1,2.77-1.91c1.67,0,2.81,1,2.81,3.35v6.68h-1.21v-6.3c0-1-.14-2.54-1.87-2.54-1.42,0-2.34,1-2.34,3v5.8h-1.21Z"/><path d="M398.27,43.69H397V41.78h1.22Z"/><path d="M9.89,65.29H8.51L12.31,52h1.33l3.85,13.32H16.12L15,61.35H11Zm5-14.78-.45.85-4-2.14.49-1ZM13,53.71l-1.64,6.41h3.28Z"/><path d="M30.86,65.29H29.75c0-.9,0-1.44,0-1.94a2.67,2.67,0,0,1-2.59,2.18c-1.94,0-3.28-2.05-3.28-5.11s1.22-5.15,3.28-5.15a2.57,2.57,0,0,1,2.52,2.07c0-.58,0-1.12,0-1.84V52h1.21Zm-5.76-4.9c0,2.21.79,3.92,2.29,3.92a1.93,1.93,0,0,0,1.71-1.08,5.42,5.42,0,0,0,.56-2.86,5.42,5.42,0,0,0-.56-2.86,1.94,1.94,0,0,0-1.71-1.06c-1.5,0-2.29,1.69-2.29,3.93Z"/><path d="M34.73,60.75c0,2,.83,3.64,2.49,3.64a2.23,2.23,0,0,0,2.2-1.94H40.6a3.92,3.92,0,0,1-1.22,2.3,3.27,3.27,0,0,1-2.16.77c-2.7,0-3.75-2.59-3.75-5.11,0-3,1.4-5.15,3.71-5.15a3,3,0,0,1,2.63,1.39,7.11,7.11,0,0,1,.9,4.1Zm4.75-1.06c0-2-.88-3.4-2.36-3.4s-2.36,1.46-2.4,3.4Zm-.38-8.25.5,1-4,2.14-.45-.85Z"/><path d="M43.53,56.63h-1.1V55.49h1.1v-.74a2.71,2.71,0,0,1,2.92-3v1.06c-.9.05-1.71.49-1.71,2.07v.63h1.71v1.13H44.74v8.66H43.53Z"/><path d="M54.57,65.29H53.45c0-.86,0-1.4,0-1.87a2.69,2.69,0,0,1-2.59,2.11c-1.95,0-3.28-2.05-3.28-5.11s1.22-5.15,3.28-5.15a2.64,2.64,0,0,1,2.59,2.13c0-.59,0-1.15,0-1.89h1.12Zm-5.76-4.88c0,2.21.79,3.92,2.29,3.92a1.93,1.93,0,0,0,1.71-1.08,5.46,5.46,0,0,0,.56-2.86,5.38,5.38,0,0,0-.56-2.86,1.93,1.93,0,0,0-1.71-1.08c-1.49,0-2.29,1.71-2.29,3.94Z"/><path d="M64.23,65.29H63.12c0-.56,0-1.1,0-1.71a2.75,2.75,0,0,1-2.74,1.94c-1.67,0-2.81-1-2.81-3.35V55.49h1.21v6.3c0,1,.14,2.54,1.87,2.54,1.42,0,2.34-1,2.34-3v-5.8h1.21Z"/><path d="M67.8,56.63H66.43V55.49H67.8V52.4H69v3.1h1.35v1.13H69v8.66H67.8Z"/><path d="M73.22,66.78H72.15l1.19-3.4h1.21Z"/><path d="M80.63,60.37c0-2.79,1.15-5.11,3.78-5.11s3.76,2.32,3.76,5.13S87,65.52,84.41,65.52s-3.78-2.32-3.78-5.13Zm1.26,0c0,2.59.85,4,2.54,4s2.49-1.39,2.49-4-.85-4-2.52-4-2.5,1.39-2.5,4Z"/><path d="M90.75,55.49h1.12c0,.74,0,1.28,0,1.87a2.63,2.63,0,0,1,2.57-2.11c2,0,3.29,2,3.29,5.15s-1.22,5.11-3.29,5.11a2.66,2.66,0,0,1-2.5-2c0,.43,0,.94,0,1.78v3.62H90.75Zm5.76,4.88c0-2.21-.77-3.93-2.29-3.93a1.88,1.88,0,0,0-1.68,1.08A5.19,5.19,0,0,0,92,60.39a5.27,5.27,0,0,0,.59,2.86,1.88,1.88,0,0,0,1.68,1.08c1.51,0,2.29-1.71,2.29-3.94Z"/><path d="M100.76,56.63H99.39V55.49h1.37V52.4H102v3.1h1.35v1.13H102v8.66h-1.21Z"/><path d="M106,60.75c0,2,.83,3.64,2.48,3.64a2.23,2.23,0,0,0,2.2-1.94h1.19a3.92,3.92,0,0,1-1.22,2.3,3.28,3.28,0,0,1-2.16.77c-2.7,0-3.74-2.59-3.74-5.11,0-3,1.4-5.15,3.71-5.15a3,3,0,0,1,2.63,1.39,7.13,7.13,0,0,1,.9,4.1Zm4.75-1.06c0-2-.88-3.4-2.36-3.4s-2.36,1.46-2.39,3.4Z"/><path d="M113.77,64.17l4.7-7.54h-4.39V55.49h5.83v1.15l-4.68,7.51h4.84v1.13h-6.3Z"/><path d="M127.52,55.49h1.12c0,.74,0,1.28,0,1.87a2.63,2.63,0,0,1,2.57-2.11c2,0,3.29,2,3.29,5.15s-1.22,5.11-3.29,5.11a2.66,2.66,0,0,1-2.5-2c0,.43,0,.94,0,1.78v3.62h-1.21Zm5.76,4.88c0-2.21-.78-3.93-2.29-3.93a1.87,1.87,0,0,0-1.67,1.08,5.18,5.18,0,0,0-.59,2.86,5.26,5.26,0,0,0,.59,2.86A1.87,1.87,0,0,0,131,64.33c1.51,0,2.29-1.71,2.29-3.94Z"/><path d="M136.54,60.37c0-2.79,1.15-5.11,3.78-5.11s3.76,2.32,3.76,5.13-1.15,5.13-3.76,5.13-3.78-2.32-3.78-5.13Zm1.26,0c0,2.59.85,4,2.54,4s2.48-1.39,2.48-4-.85-4-2.52-4-2.5,1.39-2.5,4Z"/><path d="M153.23,65.29h-1.12c0-.56,0-1.1,0-1.71a2.75,2.75,0,0,1-2.74,1.94c-1.68,0-2.81-1-2.81-3.35V55.49h1.21v6.3c0,1,.14,2.54,1.87,2.54,1.42,0,2.34-1,2.34-3v-5.8h1.21Z"/><path d="M156.32,55.49h1.12c0,.9,0,1.46,0,2.05A2.66,2.66,0,0,1,160,55.26v1.4a.81.81,0,0,0-.45-.13c-.83,0-2,1-2,3.49v5.26h-1.21Z"/><path d="M167.23,52h1.21V65.29h-1.21Z"/><path d="M178.12,65.29H177c0-.86,0-1.4,0-1.87a2.69,2.69,0,0,1-2.59,2.11c-1.95,0-3.28-2.05-3.28-5.11s1.22-5.15,3.28-5.15A2.64,2.64,0,0,1,177,57.38c0-.59,0-1.15,0-1.89h1.12Zm-5.76-4.88c0,2.21.79,3.92,2.29,3.92a1.93,1.93,0,0,0,1.71-1.08,5.46,5.46,0,0,0,.56-2.86,5.38,5.38,0,0,0-.56-2.86,1.93,1.93,0,0,0-1.71-1.08c-1.49,0-2.29,1.71-2.29,3.94Z"/><path d="M186.52,56.63h-1.1V55.49h1.1v-.74a2.71,2.71,0,0,1,2.92-3v1.06c-.9.05-1.71.49-1.71,2.07v.63h1.71v1.13h-1.71v8.66h-1.21Z"/><path d="M190.59,60.37c0-2.79,1.15-5.11,3.78-5.11s3.76,2.32,3.76,5.13-1.15,5.13-3.76,5.13-3.78-2.32-3.78-5.13Zm1.26,0c0,2.59.85,4,2.54,4s2.49-1.39,2.49-4-.85-4-2.52-4-2.5,1.39-2.5,4Z"/><path d="M200.71,55.49h1.12c0,.9,0,1.46,0,2.05a2.65,2.65,0,0,1,2.61-2.29v1.4a.81.81,0,0,0-.45-.13c-.83,0-2,1-2,3.49v5.26h-1.21Z"/><path d="M206.45,55.49h1.15c0,.5,0,1,0,1.6a2.42,2.42,0,0,1,2.48-1.84,2.32,2.32,0,0,1,1.71.67,2.29,2.29,0,0,1,.54,1.17,2.69,2.69,0,0,1,.81-1.24,3,3,0,0,1,1.8-.59,2.52,2.52,0,0,1,2.29,1.26,5.9,5.9,0,0,1,.45,2.68v6.09h-1.21v-6a5.93,5.93,0,0,0-.2-1.82,1.5,1.5,0,0,0-1.5-1,1.79,1.79,0,0,0-1.58.79,3.83,3.83,0,0,0-.52,2.14v5.91h-1.21V59.35a5.84,5.84,0,0,0-.2-1.87,1.48,1.48,0,0,0-1.48-1,1.85,1.85,0,0,0-1.58.76,3.85,3.85,0,0,0-.52,2.21v5.87h-1.21Z"/><path d="M227.21,65.29h-1.12c0-.56,0-1.1,0-1.71a2.75,2.75,0,0,1-2.74,1.94c-1.67,0-2.81-1-2.81-3.35V55.49h1.21v6.3c0,1,.14,2.54,1.87,2.54,1.42,0,2.34-1,2.34-3v-5.8h1.21Z"/><path d="M230.44,52h1.21V65.29h-1.21Z"/><path d="M235.66,60.75c0,2,.83,3.64,2.48,3.64a2.23,2.23,0,0,0,2.2-1.94h1.19a3.92,3.92,0,0,1-1.22,2.3,3.28,3.28,0,0,1-2.16.77c-2.7,0-3.74-2.59-3.74-5.11,0-3,1.4-5.15,3.71-5.15a3,3,0,0,1,2.63,1.39,7.13,7.13,0,0,1,.9,4.1Zm4.75-1.06c0-2-.88-3.4-2.36-3.4s-2.36,1.46-2.39,3.4Z"/><path d="M249.69,55.37h-1.17L247.08,52h1.33Zm2.25,0h-1.19L249.33,52h1.31Z"/><path d="M255.07,65.29V52h2.09l3.13,11.36L263.21,52h2.11V65.29h-1.22V53.21l-3.15,12.08h-1.26l-3.38-12.08V65.29Z"/><path d="M274.91,65.29h-1.12c0-.86,0-1.4,0-1.87a2.69,2.69,0,0,1-2.59,2.11c-1.95,0-3.28-2.05-3.28-5.11s1.22-5.15,3.28-5.15a2.64,2.64,0,0,1,2.59,2.13c0-.59,0-1.15,0-1.89h1.12Zm-5.76-4.88c0,2.21.79,3.92,2.29,3.92a1.93,1.93,0,0,0,1.71-1.08,5.46,5.46,0,0,0,.56-2.86,5.38,5.38,0,0,0-.56-2.86,1.93,1.93,0,0,0-1.71-1.08c-1.49,0-2.29,1.71-2.29,3.94Z"/><path d="M284.45,65.29h-1.12c0-.9,0-1.44,0-1.94a2.67,2.67,0,0,1-2.59,2.18c-1.94,0-3.28-2.05-3.28-5.11s1.22-5.15,3.28-5.15a2.57,2.57,0,0,1,2.52,2.07c0-.58,0-1.12,0-1.84V52h1.21Zm-5.76-4.9c0,2.21.79,3.92,2.29,3.92a1.93,1.93,0,0,0,1.71-1.08,5.42,5.42,0,0,0,.56-2.86,5.42,5.42,0,0,0-.56-2.86A1.94,1.94,0,0,0,281,56.45c-1.49,0-2.29,1.69-2.29,3.93Z"/><path d="M294,65.29h-1.12c0-.86,0-1.4,0-1.87a2.69,2.69,0,0,1-2.59,2.11c-1.94,0-3.28-2.05-3.28-5.11s1.22-5.15,3.28-5.15a2.64,2.64,0,0,1,2.59,2.13c0-.59,0-1.15,0-1.89H294Zm-5.76-4.88c0,2.21.79,3.92,2.29,3.92a1.93,1.93,0,0,0,1.71-1.08,5.46,5.46,0,0,0,.56-2.86,5.38,5.38,0,0,0-.56-2.86,1.93,1.93,0,0,0-1.71-1.08c-1.49,0-2.29,1.71-2.29,3.94Z"/><path d="M297.12,55.49h1.15c0,.5,0,1,0,1.6a2.42,2.42,0,0,1,2.48-1.84,2.32,2.32,0,0,1,1.71.67A2.28,2.28,0,0,1,303,57.1a2.69,2.69,0,0,1,.81-1.24,3,3,0,0,1,1.8-.59,2.52,2.52,0,0,1,2.29,1.26,5.9,5.9,0,0,1,.45,2.68v6.09h-1.21v-6a5.9,5.9,0,0,0-.2-1.82,1.5,1.5,0,0,0-1.49-1,1.79,1.79,0,0,0-1.58.79,3.83,3.83,0,0,0-.52,2.14v5.91H302.1V59.35a5.84,5.84,0,0,0-.2-1.87,1.48,1.48,0,0,0-1.48-1,1.85,1.85,0,0,0-1.58.76,3.86,3.86,0,0,0-.52,2.21v5.87h-1.21Z"/><path d="M312.16,60.75c0,2,.83,3.64,2.49,3.64a2.23,2.23,0,0,0,2.2-1.94H318a3.92,3.92,0,0,1-1.22,2.3,3.27,3.27,0,0,1-2.16.77c-2.7,0-3.75-2.59-3.75-5.11,0-3,1.4-5.15,3.71-5.15a3,3,0,0,1,2.63,1.39,7.11,7.11,0,0,1,.9,4.1Zm4.75-1.06c0-2-.88-3.4-2.36-3.4s-2.36,1.46-2.4,3.4Z"/><path d="M321.09,66.78H320l1.19-3.4h1.21Z"/><path d="M329.08,65.29V52h2.09l3.13,11.36L337.22,52h2.11V65.29H338.1V53.21L335,65.29h-1.26l-3.38-12.08V65.29Z"/><path d="M342,60.37c0-2.79,1.15-5.11,3.78-5.11s3.76,2.32,3.76,5.13-1.15,5.13-3.76,5.13S342,63.2,342,60.39Zm1.26,0c0,2.59.85,4,2.54,4s2.48-1.39,2.48-4-.85-4-2.52-4-2.5,1.39-2.5,4Z"/><path d="M352.07,55.49h1.08c0,.56,0,1.06,0,1.67a2.79,2.79,0,0,1,2.77-1.91c1.67,0,2.81,1,2.81,3.35v6.68h-1.21V59c0-1-.14-2.54-1.87-2.54-1.42,0-2.34,1-2.34,3v5.8h-1.21Z"/><path d="M365.68,58c0-1.24-.65-1.69-1.58-1.69a1.38,1.38,0,0,0-1.42,1.46c0,1.1.92,1.49,2.11,1.85a2.86,2.86,0,0,1,2.34,3,2.81,2.81,0,0,1-2.92,2.92,2.9,2.9,0,0,1-3.06-3.11h1.19a1.79,1.79,0,0,0,1.87,2,1.57,1.57,0,0,0,1.66-1.71c0-1.19-.83-1.66-2.14-2.07s-2.3-1-2.3-2.79a2.73,2.73,0,0,1,5.46.2Z"/><path d="M369.85,52h1.21v1.76h-1.21Zm0,3.53h1.21v9.79h-1.21Z"/><path d="M375.07,60.75c0,2,.83,3.64,2.49,3.64a2.23,2.23,0,0,0,2.2-1.94h1.19a3.92,3.92,0,0,1-1.22,2.3,3.28,3.28,0,0,1-2.16.77c-2.7,0-3.75-2.59-3.75-5.11,0-3,1.4-5.15,3.71-5.15a3,3,0,0,1,2.63,1.39,7.12,7.12,0,0,1,.9,4.1Zm4.75-1.06c0-2-.88-3.4-2.36-3.4s-2.36,1.46-2.4,3.4Z"/><path d="M390.19,65.29h-1.12c0-.56,0-1.1,0-1.71a2.75,2.75,0,0,1-2.74,1.94c-1.67,0-2.81-1-2.81-3.35V55.49h1.21v6.3c0,1,.14,2.54,1.87,2.54,1.42,0,2.34-1,2.34-3v-5.8h1.21Z"/><path d="M393.29,55.49h1.12c0,.9,0,1.46,0,2.05A2.65,2.65,0,0,1,397,55.26v1.4a.81.81,0,0,0-.45-.13c-.83,0-2,1-2,3.49v5.26h-1.21Z"/><path d="M399,66.78h-1.06l1.19-3.4h1.21Z"/><path d="M402.13,52h1.31L402,55.37h-1.17Zm2.25,0h1.31l-1.44,3.4h-1.17Z"/></g></g></g></svg>