<svg xmlns="http://www.w3.org/2000/svg" viewBox="0 0 235.5 110.83"><defs><style>.cls-1{isolation:isolate;}.cls-2{fill:#7a5d00;opacity:0.22;}.cls-3{fill:#fefeff;}.cls-4{fill:#d8d8d8;mix-blend-mode:multiply;}</style></defs><title>game1b_item5</title><g class="cls-1"><g id="Calque_2" data-name="Calque 2"><g id="Calque_7" data-name="Calque 7"><polygon class="cls-2" points="210.26 85.02 14.88 110.83 0 26.05 222.46 8.83 227.1 66.36 210.26 85.02"/><polygon class="cls-3" points="208.91 80.47 24.22 102 9.34 17.22 231.79 0 235.37 49.39 208.91 80.47"/><polygon class="cls-4" points="235.5 49.37 209.05 80.45 207.78 53.41 235.5 49.37"/><path d="M44.91,51.88l3.17-.34,1.34,12.53,4.05-.43.31,2.92-7.22.77Z"/><path d="M53.37,51l3-.32-1.66,5.46-2.51.27Z"/><path d="M58,50.48l3.17-.34,1.65,15.45-3.17.34Z"/><path d="M72.59,58.11l-1-9.08,2.8-.3,1.65,15.45-2.84.3-5.4-9.43,1.06,9.9-2.8.3L64.44,49.8l3.22-.34Z"/><path d="M79.7,51.13l-2.59.28-.31-2.92,8.35-.89.31,2.92-2.59.28,1.34,12.53L81,63.65Z"/><path d="M87.45,47.34l4-.43c2.19-.23,3.65.18,4.4.9a5.33,5.33,0,0,1,1.63,3.44,5.74,5.74,0,0,1-.21,2.39,4.18,4.18,0,0,1-1.6,2.22l3.58,5.85-3.55.38L91.47,54.6c.35,0,.54-.06.79-.11a2.47,2.47,0,0,0,1.5-.75,2.41,2.41,0,0,0,.5-1.85,2.24,2.24,0,0,0-.93-1.8,2.43,2.43,0,0,0-1.67-.24l-.73.08,1.34,12.53-3.17.34Z"/><path d="M99.78,53.82c-.51-4.82,1-8.2,4.83-8.6s6,2.57,6.53,7.41-1,8.22-4.82,8.62-6-2.57-6.53-7.41Zm3.26-.31c.39,3.7,1.33,5,3,4.81s2.27-1.64,1.88-5.35-1.34-5-3-4.84-2.27,1.64-1.88,5.35Z"/><path d="M112.84,44.63l4.45-.47a5.53,5.53,0,0,1,5,1.77,9.47,9.47,0,0,1,2.11,5.29c.45,4.22-1.26,7.95-5.38,8.39l-4.55.49Zm4.51,12.19,1.38-.15c2.57-.27,2.61-3.49,2.43-5.12a7.25,7.25,0,0,0-1.08-3.43,2.44,2.44,0,0,0-2.48-1l-1.27.14Z"/><path d="M129.27,42.88l1.12,10.52A2.54,2.54,0,0,0,131,55a1.75,1.75,0,0,0,1.54.38,1.83,1.83,0,0,0,1.45-.7,2.67,2.67,0,0,0,.24-1.74l-1.12-10.52,3.17-.34,1.18,11a4.64,4.64,0,0,1-.79,3.48,6.53,6.53,0,0,1-7.89.84,4.73,4.73,0,0,1-1.51-3.24l-1.18-11Z"/><path d="M151,50.13c.36,3.53-1.29,6.49-4.93,6.88-3.38.36-5.87-2-6.45-7.42S141,41.34,144.36,41c3.74-.4,5.94,2.22,6.28,5.81l-3.26.35c-.38-2.75-1.24-3.31-2.45-3.18-1.46.16-2.45,1.59-2.05,5.29S144.54,54.13,146,54c1.65-.18,1.83-1.84,1.74-3.5Z"/><path d="M154.75,43.12l-2.59.28-.31-2.92,8.35-.89.31,2.92-2.59.28,1.34,12.53-3.17.34Z"/><path d="M162.5,39.34l3.17-.34,1.65,15.45-3.17.34Z"/><path d="M169,46.43c-.51-4.82,1-8.2,4.83-8.6s6,2.57,6.53,7.41-1,8.22-4.82,8.62-6-2.57-6.53-7.41Zm3.26-.31c.39,3.7,1.33,5,3,4.81s2.27-1.64,1.88-5.35-1.34-5-3-4.84-2.27,1.64-1.88,5.35Z"/><path d="M190.32,45.55l-1-9.08,2.8-.3,1.65,15.45-2.84.3-5.4-9.43,1.06,9.9-2.8.3-1.65-15.45,3.22-.34Z"/></g></g></g></svg>