<?xml version="1.0" encoding="utf-8"?>
<!-- Generator: Adobe Illustrator 21.1.0, SVG Export Plug-In . SVG Version: 6.00 Build 0)  -->
<svg version="1.1" id="Calque_1" xmlns="http://www.w3.org/2000/svg" xmlns:xlink="http://www.w3.org/1999/xlink" x="0px" y="0px"
	 viewBox="0 0 659.1 50.3" style="enable-background:new 0 0 659.1 50.3;" xml:space="preserve">
<style type="text/css">
	.st0{fill:#FFFFFF;}
	.st1{fill:#D8D8D8;}
</style>
<title>game1b_item_zone7_bg</title>
<g id="Calque_2">
	<g id="Calque_9">
		<path class="st0" d="M651.8,50.3H7.3c-3.5,0-6.3-2.9-6.3-6.4V5.8c0-3.5,2.8-6.4,6.3-6.4h644.6c3.5,0,6.3,2.9,6.3,6.4v38.1
			C658.1,47.4,655.3,50.3,651.8,50.3z"/>
	</g>
	<g id="Calque_6">
		<path class="st1" d="M7.3-0.5h644.6c3.5,0,6.3,2.9,6.3,6.4v38.1c0,3.5-2.8,6.4-6.3,6.4H7.3c-3.5,0-6.3-2.9-6.3-6.4V5.8
			C1,2.3,3.8-0.5,7.3-0.5z"/>
	</g>
</g>
</svg>
