<svg xmlns="http://www.w3.org/2000/svg" viewBox="0 0 308.89 131.85"><defs><style>.cls-1{isolation:isolate;}.cls-2{fill:#7a5d00;opacity:0.22;}.cls-3{fill:#fefeff;}.cls-4{fill:#d8d8d8;mix-blend-mode:multiply;}</style></defs><title>game1b_item8</title><g class="cls-1"><g id="Calque_2" data-name="Calque 2"><g id="Calque_7" data-name="Calque 7"><polygon class="cls-2" points="284.94 54.63 20.19 5.34 0 89.04 295.18 131.85 302.82 74.62 284.94 54.63"/><polygon class="cls-3" points="280.73 44.17 27.64 0 7.46 83.7 302.63 126.5 308.73 77.35 280.73 44.17"/><path d="M50.65,39.41l7.1,1.08-.44,2.91-3.94-.6-.44,2.91,3.94.6-.44,2.91-3.94-.6-1,6.64-3.15-.48Z"/><path d="M58.7,48.48c.73-4.79,3.08-7.66,6.86-7.09s5.16,4,4.43,8.83-3.08,7.68-6.86,7.11-5.16-4-4.43-8.83Zm3.23.54c-.56,3.67,0,5.16,1.64,5.41s2.62-1,3.18-4.7,0-5.18-1.63-5.43-2.62,1-3.18,4.7Z"/><path d="M73.69,42.93l4,.61c2.18.33,3.48,1.11,4,2a5.33,5.33,0,0,1,.7,3.74,5.73,5.73,0,0,1-.81,2.25,4.18,4.18,0,0,1-2.11,1.74l2,6.57-3.53-.54L75.74,51c.35.05.54.08.79.1a2.47,2.47,0,0,0,1.65-.34,2.41,2.41,0,0,0,1-1.66,2.24,2.24,0,0,0-.44-2,2.44,2.44,0,0,0-1.56-.66l-.73-.11L74.5,58.77l-3.15-.48Z"/><path d="M83.47,60.14l2.35-15.36,4.59.7L91,55.71l3.63-9.58,4.59.7L96.88,62.19l-2.78-.42,1.82-11.91-4.6,11.49L89,61l-1-12.34L86.25,60.57Z"/><path d="M105.54,47.79l-1.6,10.46a2.54,2.54,0,0,0,.18,1.75,1.75,1.75,0,0,0,1.39.76,1.82,1.82,0,0,0,1.58-.31,2.67,2.67,0,0,0,.67-1.62l1.6-10.46,3.15.48-1.68,11A4.64,4.64,0,0,1,109.18,63a6.53,6.53,0,0,1-7.85-1.2,4.73,4.73,0,0,1-.63-3.52l1.68-11Z"/><path d="M115.77,49.36l3.15.48L117,62.29l4,.61-.44,2.91-7.18-1.1Z"/><path d="M125.51,50.84,133,52l-.44,2.91-4.32-.66-.45,2.95,4.32.66-.44,2.91-4.32-.66-.56,3.69,4.32.66-.44,2.91-7.47-1.14Z"/><path d="M142.53,53.44l4.42.68a5.53,5.53,0,0,1,4.41,3,9.47,9.47,0,0,1,.69,5.65c-.64,4.19-3.25,7.36-7.34,6.74l-4.52-.69Zm1.25,12.94,1.37.21c2.55.39,3.41-2.71,3.66-4.33a7.25,7.25,0,0,0-.17-3.59A2.44,2.44,0,0,0,146.51,57l-1.27-.19Z"/><path d="M155.9,55.48l7.47,1.14-.44,2.91-4.32-.66-.45,2.95,4.32.66L162,65.38l-4.32-.66-.56,3.69,4.32.66L161,72l-7.47-1.14Z"/><path d="M177.45,58.77a5.19,5.19,0,0,1,3.42,1.84A5.66,5.66,0,0,1,179.73,68a5.19,5.19,0,0,1-3.81.74l-1.2-.18-.82,5.35-3.16-.48,2.35-15.36Zm-2.29,6.91,1.16.18a1.68,1.68,0,0,0,1.45-.29,2.25,2.25,0,0,0,.7-1.53,2.28,2.28,0,0,0-.21-1.69,1.74,1.74,0,0,0-1.3-.69l-1.16-.18Z"/><path d="M183.21,67.49c.73-4.79,3.08-7.66,6.86-7.09s5.16,4,4.43,8.83-3.08,7.68-6.86,7.11-5.16-4-4.43-8.83Zm3.23.54c-.56,3.67,0,5.16,1.64,5.41s2.62-1,3.18-4.7,0-5.18-1.63-5.43-2.62,1-3.18,4.7Z"/><path d="M198.35,62l3.15.48-1.9,12.45,4,.61-.44,2.91L196,77.32Z"/><path d="M207.94,63.43l3.16.48-2.35,15.36-3.16-.48Z"/><path d="M215.51,67.56l-2.57-.39.44-2.91,8.3,1.27-.44,2.91L218.67,68l-1.9,12.45L213.61,80Z"/><path d="M224.12,65.9,231.59,67l-.44,2.91-4.32-.66-.45,2.95,4.32.66-.44,2.91-4.32-.66-.56,3.69,4.32.66-.44,2.91-7.47-1.14Z"/><path d="M235.82,78.45c-.2,1.6.22,2.43,1.59,2.64a1.68,1.68,0,0,0,2.06-1.55c.21-1.39-1.4-2-3-2.87s-3.07-2.13-2.68-4.72a4.46,4.46,0,0,1,5.44-4.05c2.84.43,4.21,2,4.21,5.15l-3.07-.47a1.65,1.65,0,0,0-1.41-2A1.59,1.59,0,0,0,237.15,72c-.22,1.45,1.4,2,3,2.89s3.06,2.21,2.61,5.14-2.87,4.32-5.79,3.87c-3.51-.54-4.76-2.66-4.26-5.9Z"/><path d="M247.88,80.3c-.2,1.6.22,2.43,1.59,2.64a1.68,1.68,0,0,0,2.06-1.55c.21-1.39-1.4-2-3-2.87s-3.07-2.13-2.68-4.72a4.46,4.46,0,0,1,5.44-4.05c2.84.43,4.21,2,4.21,5.14l-3.07-.47a1.65,1.65,0,0,0-1.41-2,1.59,1.59,0,0,0-1.85,1.44c-.22,1.45,1.4,2,3,2.89s3.06,2.21,2.61,5.14-2.87,4.32-5.79,3.87c-3.51-.54-4.76-2.66-4.26-5.9Z"/><path d="M259.14,71.25l7.47,1.14-.44,2.91-4.32-.66-.45,2.95,4.32.66-.44,2.91L261,80.49l-.56,3.69,4.32.66-.44,2.91-7.47-1.14Z"/><polygon class="cls-4" points="308.89 77.38 280.88 44.2 278.3 71.17 308.89 77.38"/></g></g></g></svg>