<svg xmlns="http://www.w3.org/2000/svg" viewBox="0 0 659.14 91.93"><defs><style>.cls-1{isolation:isolate;}.cls-2{fill:#fff;}.cls-3{fill:#4e96b3;stroke:#4e96b3;stroke-miterlimit:10;stroke-width:5px;mix-blend-mode:multiply;}</style></defs><title>game1b_item_zone4_txt</title><g class="cls-1"><g id="Calque_2" data-name="Calque 2"><g id="Calque_9" data-name="Calque 9"><rect class="cls-2" width="659.14" height="91.93" rx="6.31" ry="6.31" transform="translate(659.14 91.93) rotate(180)"/></g><g id="Calque_13" data-name="Calque 13"><circle class="cls-3" cx="101.94" cy="16.37" r="11.25"/><path class="cls-2" d="M101.31,20H96.59V17.55l4.65-8.25h2.63v8.25h1.3V20h-1.3v2.66h-2.56Zm0-2.41V13.17L99,17.55Z"/><path d="M124.47,15.95c0-4.16,1.62-6.9,4.9-6.9s4.9,2.74,4.9,6.91-1.62,6.91-4.9,6.91-4.9-2.74-4.9-6.91Zm2.81,0c0,3.19.68,4.38,2.09,4.38s2.09-1.19,2.09-4.39-.68-4.39-2.09-4.39-2.09,1.19-2.09,4.39Z"/><path d="M136.73,9.3h4a3.79,3.79,0,0,1,2.79,1,3.31,3.31,0,0,1,.88,2.39,2.42,2.42,0,0,1-2.2,2.7A3,3,0,0,1,145,18.72a4.06,4.06,0,0,1-1,2.75,3.74,3.74,0,0,1-2.83,1.15h-4.43Zm2.74,5.19h.63a1.73,1.73,0,0,0,1.15-.34,1.41,1.41,0,0,0,.38-1.08,1.28,1.28,0,0,0-.38-1,1.73,1.73,0,0,0-1.15-.32h-.63Zm0,5.73h1a1.69,1.69,0,0,0,1.28-.45,1.52,1.52,0,0,0,.38-1.15,1.51,1.51,0,0,0-1.66-1.71h-1Z"/><path d="M154.07,19.21a4.15,4.15,0,0,1-.32,1.71,3.12,3.12,0,0,1-1.53,1.55,4.58,4.58,0,0,1-2,.41c-2.27,0-3.83-1.26-3.83-3.67v-.76h2.74v.25c0,1.33.31,1.66,1.1,1.66a1,1,0,0,0,.85-.32,2.36,2.36,0,0,0,.25-1.33V9.3h2.74Z"/><path d="M157.31,9.3h6.48v2.52H160v2.56h3.74V16.9H160v3.21h3.74v2.52h-6.48Z"/><path d="M168.4,11.82h-2.23V9.3h7.2v2.52h-2.23v10.8H168.4Z"/><path d="M181.32,9.3h3.83a4.74,4.74,0,0,1,4.12,2,8.12,8.12,0,0,1,1.31,4.7c0,3.64-1.8,6.66-5.35,6.66h-3.92Zm2.74,10.8h1.19c2.21,0,2.54-2.74,2.54-4.14a6.21,6.21,0,0,0-.61-3,2.09,2.09,0,0,0-2-1.12h-1.1Z"/><path d="M193.18,9.3h6.48v2.52h-3.75v2.56h3.75V16.9h-3.75v3.21h3.75v2.52h-6.48Z"/><path d="M208.62,9.3h2.74v10.8h3.49v2.52h-6.23Z"/><path d="M218.88,22.63h-2.77L219.75,9.3h2.52l3.78,13.32h-2.77l-.68-2.54h-3.06ZM221,13.21l-.85,4.36h1.69Z"/><path d="M242.77,17.46c0,3-1.69,5.42-4.83,5.42-2.92,0-4.82-2.25-4.82-6.91s1.91-6.91,4.82-6.91c3.22,0,4.86,2.43,4.83,5.53H240c-.07-2.38-.76-2.93-1.8-2.93-1.26,0-2.23,1.13-2.23,4.32s1,4.32,2.23,4.32c1.42,0,1.73-1.4,1.8-2.83Z"/><path d="M246.42,22.63h-2.77L247.29,9.3h2.52l3.78,13.32h-2.77l-.68-2.54h-3.06Zm2.16-9.42-.85,4.36h1.69Z"/><path d="M261.73,17.13V9.3h2.41V22.63h-2.45l-3.75-8.53v8.53h-2.41V9.3h2.77Z"/><path d="M267.18,9.3H271a4.74,4.74,0,0,1,4.12,2,8.12,8.12,0,0,1,1.31,4.7c0,3.64-1.8,6.66-5.35,6.66h-3.92Zm2.74,10.8h1.19c2.21,0,2.54-2.74,2.54-4.14a6.21,6.21,0,0,0-.61-3,2.09,2.09,0,0,0-2-1.12h-1.1Z"/><path d="M278.91,9.3h2.74V22.63h-2.74Z"/><path d="M284.62,9.3h3.83a4.74,4.74,0,0,1,4.12,2,8.12,8.12,0,0,1,1.31,4.7c0,3.64-1.8,6.66-5.35,6.66h-3.92Zm2.74,10.8h1.19c2.21,0,2.54-2.74,2.54-4.14a6.21,6.21,0,0,0-.61-3,2.09,2.09,0,0,0-2-1.12h-1.1Z"/><path d="M297.31,22.63h-2.77L298.17,9.3h2.52l3.78,13.32H301.7L301,20.09H298Zm2.16-9.42-.85,4.36h1.69Z"/><path d="M306.51,11.82h-2.23V9.3h7.2v2.52h-2.23v10.8h-2.74Z"/><path d="M316.43,9.3v9.07a2.18,2.18,0,0,0,.38,1.46,1.5,1.5,0,0,0,1.28.47,1.57,1.57,0,0,0,1.3-.47,2.29,2.29,0,0,0,.36-1.46V9.3h2.74v9.52a4,4,0,0,1-1,2.9,5.6,5.6,0,0,1-6.81,0,4.05,4.05,0,0,1-1-2.9V9.3Z"/><path d="M325.44,9.3h3.46c1.89,0,3.1.49,3.67,1.17a4.57,4.57,0,0,1,1.08,3.08,4.91,4.91,0,0,1-.4,2,3.59,3.59,0,0,1-1.57,1.75l2.52,5.31h-3.06l-2.94-6.77c.31,0,.47,0,.68,0a2.11,2.11,0,0,0,1.35-.5,2.07,2.07,0,0,0,.59-1.53,1.92,1.92,0,0,0-.63-1.62,2.09,2.09,0,0,0-1.4-.36h-.63v10.8h-2.74Z"/><path d="M336.3,9.3h6.48v2.52H339v2.56h3.75V16.9H339v3.21h3.75v2.52H336.3Z"/><path d="M354.19,16.47h-2.41V13.8h2.41Zm0,6.16h-2.41V20h2.41Z"/><path d="M362.5,22.63V9.3h2.09l3.13,11.36L370.64,9.3h2.11V22.63h-1.22V10.54l-3.15,12.08h-1.26l-3.38-12.08V22.63Z"/><path d="M376.67,18.09c0,2,.83,3.64,2.48,3.64a2.23,2.23,0,0,0,2.2-1.94h1.19a3.91,3.91,0,0,1-1.22,2.3,3.27,3.27,0,0,1-2.16.77c-2.7,0-3.75-2.59-3.75-5.11,0-3,1.4-5.15,3.71-5.15A3,3,0,0,1,381.75,14a7.12,7.12,0,0,1,.9,4.11ZM381.42,17c0-2-.88-3.4-2.36-3.4s-2.36,1.46-2.39,3.4Z"/><path d="M385.69,14h-1.37V12.83h1.37V9.73h1.21v3.1h1.35V14H386.9v8.66h-1.21Z"/><path d="M390.91,14h-1.37V12.83h1.37V9.73h1.21v3.1h1.35V14h-1.35v8.66h-1.21Z"/><path d="M396.2,18.09c0,2,.83,3.64,2.49,3.64a2.23,2.23,0,0,0,2.2-1.94h1.19a3.92,3.92,0,0,1-1.22,2.3,3.28,3.28,0,0,1-2.16.77c-2.7,0-3.75-2.59-3.75-5.11,0-3,1.4-5.15,3.71-5.15A3,3,0,0,1,401.28,14a7.12,7.12,0,0,1,.9,4.11ZM401,17c0-2-.88-3.4-2.36-3.4s-2.36,1.46-2.4,3.4Z"/><path d="M403.92,21.51l4.7-7.54h-4.39V12.83h5.83V14l-4.68,7.51h4.84v1.13h-6.3Z"/><path d="M418.45,18.09c0,2,.83,3.64,2.48,3.64a2.23,2.23,0,0,0,2.2-1.94h1.19a3.92,3.92,0,0,1-1.22,2.3,3.28,3.28,0,0,1-2.16.77c-2.7,0-3.74-2.59-3.74-5.11,0-3,1.4-5.15,3.71-5.15A3,3,0,0,1,423.53,14a7.13,7.13,0,0,1,.9,4.11ZM423.2,17c0-2-.88-3.4-2.36-3.4s-2.36,1.46-2.39,3.4Z"/><path d="M427,12.83h1.08c0,.56,0,1.06,0,1.67a2.79,2.79,0,0,1,2.77-1.91c1.67,0,2.81,1,2.81,3.35v6.68h-1.21v-6.3c0-1-.14-2.54-1.87-2.54-1.42,0-2.34,1-2.34,3v5.8H427Z"/><path d="M442.5,18.09c0,2,.83,3.64,2.49,3.64a2.23,2.23,0,0,0,2.2-1.94h1.19a3.92,3.92,0,0,1-1.22,2.3,3.27,3.27,0,0,1-2.16.77c-2.7,0-3.75-2.59-3.75-5.11,0-3,1.4-5.15,3.71-5.15A3,3,0,0,1,447.57,14a7.11,7.11,0,0,1,.9,4.11ZM447.25,17c0-2-.88-3.4-2.36-3.4s-2.36,1.46-2.4,3.4Zm-.38-8.25.5,1-4,2.14-.45-.85Z"/><path d="M453.87,22.63h-1.21l-3-9.79h1.22L453.26,21l2.25-8.17h1.21Z"/><path d="M458.79,9.3H460v1.76h-1.21Zm0,3.53H460v9.79h-1.21Z"/><path d="M469.68,22.63h-1.12c0-.9,0-1.44,0-1.94A2.67,2.67,0,0,1,466,22.86c-1.95,0-3.28-2.05-3.28-5.11s1.22-5.15,3.28-5.15a2.57,2.57,0,0,1,2.52,2.07c0-.58,0-1.12,0-1.84V9.3h1.21Zm-5.76-4.9c0,2.21.79,3.93,2.29,3.93a1.92,1.92,0,0,0,1.71-1.08,5.42,5.42,0,0,0,.56-2.86,5.42,5.42,0,0,0-.56-2.86,1.94,1.94,0,0,0-1.71-1.06c-1.49,0-2.29,1.69-2.29,3.93Z"/><path d="M473.55,18.09c0,2,.83,3.64,2.48,3.64a2.23,2.23,0,0,0,2.2-1.94h1.19a3.92,3.92,0,0,1-1.22,2.3,3.28,3.28,0,0,1-2.16.77c-2.7,0-3.74-2.59-3.74-5.11,0-3,1.4-5.15,3.71-5.15A3,3,0,0,1,478.62,14a7.13,7.13,0,0,1,.9,4.11ZM478.3,17c0-2-.88-3.4-2.36-3.4s-2.36,1.46-2.39,3.4Z"/><path d="M482.1,12.83h1.08c0,.56,0,1.06,0,1.67a2.79,2.79,0,0,1,2.77-1.91c1.67,0,2.81,1,2.81,3.35v6.68h-1.21v-6.3c0-1-.14-2.54-1.87-2.54-1.42,0-2.34,1-2.34,3v5.8H482.1Z"/><path d="M498.21,19.3c-.22,2-1.3,3.57-3.24,3.57-2.61,0-3.78-2.45-3.78-5.11,0-3.21,1.51-5.15,3.73-5.15,2,0,3.15,1.55,3.24,3.62h-1.22c-.2-1.94-1.13-2.48-2.05-2.48a1.9,1.9,0,0,0-1.78,1,5.8,5.8,0,0,0-.63,3c0,2.57.88,4,2.43,4,1.21,0,1.89-1,2.07-2.43Z"/><path d="M501.27,18.09c0,2,.83,3.64,2.49,3.64a2.23,2.23,0,0,0,2.2-1.94h1.19a3.92,3.92,0,0,1-1.22,2.3,3.27,3.27,0,0,1-2.16.77c-2.7,0-3.75-2.59-3.75-5.11,0-3,1.4-5.15,3.71-5.15A3,3,0,0,1,506.34,14a7.11,7.11,0,0,1,.9,4.11ZM506,17c0-2-.88-3.4-2.36-3.4s-2.36,1.46-2.4,3.4Z"/><path d="M515,9.3h1.21V22.63H515Z"/><path d="M520.24,18.09c0,2,.83,3.64,2.49,3.64a2.23,2.23,0,0,0,2.2-1.94h1.19a3.92,3.92,0,0,1-1.22,2.3,3.28,3.28,0,0,1-2.16.77c-2.7,0-3.75-2.59-3.75-5.11,0-3,1.4-5.15,3.71-5.15A3,3,0,0,1,525.31,14a7.12,7.12,0,0,1,.9,4.11ZM525,17c0-2-.88-3.4-2.36-3.4s-2.36,1.46-2.4,3.4Z"/><path d="M533.85,12.83H535c0,.74,0,1.28,0,1.87a2.63,2.63,0,0,1,2.57-2.11c2,0,3.29,2,3.29,5.15s-1.22,5.11-3.29,5.11a2.66,2.66,0,0,1-2.5-2c0,.43,0,.94,0,1.78v3.62h-1.21Zm5.76,4.88c0-2.21-.77-3.93-2.29-3.93a1.88,1.88,0,0,0-1.68,1.08,5.19,5.19,0,0,0-.59,2.86,5.27,5.27,0,0,0,.59,2.86,1.88,1.88,0,0,0,1.68,1.08c1.51,0,2.29-1.71,2.29-3.94Z"/><path d="M542.86,17.71c0-2.79,1.15-5.11,3.78-5.11s3.76,2.32,3.76,5.13-1.15,5.13-3.76,5.13-3.78-2.32-3.78-5.13Zm1.26,0c0,2.59.85,4,2.54,4s2.49-1.39,2.49-4-.85-4-2.52-4-2.5,1.39-2.5,4Z"/><path d="M556.92,15.37c0-1.24-.65-1.69-1.58-1.69a1.38,1.38,0,0,0-1.42,1.46c0,1.1.92,1.49,2.11,1.85a2.86,2.86,0,0,1,2.34,3,2.81,2.81,0,0,1-2.92,2.92,2.89,2.89,0,0,1-3.06-3.11h1.19a1.8,1.8,0,0,0,1.87,2A1.57,1.57,0,0,0,557.1,20c0-1.19-.83-1.66-2.14-2.07s-2.3-1-2.3-2.79a2.73,2.73,0,0,1,5.46.2Z"/><path d="M561.42,14h-1.37V12.83h1.37V9.73h1.21v3.1H564V14h-1.35v8.66h-1.21Z"/><path d="M566.71,18.09c0,2,.83,3.64,2.48,3.64a2.23,2.23,0,0,0,2.2-1.94h1.19a3.91,3.91,0,0,1-1.22,2.3,3.27,3.27,0,0,1-2.16.77c-2.7,0-3.75-2.59-3.75-5.11,0-3,1.4-5.15,3.71-5.15A3,3,0,0,1,571.79,14a7.12,7.12,0,0,1,.9,4.11ZM571.47,17c0-2-.88-3.4-2.36-3.4s-2.36,1.46-2.39,3.4Z"/><path d="M107.25,47.85H106V44.23c0-.86,0-1.37,0-1.84a2.63,2.63,0,0,1-2.52,2.07c-2.05,0-3.28-2.12-3.28-5.11s1.33-5.15,3.28-5.15a2.58,2.58,0,0,1,2.56,2.11c0-.59,0-1.13,0-1.87h1.15Zm-5.76-8.5c0,2.21.79,3.93,2.29,3.93a1.93,1.93,0,0,0,1.71-1.08,5.46,5.46,0,0,0,.56-2.86,5.38,5.38,0,0,0-.56-2.86,1.93,1.93,0,0,0-1.71-1.08c-1.49,0-2.29,1.71-2.29,3.94Z"/><path d="M116.92,44.23H115.8c0-.56,0-1.1,0-1.71a2.75,2.75,0,0,1-2.74,1.94c-1.67,0-2.81-1-2.81-3.35V34.43h1.21v6.3c0,1,.14,2.54,1.87,2.54,1.42,0,2.34-1,2.34-3v-5.8h1.21Z"/><path d="M120.78,39.69c0,2,.83,3.64,2.49,3.64a2.23,2.23,0,0,0,2.2-1.94h1.19a3.92,3.92,0,0,1-1.22,2.3,3.27,3.27,0,0,1-2.16.77c-2.7,0-3.75-2.59-3.75-5.11,0-3,1.4-5.15,3.71-5.15a3,3,0,0,1,2.63,1.39,7.11,7.11,0,0,1,.9,4.11Zm4.75-1.06c0-2-.88-3.4-2.36-3.4s-2.36,1.46-2.4,3.4Z"/><path d="M137.38,44.23h-1.21l-3-9.79h1.22l2.32,8.17L139,34.43h1.21Z"/><path d="M141.5,39.31c0-2.79,1.15-5.11,3.78-5.11S149,36.52,149,39.33s-1.15,5.13-3.76,5.13-3.78-2.32-3.78-5.13Zm1.26,0c0,2.59.85,4,2.54,4s2.48-1.39,2.48-4-.85-4-2.52-4-2.5,1.39-2.5,4Z"/><path d="M158.19,44.23h-1.12c0-.56,0-1.1,0-1.71a2.75,2.75,0,0,1-2.74,1.94c-1.68,0-2.81-1-2.81-3.35V34.43h1.21v6.3c0,1,.14,2.54,1.87,2.54,1.42,0,2.34-1,2.34-3v-5.8h1.21Z"/><path d="M165.23,37c0-1.24-.65-1.69-1.58-1.69a1.38,1.38,0,0,0-1.42,1.46c0,1.1.92,1.49,2.11,1.85a2.86,2.86,0,0,1,2.34,3,2.81,2.81,0,0,1-2.92,2.92,2.9,2.9,0,0,1-3.06-3.11h1.19a1.79,1.79,0,0,0,1.87,2,1.57,1.57,0,0,0,1.66-1.71c0-1.19-.83-1.66-2.14-2.07s-2.3-1-2.3-2.79a2.73,2.73,0,0,1,5.46.2Z"/><path d="M180.76,40.9c-.22,2-1.3,3.57-3.24,3.57-2.61,0-3.78-2.45-3.78-5.11,0-3.21,1.51-5.15,3.73-5.15,2,0,3.15,1.55,3.24,3.62h-1.22c-.2-1.94-1.13-2.48-2.05-2.48a1.9,1.9,0,0,0-1.78,1,5.81,5.81,0,0,0-.63,3c0,2.57.88,4,2.43,4,1.21,0,1.89-1,2.07-2.43Z"/><path d="M182.52,39.31c0-2.79,1.15-5.11,3.78-5.11s3.76,2.32,3.76,5.13-1.15,5.13-3.76,5.13-3.78-2.32-3.78-5.13Zm1.26,0c0,2.59.85,4,2.54,4s2.48-1.39,2.48-4-.85-4-2.52-4-2.5,1.39-2.5,4Z"/><path d="M192.64,34.43h1.08c0,.56,0,1.06,0,1.67a2.79,2.79,0,0,1,2.77-1.91c1.67,0,2.81,1,2.81,3.35v6.68h-1.21v-6.3c0-1-.14-2.54-1.87-2.54-1.42,0-2.34,1-2.34,3v5.8h-1.21Z"/><path d="M205.29,44.23h-1.21l-3-9.79h1.22l2.32,8.17,2.25-8.17h1.21Z"/><path d="M209.42,39.31c0-2.79,1.15-5.11,3.78-5.11S217,36.52,217,39.33s-1.15,5.13-3.76,5.13-3.78-2.32-3.78-5.13Zm1.26,0c0,2.59.85,4,2.54,4s2.48-1.39,2.48-4-.85-4-2.52-4-2.5,1.39-2.5,4Z"/><path d="M219.68,30.9h1.21v1.76h-1.21Zm0,3.53h1.21v9.79h-1.21Z"/><path d="M224.59,35.57h-1.37V34.43h1.37v-3.1h1.21v3.1h1.35v1.13H225.8v8.66h-1.21Z"/><path d="M229.88,39.69c0,2,.83,3.64,2.49,3.64a2.23,2.23,0,0,0,2.2-1.94h1.19a3.92,3.92,0,0,1-1.22,2.3,3.27,3.27,0,0,1-2.16.77c-2.7,0-3.75-2.59-3.75-5.11,0-3,1.4-5.15,3.71-5.15A3,3,0,0,1,235,35.58a7.11,7.11,0,0,1,.9,4.11Zm4.75-1.06c0-2-.88-3.4-2.36-3.4s-2.36,1.46-2.4,3.4Z"/><path d="M237.6,43.11l4.7-7.54h-4.39V34.43h5.83v1.15l-4.68,7.51h4.84v1.13h-6.3Z"/><path d="M248,44.23h-1.22V42.32H248Z"/><path d="M255,30.9h6.25v1.24h-4.9v4.65h4.9V38h-4.9v5h4.9v1.24H255Z"/><path d="M264.17,34.43h1.08c0,.56,0,1.06,0,1.67A2.79,2.79,0,0,1,268,34.2c1.68,0,2.81,1,2.81,3.35v6.68h-1.21v-6.3c0-1-.14-2.54-1.87-2.54-1.42,0-2.34,1-2.34,3v5.8h-1.21Z"/><path d="M285.34,40.9c-.22,2-1.3,3.57-3.24,3.57-2.61,0-3.78-2.45-3.78-5.11,0-3.21,1.51-5.15,3.73-5.15,2,0,3.15,1.55,3.24,3.62h-1.22c-.2-1.94-1.13-2.48-2.05-2.48a1.9,1.9,0,0,0-1.78,1,5.81,5.81,0,0,0-.63,3c0,2.57.88,4,2.43,4,1.21,0,1.89-1,2.07-2.43Z"/><path d="M294.07,44.23H293c0-.86,0-1.4,0-1.87a2.69,2.69,0,0,1-2.59,2.11c-1.94,0-3.28-2.05-3.28-5.11s1.22-5.15,3.28-5.15A2.64,2.64,0,0,1,293,36.32c0-.59,0-1.15,0-1.89h1.12Zm-5.76-4.88c0,2.21.79,3.93,2.29,3.93a1.93,1.93,0,0,0,1.71-1.08,5.46,5.46,0,0,0,.56-2.86,5.38,5.38,0,0,0-.56-2.86,1.93,1.93,0,0,0-1.71-1.08c-1.49,0-2.29,1.71-2.29,3.94Z"/><path d="M301.11,37c0-1.24-.65-1.69-1.58-1.69a1.38,1.38,0,0,0-1.42,1.46c0,1.1.92,1.49,2.11,1.85a2.86,2.86,0,0,1,2.34,3,2.81,2.81,0,0,1-2.92,2.92,2.9,2.9,0,0,1-3.06-3.11h1.19a1.79,1.79,0,0,0,1.87,2,1.57,1.57,0,0,0,1.66-1.71c0-1.19-.83-1.66-2.14-2.07s-2.3-1-2.3-2.79a2.73,2.73,0,0,1,5.46.2Z"/><path d="M316.64,44.23h-1.12c0-.9,0-1.44,0-1.94A2.67,2.67,0,0,1,313,44.46c-1.94,0-3.28-2.05-3.28-5.11S310.9,34.2,313,34.2a2.57,2.57,0,0,1,2.52,2.07c0-.58,0-1.12,0-1.84V30.9h1.21Zm-5.76-4.9c0,2.21.79,3.93,2.29,3.93a1.93,1.93,0,0,0,1.71-1.08,5.42,5.42,0,0,0,.56-2.86,5.42,5.42,0,0,0-.56-2.86,1.94,1.94,0,0,0-1.71-1.06c-1.5,0-2.29,1.69-2.29,3.93Z"/><path d="M320.51,39.69c0,2,.83,3.64,2.49,3.64a2.23,2.23,0,0,0,2.2-1.94h1.19a3.92,3.92,0,0,1-1.22,2.3,3.27,3.27,0,0,1-2.16.77c-2.7,0-3.75-2.59-3.75-5.11,0-3,1.4-5.15,3.71-5.15a3,3,0,0,1,2.63,1.39,7.11,7.11,0,0,1,.9,4.11Zm4.75-1.06c0-2-.88-3.4-2.36-3.4s-2.36,1.46-2.4,3.4Z"/><path d="M334.12,34.43h1.12c0,.9,0,1.46,0,2.05a2.65,2.65,0,0,1,2.61-2.29v1.4a.81.81,0,0,0-.45-.13c-.83,0-2,1-2,3.49v5.26h-1.21Z"/><path d="M340.38,39.69c0,2,.83,3.64,2.48,3.64a2.23,2.23,0,0,0,2.2-1.94h1.19a3.91,3.91,0,0,1-1.22,2.3,3.27,3.27,0,0,1-2.16.77c-2.7,0-3.75-2.59-3.75-5.11,0-3,1.4-5.15,3.71-5.15a3,3,0,0,1,2.63,1.39,7.12,7.12,0,0,1,.9,4.11Zm4.75-1.06c0-2-.88-3.4-2.36-3.4s-2.36,1.46-2.39,3.4Zm-.38-8.25.5,1-4,2.14-.45-.85Z"/><path d="M348.93,34.43H350c0,.74,0,1.28,0,1.87a2.63,2.63,0,0,1,2.57-2.11c2,0,3.29,2,3.29,5.15s-1.22,5.11-3.29,5.11a2.66,2.66,0,0,1-2.5-2c0,.43,0,.94,0,1.78v3.62h-1.21Zm5.76,4.88c0-2.21-.77-3.93-2.29-3.93a1.88,1.88,0,0,0-1.68,1.08,5.19,5.19,0,0,0-.59,2.86,5.27,5.27,0,0,0,.59,2.86,1.88,1.88,0,0,0,1.68,1.08c1.51,0,2.29-1.71,2.29-3.94Z"/><path d="M357.95,39.31c0-2.79,1.15-5.11,3.78-5.11s3.76,2.32,3.76,5.13-1.15,5.13-3.76,5.13-3.78-2.32-3.78-5.13Zm1.26,0c0,2.59.85,4,2.54,4s2.49-1.39,2.49-4-.85-4-2.52-4-2.5,1.39-2.5,4Z"/><path d="M368.07,34.43h1.08c0,.56,0,1.06,0,1.67a2.79,2.79,0,0,1,2.77-1.91c1.68,0,2.81,1,2.81,3.35v6.68h-1.21v-6.3c0-1-.14-2.54-1.87-2.54-1.42,0-2.34,1-2.34,3v5.8h-1.21Z"/><path d="M381.68,37c0-1.24-.65-1.69-1.58-1.69a1.38,1.38,0,0,0-1.42,1.46c0,1.1.92,1.49,2.11,1.85a2.86,2.86,0,0,1,2.34,3,2.81,2.81,0,0,1-2.92,2.92,2.89,2.89,0,0,1-3.06-3.11h1.19a1.8,1.8,0,0,0,1.87,2,1.57,1.57,0,0,0,1.66-1.71c0-1.19-.83-1.66-2.14-2.07s-2.3-1-2.3-2.79a2.73,2.73,0,0,1,5.46.2Z"/><path d="M386.48,39.69c0,2,.83,3.64,2.48,3.64a2.23,2.23,0,0,0,2.2-1.94h1.19a3.91,3.91,0,0,1-1.22,2.3,3.27,3.27,0,0,1-2.16.77c-2.7,0-3.75-2.59-3.75-5.11,0-3,1.4-5.15,3.71-5.15a3,3,0,0,1,2.63,1.39,7.12,7.12,0,0,1,.9,4.11Zm4.75-1.06c0-2-.88-3.4-2.36-3.4s-2.36,1.46-2.39,3.4Z"/><path d="M406.53,44.23h-1.12c0-.86,0-1.4,0-1.87a2.69,2.69,0,0,1-2.59,2.11c-1.94,0-3.28-2.05-3.28-5.11s1.22-5.15,3.28-5.15a2.64,2.64,0,0,1,2.59,2.12c0-.59,0-1.15,0-1.89h1.12Zm-1.39-11.58-.45.85-4-2.14.5-1Zm-4.38,6.7c0,2.21.79,3.93,2.29,3.93a1.93,1.93,0,0,0,1.71-1.08,5.46,5.46,0,0,0,.56-2.86,5.38,5.38,0,0,0-.56-2.86,1.93,1.93,0,0,0-1.71-1.08c-1.49,0-2.29,1.71-2.29,3.94Z"/><path d="M421.26,44.23h-1.12c0-.56,0-1.1,0-1.71a2.75,2.75,0,0,1-2.74,1.94c-1.67,0-2.81-1-2.81-3.35V34.43h1.21v6.3c0,1,.14,2.54,1.87,2.54,1.42,0,2.34-1,2.34-3v-5.8h1.21Z"/><path d="M424.35,34.43h1.08c0,.56,0,1.06,0,1.67a2.79,2.79,0,0,1,2.77-1.91c1.68,0,2.81,1,2.81,3.35v6.68h-1.21v-6.3c0-1-.14-2.54-1.87-2.54-1.42,0-2.34,1-2.34,3v5.8h-1.21Z"/><path d="M434.79,39.69c0,2,.83,3.64,2.49,3.64a2.23,2.23,0,0,0,2.2-1.94h1.19a3.92,3.92,0,0,1-1.22,2.3,3.28,3.28,0,0,1-2.16.77c-2.7,0-3.75-2.59-3.75-5.11,0-3,1.4-5.15,3.71-5.15a3,3,0,0,1,2.63,1.39,7.12,7.12,0,0,1,.9,4.11Zm4.75-1.06c0-2-.88-3.4-2.36-3.4s-2.36,1.46-2.4,3.4Z"/><path d="M447.88,39.31c0-2.79,1.15-5.11,3.78-5.11s3.76,2.32,3.76,5.13-1.15,5.13-3.76,5.13-3.78-2.32-3.78-5.13Zm1.26,0c0,2.59.85,4,2.54,4s2.49-1.39,2.49-4-.85-4-2.52-4-2.5,1.39-2.5,4Z"/><path d="M458.25,35.57h-1.1V34.43h1.1v-.74a2.71,2.71,0,0,1,2.92-3v1.06c-.9.05-1.71.49-1.71,2.07v.63h1.71v1.13h-1.71v8.66h-1.21Z"/><path d="M463.07,35.57H462V34.43h1.1v-.74a2.71,2.71,0,0,1,2.92-3v1.06c-.9.05-1.71.49-1.71,2.07v.63H466v1.13h-1.71v8.66h-1.21Z"/><path d="M468,34.43h1.12c0,.9,0,1.46,0,2.05a2.65,2.65,0,0,1,2.61-2.29v1.4a.82.82,0,0,0-.45-.13c-.83,0-2,1-2,3.49v5.26H468Z"/><path d="M474.3,39.69c0,2,.83,3.64,2.49,3.64a2.23,2.23,0,0,0,2.2-1.94h1.19a3.92,3.92,0,0,1-1.22,2.3,3.28,3.28,0,0,1-2.16.77c-2.7,0-3.75-2.59-3.75-5.11,0-3,1.4-5.15,3.71-5.15a3,3,0,0,1,2.63,1.39,7.12,7.12,0,0,1,.9,4.11Zm4.75-1.06c0-2-.88-3.4-2.36-3.4s-2.36,1.46-2.4,3.4Z"/><path d="M483.23,45.72h-1.06l1.19-3.4h1.21Z"/><path d="M491.17,34.43h1.12c0,.74,0,1.28,0,1.87a2.64,2.64,0,0,1,2.58-2.11c2,0,3.29,2,3.29,5.15s-1.22,5.11-3.29,5.11a2.66,2.66,0,0,1-2.5-2c0,.43,0,.94,0,1.78v3.62h-1.21Zm5.76,4.88c0-2.21-.77-3.93-2.29-3.93A1.87,1.87,0,0,0,493,36.47a5.18,5.18,0,0,0-.59,2.86,5.26,5.26,0,0,0,.59,2.86,1.87,1.87,0,0,0,1.67,1.08c1.51,0,2.29-1.71,2.29-3.94Z"/><path d="M500.71,34.43h1.12c0,.9,0,1.46,0,2.05a2.66,2.66,0,0,1,2.61-2.29v1.4a.81.81,0,0,0-.45-.13c-.83,0-2,1-2,3.49v5.26h-1.21Z"/><path d="M507,39.69c0,2,.83,3.64,2.49,3.64a2.23,2.23,0,0,0,2.2-1.94h1.19a3.92,3.92,0,0,1-1.22,2.3,3.28,3.28,0,0,1-2.16.77c-2.7,0-3.75-2.59-3.75-5.11,0-3,1.4-5.15,3.71-5.15A3,3,0,0,1,512,35.58a7.12,7.12,0,0,1,.9,4.11Zm4.75-1.06c0-2-.88-3.4-2.36-3.4s-2.36,1.46-2.4,3.4Zm-.38-8.25.5,1-4,2.14-.45-.85Z"/><path d="M522,40.9c-.22,2-1.3,3.57-3.24,3.57-2.61,0-3.78-2.45-3.78-5.11,0-3.21,1.51-5.15,3.73-5.15,2,0,3.15,1.55,3.24,3.62h-1.22c-.2-1.94-1.13-2.48-2.05-2.48a1.9,1.9,0,0,0-1.78,1,5.81,5.81,0,0,0-.63,3c0,2.57.88,4,2.43,4,1.21,0,1.89-1,2.07-2.43Z"/><path d="M524.4,30.9h1.21v1.76H524.4Zm0,3.53h1.21v9.79H524.4Z"/><path d="M532.78,37c0-1.24-.65-1.69-1.58-1.69a1.38,1.38,0,0,0-1.42,1.46c0,1.1.92,1.49,2.11,1.85a2.86,2.86,0,0,1,2.34,3,2.81,2.81,0,0,1-2.92,2.92,2.9,2.9,0,0,1-3.06-3.11h1.19a1.79,1.79,0,0,0,1.87,2A1.57,1.57,0,0,0,533,41.63c0-1.19-.83-1.66-2.14-2.07s-2.3-1-2.3-2.79A2.73,2.73,0,0,1,534,37Z"/><path d="M537.59,39.69c0,2,.83,3.64,2.48,3.64a2.23,2.23,0,0,0,2.2-1.94h1.19a3.91,3.91,0,0,1-1.22,2.3,3.27,3.27,0,0,1-2.16.77c-2.7,0-3.75-2.59-3.75-5.11,0-3,1.4-5.15,3.71-5.15a3,3,0,0,1,2.63,1.39,7.12,7.12,0,0,1,.9,4.11Zm4.75-1.06c0-2-.88-3.4-2.36-3.4s-2.36,1.46-2.39,3.4Z"/><path d="M545.31,43.11l4.7-7.54h-4.39V34.43h5.83v1.15l-4.68,7.51h4.84v1.13h-6.3Z"/><path d="M563,37c0-1.24-.65-1.69-1.58-1.69A1.38,1.38,0,0,0,560,36.74c0,1.1.92,1.49,2.11,1.85a2.86,2.86,0,0,1,2.34,3,2.81,2.81,0,0,1-2.92,2.92,2.9,2.9,0,0,1-3.06-3.11h1.19a1.79,1.79,0,0,0,1.87,2,1.57,1.57,0,0,0,1.66-1.71c0-1.19-.83-1.66-2.14-2.07s-2.3-1-2.3-2.79a2.73,2.73,0,0,1,5.46.2Z"/><path d="M567.18,30.9h1.21v1.76h-1.21Zm0,3.53h1.21v9.79h-1.21Z"/><path d="M202.59,56h1.12c0,.74,0,1.28,0,1.87a2.64,2.64,0,0,1,2.58-2.11c2,0,3.29,2,3.29,5.15s-1.22,5.11-3.29,5.11a2.66,2.66,0,0,1-2.5-2c0,.43,0,.94,0,1.78v3.62h-1.21Zm5.76,4.88c0-2.21-.77-3.93-2.29-3.93a1.87,1.87,0,0,0-1.67,1.08,5.19,5.19,0,0,0-.59,2.86,5.27,5.27,0,0,0,.59,2.86,1.87,1.87,0,0,0,1.67,1.08c1.51,0,2.29-1.71,2.29-3.94Z"/><path d="M211.61,60.91c0-2.79,1.15-5.11,3.78-5.11s3.76,2.32,3.76,5.13-1.15,5.13-3.76,5.13-3.78-2.32-3.78-5.13Zm1.26,0c0,2.59.85,4,2.54,4s2.49-1.39,2.49-4-.85-4-2.52-4-2.5,1.39-2.5,4Z"/><path d="M225.67,58.57c0-1.24-.65-1.69-1.58-1.69a1.38,1.38,0,0,0-1.42,1.46c0,1.1.92,1.49,2.11,1.85a2.86,2.86,0,0,1,2.34,3,2.81,2.81,0,0,1-2.92,2.92,2.9,2.9,0,0,1-3.06-3.11h1.19a1.79,1.79,0,0,0,1.87,2,1.57,1.57,0,0,0,1.66-1.71c0-1.19-.83-1.66-2.14-2.07s-2.3-1-2.3-2.79a2.73,2.73,0,0,1,5.46.2Z"/><path d="M233.65,58.57c0-1.24-.65-1.69-1.58-1.69a1.38,1.38,0,0,0-1.42,1.46c0,1.1.92,1.49,2.11,1.85a2.86,2.86,0,0,1,2.34,3,2.81,2.81,0,0,1-2.92,2.92,2.9,2.9,0,0,1-3.06-3.11h1.19a1.79,1.79,0,0,0,1.87,2,1.57,1.57,0,0,0,1.66-1.71c0-1.19-.83-1.66-2.14-2.07s-2.3-1-2.3-2.79a2.73,2.73,0,0,1,5.46.2Z"/><path d="M237.82,52.5H239v1.76h-1.21Zm0,3.53H239v9.79h-1.21Z"/><path d="M242.27,52.5h1.21V56c0,.86,0,1.4,0,1.87a2.61,2.61,0,0,1,2.5-2.11c2.07,0,3.29,2.12,3.29,5.11s-1.33,5.15-3.29,5.15c-1.13,0-2-.58-2.58-2.12,0,.59,0,1.15,0,1.89h-1.12ZM248,60.91c0-2.11-.74-3.93-2.27-3.93-1.69,0-2.29,2-2.29,3.94s.59,3.94,2.29,3.94c1.53,0,2.27-1.82,2.27-3.94Z"/><path d="M251.95,52.5h1.21V65.83h-1.21Z"/><path d="M257.17,61.29c0,2,.83,3.64,2.48,3.64a2.23,2.23,0,0,0,2.2-1.94H263a3.92,3.92,0,0,1-1.22,2.3,3.28,3.28,0,0,1-2.16.77c-2.7,0-3.74-2.59-3.74-5.11,0-3,1.4-5.15,3.71-5.15a3,3,0,0,1,2.63,1.39,7.13,7.13,0,0,1,.9,4.11Zm4.75-1.06c0-2-.88-3.4-2.36-3.4s-2.36,1.46-2.39,3.4Z"/><path d="M270.92,52.5h1.21V65.83h-1.21Z"/><path d="M281.81,65.83H280.7c0-.86,0-1.4,0-1.87a2.69,2.69,0,0,1-2.59,2.11c-1.95,0-3.28-2.05-3.28-5.11s1.22-5.15,3.28-5.15a2.64,2.64,0,0,1,2.59,2.12c0-.59,0-1.15,0-1.89h1.12Zm-5.76-4.88c0,2.21.79,3.93,2.29,3.93A1.92,1.92,0,0,0,280,63.79a5.46,5.46,0,0,0,.56-2.86,5.38,5.38,0,0,0-.56-2.86A1.92,1.92,0,0,0,278.34,57c-1.49,0-2.29,1.71-2.29,3.94Z"/><path d="M290,56h1.12c0,.9,0,1.46,0,2.05a2.66,2.66,0,0,1,2.61-2.29v1.4a.81.81,0,0,0-.45-.13c-.83,0-2,1-2,3.49v5.26H290Z"/><path d="M296.23,61.29c0,2,.83,3.64,2.49,3.64a2.23,2.23,0,0,0,2.2-1.94h1.19a3.92,3.92,0,0,1-1.22,2.3,3.27,3.27,0,0,1-2.16.77c-2.7,0-3.75-2.59-3.75-5.11,0-3,1.4-5.15,3.71-5.15a3,3,0,0,1,2.63,1.39,7.11,7.11,0,0,1,.9,4.11ZM301,60.23c0-2-.88-3.4-2.36-3.4s-2.36,1.46-2.4,3.4ZM300.61,52l.5,1-4,2.14-.45-.85Z"/><path d="M305,57.17h-1.1V56H305v-.74a2.71,2.71,0,0,1,2.92-3v1.06c-.9.05-1.71.49-1.71,2.07V56h1.71v1.13h-1.71v8.66H305Z"/><path d="M310.4,61.29c0,2,.83,3.64,2.49,3.64a2.23,2.23,0,0,0,2.2-1.94h1.19a3.92,3.92,0,0,1-1.22,2.3,3.27,3.27,0,0,1-2.16.77c-2.7,0-3.75-2.59-3.75-5.11,0-3,1.4-5.15,3.71-5.15a3,3,0,0,1,2.63,1.39,7.11,7.11,0,0,1,.9,4.11Zm4.75-1.06c0-2-.88-3.4-2.36-3.4s-2.36,1.46-2.4,3.4ZM314.77,52l.5,1-4,2.14-.45-.85Z"/><path d="M318.95,56h1.12c0,.9,0,1.46,0,2.05a2.66,2.66,0,0,1,2.61-2.29v1.4a.81.81,0,0,0-.45-.13c-.83,0-2,1-2,3.49v5.26h-1.21Z"/><path d="M325.21,61.29c0,2,.83,3.64,2.49,3.64a2.23,2.23,0,0,0,2.2-1.94h1.19a3.92,3.92,0,0,1-1.22,2.3,3.27,3.27,0,0,1-2.16.77c-2.7,0-3.75-2.59-3.75-5.11,0-3,1.4-5.15,3.71-5.15a3,3,0,0,1,2.63,1.39,7.11,7.11,0,0,1,.9,4.11ZM330,60.23c0-2-.88-3.4-2.36-3.4s-2.36,1.46-2.4,3.4Z"/><path d="M333.76,56h1.08c0,.56,0,1.06,0,1.67a2.79,2.79,0,0,1,2.77-1.91c1.68,0,2.81,1,2.81,3.35v6.68h-1.21v-6.3c0-1-.14-2.54-1.87-2.54-1.42,0-2.34,1-2.34,3v5.8h-1.21Z"/><path d="M349.87,62.5c-.22,2-1.3,3.57-3.24,3.57-2.61,0-3.78-2.45-3.78-5.11,0-3.21,1.51-5.15,3.73-5.15,2,0,3.15,1.55,3.24,3.62h-1.22c-.2-1.94-1.13-2.48-2.05-2.48a1.9,1.9,0,0,0-1.78,1,5.81,5.81,0,0,0-.63,3c0,2.57.88,4,2.43,4,1.21,0,1.89-1,2.07-2.43Z"/><path d="M352.93,61.29c0,2,.83,3.64,2.48,3.64a2.23,2.23,0,0,0,2.2-1.94h1.19a3.91,3.91,0,0,1-1.22,2.3,3.27,3.27,0,0,1-2.16.77c-2.7,0-3.75-2.59-3.75-5.11,0-3,1.4-5.15,3.71-5.15A3,3,0,0,1,358,57.18a7.12,7.12,0,0,1,.9,4.11Zm4.75-1.06c0-2-.88-3.4-2.36-3.4s-2.36,1.46-2.39,3.4Z"/><path d="M373,65.83h-1.12c0-.9,0-1.44,0-1.94a2.67,2.67,0,0,1-2.59,2.18c-1.94,0-3.28-2.05-3.28-5.11s1.22-5.15,3.28-5.15a2.57,2.57,0,0,1,2.52,2.07c0-.58,0-1.12,0-1.84V52.5H373Zm-5.76-4.9c0,2.21.79,3.93,2.29,3.93a1.93,1.93,0,0,0,1.71-1.08,5.42,5.42,0,0,0,.56-2.86,5.42,5.42,0,0,0-.56-2.86A1.94,1.94,0,0,0,369.51,57c-1.49,0-2.29,1.69-2.29,3.93Z"/><path d="M376.85,61.29c0,2,.83,3.64,2.48,3.64a2.23,2.23,0,0,0,2.2-1.94h1.19a3.91,3.91,0,0,1-1.22,2.3,3.27,3.27,0,0,1-2.16.77c-2.7,0-3.75-2.59-3.75-5.11,0-3,1.4-5.15,3.71-5.15a3,3,0,0,1,2.63,1.39,7.12,7.12,0,0,1,.9,4.11Zm4.75-1.06c0-2-.88-3.4-2.36-3.4s-2.36,1.46-2.39,3.4Z"/><path d="M390.6,52.5h1.21V65.83H390.6Z"/><path d="M396.18,52.5h1.31l-1.42,3.4h-1.17Z"/><path d="M406.84,65.83h-1.12c0-.86,0-1.4,0-1.87a2.69,2.69,0,0,1-2.59,2.11c-1.95,0-3.28-2.05-3.28-5.11s1.22-5.15,3.28-5.15a2.64,2.64,0,0,1,2.59,2.12c0-.59,0-1.15,0-1.89h1.12Zm-5.76-4.88c0,2.21.79,3.93,2.29,3.93a1.93,1.93,0,0,0,1.71-1.08,5.46,5.46,0,0,0,.56-2.86,5.38,5.38,0,0,0-.56-2.86A1.93,1.93,0,0,0,403.37,57c-1.49,0-2.29,1.71-2.29,3.94Z"/><path d="M409.94,56H411c0,.56,0,1.06,0,1.67a2.79,2.79,0,0,1,2.77-1.91c1.67,0,2.81,1,2.81,3.35v6.68h-1.21v-6.3c0-1-.14-2.54-1.87-2.54-1.42,0-2.34,1-2.34,3v5.8h-1.21Z"/><path d="M419.6,56h1.08c0,.56,0,1.06,0,1.67a2.79,2.79,0,0,1,2.77-1.91c1.67,0,2.81,1,2.81,3.35v6.68H425v-6.3c0-1-.14-2.54-1.87-2.54-1.42,0-2.34,1-2.34,3v5.8H419.6Z"/><path d="M428.74,60.91c0-2.79,1.15-5.11,3.78-5.11s3.76,2.32,3.76,5.13-1.15,5.13-3.76,5.13-3.78-2.32-3.78-5.13Zm1.26,0c0,2.59.85,4,2.54,4s2.49-1.39,2.49-4-.85-4-2.52-4-2.5,1.39-2.5,4Z"/><path d="M438.86,56h1.08c0,.56,0,1.06,0,1.67a2.79,2.79,0,0,1,2.77-1.91c1.67,0,2.81,1,2.81,3.35v6.68h-1.21v-6.3c0-1-.14-2.54-1.87-2.54-1.42,0-2.34,1-2.34,3v5.8h-1.21Z"/><path d="M455,62.5c-.22,2-1.3,3.57-3.24,3.57-2.61,0-3.78-2.45-3.78-5.11,0-3.21,1.51-5.15,3.73-5.15,2,0,3.15,1.55,3.24,3.62h-1.22c-.2-1.94-1.13-2.48-2.05-2.48a1.9,1.9,0,0,0-1.78,1,5.81,5.81,0,0,0-.63,3c0,2.57.88,4,2.43,4,1.21,0,1.89-1,2.07-2.43Z"/><path d="M458,61.29c0,2,.83,3.64,2.49,3.64a2.23,2.23,0,0,0,2.2-1.94h1.19a3.92,3.92,0,0,1-1.22,2.3,3.28,3.28,0,0,1-2.16.77c-2.7,0-3.75-2.59-3.75-5.11,0-3,1.4-5.15,3.71-5.15a3,3,0,0,1,2.63,1.39,7.12,7.12,0,0,1,.9,4.11Zm4.75-1.06c0-2-.88-3.4-2.36-3.4s-2.36,1.46-2.4,3.4Z"/><path d="M467,67.32H465.9l1.19-3.4h1.21Z"/><path d="M136.86,74.1h1.21v1.76h-1.21Zm0,3.53h1.21v9.79h-1.21Z"/><path d="M141.45,74.1h1.21V87.43h-1.21Z"/><path d="M154.9,80.17c0-1.24-.65-1.69-1.58-1.69a1.38,1.38,0,0,0-1.42,1.46c0,1.1.92,1.49,2.11,1.85a2.86,2.86,0,0,1,2.34,3,2.81,2.81,0,0,1-2.92,2.92,2.89,2.89,0,0,1-3.06-3.11h1.19a1.8,1.8,0,0,0,1.87,2,1.57,1.57,0,0,0,1.66-1.71c0-1.19-.83-1.66-2.14-2.07s-2.3-1-2.3-2.79a2.73,2.73,0,0,1,5.46.2Z"/><path d="M159.7,82.89c0,2,.83,3.64,2.48,3.64a2.23,2.23,0,0,0,2.2-1.94h1.19a3.92,3.92,0,0,1-1.22,2.3,3.28,3.28,0,0,1-2.16.77c-2.7,0-3.74-2.59-3.74-5.11,0-3,1.4-5.15,3.71-5.15a3,3,0,0,1,2.63,1.39,7.13,7.13,0,0,1,.9,4.11Zm4.75-1.06c0-2-.88-3.4-2.36-3.4s-2.36,1.46-2.39,3.4Z"/><path d="M173.31,77.63h1.12c0,.74,0,1.28,0,1.87A2.64,2.64,0,0,1,177,77.4c2,0,3.29,2,3.29,5.15s-1.22,5.11-3.29,5.11a2.66,2.66,0,0,1-2.5-2c0,.43,0,.94,0,1.78V91h-1.21Zm5.76,4.88c0-2.21-.77-3.93-2.29-3.93a1.87,1.87,0,0,0-1.67,1.08,5.19,5.19,0,0,0-.59,2.86,5.27,5.27,0,0,0,.59,2.86,1.87,1.87,0,0,0,1.67,1.08c1.51,0,2.29-1.71,2.29-3.94Z"/><path d="M183.62,82.89c0,2,.83,3.64,2.48,3.64a2.23,2.23,0,0,0,2.2-1.94h1.19a3.91,3.91,0,0,1-1.22,2.3,3.27,3.27,0,0,1-2.16.77c-2.7,0-3.75-2.59-3.75-5.11,0-3,1.4-5.15,3.71-5.15a3,3,0,0,1,2.63,1.39,7.12,7.12,0,0,1,.9,4.11Zm4.75-1.06c0-2-.88-3.4-2.36-3.4s-2.36,1.46-2.39,3.4Z"/><path d="M198.74,87.43h-1.12c0-.56,0-1.1,0-1.71a2.75,2.75,0,0,1-2.74,1.94c-1.67,0-2.81-1-2.81-3.35V77.63h1.21v6.3c0,1,.14,2.54,1.87,2.54,1.42,0,2.34-1,2.34-3v-5.8h1.21Z"/><path d="M202.31,78.77h-1.37V77.63h1.37v-3.1h1.21v3.1h1.35v1.13h-1.35v8.66h-1.21Z"/><path d="M218.56,91h-1.21V87.43c0-.86,0-1.37,0-1.84a2.63,2.63,0,0,1-2.52,2.07c-2.05,0-3.28-2.12-3.28-5.11s1.33-5.15,3.28-5.15a2.58,2.58,0,0,1,2.56,2.11c0-.59,0-1.13,0-1.87h1.15Zm-5.76-8.5c0,2.21.79,3.93,2.29,3.93a1.93,1.93,0,0,0,1.71-1.08,5.46,5.46,0,0,0,.56-2.86,5.38,5.38,0,0,0-.56-2.86,1.93,1.93,0,0,0-1.71-1.08c-1.5,0-2.29,1.71-2.29,3.94Z"/><path d="M228.23,87.43h-1.12c0-.56,0-1.1,0-1.71a2.75,2.75,0,0,1-2.74,1.94c-1.67,0-2.81-1-2.81-3.35V77.63h1.21v6.3c0,1,.14,2.54,1.87,2.54,1.42,0,2.34-1,2.34-3v-5.8h1.21Z"/><path d="M232.1,82.89c0,2,.83,3.64,2.49,3.64a2.23,2.23,0,0,0,2.2-1.94H238a3.92,3.92,0,0,1-1.22,2.3,3.28,3.28,0,0,1-2.16.77c-2.7,0-3.75-2.59-3.75-5.11,0-3,1.4-5.15,3.71-5.15a3,3,0,0,1,2.63,1.39,7.12,7.12,0,0,1,.9,4.11Zm4.75-1.06c0-2-.88-3.4-2.36-3.4s-2.36,1.46-2.4,3.4Z"/><path d="M245.85,74.1h1.21V87.43h-1.21Z"/><path d="M251.43,74.1h1.31l-1.42,3.4h-1.17Z"/><path d="M256.41,82.89c0,2,.83,3.64,2.48,3.64a2.23,2.23,0,0,0,2.2-1.94h1.19a3.92,3.92,0,0,1-1.22,2.3,3.28,3.28,0,0,1-2.16.77c-2.7,0-3.74-2.59-3.74-5.11,0-3,1.4-5.15,3.71-5.15a3,3,0,0,1,2.63,1.39,7.13,7.13,0,0,1,.9,4.11Zm4.75-1.06c0-2-.88-3.4-2.36-3.4s-2.36,1.46-2.39,3.4Z"/><path d="M265,77.63H266c0,.56,0,1.06,0,1.67a2.79,2.79,0,0,1,2.77-1.91c1.67,0,2.81,1,2.81,3.35v6.68h-1.21v-6.3c0-1-.14-2.54-1.87-2.54-1.42,0-2.34,1-2.34,3v5.8H265Z"/><path d="M275.1,78.77h-1.37V77.63h1.37v-3.1h1.21v3.1h1.35v1.13h-1.35v8.66H275.1Z"/><path d="M279.85,77.63H281c0,.9,0,1.46,0,2.05a2.66,2.66,0,0,1,2.61-2.29v1.4a.81.81,0,0,0-.45-.13c-.83,0-2,1-2,3.49v5.26h-1.21Z"/><path d="M286.11,82.89c0,2,.83,3.64,2.49,3.64a2.23,2.23,0,0,0,2.2-1.94H292a3.92,3.92,0,0,1-1.22,2.3,3.28,3.28,0,0,1-2.16.77c-2.7,0-3.75-2.59-3.75-5.11,0-3,1.4-5.15,3.71-5.15a3,3,0,0,1,2.63,1.39,7.12,7.12,0,0,1,.9,4.11Zm4.75-1.06c0-2-.88-3.4-2.36-3.4s-2.36,1.46-2.4,3.4Z"/><path d="M294.66,77.63h1.12c0,.74,0,1.28,0,1.87a2.64,2.64,0,0,1,2.58-2.11c2,0,3.29,2,3.29,5.15s-1.22,5.11-3.29,5.11a2.66,2.66,0,0,1-2.5-2c0,.43,0,.94,0,1.78V91h-1.21Zm5.76,4.88c0-2.21-.77-3.93-2.29-3.93a1.87,1.87,0,0,0-1.67,1.08,5.18,5.18,0,0,0-.59,2.86,5.26,5.26,0,0,0,.59,2.86,1.87,1.87,0,0,0,1.67,1.08c1.51,0,2.29-1.71,2.29-3.94Z"/><path d="M304.2,77.63h1.12c0,.9,0,1.46,0,2.05a2.66,2.66,0,0,1,2.61-2.29v1.4a.81.81,0,0,0-.45-.13c-.83,0-2,1-2,3.49v5.26H304.2Z"/><path d="M310.05,74.1h1.21v1.76h-1.21Zm0,3.53h1.21v9.79h-1.21Z"/><path d="M318.44,80.17c0-1.24-.65-1.69-1.58-1.69a1.38,1.38,0,0,0-1.42,1.46c0,1.1.92,1.49,2.11,1.85a2.86,2.86,0,0,1,2.34,3A2.81,2.81,0,0,1,317,87.66a2.89,2.89,0,0,1-3.06-3.11h1.19a1.8,1.8,0,0,0,1.87,2,1.57,1.57,0,0,0,1.66-1.71c0-1.19-.83-1.66-2.14-2.07s-2.3-1-2.3-2.79a2.73,2.73,0,0,1,5.46.2Z"/><path d="M323.25,82.89c0,2,.83,3.64,2.48,3.64a2.23,2.23,0,0,0,2.2-1.94h1.19a3.91,3.91,0,0,1-1.22,2.3,3.27,3.27,0,0,1-2.16.77c-2.7,0-3.75-2.59-3.75-5.11,0-3,1.4-5.15,3.71-5.15a3,3,0,0,1,2.63,1.39,7.12,7.12,0,0,1,.9,4.11ZM328,81.83c0-2-.88-3.4-2.36-3.4s-2.36,1.46-2.39,3.4Z"/><path d="M336.86,77.63H338c0,.9,0,1.46,0,2.05a2.65,2.65,0,0,1,2.61-2.29v1.4a.82.82,0,0,0-.45-.13c-.83,0-2,1-2,3.49v5.26h-1.21Z"/><path d="M343.12,82.89c0,2,.83,3.64,2.49,3.64a2.23,2.23,0,0,0,2.2-1.94H349a3.92,3.92,0,0,1-1.22,2.3,3.28,3.28,0,0,1-2.16.77c-2.7,0-3.75-2.59-3.75-5.11,0-3,1.4-5.15,3.71-5.15a3,3,0,0,1,2.63,1.39,7.12,7.12,0,0,1,.9,4.11Zm4.75-1.06c0-2-.88-3.4-2.36-3.4s-2.36,1.46-2.4,3.4Z"/><path d="M358.12,84.1c-.22,2-1.3,3.57-3.24,3.57-2.61,0-3.78-2.45-3.78-5.11,0-3.21,1.51-5.15,3.73-5.15,2,0,3.15,1.55,3.24,3.62h-1.22c-.2-1.94-1.13-2.48-2.05-2.48a1.9,1.9,0,0,0-1.78,1,5.8,5.8,0,0,0-.63,3c0,2.57.88,4,2.43,4,1.21,0,1.89-1,2.07-2.43Z"/><path d="M360.4,74.1h1.21v3.46c0,.52,0,1,0,1.62a2.54,2.54,0,0,1,2.63-1.78,2.64,2.64,0,0,1,2.11.88A3.9,3.9,0,0,1,367,81v6.45h-1.21V81.34a3.56,3.56,0,0,0-.45-2.12,1.7,1.7,0,0,0-1.42-.63,2,2,0,0,0-1.73.79,3.67,3.67,0,0,0-.61,2.48v5.56H360.4Z"/><path d="M370.84,82.89c0,2,.83,3.64,2.49,3.64a2.23,2.23,0,0,0,2.2-1.94h1.19a3.92,3.92,0,0,1-1.22,2.3,3.27,3.27,0,0,1-2.16.77c-2.7,0-3.75-2.59-3.75-5.11,0-3,1.4-5.15,3.71-5.15a3,3,0,0,1,2.63,1.39,7.11,7.11,0,0,1,.9,4.11Zm4.75-1.06c0-2-.88-3.4-2.36-3.4s-2.36,1.46-2.4,3.4Z"/><path d="M379.39,77.63h1.12c0,.9,0,1.46,0,2.05a2.66,2.66,0,0,1,2.61-2.29v1.4a.81.81,0,0,0-.45-.13c-.83,0-2,1-2,3.49v5.26h-1.21Z"/><path d="M391.33,84.1c-.22,2-1.3,3.57-3.24,3.57-2.61,0-3.78-2.45-3.78-5.11,0-3.21,1.51-5.15,3.73-5.15,2,0,3.15,1.55,3.24,3.62H390c-.2-1.94-1.13-2.48-2.05-2.48a1.9,1.9,0,0,0-1.78,1,5.8,5.8,0,0,0-.63,3c0,2.57.88,4,2.43,4,1.21,0,1.89-1,2.07-2.43Z"/><path d="M393.61,74.1h1.21v3.46c0,.52,0,1,0,1.62a2.54,2.54,0,0,1,2.63-1.78,2.64,2.64,0,0,1,2.11.88,3.91,3.91,0,0,1,.72,2.7v6.45H399V81.34a3.56,3.56,0,0,0-.45-2.12,1.7,1.7,0,0,0-1.42-.63,2,2,0,0,0-1.73.79,3.67,3.67,0,0,0-.61,2.48v5.56h-1.21Z"/><path d="M404,82.89c0,2,.83,3.64,2.48,3.64a2.23,2.23,0,0,0,2.2-1.94h1.19a3.92,3.92,0,0,1-1.22,2.3,3.28,3.28,0,0,1-2.16.77c-2.7,0-3.74-2.59-3.74-5.11,0-3,1.4-5.15,3.71-5.15a3,3,0,0,1,2.63,1.39,7.13,7.13,0,0,1,.9,4.11Zm4.75-1.06c0-2-.88-3.4-2.36-3.4s-2.36,1.46-2.39,3.4Z"/><path d="M417.66,77.63h1.12c0,.74,0,1.28,0,1.87a2.64,2.64,0,0,1,2.58-2.11c2,0,3.29,2,3.29,5.15s-1.22,5.11-3.29,5.11a2.66,2.66,0,0,1-2.5-2c0,.43,0,.94,0,1.78V91h-1.21Zm5.76,4.88c0-2.21-.77-3.93-2.29-3.93a1.87,1.87,0,0,0-1.67,1.08,5.19,5.19,0,0,0-.59,2.86,5.27,5.27,0,0,0,.59,2.86,1.87,1.87,0,0,0,1.67,1.08c1.51,0,2.29-1.71,2.29-3.94Z"/><path d="M427.34,74.1h1.21V87.43h-1.21Z"/><path d="M438.36,87.43h-1.12c0-.56,0-1.1,0-1.71a2.75,2.75,0,0,1-2.74,1.94c-1.67,0-2.81-1-2.81-3.35V77.63h1.21v6.3c0,1,.14,2.54,1.87,2.54,1.42,0,2.34-1,2.34-3v-5.8h1.21Z"/><path d="M445.4,80.17c0-1.24-.65-1.69-1.58-1.69a1.38,1.38,0,0,0-1.42,1.46c0,1.1.92,1.49,2.11,1.85a2.86,2.86,0,0,1,2.34,3,2.81,2.81,0,0,1-2.92,2.92,2.9,2.9,0,0,1-3.06-3.11H442a1.79,1.79,0,0,0,1.87,2,1.57,1.57,0,0,0,1.66-1.71c0-1.19-.83-1.66-2.14-2.07s-2.3-1-2.3-2.79a2.73,2.73,0,0,1,5.46.2Z"/><path d="M449.57,74.1h1.21v1.76h-1.21Zm0,3.53h1.21v9.79h-1.21Z"/><path d="M454.79,82.89c0,2,.83,3.64,2.48,3.64a2.23,2.23,0,0,0,2.2-1.94h1.19a3.91,3.91,0,0,1-1.22,2.3,3.27,3.27,0,0,1-2.16.77c-2.7,0-3.75-2.59-3.75-5.11,0-3,1.4-5.15,3.71-5.15a3,3,0,0,1,2.63,1.39,7.12,7.12,0,0,1,.9,4.11Zm4.75-1.06c0-2-.88-3.4-2.36-3.4s-2.36,1.46-2.39,3.4Z"/><path d="M469.91,87.43H468.8c0-.56,0-1.1,0-1.71a2.75,2.75,0,0,1-2.74,1.94c-1.68,0-2.81-1-2.81-3.35V77.63h1.21v6.3c0,1,.14,2.54,1.87,2.54,1.42,0,2.34-1,2.34-3v-5.8h1.21Z"/><path d="M473,77.63h1.12c0,.9,0,1.46,0,2.05a2.66,2.66,0,0,1,2.61-2.29v1.4a.81.81,0,0,0-.45-.13c-.83,0-2,1-2,3.49v5.26H473Z"/><path d="M482.8,80.17c0-1.24-.65-1.69-1.58-1.69a1.38,1.38,0,0,0-1.42,1.46c0,1.1.92,1.49,2.11,1.85a2.86,2.86,0,0,1,2.34,3,2.81,2.81,0,0,1-2.92,2.92,2.89,2.89,0,0,1-3.06-3.11h1.19a1.8,1.8,0,0,0,1.87,2A1.57,1.57,0,0,0,483,84.83c0-1.19-.83-1.66-2.14-2.07s-2.3-1-2.3-2.79a2.73,2.73,0,0,1,5.46.2Z"/><path d="M491.89,77.63H493c0,.74,0,1.28,0,1.87a2.64,2.64,0,0,1,2.58-2.11c2,0,3.29,2,3.29,5.15s-1.22,5.11-3.29,5.11a2.66,2.66,0,0,1-2.5-2c0,.43,0,.94,0,1.78V91h-1.21Zm5.76,4.88c0-2.21-.77-3.93-2.29-3.93a1.87,1.87,0,0,0-1.67,1.08,5.19,5.19,0,0,0-.59,2.86,5.27,5.27,0,0,0,.59,2.86,1.87,1.87,0,0,0,1.67,1.08c1.51,0,2.29-1.71,2.29-3.94Z"/><path d="M501.43,77.63h1.12c0,.9,0,1.46,0,2.05a2.65,2.65,0,0,1,2.61-2.29v1.4a.81.81,0,0,0-.45-.13c-.83,0-2,1-2,3.49v5.26h-1.21Z"/><path d="M506.4,82.51c0-2.79,1.15-5.11,3.78-5.11s3.76,2.32,3.76,5.13-1.15,5.13-3.76,5.13-3.78-2.32-3.78-5.13Zm1.26,0c0,2.59.85,4,2.54,4s2.49-1.39,2.49-4-.85-4-2.52-4-2.5,1.39-2.5,4Z"/><path d="M518,78.77v8.66h-1.21V78.77h-1.12V77.63h1.12v-.74a2.71,2.71,0,0,1,2.92-3v1.06c-.9.05-1.71.49-1.71,2.07v.63h3.73v9.79h-1.21V78.77Zm2.52-2.88V74.1h1.21v1.78Z"/><path d="M525.1,74.1h1.21V87.43H525.1Z"/><path d="M533.49,80.17c0-1.24-.65-1.69-1.58-1.69a1.38,1.38,0,0,0-1.42,1.46c0,1.1.92,1.49,2.11,1.85a2.86,2.86,0,0,1,2.34,3A2.81,2.81,0,0,1,532,87.66a2.89,2.89,0,0,1-3.06-3.11h1.19a1.8,1.8,0,0,0,1.87,2,1.57,1.57,0,0,0,1.66-1.71c0-1.19-.83-1.66-2.14-2.07s-2.3-1-2.3-2.79a2.73,2.73,0,0,1,5.46.2Z"/><path d="M539,87.43h-1.22V85.52H539Z"/></g></g></g></svg>