<svg xmlns="http://www.w3.org/2000/svg" viewBox="0 0 327.77 92.55"><defs><style>.cls-1{isolation:isolate;}.cls-2{fill:#7a5d00;opacity:0.22;}.cls-3{fill:#fefeff;}.cls-4{fill:#d8d8d8;mix-blend-mode:multiply;}</style></defs><title>game1b_item3</title><g class="cls-1"><g id="Calque_2" data-name="Calque 2"><g id="Calque_7" data-name="Calque 7"><polygon class="cls-2" points="46.52 92.55 317.31 91.1 321.91 11.84 0 18.13 2.19 59.63 46.52 92.55"/><polygon class="cls-3" points="44.02 83.91 326.51 79.33 327.77 0 5.86 6.29 8.23 55.78 44.02 83.91"/><path d="M91.87,22.76l3.19,0,.19,12.6,4.07-.06,0,2.94-7.26.11Z"/><path d="M101.72,22.61l7.56-.11,0,2.94L105,25.5l0,3,4.37-.07,0,2.94-4.37.07.06,3.74,4.37-.07,0,2.94-7.56.11Z"/><path d="M115.34,33.05c.07,1.62.62,2.36,2,2.34a1.68,1.68,0,0,0,1.78-1.87c0-1.41-1.71-1.72-3.39-2.34s-3.38-1.59-3.42-4.21a4.46,4.46,0,0,1,4.69-4.9c2.88,0,4.49,1.32,5,4.38l-3.11,0a1.65,1.65,0,0,0-1.73-1.78,1.59,1.59,0,0,0-1.59,1.72c0,1.47,1.71,1.72,3.4,2.36s3.38,1.67,3.43,4.63-2.11,4.74-5.07,4.78c-3.55.05-5.13-1.83-5.18-5.11Z"/><path d="M141.92,31.52c0,3.55-1.88,6.35-5.53,6.4-3.4.05-5.67-2.54-5.75-8s2.1-8.1,5.51-8.15c3.76-.06,5.71,2.75,5.72,6.36l-3.27,0c-.13-2.77-.93-3.41-2.15-3.39-1.47,0-2.58,1.36-2.53,5.08s1.21,5,2.68,5c1.66,0,2-1.67,2.05-3.33Z"/><path d="M144,29.73c-.07-4.85,1.77-8.07,5.59-8.13s5.76,3.11,5.83,8-1.77,8.09-5.59,8.15-5.76-3.11-5.83-8Zm3.28,0c.06,3.72.87,5.09,2.51,5.06s2.41-1.42,2.36-5.16-.87-5.11-2.51-5.09-2.41,1.42-2.36,5.16Z"/><path d="M157.35,29.53c-.07-4.85,1.77-8.07,5.59-8.13s5.76,3.11,5.83,8-1.77,8.09-5.59,8.15-5.76-3.11-5.83-8Zm3.28,0c.06,3.72.87,5.09,2.51,5.06s2.41-1.42,2.36-5.16-.87-5.11-2.51-5.09-2.41,1.42-2.36,5.16Z"/><path d="M171.22,21.57l4-.06c2.2,0,3.62.51,4.3,1.3a5.33,5.33,0,0,1,1.31,3.57,5.73,5.73,0,0,1-.43,2.36,4.19,4.19,0,0,1-1.8,2.06l3,6.15-3.57.05-3.54-7.84c.36,0,.55,0,.8,0a2.47,2.47,0,0,0,1.57-.61,2.41,2.41,0,0,0,.67-1.79,2.24,2.24,0,0,0-.76-1.88,2.43,2.43,0,0,0-1.64-.4h-.73l.19,12.6-3.19,0Z"/><path d="M183.4,21.39l4.47-.07a5.53,5.53,0,0,1,4.84,2.22A9.47,9.47,0,0,1,194.33,29c.06,4.24-2,7.8-6.12,7.86l-4.58.07Zm3.38,12.55,1.39,0c2.58,0,2.91-3.24,2.89-4.87a7.25,7.25,0,0,0-.77-3.52,2.44,2.44,0,0,0-2.37-1.27l-1.28,0Z"/><path d="M196.26,28.94c-.07-4.85,1.77-8.07,5.59-8.13s5.76,3.11,5.83,8-1.77,8.09-5.59,8.15-5.76-3.11-5.83-8Zm3.28,0c.06,3.72.87,5.09,2.51,5.06s2.41-1.42,2.36-5.16-.87-5.11-2.51-5.09-2.41,1.42-2.36,5.16Z"/><path d="M217.55,30l-.14-9.13,2.81,0,.23,15.54-2.86,0-4.52-9.89.15,10-2.81,0L210.19,21l3.23,0Z"/><path d="M230.9,29.81l-.14-9.13,2.81,0,.23,15.54-2.86,0-4.52-9.89.15,10-2.81,0-.23-15.54,3.23,0Z"/><path d="M237,20.59l7.56-.11,0,2.94-4.37.07,0,3,4.37-.07,0,2.94-4.37.07.06,3.74,4.37-.07,0,2.94-7.56.11Zm6.46-4.84,1.1,2.23-4.84,2.24-1-1.81Z"/><path d="M248,20.42l7.56-.11,0,2.94-4.37.07,0,3,4.37-.07,0,2.94-4.37.07.06,3.74,4.37-.07,0,2.94-7.56.11Z"/><path d="M261.62,30.86c.07,1.62.62,2.36,2,2.34a1.68,1.68,0,0,0,1.78-1.87c0-1.41-1.71-1.72-3.39-2.34s-3.38-1.59-3.42-4.21a4.46,4.46,0,0,1,4.69-4.9c2.88,0,4.49,1.32,5,4.38l-3.11,0a1.65,1.65,0,0,0-1.73-1.78,1.59,1.59,0,0,0-1.59,1.72c0,1.47,1.71,1.72,3.4,2.36s3.38,1.67,3.43,4.63S266.57,36,263.61,36c-3.55.05-5.13-1.83-5.18-5.11Z"/><path d="M72.06,48.26l4.47-.07a5.53,5.53,0,0,1,4.84,2.22A9.47,9.47,0,0,1,83,55.86c.06,4.24-2,7.8-6.12,7.86l-4.58.07Zm3.38,12.55,1.39,0c2.58,0,2.91-3.24,2.89-4.87a7.25,7.25,0,0,0-.77-3.52,2.44,2.44,0,0,0-2.37-1.27l-1.28,0Z"/><path d="M85.58,48.06l7.56-.11,0,2.94-4.37.07,0,3,4.37-.07,0,2.94-4.37.07L89,60.6l4.37-.07,0,2.94-7.56.11Z"/><path d="M99.59,47.85l3.11,0,2.74,10.65,2.46-10.73,3,0-4,15.6-2.81,0Z"/><path d="M112,55.41c-.07-4.85,1.77-8.07,5.59-8.13s5.76,3.11,5.83,8-1.77,8.09-5.59,8.15-5.76-3.11-5.83-8Zm3.28,0c.06,3.72.87,5.09,2.51,5.06s2.41-1.42,2.36-5.16-.87-5.11-2.51-5.09-2.41,1.42-2.36,5.16Z"/><path d="M127,50.38l-2.6,0,0-2.94,8.4-.13,0,2.94-2.6,0,.19,12.6-3.19,0Z"/><path d="M135.07,47.31l4-.06c2.2,0,3.62.51,4.3,1.3a5.33,5.33,0,0,1,1.31,3.57,5.73,5.73,0,0,1-.43,2.36,4.19,4.19,0,0,1-1.8,2.06l3,6.15-3.57.05-3.54-7.84c.36,0,.55,0,.8,0a2.47,2.47,0,0,0,1.57-.61,2.41,2.41,0,0,0,.67-1.8,2.24,2.24,0,0,0-.76-1.88,2.43,2.43,0,0,0-1.64-.4h-.73l.19,12.6-3.19,0Z"/><path d="M147.42,47.13,155,47,155,50l-4.37.07,0,3,4.37-.07,0,2.94-4.37.07.06,3.74,4.37-.07,0,2.94-7.56.11Z"/><path d="M164.64,46.87l4.47-.07A5.53,5.53,0,0,1,173.95,49a9.47,9.47,0,0,1,1.61,5.46c.06,4.24-2,7.8-6.12,7.86l-4.58.07ZM168,59.42l1.39,0c2.58,0,2.91-3.24,2.89-4.87a7.24,7.24,0,0,0-.77-3.52,2.44,2.44,0,0,0-2.37-1.27l-1.28,0Z"/><path d="M178.16,46.67l7.56-.11,0,2.94-4.37.07,0,3,4.37-.07,0,2.94-4.37.07.06,3.74,4.37-.07,0,2.94-7.56.11Z"/><path d="M191.78,57.11c.07,1.62.62,2.36,2,2.34a1.68,1.68,0,0,0,1.78-1.87c0-1.41-1.71-1.72-3.39-2.34s-3.38-1.59-3.42-4.21a4.46,4.46,0,0,1,4.69-4.9c2.88,0,4.49,1.32,5,4.38l-3.11,0a1.65,1.65,0,0,0-1.73-1.78A1.59,1.59,0,0,0,192,50.49c0,1.47,1.71,1.72,3.4,2.36s3.38,1.67,3.43,4.63-2.11,4.74-5.07,4.78c-3.55.05-5.13-1.83-5.18-5.11Z"/><path d="M203,49.24l-2.6,0,0-2.94,8.4-.13,0,2.94-2.6,0,.19,12.6-3.19,0Z"/><path d="M211.08,46.18l3.19,0,.23,15.54-3.19,0Z"/><path d="M224.87,55.1,224.73,46l2.81,0,.23,15.54-2.86,0-4.52-9.89.15,10-2.81,0-.23-15.54,3.23,0Z"/><path d="M233,61.39l-3.23,0,4-15.6,2.94,0,4.64,15.47-3.23,0-.84-2.95-3.57.05Zm2.35-11-.91,5.1,2,0Z"/><path d="M243.21,48.63l-2.6,0,0-2.94,8.4-.13,0,2.94-2.6,0,.19,12.6-3.19,0Z"/><path d="M251.88,61.1l-3.23,0,4-15.6,2.94,0L260.24,61,257,61l-.84-2.95-3.57.05Zm2.35-11-.91,5.09,2,0Z"/><path d="M261.9,45.41l3.19,0,.23,15.54-3.19,0Z"/><path d="M268.26,45.32l4-.06c2.2,0,3.62.51,4.3,1.3a5.33,5.33,0,0,1,1.31,3.57,5.74,5.74,0,0,1-.43,2.36,4.19,4.19,0,0,1-1.8,2.06l3,6.15-3.57.05-3.54-7.84c.36,0,.55,0,.8,0a2.47,2.47,0,0,0,1.57-.61,2.41,2.41,0,0,0,.67-1.8,2.24,2.24,0,0,0-.76-1.88,2.43,2.43,0,0,0-1.64-.4h-.73l.19,12.6-3.19,0Z"/><path d="M280.61,45.13l7.56-.11,0,2.94-4.37.07,0,3,4.37-.07,0,2.94-4.37.07.06,3.74,4.37-.07,0,2.94-7.56.11Z"/><polygon class="cls-4" points="8.06 55.78 43.85 83.91 41.73 56.88 8.06 55.78"/></g></g></g></svg>