<svg xmlns="http://www.w3.org/2000/svg" viewBox="0 0 1920 1080"><defs><style>.cls-1{isolation:isolate;}.cls-2,.cls-7{fill:#fff;}.cls-2{opacity:0.3;}.cls-3{fill:#666;}.cls-4,.cls-5{fill:none;stroke:#fff;stroke-linecap:round;stroke-miterlimit:10;stroke-width:5px;}.cls-5{stroke-dasharray:1 14.96;}.cls-6{fill:#4e96b3;}.cls-8{fill:#464646;opacity:0.7;mix-blend-mode:soft-light;}</style></defs><title>game4b1</title><g class="cls-1"><g id="contenu"><rect class="cls-2" x="589.01" y="335.35" width="737.63" height="69" rx="8.8" ry="8.8"/><polygon class="cls-2" points="902.24 404.35 958.74 440.35 1013.4 404.35 902.24 404.35"/><path class="cls-3" d="M645,382.76h-6.16l8.08-29.59h5.6l8.4,29.59h-6.16l-1.52-5.64h-6.8ZM653.67,349l-1.84,3.48-9.28-4.12,2-4.28Zm-3.92,12.8-1.88,9.68h3.76Z"/><path class="cls-3" d="M693,390h-5.36v-7.2c0-.64,0-1.28,0-2a4,4,0,0,1-4,2.44c-4.64,0-7.16-4.16-7.16-11.84,0-8.16,3.08-11.84,7.16-11.84,2.12,0,4,1.16,4.24,2.64V360h5Zm-11.08-18.52c0,5,1.12,6.44,2.92,6.44a2.34,2.34,0,0,0,2.12-1c.68-.84.68-1.92.68-5.48s0-4.64-.68-5.48a2.34,2.34,0,0,0-2.12-1c-1.8,0-2.92,1.44-2.92,6.48Z"/><path class="cls-3" d="M714.55,382.76h-4.84v-2.4c-.68,1.84-1.84,2.88-4.64,2.88-3.6,0-5.88-2-5.88-6.6V360h5.36v14.84c0,1.56.36,3,2.24,3,1.4,0,2.4-.72,2.4-2.64V360h5.36Z"/><path class="cls-3" d="M719.71,371.36c0-6.52,2.8-11.8,8.76-11.8s8.76,5.28,8.76,11.84-2.8,11.84-8.76,11.84-8.76-5.28-8.76-11.84Zm5.68.08c0,5.32,1.2,6.76,3.16,6.76,1.8,0,3-1.44,3-6.8s-1.2-6.8-3.16-6.8c-1.8,0-3,1.44-3,6.8Z"/><path class="cls-3" d="M743,353.17h5.36v4.48H743Zm0,6.88h5.36v22.72H743Z"/><path class="cls-3" d="M776.39,366.77c-.08-1.68-.76-2.56-2.4-2.56a1.71,1.71,0,0,0-1.92,1.76c0,1.92,2.56,2.08,5.12,2.88s5.12,2.32,5.12,7c0,4.24-3.36,7.44-8,7.44-4.36,0-7.8-2.4-8.28-7.76h5.36a2.92,2.92,0,0,0,3.08,2.88,2,2,0,0,0,2.2-2.28c0-2-2.56-2.16-5.12-3s-5.12-2.4-5.12-6.92c0-3.8,2.64-6.6,7.76-6.6s7.28,2.8,7.6,7.2Z"/><path class="cls-3" d="M792.07,373.32c0,2.24.6,4.88,3,4.88,1.4,0,2.4-.88,2.8-2.8h5.32c-.44,3.16-1.72,5.2-3.28,6.36a8.31,8.31,0,0,1-4.84,1.48c-6,0-8.76-5.28-8.76-11.84s2.8-11.84,8.76-11.84a7.15,7.15,0,0,1,6.6,3.64c1.68,2.92,1.8,6.64,1.68,10.12Zm5.92-4.56c0-1.36-.2-4.8-2.84-4.8-1.88,0-3.08,1.6-3.08,4.8Z"/><path class="cls-3" d="M808.79,360h4.88v3c.8-2.84,2.8-3.44,5.76-3.44v6.6a4,4,0,0,0-2.36-.68c-2,0-2.92,1.68-2.92,4v13.28h-5.36Z"/><path class="cls-3" d="M824.47,365.08h-2.4v-5h2.4v-4.32h5.36V360h2.4v5h-2.4v17.68h-5.36Z"/><path class="cls-3" d="M849.91,353.17h5.36v29.59h-5.36Z"/><path class="cls-3" d="M877.43,382.76h-4.88V380.6a4.48,4.48,0,0,1-4.4,2.64c-4.08,0-7.16-3.68-7.16-11.84,0-7.68,2.52-11.84,7.16-11.84a4.3,4.3,0,0,1,4.4,2.8V360h4.88Zm-11.08-11.32c0,5,1.12,6.44,2.92,6.44a2.34,2.34,0,0,0,2.12-1c.68-.84.68-1.92.68-5.48s0-4.64-.68-5.48a2.34,2.34,0,0,0-2.12-1c-1.8,0-2.92,1.44-2.92,6.48Z"/><path class="cls-3" d="M897,353.17h5.36v29.59H897Z"/><path class="cls-3" d="M914,373.32c0,2.24.6,4.88,3,4.88,1.4,0,2.4-.88,2.8-2.8h5.32c-.44,3.16-1.72,5.2-3.28,6.36a8.31,8.31,0,0,1-4.84,1.48c-6,0-8.76-5.28-8.76-11.84s2.8-11.84,8.76-11.84a7.15,7.15,0,0,1,6.6,3.64c1.68,2.92,1.8,6.64,1.68,10.12Zm5.92-4.56c0-1.36-.2-4.8-2.84-4.8-1.88,0-3.08,1.6-3.08,4.8Z"/><path class="cls-3" d="M931.27,365.08h-2.4v-5h2.4v-4.32h5.36V360H939v5h-2.4v17.68h-5.36Z"/><path class="cls-3" d="M944,365.08h-2.4v-5H944v-4.32h5.36V360h2.4v5h-2.4v17.68H944Z"/><path class="cls-3" d="M956.15,360H961v3c.8-2.84,2.8-3.44,5.76-3.44v6.6a4,4,0,0,0-2.36-.68c-2,0-2.92,1.68-2.92,4v13.28h-5.36Z"/><path class="cls-3" d="M975.35,373.32c0,2.24.6,4.88,3,4.88,1.4,0,2.4-.88,2.8-2.8h5.32c-.44,3.16-1.72,5.2-3.28,6.36a8.31,8.31,0,0,1-4.84,1.48c-6,0-8.76-5.28-8.76-11.84s2.8-11.84,8.76-11.84a7.15,7.15,0,0,1,6.6,3.64c1.68,2.92,1.8,6.64,1.68,10.12Zm5.92-4.56c0-1.36-.2-4.8-2.84-4.8-1.88,0-3.08,1.6-3.08,4.8Z"/><path class="cls-3" d="M1020.15,382.76h-4.88V380.2a4.27,4.27,0,0,1-4.4,3c-4.08,0-7.16-3.68-7.16-11.84,0-7.68,2.52-11.84,7.16-11.84a4,4,0,0,1,4,2.4c0-.64,0-1.28,0-1.92v-6.88h5.36Zm-11.08-11.32c0,5,1.12,6.44,2.92,6.44a2.34,2.34,0,0,0,2.12-1c.68-.84.68-1.92.68-5.48s0-4.64-.68-5.48a2.34,2.34,0,0,0-2.12-1c-1.8,0-2.92,1.44-2.92,6.48Z"/><path class="cls-3" d="M1031.27,373.32c0,2.24.6,4.88,3,4.88,1.4,0,2.4-.88,2.8-2.8h5.32c-.44,3.16-1.72,5.2-3.28,6.36a8.31,8.31,0,0,1-4.84,1.48c-6,0-8.76-5.28-8.76-11.84s2.8-11.84,8.76-11.84a7.15,7.15,0,0,1,6.6,3.64c1.68,2.92,1.8,6.64,1.68,10.12Zm5.92-4.56c0-1.36-.2-4.8-2.84-4.8-1.88,0-3.08,1.6-3.08,4.8Z"/><path class="cls-3" d="M1061,360h5v2.64c.72-2.24,2.16-3.12,4.64-3.12a5.05,5.05,0,0,1,3.24,1A3.84,3.84,0,0,1,1075,362a4.49,4.49,0,0,1,1.48-1.52,7.17,7.17,0,0,1,3.72-1,6.39,6.39,0,0,1,5.16,2.2,7.47,7.47,0,0,1,1.64,4.84v16.16h-5.36v-15.2a2.83,2.83,0,0,0-.56-2,2.23,2.23,0,0,0-1.8-.6,3,3,0,0,0-1.88.48,2.25,2.25,0,0,0-.72,1.84v15.52h-5.36v-15.2a2.83,2.83,0,0,0-.56-2,2.23,2.23,0,0,0-1.8-.6,3,3,0,0,0-1.88.48,2.25,2.25,0,0,0-.72,1.84v15.52H1061Z"/><path class="cls-3" d="M1092.35,371.36c0-6.52,2.8-11.8,8.76-11.8s8.76,5.28,8.76,11.84-2.8,11.84-8.76,11.84-8.76-5.28-8.76-11.84Zm5.68.08c0,5.32,1.2,6.76,3.16,6.76,1.8,0,3-1.44,3-6.8s-1.2-6.8-3.16-6.8c-1.8,0-3,1.44-3,6.8Z"/><path class="cls-3" d="M1115.59,365.08h-2.4v-5h2.4v-4.32H1121V360h2.4v5H1121v17.68h-5.36Z"/><path class="cls-3" d="M1128.31,353.17h5.36v4.48h-5.36Zm0,6.88h5.36v22.72h-5.36Z"/><path class="cls-3" d="M1149.79,382.76h-4.88L1138.35,360h5.44l3.48,14.56,3-14.56h5.44Z"/><path class="cls-3" d="M1174.79,382.76h-4.88V380.6a4.48,4.48,0,0,1-4.4,2.64c-4.08,0-7.16-3.68-7.16-11.84,0-7.68,2.52-11.84,7.16-11.84a4.3,4.3,0,0,1,4.4,2.8V360h4.88Zm-11.08-11.32c0,5,1.12,6.44,2.92,6.44a2.34,2.34,0,0,0,2.12-1c.68-.84.68-1.92.68-5.48s0-4.64-.68-5.48a2.34,2.34,0,0,0-2.12-1c-1.8,0-2.92,1.44-2.92,6.48Z"/><path class="cls-3" d="M1181.59,365.08h-2.4v-5h2.4v-4.32H1187V360h2.4v5H1187v17.68h-5.36Z"/><path class="cls-3" d="M1194.31,353.17h5.36v4.48h-5.36Zm0,6.88h5.36v22.72h-5.36Z"/><path class="cls-3" d="M1205.39,371.36c0-6.52,2.8-11.8,8.76-11.8s8.76,5.28,8.76,11.84-2.8,11.84-8.76,11.84-8.76-5.28-8.76-11.84Zm5.68.08c0,5.32,1.2,6.76,3.16,6.76,1.8,0,3-1.44,3-6.8s-1.2-6.8-3.16-6.8c-1.8,0-3,1.44-3,6.8Z"/><path class="cls-3" d="M1228.07,360h4.64v2.16c.88-1.6,2-2.64,4.84-2.64,3.6,0,5.88,2,5.88,6.6v16.6h-5.36V367.92c0-1.56-.36-3-2.24-3-1.4,0-2.4.72-2.4,2.64v15.2h-5.36Z"/><path class="cls-3" d="M1266.23,374.76c0-3.2-.6-5.88,1.24-8.24s4.84-3.64,4.84-5.84c0-1.6-1-2.4-2.64-2.4-1.32,0-2.4.88-2.4,2.84v1h-6.08v-1.44c0-5.28,3.44-8,8.76-8,4.76,0,8.6,3.28,8.6,8.24,0,3.36-1.76,5.16-3.44,6.68-3.16,2.8-3,2.64-3,7.16Zm5.92,8h-5.92v-6.08h5.92Z"/><path class="cls-3" d="M803.91,523.89h-4l6.56-23.68h3.68l6.75,23.68h-4l-1.5-5.47h-6.08Zm4.48-18.21-2,9.15h4.1Z"/><path class="cls-3" d="M826,523.89h-3.2L817.54,506h3.52l3.3,12.77,3-12.77h3.49Z"/><path class="cls-3" d="M833.06,514.93c0-5.12,2.18-9.31,6.91-9.31s6.88,4.19,6.88,9.34-2.18,9.31-6.88,9.31-6.91-4.19-6.91-9.31Zm3.65.06c0,4.38,1.18,6,3.3,6s3.2-1.66,3.2-6.08-1.18-6.08-3.3-6.08-3.2,1.63-3.2,6.08Z"/><path class="cls-3" d="M851.53,500.21H855v3.42h-3.46Zm0,5.79H855v17.89h-3.46Z"/><path class="cls-3" d="M860.55,506h3.17c0,1.09,0,2,0,2.88.74-2.72,2.59-3.26,4.64-3.26v4.19a2.59,2.59,0,0,0-1.47-.42c-1.57,0-2.85,1.54-2.85,4.38v10.11h-3.46Z"/><path class="cls-3" d="M893.61,523.89h-3.17c0-.77,0-1.54,0-2.37-.64,1.89-2,2.75-4.16,2.75-2.91,0-4.8-1.63-4.8-5.54V506H885v11.62c0,1.44.29,3.23,2.4,3.23,1.63,0,2.78-1.06,2.78-3.39V506h3.46Z"/><path class="cls-3" d="M898.79,506h3c0,.74,0,1.44,0,2.21a4.18,4.18,0,0,1,4.26-2.59c2.94,0,4.83,1.63,4.83,5.54v12.73h-3.46V512.27c0-1.44-.29-3.2-2.4-3.2-1.66,0-2.78,1-2.78,3.36v11.46h-3.46Z"/><path class="cls-3" d="M928.71,516.14c0,2.5.86,4.9,3.17,4.9,1.5,0,2.53-1,2.88-2.72h3.42a7.28,7.28,0,0,1-2.43,4.7,6.41,6.41,0,0,1-3.87,1.25c-4.77,0-6.88-4.35-6.88-9.31,0-5.31,2.34-9.34,6.85-9.34a5.66,5.66,0,0,1,5.06,2.72c1.38,2.24,1.5,5.12,1.44,7.81Zm6.18-3c0-2-.74-4.67-3-4.67-1.89,0-3.14,1.76-3.14,4.67Z"/><path class="cls-3" d="M942.89,506h3.3c0,.8,0,1.57,0,2.4a3.73,3.73,0,0,1,4-2.78,3.94,3.94,0,0,1,2.78,1,3.5,3.5,0,0,1,.9,1.5,4,4,0,0,1,1.28-1.6,5.66,5.66,0,0,1,3.07-.86,4.8,4.8,0,0,1,4.1,2,7.19,7.19,0,0,1,1.12,4.22v12.1h-3.46V512.3a4.37,4.37,0,0,0-.42-2.24,2,2,0,0,0-1.92-1,2.41,2.41,0,0,0-2,.77,3.54,3.54,0,0,0-.7,2.37v11.68H951.4V512.34a4.58,4.58,0,0,0-.42-2.27,1.94,1.94,0,0,0-1.89-1,2.52,2.52,0,0,0-2,.74,3.73,3.73,0,0,0-.7,2.43v11.65h-3.49Z"/><path class="cls-3" d="M968.65,506h3.17v2.34a3.92,3.92,0,0,1,3.9-2.72c3.36,0,5.79,3.2,5.79,9.34,0,5.82-2.08,9.31-5.79,9.31a3.8,3.8,0,0,1-3.62-2.43v8.06h-3.46Zm9.41,8.93c0-4-1.06-5.86-3-5.86a2.39,2.39,0,0,0-2.11,1.21c-.64.87-.83,2-.83,4.67s.19,3.78.83,4.64a2.36,2.36,0,0,0,2.11,1.25c2,0,3-1.89,3-5.89Z"/><path class="cls-3" d="M986.18,500.21h3.46v23.68h-3.46Z"/><path class="cls-3" d="M994.31,514.93c0-5.12,2.18-9.31,6.91-9.31s6.88,4.19,6.88,9.34-2.18,9.31-6.88,9.31-6.91-4.19-6.91-9.31ZM998,515c0,4.38,1.18,6,3.3,6s3.2-1.66,3.2-6.08-1.18-6.08-3.3-6.08S998,510.51,998,515Z"/><path class="cls-3" d="M1012.77,500.21h3.46v3.42h-3.46Zm0,5.79h3.46v17.89h-3.46Z"/><path class="cls-3" d="M1025.89,523.89h-3.46v-4.22h3.46Z"/><path class="cls-3" d="M803.91,646.07h-4l6.56-23.68h3.68l6.75,23.68h-4l-1.5-5.47h-6.08Zm4.48-18.21-2,9.15h4.1Z"/><path class="cls-3" d="M820.58,622.39H824v3.42h-3.46Zm0,5.79H824v17.89h-3.46Z"/><path class="cls-3" d="M841.57,646.07h-3.17c0-1.06,0-1.82,0-2.59a3.92,3.92,0,0,1-3.94,3c-3.36,0-5.79-3.2-5.79-9.31,0-5.86,2.08-9.34,5.79-9.34a3.67,3.67,0,0,1,3.65,2.59c0-.7,0-1.41,0-2.21v-5.79h3.46Zm-9.41-8.93c0,4,1.09,5.86,3,5.86a2.44,2.44,0,0,0,2.21-1.21c.64-.9.74-2,.74-4.67s-.1-3.78-.74-4.64a2.4,2.4,0,0,0-2.21-1.25c-1.92,0-3,1.89-3,5.89Z"/><path class="cls-3" d="M849.7,638.32c0,2.5.86,4.9,3.17,4.9,1.5,0,2.53-1,2.88-2.72h3.42a7.28,7.28,0,0,1-2.43,4.7,6.41,6.41,0,0,1-3.87,1.25c-4.77,0-6.88-4.35-6.88-9.31,0-5.31,2.34-9.34,6.85-9.34a5.66,5.66,0,0,1,5.06,2.72c1.38,2.24,1.5,5.12,1.44,7.81Zm6.18-3c0-2-.74-4.67-3-4.67-1.89,0-3.14,1.76-3.14,4.67Z"/><path class="cls-3" d="M863.75,628.18h3.17c0,1.09,0,2,0,2.88.74-2.72,2.59-3.26,4.64-3.26V632a2.59,2.59,0,0,0-1.47-.42c-1.57,0-2.85,1.54-2.85,4.38v10.11h-3.46Z"/><path class="cls-3" d="M896.71,646.07h-3.17c0-1,0-1.66,0-2.34a4,4,0,0,1-3.94,2.72c-3.36,0-5.79-3.2-5.79-9.31,0-5.86,2.08-9.34,5.79-9.34a3.91,3.91,0,0,1,3.94,2.82c0-.8,0-1.54,0-2.43h3.17Zm-2.85-21.41-1.18,2.27-7.33-3.49,1.34-2.78Zm-6.56,12.51c0,4,1.09,5.86,3,5.86a2.41,2.41,0,0,0,2.21-1.25c.64-.87.74-2,.74-4.64s-.1-3.81-.74-4.67a2.44,2.44,0,0,0-2.21-1.21c-1.92,0-3,1.86-3,5.89Z"/><path class="cls-3" d="M910.73,637.11c0-5.12,2.18-9.31,6.91-9.31s6.88,4.19,6.88,9.34-2.18,9.31-6.88,9.31-6.91-4.19-6.91-9.31Zm3.65.06c0,4.38,1.18,6,3.3,6s3.2-1.66,3.2-6.08-1.18-6.08-3.3-6.08-3.2,1.63-3.2,6.08Z"/><path class="cls-3" d="M928.8,622.39h3.46v8.13a3.59,3.59,0,0,1,3.62-2.72c3.71,0,5.79,3.49,5.79,9.31,0,6.14-2.43,9.34-5.79,9.34a3.91,3.91,0,0,1-3.9-2.78v2.4H928.8Zm9.41,14.72c0-3.62-.9-5.86-3-5.86-2.56,0-3,2.85-3,5.89s.42,5.89,3,5.89c2.08,0,3-2.27,3-5.89Z"/><path class="cls-3" d="M946.56,631.44h-2.14v-3.26h2.14v-4.26H950v4.26h2.11v3.26H950v14.62h-3.46Z"/><path class="cls-3" d="M958.37,638.32c0,2.5.86,4.9,3.17,4.9,1.5,0,2.53-1,2.88-2.72h3.42a7.28,7.28,0,0,1-2.43,4.7,6.41,6.41,0,0,1-3.87,1.25c-4.77,0-6.88-4.35-6.88-9.31,0-5.31,2.34-9.34,6.85-9.34a5.66,5.66,0,0,1,5.06,2.72c1.38,2.24,1.5,5.12,1.44,7.81Zm6.18-3c0-2-.74-4.67-3-4.67-1.89,0-3.14,1.76-3.14,4.67Z"/><path class="cls-3" d="M972.42,628.18h3c0,.74,0,1.44,0,2.21a4.18,4.18,0,0,1,4.26-2.59c2.94,0,4.83,1.63,4.83,5.54v12.73h-3.46V634.45c0-1.44-.29-3.2-2.4-3.2-1.66,0-2.78,1-2.78,3.36v11.46h-3.46Z"/><path class="cls-3" d="M990.05,622.39h3.46v3.42h-3.46Zm0,5.79h3.46v17.89h-3.46Z"/><path class="cls-3" d="M999.08,628.18h3.17c0,1.09,0,2,0,2.88.74-2.72,2.59-3.26,4.64-3.26V632a2.59,2.59,0,0,0-1.47-.42c-1.57,0-2.85,1.54-2.85,4.38v10.11h-3.46Z"/><path class="cls-3" d="M1032.13,646.07H1029c0-.77,0-1.54,0-2.37-.64,1.89-2,2.75-4.16,2.75-2.91,0-4.8-1.63-4.8-5.54V628.18h3.46V639.8c0,1.44.29,3.23,2.4,3.23,1.63,0,2.78-1.06,2.78-3.39V628.18h3.46Z"/><path class="cls-3" d="M1037.31,628.18h3c0,.74,0,1.44,0,2.21a4.18,4.18,0,0,1,4.26-2.59c2.94,0,4.83,1.63,4.83,5.54v12.73H1046V634.45c0-1.44-.29-3.2-2.4-3.2-1.66,0-2.78,1-2.78,3.36v11.46h-3.46Z"/><path class="cls-3" d="M1067.23,638.32c0,2.5.86,4.9,3.17,4.9,1.5,0,2.53-1,2.88-2.72h3.42a7.28,7.28,0,0,1-2.43,4.7,6.41,6.41,0,0,1-3.87,1.25c-4.77,0-6.88-4.35-6.88-9.31,0-5.31,2.34-9.34,6.85-9.34a5.66,5.66,0,0,1,5.06,2.72c1.38,2.24,1.5,5.12,1.44,7.81Zm6.18-3c0-2-.74-4.67-3-4.67-1.89,0-3.14,1.76-3.14,4.67Z"/><path class="cls-3" d="M1081.28,628.18h3c0,.74,0,1.44,0,2.21a4.18,4.18,0,0,1,4.26-2.59c2.94,0,4.83,1.63,4.83,5.54v12.73h-3.46V634.45c0-1.44-.29-3.2-2.4-3.2-1.66,0-2.78,1-2.78,3.36v11.46h-3.46Z"/><path class="cls-3" d="M1099.14,631.44H1097v-3.26h2.14v-4.26h3.46v4.26h2.11v3.26h-2.11v14.62h-3.46Z"/><path class="cls-3" d="M1108.35,628.18h3.17c0,1.09,0,2,0,2.88.74-2.72,2.59-3.26,4.64-3.26V632a2.59,2.59,0,0,0-1.47-.42c-1.57,0-2.85,1.54-2.85,4.38v10.11h-3.46Z"/><path class="cls-3" d="M1122.11,638.32c0,2.5.86,4.9,3.17,4.9,1.5,0,2.53-1,2.88-2.72h3.42a7.28,7.28,0,0,1-2.43,4.7,6.41,6.41,0,0,1-3.87,1.25c-4.77,0-6.88-4.35-6.88-9.31,0-5.31,2.34-9.34,6.85-9.34a5.66,5.66,0,0,1,5.06,2.72c1.38,2.24,1.5,5.12,1.44,7.81Zm6.18-3c0-2-.74-4.67-3-4.67-1.89,0-3.14,1.76-3.14,4.67Z"/><path class="cls-3" d="M1136.77,631.44h-2.14v-3.26h2.14v-4.26h3.46v4.26h2.11v3.26h-2.11v14.62h-3.46Z"/><path class="cls-3" d="M1146.37,622.39h3.46v3.42h-3.46Zm0,5.79h3.46v17.89h-3.46Z"/><path class="cls-3" d="M1158.34,638.32c0,2.5.86,4.9,3.17,4.9,1.5,0,2.53-1,2.88-2.72h3.42a7.28,7.28,0,0,1-2.43,4.7,6.41,6.41,0,0,1-3.87,1.25c-4.77,0-6.88-4.35-6.88-9.31,0-5.31,2.34-9.34,6.85-9.34a5.66,5.66,0,0,1,5.06,2.72c1.38,2.24,1.5,5.12,1.44,7.81Zm6.18-3c0-2-.74-4.67-3-4.67-1.89,0-3.14,1.76-3.14,4.67Z"/><path class="cls-3" d="M1172.39,628.18h3c0,.74,0,1.44,0,2.21a4.18,4.18,0,0,1,4.26-2.59c2.94,0,4.83,1.63,4.83,5.54v12.73H1181V634.45c0-1.44-.29-3.2-2.4-3.2-1.66,0-2.78,1-2.78,3.36v11.46h-3.46Z"/><path class="cls-3" d="M1193.73,646.07h-3.46v-4.22h3.46Z"/><path class="cls-3" d="M808,749.69a8,8,0,0,1,5.7,1.86,8.16,8.16,0,0,1,0,11.23,8.1,8.1,0,0,1-5.7,1.86h-2v8.74h-3.9V749.69Zm-2,11.33H808a3.79,3.79,0,0,0,3-.9,5,5,0,0,0,0-6,3.92,3.92,0,0,0-2.94-.86h-1.92Z"/><path class="cls-3" d="M820.1,755.49h3.17c0,1.09,0,2,0,2.88.74-2.72,2.59-3.26,4.64-3.26v4.19a2.59,2.59,0,0,0-1.47-.42c-1.57,0-2.85,1.54-2.85,4.38v10.11H820.1Z"/><path class="cls-3" d="M833.86,765.63c0,2.5.86,4.9,3.17,4.9,1.5,0,2.53-1,2.88-2.72h3.42a7.28,7.28,0,0,1-2.43,4.7,6.41,6.41,0,0,1-3.87,1.25c-4.77,0-6.88-4.35-6.88-9.31,0-5.31,2.34-9.34,6.85-9.34a5.66,5.66,0,0,1,5.06,2.72c1.38,2.24,1.5,5.12,1.44,7.81ZM840.81,748l1.34,2.78-7.33,3.49L833.61,752ZM840,762.65c0-2-.74-4.67-3-4.67-1.89,0-3.14,1.76-3.14,4.67Z"/><path class="cls-3" d="M854.82,760.54c0-1.7-.83-2.43-2.27-2.43a1.78,1.78,0,0,0-1.92,1.86c0,1.73,1.89,2,4,2.69s4.13,1.82,4.13,5.44a5.63,5.63,0,0,1-6,5.66c-3.36,0-5.89-1.89-6.18-5.92h3.46a2.67,2.67,0,0,0,2.78,2.78,2.1,2.1,0,0,0,2.24-2.3c0-1.79-1.86-2.21-4-2.91s-4.1-1.89-4.1-5.31c0-2.91,2.08-5,5.7-5s5.41,2,5.6,5.44Z"/><path class="cls-3" d="M865.83,765.63c0,2.5.86,4.9,3.17,4.9,1.5,0,2.53-1,2.88-2.72h3.42a7.28,7.28,0,0,1-2.43,4.7,6.41,6.41,0,0,1-3.87,1.25c-4.77,0-6.88-4.35-6.88-9.31,0-5.31,2.34-9.34,6.85-9.34a5.66,5.66,0,0,1,5.06,2.72c1.38,2.24,1.5,5.12,1.44,7.81Zm6.18-3c0-2-.74-4.67-3-4.67-1.89,0-3.14,1.76-3.14,4.67Z"/><path class="cls-3" d="M879.88,755.49h3c0,.74,0,1.44,0,2.21a4.18,4.18,0,0,1,4.26-2.59c2.94,0,4.83,1.63,4.83,5.54v12.73h-3.46V761.76c0-1.44-.29-3.2-2.4-3.2-1.66,0-2.78,1-2.78,3.36v11.46h-3.46Z"/><path class="cls-3" d="M897.73,758.75h-2.14v-3.26h2.14v-4.26h3.46v4.26h2.11v3.26h-2.11v14.62h-3.46Z"/><path class="cls-3" d="M909.54,765.63c0,2.5.86,4.9,3.17,4.9,1.5,0,2.53-1,2.88-2.72H919a7.28,7.28,0,0,1-2.43,4.7,6.41,6.41,0,0,1-3.87,1.25c-4.77,0-6.88-4.35-6.88-9.31,0-5.31,2.34-9.34,6.85-9.34a5.66,5.66,0,0,1,5.06,2.72c1.38,2.24,1.5,5.12,1.44,7.81Zm6.18-3c0-2-.74-4.67-3-4.67-1.89,0-3.14,1.76-3.14,4.67Z"/><path class="cls-3" d="M923.59,755.49h3.17c0,1.09,0,2,0,2.88.74-2.72,2.59-3.26,4.64-3.26v4.19a2.59,2.59,0,0,0-1.47-.42c-1.57,0-2.85,1.54-2.85,4.38v10.11h-3.46Z"/><path class="cls-3" d="M951.49,760.54c0-1.7-.83-2.43-2.27-2.43A1.78,1.78,0,0,0,947.3,760c0,1.73,1.89,2,4,2.69s4.13,1.82,4.13,5.44a5.63,5.63,0,0,1-6,5.66c-3.36,0-5.89-1.89-6.18-5.92h3.46a2.67,2.67,0,0,0,2.78,2.78,2.1,2.1,0,0,0,2.24-2.3c0-1.79-1.86-2.21-4-2.91s-4.1-1.89-4.1-5.31c0-2.91,2.08-5,5.7-5s5.41,2,5.6,5.44Z"/><path class="cls-3" d="M958.66,764.41c0-5.12,2.18-9.31,6.91-9.31s6.88,4.19,6.88,9.34-2.18,9.31-6.88,9.31-6.91-4.19-6.91-9.31Zm3.65.06c0,4.38,1.18,6,3.3,6s3.2-1.66,3.2-6.08-1.18-6.08-3.3-6.08-3.2,1.63-3.2,6.08Z"/><path class="cls-3" d="M976.74,755.49h3c0,.74,0,1.44,0,2.21A4.18,4.18,0,0,1,984,755.1c2.94,0,4.83,1.63,4.83,5.54v12.73h-3.46V761.76c0-1.44-.29-3.2-2.4-3.2-1.66,0-2.78,1-2.78,3.36v11.46h-3.46Z"/><path class="cls-3" d="M1003.72,755.49h3.17v2.34a3.92,3.92,0,0,1,3.9-2.72c3.36,0,5.79,3.2,5.79,9.34,0,5.82-2.08,9.31-5.79,9.31a3.8,3.8,0,0,1-3.62-2.43v8.06h-3.46Zm9.41,8.93c0-4-1.06-5.86-3-5.86a2.39,2.39,0,0,0-2.11,1.21c-.64.87-.83,2-.83,4.67s.19,3.78.83,4.64a2.36,2.36,0,0,0,2.11,1.25c2,0,3-1.89,3-5.89Z"/><path class="cls-3" d="M1032.84,773.37h-3.17c0-1,0-1.66,0-2.34a4,4,0,0,1-3.94,2.72c-3.36,0-5.79-3.2-5.79-9.31,0-5.86,2.08-9.34,5.79-9.34a3.91,3.91,0,0,1,3.94,2.82c0-.8,0-1.54,0-2.43h3.17Zm-9.41-8.9c0,4,1.09,5.86,3,5.86a2.41,2.41,0,0,0,2.21-1.25c.64-.87.74-2,.74-4.64s-.1-3.81-.74-4.67a2.44,2.44,0,0,0-2.21-1.21c-1.92,0-3,1.86-3,5.89Z"/><path class="cls-3" d="M1038,755.49h3.17c0,1.09,0,2,0,2.88.74-2.72,2.59-3.26,4.64-3.26v4.19a2.59,2.59,0,0,0-1.47-.42c-1.57,0-2.85,1.54-2.85,4.38v10.11H1038Z"/><path class="cls-3" d="M1060.52,766.85c-.13,3.65-2,6.91-5.79,6.91-4.45,0-6.91-3.74-6.91-9.31,0-5.92,2.69-9.34,6.88-9.34,3.81,0,5.73,3.23,5.79,7h-3.58c-.13-2.69-1.12-3.71-2.46-3.71a2.24,2.24,0,0,0-2.18,1.41,10.21,10.21,0,0,0-.8,4.67c0,4.29,1.09,6.08,3,6.08,1.6,0,2.34-1.57,2.46-3.68Z"/><path class="cls-3" d="M1063.43,764.41c0-5.12,2.18-9.31,6.91-9.31s6.88,4.19,6.88,9.34-2.18,9.31-6.88,9.31-6.91-4.19-6.91-9.31Zm3.65.06c0,4.38,1.18,6,3.3,6s3.2-1.66,3.2-6.08-1.18-6.08-3.3-6.08-3.2,1.63-3.2,6.08Z"/><path class="cls-3" d="M1093.57,773.37h-3.17c0-.77,0-1.54,0-2.37-.64,1.89-2,2.75-4.16,2.75-2.91,0-4.8-1.63-4.8-5.54V755.49h3.46V767.1c0,1.44.29,3.23,2.4,3.23,1.63,0,2.78-1.06,2.78-3.39V755.49h3.46Z"/><path class="cls-3" d="M1098.76,755.49h3.17c0,1.09,0,2,0,2.88.74-2.72,2.59-3.26,4.64-3.26v4.19a2.59,2.59,0,0,0-1.47-.42c-1.57,0-2.85,1.54-2.85,4.38v10.11h-3.46Z"/><path class="cls-3" d="M1116.93,760.54c0-1.7-.83-2.43-2.27-2.43a1.78,1.78,0,0,0-1.92,1.86c0,1.73,1.89,2,4,2.69s4.13,1.82,4.13,5.44a5.63,5.63,0,0,1-6,5.66c-3.36,0-5.89-1.89-6.18-5.92h3.46a2.67,2.67,0,0,0,2.78,2.78,2.1,2.1,0,0,0,2.24-2.3c0-1.79-1.86-2.21-4-2.91s-4.1-1.89-4.1-5.31c0-2.91,2.08-5,5.7-5s5.41,2,5.6,5.44Z"/><path class="cls-3" d="M1128.71,773.37h-3.46v-4.22h3.46Z"/></g><g id="etapes_jeu" data-name="etapes jeu"><line class="cls-4" x1="555.81" y1="227.84" x2="556.31" y2="227.84"/><line class="cls-5" x1="571.26" y1="227.84" x2="1361.42" y2="227.84"/><line class="cls-4" x1="1368.89" y1="227.84" x2="1369.39" y2="227.84"/><circle class="cls-6" cx="699.29" cy="227.84" r="39.31"/><path class="cls-7" d="M702.47,202.54V244H709v6.87H689V244h6.53V209.41H689v-6.87Z"/><path class="cls-8" d="M699.29,188.53H699v78.61h.31a39.31,39.31,0,1,0,0-78.63Z"/><circle class="cls-6" cx="835.94" cy="227.84" r="19.32"/><path class="cls-7" d="M830.87,234.06a6.65,6.65,0,0,1,3.19-5.49q3.21-2.29,3.22-3.88V220q0-1.61-1.48-1.61h0q-1.49,0-1.49,1.61v3.18h-3.42V220q0-5,4.91-5t4.92,5v4.74a6.71,6.71,0,0,1-3.21,5.57q-3.21,2.29-3.21,4v1.43h6.41v3.38h-9.84Z"/><path class="cls-8" d="M835.94,208.52h-.15v38.63h.15a19.32,19.32,0,1,0,0-38.63Z"/><circle class="cls-6" cx="972.6" cy="227.84" r="19.32"/><path class="cls-7" d="M973.94,220q0-1.6-1.49-1.61h0q-1.48,0-1.48,1.61v3.18h-3.42V220q0-5,4.91-5t4.92,5v4.13a3.41,3.41,0,0,1-1.88,3.3,3.41,3.41,0,0,1,1.88,3.3v3.79q0,5-4.92,5t-4.91-5v-3.18H971v3.18q0,1.61,1.48,1.61h0q1.49,0,1.49-1.61v-3.79q0-1.29-.54-1.54a2.46,2.46,0,0,0-.9-.12h-1.13v-3.38h1.39a1.45,1.45,0,0,0,.73-.14q.45-.25.45-1.45Z"/><path class="cls-8" d="M972.6,208.52h-.15v38.63h.15a19.32,19.32,0,1,0,0-38.63Z"/><circle class="cls-6" cx="1109.25" cy="227.84" r="19.32"/><path class="cls-7" d="M1113.61,215.41V231h1.32v3.38h-1.32v4.79h-3.42v-4.79h-6.95v-3l6-15.95Zm-7,15.57h3.57V220.89Z"/><path class="cls-8" d="M1109.25,208.52h-.15v38.63h.15a19.32,19.32,0,1,0,0-38.63Z"/><circle class="cls-6" cx="1245.91" cy="227.84" r="19.32"/><path class="cls-7" d="M1247.25,227.8q0-1.26-.53-1.49a2.39,2.39,0,0,0-.93-.13h-.33q-1,0-1.16.93l0,1h-3.42l.51-12.67h9.33v3.38h-6l-.24,5.11a3,3,0,0,1,2.37-1l.42,0a3.57,3.57,0,0,1,2.72,1.44,6,6,0,0,1,.76,3.45v6.74q0,5-4.92,5t-4.91-5v-2.81h3.42v2.81q0,1.61,1.48,1.61h0q1.49,0,1.49-1.61Z"/><path class="cls-8" d="M1245.91,208.52h-.15v38.63h.15a19.32,19.32,0,1,0,0-38.63Z"/></g></g></svg>