<svg xmlns="http://www.w3.org/2000/svg" viewBox="0 0 1920 1080"><defs><style>.cls-1{fill:#8cc63f;}.cls-2{fill:#fff;}</style></defs><title>game4d2</title><g id="contenu"><path class="cls-1" d="M807.22,476.59h237.4a0,0,0,0,1,0,0v60.16A20.59,20.59,0,0,1,1024,557.33H807.22a20.59,20.59,0,0,1-20.59-20.59V497.18A20.59,20.59,0,0,1,807.22,476.59Z"/><path class="cls-1" d="M807.22,597.92h372.39a0,0,0,0,1,0,0v60.16A20.59,20.59,0,0,1,1159,678.66H807.22a20.59,20.59,0,0,1-20.59-20.59V618.51a20.59,20.59,0,0,1,20.59-20.59Z"/><path class="cls-1" d="M807.22,717.22H1209.6a0,0,0,0,1,0,0v60.16A20.59,20.59,0,0,1,1189,798H807.22a20.59,20.59,0,0,1-20.59-20.59V737.81A20.59,20.59,0,0,1,807.22,717.22Z"/><path class="cls-2" d="M802.05,524.89V501.21h5.79L812,518.36l4-17.15h5.79v23.68h-3.49V505.34l-4.8,19.55h-3l-4.93-19.55v19.55Z"/><path class="cls-2" d="M830.12,517.14c0,2.5.86,4.9,3.17,4.9,1.5,0,2.53-1,2.88-2.72h3.42a7.28,7.28,0,0,1-2.43,4.7,6.41,6.41,0,0,1-3.87,1.25c-4.77,0-6.88-4.35-6.88-9.31,0-5.31,2.33-9.34,6.85-9.34a5.66,5.66,0,0,1,5.06,2.72c1.38,2.24,1.5,5.12,1.44,7.81Zm6.18-3c0-2-.74-4.67-3-4.67-1.89,0-3.14,1.76-3.14,4.67Z"/><path class="cls-2" d="M851.08,512.06c0-1.7-.83-2.43-2.27-2.43a1.78,1.78,0,0,0-1.92,1.86c0,1.73,1.89,2,4,2.69S855,516,855,519.61a5.63,5.63,0,0,1-6,5.66c-3.36,0-5.89-1.89-6.17-5.92h3.46a2.67,2.67,0,0,0,2.78,2.78,2.1,2.1,0,0,0,2.24-2.3c0-1.79-1.86-2.21-4-2.91s-4.1-1.89-4.1-5.31c0-2.91,2.08-5,5.7-5s5.41,2,5.6,5.44Z"/><path class="cls-2" d="M868.87,507H872v2.34a3.93,3.93,0,0,1,3.9-2.72c3.36,0,5.79,3.2,5.79,9.34,0,5.82-2.08,9.31-5.79,9.31a3.8,3.8,0,0,1-3.62-2.43v8.06h-3.46Zm9.41,8.93c0-4-1.06-5.86-3-5.86a2.39,2.39,0,0,0-2.11,1.22c-.64.86-.83,2-.83,4.67s.19,3.78.83,4.64a2.36,2.36,0,0,0,2.11,1.25c2,0,3-1.89,3-5.89Z"/><path class="cls-2" d="M885.13,515.93c0-5.12,2.18-9.31,6.91-9.31s6.88,4.19,6.88,9.34-2.18,9.31-6.88,9.31-6.91-4.19-6.91-9.31Zm3.65.06c0,4.38,1.18,6,3.3,6s3.2-1.66,3.2-6.08-1.18-6.08-3.3-6.08-3.2,1.63-3.2,6.08Z"/><path class="cls-2" d="M903.59,501.21H907v3.42h-3.46Zm0,5.79H907v17.89h-3.46Z"/><path class="cls-2" d="M912.61,507h3c0,.74,0,1.44,0,2.21a4.18,4.18,0,0,1,4.26-2.59c2.94,0,4.83,1.63,4.83,5.54v12.73h-3.46V513.27c0-1.44-.29-3.2-2.4-3.2-1.66,0-2.78,1-2.78,3.36v11.46h-3.46Z"/><path class="cls-2" d="M930.47,510.26h-2.14V507h2.14v-4.26h3.46V507H936v3.26h-2.11v14.62h-3.46Z"/><path class="cls-2" d="M946.6,512.06c0-1.7-.83-2.43-2.27-2.43a1.78,1.78,0,0,0-1.92,1.86c0,1.73,1.89,2,4,2.69s4.13,1.82,4.13,5.44a5.63,5.63,0,0,1-6,5.66c-3.36,0-5.89-1.89-6.17-5.92h3.46a2.67,2.67,0,0,0,2.78,2.78,2.1,2.1,0,0,0,2.24-2.3c0-1.79-1.86-2.21-4-2.91s-4.1-1.89-4.1-5.31c0-2.91,2.08-5,5.7-5s5.41,2,5.6,5.44Z"/><path class="cls-2" d="M964.77,510.26H963V507h1.79v-1c0-5,4.19-5.25,6.08-5.25v3c-1.22,0-2.62.32-2.62,2.59V507h2.62v3.26h-2.62v14.62h-3.46Z"/><path class="cls-2" d="M973,515.93c0-5.12,2.18-9.31,6.91-9.31s6.88,4.19,6.88,9.34-2.18,9.31-6.88,9.31S973,521.08,973,516Zm3.65.06c0,4.38,1.18,6,3.3,6s3.2-1.66,3.2-6.08-1.18-6.08-3.3-6.08-3.2,1.63-3.2,6.08Z"/><path class="cls-2" d="M991,507h3.17c0,1.09,0,2,0,2.88.74-2.72,2.59-3.26,4.64-3.26v4.19a2.59,2.59,0,0,0-1.47-.42c-1.57,0-2.85,1.54-2.85,4.38v10.11H991Z"/><path class="cls-2" d="M1003.08,510.26h-2.14V507h2.14v-4.26h3.46V507h2.11v3.26h-2.11v14.62h-3.46Z"/><path class="cls-2" d="M1019.2,512.06c0-1.7-.83-2.43-2.27-2.43a1.78,1.78,0,0,0-1.92,1.86c0,1.73,1.89,2,4,2.69s4.13,1.82,4.13,5.44a5.63,5.63,0,0,1-6,5.66c-3.36,0-5.89-1.89-6.17-5.92h3.46a2.67,2.67,0,0,0,2.78,2.78,2.1,2.1,0,0,0,2.24-2.3c0-1.79-1.86-2.21-4-2.91s-4.1-1.89-4.1-5.31c0-2.91,2.08-5,5.7-5s5.41,2,5.6,5.44Z"/><path class="cls-2" d="M1031,524.89h-3.46v-4.22H1031Z"/><path class="cls-2" d="M802.05,647.07V623.39h5.79L812,640.54l4-17.15h5.79v23.68h-3.49V627.52l-4.8,19.55h-3l-4.93-19.55v19.55Z"/><path class="cls-2" d="M830.12,639.32c0,2.5.86,4.9,3.17,4.9,1.5,0,2.53-1,2.88-2.72h3.42a7.28,7.28,0,0,1-2.43,4.7,6.41,6.41,0,0,1-3.87,1.25c-4.77,0-6.88-4.35-6.88-9.31,0-5.31,2.33-9.34,6.85-9.34a5.66,5.66,0,0,1,5.06,2.72c1.38,2.24,1.5,5.12,1.44,7.81Zm6.18-3c0-2-.74-4.67-3-4.67-1.89,0-3.14,1.76-3.14,4.67Z"/><path class="cls-2" d="M851.08,634.24c0-1.7-.83-2.43-2.27-2.43a1.78,1.78,0,0,0-1.92,1.86c0,1.73,1.89,2,4,2.69s4.13,1.82,4.13,5.44a5.63,5.63,0,0,1-6,5.66c-3.36,0-5.89-1.89-6.17-5.92h3.46a2.67,2.67,0,0,0,2.78,2.78,2.1,2.1,0,0,0,2.24-2.3c0-1.79-1.86-2.21-4-2.91s-4.1-1.89-4.1-5.31c0-2.91,2.08-5,5.7-5s5.41,2,5.6,5.44Z"/><path class="cls-2" d="M875.78,634.24c0-1.7-.83-2.43-2.27-2.43a1.78,1.78,0,0,0-1.92,1.86c0,1.73,1.89,2,4,2.69s4.13,1.82,4.13,5.44a5.63,5.63,0,0,1-6,5.66c-3.36,0-5.89-1.89-6.18-5.92H871a2.67,2.67,0,0,0,2.78,2.78A2.1,2.1,0,0,0,876,642c0-1.79-1.86-2.21-4-2.91s-4.1-1.89-4.1-5.31c0-2.91,2.08-5,5.7-5s5.41,2,5.6,5.44Z"/><path class="cls-2" d="M882.95,638.11c0-5.12,2.18-9.31,6.91-9.31s6.88,4.19,6.88,9.34-2.18,9.31-6.88,9.31-6.91-4.19-6.91-9.31Zm3.65.06c0,4.38,1.18,6,3.3,6s3.2-1.66,3.2-6.08-1.18-6.08-3.3-6.08-3.2,1.63-3.2,6.08Z"/><path class="cls-2" d="M913.09,647.07h-3.17c0-.77,0-1.54,0-2.37-.64,1.89-2,2.75-4.16,2.75-2.91,0-4.8-1.63-4.8-5.54V629.18h3.46V640.8c0,1.44.29,3.23,2.4,3.23,1.63,0,2.78-1.06,2.78-3.39V629.18h3.46Z"/><path class="cls-2" d="M918.28,623.39h3.46v5.5c0,.7,0,1.34,0,2.08.51-1.31,1.63-2.18,3.81-2.18a4.51,4.51,0,0,1,3.65,1.5,6.22,6.22,0,0,1,1.22,4.22v12.54h-3.46V635.55a4.16,4.16,0,0,0-.54-2.43,2,2,0,0,0-1.82-.86,2.49,2.49,0,0,0-2,.83,3.57,3.57,0,0,0-.77,2.62v11.36h-3.46Z"/><path class="cls-2" d="M947.49,647.07h-3.17c0-1,0-1.66,0-2.34a4,4,0,0,1-3.94,2.72c-3.36,0-5.79-3.2-5.79-9.31,0-5.86,2.08-9.34,5.79-9.34a3.91,3.91,0,0,1,3.94,2.82c0-.8,0-1.54,0-2.43h3.17Zm-9.41-8.9c0,4,1.09,5.86,3,5.86a2.4,2.4,0,0,0,2.21-1.25c.64-.86.74-2,.74-4.64s-.1-3.81-.74-4.67a2.44,2.44,0,0,0-2.21-1.22c-1.92,0-3,1.86-3,5.89Z"/><path class="cls-2" d="M953.06,623.39h3.46v3.42h-3.46Zm0,5.79h3.46v17.89h-3.46Z"/><path class="cls-2" d="M962.69,632.44h-2.14v-3.26h2.14v-4.26h3.46v4.26h2.11v3.26h-2.11v14.62h-3.46Z"/><path class="cls-2" d="M978.82,634.24c0-1.7-.83-2.43-2.27-2.43a1.78,1.78,0,0,0-1.92,1.86c0,1.73,1.89,2,4,2.69s4.13,1.82,4.13,5.44a5.63,5.63,0,0,1-6,5.66c-3.36,0-5.89-1.89-6.17-5.92h3.46a2.67,2.67,0,0,0,2.78,2.78,2.1,2.1,0,0,0,2.24-2.3c0-1.79-1.86-2.21-4-2.91s-4.1-1.89-4.1-5.31c0-2.91,2.08-5,5.7-5s5.41,2,5.6,5.44Z"/><path class="cls-2" d="M1008.58,647.07h-3.17c0-1.06,0-1.82,0-2.59a3.92,3.92,0,0,1-3.94,3c-3.36,0-5.79-3.2-5.79-9.31,0-5.86,2.08-9.34,5.79-9.34a3.67,3.67,0,0,1,3.65,2.59c0-.7,0-1.41,0-2.21v-5.79h3.46Zm-9.41-8.93c0,4,1.09,5.86,3,5.86a2.44,2.44,0,0,0,2.21-1.22c.64-.9.74-2,.74-4.67s-.1-3.78-.74-4.64a2.4,2.4,0,0,0-2.21-1.25c-1.92,0-3,1.89-3,5.89Z"/><path class="cls-2" d="M1015.11,623.39h3.68l-3.07,7.26h-3.17Z"/><path class="cls-2" d="M1025.51,639.32c0,2.5.86,4.9,3.17,4.9,1.5,0,2.53-1,2.88-2.72H1035a7.28,7.28,0,0,1-2.43,4.7,6.41,6.41,0,0,1-3.87,1.25c-4.77,0-6.88-4.35-6.88-9.31,0-5.31,2.34-9.34,6.85-9.34a5.66,5.66,0,0,1,5.06,2.72c1.38,2.24,1.5,5.12,1.44,7.81Zm6.94-17.66,1.34,2.78-7.33,3.49-1.22-2.27Zm-.77,14.69c0-2-.74-4.67-3-4.67-1.89,0-3.14,1.76-3.14,4.67Z"/><path class="cls-2" d="M1045.76,647.07h-3.2l-5.28-17.89h3.52l3.3,12.77,3-12.77h3.49Z"/><path class="cls-2" d="M1052.8,638.11c0-5.12,2.18-9.31,6.91-9.31s6.88,4.19,6.88,9.34-2.18,9.31-6.88,9.31-6.91-4.19-6.91-9.31Zm3.65.06c0,4.38,1.18,6,3.3,6s3.2-1.66,3.2-6.08-1.18-6.08-3.3-6.08-3.2,1.63-3.2,6.08Z"/><path class="cls-2" d="M1071.27,623.39h3.46v23.68h-3.46Z"/><path class="cls-2" d="M1092.35,647.07h-3.17c0-.77,0-1.54,0-2.37-.64,1.89-2,2.75-4.16,2.75-2.91,0-4.8-1.63-4.8-5.54V629.18h3.46V640.8c0,1.44.29,3.23,2.4,3.23,1.63,0,2.78-1.06,2.78-3.39V629.18h3.46Z"/><path class="cls-2" d="M1098.15,632.44H1096v-3.26h2.14v-4.26h3.46v4.26h2.11v3.26h-2.11v14.62h-3.46Z"/><path class="cls-2" d="M1107.75,623.39h3.46v3.42h-3.46Zm0,5.79h3.46v17.89h-3.46Z"/><path class="cls-2" d="M1115.88,638.11c0-5.12,2.18-9.31,6.91-9.31s6.88,4.19,6.88,9.34-2.18,9.31-6.88,9.31-6.91-4.19-6.91-9.31Zm3.65.06c0,4.38,1.18,6,3.3,6s3.2-1.66,3.2-6.08-1.18-6.08-3.3-6.08-3.2,1.63-3.2,6.08Z"/><path class="cls-2" d="M1134,629.18h3c0,.74,0,1.44,0,2.21a4.18,4.18,0,0,1,4.26-2.59c2.94,0,4.83,1.63,4.83,5.54v12.74h-3.46V635.45c0-1.44-.29-3.2-2.4-3.2-1.66,0-2.78,1-2.78,3.36v11.46H1134Z"/><path class="cls-2" d="M1155.3,647.07h-3.46v-4.22h3.46Z"/><path class="cls-2" d="M802.05,767.37V743.69h5.79L812,760.85l4-17.15h5.79v23.68h-3.49V747.82l-4.8,19.55h-3l-4.93-19.55v19.55Z"/><path class="cls-2" d="M830.12,759.63c0,2.5.86,4.9,3.17,4.9,1.5,0,2.53-1,2.88-2.72h3.42a7.28,7.28,0,0,1-2.43,4.7,6.41,6.41,0,0,1-3.87,1.25c-4.77,0-6.88-4.35-6.88-9.31,0-5.31,2.33-9.34,6.85-9.34a5.66,5.66,0,0,1,5.06,2.72c1.38,2.24,1.5,5.12,1.44,7.81Zm6.18-3c0-2-.74-4.67-3-4.67-1.89,0-3.14,1.76-3.14,4.67Z"/><path class="cls-2" d="M851.08,754.54c0-1.7-.83-2.43-2.27-2.43a1.78,1.78,0,0,0-1.92,1.86c0,1.73,1.89,2,4,2.69s4.13,1.82,4.13,5.44a5.63,5.63,0,0,1-6,5.66c-3.36,0-5.89-1.89-6.17-5.92h3.46a2.67,2.67,0,0,0,2.78,2.78,2.1,2.1,0,0,0,2.24-2.3c0-1.79-1.86-2.21-4-2.91s-4.1-1.89-4.1-5.31c0-2.91,2.08-5,5.7-5s5.41,2,5.6,5.44Z"/><path class="cls-2" d="M880.84,767.37h-3.17c0-1,0-1.66,0-2.34a4,4,0,0,1-3.94,2.72c-3.36,0-5.79-3.2-5.79-9.31,0-5.86,2.08-9.34,5.79-9.34a3.91,3.91,0,0,1,3.94,2.82c0-.8,0-1.54,0-2.43h3.17Zm-9.41-8.9c0,4,1.09,5.86,3,5.86a2.4,2.4,0,0,0,2.21-1.25c.64-.86.74-2,.74-4.64s-.1-3.81-.74-4.67a2.44,2.44,0,0,0-2.21-1.22c-1.92,0-3,1.86-3,5.89Z"/><path class="cls-2" d="M886,749.49h3.17v2.34a3.92,3.92,0,0,1,3.9-2.72c3.36,0,5.79,3.2,5.79,9.34,0,5.82-2.08,9.31-5.79,9.31a3.8,3.8,0,0,1-3.62-2.43v8.06H886Zm9.41,8.93c0-4-1.06-5.86-3-5.86a2.39,2.39,0,0,0-2.11,1.22c-.64.86-.83,2-.83,4.67s.19,3.78.83,4.64a2.36,2.36,0,0,0,2.11,1.25c2,0,3-1.89,3-5.89Z"/><path class="cls-2" d="M903.78,752.75h-2.14v-3.26h2.14v-4.26h3.46v4.26h2.11v3.26h-2.11v14.62h-3.46Z"/><path class="cls-2" d="M913.38,743.69h3.46v3.42h-3.46Zm0,5.79h3.46v17.89h-3.46Z"/><path class="cls-2" d="M923,752.75h-2.14v-3.26H923v-4.26h3.46v4.26h2.11v3.26h-2.11v14.62H923Z"/><path class="cls-2" d="M944.29,767.37h-3.17c0-.77,0-1.54,0-2.37-.64,1.89-2,2.75-4.16,2.75-2.91,0-4.8-1.63-4.8-5.54V749.49h3.46V761.1c0,1.44.29,3.23,2.4,3.23,1.63,0,2.78-1.06,2.78-3.39V749.49h3.46Z"/><path class="cls-2" d="M961.44,767.37h-3.17c0-1.06,0-1.82,0-2.59a3.92,3.92,0,0,1-3.94,3c-3.36,0-5.79-3.2-5.79-9.31,0-5.86,2.08-9.34,5.79-9.34a3.67,3.67,0,0,1,3.65,2.59c0-.7,0-1.41,0-2.21v-5.79h3.46ZM952,758.45c0,4,1.09,5.86,3,5.86a2.44,2.44,0,0,0,2.21-1.22c.64-.9.74-2,.74-4.67s-.1-3.78-.74-4.64a2.4,2.4,0,0,0-2.21-1.25c-1.92,0-3,1.89-3,5.89Z"/><path class="cls-2" d="M969.57,759.63c0,2.5.86,4.9,3.17,4.9,1.5,0,2.53-1,2.88-2.72H979a7.28,7.28,0,0,1-2.43,4.7,6.41,6.41,0,0,1-3.87,1.25c-4.77,0-6.88-4.35-6.88-9.31,0-5.31,2.33-9.34,6.85-9.34a5.66,5.66,0,0,1,5.06,2.72c1.38,2.24,1.5,5.12,1.44,7.81Zm6.18-3c0-2-.74-4.67-3-4.67-1.89,0-3.14,1.76-3.14,4.67Z"/><path class="cls-2" d="M990.53,754.54c0-1.7-.83-2.43-2.27-2.43a1.78,1.78,0,0,0-1.92,1.86c0,1.73,1.89,2,4,2.69s4.13,1.82,4.13,5.44a5.63,5.63,0,0,1-6,5.66c-3.36,0-5.89-1.89-6.18-5.92h3.46a2.67,2.67,0,0,0,2.78,2.78,2.1,2.1,0,0,0,2.24-2.3c0-1.79-1.86-2.21-4-2.91s-4.1-1.89-4.1-5.31c0-2.91,2.08-5,5.7-5s5.41,2,5.6,5.44Z"/><path class="cls-2" d="M1008.32,749.49h3.17v2.34a3.92,3.92,0,0,1,3.9-2.72c3.36,0,5.79,3.2,5.79,9.34,0,5.82-2.08,9.31-5.79,9.31a3.8,3.8,0,0,1-3.62-2.43v8.06h-3.46Zm9.41,8.93c0-4-1.06-5.86-3-5.86a2.39,2.39,0,0,0-2.11,1.22c-.64.86-.83,2-.83,4.67s.19,3.78.83,4.64a2.36,2.36,0,0,0,2.11,1.25c2,0,3-1.89,3-5.89Z"/><path class="cls-2" d="M1024.58,758.41c0-5.12,2.18-9.31,6.91-9.31s6.88,4.19,6.88,9.34-2.18,9.31-6.88,9.31-6.91-4.19-6.91-9.31Zm3.65.06c0,4.38,1.18,6,3.3,6s3.2-1.66,3.2-6.08-1.18-6.08-3.3-6.08-3.2,1.63-3.2,6.08Z"/><path class="cls-2" d="M1054.72,767.37h-3.17c0-.77,0-1.54,0-2.37-.64,1.89-2,2.75-4.16,2.75-2.91,0-4.8-1.63-4.8-5.54V749.49h3.46V761.1c0,1.44.29,3.23,2.4,3.23,1.63,0,2.78-1.06,2.78-3.39V749.49h3.46Z"/><path class="cls-2" d="M1059.91,749.49h3.17c0,1.09,0,2,0,2.88.74-2.72,2.59-3.26,4.64-3.26v4.19a2.58,2.58,0,0,0-1.47-.42c-1.57,0-2.85,1.54-2.85,4.38v10.11h-3.46Z"/><path class="cls-2" d="M1081.28,743.69h3.46v23.68h-3.46Z"/><path class="cls-2" d="M1093.25,759.63c0,2.5.86,4.9,3.17,4.9,1.5,0,2.53-1,2.88-2.72h3.42a7.28,7.28,0,0,1-2.43,4.7,6.41,6.41,0,0,1-3.87,1.25c-4.77,0-6.88-4.35-6.88-9.31,0-5.31,2.34-9.34,6.85-9.34a5.66,5.66,0,0,1,5.06,2.72c1.38,2.24,1.5,5.12,1.44,7.81Zm6.18-3c0-2-.74-4.67-3-4.67-1.89,0-3.14,1.76-3.14,4.67Z"/><path class="cls-2" d="M1117,749.49h3.17v2.34a3.92,3.92,0,0,1,3.9-2.72c3.36,0,5.79,3.2,5.79,9.34,0,5.82-2.08,9.31-5.79,9.31a3.8,3.8,0,0,1-3.62-2.43v8.06H1117Zm9.41,8.93c0-4-1.06-5.86-3-5.86a2.39,2.39,0,0,0-2.11,1.22c-.64.86-.83,2-.83,4.67s.19,3.78.83,4.64a2.36,2.36,0,0,0,2.11,1.25c2,0,3-1.89,3-5.89Z"/><path class="cls-2" d="M1133.28,758.41c0-5.12,2.18-9.31,6.91-9.31s6.88,4.19,6.88,9.34-2.18,9.31-6.88,9.31-6.91-4.19-6.91-9.31Zm3.65.06c0,4.38,1.18,6,3.3,6s3.2-1.66,3.2-6.08-1.18-6.08-3.3-6.08-3.2,1.63-3.2,6.08Z"/><path class="cls-2" d="M1158.27,754.54c0-1.7-.83-2.43-2.27-2.43a1.78,1.78,0,0,0-1.92,1.86c0,1.73,1.89,2,4,2.69s4.13,1.82,4.13,5.44a5.63,5.63,0,0,1-6,5.66c-3.36,0-5.89-1.89-6.17-5.92h3.46a2.67,2.67,0,0,0,2.78,2.78,2.1,2.1,0,0,0,2.24-2.3c0-1.79-1.86-2.21-4-2.91s-4.1-1.89-4.1-5.31c0-2.91,2.08-5,5.7-5s5.41,2,5.6,5.44Z"/><path class="cls-2" d="M1166.94,752.75h-2.14v-3.26h2.14v-4.26h3.46v4.26h2.11v3.26h-2.11v14.62h-3.46Z"/><path class="cls-2" d="M1178.75,759.63c0,2.5.86,4.9,3.17,4.9,1.5,0,2.53-1,2.88-2.72h3.42a7.28,7.28,0,0,1-2.43,4.7,6.41,6.41,0,0,1-3.87,1.25c-4.77,0-6.88-4.35-6.88-9.31,0-5.31,2.34-9.34,6.85-9.34a5.66,5.66,0,0,1,5.06,2.72c1.38,2.24,1.5,5.12,1.44,7.81Zm6.18-3c0-2-.74-4.67-3-4.67-1.89,0-3.14,1.76-3.14,4.67Z"/><path class="cls-2" d="M1196.51,767.37h-3.46v-4.22h3.46Z"/></g><g id="vignettes_réponses" data-name="vignettes réponses"><polygon class="cls-1" points="356.35 216.42 226.06 184.86 95.76 216.42 95.76 0.14 356.35 0.14 356.35 216.42"/><path class="cls-2" d="M128.16,64.46h9.66q8.89,0,8.89,9.57v6.52q0,6-4.82,7.78l7.1,20.38h-8l-5-19h-.4v19h-7.36Zm7.36,7.05V83.06h.88a5.51,5.51,0,0,0,1.55-.13,2.27,2.27,0,0,0,1.39-2.37V74q0-2.52-2.17-2.52Z"/><path class="cls-2" d="M154.33,64.46h17.33v7.05h-10V83.06h8.58v7.08H161.7v11.54h10v7.05H154.33Zm16.54-5-6.41,4.16h-6.32l7-6.48h5.7Z"/><path class="cls-2" d="M177,64.46h9.66q8.89,0,8.89,9.57v6.52q0,7-6.35,9.09a15.16,15.16,0,0,1-4.38.49h-.46v18.59H177Zm7.36,7.05V83.06h.88a5.51,5.51,0,0,0,1.55-.13,2.27,2.27,0,0,0,1.39-2.37V74q0-2.52-2.17-2.52Z"/><path class="cls-2" d="M220.65,99.86q0,9.55-9.55,9.57t-9.53-9.57V73.33q0-9.55,9.53-9.55t9.55,9.55Zm-7.36-26.53q0-2.48-2.17-2.5h0q-2.14,0-2.14,2.5V99.86q0,2.5,2.17,2.5t2.19-2.5Z"/><path class="cls-2" d="M227.77,64.46H235L240,86.26V64.46h6.9v44.26h-7.27l-4.69-21.2v21.2h-7.12Z"/><path class="cls-2" d="M254,73.33q0-9.55,9.53-9.55T273,73.33v6.28h-7.36V73.33q0-2.48-2.17-2.5h0q-2.14,0-2.14,2.5v3.94q0,2.7,5.66,6.76Q273,88.34,273,94.38v5.48q0,9.57-9.53,9.57T254,99.86V93.58h7.36v6.28q0,2.5,2.19,2.5t2.17-2.5v-5q0-2.94-5.66-7Q254,83.59,254,77.4Z"/><path class="cls-2" d="M280.16,64.46h17.33v7.05h-10V83.06h8.58v7.08h-8.58v11.54h10v7.05H280.16Z"/><path class="cls-2" d="M303.51,73.33q0-9.55,9.53-9.55t9.55,9.55v6.28h-7.36V73.33q0-2.48-2.17-2.5h0q-2.14,0-2.14,2.5v3.94q0,2.7,5.66,6.76,6.06,4.31,6.06,10.35v5.48q0,9.57-9.53,9.57t-9.55-9.57V93.58h7.36v6.28q0,2.5,2.19,2.5t2.17-2.5v-5q0-2.94-5.66-7-6.06-4.31-6.06-10.5Z"/></g></svg>