<svg xmlns="http://www.w3.org/2000/svg" viewBox="0 0 659.25 73.88"><defs><style>.cls-1{isolation:isolate;}.cls-2{fill:#fff;}.cls-3{fill:#4e96b3;stroke:#4e96b3;stroke-miterlimit:10;stroke-width:5px;mix-blend-mode:multiply;}</style></defs><title>game1b_item_zone10_txt</title><g class="cls-1"><g id="Calque_2" data-name="Calque 2"><g id="Calque_9" data-name="Calque 9"><rect class="cls-2" width="384.28" height="73.88" rx="6.31" ry="6.31" transform="translate(384.28 73.88) rotate(180)"/></g><g id="Calque_13" data-name="Calque 13"><circle class="cls-3" cx="323.75" cy="14.06" r="11.25"/><path class="cls-2" d="M318,10.86h-2V8.44h4.54V21.77H318Z"/><path class="cls-2" d="M323.88,12.76c0-2.88,1.69-4.54,4.18-4.54s4.18,1.66,4.18,4.54v4.68c0,2.88-1.69,4.54-4.18,4.54s-4.18-1.66-4.18-4.54Zm2.56,4.5c0,1.53.67,2.23,1.62,2.23s1.62-.7,1.62-2.23V12.94c0-1.53-.67-2.23-1.62-2.23s-1.62.7-1.62,2.23Z"/><path d="M350.59,8.44h2.74v10.8h3.49v2.52h-6.23Z"/><path d="M360.85,21.77h-2.77l3.64-13.32h2.52L368,21.77h-2.77l-.68-2.54H361.5ZM363,12.35l-.85,4.36h1.69Z"/><path d="M377.84,17.57c0,1.39.5,2,1.69,2A1.44,1.44,0,0,0,381.08,18c0-1.21-1.44-1.49-2.88-2.05s-2.88-1.4-2.88-3.66a3.83,3.83,0,0,1,4.09-4.14c2.47,0,3.84,1.19,4.23,3.82H381a1.41,1.41,0,0,0-1.46-1.55,1.36,1.36,0,0,0-1.39,1.46c0,1.26,1.44,1.49,2.88,2.07a3.92,3.92,0,0,1,2.88,4c0,2.5-1.87,4-4.41,4-3,0-4.37-1.64-4.37-4.45Z"/><path d="M386.36,8.44h2.74V21.77h-2.74Z"/><path d="M398.38,13.14a3.15,3.15,0,0,0-.29-1.39,1.64,1.64,0,0,0-1.57-1c-1.44,0-2.18,1.24-2.18,4.39s.68,4.39,2.18,4.39a1.63,1.63,0,0,0,1.46-.76,2.94,2.94,0,0,0,.4-1.71h-2.29V14.51h5.1v2.57c0,2.79-1.78,4.93-4.66,4.93-3.42,0-5-2.59-5-6.91,0-4.14,1.66-6.91,5-6.91,2.79,0,4.5,1.87,4.66,5Z"/><path d="M410,16.28V8.44h2.41V21.77H410l-3.75-8.53v8.53h-2.41V8.44h2.77Z"/><path d="M417.19,21.77h-2.77l3.64-13.32h2.52l3.78,13.32h-2.77l-.68-2.54h-3.06Zm2.16-9.42-.85,4.36h1.69Z"/><path d="M426.39,11h-2.23V8.44h7.2V11h-2.23v10.8h-2.74Z"/><path d="M436.31,8.44v9.07a2.18,2.18,0,0,0,.38,1.46,1.5,1.5,0,0,0,1.28.47,1.56,1.56,0,0,0,1.3-.47,2.29,2.29,0,0,0,.36-1.46V8.44h2.74V18a4,4,0,0,1-1,2.9,5.6,5.6,0,0,1-6.81,0,4.06,4.06,0,0,1-1-2.9V8.44Z"/><path d="M445.32,8.44h3.46c1.89,0,3.1.49,3.67,1.17a4.58,4.58,0,0,1,1.08,3.08,4.91,4.91,0,0,1-.4,2,3.58,3.58,0,0,1-1.57,1.75l2.52,5.31H451L448.1,15c.31,0,.47,0,.68,0a2.12,2.12,0,0,0,1.35-.5,2.07,2.07,0,0,0,.59-1.53,1.92,1.92,0,0,0-.63-1.62,2.09,2.09,0,0,0-1.4-.36h-.63v10.8h-2.74Z"/><path d="M456.18,8.44h6.48V11h-3.75v2.56h3.75V16h-3.75v3.2h3.75v2.52h-6.48Z"/><path d="M474.07,15.61h-2.41V12.94h2.41Zm0,6.16h-2.41V19.1h2.41Z"/><path d="M488.27,19.55V8.44h1.22V21.77H488l-5.51-11.38V21.77h-1.22V8.44h1.62Z"/><path d="M493.78,8.44h1.31l-1.42,3.4H492.5Z"/><path d="M497.47,16.85c0-2.79,1.15-5.11,3.78-5.11S505,14.06,505,16.87,503.86,22,501.25,22s-3.78-2.32-3.78-5.13Zm1.26,0c0,2.59.85,4,2.54,4s2.48-1.39,2.48-4-.85-4-2.52-4-2.5,1.39-2.5,4Z"/><path d="M514.16,21.77H513c0-.56,0-1.1,0-1.71A2.75,2.75,0,0,1,510.34,22c-1.68,0-2.81-1-2.81-3.35V12h1.21v6.3c0,1,.14,2.54,1.87,2.54,1.42,0,2.34-1,2.34-3V12h1.21Z"/><path d="M517.25,8.44h1.21V12c0,.86,0,1.4,0,1.87a2.61,2.61,0,0,1,2.5-2.11c2.07,0,3.29,2.12,3.29,5.11S522.89,22,520.92,22c-1.13,0-2-.58-2.58-2.12,0,.59,0,1.15,0,1.89h-1.12ZM523,16.85c0-2.11-.74-3.93-2.27-3.93-1.69,0-2.29,2-2.29,3.94s.59,3.94,2.29,3.94c1.53,0,2.27-1.82,2.27-3.94Z"/><path d="M526.93,8.44h1.21V21.77h-1.21Z"/><path d="M531.52,8.44h1.21v1.76h-1.21Zm0,3.53h1.21v9.79h-1.21Z"/><path d="M536.74,17.23c0,2,.83,3.64,2.48,3.64a2.23,2.23,0,0,0,2.2-1.94h1.19a3.92,3.92,0,0,1-1.22,2.3,3.28,3.28,0,0,1-2.16.77c-2.7,0-3.74-2.59-3.74-5.11,0-3,1.4-5.15,3.71-5.15a3,3,0,0,1,2.63,1.39,7.13,7.13,0,0,1,.9,4.11Zm4.75-1.06c0-2-.88-3.4-2.36-3.4s-2.36,1.46-2.39,3.4Z"/><path d="M544.47,20.65l4.7-7.54h-4.39V12h5.83v1.15l-4.68,7.51h4.84v1.13h-6.3Z"/><path d="M558.22,12h1.12c0,.74,0,1.28,0,1.87a2.63,2.63,0,0,1,2.57-2.11c2,0,3.29,2,3.29,5.15S564,22,561.89,22a2.66,2.66,0,0,1-2.5-2c0,.43,0,.94,0,1.78v3.62h-1.21ZM564,16.85c0-2.21-.78-3.93-2.29-3.93A1.87,1.87,0,0,0,560,14a5.18,5.18,0,0,0-.59,2.86,5.26,5.26,0,0,0,.59,2.86,1.87,1.87,0,0,0,1.67,1.08c1.51,0,2.29-1.71,2.29-3.94Z"/><path d="M574.2,21.77h-1.12c0-.86,0-1.4,0-1.87A2.69,2.69,0,0,1,570.51,22c-1.94,0-3.28-2.05-3.28-5.11s1.22-5.15,3.28-5.15a2.64,2.64,0,0,1,2.59,2.12c0-.59,0-1.15,0-1.89h1.12Zm-5.76-4.88c0,2.21.79,3.93,2.29,3.93a1.93,1.93,0,0,0,1.71-1.08,5.46,5.46,0,0,0,.56-2.86,5.38,5.38,0,0,0-.56-2.86,1.93,1.93,0,0,0-1.71-1.08c-1.49,0-2.29,1.71-2.29,3.94Z"/><path d="M581.24,14.51c0-1.24-.65-1.69-1.58-1.69a1.38,1.38,0,0,0-1.42,1.46c0,1.1.92,1.49,2.11,1.85a2.86,2.86,0,0,1,2.34,3A2.81,2.81,0,0,1,579.77,22a2.9,2.9,0,0,1-3.06-3.11h1.19a1.79,1.79,0,0,0,1.87,2,1.57,1.57,0,0,0,1.66-1.71c0-1.19-.83-1.66-2.14-2.07s-2.3-1-2.3-2.79a2.73,2.73,0,0,1,5.46.2Z"/><path d="M596.78,21.77h-1.12c0-.9,0-1.44,0-1.94A2.67,2.67,0,0,1,593.08,22c-1.94,0-3.28-2.05-3.28-5.11s1.22-5.15,3.28-5.15a2.58,2.58,0,0,1,2.52,2.07c0-.58,0-1.12,0-1.84V8.44h1.21ZM591,16.87c0,2.21.79,3.93,2.29,3.93A1.93,1.93,0,0,0,595,19.71a5.42,5.42,0,0,0,.56-2.86A5.42,5.42,0,0,0,595,14a1.94,1.94,0,0,0-1.71-1.06c-1.5,0-2.29,1.69-2.29,3.93Z"/><path d="M600.64,17.23c0,2,.83,3.64,2.49,3.64a2.23,2.23,0,0,0,2.2-1.94h1.19a3.92,3.92,0,0,1-1.22,2.3,3.28,3.28,0,0,1-2.16.77c-2.7,0-3.75-2.59-3.75-5.11,0-3,1.4-5.15,3.71-5.15a3,3,0,0,1,2.63,1.39,7.12,7.12,0,0,1,.9,4.11Zm4.75-1.06c0-2-.88-3.4-2.36-3.4s-2.36,1.46-2.4,3.4Z"/><path d="M618.19,14.51c0-1.24-.65-1.69-1.58-1.69a1.38,1.38,0,0,0-1.42,1.46c0,1.1.92,1.49,2.11,1.85a2.86,2.86,0,0,1,2.34,3A2.81,2.81,0,0,1,616.72,22a2.9,2.9,0,0,1-3.06-3.11h1.19a1.79,1.79,0,0,0,1.87,2,1.57,1.57,0,0,0,1.66-1.71c0-1.19-.83-1.66-2.14-2.07s-2.3-1-2.3-2.79a2.73,2.73,0,0,1,5.46.2Z"/><path d="M622.37,8.44h1.21v1.76h-1.21Zm0,3.53h1.21v9.79h-1.21Z"/><path d="M633.26,21.59a4.3,4.3,0,0,1-.83,2.94,3.27,3.27,0,0,1-2.63,1.08,3.2,3.2,0,0,1-3.29-3.08h1.22a2.12,2.12,0,0,0,.56,1.37,2.17,2.17,0,0,0,1.57.59c1,0,2.21-.47,2.21-2.81,0-.47,0-1.1,0-1.75A2.55,2.55,0,0,1,629.57,22c-2.11,0-3.28-2.12-3.28-5.11s1.17-5.15,3.28-5.15c1.15,0,2.05.54,2.65,2.12,0-.59,0-1.15,0-1.89h1.06Zm-5.76-4.7c0,2.21.79,3.93,2.29,3.93a1.92,1.92,0,0,0,1.71-1.08,5.46,5.46,0,0,0,.56-2.86A5.38,5.38,0,0,0,631.5,14a1.92,1.92,0,0,0-1.71-1.08c-1.49,0-2.29,1.71-2.29,3.94Z"/><path d="M636.36,12h1.08c0,.56,0,1.06,0,1.67a2.79,2.79,0,0,1,2.77-1.91c1.67,0,2.81,1,2.81,3.35v6.68h-1.21v-6.3c0-1-.14-2.54-1.87-2.54-1.42,0-2.34,1-2.34,3v5.8h-1.21Z"/><path d="M646.8,17.23c0,2,.83,3.64,2.48,3.64a2.23,2.23,0,0,0,2.2-1.94h1.19a3.92,3.92,0,0,1-1.22,2.3,3.28,3.28,0,0,1-2.16.77c-2.7,0-3.74-2.59-3.74-5.11,0-3,1.4-5.15,3.71-5.15a3,3,0,0,1,2.63,1.39,7.13,7.13,0,0,1,.9,4.11Zm4.75-1.06c0-2-.88-3.4-2.36-3.4s-2.36,1.46-2.39,3.4Z"/><path d="M655.35,12h1.12c0,.9,0,1.46,0,2.05A2.66,2.66,0,0,1,659,11.74v1.4a.81.81,0,0,0-.45-.13c-.83,0-2,1-2,3.49v5.26h-1.21Z"/><path d="M281.83,43.37h-1.21l-3-9.79h1.22l2.32,8.17,2.25-8.17h1.21Z"/><path d="M286,38.45c0-2.79,1.15-5.11,3.78-5.11s3.76,2.32,3.76,5.13-1.15,5.13-3.76,5.13S286,41.28,286,38.47Zm1.26,0c0,2.59.85,4,2.54,4s2.49-1.39,2.49-4-.85-4-2.52-4-2.5,1.39-2.5,4Z"/><path d="M296.54,34.71h-1.37V33.57h1.37v-3.1h1.21v3.1h1.35v1.13h-1.35v8.66h-1.21Z"/><path d="M301.29,33.57h1.12c0,.9,0,1.46,0,2.05A2.66,2.66,0,0,1,305,33.34v1.4a.81.81,0,0,0-.45-.13c-.83,0-2,1-2,3.49v5.26h-1.21Z"/><path d="M307.55,38.83c0,2,.83,3.64,2.49,3.64a2.23,2.23,0,0,0,2.2-1.94h1.19a3.92,3.92,0,0,1-1.22,2.3,3.27,3.27,0,0,1-2.16.77c-2.7,0-3.75-2.59-3.75-5.11,0-3,1.4-5.15,3.71-5.15a3,3,0,0,1,2.63,1.39,7.11,7.11,0,0,1,.9,4.11Zm4.75-1.06c0-2-.88-3.4-2.36-3.4s-2.36,1.46-2.4,3.4Z"/><path d="M321.3,30h1.21V43.37H321.3Z"/><path d="M326.52,38.83c0,2,.83,3.64,2.49,3.64a2.23,2.23,0,0,0,2.2-1.94h1.19a3.92,3.92,0,0,1-1.22,2.3,3.28,3.28,0,0,1-2.16.77c-2.7,0-3.75-2.59-3.75-5.11,0-3,1.4-5.15,3.71-5.15a3,3,0,0,1,2.63,1.39,7.12,7.12,0,0,1,.9,4.11Zm4.75-1.06c0-2-.88-3.4-2.36-3.4s-2.36,1.46-2.4,3.4Z"/><path d="M335.54,34.71h-1.37V33.57h1.37v-3.1h1.21v3.1h1.35v1.13h-1.35v8.66h-1.21Z"/><path d="M340.76,34.71h-1.37V33.57h1.37v-3.1H342v3.1h1.35v1.13H342v8.66h-1.21Z"/><path d="M345.51,33.57h1.12c0,.9,0,1.46,0,2.05a2.66,2.66,0,0,1,2.61-2.29v1.4a.81.81,0,0,0-.45-.13c-.83,0-2,1-2,3.49v5.26h-1.21Z"/><path d="M351.78,38.83c0,2,.83,3.64,2.49,3.64a2.23,2.23,0,0,0,2.2-1.94h1.19a3.92,3.92,0,0,1-1.22,2.3,3.28,3.28,0,0,1-2.16.77c-2.7,0-3.75-2.59-3.75-5.11,0-3,1.4-5.15,3.71-5.15a3,3,0,0,1,2.63,1.39,7.12,7.12,0,0,1,.9,4.11Zm4.75-1.06c0-2-.88-3.4-2.36-3.4s-2.36,1.46-2.4,3.4Z"/><path d="M361.79,43.37h-1.22V41.46h1.22Z"/><path d="M369.42,39.69c.16,2.07,1.39,2.72,2.4,2.72a2.42,2.42,0,0,0,2.52-2.59c0-2-1.66-2.39-3-2.83-1.13-.4-3-1.06-3-3.46a3.39,3.39,0,0,1,3.51-3.75c2,0,3.26,1,3.56,3.39h-1.3a2.2,2.2,0,0,0-2.23-2.23,2.14,2.14,0,0,0-2.18,2.36c0,1.75,1.33,2.16,3,2.72a3.84,3.84,0,0,1-.88,7.58c-2.09,0-3.67-1.26-3.75-3.91Z"/><path d="M384.83,43.37h-1.12c0-.56,0-1.1,0-1.71A2.75,2.75,0,0,1,381,43.6c-1.67,0-2.81-1-2.81-3.35V33.57h1.21v6.3c0,1,.14,2.54,1.87,2.54,1.42,0,2.34-1,2.34-3v-5.8h1.21Z"/><path d="M387.92,33.57H389c0,.9,0,1.46,0,2.05a2.65,2.65,0,0,1,2.61-2.29v1.4a.82.82,0,0,0-.45-.13c-.83,0-2,1-2,3.49v5.26h-1.21Z"/><path d="M405.26,43.37h-1.12c0-.56,0-1.1,0-1.71a2.75,2.75,0,0,1-2.74,1.94c-1.67,0-2.81-1-2.81-3.35V33.57h1.21v6.3c0,1,.14,2.54,1.87,2.54,1.42,0,2.34-1,2.34-3v-5.8h1.21Z"/><path d="M408.35,33.57h1.08c0,.56,0,1.06,0,1.67a2.79,2.79,0,0,1,2.77-1.91c1.68,0,2.81,1,2.81,3.35v6.68h-1.21v-6.3c0-1-.14-2.54-1.87-2.54-1.42,0-2.34,1-2.34,3v5.8h-1.21Z"/><path d="M418.79,38.83c0,2,.83,3.64,2.48,3.64a2.23,2.23,0,0,0,2.2-1.94h1.19a3.92,3.92,0,0,1-1.22,2.3,3.28,3.28,0,0,1-2.16.77c-2.7,0-3.74-2.59-3.74-5.11,0-3,1.4-5.15,3.71-5.15a3,3,0,0,1,2.63,1.39,7.13,7.13,0,0,1,.9,4.11Zm4.75-1.06c0-2-.88-3.4-2.36-3.4s-2.36,1.46-2.39,3.4Z"/><path d="M435.39,43.37h-1.21l-3-9.79h1.22l2.32,8.17L437,33.57h1.21Z"/><path d="M440.81,38.83c0,2,.83,3.64,2.49,3.64a2.23,2.23,0,0,0,2.2-1.94h1.19a3.92,3.92,0,0,1-1.22,2.3,3.28,3.28,0,0,1-2.16.77c-2.7,0-3.75-2.59-3.75-5.11,0-3,1.4-5.15,3.71-5.15a3,3,0,0,1,2.63,1.39,7.12,7.12,0,0,1,.9,4.11Zm4.75-1.06c0-2-.88-3.4-2.36-3.4s-2.36,1.46-2.4,3.4Z"/><path d="M449.36,33.57h1.12c0,.9,0,1.46,0,2.05A2.65,2.65,0,0,1,453,33.34v1.4a.81.81,0,0,0-.45-.13c-.83,0-2,1-2,3.49v5.26h-1.21Z"/><path d="M459.15,36.11c0-1.24-.65-1.69-1.58-1.69a1.38,1.38,0,0,0-1.42,1.46c0,1.1.92,1.49,2.11,1.85a2.86,2.86,0,0,1,2.34,3,2.81,2.81,0,0,1-2.92,2.92,2.89,2.89,0,0,1-3.06-3.11h1.19a1.8,1.8,0,0,0,1.87,2,1.57,1.57,0,0,0,1.66-1.71c0-1.19-.83-1.66-2.14-2.07s-2.3-1-2.3-2.79a2.73,2.73,0,0,1,5.46.2Z"/><path d="M463.32,30h1.21v1.76h-1.21Zm0,3.53h1.21v9.79h-1.21Z"/><path d="M467.25,38.45c0-2.79,1.15-5.11,3.78-5.11s3.76,2.32,3.76,5.13S473.64,43.6,471,43.6s-3.78-2.32-3.78-5.13Zm1.26,0c0,2.59.85,4,2.54,4s2.49-1.39,2.49-4-.85-4-2.52-4-2.5,1.39-2.5,4Z"/><path d="M477.36,33.57h1.08c0,.56,0,1.06,0,1.67a2.79,2.79,0,0,1,2.77-1.91c1.68,0,2.81,1,2.81,3.35v6.68h-1.21v-6.3c0-1-.14-2.54-1.87-2.54-1.42,0-2.34,1-2.34,3v5.8h-1.21Z"/><path d="M492.86,38.83c0,2,.83,3.64,2.48,3.64a2.23,2.23,0,0,0,2.2-1.94h1.19a3.91,3.91,0,0,1-1.22,2.3,3.27,3.27,0,0,1-2.16.77c-2.7,0-3.75-2.59-3.75-5.11,0-3,1.4-5.15,3.71-5.15a3,3,0,0,1,2.63,1.39,7.12,7.12,0,0,1,.9,4.11Zm4.75-1.06c0-2-.88-3.4-2.36-3.4s-2.36,1.46-2.39,3.4Z"/><path d="M501.41,33.57h1.08c0,.56,0,1.06,0,1.67a2.79,2.79,0,0,1,2.77-1.91c1.67,0,2.81,1,2.81,3.35v6.68h-1.21v-6.3c0-1-.14-2.54-1.87-2.54-1.42,0-2.34,1-2.34,3v5.8h-1.21Z"/><path d="M514.07,43.37h-1.21l-3-9.79h1.22l2.32,8.17,2.25-8.17h1.21Z"/><path d="M518.19,38.45c0-2.79,1.15-5.11,3.78-5.11s3.76,2.32,3.76,5.13S524.58,43.6,522,43.6s-3.78-2.32-3.78-5.13Zm1.26,0c0,2.59.85,4,2.54,4s2.49-1.39,2.49-4-.85-4-2.52-4-2.5,1.39-2.5,4Z"/><path d="M529.92,43.13l-2.83-9.56h1.26l2.18,7.8,2.3-7.8h1.24L529.87,47h-1.21Z"/><path d="M536.65,38.83c0,2,.83,3.64,2.48,3.64a2.23,2.23,0,0,0,2.2-1.94h1.19a3.92,3.92,0,0,1-1.22,2.3,3.28,3.28,0,0,1-2.16.77c-2.7,0-3.74-2.59-3.74-5.11,0-3,1.4-5.15,3.71-5.15a3,3,0,0,1,2.63,1.39,7.13,7.13,0,0,1,.9,4.11Zm4.75-1.06c0-2-.88-3.4-2.36-3.4s-2.36,1.46-2.39,3.4ZM541,29.52l.5,1-4,2.14-.45-.85Z"/><path d="M546,38.83c0,2,.83,3.64,2.48,3.64a2.23,2.23,0,0,0,2.2-1.94h1.19a3.91,3.91,0,0,1-1.22,2.3,3.27,3.27,0,0,1-2.16.77c-2.7,0-3.75-2.59-3.75-5.11,0-3,1.4-5.15,3.71-5.15a3,3,0,0,1,2.63,1.39,7.12,7.12,0,0,1,.9,4.11Zm4.75-1.06c0-2-.88-3.4-2.36-3.4S546,35.82,546,37.77Z"/><path d="M560.36,38.83c0,2,.83,3.64,2.49,3.64a2.23,2.23,0,0,0,2.2-1.94h1.19a3.92,3.92,0,0,1-1.22,2.3,3.28,3.28,0,0,1-2.16.77c-2.7,0-3.75-2.59-3.75-5.11,0-3,1.4-5.15,3.71-5.15a3,3,0,0,1,2.63,1.39,7.12,7.12,0,0,1,.9,4.11Zm4.75-1.06c0-2-.88-3.4-2.36-3.4s-2.36,1.46-2.4,3.4Z"/><path d="M568.91,33.57H570c0,.56,0,1.06,0,1.67a2.79,2.79,0,0,1,2.77-1.91c1.68,0,2.81,1,2.81,3.35v6.68h-1.21v-6.3c0-1-.14-2.54-1.87-2.54-1.42,0-2.34,1-2.34,3v5.8h-1.21Z"/><path d="M586.23,30a4.84,4.84,0,0,1,3.33.92,4.28,4.28,0,0,1,0,6.14,4.87,4.87,0,0,1-3.33.92h-1.17v5.35h-1.35V30Zm-1.17,6.73h1.17a3.36,3.36,0,0,0,2.45-.63,2.74,2.74,0,0,0,.81-2.11,2.84,2.84,0,0,0-.83-2.14,3.37,3.37,0,0,0-2.43-.61h-1.17Z"/><path d="M593.17,30h3.06A4.86,4.86,0,0,1,600.59,32a8.33,8.33,0,0,1,1.17,4.74c0,5.1-2.48,6.66-5.49,6.66h-3.1Zm1.35,12.08h1.64c3.13,0,4.23-2,4.23-5.42a6.86,6.86,0,0,0-.94-4.07,3.74,3.74,0,0,0-3.33-1.35h-1.6Z"/><path d="M604.35,30h5.74v1.24H605.7v4.65h4.39v1.22H605.7v6.21h-1.35Z"/><path d="M617.22,38.45c0-2.79,1.15-5.11,3.78-5.11s3.76,2.32,3.76,5.13S623.61,43.6,621,43.6s-3.78-2.32-3.78-5.13Zm1.26,0c0,2.59.85,4,2.54,4s2.48-1.39,2.48-4-.85-4-2.52-4-2.5,1.39-2.5,4Z"/><path d="M633.91,43.37h-1.12c0-.56,0-1.1,0-1.71a2.75,2.75,0,0,1-2.74,1.94c-1.67,0-2.81-1-2.81-3.35V33.57h1.21v6.3c0,1,.14,2.54,1.87,2.54,1.42,0,2.34-1,2.34-3v-5.8h1.21Z"/><path d="M642.83,38.83c0,2,.83,3.64,2.49,3.64a2.23,2.23,0,0,0,2.2-1.94h1.19a3.92,3.92,0,0,1-1.22,2.3,3.28,3.28,0,0,1-2.16.77c-2.7,0-3.75-2.59-3.75-5.11,0-3,1.4-5.15,3.71-5.15a3,3,0,0,1,2.63,1.39,7.12,7.12,0,0,1,.9,4.11Zm4.75-1.06c0-2-.88-3.4-2.36-3.4s-2.36,1.46-2.4,3.4Z"/><path d="M651.39,33.57h1.08c0,.56,0,1.06,0,1.67a2.79,2.79,0,0,1,2.77-1.91c1.67,0,2.81,1,2.81,3.35v6.68H656.8v-6.3c0-1-.14-2.54-1.87-2.54-1.42,0-2.34,1-2.34,3v5.8h-1.21Z"/><path d="M339.7,51.64h1.21V65H339.7Z"/><path d="M344.29,51.64h1.21v1.76h-1.21Zm0,3.53h1.21V65h-1.21Z"/><path d="M355.18,64.79a4.29,4.29,0,0,1-.83,2.93,3.27,3.27,0,0,1-2.63,1.08,3.2,3.2,0,0,1-3.29-3.08h1.22a2.13,2.13,0,0,0,.56,1.37,2.17,2.17,0,0,0,1.57.59c1,0,2.21-.47,2.21-2.81,0-.47,0-1.1,0-1.75a2.55,2.55,0,0,1-2.52,2.07c-2.11,0-3.28-2.12-3.28-5.11s1.17-5.15,3.28-5.15c1.15,0,2.05.54,2.65,2.12,0-.59,0-1.15,0-1.89h1.06Zm-5.76-4.7c0,2.21.79,3.93,2.29,3.93a1.93,1.93,0,0,0,1.71-1.08,5.46,5.46,0,0,0,.56-2.86,5.38,5.38,0,0,0-.56-2.86,1.93,1.93,0,0,0-1.71-1.08c-1.49,0-2.29,1.71-2.29,3.94Z"/><path d="M358.28,55.17h1.08c0,.56,0,1.06,0,1.67a2.79,2.79,0,0,1,2.77-1.91c1.67,0,2.81,1,2.81,3.35V65H363.7v-6.3c0-1-.14-2.54-1.87-2.54-1.42,0-2.34,1-2.34,3V65h-1.21Z"/><path d="M368.72,60.43c0,2,.83,3.64,2.49,3.64a2.23,2.23,0,0,0,2.2-1.94h1.19a3.92,3.92,0,0,1-1.22,2.3,3.27,3.27,0,0,1-2.16.77c-2.7,0-3.75-2.59-3.75-5.11,0-3,1.4-5.15,3.71-5.15a3,3,0,0,1,2.63,1.39,7.11,7.11,0,0,1,.9,4.11Zm4.75-1.06c0-2-.88-3.4-2.36-3.4s-2.36,1.46-2.4,3.4Z"/><path d="M377.65,66.46h-1.06l1.19-3.4H379Z"/><path d="M385.73,51.64h1.21v1.76h-1.21Zm0,3.53h1.21V65h-1.21Z"/><path d="M390.17,55.17h1.08c0,.56,0,1.06,0,1.67A2.79,2.79,0,0,1,394,54.94c1.68,0,2.81,1,2.81,3.35V65h-1.21v-6.3c0-1-.14-2.54-1.87-2.54-1.42,0-2.34,1-2.34,3V65h-1.21Z"/><path d="M403.78,57.71c0-1.24-.65-1.69-1.58-1.69a1.38,1.38,0,0,0-1.42,1.46c0,1.1.92,1.49,2.11,1.85a2.86,2.86,0,0,1,2.34,3,2.81,2.81,0,0,1-2.92,2.92,2.89,2.89,0,0,1-3.06-3.11h1.19a1.8,1.8,0,0,0,1.87,2A1.57,1.57,0,0,0,404,62.37c0-1.19-.83-1.66-2.14-2.07s-2.3-1-2.3-2.79a2.73,2.73,0,0,1,5.46.2Z"/><path d="M414.26,61.64c-.22,2-1.3,3.57-3.24,3.57-2.61,0-3.78-2.45-3.78-5.11,0-3.21,1.51-5.15,3.73-5.15,2,0,3.15,1.55,3.24,3.62H413c-.2-1.94-1.13-2.48-2.05-2.48a1.9,1.9,0,0,0-1.78,1,5.8,5.8,0,0,0-.63,3c0,2.57.88,4,2.43,4,1.21,0,1.89-1,2.07-2.43Z"/><path d="M416.54,55.17h1.12c0,.9,0,1.46,0,2.05a2.66,2.66,0,0,1,2.61-2.29v1.4a.81.81,0,0,0-.45-.13c-.83,0-2,1-2,3.49V65h-1.21Z"/><path d="M422.39,51.64h1.21v1.76h-1.21Zm0,3.53h1.21V65h-1.21Z"/><path d="M429.83,65h-1.21l-3-9.79h1.22l2.32,8.17,2.25-8.17h1.21Z"/><path d="M435.24,60.43c0,2,.83,3.64,2.48,3.64a2.23,2.23,0,0,0,2.2-1.94h1.19a3.92,3.92,0,0,1-1.22,2.3,3.28,3.28,0,0,1-2.16.77c-2.7,0-3.74-2.59-3.74-5.11,0-3,1.4-5.15,3.71-5.15a3,3,0,0,1,2.63,1.39,7.13,7.13,0,0,1,.9,4.11ZM440,59.37c0-2-.88-3.4-2.36-3.4s-2.36,1.46-2.39,3.4Z"/><path d="M443,63.85l4.7-7.54h-4.39V55.17h5.83v1.15l-4.68,7.51h4.84V65H443Z"/><path d="M459.71,65H458.5l-3-9.79h1.22l2.32,8.17,2.25-8.17h1.21Z"/><path d="M463.83,60.05c0-2.79,1.15-5.11,3.78-5.11s3.76,2.32,3.76,5.13-1.15,5.13-3.76,5.13-3.78-2.32-3.78-5.13Zm1.26,0c0,2.59.85,4,2.54,4s2.48-1.39,2.48-4-.85-4-2.52-4-2.5,1.39-2.5,4Z"/><path d="M474.41,56.31H473V55.17h1.37v-3.1h1.21v3.1H477v1.13h-1.35V65h-1.21Z"/><path d="M479.16,55.17h1.12c0,.9,0,1.46,0,2.05a2.65,2.65,0,0,1,2.61-2.29v1.4a.82.82,0,0,0-.45-.13c-.83,0-2,1-2,3.49V65h-1.21Z"/><path d="M485.43,60.43c0,2,.83,3.64,2.49,3.64a2.23,2.23,0,0,0,2.2-1.94h1.19a3.92,3.92,0,0,1-1.22,2.3,3.28,3.28,0,0,1-2.16.77c-2.7,0-3.75-2.59-3.75-5.11,0-3,1.4-5.15,3.71-5.15a3,3,0,0,1,2.63,1.39,7.12,7.12,0,0,1,.9,4.11Zm4.75-1.06c0-2-.88-3.4-2.36-3.4s-2.36,1.46-2.4,3.4Z"/><path d="M499,55.17h1.12c0,.74,0,1.28,0,1.87a2.63,2.63,0,0,1,2.57-2.11c2,0,3.29,2,3.29,5.15s-1.22,5.11-3.29,5.11a2.66,2.66,0,0,1-2.5-2c0,.43,0,.94,0,1.78v3.62H499Zm5.76,4.88c0-2.21-.77-3.93-2.29-3.93a1.88,1.88,0,0,0-1.68,1.08,5.19,5.19,0,0,0-.59,2.86,5.27,5.27,0,0,0,.59,2.86A1.88,1.88,0,0,0,502.51,64c1.51,0,2.29-1.71,2.29-3.94Z"/><path d="M508.58,55.17h1.12c0,.9,0,1.46,0,2.05a2.65,2.65,0,0,1,2.61-2.29v1.4a.81.81,0,0,0-.45-.13c-.83,0-2,1-2,3.49V65h-1.21Z"/><path d="M514.84,60.43c0,2,.83,3.64,2.48,3.64a2.23,2.23,0,0,0,2.2-1.94h1.19a3.92,3.92,0,0,1-1.22,2.3,3.28,3.28,0,0,1-2.16.77c-2.7,0-3.74-2.59-3.74-5.11,0-3,1.4-5.15,3.71-5.15a3,3,0,0,1,2.63,1.39,7.13,7.13,0,0,1,.9,4.11Zm4.75-1.06c0-2-.88-3.4-2.36-3.4s-2.36,1.46-2.39,3.4Zm-.38-8.25.5,1-4,2.14-.45-.85Z"/><path d="M523.39,55.17h1.08c0,.56,0,1.06,0,1.67a2.79,2.79,0,0,1,2.77-1.91c1.67,0,2.81,1,2.81,3.35V65h-1.21v-6.3c0-1-.14-2.54-1.87-2.54-1.42,0-2.34,1-2.34,3V65h-1.21Z"/><path d="M532.53,60.05c0-2.79,1.15-5.11,3.78-5.11s3.76,2.32,3.76,5.13-1.15,5.13-3.76,5.13-3.78-2.32-3.78-5.13Zm1.26,0c0,2.59.85,4,2.54,4s2.49-1.39,2.49-4-.85-4-2.52-4-2.5,1.39-2.5,4Z"/><path d="M542.69,55.17h1.15c0,.5,0,1,0,1.6a2.42,2.42,0,0,1,2.48-1.84,2.32,2.32,0,0,1,1.71.67,2.28,2.28,0,0,1,.54,1.17,2.69,2.69,0,0,1,.81-1.24,3,3,0,0,1,1.8-.59,2.52,2.52,0,0,1,2.29,1.26,5.9,5.9,0,0,1,.45,2.68V65h-1.21V59a5.9,5.9,0,0,0-.2-1.82,1.5,1.5,0,0,0-1.49-1,1.79,1.79,0,0,0-1.58.79,3.83,3.83,0,0,0-.52,2.14V65h-1.21V59a5.84,5.84,0,0,0-.2-1.87,1.48,1.48,0,0,0-1.48-1,1.85,1.85,0,0,0-1.58.76,3.86,3.86,0,0,0-.52,2.21V65h-1.21Z"/><path d="M562.79,60.43c0,2,.83,3.64,2.49,3.64a2.23,2.23,0,0,0,2.2-1.94h1.19a3.92,3.92,0,0,1-1.22,2.3,3.28,3.28,0,0,1-2.16.77c-2.7,0-3.75-2.59-3.75-5.11,0-3,1.4-5.15,3.71-5.15a3,3,0,0,1,2.63,1.39,7.12,7.12,0,0,1,.9,4.11Zm4.75-1.06c0-2-.88-3.4-2.36-3.4s-2.36,1.46-2.4,3.4Z"/><path d="M571.81,56.31h-1.37V55.17h1.37v-3.1H573v3.1h1.35v1.13H573V65h-1.21Z"/><path d="M584.61,65H583.4l-3-9.79h1.22L584,63.35l2.25-8.17h1.21Z"/><path d="M588.73,60.05c0-2.79,1.15-5.11,3.78-5.11s3.76,2.32,3.76,5.13-1.15,5.13-3.76,5.13-3.78-2.32-3.78-5.13Zm1.26,0c0,2.59.85,4,2.54,4s2.49-1.39,2.49-4-.85-4-2.52-4-2.5,1.39-2.5,4Z"/><path d="M599.31,56.31h-1.37V55.17h1.37v-3.1h1.21v3.1h1.35v1.13h-1.35V65h-1.21Z"/><path d="M604.06,55.17h1.12c0,.9,0,1.46,0,2.05a2.66,2.66,0,0,1,2.61-2.29v1.4a.81.81,0,0,0-.45-.13c-.83,0-2,1-2,3.49V65h-1.21Z"/><path d="M610.33,60.43c0,2,.83,3.64,2.49,3.64a2.23,2.23,0,0,0,2.2-1.94h1.19a3.92,3.92,0,0,1-1.22,2.3,3.27,3.27,0,0,1-2.16.77c-2.7,0-3.75-2.59-3.75-5.11,0-3,1.4-5.15,3.71-5.15a3,3,0,0,1,2.63,1.39,7.11,7.11,0,0,1,.9,4.11Zm4.75-1.06c0-2-.88-3.4-2.36-3.4s-2.36,1.46-2.4,3.4Z"/><path d="M623.94,55.17H625c0,.56,0,1.06,0,1.67a2.79,2.79,0,0,1,2.77-1.91c1.67,0,2.81,1,2.81,3.35V65h-1.21v-6.3c0-1-.14-2.54-1.87-2.54-1.42,0-2.34,1-2.34,3V65h-1.21Z"/><path d="M633.08,60.05c0-2.79,1.15-5.11,3.78-5.11s3.76,2.32,3.76,5.13-1.15,5.13-3.76,5.13-3.78-2.32-3.78-5.13Zm1.26,0c0,2.59.85,4,2.54,4s2.49-1.39,2.49-4-.85-4-2.52-4-2.5,1.39-2.5,4Z"/><path d="M643.23,55.17h1.15c0,.5,0,1,0,1.6a2.42,2.42,0,0,1,2.48-1.84,2.32,2.32,0,0,1,1.71.67,2.28,2.28,0,0,1,.54,1.17,2.69,2.69,0,0,1,.81-1.24,3,3,0,0,1,1.8-.59A2.52,2.52,0,0,1,654,56.2a5.9,5.9,0,0,1,.45,2.68V65h-1.21V59a5.9,5.9,0,0,0-.2-1.82,1.5,1.5,0,0,0-1.49-1,1.79,1.79,0,0,0-1.58.79,3.83,3.83,0,0,0-.52,2.14V65h-1.21V59a5.84,5.84,0,0,0-.2-1.87,1.48,1.48,0,0,0-1.48-1,1.85,1.85,0,0,0-1.58.76,3.86,3.86,0,0,0-.52,2.21V65h-1.21Z"/><path d="M659.25,65H658V63.06h1.22Z"/></g></g></g></svg>