<svg xmlns="http://www.w3.org/2000/svg" viewBox="0 0 1920 1080"><defs><style>.cls-1{fill:#8cc63f;}.cls-2{fill:#fff;}</style></defs><title>game4c2</title><g id="contenu"><path class="cls-1" d="M620.72,470.85h786a0,0,0,0,1,0,0v68.34a20.59,20.59,0,0,1-20.59,20.59H620.72a20.59,20.59,0,0,1-20.59-20.59V491.44A20.59,20.59,0,0,1,620.72,470.85Z"/><path class="cls-1" d="M620.72,711h786a0,0,0,0,1,0,0V798.7a20.59,20.59,0,0,1-20.59,20.59H620.72a20.59,20.59,0,0,1-20.59-20.59V731.58A20.59,20.59,0,0,1,620.72,711Z"/><path class="cls-2" d="M615.37,500.48h11.36v3.62h-7.46v6h7.46v3.58h-7.46v6.88h7.46v3.62H615.37Z"/><path class="cls-2" d="M632.43,500.48h3.46v23.68h-3.46Z"/><path class="cls-2" d="M641.83,500.48h3.46v23.68h-3.46Z"/><path class="cls-2" d="M653.8,516.42c0,2.5.86,4.9,3.17,4.9,1.5,0,2.53-1,2.88-2.72h3.42a7.28,7.28,0,0,1-2.43,4.7,6.41,6.41,0,0,1-3.87,1.25c-4.77,0-6.88-4.35-6.88-9.31,0-5.31,2.33-9.34,6.85-9.34a5.66,5.66,0,0,1,5.06,2.72c1.38,2.24,1.5,5.12,1.44,7.81Zm6.18-3c0-2-.74-4.67-3-4.67-1.89,0-3.13,1.76-3.13,4.67Z"/><path class="cls-2" d="M689.54,524.16h-3.17c0-1.06,0-1.82,0-2.59a3.92,3.92,0,0,1-3.94,3c-3.36,0-5.79-3.2-5.79-9.31,0-5.86,2.08-9.34,5.79-9.34a3.67,3.67,0,0,1,3.65,2.59c0-.7,0-1.41,0-2.21v-5.79h3.46Zm-9.41-8.93c0,4,1.09,5.86,3,5.86a2.44,2.44,0,0,0,2.21-1.22c.64-.9.74-2,.74-4.67s-.1-3.78-.74-4.64a2.4,2.4,0,0,0-2.21-1.25c-1.92,0-3,1.89-3,5.89Z"/><path class="cls-2" d="M693.83,515.2c0-5.12,2.18-9.31,6.91-9.31s6.88,4.19,6.88,9.34-2.18,9.31-6.88,9.31-6.91-4.19-6.91-9.31Zm3.65.06c0,4.38,1.18,6,3.29,6s3.2-1.66,3.2-6.08-1.18-6.08-3.3-6.08-3.2,1.63-3.2,6.08Z"/><path class="cls-2" d="M712.3,500.48h3.46v3.42H712.3Zm0,5.79h3.46v17.89H712.3Z"/><path class="cls-2" d="M721.93,509.54h-2.14v-3.26h2.14V502h3.46v4.26h2.11v3.26h-2.11v14.62h-3.46Z"/><path class="cls-2" d="M743.82,516.42c0,2.5.87,4.9,3.17,4.9,1.5,0,2.53-1,2.88-2.72h3.42a7.29,7.29,0,0,1-2.43,4.7,6.41,6.41,0,0,1-3.87,1.25c-4.77,0-6.88-4.35-6.88-9.31,0-5.31,2.34-9.34,6.85-9.34a5.66,5.66,0,0,1,5.05,2.72c1.38,2.24,1.5,5.12,1.44,7.81Zm8.58-12.19h-3.1l-2.5-2.69-2.5,2.69h-3.14l4-4.42h3.33Zm-2.4,9.22c0-2-.74-4.67-3-4.67-1.89,0-3.14,1.76-3.14,4.67Z"/><path class="cls-2" d="M758.47,509.54h-2.14v-3.26h2.14V502h3.46v4.26H764v3.26h-2.11v14.62h-3.46Z"/><path class="cls-2" d="M767.69,506.27h3.17c0,1.09,0,2,0,2.88.74-2.72,2.59-3.26,4.64-3.26v4.19a2.59,2.59,0,0,0-1.47-.42c-1.57,0-2.85,1.54-2.85,4.38v10.11h-3.46Z"/><path class="cls-2" d="M781.45,516.42c0,2.5.86,4.9,3.17,4.9,1.5,0,2.53-1,2.88-2.72h3.42a7.28,7.28,0,0,1-2.43,4.7,6.41,6.41,0,0,1-3.87,1.25c-4.77,0-6.88-4.35-6.88-9.31,0-5.31,2.33-9.34,6.85-9.34a5.66,5.66,0,0,1,5.06,2.72c1.38,2.24,1.5,5.12,1.44,7.81Zm6.18-3c0-2-.74-4.67-3-4.67-1.89,0-3.14,1.76-3.14,4.67Z"/><path class="cls-2" d="M805.22,506.27h3.17v2.34a3.93,3.93,0,0,1,3.9-2.72c3.36,0,5.79,3.2,5.79,9.34,0,5.82-2.08,9.31-5.79,9.31a3.8,3.8,0,0,1-3.62-2.43v8.06h-3.46Zm9.41,8.93c0-4-1.06-5.86-3-5.86a2.39,2.39,0,0,0-2.11,1.22c-.64.86-.83,2-.83,4.67s.19,3.78.83,4.64a2.36,2.36,0,0,0,2.11,1.25c2,0,3-1.89,3-5.89Z"/><path class="cls-2" d="M825.32,516.42c0,2.5.86,4.9,3.17,4.9,1.5,0,2.53-1,2.88-2.72h3.42a7.28,7.28,0,0,1-2.43,4.7,6.41,6.41,0,0,1-3.87,1.25c-4.77,0-6.88-4.35-6.88-9.31,0-5.31,2.33-9.34,6.85-9.34a5.66,5.66,0,0,1,5.06,2.72c1.38,2.24,1.5,5.12,1.44,7.81Zm6.18-3c0-2-.74-4.67-3-4.67-1.89,0-3.14,1.76-3.14,4.67Z"/><path class="cls-2" d="M839.37,506.27h3.17c0,1.09,0,2,0,2.88.74-2.72,2.59-3.26,4.64-3.26v4.19a2.59,2.59,0,0,0-1.47-.42c-1.57,0-2.85,1.54-2.85,4.38v10.11h-3.46Z"/><path class="cls-2" d="M857.54,511.33c0-1.7-.83-2.43-2.27-2.43a1.78,1.78,0,0,0-1.92,1.86c0,1.73,1.89,2,4,2.69s4.13,1.82,4.13,5.44a5.63,5.63,0,0,1-6,5.66c-3.36,0-5.89-1.89-6.18-5.92h3.46a2.67,2.67,0,0,0,2.78,2.78,2.1,2.1,0,0,0,2.24-2.3c0-1.79-1.86-2.21-4-2.91s-4.1-1.89-4.1-5.31c0-2.91,2.08-5,5.7-5s5.41,2,5.6,5.44Z"/><path class="cls-2" d="M864.71,515.2c0-5.12,2.18-9.31,6.91-9.31s6.88,4.19,6.88,9.34-2.18,9.31-6.88,9.31-6.91-4.19-6.91-9.31Zm3.65.06c0,4.38,1.18,6,3.3,6s3.2-1.66,3.2-6.08-1.18-6.08-3.3-6.08-3.2,1.63-3.2,6.08Z"/><path class="cls-2" d="M882.79,506.27h3c0,.74,0,1.44,0,2.21a4.18,4.18,0,0,1,4.26-2.59c2.94,0,4.83,1.63,4.83,5.54v12.73h-3.46V512.54c0-1.44-.29-3.2-2.4-3.2-1.66,0-2.78,1-2.78,3.36v11.46h-3.46Z"/><path class="cls-2" d="M900,506.27h3c0,.74,0,1.44,0,2.21a4.18,4.18,0,0,1,4.26-2.59c2.94,0,4.83,1.63,4.83,5.54v12.73h-3.46V512.54c0-1.44-.29-3.2-2.4-3.2-1.66,0-2.78,1-2.78,3.36v11.46H900Z"/><path class="cls-2" d="M920.23,516.42c0,2.5.86,4.9,3.17,4.9,1.5,0,2.53-1,2.88-2.72h3.42a7.28,7.28,0,0,1-2.43,4.7,6.41,6.41,0,0,1-3.87,1.25c-4.77,0-6.88-4.35-6.88-9.31,0-5.31,2.34-9.34,6.85-9.34a5.66,5.66,0,0,1,5.06,2.72c1.38,2.24,1.5,5.12,1.44,7.81Zm6.18-3c0-2-.74-4.67-3-4.67-1.89,0-3.14,1.76-3.14,4.67Z"/><path class="cls-2" d="M934.66,500.48h3.46v23.68h-3.46Z"/><path class="cls-2" d="M944.07,500.48h3.46v23.68h-3.46Z"/><path class="cls-2" d="M956,516.42c0,2.5.86,4.9,3.17,4.9,1.5,0,2.53-1,2.88-2.72h3.42a7.28,7.28,0,0,1-2.43,4.7,6.41,6.41,0,0,1-3.87,1.25c-4.77,0-6.88-4.35-6.88-9.31,0-5.31,2.33-9.34,6.85-9.34a5.66,5.66,0,0,1,5.06,2.72c1.38,2.24,1.5,5.12,1.44,7.81Zm6.18-3c0-2-.74-4.67-3-4.67-1.89,0-3.14,1.76-3.14,4.67Z"/><path class="cls-2" d="M971.37,527.2h-2.82l2.24-7.26h3.3Z"/><path class="cls-2" d="M998.21,524.16H995c0-.77,0-1.54,0-2.37-.64,1.89-2,2.75-4.16,2.75-2.91,0-4.8-1.63-4.8-5.54V506.27h3.46v11.62c0,1.44.29,3.23,2.4,3.23,1.63,0,2.78-1.06,2.78-3.39V506.27h3.46Z"/><path class="cls-2" d="M1003.4,506.27h3c0,.74,0,1.44,0,2.21a4.18,4.18,0,0,1,4.26-2.59c2.94,0,4.83,1.63,4.83,5.54v12.73H1012V512.54c0-1.44-.29-3.2-2.4-3.2-1.66,0-2.78,1-2.78,3.36v11.46h-3.46Z"/><path class="cls-2" d="M1021,500.48h3.46v3.42H1021Zm0,5.79h3.46v17.89H1021Z"/><path class="cls-2" d="M1042,530.17h-3.46v-6c0-.9,0-1.57,0-2.21a3.69,3.69,0,0,1-3.65,2.59c-3.71,0-5.79-3.49-5.79-9.31,0-6.14,2.43-9.34,5.79-9.34a3.76,3.76,0,0,1,3.84,2.72c0-.74,0-1.47,0-2.34H1042Zm-9.41-14.91c0,4,1.09,5.86,3,5.86a2.4,2.4,0,0,0,2.21-1.25c.64-.86.74-2,.74-4.64s-.1-3.81-.74-4.67a2.44,2.44,0,0,0-2.21-1.22c-1.92,0-3,1.86-3,5.89Z"/><path class="cls-2" d="M1059.27,524.16h-3.17c0-.77,0-1.54,0-2.37-.64,1.89-2,2.75-4.16,2.75-2.91,0-4.8-1.63-4.8-5.54V506.27h3.46v11.62c0,1.44.29,3.23,2.4,3.23,1.63,0,2.78-1.06,2.78-3.39V506.27h3.46Z"/><path class="cls-2" d="M1067.4,516.42c0,2.5.86,4.9,3.17,4.9,1.5,0,2.53-1,2.88-2.72h3.42a7.28,7.28,0,0,1-2.43,4.7,6.41,6.41,0,0,1-3.87,1.25c-4.77,0-6.88-4.35-6.88-9.31,0-5.31,2.33-9.34,6.85-9.34a5.66,5.66,0,0,1,5.06,2.72c1.38,2.24,1.5,5.12,1.44,7.81Zm6.18-3c0-2-.74-4.67-3-4.67-1.89,0-3.13,1.76-3.13,4.67Z"/><path class="cls-2" d="M1094.12,516.42c0,2.5.86,4.9,3.17,4.9,1.5,0,2.53-1,2.88-2.72h3.42a7.28,7.28,0,0,1-2.43,4.7,6.41,6.41,0,0,1-3.87,1.25c-4.77,0-6.88-4.35-6.88-9.31,0-5.31,2.33-9.34,6.85-9.34a5.66,5.66,0,0,1,5.06,2.72c1.38,2.24,1.5,5.12,1.44,7.81Zm6.18-3c0-2-.74-4.67-3-4.67-1.89,0-3.14,1.76-3.14,4.67Z"/><path class="cls-2" d="M1108.77,509.54h-2.14v-3.26h2.14V502h3.46v4.26h2.11v3.26h-2.11v14.62h-3.46Z"/><path class="cls-2" d="M1127.72,500.48h3.46v8.13a3.59,3.59,0,0,1,3.62-2.72c3.71,0,5.79,3.49,5.79,9.31,0,6.14-2.43,9.34-5.79,9.34a3.91,3.91,0,0,1-3.9-2.78v2.4h-3.17Zm9.41,14.72c0-3.62-.9-5.86-3-5.86-2.56,0-3,2.85-3,5.89s.42,5.89,3,5.89c2.08,0,3-2.27,3-5.89Z"/><path class="cls-2" d="M1145.25,500.48h3.46v3.42h-3.46Zm0,5.79h3.46v17.89h-3.46Z"/><path class="cls-2" d="M1157.22,516.42c0,2.5.86,4.9,3.17,4.9,1.5,0,2.53-1,2.88-2.72h3.42a7.28,7.28,0,0,1-2.43,4.7,6.41,6.41,0,0,1-3.87,1.25c-4.77,0-6.88-4.35-6.88-9.31,0-5.31,2.33-9.34,6.85-9.34a5.66,5.66,0,0,1,5.06,2.72c1.38,2.24,1.5,5.12,1.44,7.81Zm6.18-3c0-2-.74-4.67-3-4.67-1.89,0-3.14,1.76-3.14,4.67Z"/><path class="cls-2" d="M1171.27,506.27h3c0,.74,0,1.44,0,2.21a4.18,4.18,0,0,1,4.26-2.59c2.94,0,4.83,1.63,4.83,5.54v12.73h-3.46V512.54c0-1.44-.29-3.2-2.4-3.2-1.66,0-2.78,1-2.78,3.36v11.46h-3.46Z"/><path class="cls-2" d="M1198.37,506.27h3.29c0,.8,0,1.57,0,2.4a3.73,3.73,0,0,1,4-2.78,3.94,3.94,0,0,1,2.78,1,3.49,3.49,0,0,1,.9,1.5,4,4,0,0,1,1.28-1.6,5.67,5.67,0,0,1,3.07-.86,4.8,4.8,0,0,1,4.1,2,7.18,7.18,0,0,1,1.12,4.22v12.09h-3.46V512.58a4.37,4.37,0,0,0-.42-2.24,2,2,0,0,0-1.92-1,2.42,2.42,0,0,0-2,.77,3.54,3.54,0,0,0-.7,2.37v11.68h-3.46V512.61a4.58,4.58,0,0,0-.42-2.27,1.94,1.94,0,0,0-1.89-1,2.52,2.52,0,0,0-2,.74,3.73,3.73,0,0,0-.71,2.43v11.65h-3.49Z"/><path class="cls-2" d="M1227.08,516.42c0,2.5.86,4.9,3.17,4.9,1.5,0,2.53-1,2.88-2.72h3.42a7.28,7.28,0,0,1-2.43,4.7,6.41,6.41,0,0,1-3.87,1.25c-4.77,0-6.88-4.35-6.88-9.31,0-5.31,2.33-9.34,6.85-9.34a5.66,5.66,0,0,1,5.06,2.72c1.38,2.24,1.5,5.12,1.44,7.81Zm6.18-3c0-2-.74-4.67-3-4.67-1.89,0-3.13,1.76-3.13,4.67Z"/><path class="cls-2" d="M1250.85,506.27H1254v2.34a3.93,3.93,0,0,1,3.9-2.72c3.36,0,5.79,3.2,5.79,9.34,0,5.82-2.08,9.31-5.79,9.31a3.8,3.8,0,0,1-3.62-2.43v8.06h-3.46Zm9.41,8.93c0-4-1.06-5.86-3-5.86a2.39,2.39,0,0,0-2.11,1.22c-.64.86-.83,2-.83,4.67s.19,3.78.83,4.64a2.36,2.36,0,0,0,2.11,1.25c2,0,3-1.89,3-5.89Z"/><path class="cls-2" d="M1268,506.27h3.17c0,1.09,0,2,0,2.88.74-2.72,2.59-3.26,4.64-3.26v4.19a2.59,2.59,0,0,0-1.47-.42c-1.57,0-2.85,1.54-2.85,4.38v10.11H1268Z"/><path class="cls-2" d="M1281.76,516.42c0,2.5.86,4.9,3.17,4.9,1.5,0,2.53-1,2.88-2.72h3.42a7.28,7.28,0,0,1-2.43,4.7,6.41,6.41,0,0,1-3.87,1.25c-4.77,0-6.88-4.35-6.88-9.31,0-5.31,2.33-9.34,6.85-9.34a5.66,5.66,0,0,1,5.06,2.72c1.38,2.24,1.5,5.12,1.44,7.81Zm6.94-17.66,1.34,2.78-7.33,3.49-1.21-2.27Zm-.77,14.69c0-2-.74-4.67-3-4.67-1.89,0-3.13,1.76-3.13,4.67Z"/><path class="cls-2" d="M1302.72,511.33c0-1.7-.83-2.43-2.27-2.43a1.78,1.78,0,0,0-1.92,1.86c0,1.73,1.89,2,4,2.69s4.13,1.82,4.13,5.44a5.63,5.63,0,0,1-6,5.66c-3.36,0-5.89-1.89-6.18-5.92H1298a2.67,2.67,0,0,0,2.78,2.78,2.09,2.09,0,0,0,2.24-2.3c0-1.79-1.86-2.21-4-2.91s-4.1-1.89-4.1-5.31c0-2.91,2.08-5,5.7-5s5.41,2,5.6,5.44Z"/><path class="cls-2" d="M1313.73,516.42c0,2.5.87,4.9,3.17,4.9,1.5,0,2.53-1,2.88-2.72h3.42a7.29,7.29,0,0,1-2.43,4.7,6.41,6.41,0,0,1-3.87,1.25c-4.77,0-6.88-4.35-6.88-9.31,0-5.31,2.34-9.34,6.85-9.34a5.66,5.66,0,0,1,5.05,2.72c1.38,2.24,1.5,5.12,1.44,7.81Zm6.18-3c0-2-.74-4.67-3-4.67-1.89,0-3.14,1.76-3.14,4.67Z"/><path class="cls-2" d="M1327.78,506.27h3c0,.74,0,1.44,0,2.21a4.18,4.18,0,0,1,4.26-2.59c2.94,0,4.83,1.63,4.83,5.54v12.73h-3.46V512.54c0-1.44-.29-3.2-2.4-3.2-1.66,0-2.78,1-2.78,3.36v11.46h-3.46Z"/><path class="cls-2" d="M1345.63,509.54h-2.14v-3.26h2.14V502h3.46v4.26h2.11v3.26h-2.11v14.62h-3.46Z"/><path class="cls-2" d="M1357.44,516.42c0,2.5.86,4.9,3.17,4.9,1.5,0,2.53-1,2.88-2.72h3.42a7.28,7.28,0,0,1-2.43,4.7,6.41,6.41,0,0,1-3.87,1.25c-4.77,0-6.88-4.35-6.88-9.31,0-5.31,2.33-9.34,6.85-9.34a5.66,5.66,0,0,1,5.06,2.72c1.38,2.24,1.5,5.12,1.44,7.81Zm6.18-3c0-2-.74-4.67-3-4.67-1.89,0-3.13,1.76-3.13,4.67Z"/><path class="cls-2" d="M1371.49,506.27h3.17c0,1.09,0,2,0,2.88.74-2.72,2.59-3.26,4.64-3.26v4.19a2.59,2.59,0,0,0-1.47-.42c-1.57,0-2.85,1.54-2.85,4.38v10.11h-3.46Z"/><path class="cls-2" d="M1385.22,524.16h-3.46v-4.22h3.46Z"/><path class="cls-2" d="M630.79,745.17c0,4.9-2.78,9.06-8.13,9.06-5.12,0-8.42-4.1-8.42-12.29,0-8,3.14-12.29,8.42-12.29,5.44,0,8.19,4.29,8.13,9.38h-4c-.1-3.78-1.31-5.66-3.87-5.66-3,0-4.7,2.78-4.7,8.67,0,6,2,8.48,4.7,8.48,3,0,3.74-2.72,3.87-5.34Z"/><path class="cls-2" d="M636.55,730.1h3.68l-3.07,7.26H634Z"/><path class="cls-2" d="M647,746c0,2.5.87,4.9,3.17,4.9,1.5,0,2.53-1,2.88-2.72h3.42a7.29,7.29,0,0,1-2.43,4.7,6.41,6.41,0,0,1-3.87,1.25c-4.77,0-6.88-4.35-6.88-9.31,0-5.31,2.34-9.34,6.85-9.34a5.66,5.66,0,0,1,5.05,2.72c1.38,2.24,1.5,5.12,1.44,7.81Zm6.18-3c0-2-.74-4.67-3-4.67-1.89,0-3.14,1.76-3.14,4.67Z"/><path class="cls-2" d="M667.91,740.95c0-1.7-.83-2.43-2.27-2.43a1.78,1.78,0,0,0-1.92,1.86c0,1.73,1.89,2,4,2.69s4.13,1.82,4.13,5.44a5.63,5.63,0,0,1-6,5.66c-3.36,0-5.89-1.89-6.18-5.92h3.46a2.67,2.67,0,0,0,2.78,2.78,2.1,2.1,0,0,0,2.24-2.3c0-1.79-1.86-2.21-4-2.91s-4.1-1.89-4.1-5.31c0-2.91,2.08-5,5.7-5s5.41,2,5.6,5.44Z"/><path class="cls-2" d="M676.59,739.16h-2.14v-3.26h2.14v-4.26H680v4.26h2.11v3.26H680v14.62h-3.46Z"/><path class="cls-2" d="M709.5,753.78h-3.17c0-.77,0-1.54,0-2.37-.64,1.89-2,2.75-4.16,2.75-2.91,0-4.8-1.63-4.8-5.54V735.89h3.46v11.62c0,1.44.29,3.23,2.4,3.23,1.63,0,2.78-1.06,2.78-3.39V735.89h3.46Z"/><path class="cls-2" d="M714.69,735.89h3c0,.74,0,1.44,0,2.21a4.18,4.18,0,0,1,4.26-2.59c2.94,0,4.83,1.63,4.83,5.54v12.73h-3.46V742.16c0-1.44-.29-3.2-2.4-3.2-1.66,0-2.78,1-2.78,3.36v11.46h-3.46Z"/><path class="cls-2" d="M755.25,747.25c-.13,3.65-2,6.91-5.79,6.91-4.45,0-6.91-3.74-6.91-9.31,0-5.92,2.69-9.34,6.88-9.34,3.81,0,5.73,3.23,5.79,7h-3.58c-.13-2.69-1.12-3.71-2.46-3.71a2.24,2.24,0,0,0-2.18,1.41,10.22,10.22,0,0,0-.8,4.67c0,4.29,1.09,6.08,3,6.08,1.6,0,2.34-1.57,2.46-3.68Z"/><path class="cls-2" d="M758.16,744.82c0-5.12,2.18-9.31,6.91-9.31s6.88,4.19,6.88,9.34-2.18,9.31-6.88,9.31-6.91-4.19-6.91-9.31Zm3.65.06c0,4.38,1.18,6,3.29,6s3.2-1.66,3.2-6.08-1.18-6.08-3.3-6.08-3.2,1.63-3.2,6.08Z"/><path class="cls-2" d="M776.37,735.89h3.3c0,.8,0,1.57,0,2.4a3.73,3.73,0,0,1,4-2.78,3.94,3.94,0,0,1,2.78,1,3.48,3.48,0,0,1,.9,1.5,4,4,0,0,1,1.28-1.6,5.67,5.67,0,0,1,3.07-.86,4.8,4.8,0,0,1,4.1,2,7.19,7.19,0,0,1,1.12,4.22v12.09h-3.46V742.2A4.37,4.37,0,0,0,793,740a2,2,0,0,0-1.92-1,2.42,2.42,0,0,0-2,.77,3.54,3.54,0,0,0-.7,2.37v11.68h-3.46V742.23a4.58,4.58,0,0,0-.42-2.27,1.94,1.94,0,0,0-1.89-1,2.52,2.52,0,0,0-2,.74,3.73,3.73,0,0,0-.7,2.43v11.65h-3.49Z"/><path class="cls-2" d="M802.13,735.89h3.17v2.34a3.92,3.92,0,0,1,3.9-2.72c3.36,0,5.79,3.2,5.79,9.34,0,5.82-2.08,9.31-5.79,9.31a3.8,3.8,0,0,1-3.62-2.43v8.06h-3.46Zm9.41,8.93c0-4-1.06-5.86-3-5.86a2.39,2.39,0,0,0-2.11,1.22c-.64.86-.83,2-.83,4.67s.19,3.78.83,4.64a2.36,2.36,0,0,0,2.11,1.25c2,0,3-1.89,3-5.89Z"/><path class="cls-2" d="M819.67,730.1h3.46v23.68h-3.46Z"/><path class="cls-2" d="M831.63,746c0,2.5.87,4.9,3.17,4.9,1.5,0,2.53-1,2.88-2.72h3.42a7.29,7.29,0,0,1-2.43,4.7,6.41,6.41,0,0,1-3.87,1.25c-4.77,0-6.88-4.35-6.88-9.31,0-5.31,2.34-9.34,6.85-9.34a5.66,5.66,0,0,1,5.05,2.72c1.38,2.24,1.5,5.12,1.44,7.81Zm6.94-17.66,1.34,2.78-7.33,3.49-1.22-2.27Zm-.77,14.69c0-2-.74-4.67-3-4.67-1.89,0-3.14,1.76-3.14,4.67Z"/><path class="cls-2" d="M845.81,735.89h3.3c0,.8,0,1.57,0,2.4a3.73,3.73,0,0,1,4-2.78,3.94,3.94,0,0,1,2.78,1,3.48,3.48,0,0,1,.9,1.5,4,4,0,0,1,1.28-1.6,5.67,5.67,0,0,1,3.07-.86,4.8,4.8,0,0,1,4.1,2,7.19,7.19,0,0,1,1.12,4.22v12.09h-3.46V742.2a4.37,4.37,0,0,0-.42-2.24,2,2,0,0,0-1.92-1,2.42,2.42,0,0,0-2,.77,3.54,3.54,0,0,0-.7,2.37v11.68h-3.46V742.23a4.58,4.58,0,0,0-.42-2.27,1.94,1.94,0,0,0-1.89-1,2.52,2.52,0,0,0-2,.74,3.73,3.73,0,0,0-.7,2.43v11.65h-3.49Z"/><path class="cls-2" d="M874.52,746c0,2.5.86,4.9,3.17,4.9,1.5,0,2.53-1,2.88-2.72H884a7.28,7.28,0,0,1-2.43,4.7,6.41,6.41,0,0,1-3.87,1.25c-4.77,0-6.88-4.35-6.88-9.31,0-5.31,2.33-9.34,6.85-9.34a5.66,5.66,0,0,1,5.06,2.72c1.38,2.24,1.5,5.12,1.44,7.81Zm6.18-3c0-2-.74-4.67-3-4.67-1.89,0-3.13,1.76-3.13,4.67Z"/><path class="cls-2" d="M888.56,735.89h3c0,.74,0,1.44,0,2.21a4.18,4.18,0,0,1,4.26-2.59c2.94,0,4.83,1.63,4.83,5.54v12.73H897.2V742.16c0-1.44-.29-3.2-2.4-3.2-1.66,0-2.78,1-2.78,3.36v11.46h-3.46Z"/><path class="cls-2" d="M906.42,739.16h-2.14v-3.26h2.14v-4.26h3.46v4.26H912v3.26h-2.11v14.62h-3.46Z"/><path class="cls-2" d="M939.24,753.78h-3.17c0-1,0-1.66,0-2.34a4,4,0,0,1-3.94,2.72c-3.36,0-5.79-3.2-5.79-9.31,0-5.86,2.08-9.34,5.79-9.34a3.91,3.91,0,0,1,3.94,2.82c0-.8,0-1.54,0-2.43h3.17Zm-9.41-8.9c0,4,1.09,5.86,3,5.86a2.41,2.41,0,0,0,2.21-1.25c.64-.86.74-2,.74-4.64s-.1-3.81-.74-4.67a2.44,2.44,0,0,0-2.21-1.22c-1.92,0-3,1.86-3,5.89Z"/><path class="cls-2" d="M956.49,753.78h-3.17c0-.77,0-1.54,0-2.37-.64,1.89-2,2.75-4.16,2.75-2.91,0-4.8-1.63-4.8-5.54V735.89h3.46v11.62c0,1.44.29,3.23,2.4,3.23,1.63,0,2.78-1.06,2.78-3.39V735.89h3.46Z"/><path class="cls-2" d="M989,745.17c0,4.9-2.78,9.06-8.13,9.06-5.12,0-8.41-4.1-8.41-12.29,0-8,3.13-12.29,8.41-12.29,5.44,0,8.19,4.29,8.13,9.38h-4c-.1-3.78-1.31-5.66-3.87-5.66-3,0-4.7,2.78-4.7,8.67,0,6,2,8.48,4.7,8.48,3,0,3.74-2.72,3.87-5.34Z"/><path class="cls-2" d="M991.68,730.1h3.84l4.61,17.85,4.61-17.85h3.71l-6.62,23.68H998.3Z"/><path class="cls-2" d="M1010.33,756.82h-2.82l2.24-7.26h3.29Z"/><path class="cls-2" d="M1030,746c0,2.5.87,4.9,3.17,4.9,1.5,0,2.53-1,2.88-2.72h3.42a7.29,7.29,0,0,1-2.43,4.7,6.41,6.41,0,0,1-3.87,1.25c-4.77,0-6.88-4.35-6.88-9.31,0-5.31,2.34-9.34,6.85-9.34a5.66,5.66,0,0,1,5.05,2.72c1.38,2.24,1.5,5.12,1.44,7.81Zm6.18-3c0-2-.74-4.67-3-4.67-1.89,0-3.14,1.76-3.14,4.67Z"/><path class="cls-2" d="M1044.4,730.1h3.46v23.68h-3.46Z"/><path class="cls-2" d="M1053.81,730.1h3.46v23.68h-3.46Z"/><path class="cls-2" d="M1065.78,746c0,2.5.86,4.9,3.17,4.9,1.5,0,2.53-1,2.88-2.72h3.42a7.28,7.28,0,0,1-2.43,4.7,6.41,6.41,0,0,1-3.87,1.25c-4.77,0-6.88-4.35-6.88-9.31,0-5.31,2.33-9.34,6.85-9.34a5.66,5.66,0,0,1,5.06,2.72c1.38,2.24,1.5,5.12,1.44,7.81Zm6.18-3c0-2-.74-4.67-3-4.67-1.89,0-3.13,1.76-3.13,4.67Z"/><path class="cls-2" d="M1103.43,753.78h-3.17c0-1.06,0-1.82,0-2.59a3.92,3.92,0,0,1-3.94,3c-3.36,0-5.79-3.2-5.79-9.31,0-5.86,2.08-9.34,5.79-9.34a3.67,3.67,0,0,1,3.65,2.59c0-.7,0-1.41,0-2.21V730.1h3.46Zm-9.41-8.93c0,4,1.09,5.86,3,5.86a2.44,2.44,0,0,0,2.21-1.22c.64-.9.74-2,.74-4.67s-.1-3.78-.74-4.64a2.4,2.4,0,0,0-2.21-1.25c-1.92,0-3,1.89-3,5.89Z"/><path class="cls-2" d="M1107.72,744.82c0-5.12,2.18-9.31,6.91-9.31s6.88,4.19,6.88,9.34-2.18,9.31-6.88,9.31-6.91-4.19-6.91-9.31Zm3.65.06c0,4.38,1.18,6,3.3,6s3.2-1.66,3.2-6.08-1.18-6.08-3.29-6.08-3.2,1.63-3.2,6.08Z"/><path class="cls-2" d="M1126.18,730.1h3.46v3.42h-3.46Zm0,5.79h3.46v17.89h-3.46Z"/><path class="cls-2" d="M1135.82,739.16h-2.14v-3.26h2.14v-4.26h3.46v4.26h2.11v3.26h-2.11v14.62h-3.46Z"/><path class="cls-2" d="M1156.8,735.89h3.29c0,.8,0,1.57,0,2.4a3.73,3.73,0,0,1,4-2.78,3.94,3.94,0,0,1,2.78,1,3.49,3.49,0,0,1,.9,1.5,4,4,0,0,1,1.28-1.6,5.67,5.67,0,0,1,3.07-.86,4.8,4.8,0,0,1,4.1,2,7.18,7.18,0,0,1,1.12,4.22v12.09h-3.46V742.2a4.37,4.37,0,0,0-.42-2.24,2,2,0,0,0-1.92-1,2.42,2.42,0,0,0-2,.77,3.54,3.54,0,0,0-.7,2.37v11.68h-3.46V742.23a4.59,4.59,0,0,0-.42-2.27,1.94,1.94,0,0,0-1.89-1,2.52,2.52,0,0,0-2,.74,3.73,3.73,0,0,0-.71,2.43v11.65h-3.49Z"/><path class="cls-2" d="M1185.5,746c0,2.5.86,4.9,3.17,4.9,1.5,0,2.53-1,2.88-2.72H1195a7.28,7.28,0,0,1-2.43,4.7,6.41,6.41,0,0,1-3.87,1.25c-4.77,0-6.88-4.35-6.88-9.31,0-5.31,2.33-9.34,6.85-9.34a5.66,5.66,0,0,1,5.06,2.72c1.38,2.24,1.5,5.12,1.44,7.81Zm6.18-3c0-2-.74-4.67-3-4.67-1.89,0-3.13,1.76-3.13,4.67Z"/><path class="cls-2" d="M1200.16,739.16H1198v-3.26h2.14v-4.26h3.46v4.26h2.11v3.26h-2.11v14.62h-3.46Z"/><path class="cls-2" d="M1210,739.16h-2.14v-3.26H1210v-4.26h3.46v4.26h2.11v3.26h-2.11v14.62H1210Z"/><path class="cls-2" d="M1219.2,735.89h3.17c0,1.09,0,2,0,2.88.74-2.72,2.59-3.26,4.64-3.26v4.19a2.59,2.59,0,0,0-1.47-.42c-1.57,0-2.85,1.54-2.85,4.38v10.11h-3.46Z"/><path class="cls-2" d="M1233,746c0,2.5.87,4.9,3.17,4.9,1.5,0,2.53-1,2.88-2.72h3.42a7.29,7.29,0,0,1-2.43,4.7,6.41,6.41,0,0,1-3.87,1.25c-4.77,0-6.88-4.35-6.88-9.31,0-5.31,2.34-9.34,6.85-9.34a5.66,5.66,0,0,1,5.05,2.72c1.38,2.24,1.5,5.12,1.44,7.81Zm6.18-3c0-2-.74-4.67-3-4.67-1.89,0-3.14,1.76-3.14,4.67Z"/><path class="cls-2" d="M1261.59,746c0,2.5.86,4.9,3.17,4.9,1.5,0,2.53-1,2.88-2.72h3.42a7.28,7.28,0,0,1-2.43,4.7,6.41,6.41,0,0,1-3.87,1.25c-4.77,0-6.88-4.35-6.88-9.31,0-5.31,2.33-9.34,6.85-9.34a5.66,5.66,0,0,1,5.06,2.72c1.38,2.24,1.5,5.12,1.44,7.81Zm6.18-3c0-2-.74-4.67-3-4.67-1.89,0-3.13,1.76-3.13,4.67Z"/><path class="cls-2" d="M1275.63,735.89h3c0,.74,0,1.44,0,2.21a4.18,4.18,0,0,1,4.26-2.59c2.94,0,4.83,1.63,4.83,5.54v12.73h-3.46V742.16c0-1.44-.29-3.2-2.4-3.2-1.66,0-2.78,1-2.78,3.36v11.46h-3.46Z"/><path class="cls-2" d="M1316.49,753.78h-3.17c0-1,0-1.66,0-2.34a4,4,0,0,1-3.94,2.72c-3.36,0-5.79-3.2-5.79-9.31,0-5.86,2.08-9.34,5.79-9.34a3.91,3.91,0,0,1,3.94,2.82c0-.8,0-1.54,0-2.43h3.17Zm-9.41-8.9c0,4,1.09,5.86,3,5.86a2.41,2.41,0,0,0,2.21-1.25c.64-.86.74-2,.74-4.64s-.1-3.81-.74-4.67a2.44,2.44,0,0,0-2.21-1.22c-1.92,0-3,1.86-3,5.89Z"/><path class="cls-2" d="M1328.3,753.78h-3.2l-5.28-17.89h3.52l3.3,12.77,3-12.77h3.49Z"/><path class="cls-2" d="M1348.2,753.78H1345c0-1,0-1.66,0-2.34a4,4,0,0,1-3.94,2.72c-3.36,0-5.79-3.2-5.79-9.31,0-5.86,2.08-9.34,5.79-9.34a3.91,3.91,0,0,1,3.94,2.82c0-.8,0-1.54,0-2.43h3.17Zm-9.41-8.9c0,4,1.09,5.86,3,5.86a2.4,2.4,0,0,0,2.21-1.25c.64-.86.74-2,.74-4.64s-.1-3.81-.74-4.67a2.44,2.44,0,0,0-2.21-1.22c-1.92,0-3,1.86-3,5.89Z"/><path class="cls-2" d="M1353.38,735.89h3c0,.74,0,1.44,0,2.21a4.18,4.18,0,0,1,4.26-2.59c2.94,0,4.83,1.63,4.83,5.54v12.73H1362V742.16c0-1.44-.29-3.2-2.4-3.2-1.66,0-2.78,1-2.78,3.36v11.46h-3.46Z"/><path class="cls-2" d="M1371.24,739.16h-2.14v-3.26h2.14v-4.26h3.46v4.26h2.11v3.26h-2.11v14.62h-3.46Z"/><path class="cls-2" d="M615.21,774.29h3.29c0,.8,0,1.57,0,2.4a3.73,3.73,0,0,1,4-2.78,3.94,3.94,0,0,1,2.78,1,3.51,3.51,0,0,1,.9,1.5,4,4,0,0,1,1.28-1.6,5.67,5.67,0,0,1,3.07-.86,4.8,4.8,0,0,1,4.1,2,7.19,7.19,0,0,1,1.12,4.22v12.1h-3.46V780.6a4.37,4.37,0,0,0-.42-2.24,2,2,0,0,0-1.92-1,2.41,2.41,0,0,0-2,.77,3.53,3.53,0,0,0-.7,2.37v11.68h-3.46V780.63a4.59,4.59,0,0,0-.42-2.27,1.94,1.94,0,0,0-1.89-1,2.52,2.52,0,0,0-2,.74,3.72,3.72,0,0,0-.7,2.43v11.65h-3.49Z"/><path class="cls-2" d="M643.91,784.44c0,2.5.86,4.9,3.17,4.9,1.5,0,2.53-1,2.88-2.72h3.42a7.28,7.28,0,0,1-2.43,4.7,6.41,6.41,0,0,1-3.87,1.25c-4.77,0-6.88-4.35-6.88-9.31,0-5.31,2.33-9.34,6.85-9.34a5.66,5.66,0,0,1,5.06,2.72c1.38,2.24,1.5,5.12,1.44,7.81Zm6.18-3c0-2-.74-4.67-3-4.67-1.89,0-3.14,1.76-3.14,4.67Z"/><path class="cls-2" d="M664.87,779.35c0-1.7-.83-2.43-2.27-2.43a1.78,1.78,0,0,0-1.92,1.86c0,1.73,1.89,2,4,2.69s4.13,1.82,4.13,5.44a5.63,5.63,0,0,1-6,5.66c-3.36,0-5.89-1.89-6.18-5.92h3.46a2.67,2.67,0,0,0,2.78,2.78,2.1,2.1,0,0,0,2.24-2.3c0-1.79-1.86-2.21-4-2.91s-4.1-1.89-4.1-5.31c0-2.91,2.08-5,5.7-5s5.41,2,5.6,5.44Z"/><path class="cls-2" d="M694.35,785.65c-.13,3.65-2,6.91-5.79,6.91-4.45,0-6.91-3.74-6.91-9.31,0-5.92,2.69-9.34,6.88-9.34,3.81,0,5.73,3.23,5.79,7h-3.58c-.13-2.69-1.12-3.71-2.46-3.71a2.24,2.24,0,0,0-2.18,1.41,10.21,10.21,0,0,0-.8,4.67c0,4.29,1.09,6.08,3,6.08,1.6,0,2.34-1.57,2.46-3.68Z"/><path class="cls-2" d="M697.26,783.22c0-5.12,2.18-9.31,6.91-9.31s6.88,4.19,6.88,9.34-2.18,9.31-6.88,9.31-6.91-4.19-6.91-9.31Zm3.65.06c0,4.38,1.18,6,3.3,6s3.2-1.66,3.2-6.08-1.18-6.08-3.29-6.08-3.2,1.63-3.2,6.08Z"/><path class="cls-2" d="M715.47,774.29h3.3c0,.8,0,1.57,0,2.4a3.73,3.73,0,0,1,4-2.78,3.93,3.93,0,0,1,2.78,1,3.48,3.48,0,0,1,.9,1.5,4,4,0,0,1,1.28-1.6,5.67,5.67,0,0,1,3.07-.86,4.8,4.8,0,0,1,4.1,2,7.19,7.19,0,0,1,1.12,4.22v12.1h-3.46V780.6a4.37,4.37,0,0,0-.42-2.24,2,2,0,0,0-1.92-1,2.41,2.41,0,0,0-2,.77,3.54,3.54,0,0,0-.7,2.37v11.68H724V780.63a4.58,4.58,0,0,0-.42-2.27,1.94,1.94,0,0,0-1.89-1,2.52,2.52,0,0,0-2,.74,3.72,3.72,0,0,0-.7,2.43v11.65h-3.49Z"/><path class="cls-2" d="M741.22,774.29h3.17v2.34a3.92,3.92,0,0,1,3.9-2.72c3.36,0,5.79,3.2,5.79,9.34,0,5.82-2.08,9.31-5.79,9.31a3.8,3.8,0,0,1-3.62-2.43v8.06h-3.46Zm9.41,8.93c0-4-1.06-5.86-3-5.86a2.39,2.39,0,0,0-2.11,1.22c-.64.86-.83,2-.83,4.67s.19,3.78.83,4.64a2.36,2.36,0,0,0,2.11,1.25c2,0,3-1.89,3-5.89Z"/><path class="cls-2" d="M761.32,784.44c0,2.5.87,4.9,3.17,4.9,1.5,0,2.53-1,2.88-2.72h3.42a7.28,7.28,0,0,1-2.43,4.7,6.41,6.41,0,0,1-3.87,1.25c-4.77,0-6.88-4.35-6.88-9.31,0-5.31,2.34-9.34,6.85-9.34a5.66,5.66,0,0,1,5.05,2.72c1.38,2.24,1.5,5.12,1.44,7.81Zm6.94-17.66,1.34,2.78L762.28,773l-1.22-2.27Zm-.77,14.69c0-2-.74-4.67-3-4.67-1.89,0-3.14,1.76-3.14,4.67Z"/><path class="cls-2" d="M776,777.56h-2.14v-3.26H776V770h3.46v4.26h2.11v3.26h-2.11v14.62H776Z"/><path class="cls-2" d="M787.78,784.44c0,2.5.86,4.9,3.17,4.9,1.5,0,2.53-1,2.88-2.72h3.42a7.27,7.27,0,0,1-2.43,4.7,6.41,6.41,0,0,1-3.87,1.25c-4.77,0-6.88-4.35-6.88-9.31,0-5.31,2.33-9.34,6.85-9.34a5.66,5.66,0,0,1,5.06,2.72c1.38,2.24,1.5,5.12,1.44,7.81Zm6.18-3c0-2-.74-4.67-3-4.67-1.89,0-3.13,1.76-3.13,4.67Z"/><path class="cls-2" d="M801.83,774.29h3c0,.74,0,1.44,0,2.21a4.18,4.18,0,0,1,4.26-2.59c2.94,0,4.83,1.63,4.83,5.54v12.74h-3.46V780.57c0-1.44-.29-3.2-2.4-3.2-1.66,0-2.78,1-2.78,3.36v11.46h-3.46Z"/><path class="cls-2" d="M830.76,785.65c-.13,3.65-2,6.91-5.79,6.91-4.45,0-6.91-3.74-6.91-9.31,0-5.92,2.69-9.34,6.88-9.34,3.81,0,5.73,3.23,5.79,7h-3.58c-.13-2.69-1.12-3.71-2.46-3.71a2.24,2.24,0,0,0-2.18,1.41,10.22,10.22,0,0,0-.8,4.67c0,4.29,1.09,6.08,3,6.08,1.6,0,2.34-1.57,2.46-3.68Z"/><path class="cls-2" d="M837.51,784.44c0,2.5.87,4.9,3.17,4.9,1.5,0,2.53-1,2.88-2.72H847a7.28,7.28,0,0,1-2.43,4.7,6.41,6.41,0,0,1-3.87,1.25c-4.77,0-6.88-4.35-6.88-9.31,0-5.31,2.34-9.34,6.85-9.34a5.66,5.66,0,0,1,5.05,2.72c1.38,2.24,1.5,5.12,1.44,7.81Zm6.18-3c0-2-.74-4.67-3-4.67-1.89,0-3.14,1.76-3.14,4.67Z"/><path class="cls-2" d="M858.47,779.35c0-1.7-.83-2.43-2.27-2.43a1.78,1.78,0,0,0-1.92,1.86c0,1.73,1.89,2,4,2.69s4.13,1.82,4.13,5.44a5.63,5.63,0,0,1-6,5.66c-3.36,0-5.89-1.89-6.18-5.92h3.46a2.67,2.67,0,0,0,2.78,2.78,2.1,2.1,0,0,0,2.24-2.3c0-1.79-1.86-2.21-4-2.91s-4.1-1.89-4.1-5.31c0-2.91,2.08-5,5.7-5s5.41,2,5.6,5.44Z"/><path class="cls-2" d="M876.26,774.29h3.17v2.34a3.92,3.92,0,0,1,3.9-2.72c3.36,0,5.79,3.2,5.79,9.34,0,5.82-2.08,9.31-5.79,9.31a3.8,3.8,0,0,1-3.62-2.43v8.06h-3.46Zm9.41,8.93c0-4-1.06-5.86-3-5.86a2.39,2.39,0,0,0-2.11,1.22c-.64.86-.83,2-.83,4.67s.19,3.78.83,4.64a2.36,2.36,0,0,0,2.11,1.25c2,0,3-1.89,3-5.89Z"/><path class="cls-2" d="M892.52,783.22c0-5.12,2.18-9.31,6.91-9.31s6.88,4.19,6.88,9.34-2.18,9.31-6.88,9.31-6.91-4.19-6.91-9.31Zm3.65.06c0,4.38,1.18,6,3.3,6s3.2-1.66,3.2-6.08-1.18-6.08-3.29-6.08-3.2,1.63-3.2,6.08Z"/><path class="cls-2" d="M922.66,792.18h-3.17c0-.77,0-1.54,0-2.37-.64,1.89-2,2.75-4.16,2.75-2.91,0-4.8-1.63-4.8-5.54V774.29H914v11.62c0,1.44.29,3.23,2.4,3.23,1.63,0,2.78-1.06,2.78-3.39V774.29h3.46Z"/><path class="cls-2" d="M927.85,774.29H931c0,1.09,0,2,0,2.88.74-2.72,2.59-3.26,4.64-3.26v4.19a2.59,2.59,0,0,0-1.47-.42c-1.57,0-2.85,1.54-2.85,4.38v10.11h-3.46Z"/><path class="cls-2" d="M960.52,785.65c-.13,3.65-2,6.91-5.79,6.91-4.45,0-6.91-3.74-6.91-9.31,0-5.92,2.69-9.34,6.88-9.34,3.81,0,5.73,3.23,5.79,7H956.9c-.13-2.69-1.12-3.71-2.46-3.71a2.24,2.24,0,0,0-2.18,1.41,10.22,10.22,0,0,0-.8,4.67c0,4.29,1.09,6.08,3,6.08,1.6,0,2.34-1.57,2.46-3.68Z"/><path class="cls-2" d="M967.27,784.44c0,2.5.87,4.9,3.17,4.9,1.5,0,2.53-1,2.88-2.72h3.42a7.28,7.28,0,0,1-2.43,4.7,6.41,6.41,0,0,1-3.87,1.25c-4.77,0-6.88-4.35-6.88-9.31,0-5.31,2.34-9.34,6.85-9.34a5.66,5.66,0,0,1,5.05,2.72c1.38,2.24,1.5,5.12,1.44,7.81Zm6.18-3c0-2-.74-4.67-3-4.67-1.89,0-3.14,1.76-3.14,4.67Z"/><path class="cls-2" d="M991,774.29h3.17v2.34a3.92,3.92,0,0,1,3.9-2.72c3.36,0,5.79,3.2,5.79,9.34,0,5.82-2.08,9.31-5.79,9.31a3.8,3.8,0,0,1-3.62-2.43v8.06H991Zm9.41,8.93c0-4-1.06-5.86-3-5.86a2.39,2.39,0,0,0-2.11,1.22c-.64.86-.83,2-.83,4.67s.19,3.78.83,4.64a2.36,2.36,0,0,0,2.11,1.25c2,0,3-1.89,3-5.89Z"/><path class="cls-2" d="M1007.3,783.22c0-5.12,2.18-9.31,6.91-9.31s6.88,4.19,6.88,9.34-2.18,9.31-6.88,9.31-6.91-4.19-6.91-9.31Zm3.65.06c0,4.38,1.18,6,3.3,6s3.2-1.66,3.2-6.08-1.18-6.08-3.3-6.08-3.2,1.63-3.2,6.08Z"/><path class="cls-2" d="M1032.29,779.35c0-1.7-.83-2.43-2.27-2.43a1.78,1.78,0,0,0-1.92,1.86c0,1.73,1.89,2,4,2.69s4.13,1.82,4.13,5.44a5.63,5.63,0,0,1-6,5.66c-3.36,0-5.89-1.89-6.17-5.92h3.46a2.67,2.67,0,0,0,2.78,2.78,2.1,2.1,0,0,0,2.24-2.3c0-1.79-1.86-2.21-4-2.91s-4.1-1.89-4.1-5.31c0-2.91,2.08-5,5.7-5s5.41,2,5.6,5.44Z"/><path class="cls-2" d="M1041,777.56h-2.14v-3.26H1041V770h3.46v4.26h2.11v3.26h-2.11v14.62H1041Z"/><path class="cls-2" d="M1052.77,784.44c0,2.5.86,4.9,3.17,4.9,1.5,0,2.53-1,2.88-2.72h3.42a7.27,7.27,0,0,1-2.43,4.7,6.41,6.41,0,0,1-3.87,1.25c-4.77,0-6.88-4.35-6.88-9.31,0-5.31,2.33-9.34,6.85-9.34a5.66,5.66,0,0,1,5.06,2.72c1.38,2.24,1.5,5.12,1.44,7.81Zm6.18-3c0-2-.74-4.67-3-4.67-1.89,0-3.13,1.76-3.13,4.67Z"/><path class="cls-2" d="M1076.55,774.29h3.17v2.34a3.92,3.92,0,0,1,3.9-2.72c3.36,0,5.79,3.2,5.79,9.34,0,5.82-2.08,9.31-5.79,9.31a3.8,3.8,0,0,1-3.62-2.43v8.06h-3.46Zm9.41,8.93c0-4-1.06-5.86-3-5.86a2.39,2.39,0,0,0-2.11,1.22c-.64.86-.83,2-.83,4.67s.19,3.78.83,4.64a2.36,2.36,0,0,0,2.11,1.25c2,0,3-1.89,3-5.89Z"/><path class="cls-2" d="M1093.7,774.29h3.17c0,1.09,0,2,0,2.88.74-2.72,2.59-3.26,4.64-3.26v4.19a2.59,2.59,0,0,0-1.47-.42c-1.57,0-2.85,1.54-2.85,4.38v10.11h-3.46Z"/><path class="cls-2" d="M1107.46,784.44c0,2.5.86,4.9,3.17,4.9,1.5,0,2.53-1,2.88-2.72h3.42a7.27,7.27,0,0,1-2.43,4.7,6.41,6.41,0,0,1-3.87,1.25c-4.77,0-6.88-4.35-6.88-9.31,0-5.31,2.33-9.34,6.85-9.34a5.66,5.66,0,0,1,5.06,2.72c1.38,2.24,1.5,5.12,1.44,7.81Zm6.94-17.66,1.34,2.78-7.33,3.49-1.21-2.27Zm-.77,14.69c0-2-.74-4.67-3-4.67-1.89,0-3.13,1.76-3.13,4.67Z"/><path class="cls-2" d="M1133.19,785.65c-.13,3.65-2,6.91-5.79,6.91-4.45,0-6.91-3.74-6.91-9.31,0-5.92,2.69-9.34,6.88-9.34,3.81,0,5.73,3.23,5.79,7h-3.58c-.13-2.69-1.12-3.71-2.46-3.71a2.24,2.24,0,0,0-2.18,1.41,10.21,10.21,0,0,0-.8,4.67c0,4.29,1.09,6.08,3,6.08,1.6,0,2.34-1.57,2.46-3.68Z"/><path class="cls-2" d="M1137.38,768.5h3.46v3.42h-3.46Zm0,5.79h3.46v17.89h-3.46Z"/><path class="cls-2" d="M1153.32,779.35c0-1.7-.83-2.43-2.27-2.43a1.78,1.78,0,0,0-1.92,1.86c0,1.73,1.89,2,4,2.69s4.13,1.82,4.13,5.44a5.63,5.63,0,0,1-6,5.66c-3.36,0-5.89-1.89-6.18-5.92h3.46a2.67,2.67,0,0,0,2.78,2.78,2.1,2.1,0,0,0,2.24-2.3c0-1.79-1.86-2.21-4-2.91s-4.1-1.89-4.1-5.31c0-2.91,2.08-5,5.7-5s5.41,2,5.6,5.44Z"/><path class="cls-2" d="M1164.32,784.44c0,2.5.86,4.9,3.17,4.9,1.5,0,2.53-1,2.88-2.72h3.42a7.27,7.27,0,0,1-2.43,4.7,6.41,6.41,0,0,1-3.87,1.25c-4.77,0-6.88-4.35-6.88-9.31,0-5.31,2.33-9.34,6.85-9.34a5.66,5.66,0,0,1,5.06,2.72c1.38,2.24,1.5,5.12,1.44,7.81Zm6.94-17.66,1.34,2.78-7.33,3.49-1.21-2.27Zm-.77,14.69c0-2-.74-4.67-3-4.67-1.89,0-3.13,1.76-3.13,4.67Z"/><path class="cls-2" d="M1178.5,774.29h3.29c0,.8,0,1.57,0,2.4a3.73,3.73,0,0,1,4-2.78,3.94,3.94,0,0,1,2.78,1,3.51,3.51,0,0,1,.9,1.5,4,4,0,0,1,1.28-1.6,5.67,5.67,0,0,1,3.07-.86,4.8,4.8,0,0,1,4.1,2,7.19,7.19,0,0,1,1.12,4.22v12.1h-3.46V780.6a4.37,4.37,0,0,0-.42-2.24,2,2,0,0,0-1.92-1,2.41,2.41,0,0,0-2,.77,3.53,3.53,0,0,0-.7,2.37v11.68H1187V780.63a4.59,4.59,0,0,0-.42-2.27,1.94,1.94,0,0,0-1.89-1,2.52,2.52,0,0,0-2,.74,3.72,3.72,0,0,0-.7,2.43v11.65h-3.49Z"/><path class="cls-2" d="M1207.2,784.44c0,2.5.87,4.9,3.17,4.9,1.5,0,2.53-1,2.88-2.72h3.42a7.28,7.28,0,0,1-2.43,4.7,6.41,6.41,0,0,1-3.87,1.25c-4.77,0-6.88-4.35-6.88-9.31,0-5.31,2.34-9.34,6.85-9.34a5.66,5.66,0,0,1,5.05,2.72c1.38,2.24,1.5,5.12,1.44,7.81Zm6.18-3c0-2-.74-4.67-3-4.67-1.89,0-3.14,1.76-3.14,4.67Z"/><path class="cls-2" d="M1221.25,774.29h3c0,.74,0,1.44,0,2.21a4.18,4.18,0,0,1,4.26-2.59c2.94,0,4.83,1.63,4.83,5.54v12.74h-3.46V780.57c0-1.44-.29-3.2-2.4-3.2-1.66,0-2.78,1-2.78,3.36v11.46h-3.46Z"/><path class="cls-2" d="M1239.11,777.56H1237v-3.26h2.14V770h3.46v4.26h2.11v3.26h-2.11v14.62h-3.46Z"/><path class="cls-2" d="M1252.42,792.18H1249V788h3.46Z"/></g><g id="vignettes_réponses" data-name="vignettes réponses"><polygon class="cls-1" points="356.35 216.42 226.06 184.86 95.76 216.42 95.76 0.14 356.35 0.14 356.35 216.42"/><path class="cls-2" d="M128.16,64.46h9.66q8.89,0,8.89,9.57v6.52q0,6-4.82,7.78l7.1,20.38h-8l-5-19h-.4v19h-7.36Zm7.36,7.05V83.06h.88a5.51,5.51,0,0,0,1.55-.13,2.27,2.27,0,0,0,1.39-2.37V74q0-2.52-2.17-2.52Z"/><path class="cls-2" d="M154.33,64.46h17.33v7.05h-10V83.06h8.58v7.08h-8.58v11.54h10v7.05H154.33Zm16.54-5-6.41,4.16h-6.32l7-6.48h5.7Z"/><path class="cls-2" d="M177,64.46h9.66q8.89,0,8.89,9.57v6.52q0,7-6.35,9.09a15.16,15.16,0,0,1-4.38.49h-.46v18.59H177Zm7.36,7.05V83.06h.88a5.51,5.51,0,0,0,1.55-.13,2.27,2.27,0,0,0,1.39-2.37V74q0-2.52-2.17-2.52Z"/><path class="cls-2" d="M220.65,99.86q0,9.55-9.55,9.57t-9.53-9.57V73.33q0-9.55,9.53-9.55t9.55,9.55Zm-7.36-26.53q0-2.48-2.17-2.5h0q-2.14,0-2.14,2.5V99.86q0,2.5,2.17,2.5t2.19-2.5Z"/><path class="cls-2" d="M227.77,64.46H235L240,86.26V64.46h6.9v44.26h-7.27l-4.69-21.2v21.2h-7.12Z"/><path class="cls-2" d="M254,73.33q0-9.55,9.53-9.55T273,73.33v6.28h-7.36V73.33q0-2.48-2.17-2.5h0q-2.14,0-2.14,2.5v3.94q0,2.7,5.66,6.76Q273,88.34,273,94.38v5.48q0,9.57-9.53,9.57T254,99.86V93.58h7.36v6.28q0,2.5,2.19,2.5t2.17-2.5v-5q0-2.94-5.66-7Q254,83.59,254,77.4Z"/><path class="cls-2" d="M280.16,64.46h17.33v7.05h-10V83.06h8.58v7.08h-8.58v11.54h10v7.05H280.16Z"/><path class="cls-2" d="M303.51,73.33q0-9.55,9.53-9.55t9.55,9.55v6.28h-7.36V73.33q0-2.48-2.17-2.5h0q-2.14,0-2.14,2.5v3.94q0,2.7,5.66,6.76,6.06,4.31,6.06,10.35v5.48q0,9.57-9.53,9.57t-9.55-9.57V93.58h7.36v6.28q0,2.5,2.19,2.5t2.17-2.5v-5q0-2.94-5.66-7-6.06-4.31-6.06-10.5Z"/></g></svg>