<svg xmlns="http://www.w3.org/2000/svg" viewBox="0 0 328.88 92.38"><defs><style>.cls-1{isolation:isolate;}.cls-2{fill:#7a5d00;opacity:0.22;}.cls-3{fill:#fefeff;}.cls-4{fill:#d8d8d8;mix-blend-mode:multiply;}</style></defs><title>game1b_item4</title><g class="cls-1"><g id="Calque_2" data-name="Calque 2"><g id="Calque_7" data-name="Calque 7"><polygon class="cls-2" points="297.09 11.6 6.39 6.5 0 92.38 321.91 86.09 319.72 28.38 297.09 11.6"/><polygon class="cls-3" points="290.72 1.97 13.37 0 6.97 85.88 328.88 79.59 326.51 30.1 290.72 1.97"/><path d="M46.17,47.46c-.07-4.85,1.77-8.07,5.59-8.13s5.76,3.11,5.83,8S55.82,55.4,52,55.46s-5.76-3.11-5.83-8Zm3.28,0c.06,3.72.87,5.09,2.51,5.06s2.41-1.42,2.36-5.16-.87-5.11-2.51-5.09-2.41,1.42-2.36,5.16Z"/><path d="M60,39.5l4.7-.07A4.41,4.41,0,0,1,68,40.5a3.86,3.86,0,0,1,1.07,2.78,2.82,2.82,0,0,1-2.51,3.19,3.54,3.54,0,0,1,3.23,3.88,4.73,4.73,0,0,1-1.09,3.23A4.36,4.36,0,0,1,65.43,55L60.27,55Zm3.28,6h.73a2,2,0,0,0,1.34-.42,1.64,1.64,0,0,0,.42-1.27,1.49,1.49,0,0,0-.46-1.19A2,2,0,0,0,64,42.26h-.73Zm.1,6.68,1.2,0a2,2,0,0,0,1.48-.55,1.77,1.77,0,0,0,.42-1.35,1.76,1.76,0,0,0-2-2l-1.2,0Z"/><path d="M80.12,50.75a4.83,4.83,0,0,1-.35,2A3.65,3.65,0,0,1,78,54.58a5.34,5.34,0,0,1-2.3.52c-2.65,0-4.49-1.4-4.54-4.22V50l3.19,0v.29c0,1.55.39,1.93,1.31,1.91a1.14,1.14,0,0,0,1-.39,2.76,2.76,0,0,0,.27-1.56l-.16-11,3.19,0Z"/><path d="M83.41,39.15,91,39,91,42,86.64,42l0,3L91.05,45l0,2.94L86.73,48l.06,3.74,4.37-.07,0,2.94-7.56.11Z"/><path d="M96.07,41.9l-2.6,0,0-2.94,8.4-.13,0,2.94-2.6,0,.19,12.6-3.19,0Z"/><path d="M110.47,38.75l4.47-.07a5.53,5.53,0,0,1,4.84,2.22,9.47,9.47,0,0,1,1.61,5.46c.06,4.24-2,7.8-6.12,7.86l-4.58.07Zm3.38,12.55,1.39,0c2.58,0,2.91-3.24,2.89-4.87a7.25,7.25,0,0,0-.77-3.52A2.44,2.44,0,0,0,115,41.62l-1.28,0Z"/><path d="M124,38.54l7.56-.11,0,2.94-4.37.07,0,3,4.37-.07,0,2.94-4.37.07.06,3.74,4.37-.07,0,2.94-7.56.11Z"/><path d="M141.38,38.28l3.19,0,.19,12.6,4.07-.06,0,2.94-7.26.11Z"/><path d="M153.27,53.64l-3.23,0,4-15.6,2.94,0,4.64,15.47-3.23,0-.84-2.95-3.57.05Zm2.35-11-.91,5.1,2,0Z"/><path d="M180.41,47.21c0,3.55-1.88,6.35-5.53,6.4-3.4.05-5.67-2.54-5.75-8s2.1-8.09,5.51-8.15c3.76-.06,5.71,2.75,5.72,6.36l-3.27,0c-.13-2.77-.93-3.41-2.15-3.39-1.47,0-2.58,1.36-2.53,5.08s1.21,5,2.68,5c1.66,0,2-1.67,2.05-3.33Z"/><path d="M184.45,53.18l-3.23,0,4-15.6,2.94,0,4.64,15.47-3.23,0-.84-2.95-3.57.05Zm2.35-11-.91,5.1,2,0Z"/><path d="M201.89,46.51l-.14-9.13,2.81,0,.23,15.54-2.85,0L197.42,43l.15,10-2.81,0-.23-15.54,3.23,0Z"/><path d="M207.8,37.29l4.47-.07a5.53,5.53,0,0,1,4.84,2.22,9.47,9.47,0,0,1,1.61,5.46c.06,4.24-2,7.8-6.12,7.86l-4.58.07Zm3.38,12.55,1.39,0c2.58,0,2.91-3.24,2.89-4.87a7.25,7.25,0,0,0-.77-3.52,2.44,2.44,0,0,0-2.37-1.27l-1.28,0Z"/><path d="M221.17,37.09l3.19,0,.23,15.54-3.19,0Z"/><path d="M227.51,37l4.47-.07a5.53,5.53,0,0,1,4.84,2.22,9.47,9.47,0,0,1,1.61,5.46c.06,4.24-2,7.8-6.12,7.86l-4.58.07Zm3.38,12.55,1.39,0c2.58,0,2.91-3.24,2.89-4.87a7.25,7.25,0,0,0-.77-3.52A2.44,2.44,0,0,0,232,39.87l-1.28,0Z"/><path d="M242.23,52.31l-3.23,0,4-15.6,2.94,0,4.64,15.47-3.23,0-.84-2.95-3.57.05Zm2.35-11-.91,5.1,2,0Z"/><path d="M252.46,39.56l-2.6,0,0-2.94,8.4-.13,0,2.94-2.6,0,.19,12.6-3.19,0Z"/><path d="M263.67,36.45,263.83,47a2.54,2.54,0,0,0,.47,1.69,1.75,1.75,0,0,0,1.5.52,1.83,1.83,0,0,0,1.5-.57,2.67,2.67,0,0,0,.39-1.71l-.16-10.58,3.19,0,.17,11.11a4.64,4.64,0,0,1-1.1,3.4,6.53,6.53,0,0,1-7.94.12,4.73,4.73,0,0,1-1.21-3.36l-.17-11.11Z"/><path d="M273.88,36.3l4-.06c2.2,0,3.62.51,4.3,1.3a5.33,5.33,0,0,1,1.31,3.57,5.73,5.73,0,0,1-.43,2.36,4.18,4.18,0,0,1-1.8,2.06l3,6.15-3.57.05-3.54-7.84c.36,0,.55,0,.8,0a2.47,2.47,0,0,0,1.57-.61,2.41,2.41,0,0,0,.67-1.79,2.24,2.24,0,0,0-.76-1.88,2.44,2.44,0,0,0-1.64-.4h-.73l.19,12.6-3.19,0Z"/><path d="M286.22,36.11l7.56-.11,0,2.94-4.37.07,0,3,4.37-.07,0,2.94-4.37.07.06,3.74L294,48.6l0,2.94-7.56.11Z"/><polygon class="cls-4" points="326.68 30.1 290.89 1.97 293.01 29.01 326.68 30.1"/></g></g></g></svg>