<?xml version="1.0" encoding="utf-8"?>
<!-- Generator: Adobe Illustrator 21.1.0, SVG Export Plug-In . SVG Version: 6.00 Build 0)  -->
<svg version="1.1" id="Calque_1" xmlns="http://www.w3.org/2000/svg" xmlns:xlink="http://www.w3.org/1999/xlink" x="0px" y="0px"
	 viewBox="0 0 1920 1080" style="enable-background:new 0 0 1920 1080;" xml:space="preserve">
<style type="text/css">
	.st0{fill:#8CC63F;}
	.st1{fill:#FFFFFF;}
</style>
<title>game3e2</title>
<g id="contenu">
	<path class="st0" d="M487.9,456.3H1600l0,0V502c0,11.4-9.2,20.6-20.6,20.6H487.9c-11.4,0-20.6-9.2-20.6-20.6c0,0,0,0,0,0v-25.1
		C467.3,465.5,476.5,456.3,487.9,456.3C487.9,456.3,487.9,456.3,487.9,456.3z"/>
	<path class="st0" d="M487.9,550.1h1071.5l0,0v68.3c0,11.4-9.2,20.6-20.6,20.6h-1051c-11.4,0-20.6-9.2-20.6-20.6l0,0v-47.8
		C467.3,559.4,476.5,550.1,487.9,550.1C487.9,550.1,487.9,550.1,487.9,550.1z"/>
	<path class="st1" d="M489.1,489.9c0,0.8-0.1,1.6-0.4,2.4c-0.4,0.8-1,1.5-1.8,1.9c-0.8,0.4-1.7,0.7-2.6,0.6c-2.4,0.2-4.5-1.6-4.8-4
		c0-0.2,0-0.3,0-0.5c0-0.3,0-0.6,0-0.9h2.9c0,0.1,0,0.2,0,0.3c0.1,1.9,0.9,2.3,1.9,2.3c0.6,0,1.2-0.3,1.5-0.8c0.3-0.6,0.4-1.3,0.3-2
		v-12.5h2.9L489.1,489.9z"/>
	<path class="st1" d="M495.4,488.7c0,1.9,0.6,3.7,2.4,3.7c1.1,0,2.1-0.9,2.2-2h2.6c-0.1,1.4-0.8,2.6-1.8,3.5
		c-0.8,0.6-1.9,0.9-2.9,0.9c-3.6,0-5.2-3.3-5.2-7c0-4,1.8-7,5.1-7c1.5-0.1,3,0.7,3.8,2c0.9,1.8,1.3,3.8,1.1,5.9H495.4z M500,486.5
		c0-1.5-0.5-3.5-2.3-3.5c-1.4,0-2.4,1.3-2.4,3.5H500z"/>
	<path class="st1" d="M513.3,481.1h2.5c0,0.6,0,1.2,0,1.8c0.3-1.3,1.6-2.2,3-2.1c0.8,0,1.5,0.2,2.1,0.7c0.3,0.3,0.5,0.7,0.7,1.1
		c0.2-0.5,0.6-0.9,1-1.2c0.7-0.4,1.5-0.7,2.3-0.6c1.2-0.1,2.4,0.5,3.1,1.5c0.6,0.9,0.9,2.1,0.8,3.2v9.1h-2.6v-8.7
		c0-0.6-0.1-1.2-0.3-1.7c-0.3-0.5-0.9-0.8-1.4-0.7c-0.6-0.1-1.1,0.2-1.5,0.6c-0.4,0.5-0.6,1.1-0.5,1.8v8.8h-2.6v-8.7
		c0-0.6-0.1-1.2-0.3-1.7c-0.3-0.5-0.8-0.8-1.4-0.7c-0.6-0.1-1.1,0.2-1.5,0.5c-0.4,0.5-0.6,1.2-0.5,1.8v8.7h-2.6L513.3,481.1z"/>
	<path class="st1" d="M534.8,488.7c0,1.9,0.7,3.7,2.4,3.7c1.1,0,2.1-0.9,2.2-2h2.6c-0.1,1.4-0.8,2.6-1.8,3.5
		c-0.8,0.6-1.9,0.9-2.9,0.9c-3.6,0-5.2-3.3-5.2-7c0-4,1.8-7,5.1-7c1.5-0.1,3,0.7,3.8,2c0.9,1.8,1.3,3.8,1.1,5.9H534.8z M539.5,486.5
		c0-1.5-0.5-3.5-2.3-3.5c-1.4,0-2.3,1.3-2.3,3.5H539.5z"/>
	<path class="st1" d="M552.7,481.1h2.3v1.8c0.4-1.2,1.6-2.1,2.9-2c2.5,0,4.3,2.4,4.3,7c0,4.4-1.6,7-4.3,7c-1.2,0-2.3-0.7-2.7-1.8v6
		h-2.6L552.7,481.1z M559.7,487.8c0-3-0.8-4.4-2.3-4.4c-0.7,0-1.3,0.3-1.6,0.9c-0.5,0.6-0.6,1.5-0.6,3.5s0.1,2.8,0.6,3.5
		c0.3,0.6,0.9,0.9,1.6,0.9C558.9,492.3,559.7,490.9,559.7,487.8L559.7,487.8z"/>
	<path class="st1" d="M567.7,488.7c0,1.9,0.7,3.7,2.4,3.7c1.1,0,2.1-0.9,2.2-2h2.6c-0.2,1.4-0.8,2.6-1.8,3.5
		c-0.8,0.6-1.9,0.9-2.9,0.9c-3.6,0-5.2-3.3-5.2-7c0-4,1.8-7,5.1-7c1.5-0.1,3,0.7,3.8,2c0.9,1.8,1.3,3.8,1.1,5.9L567.7,488.7z
		 M572.4,486.5c0-1.5-0.5-3.5-2.3-3.5c-1.4,0-2.3,1.3-2.3,3.5H572.4z"/>
	<path class="st1" d="M578.3,481.1h2.4c0,0.8,0,1.5,0,2.2c0.5-2,1.9-2.5,3.5-2.5v3.2c-0.3-0.2-0.7-0.3-1.1-0.3
		c-1.2,0-2.1,1.1-2.1,3.3v7.6h-2.6L578.3,481.1z"/>
	<path class="st1" d="M586.8,481.1h2.5c0,0.6,0,1.2,0,1.8c0.3-1.3,1.6-2.2,3-2.1c0.8,0,1.5,0.2,2.1,0.7c0.3,0.3,0.5,0.7,0.7,1.1
		c0.2-0.5,0.6-0.9,1-1.2c0.7-0.4,1.5-0.7,2.3-0.6c1.2-0.1,2.4,0.5,3.1,1.5c0.6,0.9,0.9,2.1,0.8,3.2v9.1h-2.6v-8.7
		c0-0.6-0.1-1.2-0.3-1.7c-0.3-0.5-0.9-0.8-1.4-0.7c-0.6-0.1-1.1,0.2-1.5,0.6c-0.4,0.5-0.6,1.1-0.5,1.8v8.8h-2.6v-8.7
		c0-0.6-0.1-1.2-0.3-1.7c-0.3-0.5-0.8-0.8-1.4-0.7c-0.6-0.1-1.1,0.1-1.5,0.5c-0.4,0.5-0.6,1.2-0.5,1.8v8.7h-2.6L586.8,481.1z"/>
	<path class="st1" d="M608.3,488.7c0,1.9,0.7,3.7,2.4,3.7c1.1,0,2.1-0.9,2.2-2h2.6c-0.1,1.4-0.8,2.6-1.8,3.5
		c-0.8,0.6-1.9,0.9-2.9,0.9c-3.6,0-5.2-3.3-5.2-7c0-4,1.8-7,5.1-7c1.5-0.1,3,0.7,3.8,2c0.9,1.8,1.3,3.8,1.1,5.9H608.3z M613,486.5
		c0-1.5-0.5-3.5-2.3-3.5c-1.4,0-2.3,1.3-2.3,3.5H613z"/>
	<path class="st1" d="M619.3,483.6h-1.6v-2.5h1.6v-3.2h2.6v3.2h1.6v2.5h-1.6v11h-2.6V483.6z"/>
	<path class="st1" d="M626.7,483.6h-1.6v-2.5h1.6v-3.2h2.6v3.2h1.6v2.5h-1.6v11h-2.6V483.6z"/>
	<path class="st1" d="M633.6,481.1h2.4c0,0.8,0,1.5,0,2.2c0.5-2,1.9-2.5,3.5-2.5v3.2c-0.3-0.2-0.7-0.3-1.1-0.3
		c-1.2,0-2.1,1.1-2.1,3.3v7.6h-2.6L633.6,481.1z"/>
	<path class="st1" d="M650.7,494.5h-2.4c0-0.7,0-1.2,0-1.8c-0.4,1.3-1.7,2.1-3,2c-2.5,0-4.3-2.4-4.3-7c0-4.4,1.6-7,4.3-7
		c1.4-0.1,2.6,0.8,3,2.1c0-0.6,0-1.1,0-1.8h2.4V494.5z M643.6,487.9c0,3,0.8,4.4,2.3,4.4c0.7,0,1.3-0.3,1.7-0.9
		c0.5-0.6,0.5-1.5,0.5-3.5s-0.1-2.9-0.5-3.5c-0.3-0.6-1-0.9-1.7-0.9C644.5,483.4,643.6,484.8,643.6,487.9L643.6,487.9z"/>
	<path class="st1" d="M654.9,476.8h2.6v2.6h-2.6V476.8z M654.9,481.1h2.6v13.4h-2.6V481.1z"/>
	<path class="st1" d="M677.9,494.5h-2.4c0-0.8,0-1.4,0-1.9c-0.3,1.4-1.6,2.3-3,2.2c-2.5,0-4.3-2.4-4.3-7c0-4.4,1.6-7,4.3-7
		c1.2-0.1,2.4,0.7,2.7,1.9c0-0.5,0-1.1,0-1.7v-4.3h2.6L677.9,494.5z M670.8,487.8c0,3,0.8,4.4,2.3,4.4c0.7,0,1.3-0.3,1.7-0.9
		c0.5-0.7,0.5-1.5,0.5-3.5s-0.1-2.8-0.5-3.5c-0.3-0.6-1-1-1.7-0.9C671.7,483.4,670.8,484.8,670.8,487.8L670.8,487.8z"/>
	<path class="st1" d="M684,488.7c0,1.9,0.7,3.7,2.4,3.7c1.1,0,2.1-0.9,2.2-2h2.6c-0.1,1.4-0.8,2.6-1.8,3.5c-0.8,0.6-1.9,0.9-2.9,0.9
		c-3.6,0-5.2-3.3-5.2-7c0-4,1.8-7,5.1-7c1.5-0.1,3,0.7,3.8,2c0.9,1.8,1.3,3.8,1.1,5.9H684z M688.6,486.5c0-1.5-0.5-3.5-2.3-3.5
		c-1.4,0-2.3,1.3-2.3,3.5H688.6z"/>
	<path class="st1" d="M701.8,481.1h2.4c0,0.8,0,1.5,0,2.2c0.5-2,1.9-2.5,3.5-2.5v3.2c-0.3-0.2-0.7-0.3-1.1-0.3
		c-1.2,0-2.1,1.1-2.1,3.3v7.6h-2.6L701.8,481.1z"/>
	<path class="st1" d="M712.2,488.7c0,1.9,0.7,3.7,2.4,3.7c1.1,0,2.1-0.9,2.2-2h2.6c-0.1,1.4-0.8,2.6-1.8,3.5
		c-0.8,0.6-1.9,0.9-2.9,0.9c-3.6,0-5.2-3.3-5.2-7c0-4,1.8-7,5.1-7c1.5-0.1,3,0.7,3.8,2c0.9,1.8,1.3,3.8,1.1,5.9H712.2z M716.8,486.5
		c0-1.5-0.5-3.5-2.3-3.5c-1.4,0-2.3,1.3-2.3,3.5H716.8z"/>
	<path class="st1" d="M727.3,494.5h-2.4l-4-13.4h2.6l2.5,9.6l2.3-9.6h2.7L727.3,494.5z"/>
	<path class="st1" d="M735.5,488.7c0,1.9,0.7,3.7,2.4,3.7c1.1,0,2.1-0.9,2.2-2h2.6c-0.1,1.4-0.8,2.6-1.8,3.5
		c-0.8,0.6-1.9,0.9-2.9,0.9c-3.6,0-5.2-3.3-5.2-7c0-4,1.8-7,5.1-7c1.5-0.1,3,0.7,3.8,2c0.9,1.8,1.3,3.8,1.1,5.9H735.5z M740.1,486.5
		c0-1.5-0.5-3.5-2.3-3.5c-1.4,0-2.3,1.3-2.3,3.5H740.1z"/>
	<path class="st1" d="M746,481.1h2.3c0,0.5,0,1.1,0,1.7c0.5-1.3,1.8-2.1,3.2-1.9c2.2,0,3.6,1.2,3.6,4.1v9.5h-2.6v-8.7
		c0-1.1-0.2-2.4-1.8-2.4c-1.2,0-2.1,0.8-2.1,2.5v8.6H746V481.1z"/>
	<path class="st1" d="M759.3,476.8h2.6v2.6h-2.6V476.8z M759.3,481.1h2.6v13.4h-2.6V481.1z"/>
	<path class="st1" d="M766,481.1h2.4c0,0.8,0,1.5,0,2.2c0.5-2,1.9-2.5,3.5-2.5v3.2c-0.3-0.2-0.7-0.3-1.1-0.3c-1.2,0-2.1,1.1-2.1,3.3
		v7.6H766V481.1z"/>
	<path class="st1" d="M786.8,494.5h-2.4l-4-13.4h2.7l2.5,9.6l2.3-9.6h2.6L786.8,494.5z"/>
	<path class="st1" d="M794.9,488.7c0,1.9,0.7,3.7,2.4,3.7c1.1,0,2.1-0.9,2.2-2h2.6c-0.1,1.4-0.8,2.6-1.8,3.5
		c-0.8,0.6-1.9,0.9-2.9,0.9c-3.6,0-5.2-3.3-5.2-7c0-4,1.8-7,5.1-7c1.5-0.1,3,0.7,3.8,2c0.9,1.8,1.3,3.8,1.1,5.9H794.9z M799.5,486.5
		c0-1.5-0.5-3.5-2.3-3.5c-1.4,0-2.3,1.3-2.3,3.5H799.5z"/>
	<path class="st1" d="M805.4,481.1h2.4c0,0.8,0,1.5,0,2.2c0.5-2,1.9-2.5,3.5-2.5v3.2c-0.3-0.2-0.7-0.3-1.1-0.3
		c-1.2,0-2.1,1.1-2.1,3.3v7.6h-2.6L805.4,481.1z"/>
	<path class="st1" d="M819.1,484.9c0-1.3-0.6-1.8-1.7-1.8c-0.7-0.1-1.4,0.5-1.4,1.2c0,0.1,0,0.1,0,0.2c0,1.3,1.4,1.5,3,2
		c1.9,0.4,3.2,2.1,3.1,4.1c0,2.3-1.9,4.2-4.2,4.3c-0.1,0-0.2,0-0.3,0c-2.5,0-4.4-1.4-4.6-4.4h2.6c-0.1,1.1,0.8,2,1.9,2.1
		c0.1,0,0.1,0,0.2,0c0.9,0.1,1.6-0.6,1.7-1.4c0-0.1,0-0.2,0-0.3c0-1.3-1.4-1.7-3-2.2s-3.1-1.4-3.1-4c0-2.2,1.6-3.7,4.3-3.7
		s4.1,1.5,4.2,4.1L819.1,484.9z"/>
	<path class="st1" d="M837.4,494.5H835l-4-13.4h2.6l2.5,9.6l2.3-9.6h2.6L837.4,494.5z"/>
	<path class="st1" d="M842.7,487.8c0-3.8,1.6-7,5.2-7s5.2,3.1,5.2,7s-1.6,7-5.2,7S842.7,491.7,842.7,487.8z M845.4,487.8
		c0,3.3,0.9,4.5,2.5,4.5s2.4-1.2,2.4-4.6s-0.9-4.6-2.5-4.6S845.4,484.5,845.4,487.8L845.4,487.8z"/>
	<path class="st1" d="M865.3,494.5h-2.4c0-0.6,0-1.1,0-1.8c-0.4,1.4-1.7,2.2-3.1,2.1c-2.2,0-3.6-1.2-3.6-4.1v-9.5h2.6v8.7
		c0,1.1,0.2,2.4,1.8,2.4c1.2,0,2.1-0.8,2.1-2.5v-8.6h2.6L865.3,494.5z"/>
	<path class="st1" d="M874.3,484.9c0-1.3-0.6-1.8-1.7-1.8c-0.7-0.1-1.4,0.5-1.4,1.2c0,0.1,0,0.1,0,0.2c0,1.3,1.4,1.5,3,2
		c1.9,0.4,3.2,2.1,3.1,4.1c0,2.3-1.9,4.2-4.2,4.3c-0.1,0-0.2,0-0.3,0c-2.5,0-4.4-1.4-4.6-4.4h2.6c-0.1,1.1,0.8,2,1.9,2.1
		c0.1,0,0.1,0,0.2,0c0.9,0.1,1.6-0.6,1.7-1.4c0-0.1,0-0.2,0-0.3c0-1.3-1.4-1.7-3-2.2s-3.1-1.4-3.1-4c0-2.2,1.6-3.7,4.3-3.7
		s4.1,1.5,4.2,4.1L874.3,484.9z"/>
	<path class="st1" d="M896.7,494.5h-2.4c0-0.8,0-1.4,0-1.9c-0.3,1.4-1.6,2.3-3,2.2c-2.5,0-4.3-2.4-4.3-7c0-4.4,1.6-7,4.3-7
		c1.2-0.1,2.4,0.7,2.7,1.9c0-0.5,0-1.1,0-1.7v-4.3h2.6L896.7,494.5z M889.6,487.8c0,3,0.8,4.4,2.3,4.4c0.7,0,1.3-0.3,1.7-0.9
		c0.5-0.7,0.5-1.5,0.5-3.5s-0.1-2.8-0.5-3.5c-0.3-0.6-1-1-1.7-0.9C890.4,483.4,889.6,484.8,889.6,487.8L889.6,487.8z"/>
	<path class="st1" d="M909.5,494.5h-2.4c0-0.7,0-1.2,0-1.8c-0.4,1.3-1.7,2.1-3,2c-2.5,0-4.3-2.4-4.3-7c0-4.4,1.6-7,4.3-7
		c1.4-0.1,2.6,0.8,3,2.1c0-0.6,0-1.1,0-1.8h2.4V494.5z M902.5,487.9c0,3,0.8,4.4,2.3,4.4c0.7,0,1.3-0.3,1.7-0.9
		c0.5-0.6,0.5-1.5,0.5-3.5s-0.1-2.9-0.5-3.5c-0.3-0.6-1-0.9-1.7-0.9C903.3,483.4,902.5,484.8,902.5,487.9L902.5,487.9z"/>
	<path class="st1" d="M913.4,481.1h2.3c0,0.5,0,1.1,0,1.7c0.5-1.3,1.8-2.1,3.2-1.9c2.2,0,3.6,1.2,3.6,4.1v9.5h-2.6v-8.7
		c0-1.1-0.2-2.4-1.8-2.4c-1.2,0-2.1,0.8-2.1,2.5v8.6h-2.6V481.1z"/>
	<path class="st1" d="M931.5,484.9c0-1.3-0.6-1.8-1.7-1.8c-0.7-0.1-1.4,0.5-1.4,1.2c0,0.1,0,0.1,0,0.2c0,1.3,1.4,1.5,3,2
		c1.9,0.4,3.2,2.1,3.1,4.1c0,2.3-1.9,4.2-4.2,4.3c-0.1,0-0.2,0-0.3,0c-2.5,0-4.4-1.4-4.6-4.4h2.6c-0.1,1.1,0.8,2,1.9,2.1
		c0.1,0,0.1,0,0.2,0c0.9,0.1,1.6-0.6,1.7-1.4c0-0.1,0-0.2,0-0.3c0-1.3-1.4-1.7-3-2.2s-3.1-1.4-3.1-4c0-2.2,1.6-3.7,4.3-3.7
		s4.1,1.5,4.2,4.1L931.5,484.9z"/>
	<path class="st1" d="M945.2,476.8h2.6v17.8h-2.6V476.8z"/>
	<path class="st1" d="M960.9,494.5h-2.4c0-0.7,0-1.2,0-1.8c-0.4,1.3-1.7,2.1-3,2c-2.5,0-4.3-2.4-4.3-7c0-4.4,1.6-7,4.3-7
		c1.4-0.1,2.6,0.8,3,2.1c0-0.6,0-1.1,0-1.8h2.4V494.5z M953.9,487.9c0,3,0.8,4.4,2.3,4.4c0.7,0,1.3-0.3,1.7-0.9
		c0.5-0.6,0.5-1.5,0.5-3.5s-0.1-2.9-0.5-3.5c-0.3-0.6-1-0.9-1.7-0.9C954.7,483.4,953.9,484.8,953.9,487.9L953.9,487.9z"/>
	<path class="st1" d="M981.1,499.1h-2.6v-4.5c0-0.7,0-1.2,0-1.7c-0.4,1.2-1.5,2-2.7,1.9c-2.8,0-4.3-2.6-4.3-7c0-4.6,1.8-7,4.3-7
		c1.3-0.1,2.5,0.7,2.9,2c0-0.5,0-1.1,0-1.8h2.5V499.1z M974,487.9c0,3,0.8,4.4,2.3,4.4c0.7,0,1.3-0.3,1.7-0.9
		c0.5-0.6,0.5-1.5,0.5-3.5s-0.1-2.9-0.5-3.5c-0.3-0.6-1-0.9-1.7-0.9C974.8,483.4,974,484.8,974,487.9L974,487.9z"/>
	<path class="st1" d="M994,494.5h-2.4c0-0.6,0-1.1,0-1.8c-0.4,1.4-1.7,2.2-3.1,2.1c-2.2,0-3.6-1.2-3.6-4.1v-9.5h2.6v8.7
		c0,1.1,0.2,2.4,1.8,2.4c1.2,0,2.1-0.8,2.1-2.5v-8.6h2.6V494.5z"/>
	<path class="st1" d="M998.2,476.8h2.6v2.6h-2.6V476.8z M998.2,481.1h2.6v13.4h-2.6V481.1z"/>
	<path class="st1" d="M1005,481.1h2.3c0,0.5,0,1.1,0,1.7c0.5-1.3,1.8-2.1,3.2-1.9c2.2,0,3.6,1.2,3.6,4.1v9.5h-2.6v-8.7
		c0-1.1-0.2-2.4-1.8-2.4c-1.2,0-2.1,0.8-2.1,2.5v8.6h-2.6V481.1z"/>
	<path class="st1" d="M1017,492.1l5.5-8.5h-5v-2.5h8.1v2.5l-5.4,8.5h5.5v2.5h-8.7V492.1z"/>
	<path class="st1" d="M1038,494.5h-2.4c0-0.7,0-1.2,0-1.8c-0.4,1.3-1.7,2.1-3,2c-2.5,0-4.3-2.4-4.3-7c0-4.4,1.6-7,4.3-7
		c1.4-0.1,2.6,0.8,3,2.1c0-0.6,0-1.1,0-1.8h2.4V494.5z M1030.9,487.9c0,3,0.8,4.4,2.3,4.4c0.7,0,1.3-0.3,1.7-0.9
		c0.5-0.6,0.6-1.5,0.6-3.5s-0.1-2.9-0.6-3.5c-0.3-0.6-1-0.9-1.7-0.9C1031.8,483.4,1030.9,484.8,1030.9,487.9L1030.9,487.9z"/>
	<path class="st1" d="M1042.2,476.8h2.6v2.6h-2.6V476.8z M1042.2,481.1h2.6v13.4h-2.6V481.1z"/>
	<path class="st1" d="M1049,481.1h2.3c0,0.5,0,1.1,0,1.7c0.5-1.3,1.8-2.1,3.2-1.9c2.2,0,3.6,1.2,3.6,4.1v9.5h-2.6v-8.7
		c0-1.1-0.2-2.4-1.8-2.4c-1.2,0-2.1,0.8-2.1,2.5v8.6h-2.6V481.1z"/>
	<path class="st1" d="M1064.1,488.7c0,1.9,0.7,3.7,2.4,3.7c1.1,0,2.1-0.9,2.2-2h2.6c-0.1,1.4-0.8,2.6-1.8,3.5
		c-0.8,0.6-1.9,0.9-2.9,0.9c-3.6,0-5.2-3.3-5.2-7c0-4,1.8-7,5.1-7c1.5-0.1,3,0.7,3.8,2c0.9,1.8,1.3,3.8,1.1,5.9H1064.1z
		 M1068.8,486.5c0-1.5-0.6-3.5-2.3-3.5c-1.4,0-2.3,1.3-2.3,3.5H1068.8z"/>
	<path class="st1" d="M1090.9,494.5h-2.4c0-0.7,0-1.2,0-1.8c-0.4,1.3-1.7,2.1-3,2c-2.5,0-4.3-2.4-4.3-7c0-4.4,1.6-7,4.3-7
		c1.4-0.1,2.6,0.8,3,2.1c0-0.6,0-1.1,0-1.8h2.4V494.5z M1083.9,487.9c0,3,0.8,4.4,2.3,4.4c0.7,0,1.3-0.3,1.7-0.9
		c0.5-0.6,0.6-1.5,0.6-3.5s-0.1-2.9-0.6-3.5c-0.3-0.6-1-0.9-1.7-0.9C1084.7,483.4,1083.9,484.8,1083.9,487.9L1083.9,487.9z"/>
	<path class="st1" d="M1097.9,483.6v11h-2.6v-11h-1.3v-2.5h1.3v-0.7c0-3.7,3.1-3.9,4.6-3.9v2.3c-0.9,0-2,0.2-2,1.9v0.5h6v13.4h-2.6
		v-11L1097.9,483.6z M1101.2,479.4v-2.6h2.6v2.6H1101.2z"/>
	<path class="st1" d="M1108,481.1h2.3c0,0.5,0,1.1,0,1.7c0.5-1.3,1.8-2.1,3.2-1.9c2.2,0,3.6,1.2,3.6,4.1v9.5h-2.6v-8.7
		c0-1.1-0.2-2.4-1.8-2.4c-1.2,0-2.1,0.8-2.1,2.5v8.6h-2.6V481.1z"/>
	<path class="st1" d="M1137.2,494.5h-2.4c0-0.8,0-1.4,0-1.9c-0.3,1.4-1.6,2.3-3,2.2c-2.5,0-4.3-2.4-4.3-7c0-4.4,1.6-7,4.3-7
		c1.2-0.1,2.4,0.7,2.7,1.9c0-0.5,0-1.1,0-1.7v-4.3h2.6L1137.2,494.5z M1130.1,487.8c0,3,0.8,4.4,2.3,4.4c0.7,0,1.3-0.3,1.7-0.9
		c0.5-0.7,0.6-1.5,0.6-3.5s-0.1-2.8-0.6-3.5c-0.3-0.6-1-1-1.7-0.9C1130.9,483.4,1130.1,484.8,1130.1,487.8L1130.1,487.8z"/>
	<path class="st1" d="M1143.3,488.7c0,1.9,0.7,3.7,2.4,3.7c1.1,0,2.1-0.9,2.2-2h2.6c-0.1,1.4-0.8,2.6-1.8,3.5
		c-0.8,0.6-1.9,0.9-2.9,0.9c-3.6,0-5.2-3.3-5.2-7c0-4,1.8-7,5.1-7c1.5-0.1,3,0.7,3.8,2c0.9,1.8,1.3,3.8,1.1,5.9H1143.3z
		 M1147.9,486.5c0-1.5-0.6-3.5-2.3-3.5c-1.4,0-2.3,1.3-2.3,3.5H1147.9z"/>
	<path class="st1" d="M1169.9,489.6c-0.1,2.7-1.5,5.2-4.3,5.2c-3.3,0-5.2-2.8-5.2-7c0-4.4,2-7,5.2-7c2.9,0,4.3,2.4,4.3,5.2h-2.7
		c-0.1-2-0.8-2.8-1.8-2.8c-0.7,0-1.4,0.4-1.6,1.1c-0.5,1.1-0.7,2.3-0.6,3.5c0,3.2,0.8,4.6,2.3,4.6c1.2,0,1.8-1.2,1.8-2.8
		L1169.9,489.6z"/>
	<path class="st1" d="M1172,487.8c0-3.8,1.6-7,5.2-7s5.2,3.1,5.2,7s-1.6,7-5.2,7S1172,491.7,1172,487.8z M1174.7,487.8
		c0,3.3,0.9,4.5,2.5,4.5s2.4-1.2,2.4-4.6s-0.9-4.6-2.5-4.6S1174.7,484.5,1174.7,487.8L1174.7,487.8z"/>
	<path class="st1" d="M1185.6,481.1h2.3c0,0.5,0,1.1,0,1.7c0.5-1.3,1.8-2.1,3.2-1.9c2.2,0,3.6,1.2,3.6,4.1v9.5h-2.6v-8.7
		c0-1.1-0.2-2.4-1.8-2.4c-1.2,0-2.1,0.8-2.1,2.5v8.6h-2.6L1185.6,481.1z"/>
	<path class="st1" d="M1203.5,494.5h-2.4l-4-13.4h2.6l2.5,9.6l2.3-9.6h2.6L1203.5,494.5z"/>
	<path class="st1" d="M1211.7,488.7c0,1.9,0.7,3.7,2.4,3.7c1.1,0,2.1-0.9,2.2-2h2.6c-0.1,1.4-0.8,2.6-1.8,3.5
		c-0.8,0.6-1.9,0.9-2.9,0.9c-3.6,0-5.2-3.3-5.2-7c0-4,1.8-7,5.1-7c1.5-0.1,3,0.7,3.8,2c0.9,1.8,1.3,3.8,1.1,5.9H1211.7z
		 M1216.3,486.5c0-1.5-0.6-3.5-2.3-3.5c-1.4,0-2.3,1.3-2.3,3.5H1216.3z"/>
	<path class="st1" d="M1222.2,481.1h2.3c0,0.5,0,1.1,0,1.7c0.5-1.3,1.8-2.1,3.2-1.9c2.2,0,3.6,1.2,3.6,4.1v9.5h-2.6v-8.7
		c0-1.1-0.2-2.4-1.8-2.4c-1.2,0-2.1,0.8-2.1,2.5v8.6h-2.6L1222.2,481.1z"/>
	<path class="st1" d="M1235.4,476.8h2.6v2.6h-2.6L1235.4,476.8z M1235.4,481.1h2.6v13.4h-2.6L1235.4,481.1z"/>
	<path class="st1" d="M1242.2,481.1h2.4c0,0.8,0,1.5,0,2.2c0.6-2,1.9-2.5,3.5-2.5v3.2c-0.3-0.2-0.7-0.3-1.1-0.3
		c-1.2,0-2.1,1.1-2.1,3.3v7.6h-2.6L1242.2,481.1z"/>
	<path class="st1" d="M1266.9,494.5h-2.4c0-0.8,0-1.4,0-1.9c-0.3,1.4-1.6,2.3-3,2.2c-2.5,0-4.3-2.4-4.3-7c0-4.4,1.6-7,4.3-7
		c1.2-0.1,2.4,0.7,2.7,1.9c0-0.5,0-1.1,0-1.7v-4.3h2.6L1266.9,494.5z M1259.8,487.8c0,3,0.8,4.4,2.3,4.4c0.7,0,1.3-0.3,1.7-0.9
		c0.5-0.7,0.6-1.5,0.6-3.5s-0.1-2.8-0.6-3.5c-0.3-0.6-1-1-1.7-0.9C1260.7,483.4,1259.8,484.8,1259.8,487.8L1259.8,487.8z"/>
	<path class="st1" d="M1271.8,476.8h2.8l-2.3,5.5h-2.4L1271.8,476.8z"/>
	<path class="st1" d="M1286.4,494.5h-2.4c0-0.6,0-1.1,0-1.8c-0.4,1.4-1.7,2.2-3.1,2.1c-2.2,0-3.6-1.2-3.6-4.1v-9.5h2.7v8.7
		c0,1.1,0.2,2.4,1.8,2.4c1.2,0,2.1-0.8,2.1-2.5v-8.6h2.6L1286.4,494.5z"/>
	<path class="st1" d="M1290.3,481.1h2.3c0,0.5,0,1.1,0,1.7c0.5-1.3,1.8-2.1,3.2-1.9c2.2,0,3.6,1.2,3.6,4.1v9.5h-2.6v-8.7
		c0-1.1-0.2-2.4-1.8-2.4c-1.2,0-2.1,0.8-2.1,2.5v8.6h-2.6L1290.3,481.1z"/>
	<path class="st1" d="M1310.6,481.1h2.4c0,0.8,0,1.5,0,2.2c0.6-2,1.9-2.5,3.5-2.5v3.2c-0.3-0.2-0.7-0.3-1.1-0.3
		c-1.2,0-2.1,1.1-2.1,3.3v7.6h-2.6L1310.6,481.1z"/>
	<path class="st1" d="M1320.9,488.7c0,1.9,0.7,3.7,2.4,3.7c1.1,0,2.1-0.9,2.2-2h2.6c-0.1,1.4-0.8,2.6-1.8,3.5
		c-0.8,0.6-1.9,0.9-2.9,0.9c-3.6,0-5.2-3.3-5.2-7c0-4,1.8-7,5.1-7c1.5-0.1,3,0.7,3.8,2c0.9,1.8,1.3,3.8,1.1,5.9H1320.9z
		 M1325.5,486.5c0-1.5-0.6-3.5-2.3-3.5c-1.4,0-2.3,1.3-2.3,3.5H1325.5z"/>
	<path class="st1" d="M1331.4,481.1h2.3c0,0.5,0,1.1,0,1.7c0.5-1.3,1.8-2.1,3.2-1.9c2.2,0,3.6,1.2,3.6,4.1v9.5h-2.6v-8.7
		c0-1.1-0.2-2.4-1.8-2.4c-1.2,0-2.1,0.8-2.1,2.5v8.6h-2.6L1331.4,481.1z"/>
	<path class="st1" d="M1353.3,494.5h-2.3c0-0.8,0-1.4,0-1.9c-0.3,1.4-1.6,2.3-3,2.2c-2.5,0-4.3-2.4-4.3-7c0-4.4,1.6-7,4.3-7
		c1.2-0.1,2.4,0.7,2.7,1.9c0-0.5,0-1.1,0-1.7v-4.3h2.6V494.5z M1346.3,487.8c0,3,0.8,4.4,2.3,4.4c0.7,0,1.3-0.3,1.7-0.9
		c0.5-0.7,0.6-1.5,0.6-3.5s-0.1-2.8-0.6-3.5c-0.3-0.6-1-1-1.7-0.9C1347.1,483.4,1346.3,484.8,1346.3,487.8L1346.3,487.8z"/>
	<path class="st1" d="M1359.4,488.7c0,1.9,0.7,3.7,2.4,3.7c1.1,0,2.1-0.9,2.2-2h2.6c-0.1,1.4-0.8,2.6-1.8,3.5
		c-0.8,0.6-1.9,0.9-2.9,0.9c-3.6,0-5.2-3.3-5.2-7c0-4,1.8-7,5.1-7c1.5-0.1,3,0.7,3.8,2c0.9,1.8,1.3,3.8,1.1,5.9H1359.4z
		 M1364.1,486.5c0-1.5-0.6-3.5-2.3-3.5c-1.4,0-2.3,1.3-2.3,3.5H1364.1z"/>
	<path class="st1" d="M1369.1,492.1l5.5-8.5h-5v-2.5h8.1v2.5l-5.4,8.5h5.5v2.5h-8.7L1369.1,492.1z"/>
	<path class="st1" d="M1386.2,486.5v2.5h-5.6v-2.5L1386.2,486.5z"/>
	<path class="st1" d="M1394.4,494.5h-2.4l-4-13.4h2.6l2.5,9.6l2.3-9.6h2.6L1394.4,494.5z"/>
	<path class="st1" d="M1399.7,487.8c0-3.8,1.6-7,5.2-7s5.2,3.1,5.2,7s-1.6,7-5.2,7S1399.7,491.7,1399.7,487.8z M1402.4,487.8
		c0,3.3,0.9,4.5,2.5,4.5s2.4-1.2,2.4-4.6s-0.9-4.6-2.5-4.6S1402.4,484.5,1402.4,487.8L1402.4,487.8z"/>
	<path class="st1" d="M1422.3,494.5h-2.4c0-0.6,0-1.1,0-1.8c-0.4,1.4-1.7,2.2-3.1,2.1c-2.2,0-3.6-1.2-3.6-4.1v-9.5h2.6v8.7
		c0,1.1,0.2,2.4,1.8,2.4c1.2,0,2.1-0.8,2.1-2.5v-8.6h2.6L1422.3,494.5z"/>
	<path class="st1" d="M1431.4,484.9c0-1.3-0.6-1.8-1.7-1.8c-0.7-0.1-1.4,0.5-1.4,1.2c0,0.1,0,0.1,0,0.2c0,1.3,1.4,1.5,3,2
		c1.9,0.4,3.2,2.1,3.1,4.1c0,2.3-1.9,4.2-4.2,4.3c-0.1,0-0.2,0-0.3,0c-2.5,0-4.4-1.4-4.6-4.4h2.6c-0.1,1.1,0.8,2,1.9,2.1
		c0.1,0,0.1,0,0.2,0c0.9,0.1,1.6-0.6,1.7-1.4c0-0.1,0-0.2,0-0.3c0-1.3-1.4-1.7-3-2.2s-3.1-1.4-3.1-4c0-2.2,1.6-3.7,4.3-3.7
		s4.1,1.5,4.2,4.1L1431.4,484.9z"/>
	<path class="st1" d="M1440.2,494.5h-2.6v-3.2h2.6V494.5z"/>
	<path class="st1" d="M482.4,586.1h-3l4.9-17.8h2.8l5.1,17.8h-3L488,582h-4.6L482.4,586.1z M485.8,572.4l-1.5,6.9h3.1L485.8,572.4z"
		/>
	<path class="st1" d="M497.7,575.1v11h-2.6v-11h-1.3v-2.5h1.3v-0.7c0-3.7,3.1-3.9,4.6-3.9v2.3c-0.9,0-2,0.2-2,1.9v0.5h6v13.4H501
		v-11L497.7,575.1z M501,570.9v-2.6h2.6v2.6H501z"/>
	<path class="st1" d="M507.8,572.7h2.2c0,0.5,0,1.1,0,1.7c0.5-1.3,1.8-2.1,3.2-1.9c2.2,0,3.6,1.2,3.6,4.2v9.5h-2.6v-8.7
		c0-1.1-0.2-2.4-1.8-2.4c-1.2,0-2.1,0.8-2.1,2.5v8.6h-2.6L507.8,572.7z"/>
	<path class="st1" d="M538,586.1h-2.4c0-0.8,0-1.4,0-1.9c-0.3,1.4-1.6,2.3-3,2.2c-2.5,0-4.3-2.4-4.3-7c0-4.4,1.6-7,4.3-7
		c1.2-0.1,2.4,0.7,2.7,1.9c0-0.5,0-1.1,0-1.7v-4.3h2.7V586.1z M530.9,579.4c0,3,0.8,4.4,2.3,4.4c0.7,0,1.3-0.3,1.7-0.9
		c0.5-0.7,0.5-1.5,0.5-3.5s-0.1-2.8-0.5-3.5c-0.3-0.6-1-1-1.7-0.9C531.8,574.9,530.9,576.4,530.9,579.4L530.9,579.4z"/>
	<path class="st1" d="M544.1,580.3c0,1.9,0.7,3.7,2.4,3.7c1.1,0,2.1-0.9,2.2-2h2.6c-0.1,1.4-0.8,2.6-1.8,3.5
		c-0.8,0.6-1.9,0.9-2.9,0.9c-3.6,0-5.2-3.3-5.2-7c0-4,1.8-7,5.1-7c1.5-0.1,3,0.7,3.8,2c0.9,1.8,1.3,3.8,1.1,5.9H544.1z M548.7,578
		c0-1.5-0.5-3.5-2.3-3.5c-1.4,0-2.3,1.3-2.3,3.5H548.7z"/>
	<path class="st1" d="M563,572.7h2.5c0,0.6,0,1.2,0,1.8c0.3-1.3,1.6-2.2,3-2.1c0.8,0,1.5,0.2,2.1,0.7c0.3,0.3,0.5,0.7,0.7,1.1
		c0.2-0.5,0.6-0.9,1-1.2c0.7-0.4,1.5-0.7,2.3-0.7c1.2-0.1,2.4,0.5,3.1,1.5c0.6,0.9,0.9,2.1,0.8,3.2v9.1h-2.6v-8.7
		c0-0.6-0.1-1.2-0.3-1.7c-0.3-0.5-0.9-0.8-1.5-0.7c-0.6-0.1-1.1,0.2-1.5,0.6c-0.4,0.5-0.6,1.1-0.5,1.8v8.8h-2.6v-8.7
		c0-0.6-0.1-1.2-0.3-1.7c-0.3-0.5-0.8-0.8-1.4-0.7c-0.6-0.1-1.1,0.2-1.5,0.5c-0.4,0.5-0.6,1.2-0.5,1.8v8.7H563V572.7z"/>
	<path class="st1" d="M582.6,568.3h2.6v2.6h-2.6V568.3z M582.6,572.7h2.6v13.4h-2.6V572.7z"/>
	<path class="st1" d="M591.6,580.3c0,1.9,0.7,3.7,2.4,3.7c1.1,0,2.1-0.9,2.2-2h2.6c-0.1,1.4-0.8,2.6-1.8,3.5
		c-0.8,0.6-1.9,0.9-2.9,0.9c-3.6,0-5.2-3.3-5.2-7c0-4,1.8-7,5.1-7c1.5-0.1,3,0.7,3.8,2c0.9,1.8,1.3,3.8,1.1,5.9H591.6z M596.2,578
		c0-1.5-0.5-3.5-2.3-3.5c-1.4,0-2.3,1.3-2.3,3.5H596.2z"/>
	<path class="st1" d="M611.2,586.1h-2.4c0-0.6,0-1.2,0-1.8c-0.4,1.4-1.7,2.2-3.1,2.1c-2.2,0-3.6-1.2-3.6-4.2v-9.5h2.6v8.7
		c0,1.1,0.2,2.4,1.8,2.4c1.2,0,2.1-0.8,2.1-2.5v-8.6h2.6L611.2,586.1z"/>
	<path class="st1" d="M617.5,579.1l-3.5-6.5h3l2,4.6l2.1-4.6h3l-3.4,6.5l3.8,6.9h-3.1l-2.3-5l-2.3,5h-3.1L617.5,579.1z"/>
	<path class="st1" d="M640.2,586.1h-2.4l-4-13.4h2.6l2.5,9.6l2.3-9.6h2.6L640.2,586.1z"/>
	<path class="st1" d="M645.5,579.4c0-3.8,1.6-7,5.2-7s5.2,3.1,5.2,7s-1.6,7-5.2,7S645.5,583.2,645.5,579.4z M648.3,579.4
		c0,3.3,0.9,4.5,2.5,4.5s2.4-1.2,2.4-4.6s-0.9-4.6-2.5-4.6S648.3,576,648.3,579.4L648.3,579.4z"/>
	<path class="st1" d="M668.1,586.1h-2.4c0-0.6,0-1.2,0-1.8c-0.4,1.4-1.7,2.2-3.1,2.1c-2.2,0-3.6-1.2-3.6-4.2v-9.5h2.6v8.7
		c0,1.1,0.2,2.4,1.8,2.4c1.2,0,2.1-0.8,2.1-2.5v-8.6h2.6L668.1,586.1z"/>
	<path class="st1" d="M677.2,576.5c0-1.3-0.6-1.8-1.7-1.8c-0.7-0.1-1.4,0.5-1.4,1.2c0,0.1,0,0.1,0,0.2c0,1.3,1.4,1.5,3,2
		c1.9,0.4,3.2,2.1,3.1,4.1c0,2.3-1.9,4.2-4.2,4.3c-0.1,0-0.2,0-0.3,0c-2.5,0-4.4-1.4-4.6-4.4h2.6c-0.1,1.1,0.8,2,1.9,2.1
		c0.1,0,0.1,0,0.2,0c0.9,0.1,1.6-0.6,1.7-1.4c0-0.1,0-0.2,0-0.3c0-1.3-1.4-1.7-3-2.2s-3.1-1.4-3.1-4c0-2.2,1.6-3.7,4.3-3.7
		s4.1,1.5,4.2,4.1L677.2,576.5z"/>
	<path class="st1" d="M700.5,586.1h-2.4c0-0.8,0-1.4,0-1.9c-0.3,1.4-1.6,2.3-3,2.2c-2.5,0-4.3-2.4-4.3-7c0-4.4,1.6-7,4.3-7
		c1.2-0.1,2.4,0.7,2.7,1.9c0-0.5,0-1.1,0-1.7v-4.3h2.6L700.5,586.1z M693.5,579.4c0,3,0.8,4.4,2.3,4.4c0.7,0,1.3-0.3,1.7-0.9
		c0.5-0.7,0.5-1.5,0.5-3.5s-0.1-2.8-0.5-3.5c-0.3-0.6-1-1-1.7-0.9C694.3,574.9,693.5,576.4,693.5,579.4L693.5,579.4z"/>
	<path class="st1" d="M706.6,580.3c0,1.9,0.7,3.7,2.4,3.7c1.1,0,2.1-0.9,2.2-2h2.6c-0.1,1.4-0.8,2.6-1.8,3.5
		c-0.8,0.6-1.9,0.9-2.9,0.9c-3.6,0-5.2-3.3-5.2-7c0-4,1.8-7,5.1-7c1.5-0.1,3,0.7,3.8,2c0.9,1.8,1.3,3.8,1.1,5.9H706.6z M711.8,567
		l1,2.1l-5.5,2.6l-0.9-1.7L711.8,567z M711.3,578c0-1.5-0.5-3.5-2.3-3.5c-1.4,0-2.3,1.3-2.3,3.5H711.3z"/>
	<path class="st1" d="M717.6,575.1H716v-2.5h1.6v-3.2h2.6v3.2h1.6v2.5h-1.6v11h-2.6L717.6,575.1z"/>
	<path class="st1" d="M733.2,586.1h-2.4c0-0.7,0-1.2,0-1.8c-0.4,1.3-1.7,2.1-3,2c-2.5,0-4.3-2.4-4.3-7c0-4.4,1.6-7,4.3-7
		c1.4-0.1,2.6,0.8,3,2.1c0-0.6,0-1.2,0-1.8h2.4V586.1z M726.2,579.4c0,3,0.8,4.4,2.3,4.4c0.7,0,1.3-0.3,1.7-0.9
		c0.5-0.7,0.5-1.5,0.5-3.5s-0.1-2.9-0.5-3.5c-0.3-0.6-1-0.9-1.7-0.9C727,575,726.2,576.4,726.2,579.4L726.2,579.4z"/>
	<path class="st1" d="M737.4,568.3h2.6v2.6h-2.6L737.4,568.3z M737.4,572.7h2.6v13.4h-2.6L737.4,572.7z"/>
	<path class="st1" d="M744.5,568.3h2.6v17.8h-2.6V568.3z"/>
	<path class="st1" d="M751.5,568.3h2.6v17.8h-2.6V568.3z"/>
	<path class="st1" d="M760.5,580.3c0,1.9,0.7,3.7,2.4,3.7c1.1,0,2.1-0.9,2.2-2h2.6c-0.1,1.4-0.8,2.6-1.8,3.5
		c-0.8,0.6-1.9,0.9-2.9,0.9c-3.6,0-5.2-3.3-5.2-7c0-4,1.8-7,5.1-7c1.5-0.1,3,0.7,3.8,2c0.9,1.8,1.3,3.8,1.1,5.9H760.5z M765.1,578
		c0-1.5-0.5-3.5-2.3-3.5c-1.4,0-2.3,1.3-2.3,3.5H765.1z"/>
	<path class="st1" d="M771,572.7h2.4c0,0.8,0,1.5,0,2.2c0.5-2,1.9-2.5,3.5-2.5v3.1c-0.3-0.2-0.7-0.3-1.1-0.3c-1.2,0-2.1,1.2-2.1,3.3
		v7.6h-2.6L771,572.7z"/>
	<path class="st1" d="M787.9,572.7h2.5c0,0.6,0,1.2,0,1.8c0.3-1.3,1.6-2.2,3-2.1c0.8,0,1.5,0.2,2.1,0.7c0.3,0.3,0.5,0.7,0.7,1.1
		c0.2-0.5,0.6-0.9,1-1.2c0.7-0.4,1.5-0.7,2.3-0.7c1.2-0.1,2.4,0.5,3.1,1.5c0.6,0.9,0.9,2.1,0.8,3.2v9.1h-2.6v-8.7
		c0-0.6-0.1-1.2-0.3-1.7c-0.3-0.5-0.9-0.8-1.4-0.7c-0.6-0.1-1.1,0.2-1.5,0.6c-0.4,0.5-0.6,1.1-0.5,1.8v8.8h-2.7v-8.7
		c0-0.6-0.1-1.2-0.3-1.7c-0.3-0.5-0.8-0.8-1.4-0.7c-0.6-0.1-1.1,0.1-1.5,0.5c-0.4,0.5-0.6,1.2-0.5,1.8v8.7h-2.6V572.7z"/>
	<path class="st1" d="M806.6,579.4c0-3.8,1.6-7,5.2-7s5.2,3.1,5.2,7s-1.6,7-5.2,7S806.6,583.2,806.6,579.4z M809.3,579.4
		c0,3.3,0.9,4.5,2.5,4.5s2.4-1.2,2.4-4.6s-0.9-4.6-2.5-4.6S809.3,576,809.3,579.4L809.3,579.4z"/>
	<path class="st1" d="M820.1,572.7h2.3c0,0.5,0,1.1,0,1.7c0.5-1.3,1.8-2.1,3.2-1.9c2.2,0,3.6,1.2,3.6,4.2v9.5h-2.6v-8.7
		c0-1.1-0.2-2.4-1.8-2.4c-1.2,0-2.1,0.8-2.1,2.5v8.6h-2.6L820.1,572.7z"/>
	<path class="st1" d="M843.6,580.3c0,1.9,0.7,3.7,2.4,3.7c1.1,0,2.1-0.9,2.2-2h2.6c-0.1,1.4-0.8,2.6-1.8,3.5
		c-0.8,0.6-1.9,0.9-2.9,0.9c-3.6,0-5.2-3.3-5.2-7c0-4,1.8-7,5.1-7c1.5-0.1,3,0.7,3.8,2c0.9,1.8,1.3,3.8,1.1,5.9H843.6z M848.2,578
		c0-1.5-0.5-3.5-2.3-3.5c-1.4,0-2.3,1.3-2.3,3.5H848.2z"/>
	<path class="st1" d="M856.1,579.1l-3.5-6.5h3l2,4.6l2.1-4.6h3l-3.4,6.5l3.8,6.9H860l-2.3-5l-2.3,5h-3.1L856.1,579.1z"/>
	<path class="st1" d="M865.6,572.7h2.4v1.8c0.4-1.2,1.6-2.1,2.9-2c2.5,0,4.3,2.4,4.3,7c0,4.4-1.6,7-4.3,7c-1.2,0-2.3-0.7-2.7-1.8v6
		h-2.6L865.6,572.7z M872.7,579.4c0-3-0.8-4.4-2.3-4.4c-0.7,0-1.3,0.3-1.6,0.9c-0.5,0.7-0.6,1.5-0.6,3.5s0.1,2.8,0.6,3.5
		c0.3,0.6,0.9,0.9,1.6,0.9C871.9,583.8,872.7,582.4,872.7,579.4L872.7,579.4z"/>
	<path class="st1" d="M880.7,580.3c0,1.9,0.7,3.7,2.4,3.7c1.1,0,2.1-0.9,2.2-2h2.6c-0.1,1.4-0.8,2.6-1.8,3.5
		c-0.8,0.6-1.9,0.9-2.9,0.9c-3.6,0-5.2-3.3-5.2-7c0-4,1.8-7,5.1-7c1.5-0.1,3,0.7,3.8,2c0.9,1.8,1.3,3.8,1.1,5.9H880.7z M885.9,567
		l1,2.1l-5.5,2.6l-0.9-1.7L885.9,567z M885.3,578c0-1.5-0.5-3.5-2.3-3.5c-1.4,0-2.3,1.3-2.3,3.5H885.3z"/>
	<path class="st1" d="M891.2,572.7h2.4c0,0.8,0,1.5,0,2.2c0.5-2,1.9-2.5,3.5-2.5v3.1c-0.3-0.2-0.7-0.3-1.1-0.3
		c-1.2,0-2.1,1.2-2.1,3.3v7.6h-2.6L891.2,572.7z"/>
	<path class="st1" d="M900,568.3h2.6v2.6H900V568.3z M900,572.7h2.6v13.4H900V572.7z"/>
	<path class="st1" d="M908.9,580.3c0,1.9,0.7,3.7,2.4,3.7c1.1,0,2.1-0.9,2.2-2h2.5c-0.1,1.4-0.8,2.6-1.8,3.5
		c-0.8,0.6-1.9,0.9-2.9,0.9c-3.6,0-5.2-3.3-5.2-7c0-4,1.8-7,5.1-7c1.5-0.1,3,0.7,3.8,2c0.9,1.8,1.3,3.8,1.1,5.9H908.9z M913.6,578
		c0-1.5-0.5-3.5-2.3-3.5c-1.4,0-2.3,1.3-2.3,3.5H913.6z"/>
	<path class="st1" d="M919.5,572.7h2.3c0,0.5,0,1.1,0,1.7c0.5-1.3,1.8-2.1,3.2-1.9c2.2,0,3.6,1.2,3.6,4.2v9.5H926v-8.7
		c0-1.1-0.2-2.4-1.8-2.4c-1.2,0-2.1,0.8-2.1,2.5v8.6h-2.6L919.5,572.7z"/>
	<path class="st1" d="M941.2,581.2c-0.1,2.7-1.5,5.2-4.3,5.2c-3.3,0-5.2-2.8-5.2-7c0-4.4,2-7,5.2-7c2.9,0,4.3,2.4,4.3,5.2h-2.7
		c-0.1-2-0.8-2.8-1.8-2.8c-0.7,0-1.4,0.4-1.6,1.1c-0.5,1.1-0.7,2.3-0.6,3.5c0,3.2,0.8,4.6,2.3,4.6c1.2,0,1.8-1.2,1.8-2.8
		L941.2,581.2z"/>
	<path class="st1" d="M946.2,580.3c0,1.9,0.7,3.7,2.4,3.7c1.1,0,2.1-0.9,2.2-2h2.6c-0.1,1.4-0.8,2.6-1.8,3.5
		c-0.8,0.6-1.9,0.9-2.9,0.9c-3.6,0-5.2-3.3-5.2-7c0-4,1.8-7,5.1-7c1.5-0.1,3,0.7,3.8,2c0.9,1.8,1.3,3.8,1.1,5.9H946.2z M950.9,578
		c0-1.5-0.5-3.5-2.3-3.5c-1.4,0-2.3,1.3-2.3,3.5H950.9z"/>
	<path class="st1" d="M967.3,580.3c0,1.9,0.7,3.7,2.4,3.7c1.1,0,2.1-0.9,2.2-2h2.6c-0.1,1.4-0.8,2.6-1.8,3.5
		c-0.8,0.6-1.9,0.9-2.9,0.9c-3.6,0-5.2-3.3-5.2-7c0-4,1.8-7,5.1-7c1.5-0.1,3,0.7,3.8,2c0.9,1.8,1.3,3.8,1.1,5.9H967.3z M971.9,578
		c0-1.5-0.5-3.5-2.3-3.5c-1.4,0-2.3,1.3-2.3,3.5H971.9z"/>
	<path class="st1" d="M978.3,575.1h-1.6v-2.5h1.6v-3.2h2.6v3.2h1.6v2.5h-1.6v11h-2.6V575.1z"/>
	<path class="st1" d="M993.6,572.7h2.5c0,0.6,0,1.2,0,1.8c0.3-1.3,1.6-2.2,3-2.1c0.8,0,1.5,0.2,2.1,0.7c0.3,0.3,0.5,0.7,0.7,1.1
		c0.2-0.5,0.6-0.9,1-1.2c0.7-0.4,1.5-0.7,2.3-0.7c1.2-0.1,2.4,0.5,3.1,1.5c0.6,0.9,0.9,2.1,0.8,3.2v9.1h-2.6v-8.7
		c0-0.6-0.1-1.2-0.3-1.7c-0.3-0.5-0.9-0.8-1.4-0.7c-0.6-0.1-1.1,0.2-1.5,0.6c-0.4,0.5-0.6,1.1-0.5,1.8v8.8h-2.6v-8.7
		c0-0.6-0.1-1.2-0.3-1.7c-0.3-0.5-0.8-0.8-1.4-0.7c-0.6-0.1-1.1,0.2-1.5,0.5c-0.4,0.5-0.6,1.2-0.5,1.8v8.7h-2.6V572.7z"/>
	<path class="st1" d="M1015.1,580.3c0,1.9,0.7,3.7,2.4,3.7c1.1,0,2.1-0.9,2.2-2h2.6c-0.1,1.4-0.8,2.6-1.8,3.5
		c-0.8,0.6-1.9,0.9-2.9,0.9c-3.6,0-5.2-3.3-5.2-7c0-4,1.8-7,5.1-7c1.5-0.1,3,0.7,3.8,2c0.9,1.8,1.3,3.8,1.1,5.9H1015.1z M1019.8,578
		c0-1.5-0.5-3.5-2.3-3.5c-1.4,0-2.3,1.3-2.3,3.5H1019.8z"/>
	<path class="st1" d="M1030.8,576.5c0-1.3-0.6-1.8-1.7-1.8c-0.7-0.1-1.4,0.5-1.4,1.2c0,0.1,0,0.1,0,0.2c0,1.3,1.4,1.5,3,2
		c1.9,0.4,3.2,2.1,3.1,4.1c0,2.3-1.9,4.2-4.2,4.3c-0.1,0-0.2,0-0.3,0c-2.5,0-4.4-1.4-4.6-4.4h2.6c-0.1,1.1,0.8,2,1.9,2.1
		c0.1,0,0.1,0,0.2,0c0.9,0.1,1.6-0.6,1.7-1.4c0-0.1,0-0.2,0-0.3c0-1.3-1.4-1.7-3-2.2s-3.1-1.4-3.1-4c0-2.2,1.6-3.7,4.3-3.7
		s4.1,1.5,4.2,4.1L1030.8,576.5z"/>
	<path class="st1" d="M1054,581.2c-0.1,2.7-1.5,5.2-4.3,5.2c-3.3,0-5.2-2.8-5.2-7c0-4.4,2-7,5.2-7c2.9,0,4.3,2.4,4.3,5.2h-2.7
		c-0.1-2-0.8-2.8-1.8-2.8c-0.7,0-1.4,0.4-1.6,1.1c-0.5,1.1-0.7,2.3-0.6,3.5c0,3.2,0.8,4.6,2.3,4.6c1.2,0,1.8-1.2,1.8-2.8L1054,581.2
		z"/>
	<path class="st1" d="M1056.2,579.4c0-3.8,1.6-7,5.2-7s5.2,3.1,5.2,7s-1.6,7-5.2,7S1056.2,583.2,1056.2,579.4z M1058.9,579.4
		c0,3.3,0.9,4.5,2.5,4.5s2.4-1.2,2.4-4.6s-0.9-4.6-2.5-4.6S1058.9,576,1058.9,579.4L1058.9,579.4z"/>
	<path class="st1" d="M1069.8,572.7h2.5c0,0.6,0,1.2,0,1.8c0.3-1.3,1.6-2.2,3-2.1c0.8,0,1.5,0.2,2.1,0.7c0.3,0.3,0.5,0.7,0.7,1.1
		c0.2-0.5,0.6-0.9,1-1.2c0.7-0.4,1.5-0.7,2.3-0.7c1.2-0.1,2.4,0.5,3.1,1.5c0.6,0.9,0.9,2.1,0.8,3.2v9.1h-2.6v-8.7
		c0-0.6-0.1-1.2-0.3-1.7c-0.3-0.5-0.9-0.8-1.4-0.7c-0.6-0.1-1.1,0.2-1.5,0.6c-0.4,0.5-0.6,1.1-0.5,1.8v8.8h-2.6v-8.7
		c0-0.6-0.1-1.2-0.3-1.7c-0.3-0.5-0.8-0.8-1.4-0.7c-0.6-0.1-1.1,0.2-1.5,0.5c-0.4,0.5-0.6,1.2-0.5,1.8v8.7h-2.6L1069.8,572.7z"/>
	<path class="st1" d="M1089.1,572.7h2.4v1.8c0.4-1.2,1.6-2.1,2.9-2c2.5,0,4.3,2.4,4.3,7c0,4.4-1.6,7-4.3,7c-1.2,0-2.3-0.7-2.7-1.8v6
		h-2.6L1089.1,572.7z M1096.2,579.4c0-3-0.8-4.4-2.3-4.4c-0.7,0-1.3,0.3-1.6,0.9c-0.5,0.7-0.6,1.5-0.6,3.5s0.1,2.8,0.6,3.5
		c0.3,0.6,0.9,0.9,1.6,0.9C1095.4,583.8,1096.2,582.4,1096.2,579.4L1096.2,579.4z"/>
	<path class="st1" d="M1104.2,580.3c0,1.9,0.7,3.7,2.4,3.7c1.1,0,2.1-0.9,2.2-2h2.6c-0.1,1.4-0.8,2.6-1.8,3.5
		c-0.8,0.6-1.9,0.9-2.9,0.9c-3.6,0-5.2-3.3-5.2-7c0-4,1.8-7,5.1-7c1.5-0.1,3,0.7,3.8,2c0.9,1.8,1.3,3.8,1.1,5.9H1104.2z M1109.4,567
		l1,2.1l-5.5,2.6l-0.9-1.7L1109.4,567z M1108.8,578c0-1.5-0.6-3.5-2.3-3.5c-1.4,0-2.3,1.3-2.3,3.5H1108.8z"/>
	<path class="st1" d="M1115.2,575.1h-1.6v-2.5h1.6v-3.2h2.6v3.2h1.6v2.5h-1.6v11h-2.6V575.1z"/>
	<path class="st1" d="M1124.1,580.3c0,1.9,0.7,3.7,2.4,3.7c1.1,0,2.1-0.9,2.2-2h2.6c-0.1,1.4-0.8,2.6-1.8,3.5
		c-0.8,0.6-1.9,0.9-2.9,0.9c-3.6,0-5.2-3.3-5.2-7c0-4,1.8-7,5.1-7c1.5-0.1,3,0.7,3.8,2c0.9,1.8,1.3,3.8,1.1,5.9H1124.1z M1128.7,578
		c0-1.5-0.6-3.5-2.3-3.5c-1.4,0-2.3,1.3-2.3,3.5H1128.7z"/>
	<path class="st1" d="M1134.6,572.7h2.3c0,0.5,0,1.1,0,1.7c0.5-1.3,1.8-2.1,3.2-1.9c2.2,0,3.6,1.2,3.6,4.2v9.5h-2.6v-8.7
		c0-1.1-0.2-2.4-1.8-2.4c-1.2,0-2.1,0.8-2.1,2.5v8.6h-2.6L1134.6,572.7z"/>
	<path class="st1" d="M1156.3,581.2c-0.1,2.7-1.5,5.2-4.3,5.2c-3.3,0-5.2-2.8-5.2-7c0-4.4,2-7,5.2-7c2.9,0,4.3,2.4,4.3,5.2h-2.7
		c-0.1-2-0.8-2.8-1.8-2.8c-0.7,0-1.4,0.4-1.6,1.1c-0.5,1.1-0.7,2.3-0.6,3.5c0,3.2,0.8,4.6,2.3,4.6c1.2,0,1.8-1.2,1.8-2.8
		L1156.3,581.2z"/>
	<path class="st1" d="M1161.3,580.3c0,1.9,0.7,3.7,2.4,3.7c1.1,0,2.1-0.9,2.2-2h2.6c-0.1,1.4-0.8,2.6-1.8,3.5
		c-0.8,0.6-1.9,0.9-2.9,0.9c-3.6,0-5.2-3.3-5.2-7c0-4,1.8-7,5.1-7c1.5-0.1,3,0.7,3.8,2c0.9,1.8,1.3,3.8,1.1,5.9H1161.3z M1166,578
		c0-1.5-0.6-3.5-2.3-3.5c-1.4,0-2.3,1.3-2.3,3.5H1166z"/>
	<path class="st1" d="M1177.1,576.5c0-1.3-0.6-1.8-1.7-1.8c-0.7-0.1-1.4,0.5-1.4,1.2c0,0.1,0,0.1,0,0.2c0,1.3,1.4,1.5,3,2
		c1.9,0.4,3.2,2.1,3.1,4.1c0,2.3-1.9,4.2-4.2,4.3c-0.1,0-0.2,0-0.3,0c-2.5,0-4.4-1.4-4.6-4.4h2.6c-0.1,1.1,0.8,2,1.9,2.1
		c0.1,0,0.1,0,0.2,0c0.9,0.1,1.6-0.6,1.7-1.4c0-0.1,0-0.2,0-0.3c0-1.3-1.4-1.7-3-2.2s-3.1-1.4-3.1-4c0-2.2,1.6-3.7,4.3-3.7
		s4.1,1.5,4.2,4.1L1177.1,576.5z"/>
	<path class="st1" d="M1184.1,588.4h-2.1l1.7-5.5h2.5L1184.1,588.4z"/>
	<path class="st1" d="M1199,586.6c0,2.4-1,4.1-3.3,4.2c-0.3,0-0.6,0-0.8,0v-2.5h0.2c1-0.1,1.3-0.8,1.3-2.1v-13.5h2.6V586.6z
		 M1196.4,568.3h2.6v2.6h-2.6V568.3z"/>
	<path class="st1" d="M1205.4,580.3c0,1.9,0.7,3.7,2.4,3.7c1.1,0,2.1-0.9,2.2-2h2.6c-0.1,1.4-0.8,2.6-1.8,3.5
		c-0.8,0.6-1.9,0.9-2.9,0.9c-3.6,0-5.2-3.3-5.2-7c0-4,1.8-7,5.1-7c1.5-0.1,3,0.7,3.8,2c0.9,1.8,1.3,3.8,1.1,5.9H1205.4z M1210,578
		c0-1.5-0.6-3.5-2.3-3.5c-1.4,0-2.3,1.3-2.3,3.5H1210z"/>
	<path class="st1" d="M1229.4,576.5c0-1.3-0.6-1.8-1.7-1.8c-0.7-0.1-1.4,0.5-1.4,1.2c0,0.1,0,0.1,0,0.2c0,1.3,1.4,1.5,3,2
		c1.9,0.4,3.2,2.1,3.1,4.1c0,2.3-1.9,4.2-4.2,4.3c-0.1,0-0.2,0-0.3,0c-2.5,0-4.4-1.4-4.6-4.4h2.6c-0.1,1.1,0.8,2,1.9,2.1
		c0.1,0,0.1,0,0.2,0c0.9,0.1,1.6-0.6,1.7-1.4c0-0.1,0-0.2,0-0.3c0-1.3-1.4-1.7-3-2.2s-3.1-1.4-3.1-4c0-2.2,1.6-3.7,4.3-3.7
		s4.1,1.5,4.2,4.1L1229.4,576.5z"/>
	<path class="st1" d="M1234.8,579.4c0-3.8,1.6-7,5.2-7s5.2,3.1,5.2,7s-1.6,7-5.2,7S1234.8,583.2,1234.8,579.4z M1237.6,579.4
		c0,3.3,0.9,4.5,2.5,4.5s2.4-1.2,2.4-4.6s-0.9-4.6-2.5-4.6S1237.6,576,1237.6,579.4L1237.6,579.4z"/>
	<path class="st1" d="M1257.4,586.1h-2.4c0-0.6,0-1.2,0-1.8c-0.4,1.4-1.7,2.2-3.1,2.1c-2.2,0-3.6-1.2-3.6-4.2v-9.5h2.6v8.7
		c0,1.1,0.2,2.4,1.8,2.4c1.2,0,2.1-0.8,2.1-2.5v-8.6h2.6L1257.4,586.1z"/>
	<path class="st1" d="M1261.3,568.3h2.6v4.1c0,0.5,0,1,0,1.6c0.4-1,1.2-1.6,2.9-1.6c1-0.1,2,0.4,2.7,1.1c0.7,0.9,1,2,0.9,3.2v9.4
		h-2.6v-8.6c0.1-0.6-0.1-1.3-0.4-1.8c-0.3-0.4-0.9-0.7-1.4-0.6c-0.6,0-1.2,0.2-1.5,0.6c-0.5,0.6-0.7,1.3-0.6,2v8.5h-2.6
		L1261.3,568.3z"/>
	<path class="st1" d="M1283.2,586.1h-2.4c0-0.7,0-1.2,0-1.8c-0.4,1.3-1.7,2.1-3,2c-2.5,0-4.3-2.4-4.3-7c0-4.4,1.6-7,4.3-7
		c1.4-0.1,2.6,0.8,3,2.1c0-0.6,0-1.2,0-1.8h2.4V586.1z M1276.2,579.4c0,3,0.8,4.4,2.3,4.4c0.7,0,1.3-0.3,1.7-0.9
		c0.5-0.7,0.6-1.5,0.6-3.5s-0.1-2.9-0.6-3.5c-0.3-0.6-1-0.9-1.7-0.9C1277,575,1276.2,576.4,1276.2,579.4L1276.2,579.4z"/>
	<path class="st1" d="M1287.4,568.3h2.6v2.6h-2.6L1287.4,568.3z M1287.4,572.7h2.6v13.4h-2.6L1287.4,572.7z"/>
	<path class="st1" d="M1294.6,575.1h-1.6v-2.5h1.6v-3.2h2.6v3.2h1.6v2.5h-1.6v11h-2.6L1294.6,575.1z"/>
	<path class="st1" d="M1303.5,580.3c0,1.9,0.7,3.7,2.4,3.7c1.1,0,2.1-0.9,2.2-2h2.6c-0.1,1.4-0.8,2.6-1.8,3.5
		c-0.8,0.6-1.9,0.9-2.9,0.9c-3.6,0-5.2-3.3-5.2-7c0-4,1.8-7,5.1-7c1.5-0.1,3,0.7,3.8,2c0.9,1.8,1.3,3.8,1.1,5.9H1303.5z M1308.1,578
		c0-1.5-0.6-3.5-2.3-3.5c-1.4,0-2.3,1.3-2.3,3.5H1308.1z"/>
	<path class="st1" d="M1314,572.7h2.4c0,0.8,0,1.5,0,2.2c0.6-2,1.9-2.5,3.5-2.5v3.1c-0.3-0.2-0.7-0.3-1.1-0.3
		c-1.2,0-2.1,1.2-2.1,3.3v7.6h-2.6V572.7z"/>
	<path class="st1" d="M1331.1,586.1h-2.4c0-0.7,0-1.2,0-1.8c-0.4,1.3-1.7,2.1-3,2c-2.5,0-4.3-2.4-4.3-7c0-4.4,1.6-7,4.3-7
		c1.4-0.1,2.6,0.8,3,2.1c0-0.6,0-1.2,0-1.8h2.4V586.1z M1324,579.4c0,3,0.8,4.4,2.3,4.4c0.7,0,1.3-0.3,1.7-0.9
		c0.5-0.7,0.6-1.5,0.6-3.5s-0.1-2.9-0.6-3.5c-0.3-0.6-1-0.9-1.7-0.9C1324.9,575,1324,576.4,1324,579.4L1324,579.4z"/>
	<path class="st1" d="M1335.3,568.3h2.6v2.6h-2.6V568.3z M1335.3,572.7h2.6v13.4h-2.6V572.7z"/>
	<path class="st1" d="M1347.2,576.5c0-1.3-0.6-1.8-1.7-1.8c-0.7-0.1-1.4,0.5-1.4,1.2c0,0.1,0,0.1,0,0.2c0,1.3,1.4,1.5,3,2
		c1.9,0.4,3.2,2.1,3.1,4.1c0,2.3-1.9,4.2-4.2,4.3c-0.1,0-0.2,0-0.3,0c-2.5,0-4.4-1.4-4.6-4.4h2.6c-0.1,1.1,0.8,2,1.9,2.1
		c0.1,0,0.1,0,0.2,0c0.9,0.1,1.6-0.6,1.7-1.4c0-0.1,0-0.2,0-0.3c0-1.3-1.4-1.7-3-2.2s-3.1-1.4-3.1-4c0-2.2,1.6-3.7,4.3-3.7
		s4.1,1.5,4.2,4.1L1347.2,576.5z"/>
	<path class="st1" d="M1366.6,586.1h-2.4l-4-13.4h2.6l2.5,9.6l2.3-9.6h2.6L1366.6,586.1z"/>
	<path class="st1" d="M1371.8,579.4c0-3.8,1.6-7,5.2-7s5.2,3.1,5.2,7s-1.6,7-5.2,7S1371.8,583.2,1371.8,579.4z M1374.6,579.4
		c0,3.3,0.9,4.5,2.5,4.5s2.4-1.2,2.4-4.6s-0.9-4.6-2.5-4.6S1374.6,576,1374.6,579.4L1374.6,579.4z"/>
	<path class="st1" d="M1394.4,586.1h-2.4c0-0.6,0-1.2,0-1.8c-0.4,1.4-1.7,2.2-3.1,2.1c-2.2,0-3.6-1.2-3.6-4.2v-9.5h2.6v8.7
		c0,1.1,0.2,2.4,1.8,2.4c1.2,0,2.1-0.8,2.1-2.5v-8.6h2.6L1394.4,586.1z"/>
	<path class="st1" d="M1403.5,576.5c0-1.3-0.6-1.8-1.7-1.8c-0.7-0.1-1.4,0.5-1.4,1.2c0,0.1,0,0.1,0,0.2c0,1.3,1.4,1.5,3,2
		c1.9,0.4,3.2,2.1,3.1,4.1c0,2.3-1.9,4.2-4.2,4.3c-0.1,0-0.2,0-0.3,0c-2.5,0-4.4-1.4-4.6-4.4h2.6c0,1.1,0.8,2,1.9,2.1
		c0,0,0.1,0,0.1,0c0.9,0.1,1.6-0.6,1.7-1.4c0-0.1,0-0.2,0-0.3c0-1.3-1.4-1.7-3-2.2s-3.1-1.4-3.1-4c0-2.2,1.6-3.7,4.3-3.7
		s4.1,1.5,4.2,4.1L1403.5,576.5z"/>
	<path class="st1" d="M1417.9,572.7h2.4c0,0.8,0,1.5,0,2.2c0.6-2,1.9-2.5,3.5-2.5v3.1c-0.3-0.2-0.7-0.3-1.1-0.3
		c-1.2,0-2.1,1.2-2.1,3.3v7.6h-2.6L1417.9,572.7z"/>
	<path class="st1" d="M1428.2,580.3c0,1.9,0.7,3.7,2.4,3.7c1.1,0,2.1-0.9,2.2-2h2.6c-0.1,1.4-0.8,2.6-1.8,3.5
		c-0.8,0.6-1.9,0.9-2.9,0.9c-3.6,0-5.2-3.3-5.2-7c0-4,1.8-7,5.1-7c1.5-0.1,3,0.7,3.8,2c0.9,1.8,1.3,3.8,1.1,5.9H1428.2z M1432.8,578
		c0-1.5-0.6-3.5-2.3-3.5c-1.4,0-2.3,1.3-2.3,3.5H1432.8z"/>
	<path class="st1" d="M1438.7,572.7h2.3c0,0.5,0,1.1,0,1.7c0.5-1.3,1.8-2.1,3.2-1.9c2.2,0,3.6,1.2,3.6,4.2v9.5h-2.6v-8.7
		c0-1.1-0.2-2.4-1.8-2.4c-1.2,0-2.1,0.8-2.1,2.5v8.6h-2.6L1438.7,572.7z"/>
	<path class="st1" d="M1460.4,581.2c-0.1,2.7-1.5,5.2-4.3,5.2c-3.3,0-5.2-2.8-5.2-7c0-4.4,2-7,5.2-7c2.9,0,4.3,2.4,4.3,5.2h-2.7
		c-0.1-2-0.8-2.8-1.8-2.8c-0.7,0-1.4,0.4-1.6,1.1c-0.5,1.1-0.7,2.3-0.6,3.5c0,3.2,0.8,4.6,2.3,4.6c1.2,0,1.8-1.2,1.8-2.8
		L1460.4,581.2z"/>
	<path class="st1" d="M1462.6,579.4c0-3.8,1.6-7,5.2-7s5.2,3.1,5.2,7s-1.6,7-5.2,7S1462.6,583.2,1462.6,579.4z M1465.4,579.4
		c0,3.3,0.9,4.5,2.5,4.5s2.4-1.2,2.4-4.6s-0.9-4.6-2.5-4.6S1465.4,576,1465.4,579.4L1465.4,579.4z"/>
	<path class="st1" d="M1476.2,572.7h2.3c0,0.5,0,1.1,0,1.7c0.5-1.3,1.8-2.1,3.2-1.9c2.2,0,3.6,1.2,3.6,4.2v9.5h-2.6v-8.7
		c0-1.1-0.2-2.4-1.8-2.4c-1.2,0-2.1,0.8-2.1,2.5v8.6h-2.6L1476.2,572.7z"/>
	<path class="st1" d="M1489.6,575.1h-1.6v-2.5h1.6v-3.2h2.6v3.2h1.6v2.5h-1.6v11h-2.6L1489.6,575.1z"/>
	<path class="st1" d="M1496.5,572.7h2.4c0,0.8,0,1.5,0,2.2c0.6-2,1.9-2.5,3.5-2.5v3.1c-0.3-0.2-0.7-0.3-1.1-0.3
		c-1.2,0-2.1,1.2-2.1,3.3v7.6h-2.6L1496.5,572.7z"/>
	<path class="st1" d="M1506.8,580.3c0,1.9,0.7,3.7,2.4,3.7c1.1,0,2.1-0.9,2.2-2h2.6c-0.1,1.4-0.8,2.6-1.8,3.5
		c-0.8,0.6-1.9,0.9-2.9,0.9c-3.6,0-5.2-3.3-5.2-7c0-4,1.8-7,5.1-7c1.5-0.1,3,0.7,3.8,2c0.9,1.8,1.3,3.8,1.1,5.9H1506.8z M1511.4,578
		c0-1.5-0.6-3.5-2.3-3.5c-1.4,0-2.3,1.3-2.3,3.5H1511.4z"/>
	<path class="st1" d="M1517.3,572.7h2.4c0,0.8,0,1.5,0,2.2c0.6-2,1.9-2.5,3.5-2.5v3.1c-0.3-0.2-0.7-0.3-1.1-0.3
		c-1.2,0-2.1,1.2-2.1,3.3v7.6h-2.6L1517.3,572.7z"/>
	<path class="st1" d="M489.9,614.9h-2.4c0-0.8,0-1.4,0-1.9c-0.3,1.4-1.6,2.3-3,2.2c-2.5,0-4.3-2.4-4.3-7c0-4.4,1.6-7,4.3-7
		c1.2-0.1,2.4,0.7,2.7,1.9c0-0.5,0-1.1,0-1.7v-4.3h2.6L489.9,614.9z M482.8,608.2c0,3,0.8,4.4,2.3,4.4c0.7,0,1.3-0.3,1.7-0.9
		c0.5-0.7,0.5-1.5,0.5-3.5s-0.1-2.8-0.5-3.5c-0.3-0.6-1-1-1.7-0.9C483.6,603.7,482.8,605.2,482.8,608.2L482.8,608.2z"/>
	<path class="st1" d="M502.7,614.9h-2.4c0-0.7,0-1.2,0-1.8c-0.4,1.3-1.7,2.1-3,2c-2.5,0-4.3-2.4-4.3-7c0-4.4,1.6-7,4.3-7
		c1.4-0.1,2.6,0.8,3,2.1c0-0.6,0-1.2,0-1.8h2.4V614.9z M495.6,608.2c0,3,0.8,4.4,2.3,4.4c0.7,0,1.3-0.3,1.7-0.9
		c0.5-0.7,0.5-1.5,0.5-3.5s-0.1-2.9-0.5-3.5c-0.3-0.6-1-0.9-1.7-0.9C496.5,603.8,495.6,605.2,495.6,608.2L495.6,608.2z"/>
	<path class="st1" d="M506.6,601.5h2.3c0,0.5,0,1.1,0,1.7c0.5-1.3,1.8-2.1,3.2-1.9c2.2,0,3.6,1.2,3.6,4.2v9.5h-2.6v-8.7
		c0-1.1-0.2-2.4-1.8-2.4c-1.2,0-2.1,0.8-2.1,2.5v8.6h-2.6V601.5z"/>
	<path class="st1" d="M524.7,605.3c0-1.3-0.6-1.8-1.7-1.8c-0.7-0.1-1.4,0.5-1.4,1.2c0,0.1,0,0.1,0,0.2c0,1.3,1.4,1.5,3,2
		c1.9,0.4,3.2,2.1,3.1,4.1c0,2.3-1.9,4.2-4.2,4.3c-0.1,0-0.2,0-0.3,0c-2.5,0-4.4-1.4-4.6-4.4h2.6c-0.1,1.1,0.8,2,1.9,2.1
		c0.1,0,0.1,0,0.2,0c0.9,0.1,1.6-0.6,1.7-1.4c0-0.1,0-0.2,0-0.3c0-1.3-1.4-1.7-3-2.2s-3.1-1.4-3.1-4c0-2.2,1.6-3.7,4.3-3.7
		s4.1,1.5,4.2,4.1L524.7,605.3z"/>
	<path class="st1" d="M538.3,597.1h2.6v17.8h-2.6V597.1z"/>
	<path class="st1" d="M554.1,614.9h-2.4c0-0.7,0-1.2,0-1.8c-0.4,1.3-1.7,2.1-3,2c-2.5,0-4.3-2.4-4.3-7c0-4.4,1.6-7,4.3-7
		c1.4-0.1,2.6,0.8,3,2.1c0-0.6,0-1.2,0-1.8h2.4V614.9z M547,608.2c0,3,0.8,4.4,2.3,4.4c0.7,0,1.3-0.3,1.7-0.9
		c0.5-0.7,0.5-1.5,0.5-3.5s-0.1-2.9-0.5-3.5c-0.3-0.6-1-0.9-1.7-0.9C547.8,603.8,547,605.2,547,608.2L547,608.2z"/>
	<path class="st1" d="M574.3,619.4h-2.6v-4.5c0-0.7,0-1.2,0-1.7c-0.4,1.2-1.5,2-2.7,1.9c-2.8,0-4.3-2.6-4.3-7c0-4.6,1.8-7,4.3-7
		c1.3-0.1,2.5,0.7,2.9,2c0-0.5,0-1.1,0-1.8h2.5V619.4z M567.2,608.2c0,3,0.8,4.4,2.3,4.4c0.7,0,1.3-0.3,1.7-0.9
		c0.5-0.7,0.5-1.5,0.5-3.5s-0.1-2.9-0.5-3.5c-0.3-0.6-1-0.9-1.7-0.9C568,603.8,567.2,605.2,567.2,608.2L567.2,608.2z"/>
	<path class="st1" d="M587.2,614.9h-2.4c0-0.6,0-1.2,0-1.8c-0.4,1.4-1.7,2.2-3.1,2.1c-2.2,0-3.6-1.2-3.6-4.2v-9.5h2.6v8.7
		c0,1.1,0.2,2.4,1.8,2.4c1.2,0,2.1-0.8,2.1-2.5v-8.6h2.6L587.2,614.9z"/>
	<path class="st1" d="M591.4,597.1h2.6v2.6h-2.6L591.4,597.1z M591.4,601.5h2.6v13.4h-2.6L591.4,601.5z"/>
	<path class="st1" d="M598.1,601.5h2.3c0,0.5,0,1.1,0,1.7c0.5-1.3,1.8-2.1,3.2-1.9c2.2,0,3.6,1.2,3.6,4.2v9.5h-2.6v-8.7
		c0-1.1-0.2-2.4-1.8-2.4c-1.2,0-2.1,0.8-2.1,2.5v8.6h-2.6L598.1,601.5z"/>
	<path class="st1" d="M610.2,612.5l5.5-8.5h-5v-2.5h8.1v2.5l-5.4,8.5h5.5v2.5h-8.7L610.2,612.5z"/>
	<path class="st1" d="M631.2,614.9h-2.4c0-0.7,0-1.2,0-1.8c-0.4,1.3-1.7,2.1-3,2c-2.5,0-4.3-2.4-4.3-7c0-4.4,1.6-7,4.3-7
		c1.4-0.1,2.6,0.8,3,2.1c0-0.6,0-1.2,0-1.8h2.4L631.2,614.9z M624.2,608.2c0,3,0.8,4.4,2.3,4.4c0.7,0,1.3-0.3,1.7-0.9
		c0.5-0.7,0.5-1.5,0.5-3.5s-0.1-2.9-0.5-3.5c-0.3-0.6-1-0.9-1.7-0.9C625,603.8,624.2,605.2,624.2,608.2L624.2,608.2z"/>
	<path class="st1" d="M635.4,597.1h2.6v2.6h-2.6V597.1z M635.4,601.5h2.6v13.4h-2.6V601.5z"/>
	<path class="st1" d="M642.2,601.5h2.3c0,0.5,0,1.1,0,1.7c0.5-1.3,1.8-2.1,3.2-1.9c2.2,0,3.6,1.2,3.6,4.2v9.5h-2.6v-8.7
		c0-1.1-0.2-2.4-1.8-2.4c-1.2,0-2.1,0.8-2.1,2.5v8.6h-2.6L642.2,601.5z"/>
	<path class="st1" d="M657.3,609.1c0,1.9,0.7,3.7,2.4,3.7c1.1,0,2.1-0.9,2.2-2h2.6c-0.1,1.4-0.8,2.6-1.8,3.5
		c-0.8,0.6-1.9,0.9-2.9,0.9c-3.6,0-5.2-3.3-5.2-7c0-4,1.8-7,5.1-7c1.5-0.1,3,0.7,3.8,2c0.9,1.8,1.3,3.8,1.1,5.9H657.3z M662,606.8
		c0-1.5-0.5-3.5-2.3-3.5c-1.4,0-2.3,1.3-2.3,3.5H662z"/>
	<path class="st1" d="M670.6,614.9H668v-3.2h2.6L670.6,614.9z"/>
	<path class="st1" d="M688.1,610.2c0,0.8-0.1,1.6-0.4,2.4c-0.4,0.8-1,1.5-1.8,1.9c-0.8,0.4-1.7,0.7-2.6,0.7c-2.4,0.2-4.5-1.6-4.8-4
		c0-0.2,0-0.3,0-0.5c0-0.3,0-0.6,0-0.9h2.9c0,0.1,0,0.2,0,0.3c0.1,1.9,0.9,2.3,1.9,2.3c0.6,0,1.2-0.3,1.5-0.8c0.3-0.6,0.4-1.3,0.3-2
		v-12.5h2.9V610.2z"/>
	<path class="st1" d="M694.4,609.1c0,1.9,0.7,3.7,2.4,3.7c1.1,0,2.1-0.9,2.2-2h2.6c-0.1,1.4-0.8,2.6-1.8,3.5
		c-0.8,0.6-1.9,0.9-2.9,0.9c-3.6,0-5.2-3.3-5.2-7c0-4,1.8-7,5.1-7c1.5-0.1,3,0.7,3.8,2c0.9,1.8,1.3,3.8,1.1,5.9H694.4z M699,606.8
		c0-1.5-0.5-3.5-2.3-3.5c-1.4,0-2.3,1.3-2.3,3.5H699z"/>
	<path class="st1" d="M712.2,601.5h2.4c0,0.8,0,1.5,0,2.2c0.5-2,1.9-2.5,3.5-2.5v3.1c-0.3-0.2-0.7-0.3-1.1-0.3
		c-1.2,0-2.1,1.2-2.1,3.3v7.6h-2.6L712.2,601.5z"/>
	<path class="st1" d="M722.5,609.1c0,1.9,0.7,3.7,2.4,3.7c1.1,0,2.1-0.9,2.2-2h2.6c-0.1,1.4-0.8,2.6-1.8,3.5
		c-0.8,0.6-1.9,0.9-2.9,0.9c-3.6,0-5.2-3.3-5.2-7c0-4,1.8-7,5.1-7c1.5-0.1,3,0.7,3.8,2c0.9,1.8,1.3,3.8,1.1,5.9H722.5z M727.2,606.8
		c0-1.5-0.5-3.5-2.3-3.5c-1.4,0-2.3,1.3-2.3,3.5H727.2z"/>
	<path class="st1" d="M738.3,605.3c0-1.3-0.6-1.8-1.7-1.8c-0.7-0.1-1.4,0.5-1.4,1.2c0,0.1,0,0.1,0,0.2c0,1.3,1.4,1.5,3,2
		c1.9,0.4,3.2,2.1,3.1,4.1c0,2.3-1.9,4.2-4.2,4.3c-0.1,0-0.2,0-0.3,0c-2.5,0-4.4-1.4-4.6-4.4h2.6c-0.1,1.1,0.8,2,1.9,2.1
		c0.1,0,0.1,0,0.2,0c0.9,0.1,1.6-0.6,1.7-1.4c0-0.1,0-0.2,0-0.3c0-1.3-1.4-1.7-3-2.2s-3.1-1.4-3.1-4c0-2.2,1.6-3.7,4.3-3.7
		s4.1,1.5,4.2,4.1L738.3,605.3z"/>
	<path class="st1" d="M744.8,603.9h-1.6v-2.5h1.6v-3.2h2.6v3.2h1.6v2.5h-1.6v11h-2.6V603.9z"/>
	<path class="st1" d="M753.6,609.1c0,1.9,0.7,3.7,2.4,3.7c1.1,0,2.1-0.9,2.2-2h2.6c-0.1,1.4-0.8,2.6-1.8,3.5
		c-0.8,0.6-1.9,0.9-2.9,0.9c-3.6,0-5.2-3.3-5.2-7c0-4,1.8-7,5.1-7c1.5-0.1,3,0.7,3.8,2c0.9,1.8,1.3,3.8,1.1,5.9H753.6z M758.3,606.8
		c0-1.5-0.5-3.5-2.3-3.5c-1.4,0-2.3,1.3-2.3,3.5H758.3z"/>
	<path class="st1" d="M780.4,614.9h-2.4c0-0.7,0-1.2,0-1.8c-0.4,1.3-1.7,2.1-3,2c-2.5,0-4.3-2.4-4.3-7c0-4.4,1.6-7,4.3-7
		c1.4-0.1,2.6,0.8,3,2.1c0-0.6,0-1.2,0-1.8h2.4V614.9z M778.3,598.8l-0.9,1.7l-5.5-2.6l1-2.1L778.3,598.8z M773.4,608.2
		c0,3,0.8,4.4,2.3,4.4c0.7,0,1.3-0.3,1.7-0.9c0.5-0.7,0.5-1.5,0.5-3.5s-0.1-2.9-0.5-3.5c-0.3-0.6-1-0.9-1.7-0.9
		C774.2,603.8,773.4,605.2,773.4,608.2L773.4,608.2z"/>
	<path class="st1" d="M796.6,614.9h-2.4l-4-13.4h2.6l2.5,9.6l2.3-9.6h2.6L796.6,614.9z"/>
	<path class="st1" d="M801.9,608.2c0-3.8,1.6-7,5.2-7s5.2,3.1,5.2,7s-1.6,7-5.2,7S801.9,612,801.9,608.2z M804.6,608.2
		c0,3.3,0.9,4.5,2.5,4.5s2.4-1.2,2.4-4.6s-0.9-4.6-2.5-4.6S804.6,604.8,804.6,608.2L804.6,608.2z"/>
	<path class="st1" d="M815.9,603.9h-1.6v-2.5h1.6v-3.2h2.6v3.2h1.6v2.5h-1.6v11h-2.6V603.9z"/>
	<path class="st1" d="M822.8,601.5h2.4c0,0.8,0,1.5,0,2.2c0.5-2,1.9-2.5,3.5-2.5v3.1c-0.3-0.2-0.7-0.3-1.1-0.3
		c-1.2,0-2.1,1.2-2.1,3.3v7.6h-2.6V601.5z"/>
	<path class="st1" d="M833.1,609.1c0,1.9,0.7,3.7,2.4,3.7c1.1,0,2.1-0.9,2.2-2h2.6c-0.1,1.4-0.8,2.6-1.8,3.5
		c-0.8,0.6-1.9,0.9-2.9,0.9c-3.6,0-5.2-3.3-5.2-7c0-4,1.8-7,5.1-7c1.5-0.1,3,0.7,3.8,2c0.9,1.8,1.3,3.8,1.1,5.9H833.1z M837.8,606.8
		c0-1.5-0.5-3.5-2.3-3.5c-1.4,0-2.3,1.3-2.3,3.5H837.8z"/>
	<path class="st1" d="M859.9,614.9h-2.4c0-0.8,0-1.4,0-1.9c-0.3,1.4-1.6,2.3-3,2.2c-2.5,0-4.3-2.4-4.3-7c0-4.4,1.6-7,4.3-7
		c1.2-0.1,2.4,0.7,2.7,1.9c0-0.5,0-1.1,0-1.7v-4.3h2.6L859.9,614.9z M852.9,608.2c0,3,0.8,4.4,2.3,4.4c0.7,0,1.3-0.3,1.7-0.9
		c0.5-0.7,0.5-1.5,0.5-3.5s-0.1-2.8-0.5-3.5c-0.3-0.6-1-1-1.7-0.9C853.7,603.7,852.9,605.2,852.9,608.2L852.9,608.2z"/>
	<path class="st1" d="M864.1,597.1h2.6v2.6h-2.6V597.1z M864.1,601.5h2.6v13.4h-2.6V601.5z"/>
	<path class="st1" d="M876,605.3c0-1.3-0.6-1.8-1.7-1.8c-0.7-0.1-1.4,0.5-1.4,1.2c0,0.1,0,0.1,0,0.2c0,1.3,1.4,1.5,3,2
		c1.9,0.4,3.2,2.1,3.1,4.1c0,2.3-1.9,4.2-4.2,4.3c-0.1,0-0.2,0-0.3,0c-2.5,0-4.4-1.4-4.6-4.4h2.6c-0.1,1.1,0.8,2,1.9,2.1
		c0.1,0,0.1,0,0.2,0c0.9,0.1,1.6-0.6,1.7-1.4c0-0.1,0-0.2,0-0.3c0-1.3-1.4-1.7-3-2.2s-3.1-1.4-3.1-4c0-2.2,1.6-3.7,4.3-3.7
		s4.1,1.5,4.2,4.1L876,605.3z"/>
	<path class="st1" d="M882.1,601.5h2.4v1.8c0.4-1.2,1.6-2.1,2.9-2c2.5,0,4.3,2.4,4.3,7c0,4.4-1.6,7-4.3,7c-1.2,0-2.3-0.7-2.7-1.8v6
		h-2.6V601.5z M889.2,608.2c0-3-0.8-4.4-2.3-4.4c-0.7,0-1.3,0.3-1.6,0.9c-0.5,0.7-0.6,1.5-0.6,3.5s0.1,2.8,0.6,3.5
		c0.3,0.6,0.9,0.9,1.6,0.9C888.4,612.6,889.2,611.2,889.2,608.2L889.2,608.2z"/>
	<path class="st1" d="M894.3,608.2c0-3.8,1.6-7,5.2-7s5.2,3.1,5.2,7s-1.6,7-5.2,7S894.3,612,894.3,608.2z M897,608.2
		c0,3.3,0.9,4.5,2.5,4.5s2.4-1.2,2.4-4.6s-0.9-4.6-2.5-4.6S897,604.8,897,608.2L897,608.2z"/>
	<path class="st1" d="M913,605.3c0-1.3-0.6-1.8-1.7-1.8c-0.7-0.1-1.4,0.5-1.4,1.2c0,0.1,0,0.1,0,0.2c0,1.3,1.4,1.5,3,2
		c1.9,0.4,3.2,2.1,3.1,4.1c0,2.3-1.9,4.2-4.2,4.3c-0.1,0-0.2,0-0.3,0c-2.5,0-4.4-1.4-4.6-4.4h2.6c-0.1,1.1,0.8,2,1.9,2.1
		c0.1,0,0.1,0,0.2,0c0.9,0.1,1.6-0.6,1.7-1.4c0-0.1,0-0.2,0-0.3c0-1.3-1.4-1.7-3-2.2s-3.1-1.4-3.1-4c0-2.2,1.6-3.7,4.3-3.7
		s4.1,1.5,4.2,4.1L913,605.3z"/>
	<path class="st1" d="M919.4,597.1h2.6v2.6h-2.6L919.4,597.1z M919.4,601.5h2.6v13.4h-2.6L919.4,601.5z"/>
	<path class="st1" d="M926.6,603.9H925v-2.5h1.6v-3.2h2.6v3.2h1.6v2.5h-1.6v11h-2.6L926.6,603.9z"/>
	<path class="st1" d="M933.8,597.1h2.6v2.6h-2.6V597.1z M933.8,601.5h2.6v13.4h-2.6V601.5z"/>
	<path class="st1" d="M939.9,608.2c0-3.8,1.6-7,5.2-7s5.2,3.1,5.2,7s-1.6,7-5.2,7S939.9,612,939.9,608.2z M942.6,608.2
		c0,3.3,0.9,4.5,2.5,4.5s2.4-1.2,2.4-4.6s-0.9-4.6-2.5-4.6S942.6,604.8,942.6,608.2L942.6,608.2z"/>
	<path class="st1" d="M953.5,601.5h2.3c0,0.5,0,1.1,0,1.7c0.5-1.3,1.8-2.1,3.2-1.9c2.2,0,3.6,1.2,3.6,4.2v9.5H960v-8.7
		c0-1.1-0.2-2.4-1.8-2.4c-1.2,0-2.1,0.8-2.1,2.5v8.6h-2.6L953.5,601.5z"/>
	<path class="st1" d="M973.7,601.5h2.4v1.8c0.4-1.2,1.6-2.1,2.9-2c2.5,0,4.3,2.4,4.3,7c0,4.4-1.6,7-4.3,7c-1.2,0-2.3-0.7-2.7-1.8v6
		h-2.6L973.7,601.5z M980.7,608.2c0-3-0.8-4.4-2.3-4.4c-0.7,0-1.3,0.3-1.6,0.9c-0.5,0.7-0.6,1.5-0.6,3.5s0.1,2.8,0.6,3.5
		c0.3,0.6,0.9,0.9,1.6,0.9C979.9,612.6,980.7,611.2,980.7,608.2L980.7,608.2z"/>
	<path class="st1" d="M985.9,608.2c0-3.8,1.6-7,5.2-7s5.2,3.1,5.2,7s-1.6,7-5.2,7S985.9,612,985.9,608.2z M988.6,608.2
		c0,3.3,0.9,4.5,2.5,4.5s2.4-1.2,2.4-4.6s-0.9-4.6-2.5-4.6S988.6,604.8,988.6,608.2L988.6,608.2z"/>
	<path class="st1" d="M1008.5,614.9h-2.4c0-0.6,0-1.2,0-1.8c-0.4,1.4-1.7,2.2-3.1,2.1c-2.2,0-3.6-1.2-3.6-4.2v-9.5h2.6v8.7
		c0,1.1,0.2,2.4,1.8,2.4c1.2,0,2.1-0.8,2.1-2.5v-8.6h2.6L1008.5,614.9z"/>
	<path class="st1" d="M1012.4,601.5h2.4c0,0.8,0,1.5,0,2.2c0.5-2,1.9-2.5,3.5-2.5v3.1c-0.3-0.2-0.7-0.3-1.1-0.3
		c-1.2,0-2.1,1.2-2.1,3.3v7.6h-2.6L1012.4,601.5z"/>
	<path class="st1" d="M1036.9,610c-0.1,2.7-1.5,5.2-4.3,5.2c-3.3,0-5.2-2.8-5.2-7c0-4.4,2-7,5.2-7c2.9,0,4.3,2.4,4.3,5.2h-2.7
		c-0.1-2-0.8-2.8-1.8-2.8c-0.7,0-1.4,0.4-1.6,1.1c-0.5,1.1-0.7,2.3-0.6,3.5c0,3.2,0.8,4.6,2.3,4.6c1.2,0,1.8-1.2,1.8-2.8L1036.9,610
		z"/>
	<path class="st1" d="M1039.1,608.2c0-3.8,1.6-7,5.2-7s5.2,3.1,5.2,7s-1.6,7-5.2,7S1039.1,612,1039.1,608.2z M1041.8,608.2
		c0,3.3,0.9,4.5,2.5,4.5s2.4-1.2,2.4-4.6s-0.9-4.6-2.5-4.6S1041.8,604.8,1041.8,608.2L1041.8,608.2z"/>
	<path class="st1" d="M1052.6,601.5h2.3c0,0.5,0,1.1,0,1.7c0.5-1.3,1.8-2.1,3.2-1.9c2.2,0,3.6,1.2,3.6,4.2v9.5h-2.6v-8.7
		c0-1.1-0.2-2.4-1.8-2.4c-1.2,0-2.1,0.8-2.1,2.5v8.6h-2.6L1052.6,601.5z"/>
	<path class="st1" d="M1070.5,614.9h-2.4l-4-13.4h2.6l2.5,9.6l2.3-9.6h2.6L1070.5,614.9z"/>
	<path class="st1" d="M1078.7,609.1c0,1.9,0.7,3.7,2.4,3.7c1.1,0,2.1-0.9,2.2-2h2.6c-0.1,1.4-0.8,2.6-1.8,3.5
		c-0.8,0.6-1.9,0.9-2.9,0.9c-3.6,0-5.2-3.3-5.2-7c0-4,1.8-7,5.1-7c1.5-0.1,3,0.7,3.8,2c0.9,1.8,1.3,3.8,1.1,5.9H1078.7z
		 M1083.3,606.8c0-1.5-0.6-3.5-2.3-3.5c-1.4,0-2.3,1.3-2.3,3.5H1083.3z"/>
	<path class="st1" d="M1089.2,601.5h2.3c0,0.5,0,1.1,0,1.7c0.5-1.3,1.8-2.1,3.2-1.9c2.2,0,3.6,1.2,3.6,4.2v9.5h-2.6v-8.7
		c0-1.1-0.2-2.4-1.8-2.4c-1.2,0-2.1,0.8-2.1,2.5v8.6h-2.6L1089.2,601.5z"/>
	<path class="st1" d="M1102.4,597.1h2.6v2.6h-2.6L1102.4,597.1z M1102.4,601.5h2.6v13.4h-2.6L1102.4,601.5z"/>
	<path class="st1" d="M1109.2,601.5h2.4c0,0.8,0,1.5,0,2.2c0.6-2,1.9-2.5,3.5-2.5v3.1c-0.3-0.2-0.7-0.3-1.1-0.3
		c-1.2,0-2.1,1.2-2.1,3.3v7.6h-2.6L1109.2,601.5z"/>
	<path class="st1" d="M1133.9,614.9h-2.4c0-0.8,0-1.4,0-1.9c-0.3,1.4-1.6,2.3-3,2.2c-2.5,0-4.3-2.4-4.3-7c0-4.4,1.6-7,4.3-7
		c1.2-0.1,2.4,0.7,2.7,1.9c0-0.5,0-1.1,0-1.7v-4.3h2.6L1133.9,614.9z M1126.9,608.2c0,3,0.8,4.4,2.3,4.4c0.7,0,1.3-0.3,1.7-0.9
		c0.5-0.7,0.6-1.5,0.6-3.5s-0.1-2.8-0.6-3.5c-0.3-0.6-1-1-1.7-0.9C1127.7,603.7,1126.9,605.2,1126.9,608.2L1126.9,608.2z"/>
	<path class="st1" d="M1138.8,597.1h2.8l-2.3,5.5h-2.4L1138.8,597.1z"/>
	<path class="st1" d="M1153.5,614.9h-2.4c0-0.6,0-1.2,0-1.8c-0.4,1.4-1.7,2.2-3.1,2.1c-2.2,0-3.6-1.2-3.6-4.2v-9.5h2.6v8.7
		c0,1.1,0.2,2.4,1.8,2.4c1.2,0,2.1-0.8,2.1-2.5v-8.6h2.6L1153.5,614.9z"/>
	<path class="st1" d="M1157.3,601.5h2.3c0,0.5,0,1.1,0,1.7c0.5-1.3,1.8-2.1,3.2-1.9c2.2,0,3.6,1.2,3.6,4.2v9.5h-2.6v-8.7
		c0-1.1-0.2-2.4-1.8-2.4c-1.2,0-2.1,0.8-2.1,2.5v8.6h-2.6L1157.3,601.5z"/>
	<path class="st1" d="M1179.8,609.1c0,1.9,0.7,3.7,2.4,3.7c1.1,0,2.1-0.9,2.2-2h2.6c-0.1,1.4-0.8,2.6-1.8,3.5
		c-0.8,0.6-1.9,0.9-2.9,0.9c-3.6,0-5.2-3.3-5.2-7c0-4,1.8-7,5.1-7c1.5-0.1,3,0.7,3.8,2c0.9,1.8,1.3,3.8,1.1,5.9H1179.8z M1185,595.8
		l1,2.1l-5.5,2.6l-0.9-1.7L1185,595.8z M1184.4,606.8c0-1.5-0.6-3.5-2.3-3.5c-1.4,0-2.3,1.3-2.3,3.5H1184.4z"/>
	<path class="st1" d="M1195,614.9h-2.4l-4-13.4h2.6l2.5,9.6l2.3-9.6h2.6L1195,614.9z"/>
	<path class="st1" d="M1203.1,609.1c0,1.9,0.7,3.7,2.4,3.7c1.1,0,2.1-0.9,2.2-2h2.6c-0.1,1.4-0.8,2.6-1.8,3.5
		c-0.8,0.6-1.9,0.9-2.9,0.9c-3.6,0-5.2-3.3-5.2-7c0-4,1.8-7,5.1-7c1.5-0.1,3,0.7,3.8,2c0.9,1.8,1.3,3.8,1.1,5.9H1203.1z
		 M1207.8,606.8c0-1.5-0.6-3.5-2.3-3.5c-1.4,0-2.3,1.3-2.3,3.5H1207.8z"/>
	<path class="st1" d="M1213.7,601.5h2.3c0,0.5,0,1.1,0,1.7c0.5-1.3,1.8-2.1,3.2-1.9c2.2,0,3.6,1.2,3.6,4.2v9.5h-2.6v-8.7
		c0-1.1-0.2-2.4-1.8-2.4c-1.2,0-2.1,0.8-2.1,2.5v8.6h-2.6L1213.7,601.5z"/>
	<path class="st1" d="M1227.1,603.9h-1.6v-2.5h1.6v-3.2h2.6v3.2h1.6v2.5h-1.6v11h-2.6V603.9z"/>
	<path class="st1" d="M1243,614.9h-2.4c0-0.6,0-1.2,0-1.8c-0.4,1.4-1.7,2.2-3.1,2.1c-2.2,0-3.6-1.2-3.6-4.2v-9.5h2.6v8.7
		c0,1.1,0.2,2.4,1.8,2.4c1.2,0,2.1-0.8,2.1-2.5v-8.6h2.6V614.9z"/>
	<path class="st1" d="M1249.1,609.1c0,1.9,0.7,3.7,2.4,3.7c1.1,0,2.1-0.9,2.2-2h2.6c-0.1,1.4-0.8,2.6-1.8,3.5
		c-0.8,0.6-1.9,0.9-2.9,0.9c-3.6,0-5.2-3.3-5.2-7c0-4,1.8-7,5.1-7c1.5-0.1,3,0.7,3.8,2c0.9,1.8,1.3,3.8,1.1,5.9H1249.1z
		 M1253.8,606.8c0-1.5-0.6-3.5-2.3-3.5c-1.4,0-2.3,1.3-2.3,3.5H1253.8z"/>
	<path class="st1" d="M1259.9,597.1h2.6v17.8h-2.6V597.1z"/>
	<path class="st1" d="M1276.2,609.1c0,1.9,0.7,3.7,2.4,3.7c1.1,0,2.1-0.9,2.2-2h2.6c-0.1,1.4-0.8,2.6-1.8,3.5
		c-0.8,0.6-1.9,0.9-2.9,0.9c-3.6,0-5.2-3.3-5.2-7c0-4,1.8-7,5.1-7c1.5-0.1,3,0.7,3.8,2c0.9,1.8,1.3,3.8,1.1,5.9H1276.2z
		 M1280.8,606.8c0-1.5-0.6-3.5-2.3-3.5c-1.4,0-2.3,1.3-2.3,3.5H1280.8z"/>
	<path class="st1" d="M1286.8,601.5h2.2c0,0.5,0,1.1,0,1.7c0.5-1.3,1.8-2.1,3.2-1.9c2.2,0,3.6,1.2,3.6,4.2v9.5h-2.6v-8.7
		c0-1.1-0.2-2.4-1.8-2.4c-1.2,0-2.1,0.8-2.1,2.5v8.6h-2.6L1286.8,601.5z"/>
	<path class="st1" d="M1300.2,603.9h-1.6v-2.5h1.6v-3.2h2.6v3.2h1.6v2.5h-1.6v11h-2.6V603.9z"/>
	<path class="st1" d="M1307.1,601.5h2.4c0,0.8,0,1.5,0,2.2c0.6-2,1.9-2.5,3.5-2.5v3.1c-0.3-0.2-0.7-0.3-1.1-0.3
		c-1.2,0-2.1,1.2-2.1,3.3v7.6h-2.6L1307.1,601.5z"/>
	<path class="st1" d="M1317.4,609.1c0,1.9,0.7,3.7,2.4,3.7c1.1,0,2.1-0.9,2.2-2h2.6c-0.1,1.4-0.8,2.6-1.8,3.5
		c-0.8,0.6-1.9,0.9-2.9,0.9c-3.6,0-5.2-3.3-5.2-7c0-4,1.8-7,5.1-7c1.5-0.1,3,0.7,3.8,2c0.9,1.8,1.3,3.8,1.1,5.9H1317.4z M1322,606.8
		c0-1.5-0.6-3.5-2.3-3.5c-1.4,0-2.3,1.3-2.3,3.5H1322z"/>
	<path class="st1" d="M1328.4,603.9h-1.6v-2.5h1.6v-3.2h2.6v3.2h1.6v2.5h-1.6v11h-2.6L1328.4,603.9z"/>
	<path class="st1" d="M1335.6,597.1h2.6v2.6h-2.6V597.1z M1335.6,601.5h2.6v13.4h-2.6V601.5z"/>
	<path class="st1" d="M1344.6,609.1c0,1.9,0.7,3.7,2.4,3.7c1.1,0,2.1-0.9,2.2-2h2.6c-0.1,1.4-0.8,2.6-1.8,3.5
		c-0.8,0.6-1.9,0.9-2.9,0.9c-3.6,0-5.2-3.3-5.2-7c0-4,1.8-7,5.1-7c1.5-0.1,3,0.7,3.8,2c0.9,1.8,1.3,3.8,1.1,5.9H1344.6z
		 M1349.2,606.8c0-1.5-0.6-3.5-2.3-3.5c-1.4,0-2.3,1.3-2.3,3.5H1349.2z"/>
	<path class="st1" d="M1355.1,601.5h2.3c0,0.5,0,1.1,0,1.7c0.5-1.3,1.8-2.1,3.2-1.9c2.2,0,3.6,1.2,3.6,4.2v9.5h-2.6v-8.7
		c0-1.1-0.2-2.4-1.8-2.4c-1.2,0-2.1,0.8-2.1,2.5v8.6h-2.6L1355.1,601.5z"/>
	<path class="st1" d="M1371.1,614.9h-2.6v-3.2h2.6V614.9z"/>
</g>
<g id="vignettes_rponses">
	<polygon class="st0" points="356.4,216.4 226.1,184.9 95.8,216.4 95.8,0.1 356.4,0.1 	"/>
	<path class="st1" d="M128.2,64.5h9.7c5.9,0,8.9,3.2,8.9,9.6v6.5c0,4-1.6,6.6-4.8,7.8l7.1,20.4h-8l-5-19h-0.4v19h-7.4L128.2,64.5z
		 M135.5,71.5v11.5h0.9c0.5,0,1,0,1.6-0.1c0.9-0.4,1.5-1.4,1.4-2.4V74c0-1.7-0.7-2.5-2.2-2.5L135.5,71.5z"/>
	<path class="st1" d="M154.3,64.5h17.3v7.1h-10v11.5h8.6v7.1h-8.5v11.5h10v7.1h-17.4V64.5z M170.9,59.5l-6.4,4.2h-6.3l7-6.5h5.7
		L170.9,59.5z"/>
	<path class="st1" d="M177,64.5h9.7c5.9,0,8.9,3.2,8.9,9.6v6.5c0,4.7-2.1,7.7-6.4,9.1c-1.4,0.4-2.9,0.5-4.4,0.5h-0.5v18.6H177V64.5z
		 M184.4,71.5v11.5h0.9c0.5,0,1,0,1.6-0.1c0.9-0.4,1.5-1.4,1.4-2.4V74c0-1.7-0.7-2.5-2.2-2.5L184.4,71.5z"/>
	<path class="st1" d="M220.6,99.9c0,6.4-3.2,9.6-9.6,9.6c-6.4,0-9.5-3.2-9.5-9.6V73.3c0-6.4,3.2-9.5,9.5-9.5s9.5,3.2,9.6,9.5V99.9z
		 M213.3,73.3c0-1.7-0.7-2.5-2.2-2.5l0,0c-1.4,0-2.1,0.8-2.1,2.5v26.5c0,1.7,0.7,2.5,2.2,2.5c1.4,0,2.2-0.8,2.2-2.5L213.3,73.3z"/>
	<path class="st1" d="M227.8,64.5h7.2l5,21.8V64.5h6.9v44.3h-7.3l-4.7-21.2v21.2h-7.1L227.8,64.5z"/>
	<path class="st1" d="M254,73.3c0-6.4,3.2-9.5,9.5-9.5s9.5,3.2,9.5,9.5v6.3h-7.4v-6.3c0-1.7-0.7-2.5-2.2-2.5l0,0
		c-1.4,0-2.1,0.8-2.1,2.5v3.9c0,1.8,1.9,4.1,5.7,6.8c4,2.9,6,6.3,6,10.3v5.5c0,6.4-3.2,9.6-9.5,9.6s-9.5-3.2-9.5-9.6v-6.3h7.4v6.3
		c0,1.7,0.7,2.5,2.2,2.5c1.5,0,2.2-0.8,2.2-2.5v-5c0-2-1.9-4.3-5.7-7c-4-2.8-6.1-6.3-6.1-10.5V73.3z"/>
	<path class="st1" d="M280.2,64.5h17.3v7.1h-10v11.5h8.6v7.1h-8.6v11.5h10v7.1h-17.3V64.5z"/>
	<path class="st1" d="M303.5,73.3c0-6.4,3.2-9.5,9.5-9.5s9.5,3.2,9.5,9.5v6.3h-7.4v-6.3c0-1.7-0.7-2.5-2.2-2.5l0,0
		c-1.4,0-2.1,0.8-2.1,2.5v3.9c0,1.8,1.9,4.1,5.7,6.8c4,2.9,6.1,6.3,6.1,10.3v5.5c0,6.4-3.2,9.6-9.5,9.6s-9.5-3.2-9.5-9.6v-6.3h7.4
		v6.3c0,1.7,0.7,2.5,2.2,2.5c1.5,0,2.2-0.8,2.2-2.5v-5c0-2-1.9-4.3-5.7-7c-4-2.9-6.1-6.4-6.1-10.5L303.5,73.3z"/>
</g>
</svg>
