<?xml version="1.0" encoding="utf-8"?>
<!-- Generator: Adobe Illustrator 21.1.0, SVG Export Plug-In . SVG Version: 6.00 Build 0)  -->
<svg version="1.1" id="Calque_1" xmlns="http://www.w3.org/2000/svg" xmlns:xlink="http://www.w3.org/1999/xlink" x="0px" y="0px"
	 viewBox="0 0 661.5 90.4" style="enable-background:new 0 0 661.5 90.4;" xml:space="preserve">
<style type="text/css">
	.st0{fill:#4E96B3;stroke:#4E96B3;stroke-width:5;stroke-miterlimit:10;}
	.st1{fill:#FFFFFF;}
</style>
<title>game1b_item_zone8_txt</title>
<g>
	<g id="Calque_2">
		<g id="Calque_13">
			<circle class="st0" cx="13.8" cy="13.8" r="11.2"/>
			<path class="st1" d="M9.9,12.1c0-2,1.7-3.7,3.7-3.7c0.1,0,0.2,0,0.3,0c2-0.2,3.8,1.4,4,3.4c0,0.1,0,0.2,0,0.3c0,1-0.5,2-1.4,2.5
				c1.2,0.6,1.9,1.9,1.8,3.2c0,2.8-1.9,4.3-4.4,4.3s-4.4-1.5-4.4-4.3c-0.1-1.4,0.7-2.6,1.8-3.3C10.4,14.1,9.8,13.2,9.9,12.1
				L9.9,12.1z M12.3,17.9c-0.1,0.9,0.6,1.7,1.5,1.7c0.9,0.1,1.7-0.6,1.7-1.5c0-0.1,0-0.2,0-0.3c0-0.9-0.7-1.6-1.6-1.6
				C13,16.3,12.3,17.1,12.3,17.9z M12.6,12.5c-0.1,0.7,0.4,1.3,1.1,1.4c0.7,0.1,1.3-0.4,1.4-1.1c0-0.1,0-0.1,0-0.2
				c0.1-0.8-0.5-1.4-1.2-1.5c0,0,0,0,0,0C13.1,11.1,12.6,11.7,12.6,12.5C12.6,12.5,12.6,12.5,12.6,12.5L12.6,12.5z"/>
			<path d="M37.9,8.7C39,8.6,40.1,9,41,9.8c0.8,0.9,1.3,2,1.2,3.2c0.1,1.2-0.4,2.4-1.2,3.2c-0.9,0.8-2,1.2-3.1,1.1h-1V22h-2.8V8.7
				H37.9z M36.9,14.8h1c0.4,0,0.8-0.1,1.1-0.4c0.3-0.4,0.5-0.9,0.4-1.4c0-0.5-0.1-1-0.4-1.4c-0.3-0.3-0.8-0.5-1.2-0.4h-1L36.9,14.8z
				"/>
			<path d="M44.7,8.7h3.5c1.9,0,3.1,0.5,3.7,1.2c0.7,0.9,1.1,2,1.1,3.1c0,0.7-0.1,1.4-0.4,2c-0.3,0.7-0.9,1.4-1.6,1.8l2.5,5.3h-3.1
				l-2.9-6.8c0.3,0,0.5,0,0.7,0c0.5,0,1-0.2,1.3-0.5c0.4-0.4,0.6-1,0.6-1.5c0.1-0.6-0.2-1.2-0.6-1.6c-0.4-0.3-0.9-0.4-1.4-0.4h-0.6
				V22h-2.7V8.7z"/>
			<path d="M54.9,15.3c0-4.2,1.6-6.9,4.9-6.9s4.9,2.7,4.9,6.9s-1.6,6.9-4.9,6.9S54.9,19.5,54.9,15.3L54.9,15.3z M57.7,15.3
				c0,3.2,0.7,4.4,2.1,4.4s2.1-1.2,2.1-4.4s-0.7-4.4-2.1-4.4S57.7,12.1,57.7,15.3L57.7,15.3z"/>
			<path d="M71.1,8.7c1.1,0,2.3,0.4,3.1,1.1c0.8,0.9,1.3,2,1.2,3.2c0.1,1.2-0.4,2.4-1.2,3.2c-0.9,0.8-2,1.2-3.1,1.1H70V22h-2.7V8.7
				H71.1z M70.1,14.8h1c0.4,0,0.9-0.1,1.2-0.4c0.3-0.4,0.4-0.9,0.4-1.4c0-0.5-0.1-1-0.4-1.4c-0.3-0.3-0.8-0.5-1.2-0.4h-1L70.1,14.8z
				"/>
			<path d="M77.3,15.3c0-4.2,1.6-6.9,4.9-6.9s4.9,2.7,4.9,6.9s-1.6,6.9-4.9,6.9S77.3,19.5,77.3,15.3L77.3,15.3z M80.1,15.3
				c0,3.2,0.7,4.4,2.1,4.4s2.1-1.2,2.1-4.4s-0.7-4.4-2.1-4.4S80.1,12.1,80.1,15.3L80.1,15.3z"/>
			<path d="M91.8,17.8c0,1.4,0.5,2,1.7,2c0.8,0,1.5-0.6,1.5-1.4c0-0.1,0-0.1,0-0.2c0-1.2-1.4-1.5-2.9-2s-2.9-1.4-2.9-3.7
				c-0.2-2.1,1.4-4,3.5-4.1c0.2,0,0.4,0,0.6,0c2.5,0,3.8,1.2,4.2,3.8h-2.6c0.1-0.8-0.5-1.5-1.3-1.5c-0.1,0-0.1,0-0.2,0
				c-0.8,0-1.4,0.6-1.4,1.3c0,0,0,0.1,0,0.1c0,1.3,1.4,1.5,2.9,2.1c1.8,0.5,3,2.2,2.9,4c0,2.5-1.9,4-4.4,4c-3,0-4.4-1.6-4.4-4.4
				L91.8,17.8z"/>
			<path d="M100.3,8.7h2.7V22h-2.7V8.7z"/>
			<path d="M107.5,11.2h-2.2V8.7h7.2v2.5h-2.2V22h-2.7L107.5,11.2z"/>
			<path d="M114.8,8.7h2.7V22h-2.7V8.7z"/>
			<path d="M119.9,15.3c0-4.2,1.6-6.9,4.9-6.9c3.3,0,4.9,2.7,4.9,6.9s-1.6,6.9-4.9,6.9S119.9,19.5,119.9,15.3L119.9,15.3z
				 M122.8,15.3c0,3.2,0.7,4.4,2.1,4.4s2.1-1.2,2.1-4.4s-0.7-4.4-2.1-4.4S122.8,12.1,122.8,15.3L122.8,15.3z"/>
			<path d="M138.4,16.5V8.7h2.4V22h-2.4l-3.8-8.5V22h-2.4V8.7h2.8L138.4,16.5z"/>
			<path d="M150.5,8.7h3.8c1.6-0.1,3.2,0.7,4.1,2c0.9,1.4,1.4,3,1.3,4.7c0,3.6-1.8,6.7-5.4,6.7h-3.9L150.5,8.7z M153.2,19.5h1.2
				c2.2,0,2.5-2.7,2.5-4.1c0.1-1-0.2-2.1-0.6-3c-0.4-0.7-1.2-1.2-2-1.1h-1.1L153.2,19.5z"/>
			<path d="M162.4,8.7h6.5v2.5h-3.8v2.6h3.8v2.5h-3.8v3.2h3.8V22h-6.5V8.7z"/>
			<path d="M178.6,8.7h3.4c1.9,0,3.1,0.5,3.7,1.2c0.7,0.9,1.1,2,1.1,3.1c0,0.7-0.1,1.4-0.4,2c-0.3,0.7-0.9,1.4-1.6,1.8l2.6,5.3h-3.1
				l-2.9-6.8c0.3,0,0.5,0,0.7,0c0.5,0,1-0.2,1.4-0.5c0.4-0.4,0.6-1,0.6-1.5c0.1-0.6-0.2-1.2-0.6-1.6c-0.4-0.3-0.9-0.4-1.4-0.4h-0.6
				V22h-2.7L178.6,8.7z"/>
			<path d="M189.4,8.7h6.5v2.5h-3.7v2.6h3.7v2.5h-3.7v3.2h3.7V22h-6.5V8.7z"/>
			<path d="M205.3,16.5V8.7h2.4V22h-2.4l-3.7-8.5V22h-2.4V8.7h2.8L205.3,16.5z"/>
			<path d="M219.9,16.8c0,3-1.7,5.4-4.8,5.4c-2.9,0-4.8-2.2-4.8-6.9s1.9-6.9,4.8-6.9c3.2,0,4.9,2.4,4.8,5.5h-2.8
				c-0.1-2.4-0.8-2.9-1.8-2.9c-1.2,0-2.2,1.1-2.2,4.3s1,4.3,2.2,4.3c1.4,0,1.7-1.4,1.8-2.8L219.9,16.8z"/>
			<path d="M221.9,15.3c0-4.2,1.6-6.9,4.9-6.9s4.9,2.7,4.9,6.9s-1.6,6.9-4.9,6.9S221.9,19.5,221.9,15.3L221.9,15.3z M224.7,15.3
				c0,3.2,0.7,4.4,2.1,4.4s2.1-1.2,2.1-4.4s-0.7-4.4-2.1-4.4S224.7,12.1,224.7,15.3L224.7,15.3z"/>
			<path d="M240.4,16.5V8.7h2.4V22h-2.5l-3.8-8.5V22h-2.4V8.7h2.8L240.4,16.5z"/>
			<path d="M247.4,11.2h-2.2V8.7h7.2v2.5h-2.2V22h-2.7V11.2z"/>
			<path d="M254.6,8.7h3.5c1.9,0,3.1,0.5,3.7,1.2c0.7,0.9,1.1,2,1.1,3.1c0,0.7-0.1,1.4-0.4,2c-0.3,0.7-0.9,1.4-1.6,1.8l2.5,5.3h-3.1
				l-2.9-6.8c0.3,0,0.5,0,0.7,0c0.5,0,1-0.2,1.4-0.5c0.4-0.4,0.6-1,0.6-1.5c0.1-0.6-0.2-1.2-0.6-1.6c-0.4-0.3-0.9-0.4-1.4-0.4h-0.6
				V22h-2.7L254.6,8.7z"/>
			<path d="M265.5,8.7h6.5v2.5h-3.8v2.6h3.8v2.5h-3.8v3.2h3.8V22h-6.5L265.5,8.7z"/>
			<path d="M284.3,15.8h-2.4v-2.7h2.4V15.8z M284.3,22h-2.4v-2.7h2.4V22z"/>
			<path d="M295.9,8.7c1.2-0.1,2.4,0.2,3.3,0.9c0.9,0.8,1.3,1.9,1.3,3.1c0,1.2-0.4,2.3-1.3,3.1c-1,0.7-2.1,1-3.3,0.9h-1.2V22h-1.4
				V8.7H295.9z M294.7,15.4h1.2c0.9,0.1,1.7-0.1,2.5-0.6c0.6-0.6,0.9-1.3,0.8-2.1c0-0.8-0.3-1.6-0.8-2.1c-0.7-0.5-1.6-0.7-2.4-0.6
				h-1.2L294.7,15.4z"/>
			<path d="M308.3,22h-1.1c0-0.9,0-1.4,0-1.9c-0.3,1.2-1.3,2.1-2.6,2.1c-2,0-3.3-2-3.3-5.1s1.2-5.1,3.3-5.1c1.3,0,2.3,0.9,2.6,2.1
				c0-0.6,0-1.1,0-1.9h1.1L308.3,22z M302.6,17.1c0,2.2,0.8,3.9,2.3,3.9c0.7,0,1.4-0.4,1.7-1.1c0.4-0.9,0.6-1.9,0.6-2.9
				c0.1-1-0.1-2-0.6-2.9c-0.3-0.7-1-1.1-1.7-1.1C303.4,13.2,302.6,14.9,302.6,17.1L302.6,17.1z"/>
			<path d="M311.1,12.2h1.1c0,0.9,0,1.5,0,2.1c0.2-1.3,1.3-2.2,2.6-2.2v1.4c-0.1-0.1-0.3-0.1-0.5-0.1c-0.8,0-2,1-2,3.5V22h-1.2
				L311.1,12.2z"/>
			<path d="M317,13.3h-1.4v-1.1h1.4V9.1h1.2v3.1h1.4v1.1h-1.4V22H317V13.3z"/>
			<path d="M321.5,8.7h1.2v1.8h-1.2V8.7z M321.5,12.2h1.2V22h-1.2V12.2z"/>
			<path d="M332,18.6c-0.2,2-1.3,3.6-3.2,3.6c-2.6,0-3.8-2.5-3.8-5.1c0-3.2,1.5-5.1,3.7-5.1c2,0,3.1,1.6,3.2,3.6h-1.2
				c-0.2-1.9-1.1-2.5-2-2.5c-0.7,0-1.4,0.3-1.8,1c-0.5,0.9-0.7,2-0.6,3c0,2.6,0.9,4,2.4,4c1.2,0,1.9-1,2.1-2.4L332,18.6z"/>
			<path d="M340.5,22h-1.1c0-0.6,0-1.1,0-1.7c-0.4,1.2-1.5,2-2.7,1.9c-1.7,0-2.8-1-2.8-3.4v-6.7h1.2v6.3c0,1,0.1,2.5,1.9,2.5
				c1.4,0,2.3-1,2.3-3v-5.8h1.2L340.5,22z"/>
			<path d="M343.4,8.7h1.2V22h-1.2V8.7z"/>
			<path d="M347.6,8.7h1.2v1.8h-1.2V8.7z M347.6,12.2h1.2V22h-1.2V12.2z"/>
			<path d="M352.5,17.5c0,2,0.8,3.6,2.5,3.6c1.1,0,2.1-0.8,2.2-1.9h1.2c-0.1,0.9-0.6,1.7-1.2,2.3c-0.6,0.5-1.4,0.8-2.2,0.8
				c-2.7,0-3.8-2.6-3.8-5.1c0-3,1.4-5.1,3.7-5.1c1.1,0,2.1,0.5,2.6,1.4c0.7,1.2,1,2.7,0.9,4.1L352.5,17.5z M356.8,10.5l-0.5,0.9
				l-4-2.1l0.5-1L356.8,10.5z M357.2,16.5c0-2-0.9-3.4-2.4-3.4s-2.4,1.5-2.4,3.4H357.2z"/>
			<path d="M360.7,12.2h1.1c0,0.9,0,1.5,0,2.1c0.2-1.3,1.3-2.2,2.6-2.2v1.4c-0.1-0.1-0.3-0.1-0.5-0.1c-0.8,0-2,1-2,3.5V22h-1.2
				L360.7,12.2z"/>
			<path d="M366.6,17.5c0,2,0.8,3.6,2.5,3.6c1.1,0,2.1-0.8,2.2-1.9h1.2c-0.1,0.9-0.6,1.7-1.2,2.3c-0.6,0.5-1.4,0.8-2.2,0.8
				c-2.7,0-3.8-2.6-3.8-5.1c0-3,1.4-5.1,3.7-5.1c1.1,0,2.1,0.5,2.6,1.4c0.7,1.2,1,2.7,0.9,4.1L366.6,17.5z M371.3,16.4
				c0-2-0.9-3.4-2.4-3.4s-2.4,1.5-2.4,3.4H371.3z"/>
			<path d="M374.8,12.2h1.2c0,0.5,0,1,0,1.6c0.3-1.1,1.3-1.8,2.4-1.8c0.6,0,1.3,0.2,1.7,0.7c0.3,0.3,0.5,0.7,0.5,1.2
				c0.1-0.5,0.4-0.9,0.8-1.2c0.5-0.4,1.2-0.6,1.8-0.6c0.9,0,1.8,0.4,2.3,1.3c0.3,0.8,0.5,1.7,0.4,2.6V22h-1.2v-6
				c0-0.6,0-1.2-0.2-1.8c-0.2-0.6-0.8-1-1.5-1c-0.6,0-1.2,0.3-1.6,0.8c-0.4,0.6-0.6,1.4-0.5,2.1V22h-1.2v-6c0-0.6,0-1.3-0.2-1.9
				c-0.2-0.6-0.8-1-1.5-1c-0.6,0-1.2,0.3-1.6,0.8c-0.4,0.7-0.6,1.4-0.5,2.2V22h-1.2V12.2z"/>
			<path d="M389.5,17.5c0,2,0.8,3.6,2.5,3.6c1.1,0,2.1-0.8,2.2-1.9h1.2c-0.1,0.9-0.6,1.7-1.2,2.3c-0.6,0.5-1.4,0.8-2.2,0.8
				c-2.7,0-3.8-2.6-3.8-5.1c0-3,1.4-5.1,3.7-5.1c1.1,0,2.1,0.5,2.6,1.4c0.7,1.2,1,2.7,0.9,4.1L389.5,17.5z M394.2,16.4
				c0-2-0.9-3.4-2.4-3.4s-2.4,1.5-2.4,3.4H394.2z"/>
			<path d="M397.7,12.2h1.1c0,0.6,0,1.1,0,1.7c0.4-1.2,1.5-1.9,2.7-1.9c1.7,0,2.8,1,2.8,3.4V22h-1.2v-6.3c0-1-0.1-2.5-1.9-2.5
				c-1.4,0-2.3,1-2.3,3V22h-1.2L397.7,12.2z"/>
			<path d="M407.5,13.3h-1.4v-1.1h1.4V9.1h1.2v3.1h1.3v1.1h-1.4V22h-1.2L407.5,13.3z"/>
			<path d="M417.4,8.7h1.2v1.8h-1.2V8.7z M417.4,12.2h1.2V22h-1.2V12.2z"/>
			<path d="M421.5,12.2h1.1c0,0.5,0,1,0,1.6c0.3-1.1,1.3-1.8,2.5-1.8c0.6,0,1.3,0.2,1.7,0.7c0.3,0.3,0.5,0.7,0.5,1.2
				c0.1-0.5,0.4-0.9,0.8-1.2c0.5-0.4,1.1-0.6,1.8-0.6c0.9,0,1.8,0.4,2.3,1.3c0.4,0.8,0.5,1.8,0.5,2.7V22h-1.2v-6
				c0-0.6,0-1.2-0.2-1.8c-0.2-0.6-0.8-1-1.5-1c-0.6,0-1.2,0.3-1.6,0.8c-0.4,0.6-0.6,1.4-0.5,2.1V22h-1.2v-6c0-0.6,0-1.3-0.2-1.9
				c-0.2-0.6-0.8-1-1.5-1c-0.6,0-1.2,0.3-1.6,0.8c-0.4,0.7-0.6,1.4-0.5,2.2V22h-1.2L421.5,12.2z"/>
			<path d="M435.5,12.2h1.1c0,0.7,0,1.3,0,1.9c0.3-1.2,1.3-2,2.6-2.1c2,0,3.3,2,3.3,5.1s-1.2,5.1-3.3,5.1c-1.2,0-2.2-0.9-2.5-2
				c0,0.4,0,0.9,0,1.8v3.6h-1.2L435.5,12.2z M441.2,17.1c0-2.2-0.8-3.9-2.3-3.9c-0.7,0-1.4,0.4-1.7,1.1c-0.5,0.9-0.7,1.9-0.6,2.9
				c-0.1,1,0.1,2,0.6,2.9c0.3,0.6,1,1.1,1.7,1.1C440.5,21,441.2,19.3,441.2,17.1L441.2,17.1z"/>
			<path d="M444.1,17.1c0-2.8,1.1-5.1,3.8-5.1s3.8,2.3,3.8,5.1s-1.1,5.1-3.8,5.1S444.1,19.9,444.1,17.1L444.1,17.1z M445.4,17.1
				c0,2.6,0.9,4,2.5,4s2.5-1.4,2.5-4s-0.9-4-2.5-4S445.4,14.5,445.4,17.1L445.4,17.1z"/>
			<path d="M453.9,12.2h1.1c0,0.9,0,1.5,0,2.1c0.2-1.3,1.3-2.2,2.6-2.2v1.4c-0.1-0.1-0.3-0.1-0.5-0.1c-0.8,0-2,1-2,3.5V22h-1.2
				L453.9,12.2z"/>
			<path d="M459.8,13.3h-1.4v-1.1h1.4V9.1h1.2v3.1h1.4v1.1H461V22h-1.2L459.8,13.3z"/>
			<path d="M470.4,22h-1.1c0-0.9,0-1.4,0-1.9c-0.3,1.2-1.3,2.1-2.6,2.1c-2,0-3.3-2-3.3-5.1s1.2-5.1,3.3-5.1c1.3,0,2.3,0.9,2.6,2.1
				c0-0.6,0-1.1,0-1.9h1.1L470.4,22z M464.6,17.1c0,2.2,0.8,3.9,2.3,3.9c0.7,0,1.4-0.4,1.7-1.1c0.4-0.9,0.6-1.9,0.6-2.9
				c0.1-1-0.1-2-0.6-2.9c-0.3-0.7-1-1.1-1.7-1.1C465.4,13.2,464.6,14.9,464.6,17.1L464.6,17.1z"/>
			<path d="M473.1,12.2h1.1c0,0.6,0,1.1,0,1.7c0.4-1.2,1.5-1.9,2.7-1.9c1.7,0,2.8,1,2.8,3.4V22h-1.2v-6.3c0-1-0.1-2.5-1.9-2.5
				c-1.4,0-2.3,1-2.3,3V22h-1.2L473.1,12.2z"/>
			<path d="M482.9,13.3h-1.4v-1.1h1.4V9.1h1.2v3.1h1.4v1.1h-1.4V22h-1.2V13.3z"/>
			<path d="M487.8,17.5c0,2,0.8,3.6,2.5,3.6c1.1,0,2.1-0.8,2.2-1.9h1.2c-0.1,0.9-0.6,1.7-1.2,2.3c-0.6,0.5-1.4,0.8-2.2,0.8
				c-2.7,0-3.7-2.6-3.7-5.1c0-3,1.4-5.1,3.7-5.1c1.1,0,2.1,0.5,2.6,1.4c0.7,1.2,1,2.7,0.9,4.1L487.8,17.5z M492.6,16.4
				c0-2-0.9-3.4-2.4-3.4s-2.4,1.5-2.4,3.4H492.6z"/>
			<path d="M507.9,22h-1.1c0-0.9,0-1.4,0-1.9c-0.2,1.3-1.3,2.2-2.6,2.2c-1.9,0-3.3-2-3.3-5.1s1.2-5.1,3.3-5.1c1.2,0,2.2,0.8,2.5,2
				c0-0.6,0-1.1,0-1.8V8.7h1.2L507.9,22z M502.1,17.1c0,2.2,0.8,3.9,2.3,3.9c0.7,0,1.4-0.4,1.7-1.1c0.4-0.9,0.6-1.9,0.6-2.9
				c0.1-1-0.1-2-0.6-2.9c-0.3-0.6-1-1.1-1.7-1.1C502.9,13.2,502.1,14.9,502.1,17.1z"/>
			<path d="M517.1,22H516c0-0.9,0-1.4,0-1.9c-0.3,1.2-1.3,2.1-2.6,2.1c-1.9,0-3.3-2-3.3-5.1s1.2-5.1,3.3-5.1c1.3,0,2.3,0.9,2.6,2.1
				c0-0.6,0-1.1,0-1.9h1.1L517.1,22z M511.3,17.1c0,2.2,0.8,3.9,2.3,3.9c0.7,0,1.4-0.4,1.7-1.1c0.4-0.9,0.6-1.9,0.6-2.9
				c0.1-1-0.1-2-0.6-2.9c-0.3-0.7-1-1.1-1.7-1.1C512.1,13.2,511.3,14.9,511.3,17.1L511.3,17.1z"/>
			<path d="M519.8,12.2h1.1c0,0.6,0,1.1,0,1.7c0.4-1.1,1.5-1.9,2.7-1.9c1.7,0,2.8,1,2.8,3.4V22h-1.2v-6.3c0-1-0.1-2.5-1.9-2.5
				c-1.4,0-2.3,1-2.3,3V22h-1.2L519.8,12.2z"/>
			<path d="M533.1,14.7c0-1.2-0.7-1.7-1.6-1.7c-0.8-0.1-1.4,0.5-1.5,1.3c0,0.1,0,0.1,0,0.2c0,1.1,0.9,1.5,2.1,1.9
				c1.4,0.3,2.4,1.6,2.3,3c0.1,1.6-1.1,2.9-2.7,2.9c-0.1,0-0.1,0-0.2,0c-1.6,0.1-3-1.1-3.1-2.7c0-0.1,0-0.3,0-0.4h1.2
				c-0.1,1,0.6,1.9,1.6,2c0.1,0,0.2,0,0.3,0c0.9,0.1,1.6-0.6,1.7-1.5c0-0.1,0-0.2,0-0.2c0-1.2-0.8-1.7-2.1-2.1s-2.3-1-2.3-2.8
				c0.1-1.5,1.3-2.7,2.8-2.6c1.5,0.1,2.7,1.3,2.6,2.8L533.1,14.7z"/>
			<path d="M542.3,8.7h1.2V22h-1.2V8.7z"/>
			<path d="M547.2,17.5c0,2,0.8,3.6,2.5,3.6c1.1,0,2.1-0.8,2.2-1.9h1.2c-0.1,0.9-0.6,1.7-1.2,2.3c-0.6,0.5-1.4,0.8-2.2,0.8
				c-2.7,0-3.8-2.6-3.8-5.1c0-3,1.4-5.1,3.7-5.1c1.1,0,2.1,0.5,2.6,1.4c0.7,1.2,1,2.7,0.9,4.1L547.2,17.5z M551.9,16.4
				c0-2-0.9-3.4-2.4-3.4s-2.4,1.5-2.4,3.4H551.9z"/>
			<path d="M559.3,14.7c0-1.2-0.7-1.7-1.6-1.7c-0.8,0-1.4,0.6-1.4,1.3c0,0,0,0.1,0,0.1c0,1.1,0.9,1.5,2.1,1.8c1.4,0.3,2.4,1.6,2.3,3
				c0.1,1.6-1.1,2.9-2.7,2.9c-0.1,0-0.1,0-0.2,0c-1.6,0.1-3-1.1-3.1-2.7c0-0.1,0-0.3,0-0.4h1.2c-0.1,1,0.6,1.9,1.6,2
				c0.1,0,0.2,0,0.3,0c0.9,0.1,1.6-0.6,1.7-1.5c0-0.1,0-0.2,0-0.2c0-1.2-0.8-1.7-2.1-2.1s-2.3-1-2.3-2.8c0.1-1.5,1.3-2.7,2.8-2.6
				c1.5,0.1,2.7,1.3,2.6,2.8L559.3,14.7z"/>
			<path d="M574.8,18.6c-0.2,2-1.3,3.6-3.2,3.6c-2.6,0-3.8-2.5-3.8-5.1c0-3.2,1.5-5.1,3.7-5.1c2,0,3.2,1.6,3.2,3.6h-1.2
				c-0.2-1.9-1.1-2.5-2-2.5c-0.7,0-1.4,0.3-1.8,1c-0.5,0.9-0.7,2-0.6,3c0,2.6,0.9,4,2.4,4c1.2,0,1.9-1,2.1-2.4L574.8,18.6z"/>
			<path d="M583.2,22h-1.1c0-0.9,0-1.4,0-1.9c-0.3,1.2-1.3,2.1-2.6,2.1c-2,0-3.3-2-3.3-5.1s1.2-5.1,3.3-5.1c1.3,0,2.3,0.9,2.6,2.1
				c0-0.6,0-1.1,0-1.9h1.1L583.2,22z M577.5,17.1c0,2.2,0.8,3.9,2.3,3.9c0.7,0,1.4-0.4,1.7-1.1c0.4-0.9,0.6-1.9,0.6-2.9
				c0.1-1-0.1-2-0.6-2.9c-0.3-0.7-1-1.1-1.7-1.1C578.2,13.2,577.5,14.9,577.5,17.1L577.5,17.1z"/>
			<path d="M586,12.2h1c0,0.6,0,1.1,0,1.7c0.4-1.2,1.5-1.9,2.8-1.9c1.7,0,2.8,1,2.8,3.4V22h-1.2v-6.3c0-1-0.1-2.5-1.9-2.5
				c-1.4,0-2.3,1-2.3,3V22h-1.2L586,12.2z"/>
			<path d="M601.7,22h-1.1c0-0.9,0-1.4,0-1.9c-0.2,1.2-1.3,2.1-2.6,2.2c-2,0-3.3-2-3.3-5.1S596,12,598,12c1.2,0,2.3,0.8,2.5,2
				c0-0.6,0-1.1,0-1.8V8.7h1.2L601.7,22z M595.9,17.1c0,2.2,0.8,3.9,2.3,3.9c0.7,0,1.4-0.4,1.7-1.1c0.4-0.9,0.6-1.9,0.6-2.9
				c0.1-1-0.1-2-0.6-2.9c-0.3-0.6-1-1.1-1.7-1.1C596.7,13.2,595.9,14.9,595.9,17.1z"/>
			<path d="M604.6,8.7h1.2v1.8h-1.2V8.7z M604.6,12.2h1.2V22h-1.2V12.2z"/>
			<path d="M615.1,22H614c0-0.9,0-1.4,0-1.9c-0.2,1.3-1.3,2.2-2.6,2.2c-2,0-3.3-2-3.3-5.1s1.2-5.1,3.3-5.1c1.2,0,2.3,0.8,2.5,2
				c0-0.6,0-1.1,0-1.8V8.7h1.2L615.1,22z M609.3,17.1c0,2.2,0.8,3.9,2.3,3.9c0.7,0,1.4-0.4,1.7-1.1c0.4-0.9,0.6-1.9,0.6-2.9
				c0.1-1-0.1-2-0.6-2.9c-0.3-0.6-1-1.1-1.7-1.1C610.1,13.2,609.3,14.9,609.3,17.1z"/>
			<path d="M624.3,22h-1.1c0-0.9,0-1.4,0-1.9c-0.3,1.2-1.3,2.1-2.6,2.1c-2,0-3.3-2-3.3-5.1s1.2-5.1,3.3-5.1c1.3,0,2.3,0.9,2.6,2.1
				c0-0.6,0-1.1,0-1.9h1.1L624.3,22z M618.5,17.1c0,2.2,0.8,3.9,2.3,3.9c0.7,0,1.4-0.4,1.7-1.1c0.4-0.9,0.6-1.9,0.6-2.9
				c0.1-1-0.1-2-0.6-2.9c-0.3-0.7-1-1.1-1.7-1.1C619.3,13.2,618.5,14.9,618.5,17.1L618.5,17.1z"/>
			<path d="M627.5,13.3h-1.4v-1.1h1.4V9.1h1.2v3.1h1.3v1.1h-1.3V22h-1.2L627.5,13.3z"/>
			<path d="M638.5,22h-1.1c0-0.6,0-1.1,0-1.7c-0.4,1.2-1.5,2-2.7,1.9c-1.7,0-2.8-1-2.8-3.4v-6.7h1.2v6.3c0,1,0.1,2.5,1.9,2.5
				c1.4,0,2.3-1,2.3-3v-5.8h1.2L638.5,22z"/>
			<path d="M641.2,12.2h1.1c0,0.9,0,1.5,0,2.1c0.2-1.3,1.3-2.2,2.6-2.2v1.4c-0.1-0.1-0.3-0.1-0.5-0.1c-0.8,0-2,1-2,3.5V22h-1.2
				L641.2,12.2z"/>
			<path d="M647.1,17.5c0,2,0.8,3.6,2.5,3.6c1.1,0,2.1-0.8,2.2-1.9h1.2c-0.1,0.9-0.6,1.7-1.2,2.3c-0.6,0.5-1.4,0.8-2.2,0.8
				c-2.7,0-3.7-2.6-3.7-5.1c0-3,1.4-5.1,3.7-5.1c1.1,0,2.1,0.5,2.6,1.4c0.7,1.2,1,2.7,0.9,4.1L647.1,17.5z M651.8,16.4
				c0-2-0.9-3.4-2.4-3.4s-2.4,1.5-2.4,3.4H651.8z"/>
			<path d="M659.2,14.7c0-1.2-0.7-1.7-1.6-1.7c-0.8,0-1.4,0.6-1.4,1.3c0,0,0,0.1,0,0.1c0,1.1,0.9,1.5,2.1,1.8c1.4,0.3,2.4,1.6,2.3,3
				c0.1,1.6-1.1,2.9-2.7,2.9c-0.1,0-0.1,0-0.2,0c-1.6,0.1-3-1.1-3.1-2.7c0-0.1,0-0.3,0-0.4h1.2c-0.1,1,0.6,1.9,1.6,2
				c0.1,0,0.2,0,0.3,0c0.9,0.1,1.6-0.6,1.7-1.5c0-0.1,0-0.2,0-0.2c0-1.2-0.8-1.7-2.1-2.1s-2.3-1-2.3-2.8c0.1-1.5,1.3-2.7,2.8-2.6
				c1.5,0.1,2.7,1.3,2.6,2.8l0,0L659.2,14.7z"/>
			<path d="M13,36.3c0-1.2-0.6-1.7-1.6-1.7c-0.8,0-1.4,0.6-1.4,1.3c0,0,0,0.1,0,0.1c0,1.1,0.9,1.5,2.1,1.8c1.4,0.3,2.4,1.6,2.3,3
				c0.1,1.6-1.1,2.9-2.7,2.9c-0.1,0-0.1,0-0.2,0c-1.6,0.1-2.9-1.1-3-2.7c0-0.2,0-0.3,0-0.5h1.2c-0.1,1,0.6,1.9,1.6,2
				c0.1,0,0.2,0,0.3,0c0.9,0.1,1.6-0.6,1.7-1.5c0-0.1,0-0.2,0-0.2c0-1.2-0.8-1.7-2.1-2.1s-2.3-1-2.3-2.8c0-1.4,1.1-2.5,2.4-2.6
				c0.1,0,0.2,0,0.3,0c1.4-0.1,2.6,0.9,2.7,2.3c0,0.2,0,0.3,0,0.5L13,36.3z"/>
			<path d="M88.3,36.3c0-1.2-0.6-1.7-1.6-1.7c-0.8,0-1.4,0.6-1.4,1.3c0,0,0,0.1,0,0.1c0,1.1,0.9,1.5,2.1,1.8c1.4,0.3,2.4,1.6,2.3,3
				c0.1,1.6-1.1,2.9-2.7,2.9c-0.1,0-0.1,0-0.2,0c-1.6,0.1-2.9-1.1-3-2.7c0-0.2,0-0.3,0-0.5H85c-0.1,1,0.6,1.9,1.6,2
				c0.1,0,0.2,0,0.3,0c0.9,0.1,1.6-0.6,1.7-1.5c0-0.1,0-0.2,0-0.2c0-1.2-0.8-1.7-2.1-2.1s-2.3-1-2.3-2.8c0-1.4,1.1-2.5,2.4-2.6
				c0.1,0,0.2,0,0.3,0c1.4-0.1,2.6,0.9,2.7,2.3c0,0.2,0,0.3,0,0.5L88.3,36.3z"/>
			<path d="M16.7,33.8h1.1c0,0.7,0,1.3,0,1.9c0.2-1.2,1.3-2.1,2.6-2.1c2,0,3.3,2,3.3,5.2s-1.2,5.1-3.3,5.1c-1.2,0-2.2-0.9-2.5-2
				c0,0.4,0,0.9,0,1.8v3.6h-1.2V33.8z M22.4,38.7c0-2.2-0.8-3.9-2.3-3.9c-0.7,0-1.4,0.4-1.7,1.1c-0.5,0.9-0.7,1.9-0.6,2.9
				c-0.1,1,0.1,2,0.6,2.9c0.3,0.7,0.9,1.1,1.7,1.1C21.6,42.6,22.4,40.9,22.4,38.7L22.4,38.7z"/>
			<path d="M25.3,38.7c0-2.8,1.1-5.1,3.8-5.1s3.7,2.3,3.7,5.1s-1.1,5.1-3.7,5.1S25.3,41.5,25.3,38.7L25.3,38.7z M26.5,38.7
				c0,2.6,0.8,4,2.5,4c1.7,0,2.5-1.4,2.5-4s-0.8-4-2.5-4C27.3,34.7,26.5,36.1,26.5,38.7L26.5,38.7z"/>
			<path d="M34.9,33.8H36c0,0.6,0,1.1,0,1.7c0.4-1.2,1.5-2,2.7-1.9c1.7,0,2.8,1,2.8,3.3v6.7h-1.2v-6.3c0-1-0.1-2.5-1.9-2.5
				c-1.4,0-2.3,1-2.3,3v5.8h-1.2V33.8z"/>
			<path d="M44.6,34.9h-1.4v-1.1h1.4v-3.1h1.2v3.1h1.3v1.1h-1.4v8.7h-1.2V34.9z"/>
			<path d="M55.2,43.6h-1.1c0-0.9,0-1.4,0-1.9c-0.3,1.2-1.3,2.1-2.6,2.1c-1.9,0-3.3-2-3.3-5.1s1.2-5.2,3.3-5.2
				c1.2,0,2.3,0.9,2.6,2.1c0-0.6,0-1.2,0-1.9h1.1L55.2,43.6z M49.5,38.7c0,2.2,0.8,3.9,2.3,3.9c0.7,0,1.4-0.4,1.7-1.1
				c0.4-0.9,0.6-1.9,0.6-2.9c0.1-1-0.1-2-0.6-2.9c-0.3-0.7-1-1.1-1.7-1.1C50.2,34.7,49.5,36.5,49.5,38.7L49.5,38.7z"/>
			<path d="M57.9,33.8H59c0,0.6,0,1.1,0,1.7c0.4-1.2,1.5-1.9,2.7-1.9c1.7,0,2.8,1,2.8,3.3v6.7h-1.2v-6.3c0-1-0.1-2.5-1.9-2.5
				c-1.4,0-2.3,1-2.3,3v5.8h-1.2V33.8z"/>
			<path d="M67.9,39c0,2,0.8,3.6,2.5,3.6c1.1,0,2-0.8,2.2-1.9h1.2c-0.2,0.9-0.6,1.7-1.3,2.3c-0.6,0.5-1.4,0.8-2.1,0.8
				c-2.7,0-3.7-2.6-3.7-5.1c0-3,1.4-5.2,3.7-5.2c1.1,0,2,0.5,2.6,1.4c0.7,1.2,1,2.7,0.9,4.1L67.9,39z M72.6,38c0-2-0.9-3.4-2.3-3.4
				c-1.5,0-2.3,1.4-2.3,3.4H72.6z M72.2,29.8l0.5,1l-4,2.1L68.3,32L72.2,29.8z"/>
			<path d="M76.8,39c0,2,0.8,3.6,2.5,3.6c1.1,0,2-0.8,2.2-1.9h1.2c-0.1,0.9-0.6,1.7-1.2,2.3c-0.6,0.5-1.4,0.8-2.1,0.8
				c-2.7,0-3.7-2.5-3.7-5.1c0-3,1.4-5.2,3.7-5.2c1.1,0,2,0.5,2.6,1.4c0.7,1.2,1,2.7,0.9,4.1L76.8,39z M81.5,38c0-2-0.9-3.4-2.3-3.4
				c-1.5,0-2.3,1.4-2.4,3.4H81.5z"/>
			<path d="M91.8,45.1h-1.1l1.2-3.4h1.2L91.8,45.1z"/>
			<path d="M101,30.3h1.2v13.3H101V30.3z"/>
			<path d="M111.4,43.6h-1.1c0-0.9,0-1.4,0-1.9c-0.3,1.2-1.3,2.1-2.6,2.1c-1.9,0-3.3-2-3.3-5.1s1.2-5.2,3.3-5.2
				c1.2,0,2.3,0.9,2.6,2.1c0-0.6,0-1.2,0-1.9h1.1V43.6z M105.7,38.7c0,2.2,0.8,3.9,2.3,3.9c0.7,0,1.4-0.4,1.7-1.1
				c0.4-0.9,0.6-1.9,0.6-2.9c0.1-1-0.1-2-0.6-2.9c-0.3-0.7-1-1.1-1.7-1.1C106.5,34.7,105.7,36.5,105.7,38.7L105.7,38.7z"/>
			<path d="M121.5,33.8h1.1c0,0.7,0,1.3,0,1.9c0.2-1.2,1.3-2.1,2.6-2.1c2,0,3.3,2,3.3,5.2s-1.2,5.1-3.3,5.1c-1.2,0-2.2-0.9-2.5-2
				c0,0.4,0,0.9,0,1.8v3.6h-1.2L121.5,33.8z M127.2,38.7c0-2.2-0.8-3.9-2.3-3.9c-0.7,0-1.4,0.4-1.7,1.1c-0.5,0.9-0.7,1.9-0.6,2.9
				c-0.1,1,0.1,2,0.6,2.9c0.3,0.7,1,1.1,1.7,1.1C126.4,42.6,127.2,40.9,127.2,38.7L127.2,38.7z"/>
			<path d="M130.6,33.8h1.1c0,0.9,0,1.5,0,2c0.2-1.3,1.3-2.3,2.6-2.3V35c-0.1-0.1-0.3-0.1-0.4-0.1c-0.8,0-2,1-2,3.5v5.3h-1.2
				L130.6,33.8z"/>
			<path d="M135.2,38.7c0-2.8,1.1-5.1,3.8-5.1s3.7,2.3,3.7,5.1s-1.1,5.1-3.7,5.1C136.3,43.8,135.2,41.5,135.2,38.7L135.2,38.7z
				 M136.4,38.7c0,2.6,0.8,4,2.5,4c1.7,0,2.5-1.4,2.5-4s-0.8-4-2.5-4S136.4,36.1,136.4,38.7L136.4,38.7z"/>
			<path d="M144.8,33.8h1.1c0,0.7,0,1.3,0,1.9c0.2-1.2,1.3-2.1,2.6-2.1c2,0,3.3,2,3.3,5.2s-1.2,5.1-3.3,5.1c-1.2,0-2.2-0.9-2.5-2
				c0,0.4,0,0.9,0,1.8v3.6h-1.2L144.8,33.8z M150.6,38.7c0-2.2-0.8-3.9-2.3-3.9c-0.7,0-1.4,0.4-1.7,1.1c-0.5,0.9-0.7,1.9-0.6,2.9
				c-0.1,1,0.1,2,0.6,2.9c0.3,0.7,1,1.1,1.7,1.1C149.8,42.6,150.6,40.9,150.6,38.7L150.6,38.7z"/>
			<path d="M153.4,38.7c0-2.8,1.1-5.1,3.8-5.1s3.7,2.3,3.7,5.1s-1.1,5.1-3.7,5.1C154.6,43.8,153.4,41.5,153.4,38.7L153.4,38.7z
				 M154.7,38.7c0,2.6,0.8,4,2.5,4c1.7,0,2.5-1.4,2.5-4s-0.8-4-2.5-4S154.7,36.1,154.7,38.7L154.7,38.7z"/>
			<path d="M167,36.3c0-1.2-0.6-1.7-1.6-1.7c-0.8,0-1.4,0.6-1.4,1.3c0,0,0,0.1,0,0.1c0,1.1,0.9,1.5,2.1,1.8c1.4,0.3,2.4,1.6,2.3,3
				c0.1,1.6-1.1,2.9-2.7,2.9c-0.1,0-0.1,0-0.2,0c-1.6,0.1-2.9-1.1-3-2.7c0-0.1,0-0.3,0-0.4h1.2c-0.1,1,0.6,1.9,1.6,2
				c0.1,0,0.2,0,0.3,0c0.9,0.1,1.6-0.6,1.6-1.5c0-0.1,0-0.2,0-0.3c0-1.2-0.8-1.7-2.1-2.1s-2.3-1-2.3-2.8c0.1-1.5,1.3-2.7,2.8-2.6
				c1.5,0.1,2.7,1.3,2.6,2.8l0,0L167,36.3z"/>
			<path d="M170.8,30.3h1.2V32h-1.2V30.3z M170.8,33.8h1.2v9.8h-1.2V33.8z"/>
			<path d="M175.3,34.9H174v-1.1h1.4v-3.1h1.2v3.1h1.3v1.1h-1.3v8.7h-1.2L175.3,34.9z"/>
			<path d="M179.8,30.3h1.2V32h-1.2V30.3z M179.8,33.8h1.2v9.8h-1.2V33.8z"/>
			<path d="M183.4,38.7c0-2.8,1.1-5.1,3.8-5.1s3.7,2.3,3.7,5.1s-1.1,5.1-3.7,5.1S183.4,41.5,183.4,38.7L183.4,38.7z M184.6,38.7
				c0,2.6,0.8,4,2.5,4c1.7,0,2.5-1.4,2.5-4s-0.8-4-2.5-4S184.6,36.1,184.6,38.7L184.6,38.7z"/>
			<path d="M193.1,33.8h1.1c0,0.6,0,1.1,0,1.7c0.4-1.2,1.5-2,2.7-1.9c1.7,0,2.8,1,2.8,3.3v6.7h-1.2v-6.3c0-1-0.1-2.5-1.9-2.5
				c-1.4,0-2.3,1-2.3,3v5.8h-1.2L193.1,33.8z"/>
			<path d="M216,43.6h-1.1c0-0.9,0-1.4,0-1.9c-0.2,1.3-1.3,2.2-2.6,2.2c-1.9,0-3.3-2-3.3-5.1s1.2-5.2,3.3-5.2c1.2,0,2.3,0.9,2.5,2.1
				c0-0.6,0-1.1,0-1.8v-3.5h1.2L216,43.6z M210.3,38.7c0,2.2,0.8,3.9,2.3,3.9c0.7,0,1.4-0.4,1.7-1.1c0.4-0.9,0.6-1.9,0.6-2.9
				c0.1-1-0.1-2-0.6-2.9c-0.3-0.6-1-1.1-1.7-1.1C211.1,34.7,210.3,36.4,210.3,38.7L210.3,38.7z"/>
			<path d="M219.5,39c0,2,0.8,3.6,2.5,3.6c1.1,0,2-0.8,2.2-1.9h1.2c-0.1,0.9-0.6,1.7-1.2,2.3c-0.6,0.5-1.4,0.8-2.1,0.8
				c-2.7,0-3.7-2.6-3.7-5.1c0-3,1.4-5.2,3.7-5.2c1.1,0,2,0.5,2.6,1.4c0.7,1.2,1,2.7,0.9,4.1L219.5,39z M224.2,38
				c0-2-0.9-3.4-2.3-3.4c-1.5,0-2.3,1.5-2.4,3.4H224.2z"/>
			<path d="M235,33.8h1.1c0,0.9,0,1.5,0,2c0.2-1.3,1.3-2.3,2.6-2.3V35c-0.1-0.1-0.3-0.1-0.4-0.1c-0.8,0-2,1-2,3.5v5.3h-1.2L235,33.8
				z"/>
			<path d="M240.8,39c0,2,0.8,3.6,2.5,3.6c1.1,0,2-0.8,2.2-1.9h1.2c-0.1,0.9-0.6,1.7-1.2,2.3c-0.6,0.5-1.4,0.8-2.1,0.8
				c-2.7,0-3.7-2.6-3.7-5.1c0-3,1.4-5.2,3.7-5.2c1.1,0,2,0.5,2.6,1.4c0.7,1.2,1,2.7,0.9,4.1L240.8,39z M245.5,38
				c0-2-0.9-3.4-2.3-3.4c-1.5,0-2.3,1.5-2.4,3.4H245.5z"/>
			<path d="M249,33.8h1.1c0,0.6,0,1.1,0,1.7c0.4-1.2,1.5-2,2.7-1.9c1.7,0,2.8,1,2.8,3.3v6.7h-1.2v-6.3c0-1-0.1-2.5-1.9-2.5
				c-1.4,0-2.3,1-2.3,3v5.8H249L249,33.8z"/>
			<path d="M264.6,40.2c-0.2,2-1.3,3.6-3.2,3.6c-2.6,0-3.8-2.5-3.8-5.1c0-3.2,1.5-5.2,3.7-5.2c2,0,3.1,1.5,3.2,3.6h-1.2
				c-0.2-1.9-1.1-2.5-2-2.5c-0.7,0-1.4,0.3-1.8,1c-0.5,0.9-0.7,2-0.6,3c0,2.6,0.9,4,2.4,4c1.2,0,1.9-1,2.1-2.4L264.6,40.2z"/>
			<path d="M266,38.7c0-2.8,1.1-5.1,3.8-5.1c2.6,0,3.7,2.3,3.7,5.1s-1.1,5.1-3.7,5.1S266,41.5,266,38.7L266,38.7z M267.2,38.7
				c0,2.6,0.8,4,2.5,4s2.5-1.4,2.5-4s-0.8-4-2.5-4S267.2,36.1,267.2,38.7L267.2,38.7z"/>
			<path d="M275.7,33.8h1.1c0,0.6,0,1.1,0,1.7c0.4-1.2,1.5-2,2.7-1.9c1.7,0,2.8,1,2.8,3.3v6.7h-1.2v-6.3c0-1-0.1-2.5-1.9-2.5
				c-1.4,0-2.3,1-2.3,3v5.8h-1.2L275.7,33.8z"/>
			<path d="M285.4,34.9H284v-1.1h1.4v-3.1h1.2v3.1h1.3v1.1h-1.3v8.7h-1.2V34.9z"/>
			<path d="M289.7,33.8h1.1c0,0.9,0,1.5,0,2c0.2-1.3,1.3-2.3,2.6-2.3V35c-0.1-0.1-0.3-0.1-0.4-0.1c-0.8,0-2,1-2,3.5v5.3h-1.3V33.8z"
				/>
			<path d="M295.6,39c0,2,0.8,3.6,2.5,3.6c1.1,0,2-0.8,2.2-1.9h1.2c-0.1,0.9-0.6,1.7-1.2,2.3c-0.6,0.5-1.4,0.8-2.1,0.8
				c-2.7,0-3.7-2.6-3.7-5.1c0-3,1.4-5.2,3.7-5.2c1.1,0,2,0.5,2.6,1.4c0.7,1.2,1,2.7,0.9,4.1L295.6,39z M300.3,38
				c0-2-0.9-3.4-2.3-3.4c-1.5,0-2.3,1.4-2.4,3.4H300.3z"/>
			<path d="M317.5,43.6h-1.1c0-0.9,0-1.4,0-1.9c-0.2,1.3-1.3,2.2-2.6,2.2c-1.9,0-3.3-2-3.3-5.1s1.2-5.2,3.3-5.2
				c1.2,0,2.3,0.9,2.5,2.1c0-0.6,0-1.1,0-1.8v-3.5h1.2L317.5,43.6z M311.7,38.7c0,2.2,0.8,3.9,2.3,3.9c0.7,0,1.4-0.4,1.7-1.1
				c0.4-0.9,0.6-1.9,0.6-2.9c0.1-1-0.1-2-0.6-2.9c-0.3-0.6-1-1.1-1.7-1.1C312.5,34.7,311.7,36.4,311.7,38.7z"/>
			<path d="M320.9,39c0,2,0.8,3.6,2.5,3.6c1.1,0,2-0.8,2.2-1.9h1.2c-0.1,0.9-0.6,1.7-1.2,2.3c-0.6,0.5-1.4,0.8-2.1,0.8
				c-2.7,0-3.7-2.6-3.7-5.1c0-3,1.4-5.2,3.7-5.2c1.1,0,2,0.5,2.6,1.4c0.7,1.2,1,2.7,0.9,4.1L320.9,39z M325.7,38
				c0-2-0.9-3.4-2.3-3.4S321,36,320.9,38H325.7z M325.3,29.8l0.5,1l-4,2.1l-0.4-0.8L325.3,29.8z"/>
			<path d="M329.1,33.8h1.1c0,0.5,0,1,0,1.6c0.3-1.1,1.3-1.9,2.5-1.8c0.6,0,1.2,0.2,1.7,0.7c0.3,0.3,0.5,0.7,0.5,1.2
				c0.1-0.5,0.4-0.9,0.8-1.2c0.5-0.4,1.1-0.6,1.8-0.6c0.9,0,1.8,0.4,2.3,1.3c0.4,0.8,0.5,1.8,0.4,2.7v6.1H339v-6
				c0-0.6,0-1.2-0.2-1.8c-0.2-0.6-0.8-1-1.5-1c-0.6,0-1.2,0.3-1.6,0.8c-0.4,0.6-0.6,1.4-0.5,2.1v5.9h-1.2v-6c0-0.6,0-1.3-0.2-1.9
				c-0.2-0.6-0.8-1-1.5-1c-0.6,0-1.2,0.3-1.6,0.8c-0.4,0.7-0.6,1.4-0.5,2.2v5.9h-1.2L329.1,33.8z"/>
			<path d="M342.4,38.7c0-2.8,1.1-5.1,3.8-5.1c2.6,0,3.7,2.3,3.7,5.1s-1.1,5.1-3.7,5.1C343.5,43.8,342.4,41.5,342.4,38.7L342.4,38.7
				z M343.6,38.7c0,2.6,0.8,4,2.5,4c1.7,0,2.5-1.4,2.5-4s-0.8-4-2.5-4S343.6,36.1,343.6,38.7L343.6,38.7z"/>
			<path d="M352.1,33.8h1.1c0,0.6,0,1.1,0,1.7c0.4-1.2,1.5-2,2.7-1.9c1.7,0,2.8,1,2.8,3.3v6.7h-1.2v-6.3c0-1-0.1-2.5-1.9-2.5
				c-1.4,0-2.3,1-2.3,3v5.8h-1.2L352.1,33.8z"/>
			<path d="M361.8,34.9h-1.4v-1.1h1.4v-3.1h1.2v3.1h1.3v1.1H363v8.7h-1.2V34.9z"/>
			<path d="M366.2,33.8h1.1c0,0.9,0,1.5,0,2c0.2-1.3,1.3-2.3,2.6-2.3V35c-0.1-0.1-0.3-0.1-0.4-0.1c-0.8,0-2,1-2,3.5v5.3h-1.3V33.8z"
				/>
			<path d="M372,39c0,2,0.8,3.6,2.5,3.6c1.1,0,2-0.8,2.2-1.9h1.2c-0.1,0.9-0.6,1.7-1.2,2.3c-0.6,0.5-1.4,0.8-2.1,0.8
				c-2.7,0-3.7-2.6-3.7-5.1c0-3,1.4-5.2,3.7-5.2c1.1,0,2.1,0.5,2.6,1.4c0.7,1.2,1,2.7,0.9,4.1L372,39z M376.7,38
				c0-2-0.9-3.4-2.3-3.4c-1.5,0-2.3,1.4-2.4,3.4H376.7z"/>
			<path d="M390.4,43.6h-1.2l-3-9.8h1.2l2.4,8.2l2.2-8.2h1.2L390.4,43.6z"/>
			<path d="M394.2,38.7c0-2.8,1.1-5.1,3.8-5.1c2.6,0,3.7,2.3,3.7,5.1s-1.1,5.1-3.7,5.1C395.3,43.8,394.2,41.5,394.2,38.7L394.2,38.7
				z M395.4,38.7c0,2.6,0.8,4,2.5,4c1.7,0,2.5-1.4,2.5-4s-0.8-4-2.5-4S395.4,36.1,395.4,38.7L395.4,38.7z"/>
			<path d="M404.3,34.9h-1.4v-1.1h1.4v-3.1h1.2v3.1h1.4v1.1h-1.3v8.7h-1.2L404.3,34.9z"/>
			<path d="M408.7,33.8h1.1c0,0.9,0,1.5,0,2c0.2-1.3,1.3-2.3,2.6-2.3V35c-0.1-0.1-0.3-0.1-0.4-0.1c-0.8,0-2,1-2,3.5v5.3h-1.2
				L408.7,33.8z"/>
			<path d="M414.5,39c0,2,0.8,3.6,2.5,3.6c1.1,0,2-0.8,2.2-1.9h1.2c-0.1,0.9-0.6,1.7-1.2,2.3c-0.6,0.5-1.4,0.8-2.1,0.8
				c-2.7,0-3.7-2.6-3.7-5.1c0-3,1.4-5.2,3.7-5.2c1.1,0,2,0.5,2.6,1.4c0.7,1.2,1,2.7,0.9,4.1L414.5,39z M419.2,38
				c0-2-0.9-3.4-2.3-3.4s-2.3,1.5-2.4,3.4H419.2z"/>
			<path d="M430,33.8h1.1c0,0.5,0,1,0,1.6c0.3-1.1,1.3-1.9,2.5-1.8c0.6,0,1.2,0.2,1.7,0.7c0.3,0.3,0.5,0.7,0.5,1.2
				c0.1-0.5,0.4-0.9,0.8-1.2c0.5-0.4,1.1-0.6,1.8-0.6c0.9,0,1.8,0.4,2.3,1.3c0.4,0.8,0.5,1.8,0.4,2.7v6.1H440v-6
				c0-0.6,0-1.2-0.2-1.8c-0.2-0.6-0.8-1-1.5-1c-0.6,0-1.2,0.3-1.6,0.8c-0.4,0.6-0.6,1.4-0.5,2.1v5.9H435v-6c0-0.6,0-1.3-0.2-1.9
				c-0.2-0.6-0.8-1-1.5-1c-0.6,0-1.2,0.3-1.6,0.8c-0.4,0.7-0.6,1.4-0.5,2.2v5.9H430L430,33.8z"/>
			<path d="M443.3,38.7c0-2.8,1.1-5.1,3.8-5.1c2.6,0,3.7,2.3,3.7,5.1s-1.1,5.1-3.7,5.1S443.3,41.5,443.3,38.7L443.3,38.7z
				 M444.6,38.7c0,2.6,0.8,4,2.5,4s2.5-1.4,2.5-4s-0.8-4-2.5-4S444.6,36.1,444.6,38.7L444.6,38.7z"/>
			<path d="M453.5,34.9h-1.4v-1.1h1.4v-3.1h1.2v3.1h1.3v1.1h-1.3v8.7h-1.2V34.9z"/>
			<path d="M458,30.3h1.2V32H458V30.3z M458,33.8h1.2v9.8H458V33.8z"/>
			<path d="M465,43.6h-1.2l-3-9.8h1.2l2.4,8.2l2.2-8.2h1.2L465,43.6z"/>
			<path d="M475.6,43.6h-1.1c0-0.9,0-1.4,0-1.9c-0.3,1.2-1.3,2.1-2.6,2.1c-1.9,0-3.3-2-3.3-5.1s1.2-5.2,3.3-5.2
				c1.2,0,2.3,0.9,2.6,2.1c0-0.6,0-1.2,0-1.9h1.1V43.6z M469.9,38.7c0,2.2,0.8,3.9,2.3,3.9c0.7,0,1.4-0.4,1.7-1.1
				c0.4-0.9,0.6-1.9,0.6-2.9c0.1-1-0.1-2-0.6-2.9c-0.3-0.7-1-1.1-1.7-1.1C470.7,34.7,469.9,36.5,469.9,38.7L469.9,38.7z"/>
			<path d="M478.8,34.9h-1.4v-1.1h1.4v-3.1h1.2v3.1h1.3v1.1H480v8.7h-1.2V34.9z"/>
			<path d="M483.3,30.3h1.2V32h-1.2V30.3z M483.3,33.8h1.2v9.8h-1.2V33.8z"/>
			<path d="M486.9,38.7c0-2.8,1.1-5.1,3.8-5.1c2.6,0,3.7,2.3,3.7,5.1s-1.1,5.1-3.7,5.1C488,43.8,486.9,41.5,486.9,38.7L486.9,38.7z
				 M488.1,38.7c0,2.6,0.8,4,2.5,4s2.5-1.4,2.5-4s-0.8-4-2.5-4S488.1,36.1,488.1,38.7L488.1,38.7z"/>
			<path d="M496.5,33.8h1.1c0,0.6,0,1.1,0,1.7c0.4-1.2,1.5-2,2.7-1.9c1.7,0,2.8,1,2.8,3.3v6.7H502v-6.3c0-1-0.1-2.5-1.9-2.5
				c-1.4,0-2.3,1-2.3,3v5.8h-1.2L496.5,33.8z"/>
			<path d="M513.9,39c0,2,0.8,3.6,2.5,3.6c1.1,0,2-0.8,2.2-1.9h1.2c-0.1,0.9-0.6,1.7-1.2,2.3c-0.6,0.5-1.4,0.8-2.1,0.8
				c-2.7,0-3.7-2.6-3.7-5.1c0-3,1.4-5.2,3.7-5.2c1.1,0,2,0.5,2.6,1.4c0.7,1.2,1,2.7,0.9,4.1L513.9,39z M518.6,38
				c0-2-0.9-3.4-2.3-3.4c-1.5,0-2.3,1.5-2.4,3.4H518.6z"/>
			<path d="M522.5,34.9h-1.4v-1.1h1.4v-3.1h1.2v3.1h1.3v1.1h-1.3v8.7h-1.2L522.5,34.9z"/>
			<path d="M537.1,43.6h-1.2l-3-9.8h1.2l2.4,8.2l2.2-8.2h1.2L537.1,43.6z"/>
			<path d="M540.9,38.7c0-2.8,1.1-5.1,3.8-5.1s3.7,2.3,3.7,5.1s-1.1,5.1-3.7,5.1S540.9,41.5,540.9,38.7L540.9,38.7z M542.1,38.7
				c0,2.6,0.8,4,2.5,4c1.7,0,2.5-1.4,2.5-4s-0.8-4-2.5-4C542.9,34.7,542.1,36.1,542.1,38.7L542.1,38.7z"/>
			<path d="M551,34.9h-1.4v-1.1h1.4v-3.1h1.2v3.1h1.3v1.1h-1.3v8.7H551V34.9z"/>
			<path d="M555.4,33.8h1.1c0,0.9,0,1.5,0,2c0.2-1.3,1.3-2.3,2.6-2.3V35c-0.1-0.1-0.3-0.1-0.4-0.1c-0.8,0-2,1-2,3.5v5.3h-1.2
				L555.4,33.8z"/>
			<path d="M561.2,39c0,2,0.8,3.6,2.5,3.6c1.1,0,2-0.8,2.2-1.9h1.2c-0.1,0.9-0.6,1.7-1.2,2.3c-0.6,0.5-1.4,0.8-2.1,0.8
				c-2.7,0-3.7-2.6-3.7-5.1c0-3,1.4-5.2,3.7-5.2c1.1,0,2,0.5,2.6,1.4c0.7,1.2,1,2.7,0.9,4.1L561.2,39z M565.9,38
				c0-2-0.9-3.4-2.3-3.4c-1.5,0-2.3,1.5-2.4,3.4H565.9z"/>
			<path d="M583.1,43.6H582c0-0.9,0-1.4,0-1.9c-0.2,1.3-1.3,2.2-2.6,2.2c-1.9,0-3.3-2-3.3-5.1s1.2-5.2,3.3-5.2
				c1.2,0,2.3,0.9,2.5,2.1c0-0.6,0-1.1,0-1.8v-3.5h1.2L583.1,43.6z M577.4,38.7c0,2.2,0.8,3.9,2.3,3.9c0.7,0,1.4-0.4,1.7-1.1
				c0.4-0.9,0.6-1.9,0.6-2.9c0.1-1-0.1-2-0.6-2.9c-0.3-0.6-1-1.1-1.7-1.1C578.2,34.7,577.4,36.4,577.4,38.7z"/>
			<path d="M587.5,43.3l-2.8-9.6h1.3l2.2,7.8l2.3-7.8h1.2l-4.1,13.4h-1.2L587.5,43.3z"/>
			<path d="M593.3,33.8h1.1c0,0.6,0,1.1,0,1.7c0.4-1.2,1.5-2,2.7-1.9c1.7,0,2.8,1,2.8,3.3v6.7h-1.2v-6.3c0-1-0.1-2.5-1.9-2.5
				c-1.4,0-2.3,1-2.3,3v5.8h-1.2L593.3,33.8z"/>
			<path d="M608.9,43.6h-1.1c0-0.9,0-1.4,0-1.9c-0.3,1.2-1.3,2.1-2.6,2.1c-1.9,0-3.3-2-3.3-5.1s1.2-5.2,3.3-5.2
				c1.2,0,2.3,0.9,2.6,2.1c0-0.6,0-1.2,0-1.9h1.1V43.6z M603.2,38.7c0,2.2,0.8,3.9,2.3,3.9c0.7,0,1.4-0.4,1.7-1.1
				c0.4-0.9,0.6-1.9,0.6-2.9c0.1-1-0.1-2-0.6-2.9c-0.3-0.7-1-1.1-1.7-1.1C604,34.7,603.2,36.5,603.2,38.7L603.2,38.7z"/>
			<path d="M611.7,33.8h1.1c0,0.5,0,1,0,1.6c0.3-1.1,1.3-1.9,2.5-1.8c0.6,0,1.2,0.2,1.7,0.7c0.3,0.3,0.5,0.7,0.5,1.2
				c0.1-0.5,0.4-0.9,0.8-1.2c0.5-0.4,1.1-0.6,1.8-0.6c0.9,0,1.8,0.4,2.3,1.3c0.4,0.8,0.5,1.8,0.4,2.7v6.1h-1.2v-6
				c0-0.6,0-1.2-0.2-1.8c-0.2-0.6-0.8-1-1.5-1c-0.6,0-1.2,0.3-1.6,0.8c-0.4,0.6-0.6,1.4-0.5,2.1v5.9h-1.2v-6c0-0.6,0-1.3-0.2-1.9
				c-0.2-0.6-0.8-1-1.5-1c-0.6,0-1.2,0.3-1.6,0.8c-0.4,0.7-0.6,1.4-0.5,2.2v5.9h-1.2L611.7,33.8z"/>
			<path d="M625.6,30.3h1.2V32h-1.2V30.3z M625.6,33.8h1.2v9.8h-1.2V33.8z"/>
			<path d="M633.6,36.3c0-1.2-0.6-1.7-1.6-1.7c-0.8,0-1.4,0.6-1.4,1.3c0,0,0,0.1,0,0.1c0,1.1,0.9,1.5,2.1,1.8c1.4,0.3,2.4,1.6,2.3,3
				c0.1,1.6-1.1,2.9-2.7,2.9c-0.1,0-0.1,0-0.2,0c-1.6,0.1-2.9-1.1-3-2.7c0-0.1,0-0.3,0-0.4h1.2c-0.1,1,0.6,1.9,1.6,2
				c0.1,0,0.2,0,0.3,0c0.9,0.1,1.6-0.6,1.6-1.5c0-0.1,0-0.2,0-0.3c0-1.2-0.8-1.7-2.1-2.1c-1.3-0.4-2.3-1-2.3-2.8
				c0.1-1.5,1.3-2.7,2.8-2.6c1.5,0.1,2.7,1.3,2.6,2.8l0,0L633.6,36.3z"/>
			<path d="M637.3,33.8h1.1c0,0.5,0,1,0,1.6c0.3-1.1,1.3-1.9,2.5-1.8c0.6,0,1.2,0.2,1.7,0.7c0.3,0.3,0.5,0.7,0.5,1.2
				c0.1-0.5,0.4-0.9,0.8-1.2c0.5-0.4,1.1-0.6,1.8-0.6c0.9,0,1.8,0.4,2.3,1.3c0.4,0.8,0.5,1.8,0.4,2.7v6.1h-1.2v-6
				c0-0.6,0-1.2-0.2-1.8c-0.2-0.6-0.8-1-1.5-1c-0.6,0-1.2,0.3-1.6,0.8c-0.4,0.6-0.6,1.4-0.5,2.1v5.9h-1.2v-6c0-0.6,0-1.3-0.2-1.9
				c-0.2-0.6-0.8-1-1.5-1c-0.6,0-1.2,0.3-1.6,0.8c-0.4,0.7-0.6,1.4-0.5,2.2v5.9h-1.2L637.3,33.8z"/>
			<path d="M651.9,39c0,2,0.8,3.6,2.5,3.6c1.1,0,2-0.8,2.2-1.9h1.2c-0.1,0.9-0.6,1.7-1.2,2.3c-0.6,0.5-1.4,0.8-2.1,0.8
				c-2.7,0-3.7-2.6-3.7-5.1c0-3,1.4-5.2,3.7-5.2c1.1,0,2,0.5,2.6,1.4c0.7,1.2,1,2.7,0.9,4.1L651.9,39z M656.6,38
				c0-2-0.9-3.4-2.3-3.4c-1.5,0-2.3,1.5-2.4,3.4H656.6z"/>
			<path d="M661.5,43.6h-1.2v-1.9h1.2V43.6z"/>
			<path d="M17.1,63V51.9h1.2v13.3h-1.5l-5.5-11.4v11.4h-1.2V51.9h1.6L17.1,63z"/>
			<path d="M22.6,51.9H24l-1.4,3.4h-1.2L22.6,51.9z"/>
			<path d="M33.3,65.2h-1.1c0-0.9,0-1.4,0-1.9c-0.3,1.2-1.3,2.1-2.6,2.1c-2,0-3.3-2-3.3-5.1s1.2-5.2,3.3-5.2c1.3,0,2.3,0.9,2.6,2.1
				c0-0.6,0-1.2,0-1.9h1.1L33.3,65.2z M27.5,60.3c0,2.2,0.8,3.9,2.3,3.9c0.7,0,1.4-0.4,1.7-1.1c0.4-0.9,0.6-1.9,0.6-2.9
				c0.1-1-0.1-2-0.6-2.9c-0.3-0.7-1-1.1-1.7-1.1C28.4,56.3,27.5,58.1,27.5,60.3L27.5,60.3z"/>
			<path d="M36.9,56.5h-1.4v-1.1h1.4v-3.1h1.2v3.1h1.3v1.1h-1.4v8.7h-1.2V56.5z"/>
			<path d="M42.1,56.5h-1.4v-1.1h1.4v-3.1h1.2v3.1h1.3v1.1h-1.3v8.7h-1.2V56.5z"/>
			<path d="M47.4,60.7c0,2,0.8,3.6,2.5,3.6c1.1,0,2.1-0.8,2.2-1.9h1.2c-0.1,0.9-0.6,1.7-1.2,2.3c-0.6,0.5-1.4,0.8-2.2,0.8
				c-2.7,0-3.8-2.6-3.8-5.1c0-3,1.4-5.2,3.7-5.2c1.1,0,2.1,0.5,2.6,1.4c0.7,1.2,1,2.7,0.9,4.1L47.4,60.7z M52.1,59.6
				c0-2-0.9-3.4-2.4-3.4s-2.4,1.5-2.4,3.4H52.1z"/>
			<path d="M55.9,55.4H57c0,0.6,0,1.1,0,1.7c0.4-1.2,1.5-2,2.8-1.9c1.7,0,2.8,1,2.8,3.3v6.7h-1.2v-6.3c0-1-0.1-2.5-1.9-2.5
				c-1.4,0-2.3,1-2.3,3v5.8h-1.2V55.4z"/>
			<path d="M72,65.2h-1.1c0-0.9,0-1.4,0-1.9c-0.2,1.3-1.3,2.2-2.6,2.2c-1.9,0-3.3-2-3.3-5.1s1.2-5.2,3.3-5.2c1.2,0,2.3,0.9,2.5,2.1
				c0-0.6,0-1.1,0-1.8v-3.5H72V65.2z M66.2,60.3c0,2.2,0.8,3.9,2.3,3.9c0.7,0,1.4-0.4,1.7-1.1c0.4-0.9,0.6-1.9,0.6-2.9
				c0.1-1-0.1-2-0.6-2.9c-0.3-0.6-1-1.1-1.7-1.1C67,56.3,66.2,58,66.2,60.3z"/>
			<path d="M75.9,60.7c0,2,0.8,3.6,2.5,3.6c1.1,0,2.1-0.8,2.2-1.9h1.2c-0.1,0.9-0.6,1.7-1.2,2.3c-0.6,0.5-1.4,0.8-2.2,0.8
				c-2.7,0-3.8-2.6-3.8-5.1c0-3,1.4-5.2,3.7-5.2c1.1,0,2.1,0.5,2.6,1.4c0.7,1.2,1,2.7,0.9,4.1H75.9z M80.7,59.6c0-2-0.9-3.4-2.4-3.4
				s-2.4,1.5-2.4,3.4H80.7z"/>
			<path d="M83.6,64.1l4.7-7.5h-4.4v-1.1h5.8v1.2L85.1,64h4.8v1.1h-6.3L83.6,64.1z"/>
			<path d="M98.9,55.4h1.1c0,0.7,0,1.3,0,1.9c0.3-1.2,1.3-2.1,2.6-2.1c2,0,3.3,2,3.3,5.2s-1.2,5.1-3.3,5.1c-1.2,0-2.2-0.9-2.5-2
				c0,0.4,0,0.9,0,1.8v3.6h-1.2V55.4z M104.7,60.3c0-2.2-0.8-3.9-2.3-3.9c-0.7,0-1.4,0.4-1.7,1.1c-0.5,0.9-0.7,1.9-0.6,2.9
				c-0.1,1,0.1,2,0.6,2.9c0.3,0.7,1,1.1,1.7,1.1C103.9,64.2,104.7,62.5,104.7,60.3L104.7,60.3z"/>
			<path d="M114.9,65.2h-1.1c0-0.9,0-1.4,0-1.9c-0.3,1.2-1.3,2.1-2.6,2.1c-1.9,0-3.3-2-3.3-5.1s1.2-5.2,3.3-5.2
				c1.3,0,2.3,0.9,2.6,2.1c0-0.6,0-1.2,0-1.9h1.1L114.9,65.2z M109.2,60.3c0,2.2,0.8,3.9,2.3,3.9c0.7,0,1.4-0.4,1.7-1.1
				c0.4-0.9,0.6-1.9,0.6-2.9c0.1-1-0.1-2-0.6-2.9c-0.3-0.7-1-1.1-1.7-1.1C110,56.3,109.2,58.1,109.2,60.3L109.2,60.3z"/>
			<path d="M121.9,57.9c0-1.2-0.7-1.7-1.6-1.7c-0.8,0-1.4,0.6-1.4,1.3c0,0,0,0.1,0,0.1c0,1.1,0.9,1.5,2.1,1.8c1.4,0.3,2.4,1.6,2.3,3
				c0.1,1.6-1.1,2.9-2.7,2.9c-0.1,0-0.1,0-0.2,0c-1.6,0.1-3-1.1-3.1-2.7c0-0.1,0-0.3,0-0.4h1.2c-0.1,1,0.6,1.9,1.6,2
				c0.1,0,0.2,0,0.3,0c0.9,0.1,1.6-0.6,1.7-1.5c0-0.1,0-0.2,0-0.2c0-1.2-0.8-1.7-2.1-2.1s-2.3-1-2.3-2.8c0.1-1.5,1.3-2.7,2.8-2.6
				c1.5,0.1,2.7,1.3,2.6,2.8L121.9,57.9z"/>
			<path d="M139,68.8h-1.2v-3.6c0-0.9,0-1.4,0-1.8c-0.3,1.2-1.3,2-2.5,2.1c-2.1,0-3.3-2.1-3.3-5.1s1.3-5.2,3.3-5.2
				c1.3,0,2.3,0.9,2.6,2.1c0-0.6,0-1.1,0-1.9h1.2V68.8z M133.2,60.3c0,2.2,0.8,3.9,2.3,3.9c0.7,0,1.4-0.4,1.7-1.1
				c0.4-0.9,0.6-1.9,0.6-2.9c0.1-1-0.1-2-0.6-2.9c-0.3-0.7-1-1.1-1.7-1.1C134,56.3,133.2,58.1,133.2,60.3L133.2,60.3z"/>
			<path d="M148.7,65.2h-1.1c0-0.6,0-1.1,0-1.7c-0.4,1.2-1.5,2-2.7,1.9c-1.7,0-2.8-1-2.8-3.3v-6.7h1.2v6.3c0,1,0.1,2.5,1.9,2.5
				c1.4,0,2.3-1,2.3-3v-5.8h1.2L148.7,65.2z"/>
			<path d="M152.9,51.9h1.3l-1.4,3.4h-1.2L152.9,51.9z"/>
			<path d="M156.6,60.3c0-2.8,1.1-5.1,3.8-5.1s3.8,2.3,3.8,5.1s-1.1,5.1-3.8,5.1S156.6,63.1,156.6,60.3L156.6,60.3z M157.9,60.3
				c0,2.6,0.9,4,2.5,4s2.5-1.4,2.5-4s-0.9-4-2.5-4S157.9,57.7,157.9,60.3L157.9,60.3z"/>
			<path d="M166.7,55.4h1.1c0,0.6,0,1.1,0,1.7c0.4-1.2,1.5-2,2.8-1.9c1.7,0,2.8,1,2.8,3.3v6.7h-1.2v-6.3c0-1-0.1-2.5-1.9-2.5
				c-1.4,0-2.3,1-2.3,3v5.8h-1.2L166.7,55.4z"/>
			<path d="M186,65.2h-1.2l-3-9.8h1.2l2.3,8.2l2.2-8.2h1.2L186,65.2z"/>
			<path d="M190.1,60.3c0-2.8,1.1-5.1,3.8-5.1s3.8,2.3,3.8,5.1s-1.1,5.1-3.8,5.1S190.1,63.1,190.1,60.3L190.1,60.3z M191.4,60.3
				c0,2.6,0.9,4,2.5,4s2.5-1.4,2.5-4s-0.9-4-2.5-4S191.4,57.7,191.4,60.3L191.4,60.3z"/>
			<path d="M206.8,65.2h-1.1c0-0.6,0-1.1,0-1.7c-0.4,1.2-1.4,2-2.7,1.9c-1.7,0-2.8-1-2.8-3.3v-6.7h1.2v6.3c0,1,0.1,2.5,1.9,2.5
				c1.4,0,2.3-1,2.3-3v-5.8h1.2L206.8,65.2z"/>
			<path d="M213.8,57.9c0-1.2-0.6-1.7-1.6-1.7c-0.8,0-1.4,0.6-1.4,1.3c0,0,0,0.1,0,0.1c0,1.1,0.9,1.5,2.1,1.8c1.4,0.3,2.4,1.6,2.3,3
				c0.1,1.6-1.1,2.9-2.7,2.9c-0.1,0-0.1,0-0.2,0c-1.6,0.1-3-1.1-3.1-2.7c0-0.1,0-0.3,0-0.4h1.2c-0.1,1,0.6,1.9,1.6,2
				c0.1,0,0.2,0,0.3,0c0.9,0,1.6-0.6,1.7-1.5c0-0.1,0-0.2,0-0.3c0-1.2-0.8-1.7-2.1-2.1s-2.3-1-2.3-2.8c0.1-1.5,1.3-2.7,2.8-2.6
				c1.5,0.1,2.7,1.3,2.6,2.8H213.8z"/>
			<path d="M230.9,65.2h-1.1c0-0.9,0-1.4,0-1.9c-0.3,1.2-1.3,2.1-2.6,2.1c-1.9,0-3.3-2-3.3-5.1s1.2-5.2,3.3-5.2
				c1.3,0,2.3,0.9,2.6,2.1c0-0.6,0-1.2,0-1.9h1.1V65.2z M225.1,60.3c0,2.2,0.8,3.9,2.3,3.9c0.7,0,1.4-0.4,1.7-1.1
				c0.4-0.9,0.6-1.9,0.6-2.9c0.1-1-0.1-2-0.6-2.9c-0.3-0.7-1-1.1-1.7-1.1C225.9,56.3,225.1,58.1,225.1,60.3L225.1,60.3z"/>
			<path d="M234,55.4h1.1c0,0.7,0,1.3,0,1.9c0.3-1.2,1.3-2.1,2.6-2.1c2,0,3.3,2,3.3,5.2s-1.2,5.1-3.3,5.1c-1.2,0-2.2-0.9-2.5-2
				c0,0.4,0,0.9,0,1.8v3.6H234V55.4z M239.8,60.3c0-2.2-0.8-3.9-2.3-3.9c-0.7,0-1.4,0.4-1.7,1.1c-0.5,0.9-0.7,1.9-0.6,2.9
				c-0.1,1,0.1,2,0.6,2.9c0.3,0.7,1,1.1,1.7,1.1C239,64.2,239.8,62.5,239.8,60.3L239.8,60.3z"/>
			<path d="M243.5,55.4h1.1c0,0.7,0,1.3,0,1.9c0.2-1.2,1.3-2.1,2.6-2.1c2,0,3.3,2,3.3,5.2s-1.2,5.1-3.3,5.1c-1.2,0-2.2-0.9-2.5-2
				c0,0.4,0,0.9,0,1.8v3.6h-1.2L243.5,55.4z M249.3,60.3c0-2.2-0.8-3.9-2.3-3.9c-0.7,0-1.4,0.4-1.7,1.1c-0.5,0.9-0.7,1.9-0.6,2.9
				c-0.1,1,0.1,2,0.6,2.9c0.3,0.7,1,1.1,1.7,1.1C248.5,64.2,249.3,62.5,249.3,60.3L249.3,60.3z"/>
			<path d="M253.9,60.7c0,2,0.8,3.6,2.5,3.6c1.1,0,2.1-0.8,2.2-1.9h1.2c-0.1,0.9-0.6,1.7-1.2,2.3c-0.6,0.5-1.4,0.8-2.2,0.8
				c-2.7,0-3.7-2.6-3.7-5.1c0-3,1.4-5.2,3.7-5.2c1.1,0,2.1,0.5,2.6,1.4c0.7,1.2,1,2.7,0.9,4.1L253.9,60.7z M258.6,59.6
				c0-2-0.9-3.4-2.4-3.4s-2.4,1.5-2.4,3.4H258.6z"/>
			<path d="M262.5,51.9h1.2v13.3h-1.2V51.9z"/>
			<path d="M267.1,51.9h1.2v13.3h-1.2V51.9z"/>
			<path d="M272.4,60.7c0,2,0.8,3.6,2.5,3.6c1.1,0,2.1-0.8,2.2-1.9h1.2c-0.1,0.9-0.6,1.7-1.2,2.3c-0.6,0.5-1.4,0.8-2.2,0.8
				c-2.7,0-3.8-2.6-3.8-5.1c0-3,1.4-5.2,3.7-5.2c1.1,0,2.1,0.5,2.6,1.4c0.7,1.2,1,2.7,0.9,4.1L272.4,60.7z M277.1,59.6
				c0-2-0.9-3.4-2.4-3.4s-2.4,1.5-2.4,3.4H277.1z"/>
			<path d="M282.4,65.2h-1.2v-1.9h1.2V65.2z"/>
			<path d="M293.4,51.9c1.2-0.1,2.4,0.2,3.3,0.9c1.7,1.6,1.7,4.4,0.1,6.1c0,0-0.1,0.1-0.1,0.1c-1,0.7-2.1,1-3.3,0.9h-1.2v5.3h-1.4
				V51.9H293.4z M292.2,58.6h1.2c0.9,0.1,1.7-0.1,2.4-0.6c0.6-0.6,0.9-1.3,0.8-2.1c0-0.8-0.3-1.6-0.8-2.1c-0.7-0.5-1.6-0.7-2.4-0.6
				h-1.2V58.6z"/>
			<path d="M300.3,55.4h1.1c0,0.9,0,1.5,0,2c0.2-1.3,1.3-2.3,2.6-2.3v1.4c-0.1-0.1-0.3-0.1-0.5-0.1c-0.8,0-2,1-2,3.5v5.3h-1.2
				L300.3,55.4z"/>
			<path d="M306.5,60.7c0,2,0.8,3.6,2.5,3.6c1.1,0,2.1-0.8,2.2-1.9h1.2c-0.1,0.9-0.6,1.7-1.2,2.3c-0.6,0.5-1.4,0.8-2.2,0.8
				c-2.7,0-3.8-2.6-3.8-5.1c0-3,1.4-5.2,3.7-5.2c1.1,0,2.1,0.5,2.6,1.4c0.7,1.2,1,2.7,0.9,4.1L306.5,60.7z M311.3,59.6
				c0-2-0.9-3.4-2.4-3.4s-2.4,1.5-2.4,3.4H311.3z"/>
			<path d="M315.1,55.4h1.1c0,0.6,0,1.1,0,1.7c0.4-1.2,1.5-2,2.8-1.9c1.7,0,2.8,1,2.8,3.3v6.7h-1.2v-6.3c0-1-0.1-2.5-1.9-2.5
				c-1.4,0-2.3,1-2.3,3v5.8h-1.2V55.4z"/>
			<path d="M325.5,60.7c0,2,0.8,3.6,2.5,3.6c1.1,0,2.1-0.8,2.2-1.9h1.2c-0.1,0.9-0.6,1.7-1.2,2.3c-0.6,0.5-1.4,0.8-2.2,0.8
				c-2.7,0-3.7-2.6-3.7-5.1c0-3,1.4-5.2,3.7-5.2c1.1,0,2.1,0.5,2.6,1.4c0.7,1.2,1,2.7,0.9,4.1L325.5,60.7z M330.3,59.6
				c0-2-0.9-3.4-2.4-3.4s-2.4,1.5-2.4,3.4H330.3z"/>
			<path d="M333.3,64.1l4.7-7.5h-4.4v-1.1h5.8v1.2l-4.7,7.5h4.8v1.1h-6.3V64.1z"/>
			<path d="M348.7,51.9h1.2v13.3h-1.2V51.9z"/>
			<path d="M354.3,51.9h1.3l-1.4,3.4H353L354.3,51.9z"/>
			<path d="M358.6,51.9h1.2v1.8h-1.2V51.9z M358.6,55.4h1.2v9.8h-1.2V55.4z"/>
			<path d="M363.1,55.4h1.1c0,0.6,0,1.1,0,1.7c0.4-1.2,1.5-2,2.8-1.9c1.7,0,2.8,1,2.8,3.3v6.7h-1.2v-6.3c0-1-0.1-2.5-1.9-2.5
				c-1.4,0-2.3,1-2.3,3v5.8h-1.2L363.1,55.4z"/>
			<path d="M372.9,51.9h1.2v1.8h-1.2V51.9z M372.9,55.4h1.2v9.8h-1.2V55.4z"/>
			<path d="M377.8,56.5h-1.4v-1.1h1.4v-3.1h1.2v3.1h1.4v1.1H379v8.7h-1.2V56.5z"/>
			<path d="M382.7,51.9h1.2v1.8h-1.2V51.9z M382.7,55.4h1.2v9.8h-1.2V55.4z"/>
			<path d="M393.6,65.2h-1.1c0-0.9,0-1.4,0-1.9c-0.3,1.2-1.3,2.1-2.6,2.1c-2,0-3.3-2-3.3-5.1s1.2-5.2,3.3-5.2c1.3,0,2.3,0.9,2.6,2.1
				c0-0.6,0-1.2,0-1.9h1.1V65.2z M387.8,60.3c0,2.2,0.8,3.9,2.3,3.9c0.7,0,1.4-0.4,1.7-1.1c0.4-0.9,0.6-1.9,0.6-2.9
				c0.1-1-0.1-2-0.6-2.9c-0.3-0.7-1-1.1-1.7-1.1C388.6,56.3,387.8,58.1,387.8,60.3L387.8,60.3z"/>
			<path d="M397.1,56.5h-1.4v-1.1h1.4v-3.1h1.2v3.1h1.4v1.1h-1.4v8.7h-1.2V56.5z"/>
			<path d="M402,51.9h1.2v1.8H402V51.9z M402,55.4h1.2v9.8H402V55.4z"/>
			<path d="M409.5,65.2h-1.2l-3-9.8h1.2l2.3,8.2l2.2-8.2h1.2L409.5,65.2z"/>
			<path d="M414.9,60.7c0,2,0.8,3.6,2.5,3.6c1.1,0,2.1-0.8,2.2-1.9h1.2c-0.1,0.9-0.6,1.7-1.2,2.3c-0.6,0.5-1.4,0.8-2.2,0.8
				c-2.7,0-3.8-2.6-3.8-5.1c0-3,1.4-5.2,3.7-5.2c1.1,0,2.1,0.5,2.6,1.4c0.7,1.2,1,2.7,0.9,4.1H414.9z M419.6,59.6
				c0-2-0.9-3.4-2.4-3.4s-2.4,1.5-2.4,3.4H419.6z"/>
			<path d="M430.8,60.7c0,2,0.8,3.6,2.5,3.6c1.1,0,2.1-0.8,2.2-1.9h1.2c-0.1,0.9-0.6,1.7-1.2,2.3c-0.6,0.5-1.4,0.8-2.2,0.8
				c-2.7,0-3.8-2.6-3.8-5.1c0-3,1.4-5.2,3.7-5.2c1.1,0,2.1,0.5,2.6,1.4c0.7,1.2,1,2.7,0.9,4.1L430.8,60.7z M435.6,59.6
				c0-2-0.9-3.4-2.4-3.4s-2.4,1.5-2.4,3.4H435.6z"/>
			<path d="M439.4,55.4h1.1c0,0.6,0,1.1,0,1.7c0.4-1.2,1.5-2,2.8-1.9c1.7,0,2.8,1,2.8,3.3v6.7h-1.2v-6.3c0-1-0.1-2.5-1.9-2.5
				c-1.4,0-2.3,1-2.3,3v5.8h-1.2L439.4,55.4z"/>
			<path d="M462.1,65.2H461c0-0.9,0-1.4,0-1.9c-0.3,1.2-1.3,2.1-2.6,2.1c-1.9,0-3.3-2-3.3-5.1s1.2-5.2,3.3-5.2
				c1.3,0,2.3,0.9,2.6,2.1c0-0.6,0-1.2,0-1.9h1.1L462.1,65.2z M456.3,60.3c0,2.2,0.8,3.9,2.3,3.9c0.7,0,1.4-0.4,1.7-1.1
				c0.4-0.9,0.6-1.9,0.6-2.9c0.1-1-0.1-2-0.6-2.9c-0.3-0.7-1-1.1-1.7-1.1C457.1,56.3,456.3,58.1,456.3,60.3L456.3,60.3z"/>
			<path d="M465.2,55.4h1.1c0,0.6,0,1.1,0,1.7c0.4-1.2,1.5-2,2.7-1.9c1.7,0,2.8,1,2.8,3.3v6.7h-1.2v-6.3c0-1-0.1-2.5-1.9-2.5
				c-1.4,0-2.3,1-2.3,3v5.8h-1.2L465.2,55.4z"/>
			<path d="M474.9,55.4h1.1c0,0.6,0,1.1,0,1.7c0.4-1.2,1.5-2,2.8-1.9c1.7,0,2.8,1,2.8,3.3v6.7h-1.2v-6.3c0-1-0.1-2.5-1.9-2.5
				c-1.4,0-2.3,1-2.3,3v5.8h-1.2L474.9,55.4z"/>
			<path d="M484,60.3c0-2.8,1.1-5.1,3.8-5.1s3.8,2.3,3.8,5.1s-1.1,5.1-3.8,5.1S484,63.1,484,60.3L484,60.3z M485.3,60.3
				c0,2.6,0.9,4,2.5,4s2.5-1.4,2.5-4s-0.9-4-2.5-4S485.3,57.7,485.3,60.3L485.3,60.3z"/>
			<path d="M494.1,55.4h1.1c0,0.6,0,1.1,0,1.7c0.4-1.2,1.5-2,2.8-1.9c1.7,0,2.8,1,2.8,3.3v6.7h-1.2v-6.3c0-1-0.1-2.5-1.9-2.5
				c-1.4,0-2.3,1-2.3,3v5.8h-1.2L494.1,55.4z"/>
			<path d="M506.8,66.2c0.1-0.1,0.3-0.1,0.4-0.1c0.7,0,1.3,0.6,1.3,1.3c0,0,0,0,0,0c0,0.8-0.7,1.5-1.6,1.4c0,0,0,0,0,0
				c-0.6,0.1-1.3-0.3-1.5-0.9l0.4-0.3c0.2,0.3,0.5,0.6,0.9,0.5c0.4,0,0.8-0.3,0.8-0.7c0,0,0,0,0-0.1c0-0.4-0.3-0.7-0.7-0.7
				c-0.3,0-0.5,0.1-0.6,0.3l-0.5-0.2l0.7-1.6c-2.5-0.2-3.5-2.6-3.5-5.1c0-3.2,1.5-5.2,3.7-5.2c2,0,3.1,1.5,3.2,3.6h-1.2
				c-0.2-1.9-1.1-2.5-2-2.5c-0.7,0-1.4,0.3-1.8,1c-0.5,0.9-0.7,2-0.6,3c0,2.6,0.9,4,2.4,4c1.2,0,1.9-1,2.1-2.4h1.2
				c-0.2,1.8-1.1,3.3-2.8,3.5L506.8,66.2z"/>
			<path d="M518.7,65.2h-1.1c0-0.9,0-1.4,0-1.9c-0.3,1.2-1.3,2.1-2.6,2.1c-2,0-3.3-2-3.3-5.1s1.2-5.2,3.3-5.2c1.3,0,2.3,0.9,2.6,2.1
				c0-0.6,0-1.2,0-1.9h1.1L518.7,65.2z M512.9,60.3c0,2.2,0.8,3.9,2.3,3.9c0.7,0,1.4-0.4,1.7-1.1c0.4-0.9,0.6-1.9,0.6-2.9
				c0.1-1-0.1-2-0.6-2.9c-0.3-0.7-1-1.1-1.7-1.1C513.7,56.3,512.9,58.1,512.9,60.3L512.9,60.3z"/>
			<path d="M521.8,55.4h1.1c0,0.6,0,1.1,0,1.7c0.4-1.2,1.5-2,2.8-1.9c1.7,0,2.8,1,2.8,3.3v6.7h-1.2v-6.3c0-1-0.1-2.5-1.9-2.5
				c-1.4,0-2.3,1-2.3,3v5.8h-1.2L521.8,55.4z"/>
			<path d="M531.9,56.5h-1.4v-1.1h1.4v-3.1h1.2v3.1h1.3v1.1h-1.3v8.7h-1.2V56.5z"/>
			<path d="M546.2,65.2H545l-3-9.8h1.2l2.3,8.2l2.2-8.2h1.2L546.2,65.2z"/>
			<path d="M550.4,60.3c0-2.8,1.2-5.1,3.8-5.1s3.8,2.3,3.8,5.1s-1.2,5.1-3.8,5.1S550.4,63.1,550.4,60.3L550.4,60.3z M551.6,60.3
				c0,2.6,0.8,4,2.5,4s2.5-1.4,2.5-4s-0.8-4-2.5-4S551.6,57.7,551.6,60.3L551.6,60.3z"/>
			<path d="M561,56.5h-1.4v-1.1h1.4v-3.1h1.2v3.1h1.3v1.1h-1.3v8.7H561V56.5z"/>
			<path d="M565.7,55.4h1.1c0,0.9,0,1.5,0,2c0.2-1.3,1.3-2.3,2.6-2.3v1.4c-0.1-0.1-0.3-0.1-0.5-0.1c-0.8,0-2,1-2,3.5v5.3h-1.3V55.4z
				"/>
			<path d="M572,60.7c0,2,0.8,3.6,2.5,3.6c1.1,0,2.1-0.8,2.2-1.9h1.2c-0.1,0.9-0.6,1.7-1.2,2.3c-0.6,0.5-1.4,0.8-2.2,0.8
				c-2.7,0-3.8-2.6-3.8-5.1c0-3,1.4-5.2,3.7-5.2c1,0,2,0.5,2.5,1.4c0.7,1.2,1,2.7,0.9,4.1H572z M576.8,59.6c0-2-0.9-3.4-2.4-3.4
				s-2.4,1.5-2.4,3.4H576.8z"/>
			<path d="M587.1,55.4h1.1c0,0.7,0,1.3,0,1.9c0.3-1.2,1.3-2.1,2.6-2.1c2,0,3.3,2,3.3,5.2s-1.2,5.1-3.3,5.1c-1.2,0-2.2-0.9-2.5-2
				c0,0.4,0,0.9,0,1.8v3.6h-1.2L587.1,55.4z M592.9,60.3c0-2.2-0.8-3.9-2.3-3.9c-0.7,0-1.4,0.4-1.7,1.1c-0.5,0.9-0.7,1.9-0.6,2.9
				c-0.1,1,0.1,2,0.6,2.9c0.3,0.7,1,1.1,1.7,1.1C592.1,64.2,592.9,62.5,592.9,60.3L592.9,60.3z"/>
			<path d="M596.7,55.4h1.1c0,0.9,0,1.5,0,2c0.2-1.3,1.3-2.3,2.6-2.3v1.4c-0.1-0.1-0.3-0.1-0.5-0.1c-0.8,0-2,1-2,3.5v5.3h-1.2
				L596.7,55.4z"/>
			<path d="M601.6,60.3c0-2.8,1.2-5.1,3.8-5.1s3.8,2.3,3.8,5.1s-1.2,5.1-3.8,5.1S601.6,63.1,601.6,60.3L601.6,60.3z M602.9,60.3
				c0,2.6,0.8,4,2.5,4s2.5-1.4,2.5-4s-0.8-4-2.5-4S602.9,57.7,602.9,60.3L602.9,60.3z"/>
			<path d="M618.2,61.8c-0.2,2-1.3,3.6-3.2,3.6c-2.6,0-3.8-2.5-3.8-5.1c0-3.2,1.5-5.2,3.7-5.2c2,0,3.2,1.5,3.2,3.6h-1.2
				c-0.2-1.9-1.1-2.5-2-2.5c-0.7,0-1.4,0.3-1.8,1c-0.5,0.9-0.7,2-0.6,3c0,2.6,0.9,4,2.4,4c1.2,0,1.9-1,2.1-2.4L618.2,61.8z"/>
			<path d="M620.5,51.9h1.2v3.5c0,0.5,0,1,0,1.6c0.4-1.1,1.4-1.9,2.6-1.8c0.8,0,1.6,0.3,2.1,0.9c0.6,0.8,0.8,1.7,0.7,2.7v6.5h-1.2
				v-6.1c0.1-0.7-0.1-1.5-0.5-2.1c-0.3-0.4-0.9-0.7-1.4-0.6c-0.7,0-1.3,0.3-1.7,0.8c-0.5,0.7-0.7,1.6-0.6,2.5v5.6h-1.2L620.5,51.9z"
				/>
			<path d="M636.6,65.2h-1.1c0-0.9,0-1.4,0-1.9c-0.3,1.2-1.3,2.1-2.6,2.1c-1.9,0-3.3-2-3.3-5.1s1.2-5.2,3.3-5.2
				c1.3,0,2.3,0.9,2.6,2.1c0-0.6,0-1.2,0-1.9h1.1V65.2z M630.8,60.3c0,2.2,0.8,3.9,2.3,3.9c0.7,0,1.4-0.4,1.7-1.1
				c0.4-0.9,0.6-1.9,0.6-2.9c0.1-1-0.1-2-0.6-2.9c-0.3-0.7-1-1.1-1.7-1.1C631.6,56.3,630.8,58.1,630.8,60.3L630.8,60.3z"/>
			<path d="M639.8,51.9h1.2v1.8h-1.2L639.8,51.9z M639.8,55.4h1.2v9.8h-1.2L639.8,55.4z"/>
			<path d="M644.3,55.4h1.1c0,0.6,0,1.1,0,1.7c0.4-1.2,1.5-2,2.8-1.9c1.7,0,2.8,1,2.8,3.3v6.7h-1.2v-6.3c0-1-0.1-2.5-1.9-2.5
				c-1.4,0-2.3,1-2.3,3v5.8h-1.2L644.3,55.4z"/>
			<path d="M654.7,60.7c0,2,0.8,3.6,2.5,3.6c1.1,0,2.1-0.8,2.2-1.9h1.2c-0.1,0.9-0.6,1.7-1.2,2.3c-0.6,0.5-1.4,0.8-2.2,0.8
				c-2.7,0-3.8-2.6-3.8-5.1c0-3,1.4-5.2,3.7-5.2c1.1,0,2.1,0.5,2.6,1.4c0.7,1.2,1,2.7,0.9,4.1L654.7,60.7z M659.5,59.6
				c0-2-0.9-3.4-2.4-3.4s-2.4,1.5-2.4,3.4H659.5z"/>
			<path d="M16.5,86.8h-1.1c0-0.9,0-1.4,0-1.9c-0.2,1.2-1.3,2.1-2.6,2.2c-1.9,0-3.3-2-3.3-5.1s1.2-5.2,3.3-5.2
				c1.2,0,2.3,0.9,2.5,2.1c0-0.6,0-1.1,0-1.8v-3.5h1.2L16.5,86.8z M10.8,81.9c0,2.2,0.8,3.9,2.3,3.9c0.7,0,1.4-0.4,1.7-1.1
				c0.4-0.9,0.6-1.9,0.6-2.9c0.1-1-0.1-2-0.6-2.9c-0.3-0.7-1-1.1-1.8-1.1C11.5,77.9,10.7,79.6,10.8,81.9L10.8,81.9z"/>
			<path d="M20.4,82.2c0,2,0.8,3.6,2.5,3.6c1.1,0,2.1-0.8,2.2-1.9h1.2c-0.1,0.9-0.6,1.7-1.2,2.3c-0.6,0.5-1.4,0.8-2.2,0.8
				c-2.7,0-3.8-2.6-3.8-5.1c0-3,1.4-5.2,3.7-5.2c1.1,0,2.1,0.5,2.6,1.4c0.7,1.2,1,2.7,0.9,4.1L20.4,82.2z M25.1,81.2
				c0-2-0.9-3.4-2.4-3.4s-2.4,1.5-2.4,3.4H25.1z M24.8,72.9l0.5,1l-4,2.1l-0.5-0.8L24.8,72.9z"/>
			<path d="M29,77h1.1c0,0.5,0,1,0,1.6c0.3-1.1,1.3-1.9,2.5-1.8c0.6,0,1.3,0.2,1.7,0.7c0.3,0.3,0.5,0.7,0.5,1.2
				c0.1-0.5,0.4-0.9,0.8-1.2c0.5-0.4,1.2-0.6,1.8-0.6c0.9,0,1.8,0.5,2.2,1.2c0.4,0.8,0.5,1.8,0.5,2.7v6.1H39v-6c0-0.6,0-1.2-0.2-1.8
				c-0.2-0.6-0.8-1-1.5-1c-0.6,0-1.2,0.3-1.6,0.8c-0.4,0.6-0.6,1.4-0.5,2.1v5.9H34v-6c0-0.6,0-1.3-0.2-1.9c-0.2-0.6-0.8-1-1.5-1
				c-0.6,0-1.2,0.3-1.6,0.8c-0.4,0.7-0.6,1.4-0.5,2.2v5.9H29V77z"/>
			<path d="M49.7,86.8h-1.1c0-0.9,0-1.4,0-1.9C48.3,86.1,47.2,87,46,87c-1.9,0-3.3-2.1-3.3-5.1s1.2-5.2,3.3-5.2
				c1.3,0,2.3,0.9,2.6,2.1c0-0.6,0-1.2,0-1.9h1.1L49.7,86.8z M43.9,81.9c0,2.2,0.8,3.9,2.3,3.9c0.7,0,1.4-0.4,1.7-1.1
				c0.4-0.9,0.6-1.9,0.6-2.9c0.1-1-0.1-2-0.6-2.9c-0.3-0.7-1-1.1-1.7-1.1C44.7,77.9,43.9,79.6,43.9,81.9L43.9,81.9z"/>
			<path d="M52.8,77h1.1c0,0.9,0,1.5,0,2.1c0.2-1.3,1.3-2.3,2.6-2.3v1.4C56.4,78.1,56.2,78,56,78c-0.8,0-2,1-2,3.5v5.3h-1.2V77z"/>
			<path d="M64.7,83.4c-0.2,2-1.3,3.6-3.2,3.6c-2.6,0-3.8-2.4-3.8-5.1c0-3.2,1.5-5.2,3.7-5.2c2,0,3.2,1.6,3.2,3.6h-1.2
				c-0.2-1.9-1.1-2.5-2-2.5c-0.7,0-1.4,0.3-1.8,1c-0.5,0.9-0.7,2-0.6,3c0,2.6,0.9,4,2.4,4c1.2,0,1.9-1,2.1-2.4L64.7,83.4z"/>
			<path d="M67,73.5h1.2v3.5c0,0.5,0,1,0,1.6c0.4-1.1,1.4-1.9,2.6-1.8c0.8,0,1.6,0.3,2.1,0.9c0.6,0.8,0.8,1.7,0.7,2.7v6.4h-1.2v-6.1
				c0.1-0.7-0.1-1.5-0.4-2.1c-0.3-0.4-0.9-0.7-1.4-0.6c-0.7,0-1.3,0.3-1.7,0.8c-0.5,0.7-0.7,1.6-0.6,2.5v5.6H67V73.5z"/>
			<path d="M77.4,82.2c0,2,0.8,3.6,2.5,3.6c1.1,0,2.1-0.8,2.2-1.9h1.2c-0.1,0.9-0.6,1.7-1.2,2.3c-0.6,0.5-1.4,0.8-2.2,0.8
				c-2.7,0-3.7-2.6-3.7-5.1c0-3,1.4-5.2,3.7-5.2c1.1,0,2.1,0.5,2.6,1.4c0.7,1.2,1,2.7,0.9,4.1L77.4,82.2z M82.2,81.2
				c0-2-0.9-3.4-2.4-3.4s-2.4,1.5-2.4,3.4H82.2z"/>
			<path d="M87.4,86.8h-1.2v-1.9h1.2L87.4,86.8z"/>
			<path d="M94.4,86.8V73.5h2.1l3.1,11.4l2.9-11.4h2.1v13.3h-1.2V74.7l-3.2,12.1H99l-3.4-12.1v12.1H94.4z"/>
			<path d="M108.5,82.2c0,2,0.8,3.6,2.5,3.6c1.1,0,2.1-0.8,2.2-1.9h1.2c-0.1,0.9-0.6,1.7-1.2,2.3c-0.6,0.5-1.4,0.8-2.2,0.8
				c-2.7,0-3.8-2.6-3.8-5.1c0-3,1.4-5.2,3.7-5.2c1.1,0,2.1,0.5,2.6,1.4c0.7,1.2,1,2.7,0.9,4.1L108.5,82.2z M113.3,81.2
				c0-2-0.9-3.4-2.4-3.4s-2.4,1.5-2.4,3.4H113.3z"/>
			<path d="M117.5,78.1h-1.4V77h1.4v-3.1h1.2V77h1.3v1.1h-1.3v8.7h-1.2V78.1z"/>
			<path d="M122.8,78.1h-1.4V77h1.4v-3.1h1.2V77h1.3v1.1H124v8.7h-1.2L122.8,78.1z"/>
			<path d="M128.1,82.2c0,2,0.8,3.6,2.5,3.6c1.1,0,2.1-0.8,2.2-1.9h1.2c-0.1,0.9-0.6,1.7-1.2,2.3c-0.6,0.5-1.4,0.8-2.2,0.8
				c-2.7,0-3.8-2.6-3.8-5.1c0-3,1.4-5.2,3.7-5.2c1.1,0,2.1,0.5,2.6,1.4c0.7,1.2,1,2.7,0.9,4.1L128.1,82.2z M132.8,81.2
				c0-2-0.9-3.4-2.4-3.4s-2.4,1.5-2.4,3.4H132.8z"/>
			<path d="M135.8,85.7l4.7-7.5h-4.4V77h5.8v1.2l-4.7,7.5h4.8v1.1h-6.3V85.7z"/>
			<path d="M150.3,82.2c0,2,0.8,3.6,2.5,3.6c1.1,0,2.1-0.8,2.2-1.9h1.2c-0.1,0.9-0.6,1.7-1.2,2.3c-0.6,0.5-1.4,0.8-2.2,0.8
				c-2.7,0-3.8-2.6-3.8-5.1c0-3,1.4-5.2,3.7-5.2c1.1,0,2.1,0.5,2.6,1.4c0.7,1.2,1,2.7,0.9,4.1L150.3,82.2z M155.1,81.2
				c0-2-0.9-3.4-2.4-3.4s-2.4,1.5-2.4,3.4H155.1z"/>
			<path d="M158.9,77h1.1c0,0.6,0,1.1,0,1.7c0.4-1.2,1.5-2,2.8-1.9c1.7,0,2.8,1,2.8,3.3v6.7h-1.2v-6.3c0-1-0.1-2.5-1.9-2.5
				c-1.4,0-2.3,1-2.3,3v5.8h-1.2L158.9,77z"/>
			<path d="M180,86.8h-1.1c0-0.9,0-1.4,0-1.9c-0.3,1.2-1.3,2.1-2.6,2.1c-1.9,0-3.3-2.1-3.3-5.1s1.2-5.2,3.3-5.2
				c1.3,0,2.3,0.9,2.6,2.1c0-0.6,0-1.2,0-1.9h1.1V86.8z M174.2,81.9c0,2.2,0.8,3.9,2.3,3.9c0.7,0,1.4-0.4,1.7-1.1
				c0.4-0.9,0.6-1.9,0.6-2.9c0.1-1-0.1-2-0.6-2.9c-0.3-0.7-1-1.1-1.7-1.1C175,77.9,174.2,79.7,174.2,81.9L174.2,81.9z"/>
			<path d="M186.1,86.8h-1.2l-3-9.8h1.2l2.3,8.2l2.3-8.2h1.3L186.1,86.8z"/>
			<path d="M197.2,86.8h-1.1c0-0.9,0-1.4,0-1.9c-0.3,1.2-1.3,2.1-2.6,2.1c-1.9,0-3.3-2.1-3.3-5.1s1.2-5.2,3.3-5.2
				c1.3,0,2.3,0.9,2.6,2.1c0-0.6,0-1.2,0-1.9h1.1L197.2,86.8z M191.4,81.9c0,2.2,0.8,3.9,2.3,3.9c0.7,0,1.4-0.4,1.7-1.1
				c0.4-0.9,0.6-1.9,0.6-2.9c0.1-1-0.1-2-0.6-2.9c-0.3-0.7-1-1.1-1.7-1.1C192.2,77.9,191.4,79.7,191.4,81.9L191.4,81.9z"/>
			<path d="M200.3,77h1.1c0,0.6,0,1.1,0,1.7c0.4-1.2,1.5-2,2.8-1.9c1.7,0,2.8,1,2.8,3.3v6.7h-1.2v-6.3c0-1-0.1-2.5-1.9-2.5
				c-1.4,0-2.3,1-2.3,3v5.8h-1.2L200.3,77z"/>
			<path d="M210.4,78.1h-1.4V77h1.4v-3.1h1.2V77h1.4v1.1h-1.4v8.7h-1.2L210.4,78.1z"/>
			<path d="M223.2,86.8H222l-3-9.8h1.2l2.3,8.2l2.3-8.2h1.2L223.2,86.8z"/>
			<path d="M227.3,81.9c0-2.8,1.1-5.1,3.8-5.1s3.8,2.3,3.8,5.1s-1.1,5.1-3.8,5.1S227.3,84.7,227.3,81.9z M228.6,81.9
				c0,2.6,0.9,4,2.5,4s2.5-1.4,2.5-4s-0.9-4-2.5-4S228.6,79.3,228.6,81.9L228.6,81.9z"/>
			<path d="M241.4,79.5c0-1.2-0.6-1.7-1.6-1.7c-0.8,0-1.4,0.6-1.4,1.3c0,0,0,0.1,0,0.1c0,1.1,0.9,1.5,2.1,1.8c1.4,0.3,2.4,1.6,2.3,3
				c0,1.6-1.2,2.8-2.8,2.9c-0.1,0-0.1,0-0.2,0c-1.6,0.1-3-1.1-3.1-2.7c0-0.1,0-0.3,0-0.4h1.2c-0.1,1,0.6,1.9,1.6,2
				c0.1,0,0.2,0,0.3,0c0.9,0.1,1.6-0.6,1.7-1.5c0-0.1,0-0.2,0-0.2c0-1.2-0.8-1.7-2.1-2.1s-2.3-1-2.3-2.8c0.1-1.5,1.3-2.7,2.8-2.6
				s2.7,1.3,2.6,2.8l0,0L241.4,79.5z"/>
			<path d="M256.9,86.8h-1.1c0-0.9,0-1.4,0-1.9c-0.2,1.2-1.3,2.1-2.6,2.2c-1.9,0-3.2-2-3.2-5.1s1.2-5.2,3.3-5.2
				c1.2,0,2.3,0.9,2.5,2.1c0-0.6,0-1.1,0-1.8v-3.5h1.2L256.9,86.8z M251.2,81.9c0,2.2,0.8,3.9,2.3,3.9c0.7,0,1.4-0.4,1.7-1.1
				c0.4-0.9,0.6-1.9,0.6-2.9c0.1-1-0.1-2-0.6-2.9c-0.3-0.6-1-1.1-1.7-1.1C252,77.9,251.2,79.6,251.2,81.9z"/>
			<path d="M260.2,73.5h1.2v1.8h-1.2V73.5z M260.2,77h1.2v9.8h-1.2V77z"/>
			<path d="M268.6,79.5c0-1.2-0.6-1.7-1.6-1.7c-0.8,0-1.4,0.6-1.4,1.3c0,0,0,0.1,0,0.1c0,1.1,0.9,1.5,2.1,1.8c1.4,0.3,2.4,1.6,2.3,3
				c0,1.6-1.2,2.8-2.8,2.9c-0.1,0-0.1,0-0.2,0c-1.6,0.1-3-1.1-3.1-2.7c0-0.1,0-0.3,0-0.4h1.2c-0.1,1,0.6,1.9,1.6,2
				c0.1,0,0.2,0,0.3,0c0.9,0.1,1.6-0.6,1.7-1.5c0-0.1,0-0.2,0-0.2c0-1.2-0.8-1.7-2.1-2.1s-2.3-1-2.3-2.8c0.1-1.5,1.3-2.7,2.8-2.6
				c1.5,0.1,2.7,1.3,2.6,2.8l0,0H268.6z"/>
			<path d="M272.6,77h1.1c0,0.7,0,1.3,0,1.9c0.3-1.2,1.3-2.1,2.6-2.1c2,0,3.3,2,3.3,5.2s-1.2,5.1-3.3,5.1c-1.2,0-2.2-0.9-2.5-2
				c0,0.4,0,0.9,0,1.8v3.6h-1.2L272.6,77z M278.4,81.9c0-2.2-0.8-3.9-2.3-3.9c-0.7,0-1.3,0.4-1.7,1.1c-0.5,0.9-0.7,1.9-0.6,2.9
				c-0.1,1,0.1,2,0.6,2.9c0.3,0.7,1,1.1,1.7,1.1C277.6,85.8,278.4,84.1,278.4,81.9L278.4,81.9z"/>
			<path d="M281.6,81.9c0-2.8,1.1-5.1,3.8-5.1s3.8,2.3,3.8,5.1S288,87,285.4,87S281.6,84.7,281.6,81.9L281.6,81.9z M282.9,81.9
				c0,2.6,0.9,4,2.5,4s2.5-1.4,2.5-4s-0.9-4-2.5-4S282.9,79.3,282.9,81.9L282.9,81.9z"/>
			<path d="M291.7,77h1.1c0,0.6,0,1.1,0,1.7c0.4-1.2,1.5-2,2.8-1.9c1.7,0,2.8,1,2.8,3.3v6.7h-1.2v-6.3c0-1-0.1-2.5-1.9-2.5
				c-1.4,0-2.3,1-2.3,3v5.8h-1.2L291.7,77z"/>
			<path d="M301.5,73.5h1.2v1.8h-1.2V73.5z M301.5,77h1.2v9.8h-1.2V77z"/>
			<path d="M306,73.5h1.2V77c0,0.9,0,1.4,0,1.9c0.2-1.2,1.3-2.1,2.5-2.1c2.1,0,3.3,2.1,3.3,5.1s-1.4,5.1-3.3,5.1
				c-1.1,0-2-0.6-2.6-2.1c0,0.6,0,1.2,0,1.9H306V73.5z M311.8,81.9c0-2.1-0.7-3.9-2.3-3.9c-1.7,0-2.3,2-2.3,3.9s0.6,3.9,2.3,3.9
				C311,85.8,311.8,84,311.8,81.9L311.8,81.9z"/>
			<path d="M315.7,73.5h1.2v1.8h-1.2V73.5z M315.7,77h1.2v9.8h-1.2V77z"/>
			<path d="M320.3,73.5h1.2v13.3h-1.2V73.5z"/>
			<path d="M324.9,73.5h1.2v1.8h-1.2V73.5z M324.9,77h1.2v9.8h-1.2V77z"/>
			<path d="M329.8,78.1h-1.4V77h1.4v-3.1h1.2V77h1.4v1.1H331v8.7h-1.2L329.8,78.1z"/>
			<path d="M335.1,82.2c0,2,0.8,3.6,2.5,3.6c1.1,0,2.1-0.8,2.2-1.9h1.2c-0.1,0.9-0.6,1.7-1.2,2.3c-0.6,0.5-1.4,0.8-2.2,0.8
				c-2.7,0-3.8-2.6-3.8-5.1c0-3,1.4-5.2,3.7-5.2c1.1,0,2.1,0.5,2.6,1.4c0.7,1.2,1,2.7,0.9,4.1L335.1,82.2z M339.8,81.2
				c0-2-0.9-3.4-2.4-3.4s-2.4,1.5-2.4,3.4H339.8z M339.4,72.9l0.5,1l-4,2.1l-0.5-0.8L339.4,72.9z"/>
			<path d="M347.5,79.5c0-1.2-0.6-1.7-1.6-1.7c-0.8,0-1.4,0.6-1.4,1.3c0,0,0,0.1,0,0.1c0,1.1,0.9,1.5,2.1,1.8c1.4,0.3,2.4,1.6,2.3,3
				c0,1.6-1.2,2.8-2.8,2.9c-0.1,0-0.1,0-0.2,0c-1.6,0.1-3-1.1-3.1-2.7c0-0.1,0-0.3,0-0.4h1.2c-0.1,1,0.6,1.9,1.6,2
				c0.1,0,0.2,0,0.3,0c0.9,0.1,1.6-0.6,1.7-1.5c0-0.1,0-0.2,0-0.2c0-1.2-0.8-1.7-2.1-2.1s-2.3-1-2.3-2.8c0.1-1.5,1.3-2.7,2.8-2.6
				c1.5,0.1,2.7,1.3,2.6,2.8l0,0H347.5z"/>
			<path d="M356.6,77h1.1c0,0.7,0,1.3,0,1.9c0.3-1.2,1.3-2.1,2.6-2.1c2,0,3.3,2,3.3,5.2s-1.2,5.1-3.3,5.1c-1.2,0-2.2-0.9-2.5-2
				c0,0.4,0,0.9,0,1.8v3.6h-1.2L356.6,77z M362.4,81.9c0-2.2-0.8-3.9-2.3-3.9c-0.7,0-1.4,0.4-1.7,1.1c-0.5,0.9-0.7,1.9-0.6,2.9
				c-0.1,1,0.1,2,0.6,2.9c0.3,0.7,1,1.1,1.7,1.1C361.6,85.8,362.4,84.1,362.4,81.9L362.4,81.9z"/>
			<path d="M365.6,81.9c0-2.8,1.1-5.1,3.8-5.1s3.8,2.3,3.8,5.1S372,87,369.4,87S365.7,84.7,365.6,81.9L365.6,81.9z M366.9,81.9
				c0,2.6,0.9,4,2.5,4s2.5-1.4,2.5-4s-0.9-4-2.5-4S366.9,79.3,366.9,81.9L366.9,81.9z"/>
			<path d="M382.3,86.8h-1.1c0-0.6,0-1.1,0-1.7c-0.4,1.2-1.5,2-2.7,1.9c-1.7,0-2.8-1-2.8-3.3V77h1.2v6.3c0,1,0.1,2.5,1.9,2.5
				c1.4,0,2.3-1,2.3-3V77h1.2L382.3,86.8z"/>
			<path d="M385.4,77h1.1c0,0.9,0,1.5,0,2.1c0.2-1.3,1.3-2.3,2.6-2.3v1.4c-0.1-0.1-0.3-0.1-0.5-0.1c-0.8,0-2,1-2,3.5v5.3h-1.2
				L385.4,77z"/>
			<path d="M402.8,86.8h-1.1c0-0.6,0-1.1,0-1.7c-0.4,1.2-1.4,1.9-2.6,1.9c-1.7,0-2.8-1-2.8-3.3V77h1.2v6.3c0,1,0.1,2.5,1.9,2.5
				c1.4,0,2.3-1,2.3-3V77h1.2L402.8,86.8z"/>
			<path d="M405.9,77h1.1c0,0.6,0,1.1,0,1.7c0.4-1.2,1.5-2,2.8-1.9c1.7,0,2.8,1,2.8,3.3v6.7h-1.2v-6.3c0-1-0.1-2.5-1.9-2.5
				c-1.4,0-2.3,1-2.3,3v5.8h-1.2L405.9,77z"/>
			<path d="M421.4,82.2c0,2,0.8,3.6,2.5,3.6c1.1,0,2.1-0.8,2.2-1.9h1.2c-0.1,0.9-0.6,1.7-1.2,2.3c-0.6,0.5-1.4,0.8-2.2,0.8
				c-2.7,0-3.8-2.6-3.8-5.1c0-3,1.4-5.2,3.7-5.2c1.1,0,2.1,0.5,2.6,1.4c0.7,1.2,1,2.7,0.9,4.1L421.4,82.2z M426.1,81.2
				c0-2-0.9-3.4-2.4-3.4s-2.4,1.5-2.4,3.4H426.1z M425.7,72.9l0.5,1l-4,2.1l-0.5-0.8L425.7,72.9z"/>
			<path d="M432.7,86.8h-1.2l-3-9.8h1.2l2.3,8.2l2.3-8.2h1.2L432.7,86.8z"/>
			<path d="M438.2,82.2c0,2,0.8,3.6,2.5,3.6c1.1,0,2.1-0.8,2.2-1.9h1.2c-0.1,0.9-0.6,1.7-1.2,2.3c-0.6,0.5-1.4,0.8-2.2,0.8
				c-2.7,0-3.8-2.6-3.8-5.1c0-3,1.4-5.2,3.7-5.2c1.1,0,2.1,0.5,2.6,1.4c0.7,1.2,1,2.7,0.9,4.1L438.2,82.2z M442.9,81.2
				c0-2-0.9-3.4-2.4-3.4s-2.4,1.5-2.4,3.4H442.9z"/>
			<path d="M446.7,77h1.1c0,0.6,0,1.1,0,1.7c0.4-1.2,1.5-2,2.8-1.9c1.7,0,2.8,1,2.8,3.3v6.7h-1.2v-6.3c0-1-0.1-2.5-1.9-2.5
				c-1.4,0-2.3,1-2.3,3v5.8h-1.2L446.7,77z"/>
			<path d="M456.8,78.1h-1.4V77h1.4v-3.1h1.2V77h1.4v1.1H458v8.7h-1.2L456.8,78.1z"/>
			<path d="M468.2,86.8H467c0-0.6,0-1.1,0-1.7c-0.4,1.2-1.4,1.9-2.6,1.9c-1.7,0-2.8-1-2.8-3.3V77h1.2v6.3c0,1,0.1,2.5,1.9,2.5
				c1.4,0,2.3-1,2.3-3V77h1.2L468.2,86.8z"/>
			<path d="M472,82.2c0,2,0.8,3.6,2.5,3.6c1.1,0,2.1-0.8,2.2-1.9h1.2c-0.1,0.9-0.6,1.7-1.2,2.3c-0.6,0.5-1.4,0.8-2.2,0.8
				c-2.7,0-3.7-2.6-3.7-5.1c0-3,1.4-5.2,3.7-5.2c1.1,0,2.1,0.5,2.6,1.4c0.7,1.2,1,2.7,0.9,4.1L472,82.2z M476.8,81.2
				c0-2-0.9-3.4-2.4-3.4s-2.4,1.5-2.4,3.4H476.8z"/>
			<path d="M480.7,73.5h1.2v13.3h-1.2V73.5z"/>
			<path d="M491,82.2c0,2,0.8,3.6,2.5,3.6c1.1,0,2.1-0.8,2.2-1.9h1.2c-0.1,0.9-0.6,1.7-1.2,2.3c-0.6,0.5-1.4,0.8-2.2,0.8
				c-2.7,0-3.8-2.6-3.8-5.1c0-3,1.4-5.2,3.7-5.2c1.1,0,2.1,0.5,2.6,1.4c0.7,1.2,1,2.7,0.9,4.1L491,82.2z M495.8,81.2
				c0-2-0.9-3.4-2.4-3.4s-2.4,1.4-2.4,3.4L495.8,81.2z"/>
			<path d="M499.6,77h1.1c0,0.6,0,1.1,0,1.7c0.4-1.2,1.5-2,2.8-1.9c1.7,0,2.8,1,2.8,3.3v6.7H505v-6.3c0-1-0.1-2.5-1.9-2.5
				c-1.4,0-2.3,1-2.3,3v5.8h-1.2L499.6,77z"/>
			<path d="M509.7,78.1h-1.4V77h1.4v-3.1h1.2V77h1.4v1.1h-1.4v8.7h-1.2V78.1z"/>
			<path d="M514.4,77h1.1c0,0.9,0,1.5,0,2.1c0.2-1.3,1.3-2.3,2.6-2.3v1.4c-0.1-0.1-0.3-0.1-0.5-0.1c-0.8,0-2,1-2,3.5v5.3h-1.2
				L514.4,77z"/>
			<path d="M520.7,82.2c0,2,0.8,3.6,2.5,3.6c1.1,0,2.1-0.8,2.2-1.9h1.2c-0.1,0.9-0.6,1.7-1.2,2.3c-0.6,0.5-1.4,0.8-2.2,0.8
				c-2.7,0-3.7-2.6-3.7-5.1c0-3,1.4-5.2,3.7-5.2c1.1,0,2.1,0.5,2.6,1.4c0.7,1.2,1,2.7,0.9,4.1L520.7,82.2z M525.5,81.2
				c0-2-0.9-3.4-2.4-3.4s-2.4,1.5-2.4,3.4H525.5z"/>
			<path d="M529.7,78.1h-1.4V77h1.4v-3.1h1.2V77h1.3v1.1h-1.3v8.7h-1.2V78.1z"/>
			<path d="M534.6,73.5h1.2v1.8h-1.2V73.5z M534.6,77h1.2v9.8h-1.2V77z"/>
			<path d="M539.8,82.2c0,2,0.8,3.6,2.5,3.6c1.1,0,2.1-0.8,2.2-1.9h1.2c-0.1,0.9-0.6,1.7-1.2,2.3c-0.6,0.5-1.4,0.8-2.2,0.8
				c-2.7,0-3.8-2.6-3.8-5.1c0-3,1.4-5.2,3.7-5.2c1.1,0,2.1,0.5,2.6,1.4c0.7,1.2,1,2.7,0.9,4.1L539.8,82.2z M544.6,81.2
				c0-2-0.9-3.4-2.4-3.4s-2.4,1.5-2.4,3.4H544.6z"/>
			<path d="M548.4,77h1.1c0,0.6,0,1.1,0,1.7c0.4-1.2,1.5-2,2.8-1.9c1.7,0,2.8,1,2.8,3.3v6.7h-1.2v-6.3c0-1-0.1-2.5-1.9-2.5
				c-1.4,0-2.3,1-2.3,3v5.8h-1.2L548.4,77z"/>
			<path d="M559.8,86.8h-1.2v-1.9h1.2V86.8z"/>
		</g>
	</g>
</g>
</svg>
