<svg xmlns="http://www.w3.org/2000/svg" viewBox="0 0 1920 1080"><defs><style>.cls-1{isolation:isolate;}.cls-2{fill:#666;}.cls-3,.cls-7{fill:#fff;}.cls-3{opacity:0.3;}.cls-4,.cls-5{fill:none;stroke:#fff;stroke-linecap:round;stroke-miterlimit:10;stroke-width:5px;}.cls-5{stroke-dasharray:1 14.96;}.cls-6{fill:#4e96b3;}.cls-8{fill:#464646;opacity:0.7;mix-blend-mode:soft-light;}</style></defs><title>game4e1</title><g class="cls-1"><g id="contenu"><path class="cls-2" d="M805.8,500.21v16.58a3.93,3.93,0,0,0,.9,2.94,3.3,3.3,0,0,0,2.62.93,3.42,3.42,0,0,0,2.66-.93,4.06,4.06,0,0,0,.86-2.94V500.21h3.9v17.12a6.8,6.8,0,0,1-1.73,5.06,7.68,7.68,0,0,1-5.7,2c-2.66,0-4.51-.74-5.7-2a6.93,6.93,0,0,1-1.73-5.06V500.21Z"/><path class="cls-2" d="M822,506h3c0,.74,0,1.44,0,2.21a4.18,4.18,0,0,1,4.26-2.59c2.94,0,4.83,1.63,4.83,5.54v12.74h-3.46V512.27c0-1.44-.29-3.2-2.4-3.2-1.66,0-2.78,1-2.78,3.36v11.46H822Z"/><path class="cls-2" d="M842.18,516.15c0,2.5.86,4.9,3.17,4.9,1.5,0,2.53-1,2.88-2.72h3.42a7.28,7.28,0,0,1-2.43,4.7,6.41,6.41,0,0,1-3.87,1.25c-4.77,0-6.88-4.35-6.88-9.31,0-5.31,2.33-9.34,6.85-9.34a5.66,5.66,0,0,1,5.06,2.72c1.38,2.24,1.5,5.12,1.44,7.81Zm6.18-3c0-2-.74-4.67-3-4.67-1.89,0-3.14,1.76-3.14,4.67Z"/><path class="cls-2" d="M877.93,529.9h-3.46v-6c0-.9,0-1.57,0-2.21a3.7,3.7,0,0,1-3.65,2.59c-3.71,0-5.79-3.49-5.79-9.31,0-6.14,2.43-9.34,5.79-9.34a3.76,3.76,0,0,1,3.84,2.72c0-.74,0-1.47,0-2.34h3.26ZM868.52,515c0,4,1.09,5.86,3,5.86a2.4,2.4,0,0,0,2.21-1.25c.64-.86.74-2,.74-4.64s-.1-3.81-.74-4.67a2.44,2.44,0,0,0-2.21-1.22c-1.92,0-3,1.86-3,5.89Z"/><path class="cls-2" d="M895.17,523.89H892c0-.77,0-1.54,0-2.37-.64,1.89-2,2.75-4.16,2.75-2.91,0-4.8-1.63-4.8-5.54V506h3.46v11.62c0,1.44.29,3.23,2.4,3.23,1.63,0,2.78-1.06,2.78-3.39V506h3.46Z"/><path class="cls-2" d="M900.74,500.21h3.46v3.42h-3.46Zm0,5.79h3.46v17.89h-3.46Z"/><path class="cls-2" d="M909.76,506h3c0,.74,0,1.44,0,2.21a4.18,4.18,0,0,1,4.26-2.59c2.94,0,4.83,1.63,4.83,5.54v12.74H918.4V512.27c0-1.44-.29-3.2-2.4-3.2-1.66,0-2.78,1-2.78,3.36v11.46h-3.46Z"/><path class="cls-2" d="M925.86,520.66l7.33-11.39h-6.72V506h10.82v3.26l-7.2,11.36h7.33v3.26H925.86Z"/><path class="cls-2" d="M953.89,523.89h-3.17c0-1,0-1.66,0-2.34a4,4,0,0,1-3.94,2.72c-3.36,0-5.79-3.2-5.79-9.31,0-5.86,2.08-9.34,5.79-9.34a3.91,3.91,0,0,1,3.94,2.82c0-.8,0-1.54,0-2.43h3.17Zm-9.41-8.9c0,4,1.09,5.86,3,5.86a2.4,2.4,0,0,0,2.21-1.25c.64-.86.74-2,.74-4.64s-.1-3.81-.74-4.67a2.44,2.44,0,0,0-2.21-1.22c-1.92,0-3,1.86-3,5.89Z"/><path class="cls-2" d="M959.46,500.21h3.46v3.42h-3.46Zm0,5.79h3.46v17.89h-3.46Z"/><path class="cls-2" d="M968.48,506h3c0,.74,0,1.44,0,2.21a4.18,4.18,0,0,1,4.26-2.59c2.94,0,4.83,1.63,4.83,5.54v12.74h-3.46V512.27c0-1.44-.29-3.2-2.4-3.2-1.66,0-2.78,1-2.78,3.36v11.46h-3.46Z"/><path class="cls-2" d="M988.68,516.15c0,2.5.86,4.9,3.17,4.9,1.5,0,2.53-1,2.88-2.72h3.42a7.27,7.27,0,0,1-2.43,4.7,6.41,6.41,0,0,1-3.87,1.25c-4.77,0-6.88-4.35-6.88-9.31,0-5.31,2.33-9.34,6.85-9.34a5.66,5.66,0,0,1,5.06,2.72c1.38,2.24,1.5,5.12,1.44,7.81Zm6.18-3c0-2-.74-4.67-3-4.67-1.89,0-3.13,1.76-3.13,4.67Z"/><path class="cls-2" d="M1024.42,523.89h-3.17c0-1.06,0-1.82,0-2.59a3.92,3.92,0,0,1-3.94,3c-3.36,0-5.79-3.2-5.79-9.31,0-5.86,2.08-9.34,5.79-9.34a3.67,3.67,0,0,1,3.65,2.59c0-.7,0-1.41,0-2.21v-5.79h3.46ZM1015,515c0,4,1.09,5.86,3,5.86a2.44,2.44,0,0,0,2.21-1.22c.64-.9.74-2,.74-4.67s-.1-3.78-.74-4.64A2.4,2.4,0,0,0,1018,509c-1.92,0-3,1.89-3,5.89Z"/><path class="cls-2" d="M1032.55,516.15c0,2.5.86,4.9,3.17,4.9,1.5,0,2.53-1,2.88-2.72H1042a7.28,7.28,0,0,1-2.43,4.7,6.41,6.41,0,0,1-3.87,1.25c-4.77,0-6.88-4.35-6.88-9.31,0-5.31,2.33-9.34,6.85-9.34a5.66,5.66,0,0,1,5.06,2.72c1.38,2.24,1.5,5.12,1.44,7.81Zm6.18-3c0-2-.74-4.67-3-4.67-1.89,0-3.14,1.76-3.14,4.67Z"/><path class="cls-2" d="M1056.71,500.21h3.46v23.68h-3.46Z"/><path class="cls-2" d="M1066.12,500.21h3.46v3.42h-3.46Zm0,5.79h3.46v17.89h-3.46Z"/><path class="cls-2" d="M1087.11,523.63a6.75,6.75,0,0,1-1.6,4.86,6.25,6.25,0,0,1-4.8,1.79,5.88,5.88,0,0,1-6.14-5.21h3.62a2.31,2.31,0,0,0,.74,1.41,2.66,2.66,0,0,0,1.82.58c1.89,0,2.94-1.06,3-3.62v-1.79a3.48,3.48,0,0,1-3.68,2.62c-3.94,0-5.79-3.49-5.79-9.31s1.86-9.34,5.79-9.34a4.13,4.13,0,0,1,4.13,2.78c0-.77,0-1.54,0-2.4h3ZM1077.7,515c0,4,1.09,5.86,3,5.86a2.4,2.4,0,0,0,2.21-1.25c.64-.86.74-2,.74-4.64s-.1-3.81-.74-4.67a2.44,2.44,0,0,0-2.21-1.22c-1.92,0-3,1.86-3,5.89Z"/><path class="cls-2" d="M1092.29,506h3c0,.74,0,1.44,0,2.21a4.18,4.18,0,0,1,4.26-2.59c2.94,0,4.83,1.63,4.83,5.54v12.74h-3.46V512.27c0-1.44-.29-3.2-2.4-3.2-1.66,0-2.78,1-2.78,3.36v11.46h-3.46Z"/><path class="cls-2" d="M1112.48,516.15c0,2.5.86,4.9,3.17,4.9,1.5,0,2.53-1,2.88-2.72H1122a7.28,7.28,0,0,1-2.43,4.7,6.41,6.41,0,0,1-3.87,1.25c-4.77,0-6.88-4.35-6.88-9.31,0-5.31,2.34-9.34,6.85-9.34a5.66,5.66,0,0,1,5.06,2.72c1.38,2.24,1.5,5.12,1.44,7.81Zm6.18-3c0-2-.74-4.67-3-4.67-1.89,0-3.14,1.76-3.14,4.67Z"/><path class="cls-2" d="M1133.44,511.06c0-1.7-.83-2.43-2.27-2.43a1.78,1.78,0,0,0-1.92,1.86c0,1.73,1.89,2,4,2.69s4.13,1.82,4.13,5.44a5.63,5.63,0,0,1-6,5.66c-3.36,0-5.89-1.89-6.17-5.92h3.46a2.67,2.67,0,0,0,2.78,2.78,2.1,2.1,0,0,0,2.24-2.3c0-1.79-1.86-2.21-4-2.91s-4.1-1.89-4.1-5.31c0-2.91,2.08-5,5.7-5s5.41,2,5.6,5.44Z"/><path class="cls-2" d="M1145.22,523.89h-3.46v-4.22h3.46Z"/><path class="cls-2" d="M808,623.39a8,8,0,0,1,5.7,1.86,8.16,8.16,0,0,1,0,11.23,8.1,8.1,0,0,1-5.7,1.86h-2v8.74h-3.9V623.39Zm-2,11.33H808a3.78,3.78,0,0,0,3-.9,5,5,0,0,0,0-6A3.92,3.92,0,0,0,808,627h-1.92Z"/><path class="cls-2" d="M820.49,623.39h3.46v23.68h-3.46Z"/><path class="cls-2" d="M841.57,647.07h-3.17c0-.77,0-1.54,0-2.37-.64,1.89-2,2.75-4.16,2.75-2.91,0-4.8-1.63-4.8-5.54V629.18h3.46V640.8c0,1.44.29,3.23,2.4,3.23,1.63,0,2.78-1.06,2.78-3.39V629.18h3.46Z"/><path class="cls-2" d="M853.67,634.24c0-1.7-.83-2.43-2.27-2.43a1.78,1.78,0,0,0-1.92,1.86c0,1.73,1.89,2,4,2.69s4.13,1.82,4.13,5.44a5.63,5.63,0,0,1-6,5.66c-3.36,0-5.89-1.89-6.17-5.92h3.46a2.67,2.67,0,0,0,2.78,2.78,2.1,2.1,0,0,0,2.24-2.3c0-1.79-1.86-2.21-4-2.91s-4.1-1.89-4.1-5.31c0-2.91,2.08-5,5.7-5s5.41,2,5.6,5.44Z"/><path class="cls-2" d="M883.43,647.07h-3.17c0-1.06,0-1.82,0-2.59a3.92,3.92,0,0,1-3.94,3c-3.36,0-5.79-3.2-5.79-9.31,0-5.86,2.08-9.34,5.79-9.34a3.67,3.67,0,0,1,3.65,2.59c0-.7,0-1.41,0-2.21v-5.79h3.46ZM874,638.14c0,4,1.09,5.86,3,5.86a2.43,2.43,0,0,0,2.21-1.22c.64-.9.74-2,.74-4.67s-.1-3.78-.74-4.64a2.4,2.4,0,0,0-2.21-1.25c-1.92,0-3,1.89-3,5.89Z"/><path class="cls-2" d="M890,623.39h3.68l-3.07,7.26H887.4Z"/><path class="cls-2" d="M909.48,647.07h-3.17c0-.77,0-1.54,0-2.37-.64,1.89-2,2.75-4.16,2.75-2.91,0-4.8-1.63-4.8-5.54V629.18h3.46V640.8c0,1.44.29,3.23,2.4,3.23,1.63,0,2.78-1.06,2.78-3.39V629.18h3.46Z"/><path class="cls-2" d="M914.66,629.18h3c0,.74,0,1.44,0,2.21a4.18,4.18,0,0,1,4.26-2.59c2.94,0,4.83,1.63,4.83,5.54v12.74H923.3V635.45c0-1.44-.29-3.2-2.4-3.2-1.66,0-2.78,1-2.78,3.36v11.46h-3.46Z"/><path class="cls-2" d="M934.85,639.32c0,2.5.87,4.9,3.17,4.9,1.5,0,2.53-1,2.88-2.72h3.42a7.29,7.29,0,0,1-2.43,4.7,6.41,6.41,0,0,1-3.87,1.25c-4.77,0-6.88-4.35-6.88-9.31,0-5.31,2.34-9.34,6.85-9.34a5.66,5.66,0,0,1,5.05,2.72c1.38,2.24,1.5,5.12,1.44,7.81Zm6.18-3c0-2-.74-4.67-3-4.67-1.89,0-3.14,1.76-3.14,4.67Z"/><path class="cls-2" d="M958.63,629.18h3.17v2.34a3.92,3.92,0,0,1,3.9-2.72c3.36,0,5.79,3.2,5.79,9.34,0,5.82-2.08,9.31-5.79,9.31a3.8,3.8,0,0,1-3.62-2.43v8.06h-3.46Zm9.41,8.93c0-4-1.06-5.86-3-5.86a2.39,2.39,0,0,0-2.11,1.22c-.64.86-.83,2-.83,4.67s.19,3.78.83,4.64A2.36,2.36,0,0,0,965,644c2,0,3-1.89,3-5.89Z"/><path class="cls-2" d="M987.75,647.07h-3.17c0-1,0-1.66,0-2.34a4,4,0,0,1-3.94,2.72c-3.36,0-5.79-3.2-5.79-9.31,0-5.86,2.08-9.34,5.79-9.34a3.91,3.91,0,0,1,3.94,2.82c0-.8,0-1.54,0-2.43h3.17Zm-9.41-8.9c0,4,1.09,5.86,3,5.86a2.4,2.4,0,0,0,2.21-1.25c.64-.86.74-2,.74-4.64s-.1-3.81-.74-4.67a2.44,2.44,0,0,0-2.21-1.22c-1.92,0-3,1.86-3,5.89Z"/><path class="cls-2" d="M1004.9,646.81a6.75,6.75,0,0,1-1.6,4.86,6.25,6.25,0,0,1-4.8,1.79,5.88,5.88,0,0,1-6.14-5.21H996a2.31,2.31,0,0,0,.74,1.41,2.66,2.66,0,0,0,1.82.58c1.89,0,2.94-1.06,3-3.62v-1.79a3.48,3.48,0,0,1-3.68,2.62c-3.94,0-5.79-3.49-5.79-9.31s1.86-9.34,5.79-9.34a4.13,4.13,0,0,1,4.13,2.78c0-.77,0-1.54,0-2.4h3Zm-9.41-8.64c0,4,1.09,5.86,3,5.86a2.41,2.41,0,0,0,2.21-1.25c.64-.86.74-2,.74-4.64s-.1-3.81-.74-4.67a2.44,2.44,0,0,0-2.21-1.22c-1.92,0-3,1.86-3,5.89Z"/><path class="cls-2" d="M1013,639.32c0,2.5.86,4.9,3.17,4.9,1.5,0,2.53-1,2.88-2.72h3.42a7.28,7.28,0,0,1-2.43,4.7,6.41,6.41,0,0,1-3.87,1.25c-4.77,0-6.88-4.35-6.88-9.31,0-5.31,2.34-9.34,6.85-9.34a5.66,5.66,0,0,1,5.06,2.72c1.38,2.24,1.5,5.12,1.44,7.81Zm6.18-3c0-2-.74-4.67-3-4.67-1.89,0-3.14,1.76-3.14,4.67Z"/><path class="cls-2" d="M1030.79,647.07h-3.46v-4.22h3.46Z"/><path class="cls-2" d="M802.05,767.37V743.69h5.79L812,760.85l4-17.15h5.79v23.68h-3.49V747.82l-4.8,19.55h-3l-4.93-19.55v19.55Z"/><path class="cls-2" d="M826.28,758.41c0-5.12,2.18-9.31,6.91-9.31s6.88,4.19,6.88,9.34-2.18,9.31-6.88,9.31-6.91-4.19-6.91-9.31Zm3.65.06c0,4.38,1.18,6,3.3,6s3.2-1.66,3.2-6.08-1.18-6.08-3.3-6.08-3.2,1.63-3.2,6.08Z"/><path class="cls-2" d="M844.74,743.69h3.46v3.42h-3.46Zm0,5.79h3.46v17.89h-3.46Z"/><path class="cls-2" d="M853.77,749.49h3c0,.74,0,1.44,0,2.21A4.18,4.18,0,0,1,861,749.1c2.94,0,4.83,1.63,4.83,5.54v12.74h-3.46V755.76c0-1.44-.29-3.2-2.4-3.2-1.66,0-2.78,1-2.78,3.36v11.46h-3.46Z"/><path class="cls-2" d="M877.93,754.54c0-1.7-.83-2.43-2.27-2.43a1.78,1.78,0,0,0-1.92,1.86c0,1.73,1.89,2,4,2.69s4.13,1.82,4.13,5.44a5.63,5.63,0,0,1-6,5.66c-3.36,0-5.89-1.89-6.17-5.92h3.46a2.67,2.67,0,0,0,2.78,2.78,2.1,2.1,0,0,0,2.24-2.3c0-1.79-1.86-2.21-4-2.91s-4.1-1.89-4.1-5.31c0-2.91,2.08-5,5.7-5s5.41,2,5.6,5.44Z"/><path class="cls-2" d="M907.68,767.37h-3.17c0-1.06,0-1.82,0-2.59a3.92,3.92,0,0,1-3.94,3c-3.36,0-5.79-3.2-5.79-9.31,0-5.86,2.08-9.34,5.79-9.34a3.67,3.67,0,0,1,3.65,2.59c0-.7,0-1.41,0-2.21v-5.79h3.46Zm-9.41-8.93c0,4,1.09,5.86,3,5.86a2.43,2.43,0,0,0,2.21-1.22c.64-.9.74-2,.74-4.67s-.1-3.78-.74-4.64a2.4,2.4,0,0,0-2.21-1.25c-1.92,0-3,1.89-3,5.89Z"/><path class="cls-2" d="M915.81,759.63c0,2.5.86,4.9,3.17,4.9,1.5,0,2.53-1,2.88-2.72h3.42a7.28,7.28,0,0,1-2.43,4.7,6.41,6.41,0,0,1-3.87,1.25c-4.77,0-6.88-4.35-6.88-9.31,0-5.31,2.33-9.34,6.85-9.34a5.66,5.66,0,0,1,5.06,2.72c1.38,2.24,1.5,5.12,1.44,7.81Zm6.18-3c0-2-.74-4.67-3-4.67-1.89,0-3.14,1.76-3.14,4.67Z"/><path class="cls-2" d="M944.93,747.15h-3.65v-3.46h7.33v23.68h-3.68Z"/><path class="cls-2" d="M957.7,751.25c0-5,3-7.94,7.23-7.94s7.26,2.94,7.26,7.94v8.58c0,5-3,7.93-7.26,7.93s-7.23-2.94-7.23-7.93Zm3.68,8.35c0,3.29,1.76,4.61,3.55,4.61s3.58-1.31,3.58-4.61v-8.13c0-3.3-1.79-4.61-3.58-4.61s-3.55,1.31-3.55,4.61Z"/><path class="cls-2" d="M986.95,743.69h3.46v23.68h-3.46Z"/><path class="cls-2" d="M996.36,743.69h3.46v3.42h-3.46Zm0,5.79h3.46v17.89h-3.46Z"/><path class="cls-2" d="M1017.35,767.12a6.75,6.75,0,0,1-1.6,4.86,6.25,6.25,0,0,1-4.8,1.79,5.88,5.88,0,0,1-6.14-5.21h3.62a2.3,2.3,0,0,0,.74,1.41,2.66,2.66,0,0,0,1.82.58c1.89,0,2.94-1.06,3-3.62v-1.79a3.48,3.48,0,0,1-3.68,2.62c-3.94,0-5.79-3.49-5.79-9.31s1.86-9.34,5.79-9.34a4.13,4.13,0,0,1,4.13,2.78c0-.77,0-1.54,0-2.4h3Zm-9.41-8.64c0,4,1.09,5.86,3,5.86a2.4,2.4,0,0,0,2.21-1.25c.64-.86.74-2,.74-4.64s-.1-3.81-.74-4.67a2.44,2.44,0,0,0-2.21-1.22c-1.92,0-3,1.86-3,5.89Z"/><path class="cls-2" d="M1022.53,749.49h3c0,.74,0,1.44,0,2.21a4.18,4.18,0,0,1,4.26-2.59c2.94,0,4.83,1.63,4.83,5.54v12.74h-3.46V755.76c0-1.44-.29-3.2-2.4-3.2-1.66,0-2.78,1-2.78,3.36v11.46h-3.46Z"/><path class="cls-2" d="M1042.72,759.63c0,2.5.86,4.9,3.17,4.9,1.5,0,2.53-1,2.88-2.72h3.42a7.28,7.28,0,0,1-2.43,4.7,6.41,6.41,0,0,1-3.87,1.25c-4.77,0-6.88-4.35-6.88-9.31,0-5.31,2.33-9.34,6.85-9.34a5.66,5.66,0,0,1,5.06,2.72c1.38,2.24,1.5,5.12,1.44,7.81Zm6.18-3c0-2-.74-4.67-3-4.67-1.89,0-3.14,1.76-3.14,4.67Z"/><path class="cls-2" d="M1063.68,754.54c0-1.7-.83-2.43-2.27-2.43a1.78,1.78,0,0,0-1.92,1.86c0,1.73,1.89,2,4,2.69s4.13,1.82,4.13,5.44a5.63,5.63,0,0,1-6,5.66c-3.36,0-5.89-1.89-6.18-5.92h3.46a2.67,2.67,0,0,0,2.78,2.78,2.1,2.1,0,0,0,2.24-2.3c0-1.79-1.86-2.21-4-2.91s-4.1-1.89-4.1-5.31c0-2.91,2.08-5,5.7-5s5.41,2,5.6,5.44Z"/><path class="cls-2" d="M1075.46,767.37H1072v-4.22h3.46Z"/><path class="cls-3" d="M1450.59,335.35H471.49a8.8,8.8,0,0,0-8.8,8.8v51.4a8.8,8.8,0,0,0,8.8,8.8H904.42l56.5,36,54.66-36h435a8.8,8.8,0,0,0,8.8-8.8v-51.4A8.8,8.8,0,0,0,1450.59,335.35Z"/><path class="cls-2" d="M514.42,383.16a9.27,9.27,0,0,1-1.48.16,5.47,5.47,0,0,1-4-1.4,9.8,9.8,0,0,1-5.28,1.4c-7.28,0-10.88-6.08-10.88-15.36s3.6-15.36,10.88-15.36,10.88,6.08,10.88,15.36a23.78,23.78,0,0,1-1.76,9.6,2.5,2.5,0,0,0,1.64,0Zm-10.8-25c-3.08,0-4.6,2.76-4.6,9.76,0,.92,0,1.6.08,2.28a8.59,8.59,0,0,1,3.08-.56,6,6,0,0,1,2.76.6,8.81,8.81,0,0,1,3.12,2.6,31.92,31.92,0,0,0,.24-4.92c0-7-1.52-9.76-4.64-9.76Zm.08,19.52a2.88,2.88,0,0,0,1.84-.52,5.09,5.09,0,0,0-4.56-2.36,3.23,3.23,0,0,0-1.08.2,4,4,0,0,0,3.76,2.68Z"/><path class="cls-2" d="M535.18,382.76h-4.84v-2.4c-.68,1.84-1.84,2.88-4.64,2.88-3.6,0-5.88-2-5.88-6.6V360h5.36v14.84c0,1.56.36,3,2.24,3,1.4,0,2.4-.72,2.4-2.64V360h5.36Z"/><path class="cls-2" d="M546.3,373.32c0,2.24.6,4.88,3,4.88,1.4,0,2.4-.88,2.8-2.8h5.32c-.44,3.16-1.72,5.2-3.28,6.36a8.32,8.32,0,0,1-4.84,1.48c-6,0-8.76-5.28-8.76-11.84s2.8-11.84,8.76-11.84a7.16,7.16,0,0,1,6.6,3.64c1.68,2.92,1.8,6.64,1.68,10.12Zm5.92-4.56c0-1.36-.2-4.8-2.84-4.8-1.88,0-3.08,1.6-3.08,4.8Z"/><path class="cls-2" d="M563.58,353.17h5.36v29.6h-5.36Z"/><path class="cls-2" d="M593.34,373.32c0,2.24.6,4.88,3,4.88,1.4,0,2.4-.88,2.8-2.8h5.32c-.44,3.16-1.72,5.2-3.28,6.36a8.32,8.32,0,0,1-4.84,1.48c-6,0-8.76-5.28-8.76-11.84s2.8-11.84,8.76-11.84a7.15,7.15,0,0,1,6.6,3.64c1.68,2.92,1.8,6.64,1.68,10.12Zm5.92-4.56c0-1.36-.2-4.8-2.84-4.8-1.88,0-3.08,1.6-3.08,4.8Z"/><path class="cls-2" d="M618.62,366.77c-.08-1.68-.76-2.56-2.4-2.56A1.71,1.71,0,0,0,614.3,366c0,1.92,2.56,2.08,5.12,2.88s5.12,2.32,5.12,7c0,4.24-3.36,7.44-8,7.44-4.36,0-7.8-2.4-8.28-7.76h5.36a2.92,2.92,0,0,0,3.08,2.88,2,2,0,0,0,2.2-2.28c0-2-2.56-2.16-5.12-3s-5.12-2.4-5.12-6.92c0-3.8,2.64-6.6,7.76-6.6s7.28,2.8,7.6,7.2Z"/><path class="cls-2" d="M630,365.08h-2.4v-5H630v-4.32h5.36V360h2.4v5h-2.4v17.68H630Z"/><path class="cls-2" d="M655.42,353.17h5.36v29.6h-5.36Z"/><path class="cls-2" d="M672.46,373.32c0,2.24.6,4.88,3,4.88,1.4,0,2.4-.88,2.8-2.8h5.32c-.44,3.16-1.72,5.2-3.28,6.36a8.32,8.32,0,0,1-4.84,1.48c-6,0-8.76-5.28-8.76-11.84s2.8-11.84,8.76-11.84a7.15,7.15,0,0,1,6.6,3.64c1.68,2.92,1.8,6.64,1.68,10.12Zm5.92-4.56c0-1.36-.2-4.8-2.84-4.8-1.88,0-3.08,1.6-3.08,4.8Z"/><path class="cls-2" d="M702.3,365.08h-2.08v-5h2.08v-.92c0-6,5.28-6.48,8.32-6.48v4.64c-1.24,0-3,0-3,2.36v.4h3v5h-3v17.68H702.3Z"/><path class="cls-2" d="M713.34,371.36c0-6.52,2.8-11.8,8.76-11.8s8.76,5.28,8.76,11.84-2.8,11.84-8.76,11.84-8.76-5.28-8.76-11.84Zm5.68.08c0,5.32,1.2,6.76,3.16,6.76,1.8,0,3-1.44,3-6.8s-1.2-6.8-3.16-6.8c-1.8,0-3,1.44-3,6.8Z"/><path class="cls-2" d="M736,360h4.88v3c.8-2.84,2.8-3.44,5.76-3.44v6.6a4,4,0,0,0-2.36-.68c-2,0-2.92,1.68-2.92,4v13.28H736Z"/><path class="cls-2" d="M751.18,360h5v2.64c.72-2.24,2.16-3.12,4.64-3.12a5.05,5.05,0,0,1,3.24,1,3.84,3.84,0,0,1,1.08,1.48,4.48,4.48,0,0,1,1.48-1.52,7.16,7.16,0,0,1,3.72-1,6.39,6.39,0,0,1,5.16,2.2,7.46,7.46,0,0,1,1.64,4.84v16.16h-5.36v-15.2a2.83,2.83,0,0,0-.56-2,2.23,2.23,0,0,0-1.8-.6,3,3,0,0,0-1.88.48,2.25,2.25,0,0,0-.72,1.84v15.52H761.5v-15.2a2.83,2.83,0,0,0-.56-2,2.23,2.23,0,0,0-1.8-.6,3,3,0,0,0-1.88.48,2.25,2.25,0,0,0-.72,1.84v15.52h-5.36Z"/><path class="cls-2" d="M799,382.76h-4.88V380.6a4.48,4.48,0,0,1-4.4,2.64c-4.08,0-7.16-3.68-7.16-11.84,0-7.68,2.52-11.84,7.16-11.84a4.3,4.3,0,0,1,4.4,2.8V360H799Zm-11.08-11.32c0,5,1.12,6.44,2.92,6.44a2.34,2.34,0,0,0,2.12-1c.68-.84.68-1.92.68-5.48s0-4.64-.68-5.48a2.34,2.34,0,0,0-2.12-1c-1.8,0-2.92,1.44-2.92,6.48Z"/><path class="cls-2" d="M805.82,365.08h-2.4v-5h2.4v-4.32h5.36V360h2.4v5h-2.4v17.68h-5.36Z"/><path class="cls-2" d="M831.26,353.17h5.36v4.48h-5.36Zm0,6.88h5.36v22.72h-5.36Z"/><path class="cls-2" d="M858.78,382.76H853.9V380.2a4.27,4.27,0,0,1-4.4,3c-4.08,0-7.16-3.68-7.16-11.84,0-7.68,2.52-11.84,7.16-11.84a4,4,0,0,1,4,2.4c0-.64,0-1.28,0-1.92v-6.88h5.36ZM847.7,371.44c0,5,1.12,6.44,2.92,6.44a2.34,2.34,0,0,0,2.12-1c.68-.84.68-1.92.68-5.48s0-4.64-.68-5.48a2.34,2.34,0,0,0-2.12-1c-1.8,0-2.92,1.44-2.92,6.48Z"/><path class="cls-2" d="M869.9,373.32c0,2.24.6,4.88,3,4.88,1.4,0,2.4-.88,2.8-2.8H881c-.44,3.16-1.72,5.2-3.28,6.36a8.32,8.32,0,0,1-4.84,1.48c-6,0-8.76-5.28-8.76-11.84s2.8-11.84,8.76-11.84a7.15,7.15,0,0,1,6.6,3.64c1.68,2.92,1.8,6.64,1.68,10.12Zm8-22.92,2,4.28-9.28,4.12-1.84-3.48Zm-2.12,18.36c0-1.36-.2-4.8-2.84-4.8-1.88,0-3.08,1.6-3.08,4.8Z"/><path class="cls-2" d="M902,382.76H897.1V380.6a4.48,4.48,0,0,1-4.4,2.64c-4.08,0-7.16-3.68-7.16-11.84,0-7.68,2.52-11.84,7.16-11.84a4.3,4.3,0,0,1,4.4,2.8V360H902ZM890.9,371.44c0,5,1.12,6.44,2.92,6.44a2.34,2.34,0,0,0,2.12-1c.68-.84.68-1.92.68-5.48s0-4.64-.68-5.48a2.34,2.34,0,0,0-2.12-1c-1.8,0-2.92,1.44-2.92,6.48Z"/><path class="cls-2" d="M908.78,353.17h5.36v29.6h-5.36Z"/><path class="cls-2" d="M949,382.76h-4.88V380.2a4.27,4.27,0,0,1-4.4,3c-4.08,0-7.16-3.68-7.16-11.84,0-7.68,2.52-11.84,7.16-11.84a4,4,0,0,1,4,2.4c0-.64,0-1.28,0-1.92v-6.88H949Zm-11.08-11.32c0,5,1.12,6.44,2.92,6.44a2.34,2.34,0,0,0,2.12-1c.68-.84.68-1.92.68-5.48s0-4.64-.68-5.48a2.34,2.34,0,0,0-2.12-1c-1.8,0-2.92,1.44-2.92,6.48Z"/><path class="cls-2" d="M956.38,353.17h5.68l-4.24,10H953Z"/><path class="cls-2" d="M981.1,382.76h-4.84v-2.4c-.68,1.84-1.84,2.88-4.64,2.88-3.6,0-5.88-2-5.88-6.6V360h5.36v14.84c0,1.56.36,3,2.24,3,1.4,0,2.4-.72,2.4-2.64V360h5.36Z"/><path class="cls-2" d="M987.34,360H992v2.16c.88-1.6,2-2.64,4.84-2.64,3.6,0,5.88,2,5.88,6.6v16.6h-5.36V367.92c0-1.56-.36-3-2.24-3-1.4,0-2.4.72-2.4,2.64v15.2h-5.36Z"/><path class="cls-2" d="M1013.82,373.32c0,2.24.6,4.88,3,4.88,1.4,0,2.4-.88,2.8-2.8h5.32c-.44,3.16-1.72,5.2-3.28,6.36a8.32,8.32,0,0,1-4.84,1.48c-6,0-8.76-5.28-8.76-11.84s2.8-11.84,8.76-11.84a7.16,7.16,0,0,1,6.6,3.64c1.68,2.92,1.8,6.64,1.68,10.12Zm5.92-4.56c0-1.36-.2-4.8-2.84-4.8-1.88,0-3.08,1.6-3.08,4.8Z"/><path class="cls-2" d="M1043.82,353.17h5.36v29.6h-5.36Z"/><path class="cls-2" d="M1060.86,373.32c0,2.24.6,4.88,3,4.88,1.4,0,2.4-.88,2.8-2.8H1072c-.44,3.16-1.72,5.2-3.28,6.36a8.32,8.32,0,0,1-4.84,1.48c-6,0-8.76-5.28-8.76-11.84s2.8-11.84,8.76-11.84a7.16,7.16,0,0,1,6.6,3.64c1.68,2.92,1.8,6.64,1.68,10.12Zm5.92-4.56c0-1.36-.2-4.8-2.84-4.8-1.88,0-3.08,1.6-3.08,4.8Z"/><path class="cls-2" d="M1078.14,365.08h-2.4v-5h2.4v-4.32h5.36V360h2.4v5h-2.4v17.68h-5.36Z"/><path class="cls-2" d="M1090.86,365.08h-2.4v-5h2.4v-4.32h5.36V360h2.4v5h-2.4v17.68h-5.36Z"/><path class="cls-2" d="M1103,360h4.88v3c.8-2.84,2.8-3.44,5.76-3.44v6.6a4,4,0,0,0-2.36-.68c-2,0-2.92,1.68-2.92,4v13.28H1103Z"/><path class="cls-2" d="M1122.22,373.32c0,2.24.6,4.88,3,4.88,1.4,0,2.4-.88,2.8-2.8h5.32c-.44,3.16-1.72,5.2-3.28,6.36a8.32,8.32,0,0,1-4.84,1.48c-6,0-8.76-5.28-8.76-11.84s2.8-11.84,8.76-11.84a7.16,7.16,0,0,1,6.6,3.64c1.68,2.92,1.8,6.64,1.68,10.12Zm5.92-4.56c0-1.36-.2-4.8-2.84-4.8-1.88,0-3.08,1.6-3.08,4.8Z"/><path class="cls-2" d="M1167,382.76h-4.88V380.2a4.27,4.27,0,0,1-4.4,3c-4.08,0-7.16-3.68-7.16-11.84,0-7.68,2.52-11.84,7.16-11.84a4,4,0,0,1,4,2.4c0-.64,0-1.28,0-1.92v-6.88H1167Zm-11.08-11.32c0,5,1.12,6.44,2.92,6.44a2.34,2.34,0,0,0,2.12-1c.68-.84.68-1.92.68-5.48s0-4.64-.68-5.48a2.34,2.34,0,0,0-2.12-1c-1.8,0-2.92,1.44-2.92,6.48Z"/><path class="cls-2" d="M1178.14,373.32c0,2.24.6,4.88,3,4.88,1.4,0,2.4-.88,2.8-2.8h5.32c-.44,3.16-1.72,5.2-3.28,6.36a8.32,8.32,0,0,1-4.84,1.48c-6,0-8.76-5.28-8.76-11.84s2.8-11.84,8.76-11.84a7.16,7.16,0,0,1,6.6,3.64c1.68,2.92,1.8,6.64,1.68,10.12Zm5.92-4.56c0-1.36-.2-4.8-2.84-4.8-1.88,0-3.08,1.6-3.08,4.8Z"/><path class="cls-2" d="M1207.82,360h5v2.64c.72-2.24,2.16-3.12,4.64-3.12a5.05,5.05,0,0,1,3.24,1,3.84,3.84,0,0,1,1.08,1.48,4.48,4.48,0,0,1,1.48-1.52,7.16,7.16,0,0,1,3.72-1,6.39,6.39,0,0,1,5.16,2.2,7.46,7.46,0,0,1,1.64,4.84v16.16h-5.36v-15.2a2.83,2.83,0,0,0-.56-2,2.23,2.23,0,0,0-1.8-.6,3,3,0,0,0-1.88.48,2.25,2.25,0,0,0-.72,1.84v15.52h-5.36v-15.2a2.83,2.83,0,0,0-.56-2,2.23,2.23,0,0,0-1.8-.6,3,3,0,0,0-1.88.48,2.25,2.25,0,0,0-.72,1.84v15.52h-5.36Z"/><path class="cls-2" d="M1239.22,371.36c0-6.52,2.8-11.8,8.76-11.8s8.76,5.28,8.76,11.84-2.8,11.84-8.76,11.84-8.76-5.28-8.76-11.84Zm5.68.08c0,5.32,1.2,6.76,3.16,6.76,1.8,0,3-1.44,3-6.8s-1.2-6.8-3.16-6.8c-1.8,0-3,1.44-3,6.8Z"/><path class="cls-2" d="M1262.46,365.08h-2.4v-5h2.4v-4.32h5.36V360h2.4v5h-2.4v17.68h-5.36Z"/><path class="cls-2" d="M1275.18,353.17h5.36v4.48h-5.36Zm0,6.88h5.36v22.72h-5.36Z"/><path class="cls-2" d="M1296.66,382.76h-4.88L1285.22,360h5.44l3.48,14.56,3-14.56h5.44Z"/><path class="cls-2" d="M1321.66,382.76h-4.88V380.6a4.48,4.48,0,0,1-4.4,2.64c-4.08,0-7.16-3.68-7.16-11.84,0-7.68,2.52-11.84,7.16-11.84a4.3,4.3,0,0,1,4.4,2.8V360h4.88Zm-11.08-11.32c0,5,1.12,6.44,2.92,6.44a2.34,2.34,0,0,0,2.12-1c.68-.84.68-1.92.68-5.48s0-4.64-.68-5.48a2.34,2.34,0,0,0-2.12-1c-1.8,0-2.92,1.44-2.92,6.48Z"/><path class="cls-2" d="M1328.46,365.08h-2.4v-5h2.4v-4.32h5.36V360h2.4v5h-2.4v17.68h-5.36Z"/><path class="cls-2" d="M1341.18,353.17h5.36v4.48h-5.36Zm0,6.88h5.36v22.72h-5.36Z"/><path class="cls-2" d="M1352.26,371.36c0-6.52,2.8-11.8,8.76-11.8s8.76,5.28,8.76,11.84-2.8,11.84-8.76,11.84-8.76-5.28-8.76-11.84Zm5.68.08c0,5.32,1.2,6.76,3.16,6.76,1.8,0,3-1.44,3-6.8s-1.2-6.8-3.16-6.8c-1.8,0-3,1.44-3,6.8Z"/><path class="cls-2" d="M1374.94,360h4.64v2.16c.88-1.6,2-2.64,4.84-2.64,3.6,0,5.88,2,5.88,6.6v16.6h-5.36V367.92c0-1.56-.36-3-2.24-3-1.4,0-2.4.72-2.4,2.64v15.2h-5.36Z"/><path class="cls-2" d="M1413.1,374.76c0-3.2-.6-5.88,1.24-8.24s4.84-3.64,4.84-5.84c0-1.6-1-2.4-2.64-2.4-1.32,0-2.4.88-2.4,2.84v1h-6.08v-1.44c0-5.28,3.44-8,8.76-8,4.76,0,8.6,3.28,8.6,8.24,0,3.36-1.76,5.16-3.44,6.68-3.16,2.8-3,2.64-3,7.16Zm5.92,8h-5.92v-6.08H1419Z"/></g><g id="etapes_jeu" data-name="etapes jeu"><line class="cls-4" x1="555.81" y1="239.15" x2="556.31" y2="239.15"/><line class="cls-5" x1="571.26" y1="239.15" x2="1361.42" y2="239.15"/><line class="cls-4" x1="1368.89" y1="239.15" x2="1369.39" y2="239.15"/><circle class="cls-6" cx="689.29" cy="239.15" r="19.32"/><path class="cls-7" d="M690.85,226.72v20.37h3.21v3.38h-9.84v-3.38h3.21v-17h-3.21v-3.38Z"/><path class="cls-8" d="M689.29,219.83h-.15v38.63h.15a19.32,19.32,0,1,0,0-38.63Z"/><circle class="cls-6" cx="825.95" cy="239.15" r="19.32"/><path class="cls-7" d="M820.88,245.37a6.65,6.65,0,0,1,3.19-5.49q3.21-2.29,3.22-3.88v-4.66q0-1.61-1.48-1.61h0q-1.49,0-1.49,1.61v3.18h-3.42v-3.18q0-5,4.91-5t4.92,5v4.74a6.72,6.72,0,0,1-3.21,5.57q-3.21,2.29-3.21,4v1.43h6.41v3.38h-9.84Z"/><path class="cls-8" d="M825.95,219.83h-.15v38.63h.15a19.32,19.32,0,1,0,0-38.63Z"/><circle class="cls-6" cx="962.6" cy="239.15" r="19.32"/><path class="cls-7" d="M963.94,231.33q0-1.6-1.49-1.61h0q-1.48,0-1.48,1.61v3.18h-3.42v-3.18q0-5,4.91-5t4.92,5v4.13a3.41,3.41,0,0,1-1.88,3.3,3.41,3.41,0,0,1,1.88,3.3v3.79q0,5-4.92,5t-4.91-5v-3.18H961v3.18q0,1.61,1.48,1.61h0q1.49,0,1.49-1.61v-3.79q0-1.29-.54-1.54a2.49,2.49,0,0,0-.9-.12h-1.13V237h1.39a1.43,1.43,0,0,0,.73-.15q.45-.25.45-1.45Z"/><path class="cls-8" d="M962.6,219.83h-.15v38.63h.15a19.32,19.32,0,1,0,0-38.63Z"/><circle class="cls-6" cx="1099.26" cy="239.15" r="39.31"/><path class="cls-7" d="M1108.12,213.85v31.7h2.68v6.87h-2.68v9.75h-7v-9.75H1087v-6.11l12.22-32.46Zm-14.23,31.7h7.27V225Z"/><path class="cls-8" d="M1099.26,199.84H1099v78.61h.31a39.31,39.31,0,1,0,0-78.62Z"/><circle class="cls-6" cx="1235.91" cy="239.15" r="19.32"/><path class="cls-7" d="M1237.26,239.11q0-1.26-.53-1.49a2.41,2.41,0,0,0-.93-.13h-.33q-1,0-1.16.93l0,1h-3.42l.51-12.67h9.33v3.38h-6l-.24,5.11a3,3,0,0,1,2.37-1l.42,0a3.57,3.57,0,0,1,2.72,1.44,6,6,0,0,1,.76,3.45v6.74q0,5-4.93,5t-4.91-5V243h3.42v2.81q0,1.61,1.48,1.61h0q1.49,0,1.49-1.61Z"/><path class="cls-8" d="M1235.91,219.83h-.15v38.63h.15a19.32,19.32,0,1,0,0-38.63Z"/></g></g></svg>