<svg xmlns="http://www.w3.org/2000/svg" viewBox="0 0 659.25 91.06"><defs><style>.cls-1{isolation:isolate;}.cls-2{fill:#fff;}.cls-3{fill:#4e96b3;stroke:#4e96b3;stroke-miterlimit:10;stroke-width:5px;mix-blend-mode:multiply;}</style></defs><title>game1b_item_zone1_txt_1</title><g class="cls-1"><g id="Calque_2" data-name="Calque 2"><g id="Calque_9" data-name="Calque 9"><rect class="cls-2" x="302.83" width="356.42" height="91.06" rx="6.31" ry="6.31" transform="translate(962.08 91.06) rotate(180)"/></g><g id="Calque_13" data-name="Calque 13"><circle class="cls-3" cx="13.75" cy="15" r="11.25"/><path class="cls-2" d="M12.57,10.85h-2V8.43h4.54V21.76H12.57Z"/><path d="M32,8.43h2.74v10.8h3.49v2.52H32Z"/><path d="M39.54,8.43h2.56l-1.91,4.5H38Z"/><path d="M44,8.43h6.48V11H46.7v2.56h3.75V16H46.7v3.2h3.75v2.52H44Z"/><path d="M55.94,14.56,53,8.43h2.81l1.66,3.78L59.1,8.43h2.85l-3,6.12,3.46,7.2H59.54L57.45,17l-2.12,4.72H52.44Z"/><path d="M68.19,8.43a4.45,4.45,0,0,1,3.13,1.12,4.31,4.31,0,0,1,1.22,3.22A4.28,4.28,0,0,1,71.33,16a4.45,4.45,0,0,1-3.13,1.12h-1v4.65H64.41V8.43Zm-1,6.16h1a1.44,1.44,0,0,0,1.19-.43,1.94,1.94,0,0,0,.4-1.39,2,2,0,0,0-.4-1.4A1.49,1.49,0,0,0,68.16,11h-1Z"/><path d="M75.14,8.43h6.48V11H77.88v2.56h3.74V16H77.88v3.2h3.74v2.52H75.14Zm5.6-4.07.92,1.93L77.48,8.15l-.83-1.57Z"/><path d="M84.72,8.43h3.83a4.74,4.74,0,0,1,4.12,2A8.12,8.12,0,0,1,94,15.1c0,3.64-1.8,6.66-5.35,6.66H84.72Zm2.74,10.8h1.19c2.21,0,2.54-2.74,2.54-4.14a6.22,6.22,0,0,0-.61-3,2.09,2.09,0,0,0-2-1.12h-1.1Z"/><path d="M96.45,8.43h2.74V21.76H96.45Z"/><path d="M103.67,11h-2.23V8.43h7.2V11h-2.23v10.8h-2.74Z"/><path d="M111,8.43h6.48V11h-3.75v2.56h3.75V16h-3.75v3.2h3.75v2.52H111Z"/><path d="M123.31,8.43v9.07a2.18,2.18,0,0,0,.38,1.46,1.5,1.5,0,0,0,1.28.47,1.57,1.57,0,0,0,1.3-.47,2.29,2.29,0,0,0,.36-1.46V8.43h2.74V18a4,4,0,0,1-1,2.9,5.6,5.6,0,0,1-6.81,0,4.05,4.05,0,0,1-1-2.9V8.43Z"/><path d="M132.33,8.43h3.46c1.89,0,3.1.49,3.67,1.17a4.57,4.57,0,0,1,1.08,3.08,4.93,4.93,0,0,1-.4,2,3.6,3.6,0,0,1-1.57,1.75l2.52,5.31H138L135.1,15c.31,0,.47,0,.68,0a2.11,2.11,0,0,0,1.35-.5,2.07,2.07,0,0,0,.59-1.53,1.92,1.92,0,0,0-.63-1.62,2.09,2.09,0,0,0-1.4-.36h-.63v10.8h-2.74Z"/><path d="M151.35,15.6h-2.41V12.94h2.41Zm0,6.16h-2.41V19.09h2.41Z"/><path d="M161.07,8.43a4.84,4.84,0,0,1,3.33.92,4,4,0,0,1,1.3,3.06,4,4,0,0,1-1.3,3.08,4.87,4.87,0,0,1-3.33.92H159.9v5.35h-1.35V8.43Zm-1.17,6.73h1.17a3.36,3.36,0,0,0,2.45-.63,2.74,2.74,0,0,0,.81-2.11,2.84,2.84,0,0,0-.83-2.14,3.37,3.37,0,0,0-2.43-.61H159.9Z"/><path d="M166.89,16.84c0-2.79,1.15-5.11,3.78-5.11s3.76,2.32,3.76,5.13S173.28,22,170.67,22s-3.78-2.32-3.78-5.13Zm1.26,0c0,2.59.85,4,2.54,4s2.49-1.39,2.49-4-.85-4-2.52-4-2.5,1.39-2.5,4Z"/><path d="M183.57,21.76h-1.12c0-.56,0-1.1,0-1.71A2.75,2.75,0,0,1,179.76,22c-1.67,0-2.81-1-2.81-3.35V12h1.21v6.3c0,1,.14,2.54,1.87,2.54,1.42,0,2.34-1,2.34-3V12h1.21Z"/><path d="M186.67,12h1.12c0,.9,0,1.46,0,2.05a2.65,2.65,0,0,1,2.61-2.29v1.4a.81.81,0,0,0-.45-.13c-.83,0-2,1-2,3.49v5.26h-1.21Z"/><path d="M198.21,17.22c0,2,.83,3.64,2.48,3.64a2.23,2.23,0,0,0,2.2-1.94h1.19a3.92,3.92,0,0,1-1.22,2.3,3.28,3.28,0,0,1-2.16.77c-2.7,0-3.74-2.59-3.74-5.11,0-3,1.4-5.15,3.71-5.15a3,3,0,0,1,2.63,1.39,7.13,7.13,0,0,1,.9,4.11Zm5.46-6.57h-1.28l-1.84-1.53-1.84,1.53h-1.28L200,8.43h1.17Zm-.7,5.51c0-2-.88-3.4-2.36-3.4s-2.36,1.46-2.39,3.4Z"/><path d="M207.22,13.1h-1.37V12h1.37V8.87h1.21V12h1.35V13.1h-1.35v8.66h-1.21Z"/><path d="M212,12h1.12c0,.9,0,1.46,0,2.05a2.66,2.66,0,0,1,2.61-2.29v1.4a.81.81,0,0,0-.45-.13c-.83,0-2,1-2,3.49v5.26H212Z"/><path d="M218.24,17.22c0,2,.83,3.64,2.49,3.64a2.23,2.23,0,0,0,2.2-1.94h1.19a3.92,3.92,0,0,1-1.22,2.3,3.28,3.28,0,0,1-2.16.77C218,22,217,19.4,217,16.88c0-3,1.4-5.15,3.71-5.15a3,3,0,0,1,2.63,1.39,7.12,7.12,0,0,1,.9,4.11ZM223,16.16c0-2-.88-3.4-2.36-3.4s-2.36,1.46-2.4,3.4Z"/><path d="M232,8.43h1.21V10.2H232ZM232,12h1.21v9.79H232Z"/><path d="M242.88,21.76h-1.12c0-.9,0-1.44,0-1.94A2.67,2.67,0,0,1,239.19,22c-1.94,0-3.28-2.05-3.28-5.11s1.22-5.15,3.28-5.15a2.58,2.58,0,0,1,2.52,2.07c0-.58,0-1.12,0-1.84V8.43h1.21Zm-5.76-4.9c0,2.21.79,3.93,2.29,3.93a1.93,1.93,0,0,0,1.71-1.08,5.42,5.42,0,0,0,.56-2.86,5.42,5.42,0,0,0-.56-2.86,1.94,1.94,0,0,0-1.71-1.06c-1.5,0-2.29,1.69-2.29,3.93Z"/><path d="M246.75,17.22c0,2,.83,3.64,2.49,3.64a2.23,2.23,0,0,0,2.2-1.94h1.19a3.92,3.92,0,0,1-1.22,2.3,3.27,3.27,0,0,1-2.16.77c-2.7,0-3.75-2.59-3.75-5.11,0-3,1.4-5.15,3.71-5.15a3,3,0,0,1,2.63,1.39,7.11,7.11,0,0,1,.9,4.11Zm4.75-1.06c0-2-.88-3.4-2.36-3.4s-2.36,1.46-2.4,3.4Z"/><path d="M255.3,12h1.08c0,.56,0,1.06,0,1.67a2.79,2.79,0,0,1,2.77-1.91c1.68,0,2.81,1,2.81,3.35v6.68h-1.21v-6.3c0-1-.14-2.54-1.87-2.54-1.42,0-2.34,1-2.34,3v5.8H255.3Z"/><path d="M265.44,13.1h-1.37V12h1.37V8.87h1.21V12H268V13.1h-1.35v8.66h-1.21Z"/><path d="M270.33,8.43h1.21V10.2h-1.21Zm0,3.53h1.21v9.79h-1.21Z"/><path d="M276.31,13.1v8.66H275.1V13.1H274V12h1.12v-.74a2.71,2.71,0,0,1,2.92-3V9.26c-.9.05-1.71.49-1.71,2.07V12H280v9.79h-1.21V13.1Zm2.52-2.88V8.43H280v1.78Z"/><path d="M289.66,21.76h-1.12c0-.86,0-1.4,0-1.87A2.69,2.69,0,0,1,286,22c-1.94,0-3.28-2.05-3.28-5.11s1.22-5.15,3.28-5.15a2.64,2.64,0,0,1,2.59,2.12c0-.59,0-1.15,0-1.89h1.12Zm-5.76-4.88c0,2.21.79,3.93,2.29,3.93a1.93,1.93,0,0,0,1.71-1.08,5.46,5.46,0,0,0,.56-2.86A5.38,5.38,0,0,0,287.9,14a1.93,1.93,0,0,0-1.71-1.08c-1.49,0-2.29,1.71-2.29,3.94Z"/><path d="M292.76,8.43H294V12c0,.86,0,1.4,0,1.87a2.61,2.61,0,0,1,2.5-2.11c2.07,0,3.29,2.12,3.29,5.11S298.4,22,296.43,22c-1.13,0-2-.58-2.58-2.12,0,.59,0,1.15,0,1.89h-1.12Zm5.76,8.41c0-2.11-.74-3.93-2.27-3.93-1.69,0-2.29,2-2.29,3.94s.59,3.94,2.29,3.94c1.53,0,2.27-1.82,2.27-3.94Z"/><path d="M302.44,8.43h1.21V21.76h-1.21Z"/><path d="M307.66,17.22c0,2,.83,3.64,2.48,3.64a2.23,2.23,0,0,0,2.2-1.94h1.19a3.92,3.92,0,0,1-1.22,2.3,3.28,3.28,0,0,1-2.16.77c-2.7,0-3.74-2.59-3.74-5.11,0-3,1.4-5.15,3.71-5.15a3,3,0,0,1,2.63,1.39,7.13,7.13,0,0,1,.9,4.11Zm4.75-1.06c0-2-.88-3.4-2.36-3.4s-2.36,1.46-2.39,3.4Z"/><path d="M322,17.22c0,2,.83,3.64,2.49,3.64a2.23,2.23,0,0,0,2.2-1.94h1.19a3.92,3.92,0,0,1-1.22,2.3,3.27,3.27,0,0,1-2.16.77c-2.7,0-3.75-2.59-3.75-5.11,0-3,1.4-5.15,3.71-5.15a3,3,0,0,1,2.63,1.39,7.11,7.11,0,0,1,.9,4.11Zm4.75-1.06c0-2-.88-3.4-2.36-3.4s-2.36,1.46-2.4,3.4Z"/><path d="M331.06,13.1h-1.37V12h1.37V8.87h1.21V12h1.35V13.1h-1.35v8.66h-1.21Z"/><path d="M342.17,21.88c0,1.6-.36,3.26-2.05,3.53a3.46,3.46,0,0,1-.43,0V24.28l.16,0c.94-.22,1.12-1.12,1.12-2.5V12h1.21ZM341,8.43h1.21v1.78H341Z"/><path d="M344.89,16.84c0-2.79,1.15-5.11,3.78-5.11s3.76,2.32,3.76,5.13S351.28,22,348.67,22s-3.78-2.32-3.78-5.13Zm1.26,0c0,2.59.85,4,2.54,4s2.48-1.39,2.48-4-.85-4-2.52-4-2.5,1.39-2.5,4Z"/><path d="M355.15,8.43h1.21V10.2h-1.21Zm0,3.53h1.21v9.79h-1.21Z"/><path d="M366,21.58a4.3,4.3,0,0,1-.83,2.94,3.27,3.27,0,0,1-2.63,1.08,3.2,3.2,0,0,1-3.29-3.08h1.22a2.12,2.12,0,0,0,.56,1.37,2.17,2.17,0,0,0,1.57.59c1,0,2.21-.47,2.21-2.81,0-.47,0-1.1,0-1.75A2.55,2.55,0,0,1,362.35,22c-2.11,0-3.28-2.12-3.28-5.11s1.17-5.15,3.28-5.15c1.15,0,2.05.54,2.65,2.12,0-.59,0-1.15,0-1.89H366Zm-5.76-4.7c0,2.21.79,3.93,2.29,3.93a1.93,1.93,0,0,0,1.71-1.08,5.46,5.46,0,0,0,.56-2.86,5.38,5.38,0,0,0-.56-2.86,1.93,1.93,0,0,0-1.71-1.08c-1.49,0-2.29,1.71-2.29,3.94Z"/><path d="M369.13,12h1.08c0,.56,0,1.06,0,1.67a2.79,2.79,0,0,1,2.77-1.91c1.67,0,2.81,1,2.81,3.35v6.68h-1.21v-6.3c0-1-.14-2.54-1.87-2.54-1.42,0-2.34,1-2.34,3v5.8h-1.21Z"/><path d="M385.24,21.76h-1.12c0-.86,0-1.4,0-1.87A2.69,2.69,0,0,1,381.55,22c-1.95,0-3.28-2.05-3.28-5.11s1.22-5.15,3.28-5.15a2.64,2.64,0,0,1,2.59,2.12c0-.59,0-1.15,0-1.89h1.12Zm-5.76-4.88c0,2.21.79,3.93,2.29,3.93a1.92,1.92,0,0,0,1.71-1.08,5.46,5.46,0,0,0,.56-2.86,5.38,5.38,0,0,0-.56-2.86,1.92,1.92,0,0,0-1.71-1.08c-1.49,0-2.29,1.71-2.29,3.94Z"/><path d="M388.34,8.43h1.21V12c0,.86,0,1.4,0,1.87a2.61,2.61,0,0,1,2.5-2.11c2.07,0,3.29,2.12,3.29,5.11S394,22,392,22c-1.13,0-2-.58-2.57-2.12,0,.59,0,1.15,0,1.89h-1.12Zm5.76,8.41c0-2.11-.74-3.93-2.27-3.93-1.69,0-2.29,2-2.29,3.94s.59,3.94,2.29,3.94c1.53,0,2.27-1.82,2.27-3.94Z"/><path d="M398,8.43h1.21V21.76H398Z"/><path d="M403.24,17.22c0,2,.83,3.64,2.49,3.64a2.23,2.23,0,0,0,2.2-1.94h1.19a3.92,3.92,0,0,1-1.22,2.3,3.27,3.27,0,0,1-2.16.77C403,22,402,19.4,402,16.88c0-3,1.4-5.15,3.71-5.15a3,3,0,0,1,2.63,1.39,7.11,7.11,0,0,1,.9,4.11ZM408,16.16c0-2-.88-3.4-2.36-3.4s-2.36,1.46-2.4,3.4Z"/><path d="M10.5,38.82c0,2,.83,3.64,2.48,3.64a2.23,2.23,0,0,0,2.2-1.94h1.19a3.91,3.91,0,0,1-1.22,2.3,3.27,3.27,0,0,1-2.16.77c-2.7,0-3.75-2.59-3.75-5.11,0-3,1.4-5.15,3.71-5.15a3,3,0,0,1,2.63,1.39,7.12,7.12,0,0,1,.9,4.11Zm4.75-1.06c0-2-.88-3.4-2.36-3.4s-2.36,1.46-2.39,3.4Z"/><path d="M19.05,33.56h1.08c0,.56,0,1.06,0,1.67a2.79,2.79,0,0,1,2.77-1.91c1.67,0,2.81,1,2.81,3.35v6.68H24.47v-6.3c0-1-.14-2.54-1.87-2.54-1.42,0-2.34,1-2.34,3v5.8H19.05Z"/><path d="M40.35,43.36H39.23c0-.56,0-1.1,0-1.71a2.75,2.75,0,0,1-2.74,1.94c-1.67,0-2.81-1-2.81-3.35V33.56h1.21v6.3c0,1,.14,2.54,1.87,2.54,1.42,0,2.34-1,2.34-3v-5.8h1.21Z"/><path d="M43.44,33.56h1.08c0,.56,0,1.06,0,1.67a2.79,2.79,0,0,1,2.77-1.91c1.67,0,2.81,1,2.81,3.35v6.68H48.86v-6.3c0-1-.14-2.54-1.87-2.54-1.42,0-2.34,1-2.34,3v5.8H43.44Z"/><path d="M64.61,40c-.22,2-1.3,3.57-3.24,3.57-2.61,0-3.78-2.45-3.78-5.11,0-3.21,1.51-5.15,3.73-5.15,2,0,3.15,1.55,3.24,3.62H63.33c-.2-1.94-1.13-2.48-2.05-2.48a1.9,1.9,0,0,0-1.78,1,5.8,5.8,0,0,0-.63,3c0,2.57.88,4,2.43,4,1.21,0,1.89-1,2.07-2.43Z"/><path d="M66.37,38.44c0-2.79,1.15-5.11,3.78-5.11s3.76,2.32,3.76,5.13-1.15,5.13-3.76,5.13-3.78-2.32-3.78-5.13Zm1.26,0c0,2.59.85,4,2.54,4s2.48-1.39,2.48-4-.85-4-2.52-4-2.5,1.39-2.5,4Z"/><path d="M83.06,43.36H81.95c0-.56,0-1.1,0-1.71a2.75,2.75,0,0,1-2.74,1.94c-1.67,0-2.81-1-2.81-3.35V33.56h1.21v6.3c0,1,.14,2.54,1.87,2.54,1.42,0,2.34-1,2.34-3v-5.8h1.21Z"/><path d="M86.16,33.56h1.12c0,.74,0,1.28,0,1.87a2.64,2.64,0,0,1,2.58-2.11c2,0,3.29,2,3.29,5.15s-1.22,5.11-3.29,5.11a2.66,2.66,0,0,1-2.5-2c0,.43,0,.94,0,1.78V47H86.16Zm5.76,4.88c0-2.21-.77-3.93-2.29-3.93A1.87,1.87,0,0,0,88,35.6a5.18,5.18,0,0,0-.59,2.86A5.26,5.26,0,0,0,88,41.32a1.87,1.87,0,0,0,1.67,1.08c1.51,0,2.29-1.71,2.29-3.94Z"/><path d="M107.2,43.36h-1.12c0-.9,0-1.44,0-1.94a2.67,2.67,0,0,1-2.59,2.18c-1.94,0-3.28-2.05-3.28-5.11s1.22-5.15,3.28-5.15A2.57,2.57,0,0,1,106,35.4c0-.58,0-1.12,0-1.84V30h1.21Zm-5.76-4.9c0,2.21.79,3.93,2.29,3.93a1.93,1.93,0,0,0,1.71-1.08,5.42,5.42,0,0,0,.56-2.86,5.42,5.42,0,0,0-.56-2.86,1.94,1.94,0,0,0-1.71-1.06c-1.49,0-2.29,1.69-2.29,3.93Z"/><path d="M111.43,30h1.31l-1.42,3.4h-1.17Z"/><path d="M122.63,38.75c0,2.05.72,3.71,2.49,3.71a2.27,2.27,0,0,0,2.25-1.94h1.19a3.82,3.82,0,0,1-1.22,2.3,3.27,3.27,0,0,1-2.14.77A3.23,3.23,0,0,1,122,41.11a3.13,3.13,0,0,1-3.19,2.48c-2.56,0-3.71-2.32-3.71-5.13s1.15-5.13,3.75-5.13A3.1,3.1,0,0,1,122,35.76a3.24,3.24,0,0,1,3.17-2.43,3,3,0,0,1,2.59,1.37,7.16,7.16,0,0,1,.9,4.05Zm-6.27-.27c0,2.59.85,4,2.52,4s2.54-1.39,2.54-4-.87-4-2.56-4-2.5,1.39-2.5,4Zm11.09-.67c-.05-2.18-.9-3.46-2.41-3.46s-2.38,1.67-2.41,3.46Z"/><path d="M131.28,30h1.21V31.8h-1.21Zm0,3.53h1.21v9.79h-1.21Z"/><path d="M135.87,30h1.21V43.36h-1.21Z"/><path d="M141,44.85h-1.06l1.19-3.4h1.21Z"/><path d="M149.7,38.82c0,2,.83,3.64,2.49,3.64a2.23,2.23,0,0,0,2.2-1.94h1.19a3.92,3.92,0,0,1-1.22,2.3,3.28,3.28,0,0,1-2.16.77c-2.7,0-3.75-2.59-3.75-5.11,0-3,1.4-5.15,3.71-5.15a3,3,0,0,1,2.63,1.39,7.12,7.12,0,0,1,.9,4.11Zm4.75-1.06c0-2-.88-3.4-2.36-3.4s-2.36,1.46-2.4,3.4Zm-.38-8.25.5,1-4,2.14-.45-.85Z"/><path d="M164.69,40c-.22,2-1.3,3.57-3.24,3.57-2.61,0-3.78-2.45-3.78-5.11,0-3.21,1.51-5.15,3.73-5.15,2,0,3.15,1.55,3.24,3.62h-1.22c-.2-1.94-1.13-2.48-2.05-2.48a1.9,1.9,0,0,0-1.78,1,5.81,5.81,0,0,0-.63,3c0,2.57.88,4,2.43,4,1.21,0,1.89-1,2.07-2.43Z"/><path d="M167,33.56h1.12c0,.9,0,1.46,0,2.05a2.66,2.66,0,0,1,2.61-2.29v1.4a.81.81,0,0,0-.45-.13c-.83,0-2,1-2,3.49v5.26H167Z"/><path d="M172.83,30H174V31.8h-1.21Zm0,3.53H174v9.79h-1.21Z"/><path d="M180.26,43.36h-1.21l-3-9.79h1.22l2.32,8.17,2.25-8.17h1.21Z"/><path d="M185.68,38.82c0,2,.83,3.64,2.48,3.64a2.23,2.23,0,0,0,2.2-1.94h1.19a3.92,3.92,0,0,1-1.22,2.3,3.28,3.28,0,0,1-2.16.77c-2.7,0-3.74-2.59-3.74-5.11,0-3,1.4-5.15,3.71-5.15a3,3,0,0,1,2.63,1.39,7.13,7.13,0,0,1,.9,4.11Zm4.75-1.06c0-2-.88-3.4-2.36-3.4s-2.36,1.46-2.39,3.4Z"/><path d="M193.4,42.24l4.7-7.54h-4.39V33.56h5.83v1.15l-4.68,7.51h4.84v1.13h-6.3Z"/><path d="M207.3,30h1.21V31.8H207.3Zm0,3.53h1.21v9.79H207.3Z"/><path d="M218.19,40c-.22,2-1.3,3.57-3.24,3.57-2.61,0-3.78-2.45-3.78-5.11,0-3.21,1.51-5.15,3.73-5.15,2,0,3.15,1.55,3.24,3.62h-1.22c-.2-1.94-1.13-2.48-2.05-2.48a1.9,1.9,0,0,0-1.78,1,5.8,5.8,0,0,0-.63,3c0,2.57.88,4,2.43,4,1.21,0,1.89-1,2.07-2.43Z"/><path d="M220.62,30h1.21V31.8h-1.21Zm0,3.53h1.21v9.79h-1.21Z"/><path d="M231.87,36h-1.22V34.09h1.22Zm0,7.36h-1.22V41.45h1.22Z"/><path d="M241.71,43.36h-1.21l-3-9.79h1.22l2.32,8.17,2.25-8.17h1.21Z"/><path d="M245.83,38.44c0-2.79,1.15-5.11,3.78-5.11s3.76,2.32,3.76,5.13-1.15,5.13-3.76,5.13-3.78-2.32-3.78-5.13Zm1.26,0c0,2.59.85,4,2.54,4s2.48-1.39,2.48-4-.85-4-2.52-4-2.5,1.39-2.5,4Z"/><path d="M256.42,34.7h-1.37V33.56h1.37v-3.1h1.21v3.1H259V34.7h-1.35v8.66h-1.21Z"/><path d="M261.17,33.56h1.12c0,.9,0,1.46,0,2.05a2.66,2.66,0,0,1,2.61-2.29v1.4a.81.81,0,0,0-.45-.13c-.83,0-2,1-2,3.49v5.26h-1.21Z"/><path d="M267.43,38.82c0,2,.83,3.64,2.49,3.64a2.23,2.23,0,0,0,2.2-1.94h1.19a3.92,3.92,0,0,1-1.22,2.3,3.28,3.28,0,0,1-2.16.77c-2.7,0-3.75-2.59-3.75-5.11,0-3,1.4-5.15,3.71-5.15a3,3,0,0,1,2.63,1.39,7.12,7.12,0,0,1,.9,4.11Zm4.75-1.06c0-2-.88-3.4-2.36-3.4s-2.36,1.46-2.4,3.4Z"/><path d="M288.12,41.14V30h1.22V43.36h-1.51L282.32,32V43.36H281.1V30h1.62Z"/><path d="M292,36.68c0-3.91,1.66-6.88,4.84-6.88s4.84,3,4.84,6.9c0,3.42-1.35,6.9-4.84,6.9-3.19,0-4.84-3-4.84-6.9Zm1.39,0c0,3.64,1.31,5.65,3.46,5.65s3.48-2,3.48-5.67S299,31,296.81,31s-3.46,2-3.46,5.67Z"/><path d="M304.3,43.36V30h2.09l3.13,11.36L312.44,30h2.11V43.36h-1.22V31.28l-3.15,12.08h-1.26l-3.38-12.08V43.36Z"/><path d="M318.36,44.85h-1.06l1.19-3.4h1.21Z"/><path d="M329.28,43.36h-1.21l-3-9.79h1.22l2.32,8.17,2.25-8.17h1.21Z"/><path d="M333.4,38.44c0-2.79,1.15-5.11,3.78-5.11s3.76,2.32,3.76,5.13-1.15,5.13-3.76,5.13-3.78-2.32-3.78-5.13Zm1.26,0c0,2.59.85,4,2.54,4s2.48-1.39,2.48-4-.85-4-2.52-4-2.5,1.39-2.5,4Z"/><path d="M344,34.7h-1.37V33.56H344v-3.1h1.21v3.1h1.35V34.7h-1.35v8.66H344Z"/><path d="M348.74,33.56h1.12c0,.9,0,1.46,0,2.05a2.65,2.65,0,0,1,2.61-2.29v1.4a.81.81,0,0,0-.45-.13c-.83,0-2,1-2,3.49v5.26h-1.21Z"/><path d="M355,38.82c0,2,.83,3.64,2.48,3.64a2.23,2.23,0,0,0,2.2-1.94h1.19a3.91,3.91,0,0,1-1.22,2.3,3.27,3.27,0,0,1-2.16.77c-2.7,0-3.75-2.59-3.75-5.11,0-3,1.4-5.15,3.71-5.15a3,3,0,0,1,2.63,1.39,7.12,7.12,0,0,1,.9,4.11Zm4.75-1.06c0-2-.88-3.4-2.36-3.4S355,35.81,355,37.76Z"/><path d="M9.73,55.16h1.12c0,.74,0,1.28,0,1.87a2.63,2.63,0,0,1,2.57-2.11c2,0,3.29,2,3.29,5.15s-1.22,5.11-3.29,5.11a2.66,2.66,0,0,1-2.5-2c0,.43,0,.94,0,1.78v3.62H9.73ZM15.49,60c0-2.21-.77-3.93-2.29-3.93a1.88,1.88,0,0,0-1.68,1.08,5.19,5.19,0,0,0-.59,2.86,5.27,5.27,0,0,0,.59,2.86A1.88,1.88,0,0,0,13.21,64c1.51,0,2.29-1.71,2.29-3.94Z"/><path d="M19.27,55.16h1.12c0,.9,0,1.46,0,2.05A2.65,2.65,0,0,1,23,54.93v1.4a.82.82,0,0,0-.45-.13c-.83,0-2,1-2,3.49V65H19.27Z"/><path d="M25.53,60.42c0,2,.83,3.64,2.48,3.64a2.23,2.23,0,0,0,2.2-1.94H31.4a3.92,3.92,0,0,1-1.22,2.3,3.28,3.28,0,0,1-2.16.77c-2.7,0-3.74-2.59-3.74-5.11,0-3,1.4-5.15,3.71-5.15a3,3,0,0,1,2.63,1.39,7.13,7.13,0,0,1,.9,4.11Zm4.75-1.06c0-2-.88-3.4-2.36-3.4s-2.36,1.46-2.39,3.4Zm-.38-8.25.5,1-4,2.14-.45-.85Z"/><path d="M34.08,55.16h1.08c0,.56,0,1.06,0,1.67a2.79,2.79,0,0,1,2.77-1.91c1.67,0,2.81,1,2.81,3.35V65H39.5v-6.3c0-1-.14-2.54-1.87-2.54-1.42,0-2.34,1-2.34,3V65H34.08Z"/><path d="M43.23,60c0-2.79,1.15-5.11,3.78-5.11s3.76,2.32,3.76,5.13S49.62,65.19,47,65.19s-3.78-2.32-3.78-5.13Zm1.26,0c0,2.59.85,4,2.54,4s2.49-1.39,2.49-4-.85-4-2.52-4-2.5,1.39-2.5,4Z"/><path d="M53.38,55.16h1.15c0,.5,0,1,0,1.6A2.42,2.42,0,0,1,57,54.93a2.32,2.32,0,0,1,1.71.67,2.28,2.28,0,0,1,.54,1.17A2.69,2.69,0,0,1,60,55.52a3,3,0,0,1,1.8-.59,2.52,2.52,0,0,1,2.29,1.26,5.9,5.9,0,0,1,.45,2.68V65H63.37V59a5.9,5.9,0,0,0-.2-1.82,1.5,1.5,0,0,0-1.49-1,1.79,1.79,0,0,0-1.58.79,3.83,3.83,0,0,0-.52,2.14V65H58.37V59a5.84,5.84,0,0,0-.2-1.87,1.48,1.48,0,0,0-1.48-1,1.85,1.85,0,0,0-1.58.76,3.86,3.86,0,0,0-.52,2.21V65H53.38Z"/><path d="M68.32,66.45H67.26L68.45,63h1.21Z"/><path d="M79.25,65H78l-3-9.79h1.22l2.32,8.17,2.25-8.17h1.21Z"/><path d="M83.37,60c0-2.79,1.15-5.11,3.78-5.11s3.76,2.32,3.76,5.13-1.15,5.13-3.76,5.13-3.78-2.32-3.78-5.13Zm1.26,0c0,2.59.85,4,2.54,4s2.48-1.39,2.48-4-.85-4-2.52-4-2.5,1.39-2.5,4Z"/><path d="M94,56.3H92.58V55.16H94v-3.1h1.21v3.1h1.35V56.3H95.16V65H94Z"/><path d="M98.7,55.16h1.12c0,.9,0,1.46,0,2.05a2.65,2.65,0,0,1,2.61-2.29v1.4a.82.82,0,0,0-.45-.13c-.83,0-2,1-2,3.49V65H98.7Z"/><path d="M105,60.42c0,2,.83,3.64,2.49,3.64a2.23,2.23,0,0,0,2.2-1.94h1.19a3.92,3.92,0,0,1-1.22,2.3,3.28,3.28,0,0,1-2.16.77c-2.7,0-3.75-2.59-3.75-5.11,0-3,1.4-5.15,3.71-5.15A3,3,0,0,1,110,56.32a7.12,7.12,0,0,1,.9,4.11Zm4.75-1.06c0-2-.88-3.4-2.36-3.4s-2.36,1.46-2.4,3.4Z"/><path d="M125,65H123.9c0-.86,0-1.4,0-1.87a2.69,2.69,0,0,1-2.59,2.11c-1.95,0-3.28-2.05-3.28-5.11s1.22-5.15,3.28-5.15a2.64,2.64,0,0,1,2.59,2.12c0-.59,0-1.15,0-1.89H125Zm-5.76-4.88c0,2.21.79,3.93,2.29,3.93a1.92,1.92,0,0,0,1.71-1.08,5.46,5.46,0,0,0,.56-2.86,5.38,5.38,0,0,0-.56-2.86,1.92,1.92,0,0,0-1.71-1.08c-1.49,0-2.29,1.71-2.29,3.94Z"/><path d="M134.56,65h-1.12c0-.9,0-1.44,0-1.94a2.67,2.67,0,0,1-2.59,2.18c-1.94,0-3.28-2.05-3.28-5.11s1.22-5.15,3.28-5.15A2.57,2.57,0,0,1,133.39,57c0-.58,0-1.12,0-1.84V51.63h1.21Zm-5.76-4.9c0,2.21.79,3.93,2.29,3.93a1.93,1.93,0,0,0,1.71-1.08,5.42,5.42,0,0,0,.56-2.86,5.42,5.42,0,0,0-.56-2.86,1.94,1.94,0,0,0-1.71-1.06c-1.5,0-2.29,1.69-2.29,3.93Z"/><path d="M137.65,55.16h1.12c0,.9,0,1.46,0,2.05a2.66,2.66,0,0,1,2.61-2.29v1.4a.81.81,0,0,0-.45-.13c-.83,0-2,1-2,3.49V65h-1.21Z"/><path d="M143.92,60.42c0,2,.83,3.64,2.49,3.64a2.23,2.23,0,0,0,2.2-1.94h1.19a3.92,3.92,0,0,1-1.22,2.3,3.27,3.27,0,0,1-2.16.77c-2.7,0-3.75-2.59-3.75-5.11,0-3,1.4-5.15,3.71-5.15A3,3,0,0,1,149,56.32a7.11,7.11,0,0,1,.9,4.11Zm4.75-1.06c0-2-.88-3.4-2.36-3.4s-2.36,1.46-2.4,3.4Z"/><path d="M156.41,57.7c0-1.24-.65-1.69-1.58-1.69a1.38,1.38,0,0,0-1.42,1.46c0,1.1.92,1.49,2.11,1.85a2.86,2.86,0,0,1,2.34,3,2.81,2.81,0,0,1-2.92,2.92,2.89,2.89,0,0,1-3.06-3.11h1.19a1.8,1.8,0,0,0,1.87,2,1.57,1.57,0,0,0,1.66-1.71c0-1.19-.83-1.66-2.14-2.07s-2.3-1-2.3-2.79a2.73,2.73,0,0,1,5.46.2Z"/><path d="M164.39,57.7c0-1.24-.65-1.69-1.58-1.69a1.38,1.38,0,0,0-1.42,1.46c0,1.1.92,1.49,2.11,1.85a2.86,2.86,0,0,1,2.34,3,2.81,2.81,0,0,1-2.92,2.92,2.9,2.9,0,0,1-3.06-3.11H161a1.79,1.79,0,0,0,1.87,2,1.57,1.57,0,0,0,1.66-1.71c0-1.19-.83-1.66-2.14-2.07s-2.3-1-2.3-2.79a2.73,2.73,0,0,1,5.46.2Z"/><path d="M169.19,60.42c0,2,.83,3.64,2.49,3.64a2.23,2.23,0,0,0,2.2-1.94h1.19a3.92,3.92,0,0,1-1.22,2.3,3.27,3.27,0,0,1-2.16.77c-2.7,0-3.75-2.59-3.75-5.11,0-3,1.4-5.15,3.71-5.15a3,3,0,0,1,2.63,1.39,7.11,7.11,0,0,1,.9,4.11Zm4.75-1.06c0-2-.88-3.4-2.36-3.4s-2.36,1.46-2.4,3.4Z"/><path d="M178.12,66.45h-1.06l1.19-3.4h1.21Z"/><path d="M189,65h-1.21l-3-9.79h1.22l2.32,8.17,2.25-8.17h1.21Z"/><path d="M193.17,60c0-2.79,1.15-5.11,3.78-5.11s3.76,2.32,3.76,5.13-1.15,5.13-3.76,5.13-3.78-2.32-3.78-5.13Zm1.26,0c0,2.59.85,4,2.54,4s2.49-1.39,2.49-4-.85-4-2.52-4-2.5,1.39-2.5,4Z"/><path d="M203.75,56.3h-1.37V55.16h1.37v-3.1H205v3.1h1.35V56.3H205V65h-1.21Z"/><path d="M208.5,55.16h1.12c0,.9,0,1.46,0,2.05a2.66,2.66,0,0,1,2.61-2.29v1.4a.81.81,0,0,0-.45-.13c-.83,0-2,1-2,3.49V65H208.5Z"/><path d="M214.77,60.42c0,2,.83,3.64,2.49,3.64a2.23,2.23,0,0,0,2.2-1.94h1.19a3.92,3.92,0,0,1-1.22,2.3,3.27,3.27,0,0,1-2.16.77c-2.7,0-3.75-2.59-3.75-5.11,0-3,1.4-5.15,3.71-5.15a3,3,0,0,1,2.63,1.39,7.11,7.11,0,0,1,.9,4.11Zm4.75-1.06c0-2-.88-3.4-2.36-3.4s-2.36,1.46-2.4,3.4Z"/><path d="M228.84,56.3h-1.37V55.16h1.37v-3.1H230v3.1h1.35V56.3H230V65h-1.21Z"/><path d="M234.14,60.42c0,2,.83,3.64,2.48,3.64a2.23,2.23,0,0,0,2.2-1.94H240a3.92,3.92,0,0,1-1.22,2.3,3.28,3.28,0,0,1-2.16.77c-2.7,0-3.74-2.59-3.74-5.11,0-3,1.4-5.15,3.71-5.15a3,3,0,0,1,2.63,1.39,7.13,7.13,0,0,1,.9,4.11Zm4.75-1.06c0-2-.88-3.4-2.36-3.4s-2.36,1.46-2.39,3.4Zm-.38-8.25.5,1-4,2.14-.45-.85Z"/><path d="M242.83,51.63H244V65h-1.21Z"/><path d="M248,60.42c0,2,.83,3.64,2.48,3.64a2.23,2.23,0,0,0,2.2-1.94h1.19a3.92,3.92,0,0,1-1.22,2.3,3.28,3.28,0,0,1-2.16.77c-2.7,0-3.74-2.59-3.74-5.11,0-3,1.4-5.15,3.71-5.15a3,3,0,0,1,2.63,1.39,7.13,7.13,0,0,1,.9,4.11Zm4.75-1.06c0-2-.88-3.4-2.36-3.4s-2.36,1.46-2.39,3.4Zm-.38-8.25.5,1-4,2.14-.45-.85Z"/><path d="M256.6,55.16h1.12c0,.74,0,1.28,0,1.87a2.63,2.63,0,0,1,2.57-2.11c2,0,3.29,2,3.29,5.15s-1.22,5.11-3.29,5.11a2.66,2.66,0,0,1-2.5-2c0,.43,0,.94,0,1.78v3.62H256.6ZM262.36,60c0-2.21-.77-3.93-2.29-3.93a1.88,1.88,0,0,0-1.68,1.08,5.19,5.19,0,0,0-.59,2.86,5.27,5.27,0,0,0,.59,2.86A1.88,1.88,0,0,0,260.07,64c1.51,0,2.29-1.71,2.29-3.94Z"/><path d="M266.14,51.63h1.21v3.46c0,.52,0,1,0,1.62a2.54,2.54,0,0,1,2.63-1.78,2.64,2.64,0,0,1,2.11.88,3.91,3.91,0,0,1,.72,2.7V65h-1.21V58.87a3.55,3.55,0,0,0-.45-2.12,1.7,1.7,0,0,0-1.42-.63,2,2,0,0,0-1.73.79,3.67,3.67,0,0,0-.61,2.48V65h-1.21Z"/><path d="M275.28,60c0-2.79,1.15-5.11,3.78-5.11s3.76,2.32,3.76,5.13-1.15,5.13-3.76,5.13-3.78-2.32-3.78-5.13Zm1.26,0c0,2.59.85,4,2.54,4s2.48-1.39,2.48-4-.85-4-2.52-4-2.5,1.39-2.5,4Z"/><path d="M285.4,55.16h1.08c0,.56,0,1.06,0,1.67a2.79,2.79,0,0,1,2.77-1.91c1.68,0,2.81,1,2.81,3.35V65h-1.21v-6.3c0-1-.14-2.54-1.87-2.54-1.42,0-2.34,1-2.34,3V65H285.4Z"/><path d="M295.84,60.42c0,2,.83,3.64,2.49,3.64a2.23,2.23,0,0,0,2.2-1.94h1.19a3.92,3.92,0,0,1-1.22,2.3,3.28,3.28,0,0,1-2.16.77c-2.7,0-3.75-2.59-3.75-5.11,0-3,1.4-5.15,3.71-5.15a3,3,0,0,1,2.63,1.39,7.12,7.12,0,0,1,.9,4.11Zm4.75-1.06c0-2-.88-3.4-2.36-3.4s-2.36,1.46-2.4,3.4Z"/><path d="M310.22,60.42c0,2,.83,3.64,2.48,3.64a2.23,2.23,0,0,0,2.2-1.94h1.19a3.91,3.91,0,0,1-1.22,2.3,3.27,3.27,0,0,1-2.16.77c-2.7,0-3.75-2.59-3.75-5.11,0-3,1.4-5.15,3.71-5.15a3,3,0,0,1,2.63,1.39,7.12,7.12,0,0,1,.9,4.11ZM315,59.36c0-2-.88-3.4-2.36-3.4s-2.36,1.46-2.39,3.4Z"/><path d="M319.24,56.3h-1.37V55.16h1.37v-3.1h1.21v3.1h1.35V56.3h-1.35V65h-1.21Z"/><path d="M332,65h-1.21l-3-9.79h1.22l2.32,8.17,2.25-8.17h1.21Z"/><path d="M336.16,60c0-2.79,1.15-5.11,3.78-5.11s3.76,2.32,3.76,5.13-1.15,5.13-3.76,5.13-3.78-2.32-3.78-5.13Zm1.26,0c0,2.59.85,4,2.54,4s2.48-1.39,2.48-4-.85-4-2.52-4-2.5,1.39-2.5,4Z"/><path d="M346.74,56.3h-1.37V55.16h1.37v-3.1h1.21v3.1h1.35V56.3h-1.35V65h-1.21Z"/><path d="M351.49,55.16h1.12c0,.9,0,1.46,0,2.05a2.65,2.65,0,0,1,2.61-2.29v1.4a.81.81,0,0,0-.45-.13c-.83,0-2,1-2,3.49V65h-1.21Z"/><path d="M357.76,60.42c0,2,.83,3.64,2.48,3.64a2.23,2.23,0,0,0,2.2-1.94h1.19a3.92,3.92,0,0,1-1.22,2.3,3.28,3.28,0,0,1-2.16.77c-2.7,0-3.74-2.59-3.74-5.11,0-3,1.4-5.15,3.71-5.15a3,3,0,0,1,2.63,1.39,7.13,7.13,0,0,1,.9,4.11Zm4.75-1.06c0-2-.88-3.4-2.36-3.4s-2.36,1.46-2.39,3.4Z"/><path d="M371.4,55.16h1.15c0,.5,0,1,0,1.6A2.42,2.42,0,0,1,375,54.93a2.32,2.32,0,0,1,1.71.67,2.28,2.28,0,0,1,.54,1.17,2.67,2.67,0,0,1,.81-1.24,3,3,0,0,1,1.8-.59,2.52,2.52,0,0,1,2.29,1.26,5.89,5.89,0,0,1,.45,2.68V65H381.4V59a5.9,5.9,0,0,0-.2-1.82,1.5,1.5,0,0,0-1.49-1,1.79,1.79,0,0,0-1.58.79,3.83,3.83,0,0,0-.52,2.14V65h-1.21V59a5.87,5.87,0,0,0-.2-1.87,1.48,1.48,0,0,0-1.48-1,1.85,1.85,0,0,0-1.58.76,3.86,3.86,0,0,0-.52,2.21V65H371.4Z"/><path d="M392.12,65H391c0-.86,0-1.4,0-1.87a2.7,2.7,0,0,1-2.59,2.11c-1.94,0-3.28-2.05-3.28-5.11s1.22-5.15,3.28-5.15A2.65,2.65,0,0,1,391,57.05c0-.59,0-1.15,0-1.89h1.12Zm-5.76-4.88c0,2.21.79,3.93,2.29,3.93a1.93,1.93,0,0,0,1.71-1.08,5.46,5.46,0,0,0,.56-2.86,5.38,5.38,0,0,0-.56-2.86,1.93,1.93,0,0,0-1.71-1.08c-1.5,0-2.29,1.71-2.29,3.94Z"/><path d="M395.36,51.63h1.21V53.4h-1.21Zm0,3.53h1.21V65h-1.21Z"/><path d="M399.95,51.63h1.21V65h-1.21Z"/><path d="M406.14,65h-1.22V63h1.22Z"/></g></g></g></svg>