<svg xmlns="http://www.w3.org/2000/svg" viewBox="0 0 659.25 48.89"><defs><style>.cls-1{isolation:isolate;}.cls-2{fill:#fff;}.cls-3{fill:#4e96b3;stroke:#4e96b3;stroke-miterlimit:10;stroke-width:5px;mix-blend-mode:multiply;}</style></defs><title>game1b_item_zone3_txt</title><g class="cls-1"><g id="Calque_2" data-name="Calque 2"><g id="Calque_9" data-name="Calque 9"><rect class="cls-2" width="404" height="48.89" rx="6.31" ry="6.31" transform="translate(404 48.89) rotate(180)"/></g><g id="Calque_13" data-name="Calque 13"><circle class="cls-3" cx="274.39" cy="15.93" r="11.25"/><path class="cls-2" d="M269.57,13.26a3.76,3.76,0,0,1,4.11-4c2.41,0,3.93,1.44,3.93,3.53A2.55,2.55,0,0,1,276,15.46c1.62.49,2.16,1.93,2.16,3.46A4,4,0,0,1,273.89,23,4.24,4.24,0,0,1,270,21.11a4.87,4.87,0,0,1-.67-2.45h2.81a1.6,1.6,0,0,0,1.67,1.82,1.52,1.52,0,0,0,1.49-1.69,1.76,1.76,0,0,0-2-1.91h-.86V14.47h.68c1.08,0,1.62-.5,1.62-1.4a1.19,1.19,0,0,0-1.28-1.3c-.79,0-1.13.68-1.13,1.49Z"/><path d="M297.94,9.46h2.74v10.8h3.49v2.52h-6.23Z"/><path d="M308.2,22.79h-2.77l3.64-13.32h2.52l3.78,13.32h-2.77l-.68-2.54h-3.06Zm2.16-9.42-.85,4.36h1.69Z"/><path d="M323,9.46h3.84a4.74,4.74,0,0,1,4.12,2,8.12,8.12,0,0,1,1.31,4.7c0,3.64-1.8,6.66-5.35,6.66H323Zm2.74,10.8h1.19c2.21,0,2.54-2.74,2.54-4.14a6.21,6.21,0,0,0-.61-3,2.09,2.09,0,0,0-2-1.12h-1.1Z"/><path d="M335.65,22.79h-2.77l3.64-13.32H339l3.78,13.32H340l-.68-2.54H336.3Zm2.16-9.42L337,17.73h1.69Z"/><path d="M344.85,12h-2.23V9.46h7.2V12h-2.23v10.8h-2.74Z"/><path d="M352.19,9.46h6.48V12h-3.75v2.56h3.75v2.52h-3.75v3.21h3.75v2.52h-6.48Z"/><path d="M367.64,9.46h6.48V12h-3.75v2.56h3.75v2.52h-3.75v3.21h3.75v2.52h-6.48Z"/><path d="M378.72,12h-2.23V9.46h7.2V12h-2.23v10.8h-2.74Z"/><path d="M391.79,9.46h2.74v10.8H398v2.52h-6.23Z"/><path d="M400.5,9.46H407V12h-3.75v2.56H407v2.52h-3.75v3.21H407v2.52H400.5Z"/><path d="M415.95,9.46h2.74v10.8h3.49v2.52h-6.23Z"/><path d="M424.53,9.46h2.74V22.79h-2.74Z"/><path d="M430.38,9.46h6.48V12h-3.74v2.56h3.74v2.52h-3.74v3.21h3.74v2.52h-6.48Z"/><path d="M442.68,9.46v9.07a2.18,2.18,0,0,0,.38,1.46,1.5,1.5,0,0,0,1.28.47,1.57,1.57,0,0,0,1.3-.47,2.29,2.29,0,0,0,.36-1.46V9.46h2.74V19a4,4,0,0,1-1,2.9,5.6,5.6,0,0,1-6.81,0,4.05,4.05,0,0,1-1-2.9V9.46Z"/><path d="M460,16.63h-2.41V14H460Zm0,6.16h-2.41V20.12H460Z"/><path d="M475.39,18.45c0,2.3-1.35,4.57-4.16,4.57s-4.63-2.39-4.63-6.9c0-4.21,1.57-6.9,4.63-6.9,2.81,0,4.18,2.34,4.16,4.86h-1.33c0-1.75-.72-3.6-2.76-3.6-2.32,0-3.31,2.25-3.31,5.76,0,3.78,1.4,5.51,3.31,5.51S474,20,474.05,18.45Z"/><path d="M478.59,18.25c0,2,.83,3.64,2.48,3.64a2.23,2.23,0,0,0,2.2-1.94h1.19a3.92,3.92,0,0,1-1.22,2.3,3.28,3.28,0,0,1-2.16.77c-2.7,0-3.74-2.59-3.74-5.11,0-3,1.4-5.15,3.71-5.15a3,3,0,0,1,2.63,1.39,7.13,7.13,0,0,1,.9,4.11Zm4.75-1.06c0-2-.88-3.4-2.36-3.4s-2.36,1.46-2.39,3.4Z"/><path d="M487.6,14.13h-1.37V13h1.37V9.89h1.21V13h1.35v1.13h-1.35v8.66H487.6Z"/><path d="M492.82,14.13h-1.37V13h1.37V9.89H494V13h1.35v1.13H494v8.66h-1.21Z"/><path d="M498.12,18.25c0,2,.83,3.64,2.49,3.64a2.23,2.23,0,0,0,2.2-1.94H504a3.92,3.92,0,0,1-1.22,2.3,3.28,3.28,0,0,1-2.16.77c-2.7,0-3.75-2.59-3.75-5.11,0-3,1.4-5.15,3.71-5.15a3,3,0,0,1,2.63,1.39,7.12,7.12,0,0,1,.9,4.11Zm4.75-1.06c0-2-.88-3.4-2.36-3.4s-2.36,1.46-2.4,3.4Z"/><path d="M511.87,9.46h1.21v1.76h-1.21Zm0,3.53h1.21v9.79h-1.21Z"/><path d="M516.31,13h1.08c0,.56,0,1.06,0,1.67a2.79,2.79,0,0,1,2.77-1.91c1.67,0,2.81,1,2.81,3.35v6.68h-1.21v-6.3c0-1-.14-2.54-1.87-2.54-1.42,0-2.34,1-2.34,3v5.8h-1.21Z"/><path d="M532.43,22.79h-1.12c0-.9,0-1.44,0-1.94A2.67,2.67,0,0,1,528.73,23c-1.95,0-3.28-2.05-3.28-5.11s1.22-5.15,3.28-5.15a2.57,2.57,0,0,1,2.52,2.07c0-.58,0-1.12,0-1.84V9.46h1.21Zm-5.76-4.9c0,2.21.79,3.93,2.29,3.93a1.92,1.92,0,0,0,1.71-1.08,5.42,5.42,0,0,0,.56-2.86,5.42,5.42,0,0,0-.56-2.86A1.94,1.94,0,0,0,529,13.95c-1.49,0-2.29,1.69-2.29,3.93Z"/><path d="M535.66,9.46h1.21v1.76h-1.21Zm0,3.53h1.21v9.79h-1.21Z"/><path d="M546.56,19.45c-.22,2-1.3,3.57-3.24,3.57-2.61,0-3.78-2.45-3.78-5.11,0-3.21,1.51-5.15,3.73-5.15,2,0,3.15,1.55,3.24,3.62h-1.22c-.2-1.94-1.13-2.48-2.05-2.48a1.9,1.9,0,0,0-1.78,1,5.8,5.8,0,0,0-.63,3c0,2.57.88,4,2.43,4,1.21,0,1.89-1,2.07-2.43Z"/><path d="M555.29,22.79h-1.12c0-.86,0-1.4,0-1.87A2.7,2.7,0,0,1,551.59,23c-1.94,0-3.28-2.05-3.28-5.11s1.22-5.15,3.28-5.15a2.65,2.65,0,0,1,2.59,2.12c0-.59,0-1.15,0-1.89h1.12Zm-5.76-4.88c0,2.21.79,3.93,2.29,3.93a1.93,1.93,0,0,0,1.71-1.08,5.46,5.46,0,0,0,.56-2.86,5.38,5.38,0,0,0-.56-2.86,1.93,1.93,0,0,0-1.71-1.08c-1.5,0-2.29,1.71-2.29,3.94Z"/><path d="M558.85,14.13h-1.37V13h1.37V9.89h1.21V13h1.35v1.13h-1.35v8.66h-1.21Z"/><path d="M563.74,9.46h1.21v1.76h-1.21Zm0,3.53h1.21v9.79h-1.21Z"/><path d="M567.67,17.87c0-2.79,1.15-5.11,3.78-5.11s3.76,2.32,3.76,5.13S574.06,23,571.45,23s-3.78-2.32-3.78-5.13Zm1.26,0c0,2.59.85,4,2.54,4s2.48-1.39,2.48-4-.85-4-2.52-4-2.5,1.39-2.5,4Z"/><path d="M577.78,13h1.08c0,.56,0,1.06,0,1.67a2.79,2.79,0,0,1,2.77-1.91c1.68,0,2.81,1,2.81,3.35v6.68H583.2v-6.3c0-1-.14-2.54-1.87-2.54-1.42,0-2.34,1-2.34,3v5.8h-1.21Z"/><path d="M592.51,13h1.12c0,.74,0,1.28,0,1.87a2.63,2.63,0,0,1,2.57-2.11c2,0,3.29,2,3.29,5.15S598.25,23,596.18,23a2.66,2.66,0,0,1-2.5-2c0,.43,0,.94,0,1.78v3.62h-1.21Zm5.76,4.88c0-2.21-.78-3.93-2.29-3.93A1.87,1.87,0,0,0,594.31,15a5.18,5.18,0,0,0-.59,2.86,5.26,5.26,0,0,0,.59,2.86A1.87,1.87,0,0,0,596,21.83c1.51,0,2.29-1.71,2.29-3.94Z"/><path d="M602.82,18.25c0,2,.83,3.64,2.49,3.64a2.23,2.23,0,0,0,2.2-1.94h1.19a3.92,3.92,0,0,1-1.22,2.3,3.28,3.28,0,0,1-2.16.77c-2.7,0-3.75-2.59-3.75-5.11,0-3,1.4-5.15,3.71-5.15a3,3,0,0,1,2.63,1.39,7.12,7.12,0,0,1,.9,4.11Zm4.75-1.06c0-2-.88-3.4-2.36-3.4s-2.36,1.46-2.4,3.4Z"/><path d="M617.94,22.79h-1.12c0-.56,0-1.1,0-1.71A2.75,2.75,0,0,1,614.13,23c-1.67,0-2.81-1-2.81-3.35V13h1.21v6.3c0,1,.14,2.54,1.87,2.54,1.42,0,2.34-1,2.34-3V13h1.21Z"/><path d="M621.51,14.13h-1.37V13h1.37V9.89h1.21V13h1.35v1.13h-1.35v8.66h-1.21Z"/><path d="M629.34,17.15v1.21h-3.82V17.15Z"/><path d="M632.47,18.25c0,2,.83,3.64,2.48,3.64a2.23,2.23,0,0,0,2.2-1.94h1.19a3.91,3.91,0,0,1-1.22,2.3A3.27,3.27,0,0,1,635,23c-2.7,0-3.75-2.59-3.75-5.11,0-3,1.4-5.15,3.71-5.15a3,3,0,0,1,2.63,1.39,7.12,7.12,0,0,1,.9,4.11Zm5.46-6.57h-1.28l-1.84-1.53L633,11.68h-1.28l2.54-2.21h1.17Zm-.7,5.51c0-2-.88-3.4-2.36-3.4s-2.36,1.46-2.39,3.4Z"/><path d="M641.48,14.13h-1.37V13h1.37V9.89h1.21V13H644v1.13h-1.35v8.66h-1.21Z"/><path d="M646.24,13h1.12c0,.9,0,1.46,0,2.05a2.65,2.65,0,0,1,2.61-2.29v1.4a.82.82,0,0,0-.45-.13c-.83,0-2,1-2,3.49v5.26h-1.21Z"/><path d="M652.5,18.25c0,2,.83,3.64,2.49,3.64a2.23,2.23,0,0,0,2.2-1.94h1.19a3.92,3.92,0,0,1-1.22,2.3A3.28,3.28,0,0,1,655,23c-2.7,0-3.75-2.59-3.75-5.11,0-3,1.4-5.15,3.71-5.15a3,3,0,0,1,2.63,1.39,7.12,7.12,0,0,1,.9,4.11Zm4.75-1.06c0-2-.88-3.4-2.36-3.4s-2.36,1.46-2.4,3.4Z"/><path d="M397,44.39h-1.12c0-.56,0-1.1,0-1.71a2.75,2.75,0,0,1-2.74,1.94c-1.67,0-2.81-1-2.81-3.35V34.59h1.21v6.3c0,1,.14,2.54,1.87,2.54,1.42,0,2.34-1,2.34-3v-5.8H397Z"/><path d="M400.56,35.73h-1.37V34.59h1.37v-3.1h1.21v3.1h1.35v1.13h-1.35v8.66h-1.21Z"/><path d="M405.45,31.06h1.21v1.76h-1.21Zm0,3.53h1.21v9.79h-1.21Z"/><path d="M410,31.06h1.21V44.39H410Z"/><path d="M415.26,39.85c0,2,.83,3.64,2.48,3.64a2.23,2.23,0,0,0,2.2-1.94h1.19a3.92,3.92,0,0,1-1.22,2.3,3.28,3.28,0,0,1-2.16.77C415,44.62,414,42,414,39.51c0-3,1.4-5.15,3.71-5.15a3,3,0,0,1,2.63,1.39,7.13,7.13,0,0,1,.9,4.11ZM420,38.79c0-2-.88-3.4-2.36-3.4s-2.36,1.46-2.39,3.4Z"/><path d="M429,31.06h1.21V44.39H429Z"/><path d="M432.94,39.47c0-2.79,1.15-5.11,3.78-5.11s3.76,2.32,3.76,5.13-1.15,5.13-3.76,5.13-3.78-2.32-3.78-5.13Zm1.26,0c0,2.59.85,4,2.54,4s2.49-1.39,2.49-4-.85-4-2.52-4-2.5,1.39-2.5,4Z"/><path d="M443.06,34.59h1.12c0,.9,0,1.46,0,2.05a2.66,2.66,0,0,1,2.61-2.29v1.4a.81.81,0,0,0-.45-.13c-.83,0-2,1-2,3.49v5.26h-1.21Z"/><path d="M452.85,37.13c0-1.24-.65-1.69-1.58-1.69a1.38,1.38,0,0,0-1.42,1.46c0,1.1.92,1.49,2.11,1.85a2.86,2.86,0,0,1,2.34,3,2.81,2.81,0,0,1-2.92,2.92,2.9,2.9,0,0,1-3.06-3.11h1.19a1.79,1.79,0,0,0,1.87,2A1.57,1.57,0,0,0,453,41.79c0-1.19-.83-1.66-2.14-2.07s-2.3-1-2.3-2.79a2.73,2.73,0,0,1,5.46.2Z"/><path d="M468.38,44.39h-1.12c0-.9,0-1.44,0-1.94a2.67,2.67,0,0,1-2.59,2.18c-1.94,0-3.28-2.05-3.28-5.11s1.22-5.15,3.28-5.15a2.57,2.57,0,0,1,2.52,2.07c0-.58,0-1.12,0-1.84V31.06h1.21Zm-5.76-4.9c0,2.21.79,3.93,2.29,3.93a1.93,1.93,0,0,0,1.71-1.08,5.42,5.42,0,0,0,.56-2.86,5.42,5.42,0,0,0-.56-2.86,1.94,1.94,0,0,0-1.71-1.06c-1.49,0-2.29,1.69-2.29,3.93Z"/><path d="M472.61,31.06h1.31l-1.42,3.4h-1.17Z"/><path d="M483.4,44.39h-1.12c0-.56,0-1.1,0-1.71a2.75,2.75,0,0,1-2.74,1.94c-1.67,0-2.81-1-2.81-3.35V34.59H478v6.3c0,1,.14,2.54,1.87,2.54,1.42,0,2.34-1,2.34-3v-5.8h1.21Z"/><path d="M486.49,34.59h1.08c0,.56,0,1.06,0,1.67a2.79,2.79,0,0,1,2.77-1.91c1.67,0,2.81,1,2.81,3.35v6.68h-1.21v-6.3c0-1-.14-2.54-1.87-2.54-1.42,0-2.34,1-2.34,3v5.8h-1.21Z"/><path d="M502,39.85c0,2,.83,3.64,2.49,3.64a2.23,2.23,0,0,0,2.2-1.94h1.19a3.92,3.92,0,0,1-1.22,2.3,3.28,3.28,0,0,1-2.16.77c-2.7,0-3.75-2.59-3.75-5.11,0-3,1.4-5.15,3.71-5.15a3,3,0,0,1,2.63,1.39,7.12,7.12,0,0,1,.9,4.11Zm4.75-1.06c0-2-.88-3.4-2.36-3.4s-2.36,1.46-2.4,3.4Zm-.38-8.25.5,1-4,2.14-.45-.85Z"/><path d="M513.36,44.39h-1.21l-3-9.79h1.22l2.32,8.17L515,34.59h1.21Z"/><path d="M518.78,39.85c0,2,.83,3.64,2.48,3.64a2.23,2.23,0,0,0,2.2-1.94h1.19a3.91,3.91,0,0,1-1.22,2.3,3.27,3.27,0,0,1-2.16.77c-2.7,0-3.75-2.59-3.75-5.11,0-3,1.4-5.15,3.71-5.15a3,3,0,0,1,2.63,1.39,7.12,7.12,0,0,1,.9,4.11Zm4.75-1.06c0-2-.88-3.4-2.36-3.4s-2.36,1.46-2.39,3.4Z"/><path d="M527.33,34.59h1.08c0,.56,0,1.06,0,1.67a2.79,2.79,0,0,1,2.77-1.91c1.67,0,2.81,1,2.81,3.35v6.68h-1.21v-6.3c0-1-.14-2.54-1.87-2.54-1.42,0-2.34,1-2.34,3v5.8h-1.21Z"/><path d="M537.47,35.73H536.1V34.59h1.37v-3.1h1.21v3.1H540v1.13h-1.35v8.66h-1.21Z"/><path d="M548.79,44.39h-1.12c0-.56,0-1.1,0-1.71A2.75,2.75,0,0,1,545,44.62c-1.67,0-2.81-1-2.81-3.35V34.59h1.21v6.3c0,1,.14,2.54,1.87,2.54,1.42,0,2.34-1,2.34-3v-5.8h1.21Z"/><path d="M552.66,39.85c0,2,.83,3.64,2.48,3.64a2.23,2.23,0,0,0,2.2-1.94h1.19a3.92,3.92,0,0,1-1.22,2.3,3.28,3.28,0,0,1-2.16.77c-2.7,0-3.74-2.59-3.74-5.11,0-3,1.4-5.15,3.71-5.15a3,3,0,0,1,2.63,1.39,7.13,7.13,0,0,1,.9,4.11Zm4.75-1.06c0-2-.88-3.4-2.36-3.4s-2.36,1.46-2.39,3.4Z"/><path d="M561.35,31.06h1.21V44.39h-1.21Z"/><path d="M577.3,41.05c-.22,2-1.3,3.57-3.24,3.57-2.61,0-3.78-2.45-3.78-5.11,0-3.21,1.51-5.15,3.73-5.15,2,0,3.15,1.55,3.24,3.62H576c-.2-1.94-1.13-2.48-2.05-2.48a1.9,1.9,0,0,0-1.78,1,5.81,5.81,0,0,0-.63,3c0,2.57.88,4,2.43,4,1.21,0,1.89-1,2.07-2.43Z"/><path d="M579.73,31.06h1.21V44.39h-1.21Z"/><path d="M590.62,44.39H589.5c0-.86,0-1.4,0-1.87a2.69,2.69,0,0,1-2.59,2.11c-1.95,0-3.28-2.05-3.28-5.11s1.22-5.15,3.28-5.15a2.64,2.64,0,0,1,2.59,2.12c0-.59,0-1.15,0-1.89h1.12Zm-5.76-4.88c0,2.21.79,3.93,2.29,3.93a1.93,1.93,0,0,0,1.71-1.08,5.46,5.46,0,0,0,.56-2.86,5.38,5.38,0,0,0-.56-2.86,1.93,1.93,0,0,0-1.71-1.08c-1.49,0-2.29,1.71-2.29,3.94Z"/><path d="M597.66,37.13c0-1.24-.65-1.69-1.58-1.69a1.38,1.38,0,0,0-1.42,1.46c0,1.1.92,1.49,2.11,1.85a2.86,2.86,0,0,1,2.34,3,2.81,2.81,0,0,1-2.92,2.92,2.9,2.9,0,0,1-3.06-3.11h1.19a1.79,1.79,0,0,0,1.87,2,1.57,1.57,0,0,0,1.66-1.71c0-1.19-.83-1.66-2.14-2.07s-2.3-1-2.3-2.79a2.73,2.73,0,0,1,5.46.2Z"/><path d="M605.63,37.13c0-1.24-.65-1.69-1.58-1.69a1.38,1.38,0,0,0-1.42,1.46c0,1.1.92,1.49,2.11,1.85a2.86,2.86,0,0,1,2.34,3,2.81,2.81,0,0,1-2.92,2.92,2.9,2.9,0,0,1-3.06-3.11h1.19a1.79,1.79,0,0,0,1.87,2,1.57,1.57,0,0,0,1.66-1.71c0-1.19-.83-1.66-2.14-2.07s-2.3-1-2.3-2.79a2.73,2.73,0,0,1,5.46.2Z"/><path d="M610.44,39.85c0,2,.83,3.64,2.49,3.64a2.23,2.23,0,0,0,2.2-1.94h1.19a3.92,3.92,0,0,1-1.22,2.3,3.28,3.28,0,0,1-2.16.77c-2.7,0-3.75-2.59-3.75-5.11,0-3,1.4-5.15,3.71-5.15a3,3,0,0,1,2.63,1.39,7.12,7.12,0,0,1,.9,4.11Zm4.75-1.06c0-2-.88-3.4-2.36-3.4s-2.36,1.46-2.4,3.4Z"/><path d="M619,34.59h1.15c0,.5,0,1,0,1.6a2.42,2.42,0,0,1,2.48-1.84,2.32,2.32,0,0,1,1.71.67,2.28,2.28,0,0,1,.54,1.17,2.69,2.69,0,0,1,.81-1.24,3,3,0,0,1,1.8-.59,2.52,2.52,0,0,1,2.29,1.26,5.9,5.9,0,0,1,.45,2.68v6.09H629v-6a5.9,5.9,0,0,0-.2-1.82,1.5,1.5,0,0,0-1.49-1,1.79,1.79,0,0,0-1.58.79,3.83,3.83,0,0,0-.52,2.14v5.91H624V38.44a5.84,5.84,0,0,0-.2-1.87,1.48,1.48,0,0,0-1.48-1,1.85,1.85,0,0,0-1.58.76,3.86,3.86,0,0,0-.52,2.21v5.87H619Z"/><path d="M634.07,39.85c0,2,.83,3.64,2.48,3.64a2.23,2.23,0,0,0,2.2-1.94h1.19a3.91,3.91,0,0,1-1.22,2.3,3.27,3.27,0,0,1-2.16.77c-2.7,0-3.75-2.59-3.75-5.11,0-3,1.4-5.15,3.71-5.15a3,3,0,0,1,2.63,1.39,7.12,7.12,0,0,1,.9,4.11Zm4.75-1.06c0-2-.88-3.4-2.36-3.4s-2.36,1.46-2.39,3.4Z"/><path d="M642.62,34.59h1.08c0,.56,0,1.06,0,1.67a2.79,2.79,0,0,1,2.77-1.91c1.67,0,2.81,1,2.81,3.35v6.68H648v-6.3c0-1-.14-2.54-1.87-2.54-1.42,0-2.34,1-2.34,3v5.8h-1.21Z"/><path d="M652.75,35.73h-1.37V34.59h1.37v-3.1H654v3.1h1.35v1.13H654v8.66h-1.21Z"/><path d="M659.25,44.39H658V42.48h1.22Z"/></g></g></g></svg>