<svg xmlns="http://www.w3.org/2000/svg" viewBox="0 0 660.66 76"><defs><style>.cls-1{isolation:isolate;}.cls-2{fill:#fff;}.cls-3{fill:#4e96b3;stroke:#4e96b3;stroke-miterlimit:10;stroke-width:5px;mix-blend-mode:multiply;}</style></defs><title>game1b_item_zone7_txt</title><g class="cls-1"><g id="Calque_2" data-name="Calque 2"><g id="Calque_9" data-name="Calque 9"><rect class="cls-2" x="0.11" width="659.14" height="76" rx="6.31" ry="6.31" transform="translate(659.36 76) rotate(180)"/></g><g id="Calque_13" data-name="Calque 13"><circle class="cls-3" cx="13.75" cy="15.25" r="11.25"/><path class="cls-2" d="M17.88,9v2.23L14.06,22.32H11.15L15,11.41H9.89V9Z"/><path d="M31.46,9H34.2V19.8h3.49v2.52H31.46Z"/><path d="M40.17,9h6.48v2.52H42.91v2.56h3.75v2.52H42.91v3.2h3.75v2.52H40.17Z"/><path d="M60.34,9h3.84a4.74,4.74,0,0,1,4.12,2,8.13,8.13,0,0,1,1.31,4.7c0,3.64-1.8,6.66-5.35,6.66H60.34Zm2.74,10.8h1.19c2.21,0,2.54-2.74,2.54-4.14a6.21,6.21,0,0,0-.61-3,2.09,2.09,0,0,0-2-1.12h-1.1Z"/><path d="M72.2,9h6.48v2.52H74.94v2.56h3.74v2.52H74.94v3.2h3.74v2.52H72.2Zm5.6-4.07.92,1.93L74.55,8.71l-.83-1.57Z"/><path d="M80.83,9h2.66l2.21,9.16L88,9h2.56L86.88,22.32H84.46Z"/><path d="M92.65,9h6.48v2.52H95.39v2.56h3.75v2.52H95.39v3.2h3.75v2.52H92.65Z"/><path d="M102.37,9h2.74V19.8h3.49v2.52h-6.23Z"/><path d="M109.79,15.64c0-4.16,1.62-6.9,4.9-6.9s4.9,2.74,4.9,6.91-1.62,6.91-4.9,6.91-4.9-2.74-4.9-6.91Zm2.81,0c0,3.19.69,4.38,2.09,4.38s2.09-1.19,2.09-4.39-.68-4.39-2.09-4.39-2.09,1.19-2.09,4.39Z"/><path d="M126,9a4.45,4.45,0,0,1,3.13,1.12,4.31,4.31,0,0,1,1.22,3.22,4.28,4.28,0,0,1-1.22,3.22A4.45,4.45,0,0,1,126,17.67h-1v4.65h-2.74V9Zm-1,6.16h1a1.44,1.44,0,0,0,1.19-.43,1.94,1.94,0,0,0,.4-1.39,2,2,0,0,0-.4-1.4,1.49,1.49,0,0,0-1.19-.41h-1Z"/><path d="M136.68,9a4.45,4.45,0,0,1,3.13,1.12A4.31,4.31,0,0,1,141,13.34a4.28,4.28,0,0,1-1.22,3.22,4.45,4.45,0,0,1-3.13,1.12h-1v4.65H132.9V9Zm-1,6.16h1a1.44,1.44,0,0,0,1.19-.43,1.93,1.93,0,0,0,.4-1.39,2,2,0,0,0-.4-1.4,1.49,1.49,0,0,0-1.19-.41h-1Z"/><path d="M143.63,9h6.48v2.52h-3.75v2.56h3.75v2.52h-3.75v3.2h3.75v2.52h-6.48Z"/><path d="M153.28,22.32V9h4l1.84,8.59L160.93,9h4V22.32h-2.41V12l-2.41,10.33h-2L155.69,12V22.32Z"/><path d="M168.07,9h6.48v2.52h-3.74v2.56h3.74v2.52h-3.74v3.2h3.74v2.52h-6.48Z"/><path d="M183.91,16.83V9h2.41V22.32h-2.45l-3.75-8.53v8.53h-2.41V9h2.77Z"/><path d="M190.88,11.52h-2.23V9h7.2v2.52h-2.23v10.8h-2.74Z"/><path d="M210.92,8.78h2.41l-4.14,13.76h-2.41Z"/><path d="M225.13,9h2.74V19.8h3.49v2.52h-6.23Z"/><path d="M233.85,9h6.48v2.52h-3.74v2.56h3.74v2.52h-3.74v3.2h3.74v2.52h-6.48Z"/><path d="M245.65,18.12c0,1.39.5,2,1.69,2a1.44,1.44,0,0,0,1.55-1.58c0-1.21-1.44-1.49-2.88-2.05s-2.88-1.4-2.88-3.66a3.83,3.83,0,0,1,4.09-4.14c2.47,0,3.83,1.19,4.23,3.82h-2.66A1.42,1.42,0,0,0,247.33,11a1.36,1.36,0,0,0-1.39,1.46c0,1.26,1.44,1.49,2.88,2.07a3.91,3.91,0,0,1,2.88,4c0,2.5-1.87,4-4.41,4-3,0-4.37-1.64-4.37-4.45Z"/><path d="M264.81,22.32V9h4l1.84,8.59L272.47,9h4V22.32H274V12l-2.41,10.33h-2L267.23,12V22.32Z"/><path d="M278.95,15.64c0-4.16,1.62-6.9,4.9-6.9s4.9,2.74,4.9,6.91-1.62,6.91-4.9,6.91-4.9-2.74-4.9-6.91Zm2.81,0c0,3.19.68,4.38,2.09,4.38s2.09-1.19,2.09-4.39-.68-4.39-2.09-4.39-2.09,1.19-2.09,4.39Z"/><path d="M292.16,11.52h-2.23V9h7.2v2.52H294.9v10.8h-2.74Z"/><path d="M299.38,9h2.74V22.32h-2.74Z"/><path d="M304.13,9h2.66L309,18.16,311.26,9h2.56l-3.64,13.32h-2.41Z"/><path d="M316.57,22.32h-2.77L317.43,9H320l3.78,13.32H321l-.68-2.54h-3.06Zm2.16-9.42-.85,4.36h1.69Z"/><path d="M325.76,11.52h-2.23V9h7.2v2.52H328.5v10.8h-2.74Z"/><path d="M333,9h2.74V22.32H333Z"/><path d="M338.16,15.64c0-4.16,1.62-6.9,4.9-6.9s4.9,2.74,4.9,6.91-1.62,6.91-4.9,6.91-4.9-2.74-4.9-6.91Zm2.81,0c0,3.19.68,4.38,2.09,4.38s2.09-1.19,2.09-4.39-.68-4.39-2.09-4.39S341,12.45,341,15.66Z"/><path d="M356.67,16.83V9h2.41V22.32h-2.45l-3.75-8.53v8.53h-2.41V9h2.77Z"/><path d="M364.36,18.12c0,1.39.5,2,1.69,2a1.44,1.44,0,0,0,1.55-1.58c0-1.21-1.44-1.49-2.88-2.05s-2.88-1.4-2.88-3.66a3.83,3.83,0,0,1,4.09-4.14c2.47,0,3.83,1.19,4.23,3.82h-2.66A1.42,1.42,0,0,0,366,11a1.36,1.36,0,0,0-1.39,1.46c0,1.26,1.44,1.49,2.88,2.07a3.91,3.91,0,0,1,2.88,4c0,2.5-1.87,4-4.41,4-3,0-4.37-1.64-4.37-4.45Z"/><path d="M386,16.16h-2.41V13.5H386Zm0,6.16h-2.41V19.66H386Z"/><path d="M406.3,18c0,2.3-1.35,4.57-4.16,4.57s-4.63-2.39-4.63-6.9c0-4.21,1.57-6.9,4.63-6.9,2.81,0,4.18,2.34,4.16,4.86H405c0-1.75-.72-3.6-2.75-3.6-2.32,0-3.31,2.25-3.31,5.76,0,3.78,1.4,5.51,3.31,5.51S404.9,19.58,405,18Z"/><path d="M409.43,17.78c0,2,.83,3.64,2.49,3.64a2.23,2.23,0,0,0,2.2-1.94h1.19a3.92,3.92,0,0,1-1.22,2.3,3.28,3.28,0,0,1-2.16.77c-2.7,0-3.75-2.59-3.75-5.11,0-3,1.4-5.15,3.71-5.15a3,3,0,0,1,2.63,1.39,7.12,7.12,0,0,1,.9,4.11Zm4.75-1.06c0-2-.88-3.4-2.36-3.4s-2.36,1.46-2.4,3.4Z"/><path d="M418.37,13.66H417V12.52h1.37V9.43h1.21v3.1h1.35v1.13h-1.35v8.66h-1.21Z"/><path d="M423.52,13.66h-1.37V12.52h1.37V9.43h1.21v3.1h1.35v1.13h-1.35v8.66h-1.21Z"/><path d="M428.74,17.78c0,2,.83,3.64,2.48,3.64a2.23,2.23,0,0,0,2.2-1.94h1.19a3.92,3.92,0,0,1-1.22,2.3,3.28,3.28,0,0,1-2.16.77c-2.7,0-3.74-2.59-3.74-5.11,0-3,1.4-5.15,3.71-5.15a3,3,0,0,1,2.63,1.39,7.13,7.13,0,0,1,.9,4.11Zm4.75-1.06c0-2-.88-3.4-2.36-3.4s-2.36,1.46-2.39,3.4Z"/><path d="M446.59,9h1.21V22.32h-1.21Z"/><path d="M451.74,17.78c0,2,.83,3.64,2.49,3.64a2.23,2.23,0,0,0,2.2-1.94h1.19a3.92,3.92,0,0,1-1.22,2.3,3.28,3.28,0,0,1-2.16.77c-2.7,0-3.75-2.59-3.75-5.11,0-3,1.4-5.15,3.71-5.15a3,3,0,0,1,2.63,1.39,7.12,7.12,0,0,1,.9,4.11Zm4.75-1.06c0-2-.88-3.4-2.36-3.4s-2.36,1.46-2.4,3.4Z"/><path d="M460.69,13.66h-1.37V12.52h1.37V9.43h1.21v3.1h1.35v1.13h-1.35v8.66h-1.21Z"/><path d="M465.84,13.66h-1.37V12.52h1.37V9.43H467v3.1h1.35v1.13H467v8.66h-1.21Z"/><path d="M470.52,12.52h1.12c0,.9,0,1.46,0,2.05a2.66,2.66,0,0,1,2.61-2.29v1.4a.81.81,0,0,0-.45-.13c-.83,0-2,1-2,3.49v5.26h-1.21Z"/><path d="M476.71,17.78c0,2,.83,3.64,2.48,3.64a2.23,2.23,0,0,0,2.2-1.94h1.19a3.91,3.91,0,0,1-1.22,2.3,3.27,3.27,0,0,1-2.16.77c-2.7,0-3.75-2.59-3.75-5.11,0-3,1.4-5.15,3.71-5.15a3,3,0,0,1,2.63,1.39,7.12,7.12,0,0,1,.9,4.11Zm4.75-1.06c0-2-.88-3.4-2.36-3.4s-2.36,1.46-2.39,3.4Z"/><path d="M500.86,22.32h-1.12c0-.9,0-1.44,0-1.94a2.67,2.67,0,0,1-2.59,2.18c-1.95,0-3.28-2.05-3.28-5.11s1.22-5.15,3.28-5.15a2.58,2.58,0,0,1,2.52,2.07c0-.58,0-1.12,0-1.84V9h1.21Zm-5.76-4.9c0,2.21.79,3.93,2.29,3.93a1.92,1.92,0,0,0,1.71-1.08,5.42,5.42,0,0,0,.56-2.86,5.42,5.42,0,0,0-.56-2.86,1.94,1.94,0,0,0-1.71-1.06c-1.49,0-2.29,1.69-2.29,3.93Z"/><path d="M503.36,17.4c0-2.79,1.15-5.11,3.78-5.11s3.76,2.32,3.76,5.13-1.15,5.13-3.76,5.13-3.78-2.32-3.78-5.13Zm1.26,0c0,2.59.85,4,2.54,4s2.48-1.39,2.48-4-.85-4-2.52-4-2.5,1.39-2.5,4Z"/><path d="M513.55,9h1.21v1.76h-1.21Zm0,3.53h1.21v9.79h-1.21Z"/><path d="M518.39,13.66H517V12.52h1.37V9.43h1.21v3.1h1.35v1.13H519.6v8.66h-1.21Z"/><path d="M538.74,22.32h-1.12c0-.9,0-1.44,0-1.94a2.67,2.67,0,0,1-2.59,2.18c-1.95,0-3.28-2.05-3.28-5.11s1.22-5.15,3.28-5.15a2.57,2.57,0,0,1,2.52,2.07c0-.58,0-1.12,0-1.84V9h1.21ZM533,17.42c0,2.21.79,3.93,2.29,3.93A1.93,1.93,0,0,0,537,20.27a5.42,5.42,0,0,0,.56-2.86,5.42,5.42,0,0,0-.56-2.86,1.94,1.94,0,0,0-1.71-1.06c-1.49,0-2.29,1.69-2.29,3.93Z"/><path d="M541.24,17.4c0-2.79,1.15-5.11,3.78-5.11s3.76,2.32,3.76,5.13-1.15,5.13-3.76,5.13-3.78-2.32-3.78-5.13Zm1.26,0c0,2.59.85,4,2.54,4s2.49-1.39,2.49-4-.85-4-2.52-4-2.5,1.39-2.5,4Z"/><path d="M551.29,12.52h1.08c0,.56,0,1.06,0,1.67a2.79,2.79,0,0,1,2.77-1.91c1.68,0,2.81,1,2.81,3.35v6.68h-1.21V16c0-1-.14-2.54-1.87-2.54-1.42,0-2.34,1-2.34,3v5.8h-1.21Z"/><path d="M560.88,12.52H562c0,.56,0,1.06,0,1.67a2.79,2.79,0,0,1,2.77-1.91c1.68,0,2.81,1,2.81,3.35v6.68H566.3V16c0-1-.14-2.54-1.87-2.54-1.42,0-2.34,1-2.34,3v5.8h-1.21Z"/><path d="M571.25,17.78c0,2,.83,3.64,2.49,3.64a2.23,2.23,0,0,0,2.2-1.94h1.19a3.92,3.92,0,0,1-1.22,2.3,3.28,3.28,0,0,1-2.16.77C571,22.55,570,20,570,17.44c0-3,1.4-5.15,3.71-5.15a3,3,0,0,1,2.63,1.39,7.12,7.12,0,0,1,.9,4.11ZM576,16.72c0-2-.88-3.4-2.36-3.4s-2.36,1.46-2.4,3.4Z"/><path d="M579.73,12.52h1.12c0,.9,0,1.46,0,2.05a2.65,2.65,0,0,1,2.61-2.29v1.4a.82.82,0,0,0-.45-.13c-.83,0-2,1-2,3.49v5.26h-1.21Z"/><path d="M595.36,17.78c0,2,.83,3.64,2.49,3.64a2.23,2.23,0,0,0,2.2-1.94h1.19a3.92,3.92,0,0,1-1.22,2.3,3.27,3.27,0,0,1-2.16.77c-2.7,0-3.75-2.59-3.75-5.11,0-3,1.4-5.15,3.71-5.15a3,3,0,0,1,2.63,1.39,7.11,7.11,0,0,1,.9,4.11Zm4.75-1.06c0-2-.88-3.4-2.36-3.4s-2.36,1.46-2.4,3.4Z"/><path d="M603.84,12.52h1.08c0,.56,0,1.06,0,1.67a2.79,2.79,0,0,1,2.77-1.91c1.67,0,2.81,1,2.81,3.35v6.68h-1.21V16c0-1-.14-2.54-1.87-2.54-1.42,0-2.34,1-2.34,3v5.8h-1.21Z"/><path d="M616.42,22.32h-1.21l-3-9.79h1.22l2.32,8.17,2.25-8.17h1.21Z"/><path d="M621.27,9h1.21v1.76h-1.21Zm0,3.53h1.21v9.79h-1.21Z"/><path d="M626.41,17.78c0,2,.83,3.64,2.49,3.64a2.23,2.23,0,0,0,2.2-1.94h1.19a3.92,3.92,0,0,1-1.22,2.3,3.28,3.28,0,0,1-2.16.77c-2.7,0-3.75-2.59-3.75-5.11,0-3,1.4-5.15,3.71-5.15a3,3,0,0,1,2.63,1.39,7.12,7.12,0,0,1,.9,4.11Zm4.75-1.06c0-2-.88-3.4-2.36-3.4s-2.36,1.46-2.4,3.4Z"/><path d="M650.56,22.32h-1.12c0-.86,0-1.4,0-1.87a2.69,2.69,0,0,1-2.59,2.11c-1.94,0-3.28-2.05-3.28-5.11s1.22-5.15,3.28-5.15a2.65,2.65,0,0,1,2.59,2.12c0-.59,0-1.15,0-1.89h1.12Zm-5.76-4.88c0,2.21.79,3.93,2.29,3.93a1.93,1.93,0,0,0,1.71-1.08,5.46,5.46,0,0,0,.56-2.86,5.38,5.38,0,0,0-.56-2.86,1.93,1.93,0,0,0-1.71-1.08c-1.5,0-2.29,1.71-2.29,3.94Z"/><path d="M660.16,22.32H659c0-.56,0-1.1,0-1.71a2.75,2.75,0,0,1-2.74,1.94c-1.68,0-2.81-1-2.81-3.35V12.52h1.21v6.3c0,1,.14,2.54,1.87,2.54,1.42,0,2.34-1,2.34-3v-5.8h1.21Z"/><path d="M10.07,34.13h1.12c0,.9,0,1.46,0,2.05a2.65,2.65,0,0,1,2.61-2.29v1.4a.82.82,0,0,0-.45-.13c-.83,0-2,1-2,3.49v5.26H10.07Z"/><path d="M16.26,39.38c0,2,.83,3.64,2.49,3.64a2.23,2.23,0,0,0,2.2-1.94h1.19a3.92,3.92,0,0,1-1.22,2.3,3.28,3.28,0,0,1-2.16.77C16,44.15,15,41.56,15,39c0-3,1.4-5.15,3.71-5.15a3,3,0,0,1,2.63,1.39,7.12,7.12,0,0,1,.9,4.11ZM21,38.32c0-2-.88-3.4-2.36-3.4s-2.36,1.46-2.4,3.4Z"/><path d="M31.18,40.59c-.22,2-1.3,3.57-3.24,3.57-2.61,0-3.78-2.45-3.78-5.11,0-3.21,1.51-5.15,3.73-5.15,2,0,3.15,1.55,3.24,3.62H29.9c-.2-1.94-1.13-2.48-2.05-2.48a1.9,1.9,0,0,0-1.78,1,5.81,5.81,0,0,0-.63,3c0,2.57.88,4,2.43,4,1.21,0,1.89-1,2.07-2.43Z"/><path d="M33.4,34.13h1.12c0,.9,0,1.46,0,2.05a2.65,2.65,0,0,1,2.61-2.29v1.4a.81.81,0,0,0-.45-.13c-.83,0-2,1-2,3.49v5.26H33.4Z"/><path d="M45.6,43.92H44.48c0-.56,0-1.1,0-1.71a2.75,2.75,0,0,1-2.74,1.94c-1.68,0-2.81-1-2.81-3.35V34.13h1.21v6.3c0,1,.14,2.54,1.87,2.54,1.42,0,2.34-1,2.34-3v-5.8H45.6Z"/><path d="M49.09,35.26H47.72V34.13h1.37V31H50.3v3.1h1.35v1.13H50.3v8.66H49.09Z"/><path d="M54.31,39.38c0,2,.83,3.64,2.48,3.64A2.23,2.23,0,0,0,59,41.08h1.19A3.91,3.91,0,0,1,59,43.38a3.27,3.27,0,0,1-2.16.77c-2.7,0-3.75-2.59-3.75-5.11,0-3,1.4-5.15,3.71-5.15a3,3,0,0,1,2.63,1.39,7.12,7.12,0,0,1,.9,4.11Zm4.75-1.06c0-2-.88-3.4-2.36-3.4s-2.36,1.46-2.39,3.4Z"/><path d="M69.36,43.92H68.24c0-.56,0-1.1,0-1.71a2.75,2.75,0,0,1-2.74,1.94c-1.67,0-2.81-1-2.81-3.35V34.13h1.21v6.3c0,1,.14,2.54,1.87,2.54,1.42,0,2.34-1,2.34-3v-5.8h1.21Z"/><path d="M72.38,34.13H73.5c0,.9,0,1.46,0,2.05a2.66,2.66,0,0,1,2.61-2.29v1.4a.81.81,0,0,0-.45-.13c-.83,0-2,1-2,3.49v5.26H72.38Z"/><path d="M94.22,43.92H93.11c0-.9,0-1.44,0-1.94a2.67,2.67,0,0,1-2.59,2.18c-1.94,0-3.28-2.05-3.28-5.11s1.22-5.15,3.28-5.15A2.57,2.57,0,0,1,93.05,36c0-.58,0-1.12,0-1.84V30.6h1.21ZM88.46,39c0,2.21.79,3.93,2.29,3.93a1.93,1.93,0,0,0,1.71-1.08A5.42,5.42,0,0,0,93,39a5.42,5.42,0,0,0-.56-2.86,1.94,1.94,0,0,0-1.71-1.06c-1.49,0-2.29,1.69-2.29,3.93Z"/><path d="M98,39.38c0,2,.83,3.64,2.48,3.64a2.23,2.23,0,0,0,2.2-1.94h1.19a3.91,3.91,0,0,1-1.22,2.3,3.27,3.27,0,0,1-2.16.77c-2.7,0-3.75-2.59-3.75-5.11,0-3,1.4-5.15,3.71-5.15a3,3,0,0,1,2.63,1.39,7.12,7.12,0,0,1,.9,4.11Zm4.75-1.06c0-2-.88-3.4-2.36-3.4s-2.36,1.46-2.39,3.4Z"/><path d="M119.25,43.92H118l-3-9.79h1.22l2.32,8.17,2.25-8.17h1.21Z"/><path d="M123.3,39c0-2.79,1.15-5.11,3.78-5.11s3.76,2.32,3.76,5.13-1.15,5.13-3.76,5.13S123.3,41.83,123.3,39Zm1.26,0c0,2.59.85,4,2.54,4s2.48-1.39,2.48-4-.85-4-2.52-4-2.5,1.39-2.5,4Z"/><path d="M139.91,43.92H138.8c0-.56,0-1.1,0-1.71a2.75,2.75,0,0,1-2.74,1.94c-1.67,0-2.81-1-2.81-3.35V34.13h1.21v6.3c0,1,.14,2.54,1.87,2.54,1.42,0,2.34-1,2.34-3v-5.8h1.21Z"/><path d="M146.88,36.66c0-1.24-.65-1.69-1.58-1.69a1.38,1.38,0,0,0-1.42,1.46c0,1.1.92,1.49,2.11,1.85a2.86,2.86,0,0,1,2.34,3,2.81,2.81,0,0,1-2.92,2.92A2.9,2.9,0,0,1,142.34,41h1.19a1.79,1.79,0,0,0,1.87,2,1.57,1.57,0,0,0,1.66-1.71c0-1.19-.83-1.66-2.14-2.07s-2.3-1-2.3-2.79a2.73,2.73,0,0,1,5.46.2Z"/><path d="M160.6,34.13h1.12c0,.9,0,1.46,0,2.05a2.65,2.65,0,0,1,2.61-2.29v1.4a.82.82,0,0,0-.45-.13c-.83,0-2,1-2,3.49v5.26H160.6Z"/><path d="M166.79,39.38c0,2,.83,3.64,2.48,3.64a2.23,2.23,0,0,0,2.2-1.94h1.19a3.92,3.92,0,0,1-1.22,2.3,3.28,3.28,0,0,1-2.16.77c-2.7,0-3.74-2.59-3.74-5.11,0-3,1.4-5.15,3.71-5.15a3,3,0,0,1,2.63,1.39,7.13,7.13,0,0,1,.9,4.11Zm4.75-1.06c0-2-.88-3.4-2.36-3.4s-2.36,1.46-2.39,3.4Z"/><path d="M181.71,40.59c-.22,2-1.3,3.57-3.24,3.57-2.61,0-3.78-2.45-3.78-5.11,0-3.21,1.51-5.15,3.73-5.15,2,0,3.15,1.55,3.24,3.62h-1.22c-.2-1.94-1.13-2.48-2.05-2.48a1.9,1.9,0,0,0-1.78,1,5.81,5.81,0,0,0-.63,3c0,2.57.88,4,2.43,4,1.21,0,1.89-1,2.07-2.43Z"/><path d="M184.7,39.38c0,2,.83,3.64,2.48,3.64a2.23,2.23,0,0,0,2.2-1.94h1.19a3.92,3.92,0,0,1-1.22,2.3,3.28,3.28,0,0,1-2.16.77c-2.7,0-3.74-2.59-3.74-5.11,0-3,1.4-5.15,3.71-5.15a3,3,0,0,1,2.63,1.39,7.13,7.13,0,0,1,.9,4.11Zm4.75-1.06c0-2-.88-3.4-2.36-3.4s-2.36,1.46-2.39,3.4Z"/><path d="M196,43.92H194.8l-3-9.79h1.22l2.32,8.17,2.25-8.17h1.21Z"/><path d="M200.05,39c0-2.79,1.15-5.11,3.78-5.11s3.76,2.32,3.76,5.13-1.15,5.13-3.76,5.13-3.78-2.32-3.78-5.13Zm1.26,0c0,2.59.85,4,2.54,4s2.49-1.39,2.49-4-.85-4-2.52-4-2.5,1.39-2.5,4Z"/><path d="M210.24,30.6h1.21v1.76h-1.21Zm0,3.53h1.21v9.79h-1.21Z"/><path d="M214.62,34.13h1.12c0,.9,0,1.46,0,2.05a2.66,2.66,0,0,1,2.61-2.29v1.4a.81.81,0,0,0-.45-.13c-.83,0-2,1-2,3.49v5.26h-1.21Z"/><path d="M221.31,43.92h-1.22V42h1.22Z"/><path d="M232.87,30.6h6.25v1.24h-4.9v4.65h4.9v1.24h-4.9v5h4.9v1.24h-6.25Z"/><path d="M243.53,38.93,241,34.13h1.37L244.25,38l1.89-3.85h1.35L245,38.93l2.67,5h-1.39l-2-4-2,4H240.9Z"/><path d="M249.54,34.13h1.12c0,.74,0,1.28,0,1.87a2.64,2.64,0,0,1,2.58-2.11c2,0,3.29,2,3.29,5.15s-1.22,5.11-3.29,5.11a2.66,2.66,0,0,1-2.5-2c0,.43,0,.94,0,1.78v3.62h-1.21ZM255.3,39c0-2.21-.77-3.93-2.29-3.93a1.87,1.87,0,0,0-1.67,1.08,5.19,5.19,0,0,0-.59,2.86,5.27,5.27,0,0,0,.59,2.86A1.87,1.87,0,0,0,253,43c1.51,0,2.29-1.71,2.29-3.94Z"/><path d="M259,34.13h1.12c0,.9,0,1.46,0,2.05a2.65,2.65,0,0,1,2.61-2.29v1.4a.81.81,0,0,0-.45-.13c-.83,0-2,1-2,3.49v5.26H259Z"/><path d="M264.79,30.6H266v1.76h-1.21Zm0,3.53H266v9.79h-1.21Z"/><path d="M269.2,34.13h1.15c0,.5,0,1,0,1.6a2.42,2.42,0,0,1,2.48-1.84,2.32,2.32,0,0,1,1.71.67,2.28,2.28,0,0,1,.54,1.17,2.67,2.67,0,0,1,.81-1.24,3,3,0,0,1,1.8-.59,2.52,2.52,0,0,1,2.29,1.26,5.89,5.89,0,0,1,.45,2.68v6.09h-1.21v-6a5.9,5.9,0,0,0-.2-1.82,1.5,1.5,0,0,0-1.49-1,1.79,1.79,0,0,0-1.58.79,3.83,3.83,0,0,0-.52,2.14v5.91h-1.21V38a5.87,5.87,0,0,0-.2-1.87,1.48,1.48,0,0,0-1.48-1,1.85,1.85,0,0,0-1.58.76,3.85,3.85,0,0,0-.52,2.21v5.87H269.2Z"/><path d="M284.17,39.38c0,2,.83,3.64,2.48,3.64a2.23,2.23,0,0,0,2.2-1.94H290a3.91,3.91,0,0,1-1.22,2.3,3.27,3.27,0,0,1-2.16.77c-2.7,0-3.75-2.59-3.75-5.11,0-3,1.4-5.15,3.71-5.15a3,3,0,0,1,2.63,1.39,7.12,7.12,0,0,1,.9,4.11Zm4.75-1.06c0-2-.88-3.4-2.36-3.4s-2.36,1.46-2.39,3.4Z"/><path d="M291.82,42.8l4.7-7.54h-4.39V34.13H298v1.15l-4.68,7.51h4.84v1.13h-6.3Z"/><path d="M310.35,30.6h1.21v1.76h-1.21Zm0,3.53h1.21v9.79h-1.21Z"/><path d="M321.17,40.59c-.22,2-1.3,3.57-3.24,3.57-2.61,0-3.78-2.45-3.78-5.11,0-3.21,1.51-5.15,3.73-5.15,2,0,3.15,1.55,3.24,3.62h-1.22c-.2-1.94-1.13-2.48-2.05-2.48a1.9,1.9,0,0,0-1.78,1,5.81,5.81,0,0,0-.63,3c0,2.57.88,4,2.43,4,1.21,0,1.89-1,2.07-2.43Z"/><path d="M323.53,30.6h1.21v1.76h-1.21Zm0,3.53h1.21v9.79h-1.21Z"/><path d="M340.65,43.92h-1.21l-3-9.79h1.22L340,42.3l2.25-8.17h1.21Z"/><path d="M344.7,39c0-2.79,1.15-5.11,3.78-5.11s3.76,2.32,3.76,5.13-1.15,5.13-3.76,5.13S344.7,41.83,344.7,39ZM346,39c0,2.59.85,4,2.54,4S351,41.63,351,39s-.85-4-2.52-4-2.5,1.39-2.5,4Z"/><path d="M355.21,35.26h-1.37V34.13h1.37V31h1.21v3.1h1.35v1.13h-1.35v8.66h-1.21Z"/><path d="M359.89,34.13H361c0,.9,0,1.46,0,2.05a2.65,2.65,0,0,1,2.61-2.29v1.4a.82.82,0,0,0-.45-.13c-.83,0-2,1-2,3.49v5.26h-1.21Z"/><path d="M366.08,39.38c0,2,.83,3.64,2.49,3.64a2.23,2.23,0,0,0,2.2-1.94H372a3.92,3.92,0,0,1-1.22,2.3,3.28,3.28,0,0,1-2.16.77c-2.7,0-3.75-2.59-3.75-5.11,0-3,1.4-5.15,3.71-5.15a3,3,0,0,1,2.63,1.39,7.12,7.12,0,0,1,.9,4.11Zm4.75-1.06c0-2-.88-3.4-2.36-3.4s-2.36,1.46-2.4,3.4Z"/><path d="M385.1,39.38c0,2,.83,3.64,2.48,3.64a2.23,2.23,0,0,0,2.2-1.94H391a3.92,3.92,0,0,1-1.22,2.3,3.28,3.28,0,0,1-2.16.77c-2.7,0-3.74-2.59-3.74-5.11,0-3,1.4-5.15,3.71-5.15a3,3,0,0,1,2.63,1.39,7.13,7.13,0,0,1,.9,4.11Zm4.75-1.06c0-2-.88-3.4-2.36-3.4s-2.36,1.46-2.39,3.4Z"/><path d="M394.91,38.93l-2.52-4.81h1.37L395.63,38l1.89-3.85h1.35l-2.54,4.81,2.67,5h-1.39l-2-4-2,4h-1.37Z"/><path d="M400.92,34.13H402c0,.74,0,1.28,0,1.87a2.64,2.64,0,0,1,2.58-2.11c2,0,3.29,2,3.29,5.15s-1.22,5.11-3.29,5.11a2.66,2.66,0,0,1-2.5-2c0,.43,0,.94,0,1.78v3.62h-1.21ZM406.68,39c0-2.21-.77-3.93-2.29-3.93a1.87,1.87,0,0,0-1.67,1.08,5.19,5.19,0,0,0-.59,2.86,5.27,5.27,0,0,0,.59,2.86A1.87,1.87,0,0,0,404.4,43c1.51,0,2.29-1.71,2.29-3.94Z"/><path d="M411.16,39.38c0,2,.83,3.64,2.48,3.64a2.23,2.23,0,0,0,2.2-1.94H417a3.92,3.92,0,0,1-1.22,2.3,3.28,3.28,0,0,1-2.16.77c-2.7,0-3.74-2.59-3.74-5.11,0-3,1.4-5.15,3.71-5.15a3,3,0,0,1,2.63,1.39,7.13,7.13,0,0,1,.9,4.11Zm4.75-1.06c0-2-.88-3.4-2.36-3.4s-2.36,1.46-2.39,3.4Zm-.38-8.25.5,1-4,2.14-.45-.85Z"/><path d="M419.64,34.13h1.12c0,.9,0,1.46,0,2.05a2.65,2.65,0,0,1,2.61-2.29v1.4a.81.81,0,0,0-.45-.13c-.83,0-2,1-2,3.49v5.26h-1.21Z"/><path d="M425.42,30.6h1.21v1.76h-1.21Zm0,3.53h1.21v9.79h-1.21Z"/><path d="M430.57,39.38c0,2,.83,3.64,2.48,3.64a2.23,2.23,0,0,0,2.2-1.94h1.19a3.91,3.91,0,0,1-1.22,2.3,3.27,3.27,0,0,1-2.16.77c-2.7,0-3.75-2.59-3.75-5.11,0-3,1.4-5.15,3.71-5.15a3,3,0,0,1,2.63,1.39,7.12,7.12,0,0,1,.9,4.11Zm4.75-1.06c0-2-.88-3.4-2.36-3.4s-2.36,1.46-2.39,3.4Z"/><path d="M439,34.13h1.08c0,.56,0,1.06,0,1.67a2.79,2.79,0,0,1,2.77-1.91c1.67,0,2.81,1,2.81,3.35v6.68h-1.21v-6.3c0-1-.14-2.54-1.87-2.54-1.42,0-2.34,1-2.34,3v5.8H439Z"/><path d="M455.08,40.59c-.22,2-1.3,3.57-3.24,3.57-2.61,0-3.78-2.45-3.78-5.11,0-3.21,1.51-5.15,3.73-5.15,2,0,3.15,1.55,3.24,3.62h-1.22c-.2-1.94-1.13-2.48-2.05-2.48a1.9,1.9,0,0,0-1.78,1,5.81,5.81,0,0,0-.63,3c0,2.57.88,4,2.43,4,1.21,0,1.89-1,2.07-2.43Z"/><path d="M458.07,39.38c0,2,.83,3.64,2.49,3.64a2.23,2.23,0,0,0,2.2-1.94h1.19a3.92,3.92,0,0,1-1.22,2.3,3.27,3.27,0,0,1-2.16.77c-2.7,0-3.75-2.59-3.75-5.11,0-3,1.4-5.15,3.71-5.15a3,3,0,0,1,2.63,1.39,7.11,7.11,0,0,1,.9,4.11Zm4.75-1.06c0-2-.88-3.4-2.36-3.4s-2.36,1.46-2.4,3.4Z"/><path d="M482.76,43.92h-1.12c0-.86,0-1.4,0-1.87a2.69,2.69,0,0,1-2.59,2.11c-1.95,0-3.28-2.05-3.28-5.11s1.22-5.15,3.28-5.15A2.64,2.64,0,0,1,481.66,36c0-.59,0-1.15,0-1.89h1.12Zm-1.39-11.58-.45.85-4-2.14.5-1ZM477,39c0,2.21.79,3.93,2.29,3.93A1.93,1.93,0,0,0,481,41.89a5.46,5.46,0,0,0,.56-2.86,5.38,5.38,0,0,0-.56-2.86,1.93,1.93,0,0,0-1.71-1.08c-1.49,0-2.29,1.71-2.29,3.94Z"/><path d="M496,35.26h-1.37V34.13H496V31h1.21v3.1h1.35v1.13h-1.35v8.66H496Z"/><path d="M500.69,34.13h1.12c0,.9,0,1.46,0,2.05a2.66,2.66,0,0,1,2.61-2.29v1.4a.81.81,0,0,0-.45-.13c-.83,0-2,1-2,3.49v5.26h-1.21Z"/><path d="M512.55,43.92h-1.12c0-.86,0-1.4,0-1.87a2.69,2.69,0,0,1-2.59,2.11c-1.95,0-3.28-2.05-3.28-5.11s1.22-5.15,3.28-5.15A2.64,2.64,0,0,1,511.45,36c0-.59,0-1.15,0-1.89h1.12ZM506.79,39c0,2.21.79,3.93,2.29,3.93a1.92,1.92,0,0,0,1.71-1.08,5.46,5.46,0,0,0,.56-2.86,5.38,5.38,0,0,0-.56-2.86,1.92,1.92,0,0,0-1.71-1.08c-1.49,0-2.29,1.71-2.29,3.94Z"/><path d="M518.56,43.92h-1.21l-3-9.79h1.22l2.32,8.17,2.25-8.17h1.21Z"/><path d="M523.91,39.38c0,2,.83,3.64,2.48,3.64a2.23,2.23,0,0,0,2.2-1.94h1.19a3.91,3.91,0,0,1-1.22,2.3,3.27,3.27,0,0,1-2.16.77c-2.7,0-3.75-2.59-3.75-5.11,0-3,1.4-5.15,3.71-5.15A3,3,0,0,1,529,35.28a7.12,7.12,0,0,1,.9,4.11Zm4.75-1.06c0-2-.88-3.4-2.36-3.4s-2.36,1.46-2.39,3.4Z"/><path d="M532.38,34.13h1.12c0,.9,0,1.46,0,2.05a2.66,2.66,0,0,1,2.61-2.29v1.4a.81.81,0,0,0-.45-.13c-.83,0-2,1-2,3.49v5.26h-1.21Z"/><path d="M542.1,36.66c0-1.24-.65-1.69-1.58-1.69a1.38,1.38,0,0,0-1.42,1.46c0,1.1.92,1.49,2.11,1.85a2.86,2.86,0,0,1,2.34,3,2.81,2.81,0,0,1-2.92,2.92A2.9,2.9,0,0,1,537.57,41h1.19a1.79,1.79,0,0,0,1.87,2,1.57,1.57,0,0,0,1.66-1.71c0-1.19-.83-1.66-2.14-2.07s-2.3-1-2.3-2.79a2.73,2.73,0,0,1,5.46.2Z"/><path d="M562.27,43.92h-1.12c0-.9,0-1.44,0-1.94a2.67,2.67,0,0,1-2.59,2.18c-1.95,0-3.28-2.05-3.28-5.11s1.22-5.15,3.28-5.15A2.58,2.58,0,0,1,561.1,36c0-.58,0-1.12,0-1.84V30.6h1.21ZM556.51,39c0,2.21.79,3.93,2.29,3.93a1.92,1.92,0,0,0,1.71-1.08,5.42,5.42,0,0,0,.56-2.86,5.42,5.42,0,0,0-.56-2.86,1.94,1.94,0,0,0-1.71-1.06c-1.49,0-2.29,1.69-2.29,3.93Z"/><path d="M566.07,39.38c0,2,.83,3.64,2.49,3.64a2.23,2.23,0,0,0,2.2-1.94h1.19a3.92,3.92,0,0,1-1.22,2.3,3.28,3.28,0,0,1-2.16.77c-2.7,0-3.75-2.59-3.75-5.11,0-3,1.4-5.15,3.71-5.15a3,3,0,0,1,2.63,1.39,7.12,7.12,0,0,1,.9,4.11Zm4.75-1.06c0-2-.88-3.4-2.36-3.4s-2.36,1.46-2.4,3.4Z"/><path d="M578.49,36.66c0-1.24-.65-1.69-1.58-1.69a1.38,1.38,0,0,0-1.42,1.46c0,1.1.92,1.49,2.11,1.85a2.86,2.86,0,0,1,2.34,3A2.81,2.81,0,0,1,577,44.15,2.89,2.89,0,0,1,574,41h1.19A1.8,1.8,0,0,0,577,43a1.57,1.57,0,0,0,1.66-1.71c0-1.19-.83-1.66-2.14-2.07s-2.3-1-2.3-2.79a2.73,2.73,0,0,1,5.46.2Z"/><path d="M593,39.38c0,2,.83,3.64,2.48,3.64a2.23,2.23,0,0,0,2.2-1.94h1.19a3.92,3.92,0,0,1-1.22,2.3,3.28,3.28,0,0,1-2.16.77c-2.7,0-3.74-2.59-3.74-5.11,0-3,1.4-5.15,3.71-5.15a3,3,0,0,1,2.63,1.39,7.13,7.13,0,0,1,.9,4.11Zm4.75-1.06c0-2-.88-3.4-2.36-3.4S593,36.38,593,38.32Z"/><path d="M602.79,38.93l-2.52-4.81h1.37L603.51,38l1.89-3.85h1.35l-2.54,4.81,2.67,5h-1.39l-2-4-2,4h-1.37Z"/><path d="M609.33,39.38c0,2,.83,3.64,2.49,3.64a2.23,2.23,0,0,0,2.2-1.94h1.19a3.92,3.92,0,0,1-1.22,2.3,3.28,3.28,0,0,1-2.16.77c-2.7,0-3.75-2.59-3.75-5.11,0-3,1.4-5.15,3.71-5.15a3,3,0,0,1,2.63,1.39,7.12,7.12,0,0,1,.9,4.11Zm4.75-1.06c0-2-.88-3.4-2.36-3.4s-2.36,1.46-2.4,3.4Z"/><path d="M617.84,34.13H619c0,.5,0,1,0,1.6a2.42,2.42,0,0,1,2.48-1.84,2.32,2.32,0,0,1,1.71.67,2.29,2.29,0,0,1,.54,1.17,2.69,2.69,0,0,1,.81-1.24,3,3,0,0,1,1.8-.59,2.52,2.52,0,0,1,2.29,1.26,5.9,5.9,0,0,1,.45,2.68v6.09h-1.21v-6a5.93,5.93,0,0,0-.2-1.82,1.5,1.5,0,0,0-1.5-1,1.79,1.79,0,0,0-1.58.79A3.83,3.83,0,0,0,624,38v5.91h-1.21V38a5.84,5.84,0,0,0-.2-1.87,1.48,1.48,0,0,0-1.48-1,1.85,1.85,0,0,0-1.58.76,3.85,3.85,0,0,0-.52,2.21v5.87h-1.21Z"/><path d="M632,34.13h1.12c0,.74,0,1.28,0,1.87a2.64,2.64,0,0,1,2.58-2.11c2,0,3.29,2,3.29,5.15s-1.22,5.11-3.29,5.11a2.66,2.66,0,0,1-2.5-2c0,.43,0,.94,0,1.78v3.62H632ZM637.81,39c0-2.21-.77-3.93-2.29-3.93a1.87,1.87,0,0,0-1.67,1.08,5.18,5.18,0,0,0-.59,2.86,5.26,5.26,0,0,0,.59,2.86A1.87,1.87,0,0,0,635.52,43c1.51,0,2.29-1.71,2.29-3.94Z"/><path d="M641.65,30.6h1.21V43.92h-1.21Z"/><path d="M646.8,39.38c0,2,.83,3.64,2.48,3.64a2.23,2.23,0,0,0,2.2-1.94h1.19a3.92,3.92,0,0,1-1.22,2.3,3.28,3.28,0,0,1-2.16.77c-2.7,0-3.74-2.59-3.74-5.11,0-3,1.4-5.15,3.71-5.15a3,3,0,0,1,2.63,1.39,7.13,7.13,0,0,1,.9,4.11Zm4.75-1.06c0-2-.88-3.4-2.36-3.4s-2.36,1.46-2.39,3.4Z"/><path d="M659.22,36.66c0-1.24-.65-1.69-1.58-1.69a1.38,1.38,0,0,0-1.42,1.46c0,1.1.92,1.49,2.11,1.85a2.86,2.86,0,0,1,2.34,3,2.81,2.81,0,0,1-2.92,2.92A2.9,2.9,0,0,1,654.69,41h1.19a1.79,1.79,0,0,0,1.87,2,1.57,1.57,0,0,0,1.66-1.71c0-1.19-.83-1.66-2.14-2.07s-2.3-1-2.3-2.79a2.73,2.73,0,0,1,5.46.2Z"/><path d="M16.51,62.19c-.22,2-1.3,3.57-3.24,3.57-2.61,0-3.78-2.45-3.78-5.11,0-3.21,1.51-5.15,3.73-5.15,2,0,3.15,1.55,3.24,3.62H15.23c-.2-1.94-1.13-2.48-2.05-2.48a1.9,1.9,0,0,0-1.78,1,5.81,5.81,0,0,0-.63,3c0,2.57.88,4,2.43,4,1.21,0,1.89-1,2.07-2.43Z"/><path d="M18.2,60.6c0-2.79,1.15-5.11,3.78-5.11s3.76,2.32,3.76,5.13S24.59,65.75,22,65.75s-3.78-2.32-3.78-5.13Zm1.26,0c0,2.59.85,4,2.54,4s2.49-1.39,2.49-4-.85-4-2.52-4-2.5,1.39-2.5,4Z"/><path d="M28.25,55.72h1.08c0,.56,0,1.06,0,1.67a2.79,2.79,0,0,1,2.77-1.91c1.68,0,2.81,1,2.81,3.35v6.68H33.67v-6.3c0-1-.14-2.54-1.87-2.54-1.42,0-2.34,1-2.34,3v5.8H28.25Z"/><path d="M44.29,62.19c-.22,2-1.3,3.57-3.24,3.57-2.61,0-3.78-2.45-3.78-5.11,0-3.21,1.51-5.15,3.73-5.15,2,0,3.15,1.55,3.24,3.62H43c-.2-1.94-1.13-2.48-2.05-2.48a1.9,1.9,0,0,0-1.78,1,5.81,5.81,0,0,0-.63,3c0,2.57.88,4,2.43,4,1.21,0,1.89-1,2.07-2.43Z"/><path d="M46.5,55.72h1.12c0,.9,0,1.46,0,2.05a2.65,2.65,0,0,1,2.61-2.29v1.4a.81.81,0,0,0-.45-.13c-.83,0-2,1-2,3.49v5.26H46.5Z"/><path d="M52.69,61c0,2,.83,3.64,2.49,3.64a2.23,2.23,0,0,0,2.2-1.94h1.19A3.92,3.92,0,0,1,57.34,65a3.28,3.28,0,0,1-2.16.77c-2.7,0-3.75-2.59-3.75-5.11,0-3,1.4-5.15,3.71-5.15a3,3,0,0,1,2.63,1.39,7.12,7.12,0,0,1,.9,4.11Zm4.75-1.06c0-2-.88-3.4-2.36-3.4s-2.36,1.46-2.4,3.4Z"/><path d="M61.64,56.86H60.27V55.72h1.37v-3.1h1.21v3.1h1.35v1.13H62.84v8.66H61.64Z"/><path d="M70.26,58.26c0-1.24-.65-1.69-1.58-1.69A1.38,1.38,0,0,0,67.25,58c0,1.1.92,1.49,2.11,1.85a2.86,2.86,0,0,1,2.34,3,2.81,2.81,0,0,1-2.92,2.92,2.9,2.9,0,0,1-3.06-3.11h1.19a1.79,1.79,0,0,0,1.87,2,1.57,1.57,0,0,0,1.66-1.71c0-1.19-.83-1.66-2.14-2.07s-2.3-1-2.3-2.79a2.73,2.73,0,0,1,5.46.2Z"/><path d="M75.68,65.52H74.45V63.61h1.22Z"/></g></g></g></svg>