<?xml version="1.0" encoding="utf-8"?>
<!-- Generator: Adobe Illustrator 21.1.0, SVG Export Plug-In . SVG Version: 6.00 Build 0)  -->
<svg version="1.1" id="Calque_1" xmlns="http://www.w3.org/2000/svg" xmlns:xlink="http://www.w3.org/1999/xlink" x="0px" y="0px"
	 viewBox="0 0 1920 1080" style="enable-background:new 0 0 1920 1080;" xml:space="preserve">
<style type="text/css">
	.st0{fill:#8CC63F;}
	.st1{fill:#FFFFFF;}
</style>
<title>game3c2</title>
<g id="contenu">
	<path class="st0" d="M487.2,471.1h987.6l0,0v68.3c0,11.4-9.2,20.5-20.6,20.5h-967c-11.4,0-20.6-9.2-20.6-20.6l0,0v-47.7
		C466.6,480.3,475.8,471.1,487.2,471.1C487.2,471.1,487.2,471.1,487.2,471.1z"/>
	<path class="st0" d="M487.2,601h1071.6l0,0v68.3c0,11.4-9.1,20.6-20.5,20.7c0,0,0,0-0.1,0h-1051c-11.4,0-20.6-9.2-20.6-20.6l0,0
		v-47.8C466.6,610.3,475.8,601,487.2,601C487.2,601,487.2,601,487.2,601z"/>
	<path class="st1" d="M483.1,506.4h-3.2v-2.7h9.4v2.7H486v15h-2.9L483.1,506.4z"/>
	<path class="st1" d="M490.8,508h2.4c0,0.8,0,1.5,0,2.2c0.5-2,1.9-2.5,3.5-2.5v3.1c-0.3-0.2-0.7-0.3-1.1-0.3c-1.2,0-2.1,1.1-2.1,3.3
		v7.6h-2.6L490.8,508z"/>
	<path class="st1" d="M501.1,515.7c0,1.9,0.6,3.7,2.4,3.7c1.1,0,2.1-0.9,2.2-2h2.6c-0.1,1.4-0.8,2.6-1.8,3.5
		c-0.8,0.6-1.9,0.9-2.9,0.9c-3.6,0-5.2-3.3-5.2-7c0-4,1.8-7,5.1-7c1.5-0.1,3,0.7,3.8,2c0.9,1.8,1.3,3.8,1.1,5.9H501.1z M505.8,505.4
		l-0.9,1.7l-5.5-2.6l1-2.1L505.8,505.4z M505.8,513.4c0-1.5-0.5-3.5-2.3-3.5c-1.4,0-2.4,1.3-2.4,3.5H505.8z"/>
	<path class="st1" d="M516.9,511.8c0-1.3-0.6-1.8-1.7-1.8c-0.7-0.1-1.4,0.5-1.4,1.2c0,0.1,0,0.1,0,0.2c0,1.3,1.4,1.5,3,2
		c1.9,0.4,3.2,2.1,3.1,4.1c0,2.3-1.9,4.2-4.2,4.3c-0.1,0-0.2,0-0.3,0c-2.5,0-4.4-1.4-4.6-4.4h2.6c-0.1,1.1,0.8,2,1.9,2.1
		c0.1,0,0.1,0,0.2,0c0.9,0.1,1.6-0.6,1.7-1.4c0-0.1,0-0.2,0-0.3c0-1.3-1.4-1.7-3-2.2s-3.1-1.4-3.1-4c0-2.2,1.6-3.7,4.3-3.7
		s4.1,1.5,4.2,4.1L516.9,511.8z"/>
	<path class="st1" d="M539.2,521.5h-2.4c0-0.7,0-1.2,0-1.8c-0.4,1.3-1.7,2.1-3,2c-2.5,0-4.3-2.4-4.3-7c0-4.4,1.6-7,4.3-7
		c1.4-0.1,2.6,0.8,3,2.1c0-0.6,0-1.1,0-1.8h2.4V521.5z M532.1,514.8c0,3,0.8,4.4,2.3,4.4c0.7,0,1.3-0.3,1.7-0.9
		c0.5-0.7,0.5-1.5,0.5-3.5s-0.1-2.9-0.5-3.5c-0.3-0.6-1-0.9-1.7-0.9C533,510.4,532.1,511.7,532.1,514.8L532.1,514.8z"/>
	<path class="st1" d="M543.5,510.5h-1.6V508h1.6v-3.2h2.6v3.2h1.6v2.5h-1.6v11h-2.6V510.5z"/>
	<path class="st1" d="M550.9,510.5h-1.6V508h1.6v-3.2h2.6v3.2h1.6v2.5h-1.6v11h-2.6V510.5z"/>
	<path class="st1" d="M559.8,515.7c0,1.9,0.7,3.7,2.4,3.7c1.1,0,2.1-0.9,2.2-2h2.6c-0.1,1.4-0.8,2.6-1.8,3.5
		c-0.8,0.6-1.9,0.9-2.9,0.9c-3.6,0-5.2-3.3-5.2-7c0-4,1.8-7,5.1-7c1.5-0.1,3,0.7,3.8,2c0.9,1.8,1.3,3.8,1.1,5.9H559.8z M564.4,513.4
		c0-1.5-0.5-3.5-2.3-3.5c-1.4,0-2.3,1.3-2.3,3.5H564.4z"/>
	<path class="st1" d="M570.3,508h2.3c0,0.5,0,1.1,0,1.7c0.5-1.3,1.8-2.1,3.2-1.9c2.2,0,3.6,1.2,3.6,4.1v9.5h-2.6v-8.7
		c0-1.1-0.2-2.4-1.8-2.4c-1.2,0-2.1,0.8-2.1,2.5v8.6h-2.6V508z"/>
	<path class="st1" d="M583.7,510.5h-1.6V508h1.6v-3.2h2.6v3.2h1.6v2.5h-1.6v11h-2.6V510.5z"/>
	<path class="st1" d="M590.9,503.7h2.6v2.6h-2.6V503.7z M590.9,508h2.6v13.4h-2.6V508z"/>
	<path class="st1" d="M602.6,521.5h-2.4l-4-13.4h2.6l2.5,9.6l2.3-9.6h2.6L602.6,521.5z"/>
	<path class="st1" d="M610.8,515.7c0,1.9,0.7,3.7,2.4,3.7c1.1,0,2.1-0.9,2.2-2h2.6c-0.1,1.4-0.8,2.6-1.8,3.5
		c-0.8,0.6-1.9,0.9-2.9,0.9c-3.6,0-5.2-3.3-5.2-7c0-4,1.8-7,5.1-7c1.5-0.1,3,0.7,3.8,2c0.9,1.8,1.3,3.8,1.1,5.9H610.8z M615.4,513.4
		c0-1.5-0.5-3.5-2.3-3.5c-1.4,0-2.3,1.3-2.3,3.5H615.4z"/>
	<path class="st1" d="M637.6,521.5h-2.4c0-0.7,0-1.2,0-1.8c-0.4,1.3-1.7,2.1-3,2c-2.5,0-4.3-2.4-4.3-7c0-4.4,1.6-7,4.3-7
		c1.4-0.1,2.6,0.8,3,2.1c0-0.6,0-1.1,0-1.8h2.4V521.5z M635.5,505.4l-0.9,1.7l-5.5-2.6l1-2.1L635.5,505.4z M630.5,514.8
		c0,3,0.8,4.4,2.3,4.4c0.7,0,1.3-0.3,1.7-0.9c0.5-0.7,0.5-1.5,0.5-3.5s-0.1-2.9-0.5-3.5c-0.3-0.6-1-0.9-1.7-0.9
		C631.4,510.4,630.5,511.7,630.5,514.8L630.5,514.8z"/>
	<path class="st1" d="M649.1,503.7h2.6v17.8h-2.6V503.7z"/>
	<path class="st1" d="M656.8,503.7h2.8l-2.3,5.5h-2.4L656.8,503.7z"/>
	<path class="st1" d="M671.4,521.5H669c0-0.7,0-1.2,0-1.8c-0.4,1.3-1.7,2.1-3,2c-2.5,0-4.3-2.4-4.3-7c0-4.4,1.6-7,4.3-7
		c1.4-0.1,2.6,0.8,3,2.1c0-0.6,0-1.1,0-1.8h2.4L671.4,521.5z M664.3,514.8c0,3,0.8,4.4,2.3,4.4c0.7,0,1.3-0.3,1.7-0.9
		c0.5-0.7,0.5-1.5,0.5-3.5s-0.1-2.9-0.5-3.5c-0.3-0.6-1-0.9-1.7-0.9C665.2,510.4,664.3,511.7,664.3,514.8L664.3,514.8z"/>
	<path class="st1" d="M684.1,516.6c-0.1,2.7-1.5,5.2-4.3,5.2c-3.3,0-5.2-2.8-5.2-7c0-4.4,2-7,5.2-7c2.9,0,4.3,2.4,4.3,5.2h-2.7
		c-0.1-2-0.8-2.8-1.8-2.8c-0.7,0-1.4,0.4-1.6,1.1c-0.5,1.1-0.7,2.3-0.6,3.5c0,3.2,0.8,4.6,2.3,4.6c1.2,0,1.8-1.2,1.8-2.8
		L684.1,516.6z"/>
	<path class="st1" d="M687.4,510.5h-1.6V508h1.6v-3.2h2.6v3.2h1.6v2.5H690v11h-2.6L687.4,510.5z"/>
	<path class="st1" d="M703.3,521.5H701c0-0.6,0-1.2,0-1.8c-0.4,1.4-1.7,2.2-3.1,2.1c-2.2,0-3.6-1.2-3.6-4.2V508h2.6v8.7
		c0,1.1,0.2,2.4,1.8,2.4c1.2,0,2.1-0.8,2.1-2.5V508h2.6L703.3,521.5z"/>
	<path class="st1" d="M716.2,521.5h-2.4c0-0.7,0-1.2,0-1.8c-0.4,1.3-1.7,2.1-3,2c-2.5,0-4.3-2.4-4.3-7c0-4.4,1.6-7,4.3-7
		c1.4-0.1,2.6,0.8,3,2.1c0-0.6,0-1.1,0-1.8h2.4V521.5z M709.1,514.8c0,3,0.8,4.4,2.3,4.4c0.7,0,1.3-0.3,1.7-0.9
		c0.5-0.7,0.5-1.5,0.5-3.5s-0.1-2.9-0.5-3.5c-0.3-0.6-1-0.9-1.7-0.9C710,510.4,709.1,511.7,709.1,514.8L709.1,514.8z"/>
	<path class="st1" d="M720.4,503.7h2.6v17.8h-2.6L720.4,503.7z"/>
	<path class="st1" d="M727.4,503.7h2.6v2.6h-2.6L727.4,503.7z M727.4,508h2.6v13.4h-2.6L727.4,508z"/>
	<path class="st1" d="M734.7,510.5H733V508h1.6v-3.2h2.6v3.2h1.6v2.5h-1.6v11h-2.6L734.7,510.5z"/>
	<path class="st1" d="M743.5,515.7c0,1.9,0.7,3.7,2.4,3.7c1.1,0,2.1-0.9,2.2-2h2.6c-0.1,1.4-0.8,2.6-1.8,3.5
		c-0.8,0.6-1.9,0.9-2.9,0.9c-3.6,0-5.2-3.3-5.2-7c0-4,1.8-7,5.1-7c1.5-0.1,3,0.7,3.8,2c0.9,1.8,1.3,3.8,1.1,5.9H743.5z M748.7,502.4
		l1,2.1l-5.5,2.6l-0.9-1.7L748.7,502.4z M748.1,513.4c0-1.5-0.5-3.5-2.3-3.5c-1.4,0-2.3,1.3-2.3,3.5H748.1z"/>
	<path class="st1" d="M770.3,521.5h-2.4c0-0.8,0-1.4,0-1.9c-0.3,1.4-1.6,2.3-3,2.2c-2.5,0-4.3-2.4-4.3-7c0-4.4,1.6-7,4.3-7
		c1.2-0.1,2.4,0.7,2.7,1.9c0-0.5,0-1.1,0-1.7v-4.3h2.6L770.3,521.5z M763.2,514.8c0,3,0.8,4.4,2.3,4.4c0.7,0,1.3-0.3,1.7-0.9
		c0.5-0.7,0.5-1.5,0.5-3.5s-0.1-2.8-0.5-3.5c-0.3-0.6-1-1-1.7-0.9C764.1,510.3,763.2,511.7,763.2,514.8L763.2,514.8z"/>
	<path class="st1" d="M776.4,515.7c0,1.9,0.7,3.7,2.4,3.7c1.1,0,2.1-0.9,2.2-2h2.6c-0.1,1.4-0.8,2.6-1.8,3.5
		c-0.8,0.6-1.9,0.9-2.9,0.9c-3.6,0-5.2-3.3-5.2-7c0-4,1.8-7,5.1-7c1.5-0.1,3,0.7,3.8,2c0.9,1.8,1.3,3.8,1.1,5.9H776.4z M781,513.4
		c0-1.5-0.5-3.5-2.3-3.5c-1.4,0-2.3,1.3-2.3,3.5H781z"/>
	<path class="st1" d="M799.2,521.5h-2.4l-4-13.4h2.6l2.5,9.6l2.3-9.6h2.6L799.2,521.5z"/>
	<path class="st1" d="M804.5,514.7c0-3.8,1.6-7,5.2-7s5.2,3.1,5.2,7s-1.6,7-5.2,7S804.5,518.6,804.5,514.7z M807.2,514.7
		c0,3.3,0.9,4.5,2.5,4.5s2.4-1.2,2.4-4.6s-0.9-4.6-2.5-4.6S807.2,511.4,807.2,514.7L807.2,514.7z"/>
	<path class="st1" d="M818.5,510.5h-1.6V508h1.6v-3.2h2.6v3.2h1.6v2.5h-1.6v11h-2.6V510.5z"/>
	<path class="st1" d="M825.4,508h2.4c0,0.8,0,1.5,0,2.2c0.5-2,1.9-2.5,3.5-2.5v3.1c-0.3-0.2-0.7-0.3-1.1-0.3c-1.2,0-2.1,1.1-2.1,3.3
		v7.6h-2.6L825.4,508z"/>
	<path class="st1" d="M835.7,515.7c0,1.9,0.7,3.7,2.4,3.7c1.1,0,2.1-0.9,2.2-2h2.6c-0.1,1.4-0.8,2.6-1.8,3.5
		c-0.8,0.6-1.9,0.9-2.9,0.9c-3.6,0-5.2-3.3-5.2-7c0-4,1.8-7,5.1-7c1.5-0.1,3,0.7,3.8,2c0.9,1.8,1.3,3.8,1.1,5.9H835.7z M840.4,513.4
		c0-1.5-0.5-3.5-2.3-3.5c-1.4,0-2.3,1.3-2.3,3.5H840.4z"/>
	<path class="st1" d="M855.8,515.7c0,1.9,0.7,3.7,2.4,3.7c1.1,0,2.1-0.9,2.2-2h2.6c-0.1,1.4-0.8,2.6-1.8,3.5
		c-0.8,0.6-1.9,0.9-2.9,0.9c-3.6,0-5.2-3.3-5.2-7c0-4,1.8-7,5.1-7c1.5-0.1,3,0.7,3.8,2c0.9,1.8,1.3,3.8,1.1,5.9H855.8z M860.4,513.4
		c0-1.5-0.5-3.5-2.3-3.5c-1.4,0-2.3,1.3-2.3,3.5H860.4z"/>
	<path class="st1" d="M866.3,508h2.3c0,0.5,0,1.1,0,1.7c0.5-1.3,1.8-2.1,3.2-1.9c2.2,0,3.6,1.2,3.6,4.1v9.5h-2.6v-8.7
		c0-1.1-0.2-2.4-1.8-2.4c-1.2,0-2.1,0.8-2.1,2.5v8.6h-2.6L866.3,508z"/>
	<path class="st1" d="M879.7,510.5h-1.6V508h1.6v-3.2h2.6v3.2h1.6v2.5h-1.6v11h-2.6V510.5z"/>
	<path class="st1" d="M886.6,508h2.4c0,0.8,0,1.5,0,2.2c0.5-2,1.9-2.5,3.5-2.5v3.1c-0.3-0.2-0.7-0.3-1.1-0.3c-1.2,0-2.1,1.1-2.1,3.3
		v7.6h-2.6L886.6,508z"/>
	<path class="st1" d="M896.9,515.7c0,1.9,0.7,3.7,2.4,3.7c1.1,0,2.1-0.9,2.2-2h2.5c-0.1,1.4-0.8,2.6-1.8,3.5
		c-0.8,0.6-1.9,0.9-2.9,0.9c-3.6,0-5.2-3.3-5.2-7c0-4,1.8-7,5.1-7c1.5-0.1,3,0.7,3.8,2c0.9,1.8,1.3,3.8,1.1,5.9H896.9z M901.6,513.4
		c0-1.5-0.5-3.5-2.3-3.5c-1.4,0-2.3,1.3-2.3,3.5H901.6z"/>
	<path class="st1" d="M907.5,508h2.4v1.8c0.4-1.2,1.6-2.1,2.9-2c2.5,0,4.3,2.4,4.3,7c0,4.4-1.6,7-4.3,7c-1.2,0-2.3-0.7-2.7-1.8v6
		h-2.6L907.5,508z M914.5,514.7c0-3-0.8-4.4-2.3-4.4c-0.7,0-1.3,0.3-1.6,0.9c-0.5,0.6-0.6,1.5-0.6,3.5s0.1,2.8,0.6,3.5
		c0.3,0.6,0.9,0.9,1.6,0.9C913.7,519.1,914.5,517.7,914.5,514.7L914.5,514.7z"/>
	<path class="st1" d="M920.3,508h2.4c0,0.8,0,1.5,0,2.2c0.5-2,1.9-2.5,3.5-2.5v3.1c-0.3-0.2-0.7-0.3-1.1-0.3c-1.2,0-2.1,1.1-2.1,3.3
		v7.6h-2.6L920.3,508z"/>
	<path class="st1" d="M929.1,503.7h2.6v2.6h-2.6V503.7z M929.1,508h2.6v13.4h-2.6V508z"/>
	<path class="st1" d="M941,511.8c0-1.3-0.6-1.8-1.7-1.8c-0.7-0.1-1.4,0.5-1.4,1.2c0,0.1,0,0.1,0,0.2c0,1.3,1.4,1.5,3,2
		c1.9,0.4,3.2,2.1,3.1,4.1c0,2.3-1.9,4.2-4.2,4.3c-0.1,0-0.2,0-0.3,0c-2.5,0-4.4-1.4-4.6-4.4h2.6c-0.1,1.1,0.8,2,1.9,2.1
		c0.1,0,0.1,0,0.2,0c0.9,0.1,1.6-0.6,1.7-1.4c0-0.1,0-0.2,0-0.3c0-1.3-1.4-1.7-3-2.2s-3.1-1.4-3.1-4c0-2.2,1.6-3.7,4.3-3.7
		s4.1,1.5,4.2,4.1L941,511.8z"/>
	<path class="st1" d="M949.3,515.7c0,1.9,0.7,3.7,2.4,3.7c1.1,0,2.1-0.9,2.2-2h2.6c-0.1,1.4-0.8,2.6-1.8,3.5
		c-0.8,0.6-1.9,0.9-2.9,0.9c-3.6,0-5.2-3.3-5.2-7c0-4,1.8-7,5.1-7c1.5-0.1,3,0.7,3.8,2c0.9,1.8,1.3,3.8,1.1,5.9H949.3z M953.9,513.4
		c0-1.5-0.5-3.5-2.3-3.5c-1.4,0-2.3,1.3-2.3,3.5H953.9z"/>
	<path class="st1" d="M960.8,523.7h-2.1l1.7-5.5h2.5L960.8,523.7z"/>
	<path class="st1" d="M974.7,522c0,2.4-1,4.1-3.3,4.2c-0.3,0-0.5,0-0.8,0v-2.5h0.2c1-0.1,1.3-0.8,1.3-2.1V508h2.6L974.7,522z
		 M972.1,503.7h2.6v2.6h-2.6V503.7z"/>
	<path class="st1" d="M979.9,503.7h2.8l-2.3,5.5H978L979.9,503.7z"/>
	<path class="st1" d="M994.4,521.5h-2.4c0-0.7,0-1.2,0-1.8c-0.4,1.3-1.7,2.1-3,2c-2.5,0-4.3-2.4-4.3-7c0-4.4,1.6-7,4.3-7
		c1.4-0.1,2.6,0.8,3,2.1c0-0.6,0-1.1,0-1.8h2.4V521.5z M987.4,514.8c0,3,0.8,4.4,2.3,4.4c0.7,0,1.3-0.3,1.7-0.9
		c0.5-0.7,0.5-1.5,0.5-3.5s-0.1-2.9-0.5-3.5c-0.3-0.6-1-0.9-1.7-0.9C988.2,510.4,987.4,511.7,987.4,514.8L987.4,514.8z"/>
	<path class="st1" d="M998.6,503.7h2.6v2.6h-2.6V503.7z M998.6,508h2.6v13.4h-2.6V508z"/>
	<path class="st1" d="M1021.7,521.5h-2.4c0-0.7,0-1.2,0-1.8c-0.4,1.3-1.7,2.1-3,2c-2.5,0-4.3-2.4-4.3-7c0-4.4,1.6-7,4.3-7
		c1.4-0.1,2.6,0.8,3,2.1c0-0.6,0-1.1,0-1.8h2.4V521.5z M1014.6,514.8c0,3,0.8,4.4,2.3,4.4c0.7,0,1.3-0.3,1.7-0.9
		c0.5-0.7,0.5-1.5,0.5-3.5s-0.1-2.9-0.5-3.5c-0.3-0.6-1-0.9-1.7-0.9C1015.4,510.4,1014.6,511.7,1014.6,514.8L1014.6,514.8z"/>
	<path class="st1" d="M1025.6,508h2.4v1.8c0.4-1.2,1.6-2.1,2.9-2c2.5,0,4.3,2.4,4.3,7c0,4.4-1.6,7-4.3,7c-1.2,0-2.3-0.7-2.7-1.8v6
		h-2.6L1025.6,508z M1032.6,514.7c0-3-0.8-4.4-2.3-4.4c-0.7,0-1.3,0.3-1.6,0.9c-0.5,0.6-0.6,1.5-0.6,3.5s0.1,2.8,0.6,3.5
		c0.3,0.6,0.9,0.9,1.6,0.9C1031.8,519.1,1032.6,517.7,1032.6,514.7L1032.6,514.7z"/>
	<path class="st1" d="M1038.4,508h2.4v1.8c0.4-1.2,1.6-2.1,2.9-2c2.5,0,4.3,2.4,4.3,7c0,4.4-1.6,7-4.3,7c-1.2,0-2.3-0.7-2.7-1.8v6
		h-2.6L1038.4,508z M1045.5,514.7c0-3-0.8-4.4-2.3-4.4c-0.7,0-1.3,0.3-1.6,0.9c-0.5,0.6-0.6,1.5-0.6,3.5s0.1,2.8,0.6,3.5
		c0.3,0.6,0.9,0.9,1.6,0.9C1044.7,519.1,1045.5,517.7,1045.5,514.7L1045.5,514.7z"/>
	<path class="st1" d="M1051.3,508h2.4c0,0.8,0,1.5,0,2.2c0.6-2,1.9-2.5,3.5-2.5v3.1c-0.3-0.2-0.7-0.3-1.1-0.3
		c-1.2,0-2.1,1.1-2.1,3.3v7.6h-2.6L1051.3,508z"/>
	<path class="st1" d="M1060,503.7h2.6v2.6h-2.6V503.7z M1060,508h2.6v13.4h-2.6V508z"/>
	<path class="st1" d="M1072,511.8c0-1.3-0.6-1.8-1.7-1.8c-0.7-0.1-1.4,0.5-1.4,1.2c0,0.1,0,0.1,0,0.2c0,1.3,1.4,1.5,3,2
		c1.9,0.4,3.2,2.1,3.1,4.1c0,2.3-1.9,4.2-4.2,4.3c-0.1,0-0.2,0-0.3,0c-2.5,0-4.4-1.4-4.6-4.4h2.6c-0.1,1.1,0.8,2,1.9,2.1
		c0.1,0,0.1,0,0.2,0c0.9,0.1,1.6-0.6,1.7-1.4c0-0.1,0-0.2,0-0.3c0-1.3-1.4-1.7-3-2.2s-3.1-1.4-3.1-4c0-2.2,1.6-3.7,4.3-3.7
		s4.1,1.5,4.2,4.1L1072,511.8z"/>
	<path class="st1" d="M1094.3,526h-2.6v-4.5c0-0.7,0-1.2,0-1.7c-0.4,1.2-1.5,2-2.7,1.9c-2.8,0-4.3-2.6-4.3-7c0-4.6,1.8-7,4.3-7
		c1.3-0.1,2.5,0.7,2.9,2c0-0.5,0-1.1,0-1.8h2.4V526z M1087.2,514.8c0,3,0.8,4.4,2.3,4.4c0.7,0,1.3-0.3,1.7-0.9
		c0.5-0.7,0.6-1.5,0.6-3.5s-0.1-2.9-0.6-3.5c-0.3-0.6-1-0.9-1.7-0.9C1088,510.4,1087.2,511.8,1087.2,514.8L1087.2,514.8z"/>
	<path class="st1" d="M1107.2,521.5h-2.4c0-0.6,0-1.2,0-1.8c-0.4,1.4-1.7,2.2-3.1,2.1c-2.2,0-3.6-1.2-3.6-4.2V508h2.6v8.7
		c0,1.1,0.2,2.4,1.8,2.4c1.2,0,2.1-0.8,2.1-2.5V508h2.6L1107.2,521.5z"/>
	<path class="st1" d="M1113.3,515.7c0,1.9,0.7,3.7,2.4,3.7c1.1,0,2.1-0.9,2.2-2h2.6c-0.1,1.4-0.8,2.6-1.8,3.5
		c-0.8,0.6-1.9,0.9-2.9,0.9c-3.6,0-5.2-3.3-5.2-7c0-4,1.8-7,5.1-7c1.5-0.1,3,0.7,3.8,2c0.9,1.8,1.3,3.8,1.1,5.9H1113.3z
		 M1117.9,513.4c0-1.5-0.6-3.5-2.3-3.5c-1.4,0-2.3,1.3-2.3,3.5H1117.9z"/>
	<path class="st1" d="M1136.1,521.5h-2.4l-4-13.4h2.6l2.5,9.6l2.3-9.6h2.6L1136.1,521.5z"/>
	<path class="st1" d="M1141.4,514.7c0-3.8,1.6-7,5.2-7s5.2,3.1,5.2,7s-1.6,7-5.2,7S1141.4,518.6,1141.4,514.7z M1144.1,514.7
		c0,3.3,0.9,4.5,2.5,4.5s2.4-1.2,2.4-4.6s-0.9-4.6-2.5-4.6S1144.1,511.4,1144.1,514.7L1144.1,514.7z"/>
	<path class="st1" d="M1155.4,510.5h-1.6V508h1.6v-3.2h2.6v3.2h1.6v2.5h-1.6v11h-2.6V510.5z"/>
	<path class="st1" d="M1162.3,508h2.4c0,0.8,0,1.5,0,2.2c0.6-2,1.9-2.5,3.5-2.5v3.1c-0.3-0.2-0.7-0.3-1.1-0.3
		c-1.2,0-2.1,1.1-2.1,3.3v7.6h-2.6L1162.3,508z"/>
	<path class="st1" d="M1172.6,515.7c0,1.9,0.7,3.7,2.4,3.7c1.1,0,2.1-0.9,2.2-2h2.6c-0.1,1.4-0.8,2.6-1.8,3.5
		c-0.8,0.6-1.9,0.9-2.9,0.9c-3.6,0-5.2-3.3-5.2-7c0-4,1.8-7,5.1-7c1.5-0.1,3,0.7,3.8,2c0.9,1.8,1.3,3.8,1.1,5.9H1172.6z
		 M1177.3,513.4c0-1.5-0.6-3.5-2.3-3.5c-1.4,0-2.3,1.3-2.3,3.5H1177.3z"/>
	<path class="st1" d="M1192.7,515.7c0,1.9,0.7,3.7,2.4,3.7c1.1,0,2.1-0.9,2.2-2h2.6c-0.1,1.4-0.8,2.6-1.8,3.5
		c-0.8,0.6-1.9,0.9-2.9,0.9c-3.6,0-5.2-3.3-5.2-7c0-4,1.8-7,5.1-7c1.5-0.1,3,0.7,3.8,2c0.9,1.8,1.3,3.8,1.1,5.9H1192.7z
		 M1197.3,513.4c0-1.5-0.6-3.5-2.3-3.5c-1.4,0-2.3,1.3-2.3,3.5H1197.3z"/>
	<path class="st1" d="M1203.2,508h2.3c0,0.5,0,1.1,0,1.7c0.5-1.3,1.8-2.1,3.2-1.9c2.2,0,3.6,1.2,3.6,4.1v9.5h-2.6v-8.7
		c0-1.1-0.2-2.4-1.8-2.4c-1.2,0-2.1,0.8-2.1,2.5v8.6h-2.6L1203.2,508z"/>
	<path class="st1" d="M1216.6,510.5h-1.6V508h1.6v-3.2h2.6v3.2h1.6v2.5h-1.6v11h-2.6V510.5z"/>
	<path class="st1" d="M1223.5,508h2.4c0,0.8,0,1.5,0,2.2c0.6-2,1.9-2.5,3.5-2.5v3.1c-0.3-0.2-0.7-0.3-1.1-0.3
		c-1.2,0-2.1,1.1-2.1,3.3v7.6h-2.6L1223.5,508z"/>
	<path class="st1" d="M1233.8,515.7c0,1.9,0.7,3.7,2.4,3.7c1.1,0,2.1-0.9,2.2-2h2.6c-0.1,1.4-0.8,2.6-1.8,3.5
		c-0.8,0.6-1.9,0.9-2.9,0.9c-3.6,0-5.2-3.3-5.2-7c0-4,1.8-7,5.1-7c1.5-0.1,3,0.7,3.8,2c0.9,1.8,1.3,3.8,1.1,5.9H1233.8z
		 M1238.5,513.4c0-1.5-0.6-3.5-2.3-3.5c-1.4,0-2.3,1.3-2.3,3.5H1238.5z"/>
	<path class="st1" d="M1244.4,508h2.4v1.8c0.4-1.2,1.6-2.1,2.9-2c2.5,0,4.3,2.4,4.3,7c0,4.4-1.6,7-4.3,7c-1.2,0-2.3-0.7-2.7-1.8v6
		h-2.6L1244.4,508z M1251.4,514.7c0-3-0.8-4.4-2.3-4.4c-0.7,0-1.3,0.3-1.6,0.9c-0.5,0.6-0.6,1.5-0.6,3.5s0.1,2.8,0.6,3.5
		c0.3,0.6,0.9,0.9,1.6,0.9C1250.6,519.1,1251.4,517.7,1251.4,514.7L1251.4,514.7z"/>
	<path class="st1" d="M1256.6,514.7c0-3.8,1.6-7,5.2-7s5.2,3.1,5.2,7s-1.6,7-5.2,7S1256.6,518.6,1256.6,514.7z M1265.9,506.5h-2.3
		l-1.9-2l-1.9,2h-2.3l3-3.3h2.5L1265.9,506.5z M1259.3,514.8c0,3.3,0.9,4.5,2.5,4.5s2.4-1.2,2.4-4.6s-0.9-4.6-2.5-4.6
		S1259.3,511.4,1259.3,514.8L1259.3,514.8z"/>
	<path class="st1" d="M1270.6,510.5h-1.6V508h1.6v-3.2h2.6v3.2h1.6v2.5h-1.6v11h-2.6L1270.6,510.5z"/>
	<path class="st1" d="M1293.8,521.5h-2.4c0-0.7,0-1.2,0-1.8c-0.4,1.3-1.7,2.1-3,2c-2.5,0-4.3-2.4-4.3-7c0-4.4,1.6-7,4.3-7
		c1.4-0.1,2.6,0.8,3,2.1c0-0.6,0-1.1,0-1.8h2.4V521.5z M1286.7,514.8c0,3,0.8,4.4,2.3,4.4c0.7,0,1.3-0.3,1.7-0.9
		c0.5-0.7,0.6-1.5,0.6-3.5s-0.1-2.9-0.6-3.5c-0.3-0.6-1-0.9-1.7-0.9C1287.5,510.4,1286.7,511.7,1286.7,514.8L1286.7,514.8z"/>
	<path class="st1" d="M1297.9,503.7h2.6v17.8h-2.6V503.7z"/>
	<path class="st1" d="M1305,503.7h2.6v17.8h-2.6V503.7z"/>
	<path class="st1" d="M1320.8,521.5h-2.4c0-0.7,0-1.2,0-1.8c-0.4,1.3-1.7,2.1-3,2c-2.5,0-4.3-2.4-4.3-7c0-4.4,1.6-7,4.3-7
		c1.4-0.1,2.6,0.8,3,2.1c0-0.6,0-1.1,0-1.8h2.4V521.5z M1313.7,514.8c0,3,0.8,4.4,2.3,4.4c0.7,0,1.3-0.3,1.7-0.9
		c0.5-0.7,0.6-1.5,0.6-3.5s-0.1-2.9-0.6-3.5c-0.3-0.6-1-0.9-1.7-0.9C1314.5,510.4,1313.7,511.7,1313.7,514.8L1313.7,514.8z"/>
	<path class="st1" d="M1324.9,503.7h2.6v2.6h-2.6V503.7z M1324.9,508h2.6v13.4h-2.6V508z"/>
	<path class="st1" d="M1332.1,510.5h-1.6V508h1.6v-3.2h2.6v3.2h1.6v2.5h-1.6v11h-2.6V510.5z"/>
	<path class="st1" d="M1351.5,511.8c0-1.3-0.6-1.8-1.7-1.8c-0.7-0.1-1.4,0.5-1.4,1.2c0,0.1,0,0.1,0,0.2c0,1.3,1.4,1.5,3,2
		c1.9,0.4,3.2,2.1,3.1,4.1c0,2.3-1.9,4.2-4.2,4.3c-0.1,0-0.2,0-0.3,0c-2.5,0-4.4-1.4-4.6-4.4h2.6c-0.1,1.1,0.8,2,1.9,2.1
		c0.1,0,0.1,0,0.2,0c0.9,0.1,1.6-0.6,1.7-1.4c0-0.1,0-0.2,0-0.3c0-1.3-1.4-1.7-3-2.2s-3.1-1.4-3.1-4c0-2.2,1.6-3.7,4.3-3.7
		s4.1,1.5,4.2,4.1L1351.5,511.8z"/>
	<path class="st1" d="M1358.6,503.7h2.8l-2.3,5.5h-2.4L1358.6,503.7z"/>
	<path class="st1" d="M1373.2,521.5h-2.4c0-0.7,0-1.2,0-1.8c-0.4,1.3-1.7,2.1-3,2c-2.5,0-4.3-2.4-4.3-7c0-4.4,1.6-7,4.3-7
		c1.4-0.1,2.6,0.8,3,2.1c0-0.6,0-1.1,0-1.8h2.4V521.5z M1366.1,514.8c0,3,0.8,4.4,2.3,4.4c0.7,0,1.3-0.3,1.7-0.9
		c0.5-0.7,0.6-1.5,0.6-3.5s-0.1-2.9-0.6-3.5c-0.3-0.6-1-0.9-1.7-0.9C1366.9,510.4,1366.1,511.7,1366.1,514.8L1366.1,514.8z"/>
	<path class="st1" d="M1386,521.3c0.1,1.3-0.3,2.6-1.2,3.7c-1,0.9-2.3,1.4-3.6,1.3c-2.3,0.1-4.3-1.6-4.6-3.9h2.7
		c0.1,0.4,0.2,0.8,0.6,1.1c0.4,0.3,0.9,0.5,1.4,0.4c1.4,0,2.2-0.8,2.2-2.7v-1.3c-0.3,1.3-1.5,2.1-2.8,2c-3,0-4.3-2.6-4.3-7
		s1.4-7,4.3-7c1.4-0.1,2.7,0.8,3.1,2.1c0-0.6,0-1.1,0-1.8h2.2V521.3z M1378.9,514.8c0,3,0.8,4.4,2.3,4.4c0.7,0,1.3-0.3,1.7-0.9
		c0.5-0.7,0.6-1.5,0.6-3.5s-0.1-2.9-0.6-3.5c-0.3-0.6-1-0.9-1.7-0.9C1379.8,510.4,1378.9,511.7,1378.9,514.8L1378.9,514.8z"/>
	<path class="st1" d="M1389.9,508h2.4c0,0.8,0,1.5,0,2.2c0.6-2,1.9-2.5,3.5-2.5v3.1c-0.3-0.2-0.7-0.3-1.1-0.3
		c-1.2,0-2.1,1.1-2.1,3.3v7.6h-2.6L1389.9,508z"/>
	<path class="st1" d="M1407,521.5h-2.4c0-0.7,0-1.2,0-1.8c-0.4,1.3-1.7,2.1-3,2c-2.5,0-4.3-2.4-4.3-7c0-4.4,1.6-7,4.3-7
		c1.4-0.1,2.6,0.8,3,2.1c0-0.6,0-1.1,0-1.8h2.4V521.5z M1399.9,514.8c0,3,0.8,4.4,2.3,4.4c0.7,0,1.3-0.3,1.7-0.9
		c0.5-0.7,0.6-1.5,0.6-3.5s-0.1-2.9-0.6-3.5c-0.3-0.6-1-0.9-1.7-0.9C1400.8,510.4,1399.9,511.7,1399.9,514.8L1399.9,514.8z"/>
	<path class="st1" d="M1410.9,508h2.3c0,0.5,0,1.1,0,1.7c0.5-1.3,1.8-2.1,3.2-1.9c2.2,0,3.6,1.2,3.6,4.1v9.5h-2.6v-8.7
		c0-1.1-0.2-2.4-1.8-2.4c-1.2,0-2.1,0.8-2.1,2.5v8.6h-2.6L1410.9,508z"/>
	<path class="st1" d="M1432.8,521.5h-2.4c0-0.8,0-1.4,0-1.9c-0.3,1.4-1.6,2.3-3,2.2c-2.5,0-4.3-2.4-4.3-7c0-4.4,1.6-7,4.3-7
		c1.2-0.1,2.4,0.7,2.7,1.9c0-0.5,0-1.1,0-1.7v-4.3h2.6L1432.8,521.5z M1425.7,514.8c0,3,0.8,4.4,2.3,4.4c0.7,0,1.3-0.3,1.7-0.9
		c0.5-0.7,0.6-1.5,0.6-3.5s-0.1-2.8-0.6-3.5c-0.3-0.6-1-1-1.7-0.9C1426.6,510.3,1425.7,511.7,1425.7,514.8L1425.7,514.8z"/>
	<path class="st1" d="M1437,503.7h2.6v2.6h-2.6V503.7z M1437,508h2.6v13.4h-2.6V508z"/>
	<path class="st1" d="M1443.7,508h2.4c0,0.8,0,1.5,0,2.2c0.6-2,1.9-2.5,3.5-2.5v3.1c-0.3-0.2-0.7-0.3-1.1-0.3
		c-1.2,0-2.1,1.1-2.1,3.3v7.6h-2.6L1443.7,508z"/>
	<path class="st1" d="M1454,521.5h-2.6v-3.2h2.6V521.5z"/>
	<path class="st1" d="M479.5,615.5h2.9l3.5,13.4l3.5-13.4h2.8l-5,17.8h-2.6L479.5,615.5z"/>
	<path class="st1" d="M493.1,626.5c0-3.8,1.6-7,5.2-7s5.2,3.1,5.2,7s-1.6,7-5.2,7S493.1,630.4,493.1,626.5z M495.8,626.5
		c0,3.3,0.9,4.5,2.5,4.5s2.4-1.2,2.4-4.6s-0.9-4.6-2.5-4.6S495.8,623.2,495.8,626.5L495.8,626.5z"/>
	<path class="st1" d="M507.1,622.3h-1.6v-2.5h1.6v-3.2h2.6v3.2h1.6v2.5h-1.6v11h-2.6V622.3z"/>
	<path class="st1" d="M514,619.8h2.4c0,0.8,0,1.5,0,2.2c0.5-2,1.9-2.5,3.5-2.5v3.1c-0.3-0.2-0.7-0.3-1.1-0.3c-1.2,0-2.1,1.2-2.1,3.3
		v7.6H514V619.8z"/>
	<path class="st1" d="M524.3,627.4c0,1.9,0.7,3.7,2.4,3.7c1.1,0,2.1-0.9,2.2-2h2.6c-0.1,1.4-0.8,2.6-1.8,3.5
		c-0.8,0.6-1.9,0.9-2.9,0.9c-3.6,0-5.2-3.3-5.2-7c0-4,1.8-7,5.1-7c1.5-0.1,3,0.7,3.8,2c0.9,1.8,1.3,3.8,1.1,5.9H524.3z M528.9,625.2
		c0-1.5-0.5-3.5-2.3-3.5c-1.4,0-2.3,1.3-2.3,3.5H528.9z"/>
	<path class="st1" d="M548.8,627.4c0,1.9,0.7,3.7,2.4,3.7c1.1,0,2.1-0.9,2.2-2h2.6c-0.1,1.4-0.8,2.6-1.8,3.5
		c-0.8,0.6-1.9,0.9-2.9,0.9c-3.6,0-5.2-3.3-5.2-7c0-4,1.8-7,5.1-7c1.5-0.1,3,0.7,3.8,2c0.9,1.8,1.3,3.8,1.1,5.9H548.8z M553.5,625.2
		c0-1.5-0.5-3.5-2.3-3.5c-1.4,0-2.3,1.3-2.3,3.5H553.5z"/>
	<path class="st1" d="M559.4,619.8h2.3c0,0.5,0,1.1,0,1.7c0.5-1.3,1.8-2.1,3.2-1.9c2.2,0,3.6,1.2,3.6,4.2v9.5h-2.6v-8.7
		c0-1.1-0.2-2.4-1.8-2.4c-1.2,0-2.1,0.8-2.1,2.5v8.6h-2.6L559.4,619.8z"/>
	<path class="st1" d="M572.8,622.3h-1.6v-2.5h1.6v-3.2h2.6v3.2h1.6v2.5h-1.6v11h-2.6V622.3z"/>
	<path class="st1" d="M579.7,619.8h2.4c0,0.8,0,1.5,0,2.2c0.5-2,1.9-2.5,3.5-2.5v3.1c-0.3-0.2-0.7-0.3-1.1-0.3
		c-1.2,0-2.1,1.2-2.1,3.3v7.6h-2.6L579.7,619.8z"/>
	<path class="st1" d="M590,627.4c0,1.9,0.7,3.7,2.4,3.7c1.1,0,2.1-0.9,2.2-2h2.6c-0.1,1.4-0.8,2.6-1.8,3.5c-0.8,0.6-1.9,0.9-2.9,0.9
		c-3.6,0-5.2-3.3-5.2-7c0-4,1.8-7,5.1-7c1.5-0.1,3,0.7,3.8,2c0.9,1.8,1.3,3.8,1.1,5.9H590z M594.6,625.2c0-1.5-0.5-3.5-2.3-3.5
		c-1.4,0-2.3,1.3-2.3,3.5H594.6z"/>
	<path class="st1" d="M600.5,619.8h2.4v1.8c0.4-1.2,1.6-2.1,2.9-2c2.5,0,4.3,2.4,4.3,7c0,4.4-1.6,7-4.3,7c-1.2,0-2.3-0.7-2.7-1.8v6
		h-2.6L600.5,619.8z M607.6,626.5c0-3-0.8-4.4-2.3-4.4c-0.7,0-1.3,0.3-1.6,0.9c-0.5,0.7-0.6,1.5-0.6,3.5s0.1,2.8,0.6,3.5
		c0.3,0.6,0.9,0.9,1.6,0.9C606.8,631,607.6,629.5,607.6,626.5L607.6,626.5z"/>
	<path class="st1" d="M613.4,619.8h2.4c0,0.8,0,1.5,0,2.2c0.5-2,1.9-2.5,3.5-2.5v3.1c-0.3-0.2-0.7-0.3-1.1-0.3
		c-1.2,0-2.1,1.2-2.1,3.3v7.6h-2.6V619.8z"/>
	<path class="st1" d="M622.1,615.5h2.6v2.5h-2.6V615.5z M622.1,619.8h2.6v13.4h-2.6V619.8z"/>
	<path class="st1" d="M634.1,623.6c0-1.3-0.6-1.8-1.7-1.8c-0.7-0.1-1.4,0.5-1.4,1.2c0,0.1,0,0.1,0,0.2c0,1.3,1.4,1.5,3,2
		c1.9,0.4,3.2,2.1,3.1,4.1c0,2.3-1.9,4.2-4.2,4.3c-0.1,0-0.2,0-0.3,0c-2.5,0-4.4-1.4-4.6-4.4h2.6c-0.1,1.1,0.8,2,1.9,2.1
		c0.1,0,0.1,0,0.2,0c0.9,0.1,1.6-0.6,1.7-1.4c0-0.1,0-0.2,0-0.3c0-1.3-1.4-1.7-3-2.2s-3.1-1.4-3.1-4c0-2.2,1.6-3.7,4.3-3.7
		s4.1,1.5,4.2,4.1L634.1,623.6z"/>
	<path class="st1" d="M642.3,627.4c0,1.9,0.7,3.7,2.4,3.7c1.1,0,2.1-0.9,2.2-2h2.6c-0.1,1.4-0.8,2.6-1.8,3.5
		c-0.8,0.6-1.9,0.9-2.9,0.9c-3.6,0-5.2-3.3-5.2-7c0-4,1.8-7,5.1-7c1.5-0.1,3,0.7,3.8,2c0.9,1.8,1.3,3.8,1.1,5.9H642.3z M647,625.2
		c0-1.5-0.5-3.5-2.3-3.5c-1.4,0-2.3,1.3-2.3,3.5H647z"/>
	<path class="st1" d="M664.7,619.8h2.3v1.8c0.4-1.2,1.6-2.1,2.9-2c2.5,0,4.3,2.4,4.3,7c0,4.4-1.6,7-4.3,7c-1.2,0-2.3-0.7-2.7-1.8v6
		h-2.6L664.7,619.8z M671.7,626.5c0-3-0.8-4.4-2.3-4.4c-0.7,0-1.3,0.3-1.6,0.9c-0.5,0.7-0.6,1.5-0.6,3.5s0.1,2.8,0.6,3.5
		c0.3,0.6,0.9,0.9,1.6,0.9C670.9,631,671.7,629.5,671.7,626.5L671.7,626.5z"/>
	<path class="st1" d="M677.5,619.8h2.4c0,0.8,0,1.5,0,2.2c0.5-2,1.9-2.5,3.5-2.5v3.1c-0.3-0.2-0.7-0.3-1.1-0.3
		c-1.2,0-2.1,1.2-2.1,3.3v7.6h-2.6L677.5,619.8z"/>
	<path class="st1" d="M685,626.5c0-3.8,1.6-7,5.2-7s5.2,3.1,5.2,7s-1.6,7-5.2,7S685,630.4,685,626.5z M687.7,626.5
		c0,3.3,0.9,4.5,2.5,4.5s2.4-1.2,2.4-4.6s-0.9-4.6-2.5-4.6S687.7,623.2,687.7,626.5L687.7,626.5z"/>
	<path class="st1" d="M698.5,619.8h2.4v1.8c0.4-1.2,1.6-2.1,2.9-2c2.5,0,4.3,2.4,4.3,7c0,4.4-1.6,7-4.3,7c-1.2,0-2.3-0.7-2.7-1.8v6
		h-2.6L698.5,619.8z M705.6,626.5c0-3-0.8-4.4-2.3-4.4c-0.7,0-1.3,0.3-1.6,0.9c-0.5,0.7-0.6,1.5-0.6,3.5s0.1,2.8,0.6,3.5
		c0.3,0.6,0.9,0.9,1.6,0.9C704.8,631,705.6,629.5,705.6,626.5L705.6,626.5z"/>
	<path class="st1" d="M710.7,626.5c0-3.8,1.6-7,5.2-7s5.2,3.1,5.2,7s-1.6,7-5.2,7S710.7,630.4,710.7,626.5z M713.5,626.5
		c0,3.3,0.9,4.5,2.5,4.5s2.4-1.2,2.4-4.6s-0.9-4.6-2.5-4.6S713.5,623.2,713.5,626.5L713.5,626.5z"/>
	<path class="st1" d="M729.5,623.6c0-1.3-0.6-1.8-1.7-1.8c-0.7-0.1-1.4,0.5-1.4,1.2c0,0.1,0,0.1,0,0.2c0,1.3,1.4,1.5,3,2
		c1.9,0.4,3.2,2.1,3.1,4.1c0,2.3-1.9,4.2-4.2,4.3c-0.1,0-0.2,0-0.3,0c-2.5,0-4.4-1.4-4.6-4.4h2.6c-0.1,1.1,0.8,2,1.9,2.1
		c0.1,0,0.1,0,0.2,0c0.9,0.1,1.6-0.6,1.7-1.4c0-0.1,0-0.2,0-0.3c0-1.3-1.4-1.7-3-2.2s-3.1-1.4-3.1-4c0-2.2,1.6-3.7,4.3-3.7
		s4.1,1.5,4.2,4.1L729.5,623.6z"/>
	<path class="st1" d="M737.7,627.4c0,1.9,0.7,3.7,2.4,3.7c1.1,0,2.1-0.9,2.2-2h2.6c-0.1,1.4-0.8,2.6-1.8,3.5
		c-0.8,0.6-1.9,0.9-2.9,0.9c-3.6,0-5.2-3.3-5.2-7c0-4,1.8-7,5.1-7c1.5-0.1,3,0.7,3.8,2c0.9,1.8,1.3,3.8,1.1,5.9H737.7z M742.3,625.2
		c0-1.5-0.5-3.5-2.3-3.5c-1.4,0-2.3,1.3-2.3,3.5H742.3z"/>
	<path class="st1" d="M769,633.2h-2.4c0-0.8,0-1.4,0-1.9c-0.3,1.4-1.6,2.3-3,2.2c-2.5,0-4.3-2.4-4.3-7c0-4.4,1.6-7,4.3-7
		c1.2-0.1,2.4,0.7,2.7,1.9c0-0.5,0-1.1,0-1.7v-4.3h2.6V633.2z M761.9,626.5c0,3,0.8,4.4,2.3,4.4c0.7,0,1.3-0.3,1.7-0.9
		c0.5-0.7,0.5-1.5,0.5-3.5s-0.1-2.8-0.5-3.5c-0.3-0.6-1-1-1.7-0.9C762.8,622.1,761.9,623.5,761.9,626.5L761.9,626.5z"/>
	<path class="st1" d="M775.1,627.4c0,1.9,0.7,3.7,2.4,3.7c1.1,0,2.1-0.9,2.2-2h2.6c-0.1,1.4-0.8,2.6-1.8,3.5
		c-0.8,0.6-1.9,0.9-2.9,0.9c-3.6,0-5.2-3.3-5.2-7c0-4,1.8-7,5.1-7c1.5-0.1,3,0.7,3.8,2c0.9,1.8,1.3,3.8,1.1,5.9H775.1z M779.8,625.2
		c0-1.5-0.5-3.5-2.3-3.5c-1.4,0-2.3,1.3-2.3,3.5H779.8z"/>
	<path class="st1" d="M790.8,623.6c0-1.3-0.6-1.8-1.7-1.8c-0.7-0.1-1.4,0.5-1.4,1.2c0,0.1,0,0.1,0,0.2c0,1.3,1.4,1.5,3,2
		c1.9,0.4,3.2,2.1,3.1,4.1c0,2.3-1.9,4.2-4.2,4.3c-0.1,0-0.2,0-0.3,0c-2.5,0-4.4-1.4-4.6-4.4h2.6c-0.1,1.1,0.8,2,1.9,2.1
		c0.1,0,0.1,0,0.2,0c0.9,0.1,1.6-0.6,1.7-1.4c0-0.1,0-0.2,0-0.3c0-1.3-1.4-1.7-3-2.2s-3.1-1.4-3.1-4c0-2.2,1.6-3.7,4.3-3.7
		s4.1,1.5,4.2,4.1L790.8,623.6z"/>
	<path class="st1" d="M813.9,623.6c0-1.3-0.6-1.8-1.7-1.8c-0.7-0.1-1.4,0.5-1.4,1.2c0,0.1,0,0.1,0,0.2c0,1.3,1.4,1.5,3,2
		c1.9,0.4,3.2,2.1,3.1,4.1c0,2.3-1.9,4.2-4.2,4.3c-0.1,0-0.2,0-0.3,0c-2.5,0-4.4-1.4-4.6-4.4h2.6c-0.1,1.1,0.8,2,1.9,2.1
		c0.1,0,0.1,0,0.2,0c0.9,0.1,1.6-0.6,1.7-1.4c0-0.1,0-0.2,0-0.3c0-1.3-1.4-1.7-3-2.2s-3.1-1.4-3.1-4c0-2.2,1.6-3.7,4.3-3.7
		s4.1,1.5,4.2,4.1L813.9,623.6z"/>
	<path class="st1" d="M822.1,627.4c0,1.9,0.7,3.7,2.4,3.7c1.1,0,2.1-0.9,2.2-2h2.6c-0.1,1.4-0.8,2.6-1.8,3.5
		c-0.8,0.6-1.9,0.9-2.9,0.9c-3.6,0-5.2-3.3-5.2-7c0-4,1.8-7,5.1-7c1.5-0.1,3,0.7,3.8,2c0.9,1.8,1.3,3.8,1.1,5.9H822.1z M826.8,625.2
		c0-1.5-0.5-3.5-2.3-3.5c-1.4,0-2.3,1.3-2.3,3.5H826.8z"/>
	<path class="st1" d="M832.7,619.8h2.3c0,0.8,0,1.5,0,2.2c0.5-2,1.9-2.5,3.5-2.5v3.1c-0.3-0.2-0.7-0.3-1.1-0.3
		c-1.2,0-2.1,1.2-2.1,3.3v7.6h-2.6L832.7,619.8z"/>
	<path class="st1" d="M846.2,633.2h-2.4l-4-13.4h2.6l2.5,9.6l2.3-9.6h2.6L846.2,633.2z"/>
	<path class="st1" d="M852.6,615.5h2.6v2.5h-2.6V615.5z M852.6,619.8h2.6v13.4h-2.6V619.8z"/>
	<path class="st1" d="M868.2,628.3c-0.1,2.7-1.5,5.2-4.3,5.2c-3.3,0-5.2-2.8-5.2-7c0-4.4,2-7,5.2-7c2.9,0,4.3,2.4,4.3,5.2h-2.7
		c-0.1-2-0.8-2.8-1.8-2.8c-0.7,0-1.3,0.4-1.6,1c-0.5,1.1-0.7,2.3-0.6,3.5c0,3.2,0.8,4.6,2.3,4.6c1.2,0,1.8-1.2,1.8-2.8L868.2,628.3z
		"/>
	<path class="st1" d="M873.2,627.4c0,1.9,0.7,3.7,2.4,3.7c1.1,0,2.1-0.9,2.2-2h2.6c-0.1,1.4-0.8,2.6-1.8,3.5
		c-0.8,0.6-1.9,0.9-2.9,0.9c-3.6,0-5.2-3.3-5.2-7c0-4,1.8-7,5.1-7c1.5-0.1,3,0.7,3.8,2c0.9,1.8,1.3,3.8,1.1,5.9H873.2z M877.9,625.2
		c0-1.5-0.5-3.5-2.3-3.5c-1.4,0-2.3,1.3-2.3,3.5H877.9z"/>
	<path class="st1" d="M889,623.6c0-1.3-0.6-1.8-1.7-1.8c-0.7-0.1-1.4,0.5-1.4,1.2c0,0.1,0,0.1,0,0.2c0,1.3,1.4,1.5,3,2
		c1.9,0.4,3.2,2.1,3.1,4.1c0,2.3-1.9,4.2-4.2,4.3c-0.1,0-0.2,0-0.3,0c-2.5,0-4.4-1.4-4.6-4.4h2.6c-0.1,1.1,0.8,2,1.9,2.1
		c0.1,0,0.1,0,0.2,0c0.9,0.1,1.6-0.6,1.7-1.4c0-0.1,0-0.2,0-0.3c0-1.3-1.4-1.7-3-2.2s-3.1-1.4-3.1-4c0-2.2,1.6-3.7,4.3-3.7
		s4.1,1.5,4.2,4.1L889,623.6z"/>
	<path class="st1" d="M915.8,633.2h-2.4c0-0.8,0-1.4,0-1.9c-0.3,1.4-1.6,2.3-3,2.2c-2.5,0-4.3-2.4-4.3-7c0-4.4,1.6-7,4.3-7
		c1.2-0.1,2.4,0.7,2.7,1.9c0-0.5,0-1.1,0-1.7v-4.3h2.6L915.8,633.2z M908.7,626.5c0,3,0.8,4.4,2.3,4.4c0.7,0,1.3-0.3,1.7-0.9
		c0.5-0.7,0.5-1.5,0.5-3.5s-0.1-2.8-0.5-3.5c-0.3-0.6-1-1-1.7-0.9C909.5,622.1,908.7,623.5,908.7,626.5L908.7,626.5z"/>
	<path class="st1" d="M921.9,627.4c0,1.9,0.7,3.7,2.4,3.7c1.1,0,2.1-0.9,2.2-2h2.6c-0.1,1.4-0.8,2.6-1.8,3.5
		c-0.8,0.6-1.9,0.9-2.9,0.9c-3.6,0-5.2-3.3-5.2-7c0-4,1.8-7,5.1-7c1.5-0.1,3,0.7,3.8,2c0.9,1.8,1.3,3.8,1.1,5.9H921.9z M926.5,625.2
		c0-1.5-0.5-3.5-2.3-3.5c-1.4,0-2.3,1.3-2.3,3.5H926.5z"/>
	<path class="st1" d="M953.2,633c0.1,1.3-0.3,2.6-1.2,3.7c-1,0.9-2.3,1.4-3.6,1.3c-2.3,0.1-4.3-1.6-4.6-3.9h2.7
		c0.1,0.4,0.2,0.8,0.5,1.1c0.4,0.3,0.9,0.5,1.4,0.4c1.4,0,2.2-0.8,2.2-2.7v-1.3c-0.3,1.3-1.5,2.1-2.8,2c-3,0-4.3-2.6-4.3-7
		s1.4-7,4.3-7c1.4-0.1,2.7,0.8,3.1,2.1c0-0.6,0-1.2,0-1.8h2.2L953.2,633z M946.1,626.5c0,3,0.8,4.4,2.3,4.4c0.7,0,1.3-0.3,1.6-0.9
		c0.5-0.7,0.5-1.5,0.5-3.5s-0.1-2.9-0.5-3.5c-0.3-0.6-1-0.9-1.7-0.9C946.9,622.1,946.1,623.5,946.1,626.5L946.1,626.5z"/>
	<path class="st1" d="M957,619.8h2.4c0,0.8,0,1.5,0,2.2c0.5-2,1.9-2.5,3.5-2.5v3.1c-0.3-0.2-0.7-0.3-1.1-0.3c-1.2,0-2.1,1.2-2.1,3.3
		v7.6h-2.6L957,619.8z"/>
	<path class="st1" d="M974.1,633.2h-2.4c0-0.7,0-1.2,0-1.8c-0.4,1.3-1.7,2.1-3,2c-2.5,0-4.3-2.4-4.3-7c0-4.4,1.6-7,4.3-7
		c1.4-0.1,2.6,0.8,3,2.1c0-0.6,0-1.2,0-1.8h2.4V633.2z M967.1,626.6c0,3,0.8,4.4,2.3,4.4c0.7,0,1.3-0.3,1.7-1
		c0.5-0.7,0.5-1.5,0.5-3.5s-0.1-2.9-0.5-3.5c-0.3-0.6-1-0.9-1.7-0.9C967.9,622.1,967.1,623.5,967.1,626.6L967.1,626.6z"/>
	<path class="st1" d="M978,619.8h2.3c0,0.5,0,1.1,0,1.7c0.5-1.3,1.8-2.1,3.2-1.9c2.2,0,3.6,1.2,3.6,4.2v9.5h-2.6v-8.7
		c0-1.1-0.2-2.4-1.8-2.4c-1.2,0-2.1,0.8-2.1,2.5v8.6H978V619.8z"/>
	<path class="st1" d="M999.9,633.2h-2.4c0-0.8,0-1.4,0-1.9c-0.3,1.4-1.6,2.3-3,2.2c-2.5,0-4.3-2.4-4.3-7c0-4.4,1.6-7,4.3-7
		c1.2-0.1,2.4,0.7,2.7,1.9c0-0.5,0-1.1,0-1.7v-4.3h2.6L999.9,633.2z M992.9,626.5c0,3,0.8,4.4,2.3,4.4c0.7,0,1.3-0.3,1.7-0.9
		c0.5-0.7,0.5-1.5,0.5-3.5s-0.1-2.8-0.5-3.5c-0.3-0.6-1-1-1.7-0.9C993.7,622.1,992.9,623.5,992.9,626.5L992.9,626.5z"/>
	<path class="st1" d="M1006,627.4c0,1.9,0.7,3.7,2.4,3.7c1.1,0,2.1-0.9,2.2-2h2.6c-0.1,1.4-0.8,2.6-1.8,3.5
		c-0.8,0.6-1.9,0.9-2.9,0.9c-3.6,0-5.2-3.3-5.2-7c0-4,1.8-7,5.1-7c1.5-0.1,3,0.7,3.8,2c0.9,1.8,1.3,3.8,1.1,5.9H1006z M1010.6,625.2
		c0-1.5-0.5-3.5-2.3-3.5c-1.4,0-2.3,1.3-2.3,3.5H1010.6z"/>
	<path class="st1" d="M1037.3,637.8h-2.6v-4.5c0-0.7,0-1.2,0-1.7c-0.4,1.2-1.5,2-2.7,1.9c-2.8,0-4.3-2.6-4.3-7c0-4.6,1.8-7,4.3-7
		c1.3-0.1,2.5,0.7,2.9,2c0-0.5,0-1.1,0-1.8h2.4V637.8z M1030.3,626.6c0,3,0.8,4.4,2.3,4.4c0.7,0,1.3-0.3,1.7-0.9
		c0.5-0.7,0.6-1.5,0.6-3.5s-0.1-2.9-0.6-3.5c-0.3-0.6-1-0.9-1.7-0.9C1031.1,622.1,1030.3,623.5,1030.3,626.6L1030.3,626.6z"/>
	<path class="st1" d="M1050.3,633.2h-2.4c0-0.6,0-1.2,0-1.8c-0.4,1.4-1.7,2.2-3.1,2.1c-2.2,0-3.6-1.2-3.6-4.2v-9.5h2.6v8.7
		c0,1.1,0.2,2.4,1.8,2.4c1.2,0,2.1-0.8,2.1-2.5v-8.6h2.6L1050.3,633.2z"/>
	<path class="st1" d="M1063.1,633.2h-2.4c0-0.7,0-1.2,0-1.8c-0.4,1.3-1.7,2.1-3,2c-2.5,0-4.3-2.4-4.3-7c0-4.4,1.6-7,4.3-7
		c1.4-0.1,2.6,0.8,3,2.1c0-0.6,0-1.2,0-1.8h2.4V633.2z M1056.1,626.6c0,3,0.8,4.4,2.3,4.4c0.7,0,1.3-0.3,1.7-1
		c0.5-0.7,0.6-1.5,0.6-3.5s-0.1-2.9-0.6-3.5c-0.3-0.6-1-0.9-1.7-0.9C1056.9,622.1,1056.1,623.5,1056.1,626.6L1056.1,626.6z"/>
	<path class="st1" d="M1067.3,615.5h2.6v17.8h-2.6V615.5z"/>
	<path class="st1" d="M1074.4,615.5h2.6v2.5h-2.6L1074.4,615.5z M1074.4,619.8h2.6v13.4h-2.6L1074.4,619.8z"/>
	<path class="st1" d="M1081.6,622.3h-1.6v-2.5h1.6v-3.2h2.6v3.2h1.6v2.5h-1.6v11h-2.6L1081.6,622.3z"/>
	<path class="st1" d="M1090.4,627.4c0,1.9,0.7,3.7,2.4,3.7c1.1,0,2.1-0.9,2.2-2h2.6c-0.1,1.4-0.8,2.6-1.8,3.5
		c-0.8,0.6-1.9,0.9-2.9,0.9c-3.6,0-5.2-3.3-5.2-7c0-4,1.8-7,5.1-7c1.5-0.1,3,0.7,3.8,2c0.9,1.8,1.3,3.8,1.1,5.9H1090.4z
		 M1095.7,614.2l1,2.1l-5.5,2.6l-0.9-1.7L1095.7,614.2z M1095.1,625.2c0-1.5-0.6-3.5-2.3-3.5c-1.4,0-2.3,1.3-2.3,3.5H1095.1z"/>
	<path class="st1" d="M1115,627.4c0,1.9,0.7,3.7,2.4,3.7c1.1,0,2.1-0.9,2.2-2h2.6c-0.1,1.4-0.8,2.6-1.8,3.5
		c-0.8,0.6-1.9,0.9-2.9,0.9c-3.6,0-5.2-3.3-5.2-7c0-4,1.8-7,5.1-7c1.5-0.1,3,0.7,3.8,2c0.9,1.8,1.3,3.8,1.1,5.9H1115z M1119.6,625.2
		c0-1.5-0.6-3.5-2.3-3.5c-1.4,0-2.3,1.3-2.3,3.5H1119.6z"/>
	<path class="st1" d="M1126,622.3h-1.6v-2.5h1.6v-3.2h2.6v3.2h1.6v2.5h-1.6v11h-2.6V622.3z"/>
	<path class="st1" d="M1149.6,633.2h-2.4l-4-13.4h2.6l2.5,9.6l2.3-9.6h2.6L1149.6,633.2z"/>
	<path class="st1" d="M1154.9,626.5c0-3.8,1.6-7,5.2-7s5.2,3.1,5.2,7s-1.6,7-5.2,7S1154.9,630.4,1154.9,626.5z M1157.7,626.5
		c0,3.3,0.9,4.5,2.5,4.5s2.4-1.2,2.4-4.6s-0.9-4.6-2.5-4.6S1157.7,623.2,1157.7,626.5L1157.7,626.5z"/>
	<path class="st1" d="M1173.7,623.6c0-1.3-0.6-1.8-1.7-1.8c-0.7-0.1-1.4,0.5-1.4,1.2c0,0.1,0,0.1,0,0.2c0,1.3,1.4,1.5,3,2
		c1.9,0.4,3.2,2.1,3.1,4.1c0,2.3-1.9,4.2-4.2,4.3c-0.1,0-0.2,0-0.3,0c-2.5,0-4.4-1.4-4.6-4.4h2.6c-0.1,1.1,0.8,2,1.9,2.1
		c0.1,0,0.1,0,0.2,0c0.9,0.1,1.6-0.6,1.7-1.4c0-0.1,0-0.2,0-0.3c0-1.3-1.4-1.7-3-2.2s-3.1-1.4-3.1-4c0-2.2,1.6-3.7,4.3-3.7
		s4.1,1.5,4.2,4.1L1173.7,623.6z"/>
	<path class="st1" d="M1193.7,627.4c0,1.9,0.7,3.7,2.4,3.7c1.1,0,2.1-0.9,2.2-2h2.6c-0.1,1.4-0.8,2.6-1.8,3.5
		c-0.8,0.6-1.9,0.9-2.9,0.9c-3.6,0-5.2-3.3-5.2-7c0-4,1.8-7,5.1-7c1.5-0.1,3,0.7,3.8,2c0.9,1.8,1.3,3.8,1.1,5.9H1193.7z
		 M1198.3,625.2c0-1.5-0.6-3.5-2.3-3.5c-1.4,0-2.3,1.3-2.3,3.5H1198.3z"/>
	<path class="st1" d="M1204.2,619.8h2.3c0,0.5,0,1.1,0,1.7c0.5-1.3,1.8-2.1,3.2-1.9c2.2,0,3.6,1.2,3.6,4.2v9.5h-2.6v-8.7
		c0-1.1-0.2-2.4-1.8-2.4c-1.2,0-2.1,0.8-2.1,2.5v8.6h-2.6L1204.2,619.8z"/>
	<path class="st1" d="M1226.2,633c0.1,1.3-0.3,2.6-1.2,3.7c-1,0.9-2.3,1.4-3.6,1.3c-2.3,0.1-4.3-1.6-4.6-3.9h2.7
		c0.1,0.4,0.2,0.8,0.6,1.1c0.4,0.3,0.9,0.5,1.4,0.4c1.4,0,2.2-0.8,2.2-2.7v-1.3c-0.3,1.3-1.5,2.1-2.8,2c-3,0-4.3-2.6-4.3-7
		s1.4-7,4.3-7c1.4-0.1,2.7,0.8,3.1,2.1c0-0.6,0-1.2,0-1.8h2.2L1226.2,633z M1219.1,626.5c0,3,0.8,4.4,2.3,4.4c0.7,0,1.3-0.3,1.6-0.9
		c0.5-0.7,0.6-1.5,0.6-3.5s-0.1-2.9-0.6-3.5c-0.3-0.6-1-0.9-1.7-0.9C1219.9,622.1,1219.1,623.5,1219.1,626.5L1219.1,626.5z"/>
	<path class="st1" d="M1239,633.2h-2.4c0-0.7,0-1.2,0-1.8c-0.4,1.3-1.7,2.1-3,2c-2.5,0-4.3-2.4-4.3-7c0-4.4,1.6-7,4.3-7
		c1.4-0.1,2.6,0.8,3,2.1c0-0.6,0-1.2,0-1.8h2.4V633.2z M1231.9,626.6c0,3,0.8,4.4,2.3,4.4c0.7,0,1.3-0.3,1.7-0.9
		c0.5-0.7,0.6-1.5,0.6-3.5s-0.1-2.9-0.6-3.5c-0.3-0.6-1-0.9-1.7-0.9C1232.8,622.1,1231.9,623.5,1231.9,626.6L1231.9,626.6z"/>
	<path class="st1" d="M1251.9,633c0.1,1.3-0.3,2.6-1.2,3.7c-1,0.9-2.3,1.4-3.6,1.3c-2.3,0.1-4.3-1.6-4.6-3.9h2.7
		c0.1,0.4,0.2,0.8,0.6,1.1c0.4,0.3,0.9,0.5,1.4,0.4c1.4,0,2.2-0.8,2.2-2.7v-1.3c-0.3,1.3-1.5,2.1-2.8,2c-3,0-4.3-2.6-4.3-7
		s1.4-7,4.3-7c1.4-0.1,2.7,0.8,3.1,2.1c0-0.6,0-1.2,0-1.8h2.2L1251.9,633z M1244.8,626.5c0,3,0.8,4.4,2.3,4.4c0.7,0,1.3-0.3,1.7-0.9
		c0.5-0.7,0.6-1.5,0.6-3.5s-0.1-2.9-0.6-3.5c-0.3-0.6-1-0.9-1.7-0.9C1245.6,622.1,1244.8,623.5,1244.8,626.5L1244.8,626.5z"/>
	<path class="st1" d="M1258,627.4c0,1.9,0.7,3.7,2.4,3.7c1.1,0,2.1-0.9,2.2-2h2.6c-0.1,1.4-0.8,2.6-1.8,3.5
		c-0.8,0.6-1.9,0.9-2.9,0.9c-3.6,0-5.2-3.3-5.2-7c0-4,1.8-7,5.1-7c1.5-0.1,3,0.7,3.8,2c0.9,1.8,1.3,3.8,1.1,5.9H1258z M1262.6,625.2
		c0-1.5-0.6-3.5-2.3-3.5c-1.4,0-2.3,1.3-2.3,3.5H1262.6z"/>
	<path class="st1" d="M1268.6,619.8h2.5c0,0.6,0,1.2,0,1.8c0.3-1.3,1.6-2.2,3-2.1c0.8,0,1.5,0.2,2.1,0.7c0.3,0.3,0.5,0.7,0.7,1.1
		c0.2-0.5,0.6-0.9,1-1.2c0.7-0.4,1.5-0.7,2.3-0.7c1.2-0.1,2.4,0.5,3.1,1.5c0.6,0.9,0.9,2.1,0.8,3.2v9.1h-2.6v-8.7
		c0-0.6-0.1-1.2-0.3-1.7c-0.3-0.5-0.9-0.8-1.4-0.7c-0.6-0.1-1.1,0.2-1.5,0.6c-0.4,0.5-0.6,1.1-0.5,1.8v8.8h-2.7v-8.7
		c0-0.6-0.1-1.2-0.3-1.7c-0.3-0.5-0.8-0.8-1.4-0.7c-0.6-0.1-1.1,0.2-1.5,0.5c-0.4,0.5-0.6,1.2-0.5,1.8v8.7h-2.6L1268.6,619.8z"/>
	<path class="st1" d="M1290.1,627.4c0,1.9,0.7,3.7,2.4,3.7c1.1,0,2.1-0.9,2.2-2h2.6c-0.1,1.4-0.8,2.6-1.8,3.5
		c-0.8,0.6-1.9,0.9-2.9,0.9c-3.6,0-5.2-3.3-5.2-7c0-4,1.8-7,5.1-7c1.5-0.1,3,0.7,3.8,2c0.9,1.8,1.3,3.8,1.1,5.9H1290.1z
		 M1294.8,625.2c0-1.5-0.6-3.5-2.3-3.5c-1.4,0-2.3,1.3-2.3,3.5H1294.8z"/>
	<path class="st1" d="M1300.7,619.8h2.3c0,0.5,0,1.1,0,1.7c0.5-1.3,1.8-2.1,3.2-1.9c2.2,0,3.6,1.2,3.6,4.2v9.5h-2.6v-8.7
		c0-1.1-0.2-2.4-1.8-2.4c-1.2,0-2.1,0.8-2.1,2.5v8.6h-2.6L1300.7,619.8z"/>
	<path class="st1" d="M1314.1,622.3h-1.6v-2.5h1.6v-3.2h2.6v3.2h1.6v2.5h-1.6v11h-2.6V622.3z"/>
	<path class="st1" d="M1326.2,623.6c0-1.3-0.6-1.8-1.7-1.8c-0.7-0.1-1.4,0.5-1.4,1.2c0,0.1,0,0.1,0,0.2c0,1.3,1.4,1.5,3,2
		c1.9,0.4,3.2,2.1,3.1,4.1c0,2.3-1.9,4.2-4.2,4.3c-0.1,0-0.2,0-0.3,0c-2.5,0-4.4-1.4-4.6-4.4h2.6c-0.1,1.1,0.8,2,1.9,2.1
		c0.1,0,0.1,0,0.2,0c0.9,0.1,1.6-0.6,1.7-1.4c0-0.1,0-0.2,0-0.3c0-1.3-1.4-1.7-3-2.2s-3.1-1.4-3.1-4c0-2.2,1.6-3.7,4.3-3.7
		s4.1,1.5,4.2,4.1L1326.2,623.6z"/>
	<path class="st1" d="M1353,633.2h-2.4c0-0.7,0-1.2,0-1.8c-0.4,1.3-1.7,2.1-3,2c-2.5,0-4.3-2.4-4.3-7c0-4.4,1.6-7,4.3-7
		c1.4-0.1,2.6,0.8,3,2.1c0-0.6,0-1.2,0-1.8h2.4V633.2z M1345.9,626.6c0,3,0.8,4.4,2.3,4.4c0.7,0,1.3-0.3,1.7-0.9
		c0.5-0.7,0.6-1.5,0.6-3.5s-0.1-2.9-0.6-3.5c-0.3-0.6-1-0.9-1.7-0.9C1346.8,622.1,1345.9,623.5,1345.9,626.6L1345.9,626.6z"/>
	<path class="st1" d="M1365.9,633.2h-2.4c0-0.6,0-1.2,0-1.8c-0.4,1.4-1.7,2.2-3.1,2.1c-2.2,0-3.6-1.2-3.6-4.2v-9.5h2.6v8.7
		c0,1.1,0.2,2.4,1.8,2.4c1.2,0,2.1-0.8,2.1-2.5v-8.6h2.6L1365.9,633.2z"/>
	<path class="st1" d="M1386.8,623.6c0-1.3-0.6-1.8-1.7-1.8c-0.7-0.1-1.4,0.5-1.4,1.2c0,0.1,0,0.1,0,0.2c0,1.3,1.4,1.5,3,2
		c1.9,0.4,3.2,2.1,3.1,4.1c0,2.3-1.9,4.2-4.2,4.3c-0.1,0-0.2,0-0.3,0c-2.5,0-4.4-1.4-4.6-4.4h2.6c-0.1,1.1,0.8,2,1.9,2.1
		c0.1,0,0.1,0,0.2,0c0.9,0.1,1.6-0.6,1.7-1.4c0-0.1,0-0.2,0-0.3c0-1.3-1.4-1.7-3-2.2s-3.1-1.4-3.1-4c0-2.2,1.6-3.7,4.3-3.7
		s4.1,1.5,4.2,4.1L1386.8,623.6z"/>
	<path class="st1" d="M1395,627.4c0,1.9,0.7,3.7,2.4,3.7c1.1,0,2.1-0.9,2.2-2h2.6c-0.1,1.4-0.8,2.6-1.8,3.5
		c-0.8,0.6-1.9,0.9-2.9,0.9c-3.6,0-5.2-3.3-5.2-7c0-4,1.8-7,5.1-7c1.5-0.1,3,0.7,3.8,2c0.9,1.8,1.3,3.8,1.1,5.9H1395z M1399.6,625.2
		c0-1.5-0.6-3.5-2.3-3.5c-1.4,0-2.3,1.3-2.3,3.5H1399.6z"/>
	<path class="st1" d="M1405.6,619.8h2.4c0,0.8,0,1.5,0,2.2c0.6-2,1.9-2.5,3.5-2.5v3.1c-0.3-0.2-0.7-0.3-1.1-0.3
		c-1.2,0-2.1,1.2-2.1,3.3v7.6h-2.6L1405.6,619.8z"/>
	<path class="st1" d="M1419.1,633.2h-2.4l-4-13.4h2.6l2.5,9.6l2.3-9.6h2.6L1419.1,633.2z"/>
	<path class="st1" d="M1425.6,615.5h2.6v2.5h-2.6V615.5z M1425.6,619.8h2.6v13.4h-2.6V619.8z"/>
	<path class="st1" d="M1441.1,628.3c-0.1,2.7-1.5,5.2-4.3,5.2c-3.3,0-5.2-2.8-5.2-7c0-4.4,2-7,5.2-7c2.9,0,4.3,2.4,4.3,5.2h-2.7
		c-0.1-2-0.8-2.8-1.8-2.8c-0.7,0-1.4,0.4-1.6,1.1c-0.5,1.1-0.7,2.3-0.6,3.5c0,3.2,0.8,4.6,2.3,4.6c1.2,0,1.8-1.2,1.8-2.8
		L1441.1,628.3z"/>
	<path class="st1" d="M1446.1,627.4c0,1.9,0.7,3.7,2.4,3.7c1.1,0,2.1-0.9,2.2-2h2.6c-0.1,1.4-0.8,2.6-1.8,3.5
		c-0.8,0.6-1.9,0.9-2.9,0.9c-3.6,0-5.2-3.3-5.2-7c0-4,1.8-7,5.1-7c1.5-0.1,3,0.7,3.8,2c0.9,1.8,1.3,3.8,1.1,5.9H1446.1z
		 M1450.8,625.2c0-1.5-0.6-3.5-2.3-3.5c-1.4,0-2.3,1.3-2.3,3.5H1450.8z"/>
	<path class="st1" d="M1477.4,633.2h-2.4c0-0.8,0-1.4,0-1.9c-0.3,1.4-1.6,2.3-3,2.2c-2.5,0-4.3-2.4-4.3-7c0-4.4,1.6-7,4.3-7
		c1.2-0.1,2.4,0.7,2.7,1.9c0-0.5,0-1.1,0-1.7v-4.3h2.6L1477.4,633.2z M1470.4,626.5c0,3,0.8,4.4,2.3,4.4c0.7,0,1.3-0.3,1.7-0.9
		c0.5-0.7,0.6-1.5,0.6-3.5s-0.1-2.8-0.6-3.5c-0.3-0.6-1-1-1.7-0.9C1471.2,622.1,1470.4,623.5,1470.4,626.5L1470.4,626.5z"/>
	<path class="st1" d="M1483.5,627.4c0,1.9,0.7,3.7,2.4,3.7c1.1,0,2.1-0.9,2.2-2h2.6c-0.1,1.4-0.8,2.6-1.8,3.5
		c-0.8,0.6-1.9,0.9-2.9,0.9c-3.6,0-5.2-3.3-5.2-7c0-4,1.8-7,5.1-7c1.5-0.1,3,0.7,3.8,2c0.9,1.8,1.3,3.8,1.1,5.9H1483.5z
		 M1488.2,625.2c0-1.5-0.6-3.5-2.3-3.5c-1.4,0-2.3,1.3-2.3,3.5H1488.2z"/>
	<path class="st1" d="M1506.2,615.5h2.6v17.8h-2.6V615.5z"/>
	<path class="st1" d="M1521.9,633.2h-2.4c0-0.7,0-1.2,0-1.8c-0.4,1.3-1.7,2.1-3,2c-2.5,0-4.3-2.4-4.3-7c0-4.4,1.6-7,4.3-7
		c1.4-0.1,2.6,0.8,3,2.1c0-0.6,0-1.2,0-1.8h2.4V633.2z M1514.8,626.6c0,3,0.8,4.4,2.3,4.4c0.7,0,1.3-0.3,1.7-0.9
		c0.5-0.7,0.6-1.5,0.6-3.5s-0.1-2.9-0.6-3.5c-0.3-0.6-1-0.9-1.7-0.9C1515.7,622.1,1514.8,623.5,1514.8,626.6L1514.8,626.6z"/>
	<path class="st1" d="M480.9,648.6h2.4v1.8c0.4-1.2,1.6-2.1,2.9-2c2.5,0,4.3,2.4,4.3,7c0,4.4-1.6,7-4.3,7c-1.2,0-2.3-0.7-2.7-1.8v6
		h-2.6L480.9,648.6z M487.9,655.3c0-3-0.8-4.4-2.3-4.4c-0.7,0-1.3,0.3-1.6,0.9c-0.5,0.7-0.6,1.5-0.6,3.5s0.1,2.8,0.6,3.5
		c0.3,0.6,0.9,0.9,1.6,0.9C487.1,659.8,487.9,658.3,487.9,655.3L487.9,655.3z"/>
	<path class="st1" d="M495.9,656.2c0,1.9,0.6,3.7,2.4,3.7c1.1,0,2.1-0.9,2.2-2h2.5c-0.1,1.4-0.8,2.6-1.8,3.5
		c-0.8,0.6-1.9,0.9-2.9,0.9c-3.6,0-5.2-3.3-5.2-7c0-4,1.8-7,5.1-7c1.5-0.1,3,0.7,3.8,2c0.9,1.8,1.3,3.8,1.1,5.9H495.9z M500.6,654
		c0-1.5-0.5-3.5-2.3-3.5c-1.4,0-2.4,1.3-2.4,3.5H500.6z"/>
	<path class="st1" d="M506.5,648.6h2.4c0,0.8,0,1.5,0,2.2c0.5-2,1.9-2.5,3.5-2.5v3.1c-0.3-0.2-0.7-0.3-1.1-0.3
		c-1.2,0-2.1,1.2-2.1,3.3v7.6h-2.6L506.5,648.6z"/>
	<path class="st1" d="M520.1,652.4c0-1.3-0.6-1.8-1.7-1.8c-0.7,0-1.4,0.5-1.4,1.3c0,0,0,0.1,0,0.1c0,1.3,1.4,1.5,3,2
		c1.9,0.4,3.2,2.1,3.1,4.1c0,2.3-1.9,4.2-4.2,4.3c-0.1,0-0.2,0-0.3,0c-2.5,0-4.4-1.4-4.6-4.4h2.6c-0.1,1.1,0.8,2,1.9,2.1
		c0.1,0,0.1,0,0.2,0c0.9,0.1,1.6-0.6,1.7-1.4c0-0.1,0-0.2,0-0.3c0-1.3-1.4-1.7-3-2.2s-3.1-1.4-3.1-4c0-2.2,1.6-3.7,4.3-3.7
		s4.1,1.5,4.2,4.1L520.1,652.4z"/>
	<path class="st1" d="M525.5,655.3c0-3.8,1.6-7,5.2-7s5.2,3.1,5.2,7s-1.6,7-5.2,7S525.5,659.2,525.5,655.3z M528.2,655.3
		c0,3.3,0.9,4.5,2.5,4.5s2.4-1.2,2.4-4.6s-0.9-4.6-2.5-4.6S528.2,652,528.2,655.3L528.2,655.3z"/>
	<path class="st1" d="M539,648.6h2.3c0,0.5,0,1.1,0,1.7c0.5-1.3,1.8-2.1,3.2-1.9c2.2,0,3.6,1.2,3.6,4.2v9.5h-2.6v-8.7
		c0-1.1-0.2-2.4-1.8-2.4c-1.2,0-2.1,0.8-2.1,2.5v8.6H539V648.6z"/>
	<path class="st1" d="M552,648.6h2.3c0,0.5,0,1.1,0,1.7c0.5-1.3,1.8-2.1,3.2-1.9c2.2,0,3.6,1.2,3.6,4.2v9.5h-2.6v-8.7
		c0-1.1-0.2-2.4-1.8-2.4c-1.2,0-2.1,0.8-2.1,2.5v8.6H552V648.6z"/>
	<path class="st1" d="M567.1,656.2c0,1.9,0.7,3.7,2.4,3.7c1.1,0,2.1-0.9,2.2-2h2.6c-0.1,1.4-0.8,2.6-1.8,3.5
		c-0.8,0.6-1.9,0.9-2.9,0.9c-3.6,0-5.2-3.3-5.2-7c0-4,1.8-7,5.1-7c1.5-0.1,3,0.7,3.8,2c0.9,1.8,1.3,3.8,1.1,5.9H567.1z M571.8,654
		c0-1.5-0.5-3.5-2.3-3.5c-1.4,0-2.3,1.3-2.3,3.5H571.8z"/>
	<path class="st1" d="M593.7,657.1c-0.1,2.7-1.5,5.2-4.3,5.2c-3.3,0-5.2-2.8-5.2-7c0-4.4,2-7,5.2-7c2.9,0,4.3,2.4,4.3,5.2H591
		c-0.1-2-0.8-2.8-1.8-2.8c-0.7,0-1.4,0.4-1.6,1.1c-0.5,1.1-0.7,2.3-0.6,3.5c0,3.2,0.8,4.6,2.3,4.6c1.2,0,1.8-1.2,1.8-2.8
		L593.7,657.1z"/>
	<path class="st1" d="M595.9,655.3c0-3.8,1.6-7,5.2-7s5.2,3.1,5.2,7s-1.6,7-5.2,7S595.9,659.2,595.9,655.3z M598.6,655.3
		c0,3.3,0.9,4.5,2.5,4.5s2.4-1.2,2.4-4.6s-0.9-4.6-2.5-4.6S598.6,652,598.6,655.3L598.6,655.3z"/>
	<path class="st1" d="M609.5,648.6h2.4c0,0.8,0,1.5,0,2.2c0.5-2,1.9-2.5,3.5-2.5v3.1c-0.3-0.2-0.7-0.3-1.1-0.3
		c-1.2,0-2.1,1.2-2.1,3.3v7.6h-2.6L609.5,648.6z"/>
	<path class="st1" d="M617.9,648.6h2.4c0,0.8,0,1.5,0,2.2c0.5-2,1.9-2.5,3.5-2.5v3.1c-0.3-0.2-0.7-0.3-1.1-0.3
		c-1.2,0-2.1,1.2-2.1,3.3v7.6h-2.6L617.9,648.6z"/>
	<path class="st1" d="M628.2,656.2c0,1.9,0.7,3.7,2.4,3.7c1.1,0,2.1-0.9,2.2-2h2.6c-0.1,1.4-0.8,2.6-1.8,3.5
		c-0.8,0.6-1.9,0.9-2.9,0.9c-3.6,0-5.2-3.3-5.2-7c0-4,1.8-7,5.1-7c1.5-0.1,3,0.7,3.8,2c0.9,1.8,1.3,3.8,1.1,5.9H628.2z M632.9,654
		c0-1.5-0.5-3.5-2.3-3.5c-1.4,0-2.3,1.3-2.3,3.5H632.9z"/>
	<path class="st1" d="M644,652.4c0-1.3-0.6-1.8-1.7-1.8c-0.7-0.1-1.4,0.5-1.4,1.2c0,0.1,0,0.1,0,0.2c0,1.3,1.4,1.5,3,2
		c1.9,0.4,3.2,2.1,3.1,4.1c0,2.3-1.9,4.2-4.2,4.3c-0.1,0-0.2,0-0.3,0c-2.5,0-4.4-1.4-4.6-4.4h2.6c-0.1,1.1,0.8,2,1.9,2.1
		c0.1,0,0.1,0,0.2,0c0.9,0.1,1.6-0.6,1.7-1.4c0-0.1,0-0.2,0-0.3c0-1.3-1.4-1.7-3-2.2s-3.1-1.4-3.1-4c0-2.2,1.6-3.7,4.3-3.7
		s4.1,1.5,4.2,4.1L644,652.4z"/>
	<path class="st1" d="M650,648.6h2.4v1.8c0.4-1.2,1.6-2.1,2.9-2c2.5,0,4.3,2.4,4.3,7c0,4.4-1.6,7-4.3,7c-1.2,0-2.3-0.7-2.7-1.8v6
		H650V648.6z M657.1,655.3c0-3-0.8-4.4-2.3-4.4c-0.7,0-1.3,0.3-1.6,0.9c-0.5,0.7-0.6,1.5-0.6,3.5s0.1,2.8,0.6,3.5
		c0.3,0.6,0.9,0.9,1.6,0.9C656.3,659.8,657.1,658.3,657.1,655.3L657.1,655.3z"/>
	<path class="st1" d="M662.2,655.3c0-3.8,1.6-7,5.2-7s5.2,3.1,5.2,7s-1.6,7-5.2,7S662.2,659.2,662.2,655.3z M664.9,655.3
		c0,3.3,0.9,4.5,2.5,4.5s2.4-1.2,2.4-4.6s-0.9-4.6-2.5-4.6S664.9,652,664.9,655.3L664.9,655.3z"/>
	<path class="st1" d="M675.8,648.6h2.2c0,0.5,0,1.1,0,1.7c0.5-1.3,1.8-2.1,3.2-1.9c2.2,0,3.6,1.2,3.6,4.2v9.5h-2.6v-8.7
		c0-1.1-0.2-2.4-1.8-2.4c-1.2,0-2.1,0.8-2.1,2.5v8.6h-2.6L675.8,648.6z"/>
	<path class="st1" d="M697.7,662h-2.4c0-0.8,0-1.4,0-1.9c-0.3,1.4-1.6,2.3-3,2.2c-2.5,0-4.3-2.4-4.3-7c0-4.4,1.6-7,4.3-7
		c1.2-0.1,2.4,0.7,2.7,1.9c0-0.5,0-1.1,0-1.7v-4.3h2.6L697.7,662z M690.6,655.3c0,3,0.8,4.4,2.3,4.4c0.7,0,1.3-0.3,1.7-0.9
		c0.5-0.7,0.5-1.5,0.5-3.5s-0.1-2.8-0.5-3.5c-0.3-0.6-1-1-1.7-0.9C691.4,650.9,690.6,652.3,690.6,655.3L690.6,655.3z"/>
	<path class="st1" d="M703.8,656.2c0,1.9,0.7,3.7,2.4,3.7c1.1,0,2.1-0.9,2.2-2h2.6c-0.1,1.4-0.8,2.6-1.8,3.5
		c-0.8,0.6-1.9,0.9-2.9,0.9c-3.6,0-5.2-3.3-5.2-7c0-4,1.8-7,5.1-7c1.5-0.1,3,0.7,3.8,2c0.9,1.8,1.3,3.8,1.1,5.9H703.8z M708.4,654
		c0-1.5-0.5-3.5-2.3-3.5c-1.4,0-2.3,1.3-2.3,3.5H708.4z"/>
	<path class="st1" d="M714.3,648.6h2.3c0,0.5,0,1.1,0,1.7c0.5-1.3,1.8-2.1,3.2-1.9c2.2,0,3.6,1.2,3.6,4.2v9.5h-2.6v-8.7
		c0-1.1-0.2-2.4-1.8-2.4c-1.2,0-2.1,0.8-2.1,2.5v8.6h-2.6L714.3,648.6z"/>
	<path class="st1" d="M727.7,651.1h-1.6v-2.5h1.6v-3.2h2.6v3.2h1.6v2.5h-1.6v11h-2.6V651.1z"/>
	<path class="st1" d="M750.9,662h-2.4c0-0.7,0-1.2,0-1.8c-0.4,1.3-1.7,2.1-3,2c-2.5,0-4.3-2.4-4.3-7c0-4.4,1.6-7,4.3-7
		c1.4-0.1,2.6,0.8,3,2.1c0-0.6,0-1.2,0-1.8h2.4V662z M748.7,646l-0.9,1.7l-5.5-2.6l1-2.1L748.7,646z M743.8,655.4
		c0,3,0.8,4.4,2.3,4.4c0.7,0,1.3-0.3,1.7-0.9c0.5-0.7,0.5-1.5,0.5-3.5s-0.1-2.9-0.5-3.5c-0.3-0.6-1-0.9-1.7-0.9
		C744.6,651,743.8,652.3,743.8,655.4L743.8,655.4z"/>
	<path class="st1" d="M762.2,648.6h2.5c0,0.6,0,1.2,0,1.8c0.3-1.3,1.6-2.2,3-2.1c0.8,0,1.5,0.2,2.1,0.7c0.3,0.3,0.5,0.7,0.7,1.1
		c0.2-0.5,0.6-0.9,1-1.2c0.7-0.4,1.5-0.7,2.3-0.7c1.2-0.1,2.4,0.5,3.1,1.5c0.6,0.9,0.9,2.1,0.8,3.2v9H775v-8.7
		c0-0.6-0.1-1.2-0.3-1.7c-0.3-0.5-0.9-0.8-1.4-0.7c-0.6-0.1-1.1,0.2-1.5,0.6c-0.4,0.5-0.6,1.1-0.5,1.8v8.7h-2.6v-8.7
		c0-0.6-0.1-1.2-0.3-1.7c-0.3-0.5-0.8-0.8-1.4-0.7c-0.6-0.1-1.1,0.2-1.5,0.5c-0.4,0.5-0.6,1.2-0.5,1.8v8.7h-2.6L762.2,648.6z"/>
	<path class="st1" d="M783.7,656.2c0,1.9,0.7,3.7,2.4,3.7c1.1,0,2.1-0.9,2.2-2h2.6c-0.1,1.4-0.8,2.6-1.8,3.5
		c-0.8,0.6-1.9,0.9-2.9,0.9c-3.6,0-5.2-3.3-5.2-7c0-4,1.8-7,5.1-7c1.5-0.1,3,0.7,3.8,2c0.9,1.8,1.3,3.8,1.1,5.9H783.7z M788.3,654
		c0-1.5-0.5-3.5-2.3-3.5c-1.4,0-2.3,1.3-2.3,3.5H788.3z"/>
	<path class="st1" d="M799.4,652.4c0-1.3-0.6-1.8-1.7-1.8c-0.7-0.1-1.4,0.5-1.4,1.2c0,0.1,0,0.1,0,0.2c0,1.3,1.4,1.5,3,2
		c1.9,0.4,3.2,2.1,3.1,4.1c0,2.3-1.9,4.2-4.2,4.3c-0.1,0-0.2,0-0.3,0c-2.5,0-4.4-1.4-4.6-4.4h2.6c-0.1,1.1,0.8,2,1.9,2.1
		c0.1,0,0.1,0,0.2,0c0.9,0.1,1.6-0.6,1.7-1.4c0-0.1,0-0.2,0-0.3c0-1.3-1.4-1.7-3-2.2s-3.1-1.4-3.1-4c0-2.2,1.6-3.7,4.3-3.7
		s4.1,1.5,4.2,4.1L799.4,652.4z"/>
	<path class="st1" d="M817.7,662h-2.4l-4-13.4h2.7l2.5,9.6l2.3-9.6h2.6L817.7,662z"/>
	<path class="st1" d="M832.6,662h-2.4c0-0.7,0-1.2,0-1.8c-0.4,1.3-1.7,2.1-3,2c-2.5,0-4.3-2.4-4.3-7c0-4.4,1.6-7,4.3-7
		c1.4-0.1,2.6,0.8,3,2.1c0-0.6,0-1.2,0-1.8h2.4V662z M825.6,655.3c0,3,0.8,4.4,2.3,4.4c0.7,0,1.3-0.3,1.7-0.9
		c0.5-0.7,0.5-1.5,0.5-3.5s-0.1-2.9-0.5-3.5c-0.3-0.6-1-0.9-1.7-0.9C826.4,650.9,825.6,652.3,825.6,655.3L825.6,655.3z"/>
	<path class="st1" d="M836.8,644.3h2.6V662h-2.6V644.3z"/>
	<path class="st1" d="M845.8,656.2c0,1.9,0.7,3.7,2.4,3.7c1.1,0,2.1-0.9,2.2-2h2.6c-0.1,1.4-0.8,2.6-1.8,3.5
		c-0.8,0.6-1.9,0.9-2.9,0.9c-3.6,0-5.2-3.3-5.2-7c0-4,1.8-7,5.1-7c1.5-0.1,3,0.7,3.8,2c0.9,1.8,1.3,3.8,1.1,5.9H845.8z M850.4,654
		c0-1.5-0.5-3.5-2.3-3.5c-1.4,0-2.3,1.3-2.3,3.5H850.4z"/>
	<path class="st1" d="M865.4,662H863c0-0.6,0-1.2,0-1.8c-0.4,1.4-1.7,2.2-3.1,2.1c-2.2,0-3.6-1.2-3.6-4.2v-9.5h2.6v8.7
		c0,1.1,0.2,2.4,1.8,2.4c1.2,0,2.1-0.8,2.1-2.5v-8.6h2.6L865.4,662z"/>
	<path class="st1" d="M869.3,648.6h2.4c0,0.8,0,1.5,0,2.2c0.5-2,1.9-2.5,3.5-2.5v3.1c-0.3-0.2-0.7-0.3-1.1-0.3
		c-1.2,0-2.1,1.2-2.1,3.3v7.6h-2.6L869.3,648.6z"/>
	<path class="st1" d="M882.9,652.4c0-1.3-0.6-1.8-1.7-1.8c-0.7-0.1-1.4,0.5-1.4,1.2c0,0.1,0,0.1,0,0.2c0,1.3,1.4,1.5,3,2
		c1.9,0.4,3.2,2.1,3.1,4.1c0,2.3-1.9,4.2-4.2,4.3c-0.1,0-0.2,0-0.3,0c-2.5,0-4.4-1.4-4.6-4.4h2.6c-0.1,1.1,0.8,2.1,1.9,2.1
		c0.1,0,0.1,0,0.2,0c0.9,0.1,1.6-0.6,1.7-1.4c0-0.1,0-0.2,0-0.3c0-1.3-1.4-1.7-3-2.2s-3.1-1.4-3.1-4c0-2.2,1.6-3.7,4.3-3.7
		s4.1,1.5,4.2,4.1L882.9,652.4z"/>
	<path class="st1" d="M891.7,662h-2.6v-3.2h2.6V662z"/>
	<path class="st1" d="M899.2,662h-2.6v-3.2h2.6V662z"/>
	<path class="st1" d="M906.6,662H904v-3.2h2.6L906.6,662z"/>
</g>
<g id="vignettes_réponses">
	<polygon class="st0" points="356.4,216.4 226.1,184.9 95.8,216.4 95.8,0.1 356.4,0.1 	"/>
	<path class="st1" d="M128.2,64.5h9.7c5.9,0,8.9,3.2,8.9,9.6v6.5c0,4-1.6,6.6-4.8,7.8l7.1,20.4h-8l-5-19h-0.4v19h-7.4L128.2,64.5z
		 M135.5,71.5v11.5h0.9c0.5,0,1,0,1.6-0.1c0.9-0.4,1.5-1.4,1.4-2.4V74c0-1.7-0.7-2.5-2.2-2.5L135.5,71.5z"/>
	<path class="st1" d="M154.3,64.5h17.3v7.1h-10v11.5h8.6v7.1h-8.5v11.5h10v7.1h-17.4V64.5z M170.9,59.5l-6.4,4.2h-6.3l7-6.5h5.7
		L170.9,59.5z"/>
	<path class="st1" d="M177,64.5h9.7c5.9,0,8.9,3.2,8.9,9.6v6.5c0,4.7-2.1,7.7-6.4,9.1c-1.4,0.4-2.9,0.5-4.4,0.5h-0.5v18.6H177V64.5z
		 M184.4,71.5v11.5h0.9c0.5,0,1,0,1.6-0.1c0.9-0.4,1.5-1.4,1.4-2.4V74c0-1.7-0.7-2.5-2.2-2.5L184.4,71.5z"/>
	<path class="st1" d="M220.6,99.9c0,6.4-3.2,9.6-9.6,9.6c-6.4,0-9.5-3.2-9.5-9.6V73.3c0-6.4,3.2-9.5,9.5-9.5s9.5,3.2,9.6,9.5V99.9z
		 M213.3,73.3c0-1.7-0.7-2.5-2.2-2.5l0,0c-1.4,0-2.1,0.8-2.1,2.5v26.5c0,1.7,0.7,2.5,2.2,2.5c1.4,0,2.2-0.8,2.2-2.5L213.3,73.3z"/>
	<path class="st1" d="M227.8,64.5h7.2l5,21.8V64.5h6.9v44.3h-7.3l-4.7-21.2v21.2h-7.1L227.8,64.5z"/>
	<path class="st1" d="M254,73.3c0-6.4,3.2-9.5,9.5-9.5s9.5,3.2,9.5,9.5v6.3h-7.4v-6.3c0-1.7-0.7-2.5-2.2-2.5l0,0
		c-1.4,0-2.1,0.8-2.1,2.5v3.9c0,1.8,1.9,4.1,5.7,6.8c4,2.9,6,6.3,6,10.3v5.5c0,6.4-3.2,9.6-9.5,9.6s-9.5-3.2-9.5-9.6v-6.3h7.4v6.3
		c0,1.7,0.7,2.5,2.2,2.5c1.5,0,2.2-0.8,2.2-2.5v-5c0-2-1.9-4.3-5.7-7c-4-2.8-6.1-6.3-6.1-10.5V73.3z"/>
	<path class="st1" d="M280.2,64.5h17.3v7.1h-10v11.5h8.6v7.1h-8.6v11.5h10v7.1h-17.3V64.5z"/>
	<path class="st1" d="M303.5,73.3c0-6.4,3.2-9.5,9.5-9.5s9.5,3.2,9.5,9.5v6.3h-7.4v-6.3c0-1.7-0.7-2.5-2.2-2.5l0,0
		c-1.4,0-2.1,0.8-2.1,2.5v3.9c0,1.8,1.9,4.1,5.7,6.8c4,2.9,6.1,6.3,6.1,10.3v5.5c0,6.4-3.2,9.6-9.5,9.6s-9.5-3.2-9.5-9.6v-6.3h7.4
		v6.3c0,1.7,0.7,2.5,2.2,2.5c1.5,0,2.2-0.8,2.2-2.5v-5c0-2-1.9-4.3-5.7-7c-4-2.9-6.1-6.4-6.1-10.5L303.5,73.3z"/>
</g>
</svg>
