<svg xmlns="http://www.w3.org/2000/svg" viewBox="0 0 659.35 69.97"><defs><style>.cls-1{isolation:isolate;}.cls-2{fill:#fff;}.cls-3{fill:#4e96b3;stroke:#4e96b3;stroke-miterlimit:10;stroke-width:5px;mix-blend-mode:multiply;}</style></defs><title>game1b_item_zone9_txt</title><g class="cls-1"><g id="Calque_2" data-name="Calque 2"><g id="Calque_9" data-name="Calque 9"><rect class="cls-2" x="0.06" width="659.14" height="69.97" rx="6.31" ry="6.31" transform="translate(659.27 69.97) rotate(180)"/></g><g id="Calque_13" data-name="Calque 13"><circle class="cls-3" cx="13.75" cy="15.24" r="11.25"/><path class="cls-2" d="M9.18,23l2.88-4.14.54-.81a1.62,1.62,0,0,1-.68.14c-2.13,0-3.71-1.85-3.71-4.21A4.26,4.26,0,0,1,12.53,9.5a4.27,4.27,0,0,1,2.92,1,4.72,4.72,0,0,1,1.44,3.75,7.1,7.1,0,0,1-1.58,4.23L12.15,23ZM14,13.81c0-1.19-.59-2-1.49-2s-1.46.79-1.46,2,.56,2.09,1.46,2.09S14,15.12,14,13.82Z"/><path d="M35.49,9.72h6.16v2.52H38.23v2.52h3.42v2.52H38.23V23H35.49Z"/><path d="M43.75,16.36c0-4.16,1.62-6.9,4.9-6.9s4.9,2.74,4.9,6.91-1.62,6.91-4.9,6.91-4.9-2.74-4.9-6.91Zm2.81,0c0,3.19.68,4.38,2.09,4.38s2.09-1.19,2.09-4.39S50.05,12,48.65,12s-2.09,1.19-2.09,4.39Z"/><path d="M56,9.72h3.46c1.89,0,3.1.49,3.67,1.17A4.58,4.58,0,0,1,64.22,14a4.91,4.91,0,0,1-.4,2,3.58,3.58,0,0,1-1.57,1.75L64.78,23H61.72l-2.93-6.77c.31,0,.47,0,.68,0a2.12,2.12,0,0,0,1.35-.5,2.07,2.07,0,0,0,.59-1.53,1.92,1.92,0,0,0-.63-1.62,2.09,2.09,0,0,0-1.4-.36h-.63V23H56Z"/><path d="M66.79,23V9.72h4l1.84,8.59,1.84-8.59h4V23H76V12.71L73.6,23h-2L69.21,12.71V23Z"/><path d="M84.16,9.72v9.07a2.18,2.18,0,0,0,.38,1.46,1.5,1.5,0,0,0,1.28.47,1.56,1.56,0,0,0,1.3-.47,2.29,2.29,0,0,0,.36-1.46V9.72h2.74v9.52a4,4,0,0,1-1,2.9,5.6,5.6,0,0,1-6.81,0,4.06,4.06,0,0,1-1-2.9V9.72Z"/><path d="M93.31,9.72H96v10.8h3.49V23H93.31Z"/><path d="M102,9.72h6.48v2.52h-3.75V14.8h3.75v2.52h-3.75v3.2h3.75V23H102Z"/><path d="M117,9.72h3.83a4.74,4.74,0,0,1,4.12,2,8.12,8.12,0,0,1,1.31,4.7c0,3.64-1.8,6.66-5.35,6.66H117Zm2.74,10.8h1.19c2.21,0,2.54-2.74,2.54-4.14a6.22,6.22,0,0,0-.61-3,2.09,2.09,0,0,0-2-1.12h-1.1Z"/><path d="M128.85,9.72h6.48v2.52h-3.75V14.8h3.75v2.52h-3.75v3.2h3.75V23h-6.48Z"/><path d="M147.74,9.72a4.45,4.45,0,0,1,3.13,1.12,4.32,4.32,0,0,1,1.22,3.22,4.29,4.29,0,0,1-1.22,3.22,4.45,4.45,0,0,1-3.13,1.12h-1V23H144V9.72Zm-1,6.16h1a1.44,1.44,0,0,0,1.19-.43,1.94,1.94,0,0,0,.4-1.39,2,2,0,0,0-.4-1.4,1.49,1.49,0,0,0-1.19-.41h-1Z"/><path d="M154,16.36c0-4.16,1.62-6.9,4.9-6.9s4.9,2.74,4.9,6.91-1.62,6.91-4.9,6.91-4.9-2.74-4.9-6.91Zm2.81,0c0,3.19.68,4.38,2.09,4.38S161,19.59,161,16.38,160.32,12,158.92,12s-2.09,1.19-2.09,4.39Z"/><path d="M166.41,9.72h2.74v10.8h3.49V23h-6.23Z"/><path d="M175,9.72h2.74V23H175Z"/><path d="M182.21,12.24H180V9.72h7.2v2.52h-2.23V23h-2.74Z"/><path d="M189.55,9.72H196v2.52h-3.74V14.8H196v2.52h-3.74v3.2H196V23h-6.48Z"/><path d="M201.36,18.85c0,1.39.5,2,1.69,2a1.44,1.44,0,0,0,1.55-1.58c0-1.21-1.44-1.49-2.88-2.05s-2.88-1.4-2.88-3.66a3.83,3.83,0,0,1,4.09-4.14c2.47,0,3.83,1.19,4.23,3.82H204.5A1.42,1.42,0,0,0,203,11.72a1.36,1.36,0,0,0-1.39,1.46c0,1.26,1.44,1.49,2.88,2.07a3.91,3.91,0,0,1,2.88,4c0,2.5-1.87,4-4.41,4-3,0-4.37-1.64-4.37-4.45Z"/><path d="M212.09,18.85c0,1.39.5,2,1.69,2a1.44,1.44,0,0,0,1.55-1.58c0-1.21-1.44-1.49-2.88-2.05s-2.88-1.4-2.88-3.66a3.83,3.83,0,0,1,4.09-4.14c2.47,0,3.84,1.19,4.23,3.82h-2.67a1.41,1.41,0,0,0-1.46-1.55,1.36,1.36,0,0,0-1.39,1.46c0,1.26,1.44,1.49,2.88,2.07a3.92,3.92,0,0,1,2.88,4c0,2.5-1.87,4-4.41,4-3,0-4.37-1.64-4.37-4.45Z"/><path d="M220.73,9.72h6.48v2.52h-3.74V14.8h3.74v2.52h-3.74v3.2h3.74V23h-6.48Z"/><path d="M237.66,16.88h-2.41V14.22h2.41Zm0,6.16h-2.41V20.38h2.41Z"/><path d="M245.77,9.72v9.72a2.56,2.56,0,0,0,.67,2,2.51,2.51,0,0,0,1.8.59,2.58,2.58,0,0,0,1.82-.59,2.56,2.56,0,0,0,.67-2V9.72h1.35v9.81a3.56,3.56,0,0,1-.94,2.74,3.85,3.85,0,0,1-2.88,1,3.94,3.94,0,0,1-2.92-1,3.62,3.62,0,0,1-.92-2.74V9.72Z"/><path d="M255.6,14.38h-1.37V13.25h1.37v-3.1h1.21v3.1h1.35v1.13h-1.35V23H255.6Z"/><path d="M260.5,9.72h1.21v1.76H260.5Zm0,3.53h1.21V23H260.5Z"/><path d="M265.09,9.72h1.21V23h-1.21Z"/><path d="M269.68,9.72h1.21v1.76h-1.21Zm0,3.53h1.21V23h-1.21Z"/><path d="M278.07,15.79c0-1.24-.65-1.69-1.58-1.69a1.38,1.38,0,0,0-1.42,1.46c0,1.1.92,1.49,2.11,1.85a2.86,2.86,0,0,1,2.34,3,2.81,2.81,0,0,1-2.92,2.92,2.9,2.9,0,0,1-3.06-3.11h1.19a1.79,1.79,0,0,0,1.87,2,1.57,1.57,0,0,0,1.66-1.71c0-1.19-.83-1.66-2.14-2.07s-2.3-1-2.3-2.79a2.73,2.73,0,0,1,5.46.2Z"/><path d="M282.87,18.51c0,2,.83,3.64,2.48,3.64a2.23,2.23,0,0,0,2.2-1.94h1.19a3.92,3.92,0,0,1-1.22,2.3,3.28,3.28,0,0,1-2.16.77c-2.7,0-3.74-2.59-3.74-5.11,0-3,1.4-5.15,3.71-5.15a3,3,0,0,1,2.63,1.39,7.13,7.13,0,0,1,.9,4.11Zm4.75-1.06c0-2-.88-3.4-2.36-3.4s-2.36,1.46-2.39,3.4Z"/><path d="M290.59,21.93l4.7-7.54H290.9V13.25h5.83V14.4l-4.68,7.51h4.84V23h-6.3Z"/><path d="M310.62,23h-1.12c0-.56,0-1.1,0-1.71a2.75,2.75,0,0,1-2.74,1.94c-1.67,0-2.81-1-2.81-3.35V13.25h1.21v6.3c0,1,.14,2.54,1.87,2.54,1.42,0,2.34-1,2.34-3v-5.8h1.21Z"/><path d="M313.72,13.25h1.08c0,.56,0,1.06,0,1.67A2.79,2.79,0,0,1,317.54,13c1.67,0,2.81,1,2.81,3.35V23h-1.21v-6.3c0-1-.14-2.54-1.87-2.54-1.42,0-2.34,1-2.34,3V23h-1.21Z"/><path d="M324.16,18.51c0,2,.83,3.64,2.48,3.64a2.23,2.23,0,0,0,2.2-1.94H330a3.91,3.91,0,0,1-1.22,2.3,3.27,3.27,0,0,1-2.16.77c-2.7,0-3.75-2.59-3.75-5.11,0-3,1.4-5.15,3.71-5.15a3,3,0,0,1,2.63,1.39,7.12,7.12,0,0,1,.9,4.11Zm4.75-1.06c0-2-.88-3.4-2.36-3.4s-2.36,1.46-2.39,3.4Z"/><path d="M337.73,14.38h-1.1V13.25h1.1v-.74a2.71,2.71,0,0,1,2.92-3v1.06c-.9.05-1.71.49-1.71,2.07v.63h1.71v1.13h-1.71V23h-1.21Z"/><path d="M341.79,18.13c0-2.79,1.15-5.11,3.78-5.11s3.76,2.32,3.76,5.13-1.15,5.13-3.76,5.13-3.78-2.32-3.78-5.13Zm1.26,0c0,2.59.85,4,2.54,4s2.48-1.39,2.48-4-.85-4-2.52-4-2.5,1.39-2.5,4Z"/><path d="M351.91,13.25H353c0,.9,0,1.46,0,2.05A2.66,2.66,0,0,1,355.6,13v1.4a.81.81,0,0,0-.45-.13c-.83,0-2,1-2,3.49V23h-1.21Z"/><path d="M357.65,13.25h1.15c0,.5,0,1,0,1.6A2.42,2.42,0,0,1,361.25,13a2.32,2.32,0,0,1,1.71.67,2.28,2.28,0,0,1,.54,1.17,2.69,2.69,0,0,1,.81-1.24,3,3,0,0,1,1.8-.59,2.52,2.52,0,0,1,2.29,1.26,5.9,5.9,0,0,1,.45,2.68V23h-1.21V17a5.9,5.9,0,0,0-.2-1.82,1.5,1.5,0,0,0-1.49-1,1.79,1.79,0,0,0-1.58.79,3.83,3.83,0,0,0-.52,2.14V23h-1.21V17.1a5.84,5.84,0,0,0-.2-1.87,1.48,1.48,0,0,0-1.48-1,1.85,1.85,0,0,0-1.58.76,3.86,3.86,0,0,0-.52,2.21V23h-1.21Z"/><path d="M378.41,23h-1.12c0-.56,0-1.1,0-1.71a2.75,2.75,0,0,1-2.74,1.94c-1.67,0-2.81-1-2.81-3.35V13.25H373v6.3c0,1,.14,2.54,1.87,2.54,1.42,0,2.34-1,2.34-3v-5.8h1.21Z"/><path d="M381.65,9.72h1.21V23h-1.21Z"/><path d="M386.87,18.51c0,2,.83,3.64,2.48,3.64a2.23,2.23,0,0,0,2.2-1.94h1.19a3.91,3.91,0,0,1-1.22,2.3,3.27,3.27,0,0,1-2.16.77c-2.7,0-3.75-2.59-3.75-5.11,0-3,1.4-5.15,3.71-5.15a3,3,0,0,1,2.63,1.39,7.12,7.12,0,0,1,.9,4.11Zm4.75-1.06c0-2-.88-3.4-2.36-3.4s-2.36,1.46-2.39,3.4Z"/><path d="M404.12,15.79c0-1.24-.65-1.69-1.58-1.69a1.38,1.38,0,0,0-1.42,1.46c0,1.1.92,1.49,2.11,1.85a2.86,2.86,0,0,1,2.34,3,2.81,2.81,0,0,1-2.92,2.92,2.89,2.89,0,0,1-3.06-3.11h1.19a1.8,1.8,0,0,0,1.87,2,1.57,1.57,0,0,0,1.66-1.71c0-1.19-.83-1.66-2.14-2.07s-2.3-1-2.3-2.79a2.73,2.73,0,0,1,5.46.2Z"/><path d="M408.3,9.72h1.21v1.76H408.3Zm0,3.53h1.21V23H408.3Z"/><path d="M412.78,13.25h1.15c0,.5,0,1,0,1.6A2.42,2.42,0,0,1,416.38,13a2.32,2.32,0,0,1,1.71.67,2.28,2.28,0,0,1,.54,1.17,2.69,2.69,0,0,1,.81-1.24,3,3,0,0,1,1.8-.59,2.52,2.52,0,0,1,2.29,1.26A5.9,5.9,0,0,1,424,17V23h-1.21V17a5.9,5.9,0,0,0-.2-1.82,1.5,1.5,0,0,0-1.49-1,1.79,1.79,0,0,0-1.58.79,3.83,3.83,0,0,0-.52,2.14V23h-1.21V17.1a5.84,5.84,0,0,0-.2-1.87,1.48,1.48,0,0,0-1.48-1,1.85,1.85,0,0,0-1.58.76,3.86,3.86,0,0,0-.52,2.21V23h-1.21Z"/><path d="M427.05,13.25h1.12c0,.74,0,1.28,0,1.87A2.63,2.63,0,0,1,430.73,13c2,0,3.29,2,3.29,5.15s-1.22,5.11-3.29,5.11a2.66,2.66,0,0,1-2.5-2c0,.43,0,.94,0,1.78v3.62h-1.21Zm5.76,4.88c0-2.21-.77-3.93-2.29-3.93a1.88,1.88,0,0,0-1.68,1.08,5.19,5.19,0,0,0-.59,2.86,5.27,5.27,0,0,0,.59,2.86,1.88,1.88,0,0,0,1.68,1.08c1.51,0,2.29-1.71,2.29-3.94Z"/><path d="M436.74,9.72h1.21V23h-1.21Z"/><path d="M442,18.51c0,2,.83,3.64,2.49,3.64a2.23,2.23,0,0,0,2.2-1.94h1.19a3.92,3.92,0,0,1-1.22,2.3,3.28,3.28,0,0,1-2.16.77c-2.7,0-3.75-2.59-3.75-5.11,0-3,1.4-5.15,3.71-5.15A3,3,0,0,1,447,14.4a7.12,7.12,0,0,1,.9,4.11Zm4.75-1.06c0-2-.88-3.4-2.36-3.4S442,15.5,442,17.44Z"/><path d="M456,18.51c0,2,.83,3.64,2.48,3.64a2.23,2.23,0,0,0,2.2-1.94h1.19a3.91,3.91,0,0,1-1.22,2.3,3.27,3.27,0,0,1-2.16.77c-2.7,0-3.75-2.59-3.75-5.11,0-3,1.4-5.15,3.71-5.15a3,3,0,0,1,2.63,1.39,7.12,7.12,0,0,1,.9,4.11Zm4.75-1.06c0-2-.88-3.4-2.36-3.4s-2.36,1.46-2.39,3.4Z"/><path d="M465.06,14.38H463.7V13.25h1.37v-3.1h1.21v3.1h1.35v1.13h-1.35V23h-1.21Z"/><path d="M481,23h-1.12c0-.9,0-1.44,0-1.94a2.67,2.67,0,0,1-2.59,2.18c-1.94,0-3.28-2.05-3.28-5.11S475.28,13,477.34,13a2.58,2.58,0,0,1,2.52,2.07c0-.58,0-1.12,0-1.84V9.72H481Zm-5.76-4.9c0,2.21.79,3.93,2.29,3.93A1.93,1.93,0,0,0,479.26,21a5.42,5.42,0,0,0,.56-2.86,5.42,5.42,0,0,0-.56-2.86,1.94,1.94,0,0,0-1.71-1.06c-1.5,0-2.29,1.69-2.29,3.93Z"/><path d="M484.27,9.72h1.21v1.76h-1.21Zm0,3.53h1.21V23h-1.21Z"/><path d="M488.71,13.25h1.12c0,.9,0,1.46,0,2.05A2.66,2.66,0,0,1,492.4,13v1.4a.81.81,0,0,0-.45-.13c-.83,0-2,1-2,3.49V23h-1.21Z"/><path d="M495,18.51c0,2,.83,3.64,2.49,3.64a2.23,2.23,0,0,0,2.2-1.94h1.19a3.92,3.92,0,0,1-1.22,2.3,3.27,3.27,0,0,1-2.16.77c-2.7,0-3.75-2.59-3.75-5.11,0-3,1.4-5.15,3.71-5.15a3,3,0,0,1,2.63,1.39,7.11,7.11,0,0,1,.9,4.11Zm4.75-1.06c0-2-.88-3.4-2.36-3.4S495,15.5,495,17.44Z"/><path d="M510,19.71c-.22,2-1.3,3.57-3.24,3.57-2.61,0-3.78-2.45-3.78-5.11,0-3.21,1.51-5.15,3.73-5.15,2,0,3.15,1.55,3.24,3.62h-1.22c-.2-1.94-1.13-2.48-2.05-2.48a1.9,1.9,0,0,0-1.78,1,5.81,5.81,0,0,0-.63,3c0,2.57.88,4,2.43,4,1.21,0,1.89-1,2.07-2.43Z"/><path d="M512.72,14.38h-1.37V13.25h1.37v-3.1h1.21v3.1h1.35v1.13h-1.35V23h-1.21Z"/><path d="M518,18.51c0,2,.83,3.64,2.48,3.64a2.23,2.23,0,0,0,2.2-1.94h1.19a3.91,3.91,0,0,1-1.22,2.3,3.27,3.27,0,0,1-2.16.77c-2.7,0-3.75-2.59-3.75-5.11,0-3,1.4-5.15,3.71-5.15a3,3,0,0,1,2.63,1.39,7.12,7.12,0,0,1,.9,4.11Zm4.75-1.06c0-2-.88-3.4-2.36-3.4s-2.36,1.46-2.39,3.4Z"/><path d="M528,23H526.8V21.13H528Z"/><path d="M536,14.6h1.17L535.26,18l1.94,3.39H536L534.08,18Zm2.47,0h1.17L537.72,18l1.94,3.39H538.5L536.55,18Z"/><path d="M552.3,19.37a6,6,0,0,1-.29,2,3.12,3.12,0,0,1-2.88,1.89,3.06,3.06,0,0,1-3.19-2.86,4.61,4.61,0,0,1,0-.52h1.31l.05.27c.29,1.62,1.22,1.89,1.91,1.89a1.72,1.72,0,0,0,1.51-1.12,4.42,4.42,0,0,0,.25-1.75V9.72h1.35Z"/><path d="M556.18,18.51c0,2,.83,3.64,2.48,3.64a2.23,2.23,0,0,0,2.2-1.94h1.19a3.91,3.91,0,0,1-1.22,2.3,3.27,3.27,0,0,1-2.16.77c-2.7,0-3.75-2.59-3.75-5.11,0-3,1.4-5.15,3.71-5.15a3,3,0,0,1,2.63,1.39,7.12,7.12,0,0,1,.9,4.11Zm4.75-1.06c0-2-.88-3.4-2.36-3.4s-2.36,1.46-2.39,3.4Z"/><path d="M572.49,23h-1.21l-3-9.79h1.22l2.32,8.17,2.25-8.17h1.21Z"/><path d="M576.61,18.13c0-2.79,1.15-5.11,3.78-5.11s3.76,2.32,3.76,5.13-1.15,5.13-3.76,5.13-3.78-2.32-3.78-5.13Zm1.26,0c0,2.59.85,4,2.54,4s2.49-1.39,2.49-4-.85-4-2.52-4-2.5,1.39-2.5,4Z"/><path d="M593.3,23h-1.12c0-.56,0-1.1,0-1.71a2.75,2.75,0,0,1-2.74,1.94c-1.67,0-2.81-1-2.81-3.35V13.25h1.21v6.3c0,1,.14,2.54,1.87,2.54,1.42,0,2.34-1,2.34-3v-5.8h1.21Z"/><path d="M600.33,15.79c0-1.24-.65-1.69-1.58-1.69a1.38,1.38,0,0,0-1.42,1.46c0,1.1.92,1.49,2.11,1.85a2.86,2.86,0,0,1,2.34,3,2.81,2.81,0,0,1-2.92,2.92,2.9,2.9,0,0,1-3.06-3.11H597a1.79,1.79,0,0,0,1.87,2,1.57,1.57,0,0,0,1.66-1.71c0-1.19-.83-1.66-2.14-2.07s-2.3-1-2.3-2.79a2.73,2.73,0,0,1,5.46.2Z"/><path d="M609.13,13.25h1.12c0,.74,0,1.28,0,1.87A2.64,2.64,0,0,1,612.8,13c2,0,3.29,2,3.29,5.15s-1.22,5.11-3.29,5.11a2.66,2.66,0,0,1-2.5-2c0,.43,0,.94,0,1.78v3.62h-1.21Zm5.76,4.88c0-2.21-.77-3.93-2.29-3.93a1.87,1.87,0,0,0-1.67,1.08,5.18,5.18,0,0,0-.59,2.86,5.26,5.26,0,0,0,.59,2.86,1.87,1.87,0,0,0,1.67,1.08c1.51,0,2.29-1.71,2.29-3.94Z"/><path d="M618.67,13.25h1.12c0,.9,0,1.46,0,2.05A2.66,2.66,0,0,1,622.36,13v1.4a.81.81,0,0,0-.45-.13c-.83,0-2,1-2,3.49V23h-1.21Z"/><path d="M624.52,9.72h1.21v1.76h-1.21Zm0,3.53h1.21V23h-1.21Z"/><path d="M629.74,18.51c0,2,.83,3.64,2.49,3.64a2.23,2.23,0,0,0,2.2-1.94h1.19a3.92,3.92,0,0,1-1.22,2.3,3.28,3.28,0,0,1-2.16.77c-2.7,0-3.75-2.59-3.75-5.11,0-3,1.4-5.15,3.71-5.15a3,3,0,0,1,2.63,1.39,7.12,7.12,0,0,1,.9,4.11Zm4.75-1.06c0-2-.88-3.4-2.36-3.4s-2.36,1.46-2.4,3.4Z"/><path d="M649.5,23h-1.12c0-.9,0-1.44,0-1.94a2.67,2.67,0,0,1-2.59,2.18c-1.95,0-3.28-2.05-3.28-5.11S643.76,13,645.81,13a2.58,2.58,0,0,1,2.52,2.07c0-.58,0-1.12,0-1.84V9.72h1.21Zm-5.76-4.9c0,2.21.79,3.93,2.29,3.93A1.92,1.92,0,0,0,647.73,21a5.42,5.42,0,0,0,.56-2.86,5.42,5.42,0,0,0-.56-2.86A1.94,1.94,0,0,0,646,14.2c-1.49,0-2.29,1.69-2.29,3.93Z"/><path d="M653.37,18.51c0,2,.83,3.64,2.49,3.64A2.23,2.23,0,0,0,658,20.2h1.19A3.92,3.92,0,0,1,658,22.5a3.28,3.28,0,0,1-2.16.77c-2.7,0-3.75-2.59-3.75-5.11,0-3,1.4-5.15,3.71-5.15a3,3,0,0,1,2.63,1.39,7.12,7.12,0,0,1,.9,4.11Zm4.75-1.06c0-2-.88-3.4-2.36-3.4s-2.36,1.46-2.4,3.4Z"/><path d="M15.18,41.31c-.22,2-1.3,3.57-3.24,3.57-2.61,0-3.78-2.45-3.78-5.11,0-3.21,1.51-5.15,3.73-5.15,2,0,3.15,1.55,3.24,3.62H13.9c-.2-1.94-1.13-2.48-2.05-2.48a1.9,1.9,0,0,0-1.78,1,5.81,5.81,0,0,0-.63,3c0,2.57.88,4,2.43,4,1.21,0,1.89-1,2.07-2.43Z"/><path d="M17.46,34.85h1.12c0,.9,0,1.46,0,2.05a2.66,2.66,0,0,1,2.61-2.29V36a.81.81,0,0,0-.45-.13c-.83,0-2,1-2,3.49v5.26H17.46Z"/><path d="M22.43,39.73c0-2.79,1.15-5.11,3.78-5.11S30,36.94,30,39.75s-1.15,5.13-3.76,5.13-3.78-2.32-3.78-5.13Zm1.26,0c0,2.59.85,4,2.54,4s2.48-1.39,2.48-4-.85-4-2.52-4-2.5,1.39-2.5,4Z"/><path d="M32.69,31.32h1.21v1.76H32.69Zm0,3.53h1.21v9.79H32.69Z"/><path d="M37.13,34.85h1.12c0,.9,0,1.46,0,2.05a2.66,2.66,0,0,1,2.61-2.29V36a.81.81,0,0,0-.45-.13c-.83,0-2,1-2,3.49v5.26H37.13Z"/><path d="M43.4,40.11c0,2,.83,3.64,2.49,3.64a2.23,2.23,0,0,0,2.2-1.94h1.19A3.92,3.92,0,0,1,48,44.1a3.27,3.27,0,0,1-2.16.77c-2.7,0-3.75-2.59-3.75-5.11,0-3,1.4-5.15,3.71-5.15A3,3,0,0,1,48.48,36a7.11,7.11,0,0,1,.9,4.11ZM48.15,39c0-2-.88-3.4-2.36-3.4S43.43,37.1,43.4,39Z"/><path d="M52.33,46.14H51.26l1.19-3.4h1.21Z"/><path d="M62.51,44.64V31.32H64.6l3.13,11.36,2.92-11.36h2.11V44.64H71.53V32.56L68.38,44.64H67.12L63.74,32.56V44.64Z"/><path d="M75.38,39.73c0-2.79,1.15-5.11,3.78-5.11s3.76,2.32,3.76,5.13-1.15,5.13-3.76,5.13-3.78-2.32-3.78-5.13Zm1.26,0c0,2.59.85,4,2.54,4s2.48-1.39,2.48-4-.85-4-2.52-4-2.5,1.39-2.5,4Z"/><path d="M85.5,34.85h1.08c0,.56,0,1.06,0,1.67a2.79,2.79,0,0,1,2.77-1.91c1.67,0,2.81,1,2.81,3.35v6.68H90.92v-6.3c0-1-.14-2.54-1.87-2.54-1.42,0-2.34,1-2.34,3v5.8H85.5Z"/><path d="M99.11,37.39c0-1.24-.65-1.69-1.58-1.69a1.38,1.38,0,0,0-1.42,1.46c0,1.1.92,1.49,2.11,1.85a2.86,2.86,0,0,1,2.34,3,2.81,2.81,0,0,1-2.92,2.92,2.89,2.89,0,0,1-3.06-3.11h1.19a1.8,1.8,0,0,0,1.87,2,1.57,1.57,0,0,0,1.66-1.71c0-1.19-.83-1.66-2.14-2.07s-2.3-1-2.3-2.79a2.73,2.73,0,0,1,5.46.2Z"/><path d="M103.28,31.32h1.21v1.76h-1.21Zm0,3.53h1.21v9.79h-1.21Z"/><path d="M108.5,40.11c0,2,.83,3.64,2.48,3.64a2.23,2.23,0,0,0,2.2-1.94h1.19a3.92,3.92,0,0,1-1.22,2.3,3.28,3.28,0,0,1-2.16.77c-2.7,0-3.74-2.59-3.74-5.11,0-3,1.4-5.15,3.71-5.15A3,3,0,0,1,113.58,36a7.13,7.13,0,0,1,.9,4.11ZM113.26,39c0-2-.88-3.4-2.36-3.4s-2.36,1.46-2.39,3.4Z"/><path d="M123.62,44.64h-1.12c0-.56,0-1.1,0-1.71a2.75,2.75,0,0,1-2.74,1.94c-1.67,0-2.81-1-2.81-3.35V34.85h1.21v6.3c0,1,.14,2.54,1.87,2.54,1.42,0,2.34-1,2.34-3v-5.8h1.21Z"/><path d="M126.72,34.85h1.12c0,.9,0,1.46,0,2.05a2.66,2.66,0,0,1,2.61-2.29V36a.81.81,0,0,0-.45-.13c-.83,0-2,1-2,3.49v5.26h-1.21Z"/><path d="M139.82,31.32H141V44.64h-1.21Z"/><path d="M145,40.11c0,2,.83,3.64,2.48,3.64a2.23,2.23,0,0,0,2.2-1.94h1.19a3.92,3.92,0,0,1-1.22,2.3,3.28,3.28,0,0,1-2.16.77c-2.7,0-3.74-2.59-3.74-5.11,0-3,1.4-5.15,3.71-5.15A3,3,0,0,1,150.12,36a7.13,7.13,0,0,1,.9,4.11ZM149.8,39c0-2-.88-3.4-2.36-3.4S145.08,37.1,145,39Z"/><path d="M160.86,31.32h3.06a4.86,4.86,0,0,1,4.36,1.93A8.33,8.33,0,0,1,169.45,38c0,5.1-2.49,6.66-5.49,6.66h-3.1Zm1.35,12.08h1.64c3.13,0,4.23-2,4.23-5.42a6.87,6.87,0,0,0-.94-4.07,3.75,3.75,0,0,0-3.33-1.35h-1.6Z"/><path d="M172.18,31.32h1.21v1.76h-1.21Zm0,3.53h1.21v9.79h-1.21Z"/><path d="M176.63,34.85h1.12c0,.9,0,1.46,0,2.05a2.66,2.66,0,0,1,2.61-2.29V36a.81.81,0,0,0-.45-.13c-.83,0-2,1-2,3.49v5.26h-1.21Z"/><path d="M182.9,40.11c0,2,.83,3.64,2.48,3.64a2.23,2.23,0,0,0,2.2-1.94h1.19a3.91,3.91,0,0,1-1.22,2.3,3.27,3.27,0,0,1-2.16.77c-2.7,0-3.75-2.59-3.75-5.11,0-3,1.4-5.15,3.71-5.15A3,3,0,0,1,188,36a7.12,7.12,0,0,1,.9,4.11ZM187.65,39c0-2-.88-3.4-2.36-3.4s-2.36,1.46-2.39,3.4Z"/><path d="M197.89,41.31c-.22,2-1.3,3.57-3.24,3.57-2.61,0-3.78-2.45-3.78-5.11,0-3.21,1.51-5.15,3.73-5.15,2,0,3.15,1.55,3.24,3.62h-1.22c-.2-1.94-1.13-2.48-2.05-2.48a1.9,1.9,0,0,0-1.78,1,5.8,5.8,0,0,0-.63,3c0,2.57.88,4,2.43,4,1.21,0,1.89-1,2.07-2.43Z"/><path d="M200.64,36h-1.37V34.85h1.37v-3.1h1.21v3.1h1.35V36h-1.35v8.66h-1.21Z"/><path d="M205.93,40.11c0,2,.83,3.64,2.48,3.64a2.23,2.23,0,0,0,2.2-1.94h1.19a3.92,3.92,0,0,1-1.22,2.3,3.28,3.28,0,0,1-2.16.77c-2.7,0-3.74-2.59-3.74-5.11,0-3,1.4-5.15,3.71-5.15A3,3,0,0,1,211,36a7.13,7.13,0,0,1,.9,4.11ZM210.69,39c0-2-.88-3.4-2.36-3.4S206,37.1,205.93,39Z"/><path d="M221.06,44.64h-1.12c0-.56,0-1.1,0-1.71a2.75,2.75,0,0,1-2.74,1.94c-1.67,0-2.81-1-2.81-3.35V34.85h1.21v6.3c0,1,.14,2.54,1.87,2.54,1.42,0,2.34-1,2.34-3v-5.8h1.21Z"/><path d="M224.15,34.85h1.12c0,.9,0,1.46,0,2.05a2.66,2.66,0,0,1,2.61-2.29V36a.81.81,0,0,0-.45-.13c-.83,0-2,1-2,3.49v5.26h-1.21Z"/><path d="M229.84,46.14h-1.06l1.19-3.4h1.21Z"/><path d="M246.42,44.64H245.3c0-.86,0-1.4,0-1.87a2.69,2.69,0,0,1-2.59,2.11c-1.95,0-3.28-2.05-3.28-5.11s1.22-5.15,3.28-5.15a2.64,2.64,0,0,1,2.59,2.12c0-.59,0-1.15,0-1.89h1.12ZM245,33.07l-.45.85-4-2.14.5-1Zm-4.38,6.7c0,2.21.79,3.93,2.29,3.93a1.93,1.93,0,0,0,1.71-1.08,5.46,5.46,0,0,0,.56-2.86,5.38,5.38,0,0,0-.56-2.86,1.93,1.93,0,0,0-1.71-1.08c-1.49,0-2.29,1.71-2.29,3.94Z"/><path d="M256.91,31.32h1.21V44.64h-1.21Z"/><path d="M262.49,31.32h1.31l-1.42,3.4h-1.17Z"/><path d="M273.15,44.64H272c0-.86,0-1.4,0-1.87a2.69,2.69,0,0,1-2.59,2.11c-1.95,0-3.28-2.05-3.28-5.11s1.22-5.15,3.28-5.15A2.64,2.64,0,0,1,272,36.74c0-.59,0-1.15,0-1.89h1.12Zm-5.76-4.88c0,2.21.79,3.93,2.29,3.93a1.92,1.92,0,0,0,1.71-1.08,5.46,5.46,0,0,0,.56-2.86,5.38,5.38,0,0,0-.56-2.86,1.92,1.92,0,0,0-1.71-1.08c-1.49,0-2.29,1.71-2.29,3.94Z"/><path d="M280.18,37.39c0-1.24-.65-1.69-1.58-1.69a1.38,1.38,0,0,0-1.42,1.46c0,1.1.92,1.49,2.11,1.85a2.86,2.86,0,0,1,2.34,3,2.81,2.81,0,0,1-2.92,2.92,2.89,2.89,0,0,1-3.06-3.11h1.19a1.8,1.8,0,0,0,1.87,2,1.57,1.57,0,0,0,1.66-1.71c0-1.19-.83-1.66-2.14-2.07s-2.3-1-2.3-2.79a2.73,2.73,0,0,1,5.46.2Z"/><path d="M288.16,37.39c0-1.24-.65-1.69-1.58-1.69a1.38,1.38,0,0,0-1.42,1.46c0,1.1.92,1.49,2.11,1.85a2.86,2.86,0,0,1,2.34,3,2.81,2.81,0,0,1-2.92,2.92,2.9,2.9,0,0,1-3.06-3.11h1.19a1.79,1.79,0,0,0,1.87,2,1.57,1.57,0,0,0,1.66-1.71c0-1.19-.83-1.66-2.14-2.07s-2.3-1-2.3-2.79a2.73,2.73,0,0,1,5.46.2Z"/><path d="M298.76,44.64h-1.12c0-.56,0-1.1,0-1.71a2.75,2.75,0,0,1-2.74,1.94c-1.68,0-2.81-1-2.81-3.35V34.85h1.21v6.3c0,1,.14,2.54,1.87,2.54,1.42,0,2.34-1,2.34-3v-5.8h1.21Z"/><path d="M301.85,34.85H303c0,.9,0,1.46,0,2.05a2.65,2.65,0,0,1,2.61-2.29V36a.82.82,0,0,0-.45-.13c-.83,0-2,1-2,3.49v5.26h-1.21Z"/><path d="M313.79,44.64h-1.12c0-.86,0-1.4,0-1.87a2.69,2.69,0,0,1-2.59,2.11c-1.94,0-3.28-2.05-3.28-5.11s1.22-5.15,3.28-5.15a2.64,2.64,0,0,1,2.59,2.12c0-.59,0-1.15,0-1.89h1.12ZM308,39.76c0,2.21.79,3.93,2.29,3.93A1.93,1.93,0,0,0,312,42.61a5.46,5.46,0,0,0,.56-2.86,5.38,5.38,0,0,0-.56-2.86,1.93,1.93,0,0,0-1.71-1.08c-1.49,0-2.29,1.71-2.29,3.94Z"/><path d="M316.88,34.85H318c0,.56,0,1.06,0,1.67a2.79,2.79,0,0,1,2.77-1.91c1.67,0,2.81,1,2.81,3.35v6.68H322.3v-6.3c0-1-.14-2.54-1.87-2.54-1.42,0-2.34,1-2.34,3v5.8h-1.21Z"/><path d="M333,41.31c-.22,2-1.3,3.57-3.24,3.57-2.61,0-3.78-2.45-3.78-5.11,0-3.21,1.51-5.15,3.73-5.15,2,0,3.15,1.55,3.24,3.62h-1.22c-.2-1.94-1.13-2.48-2.05-2.48a1.9,1.9,0,0,0-1.78,1,5.8,5.8,0,0,0-.63,3c0,2.57.88,4,2.43,4,1.21,0,1.89-1,2.07-2.43Z"/><path d="M336.05,40.11c0,2,.83,3.64,2.49,3.64a2.23,2.23,0,0,0,2.2-1.94h1.19a3.92,3.92,0,0,1-1.22,2.3,3.28,3.28,0,0,1-2.16.77c-2.7,0-3.75-2.59-3.75-5.11,0-3,1.4-5.15,3.71-5.15A3,3,0,0,1,341.13,36a7.12,7.12,0,0,1,.9,4.11ZM340.81,39c0-2-.88-3.4-2.36-3.4s-2.36,1.46-2.4,3.4Z"/><path d="M358.3,44.64h-1.12c0-.9,0-1.44,0-1.94a2.67,2.67,0,0,1-2.59,2.18c-1.95,0-3.28-2.05-3.28-5.11s1.22-5.15,3.28-5.15a2.58,2.58,0,0,1,2.52,2.07c0-.58,0-1.12,0-1.84V31.32h1.21Zm-5.76-4.9c0,2.21.79,3.93,2.29,3.93a1.92,1.92,0,0,0,1.71-1.08,5.42,5.42,0,0,0,.56-2.86,5.42,5.42,0,0,0-.56-2.86,1.94,1.94,0,0,0-1.71-1.06c-1.49,0-2.29,1.69-2.29,3.93Z"/><path d="M362.17,40.11c0,2,.83,3.64,2.48,3.64a2.23,2.23,0,0,0,2.2-1.94H368a3.92,3.92,0,0,1-1.22,2.3,3.28,3.28,0,0,1-2.16.77c-2.7,0-3.74-2.59-3.74-5.11,0-3,1.4-5.15,3.71-5.15A3,3,0,0,1,367.25,36a7.13,7.13,0,0,1,.9,4.11ZM366.92,39c0-2-.88-3.4-2.36-3.4s-2.36,1.46-2.39,3.4Z"/><path d="M378,34.85h1.15c0,.5,0,1,0,1.6a2.42,2.42,0,0,1,2.49-1.84,2.32,2.32,0,0,1,1.71.67,2.28,2.28,0,0,1,.54,1.17,2.67,2.67,0,0,1,.81-1.24,3,3,0,0,1,1.8-.59,2.52,2.52,0,0,1,2.29,1.26,5.89,5.89,0,0,1,.45,2.68v6.09H388v-6a5.9,5.9,0,0,0-.2-1.82,1.5,1.5,0,0,0-1.49-1,1.79,1.79,0,0,0-1.58.79,3.83,3.83,0,0,0-.52,2.14v5.91H383V38.7a5.87,5.87,0,0,0-.2-1.87,1.48,1.48,0,0,0-1.48-1,1.85,1.85,0,0,0-1.58.76,3.86,3.86,0,0,0-.52,2.21v5.87H378Z"/><path d="M398.73,44.64h-1.12c0-.86,0-1.4,0-1.87A2.69,2.69,0,0,1,395,44.88c-1.94,0-3.28-2.05-3.28-5.11S393,34.61,395,34.61a2.64,2.64,0,0,1,2.59,2.12c0-.59,0-1.15,0-1.89h1.12ZM393,39.76c0,2.21.79,3.93,2.29,3.93A1.93,1.93,0,0,0,397,42.61a5.46,5.46,0,0,0,.56-2.86,5.38,5.38,0,0,0-.56-2.86,1.93,1.93,0,0,0-1.71-1.08c-1.49,0-2.29,1.71-2.29,3.94Z"/><path d="M415.52,41.31c-.22,2-1.3,3.57-3.24,3.57-2.61,0-3.78-2.45-3.78-5.11,0-3.21,1.51-5.15,3.73-5.15,2,0,3.15,1.55,3.24,3.62h-1.22c-.2-1.94-1.13-2.48-2.05-2.48a1.9,1.9,0,0,0-1.78,1,5.81,5.81,0,0,0-.63,3c0,2.57.88,4,2.43,4,1.21,0,1.89-1,2.07-2.43Z"/><path d="M417.28,39.73c0-2.79,1.15-5.11,3.78-5.11s3.76,2.32,3.76,5.13-1.15,5.13-3.76,5.13-3.78-2.32-3.78-5.13Zm1.26,0c0,2.59.85,4,2.54,4s2.49-1.39,2.49-4-.85-4-2.52-4-2.5,1.39-2.5,4Z"/><path d="M427.4,34.85h1.08c0,.56,0,1.06,0,1.67a2.79,2.79,0,0,1,2.77-1.91c1.67,0,2.81,1,2.81,3.35v6.68h-1.21v-6.3c0-1-.14-2.54-1.87-2.54-1.42,0-2.34,1-2.34,3v5.8H427.4Z"/><path d="M441,37.39c0-1.24-.65-1.69-1.58-1.69A1.38,1.38,0,0,0,438,37.15c0,1.1.92,1.49,2.11,1.85a2.86,2.86,0,0,1,2.34,3,2.81,2.81,0,0,1-2.92,2.92,2.9,2.9,0,0,1-3.06-3.11h1.19a1.79,1.79,0,0,0,1.87,2,1.57,1.57,0,0,0,1.66-1.71c0-1.19-.83-1.66-2.14-2.07s-2.3-1-2.3-2.79a2.73,2.73,0,0,1,5.46.2Z"/><path d="M445.18,31.32h1.21v1.76h-1.21Zm0,3.53h1.21v9.79h-1.21Z"/><path d="M456.08,44.64H455c0-.9,0-1.44,0-1.94a2.67,2.67,0,0,1-2.59,2.18c-1.95,0-3.28-2.05-3.28-5.11s1.22-5.15,3.28-5.15a2.58,2.58,0,0,1,2.52,2.07c0-.58,0-1.12,0-1.84V31.32h1.21Zm-5.76-4.9c0,2.21.79,3.93,2.29,3.93a1.92,1.92,0,0,0,1.71-1.08,5.42,5.42,0,0,0,.56-2.86,5.42,5.42,0,0,0-.56-2.86,1.94,1.94,0,0,0-1.71-1.06c-1.49,0-2.29,1.69-2.29,3.93Z"/><path d="M459.94,40.11c0,2,.83,3.64,2.48,3.64a2.23,2.23,0,0,0,2.2-1.94h1.19a3.92,3.92,0,0,1-1.22,2.3,3.28,3.28,0,0,1-2.16.77c-2.7,0-3.74-2.59-3.74-5.11,0-3,1.4-5.15,3.71-5.15A3,3,0,0,1,465,36a7.13,7.13,0,0,1,.9,4.11ZM464.7,39c0-2-.88-3.4-2.36-3.4S460,37.1,459.94,39Zm-.38-8.25.5,1-4,2.14-.45-.85Z"/><path d="M468.49,34.85h1.12c0,.9,0,1.46,0,2.05a2.65,2.65,0,0,1,2.61-2.29V36a.81.81,0,0,0-.45-.13c-.83,0-2,1-2,3.49v5.26h-1.21Z"/><path d="M480.43,44.64h-1.12c0-.86,0-1.4,0-1.87a2.69,2.69,0,0,1-2.59,2.11c-1.95,0-3.28-2.05-3.28-5.11s1.22-5.15,3.28-5.15a2.64,2.64,0,0,1,2.59,2.12c0-.59,0-1.15,0-1.89h1.12Zm-5.76-4.88c0,2.21.79,3.93,2.29,3.93a1.93,1.93,0,0,0,1.71-1.08,5.46,5.46,0,0,0,.56-2.86,5.38,5.38,0,0,0-.56-2.86A1.93,1.93,0,0,0,477,35.8c-1.49,0-2.29,1.71-2.29,3.94Z"/><path d="M484,36h-1.37V34.85H484v-3.1h1.21v3.1h1.35V36H485.2v8.66H484Z"/><path d="M488.89,31.32h1.21v1.76h-1.21Zm0,3.53h1.21v9.79h-1.21Z"/><path d="M492.81,39.73c0-2.79,1.15-5.11,3.78-5.11s3.76,2.32,3.76,5.13-1.15,5.13-3.76,5.13-3.78-2.32-3.78-5.13Zm1.26,0c0,2.59.85,4,2.54,4s2.49-1.39,2.49-4-.85-4-2.52-4-2.5,1.39-2.5,4Z"/><path d="M502.93,34.85H504c0,.56,0,1.06,0,1.67a2.79,2.79,0,0,1,2.77-1.91c1.67,0,2.81,1,2.81,3.35v6.68h-1.21v-6.3c0-1-.14-2.54-1.87-2.54-1.42,0-2.34,1-2.34,3v5.8h-1.21Z"/><path d="M514.34,44.64h-1.22V42.73h1.22Z"/><path d="M526,39.64,524,43h-1.17l1.95-3.37-1.95-3.42H524Zm2.47,0L526.51,43h-1.17l2-3.37-2-3.42h1.17Z"/><path d="M539.07,40.11c0,2,.83,3.64,2.49,3.64a2.23,2.23,0,0,0,2.2-1.94h1.19a3.92,3.92,0,0,1-1.22,2.3,3.28,3.28,0,0,1-2.16.77c-2.7,0-3.75-2.59-3.75-5.11,0-3,1.4-5.15,3.71-5.15A3,3,0,0,1,544.15,36a7.12,7.12,0,0,1,.9,4.11ZM543.82,39c0-2-.88-3.4-2.36-3.4s-2.36,1.46-2.4,3.4Z"/><path d="M551.56,37.39c0-1.24-.65-1.69-1.58-1.69a1.38,1.38,0,0,0-1.42,1.46c0,1.1.92,1.49,2.11,1.85A2.86,2.86,0,0,1,553,42a2.81,2.81,0,0,1-2.92,2.92A2.89,2.89,0,0,1,547,41.76h1.19a1.8,1.8,0,0,0,1.87,2,1.57,1.57,0,0,0,1.66-1.71c0-1.19-.83-1.66-2.14-2.07s-2.3-1-2.3-2.79a2.73,2.73,0,0,1,5.46.2Z"/><path d="M556.06,36h-1.37V34.85h1.37v-3.1h1.21v3.1h1.35V36h-1.35v8.66h-1.21Z"/><path d="M574.64,44.64h-1.12c0-.56,0-1.1,0-1.71a2.75,2.75,0,0,1-2.74,1.94c-1.67,0-2.81-1-2.81-3.35V34.85h1.21v6.3c0,1,.14,2.54,1.87,2.54,1.42,0,2.34-1,2.34-3v-5.8h1.21Z"/><path d="M577.73,34.85h1.08c0,.56,0,1.06,0,1.67a2.79,2.79,0,0,1,2.77-1.91c1.67,0,2.81,1,2.81,3.35v6.68h-1.21v-6.3c0-1-.14-2.54-1.87-2.54-1.42,0-2.34,1-2.34,3v5.8h-1.21Z"/><path d="M588.17,40.11c0,2,.83,3.64,2.48,3.64a2.23,2.23,0,0,0,2.2-1.94H594a3.92,3.92,0,0,1-1.22,2.3,3.28,3.28,0,0,1-2.16.77c-2.7,0-3.74-2.59-3.74-5.11,0-3,1.4-5.15,3.71-5.15A3,3,0,0,1,593.25,36a7.13,7.13,0,0,1,.9,4.11ZM592.93,39c0-2-.88-3.4-2.36-3.4s-2.36,1.46-2.39,3.4Z"/><path d="M604.23,36h-1.1V34.85h1.1v-.74a2.71,2.71,0,0,1,2.92-3v1.06c-.9.05-1.71.49-1.71,2.07v.63h1.71V36h-1.71v8.66h-1.21Z"/><path d="M608.3,39.73c0-2.79,1.15-5.11,3.78-5.11s3.76,2.32,3.76,5.13-1.15,5.13-3.76,5.13-3.78-2.32-3.78-5.13Zm1.26,0c0,2.59.85,4,2.54,4s2.48-1.39,2.48-4-.85-4-2.52-4-2.5,1.39-2.5,4Z"/><path d="M618.41,34.85h1.12c0,.9,0,1.46,0,2.05a2.66,2.66,0,0,1,2.61-2.29V36a.81.81,0,0,0-.45-.13c-.83,0-2,1-2,3.49v5.26h-1.21Z"/><path d="M624.15,34.85h1.15c0,.5,0,1,0,1.6a2.42,2.42,0,0,1,2.48-1.84,2.32,2.32,0,0,1,1.71.67,2.28,2.28,0,0,1,.54,1.17,2.69,2.69,0,0,1,.81-1.24,3,3,0,0,1,1.8-.59,2.52,2.52,0,0,1,2.29,1.26,5.9,5.9,0,0,1,.45,2.68v6.09h-1.21v-6a5.9,5.9,0,0,0-.2-1.82,1.5,1.5,0,0,0-1.49-1,1.79,1.79,0,0,0-1.58.79,3.83,3.83,0,0,0-.52,2.14v5.91h-1.21V38.7a5.84,5.84,0,0,0-.2-1.87,1.48,1.48,0,0,0-1.48-1,1.85,1.85,0,0,0-1.58.76,3.86,3.86,0,0,0-.52,2.21v5.87h-1.21Z"/><path d="M644.91,44.64h-1.12c0-.56,0-1.1,0-1.71a2.75,2.75,0,0,1-2.74,1.94c-1.67,0-2.81-1-2.81-3.35V34.85h1.21v6.3c0,1,.14,2.54,1.87,2.54,1.42,0,2.34-1,2.34-3v-5.8h1.21Z"/><path d="M648.15,31.32h1.21V44.64h-1.21Z"/><path d="M653.37,40.11c0,2,.83,3.64,2.48,3.64A2.23,2.23,0,0,0,658,41.8h1.19A3.91,3.91,0,0,1,658,44.1a3.27,3.27,0,0,1-2.16.77c-2.7,0-3.75-2.59-3.75-5.11,0-3,1.4-5.15,3.71-5.15A3,3,0,0,1,658.44,36a7.12,7.12,0,0,1,.9,4.11ZM658.12,39c0-2-.88-3.4-2.36-3.4s-2.36,1.46-2.39,3.4Z"/><path d="M15.18,66.24H14.06c0-.86,0-1.4,0-1.87a2.69,2.69,0,0,1-2.59,2.11c-1.95,0-3.28-2.05-3.28-5.11s1.22-5.15,3.28-5.15a2.64,2.64,0,0,1,2.59,2.12c0-.59,0-1.15,0-1.89h1.12ZM9.41,61.36c0,2.21.79,3.93,2.29,3.93a1.92,1.92,0,0,0,1.71-1.08A5.46,5.46,0,0,0,14,61.35a5.38,5.38,0,0,0-.56-2.86A1.92,1.92,0,0,0,11.7,57.4c-1.49,0-2.29,1.71-2.29,3.94Z"/><path d="M24.72,66.24H23.6c0-.9,0-1.44,0-1.94A2.67,2.67,0,0,1,21,66.48c-1.94,0-3.28-2.05-3.28-5.11S19,56.21,21,56.21a2.57,2.57,0,0,1,2.52,2.07c0-.58,0-1.12,0-1.84V52.92h1.21ZM19,61.35c0,2.21.79,3.93,2.29,3.93A1.93,1.93,0,0,0,23,64.19a5.42,5.42,0,0,0,.56-2.86A5.42,5.42,0,0,0,23,58.46a1.94,1.94,0,0,0-1.71-1.06c-1.49,0-2.29,1.69-2.29,3.93Z"/><path d="M28.58,61.71c0,2,.83,3.64,2.49,3.64a2.23,2.23,0,0,0,2.2-1.94h1.19a3.92,3.92,0,0,1-1.22,2.3,3.27,3.27,0,0,1-2.16.77c-2.7,0-3.75-2.59-3.75-5.11,0-3,1.4-5.15,3.71-5.15a3,3,0,0,1,2.63,1.39,7.11,7.11,0,0,1,.9,4.11Zm4.75-1.06c0-2-.88-3.4-2.36-3.4s-2.36,1.46-2.4,3.4ZM33,52.4l.5,1-4,2.14L29,54.67Z"/><path d="M43.58,69.86H42.37V66.24c0-.86,0-1.37,0-1.84a2.63,2.63,0,0,1-2.52,2.07c-2.05,0-3.28-2.12-3.28-5.11s1.33-5.15,3.28-5.15a2.58,2.58,0,0,1,2.56,2.11c0-.59,0-1.13,0-1.87h1.15Zm-5.76-8.5c0,2.21.79,3.93,2.29,3.93a1.93,1.93,0,0,0,1.71-1.08,5.46,5.46,0,0,0,.56-2.86,5.38,5.38,0,0,0-.56-2.86A1.93,1.93,0,0,0,40.1,57.4c-1.49,0-2.29,1.71-2.29,3.94Z"/><path d="M53.24,66.24H52.13c0-.56,0-1.1,0-1.71a2.75,2.75,0,0,1-2.74,1.94c-1.67,0-2.81-1-2.81-3.35V56.45h1.21v6.3c0,1,.14,2.54,1.87,2.54,1.42,0,2.34-1,2.34-3v-5.8h1.21Z"/><path d="M62.79,66.24H61.67c0-.86,0-1.4,0-1.87a2.69,2.69,0,0,1-2.59,2.11c-1.95,0-3.28-2.05-3.28-5.11s1.22-5.15,3.28-5.15a2.64,2.64,0,0,1,2.59,2.12c0-.59,0-1.15,0-1.89h1.12ZM57,61.36c0,2.21.79,3.93,2.29,3.93A1.92,1.92,0,0,0,61,64.21a5.46,5.46,0,0,0,.56-2.86A5.38,5.38,0,0,0,61,58.48a1.92,1.92,0,0,0-1.71-1.08c-1.49,0-2.29,1.71-2.29,3.94Z"/><path d="M66.35,57.58H65V56.45h1.37v-3.1h1.21v3.1H68.9v1.13H67.55v8.66H66.35Z"/><path d="M71.64,61.71c0,2,.83,3.64,2.48,3.64a2.23,2.23,0,0,0,2.2-1.94h1.19a3.92,3.92,0,0,1-1.22,2.3,3.28,3.28,0,0,1-2.16.77c-2.7,0-3.74-2.59-3.74-5.11,0-3,1.4-5.15,3.71-5.15a3,3,0,0,1,2.63,1.39,7.13,7.13,0,0,1,.9,4.11Zm4.75-1.06c0-2-.88-3.4-2.36-3.4s-2.36,1.46-2.39,3.4Z"/><path d="M81.65,66.24H80.42V64.33h1.22Z"/></g></g></g></svg>