<svg xmlns="http://www.w3.org/2000/svg" viewBox="0 0 272.26 93.65"><defs><style>.cls-1{isolation:isolate;}.cls-2{fill:#7a5d00;opacity:0.22;}.cls-3{fill:#fefeff;}.cls-4{fill:#d8d8d8;mix-blend-mode:multiply;}</style></defs><title>game1b_item1</title><g class="cls-1"><g id="Calque_2" data-name="Calque 2"><g id="Calque_7" data-name="Calque 7"><polygon class="cls-2" points="240.47 12.88 0 6.5 16.94 93.65 265.29 87.36 263.1 29.66 240.47 12.88"/><polygon class="cls-3" points="234.1 3.25 6.97 0 23.92 87.16 272.26 80.86 269.89 31.37 234.1 3.25"/><path d="M75.76,36.08,79,36l.19,12.6,4.07-.06,0,2.94L76,51.61Z"/><path d="M87.65,51.44l-3.23,0,4-15.6,2.94,0L96,51.31l-3.23,0-.84-2.95-3.57.05Zm2.35-11-.91,5.1,2,0Z"/><path d="M106.76,46.26c.07,1.62.62,2.36,2,2.34a1.68,1.68,0,0,0,1.78-1.87c0-1.41-1.71-1.72-3.4-2.34s-3.38-1.59-3.42-4.21a4.46,4.46,0,0,1,4.69-4.9c2.88,0,4.49,1.32,5,4.38l-3.11,0a1.65,1.65,0,0,0-1.73-1.78A1.59,1.59,0,0,0,107,39.64c0,1.47,1.71,1.72,3.4,2.36s3.38,1.67,3.43,4.63-2.11,4.74-5.07,4.78c-3.55.05-5.13-1.83-5.18-5.11Z"/><path d="M116.22,35.47l3.19,0L119.65,51l-3.19,0Z"/><path d="M130,40.75a3.68,3.68,0,0,0-.36-1.61,1.91,1.91,0,0,0-1.84-1.19c-1.68,0-2.52,1.49-2.46,5.16s.87,5.11,2.62,5.08a1.9,1.9,0,0,0,1.69-.91,3.44,3.44,0,0,0,.43-2l-2.67,0,0-2.94,5.94-.09,0,3c0,3.25-2,5.78-5.35,5.83-4,.06-5.86-2.94-5.94-8-.07-4.83,1.81-8.09,5.69-8.15,3.25,0,5.28,2.1,5.52,5.69Z"/><path d="M143.36,44.2l-.14-9.13L146,35l.23,15.54-2.85,0-4.52-9.89.15,10-2.81,0L136,35.18l3.23,0Z"/><path d="M151.48,50.48l-3.23,0,4-15.6,2.94,0,4.64,15.47-3.23,0-.84-2.95-3.57.05Zm2.35-11-.91,5.1,2,0Z"/><path d="M161.7,37.73l-2.6,0,0-2.94,8.4-.13,0,2.94-2.6,0,.19,12.6-3.19,0Z"/><path d="M172.91,34.62l.16,10.58a2.54,2.54,0,0,0,.47,1.69,1.75,1.75,0,0,0,1.5.52,1.82,1.82,0,0,0,1.5-.57,2.67,2.67,0,0,0,.39-1.71l-.16-10.58,3.19,0,.17,11.11A4.64,4.64,0,0,1,179,49a6.53,6.53,0,0,1-7.94.12,4.73,4.73,0,0,1-1.21-3.36l-.17-11.11Z"/><path d="M183.12,34.47l4-.06c2.2,0,3.62.51,4.3,1.3a5.33,5.33,0,0,1,1.31,3.57,5.73,5.73,0,0,1-.43,2.36,4.19,4.19,0,0,1-1.8,2.06l3,6.15-3.57.05-3.54-7.84c.36,0,.55,0,.8,0a2.47,2.47,0,0,0,1.57-.61,2.42,2.42,0,0,0,.67-1.79,2.24,2.24,0,0,0-.76-1.88,2.44,2.44,0,0,0-1.64-.4h-.73l.19,12.6-3.19,0Z"/><path d="M195.47,34.29l7.56-.11,0,2.94-4.37.07,0,3,4.37-.07,0,2.94-4.37.07.06,3.74,4.37-.07,0,2.94-7.56.11Z"/><polygon class="cls-4" points="270.06 31.38 234.27 3.25 236.39 30.28 270.06 31.38"/></g></g></g></svg>