<svg xmlns="http://www.w3.org/2000/svg" viewBox="0 0 357.47 92.36"><defs><style>.cls-1{isolation:isolate;}.cls-2{fill:#7a5d00;opacity:0.22;}.cls-3{fill:#fefeff;}.cls-4{fill:#d8d8d8;mix-blend-mode:multiply;}</style></defs><title>game1b_item6</title><g class="cls-1"><g id="Calque_2" data-name="Calque 2"><g id="Calque_7" data-name="Calque 7"><polygon class="cls-2" points="322.81 12.04 6.82 6.49 0 92.36 349.9 86.56 347.44 28.85 322.81 12.04"/><polygon class="cls-3" points="315.88 2.39 14.39 0 7.57 85.87 357.47 80.07 354.82 30.58 315.88 2.39"/><path d="M44.2,26.36a5.18,5.18,0,0,1,3.67,1.25,5,5,0,0,1,1.48,3.74A5,5,0,0,1,48,35.12a5.19,5.19,0,0,1-3.63,1.36l-1.22,0,.08,5.42L40,42l-.23-15.54Zm-1.11,7.2,1.18,0A1.68,1.68,0,0,0,45.64,33a2.25,2.25,0,0,0,.44-1.62,2.28,2.28,0,0,0-.49-1.63,1.74,1.74,0,0,0-1.39-.46l-1.18,0Z"/><path d="M51.84,26.24l4-.06c2.2,0,3.62.51,4.3,1.3a5.33,5.33,0,0,1,1.31,3.57,5.73,5.73,0,0,1-.43,2.36,4.18,4.18,0,0,1-1.8,2.06l3,6.15-3.57.05-3.54-7.84c.36,0,.55,0,.8,0a2.47,2.47,0,0,0,1.57-.61,2.41,2.41,0,0,0,.67-1.79,2.24,2.24,0,0,0-.76-1.88,2.43,2.43,0,0,0-1.64-.4h-.73l.19,12.6-3.19,0Z"/><path d="M63.53,33.82c-.07-4.85,1.77-8.07,5.59-8.13s5.76,3.11,5.83,8-1.77,8.09-5.59,8.15-5.76-3.11-5.83-8Zm3.28,0c.06,3.72.87,5.09,2.51,5.06s2.41-1.42,2.36-5.16-.87-5.11-2.51-5.09-2.41,1.42-2.36,5.16Z"/><path d="M82,25.79A5.19,5.19,0,0,1,85.62,27a5,5,0,0,1,1.48,3.74,5,5,0,0,1-1.37,3.78,5.19,5.19,0,0,1-3.63,1.36l-1.22,0L81,41.35l-3.19,0-.23-15.54ZM80.84,33,82,33a1.68,1.68,0,0,0,1.38-.52,2.25,2.25,0,0,0,.44-1.62,2.28,2.28,0,0,0-.49-1.63A1.74,1.74,0,0,0,82,28.73l-1.18,0Z"/><path d="M89.08,33.43c-.07-4.85,1.77-8.07,5.59-8.13s5.76,3.11,5.83,8-1.77,8.09-5.59,8.15-5.76-3.11-5.83-8Zm3.28,0c.06,3.72.87,5.09,2.51,5.06s2.41-1.42,2.36-5.16-.87-5.11-2.51-5.09-2.41,1.42-2.36,5.16Z"/><path d="M105.69,36.08c.07,1.62.62,2.36,2,2.34a1.68,1.68,0,0,0,1.78-1.87c0-1.41-1.71-1.72-3.39-2.34s-3.38-1.59-3.42-4.21a4.46,4.46,0,0,1,4.69-4.9c2.88,0,4.49,1.32,5,4.38l-3.11,0a1.65,1.65,0,0,0-1.73-1.78,1.59,1.59,0,0,0-1.59,1.72c0,1.47,1.71,1.72,3.4,2.36s3.39,1.67,3.43,4.63-2.11,4.74-5.07,4.78c-3.55.05-5.13-1.83-5.18-5.11Z"/><path d="M115.15,25.3l3.19,0,.23,15.54-3.19,0Z"/><path d="M123.3,28.11l-2.6,0,0-2.94,8.4-.13,0,2.94-2.6,0,.19,12.6-3.19,0Z"/><path d="M131.36,25.05l3.19,0,.23,15.54-3.19,0Z"/><path d="M137.21,32.71c-.07-4.85,1.77-8.07,5.59-8.13s5.76,3.11,5.83,8-1.77,8.09-5.59,8.15-5.76-3.11-5.83-8Zm3.28,0c.06,3.72.87,5.09,2.51,5.06s2.41-1.42,2.36-5.16-.87-5.11-2.51-5.09-2.41,1.42-2.36,5.16Z"/><path d="M158.5,33.78l-.14-9.13,2.81,0,.23,15.54-2.86,0L154,30.3l.15,10-2.81,0-.23-15.54,3.23,0Z"/><path d="M170.77,24.46l4.47-.07a5.53,5.53,0,0,1,4.84,2.22,9.47,9.47,0,0,1,1.61,5.46c.06,4.24-2,7.8-6.12,7.86L171,40ZM174.15,37l1.39,0c2.58,0,2.91-3.24,2.89-4.87a7.25,7.25,0,0,0-.77-3.52,2.44,2.44,0,0,0-2.37-1.27l-1.28,0Z"/><path d="M184.29,24.26l7.56-.11,0,2.94-4.37.07,0,3,4.37-.07L192,33l-4.37.07.06,3.74,4.37-.07,0,2.94-7.56.11Z"/><path d="M201.53,24l4-.06c2.2,0,3.62.51,4.3,1.3a5.33,5.33,0,0,1,1.31,3.57,5.73,5.73,0,0,1-.43,2.36,4.18,4.18,0,0,1-1.8,2.06l3,6.15-3.57.05-3.54-7.84c.36,0,.55,0,.8,0a2.47,2.47,0,0,0,1.57-.61,2.41,2.41,0,0,0,.67-1.79,2.24,2.24,0,0,0-.76-1.88,2.43,2.43,0,0,0-1.64-.4h-.73l.19,12.6-3.19,0Z"/><path d="M213.88,23.82l7.56-.11,0,2.94-4.37.07,0,3,4.37-.07,0,2.94-4.37.07.06,3.74,4.37-.07,0,2.94-7.56.11Z"/><path d="M232.18,32.68,232,23.54l2.81,0L235.09,39l-2.85,0-4.52-9.89.15,10-2.81,0-.23-15.54,3.23,0Z"/><path d="M248.88,32.8c0,3.55-1.88,6.35-5.53,6.4-3.4.05-5.67-2.54-5.75-8s2.1-8.1,5.51-8.15c3.76-.06,5.71,2.75,5.72,6.36l-3.27,0c-.13-2.77-.93-3.41-2.15-3.39-1.47,0-2.58,1.36-2.53,5.08s1.21,5,2.68,5c1.66,0,2-1.67,2.05-3.33Z"/><path d="M251,31c-.07-4.85,1.77-8.07,5.59-8.13s5.76,3.11,5.83,8-1.77,8.09-5.59,8.15S251,35.9,251,31Zm3.28,0c.06,3.72.87,5.09,2.51,5.06s2.41-1.42,2.36-5.16-.87-5.11-2.51-5.09-2.41,1.42-2.36,5.16Z"/><path d="M272.24,32.08l-.14-9.13,2.81,0,.23,15.54-2.85,0-4.52-9.89.15,10-2.81,0-.23-15.54,3.23,0Z"/><path d="M280,25.77l-2.6,0,0-2.94,8.4-.13,0,2.94-2.6,0,.19,12.6-3.19,0Z"/><path d="M288,22.71l4-.06c2.2,0,3.62.51,4.3,1.3a5.33,5.33,0,0,1,1.31,3.57,5.73,5.73,0,0,1-.43,2.36,4.18,4.18,0,0,1-1.8,2.06l3,6.15-3.57.05-3.54-7.84c.36,0,.55,0,.8,0a2.47,2.47,0,0,0,1.57-.61,2.41,2.41,0,0,0,.67-1.79,2.24,2.24,0,0,0-.76-1.88,2.44,2.44,0,0,0-1.64-.4h-.73l.19,12.6-3.19,0Z"/><path d="M300.37,22.52l7.56-.11,0,2.94-4.37.07,0,3,4.37-.07,0,2.94-4.37.07.06,3.74,4.37-.07,0,2.94-7.56.11Z"/><path d="M103.28,50.68l4.47-.07a5.53,5.53,0,0,1,4.84,2.22,9.47,9.47,0,0,1,1.61,5.46c.06,4.24-2,7.8-6.12,7.86l-4.58.07Zm3.38,12.55,1.39,0c2.58,0,2.91-3.24,2.89-4.87a7.24,7.24,0,0,0-.77-3.52,2.44,2.44,0,0,0-2.37-1.27l-1.28,0Z"/><path d="M116.66,50.48l3.19,0L120.08,66l-3.19,0Z"/><path d="M125.76,61c.07,1.62.62,2.36,2,2.34a1.68,1.68,0,0,0,1.78-1.87c0-1.41-1.71-1.72-3.39-2.34s-3.38-1.59-3.42-4.21a4.46,4.46,0,0,1,4.69-4.9c2.88,0,4.49,1.32,5,4.38l-3.11,0a1.65,1.65,0,0,0-1.73-1.78A1.59,1.59,0,0,0,126,54.37c0,1.47,1.71,1.72,3.4,2.36s3.38,1.67,3.43,4.63-2.11,4.74-5.07,4.78c-3.55.05-5.13-1.83-5.18-5.11Z"/><path d="M139.78,50.13a5.19,5.19,0,0,1,3.67,1.25,5.66,5.66,0,0,1,.11,7.52,5.19,5.19,0,0,1-3.63,1.36l-1.22,0,.08,5.42-3.19,0-.23-15.54Zm-1.11,7.2,1.18,0a1.68,1.68,0,0,0,1.38-.52,2.26,2.26,0,0,0,.44-1.62,2.28,2.28,0,0,0-.49-1.63,1.74,1.74,0,0,0-1.39-.46l-1.18,0Z"/><path d="M146.91,57.77c-.07-4.85,1.77-8.07,5.59-8.13s5.76,3.11,5.83,8-1.77,8.09-5.59,8.15-5.76-3.11-5.83-8Zm3.28,0c.06,3.72.87,5.09,2.51,5.07s2.41-1.42,2.36-5.16-.87-5.11-2.51-5.09-2.41,1.42-2.36,5.16Z"/><path d="M168.2,58.84l-.14-9.13,2.81,0,.23,15.54-2.85,0-4.52-9.89.15,10-2.81,0-.23-15.54,3.23,0Z"/><path d="M174.13,49.61l3.19,0,.23,15.54-3.19,0Z"/><path d="M180.49,49.52l4.7-.07a4.42,4.42,0,0,1,3.27,1.06,3.86,3.86,0,0,1,1.07,2.78A2.82,2.82,0,0,1,187,56.48a3.54,3.54,0,0,1,3.23,3.88,4.73,4.73,0,0,1-1.09,3.23A4.36,4.36,0,0,1,185.89,65l-5.16.08Zm3.28,6h.73a2,2,0,0,0,1.34-.42,1.64,1.64,0,0,0,.42-1.27,1.49,1.49,0,0,0-.46-1.19,2,2,0,0,0-1.35-.36h-.73Zm.1,6.68,1.2,0a2,2,0,0,0,1.48-.55,1.77,1.77,0,0,0,.42-1.35,1.76,1.76,0,0,0-2-2l-1.2,0Z"/><path d="M192.69,49.34l3.19,0,.23,15.54-3.19,0Z"/><path d="M199.2,49.24l3.19,0,.19,12.6,4.07-.06,0,2.94-7.26.11Z"/><path d="M208.9,49.09l3.19,0,.23,15.54-3.19,0Z"/><path d="M217.05,51.91l-2.6,0,0-2.94,8.4-.13,0,2.94-2.6,0,.19,12.6-3.19,0Z"/><path d="M225.26,48.85l7.56-.11,0,2.94-4.37.07,0,3,4.37-.07,0,2.94-4.37.07.06,3.74,4.37-.07,0,2.94-7.56.11ZM231.72,44l1.1,2.23L228,48.47l-1-1.81Z"/><path d="M238.88,59.29c.07,1.62.62,2.36,2,2.34a1.68,1.68,0,0,0,1.78-1.87c0-1.41-1.71-1.72-3.39-2.34s-3.38-1.59-3.42-4.21a4.46,4.46,0,0,1,4.69-4.9c2.88,0,4.49,1.32,5,4.38l-3.11,0a1.65,1.65,0,0,0-1.73-1.78,1.59,1.59,0,0,0-1.59,1.72c0,1.47,1.71,1.72,3.4,2.36s3.38,1.67,3.43,4.63-2.11,4.74-5.07,4.78c-3.55.05-5.13-1.83-5.18-5.11Z"/><polygon class="cls-4" points="355 30.58 316.06 2.4 318.4 29.43 355 30.58"/></g></g></g></svg>