<svg id="contenu_animé" data-name="contenu animé" xmlns="http://www.w3.org/2000/svg" viewBox="0 0 1920 1080"><defs><style>.cls-1{fill:#4e96b3;}.cls-2{fill:#fff;}.cls-3{fill:#fbb03b;}</style></defs><title>index_titre</title><rect class="cls-1" x="589.61" y="438.81" width="767.56" height="94.78" rx="19.91" ry="19.91"/><path class="cls-2" d="M646.06,453.76h8.51q6.32,0,6.32,8.19a28.93,28.93,0,0,1-.35,4.25l-1.28,8.88q-1.16,7.8-6.11,10.27l2.56,27.49h-6.4l-1.49-26L647,487l-3.76,25.83h-5.84Zm4.63,8.4-2.48,16.92h1.34a4.29,4.29,0,0,0,1.71-.24q1.73-.93,2.15-3.76l1.28-8.88a9,9,0,0,0,.12-1.39q0-2.65-2.07-2.65Z"/><path class="cls-2" d="M670.79,453.76h15.16l-1.22,8.4h-9.31l-2.48,16.92h8l-1.22,8.43h-8l-2.48,16.92h9.31l-1.22,8.4H662.18Zm6.73-2.29h-3.24l4-7.62h4.58Z"/><path class="cls-2" d="M693.46,453.76h9q6.32,0,6.32,8.19a29,29,0,0,1-.35,4.25l-5,34.23q-1.82,12.37-10,12.4h-8.63Zm4.63,8.4-6.18,42.27h2.56q2.54,0,3.14-4l5-34.23a9,9,0,0,0,.12-1.39q0-2.65-2.07-2.65Z"/><path class="cls-2" d="M718.48,453.76h5.84l-8.61,59.07h-5.84Z"/><path class="cls-2" d="M742.41,501.35q-1.82,12.4-10.22,12.43-6.9,0-6.9-8.4a27.74,27.74,0,0,1,.33-4l5.27-36.13q1.82-12.4,10.2-12.4,6.92,0,6.92,8.4a27.2,27.2,0,0,1-.33,4l-1.16,7.95h-5.84l1.16-7.95a9.43,9.43,0,0,0,.1-1.32q0-2.65-2.07-2.68h0q-2.52,0-3.1,4l-5.27,36.13a10.07,10.07,0,0,0-.1,1.35q0,2.65,2.07,2.65,2.56,0,3.14-4l2-13.85h-3l1.22-8.43h8.8Z"/><path class="cls-2" d="M757.47,453.76h15.16l-1.22,8.4H762.1l-2.48,16.92h8l-1.22,8.43h-8l-2.48,16.92h9.31l-1.22,8.4H748.86Z"/><path class="cls-2" d="M780.14,453.76h8.51q6.32,0,6.32,8.19a28.93,28.93,0,0,1-.35,4.25l-1.28,8.88q-1.16,7.8-6.11,10.27l2.56,27.49h-6.4l-1.49-26-.76.15-3.76,25.83h-5.84Zm4.63,8.4-2.48,16.92h1.34a4.29,4.29,0,0,0,1.71-.24q1.73-.93,2.15-3.76l1.28-8.88a9,9,0,0,0,.12-1.39q0-2.65-2.07-2.65Z"/><path class="cls-2" d="M828.18,501.35q-1.82,12.4-10.22,12.43-6.9,0-6.9-8.4a27.74,27.74,0,0,1,.33-4l6.94-47.6h5.84l-6.94,47.6a10,10,0,0,0-.1,1.35q0,2.65,2.07,2.65,2.56,0,3.14-4l6.94-47.6h5.84Z"/><path class="cls-2" d="M843.46,453.76h5.84l.54,34.26,5-34.26h5.41l-8.61,59.07h-5.84l-.5-33.18-4.83,33.18h-5.62Z"/><path class="cls-2" d="M868.79,453.76h15.16l-1.22,8.4h-9.31l-2.48,16.92h8l-1.22,8.43h-8l-2.48,16.92h9.31l-1.22,8.4H860.18Z"/><path class="cls-2" d="M896.51,512.82l8.61-59.07H911l-7.39,50.67h9.31l-1.22,8.4Z"/><path class="cls-2" d="M927,453.76h15.16l-1.22,8.4h-9.31l-2.48,16.92h8l-1.22,8.43h-8l-2.48,16.92h9.31l-1.22,8.4H918.35Z"/><path class="cls-2" d="M964.77,453.76l-1.22,8.4h-5.47l-7.39,50.67h-5.84l7.39-50.67h-5.47l1.22-8.4Z"/><path class="cls-2" d="M986.79,453.76l-1.22,8.4H980.1l-7.39,50.67h-5.84l7.39-50.67h-5.47l1.22-8.4Z"/><path class="cls-2" d="M993.68,453.76h8.51q6.32,0,6.32,8.19a28.93,28.93,0,0,1-.35,4.25l-1.28,8.88q-1.16,7.8-6.11,10.27l2.56,27.49h-6.4l-1.49-26-.76.15-3.76,25.83h-5.84Zm4.63,8.4-2.48,16.92h1.34a4.29,4.29,0,0,0,1.71-.24q1.73-.93,2.15-3.76l1.28-8.88a8.93,8.93,0,0,0,.12-1.39q0-2.65-2.06-2.65Z"/><path class="cls-2" d="M1018.42,453.76h15.16l-1.22,8.4H1023l-2.48,16.92h8l-1.22,8.43h-8l-2.48,16.92h9.31l-1.22,8.4H1009.8Z"/><path class="cls-2" d="M1054.75,453.76h9q6.32,0,6.32,8.19a29.05,29.05,0,0,1-.35,4.25l-5,34.23q-1.82,12.37-10,12.4h-8.63Zm4.63,8.4-6.17,42.27h2.56q2.54,0,3.14-4l5-34.23a8.93,8.93,0,0,0,.12-1.39q0-2.65-2.07-2.65Z"/><path class="cls-2" d="M1079.67,453.76h15.16l-1.22,8.4h-9.31l-2.48,16.92h8l-1.22,8.43h-8l-2.48,16.92h9.31l-1.22,8.4h-15.16Z"/><path class="cls-2" d="M1122.81,494.22l12.7-40.46h5.84l-8.61,59.07h-5.6l4.83-33.15-9.83,33.15h-4l-.31-33.15L1113,512.82h-5.66l8.61-59.07h5.84Z"/><path class="cls-2" d="M1159.34,501.35q-1.82,12.4-10.22,12.43-6.9,0-6.9-8.4a27.81,27.81,0,0,1,.33-4l5.27-36.13q1.82-12.4,10.2-12.4,6.92,0,6.92,8.4a27.2,27.2,0,0,1-.33,4Zm-.58-36.13a9.5,9.5,0,0,0,.1-1.32q0-2.65-2.07-2.68h0q-2.52,0-3.1,4l-5.27,36.13a10,10,0,0,0-.1,1.35q0,2.65,2.07,2.65,2.56,0,3.14-4Z"/><path class="cls-2" d="M1189.54,453.76l-1.22,8.4h-5.47l-7.39,50.67h-5.84l7.39-50.67h-5.47l1.22-8.4Z"/><path class="cls-2" d="M1196.54,453.76h5.84l-8.61,59.07h-5.84Z"/><path class="cls-2" d="M1214.6,512.82h-8l1.45-38.17,1.14-20.89h5.91l-2.52,45.52,10.76-45.52h5.91l-5,21Z"/><path class="cls-2" d="M1245.84,491.87l-1.16,21h-5.91l.68-12.52h-6l-3,12.52h-5.89l4.94-20.86,9.71-38.2h8Zm-5.91,0,1.34-24.57-5.8,24.57Z"/><path class="cls-2" d="M1274.47,453.76l-1.22,8.4h-5.47l-7.39,50.67h-5.84l7.39-50.67h-5.47l1.22-8.4Z"/><path class="cls-2" d="M1281.46,453.76h5.84l-8.61,59.07h-5.84Z"/><path class="cls-2" d="M1305.39,501.35q-1.82,12.4-10.22,12.43-6.9,0-6.9-8.4a27.81,27.81,0,0,1,.33-4l5.27-36.13q1.82-12.4,10.2-12.4,6.92,0,6.92,8.4a27.2,27.2,0,0,1-.33,4Zm-.58-36.13a9.5,9.5,0,0,0,.1-1.32q0-2.65-2.07-2.68h0q-2.52,0-3.1,4l-5.27,36.13a10,10,0,0,0-.1,1.35q0,2.65,2.07,2.65,2.56,0,3.14-4Z"/><path class="cls-2" d="M1320.46,453.76h5.84l.54,34.26,5-34.26h5.41l-8.61,59.07h-5.84l-.5-33.18-4.83,33.18h-5.62Z"/><rect class="cls-2" x="530.48" y="428.54" width="84.59" height="117.41" rx="4.53" ry="4.53" transform="translate(-117.17 188.17) rotate(-16.95)"/><path class="cls-3" d="M515.88,441.55l-.44.8Z"/><path class="cls-1" d="M626.58,536l-71.21,20.9a8.55,8.55,0,0,1-10.6-5.79L514.78,449a8.55,8.55,0,0,1,5.79-10.6l71.21-20.9a8.55,8.55,0,0,1,10.6,5.79l30,102.15A8.55,8.55,0,0,1,626.58,536ZM521.72,442.31a4.45,4.45,0,0,0-3,5.52l30,102.15a4.46,4.46,0,0,0,5.52,3l71.21-20.9a4.46,4.46,0,0,0,3-5.52l-30-102.15a4.45,4.45,0,0,0-5.52-3Z"/><path class="cls-1" d="M565.46,471.78l36-10.58c.51-.15,1.12.44,1.38,1.31h0c.26.87.06,1.7-.45,1.85l-36,10.58c-.51.15-1.12-.44-1.38-1.31h0C564.75,472.75,565,471.92,565.46,471.78Z"/><rect class="cls-1" x="539.21" y="481.46" width="68.26" height="3.3" rx="1.65" ry="1.65" transform="translate(-112.86 181.04) rotate(-16.36)"/><rect class="cls-1" x="542.43" y="492.45" width="68.26" height="3.3" rx="1.65" ry="1.65" transform="matrix(0.96, -0.28, 0.28, 0.96, -115.82, 182.4)"/><rect class="cls-1" x="545.66" y="503.43" width="68.26" height="3.3" rx="1.65" ry="1.65" transform="translate(-118.79 183.75) rotate(-16.36)"/><rect class="cls-1" x="548.88" y="514.42" width="68.26" height="3.3" rx="1.65" ry="1.65" transform="translate(-121.75 185.1) rotate(-16.36)"/><rect class="cls-1" x="529.32" y="450.62" width="28.81" height="3.3" rx="1.65" ry="1.65" transform="translate(-105.37 171.46) rotate(-16.36)"/><rect class="cls-1" x="531.8" y="459.07" width="28.81" height="3.3" rx="1.65" ry="1.65" transform="translate(-107.65 172.5) rotate(-16.36)"/><path class="cls-1" d="M604.27,527.46c-3.07-2.23-4,1.68-5.89,3.55a7.16,7.16,0,0,1-4.74,2.21c-1,.12-1.07-1.52,0-1.63,4.77-.53,5-5,8-7.35a.82.82,0,0,1,.82,0,11.16,11.16,0,0,1,2.23,1.47,61.05,61.05,0,0,1,3.92-5.63.83.83,0,0,1,1.38.33c2,5.37,2.12-1,4.4-1.52,1.53-.38,2.31.7,3,1.88.53.91-.86,1.77-1.39.86-.69-1.17-3.66,3.12-4.61,3.7a.82.82,0,0,1-1-.1,9,9,0,0,1-1.45-2.87,58.15,58.15,0,0,0-3.34,4.93A.83.83,0,0,1,604.27,527.46Z"/><path class="cls-1" d="M618.46,526.2a35.23,35.23,0,0,0-7.38,4.22c-.85.63-1.7-.77-.86-1.39a37,37,0,0,1,7.78-4.4C619,524.23,619.42,525.8,618.46,526.2Z"/><path class="cls-1" d="M541.5,218.86v13.87H530v73.18H515.5V232.73H504V218.86Z"/><path class="cls-1" d="M552.89,218.86h19q17.48,0,17.48,18.83v12.83q0,11.83-9.48,15.3l14,40.09H578.06l-9.91-37.44h-.78v37.44H552.89Zm14.48,13.87v22.7h1.74a10.85,10.85,0,0,0,3-.26q2.74-1.09,2.74-4.65V237.69q0-5-4.26-5Z"/><path class="cls-1" d="M641,274.69l4.13,31.22H630.49l-2.39-18.09H617.45L615,305.91H600.45l4.13-31.09,8.83-56h18.78Zm-14.74-.78-3.48-26.35-3.48,26.35Z"/><path class="cls-1" d="M656.06,218.86h14.3L680,261.73V218.86h13.57v87h-14.3l-9.22-41.7v41.7h-14Z"/><path class="cls-1" d="M707.58,236.3q0-18.78,18.74-18.78T745.1,236.3v12.35H730.62V236.3q0-4.87-4.26-4.91h-.09q-4.22,0-4.22,4.91V244q0,5.3,11.13,13.3,11.91,8.48,11.91,20.35v10.78q0,18.83-18.74,18.83t-18.78-18.83V276.12h14.48v12.35q0,4.91,4.3,4.91t4.26-4.91v-9.74q0-5.78-11.13-13.78-11.91-8.48-11.91-20.65Z"/><path class="cls-1" d="M759.1,218.86h19q17.48,0,17.48,18.83v12.83q0,13.78-12.48,17.87a29.8,29.8,0,0,1-8.61,1h-.91v36.57H759.1Zm14.48,13.87v22.7h1.74a10.85,10.85,0,0,0,3-.26q2.74-1.09,2.74-4.65V237.69q0-5-4.26-5Z"/><path class="cls-1" d="M844.92,288.47q0,18.78-18.78,18.83T807.4,288.47V236.3q0-18.78,18.74-18.78t18.78,18.78ZM830.44,236.3q0-4.87-4.26-4.91h-.09q-4.22,0-4.22,4.91v52.17q0,4.91,4.26,4.91t4.3-4.91Z"/><path class="cls-1" d="M858.92,218.86h19q17.48,0,17.48,18.83v12.83q0,11.83-9.48,15.3l14,40.09H884.09l-9.91-37.44h-.78v37.44H858.92Zm14.48,13.87v22.7h1.74a10.85,10.85,0,0,0,3-.26q2.74-1.09,2.74-4.65V237.69q0-5-4.26-5Z"/><path class="cls-1" d="M943.44,218.86v13.87H931.91v73.18H917.43V232.73H905.91V218.86Z"/><path class="cls-1" d="M954,236.3q0-18.78,18.74-18.78t18.78,18.78v12.35H977V236.3q0-4.87-4.26-4.91h-.09q-4.22,0-4.22,4.91V244q0,5.3,11.13,13.3,11.92,8.48,11.91,20.35v10.78q0,18.83-18.74,18.83T954,288.47V276.12h14.48v12.35q0,4.91,4.3,4.91t4.26-4.91v-9.74q0-5.78-11.13-13.78Q954,256.47,954,244.3Z"/><path class="cls-1" d="M1031.12,218.86h19q17.48,0,17.48,18.83v12.83q0,11.83-9.48,15.3l14,40.09H1056.3l-9.91-37.44h-.78v37.44h-14.48Zm14.48,13.87v22.7h1.74a10.84,10.84,0,0,0,3-.26q2.74-1.09,2.74-4.65V237.69q0-5-4.26-5Z"/><path class="cls-1" d="M1119.25,288.47q0,18.78-18.78,18.83t-18.74-18.83V236.3q0-18.78,18.74-18.78t18.78,18.78Zm-14.48-52.17q0-4.87-4.26-4.91h-.09q-4.22,0-4.22,4.91v52.17q0,4.91,4.26,4.91t4.3-4.91Z"/><path class="cls-1" d="M1170.34,288.47q0,18.78-18.78,18.83t-18.74-18.83V218.86h14.48v69.61q0,4.91,4.26,4.91t4.3-4.91V218.86h14.48Z"/><path class="cls-1" d="M1218.81,218.86v13.87h-11.52v73.18h-14.48V232.73h-11.52V218.86Z"/><path class="cls-1" d="M1230.42,218.86h14.48v87h-14.48Z"/><path class="cls-1" d="M1260,218.86h34.09v13.87h-19.61v22.7h16.87v13.91h-16.87V292h19.61v13.87H1260Z"/><path class="cls-1" d="M1306.76,218.86h19q17.48,0,17.48,18.83v12.83q0,11.83-9.48,15.3l14,40.09h-15.78L1322,268.47h-.78v37.44h-14.48Zm14.48,13.87v22.7H1323a10.84,10.84,0,0,0,3-.26q2.74-1.09,2.74-4.65V237.69q0-5-4.26-5Z"/><path class="cls-1" d="M1357.36,236.3q0-18.78,18.74-18.78t18.78,18.78v12.35h-14.48V236.3q0-4.87-4.26-4.91h-.09q-4.22,0-4.22,4.91V244q0,5.3,11.13,13.3,11.91,8.48,11.91,20.35v10.78q0,18.83-18.74,18.83t-18.78-18.83V276.12h14.48v12.35q0,4.91,4.3,4.91t4.26-4.91v-9.74q0-5.78-11.13-13.78-11.91-8.48-11.91-20.65Z"/><path class="cls-1" d="M661.88,160.76h8.92q8.2,0,8.2,8.84v6q0,5.55-4.45,7.18l6.55,18.81h-7.41L669,184h-.37v17.57h-6.8Zm6.8,6.51v10.65h.82a5.11,5.11,0,0,0,1.43-.12,2.1,2.1,0,0,0,1.29-2.18v-6q0-2.33-2-2.33Z"/><path class="cls-1" d="M686,160.76h16v6.51h-9.2v10.65h7.92v6.53h-7.92v10.65H702v6.51H686Z"/><path class="cls-1" d="M725.19,193.43q0,8.82-8.82,8.84t-8.8-8.84V168.95q0-8.82,8.8-8.82t8.82,8.82v5.8h-6.8v-5.8q0-2.29-2-2.31h0q-2,0-2,2.31v24.49q0,2.31,2,2.31t2-2.31v-5.8h6.8Z"/><path class="cls-1" d="M731.56,160.76h6.8v17.16h4V160.76h6.8v40.85h-6.8V184.46h-4v17.16h-6.8Z"/><path class="cls-1" d="M756.15,160.76h16v6.51h-9.2v10.65h7.92v6.53h-7.92v10.65h9.2v6.51h-16Z"/><path class="cls-1" d="M778.1,160.76H787q8.2,0,8.2,8.84v6q0,5.55-4.45,7.18l6.55,18.81h-7.41L785.27,184h-.37v17.57h-6.8Zm6.8,6.51v10.65h.82a5.11,5.11,0,0,0,1.43-.12,2.1,2.1,0,0,0,1.29-2.18v-6q0-2.33-2-2.33Z"/><path class="cls-1" d="M819.47,193.43q0,8.82-8.82,8.84t-8.8-8.84V168.95q0-8.82,8.8-8.82t8.82,8.82v5.8h-6.8v-5.8q0-2.29-2-2.31h0q-2,0-2,2.31v24.49q0,2.31,2,2.31t2-2.31v-5.8h6.8Z"/><path class="cls-1" d="M825.83,160.76h6.8v17.16h4V160.76h6.8v40.85h-6.8V184.46h-4v17.16h-6.8Z"/><path class="cls-1" d="M850.42,160.76h16v6.51h-9.2v10.65h7.92v6.53h-7.92v10.65h9.2v6.51h-16Z"/><path class="cls-1" d="M884.42,160.76h9.41q8.2,0,8.2,8.84v23.2q0,8.8-8.55,8.82h-9.06Zm6.8,6.51v27.83h2q2,0,2-2.31V169.6q0-2.33-2-2.33Z"/><path class="cls-1" d="M908.6,160.74h8.16v6.33l-2.29,7.79h-4.75l1.18-6.67H908.6Z"/><path class="cls-1" d="M923.74,160.76h16v6.51h-9.2v10.65h7.92v6.53h-7.92v10.65h9.2v6.51h-16Z"/><path class="cls-1" d="M958.77,187.84l6.28-27.08h6.71v40.85h-6.55V182.82l-4,18.79h-4.77L952.3,182.7v18.92h-6.61V160.76h6.71Z"/><path class="cls-1" d="M978.75,160.76h8.92q8.2,0,8.2,8.84v6q0,6.47-5.86,8.39a14,14,0,0,1-4,.45h-.43v17.16h-6.79Zm6.79,6.51v10.65h.82a5.11,5.11,0,0,0,1.43-.12,2.1,2.1,0,0,0,1.29-2.18v-6q0-2.33-2-2.33Z"/><path class="cls-1" d="M1001.83,201.62V160.76h6.79v34.34h9.2v6.51Z"/><path class="cls-1" d="M1040.17,193.43q0,8.82-8.82,8.84t-8.79-8.84V168.95q0-8.82,8.79-8.82t8.82,8.82Zm-6.79-24.49q0-2.29-2-2.31h0q-2,0-2,2.31v24.49q0,2.31,2,2.31t2-2.31Z"/><path class="cls-1" d="M1046.84,160.76h6.8v40.85h-6.8Z"/><path class="cls-1" d="M1072.75,160.76h9.41q8.2,0,8.2,8.84v23.2q0,8.8-8.55,8.82h-9.06Zm6.79,6.51v27.83h2q2,0,2-2.31V169.6q0-2.33-2-2.33Z"/><path class="cls-1" d="M1114.12,187l1.94,14.65h-6.86l-1.12-8.49h-5l-1.14,8.49h-6.84L1097,187l4.14-26.26H1110Zm-6.92-.37-1.63-12.37-1.63,12.37Z"/><path class="cls-1" d="M1121.2,160.76h6.71l4.53,20.12V160.76h6.37v40.85h-6.71L1127.77,182v19.57h-6.57Z"/><path class="cls-1" d="M1145.38,168.95q0-8.82,8.79-8.82t8.82,8.82v5.8h-6.79v-5.8q0-2.29-2-2.31h0q-2,0-2,2.31v3.63q0,2.49,5.22,6.24,5.59,4,5.59,9.55v5.06q0,8.84-8.79,8.84t-8.82-8.84v-5.8h6.79v5.8q0,2.31,2,2.31t2-2.31v-4.57q0-2.71-5.22-6.47-5.59-4-5.59-9.69Z"/><path class="cls-1" d="M1181.59,201.62V160.76h6.79v34.34h9.2v6.51Z"/><path class="cls-1" d="M1202.73,160.76h16v6.51h-9.2v10.65h7.92v6.53h-7.92v10.65h9.2v6.51h-16Z"/><path class="cls-1" d="M1224.28,168.95q0-8.82,8.79-8.82t8.82,8.82v5.8h-6.79v-5.8q0-2.29-2-2.31h0q-2,0-2,2.31v3.63q0,2.49,5.22,6.24,5.59,4,5.59,9.55v5.06q0,8.84-8.79,8.84t-8.82-8.84v-5.8h6.79v5.8q0,2.31,2,2.31t2-2.31v-4.57q0-2.71-5.22-6.47-5.59-4-5.59-9.69Z"/><path class="cls-1" d="M939.57,355.67a18.47,18.47,0,0,1-12,3.79c-8.49,0-10.61-4.65-9.67-9,1-4.86,6-7.55,9.59-8.57a6.18,6.18,0,0,1-1.8-5.79c.86-4,5.43-6.57,10.16-6.57,6.49,0,7.63,3.75,7.1,6.37-.9,4.08-5.43,6-7.3,6.69l5.34,6.16a17.11,17.11,0,0,0,3.43-4.77l4,1.1a21.25,21.25,0,0,1-4.73,6.69l6,6.94h-7.67Zm-9.71-11c-2.16.94-5.35,2.41-6,5.3-.94,4.45,3.06,5.39,5.63,5.39a11.92,11.92,0,0,0,7.3-2.57Zm7.92-8.57c.45-2-.82-2.77-2.73-2.77-2.49,0-3.63,1.31-3.92,2.65s1,3.06,1.88,4.16C935.45,339.11,937.32,338.29,937.77,336.13Z"/><path class="cls-1" d="M985.2,344.41,984,359.06h-6.86l.67-8.49h-5l-2.94,8.49h-6.84l5-14.59,9.71-26.26h8.82Zm-6.84-.37,1-12.37L975.09,344Z"/><path class="cls-1" d="M1008.11,350.88q-1.88,8.82-10.69,8.84-7.24,0-7.24-6a13.85,13.85,0,0,1,.33-2.84l5.2-24.49q1.88-8.82,10.67-8.82,7.26,0,7.26,6a13.78,13.78,0,0,1-.33,2.82l-1.22,5.8h-6.8l1.22-5.8a3.75,3.75,0,0,0,.1-.82q0-1.47-1.61-1.49h0q-2,0-2.47,2.31l-5.2,24.49a3.69,3.69,0,0,0-.1.82q0,1.49,1.61,1.49,2,0,2.51-2.31l1.22-5.8h6.8Z"/><path class="cls-1" d="M1037.39,318.2l-1.39,6.51h-5.41l-7.29,34.34h-6.79l7.29-34.34h-5.41l1.39-6.51Z"/><path class="cls-1" d="M1042.84,318.2h6.8L1041,359.06h-6.8Z"/><path class="cls-1" d="M1061.1,359.06h-8.82l1.43-26.24,1.16-14.61h6.86l-3.18,32,10.43-32h6.86l-5,14.65Z"/><path class="cls-1" d="M1081.08,318.2h6.8l-8.67,40.85h-6.8Z"/><path class="cls-1" d="M1110.93,318.2l-1.39,6.51h-5.41l-7.29,34.34h-6.79l7.29-34.34h-5.41l1.39-6.51Z"/><path class="cls-1" d="M1116.28,318.2h16l-1.39,6.51h-9.2l-2.24,10.65h7.92L1126,341.9h-7.92l-2.27,10.65h9.2l-1.39,6.51h-16Zm15.22-4.57-6.73,3.84h-5.84l7.78-6H1132Z"/><path class="cls-1" d="M1135.07,326.39q1.88-8.82,10.67-8.82,7.26,0,7.26,6a13.78,13.78,0,0,1-.33,2.82l-1.22,5.8h-6.8l1.22-5.8a3.75,3.75,0,0,0,.1-.82q0-1.47-1.61-1.49h0q-2,0-2.47,2.31l-.78,3.63a2.43,2.43,0,0,0-.06.55q0,2.35,4,5.69a9.42,9.42,0,0,1,3.82,7.39,10,10,0,0,1-.25,2.16l-1.08,5.06q-1.88,8.84-10.67,8.84-7.27,0-7.26-6a13.77,13.77,0,0,1,.33-2.82l1.22-5.8h6.8l-1.22,5.8a3.69,3.69,0,0,0-.1.82q0,1.49,1.63,1.49,2,0,2.49-2.31l1-4.57a3.2,3.2,0,0,0,.06-.63q0-2.51-3.92-5.84a9.45,9.45,0,0,1-3.78-7.43,11,11,0,0,1,.25-2.27Z"/><path class="cls-1" d="M1184.63,344.41l-1.16,14.65h-6.86l.67-8.49h-5l-2.94,8.49h-6.84l5-14.59,9.71-26.26h8.82Zm-6.84-.37,1-12.37L1174.53,344Z"/><path class="cls-1" d="M1207.75,350.88q-1.88,8.82-10.69,8.84-7.25,0-7.24-6a13.85,13.85,0,0,1,.33-2.84l6.94-32.67h6.79l-6.94,32.67a3.69,3.69,0,0,0-.1.82q0,1.49,1.61,1.49,2,0,2.51-2.31l6.94-32.67h6.8Z"/><path class="cls-1" d="M1226.48,318.2l.88,11.71,5.84-11.71h6.86L1229,338.63l2.43,20.43h-6.86l-.59-13-6.12,13H1211l11.12-20.43-2.45-20.43Z"/><path class="cls-1" d="M1245.32,318.2h6.8l-8.67,40.85h-6.8Z"/><path class="cls-1" d="M1250.52,359.06l8.67-40.85H1266l-7.29,34.34h9.2l-1.39,6.51Z"/><path class="cls-1" d="M1280.43,318.2h6.8l-8.67,40.85h-6.8Z"/><path class="cls-1" d="M1305.92,344.41l-1.16,14.65h-6.86l.67-8.49h-5l-2.94,8.49h-6.84l5-14.59,9.71-26.26h8.82Zm-6.84-.37,1-12.37L1295.82,344Z"/><path class="cls-1" d="M1318.67,318.2h6.8l-8.67,40.85H1310Z"/><path class="cls-1" d="M1332.55,318.2h8.92q6.67,0,6.67,5.86a14.49,14.49,0,0,1-.35,3l-1.27,6q-1.18,5.55-6,7.18l2.55,18.81h-7.41l-.92-17.57h-.37l-3.73,17.57h-6.79Zm5.41,6.51-2.24,10.65h.82a5.36,5.36,0,0,0,1.45-.12,2.76,2.76,0,0,0,1.75-2.18l1.27-6a3.69,3.69,0,0,0,.1-.82q0-1.51-1.61-1.51Z"/><path class="cls-1" d="M1356.71,318.2h16l-1.39,6.51h-9.2l-2.24,10.65h7.92l-1.39,6.53h-7.92l-2.27,10.65h9.2l-1.39,6.51h-16Z"/><path class="cls-1" d="M1376.52,326.39q1.88-8.82,10.67-8.82,7.26,0,7.26,6a13.78,13.78,0,0,1-.33,2.82l-1.22,5.8h-6.8l1.22-5.8a3.75,3.75,0,0,0,.1-.82q0-1.47-1.61-1.49h0q-2,0-2.47,2.31l-.78,3.63a2.43,2.43,0,0,0-.06.55q0,2.35,4,5.69a9.42,9.42,0,0,1,3.82,7.39,10,10,0,0,1-.25,2.16l-1.08,5.06q-1.88,8.84-10.67,8.84-7.27,0-7.26-6a13.77,13.77,0,0,1,.33-2.82l1.22-5.8h6.8l-1.22,5.8a3.69,3.69,0,0,0-.1.82q0,1.49,1.63,1.49,2,0,2.49-2.31l1-4.57a3.2,3.2,0,0,0,.06-.63q0-2.51-3.92-5.84a9.45,9.45,0,0,1-3.78-7.43,11,11,0,0,1,.25-2.27Z"/></svg>