<svg xmlns="http://www.w3.org/2000/svg" viewBox="0 0 459.42 75.61"><defs><style>.cls-1{fill:#fcc600;}.cls-2{fill:#4e96b3;}</style></defs><title>bt_consulter_reponses</title><g id="Calque_2" data-name="Calque 2"><g id="boutons"><rect class="cls-1" width="459.42" height="75.61" rx="37.8" ry="37.8"/><path class="cls-2" d="M61.94,46.71q0,6.47-7.23,6.48T47.5,46.71V27.87q0-6.46,7.21-6.46t7.23,6.46V32h-5V27.87q0-2.08-2.19-2.08h0q-2.17,0-2.17,2.08V46.71q0,2.08,2.18,2.08t2.2-2.08V42.58h5Z"/><path class="cls-2" d="M80.11,46.71q0,6.47-7.23,6.48t-7.21-6.48V27.87q0-6.46,7.21-6.46t7.23,6.46Zm-5-18.84q0-2.08-2.18-2.08h0q-2.17,0-2.17,2.08V46.71q0,2.08,2.19,2.08t2.2-2.08Z"/><path class="cls-2" d="M84.38,21.83h5L94.16,39.7V21.83h4.65v30.8h-5l-4.58-17.3v17.3H84.38Z"/><path class="cls-2" d="M103.08,27.87q0-6.46,7.21-6.46t7.23,6.46V32h-5V27.87q0-2.08-2.18-2.08h0q-2.17,0-2.17,2.08v2.79q0,2.06,4.71,5t4.71,7.12v3.89q0,6.48-7.21,6.48t-7.23-6.48V42.58h5v4.14q0,2.08,2.2,2.08t2.18-2.08V43.2q0-2.24-4.71-5.22t-4.71-7.21Z"/><path class="cls-2" d="M136,46.71q0,6.47-7.23,6.48t-7.21-6.48V21.88h5V46.71q0,2.08,2.18,2.08t2.2-2.08V21.88h5Z"/><path class="cls-2" d="M140.48,52.63V21.83h5V48.24h8v4.39Z"/><path class="cls-2" d="M167.62,21.83V26.2h-4.71V52.63h-5V26.2h-4.71V21.83Z"/><path class="cls-2" d="M170.82,21.83h13V26.2h-8V35h6.89v4.4h-6.89v8.81h8v4.39h-13Z"/><path class="cls-2" d="M199.18,24.49l-6.82,23.75h7.12v4.39H186.69V50l6.82-23.76h-6.59V21.83h12.25Z"/><path class="cls-2" d="M212.23,52.63V21.83h5V48.24h8v4.39Z"/><path class="cls-2" d="M228.29,21.83h13V26.2h-8V35h6.89v4.4h-6.89v8.81h8v4.39h-13Z"/><path class="cls-2" d="M244.7,27.87q0-6.46,7.21-6.46t7.23,6.46V32h-5V27.87q0-2.08-2.18-2.08h0q-2.17,0-2.17,2.08v2.79q0,2.06,4.71,5t4.71,7.12v3.89q0,6.48-7.21,6.48t-7.23-6.48V42.58h5v4.14q0,2.08,2.2,2.08t2.18-2.08V43.2q0-2.24-4.71-5.22t-4.71-7.21Z"/><path class="cls-2" d="M272.43,21.83h7.32q6.7,0,6.7,6.48v4.62a5.2,5.2,0,0,1-4,5.36l5.65,14.33h-5.51l-4.53-13.55-.64.09V52.63h-5Zm5,4.37V35h1.15A5.52,5.52,0,0,0,280,34.9a1.91,1.91,0,0,0,1.37-2V28.31a1.9,1.9,0,0,0-2.18-2.11Z"/><path class="cls-2" d="M291,21.83h13V26.2h-8V35h6.89v4.4H296v8.81h8v4.39H291Zm6.38-1.26h-2.79l2.52-4.49H301Z"/><path class="cls-2" d="M307.73,21.83h7.32q6.69,0,6.7,6.48v4.62q0,4.78-4.81,6.16a12.68,12.68,0,0,1-3.36.34h-.82v13.2h-5Zm5,4.37V35h1.15a5.51,5.51,0,0,0,1.44-.12,1.91,1.91,0,0,0,1.37-2V28.31a1.9,1.9,0,0,0-2.19-2.11Z"/><path class="cls-2" d="M339.56,46.71q0,6.47-7.23,6.48t-7.21-6.48V27.87q0-6.46,7.21-6.46t7.23,6.46Zm-5-18.84q0-2.08-2.18-2.08h0q-2.17,0-2.17,2.08V46.71q0,2.08,2.19,2.08t2.2-2.08Z"/><path class="cls-2" d="M343.82,21.83h5l4.76,17.87V21.83h4.65v30.8h-5l-4.58-17.3v17.3h-4.83Z"/><path class="cls-2" d="M362.52,27.87q0-6.46,7.21-6.46T377,27.87V32h-5V27.87q0-2.08-2.18-2.08h0q-2.17,0-2.17,2.08v2.79q0,2.06,4.71,5T377,42.82v3.89q0,6.48-7.21,6.48t-7.23-6.48V42.58h5v4.14q0,2.08,2.2,2.08t2.18-2.08V43.2q0-2.24-4.71-5.22t-4.71-7.21Z"/><path class="cls-2" d="M381.23,21.83h13V26.2h-8V35h6.89v4.4h-6.89v8.81h8v4.39h-13Z"/><path class="cls-2" d="M397.64,27.87q0-6.46,7.21-6.46t7.23,6.46V32h-5V27.87q0-2.08-2.19-2.08h0q-2.17,0-2.17,2.08v2.79q0,2.06,4.71,5t4.71,7.12v3.89q0,6.48-7.21,6.48t-7.23-6.48V42.58h5v4.14q0,2.08,2.2,2.08t2.19-2.08V43.2q0-2.24-4.71-5.22t-4.71-7.21Z"/></g></g></svg>