<svg xmlns="http://www.w3.org/2000/svg" viewBox="0 0 260.59 75.61"><defs><style>.cls-1{fill:#fcc600;}.cls-2{fill:#4e96b3;}</style></defs><title>bt_continuer_game2</title><g id="Calque_2" data-name="Calque 2"><g id="boutons"><rect class="cls-1" width="260.59" height="75.61" rx="37.8" ry="37.8"/><path class="cls-2" d="M51.73,47.86q0,7.32-7.23,7.34t-7.21-7.34V26.55q0-7.32,7.21-7.32t7.23,7.32v4.69h-5V26.55q0-2.34-2.18-2.36h0q-2.17,0-2.17,2.36V47.86q0,2.36,2.18,2.36t2.2-2.36V43.17h5Z"/><path class="cls-2" d="M69.9,47.86q0,7.32-7.23,7.34t-7.21-7.34V26.55q0-7.32,7.21-7.32t7.23,7.32Zm-5-21.31q0-2.34-2.18-2.36h0q-2.17,0-2.17,2.36V47.86q0,2.36,2.18,2.36t2.2-2.36Z"/><path class="cls-2" d="M74.16,19.78h5L83.95,40V19.78H88.6V54.63h-5L79,35.06V54.63H74.16Z"/><path class="cls-2" d="M106.24,19.78v5h-4.71V54.63h-5V24.74H91.8v-5Z"/><path class="cls-2" d="M109.52,19.78h5V54.63h-5Z"/><path class="cls-2" d="M119.26,19.78h5L129,40V19.78h4.65V54.63h-5l-4.58-19.57V54.63h-4.83Z"/><path class="cls-2" d="M152.58,47.86q0,7.32-7.23,7.34t-7.21-7.34V19.78h5V47.86q0,2.36,2.18,2.36t2.2-2.36V19.78h5Z"/><path class="cls-2" d="M157,19.78h13v5h-8v10h6.89v5H162v10h8v5H157Z"/><path class="cls-2" d="M185.38,22.8l-6.82,26.87h7.12v5H172.89v-3l6.82-26.87h-6.59v-5h12.25Z"/><path class="cls-2" d="M208.82,36.88q0-7,0-14.09c0-.28,0-.57,0-.85.11-2.53,1.89-3.51,4.1-2.25,1,.56,2,1.14,2.94,1.71l17.31,10.08c1.85,1.08,3.71,2.13,5.51,3.29s1.81,3.12,0,4.35c-.36.25-.73.49-1.11.71q-8,4.61-15.94,9.2c-2.95,1.7-5.88,3.43-8.88,5-2,1.1-3.78,0-3.8-2.3,0-5,0-9.91,0-14.87Z"/></g></g></svg>