<svg xmlns="http://www.w3.org/2000/svg" viewBox="0 0 118.66 198.26"><defs><style>.cls-1{isolation:isolate;}.cls-2{fill:#fff;}.cls-3{fill:#fcc600;}.cls-4{opacity:0.7;mix-blend-mode:soft-light;}.cls-5{fill:#464646;}</style></defs><title>bt_continuer</title><g class="cls-1"><g id="Calque_2" data-name="Calque 2"><g id="boutons"><circle class="cls-2" cx="59.33" cy="59.33" r="55.14"/><path class="cls-3" d="M118.66,55.92v7c-.06.34-.14.68-.19,1-.45,2.87-.77,5.76-1.37,8.59a56.21,56.21,0,0,1-7.21,17.81,58.6,58.6,0,0,1-12.35,14.34,59.29,59.29,0,0,1-12.18,7.92,57.79,57.79,0,0,1-16.25,5.21c-2,.33-4.11.57-6.17.84h-7.2c-.34-.06-.67-.15-1-.18A62.26,62.26,0,0,1,39,115,59.38,59.38,0,0,1,.64,67.79C.41,66.11.21,64.42,0,62.74q0-3.51,0-7c.07-.37.16-.74.19-1.11a62.49,62.49,0,0,1,2.1-11.53,60.26,60.26,0,0,1,7-15.57A59.5,59.5,0,0,1,49.18.91C51.35.55,53.54.3,55.73,0h7.2l1,.19c2.87.45,5.76.77,8.59,1.37A56.46,56.46,0,0,1,90.1,8.61a58.25,58.25,0,0,1,14.83,12.79,59.47,59.47,0,0,1,7.91,12.41A58.28,58.28,0,0,1,118,50.77C118.24,52.48,118.44,54.2,118.66,55.92Zm-59.2-44a47.42,47.42,0,1,0,47.22,50.36A47.32,47.32,0,0,0,59.46,11.9Z"/><path class="cls-3" d="M44.55,59.83q0-8.62,0-17.24c0-.35,0-.7,0-1,.14-3.1,2.31-4.29,5-2.76,1.21.69,2.4,1.4,3.6,2.09L74.35,53.21c2.26,1.32,4.54,2.61,6.74,4s2.21,3.82,0,5.32c-.44.3-.89.6-1.36.86Q70,69,60.25,74.67c-3.61,2.08-7.19,4.19-10.86,6.16-2.49,1.34-4.63,0-4.65-2.81-.06-6.06,0-12.13,0-18.19Z"/><g class="cls-4"><path class="cls-5" d="M112.84,33.82a59.47,59.47,0,0,0-7.91-12.41A58.25,58.25,0,0,0,90.1,8.61,56.46,56.46,0,0,0,72.54,1.56C69.7,1,66.81.64,63.94.19l-1-.19h-3.4V11.9a47.42,47.42,0,0,1,0,94.84v11.92h3.4c2.06-.28,4.12-.51,6.17-.84a57.79,57.79,0,0,0,16.25-5.21,59.29,59.29,0,0,0,12.18-7.92,58.6,58.6,0,0,0,12.35-14.34,56.21,56.21,0,0,0,7.21-17.81c.6-2.83.92-5.73,1.37-8.59.05-.34.13-.68.19-1v-7c-.22-1.72-.41-3.44-.66-5.15A58.28,58.28,0,0,0,112.84,33.82Z"/><path class="cls-5" d="M79.75,63.41c.46-.27.91-.56,1.36-.86,2.2-1.5,2.23-3.88,0-5.32s-4.48-2.7-6.74-4L59.53,44.58V75.09l.73-.42Q70,69.06,79.75,63.41Z"/></g><path class="cls-2" d="M19.37,157.71q-1,4.6-5.53,4.61-3.73,0-3.73-3.12a7.14,7.14,0,0,1,.18-1.5l2.85-13.4q1-4.6,5.52-4.6,3.74,0,3.74,3.12a7,7,0,0,1-.18,1.49l-.62,2.95H18.43l.63-2.95a2.43,2.43,0,0,0,.06-.49q0-1-1.12-1h0a1.61,1.61,0,0,0-1.67,1.49l-2.85,13.4a2.59,2.59,0,0,0-.06.5q0,1,1.12,1a1.62,1.62,0,0,0,1.7-1.49l.63-2.95H20Z"/><path class="cls-2" d="M31.71,157.71q-1,4.6-5.53,4.61-3.73,0-3.73-3.12a7.14,7.14,0,0,1,.18-1.5l2.85-13.4q1-4.6,5.52-4.6,3.74,0,3.74,3.12a7,7,0,0,1-.18,1.49Zm-.31-13.4a2.43,2.43,0,0,0,.06-.49q0-1-1.12-1h0a1.61,1.61,0,0,0-1.67,1.49l-2.85,13.4a2.59,2.59,0,0,0-.06.5q0,1,1.12,1a1.62,1.62,0,0,0,1.7-1.49Z"/><path class="cls-2" d="M39.05,140.06h3.16l.29,12.71,2.7-12.71h2.93L43.48,162H40.32L40,149.66,37.43,162h-3Z"/><path class="cls-2" d="M60.13,140.06l-.66,3.12h-3l-4,18.79H49.36l4-18.79h-3l.66-3.12Z"/><path class="cls-2" d="M63.12,140.06h3.16L61.62,162H58.46Z"/><path class="cls-2" d="M70.15,140.06h3.16l.29,12.71,2.7-12.71h2.93L74.57,162H71.41l-.27-12.31L68.53,162h-3Z"/><path class="cls-2" d="M88.26,157.71q-1,4.6-5.53,4.61-3.73,0-3.73-3.12a7.14,7.14,0,0,1,.18-1.5l3.75-17.65h3.16l-3.75,17.65a2.59,2.59,0,0,0-.06.5q0,1,1.12,1a1.62,1.62,0,0,0,1.7-1.49l3.75-17.65H92Z"/><path class="cls-2" d="M95.72,140.06h8.2l-.66,3.12h-5l-1.34,6.28h4.33l-.66,3.13H96.22l-1.34,6.28h5L99.26,162h-8.2Z"/><path class="cls-2" d="M114.07,142l-7.88,16.9h4.48L110,162h-8l.4-1.9,7.88-16.9H106.1l.66-3.12h7.71Z"/><path class="cls-2" d="M3.68,197.8v-29H8.49v24.34H15v4.61Z"/><path class="cls-2" d="M30.84,187.41l1.37,10.38H27.35l-.79-6H23l-.81,6H17.36l1.37-10.34,2.94-18.61h6.25Zm-4.9-.26-1.16-8.76-1.16,8.76Z"/><path class="cls-2" d="M53.65,197.8H47.4l-2.94-18.6-1.37-10.36h4.86l2.56,22.69,2.57-22.69h4.86l-1.37,10.38Z"/><path class="cls-2" d="M61.66,168.84h4.82v29H61.66Z"/><path class="cls-2" d="M71.49,168.84h6.67q5.81,0,5.81,6.26v16.44q0,6.23-6.06,6.25H71.49Zm4.82,4.61v19.73h1.43q1.42,0,1.42-1.63V175.11q0-1.65-1.42-1.65Z"/><path class="cls-2" d="M88.63,168.84H100v4.61H93.45V181h5.61v4.63H93.45v7.55H100v4.61H88.63Zm10.82-3.24-4.19,2.72H91.12l4.6-4.24h3.73Z"/><path class="cls-2" d="M115.66,192q0,6.25-6.25,6.26T103.18,192V174.64q0-6.25,6.23-6.25t6.25,6.25Zm-4.82-17.36q0-1.62-1.42-1.63h0q-1.4,0-1.4,1.63V192q0,1.63,1.42,1.63t1.43-1.63Z"/></g></g></g></svg>