<svg xmlns="http://www.w3.org/2000/svg" viewBox="0 0 145.2 99.38"><defs><style>.cls-1{fill:#fff;}</style></defs><title>bt_pouceEnLair</title><g id="Calque_2" data-name="Calque 2"><g id="boutons"><path class="cls-1" d="M117.4,49.47a56.57,56.57,0,0,0-9.48-17.71c.31-.2.62-.39.91-.6a4.55,4.55,0,0,0,2-3.72c.05-1.41,0-2.83,0-4.25a27.81,27.81,0,0,1,.17-5.56c.27-1.46.59-2.92,1-4.35a9.3,9.3,0,0,0-.1-5.35c-.52-1.71-1.08-3.41-1.59-5.12a3.33,3.33,0,0,1-.13-1.19A1.5,1.5,0,0,1,111.3.22a5.17,5.17,0,0,1,5.75,2,14.35,14.35,0,0,1,2.25,5.33,48.76,48.76,0,0,1,.89,6.07,7.24,7.24,0,0,0,.42,1.69,1.12,1.12,0,0,0,1.59.69,10.78,10.78,0,0,0,1.17-.6c2.92-1.59,5.84-3.19,8.77-4.76A6.61,6.61,0,0,1,134,9.92a3.37,3.37,0,0,1,3.54,1.58,4.16,4.16,0,0,1,.45,4.24c-.34.77,0,1.26.83,1.27a3.66,3.66,0,0,1,3.41,4.69,3.32,3.32,0,0,1-.41.75.83.83,0,0,0,.54,1.4,3.61,3.61,0,0,1,2.72,4.31,2.7,2.7,0,0,1-1.45,1.73,1.18,1.18,0,0,0,0,2.1,3.2,3.2,0,0,1,0,5.5c-2.23,1.39-4.53,2.69-6.85,3.93A113.14,113.14,0,0,1,124.34,47a11.43,11.43,0,0,1-2,.55,14,14,0,0,0-4.65,1.77Z"/><path class="cls-1" d="M111.64,40.27a69.49,69.49,0,0,1,3.7,8.8l.79,2.26a1.33,1.33,0,0,1-.68,1.8c-1.41.78-2.8,1.58-4.21,2.36a.73.73,0,0,0-.43.78c.05,1,0,2.09.07,3.14a1.37,1.37,0,0,1-.91,1.42l-9.75,4.3a1.29,1.29,0,0,1-1.68-.51c-1.19-1.84-85.87,36.52-87.07,34.69l-4.2-6.4L2.61,85.83c-.77-1.17-1.54-2.33-2.29-3.5A1.3,1.3,0,0,1,1,80.2C3.37,79.22,89.19,38,91.54,37l7.17-3,5.36-2.28a1.23,1.23,0,0,1,1.45.27,29.22,29.22,0,0,1,4.19,5.14C110.38,38.13,111,39.21,111.64,40.27ZM110,53.16l3.42-1.83-.87-2.44a50.41,50.41,0,0,0-4.68-9.94,29.57,29.57,0,0,0-3.35-4.36.37.37,0,0,0-.52-.1c-.43.21-.87.38-1.31.57l-1.73.77A74,74,0,0,1,110,53.16Z"/></g></g></svg>