<svg xmlns="http://www.w3.org/2000/svg" viewBox="0 0 167.42 202.54"><defs><style>.cls-1{isolation:isolate;}.cls-2{fill:#fff;}.cls-3{fill:#fcc600;}.cls-4,.cls-6{opacity:0.7;mix-blend-mode:soft-light;}.cls-5{fill:#464646;}.cls-6{fill:#606060;}</style></defs><title>bt_revoir</title><g class="cls-1"><g id="Calque_2" data-name="Calque 2"><g id="boutons"><circle class="cls-2" cx="83.15" cy="59.33" r="55.14"/><path class="cls-3" d="M23.82,62.74v-7c.06-.34.14-.68.19-1,.45-2.87.77-5.76,1.37-8.59a56.21,56.21,0,0,1,7.21-17.81A58.6,58.6,0,0,1,44.94,14,59.29,59.29,0,0,1,57.13,6.05,57.79,57.79,0,0,1,73.38.84c2-.33,4.11-.57,6.17-.84h7.2c.34.06.67.15,1,.18a62.26,62.26,0,0,1,15.67,3.43,59.38,59.38,0,0,1,38.4,47.25c.24,1.68.43,3.37.64,5.05q0,3.51,0,7c-.07.37-.16.74-.19,1.11a62.49,62.49,0,0,1-2.1,11.53,60.26,60.26,0,0,1-7,15.57,59.5,59.5,0,0,1-39.91,26.6c-2.17.37-4.36.61-6.55.91h-7.2l-1-.19c-2.87-.45-5.76-.77-8.59-1.37A56.46,56.46,0,0,1,52.38,110,58.25,58.25,0,0,1,37.55,97.25a59.47,59.47,0,0,1-7.91-12.41,58.28,58.28,0,0,1-5.16-16.95C24.24,66.18,24,64.46,23.82,62.74Zm59.2,44A47.42,47.42,0,1,0,35.8,56.4,47.32,47.32,0,0,0,83,106.76Z"/><path class="cls-3" d="M105.35,58.83q0,8.62,0,17.24c0,.35,0,.7,0,1-.14,3.1-2.31,4.29-5,2.76-1.21-.69-2.4-1.4-3.6-2.09L75.56,65.45c-2.26-1.32-4.54-2.61-6.74-4s-2.21-3.82,0-5.32c.44-.3.89-.6,1.36-.86Q79.9,49.61,89.65,44c3.61-2.08,7.19-4.19,10.86-6.16,2.49-1.34,4.63,0,4.65,2.81.06,6.06,0,12.13,0,18.19Z"/><g class="cls-4"><path class="cls-5" d="M136.66,33.82a59.47,59.47,0,0,0-7.91-12.41A58.25,58.25,0,0,0,113.92,8.61,56.46,56.46,0,0,0,96.36,1.56C93.52,1,90.63.64,87.77.19l-1-.19h-3.4V11.9a47.42,47.42,0,0,1,0,94.84v11.92h3.4c2.06-.28,4.12-.51,6.17-.84a57.79,57.79,0,0,0,16.25-5.21,59.29,59.29,0,0,0,12.18-7.92,58.6,58.6,0,0,0,12.35-14.34,56.21,56.21,0,0,0,7.21-17.81c.6-2.83.92-5.73,1.37-8.59.05-.34.13-.68.19-1v-7c-.22-1.72-.41-3.44-.66-5.15A58.28,58.28,0,0,0,136.66,33.82Z"/></g><path class="cls-3" d="M64,82.54h0a3.16,3.16,0,0,1-3.16-3.16V39.3A3.16,3.16,0,0,1,64,36.14h0c1.75,0,3.16,1.42,3.16,3.78V80C67.14,81.12,65.72,82.54,64,82.54Z"/><path class="cls-6" d="M105.16,40.64c0-2.85-2.16-4.15-4.65-2.81-3.66,2-7.25,4.08-10.86,6.16l-6.3,3.64V70l13.38,7.79c1.2.7,2.39,1.41,3.6,2.09,2.71,1.54,4.88.34,5-2.76,0-.35,0-.69,0-1q0-8.62,0-17.24h-.17C105.18,52.77,105.22,46.7,105.16,40.64Z"/><path class="cls-2" d="M55.52,140.06h4.6q3.42,0,3.42,3a7.44,7.44,0,0,1-.19,1.57L62.65,148a4.82,4.82,0,0,1-3.3,3.81L60.73,162H57.27l-.8-9.64-.41.06L54,162H50.86Zm2.5,3.12-1.34,6.28h.73a3.28,3.28,0,0,0,.93-.09,1.77,1.77,0,0,0,1.16-1.4l.69-3.29a2.31,2.31,0,0,0,.07-.51q0-1-1.12-1Z"/><path class="cls-2" d="M68.09,140.06h8.2l-.66,3.12h-5l-1.34,6.28h4.33l-.66,3.13H68.59l-1.34,6.28h5L71.63,162h-8.2Z"/><path class="cls-2" d="M81.48,162H77.14l.78-14.16.62-7.75h3.19l-1.36,16.88,5.82-16.88h3.19l-2.68,7.77Z"/><path class="cls-2" d="M97.3,157.71q-1,4.6-5.53,4.61-3.73,0-3.73-3.12a7.14,7.14,0,0,1,.18-1.5l2.85-13.4q1-4.6,5.52-4.6,3.74,0,3.74,3.12a7,7,0,0,1-.18,1.49ZM97,144.31a2.44,2.44,0,0,0,.06-.49q0-1-1.12-1h0a1.61,1.61,0,0,0-1.68,1.49l-2.85,13.4a2.59,2.59,0,0,0-.05.5q0,1,1.12,1a1.62,1.62,0,0,0,1.7-1.49Z"/><path class="cls-2" d="M104.7,140.06h3.16L103.21,162H100Z"/><path class="cls-2" d="M111.74,140.06h4.6q3.42,0,3.42,3a7.43,7.43,0,0,1-.19,1.57l-.69,3.29a4.82,4.82,0,0,1-3.3,3.81L117,162h-3.46l-.8-9.64-.41.06-2,9.58h-3.16Zm2.5,3.12-1.34,6.28h.72a3.3,3.3,0,0,0,.93-.09,1.77,1.77,0,0,0,1.16-1.4l.69-3.29a2.3,2.3,0,0,0,.07-.51q0-1-1.12-1Z"/><path class="cls-2" d="M0,197.8v-29H4.82v24.34h6.52v4.61Z"/><path class="cls-2" d="M27.16,187.41l1.37,10.38H23.68l-.79-6H19.34l-.81,6H13.68l1.37-10.34L18,168.84h6.25Zm-4.9-.26-1.16-8.76-1.16,8.76Z"/><path class="cls-2" d="M40.42,174.64q0-6.25,6.23-6.25t6.25,6.25v4.11H48.09v-4.11q0-1.62-1.42-1.63h0q-1.4,0-1.4,1.63v2.57q0,1.76,3.7,4.43,4,2.82,4,6.77V192q0,6.26-6.23,6.26T40.42,192v-4.11h4.82V192q0,1.63,1.43,1.63T48.09,192v-3.24q0-1.92-3.7-4.58-4-2.82-4-6.87Z"/><path class="cls-2" d="M57.56,168.84H68.9v4.61H62.38V181H68v4.63H62.38v7.55H68.9v4.61H57.56Zm10.82-3.24-4.19,2.72H60l4.6-4.24h3.73Z"/><path class="cls-2" d="M84.59,192q0,5.57-4.47,6.13,0,.39,4.47.42v4q-4.1,0-5.54-.75a3.75,3.75,0,0,1-2-3.6q-5-.36-5-6.19V174.64q0-6.25,6.23-6.25t6.25,6.25Zm-4.82-17.36q0-1.62-1.42-1.63h0q-1.4,0-1.4,1.63V192q0,1.63,1.42,1.63T79.78,192Z"/><path class="cls-2" d="M101.59,192q0,6.25-6.25,6.26T89.1,192V168.84h4.82V192q0,1.63,1.42,1.63T96.77,192V168.84h4.82Z"/><path class="cls-2" d="M106.38,168.84h11.34v4.61H111.2V181h5.61v4.63H111.2v7.55h6.52v4.61H106.38Z"/><path class="cls-2" d="M121.95,168.84h4.76l3.21,14.26V168.84h4.51v29h-4.76l-3.07-13.87V197.8h-4.66Z"/><path class="cls-2" d="M151.57,192q0,6.25-6.25,6.26T139.08,192V174.64q0-6.25,6.23-6.25t6.25,6.25v4.11h-4.82v-4.11q0-1.62-1.42-1.63h0q-1.4,0-1.4,1.63V192q0,1.63,1.42,1.63t1.43-1.63v-4.11h4.82Z"/><path class="cls-2" d="M156.08,168.84h11.34v4.61h-6.52V181h5.61v4.63h-5.61v7.55h6.52v4.61H156.08Z"/></g></g></g></svg>