<?xml version="1.0" encoding="utf-8"?>
<!-- Generator: Adobe Illustrator 21.1.0, SVG Export Plug-In . SVG Version: 6.00 Build 0)  -->
<svg version="1.1" id="Calque_1" xmlns="http://www.w3.org/2000/svg" xmlns:xlink="http://www.w3.org/1999/xlink" x="0px" y="0px"
	 viewBox="0 0 372.3 136.1" style="enable-background:new 0 0 372.3 136.1;" xml:space="preserve">
<style type="text/css">
	.st0{fill:#4E96B3;}
	.st1{fill:#FCC600;}
	.st2{enable-background:new    ;}
</style>
<title>bt_valider_annonce</title>
<g id="Calque_2">
	<g id="boutons">
		<path class="st0" d="M222.2,49.5c-2.1-6.4-5.3-12.4-9.5-17.7c0.3-0.2,0.6-0.4,0.9-0.6c1.2-0.8,2-2.2,2-3.7c0.1-1.4,0-2.8,0-4.2
			c-0.1-1.9-0.1-3.7,0.2-5.6c0.3-1.5,0.6-2.9,1-4.4c0.5-1.8,0.5-3.6-0.1-5.3c-0.5-1.7-1.1-3.4-1.6-5.1c-0.1-0.4-0.2-0.8-0.1-1.2
			c0-0.7,0.5-1.3,1.2-1.4c2.1-0.7,4.5,0.2,5.8,2c1.1,1.6,1.9,3.4,2.2,5.3c0.4,2,0.7,4,0.9,6.1c0.1,0.6,0.2,1.1,0.4,1.7
			c0.2,0.6,0.8,0.9,1.4,0.7c0.1,0,0.1,0,0.1-0.1c0.4-0.2,0.8-0.4,1.2-0.6c2.9-1.6,5.8-3.2,8.8-4.8c0.6-0.3,1.2-0.6,1.9-0.7
			c1.4-0.3,2.8,0.4,3.5,1.6c0.9,1.2,1.1,2.9,0.4,4.2c-0.3,0.8,0,1.3,0.8,1.3c2,0.1,3.6,1.8,3.5,3.8c0,0.3-0.1,0.6-0.1,0.9
			c-0.1,0.3-0.2,0.5-0.4,0.8c-0.3,0.3-0.3,0.9,0,1.2c0.1,0.1,0.3,0.2,0.5,0.2c1.9,0.4,3.2,2.4,2.7,4.3c-0.2,0.8-0.7,1.4-1.4,1.7
			c-0.6,0.3-0.8,1-0.5,1.6c0.1,0.2,0.3,0.4,0.5,0.5c1.5,0.9,2,2.9,1.1,4.4c-0.3,0.5-0.7,0.8-1.1,1.1c-2.2,1.4-4.5,2.7-6.9,3.9
			c-4,2.1-8.2,4-12.4,5.6c-0.6,0.2-1.3,0.4-2,0.5c-1.6,0.3-3.2,0.9-4.6,1.8L222.2,49.5z"/>
		<path class="st0" d="M216.4,40.3c1.4,2.8,2.7,5.8,3.7,8.8l0.8,2.3c0.3,0.7,0,1.5-0.6,1.8c0,0,0,0-0.1,0c-1.4,0.8-2.8,1.6-4.2,2.4
			c-0.3,0.1-0.5,0.5-0.4,0.8c0.1,1,0,2.1,0.1,3.1c0.1,0.6-0.3,1.2-0.9,1.4l-9.7,4.3c-0.6,0.3-1.3,0.1-1.7-0.5
			c-1.2-1.8-85.9,36.5-87.1,34.7l-4.2-6.4l-4.7-7.1c-0.8-1.2-1.5-2.3-2.3-3.5c-0.5-0.5-0.4-1.4,0.1-1.8c0.2-0.1,0.4-0.2,0.6-0.3
			c2.3-1,88.2-42.2,90.5-43.2l7.2-3l5.4-2.3c0.5-0.2,1.1-0.1,1.4,0.3c1.6,1.5,3,3.3,4.2,5.1C215.1,38.1,215.8,39.2,216.4,40.3z
			 M214.8,53.2l3.4-1.8l-0.9-2.4c-1.2-3.5-2.8-6.8-4.7-9.9c-1-1.6-2.1-3-3.4-4.4c-0.1-0.2-0.3-0.2-0.5-0.1c0,0,0,0,0,0
			c-0.4,0.2-0.9,0.4-1.3,0.6l-1.7,0.8C209.5,41.2,212.5,47,214.8,53.2L214.8,53.2z"/>
		<path class="st1" d="M37.8,60.4h296.7c20.9,0,37.8,16.9,37.8,37.8v0c0,20.9-16.9,37.8-37.8,37.8H37.8C16.9,136.1,0,119.1,0,98.2v0
			C0,77.4,16.9,60.4,37.8,60.4z"/>
		<g class="st2">
			<path class="st0" d="M62.4,115.1h-6.9L52,92.6l-1.6-12.3h5.1l3.5,26.9l3.6-26.9h5.1l-1.6,12.4L62.4,115.1z"/>
		</g>
		<g class="st2">
			<path class="st0" d="M83.9,102.7l1.6,12.4h-5.1l-1-7.4h-5.1l-1,7.4h-5.1l1.6-12.3l3.6-22.5h6.9L83.9,102.7z M78.8,102.7
				l-1.9-14.5L75,102.7H78.8z"/>
			<path class="st0" d="M88.6,115.1V80.2h5v29.9h8v5H88.6z"/>
			<path class="st0" d="M104.7,80.2h5v34.8h-5V80.2z"/>
			<path class="st0" d="M114.4,80.2h7.7c4.5,0,6.7,2.5,6.7,7.3v20.2c0,4.9-2.3,7.3-7,7.3h-7.4V80.2z M119.5,85.2v24.9h2.2
				c1.5,0,2.2-0.8,2.2-2.4V87.6c0-1.6-0.7-2.4-2.2-2.4H119.5z"/>
			<path class="st0" d="M133.1,80.2h13v5h-8v10h6.9v5h-6.9v10h8v5h-13V80.2z"/>
			<path class="st0" d="M161.5,83.2l-6.8,26.9h7.1v5H149v-3l6.8-26.9h-6.6v-5h12.3V83.2z"/>
		</g>
		<g class="st2">
			<path class="st0" d="M174.6,115.1V80.2h5v29.9h8v5H174.6z"/>
		</g>
		<g class="st2">
			<path class="st0" d="M186.6,80.2h6.2v5.1l-1.9,6.5h-3.3l1-5.8h-2.1V80.2z"/>
			<path class="st0" d="M211.4,102.7l1.6,12.4H208l-1-7.4h-5.1l-1,7.4h-5.1l1.6-12.3l3.6-22.5h6.9L211.4,102.7z M206.4,102.7
				l-1.9-14.5l-1.9,14.5H206.4z"/>
			<path class="st0" d="M216.1,80.2h5l4.8,20.2V80.2h4.7v34.8h-5l-4.6-19.6v19.6h-4.8V80.2z"/>
			<path class="st0" d="M235.2,80.2h5l4.8,20.2V80.2h4.7v34.8h-5L240,95.5v19.6h-4.8V80.2z"/>
			<path class="st0" d="M268.3,108.3c0,4.9-2.4,7.3-7.2,7.3c-4.8,0-7.2-2.4-7.2-7.3V87c0-4.9,2.4-7.3,7.2-7.3c4.8,0,7.2,2.4,7.2,7.3
				V108.3z M263.3,87c0-1.6-0.7-2.4-2.2-2.4h0c-1.4,0-2.2,0.8-2.2,2.4v21.3c0,1.6,0.7,2.4,2.2,2.4c1.5,0,2.2-0.8,2.2-2.4V87z"/>
			<path class="st0" d="M272.6,80.2h5l4.8,20.2V80.2h4.7v34.8h-5l-4.6-19.6v19.6h-4.8V80.2z"/>
			<path class="st0" d="M305.7,108.3c0,4.9-2.4,7.3-7.2,7.3c-4.8,0-7.2-2.4-7.2-7.3V87c0-4.9,2.4-7.3,7.2-7.3c4.8,0,7.2,2.4,7.2,7.3
				v4.7h-5V87c0-1.6-0.7-2.4-2.2-2.4h0c-1.4,0-2.2,0.8-2.2,2.4v21.3c0,1.6,0.7,2.4,2.2,2.4c1.5,0,2.2-0.8,2.2-2.4v-4.7h5V108.3z"/>
			<path class="st0" d="M309.8,80.2h13v5h-8v10h6.9v5h-6.9v10h8v5h-13V80.2z"/>
		</g>
	</g>
</g>
</svg>
