<svg xmlns="http://www.w3.org/2000/svg" viewBox="0 0 46.32 46.32"><defs><style>.cls-1{fill:#fff;}.cls-2{fill:#999;}</style></defs><title>case_blanche</title><g id="Calque_2" data-name="Calque 2"><g id="cases_jeu1"><rect class="cls-1" x="2.5" y="2.5" width="41.32" height="41.32" rx="7.48" ry="7.48"/><path class="cls-2" d="M36.34,5a5,5,0,0,1,5,5V36.34a5,5,0,0,1-5,5H10a5,5,0,0,1-5-5V10a5,5,0,0,1,5-5H36.34m0-5H10A10,10,0,0,0,0,10V36.34a10,10,0,0,0,10,10H36.34a10,10,0,0,0,10-10V10a10,10,0,0,0-10-10Z"/></g></g></svg>