<?xml version="1.0" encoding="utf-8"?>
<!-- Generator: Adobe Illustrator 21.1.0, SVG Export Plug-In . SVG Version: 6.00 Build 0)  -->
<svg version="1.1" id="Calque_1" xmlns="http://www.w3.org/2000/svg" xmlns:xlink="http://www.w3.org/1999/xlink" x="0px" y="0px"
	 viewBox="0 0 43.8 43.8" style="enable-background:new 0 0 43.8 43.8;" xml:space="preserve">
<style type="text/css">
	.st0{opacity:0.2;fill:#0F5768;enable-background:new    ;}
	.st1{fill:#FFFFFF;}
</style>
<title>game2b_case_bg</title>
<g id="Calque_2">
	<g id="cases_jeu2_etat_normal">
		<path class="st0" d="M5,7.4h26.4c2.8,0,5,2.2,5,5v26.4c0,2.8-2.2,5-5,5H5c-2.8,0-5-2.2-5-5V12.4C0,9.7,2.2,7.4,5,7.4z"/>
		<path class="st1" d="M12.4,0h26.4c2.8,0,5,2.2,5,5v26.4c0,2.8-2.2,5-5,5H12.4c-2.8,0-5-2.2-5-5V5C7.4,2.2,9.7,0,12.4,0z"/>
	</g>
</g>
</svg>
