<?xml version="1.0" encoding="utf-8"?>
<!-- Generator: Adobe Illustrator 21.1.0, SVG Export Plug-In . SVG Version: 6.00 Build 0)  -->
<svg version="1.1" id="Calque_1" xmlns="http://www.w3.org/2000/svg" xmlns:xlink="http://www.w3.org/1999/xlink" x="0px" y="0px"
	 viewBox="0 0 1920 1080" style="enable-background:new 0 0 1920 1080;" xml:space="preserve">
<style type="text/css">
	.st0{opacity:0.2;fill:#105768;enable-background:new    ;}
	.st1{fill:#FFFFFF;}
	.st2{clip-path:url(#SVGID_2_);}
	.st3{fill:#534639;}
	.st4{fill:#D7D8DB;}
	.st5{fill:#D8D8D8;}
	.st6{fill:#D4D4D4;}
	.st7{fill:#656E79;}
	.st8{fill:#4E97B4;}
	.st9{fill:#E17064;}
	.st10{fill:#F7C646;}
	.st11{clip-path:url(#SVGID_4_);}
	.st12{opacity:0.42;fill:#BC8F00;}
	.st13{font-family:'Gobold';}
	.st14{font-size:34.61px;}
	.st15{letter-spacing:1;}
	.st16{fill:#333333;}
</style>
<title>game1b_bg3</title>
<g>
	<g id="game1b_bg3">
		<rect x="280.4" y="-1.5" class="st0" width="1300.1" height="1058.5"/>
		<rect x="304.9" y="-0.2" class="st1" width="1300.1" height="1029"/>
		<g>
			<defs>
				<rect id="SVGID_1_" x="1686.7" y="1.8" width="233.3" height="397.4"/>
			</defs>
			<clipPath id="SVGID_2_">
				<use xlink:href="#SVGID_1_"  style="overflow:visible;"/>
			</clipPath>
			<g class="st2">
				<path class="st0" d="M2704.2-535.5l-115.9,8.3l-0.6-8.6l-20.3,1.5l-0.8-11.6l-43.4,3.1l1.4,20.2L2248-502.8l-62.3,4.5
					l-456.2,32.7c-21.6,1.5-37.8,20.9-36.2,43.2L1747,327c1.6,22.3,20.4,39.2,42,37.6l365.7-26.2l5.2,72.7l43.4-3.1l-5.2-72.7
					l47.1-3.4l62.3-4.5l456.2-32.7c21.6-1.5,37.8-20.9,36.2-43.2l-53.7-749.4C2744.6-520.2,2725.8-537,2704.2-535.5z"/>
				<path class="st3" d="M1733-405.6l53.7,749.4c1.6,22.3,20.4,39.2,42,37.6l974.7-69.8c21.6-1.5,37.8-20.9,36.2-43.2l-53.7-749.4
					c-1.6-22.3-20.4-39.2-42-37.6l-974.7,69.8C1747.7-447.3,1731.4-428,1733-405.6z"/>
				<path class="st4" d="M1793.8-368.7l47.8,667.2c1.4,19.9,18.2,34.9,37.4,33.5l867.7-62.1c19.2-1.4,33.7-18.6,32.2-38.5
					l-47.8-667.2c-1.4-19.9-18.2-34.9-37.4-33.5L1826-407.2C1806.8-405.8,1792.3-388.5,1793.8-368.7z"/>
				<path class="st5" d="M2260.1-4.2L1854,24.9c-3.2,0.2-6.1-2.2-6.3-5.5l0,0c-0.2-3.2,2.2-6.1,5.5-6.3l406.1-29.1
					c3.2-0.2,6.1,2.2,6.3,5.5c0,0,0,0,0,0l0,0C2265.8-7.2,2263.3-4.4,2260.1-4.2z"/>
				<path class="st5" d="M2261.9,21.2l-406.1,29.1c-3.2,0.2-6.1-2.2-6.3-5.5l0,0c-0.2-3.3,2.2-6.1,5.5-6.3c0,0,0,0,0,0l406.1-29.1
					c3.2-0.2,6.1,2.2,6.3,5.5c0,0,0,0,0,0l0,0C2267.6,18.1,2265.2,21,2261.9,21.2C2261.9,21.2,2261.9,21.2,2261.9,21.2z"/>
				<path class="st5" d="M2263.6,44.9L1857.6,74c-3.2,0.2-6.1-2.2-6.3-5.5c0,0,0,0,0,0l0,0c-0.2-3.2,2.2-6.1,5.5-6.3c0,0,0,0,0,0
					l406.1-29.1c3.2-0.2,6.1,2.2,6.3,5.5l0,0C2269.3,41.8,2266.9,44.7,2263.6,44.9z"/>
				<path class="st5" d="M2265.4,70.3l-406.1,29.1c-3.2,0.2-6.1-2.2-6.3-5.5c0,0,0,0,0,0l0,0c-0.2-3.2,2.2-6.1,5.5-6.3c0,0,0,0,0,0
					l406.1-29.1c3.2-0.2,6.1,2.2,6.3,5.5l0,0C2271.1,67.2,2268.7,70,2265.4,70.3z"/>
				<path class="st5" d="M2267.3,96.3l-406.1,29.1c-3.2,0.2-6.1-2.2-6.3-5.5c0,0,0,0,0,0l0,0c-0.2-3.2,2.2-6.1,5.5-6.3c0,0,0,0,0,0
					l406.1-29.1c3.2-0.2,6.1,2.2,6.3,5.5l0,0C2273,93.3,2270.6,96.1,2267.3,96.3C2267.3,96.3,2267.3,96.3,2267.3,96.3z"/>
				<path class="st5" d="M2269.1,121.7l-406.1,29.1c-3.2,0.2-6.1-2.2-6.3-5.5c0,0,0,0,0,0l0,0c-0.2-3.2,2.2-6.1,5.5-6.3l406.1-29.1
					c3.2-0.2,6.1,2.2,6.3,5.5l0,0C2274.8,118.6,2272.4,121.4,2269.1,121.7z"/>
				<path class="st6" d="M208.7,621.3l-0.6-0.4l1.4-2.3l1.9-3.2l0,0l5.1-8.6l0.4-0.7l0,0l52.3-88.4l0,0L312.5,410l-24.8-14.7
					l-72.4,90.6l-59.7,100.8l-1.4,2.3l-0.4-0.2c-3.3-1.8-7.4-0.6-9.3,2.7c-1.8,3.2-0.7,7.1,2.3,9.1l5.3,3.1l-230,388.4
					c-7,11.9-3.1,27.2,8.8,34.2l1,0.6c11.9,7,27.2,3.1,34.2-8.8l230-388.4l5.5,3.3c3.2,1.9,7.4,0.9,9.4-2.4S211.9,623.2,208.7,621.3
					L208.7,621.3z"/>
				<path class="st7" d="M-61.1,1043.5l-1-0.6c-11.8-7-15.8-22.3-8.8-34.2l233.4-394.2l44,26.1l-233.4,394.2
					C-34,1046.5-49.3,1050.5-61.1,1043.5z"/>
				<path class="st7" d="M275.8,534.6l-53.6-32.2l72.4-90.6l24.8,14.7L275.8,534.6z"/>
				<path class="st6" d="M106,760.3L106,760.3c-5.2-3.1-6.9-9.8-3.9-15.1L175.8,621l18.9,11.2l-73.6,124.3
					C118,761.7,111.3,763.4,106,760.3C106,760.3,106,760.3,106,760.3z"/>
				
					<rect x="153.9" y="541.4" transform="matrix(0.5095 -0.8605 0.8605 0.5095 -386.3453 467.5703)" class="st7" width="126.2" height="62.5"/>
				<path class="st7" d="M208.6,649.6l-54.9-32.5c-3.2-1.9-4.3-6.1-2.4-9.3l0,0c1.9-3.2,6.1-4.3,9.3-2.4l54.9,32.5
					c3.2,1.9,4.3,6.1,2.4,9.3l0,0C216,650.5,211.8,651.5,208.6,649.6C208.6,649.6,208.6,649.6,208.6,649.6z"/>
				
					<rect x="186" y="587.4" transform="matrix(0.5101 -0.8601 0.8601 0.5101 -439.3968 465.8216)" class="st6" width="6.4" height="62.5"/>
				
					<rect x="191.9" y="578.3" transform="matrix(0.5095 -0.8605 0.8605 0.5095 -428.7666 466.8739)" class="st6" width="6.4" height="62.5"/>
				
					<rect x="197.2" y="568.5" transform="matrix(0.5101 -0.8601 0.8601 0.5101 -417.7428 466.2036)" class="st6" width="6.4" height="62.5"/>
			</g>
		</g>
		<path class="st8" d="M455.4,556.3h1003.6c11.5,0,20.9,9.4,20.9,20.9v144c0,11.5-9.4,20.9-20.9,20.9H455.4
			c-11.5,0-20.9-9.4-20.9-20.9v-144C434.5,565.7,443.8,556.3,455.4,556.3z"/>
		<path class="st9" d="M500.5,257.9c1.8,1,4.9,1.2,7.8,1.4C505.8,258.3,503.1,257.8,500.5,257.9z"/>
		<path class="st9" d="M508.3,259.4L508.3,259.4L508.3,259.4z"/>
		<path class="st9" d="M1074.6,215.3l-2.4,0.1C1073,215.5,1073.8,215.4,1074.6,215.3z"/>
		<path class="st9" d="M649.9,264.2l0.5-1.6c6.9,0,2,1.9,8.4,1.5c2.5-2.3,10.7,0.3,12.9-0.9c0,0.2,3.1,0.3,2.9,1
			c1-1.2,3.2-0.3,5.2-0.6c0.7-0.3-0.5-0.4-1.1-0.8l4.5-0.4c1.8,0.4,2.2,1.1,0.3,1.3c5.9,0.3,23.1,0.8,40.4,1.2s34.7,0.5,41.1,0.3
			c-1.6-1-5.6-0.3-7.1-1.8c3.4-0.8,5,0.3,6.5-0.6c1.3,2.2,7.4,0.5,10,2.8l1-1.2l1.7,0.8c14.8-1.3,3.4-0.6,16.6-0.3
			c7.6-0.2,11.2-1.9,15.5-1.3c-0.6,0-2.3-0.8-0.3-1.1c0.3,1.1,5.2-0.8,6.2,0.3c1.9-0.1,8.2,0,6.1-1.5c1.1,0.7,6.7,1,3.3,1.7
			c1.7,0.2,3.4,0.1,5.1-0.1l-2.4-0.4c6.4-0.2,9.8,0.9,14-0.5l-2.3-0.6c3.8-0.1,7-0.2,8.5,1.2l-3.9,0.5c5.1,0.1,10.3-0.3,15.4-1h-1.9
			c6.7-1.5,41.8-3,47.9-4.8l-2.8-1.1l5.3-1c-0.6,0-2.5,3.8-3.1,3.4l40.9-0.8c8.8-0.2,17.5-0.3,24.7-0.4s12.9-0.1,15.5,0.1
			c4.2,0.6,0.8,1.8,0.7,2c5.2-0.5,2.2-1.2,6.6-1.2c1.2,0.2-0.2,0.9-0.9,1.1c1.9-0.2,3.7,0.2,3.8-0.3c-2.4-0.4-1.4-1.8-2.5-2.7h5.7
			l-0.2,0.9c1.3,0,3.2-2.5,8.7-2.1c9.4,0.3,19.5-0.2,28.9-0.2c-0.1,0.5-2.1,0.9-4.1,1.3c1.5-0.1,2.9-0.1,4.3,0.2
			c-2.3-0.9,3.9-0.7,2.2-1.1c6.8-2.3,15.8-0.5,21.8-2.1c0.5-2,12.3-34.3,12.2-36.6c1.4-0.1,2.9,0,4.3,0.2c-0.5-0.5-4.2-0.7-6.2-0.4
			l-0.3,1.3c-4.5,0.5-1.1-0.7-5.5-0.6c-0.3-1,3.8-1.3,7.4-1.5c-3.2-0.1-6.4-0.7-7.7,0.4c-3-0.4,0.3-1.3-3.3-1.6
			c-2.6,0.4-6,1.4-9,0.9v-0.2c-7.3-0.9-11.1,1.8-17.7,0.9l0.7-0.4c-2.3-0.6-6.9,0.4-11.2-0.2c1.2,0.2,2.3,0.9-0.3,1.1
			c-4.9-0.6-8.2,0.1-11.7-0.6l-3.4,1.1c-8.5,0-29.4,0.7-50.3,1.3s-41.9,1.2-50.4,1.3l0.7-0.2c-13,0.3-32.7,0.6-52.6,0.9
			s-39.9,0.7-53.3,1.4c-4.1-1-9.8-0.8-14.2-1c2.4,0.4,1.6,1.1-0.3,1.1c-13.2-0.1-0.9,0.7-14.2,1.1c-7.7,0.5-26.2,0.4-44.5,0
			s-36.4-0.9-43.2-1.4c-7.3,1.4-16.4,0.2-23.6,1.1l0.7-0.3c-7.7,0.5-51.2-1.3-60.2-0.9l1.2,0.2c-7.8,0.8-6.7-0.8-12.9-1.4
			c0.8,1.7-5.9,2.5-8.5,2.6l0.1-0.4c-3.8,0.2-12.6,1.5-18.9,1.6l0.3-0.9c-5.3,0.9-15.2,0.3-19,0.4c-8.7-0.5-22.1-2.3-33.7-1.4
			l-7.5-2.7l-1.1,0.2c-2.1,5.2-3.6,10.7-4.5,16.2c-1.3,8.5-0.7,18,7,21.4l-0.3,0.9l3,0c3.6,0.5,5.4-0.5,5.1,0.4l-5-0.2
			c3.7,0.3,1.1,0.8-0.3,1.2c1.4,0.1,2.8,0.3,4.2,0.6c0.7-0.3-0.5-0.4-1.1-0.6c2-0.3,4.7-1.1,7.1-0.6c3.8,0.2,0.2,1.5,4.6,1.6
			c23.1,1.1,45.5,2.5,68.9,2.6c0.5,0.4-0.1,0.4-0.8,0.5c7-0.3,13.3-0.1,19.7-0.4c1,0.2,2,0.7,2.8,1.4c-0.5-0.4,8.3-0.5,17.4-0.5
			l12.6,0.1C647.4,264.1,649.8,264.1,649.9,264.2z"/>
		<path class="st1" d="M542.7,228h3.8v22.8h-3.8V228z"/>
		<path class="st1" d="M562.9,243.6V228h3.3v22.8h-3.5l-7.6-16.5v16.5h-3.4V228h4L562.9,243.6z"/>
		<path class="st1" d="M571.4,228h10.3v3.5h-6.5v5.7h6.5v3.5h-6.5v10.1h-3.8V228z"/>
		<path class="st1" d="M585.3,239.4c0-7,2.8-11.8,8.3-11.8s8.3,4.8,8.3,11.8c0,6.6-2.6,11.8-8.3,11.8
			C588,251.3,585.3,246.4,585.3,239.4L585.3,239.4z M589.1,239.5c0,5.8,1.6,8.3,4.5,8.3s4.5-2.6,4.5-8.4s-1.6-8.4-4.5-8.4
			S589.1,233.6,589.1,239.5L589.1,239.5z"/>
		<path class="st1" d="M606.3,228h5.3c3.3,0,5.1,0.7,6,1.8c1.4,1.4,2.1,3.4,2,5.4c0,1.3-0.2,2.6-0.8,3.7c-0.6,1.3-1.8,2.4-3.2,2.9
			l4.4,9.1h-4.2l-5-11.2c0.3,0,0.7,0,1,0c1,0,2-0.3,2.8-1c0.8-0.8,1.2-2,1.1-3.1c0.1-1.2-0.4-2.5-1.3-3.3c-0.9-0.5-2-0.8-3-0.7H610
			v19.3h-3.8L606.3,228z"/>
		<path class="st1" d="M624.1,250.8V228h5.6l4,16.5l3.8-16.5h5.6v22.8h-3.4V232l-4.6,18.8h-2.9l-4.7-18.8v18.8L624.1,250.8z"/>
		<path class="st1" d="M650.2,250.8h-3.8l6.3-22.8h3.5l6.5,22.8h-3.8l-1.5-5.3h-5.8L650.2,250.8z M654.5,233.3l-2,8.8h3.9
			L654.5,233.3z"/>
		<path class="st1" d="M666.5,231.5h-4.1V228h12v3.5h-4.1v19.3h-3.8L666.5,231.5z"/>
		<path class="st1" d="M678.3,228h3.7v22.8h-3.8L678.3,228z"/>
		<path class="st1" d="M686.4,239.4c0-7,2.8-11.8,8.3-11.8s8.3,4.8,8.3,11.8c0,6.6-2.6,11.8-8.3,11.8
			C689.1,251.3,686.4,246.4,686.4,239.4L686.4,239.4z M690.2,239.5c0,5.8,1.6,8.3,4.5,8.3s4.5-2.6,4.5-8.4s-1.6-8.4-4.5-8.4
			S690.2,233.6,690.2,239.5L690.2,239.5z"/>
		<path class="st1" d="M718.6,243.6V228h3.3v22.8h-3.5l-7.6-16.5v16.5h-3.4V228h4L718.6,243.6z"/>
		<path class="st1" d="M730,244c0.2,2.8,1.5,3.9,3.4,3.9c1.7,0.1,3.2-1.2,3.3-2.9c0-0.2,0-0.3,0-0.5c0-2.6-2.6-3.1-5-4s-5-2.2-5-6.1
			c0-4.2,2.6-6.8,6.6-6.8s6.2,1.9,6.8,6.2h-3.6c-0.1-1.7-1-3.1-3-3.1c-1.6,0-2.9,1.2-2.9,2.8c0,0.1,0,0.2,0,0.3c0,2.5,2.4,3,5,3.9
			c2.2,0.9,5,2.3,5,6.7c0,4.2-3.1,6.8-7.2,6.8c-4.6,0-7-2.6-7.1-7.3H730z"/>
		<path class="st1" d="M769.2,242.6c0,4.7-2.7,8.7-7.8,8.7c-4.9,0-8.1-3.9-8.1-11.8c0-7.7,3-11.8,8.1-11.8c5.2,0,7.9,4.1,7.8,9h-3.8
			c-0.1-3.6-1.3-5.4-3.7-5.4c-2.9,0-4.5,2.7-4.5,8.4c0,5.8,1.9,8.2,4.5,8.2c2.9,0,3.6-2.6,3.7-5.1L769.2,242.6z"/>
		<path class="st1" d="M772.7,239.4c0-7,2.8-11.8,8.3-11.8s8.3,4.8,8.3,11.8c0,6.6-2.6,11.8-8.3,11.8
			C775.5,251.3,772.7,246.4,772.7,239.4L772.7,239.4z M776.5,239.5c0,5.8,1.6,8.3,4.5,8.3s4.5-2.6,4.5-8.4s-1.6-8.4-4.5-8.4
			S776.5,233.6,776.5,239.5L776.5,239.5z"/>
		<path class="st1" d="M793.8,250.8V228h5.6l4,16.5l3.8-16.5h5.6v22.8h-3.4V232l-4.6,18.8h-2.9l-4.7-18.8v18.8L793.8,250.8z"/>
		<path class="st1" d="M823.9,228c2-0.1,4,0.5,5.5,1.8c2.9,3,2.9,7.8,0,10.8c-1.5,1.3-3.5,1.9-5.5,1.8H822v8.4h-3.8V228H823.9z
			 M822,239h1.8c1,0.1,2.1-0.2,2.9-0.9c1.3-1.7,1.3-4,0-5.7c-0.8-0.6-1.8-0.9-2.8-0.8H822V239z"/>
		<path class="st1" d="M835.8,228h3.8v19.3h6.5v3.5h-10.2V228z"/>
		<path class="st1" d="M850.1,228h10.9v3.5h-7.2v5.8h7.2v3.4h-7.2v6.6h7.2v3.5h-10.9V228z M859.4,221.2l1.3,2.7l-7.1,3.4l-1.1-2.2
			L859.4,221.2z"/>
		<path class="st1" d="M866.4,250.8V228h5.6l4,16.5l3.8-16.5h5.6v22.8H882V232l-4.6,18.8h-2.9l-4.7-18.8v18.8L866.4,250.8z"/>
		<path class="st1" d="M890.8,228h10.9v3.5h-7.2v5.8h7.2v3.4h-7.2v6.6h7.2v3.5h-10.9V228z"/>
		<path class="st1" d="M918.2,243.6V228h3.3v22.8H918l-7.6-16.5v16.5h-3.4V228h4L918.2,243.6z"/>
		<path class="st1" d="M929.7,231.5h-4.1V228h12v3.5h-4.1v19.3h-3.8L929.7,231.5z"/>
		<path class="st1" d="M941,250.8h-3.8l6.3-22.8h3.5l6.5,22.8h-3.8l-1.5-5.3h-5.8L941,250.8z M945.3,233.3l-2,8.8h3.9L945.3,233.3z"
			/>
		<path class="st1" d="M956.8,228h3.8v22.8h-3.8V228z"/>
		<path class="st1" d="M965.8,228h5.3c3.3,0,5.1,0.7,6,1.8c1.4,1.4,2.1,3.4,2,5.4c0,1.3-0.2,2.6-0.8,3.7c-0.6,1.3-1.8,2.4-3.2,2.9
			l4.4,9.1h-4.2l-5-11.2c0.3,0,0.7,0,1,0c1,0,2-0.3,2.8-1c0.8-0.8,1.2-2,1.1-3.1c0.1-1.2-0.4-2.5-1.3-3.3c-0.9-0.5-2-0.8-3-0.7h-1.4
			v19.3h-3.7V228z"/>
		<path class="st1" d="M983.7,228h10.9v3.5h-7.2v5.8h7.2v3.4h-7.2v6.6h7.2v3.5h-10.9V228z"/>
		<path class="st1" d="M1002.7,244c0.2,2.8,1.5,3.9,3.4,3.9c1.7,0.1,3.2-1.2,3.3-2.9c0-0.2,0-0.3,0-0.5c0-2.6-2.6-3.1-5-4
			s-5-2.2-5-6.1c0-4.2,2.6-6.8,6.6-6.8s6.2,1.9,6.8,6.2h-3.6c-0.1-1.7-1-3.1-3-3.1c-1.6,0-2.9,1.2-2.9,2.8c0,0.1,0,0.2,0,0.3
			c0,2.5,2.4,3,5,3.9c2.2,0.9,5,2.3,5,6.7c0,4.2-3.1,6.8-7.2,6.8c-4.6,0-7-2.6-7.1-7.3H1002.7z"/>
		<path class="st1" d="M1030.7,239.5h-3.3v-4.1h3.3V239.5z M1030.7,250.8h-3.3v-4.1h3.3V250.8z"/>
		<circle class="st10" cx="496.2" cy="238.3" r="27"/>
		<path class="st1" d="M564.4,594.9c0.2,3.2,2.1,4.2,3.7,4.2c2,0.1,3.8-1.5,3.9-3.5c0-0.2,0-0.3,0-0.5c0-3-2.5-3.7-4.6-4.3
			c-1.7-0.6-4.7-1.6-4.7-5.3s2.2-5.8,5.4-5.8s5,1.6,5.5,5.2h-2c-0.2-1.5-0.9-3.4-3.4-3.4c-2.1,0-3.3,1.5-3.3,3.6
			c0,2.7,2,3.3,4.7,4.2c1.6,0.5,4.6,1.7,4.6,5.7c0.1,3.1-2.3,5.8-5.4,5.9c-0.2,0-0.3,0-0.5,0c-3.2,0-5.6-1.9-5.8-6L564.4,594.9z"/>
		<path class="st1" d="M578.2,580.1h1.8v2.7h-1.8V580.1z M578.2,585.5h1.8v15h-1.8V585.5z"/>
		<path class="st1" d="M586,602.8h-1.6l1.8-5.2h1.8L586,602.8z"/>
		<path class="st1" d="M599.4,593.6c0,3.1,1.3,5.6,3.8,5.6c1.7,0,3.2-1.3,3.4-3h1.8c-0.2,1.4-0.9,2.6-1.9,3.5
			c-0.9,0.8-2.1,1.2-3.3,1.2c-4.2,0-5.8-4-5.8-7.8c0-4.7,2.2-7.9,5.7-7.9c1.6,0,3.1,0.8,4,2.1c1.2,1.8,1.4,4.1,1.4,6.3L599.4,593.6z
			 M606.7,592c-0.1-3.1-1.3-5.2-3.6-5.2s-3.6,2.2-3.7,5.2H606.7z"/>
		<path class="st1" d="M612.5,585.5h1.7c0,0.9,0,1.6-0.1,2.6c0.6-1.8,2.3-3,4.3-2.9c2.6,0,4.3,1.5,4.3,5.1v10.2h-1.8v-9.7
			c0-1.5-0.2-3.9-2.9-3.9c-2.2,0-3.6,1.5-3.6,4.7v8.9h-1.9V585.5z"/>
		<path class="st1" d="M639.7,600.5h-1.8l-4.5-15h1.9l3.6,12.5l3.5-12.5h1.8L639.7,600.5z"/>
		<path class="st1" d="M648,593.6c0,3.1,1.3,5.6,3.8,5.6c1.7,0,3.2-1.3,3.4-3h1.8c-0.2,1.4-0.9,2.6-1.9,3.5
			c-0.9,0.8-2.1,1.2-3.3,1.2c-4.2,0-5.8-4-5.8-7.8c0-4.7,2.2-7.9,5.7-7.9c1.6,0,3.1,0.8,4,2.1c1.2,1.8,1.4,4.1,1.4,6.3L648,593.6z
			 M655.3,592c-0.1-3.1-1.3-5.2-3.6-5.2S648,589,648,592L655.3,592z M654.7,579.3l0.8,1.5l-6.2,3.3l-0.7-1.3L654.7,579.3z"/>
		<path class="st1" d="M661.1,585.5h1.7c0,1.4,0,2.2-0.1,3.2c0.8-2.9,2.7-3.5,4-3.5v2.2c-0.2-0.1-0.4-0.2-0.7-0.2
			c-1.3,0-3.1,1.6-3.1,5.4v8.1h-1.8L661.1,585.5z"/>
		<path class="st1" d="M670.1,580.1h1.9v2.7h-1.9V580.1z M670.1,585.5h1.9v15h-1.9V585.5z"/>
		<path class="st1" d="M677.6,587.2h-2.1v-1.7h2.1v-4.8h1.8v4.8h2.1v1.7h-2.1v13.3h-1.8V587.2z"/>
		<path class="st1" d="M694.5,600.5h-1.7c0-1.3,0-2.2,0-2.9c-0.4,1.9-2.1,3.2-4,3.2c-3,0-5-3.2-5-7.8s1.9-7.9,5-7.9
			c1.7,0,3.2,0.9,4,3.3c0-0.9,0-1.8,0-2.9h1.7V600.5z M685.6,593c0,3.4,1.2,6,3.5,6c1.1,0,2.1-0.7,2.6-1.7c0.7-1.4,1-2.9,0.9-4.4
			c0.1-1.5-0.2-3-0.9-4.4c-0.5-1-1.5-1.6-2.6-1.7C686.8,587,685.6,589.6,685.6,593L685.6,593z"/>
		<path class="st1" d="M699.2,580.1h1.8v5.4c0,1.3,0,2.2-0.1,2.9c0.4-1.8,2-3.2,3.8-3.2c3.2,0,5.1,3.3,5.1,7.8c0,4.8-2,7.9-5.1,7.9
			c-1.7,0-3.1-0.9-4-3.3c0,0.9,0,1.8,0,2.9h-1.7L699.2,580.1z M708.1,593c0-3.2-1.1-6-3.5-6c-2.6,0-3.5,3-3.5,6s0.9,6,3.5,6
			C706.9,599.1,708.1,596.3,708.1,593L708.1,593z"/>
		<path class="st1" d="M714.1,580.1h1.8v20.5h-1.8V580.1z"/>
		<path class="st1" d="M722.1,593.6c0,3.1,1.3,5.6,3.8,5.6c1.7,0,3.2-1.3,3.4-3h1.8c-0.2,1.4-0.9,2.6-1.9,3.5
			c-0.9,0.8-2.1,1.2-3.3,1.2c-4.2,0-5.8-4-5.8-7.8c0-4.7,2.2-7.9,5.7-7.9c1.6,0,3.1,0.8,4,2.1c1.2,1.8,1.4,4.1,1.4,6.3L722.1,593.6z
			 M729.4,592c-0.1-3.1-1.3-5.2-3.6-5.2s-3.6,2.2-3.7,5.2H729.4z"/>
		<path class="st1" d="M743,585.5h1.7c0,1.1,0,2,0,2.9c0.8-2.3,2.2-3.2,4-3.2c3,0,5.1,3.1,5.1,7.9c0,4.6-1.9,7.8-5.1,7.8
			c-1.8-0.1-3.4-1.3-3.8-3.1c0.1,0.7,0.1,1.4,0.1,2.7v5.5H743V585.5z M751.8,593c0-3.4-1.2-6-3.5-6c-1.1,0-2.1,0.7-2.6,1.7
			c-0.7,1.3-1,2.9-0.9,4.4c-0.1,1.5,0.2,3,0.9,4.4c0.5,1,1.5,1.6,2.6,1.7C750.7,599.1,751.8,596.5,751.8,593L751.8,593z"/>
		<path class="st1" d="M757.6,585.5h1.7c0,1.4,0,2.2-0.1,3.2c0.8-2.9,2.7-3.5,4-3.5v2.2c-0.2-0.1-0.4-0.2-0.7-0.2
			c-1.3,0-3.1,1.6-3.1,5.4v8.1h-1.8L757.6,585.5z"/>
		<path class="st1" d="M765.2,593c0-4.3,1.8-7.8,5.8-7.8s5.8,3.6,5.8,7.9s-1.8,7.9-5.8,7.9S765.2,597.4,765.2,593L765.2,593z
			 M767.2,593.1c0,4,1.3,6.1,3.9,6.1s3.8-2.1,3.8-6.1s-1.3-6.1-3.9-6.1S767.2,589,767.2,593.1L767.2,593.1z"/>
		<path class="st1" d="M781.2,587.2h-1.7v-1.7h1.7v-1.1c0-4.5,3.6-4.6,4.5-4.6v1.6c-1.4,0.1-2.6,0.8-2.6,3.2v1h2.6v1.7H783v13.3
			h-1.8L781.2,587.2z"/>
		<path class="st1" d="M789.4,593.6c0,3.1,1.3,5.6,3.8,5.6c1.7,0,3.2-1.3,3.4-3h1.8c-0.2,1.4-0.9,2.6-1.9,3.5
			c-0.9,0.8-2.1,1.2-3.3,1.2c-4.2,0-5.8-4-5.8-7.8c0-4.7,2.2-7.9,5.7-7.9c1.6,0,3.1,0.8,4,2.1c1.2,1.8,1.4,4.1,1.4,6.3L789.4,593.6z
			 M796.7,592c-0.1-3.1-1.3-5.2-3.6-5.2s-3.6,2.3-3.7,5.3L796.7,592z"/>
		<path class="st1" d="M808.6,589.4c0-1.9-1-2.6-2.4-2.6c-1.2,0-2.1,0.9-2.1,2.1c0,0,0,0.1,0,0.1c0,1.7,1.4,2.3,3.2,2.8
			c1.7,0.5,3.6,1.5,3.6,4.5c0.1,2.4-1.8,4.4-4.1,4.5c-0.1,0-0.2,0-0.3,0c-2.7,0-4.6-1.6-4.7-4.8h1.8c0,2,1.2,3.1,2.9,3.1
			c1.3,0.1,2.5-1,2.5-2.3c0-0.1,0-0.2,0-0.3c0-1.8-1.3-2.5-3.3-3.2s-3.5-1.6-3.5-4.3c-0.1-2.1,1.6-3.9,3.7-4c0.2,0,0.3,0,0.5,0
			c2.6,0,4.1,1.5,4.2,4.3L808.6,589.4z"/>
		<path class="st1" d="M820.8,589.4c0-1.9-1-2.6-2.4-2.6c-1.2,0-2.1,0.9-2.2,2.1c0,0.1,0,0.1,0,0.2c0,1.7,1.4,2.3,3.2,2.8
			c1.7,0.5,3.6,1.5,3.6,4.5c0.1,2.4-1.8,4.4-4.1,4.5c-0.1,0-0.2,0-0.3,0c-2.7,0-4.6-1.6-4.7-4.8h1.8c0,2,1.2,3.1,2.9,3.1
			c1.3,0.1,2.5-1,2.5-2.3c0-0.1,0-0.2,0-0.3c0-1.8-1.3-2.5-3.3-3.2s-3.5-1.6-3.5-4.3c-0.1-2.1,1.6-3.9,3.7-4c0.2,0,0.3,0,0.5,0
			c2.6,0,4.1,1.5,4.2,4.3L820.8,589.4z"/>
		<path class="st1" d="M827.2,580.1h1.8v2.7h-1.8V580.1z M827.2,585.5h1.8v15h-1.8V585.5z"/>
		<path class="st1" d="M833.2,593c0-4.3,1.8-7.8,5.8-7.8s5.8,3.6,5.8,7.9s-1.8,7.9-5.8,7.9S833.2,597.4,833.2,593L833.2,593z
			 M835.2,593.1c0,4,1.3,6.1,3.9,6.1s3.8-2.1,3.8-6.1s-1.3-6.1-3.9-6.1S835.2,589,835.2,593.1L835.2,593.1z"/>
		<path class="st1" d="M848.8,585.5h1.7c0,0.9,0,1.6-0.1,2.6c0.6-1.8,2.3-3,4.3-2.9c2.6,0,4.3,1.5,4.3,5.1v10.2h-1.8v-9.7
			c0-1.5-0.2-3.9-2.9-3.9c-2.2,0-3.6,1.5-3.6,4.7v8.9h-1.8L848.8,585.5z"/>
		<path class="st1" d="M863.6,585.5h1.7c0,0.9,0,1.6-0.1,2.6c0.6-1.8,2.3-3,4.3-2.9c2.6,0,4.3,1.5,4.3,5.1v10.2h-1.8v-9.7
			c0-1.5-0.2-3.9-2.9-3.9c-2.2,0-3.6,1.5-3.6,4.7v8.9h-1.9V585.5z"/>
		<path class="st1" d="M879.6,593.6c0,3.1,1.3,5.6,3.8,5.6c1.7,0,3.2-1.3,3.4-3h1.8c-0.2,1.4-0.9,2.6-1.9,3.5
			c-0.9,0.8-2.1,1.2-3.3,1.2c-4.2,0-5.8-4-5.8-7.8c0-4.7,2.2-7.9,5.7-7.9c1.6,0,3.1,0.8,4,2.1c1.2,1.8,1.4,4.1,1.4,6.3L879.6,593.6z
			 M886.9,592c-0.1-3.1-1.3-5.2-3.6-5.2s-3.6,2.2-3.7,5.2H886.9z"/>
		<path class="st1" d="M893,580.1h1.8v20.5H893V580.1z"/>
		<path class="st1" d="M917.5,600.5h-1.7c0-1.4,0-2.2,0-3c-0.4,1.9-2,3.3-4,3.3c-3,0-5-3.2-5-7.8s1.9-7.9,5-7.9
			c1.7,0,3.1,0.9,3.9,3.2c-0.1-0.9-0.1-1.7-0.1-2.8v-5.4h1.8L917.5,600.5z M908.6,593c0,3.4,1.2,6,3.5,6c1.1,0,2.1-0.7,2.6-1.7
			c1.1-2.8,1.1-6,0-8.8c-0.5-1-1.5-1.6-2.6-1.6C909.8,586.9,908.6,589.5,908.6,593L908.6,593z"/>
		<path class="st1" d="M923.4,593.6c0,3.1,1.3,5.6,3.8,5.6c1.7,0,3.2-1.3,3.4-3h1.8c-0.2,1.4-0.9,2.6-1.9,3.5
			c-0.9,0.8-2.1,1.2-3.3,1.2c-4.2,0-5.8-4-5.8-7.8c0-4.7,2.2-7.9,5.7-7.9c1.6,0,3.1,0.8,4,2.1c1.2,1.8,1.4,4.1,1.4,6.3L923.4,593.6z
			 M930.7,592c-0.1-3.1-1.3-5.2-3.6-5.2s-3.6,2.2-3.7,5.2H930.7z"/>
		<path class="st1" d="M944.5,580.1h1.8v20.5h-1.8V580.1z"/>
		<path class="st1" d="M961.2,600.5h-1.7c0-1.3,0-2.2,0-2.9c-0.4,1.9-2.1,3.2-4,3.2c-3,0-5-3.2-5-7.8s1.9-7.9,5-7.9
			c1.7,0,3.2,0.9,4,3.3c0-0.9,0-1.8,0-2.9h1.7V600.5z M952.4,593c0,3.4,1.2,6,3.5,6c1.1,0,2.1-0.7,2.6-1.7c0.7-1.4,1-2.9,0.9-4.4
			c0.1-1.5-0.2-3-0.9-4.4c-0.5-1-1.5-1.6-2.6-1.7C953.6,587,952.4,589.6,952.4,593L952.4,593z"/>
		<path class="st1" d="M983.6,595.4c-0.3,3.1-2,5.5-5,5.5c-4,0-5.8-3.8-5.8-7.8c0-4.9,2.3-7.9,5.7-7.9c3.1,0,4.8,2.4,5,5.5h-1.9
			c-0.3-3-1.7-3.8-3.2-3.8c-1.1-0.1-2.2,0.6-2.7,1.6c-0.7,1.4-1.1,3-1,4.5c0,4,1.3,6.1,3.7,6.1c1.8,0,2.9-1.5,3.2-3.7L983.6,595.4z"
			/>
		<path class="st1" d="M986.3,593c0-4.3,1.8-7.8,5.8-7.8s5.8,3.6,5.8,7.9s-1.8,7.9-5.8,7.9S986.3,597.4,986.3,593L986.3,593z
			 M988.2,593.1c0,4,1.3,6.1,3.9,6.1s3.8-2.2,3.8-6.2s-1.3-6.1-3.9-6.1S988.3,589,988.2,593.1L988.2,593.1z"/>
		<path class="st1" d="M1001.8,585.5h1.7c0,0.9,0,1.6-0.1,2.6c0.6-1.8,2.3-3,4.2-2.9c2.6,0,4.3,1.5,4.3,5.1v10.2h-1.8v-9.7
			c0-1.5-0.2-3.9-2.9-3.9c-2.2,0-3.6,1.5-3.6,4.7v8.9h-1.8V585.5z"/>
		<path class="st1" d="M1026.6,600.5h-1.7c0-1.4,0-2.2,0-3c-0.4,1.9-2,3.3-4,3.3c-3,0-5-3.2-5-7.8s1.9-7.9,5-7.9
			c1.7,0,3.1,0.9,3.9,3.2c-0.1-0.9-0.1-1.7-0.1-2.8v-5.4h1.8L1026.6,600.5z M1017.7,593c0,3.4,1.2,6,3.5,6c1.1,0,2.1-0.7,2.6-1.7
			c1.1-2.8,1.1-6,0-8.8c-0.5-1-1.5-1.6-2.6-1.6C1019,586.9,1017.7,589.5,1017.7,593L1017.7,593z"/>
		<path class="st1" d="M1041.4,600.5h-1.7c0-0.9,0-1.7,0.1-2.6c-0.6,1.8-2.3,3.1-4.2,3c-2.6,0-4.3-1.5-4.3-5.1v-10.3h1.8v9.7
			c0,1.5,0.2,3.9,2.9,3.9c2.2,0,3.6-1.5,3.6-4.7v-8.9h1.8V600.5z"/>
		<path class="st1" d="M1046.4,580.1h1.8v2.7h-1.8V580.1z M1046.4,585.5h1.8v15h-1.8V585.5z"/>
		<path class="st1" d="M1053.9,587.2h-2.1v-1.7h2.1v-4.8h1.8v4.8h2.1v1.7h-2.1v13.3h-1.8V587.2z"/>
		<path class="st1" d="M1062.1,593.6c0,3.1,1.3,5.6,3.8,5.6c1.7,0,3.2-1.3,3.4-3h1.8c-0.2,1.4-0.9,2.6-1.9,3.5
			c-0.9,0.8-2.1,1.2-3.3,1.2c-4.2,0-5.8-4-5.8-7.8c0-4.7,2.2-7.9,5.7-7.9c1.6,0,3.1,0.8,4,2.1c1.2,1.8,1.4,4.1,1.4,6.3L1062.1,593.6
			z M1069.3,592c-0.1-3.1-1.3-5.2-3.6-5.2s-3.6,2.2-3.7,5.2H1069.3z"/>
		<path class="st1" d="M1075.8,602.8h-1.6l1.8-5.2h1.8L1075.8,602.8z"/>
		<path class="st1" d="M1092.5,600.5h-1.8l-4.5-15h1.8l3.6,12.5l3.4-12.5h1.8L1092.5,600.5z"/>
		<path class="st1" d="M1098.8,593c0-4.3,1.8-7.8,5.8-7.8s5.8,3.6,5.8,7.9s-1.8,7.9-5.8,7.9S1098.8,597.4,1098.8,593L1098.8,593z
			 M1100.8,593.1c0,4,1.3,6.1,3.9,6.1s3.8-2.1,3.8-6.1s-1.3-6.1-3.9-6.1S1100.8,589,1100.8,593.1L1100.8,593.1z"/>
		<path class="st1" d="M1124.5,600.5h-1.7c0-0.9,0-1.7,0.1-2.6c-0.6,1.8-2.3,3.1-4.2,3c-2.6,0-4.3-1.5-4.3-5.1v-10.3h1.8v9.7
			c0,1.5,0.2,3.9,2.9,3.9c2.2,0,3.6-1.5,3.6-4.7v-8.9h1.8V600.5z"/>
		<path class="st1" d="M1135.3,589.4c0-1.9-1-2.6-2.4-2.6c-1.2,0-2.1,0.9-2.2,2.1c0,0.1,0,0.1,0,0.2c0,1.7,1.4,2.3,3.2,2.8
			c1.7,0.5,3.6,1.5,3.6,4.5c0.1,2.4-1.8,4.4-4.1,4.5c-0.1,0-0.2,0-0.3,0c-2.7,0-4.6-1.6-4.7-4.8h1.8c0,2,1.2,3.1,2.9,3.1
			c1.3,0.1,2.5-0.9,2.5-2.3c0-0.1,0-0.2,0-0.4c0-1.8-1.3-2.5-3.3-3.2s-3.5-1.6-3.5-4.3c-0.1-2.1,1.6-3.9,3.7-4c0.2,0,0.3,0,0.5,0
			c2.6,0,4.1,1.5,4.2,4.3L1135.3,589.4z"/>
		<path class="st1" d="M1155.3,589.4c0-1.9-1-2.6-2.4-2.6c-1.2,0-2.1,0.9-2.2,2.1c0,0.1,0,0.1,0,0.2c0,1.7,1.4,2.3,3.2,2.8
			c1.7,0.5,3.6,1.5,3.6,4.5c0.1,2.4-1.8,4.4-4.1,4.5c-0.1,0-0.2,0-0.3,0c-2.7,0-4.6-1.6-4.7-4.8h1.8c0,2,1.2,3.1,2.9,3.1
			c1.3,0.1,2.5-0.9,2.5-2.3c0-0.1,0-0.2,0-0.4c0-1.8-1.3-2.5-3.3-3.2s-3.5-1.6-3.5-4.3c-0.1-2.1,1.6-3.9,3.7-4c0.2,0,0.3,0,0.5,0
			c2.6,0,4.1,1.5,4.2,4.3L1155.3,589.4z"/>
		<path class="st1" d="M1160.7,593c0-4.3,1.8-7.8,5.8-7.8s5.8,3.6,5.8,7.9s-1.8,7.9-5.8,7.9S1160.7,597.4,1160.7,593L1160.7,593z
			 M1162.6,593.1c0,4,1.3,6.1,3.9,6.1s3.8-2.1,3.8-6.1s-1.3-6.1-3.9-6.1S1162.6,589,1162.6,593.1L1162.6,593.1z"/>
		<path class="st1" d="M1186.3,600.5h-1.7c0-0.9,0-1.7,0.1-2.6c-0.6,1.8-2.3,3.1-4.2,3c-2.6,0-4.3-1.5-4.3-5.1v-10.3h1.9v9.7
			c0,1.5,0.2,3.9,2.9,3.9c2.2,0,3.6-1.5,3.6-4.7v-8.9h1.8L1186.3,600.5z"/>
		<path class="st1" d="M1191,580.1h1.8v5.3c0,0.8,0,1.6-0.1,2.5c0.5-1.7,2.2-2.9,4-2.7c1.2-0.1,2.4,0.4,3.2,1.3
			c0.8,0.9,1.1,2.3,1.1,4.2v9.9h-1.8v-9.3c0.1-1.1-0.1-2.3-0.7-3.3c-0.5-0.7-1.3-1-2.2-1c-1-0.1-2,0.4-2.7,1.2
			c-0.6,0.8-0.9,1.8-0.9,3.8v8.5h-1.8V580.1z"/>
		<path class="st1" d="M1215.8,600.5h-1.8c0-1.3,0-2.2,0-2.9c-0.4,1.9-2.1,3.2-4,3.2c-3,0-5-3.2-5-7.8s1.9-7.9,5-7.9
			c1.7,0,3.2,0.9,4,3.3c0-0.9,0-1.8,0-2.9h1.7L1215.8,600.5z M1206.9,593c0,3.4,1.2,6,3.5,6c1.1,0,2.1-0.7,2.6-1.7
			c0.7-1.4,1-2.9,0.9-4.4c0.1-1.5-0.2-3-0.9-4.4c-0.5-1-1.5-1.6-2.6-1.7C1208.1,587,1206.9,589.6,1206.9,593L1206.9,593z"/>
		<path class="st1" d="M1220.7,580.1h1.8v2.7h-1.8V580.1z M1220.7,585.5h1.8v15h-1.8V585.5z"/>
		<path class="st1" d="M1228.3,587.2h-2.1v-1.7h2.1v-4.8h1.8v4.8h2.1v1.7h-2.1v13.3h-1.8V587.2z"/>
		<path class="st1" d="M1236.4,593.6c0,3.1,1.3,5.6,3.8,5.6c1.7,0,3.2-1.3,3.4-3h1.8c-0.2,1.4-0.9,2.6-1.9,3.5
			c-0.9,0.8-2.1,1.2-3.3,1.2c-4.1,0-5.8-4-5.8-7.8c0-4.7,2.2-7.9,5.7-7.9c1.6,0,3.1,0.8,4,2.1c1.2,1.8,1.4,4.1,1.4,6.3L1236.4,593.6
			z M1243.7,592c-0.1-3.1-1.3-5.2-3.6-5.2s-3.6,2.2-3.7,5.2H1243.7z"/>
		<path class="st1" d="M1248.2,598.8l7.2-11.6h-6.7v-1.7h9v1.8l-7.2,11.5h7.4v1.7h-9.7L1248.2,598.8z"/>
		<path class="st1" d="M1279.2,600.5h-1.7c0-1.3,0-2.2,0-2.9c-0.4,1.9-2.1,3.2-4,3.2c-3,0-5-3.2-5-7.8s1.9-7.9,5-7.9
			c1.7,0,3.2,0.9,4,3.3c0-0.9,0-1.8,0-2.9h1.7V600.5z M1270.4,593c0,3.4,1.2,6,3.5,6c1.1,0,2.1-0.7,2.6-1.7c0.7-1.4,1-2.9,0.9-4.4
			c0.1-1.5-0.2-3-0.9-4.4c-0.5-1-1.5-1.6-2.6-1.7C1271.6,587,1270.4,589.6,1270.4,593L1270.4,593z"/>
		<path class="st1" d="M1290,589.4c0-1.9-1-2.6-2.4-2.6c-1.2,0-2.1,0.9-2.2,2.1c0,0.1,0,0.1,0,0.2c0,1.7,1.4,2.3,3.2,2.8
			c1.7,0.5,3.6,1.5,3.6,4.5c0.1,2.4-1.8,4.4-4.1,4.5c-0.1,0-0.2,0-0.3,0c-2.7,0-4.6-1.6-4.7-4.8h1.8c0,2,1.2,3.1,2.9,3.1
			c1.3,0.1,2.5-0.9,2.5-2.3c0-0.1,0-0.2,0-0.4c0-1.8-1.3-2.5-3.3-3.2s-3.5-1.6-3.5-4.3c-0.1-2.1,1.6-3.9,3.7-4c0.2,0,0.3,0,0.5,0
			c2.6,0,4.1,1.5,4.2,4.3L1290,589.4z"/>
		<path class="st1" d="M1302.3,589.4c0-1.9-1-2.6-2.4-2.6c-1.2,0-2.1,0.9-2.2,2.1c0,0.1,0,0.1,0,0.2c0,1.7,1.4,2.3,3.2,2.8
			c1.7,0.5,3.6,1.5,3.6,4.5c0.1,2.4-1.8,4.4-4.1,4.5c-0.1,0-0.2,0-0.3,0c-2.7,0-4.6-1.6-4.7-4.8h1.8c0,2,1.2,3.1,2.9,3.1
			c1.3,0.1,2.5-1,2.5-2.3c0-0.1,0-0.2,0-0.3c0-1.8-1.3-2.5-3.3-3.2s-3.5-1.6-3.5-4.3c-0.1-2.1,1.6-3.9,3.7-4c0.2,0,0.3,0,0.5,0
			c2.6,0,4.1,1.5,4.2,4.3L1302.3,589.4z"/>
		<path class="st1" d="M1318.6,600.5h-1.7c0-0.9,0-1.7,0.1-2.6c-0.6,1.8-2.3,3.1-4.2,3c-2.6,0-4.3-1.5-4.3-5.1v-10.3h1.8v9.7
			c0,1.5,0.2,3.9,2.9,3.9c2.2,0,3.6-1.5,3.6-4.7v-8.9h1.8V600.5z"/>
		<path class="st1" d="M1323.3,585.5h1.7c0,1.4,0,2.2-0.1,3.2c0.8-2.9,2.7-3.5,4-3.5v2.2c-0.2-0.1-0.4-0.2-0.7-0.2
			c-1.3,0-3.1,1.6-3.1,5.4v8.1h-1.8L1323.3,585.5z"/>
		<path class="st1" d="M1332.9,593.6c0,3.1,1.3,5.6,3.8,5.6c1.7,0,3.2-1.3,3.4-3h1.8c-0.2,1.4-0.9,2.6-1.9,3.5
			c-0.9,0.8-2.1,1.2-3.3,1.2c-4.2,0-5.8-4-5.8-7.8c0-4.7,2.2-7.9,5.7-7.9c1.6,0,3.1,0.8,4,2.1c1.2,1.8,1.4,4.1,1.4,6.3L1332.9,593.6
			z M1340.2,592c-0.1-3.1-1.3-5.2-3.6-5.2s-3.6,2.3-3.7,5.3L1340.2,592z"/>
		<path class="st1" d="M1346,585.5h1.7c0,1.4,0,2.2-0.1,3.2c0.8-2.9,2.7-3.5,4-3.5v2.2c-0.2-0.1-0.4-0.2-0.7-0.2
			c-1.3,0-3.1,1.6-3.1,5.4v8.1h-1.8V585.5z"/>
		<path class="st1" d="M535.2,617.9h1.8v20.5h-1.8L535.2,617.9z"/>
		<path class="st1" d="M543.2,631.4c0,3.1,1.3,5.6,3.8,5.6c1.7,0,3.2-1.3,3.4-3h1.8c-0.2,1.4-0.9,2.6-1.9,3.5
			c-0.9,0.8-2.1,1.2-3.3,1.2c-4.2,0-5.8-4-5.8-7.8c0-4.7,2.2-7.9,5.7-7.9c1.6,0,3.1,0.8,4,2.1c1.1,1.9,1.6,4.1,1.4,6.3L543.2,631.4z
			 M550.5,629.7c-0.1-3.1-1.3-5.2-3.6-5.2s-3.6,2.2-3.7,5.2H550.5z"/>
		<path class="st1" d="M564.8,625h-2.1v-1.7h2.1v-4.8h1.8v4.8h2.1v1.7h-2.1v13.3h-1.8V625z"/>
		<path class="st1" d="M572.1,623.3h1.7c0,1.4,0,2.2-0.1,3.2c0.8-2.9,2.7-3.5,4-3.5v2.2c-0.2-0.1-0.4-0.2-0.7-0.2
			c-1.3,0-3.1,1.6-3.1,5.4v8.1h-1.8V623.3z"/>
		<path class="st1" d="M590.4,638.3h-1.7c0-1.3,0-2.2,0-2.9c-0.4,1.9-2.1,3.2-4,3.2c-3,0-5-3.2-5-7.8s1.9-7.9,5-7.9
			c1.7,0,3.2,0.9,4,3.3c0-0.9,0-1.8,0-2.9h1.7V638.3z M581.6,630.8c0,3.4,1.2,6,3.5,6c1.1,0,2.1-0.7,2.6-1.7c0.7-1.4,1-2.9,0.9-4.4
			c0.1-1.5-0.2-3-0.9-4.4c-0.5-1-1.5-1.6-2.6-1.7C582.8,624.7,581.6,627.4,581.6,630.8L581.6,630.8z"/>
		<path class="st1" d="M595.2,623.3h1.7c0,0.9,0,1.6-0.1,2.6c0.6-1.8,2.3-3,4.3-2.9c2.6,0,4.3,1.5,4.3,5.1v10.2h-1.8v-9.7
			c0-1.5-0.2-3.9-2.9-3.9c-2.2,0-3.6,1.5-3.6,4.7v8.9h-1.8L595.2,623.3z"/>
		<path class="st1" d="M616.1,627.2c0-1.9-1-2.6-2.4-2.6c-1.2,0-2.1,0.9-2.2,2.1c0,0.1,0,0.1,0,0.2c0,1.7,1.4,2.3,3.2,2.8
			c1.7,0.5,3.6,1.5,3.6,4.5c0.1,2.4-1.8,4.4-4.1,4.5c-0.1,0-0.2,0-0.3,0c-2.7,0-4.6-1.6-4.7-4.8h1.8c0,2,1.2,3.1,2.9,3.1
			c1.3,0.1,2.5-1,2.5-2.3c0-0.1,0-0.2,0-0.3c0-1.8-1.3-2.5-3.3-3.2s-3.5-1.6-3.5-4.3c-0.1-2.1,1.6-3.9,3.7-4c0.2,0,0.3,0,0.5,0
			c2.6,0,4.1,1.5,4.2,4.3L616.1,627.2z"/>
		<path class="st1" d="M622.2,623.3h1.8c0,1.1,0,2,0,2.9c0.8-2.3,2.2-3.2,4-3.2c3,0,5.1,3.1,5.1,7.9c0,4.6-1.9,7.8-5.1,7.8
			c-1.9,0-3.5-1.3-4-3.1c0.1,0.7,0.1,1.4,0.1,2.7v5.5h-1.8L622.2,623.3z M631.1,630.8c0-3.4-1.2-6-3.5-6c-1.1,0-2.1,0.7-2.6,1.7
			c-0.7,1.3-1,2.9-0.9,4.4c-0.1,1.5,0.2,3,0.9,4.4c0.5,1,1.5,1.6,2.6,1.7C629.9,636.9,631.1,634.3,631.1,630.8L631.1,630.8z"/>
		<path class="st1" d="M636.1,630.8c0-4.3,1.8-7.8,5.8-7.8s5.8,3.6,5.8,7.9s-1.8,7.9-5.8,7.9S636.1,635.1,636.1,630.8L636.1,630.8z
			 M638,630.8c0,4,1.3,6.1,3.9,6.1s3.8-2.1,3.8-6.1s-1.3-6.1-3.9-6.1S638,626.8,638,630.8L638,630.8z"/>
		<path class="st1" d="M651.6,623.3h1.7c0,1.4,0,2.2-0.1,3.2c0.8-2.9,2.7-3.5,4-3.5v2.2c-0.2-0.1-0.4-0.2-0.7-0.2
			c-1.3,0-3.1,1.6-3.1,5.4v8.1h-1.8L651.6,623.3z"/>
		<path class="st1" d="M661.2,625h-2.1v-1.7h2.1v-4.8h1.8v4.8h2.1v1.7h-2.1v13.3h-1.8V625z"/>
		<path class="st1" d="M686.2,638.3h-1.7c0-1.4,0-2.2,0-3c-0.4,1.9-2,3.3-4,3.3c-3,0-5-3.2-5-7.8s1.9-7.9,5-7.9
			c1.7,0,3.1,0.9,3.9,3.2c-0.1-0.9-0.1-1.7-0.1-2.8v-5.4h1.8L686.2,638.3z M677.3,630.8c0,3.4,1.2,6,3.5,6c1.1,0,2.1-0.7,2.6-1.7
			c1.1-2.8,1.1-6,0-8.8c-0.5-1-1.5-1.6-2.6-1.6C678.6,624.7,677.3,627.3,677.3,630.8L677.3,630.8z"/>
		<path class="st1" d="M692.1,631.4c0,3.1,1.3,5.6,3.8,5.6c1.7,0,3.2-1.3,3.4-3h1.8c-0.2,1.4-0.9,2.6-1.9,3.5
			c-0.9,0.8-2.1,1.2-3.3,1.2c-4.2,0-5.8-4-5.8-7.8c0-4.7,2.2-7.9,5.7-7.9c1.6,0,3.1,0.8,4,2.1c1.1,1.9,1.6,4.1,1.4,6.3L692.1,631.4z
			 M699.4,629.7c-0.1-3.1-1.3-5.2-3.6-5.2s-3.6,2.2-3.7,5.2H699.4z"/>
		<path class="st1" d="M713.1,623.3h1.8c0,0.8,0,1.6-0.1,2.5c0.4-1.7,2-2.9,3.8-2.8c1,0,1.9,0.3,2.6,1c0.4,0.5,0.7,1.1,0.8,1.8
			c0.2-0.7,0.7-1.4,1.2-1.9c0.8-0.6,1.8-0.9,2.8-0.9c1.4-0.1,2.8,0.7,3.5,1.9c0.5,1.3,0.8,2.7,0.7,4.1v9.3h-1.8v-9.2
			c0-0.9-0.1-1.9-0.3-2.8c-0.3-1-1.3-1.6-2.3-1.6c-1-0.1-1.9,0.4-2.4,1.2c-0.6,1-0.9,2.1-0.8,3.3v9.1h-1.8v-9.1c0.1-1,0-1.9-0.3-2.9
			c-0.3-1-1.2-1.6-2.3-1.6c-1,0-1.9,0.4-2.4,1.2c-0.6,1-0.9,2.2-0.8,3.4v9h-1.8L713.1,623.3z"/>
		<path class="st1" d="M744.9,638.3h-1.7c0-1.3,0-2.2,0-2.9c-0.4,1.9-2.1,3.2-4,3.2c-3,0-5-3.2-5-7.8s1.9-7.9,5-7.9
			c1.7,0,3.2,0.9,4,3.3c0-0.9,0-1.8,0-2.9h1.7V638.3z M736,630.8c0,3.4,1.2,6,3.5,6c1.1,0,2.1-0.7,2.6-1.7c0.7-1.4,1-2.9,0.9-4.4
			c0.1-1.5-0.2-3-0.9-4.4c-0.5-1-1.5-1.6-2.6-1.7C737.2,624.7,736,627.4,736,630.8L736,630.8z"/>
		<path class="st1" d="M749.6,623.3h1.7c0,1.4,0,2.2-0.1,3.2c0.8-2.9,2.7-3.5,4-3.5v2.2c-0.2-0.1-0.4-0.2-0.7-0.2
			c-1.3,0-3.1,1.6-3.1,5.4v8.1h-1.8L749.6,623.3z"/>
		<path class="st1" d="M767.9,633.2c-0.3,3.1-2,5.5-5,5.5c-4,0-5.8-3.8-5.8-7.8c0-4.9,2.3-7.9,5.7-7.9c3.1,0,4.8,2.4,5,5.5H766
			c-0.3-3-1.7-3.8-3.2-3.8c-1.1-0.1-2.2,0.6-2.7,1.6c-0.7,1.4-1.1,3-1,4.5c0,4,1.3,6.1,3.7,6.1c1.8,0,2.9-1.5,3.2-3.7L767.9,633.2z"
			/>
		<path class="st1" d="M771.4,617.9h1.8v5.3c0,0.8,0,1.6-0.1,2.5c0.5-1.7,2.2-2.9,4-2.7c1.2-0.1,2.4,0.4,3.2,1.3
			c0.8,0.9,1.1,2.3,1.1,4.1v9.9h-1.8V629c0.1-1.1-0.1-2.3-0.7-3.3c-0.5-0.7-1.3-1-2.2-1c-1-0.1-2,0.4-2.7,1.2
			c-0.6,0.8-0.9,1.8-0.9,3.8v8.5h-1.8L771.4,617.9z"/>
		<path class="st1" d="M796.2,638.3h-1.7c0-1.3,0-2.2,0-2.9c-0.4,1.9-2.1,3.2-4,3.2c-3,0-5-3.2-5-7.8s1.9-7.9,5-7.9
			c1.7,0,3.2,0.9,4,3.3c0-0.9,0-1.8,0-2.9h1.7V638.3z M787.3,630.8c0,3.4,1.2,6,3.5,6c1.1,0,2.1-0.7,2.6-1.7c0.7-1.4,1-2.9,0.9-4.4
			c0.1-1.5-0.2-3-0.9-4.4c-0.5-1-1.5-1.6-2.6-1.7C788.5,624.7,787.3,627.4,787.3,630.8L787.3,630.8z"/>
		<path class="st1" d="M800.9,623.3h1.7c0,0.9,0,1.6-0.1,2.6c0.6-1.8,2.3-3,4.3-2.9c2.6,0,4.3,1.5,4.3,5.1v10.2h-1.8v-9.7
			c0-1.5-0.2-3.9-2.9-3.9c-2.2,0-3.6,1.5-3.6,4.7v8.9h-1.8L800.9,623.3z"/>
		<path class="st1" d="M825.6,638.3h-1.7c0-1.4,0-2.2,0-3c-0.4,1.9-2,3.3-4,3.3c-3,0-5-3.2-5-7.8s1.9-7.9,5-7.9
			c1.7,0,3.1,0.9,3.9,3.2c-0.1-0.9-0.1-1.7-0.1-2.8v-5.4h1.8L825.6,638.3z M816.8,630.8c0,3.4,1.2,6,3.5,6c1.1,0,2.1-0.7,2.6-1.7
			c1.1-2.8,1.1-6,0-8.8c-0.5-1-1.5-1.6-2.6-1.6C818,624.7,816.8,627.3,816.8,630.8L816.8,630.8z"/>
		<path class="st1" d="M830.6,617.9h1.8v2.7h-1.8V617.9z M830.6,623.3h1.8v15h-1.8V623.3z"/>
		<path class="st1" d="M843.5,627.2c0-1.9-1-2.6-2.4-2.6c-1.2,0-2.1,0.9-2.2,2.1c0,0.1,0,0.1,0,0.2c0,1.7,1.4,2.3,3.2,2.8
			c1.7,0.5,3.6,1.5,3.6,4.5c0.1,2.4-1.8,4.4-4.1,4.5c-0.1,0-0.2,0-0.3,0c-2.7,0-4.6-1.6-4.7-4.8h1.8c0,2,1.2,3.1,2.9,3.1
			c1.3,0.1,2.5-1,2.5-2.3c0-0.1,0-0.2,0-0.3c0-1.8-1.3-2.5-3.3-3.2s-3.5-1.6-3.5-4.3c-0.1-2.1,1.6-3.9,3.7-4c0.2,0,0.3,0,0.5,0
			c2.6,0,4.1,1.5,4.2,4.3L843.5,627.2z"/>
		<path class="st1" d="M850.9,631.4c0,3.1,1.3,5.6,3.8,5.6c1.7,0,3.2-1.3,3.4-3h1.8c-0.2,1.4-0.9,2.6-1.9,3.5
			c-0.9,0.8-2.1,1.2-3.3,1.2c-4.2,0-5.8-4-5.8-7.8c0-4.7,2.2-7.9,5.7-7.9c1.6,0,3.1,0.8,4,2.1c1.1,1.9,1.6,4.1,1.4,6.3H850.9z
			 M858.2,629.7c-0.1-3.1-1.3-5.2-3.6-5.2s-3.6,2.2-3.7,5.2H858.2z"/>
		<path class="st1" d="M870,627.2c0-1.9-1-2.6-2.4-2.6c-1.2,0-2.1,0.9-2.2,2.1c0,0.1,0,0.1,0,0.2c0,1.7,1.4,2.3,3.2,2.8
			c1.7,0.5,3.6,1.5,3.6,4.5c0.1,2.4-1.8,4.4-4.1,4.5c-0.1,0-0.2,0-0.3,0c-2.7,0-4.6-1.6-4.7-4.8h1.8c0,2,1.2,3.1,2.9,3.1
			c1.3,0.1,2.5-1,2.5-2.3c0-0.1,0-0.2,0-0.3c0-1.8-1.3-2.5-3.3-3.2s-3.5-1.6-3.5-4.3c-0.1-2.1,1.6-3.9,3.7-4c0.2,0,0.3,0,0.5,0
			c2.6,0,4.1,1.5,4.2,4.3L870,627.2z"/>
		<path class="st1" d="M893.9,638.3h-1.7c0-1.4,0-2.2,0-3c-0.4,1.9-2,3.3-4,3.3c-3,0-5-3.2-5-7.8s1.9-7.9,5-7.9
			c1.7,0,3.1,0.9,3.9,3.2c-0.1-0.9-0.1-1.7-0.1-2.8v-5.4h1.8L893.9,638.3z M885,630.8c0,3.4,1.2,6,3.5,6c1.1,0,2.1-0.7,2.6-1.7
			c1.1-2.8,1.1-6,0-8.8c-0.5-1-1.5-1.6-2.6-1.6C886.2,624.7,885,627.3,885,630.8L885,630.8z"/>
		<path class="st1" d="M908.5,638.3h-1.7c0-1.3,0-2.2,0-2.9c-0.4,1.9-2.1,3.2-4,3.2c-3,0-5-3.2-5-7.8s1.9-7.9,5-7.9
			c1.7,0,3.2,0.9,4,3.3c0-0.9,0-1.8,0-2.9h1.7V638.3z M899.7,630.8c0,3.4,1.2,6,3.5,6c1.1,0,2.1-0.7,2.6-1.7c0.7-1.4,1-2.9,0.9-4.4
			c0.1-1.5-0.2-3-0.9-4.4c-0.5-1-1.5-1.6-2.6-1.7C900.9,624.7,899.7,627.4,899.7,630.8L899.7,630.8z"/>
		<path class="st1" d="M913.3,623.3h1.7c0,0.9,0,1.6-0.1,2.6c0.6-1.8,2.3-3,4.3-2.9c2.6,0,4.3,1.5,4.3,5.1v10.2h-1.8v-9.7
			c0-1.5-0.2-3.9-2.9-3.9c-2.2,0-3.6,1.5-3.6,4.7v8.9h-1.8L913.3,623.3z"/>
		<path class="st1" d="M934.2,627.2c0-1.9-1-2.6-2.4-2.6c-1.2,0-2.1,0.9-2.2,2.1c0,0.1,0,0.1,0,0.2c0,1.7,1.4,2.3,3.2,2.8
			c1.7,0.5,3.6,1.5,3.6,4.5c0.1,2.4-1.8,4.4-4.1,4.5c-0.1,0-0.2,0-0.3,0c-2.7,0-4.6-1.6-4.7-4.8h1.8c0,2,1.2,3.1,2.9,3.1
			c1.3,0.1,2.5-1,2.5-2.3c0-0.1,0-0.2,0-0.3c0-1.8-1.3-2.5-3.3-3.2s-3.5-1.6-3.5-4.3c-0.1-2.1,1.6-3.9,3.7-4c0.2,0,0.3,0,0.5,0
			c2.6,0,4.1,1.5,4.2,4.3L934.2,627.2z"/>
		<path class="st1" d="M958,638.3h-1.7c0-1.4,0-2.2,0-3c-0.4,1.9-2,3.3-4,3.3c-3,0-5-3.2-5-7.8s1.9-7.9,5-7.9c1.7,0,3.1,0.9,3.9,3.2
			c-0.1-0.9-0.1-1.7-0.1-2.8v-5.4h1.9V638.3z M949.2,630.8c0,3.4,1.2,6,3.5,6c1.1,0,2.1-0.7,2.6-1.7c1.1-2.8,1.1-6,0-8.8
			c-0.5-1-1.5-1.6-2.6-1.6C950.4,624.7,949.2,627.3,949.2,630.8L949.2,630.8z"/>
		<path class="st1" d="M964,631.4c0,3.1,1.3,5.6,3.8,5.6c1.7,0,3.2-1.3,3.4-3h1.9c-0.2,1.4-0.9,2.6-1.9,3.5
			c-0.9,0.8-2.1,1.2-3.3,1.2c-4.1,0-5.8-4-5.8-7.8c0-4.7,2.2-7.9,5.7-7.9c1.6,0,3.1,0.8,4,2.1c1.1,1.9,1.6,4.1,1.4,6.3L964,631.4z
			 M971.2,629.7c-0.1-3.1-1.3-5.2-3.6-5.2s-3.6,2.2-3.7,5.2H971.2z"/>
		<path class="st1" d="M983.1,627.2c0-1.9-1-2.6-2.4-2.6c-1.2,0-2.1,0.9-2.2,2.1c0,0.1,0,0.1,0,0.2c0,1.7,1.4,2.3,3.2,2.8
			c1.7,0.5,3.6,1.5,3.6,4.5c0.1,2.4-1.8,4.4-4.1,4.5c-0.1,0-0.2,0-0.3,0c-2.7,0-4.6-1.6-4.7-4.8h1.8c0,2,1.2,3.1,2.9,3.1
			c1.3,0.1,2.5-0.9,2.5-2.3c0-0.1,0-0.2,0-0.4c0-1.8-1.3-2.5-3.3-3.2s-3.5-1.6-3.5-4.3c-0.1-2.1,1.6-3.9,3.7-4c0.2,0,0.3,0,0.5,0
			c2.6,0,4.1,1.5,4.2,4.3L983.1,627.2z"/>
		<path class="st1" d="M1007,633.2c-0.3,3.1-2,5.5-5,5.5c-4,0-5.8-3.8-5.8-7.8c0-4.9,2.3-7.9,5.7-7.9c3.1,0,4.8,2.4,5,5.5h-1.9
			c-0.3-3-1.7-3.8-3.2-3.8c-1.1-0.1-2.2,0.6-2.7,1.6c-0.7,1.4-1.1,3-1,4.5c0,4,1.3,6.1,3.7,6.1c1.8,0,2.9-1.5,3.2-3.7L1007,633.2z"
			/>
		<path class="st1" d="M1009.7,630.8c0-4.3,1.8-7.8,5.8-7.8s5.8,3.6,5.8,7.9s-1.8,7.9-5.8,7.9S1009.7,635.1,1009.7,630.8
			L1009.7,630.8z M1011.6,630.8c0,4,1.3,6.1,3.9,6.1s3.8-2.1,3.8-6.1s-1.3-6.1-3.9-6.1S1011.6,626.8,1011.6,630.8L1011.6,630.8z"/>
		<path class="st1" d="M1025.2,623.3h1.7c0,0.9,0,1.6-0.1,2.6c0.6-1.8,2.3-3,4.3-2.9c2.6,0,4.3,1.5,4.3,5.1v10.2h-1.8v-9.7
			c0-1.5-0.2-3.9-2.9-3.9c-2.2,0-3.6,1.5-3.6,4.7v8.9h-1.8L1025.2,623.3z"/>
		<path class="st1" d="M1049.9,638.3h-1.7c0-1.4,0-2.2,0-3c-0.4,1.9-2,3.3-4,3.3c-3,0-5-3.2-5-7.8s1.9-7.9,5-7.9
			c1.7,0,3.1,0.9,3.9,3.2c-0.1-0.9-0.1-1.7-0.1-2.8v-5.4h1.8L1049.9,638.3z M1041.1,630.8c0,3.4,1.2,6,3.5,6c1.1,0,2.1-0.7,2.6-1.7
			c1.1-2.8,1.1-6,0-8.8c-0.5-1-1.5-1.6-2.6-1.6C1042.3,624.7,1041.1,627.3,1041.1,630.8L1041.1,630.8z"/>
		<path class="st1" d="M1054.9,617.9h1.8v2.7h-1.8V617.9z M1054.9,623.3h1.8v15h-1.8V623.3z"/>
		<path class="st1" d="M1062.4,625h-2.1v-1.7h2.1v-4.8h1.8v4.8h2.1v1.7h-2.1v13.3h-1.8V625z"/>
		<path class="st1" d="M1070,617.9h1.8v2.7h-1.8V617.9z M1070,623.3h1.8v15h-1.8V623.3z"/>
		<path class="st1" d="M1076,630.8c0-4.3,1.8-7.8,5.8-7.8s5.8,3.6,5.8,7.9s-1.8,7.9-5.8,7.9S1076,635.1,1076,630.8L1076,630.8z
			 M1077.9,630.8c0,4,1.3,6.1,3.9,6.1s3.8-2.1,3.8-6.1s-1.3-6.1-3.9-6.1S1077.9,626.8,1077.9,630.8L1077.9,630.8z"/>
		<path class="st1" d="M1091.5,623.3h1.7c0,0.9,0,1.6-0.1,2.6c0.6-1.8,2.3-3,4.3-2.9c2.6,0,4.3,1.5,4.3,5.1v10.2h-1.8v-9.7
			c0-1.5-0.2-3.9-2.9-3.9c-2.2,0-3.6,1.5-3.6,4.7v8.9h-1.8L1091.5,623.3z"/>
		<path class="st1" d="M1112.4,627.2c0-1.9-1-2.6-2.4-2.6c-1.2,0-2.1,0.9-2.2,2.1c0,0.1,0,0.1,0,0.2c0,1.7,1.4,2.3,3.2,2.8
			c1.7,0.5,3.6,1.5,3.6,4.5c0.1,2.4-1.8,4.4-4.1,4.5c-0.1,0-0.2,0-0.3,0c-2.7,0-4.6-1.6-4.7-4.8h1.8c0,2,1.2,3.1,2.9,3.1
			c1.3,0.1,2.5-0.9,2.5-2.3c0-0.1,0-0.2,0-0.4c0-1.8-1.3-2.5-3.3-3.2s-3.5-1.6-3.5-4.3c-0.1-2.1,1.6-3.9,3.7-4c0.2,0,0.3,0,0.5,0
			c2.6,0,4.1,1.5,4.2,4.3L1112.4,627.2z"/>
		<path class="st1" d="M1136.2,638.3h-1.7c0-1.4,0-2.2,0-3c-0.4,1.9-2,3.3-4,3.3c-3,0-5-3.2-5-7.8s1.9-7.9,5-7.9
			c1.7,0,3.1,0.9,3.9,3.2c-0.1-0.9-0.1-1.7-0.1-2.8v-5.4h1.8L1136.2,638.3z M1127.4,630.8c0,3.4,1.2,6,3.5,6c1.1,0,2.1-0.7,2.6-1.7
			c1.1-2.8,1.1-6,0-8.8c-0.5-1-1.5-1.6-2.6-1.6C1128.6,624.7,1127.4,627.3,1127.4,630.8L1127.4,630.8z"/>
		<path class="st1" d="M1142.2,631.4c0,3.1,1.3,5.6,3.8,5.6c1.7,0,3.2-1.3,3.4-3h1.8c-0.2,1.4-0.9,2.6-1.9,3.5
			c-0.9,0.8-2.1,1.2-3.3,1.2c-4.2,0-5.8-4-5.8-7.8c0-4.7,2.2-7.9,5.7-7.9c1.6,0,3.1,0.8,4,2.1c1.1,1.9,1.6,4.1,1.4,6.3L1142.2,631.4
			z M1149.5,629.7c-0.1-3.1-1.3-5.2-3.6-5.2s-3.6,2.2-3.7,5.2H1149.5z"/>
		<path class="st1" d="M1169.1,627.2c0-1.9-1-2.6-2.4-2.6c-1.2,0-2.1,0.9-2.2,2.1c0,0.1,0,0.1,0,0.2c0,1.7,1.4,2.3,3.2,2.8
			c1.7,0.5,3.6,1.5,3.6,4.5c0.1,2.4-1.8,4.4-4.1,4.5c-0.1,0-0.2,0-0.3,0c-2.7,0-4.6-1.6-4.7-4.8h1.9c0,2,1.2,3.1,2.9,3.1
			c1.3,0.1,2.5-0.9,2.5-2.3c0-0.1,0-0.2,0-0.4c0-1.8-1.3-2.5-3.3-3.2s-3.5-1.6-3.5-4.3c-0.1-2.1,1.6-3.9,3.7-4c0.2,0,0.3,0,0.5,0
			c2.6,0,4.1,1.5,4.2,4.3L1169.1,627.2z"/>
		<path class="st1" d="M1176.5,631.4c0,3.1,1.3,5.6,3.8,5.6c1.7,0,3.2-1.3,3.4-3h1.8c-0.2,1.4-0.9,2.6-1.9,3.5
			c-0.9,0.8-2.1,1.2-3.3,1.2c-4.1,0-5.8-4-5.8-7.8c0-4.7,2.2-7.9,5.7-7.9c1.6,0,3.1,0.8,4,2.1c1.1,1.9,1.6,4.1,1.4,6.3L1176.5,631.4
			z M1183.8,629.7c-0.1-3.1-1.3-5.2-3.6-5.2s-3.6,2.2-3.7,5.2H1183.8z M1183.2,617.1l0.8,1.5l-6.2,3.3l-0.7-1.3L1183.2,617.1z"/>
		<path class="st1" d="M1199.5,633.2c-0.3,3.1-2,5.5-5,5.5c-4,0-5.8-3.8-5.8-7.8c0-4.9,2.3-7.9,5.7-7.9c3.1,0,4.8,2.4,5,5.5h-1.9
			c-0.3-3-1.7-3.8-3.2-3.8c-1.1-0.1-2.2,0.6-2.7,1.6c-0.7,1.4-1.1,3-1,4.5c0,4,1.3,6.1,3.7,6.1c1.8,0,2.9-1.5,3.2-3.7L1199.5,633.2z
			"/>
		<path class="st1" d="M1213.1,638.3h-1.7c0-0.9,0-1.7,0.1-2.6c-0.6,1.8-2.3,3.1-4.2,3c-2.6,0-4.3-1.5-4.3-5.1v-10.3h1.8v9.7
			c0,1.5,0.2,3.9,2.9,3.9c2.2,0,3.6-1.5,3.6-4.7v-8.9h1.8V638.3z"/>
		<path class="st1" d="M1217.8,623.3h1.7c0,1.4,0,2.2-0.1,3.2c0.8-2.9,2.7-3.5,4-3.5v2.2c-0.2-0.1-0.4-0.2-0.7-0.2
			c-1.3,0-3.1,1.6-3.1,5.4v8.1h-1.8V623.3z"/>
		<path class="st1" d="M1226.8,617.9h1.8v2.7h-1.8V617.9z M1226.8,623.3h1.8v15h-1.8V623.3z"/>
		<path class="st1" d="M1234.4,625h-2.1v-1.7h2.1v-4.8h1.8v4.8h2.1v1.7h-2.1v13.3h-1.8V625z"/>
		<path class="st1" d="M1242.5,631.4c0,3.1,1.3,5.6,3.8,5.6c1.7,0,3.2-1.3,3.4-3h1.8c-0.2,1.4-0.9,2.6-1.9,3.5
			c-0.9,0.8-2.1,1.2-3.3,1.2c-4.1,0-5.8-4-5.8-7.8c0-4.7,2.2-7.9,5.7-7.9c1.6,0,3.1,0.8,4,2.1c1.1,1.9,1.6,4.1,1.4,6.3L1242.5,631.4
			z M1249.8,629.7c-0.1-3.1-1.3-5.2-3.6-5.2s-3.6,2.2-3.7,5.2H1249.8z M1249.2,617.1l0.8,1.5l-6.2,3.3l-0.7-1.3L1249.2,617.1z"/>
		<path class="st1" d="M1262.6,630.8c0-4.3,1.8-7.8,5.8-7.8s5.8,3.6,5.8,7.9s-1.8,7.9-5.8,7.9S1262.6,635.1,1262.6,630.8
			L1262.6,630.8z M1264.5,630.8c0,4,1.3,6.1,3.9,6.1s3.8-2.1,3.8-6.1s-1.3-6.1-3.9-6.1S1264.5,626.8,1264.5,630.8L1264.5,630.8z"/>
		<path class="st1" d="M1278.1,623.3h1.7c0,1.1,0,2,0,2.9c0.8-2.3,2.2-3.2,4-3.2c3,0,5.1,3.1,5.1,7.9c0,4.6-1.9,7.8-5.1,7.8
			c-1.8-0.1-3.4-1.3-3.8-3.1c0.1,0.7,0.1,1.4,0.1,2.7v5.5h-1.8L1278.1,623.3z M1286.9,630.8c0-3.4-1.2-6-3.5-6
			c-1.1,0-2.1,0.7-2.6,1.7c-0.7,1.3-1,2.9-0.9,4.4c-0.1,1.5,0.2,3,0.9,4.4c0.5,1,1.5,1.6,2.6,1.7
			C1285.7,636.9,1286.9,634.3,1286.9,630.8L1286.9,630.8z"/>
		<path class="st1" d="M1293.5,625h-2.1v-1.7h2.1v-4.8h1.8v4.8h2.1v1.7h-2.1v13.3h-1.8V625z"/>
		<path class="st1" d="M1301,617.9h1.8v2.7h-1.8V617.9z M1301,623.3h1.8v15h-1.8V623.3z"/>
		<path class="st1" d="M1307.8,623.3h1.8c0,0.8,0,1.6-0.1,2.5c0.4-1.7,2-2.9,3.8-2.8c1,0,1.9,0.3,2.6,1c0.4,0.5,0.7,1.1,0.8,1.8
			c0.2-0.7,0.7-1.4,1.2-1.9c0.8-0.6,1.8-0.9,2.8-0.9c1.4-0.1,2.8,0.7,3.5,1.9c0.5,1.3,0.8,2.7,0.7,4.1v9.3h-1.8v-9.2
			c0-0.9-0.1-1.9-0.3-2.8c-0.3-1-1.3-1.6-2.3-1.6c-1-0.1-1.9,0.4-2.4,1.2c-0.6,1-0.9,2.1-0.8,3.3v9.1h-1.8v-9.1c0.1-1,0-1.9-0.3-2.9
			c-0.3-1-1.2-1.6-2.3-1.6c-1,0-1.9,0.4-2.4,1.2c-0.6,1-0.9,2.2-0.8,3.4v9h-1.8L1307.8,623.3z"/>
		<path class="st1" d="M1339.7,638.3h-1.7c0-1.3,0-2.2,0-2.9c-0.4,1.9-2.1,3.2-4,3.2c-3,0-5-3.2-5-7.8s1.9-7.9,5-7.9
			c1.7,0,3.2,0.9,4,3.3c0-0.9,0-1.8,0-2.9h1.7V638.3z M1330.8,630.8c0,3.4,1.2,6,3.5,6c1.1,0,2.1-0.7,2.6-1.7c0.7-1.4,1-2.9,0.9-4.4
			c0.1-1.5-0.2-3-0.9-4.4c-0.5-1-1.5-1.6-2.6-1.7C1332,624.7,1330.8,627.4,1330.8,630.8L1330.8,630.8z"/>
		<path class="st1" d="M1344.6,617.9h1.8v20.5h-1.8V617.9z"/>
		<path class="st1" d="M1352.6,631.4c0,3.1,1.3,5.6,3.8,5.6c1.7,0,3.2-1.3,3.4-3h1.8c-0.2,1.4-0.9,2.6-1.9,3.5
			c-0.9,0.8-2.1,1.2-3.3,1.2c-4.2,0-5.8-4-5.8-7.8c0-4.7,2.2-7.9,5.7-7.9c1.6,0,3.1,0.8,4,2.1c1.1,1.9,1.6,4.1,1.4,6.3L1352.6,631.4
			z M1359.9,629.7c-0.1-3.1-1.3-5.2-3.6-5.2s-3.6,2.2-3.7,5.2H1359.9z"/>
		<path class="st1" d="M1371.8,627.2c0-1.9-1-2.6-2.4-2.6c-1.2,0-2.1,0.9-2.2,2.1c0,0.1,0,0.1,0,0.2c0,1.7,1.4,2.3,3.2,2.8
			c1.7,0.5,3.6,1.5,3.6,4.5c0.1,2.4-1.8,4.4-4.1,4.5c-0.1,0-0.2,0-0.3,0c-2.7,0-4.6-1.6-4.7-4.8h1.8c0,2,1.2,3.1,2.9,3.1
			c1.3,0.1,2.5-1,2.5-2.3c0-0.1,0-0.2,0-0.3c0-1.8-1.3-2.5-3.3-3.2s-3.5-1.6-3.5-4.3c-0.1-2.1,1.6-3.9,3.7-4c0.2,0,0.3,0,0.5,0
			c2.6,0,4.1,1.5,4.2,4.3L1371.8,627.2z"/>
		<path class="st1" d="M1378.6,640.6h-1.6l1.8-5.2h1.8L1378.6,640.6z"/>
		<path class="st1" d="M633.5,669.6c0,1.5,0.4,3.4,2.1,3.4c1,0,1.7-0.6,1.9-1.9h3.7c-0.1,1.7-0.9,3.3-2.3,4.4c-1,0.7-2.2,1-3.3,1
			c-4.1,0-6-3.7-6-8.2s1.9-8.2,6-8.2c1.9-0.1,3.6,0.9,4.6,2.5c1.2,2,1.2,4.6,1.2,7L633.5,669.6z M637.6,666.4c0-0.9-0.1-3.3-2-3.3
			c-1.3,0-2.1,1.1-2.1,3.3H637.6z"/>
		<path class="st1" d="M645.1,660.4h3.2v1.5c0.6-1.3,2-2,3.3-1.8c2.5,0,4.1,1.4,4.1,4.6v11.5H652v-10.2c0-1.1-0.2-2.1-1.5-2.1
			c-1,0-1.7,0.5-1.7,1.8v10.5h-3.7L645.1,660.4z"/>
		<path class="st1" d="M666.4,676.1h-3.4l-4.5-15.7h3.8l2.4,10.1l2.1-10.1h3.8L666.4,676.1z"/>
		<path class="st1" d="M672.3,668.2c0-4.5,1.9-8.2,6-8.2s6,3.7,6,8.2s-1.9,8.2-6,8.2S672.3,672.8,672.3,668.2L672.3,668.2z
			 M676.3,668.3c0,3.7,0.8,4.7,2.2,4.7s2.1-1,2.1-4.7s-0.8-4.7-2.2-4.7S676.3,664.6,676.3,668.3L676.3,668.3z"/>
		<path class="st1" d="M690.5,675.2l-4.3-14.8h3.9l2.3,9.1l2.1-9.1h3.9l-6,20.7h-3.8L690.5,675.2z"/>
		<path class="st1" d="M703.9,669.6c0,1.5,0.4,3.4,2.1,3.4c1,0,1.7-0.6,1.9-1.9h3.7c-0.1,1.7-0.9,3.3-2.3,4.4c-1,0.7-2.2,1-3.3,1
			c-4.1,0-6-3.7-6-8.2s1.9-8.2,6-8.2c1.9-0.1,3.6,0.9,4.6,2.5c1.2,2,1.2,4.6,1.2,7L703.9,669.6z M708,666.4c0-0.9-0.1-3.3-2-3.3
			c-1.3,0-2.1,1.1-2.1,3.3H708z"/>
		<path class="st1" d="M714.6,672.6l5.8-8.7h-5.2v-3.5h9.6v3.5l-5.6,8.7h5.6v3.5h-10.2V672.6z"/>
		<path class="st1" d="M744.1,676.1h-3.4l-4.5-15.7h3.8l2.4,10.1l2.1-10.1h3.8L744.1,676.1z"/>
		<path class="st1" d="M750,668.2c0-4.5,1.9-8.2,6-8.2s6,3.7,6,8.2s-1.9,8.2-6,8.2S750,672.8,750,668.2L750,668.2z M753.9,668.3
			c0,3.7,0.8,4.7,2.2,4.7s2.1-1,2.1-4.7s-0.8-4.7-2.2-4.7S753.9,664.6,753.9,668.3L753.9,668.3z"/>
		<path class="st1" d="M766,663.9h-1.7v-3.5h1.7v-3h3.7v3h1.7v3.5h-1.7v12.2H766V663.9z"/>
		<path class="st1" d="M774.4,660.4h3.4v2c0.5-2,1.9-2.4,4-2.4v4.6c-0.5-0.3-1.1-0.5-1.6-0.5c-1.4,0-2,1.2-2,2.8v9.2h-3.7
			L774.4,660.4z"/>
		<path class="st1" d="M787.7,669.6c0,1.5,0.4,3.4,2.1,3.4c1,0,1.7-0.6,1.9-1.9h3.7c-0.1,1.7-0.9,3.3-2.3,4.4c-1,0.7-2.2,1-3.3,1
			c-4.1,0-6-3.7-6-8.2s1.9-8.2,6-8.2c1.9-0.1,3.6,0.9,4.6,2.5c1.2,2,1.2,4.6,1.2,7L787.7,669.6z M791.8,666.4c0-0.9-0.1-3.3-2-3.3
			c-1.3,0-2.1,1.1-2.1,3.3H791.8z"/>
		<path class="st1" d="M822.1,668.2c0,4.7-2.6,8.3-7.4,8.3c-4.5,0-7.4-3.5-7.4-10.6s2.9-10.6,7.4-10.6c5,0,7.5,3.7,7.4,8.5h-4.3
			c-0.1-3.7-1.2-4.5-2.8-4.5c-1.9,0-3.4,1.7-3.4,6.6s1.5,6.6,3.4,6.6c2.2,0,2.7-2.2,2.8-4.3H822.1z"/>
		<path class="st1" d="M824.7,655.7h4.1l3.4,14.1l3.5-14.1h3.9l-5.6,20.5h-3.7L824.7,655.7z"/>
		<path class="st1" d="M854.6,669.6c0,1.5,0.4,3.4,2.1,3.4c1,0,1.7-0.6,1.9-1.9h3.7c-0.1,1.7-0.9,3.3-2.3,4.4c-1,0.7-2.2,1-3.3,1
			c-4.1,0-6-3.7-6-8.2s1.9-8.2,6-8.2c1.9-0.1,3.6,0.9,4.6,2.5c1.2,2,1.2,4.6,1.2,7L854.6,669.6z M858.7,666.4c0-0.9-0.1-3.3-2-3.3
			c-1.3,0-2.1,1.1-2.1,3.3H858.7z"/>
		<path class="st1" d="M866.6,663.9h-1.7v-3.5h1.7v-3h3.7v3h1.7v3.5h-1.7v12.2h-3.7V663.9z"/>
		<path class="st1" d="M884.1,655.7h3.7v20.5h-3.7V655.7z"/>
		<path class="st1" d="M895.9,669.6c0,1.5,0.4,3.4,2.1,3.4c1,0,1.7-0.6,1.9-1.9h3.7c-0.1,1.7-0.9,3.3-2.3,4.4c-1,0.7-2.2,1-3.3,1
			c-4.1,0-6-3.7-6-8.2s1.9-8.2,6-8.2c1.9-0.1,3.6,0.9,4.6,2.5c1.2,2,1.2,4.6,1.2,7L895.9,669.6z M900,666.4c0-0.9-0.1-3.3-2-3.3
			c-1.3,0-2.1,1.1-2.1,3.3H900z"/>
		<path class="st1" d="M907.8,663.9h-1.7v-3.5h1.7v-3h3.7v3h1.7v3.5h-1.7v12.2h-3.7V663.9z"/>
		<path class="st1" d="M916.6,663.9H915v-3.5h1.7v-3h3.7v3h1.6v3.5h-1.7v12.2h-3.7L916.6,663.9z"/>
		<path class="st1" d="M925,660.4h3.4v2c0.5-2,1.9-2.4,4-2.4v4.6c-0.5-0.3-1.1-0.5-1.6-0.5c-1.4,0-2,1.2-2,2.8v9.2H925V660.4z"/>
		<path class="st1" d="M938.3,669.6c0,1.5,0.4,3.4,2.1,3.4c1,0,1.7-0.6,1.9-1.9h3.7c-0.1,1.7-0.9,3.3-2.3,4.4c-1,0.7-2.2,1-3.3,1
			c-4.1,0-6-3.7-6-8.2s1.9-8.2,6-8.2c1.9-0.1,3.6,0.9,4.6,2.5c1.2,2,1.2,4.6,1.2,7L938.3,669.6z M942.4,666.4c0-0.9-0.1-3.3-2-3.3
			c-1.3,0-2.1,1.1-2.1,3.3H942.4z"/>
		<path class="st1" d="M969.2,676.1h-3.4v-1.8c-0.4,1.3-1.6,2.2-3,2.1c-2.8,0-5-2.5-5-8.2c0-5.3,1.7-8.2,5-8.2
			c1.2-0.1,2.3,0.6,2.7,1.7c0-0.4,0-0.9,0-1.3v-4.8h3.7L969.2,676.1z M961.6,668.3c0,3.5,0.8,4.5,2,4.5c0.6,0,1.1-0.2,1.5-0.7
			c0.5-0.6,0.5-1.3,0.5-3.8s0-3.2-0.5-3.8c-0.3-0.5-0.9-0.7-1.5-0.7C962.3,663.8,961.6,664.8,961.6,668.3L961.6,668.3z"/>
		<path class="st1" d="M976.9,669.6c0,1.5,0.4,3.4,2.1,3.4c1,0,1.7-0.6,1.9-1.9h3.7c-0.1,1.7-0.9,3.3-2.3,4.4c-1,0.7-2.2,1-3.3,1
			c-4.1,0-6-3.7-6-8.2s1.9-8.2,6-8.2c1.9-0.1,3.6,0.9,4.6,2.5c1.2,2,1.2,4.6,1.2,7L976.9,669.6z M981,666.4c0-0.9-0.1-3.3-2-3.3
			c-1.3,0-2.1,1.1-2.1,3.3H981z"/>
		<path class="st1" d="M997.4,660.4h3.5v1.8c0.4-1.4,1.7-2.4,3.2-2.2c0.8,0,1.6,0.2,2.2,0.7c0.3,0.3,0.6,0.6,0.8,1
			c0.3-0.4,0.6-0.7,1-1c0.8-0.5,1.7-0.7,2.6-0.7c1.4-0.1,2.7,0.5,3.6,1.5c0.8,0.9,1.2,2.1,1.1,3.3v11.2h-3.7v-10.5
			c0.1-0.5-0.1-1-0.4-1.4c-0.3-0.3-0.8-0.5-1.2-0.4c-0.5,0-0.9,0.1-1.3,0.3c-0.4,0.3-0.5,0.8-0.5,1.3v10.7h-3.7v-10.5
			c0.1-0.5-0.1-1-0.4-1.4c-0.3-0.3-0.8-0.5-1.2-0.4c-0.5,0-0.9,0.1-1.3,0.3c-0.4,0.3-0.5,0.8-0.5,1.3v10.7h-3.7L997.4,660.4z"/>
		<path class="st1" d="M1019.1,668.2c0-4.5,1.9-8.2,6-8.2s6.1,3.7,6.1,8.2s-1.9,8.2-6.1,8.2S1019.1,672.8,1019.1,668.2L1019.1,668.2
			z M1023,668.3c0,3.7,0.8,4.7,2.2,4.7c1.3,0,2.1-1,2.1-4.7s-0.8-4.7-2.2-4.7S1023,664.6,1023,668.3L1023,668.3z"/>
		<path class="st1" d="M1035.1,663.9h-1.7v-3.5h1.7v-3h3.7v3h1.7v3.5h-1.7v12.2h-3.7V663.9z"/>
		<path class="st1" d="M1043.9,655.7h3.7v3.1h-3.7V655.7z M1043.9,660.4h3.7v15.7h-3.7V660.4z"/>
		<path class="st1" d="M1058.8,676.1h-3.4l-4.5-15.7h3.8l2.4,10.1l2.1-10.1h3.8L1058.8,676.1z"/>
		<path class="st1" d="M1076,676.1h-3.4v-1.5c-0.5,1.2-1.7,1.9-3,1.8c-2.8,0-4.9-2.5-4.9-8.2c0-5.3,1.7-8.2,4.9-8.2
			c1.3-0.1,2.5,0.7,3,1.9v-1.6h3.4V676.1z M1068.3,668.3c0,3.5,0.8,4.5,2,4.5c0.6,0,1.1-0.2,1.5-0.7c0.5-0.6,0.5-1.3,0.5-3.8
			s0-3.2-0.5-3.8c-0.3-0.5-0.9-0.7-1.5-0.7C1069.1,663.8,1068.3,664.8,1068.3,668.3L1068.3,668.3z"/>
		<path class="st1" d="M1080.7,663.9h-1.7v-3.5h1.7v-3h3.7v3h1.7v3.5h-1.7v12.2h-3.7V663.9z"/>
		<path class="st1" d="M1089.5,655.7h3.7v3.1h-3.7V655.7z M1089.5,660.4h3.7v15.7h-3.7V660.4z"/>
		<path class="st1" d="M1097.2,668.2c0-4.5,1.9-8.2,6.1-8.2s6.1,3.7,6.1,8.2s-1.9,8.2-6.1,8.2S1097.2,672.8,1097.2,668.2
			L1097.2,668.2z M1101.1,668.3c0,3.7,0.8,4.7,2.2,4.7s2.1-1,2.1-4.7s-0.8-4.7-2.2-4.7S1101.1,664.6,1101.1,668.3L1101.1,668.3z"/>
		<path class="st1" d="M1112.8,660.4h3.2v1.5c0.6-1.3,2-2,3.3-1.8c2.5,0,4.1,1.4,4.1,4.6v11.5h-3.7v-10.2c0-1.1-0.2-2.1-1.6-2.1
			c-1,0-1.7,0.5-1.7,1.8v10.5h-3.7L1112.8,660.4z"/>
		<path class="st1" d="M1147.2,676.1h-3.4v-1.5c-0.5,1.2-1.7,1.9-3,1.8c-2.8,0-4.9-2.5-4.9-8.2c0-5.3,1.7-8.2,4.9-8.2
			c1.3-0.1,2.5,0.7,3,1.9v-1.6h3.4V676.1z M1144.5,657.1l-1.3,2.4l-6.4-2.8l1.4-3L1144.5,657.1z M1139.5,668.3c0,3.5,0.8,4.5,2,4.5
			c0.6,0,1.1-0.2,1.5-0.7c0.5-0.6,0.5-1.3,0.5-3.8s0-3.2-0.5-3.8c-0.3-0.5-0.9-0.7-1.5-0.7C1140.3,663.8,1139.5,664.8,1139.5,668.3
			L1139.5,668.3z"/>
		<path class="st1" d="M1160.6,655.7h3.7v20.5h-3.7V655.7z"/>
		<path class="st1" d="M1169.8,655.7h3.9l-2.9,6.9h-3.3L1169.8,655.7z"/>
		<path class="st1" d="M1186.9,676.1h-3.4v-1.5c-0.5,1.2-1.7,1.9-3,1.8c-2.8,0-4.9-2.5-4.9-8.2c0-5.3,1.7-8.2,4.9-8.2
			c1.3-0.1,2.5,0.7,3,1.9v-1.6h3.4V676.1z M1179.2,668.3c0,3.5,0.8,4.5,2,4.5c0.6,0,1.1-0.2,1.5-0.7c0.5-0.6,0.5-1.3,0.5-3.8
			s0-3.2-0.5-3.8c-0.3-0.5-0.9-0.7-1.5-0.7C1180,663.8,1179.2,664.8,1179.2,668.3L1179.2,668.3z"/>
		<path class="st1" d="M1201.8,676.1h-3.4v-1.8c-0.4,1.3-1.6,2.2-3,2.1c-2.8,0-4.9-2.5-4.9-8.2c0-5.3,1.7-8.2,4.9-8.2
			c1.2-0.1,2.3,0.6,2.7,1.7c0-0.4,0-0.9,0-1.3v-4.8h3.7L1201.8,676.1z M1194.2,668.3c0,3.5,0.8,4.5,2,4.5c0.6,0,1.1-0.2,1.5-0.7
			c0.5-0.6,0.5-1.3,0.5-3.8s0-3.2-0.5-3.8c-0.3-0.5-0.9-0.7-1.5-0.7C1194.9,663.8,1194.2,664.8,1194.2,668.3L1194.2,668.3z"/>
		<path class="st1" d="M1206.1,660.4h3.4v2c0.6-2,1.9-2.4,4-2.4v4.6c-0.5-0.3-1.1-0.5-1.6-0.5c-1.4,0-2,1.2-2,2.8v9.2h-3.7
			L1206.1,660.4z"/>
		<path class="st1" d="M1219.4,669.6c0,1.5,0.4,3.4,2.1,3.4c1,0,1.7-0.6,1.9-1.9h3.6c-0.1,1.7-0.9,3.3-2.3,4.4c-1,0.7-2.2,1-3.3,1
			c-4.1,0-6.1-3.7-6.1-8.2s1.9-8.2,6.1-8.2c1.9-0.1,3.6,0.9,4.6,2.5c1.2,2,1.2,4.6,1.2,7L1219.4,669.6z M1223.5,666.4
			c0-0.9-0.1-3.3-2-3.3c-1.3,0-2.1,1.1-2.1,3.3H1223.5z"/>
		<path class="st1" d="M1236.8,665.1c-0.1-1.2-0.5-1.8-1.7-1.8c-0.6-0.1-1.2,0.4-1.3,1c0,0.1,0,0.1,0,0.2c0,1.3,1.8,1.4,3.5,2
			c2.2,0.5,3.8,2.5,3.5,4.8c0,2.9-2.3,5.1-5.6,5.1c-3,0-5.4-1.7-5.7-5.4h3.7c0,1.1,0.9,2,2,2c0,0,0.1,0,0.1,0
			c0.8,0.1,1.5-0.5,1.5-1.3c0-0.1,0-0.2,0-0.3c0-1.3-1.8-1.5-3.5-2.1s-3.5-1.7-3.5-4.8c0-2.6,1.8-4.6,5.4-4.6s5,1.9,5.2,5
			L1236.8,665.1z"/>
		<path class="st1" d="M1250.2,665.1c-0.1-1.2-0.5-1.8-1.7-1.8c-0.6-0.1-1.2,0.4-1.3,1c0,0.1,0,0.1,0,0.2c0,1.3,1.8,1.4,3.5,2
			c2.2,0.5,3.8,2.5,3.5,4.8c0,2.9-2.3,5.1-5.6,5.1c-3,0-5.4-1.7-5.7-5.4h3.7c0,1.1,0.9,2,2,2c0,0,0.1,0,0.1,0
			c0.8,0.1,1.5-0.5,1.5-1.3c0-0.1,0-0.2,0-0.3c0-1.3-1.8-1.5-3.5-2.1s-3.5-1.7-3.5-4.8c0-2.6,1.8-4.6,5.4-4.6s5,1.9,5.2,5
			L1250.2,665.1z"/>
		<path class="st1" d="M1261,669.6c0,1.5,0.4,3.4,2.1,3.4c1,0,1.7-0.6,1.9-1.9h3.7c-0.1,1.7-0.9,3.3-2.3,4.4c-1,0.7-2.2,1-3.3,1
			c-4.1,0-6.1-3.7-6.1-8.2s1.9-8.2,6.1-8.2c1.9-0.1,3.6,0.9,4.6,2.5c1.2,2,1.2,4.6,1.2,7L1261,669.6z M1265.1,666.4
			c0-0.9-0.1-3.3-2-3.3c-1.3,0-2.1,1.1-2.1,3.3H1265.1z"/>
		<path class="st1" d="M1285.4,666.7h-3.7v-4.1h3.7V666.7z M1285.4,676.1h-3.7V672h3.7V676.1z"/>
		<path class="st1" d="M748,708.7c0,0.9-0.1,1.8-0.5,2.6c-0.5,1-1.3,1.9-2.3,2.4c-0.9,0.4-2,0.7-3,0.6c-3.5,0-5.9-1.9-5.9-5.6v-1.2
			h4.2v0.4c0,2,0.5,2.5,1.7,2.5c0.5,0.1,1-0.1,1.3-0.5c0.3-0.6,0.5-1.3,0.4-2v-14.5h4.2V708.7z"/>
		<path class="st1" d="M755.9,707.4c0,1.5,0.4,3.4,2.1,3.4c1,0,1.7-0.6,1.9-1.9h3.7c-0.1,1.7-0.9,3.3-2.3,4.4c-1,0.7-2.2,1-3.3,1
			c-4.1,0-6-3.7-6-8.2s1.9-8.2,6-8.2c1.9-0.1,3.6,0.9,4.6,2.5c1.2,2,1.2,4.6,1.2,7L755.9,707.4z M760,704.2c0-0.9-0.1-3.3-2-3.3
			c-1.3,0-2.1,1.1-2.1,3.3H760z"/>
		<path class="st1" d="M766,693.5h4.1l3.4,14.1l3.5-14.1h3.9l-5.6,20.5h-3.7L766,693.5z"/>
		<path class="st1" d="M783.9,698.2h3.4v1.5c0.5-1.2,1.7-1.9,3-1.8c2.8,0,5,2.5,5,8.2c0,5.3-1.7,8.2-5,8.2c-1.1,0-2.2-0.5-2.7-1.5
			v6.1h-3.7L783.9,698.2z M791.5,706c0-3.5-0.7-4.5-2-4.5c-0.5,0-1.1,0.2-1.3,0.7c-0.5,0.6-0.6,1.3-0.6,3.8s0.1,3.2,0.6,3.8
			c0.3,0.4,0.8,0.7,1.3,0.7C790.8,710.5,791.5,709.5,791.5,706L791.5,706z"/>
		<path class="st1" d="M809.4,713.9H806v-1.5c-0.5,1.2-1.7,1.9-3,1.8c-2.8,0-5-2.5-5-8.2c0-5.3,1.7-8.2,5-8.2c1.3-0.1,2.5,0.7,3,1.9
			v-1.6h3.4L809.4,713.9z M801.8,706.1c0,3.5,0.8,4.5,2,4.5c0.6,0,1.1-0.2,1.5-0.7c0.5-0.6,0.5-1.3,0.5-3.8s0-3.2-0.5-3.8
			c-0.3-0.5-0.9-0.7-1.5-0.7C802.5,701.6,801.8,702.6,801.8,706.1L801.8,706.1z"/>
		<path class="st1" d="M813.7,698.2h3.4v2c0.5-2,1.9-2.4,4-2.4v4.6c-0.5-0.3-1.1-0.5-1.6-0.5c-1.4,0-2,1.2-2,2.8v9.2h-3.7
			L813.7,698.2z"/>
		<path class="st1" d="M824.5,701.7h-1.7v-3.5h1.7v-3h3.7v3h1.7v3.5h-1.7v12.2h-3.7V701.7z"/>
		<path class="st1" d="M831.9,706c0-4.5,1.9-8.2,6-8.2s6,3.7,6,8.2s-1.9,8.2-6,8.2S831.9,710.6,831.9,706L831.9,706z M835.8,706.1
			c0,3.7,0.8,4.7,2.2,4.7s2.1-1,2.1-4.7s-0.8-4.7-2.2-4.7S835.8,702.3,835.8,706.1L835.8,706.1z"/>
		<path class="st1" d="M846.8,706c0-4.5,1.9-8.2,6-8.2s6,3.7,6,8.2s-1.9,8.2-6,8.2S846.8,710.6,846.8,706L846.8,706z M850.8,706.1
			c0,3.7,0.8,4.7,2.2,4.7s2.1-1,2.1-4.7s-0.8-4.7-2.2-4.7S850.8,702.3,850.8,706.1L850.8,706.1z"/>
		<path class="st1" d="M871.3,693.5h9.5v3.9h-5.2v3.9h5.2v3.9h-5.2v8.8h-4.2V693.5z"/>
		<path class="st1" d="M884.5,698.2h3.4v2c0.5-2,1.9-2.4,4-2.4v4.6c-0.5-0.3-1.1-0.5-1.6-0.5c-1.4,0-2,1.2-2,2.8v9.2h-3.7
			L884.5,698.2z"/>
		<path class="st1" d="M905,713.9h-3.4v-1.5c-0.5,1.2-1.7,1.9-3,1.8c-2.8,0-5-2.5-5-8.2c0-5.3,1.7-8.2,5-8.2c1.3-0.1,2.5,0.7,3,1.9
			v-1.6h3.4V713.9z M897.3,706.1c0,3.5,0.8,4.5,2,4.5c0.6,0,1.1-0.2,1.5-0.7c0.5-0.6,0.5-1.3,0.5-3.8s0-3.2-0.5-3.8
			c-0.3-0.5-0.9-0.7-1.5-0.7C898.1,701.6,897.3,702.6,897.3,706.1L897.3,706.1z"/>
		<path class="st1" d="M909.3,698.2h3.2v1.5c0.6-1.3,2-2,3.3-1.8c2.5,0,4.1,1.4,4.1,4.6v11.5h-3.7v-10.2c0-1.1-0.2-2.1-1.5-2.1
			c-1,0-1.7,0.5-1.7,1.8v10.5h-3.7L909.3,698.2z"/>
		<path class="st1" d="M934.5,707.9c0,3.2-1.6,6.3-5.1,6.3c-3.7,0-6.1-2.9-6.1-8.2s2.3-8.2,6.1-8.2c3.5,0,5.1,3,5.1,6.3h-3.9
			c0-1.9-0.5-2.8-1.5-2.8c-0.6,0-1.2,0.4-1.4,1c-0.4,1.2-0.6,2.4-0.5,3.7c0,3.6,0.7,4.7,1.9,4.7s1.5-1.3,1.5-2.8H934.5z"/>
		<path class="st1" d="M941,707.4c0,1.5,0.4,3.4,2.1,3.4c1,0,1.7-0.6,1.9-1.9h3.7c-0.1,1.7-0.9,3.3-2.3,4.4c-1,0.7-2.2,1-3.3,1
			c-4.1,0-6-3.7-6-8.2s1.9-8.2,6-8.2c1.9-0.1,3.6,0.9,4.6,2.5c1.2,2,1.2,4.6,1.2,7L941,707.4z M945.1,704.2c0-0.9-0.1-3.3-2-3.3
			c-1.3,0-2.1,1.1-2.1,3.3H945.1z"/>
		<path class="st1" d="M967.8,704.2v3.6h-6.9v-3.6H967.8z"/>
		<path class="st1" d="M980.5,693.5h5.3c2.9,0,4.8,0.8,5.6,1.8c1.1,1.3,1.7,3,1.7,4.7c0,1.1-0.2,2.1-0.6,3.1
			c-0.5,1.1-1.3,2.1-2.4,2.7l3.9,8.2h-4.7l-4.5-10.4c0.5,0,0.7,0,1,0c0.8,0,1.5-0.3,2.1-0.8c0.6-0.6,0.9-1.5,0.9-2.3
			c0.1-0.9-0.3-1.9-1-2.5c-0.6-0.4-1.4-0.6-2.2-0.5h-1v16.6h-4.2L980.5,693.5z"/>
		<path class="st1" d="M996.1,706c0-4.5,1.9-8.2,6-8.2s6,3.7,6,8.2s-1.9,8.2-6,8.2S996.1,710.6,996.1,706L996.1,706z M1000,706.1
			c0,3.7,0.8,4.7,2.2,4.7s2.1-1,2.1-4.7s-0.8-4.7-2.2-4.7S1000,702.3,1000,706.1L1000,706.1z"/>
		<path class="st1" d="M1022.4,713.9h-3.3v-1.7c-0.5,1.3-1.3,2-3.2,2c-2.5,0-4.1-1.4-4.1-4.6v-11.5h3.7v10.2c0,1.1,0.2,2.1,1.5,2.1
			c1,0,1.7-0.5,1.7-1.8v-10.5h3.7L1022.4,713.9z"/>
		<path class="st1" d="M1027.1,701.7h-1.7v-3.5h1.7v-3h3.7v3h1.7v3.5h-1.7v12.2h-3.7V701.7z"/>
		<path class="st1" d="M1038.6,707.4c0,1.5,0.4,3.4,2.1,3.4c1,0,1.7-0.6,1.9-1.9h3.7c-0.1,1.7-0.9,3.3-2.3,4.4c-1,0.7-2.2,1-3.3,1
			c-4.1,0-6.1-3.7-6.1-8.2s1.9-8.2,6.1-8.2c1.9-0.1,3.6,0.9,4.6,2.5c1.2,2,1.2,4.6,1.2,7L1038.6,707.4z M1042.7,704.2
			c0-0.9-0.1-3.3-2-3.3c-1.3,0-2.1,1.1-2.1,3.3H1042.7z"/>
		<path class="st1" d="M1069.5,713.9h-3.4v-1.8c-0.4,1.3-1.6,2.2-3,2.1c-2.8,0-4.9-2.5-4.9-8.2c0-5.3,1.7-8.2,4.9-8.2
			c1.2-0.1,2.3,0.6,2.7,1.7c0-0.4,0-0.9,0-1.3v-4.8h3.7L1069.5,713.9z M1061.9,706.1c0,3.5,0.8,4.5,2,4.5c0.6,0,1.1-0.2,1.5-0.7
			c0.5-0.6,0.5-1.3,0.5-3.8s0-3.2-0.5-3.8c-0.3-0.5-0.9-0.7-1.5-0.7C1062.7,701.6,1061.9,702.6,1061.9,706.1L1061.9,706.1z"/>
		<path class="st1" d="M1084.5,713.9h-3.3v-1.7c-0.5,1.3-1.3,2-3.2,2c-2.5,0-4.1-1.4-4.1-4.6v-11.5h3.7v10.2c0,1.1,0.2,2.1,1.6,2.1
			c1,0,1.7-0.5,1.7-1.8v-10.5h3.7V713.9z"/>
		<path class="st1" d="M1097.7,698.2h3.5v1.8c0.4-1.4,1.7-2.4,3.2-2.2c0.8,0,1.6,0.2,2.2,0.7c0.3,0.3,0.6,0.6,0.8,1
			c0.2-0.4,0.6-0.8,1-1c0.8-0.4,1.7-0.7,2.6-0.7c1.4-0.1,2.7,0.5,3.6,1.5c0.8,0.9,1.2,2.1,1.1,3.3v11.2h-3.7v-10.5
			c0.1-0.5-0.1-1-0.4-1.4c-0.3-0.3-0.8-0.5-1.2-0.4c-0.5,0-0.9,0.1-1.3,0.3c-0.4,0.3-0.5,0.8-0.5,1.3v10.7h-3.7v-10.5
			c0.1-0.5-0.1-1-0.4-1.4c-0.3-0.3-0.8-0.5-1.2-0.4c-0.5,0-0.9,0.1-1.3,0.3c-0.4,0.3-0.5,0.8-0.5,1.3v10.7h-3.7L1097.7,698.2z"/>
		<path class="st1" d="M1119.4,706c0-4.5,1.9-8.2,6.1-8.2s6.1,3.7,6.1,8.2s-1.9,8.2-6.1,8.2S1119.4,710.6,1119.4,706L1119.4,706z
			 M1123.3,706.1c0,3.7,0.8,4.7,2.2,4.7s2.1-1,2.1-4.7s-0.8-4.7-2.2-4.7S1123.3,702.3,1123.3,706.1L1123.3,706.1z"/>
		<path class="st1" d="M1135.1,698.2h3.2v1.5c0.6-1.3,2-2,3.3-1.8c2.5,0,4.1,1.4,4.1,4.6v11.5h-3.7v-10.2c0-1.1-0.2-2.1-1.6-2.1
			c-1,0-1.7,0.5-1.7,1.8v10.5h-3.7L1135.1,698.2z"/>
		<path class="st1" d="M1160.6,713.9h-3.4v-1.8c-0.4,1.3-1.6,2.2-3,2.1c-2.8,0-4.9-2.5-4.9-8.2c0-5.3,1.7-8.2,4.9-8.2
			c1.2-0.1,2.3,0.6,2.7,1.7c0-0.4,0-0.9,0-1.3v-4.8h3.7L1160.6,713.9z M1152.9,706.1c0,3.5,0.8,4.5,2,4.5c0.6,0,1.1-0.2,1.5-0.7
			c0.5-0.6,0.5-1.3,0.5-3.8s0-3.2-0.5-3.8c-0.3-0.5-0.9-0.7-1.5-0.7C1153.7,701.6,1152.9,702.6,1152.9,706.1L1152.9,706.1z"/>
		<path class="st1" d="M1168.3,707.4c0,1.5,0.4,3.4,2.1,3.4c1,0,1.7-0.6,1.9-1.9h3.7c-0.1,1.7-0.9,3.3-2.3,4.4c-1,0.7-2.2,1-3.3,1
			c-4.1,0-6.1-3.7-6.1-8.2s1.9-8.2,6.1-8.2c1.9-0.1,3.6,0.9,4.6,2.5c1.2,2,1.2,4.6,1.2,7L1168.3,707.4z M1172.4,704.2
			c0-0.9-0.1-3.3-2-3.3c-1.3,0-2.1,1.1-2.1,3.3H1172.4z"/>
		<g>
			<defs>
				<rect id="SVGID_3_" y="256.1" width="347" height="824.6"/>
			</defs>
			<clipPath id="SVGID_4_">
				<use xlink:href="#SVGID_3_"  style="overflow:visible;"/>
			</clipPath>
			<g class="st11">
				<path class="st0" d="M208.7,621.3l-0.6-0.4l1.4-2.3l1.9-3.2l0,0l5.1-8.6l0.4-0.7l0,0l52.3-88.4l0,0L312.5,410l-24.8-14.7
					l-72.4,90.6l-59.7,100.8l-1.4,2.3l-0.4-0.2c-3.3-1.8-7.4-0.6-9.3,2.7c-1.8,3.2-0.7,7.1,2.3,9.1l5.3,3.1l-230,388.4
					c-7,11.9-3.1,27.2,8.8,34.2l1,0.6c11.9,7,27.2,3.1,34.2-8.8l230-388.4l5.5,3.3c3.2,1.9,7.4,0.9,9.4-2.4S211.9,623.2,208.7,621.3
					L208.7,621.3z"/>
				<path class="st7" d="M-61.1,1043.5l-1-0.6c-11.8-7-15.8-22.3-8.8-34.2l233.4-394.2l44,26.1l-233.4,394.2
					C-34,1046.5-49.3,1050.5-61.1,1043.5z"/>
				<path class="st7" d="M275.8,534.6l-53.6-32.2l72.4-90.6l24.8,14.7L275.8,534.6z"/>
				<path class="st6" d="M106,760.3L106,760.3c-5.2-3.1-6.9-9.8-3.9-15.1L175.8,621l18.9,11.2l-73.6,124.3
					C118,761.7,111.3,763.4,106,760.3C106,760.3,106,760.3,106,760.3z"/>
				
					<rect x="153.9" y="541.4" transform="matrix(0.5095 -0.8605 0.8605 0.5095 -386.3453 467.5703)" class="st7" width="126.2" height="62.5"/>
				<path class="st7" d="M208.6,649.6l-54.9-32.5c-3.2-1.9-4.3-6.1-2.4-9.3l0,0c1.9-3.2,6.1-4.3,9.3-2.4l54.9,32.5
					c3.2,1.9,4.3,6.1,2.4,9.3l0,0C216,650.5,211.8,651.5,208.6,649.6C208.6,649.6,208.6,649.6,208.6,649.6z"/>
				
					<rect x="186" y="587.4" transform="matrix(0.5101 -0.8601 0.8601 0.5101 -439.3968 465.8216)" class="st6" width="6.4" height="62.5"/>
				
					<rect x="191.9" y="578.3" transform="matrix(0.5095 -0.8605 0.8605 0.5095 -428.7666 466.8739)" class="st6" width="6.4" height="62.5"/>
				
					<rect x="197.2" y="568.5" transform="matrix(0.5101 -0.8601 0.8601 0.5101 -417.7428 466.2036)" class="st6" width="6.4" height="62.5"/>
			</g>
		</g>
		<path class="st12" d="M496.4,211.3c-0.1,0-0.1,0-0.2,0v53.9c0.1,0,0.1,0,0.2,0c14.9,0,27-12.1,27-27
			C523.4,223.4,511.3,211.3,496.4,211.3z"/>
		<text transform="matrix(1 0 0 1 484.96 254.08)" class="st1 st13 st14 st15">4</text>
	</g>
</g>
<g>
	<g>
		<path class="st16" d="M770.1,322.4c0,3.6-2.1,7.1-6.4,7.1c-4.4,0-7.2-3.7-7.2-10.7c0-6.5,2.4-10.7,7.2-10.7c4.3,0,6.5,3.6,6.4,7.5
			H768c-0.1-2.7-1.1-5.6-4.3-5.6c-3.6,0-5.1,3.5-5.1,8.9c0,5.8,2.2,8.5,5.1,8.5c3.2,0,4.1-2.6,4.3-5.1H770.1z"/>
		<path class="st16" d="M773,321.5c0-4.3,1.8-7.9,5.8-7.9c4,0,5.8,3.6,5.8,7.9s-1.8,7.9-5.8,7.9C774.8,329.5,773,325.9,773,321.5
			L773,321.5z M775,321.6c0,4,1.3,6.2,3.9,6.2c2.5,0,3.8-2.1,3.8-6.2s-1.3-6.2-3.9-6.2C776.3,315.4,775,317.5,775,321.6L775,321.6z"
			/>
		<path class="st16" d="M788.6,314h1.7c0,0.9,0,1.6-0.1,2.6c0.8-2.1,2.5-3,4.3-3c2.6,0,4.3,1.5,4.3,5.2v10.3H797v-9.7
			c0-1.5-0.2-3.9-2.9-3.9c-2.2,0-3.6,1.5-3.6,4.7v9h-1.9V314z"/>
		<path class="st16" d="M804.3,315.8h-2.1V314h2.1v-4.8h1.9v4.8h2.1v1.8h-2.1v13.4h-1.9V315.8z"/>
		<path class="st16" d="M811.7,314h1.7c0,1.4,0,2.3-0.1,3.2c0.8-3,2.7-3.5,4-3.5v2.2c-0.2-0.1-0.4-0.2-0.7-0.2
			c-1.3,0-3.1,1.6-3.1,5.4v8.1h-1.9V314z"/>
		<path class="st16" d="M830.1,329.1h-1.7c0-1.3,0-2.2,0-2.9c-0.7,2.1-2.1,3.3-4,3.3c-3,0-5.1-3.2-5.1-7.9c0-4.7,1.9-8,5.1-8
			c1.7,0,3.2,0.9,4,3.3c0-0.9,0-1.8,0-2.9h1.7V329.1z M821.2,321.6c0,3.4,1.2,6.1,3.5,6.1c1.2,0,2-0.6,2.6-1.7
			c0.6-1.1,0.9-2.4,0.9-4.4c0-2-0.2-3.4-0.9-4.4c-0.6-1-1.4-1.7-2.6-1.7C822.4,315.5,821.2,318.1,821.2,321.6L821.2,321.6z"/>
		<path class="st16" d="M835.6,315.8h-2.1V314h2.1v-4.8h1.9v4.8h2.1v1.8h-2.1v13.4h-1.9V315.8z"/>
		<path class="st16" d="M860.7,329.1H859c0-1.3,0-2.2,0-2.9c-0.7,2.1-2.1,3.3-4,3.3c-3,0-5.1-3.2-5.1-7.9c0-4.7,1.9-8,5.1-8
			c1.7,0,3.2,0.9,4,3.3c0-0.9,0-1.8,0-2.9h1.7V329.1z M858.6,311.2l-0.7,1.3l-6.2-3.3l0.8-1.5L858.6,311.2z M851.8,321.6
			c0,3.4,1.2,6.1,3.5,6.1c1.2,0,2-0.6,2.6-1.7c0.6-1.1,0.9-2.4,0.9-4.4c0-2-0.2-3.4-0.9-4.4c-0.6-1-1.4-1.7-2.6-1.7
			C853.1,315.5,851.8,318.1,851.8,321.6L851.8,321.6z"/>
		<path class="st16" d="M883.3,329.1h-1.7c0-1.4,0-2.2,0-3c-0.5,2.1-2.1,3.4-4,3.4c-3,0-5.1-3.2-5.1-7.9c0-4.7,1.9-8,5.1-8
			c1.7,0,3.1,0.9,3.9,3.2c-0.1-0.9-0.1-1.7-0.1-2.8v-5.5h1.9V329.1z M874.4,321.6c0,3.4,1.2,6.1,3.5,6.1c1.2,0,2-0.6,2.6-1.7
			c0.6-1.1,0.9-2.4,0.9-4.4s-0.2-3.4-0.9-4.4c-0.6-1-1.4-1.6-2.6-1.6C875.6,315.5,874.4,318.1,874.4,321.6L874.4,321.6z"/>
		<path class="st16" d="M889.3,322.1c0,3.1,1.3,5.6,3.8,5.6c1.8,0,3-1.3,3.4-3h1.8c-0.3,1.6-1,2.8-1.9,3.6c-0.9,0.8-2.1,1.2-3.3,1.2
			c-4.2,0-5.8-4-5.8-7.9c0-4.7,2.2-8,5.7-8c1.8,0,3.2,0.8,4.1,2.1c1.2,1.8,1.4,4.1,1.4,6.3H889.3z M896.6,320.5
			c-0.1-3.1-1.4-5.3-3.6-5.3c-2.2,0-3.6,2.3-3.7,5.3H896.6z M896,307.7l0.8,1.5l-6.2,3.3l-0.7-1.3L896,307.7z"/>
		<path class="st16" d="M903.2,315.8h-2.1V314h2.1v-4.8h1.9v4.8h2.1v1.8h-2.1v13.4h-1.9V315.8z"/>
		<path class="st16" d="M911.4,322.1c0,3.1,1.3,5.6,3.8,5.6c1.8,0,3-1.3,3.4-3h1.8c-0.3,1.6-1,2.8-1.9,3.6c-0.9,0.8-2.1,1.2-3.3,1.2
			c-4.2,0-5.8-4-5.8-7.9c0-4.7,2.2-8,5.7-8c1.8,0,3.2,0.8,4.1,2.1c1.2,1.8,1.4,4.1,1.4,6.3H911.4z M918.8,320.5
			c-0.1-3.1-1.4-5.3-3.6-5.3c-2.2,0-3.6,2.3-3.7,5.3H918.8z"/>
		<path class="st16" d="M924.6,314h1.7c0,1.4,0,2.3-0.1,3.2c0.8-3,2.7-3.5,4-3.5v2.2c-0.2-0.1-0.4-0.2-0.7-0.2
			c-1.3,0-3.1,1.6-3.1,5.4v8.1h-1.9V314z"/>
		<path class="st16" d="M933.5,314h1.8c0,0.8,0,1.6-0.1,2.5c0.8-2.4,2.5-2.8,3.8-2.8c1.1,0,1.9,0.3,2.6,1c0.4,0.4,0.7,1.1,0.8,1.8
			c0.3-0.8,0.7-1.4,1.3-1.9c0.8-0.6,1.7-0.9,2.8-0.9c1.8,0,2.9,0.9,3.5,1.9c0.6,0.9,0.7,2.6,0.7,4.1v9.4h-1.9v-9.3
			c0-1.1-0.1-2.1-0.3-2.8c-0.3-1-1.3-1.6-2.3-1.6c-0.9,0-1.7,0.2-2.4,1.2c-0.6,0.9-0.8,2.2-0.8,3.3v9.1h-1.9V320c0-1.2,0-2-0.3-2.9
			c-0.3-1-1.2-1.6-2.3-1.6c-0.9,0-1.8,0.3-2.4,1.2c-0.7,0.9-0.8,2.2-0.8,3.4v9.1h-1.9V314z"/>
		<path class="st16" d="M955.8,308.5h1.9v2.7h-1.9V308.5z M955.8,314h1.9v15.1h-1.9V314z"/>
		<path class="st16" d="M962.7,314h1.7c0,0.9,0,1.6-0.1,2.6c0.8-2.1,2.5-3,4.3-3c2.6,0,4.3,1.5,4.3,5.2v10.3H971v-9.7
			c0-1.5-0.2-3.9-2.9-3.9c-2.2,0-3.6,1.5-3.6,4.7v9h-1.9V314z"/>
		<path class="st16" d="M978.8,322.1c0,3.1,1.3,5.6,3.8,5.6c1.8,0,3-1.3,3.4-3h1.8c-0.3,1.6-1,2.8-1.9,3.6c-0.9,0.8-2.1,1.2-3.3,1.2
			c-4.2,0-5.8-4-5.8-7.9c0-4.7,2.2-8,5.7-8c1.8,0,3.2,0.8,4.1,2.1c1.2,1.8,1.4,4.1,1.4,6.3H978.8z M986.1,320.5
			c-0.1-3.1-1.4-5.3-3.6-5.3c-2.2,0-3.6,2.3-3.7,5.3H986.1z"/>
		<path class="st16" d="M992,314h1.7c0,1.4,0,2.3-0.1,3.2c0.8-3,2.7-3.5,4-3.5v2.2c-0.2-0.1-0.4-0.2-0.7-0.2c-1.3,0-3.1,1.6-3.1,5.4
			v8.1H992V314z"/>
		<path class="st16" d="M1002.5,329.1h-1.9v-3h1.9V329.1z"/>
		<path class="st16" d="M760.2,365.5H756v-1.9h10.4v1.9h-4.2v18.7h-2.1V365.5z"/>
		<path class="st16" d="M771.1,383.8l-4.4-14.8h1.9L772,381l3.6-12.1h1.9l-6.5,20.7h-1.9L771.1,383.8z"/>
		<path class="st16" d="M780.6,369h1.7c0,1.1,0,2,0,2.9c0.8-2.3,2.2-3.3,4-3.3c3,0,5.1,3.1,5.1,8c0,4.6-1.9,7.9-5.1,7.9
			c-1.8,0-3.3-1.2-3.9-3.1c0.1,0.7,0.1,1.4,0.1,2.8v5.6h-1.9V369z M789.5,376.5c0-3.4-1.2-6.1-3.5-6.1c-1.2,0-2,0.6-2.6,1.7
			c-0.7,1-0.9,2.4-0.9,4.4c0,2,0.3,3.4,0.9,4.4c0.6,1,1.4,1.7,2.6,1.7C788.3,382.7,789.5,380,789.5,376.5L789.5,376.5z"/>
		<path class="st16" d="M796.5,377.1c0,3.1,1.3,5.6,3.8,5.6c1.8,0,3-1.3,3.4-3h1.8c-0.3,1.6-1,2.8-1.9,3.6c-0.9,0.8-2.1,1.2-3.3,1.2
			c-4.2,0-5.8-4-5.8-7.9c0-4.7,2.2-8,5.7-8c1.8,0,3.2,0.8,4.1,2.1c1.2,1.8,1.4,4.1,1.4,6.3H796.5z M803.9,375.5
			c-0.1-3.1-1.4-5.3-3.6-5.3c-2.2,0-3.6,2.3-3.7,5.3H803.9z"/>
		<path class="st16" d="M827.5,384.1h-1.7c0-1.4,0-2.2,0-3c-0.5,2.1-2.1,3.4-4,3.4c-3,0-5.1-3.2-5.1-7.9c0-4.7,1.9-8,5.1-8
			c1.7,0,3.1,0.9,3.9,3.2c-0.1-0.9-0.1-1.7-0.1-2.8v-5.5h1.9V384.1z M818.6,376.6c0,3.4,1.2,6.1,3.5,6.1c1.2,0,2-0.6,2.6-1.7
			c0.6-1.1,0.9-2.4,0.9-4.4s-0.2-3.4-0.9-4.4c-0.6-1-1.4-1.6-2.6-1.6C819.9,370.5,818.6,373.1,818.6,376.6L818.6,376.6z"/>
		<path class="st16" d="M833.5,377.1c0,3.1,1.3,5.6,3.8,5.6c1.8,0,3-1.3,3.4-3h1.8c-0.3,1.6-1,2.8-1.9,3.6c-0.9,0.8-2.1,1.2-3.3,1.2
			c-4.2,0-5.8-4-5.8-7.9c0-4.7,2.2-8,5.7-8c1.8,0,3.2,0.8,4.1,2.1c1.2,1.8,1.4,4.1,1.4,6.3H833.5z M840.9,375.5
			c-0.1-3.1-1.4-5.3-3.6-5.3c-2.2,0-3.6,2.3-3.7,5.3H840.9z"/>
		<path class="st16" d="M864.5,379c-0.3,3.1-2,5.5-5,5.5c-4,0-5.8-3.8-5.8-7.9c0-5,2.3-8,5.8-8c3.1,0,4.9,2.4,5,5.6h-1.9
			c-0.3-3-1.8-3.8-3.2-3.8c-1.1,0-2.1,0.4-2.8,1.6c-0.7,1.2-1,2.6-1,4.6c0,4,1.4,6.2,3.8,6.2c1.9,0,2.9-1.5,3.2-3.8H864.5z"/>
		<path class="st16" d="M867.2,376.5c0-4.3,1.8-7.9,5.8-7.9c4,0,5.8,3.6,5.8,7.9s-1.8,7.9-5.8,7.9
			C869,384.5,867.2,380.9,867.2,376.5L867.2,376.5z M869.2,376.6c0,4,1.3,6.2,3.9,6.2c2.5,0,3.8-2.1,3.8-6.2s-1.3-6.2-3.9-6.2
			C870.5,370.4,869.2,372.5,869.2,376.6L869.2,376.6z"/>
		<path class="st16" d="M882.9,369h1.7c0,0.9,0,1.6-0.1,2.6c0.8-2.1,2.5-3,4.3-3c2.6,0,4.3,1.5,4.3,5.2v10.3h-1.9v-9.7
			c0-1.5-0.2-3.9-2.9-3.9c-2.2,0-3.6,1.5-3.6,4.7v9h-1.9V369z"/>
		<path class="st16" d="M898.5,370.8h-2.1V369h2.1v-4.8h1.9v4.8h2.1v1.8h-2.1v13.4h-1.9V370.8z"/>
		<path class="st16" d="M905.9,369h1.7c0,1.4,0,2.3-0.1,3.2c0.8-3,2.7-3.5,4-3.5v2.2c-0.2-0.1-0.4-0.2-0.7-0.2
			c-1.3,0-3.1,1.6-3.1,5.4v8.1h-1.9V369z"/>
		<path class="st16" d="M924.3,384.1h-1.7c0-1.3,0-2.2,0-2.9c-0.7,2.1-2.1,3.3-4,3.3c-3,0-5.1-3.2-5.1-7.9c0-4.7,1.9-8,5.1-8
			c1.7,0,3.2,0.9,4,3.3c0-0.9,0-1.8,0-2.9h1.7V384.1z M915.4,376.6c0,3.4,1.2,6.1,3.5,6.1c1.2,0,2-0.6,2.6-1.7
			c0.6-1.1,0.9-2.4,0.9-4.4c0-2-0.2-3.4-0.9-4.4c-0.6-1-1.4-1.7-2.6-1.7C916.7,370.5,915.4,373.1,915.4,376.6L915.4,376.6z"/>
		<path class="st16" d="M929.9,370.8h-2.1V369h2.1v-4.8h1.9v4.8h2.1v1.8h-2.1v13.4h-1.9V370.8z"/>
		<path class="st16" d="M947.7,372.8h-1.9v-3h1.9V372.8z M947.7,384.1h-1.9v-3h1.9V384.1z"/>
		<path class="st16" d="M971.1,377.4c0,3.6-2.1,7.1-6.4,7.1c-4.4,0-7.2-3.7-7.2-10.7c0-6.5,2.4-10.7,7.2-10.7c4.3,0,6.5,3.6,6.4,7.5
			H969c-0.1-2.7-1.1-5.6-4.3-5.6c-3.6,0-5.1,3.5-5.1,8.9c0,5.8,2.2,8.5,5.1,8.5c3.2,0,4.1-2.6,4.3-5.1H971.1z"/>
		<path class="st16" d="M974.9,363.5h4.7c2.8,0,5.2,0.7,6.7,3c1.1,1.7,1.8,4.1,1.8,7.3c0,7.9-3.8,10.3-8.5,10.3h-4.8V363.5z
			 M977,382.2h2.5c4.8,0,6.5-3.1,6.5-8.4c0-2.9-0.4-4.9-1.4-6.3c-1-1.4-2.7-2.1-5.1-2.1H977V382.2z"/>
		<path class="st16" d="M992.2,363.5h4.7c2.8,0,5.2,0.7,6.7,3c1.1,1.7,1.8,4.1,1.8,7.3c0,7.9-3.8,10.3-8.5,10.3h-4.8V363.5z
			 M994.3,382.2h2.5c4.8,0,6.5-3.1,6.5-8.4c0-2.9-0.4-4.9-1.4-6.3c-1-1.4-2.7-2.1-5.1-2.1h-2.5V382.2z"/>
		<path class="st16" d="M1027.2,384.1h-1.7c0-1.3,0-2.2,0-2.9c-0.7,2.1-2.1,3.3-4,3.3c-3,0-5.1-3.2-5.1-7.9c0-4.7,1.9-8,5.1-8
			c1.7,0,3.2,0.9,4,3.3c0-0.9,0-1.8,0-2.9h1.7V384.1z M1025.1,366.2l-0.7,1.3l-6.2-3.3l0.8-1.5L1025.1,366.2z M1018.3,376.6
			c0,3.4,1.2,6.1,3.5,6.1c1.2,0,2-0.6,2.6-1.7c0.6-1.1,0.9-2.4,0.9-4.4c0-2-0.2-3.4-0.9-4.4c-0.6-1-1.4-1.7-2.6-1.7
			C1019.6,370.5,1018.3,373.1,1018.3,376.6L1018.3,376.6z"/>
		<path class="st16" d="M1040.6,370.8h-2.1V369h2.1v-4.8h1.9v4.8h2.1v1.8h-2.1v13.4h-1.9V370.8z"/>
		<path class="st16" d="M1048.7,377.1c0,3.1,1.3,5.6,3.8,5.6c1.8,0,3-1.3,3.4-3h1.8c-0.3,1.6-1,2.8-1.9,3.6
			c-0.9,0.8-2.1,1.2-3.3,1.2c-4.2,0-5.8-4-5.8-7.9c0-4.7,2.2-8,5.7-8c1.8,0,3.2,0.8,4.1,2.1c1.2,1.8,1.4,4.1,1.4,6.3H1048.7z
			 M1056.1,375.5c-0.1-3.1-1.4-5.3-3.6-5.3c-2.2,0-3.6,2.3-3.7,5.3H1056.1z"/>
		<path class="st16" d="M1062,369h1.8c0,0.8,0,1.6-0.1,2.5c0.8-2.4,2.5-2.8,3.8-2.8c1.1,0,1.9,0.3,2.6,1c0.4,0.4,0.7,1.1,0.8,1.8
			c0.3-0.8,0.7-1.4,1.3-1.9c0.8-0.6,1.7-0.9,2.8-0.9c1.8,0,2.9,0.9,3.5,1.9c0.6,0.9,0.7,2.6,0.7,4.1v9.4h-1.9v-9.3
			c0-1.1-0.1-2.1-0.3-2.8c-0.3-1-1.3-1.6-2.3-1.6c-0.9,0-1.7,0.2-2.4,1.2c-0.6,0.9-0.8,2.2-0.8,3.3v9.1h-1.9V375c0-1.2,0-2-0.3-2.9
			c-0.3-1-1.2-1.6-2.3-1.6c-0.9,0-1.8,0.3-2.4,1.2c-0.7,0.9-0.8,2.2-0.8,3.4v9.1h-1.9V369z"/>
		<path class="st16" d="M1084.1,369h1.7c0,1.1,0,2,0,2.9c0.8-2.3,2.2-3.3,4-3.3c3,0,5.1,3.1,5.1,8c0,4.6-1.9,7.9-5.1,7.9
			c-1.8,0-3.3-1.2-3.9-3.1c0.1,0.7,0.1,1.4,0.1,2.8v5.6h-1.9V369z M1093,376.5c0-3.4-1.2-6.1-3.5-6.1c-1.2,0-2,0.6-2.6,1.7
			c-0.7,1-0.9,2.4-0.9,4.4c0,2,0.3,3.4,0.9,4.4c0.6,1,1.4,1.7,2.6,1.7C1091.8,382.7,1093,380,1093,376.5L1093,376.5z"/>
		<path class="st16" d="M1104.9,372.9c0-1.9-1-2.6-2.4-2.6c-1.3,0-2.2,0.9-2.2,2.3c0,1.7,1.4,2.3,3.3,2.9c1.7,0.5,3.6,1.5,3.6,4.6
			c0,2.7-1.9,4.5-4.5,4.5c-2.8,0-4.6-1.6-4.7-4.8h1.8c0,2.1,1.2,3.1,2.9,3.1c1.6,0,2.6-1.1,2.6-2.6c0-1.8-1.3-2.6-3.3-3.2
			c-1.9-0.6-3.6-1.6-3.6-4.3c0-2.4,1.8-4,4.2-4c2.6,0,4.1,1.5,4.2,4.3H1104.9z"/>
		<path class="st16" d="M1128.9,379c-0.3,3.1-2,5.5-5,5.5c-4,0-5.8-3.8-5.8-7.9c0-5,2.3-8,5.8-8c3.1,0,4.9,2.4,5,5.6h-1.9
			c-0.3-3-1.8-3.8-3.2-3.8c-1.1,0-2.1,0.4-2.8,1.6c-0.7,1.2-1,2.6-1,4.6c0,4,1.4,6.2,3.8,6.2c1.9,0,2.9-1.5,3.2-3.8H1128.9z"/>
		<path class="st16" d="M1131.7,376.5c0-4.3,1.8-7.9,5.8-7.9c4,0,5.8,3.6,5.8,7.9s-1.8,7.9-5.8,7.9
			C1133.4,384.5,1131.7,380.9,1131.7,376.5L1131.7,376.5z M1133.6,376.6c0,4,1.3,6.2,3.9,6.2c2.5,0,3.8-2.1,3.8-6.2
			s-1.3-6.2-3.9-6.2C1134.9,370.4,1133.6,372.5,1133.6,376.6L1133.6,376.6z"/>
		<path class="st16" d="M1147.4,369h1.8c0,0.8,0,1.6-0.1,2.5c0.8-2.4,2.5-2.8,3.8-2.8c1.1,0,1.9,0.3,2.6,1c0.4,0.4,0.7,1.1,0.8,1.8
			c0.3-0.8,0.7-1.4,1.3-1.9c0.8-0.6,1.7-0.9,2.8-0.9c1.8,0,2.9,0.9,3.5,1.9c0.6,0.9,0.7,2.6,0.7,4.1v9.4h-1.9v-9.3
			c0-1.1-0.1-2.1-0.3-2.8c-0.3-1-1.3-1.6-2.3-1.6c-0.9,0-1.7,0.2-2.4,1.2c-0.6,0.9-0.8,2.2-0.8,3.3v9.1h-1.9V375c0-1.2,0-2-0.3-2.9
			c-0.3-1-1.2-1.6-2.3-1.6c-0.9,0-1.8,0.3-2.4,1.2c-0.7,0.9-0.8,2.2-0.8,3.4v9.1h-1.9V369z"/>
		<path class="st16" d="M1169.4,369h1.7c0,1.1,0,2,0,2.9c0.8-2.3,2.2-3.3,4-3.3c3,0,5.1,3.1,5.1,8c0,4.6-1.9,7.9-5.1,7.9
			c-1.8,0-3.3-1.2-3.9-3.1c0.1,0.7,0.1,1.4,0.1,2.8v5.6h-1.9V369z M1178.3,376.5c0-3.4-1.2-6.1-3.5-6.1c-1.2,0-2,0.6-2.6,1.7
			c-0.7,1-0.9,2.4-0.9,4.4c0,2,0.3,3.4,0.9,4.4c0.6,1,1.4,1.7,2.6,1.7C1177.1,382.7,1178.3,380,1178.3,376.5L1178.3,376.5z"/>
		<path class="st16" d="M1184.4,363.5h1.9v20.6h-1.9V363.5z"/>
		<path class="st16" d="M1192.5,377.1c0,3.1,1.3,5.6,3.8,5.6c1.8,0,3-1.3,3.4-3h1.8c-0.3,1.6-1,2.8-1.9,3.6
			c-0.9,0.8-2.1,1.2-3.3,1.2c-4.2,0-5.8-4-5.8-7.9c0-4.7,2.2-8,5.7-8c1.8,0,3.2,0.8,4.1,2.1c1.2,1.8,1.4,4.1,1.4,6.3H1192.5z
			 M1199.8,375.5c-0.1-3.1-1.4-5.3-3.6-5.3c-2.2,0-3.6,2.3-3.7,5.3H1199.8z"/>
		<path class="st16" d="M1206.4,370.8h-2.1V369h2.1v-4.8h1.9v4.8h2.1v1.8h-2.1v13.4h-1.9V370.8z"/>
		<path class="st16" d="M1216.4,384.1h-1.9v-3h1.9V384.1z"/>
		<path class="st16" d="M757.3,418.5h3.9c3.1,0,4.3,0.5,5.1,1.2c1.3,1.1,2.1,2.8,2.1,5c0,1.3-0.2,2.6-0.9,3.7
			c-0.8,1.3-2,2.1-3.6,2.4l4.1,8.3h-2.3l-4.6-9.6c0.3,0,0.5,0,0.7,0c1.4,0,2.4-0.4,3.2-1.1c0.9-0.8,1.2-2.1,1.2-3.5
			c0-1.3-0.3-2.9-1.6-3.8c-0.9-0.7-2.3-0.7-3.6-0.7h-1.8v18.7h-2.1V418.5z"/>
		<path class="st16" d="M773.6,432.1c0,3.1,1.3,5.6,3.8,5.6c1.8,0,3-1.3,3.4-3h1.8c-0.3,1.6-1,2.8-1.9,3.6c-0.9,0.8-2.1,1.2-3.3,1.2
			c-4.2,0-5.8-4-5.8-7.9c0-4.7,2.2-8,5.7-8c1.8,0,3.2,0.8,4.1,2.1c1.2,1.8,1.4,4.1,1.4,6.3H773.6z M780.9,430.5
			c-0.1-3.1-1.4-5.3-3.6-5.3c-2.2,0-3.6,2.3-3.7,5.3H780.9z M780.3,417.7l0.8,1.5l-6.2,3.3l-0.7-1.3L780.3,417.7z"/>
		<path class="st16" d="M786.8,424h1.8c0,0.8,0,1.6-0.1,2.5c0.8-2.4,2.5-2.8,3.8-2.8c1.1,0,1.9,0.3,2.6,1c0.4,0.4,0.7,1.1,0.8,1.8
			c0.3-0.8,0.7-1.4,1.3-1.9c0.8-0.6,1.7-0.9,2.8-0.9c1.8,0,2.9,0.9,3.5,1.9c0.6,0.9,0.7,2.6,0.7,4.1v9.4h-1.9v-9.3
			c0-1.1-0.1-2.1-0.3-2.8c-0.3-1-1.3-1.6-2.3-1.6c-0.9,0-1.7,0.2-2.4,1.2c-0.6,0.9-0.8,2.2-0.8,3.3v9.1h-1.9V430c0-1.2,0-2-0.3-2.9
			c-0.3-1-1.2-1.6-2.3-1.6c-0.9,0-1.8,0.3-2.4,1.2c-0.7,0.9-0.8,2.2-0.8,3.4v9.1h-1.9V424z"/>
		<path class="st16" d="M818.9,439.1h-1.7c0-0.9,0-1.7,0.1-2.6c-0.8,2.2-2.5,3-4.2,3c-2.6,0-4.3-1.5-4.3-5.2V424h1.9v9.7
			c0,1.5,0.2,3.9,2.9,3.9c2.2,0,3.6-1.5,3.6-4.7v-9h1.9V439.1z"/>
		<path class="st16" d="M823.7,424h1.7c0,0.9,0,1.6-0.1,2.6c0.8-2.1,2.5-3,4.3-3c2.6,0,4.3,1.5,4.3,5.2v10.3h-1.9v-9.7
			c0-1.5-0.2-3.9-2.9-3.9c-2.2,0-3.6,1.5-3.6,4.7v9h-1.9V424z"/>
		<path class="st16" d="M839.8,432.1c0,3.1,1.3,5.6,3.8,5.6c1.8,0,3-1.3,3.4-3h1.8c-0.3,1.6-1,2.8-1.9,3.6c-0.9,0.8-2.1,1.2-3.3,1.2
			c-4.2,0-5.8-4-5.8-7.9c0-4.7,2.2-8,5.7-8c1.8,0,3.2,0.8,4.1,2.1c1.2,1.8,1.4,4.1,1.4,6.3H839.8z M847.2,430.5
			c-0.1-3.1-1.4-5.3-3.6-5.3c-2.2,0-3.6,2.3-3.7,5.3H847.2z M846.6,417.7l0.8,1.5l-6.2,3.3l-0.7-1.3L846.6,417.7z"/>
		<path class="st16" d="M853.1,424h1.7c0,1.4,0,2.3-0.1,3.2c0.8-3,2.7-3.5,4-3.5v2.2c-0.2-0.1-0.4-0.2-0.7-0.2
			c-1.3,0-3.1,1.6-3.1,5.4v8.1h-1.9V424z"/>
		<path class="st16" d="M871.5,439.1h-1.7c0-1.3,0-2.2,0-2.9c-0.7,2.1-2.1,3.3-4,3.3c-3,0-5.1-3.2-5.1-7.9c0-4.7,1.9-8,5.1-8
			c1.7,0,3.2,0.9,4,3.3c0-0.9,0-1.8,0-2.9h1.7V439.1z M862.6,431.6c0,3.4,1.2,6.1,3.5,6.1c1.2,0,2-0.6,2.6-1.7
			c0.6-1.1,0.9-2.4,0.9-4.4c0-2-0.2-3.4-0.9-4.4c-0.6-1-1.4-1.7-2.6-1.7C863.8,425.5,862.6,428.1,862.6,431.6L862.6,431.6z"/>
		<path class="st16" d="M877,425.8h-2.1V424h2.1v-4.8h1.9v4.8h2.1v1.8h-2.1v13.4H877V425.8z"/>
		<path class="st16" d="M884.6,418.5h1.9v2.7h-1.9V418.5z M884.6,424h1.9v15.1h-1.9V424z"/>
		<path class="st16" d="M890.6,431.5c0-4.3,1.8-7.9,5.8-7.9c4,0,5.8,3.6,5.8,7.9s-1.8,7.9-5.8,7.9
			C892.4,439.5,890.6,435.9,890.6,431.5L890.6,431.5z M892.6,431.6c0,4,1.3,6.2,3.9,6.2c2.5,0,3.8-2.1,3.8-6.2s-1.3-6.2-3.9-6.2
			C893.9,425.4,892.6,427.5,892.6,431.6L892.6,431.6z"/>
		<path class="st16" d="M906.3,424h1.7c0,0.9,0,1.6-0.1,2.6c0.8-2.1,2.5-3,4.3-3c2.6,0,4.3,1.5,4.3,5.2v10.3h-1.9v-9.7
			c0-1.5-0.2-3.9-2.9-3.9c-2.2,0-3.6,1.5-3.6,4.7v9h-1.9V424z"/>
		<path class="st16" d="M939,439.1h-1.7c0-1.3,0-2.2,0-2.9c-0.7,2.1-2.1,3.3-4,3.3c-3,0-5.1-3.2-5.1-7.9c0-4.7,1.9-8,5.1-8
			c1.7,0,3.2,0.9,4,3.3c0-0.9,0-1.8,0-2.9h1.7V439.1z M930.1,431.6c0,3.4,1.2,6.1,3.5,6.1c1.2,0,2-0.6,2.6-1.7
			c0.6-1.1,0.9-2.4,0.9-4.4c0-2-0.2-3.4-0.9-4.4c-0.6-1-1.4-1.7-2.6-1.7C931.3,425.5,930.1,428.1,930.1,431.6L930.1,431.6z"/>
		<path class="st16" d="M944.5,425.8h-2.1V424h2.1v-4.8h1.9v4.8h2.1v1.8h-2.1v13.4h-1.9V425.8z"/>
		<path class="st16" d="M952.6,425.8h-2.1V424h2.1v-4.8h1.9v4.8h2.1v1.8h-2.1v13.4h-1.9V425.8z"/>
		<path class="st16" d="M959.9,424h1.7c0,1.4,0,2.3-0.1,3.2c0.8-3,2.7-3.5,4-3.5v2.2c-0.2-0.1-0.4-0.2-0.7-0.2
			c-1.3,0-3.1,1.6-3.1,5.4v8.1h-1.9V424z"/>
		<path class="st16" d="M978.4,439.1h-1.7c0-1.3,0-2.2,0-2.9c-0.7,2.1-2.1,3.3-4,3.3c-3,0-5.1-3.2-5.1-7.9c0-4.7,1.9-8,5.1-8
			c1.7,0,3.2,0.9,4,3.3c0-0.9,0-1.8,0-2.9h1.7V439.1z M969.5,431.6c0,3.4,1.2,6.1,3.5,6.1c1.2,0,2-0.6,2.6-1.7
			c0.6-1.1,0.9-2.4,0.9-4.4c0-2-0.2-3.4-0.9-4.4c-0.6-1-1.4-1.7-2.6-1.7C970.7,425.5,969.5,428.1,969.5,431.6L969.5,431.6z"/>
		<path class="st16" d="M993.1,434c-0.3,3.1-2,5.5-5,5.5c-4,0-5.8-3.8-5.8-7.9c0-5,2.3-8,5.8-8c3.1,0,4.9,2.4,5,5.6h-1.9
			c-0.3-3-1.8-3.8-3.2-3.8c-1.1,0-2.1,0.4-2.8,1.6c-0.7,1.2-1,2.6-1,4.6c0,4,1.4,6.2,3.8,6.2c1.9,0,2.9-1.5,3.2-3.8H993.1z"/>
		<path class="st16" d="M997.4,425.8h-2.1V424h2.1v-4.8h1.9v4.8h2.1v1.8h-2.1v13.4h-1.9V425.8z"/>
		<path class="st16" d="M1005,418.5h1.9v2.7h-1.9V418.5z M1005,424h1.9v15.1h-1.9V424z"/>
		<path class="st16" d="M1016.4,439.1h-1.9L1010,424h1.9l3.6,12.6l3.5-12.6h1.9L1016.4,439.1z"/>
		<path class="st16" d="M1024.8,432.1c0,3.1,1.3,5.6,3.8,5.6c1.8,0,3-1.3,3.4-3h1.8c-0.3,1.6-1,2.8-1.9,3.6
			c-0.9,0.8-2.1,1.2-3.3,1.2c-4.2,0-5.8-4-5.8-7.9c0-4.7,2.2-8,5.7-8c1.8,0,3.2,0.8,4.1,2.1c1.2,1.8,1.4,4.1,1.4,6.3H1024.8z
			 M1032.2,430.5c-0.1-3.1-1.4-5.3-3.6-5.3c-2.2,0-3.6,2.3-3.7,5.3H1032.2z"/>
		<path class="st16" d="M1040.3,439.1h-1.9v-3h1.9V439.1z"/>
		<path class="st16" d="M758.5,488.5c0.2,3.2,2.1,4.2,3.7,4.2c2.2,0,3.9-1.5,3.9-4c0-3-2.6-3.7-4.6-4.4c-1.8-0.6-4.7-1.6-4.7-5.3
			c0-3.6,2.2-5.8,5.4-5.8c3.1,0,5,1.6,5.5,5.2h-2c-0.2-1.5-0.9-3.5-3.5-3.5c-2.1,0-3.4,1.5-3.4,3.6c0,2.7,2.1,3.3,4.7,4.2
			c1.6,0.6,4.6,1.7,4.6,5.8c0,3.6-2.6,6-6,6c-3.2,0-5.7-1.9-5.8-6H758.5z"/>
		<path class="st16" d="M772.4,473.5h1.9v2.7h-1.9V473.5z M772.4,479h1.9v15.1h-1.9V479z"/>
		<path class="st16" d="M780,480.8h-2.1V479h2.1v-4.8h1.9v4.8h2.1v1.8h-2.1v13.4H780V480.8z"/>
		<path class="st16" d="M797.5,494.1h-1.7c0-0.9,0-1.7,0.1-2.6c-0.8,2.2-2.5,3-4.2,3c-2.6,0-4.3-1.5-4.3-5.2V479h1.9v9.7
			c0,1.5,0.2,3.9,2.9,3.9c2.2,0,3.6-1.5,3.6-4.7v-9h1.9V494.1z"/>
		<path class="st16" d="M812.2,494.1h-1.7c0-1.3,0-2.2,0-2.9c-0.7,2.1-2.1,3.3-4,3.3c-3,0-5.1-3.2-5.1-7.9c0-4.7,1.9-8,5.1-8
			c1.7,0,3.2,0.9,4,3.3c0-0.9,0-1.8,0-2.9h1.7V494.1z M803.3,486.6c0,3.4,1.2,6.1,3.5,6.1c1.2,0,2-0.6,2.6-1.7
			c0.6-1.1,0.9-2.4,0.9-4.4c0-2-0.2-3.4-0.9-4.4c-0.6-1-1.4-1.7-2.6-1.7C804.5,480.5,803.3,483.1,803.3,486.6L803.3,486.6z"/>
		<path class="st16" d="M817.7,480.8h-2.1V479h2.1v-4.8h1.9v4.8h2.1v1.8h-2.1v13.4h-1.9V480.8z"/>
		<path class="st16" d="M825.3,473.5h1.9v2.7h-1.9V473.5z M825.3,479h1.9v15.1h-1.9V479z"/>
		<path class="st16" d="M831.4,486.5c0-4.3,1.8-7.9,5.8-7.9c4,0,5.8,3.6,5.8,7.9s-1.8,7.9-5.8,7.9
			C833.1,494.5,831.4,490.9,831.4,486.5L831.4,486.5z M833.3,486.6c0,4,1.3,6.2,3.9,6.2c2.5,0,3.8-2.1,3.8-6.2s-1.3-6.2-3.9-6.2
			C834.6,480.4,833.3,482.5,833.3,486.6L833.3,486.6z"/>
		<path class="st16" d="M847,479h1.7c0,0.9,0,1.6-0.1,2.6c0.8-2.1,2.5-3,4.3-3c2.6,0,4.3,1.5,4.3,5.2v10.3h-1.9v-9.7
			c0-1.5-0.2-3.9-2.9-3.9c-2.2,0-3.6,1.5-3.6,4.7v9H847V479z"/>
		<path class="st16" d="M870.1,480.8h-1.7V479h1.7v-1.1c0-4.5,3.6-4.7,4.5-4.7v1.6c-1.4,0.1-2.6,0.8-2.6,3.2v1h2.6v1.8H872v13.4
			h-1.9V480.8z"/>
		<path class="st16" d="M887.2,494.1h-1.7c0-1.3,0-2.2,0-2.9c-0.7,2.1-2.1,3.3-4,3.3c-3,0-5.1-3.2-5.1-7.9c0-4.7,1.9-8,5.1-8
			c1.7,0,3.2,0.9,4,3.3c0-0.9,0-1.8,0-2.9h1.7V494.1z M878.3,486.6c0,3.4,1.2,6.1,3.5,6.1c1.2,0,2-0.6,2.6-1.7
			c0.6-1.1,0.9-2.4,0.9-4.4c0-2-0.2-3.4-0.9-4.4c-0.6-1-1.4-1.7-2.6-1.7C879.5,480.5,878.3,483.1,878.3,486.6L878.3,486.6z"/>
		<path class="st16" d="M892,479h1.8c0,0.8,0,1.6-0.1,2.5c0.8-2.4,2.5-2.8,3.8-2.8c1.1,0,1.9,0.3,2.6,1c0.4,0.4,0.7,1.1,0.8,1.8
			c0.3-0.8,0.7-1.4,1.3-1.9c0.8-0.6,1.7-0.9,2.8-0.9c1.8,0,2.9,0.9,3.5,1.9c0.6,0.9,0.7,2.6,0.7,4.1v9.4h-1.9v-9.3
			c0-1.1-0.1-2.1-0.3-2.8c-0.3-1-1.3-1.6-2.3-1.6c-0.9,0-1.7,0.2-2.4,1.2c-0.6,0.9-0.8,2.2-0.8,3.3v9.1h-1.9V485c0-1.2,0-2-0.3-2.9
			c-0.3-1-1.2-1.6-2.3-1.6c-0.9,0-1.8,0.3-2.4,1.2c-0.7,0.9-0.8,2.2-0.8,3.4v9.1H892V479z"/>
		<path class="st16" d="M914.3,473.5h1.9v2.7h-1.9V473.5z M914.3,479h1.9v15.1h-1.9V479z"/>
		<path class="st16" d="M921.4,473.5h1.9v20.6h-1.9V473.5z"/>
		<path class="st16" d="M928.5,473.5h1.9v2.7h-1.9V473.5z M928.5,479h1.9v15.1h-1.9V479z"/>
		<path class="st16" d="M945.4,494.1h-1.7c0-1.3,0-2.2,0-2.9c-0.7,2.1-2.1,3.3-4,3.3c-3,0-5.1-3.2-5.1-7.9c0-4.7,1.9-8,5.1-8
			c1.7,0,3.2,0.9,4,3.3c0-0.9,0-1.8,0-2.9h1.7V494.1z M936.4,486.6c0,3.4,1.2,6.1,3.5,6.1c1.2,0,2-0.6,2.6-1.7
			c0.6-1.1,0.9-2.4,0.9-4.4c0-2-0.2-3.4-0.9-4.4c-0.6-1-1.4-1.7-2.6-1.7C937.7,480.5,936.4,483.1,936.4,486.6L936.4,486.6z"/>
		<path class="st16" d="M950.4,473.5h1.9v20.6h-1.9V473.5z"/>
		<path class="st16" d="M958.4,487.1c0,3.1,1.3,5.6,3.8,5.6c1.8,0,3-1.3,3.4-3h1.8c-0.3,1.6-1,2.8-1.9,3.6c-0.9,0.8-2.1,1.2-3.3,1.2
			c-4.2,0-5.8-4-5.8-7.9c0-4.7,2.2-8,5.7-8c1.8,0,3.2,0.8,4.1,2.1c1.2,1.8,1.4,4.1,1.4,6.3H958.4z M965.8,485.5
			c-0.1-3.1-1.4-5.3-3.6-5.3c-2.2,0-3.6,2.3-3.7,5.3H965.8z"/>
		<path class="st16" d="M989.4,494.1h-1.7c0-1.3,0-2.2,0-2.9c-0.7,2.1-2.1,3.3-4,3.3c-3,0-5.1-3.2-5.1-7.9c0-4.7,1.9-8,5.1-8
			c1.7,0,3.2,0.9,4,3.3c0-0.9,0-1.8,0-2.9h1.7V494.1z M987.3,476.2l-0.7,1.3l-6.2-3.3l0.8-1.5L987.3,476.2z M980.5,486.6
			c0,3.4,1.2,6.1,3.5,6.1c1.2,0,2-0.6,2.6-1.7c0.6-1.1,0.9-2.4,0.9-4.4c0-2-0.2-3.4-0.9-4.4c-0.6-1-1.4-1.7-2.6-1.7
			C981.7,480.5,980.5,483.1,980.5,486.6L980.5,486.6z"/>
		<path class="st16" d="M1002,479h1.7c0,1.1,0,2,0,2.9c0.8-2.3,2.2-3.3,4-3.3c3,0,5.1,3.1,5.1,8c0,4.6-1.9,7.9-5.1,7.9
			c-1.8,0-3.3-1.2-3.9-3.1c0.1,0.7,0.1,1.4,0.1,2.8v5.6h-1.9V479z M1010.9,486.5c0-3.4-1.2-6.1-3.5-6.1c-1.2,0-2,0.6-2.6,1.7
			c-0.7,1-0.9,2.4-0.9,4.4c0,2,0.2,3.4,0.9,4.4c0.6,1,1.4,1.7,2.6,1.7C1009.7,492.7,1010.9,490,1010.9,486.5L1010.9,486.5z"/>
		<path class="st16" d="M1016.8,479h1.7c0,1.4,0,2.3-0.1,3.2c0.8-3,2.7-3.5,4-3.5v2.2c-0.2-0.1-0.4-0.2-0.7-0.2
			c-1.3,0-3.1,1.6-3.1,5.4v8.1h-1.9V479z"/>
		<path class="st16" d="M1026.5,487.1c0,3.1,1.3,5.6,3.8,5.6c1.8,0,3-1.3,3.4-3h1.8c-0.3,1.6-1,2.8-1.9,3.6
			c-0.9,0.8-2.1,1.2-3.3,1.2c-4.2,0-5.8-4-5.8-7.9c0-4.7,2.2-8,5.7-8c1.8,0,3.2,0.8,4.1,2.1c1.2,1.8,1.4,4.1,1.4,6.3H1026.5z
			 M1033.8,485.5c-0.1-3.1-1.4-5.3-3.6-5.3c-2.2,0-3.6,2.3-3.7,5.3H1033.8z M1033.2,472.7l0.8,1.5l-6.2,3.3l-0.7-1.3L1033.2,472.7z"
			/>
		<path class="st16" d="M1049.6,489c-0.3,3.1-2,5.5-5,5.5c-4,0-5.8-3.8-5.8-7.9c0-5,2.3-8,5.8-8c3.1,0,4.9,2.4,5,5.6h-1.9
			c-0.3-3-1.8-3.8-3.2-3.8c-1.1,0-2.1,0.4-2.8,1.6c-0.7,1.2-1,2.6-1,4.6c0,4,1.4,6.2,3.8,6.2c1.9,0,2.9-1.5,3.2-3.8H1049.6z"/>
		<path class="st16" d="M1053.4,473.5h1.9v2.7h-1.9V473.5z M1053.4,479h1.9v15.1h-1.9V479z"/>
		<path class="st16" d="M1066.4,482.9c0-1.9-1-2.6-2.4-2.6c-1.3,0-2.2,0.9-2.2,2.3c0,1.7,1.4,2.3,3.3,2.9c1.7,0.5,3.6,1.5,3.6,4.6
			c0,2.7-1.9,4.5-4.5,4.5c-2.8,0-4.6-1.6-4.7-4.8h1.8c0,2.1,1.2,3.1,2.9,3.1c1.6,0,2.6-1.1,2.6-2.6c0-1.8-1.3-2.6-3.3-3.2
			c-1.9-0.6-3.6-1.6-3.6-4.3c0-2.4,1.8-4,4.2-4c2.6,0,4.1,1.5,4.2,4.3H1066.4z"/>
		<path class="st16" d="M1073.8,487.1c0,3.1,1.3,5.6,3.8,5.6c1.8,0,3-1.3,3.4-3h1.8c-0.3,1.6-1,2.8-1.9,3.6
			c-0.9,0.8-2.1,1.2-3.3,1.2c-4.2,0-5.8-4-5.8-7.9c0-4.7,2.2-8,5.7-8c1.8,0,3.2,0.8,4.1,2.1c1.2,1.8,1.4,4.1,1.4,6.3H1073.8z
			 M1081.1,485.5c-0.1-3.1-1.4-5.3-3.6-5.3c-2.2,0-3.6,2.3-3.7,5.3H1081.1z"/>
		<path class="st16" d="M1087,479h1.7c0,1.4,0,2.3-0.1,3.2c0.8-3,2.7-3.5,4-3.5v2.2c-0.2-0.1-0.4-0.2-0.7-0.2
			c-1.3,0-3.1,1.6-3.1,5.4v8.1h-1.9V479z"/>
		<path class="st16" d="M1097.5,494.1h-1.9v-3h1.9V494.1z"/>
	</g>
</g>
</svg>
