<svg xmlns="http://www.w3.org/2000/svg" viewBox="0 0 585.29 150.73"><defs><style>.cls-1,.cls-2{isolation:isolate;}.cls-2{fill:#105768;opacity:0.2;}.cls-3{fill:#fefeff;}.cls-4{fill:#d8d8d8;mix-blend-mode:multiply;}.cls-5{fill:#fff;}</style></defs><title>game3b_item5</title><g class="cls-1"><g id="Calque_2" data-name="Calque 2"><g id="Calque_2-2" data-name="Calque 2"><polygon class="cls-2" points="529.73 150.73 0 136.54 13.5 9.85 580.93 30.41 577.23 132.63 529.73 150.73"/><polygon class="cls-3" points="534.09 140.88 4.36 126.69 17.86 0 585.29 20.56 581.59 122.78 534.09 140.88"/><polygon class="cls-4" points="581.59 122.78 534.09 140.88 548.14 112.22 581.59 122.78"/><path d="M40.53,18.86l2.26.08-.57,15.62,7.48.27-.07,1.9-9.74-.35Z"/><path d="M53.85,31c-.06,3.09,1.87,4.44,4.16,4.52A8.27,8.27,0,0,0,61.51,35l.33,1.65a10.19,10.19,0,0,1-4.21.63c-3.87-.14-6.09-2.77-6-6.56s2.48-6.7,6.14-6.57c4.11.15,5.07,3.8,5,6.11a8.54,8.54,0,0,1-.12,1.06Zm6.76-1.39c.08-1.45-.46-3.74-3-3.83-2.31-.08-3.4,2-3.64,3.59Z"/><path d="M69,41.07a3.7,3.7,0,0,0,2.53-.87c.65-.71.92-1.68,1-4.7L72.93,25l2.29.08-.41,11.41c-.09,2.44-.54,4-1.69,5.12a5.81,5.81,0,0,1-3.95,1.29Zm6.61-19.53a1.34,1.34,0,0,1-1.48,1.35,1.37,1.37,0,0,1-1.35-1.45,1.4,1.4,0,0,1,1.51-1.38A1.35,1.35,0,0,1,75.61,21.54Z"/><path d="M90.77,31.82c-.17,4.65-3.46,6.56-6.5,6.45-3.4-.12-5.94-2.71-5.79-6.69.15-4.21,3-6.58,6.48-6.45S90.91,28,90.77,31.82Zm-10-.23c-.1,2.75,1.41,4.89,3.64,5s3.89-1.91,4-4.75c.08-2.13-.89-4.87-3.59-5S80.87,29.2,80.79,31.59Z"/><path d="M104.72,35.29c0,1.3-.06,2.44,0,3.43l-2-.07-.06-2.06h-.05a4.74,4.74,0,0,1-4.24,2.19c-2-.07-4.3-1.25-4.14-5.67l.27-7.35,2.29.08-.25,7c-.09,2.39.58,4,2.66,4.1a3.31,3.31,0,0,0,3.09-2,3.35,3.35,0,0,0,.25-1.16l.28-7.72,2.29.08Z"/><path d="M109.35,30.23c.05-1.48.07-2.75,0-3.93l2,.07v2.47h.1a3.78,3.78,0,0,1,3.58-2.63,2.49,2.49,0,0,1,.65.1l-.08,2.16a3.35,3.35,0,0,0-.78-.11,3.21,3.21,0,0,0-3.17,2.82,6.5,6.5,0,0,0-.14,1.06L111.3,39,109,38.88Z"/><path d="M128.64,22.06l2.26.08-.42,11.72c-.17,4.65-2.51,6-5.52,5.89a7.3,7.3,0,0,1-2.4-.5l.4-1.83a5.39,5.39,0,0,0,1.89.41c2,.07,3.25-.79,3.38-4.22Z"/><path d="M140.37,38.69A1.52,1.52,0,0,1,142,37.13a1.61,1.61,0,0,1-.12,3.22A1.52,1.52,0,0,1,140.37,38.69Zm.78-3.69.09-12.49,2.49.09-.82,12.46Z"/><path d="M157.84,23.11l2.26.08-.42,11.72c-.17,4.65-2.51,6-5.52,5.89a7.32,7.32,0,0,1-2.4-.5l.4-1.83a5.39,5.39,0,0,0,1.88.41c2,.07,3.26-.79,3.38-4.22Z"/><path d="M165.29,35c-.06,3.09,1.87,4.44,4.15,4.52A8.27,8.27,0,0,0,173,39l.33,1.65a10.21,10.21,0,0,1-4.21.63c-3.87-.14-6.09-2.77-6-6.56s2.48-6.7,6.14-6.57c4.11.15,5.07,3.8,5,6.11a8.39,8.39,0,0,1-.12,1.06Zm6.76-1.39c.08-1.46-.46-3.74-3-3.83-2.31-.08-3.4,2-3.64,3.59Z"/><path d="M183.94,33.11c.06-1.61.05-2.91,0-4.11l2.05.07,0,2.16h.05A5,5,0,0,1,190.67,29c3,.11,5.23,2.76,5.1,6.58-.16,4.52-3,6.66-6,6.55A4.41,4.41,0,0,1,186,40H186l-.25,6.83-2.26-.08Zm2.14,3.43a5.12,5.12,0,0,0,.07.94,3.53,3.53,0,0,0,3.33,2.8c2.42.09,3.89-1.84,4-4.72.09-2.52-1.16-4.72-3.57-4.81a3.65,3.65,0,0,0-3.56,2.71,3.73,3.73,0,0,0-.19.93Z"/><path d="M199.38,33.49c.05-1.48.07-2.76,0-3.93l2,.07v2.47h.1a3.78,3.78,0,0,1,3.58-2.63,2.53,2.53,0,0,1,.65.1l-.08,2.16a3.46,3.46,0,0,0-.78-.11,3.21,3.21,0,0,0-3.17,2.83,6.47,6.47,0,0,0-.14,1.06l-.24,6.7-2.26-.08Z"/><path d="M209.44,36.64c-.06,3.09,1.87,4.44,4.16,4.52a8.25,8.25,0,0,0,3.51-.52l.33,1.65a10.19,10.19,0,0,1-4.21.63c-3.87-.14-6.09-2.77-6-6.56s2.48-6.7,6.14-6.57c4.11.15,5.07,3.8,5,6.11a8.5,8.5,0,0,1-.12,1.06Zm6.76-1.39c.08-1.45-.46-3.74-3-3.83-2.31-.08-3.4,2-3.64,3.59Z"/><path d="M221.95,33.79c0-1.3.06-2.37,0-3.41l2,.07.05,2.08h.05a4.63,4.63,0,0,1,4.24-2.21c1.74.06,4.41,1.2,4.25,5.51l-.27,7.51L230,43.27,230.3,36c.07-2-.62-3.74-2.78-3.82a3.25,3.25,0,0,0-3.15,2.23,3.31,3.31,0,0,0-.19,1.06L223.9,43,221.62,43Z"/><path d="M248.22,25.45l-.55,15.2c0,1.12-.06,2.39,0,3.25l-2.05-.07,0-2.19h-.05A4.66,4.66,0,0,1,241.15,44c-3-.11-5.29-2.77-5.15-6.59.13-4.18,2.82-6.66,5.88-6.55a4.2,4.2,0,0,1,3.72,2.06h.05l.27-7.51Zm-2.69,10.91a4,4,0,0,0-.07-1,3.37,3.37,0,0,0-3.2-2.77c-2.36-.09-3.84,1.94-3.94,4.72-.09,2.55,1.08,4.7,3.55,4.79a3.44,3.44,0,0,0,3.45-2.61,4,4,0,0,0,.14-1Z"/><path d="M251.76,41.71a6,6,0,0,0,3,1c1.66.06,2.47-.74,2.51-1.78s-.59-1.71-2.25-2.4c-2.23-.89-3.25-2.17-3.2-3.68.07-2,1.77-3.63,4.47-3.53a6.28,6.28,0,0,1,3.06.89l-.63,1.64a4.9,4.9,0,0,0-2.55-.82c-1.35,0-2.13.7-2.17,1.64s.7,1.53,2.31,2.22c2.15.91,3.23,2,3.16,3.91-.08,2.21-1.85,3.71-4.84,3.6a7.17,7.17,0,0,1-3.5-1Z"/><path d="M279.73,41.63c0,1.3-.06,2.44,0,3.43l-2-.07-.06-2.06h-.05a4.73,4.73,0,0,1-4.24,2.19c-2-.07-4.3-1.25-4.14-5.67l.27-7.35,2.29.08-.25,7c-.09,2.39.58,4,2.66,4.1a3.31,3.31,0,0,0,3.09-2,3.37,3.37,0,0,0,.25-1.16l.28-7.72,2.29.08Z"/><path d="M284.39,36.05c0-1.3.06-2.37,0-3.41l2,.07.05,2.08h.05a4.63,4.63,0,0,1,4.24-2.21c1.74.06,4.41,1.2,4.25,5.51l-.27,7.51-2.29-.08.26-7.25c.07-2-.62-3.74-2.78-3.82a3.25,3.25,0,0,0-3.15,2.23,3.29,3.29,0,0,0-.19,1.06l-.27,7.56-2.29-.08Z"/><path d="M314.26,45.85a8.42,8.42,0,0,1-3.64.6c-3.79-.14-6.17-2.8-6-6.65a6.39,6.39,0,0,1,7-6.43,7.64,7.64,0,0,1,3.15.76l-.58,1.75a5.31,5.31,0,0,0-2.63-.69c-2.88-.1-4.52,2-4.62,4.59-.11,2.91,1.7,4.77,4.19,4.86a6.5,6.5,0,0,0,2.83-.52Z"/><path d="M317.88,37.78c.05-1.48.07-2.76,0-3.93l2,.07V36.4h.1a3.77,3.77,0,0,1,3.58-2.63,2.4,2.4,0,0,1,.65.1L324.17,36a3.44,3.44,0,0,0-.78-.11,3.21,3.21,0,0,0-3.17,2.83,6.43,6.43,0,0,0-.14,1.06l-.24,6.7-2.26-.08Z"/><path d="M327.94,40.93c-.06,3.09,1.87,4.44,4.15,4.52a8.3,8.3,0,0,0,3.51-.52l.33,1.65a10.19,10.19,0,0,1-4.21.63c-3.87-.14-6.09-2.77-6-6.56s2.48-6.7,6.14-6.57c4.11.15,5.07,3.8,5,6.11a8.45,8.45,0,0,1-.12,1.06Zm6.76-1.39c.08-1.45-.46-3.74-3-3.83-2.31-.08-3.4,2-3.64,3.59Zm.93-10.48-3.3,3.6-1.64-.06L333.11,29Z"/><path d="M340.46,38.08c0-1.3.06-2.37,0-3.41l2,.07.05,2.08h.05a4.63,4.63,0,0,1,4.24-2.21c1.74.06,4.41,1.2,4.25,5.51l-.27,7.51-2.29-.08.26-7.25c.07-2-.62-3.74-2.78-3.82a3.25,3.25,0,0,0-3.15,2.23,3.29,3.29,0,0,0-.19,1.06l-.27,7.56-2.29-.08Z"/><path d="M356.68,42c-.06,3.09,1.87,4.44,4.16,4.52a8.27,8.27,0,0,0,3.51-.52l.33,1.65a10.19,10.19,0,0,1-4.21.63c-3.87-.14-6.09-2.77-6-6.56s2.48-6.7,6.14-6.57c4.11.15,5.07,3.8,5,6.11a8.54,8.54,0,0,1-.12,1.06Zm6.76-1.39c.08-1.45-.46-3.74-3-3.83-2.31-.08-3.4,2-3.64,3.59Z"/><path d="M375.82,48.55,375.7,47h-.08a4.69,4.69,0,0,1-3.91,1.73A3.59,3.59,0,0,1,368,44.93c.11-3,2.87-4.6,7.73-4.4v-.26a2.59,2.59,0,0,0-2.75-3,6.27,6.27,0,0,0-3.31.82l-.46-1.53a7.81,7.81,0,0,1,4.17-1c3.85.14,4.69,2.8,4.59,5.32l-.17,4.7a17.69,17.69,0,0,0,.1,3Zm-.1-6.43c-2.49-.14-5.34.2-5.43,2.64A2,2,0,0,0,372.37,47a3.13,3.13,0,0,0,3.12-2,2.38,2.38,0,0,0,.16-.72Z"/><path d="M392.68,45.72c0,1.3-.06,2.44,0,3.43l-2-.07L390.58,47h-.05a4.73,4.73,0,0,1-4.24,2.19c-2-.07-4.3-1.25-4.14-5.67l.27-7.35,2.29.08-.25,7c-.09,2.39.58,4,2.66,4.1a3.22,3.22,0,0,0,3.34-3.13l.28-7.72,2.29.08Z"/><path d="M414.69,31.48l-.55,15.2c0,1.12-.06,2.39,0,3.25l-2.05-.07,0-2.19H412A4.66,4.66,0,0,1,407.62,50c-3-.11-5.29-2.77-5.15-6.59.13-4.18,2.82-6.66,5.88-6.55a4.21,4.21,0,0,1,3.72,2.06h.05l.27-7.51ZM412,42.39a4,4,0,0,0-.07-1,3.37,3.37,0,0,0-3.2-2.77c-2.36-.08-3.84,1.94-3.94,4.72-.09,2.55,1.08,4.7,3.55,4.79a3.44,3.44,0,0,0,3.45-2.61,4,4,0,0,0,.14-1Z"/><path d="M419.95,44.27c-.06,3.09,1.87,4.44,4.15,4.52a8.28,8.28,0,0,0,3.51-.52l.33,1.65a10.18,10.18,0,0,1-4.21.63c-3.87-.14-6.09-2.77-6-6.56s2.48-6.7,6.14-6.57c4.11.15,5.07,3.8,5,6.11a8.43,8.43,0,0,1-.12,1.06Zm6.76-1.39c.08-1.45-.46-3.74-3-3.83-2.31-.08-3.4,2-3.64,3.59Z"/><path d="M438.2,48.18a7.65,7.65,0,0,0,3.7,1.2c2.94.11,3.91-1.73,3.94-3.14.06-2.37-2-3.46-4.24-3.54l-1.27,0,.06-1.71,1.27,0c1.66.06,3.8-.72,3.87-2.72,0-1.35-.76-2.58-2.87-2.65a6.21,6.21,0,0,0-3.42,1l-.54-1.68a8,8,0,0,1,4.46-1.14c3.33.12,4.76,2.15,4.69,4.2a4.2,4.2,0,0,1-3.26,3.86v.05a4.4,4.4,0,0,1,3.61,4.48c-.1,2.7-2.29,5-6.34,4.84a8.6,8.6,0,0,1-4.35-1.3Z"/><path d="M463.07,43.07c-.21,5.74-2.45,8.83-6.2,8.7-3.3-.12-5.42-3.29-5.27-8.88s2.76-8.69,6.19-8.57S463.27,37.69,463.07,43.07ZM453.89,43c-.16,4.39,1.1,6.93,3.18,7,2.34.08,3.56-2.6,3.71-6.92.15-4.16-.82-6.92-3.18-7C455.6,36,454.06,38.4,453.89,43Z"/><path d="M472.73,42.87c0-1.3.06-2.37,0-3.41l2,.07,0,2h.08a4.34,4.34,0,0,1,4-2.17,3.72,3.72,0,0,1,3.47,2.65h.05a5.2,5.2,0,0,1,1.46-1.59,4.29,4.29,0,0,1,2.81-.78c1.66.06,4.09,1.24,3.93,5.61l-.27,7.41-2.23-.08.26-7.12c.09-2.42-.74-3.9-2.59-4a3,3,0,0,0-2.78,2,3.77,3.77,0,0,0-.22,1.14l-.28,7.77-2.23-.08.27-7.54c.07-2-.76-3.49-2.5-3.55a3.41,3.41,0,0,0-3.14,3.29l-.27,7.59L472.4,52Z"/><path d="M494.72,52.86l.46-12.58,2.29.08L497,52.94Zm3.13-16a1.42,1.42,0,0,1-2.83-.1,1.39,1.39,0,0,1,1.48-1.38A1.36,1.36,0,0,1,497.85,36.84Z"/><path d="M501.78,43.93c0-1.3.06-2.37,0-3.41l2,.07.05,2.08h.05a4.63,4.63,0,0,1,4.24-2.21c1.74.06,4.41,1.2,4.25,5.51l-.27,7.51-2.29-.08.26-7.25c.07-2-.62-3.74-2.78-3.82a3.25,3.25,0,0,0-3.15,2.23,3.29,3.29,0,0,0-.19,1.06l-.27,7.56-2.29-.08Z"/><path d="M527.17,50.6c0,1.3-.06,2.44,0,3.43l-2-.07-.06-2.06H525a4.73,4.73,0,0,1-4.24,2.19c-2-.07-4.3-1.25-4.14-5.67l.27-7.35,2.29.08-.25,7c-.09,2.39.58,4,2.66,4.1a3.22,3.22,0,0,0,3.34-3.13l.28-7.72,2.29.08Z"/><path d="M534.83,38.1l-.13,3.61,3.27.12-.06,1.74-3.27-.12-.25,6.78c-.06,1.56.35,2.46,1.63,2.5a5.06,5.06,0,0,0,1.33-.11l0,1.72a5.62,5.62,0,0,1-2,.24,3.17,3.17,0,0,1-2.43-1.05,4.66,4.66,0,0,1-.77-3.31l.25-6.86-1.95-.07.06-1.74,1.95.07.11-3Z"/><path d="M542.06,48.69c-.06,3.09,1.87,4.44,4.15,4.52a8.27,8.27,0,0,0,3.51-.52l.33,1.65a10.19,10.19,0,0,1-4.21.63c-3.87-.14-6.09-2.77-6-6.56s2.48-6.7,6.14-6.57c4.11.15,5.07,3.8,5,6.11A8.43,8.43,0,0,1,550.9,49Zm6.76-1.39c.08-1.45-.46-3.74-3-3.83-2.31-.08-3.4,2-3.64,3.59Z"/><path d="M554,52.66a6,6,0,0,0,3,1c1.66.06,2.47-.74,2.51-1.78s-.59-1.71-2.25-2.4c-2.23-.89-3.25-2.17-3.2-3.68.07-2,1.77-3.63,4.47-3.53a6.29,6.29,0,0,1,3.06.89L561,44.82a4.9,4.9,0,0,0-2.55-.82c-1.35,0-2.13.7-2.17,1.64s.7,1.54,2.31,2.22c2.15.91,3.23,2,3.16,3.91-.08,2.21-1.85,3.71-4.84,3.6a7.16,7.16,0,0,1-3.5-1Z"/><path d="M113.6,62.59c.06-1.61.05-2.91,0-4.11l2.05.07,0,2.16h.05a5,5,0,0,1,4.56-2.28c3,.11,5.23,2.77,5.1,6.58-.16,4.52-3,6.66-6,6.55a4.41,4.41,0,0,1-3.8-2.12h-.05l-.25,6.83-2.26-.08ZM115.74,66a5.17,5.17,0,0,0,.07.94,3.53,3.53,0,0,0,3.33,2.8c2.42.09,3.89-1.84,4-4.72.09-2.52-1.16-4.72-3.57-4.81A3.65,3.65,0,0,0,116,62.93a3.74,3.74,0,0,0-.19.93Z"/><path d="M140.34,65.64c-.17,4.65-3.46,6.56-6.5,6.45-3.4-.12-5.94-2.71-5.79-6.69.15-4.21,3-6.58,6.48-6.45S140.48,61.79,140.34,65.64Zm-10-.23c-.1,2.75,1.41,4.89,3.64,5s3.89-1.91,4-4.75c.08-2.13-.89-4.87-3.59-5S130.45,63,130.36,65.4Z"/><path d="M154.29,69.11c0,1.3-.06,2.44,0,3.43l-2-.07-.06-2.06h-.05a4.73,4.73,0,0,1-4.24,2.19c-2-.07-4.3-1.25-4.14-5.67l.27-7.35,2.29.08-.25,7c-.09,2.39.58,4,2.66,4.1a3.31,3.31,0,0,0,3.09-2,3.35,3.35,0,0,0,.25-1.16l.28-7.72,2.29.08Z"/><path d="M158.92,64c.05-1.48.07-2.75,0-3.93l2,.07v2.47h.1A3.78,3.78,0,0,1,164.63,60a2.45,2.45,0,0,1,.65.1l-.08,2.16a3.39,3.39,0,0,0-.78-.11A3.21,3.21,0,0,0,161.25,65a6.43,6.43,0,0,0-.14,1.06l-.24,6.7-2.26-.08Z"/><path d="M174.58,54.8l2.29.08-.67,18.45-2.29-.08Z"/><path d="M187.66,73.75l-.12-1.59h-.08a4.69,4.69,0,0,1-3.91,1.73,3.59,3.59,0,0,1-3.71-3.75c.11-3,2.87-4.6,7.73-4.4v-.26a2.6,2.6,0,0,0-2.75-3,6.27,6.27,0,0,0-3.31.82L181,61.75a7.82,7.82,0,0,1,4.17-1c3.85.14,4.69,2.8,4.59,5.32l-.17,4.7a17.7,17.7,0,0,0,.1,3Zm-.11-6.43c-2.49-.14-5.34.2-5.43,2.64a2,2,0,0,0,2.08,2.26,3.13,3.13,0,0,0,3.12-2,2.4,2.4,0,0,0,.16-.72Z"/><path d="M200.33,65.73c.06-1.61.05-2.91,0-4.11l2.05.07,0,2.16h.05a5,5,0,0,1,4.56-2.28c3,.11,5.23,2.77,5.1,6.58-.16,4.52-3,6.66-6,6.55a4.41,4.41,0,0,1-3.8-2.12h-.05l-.25,6.83-2.26-.08Zm2.14,3.43a5.13,5.13,0,0,0,.07.94,3.53,3.53,0,0,0,3.33,2.8c2.42.09,3.89-1.84,4-4.72.09-2.52-1.16-4.72-3.57-4.81a3.65,3.65,0,0,0-3.56,2.71,3.72,3.72,0,0,0-.19.93Z"/><path d="M215.77,66.1c.05-1.48.07-2.75,0-3.93l2,.07v2.47h.1a3.78,3.78,0,0,1,3.58-2.63,2.49,2.49,0,0,1,.65.1l-.08,2.16a3.39,3.39,0,0,0-.78-.11,3.21,3.21,0,0,0-3.17,2.82,6.44,6.44,0,0,0-.14,1.06l-.24,6.7-2.26-.08Z"/><path d="M225.83,69.25c-.06,3.09,1.87,4.44,4.15,4.52a8.26,8.26,0,0,0,3.51-.52l.33,1.65a10.19,10.19,0,0,1-4.21.63c-3.87-.14-6.09-2.77-6-6.56s2.48-6.7,6.14-6.57c4.11.15,5.07,3.8,5,6.11a8.43,8.43,0,0,1-.12,1.06Zm6.76-1.39c.08-1.45-.46-3.74-3-3.83-2.31-.08-3.4,2-3.64,3.59Zm.93-10.48-3.3,3.6-1.64-.06L231,57.29Z"/><path d="M237.78,73.23a6,6,0,0,0,3,1c1.66.06,2.47-.74,2.51-1.78s-.59-1.71-2.25-2.4c-2.23-.89-3.25-2.17-3.2-3.68.07-2,1.77-3.63,4.47-3.53a6.29,6.29,0,0,1,3.06.89l-.63,1.64a4.9,4.9,0,0,0-2.55-.82c-1.35,0-2.13.7-2.17,1.64s.7,1.54,2.31,2.22c2.15.91,3.23,2,3.16,3.91-.08,2.21-1.85,3.71-4.84,3.6a7.17,7.17,0,0,1-3.5-1Z"/><path d="M250.43,70.14c-.06,3.09,1.87,4.44,4.16,4.52a8.27,8.27,0,0,0,3.51-.52l.33,1.65a10.21,10.21,0,0,1-4.21.63c-3.87-.14-6.09-2.77-6-6.56s2.48-6.7,6.14-6.57c4.11.15,5.07,3.8,5,6.11a8.54,8.54,0,0,1-.12,1.06Zm6.76-1.39c.08-1.45-.46-3.74-3-3.83-2.31-.08-3.4,2-3.64,3.59Z"/><path d="M262.95,67.29c0-1.3.06-2.37,0-3.41l2,.07L265,66h.05a4.63,4.63,0,0,1,4.24-2.21c1.74.06,4.41,1.2,4.25,5.51l-.27,7.51L271,76.77l.26-7.25c.07-2-.62-3.74-2.78-3.82A3.35,3.35,0,0,0,265.18,69l-.27,7.56-2.29-.08Z"/><path d="M280.92,60.92l-.13,3.61,3.27.12L284,66.39l-3.27-.12-.25,6.78c-.06,1.56.35,2.46,1.63,2.5a5.12,5.12,0,0,0,1.33-.11l0,1.72a5.59,5.59,0,0,1-2,.24A3.17,3.17,0,0,1,279,76.36a4.65,4.65,0,0,1-.77-3.31l.25-6.86-1.95-.07.06-1.74,1.95.07.11-3Z"/><path d="M288.16,71.51C288.1,74.61,290,76,292.32,76a8.27,8.27,0,0,0,3.51-.52l.33,1.65a10.21,10.21,0,0,1-4.21.63c-3.87-.14-6.09-2.77-6-6.56s2.48-6.7,6.14-6.57c4.11.15,5.07,3.8,5,6.11a8.43,8.43,0,0,1-.12,1.06Zm6.76-1.39c.08-1.46-.46-3.74-3-3.83-2.31-.08-3.4,2-3.64,3.59Z"/><path d="M300.66,69.18c.05-1.48.07-2.76,0-3.93l2,.07V67.8h.1a3.78,3.78,0,0,1,3.58-2.63,2.44,2.44,0,0,1,.65.1l-.08,2.16a3.4,3.4,0,0,0-.78-.11A3.21,3.21,0,0,0,303,70.15a6.49,6.49,0,0,0-.14,1.06l-.24,6.7-2.26-.08Z"/><path d="M322.61,78.64,322.49,77h-.08a4.69,4.69,0,0,1-3.91,1.73A3.59,3.59,0,0,1,314.78,75c.11-3,2.87-4.61,7.73-4.4v-.26a2.6,2.6,0,0,0-2.75-3,6.27,6.27,0,0,0-3.31.82L316,66.64a7.82,7.82,0,0,1,4.17-1c3.85.14,4.69,2.8,4.59,5.32l-.17,4.7a17.71,17.71,0,0,0,.1,3Zm-3.22-18.15,2.13,3.8-1.61-.06-3-3.83Zm3.11,11.72c-2.49-.14-5.34.2-5.43,2.64a2,2,0,0,0,2.08,2.26,3.13,3.13,0,0,0,3.12-2,2.4,2.4,0,0,0,.16-.72Z"/><path d="M335.65,60.64l2.29.08-.67,18.45L335,79.09Z"/><path d="M345.44,61.65a30,30,0,0,1-2.67,6.07l-1.46.13a36.84,36.84,0,0,0,1.75-6.05Z"/><path d="M347.43,73.66c-.06,3.09,1.87,4.44,4.15,4.52a8.27,8.27,0,0,0,3.51-.52l.33,1.65a10.21,10.21,0,0,1-4.21.63c-3.87-.14-6.09-2.77-6-6.56s2.48-6.7,6.14-6.57c4.11.15,5.07,3.8,5,6.11a8.43,8.43,0,0,1-.12,1.06Zm6.76-1.39c.08-1.45-.46-3.74-3-3.83-2.31-.08-3.4,2-3.64,3.59Zm.93-10.48-3.3,3.6-1.64-.06,2.42-3.63Z"/><path d="M368.25,78.34h-.05A4.48,4.48,0,0,1,364,80.43c-2.94-.11-5.23-2.74-5.1-6.56.17-4.7,3.29-6.67,5.94-6.58a4.14,4.14,0,0,1,3.79,2.32h.05l.15-1.89,2.16.08c-.09,1.06-.16,2.15-.2,3.45l-.52,14.26L368,85.44Zm.2-5.54a3.89,3.89,0,0,0-.07-1,3.34,3.34,0,0,0-3.18-2.72c-2.36-.09-3.87,1.86-4,4.7-.09,2.49,1,4.72,3.55,4.81a3.41,3.41,0,0,0,3.36-2.38,3.82,3.82,0,0,0,.22-1.08Z"/><path d="M385.53,77.49c0,1.3-.06,2.44,0,3.43l-2-.07-.06-2.06h-.05A4.73,4.73,0,0,1,379.14,81c-2-.07-4.3-1.25-4.14-5.67l.27-7.35,2.29.08-.25,7c-.09,2.39.58,4,2.66,4.1a3.31,3.31,0,0,0,3.09-2A3.35,3.35,0,0,0,383.3,76l.28-7.72,2.29.08Z"/><path d="M389.85,81.08l.46-12.58,2.29.08-.46,12.58Zm3.13-16a1.42,1.42,0,0,1-2.83-.1,1.39,1.39,0,0,1,1.48-1.38A1.36,1.36,0,0,1,393,65.06Z"/><path d="M396.89,72.85c.06-1.61.05-2.91,0-4.11l2.05.07L399,71h.05a5,5,0,0,1,4.56-2.28c3,.11,5.23,2.77,5.09,6.58-.16,4.52-3,6.66-6,6.55a4.41,4.41,0,0,1-3.8-2.11h-.05l-.25,6.83-2.26-.08ZM399,76.28a5.13,5.13,0,0,0,.07.94,3.53,3.53,0,0,0,3.33,2.8c2.42.09,3.89-1.84,4-4.72.09-2.52-1.16-4.73-3.57-4.81a3.65,3.65,0,0,0-3.56,2.71,3.73,3.73,0,0,0-.19.93Z"/><path d="M413.5,76.05c-.06,3.09,1.87,4.44,4.16,4.52a8.3,8.3,0,0,0,3.51-.52l.33,1.65a10.17,10.17,0,0,1-4.21.63c-3.87-.14-6.09-2.77-6-6.56s2.48-6.7,6.14-6.57c4.11.15,5.07,3.8,5,6.11a8.54,8.54,0,0,1-.12,1.06Zm6.76-1.39c.08-1.45-.46-3.74-3-3.83-2.31-.08-3.4,2-3.64,3.59Z"/><path d="M433.32,76.77c-.06,3.09,1.87,4.44,4.16,4.52a8.27,8.27,0,0,0,3.51-.52l.33,1.65a10.21,10.21,0,0,1-4.21.63c-3.87-.14-6.09-2.77-6-6.56s2.48-6.7,6.14-6.57c4.11.15,5.07,3.8,5,6.11a8.54,8.54,0,0,1-.12,1.06Zm6.76-1.39c.08-1.46-.46-3.74-3-3.83-2.31-.08-3.4,2-3.64,3.59Z"/><path d="M448.85,67l-.13,3.61,3.27.12-.06,1.74-3.27-.12-.25,6.78c-.06,1.56.35,2.46,1.63,2.5a5.11,5.11,0,0,0,1.33-.11l0,1.72a5.59,5.59,0,0,1-2,.24,3.17,3.17,0,0,1-2.43-1.05,4.66,4.66,0,0,1-.76-3.31l.25-6.86-1.95-.07.06-1.74,1.95.07.11-3Z"/><path d="M461.58,65.2l2.29.08-.67,18.45-2.29-.08Z"/><path d="M478.34,80.85c0,1.3-.06,2.44,0,3.43l-2-.07-.06-2.06h-.05a4.73,4.73,0,0,1-4.24,2.19c-2-.07-4.3-1.25-4.14-5.67l.27-7.35,2.29.08-.25,7c-.09,2.39.58,4,2.66,4.1a3.31,3.31,0,0,0,3.09-2,3.35,3.35,0,0,0,.25-1.16l.28-7.72,2.29.08Z"/><path d="M482.66,84.44l.46-12.58,2.29.08-.46,12.58Zm3.13-16a1.42,1.42,0,0,1-2.83-.1,1.39,1.39,0,0,1,1.48-1.38A1.36,1.36,0,0,1,485.79,68.42Z"/><path d="M234.94,107.48l.39-10.83-1.77-.06.06-1.74,1.77.06,0-.6A5.93,5.93,0,0,1,237,90a4.37,4.37,0,0,1,3.11-1.06,5.33,5.33,0,0,1,1.94.43l-.38,1.76a3.43,3.43,0,0,0-1.44-.34c-1.95-.07-2.5,1.63-2.57,3.55l0,.68,3,.11-.06,1.74-3-.11-.39,10.83Z"/><path d="M249.91,108l-.12-1.59h-.08a4.69,4.69,0,0,1-3.91,1.73,3.59,3.59,0,0,1-3.71-3.75c.11-3,2.87-4.6,7.73-4.4v-.26a2.59,2.59,0,0,0-2.75-3,6.27,6.27,0,0,0-3.31.82L243.29,96a7.81,7.81,0,0,1,4.17-1c3.85.14,4.69,2.8,4.59,5.32l-.17,4.7a17.8,17.8,0,0,0,.1,3Zm-.1-6.43c-2.49-.14-5.34.2-5.43,2.64a2,2,0,0,0,2.08,2.26,3.13,3.13,0,0,0,3.12-2,2.42,2.42,0,0,0,.16-.72Z"/><path d="M256.12,108.25l.46-12.58,2.29.08-.46,12.58Zm3.13-16a1.42,1.42,0,0,1-2.83-.1,1.39,1.39,0,0,1,1.48-1.38A1.36,1.36,0,0,1,259.25,92.23Z"/><path d="M263.16,99.84c.05-1.48.07-2.76,0-3.93l2,.07v2.47h.1a3.78,3.78,0,0,1,3.58-2.63,2.48,2.48,0,0,1,.65.1l-.08,2.16a3.4,3.4,0,0,0-.78-.11,3.21,3.21,0,0,0-3.17,2.82,6.48,6.48,0,0,0-.14,1.06l-.24,6.7-2.26-.08Z"/><path d="M273.22,103c-.06,3.09,1.87,4.44,4.15,4.52a8.26,8.26,0,0,0,3.51-.52l.33,1.65a10.19,10.19,0,0,1-4.21.63c-3.87-.14-6.09-2.77-6-6.56s2.48-6.7,6.14-6.57c4.11.15,5.07,3.8,5,6.11a8.43,8.43,0,0,1-.12,1.06ZM280,101.6c.08-1.45-.46-3.74-3-3.83-2.31-.08-3.4,2-3.64,3.59Z"/><path d="M292.9,97l2.21,7.16a32.29,32.29,0,0,1,.9,3.26h.08c.32-1,.72-2.06,1.18-3.18l2.7-7,2.39.09L297,109.73l-2.18-.08L290.45,96.9Z"/><path d="M304.7,110l.46-12.58,2.29.08L307,110.1Zm3.13-16a1.42,1.42,0,0,1-2.83-.1,1.39,1.39,0,0,1,1.48-1.38A1.36,1.36,0,0,1,307.84,94Z"/><path d="M311.21,107.91a6,6,0,0,0,3,1c1.66.06,2.47-.74,2.51-1.78s-.59-1.71-2.25-2.4c-2.23-.89-3.25-2.17-3.2-3.68.07-2,1.77-3.63,4.47-3.53a6.28,6.28,0,0,1,3.06.89l-.63,1.64a4.9,4.9,0,0,0-2.55-.82c-1.35,0-2.13.7-2.17,1.64s.7,1.54,2.31,2.22c2.15.91,3.23,2,3.16,3.91-.08,2.21-1.85,3.71-4.84,3.6a7.18,7.18,0,0,1-3.5-1Z"/><path d="M322.37,110.65l.46-12.58,2.29.08-.46,12.58Zm3.13-16a1.42,1.42,0,0,1-2.83-.1,1.39,1.39,0,0,1,1.48-1.38A1.36,1.36,0,0,1,325.5,94.64Z"/><path d="M332.44,94.81l-.13,3.61,3.27.12-.06,1.74-3.27-.12-.25,6.78c-.06,1.56.35,2.46,1.63,2.5a5.06,5.06,0,0,0,1.33-.11l0,1.72a5.59,5.59,0,0,1-2,.24,3.17,3.17,0,0,1-2.43-1.05,4.66,4.66,0,0,1-.77-3.31l.25-6.86-1.95-.07.06-1.74,1.95.07.11-3Z"/><path d="M339.68,105.4c-.06,3.09,1.87,4.44,4.15,4.52a8.27,8.27,0,0,0,3.51-.52l.33,1.65a10.19,10.19,0,0,1-4.21.63c-3.87-.14-6.09-2.77-6-6.56s2.48-6.7,6.14-6.57c4.11.15,5.07,3.8,5,6.11a8.43,8.43,0,0,1-.12,1.06Zm6.76-1.39c.08-1.45-.46-3.74-3-3.83-2.31-.08-3.4,2-3.64,3.59Z"/><path d="M352.18,103.07c.05-1.48.07-2.76,0-3.93l2,.07v2.47h.1a3.78,3.78,0,0,1,3.58-2.63,2.49,2.49,0,0,1,.65.1l-.08,2.16a3.45,3.45,0,0,0-.78-.11,3.21,3.21,0,0,0-3.17,2.83,6.47,6.47,0,0,0-.14,1.06l-.24,6.7-2.26-.08Z"/><path d="M359.13,110.63a1.54,1.54,0,0,1,1.62-1.58,1.64,1.64,0,1,1-1.62,1.58Z"/><path class="cls-5" d="M581.7,119.57"/></g></g></g></svg>