<?xml version="1.0" encoding="utf-8"?>
<!-- Generator: Adobe Illustrator 21.1.0, SVG Export Plug-In . SVG Version: 6.00 Build 0)  -->
<svg version="1.1" id="Calque_1" xmlns="http://www.w3.org/2000/svg" xmlns:xlink="http://www.w3.org/1999/xlink" x="0px" y="0px"
	 viewBox="0 0 1920 1080" style="enable-background:new 0 0 1920 1080;" xml:space="preserve">
<style type="text/css">
	.st0{fill:none;stroke:#FFFFFF;stroke-width:5;stroke-linecap:round;stroke-miterlimit:10;}
	.st1{fill:none;stroke:#FFFFFF;stroke-width:5;stroke-linecap:round;stroke-miterlimit:10;stroke-dasharray:1,14.96;}
	.st2{fill:#F7C646;}
	.st3{opacity:0.42;fill:#BC8F00;enable-background:new    ;}
	.st4{fill:#FFFFFF;}
	.st5{opacity:0.2;fill:#FFFFFF;}
</style>
<title>game2b3_bg</title>
<line class="st0" x1="555.8" y1="247.2" x2="556.3" y2="247.2"/>
<line class="st1" x1="571.3" y1="247.2" x2="1361.4" y2="247.2"/>
<line class="st0" x1="1368.9" y1="247.2" x2="1369.4" y2="247.2"/>
<circle class="st2" cx="1099.3" cy="247.2" r="19.3"/>
<path class="st3" d="M1099.3,227.8h-0.2v38.6h0.2c10.7,0.2,19.5-8.2,19.8-18.9c0.2-10.7-8.2-19.5-18.9-19.8
	C1099.8,227.8,1099.6,227.8,1099.3,227.8z"/>
<circle class="st2" cx="1235.9" cy="247.2" r="19.3"/>
<path class="st3" d="M1235.9,227.8h-0.2v38.6h0.2c10.7,0.2,19.5-8.2,19.8-18.9c0.2-10.7-8.2-19.5-18.9-19.8
	C1236.5,227.8,1236.2,227.8,1235.9,227.8z"/>
<circle class="st2" cx="826" cy="247.2" r="19.3"/>
<path class="st3" d="M826,227.8h-0.2v38.6h0.2c10.7,0.2,19.5-8.2,19.8-18.9c0.2-10.7-8.2-19.5-18.9-19.8
	C826.5,227.8,826.2,227.8,826,227.8z"/>
<circle class="st2" cx="962.6" cy="247.2" r="39.3"/>
<path class="st3" d="M962.6,207.8h-0.3v78.6h0.3c21.7,0,39.3-17.6,39.3-39.3S984.3,207.9,962.6,207.8
	C962.6,207.8,962.6,207.8,962.6,207.8L962.6,207.8z"/>
<circle class="st2" cx="689.3" cy="247.2" r="19.3"/>
<path class="st3" d="M689.3,227.8h-0.2v38.6h0.2c10.7,0.2,19.5-8.2,19.8-18.9c0.2-10.7-8.2-19.5-18.9-19.8
	C689.9,227.8,689.6,227.8,689.3,227.8z"/>
<path class="st4" d="M1103.6,234.7v15.6h1.3v3.4h-1.3v4.8h-3.4v-4.8h-6.9v-3l6-15.9L1103.6,234.7z M1096.6,250.3h3.6v-10.1
	L1096.6,250.3z"/>
<path class="st4" d="M1237.3,247.1c0-0.8-0.2-1.3-0.5-1.5c-0.3-0.1-0.6-0.1-0.9-0.1h-0.3c-0.7,0-1.1,0.3-1.2,0.9v1h-3.4l0.5-12.7
	h9.3v3.4h-6l-0.2,5.1c0.6-0.7,1.5-1,2.4-1h0.4c1.1,0,2.1,0.6,2.7,1.4c0.6,1,0.9,2.2,0.8,3.4v6.7c0,3.3-1.6,5-4.9,5s-4.9-1.7-4.9-5
	V251h3.4v2.8c0,1.1,0.5,1.6,1.5,1.6l0,0c1,0,1.5-0.5,1.5-1.6L1237.3,247.1z"/>
<path class="st4" d="M820.9,253.4c0.1-2.3,1.3-4.3,3.2-5.5c2.1-1.5,3.2-2.8,3.2-3.9v-4.7c0-1.1-0.5-1.6-1.5-1.6l0,0
	c-1,0-1.5,0.5-1.5,1.6v3.2h-3.4v-3.2c0-3.3,1.6-5,4.9-5s4.9,1.7,4.9,5v4.7c-0.1,2.3-1.3,4.4-3.2,5.6c-2.1,1.5-3.2,2.9-3.2,4v1.4h6.4
	v3.4h-9.8L820.9,253.4z"/>
<path class="st4" d="M965.3,231.2c0-2.2-1-3.3-3-3.3l0,0c-2,0-3,1.1-3,3.3v6.5h-7v-6.5c0-6.8,3.3-10.1,10-10.1c6.7,0,10,3.4,10,10.1
	v8.4c0,3.2-1.3,5.4-3.8,6.7c2.5,1.3,3.8,3.6,3.8,6.7v7.7c0,6.8-3.3,10.1-10,10.1c-6.7,0-10-3.4-10-10.1v-6.5h7v6.5
	c0,2.2,1,3.3,3,3.3l0,0c2,0,3-1.1,3-3.3v-7.7c0-1.8-0.4-2.8-1.1-3.1c-0.6-0.2-1.2-0.3-1.8-0.2h-2.3v-6.9h2.8c0.5,0,1-0.1,1.5-0.3
	c0.6-0.3,0.9-1.3,0.9-3V231.2z"/>
<path class="st4" d="M690.8,234.7v20.4h3.2v3.4h-9.8v-3.4h3.2v-17h-3.2v-3.4L690.8,234.7z"/>
<g>
	<path class="st4" d="M430.4,540.1h4.2v16.7h5.4v3.9h-9.6V540.1z"/>
	<path class="st4" d="M454.2,560.7h-3.4v-1.5c-0.7,1.3-1.6,1.8-3.1,1.8c-2.8,0-5-2.6-5-8.2c0-5.3,1.8-8.2,5-8.2
		c1.3,0,2.5,0.5,3.1,1.9v-1.6h3.4V560.7z M446.5,552.9c0,3.5,0.8,4.5,2,4.5c0.8,0,1.1-0.2,1.5-0.7c0.5-0.6,0.5-1.3,0.5-3.8
		c0-2.5,0-3.2-0.5-3.8c-0.4-0.5-0.7-0.7-1.5-0.7C447.2,548.3,446.5,549.3,446.5,552.9L446.5,552.9z"/>
	<path class="st4" d="M478,565.7h-3.7v-5c0-0.4,0-0.9,0-1.4c-0.6,1.2-1.5,1.7-2.8,1.7c-3.2,0-5-2.9-5-8.2c0-5.7,2.1-8.2,5-8.2
		c1.5,0,2.8,0.8,3,1.8v-1.5h3.5V565.7z M470.3,552.9c0,3.5,0.8,4.5,2,4.5c0.8,0,1.1-0.2,1.5-0.7c0.5-0.6,0.5-1.3,0.5-3.8
		c0-2.5,0-3.2-0.5-3.8c-0.4-0.5-0.7-0.7-1.5-0.7C471.1,548.3,470.3,549.3,470.3,552.9L470.3,552.9z"/>
	<path class="st4" d="M493.1,560.7h-3.4v-1.7c-0.5,1.3-1.3,2-3.2,2c-2.5,0-4.1-1.4-4.1-4.6v-11.6h3.7v10.3c0,1.1,0.3,2.1,1.6,2.1
		c1,0,1.7-0.5,1.7-1.8v-10.6h3.7V560.7z"/>
	<path class="st4" d="M500.8,554.2c0,1.6,0.4,3.4,2.1,3.4c1,0,1.7-0.6,1.9-1.9h3.7c-0.3,2.2-1.2,3.6-2.3,4.4c-1.1,0.8-2.3,1-3.4,1
		c-4.1,0-6.1-3.7-6.1-8.2s1.9-8.2,6.1-8.2c2.1,0,3.6,0.9,4.6,2.5c1.2,2,1.3,4.6,1.2,7H500.8z M504.9,551c0-0.9-0.1-3.3-2-3.3
		c-1.3,0-2.1,1.1-2.1,3.3H504.9z"/>
	<path class="st4" d="M518.4,549.6c-0.1-1.2-0.5-1.8-1.7-1.8c-0.9,0-1.3,0.5-1.3,1.2c0,1.3,1.8,1.4,3.6,2c1.8,0.6,3.6,1.6,3.6,4.8
		c0,3-2.3,5.2-5.6,5.2c-3,0-5.4-1.7-5.8-5.4h3.7c0.1,1.2,0.9,2,2.1,2c1.2,0,1.5-0.8,1.5-1.6c0-1.4-1.8-1.5-3.6-2.1
		c-1.8-0.6-3.6-1.7-3.6-4.8c0-2.6,1.8-4.6,5.4-4.6c3.5,0,5.1,1.9,5.3,5H518.4z"/>
	<path class="st4" d="M526.3,548.4h-1.7v-3.5h1.7v-3h3.7v3h1.7v3.5H530v12.3h-3.7V548.4z"/>
	<path class="st4" d="M535.1,540.1h3.7v3.1h-3.7V540.1z M535.1,544.9h3.7v15.8h-3.7V544.9z"/>
	<path class="st4" d="M542.8,552.8c0-4.5,1.9-8.2,6.1-8.2c4.1,0,6.1,3.7,6.1,8.2s-1.9,8.2-6.1,8.2
		C544.8,561.1,542.8,557.4,542.8,552.8L542.8,552.8z M546.8,552.9c0,3.7,0.8,4.7,2.2,4.7c1.3,0,2.1-1,2.1-4.7s-0.8-4.7-2.2-4.7
		C547.6,548.1,546.8,549.1,546.8,552.9L546.8,552.9z"/>
	<path class="st4" d="M558.6,544.9h3.2v1.5c0.6-1.1,1.4-1.8,3.4-1.8c2.5,0,4.1,1.4,4.1,4.6v11.5h-3.7v-10.3c0-1.1-0.2-2.1-1.6-2.1
		c-1,0-1.7,0.5-1.7,1.8v10.6h-3.7V544.9z"/>
	<path class="st4" d="M593.2,560.7h-3.4V559c-0.3,1.3-1.6,2.1-3.1,2.1c-2.8,0-5-2.6-5-8.2c0-5.3,1.8-8.2,5-8.2
		c1.3,0,2.2,0.5,2.8,1.7c0-0.4,0-0.9,0-1.3v-4.8h3.7V560.7z M585.5,552.9c0,3.5,0.8,4.5,2,4.5c0.8,0,1.1-0.2,1.5-0.7
		c0.5-0.6,0.5-1.3,0.5-3.8c0-2.5,0-3.2-0.5-3.8c-0.4-0.5-0.7-0.7-1.5-0.7C586.3,548.3,585.5,549.3,585.5,552.9L585.5,552.9z"/>
	<path class="st4" d="M608.2,560.7h-3.4v-1.7c-0.5,1.3-1.3,2-3.2,2c-2.5,0-4.1-1.4-4.1-4.6v-11.6h3.7v10.3c0,1.1,0.2,2.1,1.6,2.1
		c1,0,1.7-0.5,1.7-1.8v-10.6h3.7V560.7z"/>
	<path class="st4" d="M627.4,549.6c-0.1-1.2-0.5-1.8-1.7-1.8c-0.9,0-1.3,0.5-1.3,1.2c0,1.3,1.8,1.4,3.6,2c1.8,0.6,3.6,1.6,3.6,4.8
		c0,3-2.3,5.2-5.6,5.2c-3,0-5.4-1.7-5.8-5.4h3.7c0.1,1.2,0.9,2,2.1,2c1.2,0,1.5-0.8,1.5-1.6c0-1.4-1.8-1.5-3.6-2.1
		c-1.8-0.6-3.6-1.7-3.6-4.8c0-2.6,1.8-4.6,5.4-4.6c3.5,0,5.1,1.9,5.3,5H627.4z"/>
	<path class="st4" d="M645.6,560.7h-3.4v-1.5c-0.7,1.3-1.6,1.8-3.1,1.8c-2.8,0-5-2.6-5-8.2c0-5.3,1.8-8.2,5-8.2
		c1.3,0,2.5,0.5,3.1,1.9v-1.6h3.4V560.7z M637.8,552.9c0,3.5,0.8,4.5,2,4.5c0.8,0,1.1-0.2,1.5-0.7c0.5-0.6,0.5-1.3,0.5-3.8
		c0-2.5,0-3.2-0.5-3.8c-0.4-0.5-0.7-0.7-1.5-0.7C638.6,548.3,637.8,549.3,637.8,552.9L637.8,552.9z"/>
	<path class="st4" d="M650.3,540.1h3.7v20.6h-3.7V540.1z"/>
	<path class="st4" d="M669.4,560.7H666v-1.5c-0.7,1.3-1.6,1.8-3.1,1.8c-2.8,0-5-2.6-5-8.2c0-5.3,1.8-8.2,5-8.2
		c1.3,0,2.5,0.5,3.1,1.9v-1.6h3.4V560.7z M661.7,552.9c0,3.5,0.8,4.5,2,4.5c0.8,0,1.1-0.2,1.5-0.7c0.5-0.6,0.5-1.3,0.5-3.8
		c0-2.5,0-3.2-0.5-3.8c-0.4-0.5-0.7-0.7-1.5-0.7C662.5,548.3,661.7,549.3,661.7,552.9L661.7,552.9z"/>
	<path class="st4" d="M674.2,540.1h3.7v3.1h-3.7V540.1z M674.2,544.9h3.7v15.8h-3.7V544.9z"/>
	<path class="st4" d="M682.6,544.9h3.4v2.1c0.6-2,1.9-2.4,4-2.4v4.6c-0.5-0.4-1.1-0.5-1.6-0.5c-1.4,0-2,1.2-2,2.8v9.2h-3.7V544.9z"
		/>
	<path class="st4" d="M696,554.2c0,1.6,0.4,3.4,2.1,3.4c1,0,1.7-0.6,1.9-1.9h3.7c-0.3,2.2-1.2,3.6-2.3,4.4c-1.1,0.8-2.3,1-3.4,1
		c-4.1,0-6.1-3.7-6.1-8.2s1.9-8.2,6.1-8.2c2.1,0,3.6,0.9,4.6,2.5c1.2,2,1.3,4.6,1.2,7H696z M700.1,551c0-0.9-0.1-3.3-2-3.3
		c-1.3,0-2.1,1.1-2.1,3.3H700.1z"/>
	<path class="st4" d="M720.8,555h-4.1v-14.9h4.1V555z M720.8,560.7h-4.1v-4.2h4.1V560.7z"/>
	<path class="st4" d="M732.5,560.7h-2.1l5.9-20.6h2.1l6,20.6h-2.1l-1.8-6.1h-6.2L732.5,560.7z M737.3,542.8l-2.5,9.9h5.1
		L737.3,542.8z"/>
	<path class="st4" d="M756.9,560.7h-1.7c0-0.9,0-1.7,0.1-2.6c-0.8,2.2-2.5,3-4.2,3c-2.6,0-4.3-1.5-4.3-5.2v-10.3h1.9v9.7
		c0,1.5,0.2,3.9,2.9,3.9c2.2,0,3.6-1.5,3.6-4.7v-9h1.9V560.7z"/>
	<path class="st4" d="M762.4,547.3h-2.1v-1.8h2.1v-4.8h1.9v4.8h2.1v1.8h-2.1v13.4h-1.9V547.3z"/>
	<path class="st4" d="M779.3,560.7h-1.7c0-1.3,0-2.2,0-2.9c-0.7,2.1-2.1,3.3-4,3.3c-3,0-5.1-3.2-5.1-7.9c0-4.7,1.9-8,5.1-8
		c1.7,0,3.2,0.9,4,3.3c0-0.9,0-1.8,0-2.9h1.7V560.7z M770.4,553.2c0,3.4,1.2,6.1,3.5,6.1c1.2,0,2-0.6,2.6-1.7
		c0.6-1.1,0.9-2.4,0.9-4.4c0-2-0.2-3.4-0.9-4.4c-0.6-1-1.4-1.7-2.6-1.7C771.6,547.1,770.4,549.7,770.4,553.2L770.4,553.2z"/>
	<path class="st4" d="M784.1,545.6h1.7c0,0.9,0,1.6-0.1,2.6c0.8-2.1,2.5-3,4.3-3c2.6,0,4.3,1.5,4.3,5.2v10.3h-1.9V551
		c0-1.5-0.2-3.9-2.9-3.9c-2.2,0-3.6,1.5-3.6,4.7v9h-1.9V545.6z"/>
	<path class="st4" d="M799.8,547.3h-2.1v-1.8h2.1v-4.8h1.9v4.8h2.1v1.8h-2.1v13.4h-1.9V547.3z"/>
	<path class="st4" d="M821,549.5c0-1.9-1-2.6-2.4-2.6c-1.3,0-2.2,0.9-2.2,2.3c0,1.7,1.4,2.3,3.3,2.9c1.7,0.5,3.6,1.5,3.6,4.6
		c0,2.7-1.9,4.5-4.5,4.5c-2.8,0-4.6-1.6-4.7-4.8h1.8c0,2.1,1.2,3.1,2.9,3.1c1.6,0,2.6-1.1,2.6-2.6c0-1.8-1.3-2.6-3.3-3.2
		c-1.9-0.6-3.6-1.6-3.6-4.3c0-2.4,1.8-4,4.2-4c2.6,0,4.1,1.5,4.2,4.3H821z"/>
	<path class="st4" d="M828.4,553.7c0,3.1,1.3,5.6,3.8,5.6c1.8,0,3-1.3,3.4-3h1.8c-0.3,1.6-1,2.8-1.9,3.6c-0.9,0.8-2.1,1.2-3.3,1.2
		c-4.2,0-5.8-4-5.8-7.9c0-4.7,2.2-8,5.7-8c1.8,0,3.2,0.8,4.1,2.1c1.2,1.8,1.4,4.1,1.4,6.3H828.4z M835.8,552.1
		c-0.1-3.1-1.4-5.3-3.6-5.3c-2.2,0-3.6,2.3-3.7,5.3H835.8z"/>
	<path class="st4" d="M849.5,545.6h1.8c0,0.8,0,1.6-0.1,2.5c0.8-2.4,2.5-2.8,3.8-2.8c1.1,0,1.9,0.3,2.6,1c0.4,0.4,0.7,1.1,0.8,1.8
		c0.3-0.8,0.7-1.4,1.3-1.9c0.8-0.6,1.7-0.9,2.8-0.9c1.8,0,2.9,0.9,3.5,1.9c0.6,0.9,0.7,2.6,0.7,4.1v9.4H865v-9.3
		c0-1.1-0.1-2.1-0.3-2.8c-0.3-1-1.3-1.6-2.3-1.6c-0.9,0-1.7,0.2-2.4,1.2c-0.6,0.9-0.8,2.2-0.8,3.3v9.1h-1.9v-9.2c0-1.2,0-2-0.3-2.9
		c-0.3-1-1.2-1.6-2.3-1.6c-0.9,0-1.8,0.3-2.4,1.2c-0.7,0.9-0.8,2.2-0.8,3.4v9.1h-1.9V545.6z"/>
	<path class="st4" d="M872.8,553.7c0,3.1,1.3,5.6,3.8,5.6c1.8,0,3-1.3,3.4-3h1.8c-0.3,1.6-1,2.8-1.9,3.6c-0.9,0.8-2.1,1.2-3.3,1.2
		c-4.2,0-5.8-4-5.8-7.9c0-4.7,2.2-8,5.7-8c1.8,0,3.2,0.8,4.1,2.1c1.2,1.8,1.4,4.1,1.4,6.3H872.8z M880.1,552.1
		c-0.1-3.1-1.4-5.3-3.6-5.3c-2.2,0-3.6,2.3-3.7,5.3H880.1z"/>
	<path class="st4" d="M886.7,547.3h-2.1v-1.8h2.1v-4.8h1.9v4.8h2.1v1.8h-2.1v13.4h-1.9V547.3z"/>
	<path class="st4" d="M894.8,547.3h-2.1v-1.8h2.1v-4.8h1.9v4.8h2.1v1.8h-2.1v13.4h-1.9V547.3z"/>
	<path class="st4" d="M902.1,545.6h1.7c0,1.4,0,2.3-0.1,3.2c0.8-3,2.7-3.5,4-3.5v2.2c-0.2-0.1-0.4-0.2-0.7-0.2
		c-1.3,0-3.1,1.6-3.1,5.4v8.1h-1.9V545.6z"/>
	<path class="st4" d="M911.8,553.7c0,3.1,1.3,5.6,3.8,5.6c1.8,0,3-1.3,3.4-3h1.8c-0.3,1.6-1,2.8-1.9,3.6c-0.9,0.8-2.1,1.2-3.3,1.2
		c-4.2,0-5.8-4-5.8-7.9c0-4.7,2.2-8,5.7-8c1.8,0,3.2,0.8,4.1,2.1c1.2,1.8,1.4,4.1,1.4,6.3H911.8z M919.2,552.1
		c-0.1-3.1-1.4-5.3-3.6-5.3c-2.2,0-3.6,2.3-3.7,5.3H919.2z"/>
	<path class="st4" d="M942.8,560.7h-1.7c0-1.4,0-2.2,0-3c-0.5,2.1-2.1,3.4-4,3.4c-3,0-5.1-3.2-5.1-7.9c0-4.7,1.9-8,5.1-8
		c1.7,0,3.1,0.9,3.9,3.2c-0.1-0.9-0.1-1.7-0.1-2.8v-5.5h1.9V560.7z M933.9,553.2c0,3.4,1.2,6.1,3.5,6.1c1.2,0,2-0.6,2.6-1.7
		c0.6-1.1,0.9-2.4,0.9-4.4s-0.2-3.4-0.9-4.4c-0.6-1-1.4-1.6-2.6-1.6C935.1,547.1,933.9,549.7,933.9,553.2L933.9,553.2z"/>
	<path class="st4" d="M949.4,540.1h2l-2.2,5.3h-1.8L949.4,540.1z"/>
	<path class="st4" d="M965.8,560.7h-1.7c0-1.3,0-2.2,0-2.9c-0.7,2.1-2.1,3.3-4,3.3c-3,0-5.1-3.2-5.1-7.9c0-4.7,1.9-8,5.1-8
		c1.7,0,3.2,0.9,4,3.3c0-0.9,0-1.8,0-2.9h1.7V560.7z M956.9,553.2c0,3.4,1.2,6.1,3.5,6.1c1.2,0,2-0.6,2.6-1.7
		c0.6-1.1,0.9-2.4,0.9-4.4c0-2-0.2-3.4-0.9-4.4c-0.6-1-1.4-1.7-2.6-1.7C958.2,547.1,956.9,549.7,956.9,553.2L956.9,553.2z"/>
	<path class="st4" d="M980.6,555.6c-0.3,3.1-2,5.5-5,5.5c-4,0-5.8-3.8-5.8-7.9c0-5,2.3-8,5.8-8c3.1,0,4.9,2.4,5,5.6h-1.9
		c-0.3-3-1.8-3.8-3.2-3.8c-1.1,0-2.1,0.4-2.8,1.6c-0.7,1.2-1,2.6-1,4.6c0,4,1.4,6.2,3.8,6.2c1.9,0,2.9-1.5,3.2-3.8H980.6z"/>
	<path class="st4" d="M994.1,555.6c-0.3,3.1-2,5.5-5,5.5c-4,0-5.8-3.8-5.8-7.9c0-5,2.3-8,5.8-8c3.1,0,4.9,2.4,5,5.6h-1.9
		c-0.3-3-1.8-3.8-3.2-3.8c-1.1,0-2.1,0.4-2.8,1.6c-0.7,1.2-1,2.6-1,4.6c0,4,1.4,6.2,3.8,6.2c1.9,0,2.9-1.5,3.2-3.8H994.1z"/>
	<path class="st4" d="M996.8,553.1c0-4.3,1.8-7.9,5.8-7.9c4,0,5.8,3.6,5.8,7.9s-1.8,7.9-5.8,7.9
		C998.6,561.1,996.8,557.5,996.8,553.1L996.8,553.1z M998.8,553.2c0,4,1.3,6.2,3.9,6.2c2.5,0,3.8-2.1,3.8-6.2c0-4-1.3-6.2-3.9-6.2
		C1000.1,547,998.8,549.1,998.8,553.2L998.8,553.2z"/>
	<path class="st4" d="M1012.4,545.6h1.7c0,1.4,0,2.3-0.1,3.2c0.8-3,2.7-3.5,4-3.5v2.2c-0.2-0.1-0.4-0.2-0.7-0.2
		c-1.3,0-3.1,1.6-3.1,5.4v8.1h-1.9V545.6z"/>
	<path class="st4" d="M1030.9,560.7h-1.7c0-1.4,0-2.2,0-3c-0.5,2.1-2.1,3.4-4,3.4c-3,0-5.1-3.2-5.1-7.9c0-4.7,1.9-8,5.1-8
		c1.7,0,3.1,0.9,3.9,3.2c-0.1-0.9-0.1-1.7-0.1-2.8v-5.5h1.9V560.7z M1022,553.2c0,3.4,1.2,6.1,3.5,6.1c1.2,0,2-0.6,2.6-1.7
		c0.6-1.1,0.9-2.4,0.9-4.4s-0.2-3.4-0.9-4.4c-0.6-1-1.4-1.6-2.6-1.6C1023.2,547.1,1022,549.7,1022,553.2L1022,553.2z"/>
	<path class="st4" d="M1049.6,549.5c0-1.9-1-2.6-2.4-2.6c-1.3,0-2.2,0.9-2.2,2.3c0,1.7,1.4,2.3,3.3,2.9c1.7,0.5,3.6,1.5,3.6,4.6
		c0,2.7-1.9,4.5-4.5,4.5c-2.8,0-4.6-1.6-4.7-4.8h1.8c0,2.1,1.2,3.1,2.9,3.1c1.6,0,2.6-1.1,2.6-2.6c0-1.8-1.3-2.6-3.3-3.2
		c-1.9-0.6-3.6-1.6-3.6-4.3c0-2.4,1.8-4,4.2-4c2.6,0,4.1,1.5,4.2,4.3H1049.6z"/>
	<path class="st4" d="M1066,560.7h-1.7c0-0.9,0-1.7,0.1-2.6c-0.8,2.2-2.5,3-4.2,3c-2.6,0-4.3-1.5-4.3-5.2v-10.3h1.9v9.7
		c0,1.5,0.2,3.9,2.9,3.9c2.2,0,3.6-1.5,3.6-4.7v-9h1.9V560.7z"/>
	<path class="st4" d="M1070.8,545.6h1.7c0,1.4,0,2.3-0.1,3.2c0.8-3,2.7-3.5,4-3.5v2.2c-0.2-0.1-0.4-0.2-0.7-0.2
		c-1.3,0-3.1,1.6-3.1,5.4v8.1h-1.9V545.6z"/>
	<path class="st4" d="M1097.4,555.6c-0.3,3.1-2,5.5-5,5.5c-4,0-5.8-3.8-5.8-7.9c0-5,2.3-8,5.8-8c3.1,0,4.9,2.4,5,5.6h-1.9
		c-0.3-3-1.8-3.8-3.2-3.8c-1.1,0-2.1,0.4-2.8,1.6c-0.7,1.2-1,2.6-1,4.6c0,4,1.4,6.2,3.8,6.2c1.9,0,2.9-1.5,3.2-3.8H1097.4z"/>
	<path class="st4" d="M1102.1,553.7c0,3.1,1.3,5.6,3.8,5.6c1.8,0,3-1.3,3.4-3h1.8c-0.3,1.6-1,2.8-1.9,3.6c-0.9,0.8-2.1,1.2-3.3,1.2
		c-4.2,0-5.8-4-5.8-7.9c0-4.7,2.2-8,5.7-8c1.8,0,3.2,0.8,4.1,2.1c1.2,1.8,1.4,4.1,1.4,6.3H1102.1z M1109.4,552.1
		c-0.1-3.1-1.4-5.3-3.6-5.3c-2.2,0-3.6,2.3-3.7,5.3H1109.4z"/>
	<path class="st4" d="M1129.2,549.5c0-1.9-1-2.6-2.4-2.6c-1.3,0-2.2,0.9-2.2,2.3c0,1.7,1.4,2.3,3.3,2.9c1.7,0.5,3.6,1.5,3.6,4.6
		c0,2.7-1.9,4.5-4.5,4.5c-2.8,0-4.6-1.6-4.7-4.8h1.8c0,2.1,1.2,3.1,2.9,3.1c1.6,0,2.6-1.1,2.6-2.6c0-1.8-1.3-2.6-3.3-3.2
		c-1.9-0.6-3.6-1.6-3.6-4.3c0-2.4,1.8-4,4.2-4c2.6,0,4.1,1.5,4.2,4.3H1129.2z"/>
	<path class="st4" d="M1145.6,560.7h-1.7c0-0.9,0-1.7,0.1-2.6c-0.8,2.2-2.5,3-4.2,3c-2.6,0-4.3-1.5-4.3-5.2v-10.3h1.9v9.7
		c0,1.5,0.2,3.9,2.9,3.9c2.2,0,3.6-1.5,3.6-4.7v-9h1.9V560.7z"/>
	<path class="st4" d="M1152.4,560.9c0,2.5-0.6,5-3.2,5.5c-0.2,0-0.4,0.1-0.7,0.1v-1.8c0.1,0,0.2,0,0.2-0.1c1.4-0.3,1.7-1.7,1.7-3.9
		v-15.1h1.9V560.9z M1150.5,540.1h1.9v2.8h-1.9V540.1z"/>
	<path class="st4" d="M1158.6,553.7c0,3.1,1.3,5.6,3.8,5.6c1.8,0,3-1.3,3.4-3h1.8c-0.3,1.6-1,2.8-1.9,3.6c-0.9,0.8-2.1,1.2-3.3,1.2
		c-4.2,0-5.8-4-5.8-7.9c0-4.7,2.2-8,5.7-8c1.8,0,3.2,0.8,4.1,2.1c1.2,1.8,1.4,4.1,1.4,6.3H1158.6z M1166,552.1
		c-0.1-3.1-1.4-5.3-3.6-5.3c-2.2,0-3.6,2.3-3.7,5.3H1166z"/>
	<path class="st4" d="M1172.5,547.3h-2.1v-1.8h2.1v-4.8h1.9v4.8h2.1v1.8h-2.1v13.4h-1.9V547.3z"/>
	<path class="st4" d="M1188.4,547.3h-2.1v-1.8h2.1v-4.8h1.9v4.8h2.1v1.8h-2.1v13.4h-1.9V547.3z"/>
	<path class="st4" d="M1194.6,553.1c0-4.3,1.8-7.9,5.8-7.9c4,0,5.8,3.6,5.8,7.9s-1.8,7.9-5.8,7.9
		C1196.4,561.1,1194.6,557.5,1194.6,553.1L1194.6,553.1z M1196.6,553.2c0,4,1.3,6.2,3.9,6.2c2.5,0,3.8-2.1,3.8-6.2
		c0-4-1.3-6.2-3.9-6.2C1197.9,547,1196.6,549.1,1196.6,553.2L1196.6,553.2z"/>
	<path class="st4" d="M1220.4,560.7h-1.7c0-0.9,0-1.7,0.1-2.6c-0.8,2.2-2.5,3-4.2,3c-2.6,0-4.3-1.5-4.3-5.2v-10.3h1.9v9.7
		c0,1.5,0.2,3.9,2.9,3.9c2.2,0,3.6-1.5,3.6-4.7v-9h1.9V560.7z"/>
	<path class="st4" d="M1225.9,547.3h-2.1v-1.8h2.1v-4.8h1.9v4.8h2.1v1.8h-2.1v13.4h-1.9V547.3z"/>
	<path class="st4" d="M1251,560.7h-1.7c0-1.4,0-2.2,0-3c-0.5,2.1-2.1,3.4-4,3.4c-3,0-5.1-3.2-5.1-7.9c0-4.7,1.9-8,5.1-8
		c1.7,0,3.1,0.9,3.9,3.2c-0.1-0.9-0.1-1.7-0.1-2.8v-5.5h1.9V560.7z M1242.1,553.2c0,3.4,1.2,6.1,3.5,6.1c1.2,0,2-0.6,2.6-1.7
		c0.6-1.1,0.9-2.4,0.9-4.4s-0.2-3.4-0.9-4.4c-0.6-1-1.4-1.6-2.6-1.6C1243.4,547.1,1242.1,549.7,1242.1,553.2L1242.1,553.2z"/>
	<path class="st4" d="M1257,553.7c0,3.1,1.3,5.6,3.8,5.6c1.8,0,3-1.3,3.4-3h1.8c-0.3,1.6-1,2.8-1.9,3.6c-0.9,0.8-2.1,1.2-3.3,1.2
		c-4.2,0-5.8-4-5.8-7.9c0-4.7,2.2-8,5.7-8c1.8,0,3.2,0.8,4.1,2.1c1.2,1.8,1.4,4.1,1.4,6.3H1257z M1264.4,552.1
		c-0.1-3.1-1.4-5.3-3.6-5.3c-2.2,0-3.6,2.3-3.7,5.3H1264.4z"/>
	<path class="st4" d="M1284.2,549.5c0-1.9-1-2.6-2.4-2.6c-1.3,0-2.2,0.9-2.2,2.3c0,1.7,1.4,2.3,3.3,2.9c1.7,0.5,3.6,1.5,3.6,4.6
		c0,2.7-1.9,4.5-4.5,4.5c-2.8,0-4.6-1.6-4.7-4.8h1.8c0,2.1,1.2,3.1,2.9,3.1c1.6,0,2.6-1.1,2.6-2.6c0-1.8-1.3-2.6-3.3-3.2
		c-1.9-0.6-3.6-1.6-3.6-4.3c0-2.4,1.8-4,4.2-4c2.6,0,4.1,1.5,4.2,4.3H1284.2z"/>
	<path class="st4" d="M1300.5,560.7h-1.7c0-0.9,0-1.7,0.1-2.6c-0.8,2.2-2.5,3-4.2,3c-2.6,0-4.3-1.5-4.3-5.2v-10.3h1.9v9.7
		c0,1.5,0.2,3.9,2.9,3.9c2.2,0,3.6-1.5,3.6-4.7v-9h1.9V560.7z"/>
	<path class="st4" d="M1305.5,540.1h1.9v2.7h-1.9V540.1z M1305.5,545.6h1.9v15.1h-1.9V545.6z"/>
	<path class="st4" d="M1313.1,547.3h-2.1v-1.8h2.1v-4.8h1.9v4.8h2.1v1.8h-2.1v13.4h-1.9V547.3z"/>
	<path class="st4" d="M1321.3,553.7c0,3.1,1.3,5.6,3.8,5.6c1.8,0,3-1.3,3.4-3h1.8c-0.3,1.6-1,2.8-1.9,3.6c-0.9,0.8-2.1,1.2-3.3,1.2
		c-4.2,0-5.8-4-5.8-7.9c0-4.7,2.2-8,5.7-8c1.8,0,3.2,0.8,4.1,2.1c1.2,1.8,1.4,4.1,1.4,6.3H1321.3z M1328.7,552.1
		c-0.1-3.1-1.4-5.3-3.6-5.3c-2.2,0-3.6,2.3-3.7,5.3H1328.7z"/>
	<path class="st4" d="M1345,555.7h-2.1v-15.6h2.1V555.7z M1345,560.7h-2.1v-3h2.1V560.7z"/>
	<path class="st4" d="M436.2,609.1c1.9,0,3.6,0.6,4.8,1.7c1.2,1.1,1.9,2.8,1.9,5c0,2.2-0.7,3.8-1.9,5c-1.2,1.1-2.9,1.7-4.8,1.7h-1.6
		v7.2h-4.2v-20.6H436.2z M434.6,618.7h1.6c0.8,0,1.4-0.2,1.8-0.7c0.4-0.4,0.6-1.1,0.6-2.1c0-1.1-0.2-1.7-0.6-2.2
		c-0.4-0.4-1-0.6-1.8-0.6h-1.6V618.7z"/>
	<path class="st4" d="M446.6,613.9h3.4v2.1c0.6-2,1.9-2.4,4-2.4v4.6c-0.5-0.4-1.1-0.5-1.6-0.5c-1.4,0-2,1.2-2,2.8v9.2h-3.7V613.9z"
		/>
	<path class="st4" d="M460,623.2c0,1.6,0.4,3.4,2.1,3.4c1,0,1.7-0.6,1.9-1.9h3.7c-0.3,2.2-1.2,3.6-2.3,4.4c-1.1,0.8-2.3,1-3.4,1
		c-4.1,0-6.1-3.7-6.1-8.2s1.9-8.2,6.1-8.2c2.1,0,3.6,0.9,4.6,2.5c1.2,2,1.3,4.6,1.2,7H460z M465.6,607.2l1.4,3l-6.5,2.9l-1.3-2.4
		L465.6,607.2z M464.1,620c0-0.9-0.1-3.3-2-3.3c-1.3,0-2.1,1.1-2.1,3.3H464.1z"/>
	<path class="st4" d="M477.5,618.6c-0.1-1.2-0.5-1.8-1.7-1.8c-0.9,0-1.3,0.5-1.3,1.2c0,1.3,1.8,1.4,3.6,2c1.8,0.6,3.6,1.6,3.6,4.8
		c0,3-2.3,5.2-5.6,5.2c-3,0-5.4-1.7-5.8-5.4h3.7c0.1,1.2,0.9,2,2.1,2c1.2,0,1.5-0.8,1.5-1.6c0-1.4-1.8-1.5-3.6-2.1
		c-1.8-0.6-3.6-1.7-3.6-4.8c0-2.6,1.8-4.6,5.4-4.6c3.5,0,5.1,1.9,5.3,5H477.5z"/>
	<path class="st4" d="M488.5,623.2c0,1.6,0.4,3.4,2.1,3.4c1,0,1.7-0.6,1.9-1.9h3.7c-0.3,2.2-1.2,3.6-2.3,4.4c-1.1,0.8-2.3,1-3.4,1
		c-4.1,0-6.1-3.7-6.1-8.2s1.9-8.2,6.1-8.2c2.1,0,3.6,0.9,4.6,2.5c1.2,2,1.3,4.6,1.2,7H488.5z M492.6,620c0-0.9-0.1-3.3-2-3.3
		c-1.3,0-2.1,1.1-2.1,3.3H492.6z"/>
	<path class="st4" d="M500.1,613.9h3.2v1.5c0.6-1.1,1.4-1.8,3.4-1.8c2.5,0,4.1,1.4,4.1,4.6v11.5H507v-10.3c0-1.1-0.3-2.1-1.6-2.1
		c-1,0-1.7,0.5-1.7,1.8v10.6h-3.7V613.9z"/>
	<path class="st4" d="M515.5,617.4h-1.7v-3.5h1.7v-3h3.7v3h1.7v3.5h-1.7v12.3h-3.7V617.4z"/>
	<path class="st4" d="M527.1,623.2c0,1.6,0.4,3.4,2.1,3.4c1,0,1.7-0.6,1.9-1.9h3.7c-0.3,2.2-1.2,3.6-2.3,4.4c-1.1,0.8-2.3,1-3.4,1
		c-4.1,0-6.1-3.7-6.1-8.2s1.9-8.2,6.1-8.2c2.1,0,3.6,0.9,4.6,2.5c1.2,2,1.3,4.6,1.2,7H527.1z M531.2,620c0-0.9-0.1-3.3-2-3.3
		c-1.3,0-2.1,1.1-2.1,3.3H531.2z"/>
	<path class="st4" d="M537.9,626.2l5.8-8.8h-5.2v-3.5h9.7v3.5l-5.7,8.8h5.7v3.5h-10.2V626.2z"/>
	<path class="st4" d="M558.7,620v3.6h-6.9V620H558.7z"/>
	<path class="st4" d="M569,629.7h-3.4l-4.6-15.8h3.8l2.4,10.1l2.1-10.1h3.8L569,629.7z"/>
	<path class="st4" d="M575,621.8c0-4.5,1.9-8.2,6.1-8.2c4.1,0,6.1,3.7,6.1,8.2s-1.9,8.2-6.1,8.2C576.9,630.1,575,626.4,575,621.8
		L575,621.8z M578.9,621.9c0,3.7,0.8,4.7,2.2,4.7c1.3,0,2.1-1,2.1-4.7s-0.8-4.7-2.2-4.7C579.8,617.1,578.9,618.1,578.9,621.9
		L578.9,621.9z"/>
	<path class="st4" d="M601.5,629.7h-3.4v-1.7c-0.5,1.3-1.3,2-3.2,2c-2.5,0-4.1-1.4-4.1-4.6v-11.6h3.7v10.3c0,1.1,0.2,2.1,1.6,2.1
		c1,0,1.7-0.5,1.7-1.8v-10.6h3.7V629.7z"/>
	<path class="st4" d="M611.7,618.6c-0.1-1.2-0.5-1.8-1.7-1.8c-0.9,0-1.3,0.5-1.3,1.2c0,1.3,1.8,1.4,3.6,2c1.8,0.6,3.6,1.6,3.6,4.8
		c0,3-2.3,5.2-5.6,5.2c-3,0-5.4-1.7-5.8-5.4h3.7c0.1,1.2,0.9,2,2.1,2c1.2,0,1.5-0.8,1.5-1.6c0-1.4-1.8-1.5-3.6-2.1
		c-1.8-0.6-3.6-1.7-3.6-4.8c0-2.6,1.8-4.6,5.4-4.6c3.5,0,5.1,1.9,5.3,5H611.7z"/>
	<path class="st4" d="M631.5,623.2c0,1.6,0.4,3.4,2.1,3.4c1,0,1.7-0.6,1.9-1.9h3.7c-0.3,2.2-1.2,3.6-2.3,4.4c-1.1,0.8-2.3,1-3.4,1
		c-4.1,0-6.1-3.7-6.1-8.2s1.9-8.2,6.1-8.2c2.1,0,3.6,0.9,4.6,2.5c1.2,2,1.3,4.6,1.2,7H631.5z M635.6,620c0-0.9-0.1-3.3-2-3.3
		c-1.3,0-2.1,1.1-2.1,3.3H635.6z"/>
	<path class="st4" d="M643.1,613.9h3.2v1.5c0.6-1.1,1.4-1.8,3.4-1.8c2.5,0,4.1,1.4,4.1,4.6v11.5h-3.7v-10.3c0-1.1-0.3-2.1-1.6-2.1
		c-1,0-1.7,0.5-1.7,1.8v10.6h-3.7V613.9z"/>
	<path class="st4" d="M677.7,634.7H674v-5c0-0.4,0-0.9,0-1.4c-0.6,1.2-1.5,1.7-2.8,1.7c-3.2,0-5-2.9-5-8.2c0-5.7,2.1-8.2,5-8.2
		c1.5,0,2.8,0.8,3,1.8v-1.5h3.5V634.7z M670,621.9c0,3.5,0.8,4.5,2,4.5c0.8,0,1.1-0.2,1.5-0.7c0.5-0.6,0.5-1.3,0.5-3.8
		c0-2.5,0-3.2-0.5-3.8c-0.4-0.5-0.7-0.7-1.5-0.7C670.8,617.3,670,618.3,670,621.9L670,621.9z"/>
	<path class="st4" d="M692.7,629.7h-3.4v-1.7c-0.5,1.3-1.3,2-3.2,2c-2.5,0-4.1-1.4-4.1-4.6v-11.6h3.7v10.3c0,1.1,0.2,2.1,1.6,2.1
		c1,0,1.7-0.5,1.7-1.8v-10.6h3.7V629.7z"/>
	<path class="st4" d="M700.5,623.2c0,1.6,0.4,3.4,2.1,3.4c1,0,1.7-0.6,1.9-1.9h3.7c-0.3,2.2-1.2,3.6-2.3,4.4c-1.1,0.8-2.3,1-3.4,1
		c-4.1,0-6.1-3.7-6.1-8.2s1.9-8.2,6.1-8.2c2.1,0,3.6,0.9,4.6,2.5c1.2,2,1.3,4.6,1.2,7H700.5z M704.6,620c0-0.9-0.1-3.3-2-3.3
		c-1.3,0-2.1,1.1-2.1,3.3H704.6z"/>
	<path class="st4" d="M712.5,609.1h3.7v20.6h-3.7V609.1z"/>
	<path class="st4" d="M731.6,634.7h-3.7v-5c0-0.4,0-0.9,0-1.4c-0.6,1.2-1.5,1.7-2.8,1.7c-3.2,0-5-2.9-5-8.2c0-5.7,2.1-8.2,5-8.2
		c1.5,0,2.8,0.8,3,1.8v-1.5h3.5V634.7z M723.9,621.9c0,3.5,0.8,4.5,2,4.5c0.8,0,1.1-0.2,1.5-0.7c0.5-0.6,0.5-1.3,0.5-3.8
		c0-2.5,0-3.2-0.5-3.8c-0.4-0.5-0.7-0.7-1.5-0.7C724.7,617.3,723.9,618.3,723.9,621.9L723.9,621.9z"/>
	<path class="st4" d="M746.6,629.7h-3.4v-1.7c-0.5,1.3-1.3,2-3.2,2c-2.5,0-4.1-1.4-4.1-4.6v-11.6h3.7v10.3c0,1.1,0.2,2.1,1.6,2.1
		c1,0,1.7-0.5,1.7-1.8v-10.6h3.7V629.7z"/>
	<path class="st4" d="M754.4,623.2c0,1.6,0.4,3.4,2.1,3.4c1,0,1.7-0.6,1.9-1.9h3.7c-0.3,2.2-1.2,3.6-2.3,4.4c-1.1,0.8-2.3,1-3.4,1
		c-4.1,0-6.1-3.7-6.1-8.2s1.9-8.2,6.1-8.2c2.1,0,3.6,0.9,4.6,2.5c1.2,2,1.3,4.6,1.2,7H754.4z M758.5,620c0-0.9-0.1-3.3-2-3.3
		c-1.3,0-2.1,1.1-2.1,3.3H758.5z"/>
	<path class="st4" d="M772,618.6c-0.1-1.2-0.5-1.8-1.7-1.8c-0.9,0-1.3,0.5-1.3,1.2c0,1.3,1.8,1.4,3.6,2c1.8,0.6,3.6,1.6,3.6,4.8
		c0,3-2.3,5.2-5.6,5.2c-3,0-5.4-1.7-5.8-5.4h3.7c0.1,1.2,0.9,2,2.1,2c1.2,0,1.5-0.8,1.5-1.6c0-1.4-1.8-1.5-3.6-2.1
		c-1.8-0.6-3.6-1.7-3.6-4.8c0-2.6,1.8-4.6,5.4-4.6c3.5,0,5.1,1.9,5.3,5H772z"/>
	<path class="st4" d="M788.5,613.9h3.5v1.8c0.5-1.6,1.5-2.2,3.2-2.2c0.9,0,1.7,0.2,2.3,0.7c0.3,0.2,0.6,0.6,0.8,1
		c0.2-0.4,0.6-0.8,1-1.1c0.7-0.4,1.6-0.7,2.6-0.7c1.6,0,2.8,0.6,3.6,1.5c0.8,0.9,1.1,2.1,1.1,3.4v11.2h-3.7v-10.6
		c0-0.7-0.1-1.1-0.4-1.4c-0.3-0.3-0.7-0.4-1.3-0.4c-0.5,0-1,0.1-1.3,0.3c-0.3,0.3-0.5,0.7-0.5,1.3v10.8h-3.7v-10.6
		c0-0.7-0.1-1.1-0.4-1.4c-0.3-0.3-0.7-0.4-1.3-0.4c-0.5,0-1,0.1-1.3,0.3c-0.3,0.3-0.5,0.7-0.5,1.3v10.8h-3.7V613.9z"/>
	<path class="st4" d="M810.3,621.8c0-4.5,1.9-8.2,6.1-8.2s6.1,3.7,6.1,8.2s-1.9,8.2-6.1,8.2S810.3,626.4,810.3,621.8L810.3,621.8z
		 M814.3,621.9c0,3.7,0.8,4.7,2.2,4.7c1.3,0,2.1-1,2.1-4.7s-0.8-4.7-2.2-4.7C815.1,617.1,814.3,618.1,814.3,621.9L814.3,621.9z"/>
	<path class="st4" d="M826.5,617.4h-1.7v-3.5h1.7v-3h3.7v3h1.7v3.5h-1.7v12.3h-3.7V617.4z"/>
	<path class="st4" d="M840.9,618.6c-0.1-1.2-0.5-1.8-1.7-1.8c-0.9,0-1.3,0.5-1.3,1.2c0,1.3,1.8,1.4,3.6,2c1.8,0.6,3.6,1.6,3.6,4.8
		c0,3-2.3,5.2-5.6,5.2c-3,0-5.4-1.7-5.8-5.4h3.7c0.1,1.2,0.9,2,2.1,2c1.2,0,1.5-0.8,1.5-1.6c0-1.4-1.8-1.5-3.6-2.1
		c-1.8-0.6-3.6-1.7-3.6-4.8c0-2.6,1.8-4.6,5.4-4.6c3.5,0,5.1,1.9,5.3,5H840.9z"/>
	<path class="st4" d="M859.9,624.2c0-2.2-0.4-4.1,0.9-5.7c1.3-1.6,3.4-2.5,3.4-4.1c0-1.1-0.7-1.7-1.8-1.7c-0.9,0-1.7,0.6-1.7,2v0.7
		h-4.2v-1c0-3.7,2.4-5.6,6.1-5.6c3.3,0,6,2.3,6,5.7c0,2.3-1.2,3.6-2.4,4.6c-2.2,1.9-2.1,1.8-2.1,5H859.9z M864.1,629.7h-4.1v-4.2
		h4.1V629.7z"/>
	<path class="st4" d="M877.4,609.1h2.1l4.9,17.7l4.9-17.7h2l-6,20.6h-2L877.4,609.1z"/>
	<path class="st4" d="M892.4,622.1c0-4.3,1.8-7.9,5.8-7.9c4,0,5.8,3.6,5.8,7.9s-1.8,7.9-5.8,7.9
		C894.1,630.1,892.4,626.5,892.4,622.1L892.4,622.1z M894.3,622.2c0,4,1.3,6.2,3.9,6.2c2.5,0,3.8-2.1,3.8-6.2c0-4-1.3-6.2-3.9-6.2
		C895.6,616,894.3,618.1,894.3,622.2L894.3,622.2z"/>
	<path class="st4" d="M918.2,629.7h-1.7c0-0.9,0-1.7,0.1-2.6c-0.8,2.2-2.5,3-4.2,3c-2.6,0-4.3-1.5-4.3-5.2v-10.3h1.9v9.7
		c0,1.5,0.2,3.9,2.9,3.9c2.2,0,3.6-1.5,3.6-4.7v-9h1.9V629.7z"/>
	<path class="st4" d="M929,618.5c0-1.9-1-2.6-2.4-2.6c-1.3,0-2.2,0.9-2.2,2.3c0,1.7,1.4,2.3,3.3,2.9c1.7,0.5,3.6,1.5,3.6,4.6
		c0,2.7-1.9,4.5-4.5,4.5c-2.8,0-4.6-1.6-4.7-4.8h1.8c0,2.1,1.2,3.1,2.9,3.1c1.6,0,2.6-1.1,2.6-2.6c0-1.8-1.3-2.6-3.3-3.2
		c-1.9-0.6-3.6-1.6-3.6-4.3c0-2.4,1.8-4,4.2-4c2.6,0,4.1,1.5,4.2,4.3H929z"/>
	<path class="st4" d="M953,629.7h-1.7c0-1.3,0-2.2,0-2.9c-0.7,2.1-2.1,3.3-4,3.3c-3,0-5.1-3.2-5.1-7.9c0-4.7,1.9-8,5.1-8
		c1.7,0,3.2,0.9,4,3.3c0-0.9,0-1.8,0-2.9h1.7V629.7z M944.1,622.2c0,3.4,1.2,6.1,3.5,6.1c1.2,0,2-0.6,2.6-1.7
		c0.6-1.1,0.9-2.4,0.9-4.4c0-2-0.2-3.4-0.9-4.4c-0.6-1-1.4-1.7-2.6-1.7C945.4,616.1,944.1,618.7,944.1,622.2L944.1,622.2z"/>
	<path class="st4" d="M962.4,629.7h-1.9l-4.6-15.1h1.9l3.6,12.6l3.5-12.6h1.9L962.4,629.7z"/>
	<path class="st4" d="M970.8,622.7c0,3.1,1.3,5.6,3.8,5.6c1.8,0,3-1.3,3.4-3h1.8c-0.3,1.6-1,2.8-1.9,3.6c-0.9,0.8-2.1,1.2-3.3,1.2
		c-4.2,0-5.8-4-5.8-7.9c0-4.7,2.2-8,5.7-8c1.8,0,3.2,0.8,4.1,2.1c1.2,1.8,1.4,4.1,1.4,6.3H970.8z M978.2,621.1
		c-0.1-3.1-1.4-5.3-3.6-5.3c-2.2,0-3.6,2.3-3.7,5.3H978.2z"/>
	<path class="st4" d="M982.8,628l7.3-11.7h-6.8v-1.8h9v1.8L985,628h7.5v1.8h-9.7V628z"/>
	<path class="st4" d="M1014.5,609.1v1.8h-7.1l-0.8,6.3c0.6-0.8,1.7-1.6,3.5-1.6c3.2,0,5.5,3,5.5,7c0,4.4-2.2,7.4-6,7.4
		c-3.1,0-5.7-2.1-6-6.4h2.1c0.3,2.8,1.9,4.5,4,4.5c2.6,0,3.8-2.1,3.8-5.3c0-3.3-1.6-5.3-3.7-5.3c-1,0-2.3,0.4-3.3,2.2l-1.9-0.1
		l1.2-10.5H1014.5z"/>
	<path class="st4" d="M1027.5,614.6h1.8c0,0.8,0,1.6-0.1,2.5c0.8-2.4,2.5-2.8,3.8-2.8c1.1,0,1.9,0.3,2.6,1c0.4,0.4,0.7,1.1,0.8,1.8
		c0.3-0.8,0.7-1.4,1.3-1.9c0.8-0.6,1.7-0.9,2.8-0.9c1.8,0,2.9,0.9,3.5,1.9c0.6,0.9,0.7,2.6,0.7,4.1v9.4h-1.9v-9.3
		c0-1.1-0.1-2.1-0.3-2.8c-0.3-1-1.3-1.6-2.3-1.6c-0.9,0-1.7,0.2-2.4,1.2c-0.6,0.9-0.8,2.2-0.8,3.3v9.1h-1.9v-9.2c0-1.2,0-2-0.3-2.9
		c-0.3-1-1.2-1.6-2.3-1.6c-0.9,0-1.8,0.3-2.4,1.2c-0.7,0.9-0.8,2.2-0.8,3.4v9.1h-1.9V614.6z"/>
	<path class="st4" d="M1049.8,609.1h1.9v2.7h-1.9V609.1z M1049.8,614.6h1.9v15.1h-1.9V614.6z"/>
	<path class="st4" d="M1056.7,614.6h1.7c0,0.9,0,1.6-0.1,2.6c0.8-2.1,2.5-3,4.3-3c2.6,0,4.3,1.5,4.3,5.2v10.3h-1.9V620
		c0-1.5-0.2-3.9-2.9-3.9c-2.2,0-3.6,1.5-3.6,4.7v9h-1.9V614.6z"/>
	<path class="st4" d="M1081.6,629.7h-1.7c0-0.9,0-1.7,0.1-2.6c-0.8,2.2-2.5,3-4.2,3c-2.6,0-4.3-1.5-4.3-5.2v-10.3h1.9v9.7
		c0,1.5,0.2,3.9,2.9,3.9c2.2,0,3.6-1.5,3.6-4.7v-9h1.9V629.7z"/>
	<path class="st4" d="M1087.1,616.3h-2.1v-1.8h2.1v-4.8h1.9v4.8h2.1v1.8h-2.1v13.4h-1.9V616.3z"/>
	<path class="st4" d="M1095.3,622.7c0,3.1,1.3,5.6,3.8,5.6c1.8,0,3-1.3,3.4-3h1.8c-0.3,1.6-1,2.8-1.9,3.6c-0.9,0.8-2.1,1.2-3.3,1.2
		c-4.2,0-5.8-4-5.8-7.9c0-4.7,2.2-8,5.7-8c1.8,0,3.2,0.8,4.1,2.1c1.2,1.8,1.4,4.1,1.4,6.3H1095.3z M1102.7,621.1
		c-0.1-3.1-1.4-5.3-3.6-5.3c-2.2,0-3.6,2.3-3.7,5.3H1102.7z"/>
	<path class="st4" d="M1114.6,618.5c0-1.9-1-2.6-2.4-2.6c-1.3,0-2.2,0.9-2.2,2.3c0,1.7,1.4,2.3,3.3,2.9c1.7,0.5,3.6,1.5,3.6,4.6
		c0,2.7-1.9,4.5-4.5,4.5c-2.8,0-4.6-1.6-4.7-4.8h1.8c0,2.1,1.2,3.1,2.9,3.1c1.6,0,2.6-1.1,2.6-2.6c0-1.8-1.3-2.6-3.3-3.2
		c-1.9-0.6-3.6-1.6-3.6-4.3c0-2.4,1.8-4,4.2-4c2.6,0,4.1,1.5,4.2,4.3H1114.6z"/>
	<path class="st4" d="M1131.3,624.7h-2.1v-15.6h2.1V624.7z M1131.3,629.7h-2.1v-3h2.1V629.7z"/>
	<path class="st4" d="M432.3,641.1v15c0,1.2,0.2,2.3,1,3.1c0.7,0.7,1.8,0.9,2.8,0.9s2.1-0.2,2.8-0.9c0.9-0.8,1-1.9,1-3.1v-15h2.1
		v15.2c0,1.9-0.4,3.2-1.4,4.2c-1,1-2.4,1.6-4.5,1.6c-2,0-3.5-0.6-4.5-1.6c-1-1-1.4-2.3-1.4-4.2v-15.2H432.3z"/>
	<path class="st4" d="M446.7,646.6h1.7c0,0.9,0,1.6-0.1,2.6c0.8-2.1,2.5-3,4.3-3c2.6,0,4.3,1.5,4.3,5.2v10.3h-1.9V652
		c0-1.5-0.2-3.9-2.9-3.9c-2.2,0-3.6,1.5-3.6,4.7v9h-1.9V646.6z"/>
	<path class="st4" d="M469.5,646.6h1.7c0,1.1,0,2,0,2.9c0.8-2.3,2.2-3.3,4-3.3c3,0,5.1,3.1,5.1,8c0,4.6-1.9,7.9-5.1,7.9
		c-1.8,0-3.3-1.2-3.9-3.1c0.1,0.7,0.1,1.4,0.1,2.8v5.6h-1.9V646.6z M478.4,654.1c0-3.4-1.2-6.1-3.5-6.1c-1.2,0-2,0.6-2.6,1.7
		c-0.7,1-0.9,2.4-0.9,4.4c0,2,0.2,3.4,0.9,4.4c0.6,1,1.4,1.7,2.6,1.7C477.2,660.3,478.4,657.6,478.4,654.1L478.4,654.1z"/>
	<path class="st4" d="M485.4,654.7c0,3.1,1.3,5.6,3.8,5.6c1.8,0,3-1.3,3.4-3h1.8c-0.3,1.6-1,2.8-1.9,3.6c-0.9,0.8-2.1,1.2-3.3,1.2
		c-4.2,0-5.8-4-5.8-7.9c0-4.7,2.2-8,5.7-8c1.8,0,3.2,0.8,4.1,2.1c1.2,1.8,1.4,4.1,1.4,6.3H485.4z M492.8,653.1
		c-0.1-3.1-1.4-5.3-3.6-5.3c-2.2,0-3.6,2.3-3.7,5.3H492.8z"/>
	<path class="st4" d="M508.8,661.7h-1.7c0-0.9,0-1.7,0.1-2.6c-0.8,2.2-2.5,3-4.2,3c-2.6,0-4.3-1.5-4.3-5.2v-10.3h1.9v9.7
		c0,1.5,0.2,3.9,2.9,3.9c2.2,0,3.6-1.5,3.6-4.7v-9h1.9V661.7z"/>
	<path class="st4" d="M531.4,661.7h-1.7c0-1.3,0-2.2,0-2.9c-0.7,2.1-2.1,3.3-4,3.3c-3,0-5.1-3.2-5.1-7.9c0-4.7,1.9-8,5.1-8
		c1.7,0,3.2,0.9,4,3.3c0-0.9,0-1.8,0-2.9h1.7V661.7z M522.5,654.2c0,3.4,1.2,6.1,3.5,6.1c1.2,0,2-0.6,2.6-1.7
		c0.6-1.1,0.9-2.4,0.9-4.4c0-2-0.2-3.4-0.9-4.4c-0.6-1-1.4-1.7-2.6-1.7C523.7,648.1,522.5,650.7,522.5,654.2L522.5,654.2z"/>
	<path class="st4" d="M536.2,641.1h1.9v5.5c0,1.3,0,2.2-0.1,2.9c0.6-1.9,1.9-3.3,3.9-3.3c3.2,0,5.1,3.3,5.1,7.9c0,4.8-2.1,8-5.1,8
		c-1.8,0-3.1-0.9-4-3.3c0,0.9,0,1.8,0,2.9h-1.7V641.1z M545.1,654.1c0-3.3-1.1-6.1-3.5-6.1c-2.6,0-3.5,3.1-3.5,6.1
		c0,3,0.9,6.1,3.5,6.1C543.9,660.3,545.1,657.5,545.1,654.1L545.1,654.1z"/>
	<path class="st4" d="M550.9,646.6h1.7c0,1.4,0,2.3-0.1,3.2c0.8-3,2.7-3.5,4-3.5v2.2c-0.2-0.1-0.4-0.2-0.7-0.2
		c-1.3,0-3.1,1.6-3.1,5.4v8.1h-1.9V646.6z"/>
	<path class="st4" d="M569.9,661.7h-1.7c0-0.9,0-1.7,0.1-2.6c-0.8,2.2-2.5,3-4.2,3c-2.6,0-4.3-1.5-4.3-5.2v-10.3h1.9v9.7
		c0,1.5,0.2,3.9,2.9,3.9c2.2,0,3.6-1.5,3.6-4.7v-9h1.9V661.7z"/>
	<path class="st4" d="M574.7,646.6h1.7c0,1.1,0,2,0,2.9c0.8-2.3,2.2-3.3,4-3.3c3,0,5.1,3.1,5.1,8c0,4.6-1.9,7.9-5.1,7.9
		c-1.8,0-3.3-1.2-3.9-3.1c0.1,0.7,0.1,1.4,0.1,2.8v5.6h-1.9V646.6z M583.6,654.1c0-3.4-1.2-6.1-3.5-6.1c-1.2,0-2,0.6-2.6,1.7
		c-0.7,1-0.9,2.4-0.9,4.4c0,2,0.3,3.4,0.9,4.4c0.6,1,1.4,1.7,2.6,1.7C582.4,660.3,583.6,657.6,583.6,654.1L583.6,654.1z"/>
	<path class="st4" d="M590.1,648.3H588v-1.8h2.1v-4.8h1.9v4.8h2.1v1.8H592v13.4h-1.9V648.3z"/>
	<path class="st4" d="M598.3,654.7c0,3.1,1.3,5.6,3.8,5.6c1.8,0,3-1.3,3.4-3h1.8c-0.3,1.6-1,2.8-1.9,3.6c-0.9,0.8-2.1,1.2-3.3,1.2
		c-4.2,0-5.8-4-5.8-7.9c0-4.7,2.2-8,5.7-8c1.8,0,3.2,0.8,4.1,2.1c1.2,1.8,1.4,4.1,1.4,6.3H598.3z M605.7,653.1
		c-0.1-3.1-1.4-5.3-3.6-5.3c-2.2,0-3.6,2.3-3.7,5.3H605.7z"/>
	<path class="st4" d="M619.4,646.6h1.8c0,0.8,0,1.6-0.1,2.5c0.8-2.4,2.5-2.8,3.8-2.8c1.1,0,1.9,0.3,2.6,1c0.4,0.4,0.7,1.1,0.8,1.8
		c0.3-0.8,0.7-1.4,1.3-1.9c0.8-0.6,1.7-0.9,2.8-0.9c1.8,0,2.9,0.9,3.5,1.9c0.6,0.9,0.7,2.6,0.7,4.1v9.4h-1.9v-9.3
		c0-1.1-0.1-2.1-0.3-2.8c-0.3-1-1.3-1.6-2.3-1.6c-0.9,0-1.7,0.2-2.4,1.2c-0.6,0.9-0.8,2.2-0.8,3.3v9.1h-1.9v-9.2c0-1.2,0-2-0.3-2.9
		c-0.3-1-1.2-1.6-2.3-1.6c-0.9,0-1.8,0.3-2.4,1.2c-0.7,0.9-0.8,2.2-0.8,3.4v9.1h-1.9V646.6z"/>
	<path class="st4" d="M651.4,661.7h-1.7c0-1.3,0-2.2,0-2.9c-0.7,2.1-2.1,3.3-4,3.3c-3,0-5.1-3.2-5.1-7.9c0-4.7,1.9-8,5.1-8
		c1.7,0,3.2,0.9,4,3.3c0-0.9,0-1.8,0-2.9h1.7V661.7z M642.5,654.2c0,3.4,1.2,6.1,3.5,6.1c1.2,0,2-0.6,2.6-1.7
		c0.6-1.1,0.9-2.4,0.9-4.4c0-2-0.2-3.4-0.9-4.4c-0.6-1-1.4-1.7-2.6-1.7C643.8,648.1,642.5,650.7,642.5,654.2L642.5,654.2z"/>
	<path class="st4" d="M656.5,641.1h1.9v2.7h-1.9V641.1z M656.5,646.6h1.9v15.1h-1.9V646.6z"/>
	<path class="st4" d="M669.4,650.5c0-1.9-1-2.6-2.4-2.6c-1.3,0-2.2,0.9-2.2,2.3c0,1.7,1.4,2.3,3.3,2.9c1.7,0.5,3.6,1.5,3.6,4.6
		c0,2.7-1.9,4.5-4.5,4.5c-2.8,0-4.6-1.6-4.7-4.8h1.8c0,2.1,1.2,3.1,2.9,3.1c1.6,0,2.6-1.1,2.6-2.6c0-1.8-1.3-2.6-3.3-3.2
		c-1.9-0.6-3.6-1.6-3.6-4.3c0-2.4,1.8-4,4.2-4c2.6,0,4.1,1.5,4.2,4.3H669.4z"/>
	<path class="st4" d="M683.7,641.1h1.9v20.6h-1.9V641.1z"/>
	<path class="st4" d="M691.8,654.7c0,3.1,1.3,5.6,3.8,5.6c1.8,0,3-1.3,3.4-3h1.8c-0.3,1.6-1,2.8-1.9,3.6c-0.9,0.8-2.1,1.2-3.3,1.2
		c-4.2,0-5.8-4-5.8-7.9c0-4.7,2.2-8,5.7-8c1.8,0,3.2,0.8,4.1,2.1c1.2,1.8,1.4,4.1,1.4,6.3H691.8z M699.1,653.1
		c-0.1-3.1-1.4-5.3-3.6-5.3c-2.2,0-3.6,2.3-3.7,5.3H699.1z"/>
	<path class="st4" d="M712.8,646.6h1.7c0,1.1,0,2,0,2.9c0.8-2.3,2.2-3.3,4-3.3c3,0,5.1,3.1,5.1,8c0,4.6-1.9,7.9-5.1,7.9
		c-1.8,0-3.3-1.2-3.9-3.1c0.1,0.7,0.1,1.4,0.1,2.8v5.6h-1.9V646.6z M721.7,654.1c0-3.4-1.2-6.1-3.5-6.1c-1.2,0-2,0.6-2.6,1.7
		c-0.7,1-0.9,2.4-0.9,4.4c0,2,0.3,3.4,0.9,4.4c0.6,1,1.4,1.7,2.6,1.7C720.5,660.3,721.7,657.6,721.7,654.1L721.7,654.1z"/>
	<path class="st4" d="M727.5,646.6h1.7c0,1.4,0,2.3-0.1,3.2c0.8-3,2.7-3.5,4-3.5v2.2c-0.2-0.1-0.4-0.2-0.7-0.2
		c-1.3,0-3.1,1.6-3.1,5.4v8.1h-1.9V646.6z"/>
	<path class="st4" d="M735.2,654.1c0-4.3,1.8-7.9,5.8-7.9c4,0,5.8,3.6,5.8,7.9s-1.8,7.9-5.8,7.9C737,662.1,735.2,658.5,735.2,654.1
		L735.2,654.1z M737.2,654.2c0,4,1.3,6.2,3.9,6.2c2.5,0,3.8-2.1,3.8-6.2c0-4-1.3-6.2-3.9-6.2C738.5,648,737.2,650.1,737.2,654.2
		L737.2,654.2z"/>
	<path class="st4" d="M753.2,648.3v13.4h-1.9v-13.4h-1.7v-1.8h1.7v-1.1c0-4.5,3.6-4.7,4.5-4.7v1.6c-1.4,0.1-2.6,0.8-2.6,3.2v1h5.8
		v15.1h-1.9v-13.4H753.2z M757.1,643.9v-2.8h1.9v2.8H757.1z"/>
	<path class="st4" d="M764.1,641.1h1.9v20.6h-1.9V641.1z"/>
	<path class="st4" d="M784.9,650.5c0-1.9-1-2.6-2.4-2.6c-1.3,0-2.2,0.9-2.2,2.3c0,1.7,1.4,2.3,3.3,2.9c1.7,0.5,3.6,1.5,3.6,4.6
		c0,2.7-1.9,4.5-4.5,4.5c-2.8,0-4.6-1.6-4.7-4.8h1.8c0,2.1,1.2,3.1,2.9,3.1c1.6,0,2.6-1.1,2.6-2.6c0-1.8-1.3-2.6-3.3-3.2
		c-1.9-0.6-3.6-1.6-3.6-4.3c0-2.4,1.8-4,4.2-4c2.6,0,4.1,1.5,4.2,4.3H784.9z"/>
	<path class="st4" d="M792.4,654.7c0,3.1,1.3,5.6,3.8,5.6c1.8,0,3-1.3,3.4-3h1.8c-0.3,1.6-1,2.8-1.9,3.6c-0.9,0.8-2.1,1.2-3.3,1.2
		c-4.2,0-5.8-4-5.8-7.9c0-4.7,2.2-8,5.7-8c1.8,0,3.2,0.8,4.1,2.1c1.2,1.8,1.4,4.1,1.4,6.3H792.4z M799.7,653.1
		c-0.1-3.1-1.4-5.3-3.6-5.3c-2.2,0-3.6,2.3-3.7,5.3H799.7z"/>
	<path class="st4" d="M823.3,661.7h-1.7c0-1.4,0-2.2,0-3c-0.5,2.1-2.1,3.4-4,3.4c-3,0-5.1-3.2-5.1-7.9c0-4.7,1.9-8,5.1-8
		c1.7,0,3.1,0.9,3.9,3.2c-0.1-0.9-0.1-1.7-0.1-2.8v-5.5h1.9V661.7z M814.4,654.2c0,3.4,1.2,6.1,3.5,6.1c1.2,0,2-0.6,2.6-1.7
		c0.6-1.1,0.9-2.4,0.9-4.4s-0.2-3.4-0.9-4.4c-0.6-1-1.4-1.6-2.6-1.6C815.7,648.1,814.4,650.7,814.4,654.2L814.4,654.2z"/>
	<path class="st4" d="M829.3,654.7c0,3.1,1.3,5.6,3.8,5.6c1.8,0,3-1.3,3.4-3h1.8c-0.3,1.6-1,2.8-1.9,3.6c-0.9,0.8-2.1,1.2-3.3,1.2
		c-4.2,0-5.8-4-5.8-7.9c0-4.7,2.2-8,5.7-8c1.8,0,3.2,0.8,4.1,2.1c1.2,1.8,1.4,4.1,1.4,6.3H829.3z M836.7,653.1
		c-0.1-3.1-1.4-5.3-3.6-5.3c-2.2,0-3.6,2.3-3.7,5.3H836.7z"/>
	<path class="st4" d="M848.6,650.5c0-1.9-1-2.6-2.4-2.6c-1.3,0-2.2,0.9-2.2,2.3c0,1.7,1.4,2.3,3.3,2.9c1.7,0.5,3.6,1.5,3.6,4.6
		c0,2.7-1.9,4.5-4.5,4.5c-2.8,0-4.6-1.6-4.7-4.8h1.8c0,2.1,1.2,3.1,2.9,3.1c1.6,0,2.6-1.1,2.6-2.6c0-1.8-1.3-2.6-3.3-3.2
		c-1.9-0.6-3.6-1.6-3.6-4.3c0-2.4,1.8-4,4.2-4c2.6,0,4.1,1.5,4.2,4.3H848.6z"/>
	<path class="st4" d="M861,650.5c0-1.9-1-2.6-2.4-2.6c-1.3,0-2.2,0.9-2.2,2.3c0,1.7,1.4,2.3,3.3,2.9c1.7,0.5,3.6,1.5,3.6,4.6
		c0,2.7-1.9,4.5-4.5,4.5c-2.8,0-4.6-1.6-4.7-4.8h1.8c0,2.1,1.2,3.1,2.9,3.1c1.6,0,2.6-1.1,2.6-2.6c0-1.8-1.3-2.6-3.3-3.2
		c-1.9-0.6-3.6-1.6-3.6-4.3c0-2.4,1.8-4,4.2-4c2.6,0,4.1,1.5,4.2,4.3H861z"/>
	<path class="st4" d="M867.4,641.1h1.9v2.7h-1.9V641.1z M867.4,646.6h1.9v15.1h-1.9V646.6z"/>
	<path class="st4" d="M874.3,646.6h1.7c0,0.9,0,1.6-0.1,2.6c0.8-2.1,2.5-3,4.3-3c2.6,0,4.3,1.5,4.3,5.2v10.3h-1.9V652
		c0-1.5-0.2-3.9-2.9-3.9c-2.2,0-3.6,1.5-3.6,4.7v9h-1.9V646.6z"/>
	<path class="st4" d="M890.4,654.7c0,3.1,1.3,5.6,3.8,5.6c1.8,0,3-1.3,3.4-3h1.8c-0.3,1.6-1,2.8-1.9,3.6c-0.9,0.8-2.1,1.2-3.3,1.2
		c-4.2,0-5.8-4-5.8-7.9c0-4.7,2.2-8,5.7-8c1.8,0,3.2,0.8,4.1,2.1c1.2,1.8,1.4,4.1,1.4,6.3H890.4z M897.8,653.1
		c-0.1-3.1-1.4-5.3-3.6-5.3c-2.2,0-3.6,2.3-3.7,5.3H897.8z"/>
	<path class="st4" d="M903.6,646.6h1.7c0,1.4,0,2.3-0.1,3.2c0.8-3,2.7-3.5,4-3.5v2.2c-0.2-0.1-0.4-0.2-0.7-0.2
		c-1.3,0-3.1,1.6-3.1,5.4v8.1h-1.9V646.6z"/>
	<path class="st4" d="M922.1,661.7h-1.7c0-1.3,0-2.2,0-2.9c-0.7,2.1-2.1,3.3-4,3.3c-3,0-5.1-3.2-5.1-7.9c0-4.7,1.9-8,5.1-8
		c1.7,0,3.2,0.9,4,3.3c0-0.9,0-1.8,0-2.9h1.7V661.7z M913.2,654.2c0,3.4,1.2,6.1,3.5,6.1c1.2,0,2-0.6,2.6-1.7
		c0.6-1.1,0.9-2.4,0.9-4.4c0-2-0.2-3.4-0.9-4.4c-0.6-1-1.4-1.7-2.6-1.7C914.4,648.1,913.2,650.7,913.2,654.2L913.2,654.2z"/>
	<path class="st4" d="M944.7,661.7h-1.7c0-1.4,0-2.2,0-3c-0.5,2.1-2.1,3.4-4,3.4c-3,0-5.1-3.2-5.1-7.9c0-4.7,1.9-8,5.1-8
		c1.7,0,3.1,0.9,3.9,3.2c-0.1-0.9-0.1-1.7-0.1-2.8v-5.5h1.9V661.7z M935.8,654.2c0,3.4,1.2,6.1,3.5,6.1c1.2,0,2-0.6,2.6-1.7
		c0.6-1.1,0.9-2.4,0.9-4.4s-0.2-3.4-0.9-4.4c-0.6-1-1.4-1.6-2.6-1.6C937,648.1,935.8,650.7,935.8,654.2L935.8,654.2z"/>
	<path class="st4" d="M950.6,654.7c0,3.1,1.3,5.6,3.8,5.6c1.8,0,3-1.3,3.4-3h1.8c-0.3,1.6-1,2.8-1.9,3.6c-0.9,0.8-2.1,1.2-3.3,1.2
		c-4.2,0-5.8-4-5.8-7.9c0-4.7,2.2-8,5.7-8c1.8,0,3.2,0.8,4.1,2.1c1.2,1.8,1.4,4.1,1.4,6.3H950.6z M958,653.1
		c-0.1-3.1-1.4-5.3-3.6-5.3c-2.2,0-3.6,2.3-3.7,5.3H958z"/>
	<path class="st4" d="M971.9,641.1h1.9v20.6h-1.9V641.1z"/>
	<path class="st4" d="M988.9,661.7h-1.7c0-0.9,0-1.7,0.1-2.6c-0.8,2.2-2.5,3-4.2,3c-2.6,0-4.3-1.5-4.3-5.2v-10.3h1.9v9.7
		c0,1.5,0.2,3.9,2.9,3.9c2.2,0,3.6-1.5,3.6-4.7v-9h1.9V661.7z"/>
	<path class="st4" d="M993.9,641.1h1.9v2.7h-1.9V641.1z M993.9,646.6h1.9v15.1h-1.9V646.6z"/>
	<path class="st4" d="M1005.6,653v1.9h-5.9V653H1005.6z"/>
	<path class="st4" d="M1009.3,646.6h1.8c0,0.8,0,1.6-0.1,2.5c0.8-2.4,2.5-2.8,3.8-2.8c1.1,0,1.9,0.3,2.6,1c0.4,0.4,0.7,1.1,0.8,1.8
		c0.3-0.8,0.7-1.4,1.3-1.9c0.8-0.6,1.7-0.9,2.8-0.9c1.8,0,2.9,0.9,3.5,1.9c0.6,0.9,0.7,2.6,0.7,4.1v9.4h-1.9v-9.3
		c0-1.1-0.1-2.1-0.3-2.8c-0.3-1-1.3-1.6-2.3-1.6c-0.9,0-1.7,0.2-2.4,1.2c-0.6,0.9-0.8,2.2-0.8,3.3v9.1h-1.9v-9.2c0-1.2,0-2-0.3-2.9
		c-0.3-1-1.2-1.6-2.3-1.6c-0.9,0-1.8,0.3-2.4,1.2c-0.7,0.9-0.8,2.2-0.8,3.4v9.1h-1.9V646.6z"/>
	<path class="st4" d="M1032.5,654.7c0,3.1,1.3,5.6,3.8,5.6c1.8,0,3-1.3,3.4-3h1.8c-0.3,1.6-1,2.8-1.9,3.6c-0.9,0.8-2.1,1.2-3.3,1.2
		c-4.2,0-5.8-4-5.8-7.9c0-4.7,2.2-8,5.7-8c1.8,0,3.2,0.8,4.1,2.1c1.2,1.8,1.4,4.1,1.4,6.3H1032.5z M1041,644.6h-2l-2.8-2.4l-2.8,2.4
		h-2l3.9-3.4h1.8L1041,644.6z M1039.9,653.1c-0.1-3.1-1.4-5.3-3.6-5.3c-2.2,0-3.6,2.3-3.7,5.3H1039.9z"/>
	<path class="st4" d="M1045.8,646.6h1.8c0,0.8,0,1.6-0.1,2.5c0.8-2.4,2.5-2.8,3.8-2.8c1.1,0,1.9,0.3,2.6,1c0.4,0.4,0.7,1.1,0.8,1.8
		c0.3-0.8,0.7-1.4,1.3-1.9c0.8-0.6,1.7-0.9,2.8-0.9c1.8,0,2.9,0.9,3.5,1.9c0.6,0.9,0.7,2.6,0.7,4.1v9.4h-1.9v-9.3
		c0-1.1-0.1-2.1-0.3-2.8c-0.3-1-1.3-1.6-2.3-1.6c-0.9,0-1.7,0.2-2.4,1.2c-0.6,0.9-0.8,2.2-0.8,3.3v9.1h-1.9v-9.2c0-1.2,0-2-0.3-2.9
		c-0.3-1-1.2-1.6-2.3-1.6c-0.9,0-1.8,0.3-2.4,1.2c-0.7,0.9-0.8,2.2-0.8,3.4v9.1h-1.9V646.6z"/>
	<path class="st4" d="M1069.1,654.7c0,3.1,1.3,5.6,3.8,5.6c1.8,0,3-1.3,3.4-3h1.8c-0.3,1.6-1,2.8-1.9,3.6c-0.9,0.8-2.1,1.2-3.3,1.2
		c-4.2,0-5.8-4-5.8-7.9c0-4.7,2.2-8,5.7-8c1.8,0,3.2,0.8,4.1,2.1c1.2,1.8,1.4,4.1,1.4,6.3H1069.1z M1076.4,653.1
		c-0.1-3.1-1.4-5.3-3.6-5.3c-2.2,0-3.6,2.3-3.7,5.3H1076.4z"/>
	<path class="st4" d="M1084.5,661.7h-1.9v-3h1.9V661.7z"/>
	<path class="st4" d="M428.7,710.1h4.1l3.4,14.2l3.5-14.2h4l-5.6,20.6h-3.7L428.7,710.1z"/>
	<path class="st4" d="M444.7,722.8c0-4.5,1.9-8.2,6.1-8.2s6.1,3.7,6.1,8.2s-1.9,8.2-6.1,8.2S444.7,727.4,444.7,722.8L444.7,722.8z
		 M448.7,722.9c0,3.7,0.8,4.7,2.2,4.7c1.3,0,2.1-1,2.1-4.7s-0.8-4.7-2.2-4.7C449.5,718.1,448.7,719.1,448.7,722.9L448.7,722.9z"/>
	<path class="st4" d="M471.2,730.7h-3.4v-1.7c-0.5,1.3-1.3,2-3.2,2c-2.5,0-4.1-1.4-4.1-4.6v-11.6h3.7v10.3c0,1.1,0.2,2.1,1.6,2.1
		c1,0,1.7-0.5,1.7-1.8v-10.6h3.7V730.7z"/>
	<path class="st4" d="M481.5,719.6c-0.1-1.2-0.5-1.8-1.7-1.8c-0.9,0-1.3,0.5-1.3,1.2c0,1.3,1.8,1.4,3.6,2c1.8,0.6,3.6,1.6,3.6,4.8
		c0,3-2.3,5.2-5.6,5.2c-3,0-5.4-1.7-5.8-5.4h3.7c0.1,1.2,0.9,2,2.1,2c1.2,0,1.5-0.8,1.5-1.6c0-1.4-1.8-1.5-3.6-2.1
		c-1.8-0.6-3.6-1.7-3.6-4.8c0-2.6,1.8-4.6,5.4-4.6c3.5,0,5.1,1.9,5.3,5H481.5z"/>
	<path class="st4" d="M508.5,730.7h-3.4v-1.5c-0.7,1.3-1.6,1.8-3.1,1.8c-2.8,0-5-2.6-5-8.2c0-5.3,1.8-8.2,5-8.2
		c1.3,0,2.5,0.5,3.1,1.9v-1.6h3.4V730.7z M500.8,722.9c0,3.5,0.8,4.5,2,4.5c0.8,0,1.1-0.2,1.5-0.7c0.5-0.6,0.5-1.3,0.5-3.8
		c0-2.5,0-3.2-0.5-3.8c-0.4-0.5-0.7-0.7-1.5-0.7C501.6,718.3,500.8,719.3,500.8,722.9L500.8,722.9z"/>
	<path class="st4" d="M519.4,730.7H516l-4.6-15.8h3.8l2.4,10.1l2.1-10.1h3.8L519.4,730.7z"/>
	<path class="st4" d="M529.5,724.2c0,1.6,0.4,3.4,2.1,3.4c1,0,1.7-0.6,1.9-1.9h3.7c-0.3,2.2-1.2,3.6-2.3,4.4c-1.1,0.8-2.3,1-3.4,1
		c-4.1,0-6.1-3.7-6.1-8.2s1.9-8.2,6.1-8.2c2.1,0,3.6,0.9,4.6,2.5c1.2,2,1.3,4.6,1.2,7H529.5z M533.6,721c0-0.9-0.1-3.3-2-3.3
		c-1.3,0-2.1,1.1-2.1,3.3H533.6z"/>
	<path class="st4" d="M540.3,727.2l5.8-8.8h-5.2v-3.5h9.7v3.5l-5.7,8.8h5.7v3.5h-10.2V727.2z"/>
	<path class="st4" d="M563.8,718.4h-1.7v-3.5h1.7v-3h3.7v3h1.7v3.5h-1.7v12.3h-3.7V718.4z"/>
	<path class="st4" d="M572.3,714.9h3.4v2.1c0.6-2,1.9-2.4,4-2.4v4.6c-0.5-0.4-1.1-0.5-1.6-0.5c-1.4,0-2,1.2-2,2.8v9.2h-3.7V714.9z"
		/>
	<path class="st4" d="M581.5,722.8c0-4.5,1.9-8.2,6.1-8.2c4.1,0,6.1,3.7,6.1,8.2s-1.9,8.2-6.1,8.2
		C583.4,731.1,581.5,727.4,581.5,722.8L581.5,722.8z M585.4,722.9c0,3.7,0.8,4.7,2.2,4.7c1.3,0,2.1-1,2.1-4.7s-0.8-4.7-2.2-4.7
		C586.3,718.1,585.4,719.1,585.4,722.9L585.4,722.9z"/>
	<path class="st4" d="M607.9,730.7h-3.4v-1.7c-0.5,1.3-1.3,2-3.2,2c-2.5,0-4.1-1.4-4.1-4.6v-11.6h3.7v10.3c0,1.1,0.3,2.1,1.6,2.1
		c1,0,1.7-0.5,1.7-1.8v-10.6h3.7V730.7z"/>
	<path class="st4" d="M618.8,730.7h-3.4l-4.6-15.8h3.8l2.4,10.1l2.1-10.1h3.8L618.8,730.7z"/>
	<path class="st4" d="M628.9,724.2c0,1.6,0.4,3.4,2.1,3.4c1,0,1.7-0.6,1.9-1.9h3.7c-0.3,2.2-1.2,3.6-2.3,4.4c-1.1,0.8-2.3,1-3.4,1
		c-4.1,0-6.1-3.7-6.1-8.2s1.9-8.2,6.1-8.2c2.1,0,3.6,0.9,4.6,2.5c1.2,2,1.3,4.6,1.2,7H628.9z M634.5,708.2l1.4,3l-6.5,2.9l-1.3-2.4
		L634.5,708.2z M633,721c0-0.9-0.1-3.3-2-3.3c-1.3,0-2.1,1.1-2.1,3.3H633z"/>
	<path class="st4" d="M649.6,718.4h-1.4v-3.5h1.4v-0.6c0-4.2,3.7-4.5,5.8-4.5v3.2c-0.9,0-2.1,0-2.1,1.6v0.3h2.1v3.5h-2.1v12.3h-3.7
		V718.4z"/>
	<path class="st4" d="M668.7,730.7h-3.4v-1.5c-0.7,1.3-1.6,1.8-3.1,1.8c-2.8,0-5-2.6-5-8.2c0-5.3,1.8-8.2,5-8.2
		c1.3,0,2.5,0.5,3.1,1.9v-1.6h3.4V730.7z M661,722.9c0,3.5,0.8,4.5,2,4.5c0.8,0,1.1-0.2,1.5-0.7c0.5-0.6,0.5-1.3,0.5-3.8
		c0-2.5,0-3.2-0.5-3.8c-0.4-0.5-0.7-0.7-1.5-0.7C661.8,718.3,661,719.3,661,722.9L661,722.9z"/>
	<path class="st4" d="M683.4,724.7c0,3.2-1.6,6.3-5.1,6.3c-3.8,0-6.1-3-6.1-8.2s2.4-8.2,6.1-8.2c3.5,0,5.1,3.1,5.1,6.3h-3.9
		c0-1.9-0.5-2.8-1.5-2.8c-0.6,0-1.1,0.3-1.4,1c-0.3,0.7-0.5,1.9-0.5,3.7c0,3.6,0.7,4.7,1.9,4.7c1.1,0,1.5-1.3,1.5-2.8H683.4z"/>
	<path class="st4" d="M686.9,710.1h3.7v3.1h-3.7V710.1z M686.9,714.9h3.7v15.8h-3.7V714.9z"/>
	<path class="st4" d="M695.8,710.1h3.7v20.6h-3.7V710.1z"/>
	<path class="st4" d="M707.6,724.2c0,1.6,0.4,3.4,2.1,3.4c1,0,1.7-0.6,1.9-1.9h3.7c-0.3,2.2-1.2,3.6-2.3,4.4c-1.1,0.8-2.3,1-3.4,1
		c-4.1,0-6.1-3.7-6.1-8.2s1.9-8.2,6.1-8.2c2.1,0,3.6,0.9,4.6,2.5c1.2,2,1.3,4.6,1.2,7H707.6z M711.7,721c0-0.9-0.1-3.3-2-3.3
		c-1.3,0-2.1,1.1-2.1,3.3H711.7z"/>
	<path class="st4" d="M719.4,714.9h3.5v1.8c0.5-1.6,1.5-2.2,3.2-2.2c0.9,0,1.7,0.2,2.3,0.7c0.3,0.2,0.6,0.6,0.8,1
		c0.3-0.4,0.6-0.8,1-1.1c0.7-0.4,1.6-0.7,2.6-0.7c1.6,0,2.8,0.6,3.6,1.5c0.8,0.9,1.1,2.1,1.1,3.4v11.2h-3.7v-10.6
		c0-0.7-0.1-1.1-0.4-1.4c-0.3-0.3-0.7-0.4-1.3-0.4c-0.5,0-1,0.1-1.3,0.3c-0.3,0.3-0.5,0.7-0.5,1.3v10.8h-3.7v-10.6
		c0-0.7-0.1-1.1-0.4-1.4c-0.3-0.3-0.7-0.4-1.3-0.4c-0.5,0-1,0.1-1.3,0.3c-0.3,0.3-0.5,0.7-0.5,1.3v10.8h-3.7V714.9z"/>
	<path class="st4" d="M745.4,724.2c0,1.6,0.4,3.4,2.1,3.4c1,0,1.7-0.6,1.9-1.9h3.7c-0.3,2.2-1.2,3.6-2.3,4.4c-1.1,0.8-2.3,1-3.4,1
		c-4.1,0-6.1-3.7-6.1-8.2s1.9-8.2,6.1-8.2c2.1,0,3.6,0.9,4.6,2.5c1.2,2,1.3,4.6,1.2,7H745.4z M749.5,721c0-0.9-0.1-3.3-2-3.3
		c-1.3,0-2.1,1.1-2.1,3.3H749.5z"/>
	<path class="st4" d="M757,714.9h3.2v1.5c0.6-1.1,1.4-1.8,3.4-1.8c2.5,0,4.1,1.4,4.1,4.6v11.5H764v-10.3c0-1.1-0.3-2.1-1.6-2.1
		c-1,0-1.7,0.5-1.7,1.8v10.6H757V714.9z"/>
	<path class="st4" d="M772.5,718.4h-1.7v-3.5h1.7v-3h3.7v3h1.7v3.5h-1.7v12.3h-3.7V718.4z"/>
	<path class="st4" d="M792.4,725.2c0-2.2-0.4-4.1,0.9-5.7c1.3-1.6,3.4-2.5,3.4-4.1c0-1.1-0.7-1.7-1.8-1.7c-0.9,0-1.7,0.6-1.7,2v0.7
		h-4.2v-1c0-3.7,2.4-5.6,6.1-5.6c3.3,0,6,2.3,6,5.7c0,2.3-1.2,3.6-2.4,4.6c-2.2,1.9-2.1,1.8-2.1,5H792.4z M796.6,730.7h-4.1v-4.2
		h4.1V730.7z"/>
	<path class="st4" d="M819.5,711.9c-2.7,2.3-4.8,6.5-4.8,11.9s2,9.4,4.8,11.9v2c-3.7-2.6-6.6-7.7-6.6-13.9c0-6.2,3-11.5,6.6-13.9
		V711.9z"/>
	<path class="st4" d="M822.4,720.4c0-6,2.6-10.6,7.5-10.6c5,0,7.5,4.6,7.5,10.7c0,5.3-2.1,10.7-7.5,10.7
		C824.9,731.1,822.4,726.5,822.4,720.4L822.4,720.4z M824.5,720.5c0,5.6,2,8.7,5.3,8.7c3.3,0,5.4-3.1,5.4-8.8c0-5.6-2.1-8.8-5.4-8.8
		C826.6,711.7,824.5,714.8,824.5,720.5L824.5,720.5z"/>
	<path class="st4" d="M851.5,730.7h-1.7c0-0.9,0-1.7,0.1-2.6c-0.8,2.2-2.5,3-4.2,3c-2.6,0-4.3-1.5-4.3-5.2v-10.3h1.9v9.7
		c0,1.5,0.2,3.9,2.9,3.9c2.2,0,3.6-1.5,3.6-4.7v-9h1.9V730.7z"/>
	<path class="st4" d="M864.8,717.3h-2.1v-1.8h2.1v-4.8h1.9v4.8h2.1v1.8h-2.1v13.4h-1.9V717.3z"/>
	<path class="st4" d="M871,723.1c0-4.3,1.8-7.9,5.8-7.9c4,0,5.8,3.6,5.8,7.9s-1.8,7.9-5.8,7.9C872.8,731.1,871,727.5,871,723.1
		L871,723.1z M873,723.2c0,4,1.3,6.2,3.9,6.2c2.5,0,3.8-2.1,3.8-6.2c0-4-1.3-6.2-3.9-6.2C874.3,717,873,719.1,873,723.2L873,723.2z"
		/>
	<path class="st4" d="M896.8,730.7h-1.7c0-0.9,0-1.7,0.1-2.6c-0.8,2.2-2.5,3-4.2,3c-2.6,0-4.3-1.5-4.3-5.2v-10.3h1.9v9.7
		c0,1.5,0.2,3.9,2.9,3.9c2.2,0,3.6-1.5,3.6-4.7v-9h1.9V730.7z"/>
	<path class="st4" d="M902.3,717.3h-2.1v-1.8h2.1v-4.8h1.9v4.8h2.1v1.8h-2.1v13.4h-1.9V717.3z"/>
	<path class="st4" d="M910.5,723.7c0,3.1,1.3,5.6,3.8,5.6c1.8,0,3-1.3,3.4-3h1.8c-0.3,1.6-1,2.8-1.9,3.6c-0.9,0.8-2.1,1.2-3.3,1.2
		c-4.2,0-5.8-4-5.8-7.9c0-4.7,2.2-8,5.7-8c1.8,0,3.2,0.8,4.1,2.1c1.2,1.8,1.4,4.1,1.4,6.3H910.5z M917.8,722.1
		c-0.1-3.1-1.4-5.3-3.6-5.3c-2.2,0-3.6,2.3-3.7,5.3H917.8z"/>
	<path class="st4" d="M929.8,719.5c0-1.9-1-2.6-2.4-2.6c-1.3,0-2.2,0.9-2.2,2.3c0,1.7,1.4,2.3,3.3,2.9c1.7,0.5,3.6,1.5,3.6,4.6
		c0,2.7-1.9,4.5-4.5,4.5c-2.8,0-4.6-1.6-4.7-4.8h1.8c0,2.1,1.2,3.1,2.9,3.1c1.6,0,2.6-1.1,2.6-2.6c0-1.8-1.3-2.6-3.3-3.2
		c-1.9-0.6-3.6-1.6-3.6-4.3c0-2.4,1.8-4,4.2-4c2.6,0,4.1,1.5,4.2,4.3H929.8z"/>
	<path class="st4" d="M953.8,730.7h-1.7c0-1.3,0-2.2,0-2.9c-0.7,2.1-2.1,3.3-4,3.3c-3,0-5.1-3.2-5.1-7.9c0-4.7,1.9-8,5.1-8
		c1.7,0,3.2,0.9,4,3.3c0-0.9,0-1.8,0-2.9h1.7V730.7z M944.9,723.2c0,3.4,1.2,6.1,3.5,6.1c1.2,0,2-0.6,2.6-1.7
		c0.6-1.1,0.9-2.4,0.9-4.4c0-2-0.2-3.4-0.9-4.4c-0.6-1-1.4-1.7-2.6-1.7C946.1,717.1,944.9,719.7,944.9,723.2L944.9,723.2z"/>
	<path class="st4" d="M968.8,730.7H967c0-0.9,0-1.7,0.1-2.6c-0.8,2.2-2.5,3-4.2,3c-2.6,0-4.3-1.5-4.3-5.2v-10.3h1.9v9.7
		c0,1.5,0.2,3.9,2.9,3.9c2.2,0,3.6-1.5,3.6-4.7v-9h1.9V730.7z"/>
	<path class="st4" d="M974.3,717.3h-2.1v-1.8h2.1v-4.8h1.9v4.8h2.1v1.8h-2.1v13.4h-1.9V717.3z"/>
	<path class="st4" d="M981.6,715.6h1.7c0,1.4,0,2.3-0.1,3.2c0.8-3,2.7-3.5,4-3.5v2.2c-0.2-0.1-0.4-0.2-0.7-0.2
		c-1.3,0-3.1,1.6-3.1,5.4v8.1h-1.9V715.6z"/>
	<path class="st4" d="M991.3,723.7c0,3.1,1.3,5.6,3.8,5.6c1.8,0,3-1.3,3.4-3h1.8c-0.3,1.6-1,2.8-1.9,3.6c-0.9,0.8-2.1,1.2-3.3,1.2
		c-4.2,0-5.8-4-5.8-7.9c0-4.7,2.2-8,5.7-8c1.8,0,3.2,0.8,4.1,2.1c1.2,1.8,1.4,4.1,1.4,6.3H991.3z M998.6,722.1
		c-0.1-3.1-1.4-5.3-3.6-5.3c-2.2,0-3.6,2.3-3.7,5.3H998.6z"/>
	<path class="st4" d="M1010.6,719.5c0-1.9-1-2.6-2.4-2.6c-1.3,0-2.2,0.9-2.2,2.3c0,1.7,1.4,2.3,3.3,2.9c1.7,0.5,3.6,1.5,3.6,4.6
		c0,2.7-1.9,4.5-4.5,4.5c-2.8,0-4.6-1.6-4.7-4.8h1.8c0,2.1,1.2,3.1,2.9,3.1c1.6,0,2.6-1.1,2.6-2.6c0-1.8-1.3-2.6-3.3-3.2
		c-1.9-0.6-3.6-1.6-3.6-4.3c0-2.4,1.8-4,4.2-4c2.6,0,4.1,1.5,4.2,4.3H1010.6z"/>
	<path class="st4" d="M1034.6,736.3h-1.9v-5.6c0-1.3,0-2.1,0.1-2.8c-0.6,2-2.1,3.2-3.9,3.2c-3.2,0-5.1-3.3-5.1-7.9
		c0-4.8,2.1-8,5.1-8c1.8,0,3.3,1,4,3.3c0-0.9,0-1.8,0-2.9h1.8V736.3z M1025.7,723.2c0,3.4,1.2,6.1,3.5,6.1c1.2,0,2-0.6,2.6-1.7
		c0.6-1.1,0.9-2.4,0.9-4.4c0-2-0.2-3.4-0.9-4.4c-0.6-1-1.4-1.7-2.6-1.7C1026.9,717.1,1025.7,719.7,1025.7,723.2L1025.7,723.2z"/>
	<path class="st4" d="M1049.6,730.7h-1.7c0-0.9,0-1.7,0.1-2.6c-0.8,2.2-2.5,3-4.2,3c-2.6,0-4.3-1.5-4.3-5.2v-10.3h1.9v9.7
		c0,1.5,0.2,3.9,2.9,3.9c2.2,0,3.6-1.5,3.6-4.7v-9h1.9V730.7z"/>
	<path class="st4" d="M1055.5,723.7c0,3.1,1.3,5.6,3.8,5.6c1.8,0,3-1.3,3.4-3h1.8c-0.3,1.6-1,2.8-1.9,3.6c-0.9,0.8-2.1,1.2-3.3,1.2
		c-4.2,0-5.8-4-5.8-7.9c0-4.7,2.2-8,5.7-8c1.8,0,3.2,0.8,4.1,2.1c1.2,1.8,1.4,4.1,1.4,6.3H1055.5z M1062.9,722.1
		c-0.1-3.1-1.4-5.3-3.6-5.3c-2.2,0-3.6,2.3-3.7,5.3H1062.9z"/>
	<path class="st4" d="M1074.9,719.5c0-1.9-1-2.6-2.4-2.6c-1.3,0-2.2,0.9-2.2,2.3c0,1.7,1.4,2.3,3.3,2.9c1.7,0.5,3.6,1.5,3.6,4.6
		c0,2.7-1.9,4.5-4.5,4.5c-2.8,0-4.6-1.6-4.7-4.8h1.8c0,2.1,1.2,3.1,2.9,3.1c1.6,0,2.6-1.1,2.6-2.6c0-1.8-1.3-2.6-3.3-3.2
		c-1.9-0.6-3.6-1.6-3.6-4.3c0-2.4,1.8-4,4.2-4c2.6,0,4.1,1.5,4.2,4.3H1074.9z"/>
	<path class="st4" d="M1081.8,717.3h-2.1v-1.8h2.1v-4.8h1.9v4.8h2.1v1.8h-2.1v13.4h-1.9V717.3z"/>
	<path class="st4" d="M1089.4,710.1h1.9v2.7h-1.9V710.1z M1089.4,715.6h1.9v15.1h-1.9V715.6z"/>
	<path class="st4" d="M1095.4,723.1c0-4.3,1.8-7.9,5.8-7.9c4,0,5.8,3.6,5.8,7.9s-1.8,7.9-5.8,7.9
		C1097.2,731.1,1095.4,727.5,1095.4,723.1L1095.4,723.1z M1097.4,723.2c0,4,1.3,6.2,3.9,6.2c2.5,0,3.8-2.1,3.8-6.2
		c0-4-1.3-6.2-3.9-6.2C1098.7,717,1097.4,719.1,1097.4,723.2L1097.4,723.2z"/>
	<path class="st4" d="M1111.1,715.6h1.7c0,0.9,0,1.6-0.1,2.6c0.8-2.1,2.5-3,4.3-3c2.6,0,4.3,1.5,4.3,5.2v10.3h-1.9V721
		c0-1.5-0.2-3.9-2.9-3.9c-2.2,0-3.6,1.5-3.6,4.7v9h-1.9V715.6z"/>
	<path class="st4" d="M1132.1,719.5c0-1.9-1-2.6-2.4-2.6c-1.3,0-2.2,0.9-2.2,2.3c0,1.7,1.4,2.3,3.3,2.9c1.7,0.5,3.6,1.5,3.6,4.6
		c0,2.7-1.9,4.5-4.5,4.5c-2.8,0-4.6-1.6-4.7-4.8h1.8c0,2.1,1.2,3.1,2.9,3.1c1.6,0,2.6-1.1,2.6-2.6c0-1.8-1.3-2.6-3.3-3.2
		c-1.9-0.6-3.6-1.6-3.6-4.3c0-2.4,1.8-4,4.2-4c2.6,0,4.1,1.5,4.2,4.3H1132.1z"/>
	<path class="st4" d="M1156.1,730.7h-1.7c0-1.4,0-2.2,0-3c-0.5,2.1-2.1,3.4-4,3.4c-3,0-5.1-3.2-5.1-7.9c0-4.7,1.9-8,5.1-8
		c1.7,0,3.1,0.9,3.9,3.2c-0.1-0.9-0.1-1.7-0.1-2.8v-5.5h1.9V730.7z M1147.2,723.2c0,3.4,1.2,6.1,3.5,6.1c1.2,0,2-0.6,2.6-1.7
		c0.6-1.1,0.9-2.4,0.9-4.4s-0.2-3.4-0.9-4.4c-0.6-1-1.4-1.6-2.6-1.6C1148.5,717.1,1147.2,719.7,1147.2,723.2L1147.2,723.2z"/>
	<path class="st4" d="M1162.1,723.7c0,3.1,1.3,5.6,3.8,5.6c1.8,0,3-1.3,3.4-3h1.8c-0.3,1.6-1,2.8-1.9,3.6c-0.9,0.8-2.1,1.2-3.3,1.2
		c-4.2,0-5.8-4-5.8-7.9c0-4.7,2.2-8,5.7-8c1.8,0,3.2,0.8,4.1,2.1c1.2,1.8,1.4,4.1,1.4,6.3H1162.1z M1169.5,722.1
		c-0.1-3.1-1.4-5.3-3.6-5.3c-2.2,0-3.6,2.3-3.7,5.3H1169.5z"/>
	<path class="st4" d="M1193.1,725.6c-0.3,3.1-2,5.5-5,5.5c-4,0-5.8-3.8-5.8-7.9c0-5,2.3-8,5.8-8c3.1,0,4.9,2.4,5,5.6h-1.9
		c-0.3-3-1.8-3.8-3.2-3.8c-1.1,0-2.1,0.4-2.8,1.6c-0.7,1.2-1,2.6-1,4.6c0,4,1.4,6.2,3.8,6.2c1.9,0,2.9-1.5,3.2-3.8H1193.1z"/>
	<path class="st4" d="M1195.8,723.1c0-4.3,1.8-7.9,5.8-7.9c4,0,5.8,3.6,5.8,7.9s-1.8,7.9-5.8,7.9
		C1197.6,731.1,1195.8,727.5,1195.8,723.1L1195.8,723.1z M1197.8,723.2c0,4,1.3,6.2,3.9,6.2c2.5,0,3.8-2.1,3.8-6.2
		c0-4-1.3-6.2-3.9-6.2C1199.1,717,1197.8,719.1,1197.8,723.2L1197.8,723.2z"/>
	<path class="st4" d="M1221.6,730.7h-1.7c0-0.9,0-1.7,0.1-2.6c-0.8,2.2-2.5,3-4.2,3c-2.6,0-4.3-1.5-4.3-5.2v-10.3h1.9v9.7
		c0,1.5,0.2,3.9,2.9,3.9c2.2,0,3.6-1.5,3.6-4.7v-9h1.9V730.7z"/>
	<path class="st4" d="M1226.4,715.6h1.7c0,1.4,0,2.3-0.1,3.2c0.8-3,2.7-3.5,4-3.5v2.2c-0.2-0.1-0.4-0.2-0.7-0.2
		c-1.3,0-3.1,1.6-3.1,5.4v8.1h-1.9V715.6z"/>
	<path class="st4" d="M1236.1,717.3h-2.1v-1.8h2.1v-4.8h1.9v4.8h2.1v1.8h-2.1v13.4h-1.9V717.3z"/>
	<path class="st4" d="M1242.3,723.1c0-4.3,1.8-7.9,5.8-7.9c4,0,5.8,3.6,5.8,7.9s-1.8,7.9-5.8,7.9
		C1244.1,731.1,1242.3,727.5,1242.3,723.1L1242.3,723.1z M1244.2,723.2c0,4,1.3,6.2,3.9,6.2c2.5,0,3.8-2.1,3.8-6.2
		c0-4-1.3-6.2-3.9-6.2C1245.5,717,1244.2,719.1,1244.2,723.2L1244.2,723.2z"/>
	<path class="st4" d="M1258.1,710.1h1.9v2.7h-1.9V710.1z M1258.1,715.6h1.9v15.1h-1.9V715.6z"/>
	<path class="st4" d="M1271.1,719.5c0-1.9-1-2.6-2.4-2.6c-1.3,0-2.2,0.9-2.2,2.3c0,1.7,1.4,2.3,3.3,2.9c1.7,0.5,3.6,1.5,3.6,4.6
		c0,2.7-1.9,4.5-4.5,4.5c-2.8,0-4.6-1.6-4.7-4.8h1.8c0,2.1,1.2,3.1,2.9,3.1c1.6,0,2.6-1.1,2.6-2.6c0-1.8-1.3-2.6-3.3-3.2
		c-1.9-0.6-3.6-1.6-3.6-4.3c0-2.4,1.8-4,4.2-4c2.6,0,4.1,1.5,4.2,4.3H1271.1z"/>
	<path class="st4" d="M1277.6,710.1h1.9v2.7h-1.9V710.1z M1277.6,715.6h1.9v15.1h-1.9V715.6z"/>
	<path class="st4" d="M1285.6,723.7c0,3.1,1.3,5.6,3.8,5.6c1.8,0,3-1.3,3.4-3h1.8c-0.3,1.6-1,2.8-1.9,3.6c-0.9,0.8-2.1,1.2-3.3,1.2
		c-4.2,0-5.8-4-5.8-7.9c0-4.7,2.2-8,5.7-8c1.8,0,3.2,0.8,4.1,2.1c1.2,1.8,1.4,4.1,1.4,6.3H1285.6z M1293,722.1
		c-0.1-3.1-1.4-5.3-3.6-5.3c-2.2,0-3.6,2.3-3.7,5.3H1293z"/>
	<path class="st4" d="M1299.4,733h-1.6l1.8-5.3h1.9L1299.4,733z"/>
	<path class="st4" d="M1311.7,715.6h1.7c0,1.1,0,2,0,2.9c0.8-2.3,2.2-3.3,4-3.3c3,0,5.1,3.1,5.1,8c0,4.6-1.9,7.9-5.1,7.9
		c-1.8,0-3.3-1.2-3.9-3.1c0.1,0.7,0.1,1.4,0.1,2.8v5.6h-1.9V715.6z M1320.6,723.1c0-3.4-1.2-6.1-3.5-6.1c-1.2,0-2,0.6-2.6,1.7
		c-0.7,1-0.9,2.4-0.9,4.4c0,2,0.3,3.4,0.9,4.4c0.6,1,1.4,1.7,2.6,1.7C1319.4,729.3,1320.6,726.6,1320.6,723.1L1320.6,723.1z"/>
	<path class="st4" d="M1325.6,723.1c0-4.3,1.8-7.9,5.8-7.9c4,0,5.8,3.6,5.8,7.9s-1.8,7.9-5.8,7.9
		C1327.4,731.1,1325.6,727.5,1325.6,723.1L1325.6,723.1z M1327.6,723.2c0,4,1.3,6.2,3.9,6.2c2.5,0,3.8-2.1,3.8-6.2
		c0-4-1.3-6.2-3.9-6.2C1328.9,717,1327.6,719.1,1327.6,723.2L1327.6,723.2z"/>
	<path class="st4" d="M1351.4,730.7h-1.7c0-0.9,0-1.7,0.1-2.6c-0.8,2.2-2.5,3-4.2,3c-2.6,0-4.3-1.5-4.3-5.2v-10.3h1.9v9.7
		c0,1.5,0.2,3.9,2.9,3.9c2.2,0,3.6-1.5,3.6-4.7v-9h1.9V730.7z"/>
	<path class="st4" d="M1356.2,715.6h1.7c0,1.4,0,2.3-0.1,3.2c0.8-3,2.7-3.5,4-3.5v2.2c-0.2-0.1-0.4-0.2-0.7-0.2
		c-1.3,0-3.1,1.6-3.1,5.4v8.1h-1.9V715.6z"/>
	<path class="st4" d="M1373.1,710.1h1.9v20.6h-1.9V710.1z"/>
	<path class="st4" d="M1381.2,723.7c0,3.1,1.3,5.6,3.8,5.6c1.8,0,3-1.3,3.4-3h1.8c-0.3,1.6-1,2.8-1.9,3.6c-0.9,0.8-2.1,1.2-3.3,1.2
		c-4.2,0-5.8-4-5.8-7.9c0-4.7,2.2-8,5.7-8c1.8,0,3.2,0.8,4.1,2.1c1.2,1.8,1.4,4.1,1.4,6.3H1381.2z M1388.5,722.1
		c-0.1-3.1-1.4-5.3-3.6-5.3c-2.2,0-3.6,2.3-3.7,5.3H1388.5z"/>
	<path class="st4" d="M1402.2,715.6h1.8c0,0.8,0,1.6-0.1,2.5c0.8-2.4,2.5-2.8,3.8-2.8c1.1,0,1.9,0.3,2.6,1c0.4,0.4,0.7,1.1,0.8,1.8
		c0.3-0.8,0.7-1.4,1.3-1.9c0.8-0.6,1.7-0.9,2.8-0.9c1.8,0,2.9,0.9,3.5,1.9c0.6,0.9,0.7,2.6,0.7,4.1v9.4h-1.9v-9.3
		c0-1.1-0.1-2.1-0.3-2.8c-0.3-1-1.3-1.6-2.3-1.6c-0.9,0-1.7,0.2-2.4,1.2c-0.6,0.9-0.8,2.2-0.8,3.3v9.1h-1.9v-9.2c0-1.2,0-2-0.3-2.9
		c-0.3-1-1.2-1.6-2.3-1.6c-0.9,0-1.8,0.3-2.4,1.2c-0.7,0.9-0.8,2.2-0.8,3.4v9.1h-1.9V715.6z"/>
	<path class="st4" d="M1425.5,723.7c0,3.1,1.3,5.6,3.8,5.6c1.8,0,3-1.3,3.4-3h1.8c-0.3,1.6-1,2.8-1.9,3.6c-0.9,0.8-2.1,1.2-3.3,1.2
		c-4.2,0-5.8-4-5.8-7.9c0-4.7,2.2-8,5.7-8c1.8,0,3.2,0.8,4.1,2.1c1.2,1.8,1.4,4.1,1.4,6.3H1425.5z M1432.9,722.1
		c-0.1-3.1-1.4-5.3-3.6-5.3c-2.2,0-3.6,2.3-3.7,5.3H1432.9z"/>
	<path class="st4" d="M1439.4,717.3h-2.1v-1.8h2.1v-4.8h1.9v4.8h2.1v1.8h-2.1v13.4h-1.9V717.3z"/>
	<path class="st4" d="M1447.5,717.3h-2.1v-1.8h2.1v-4.8h1.9v4.8h2.1v1.8h-2.1v13.4h-1.9V717.3z"/>
	<path class="st4" d="M1454.9,715.6h1.7c0,1.4,0,2.3-0.1,3.2c0.8-3,2.7-3.5,4-3.5v2.2c-0.2-0.1-0.4-0.2-0.7-0.2
		c-1.3,0-3.1,1.6-3.1,5.4v8.1h-1.9V715.6z"/>
	<path class="st4" d="M1464.5,723.7c0,3.1,1.3,5.6,3.8,5.6c1.8,0,3-1.3,3.4-3h1.8c-0.3,1.6-1,2.8-1.9,3.6c-0.9,0.8-2.1,1.2-3.3,1.2
		c-4.2,0-5.8-4-5.8-7.9c0-4.7,2.2-8,5.7-8c1.8,0,3.2,0.8,4.1,2.1c1.2,1.8,1.4,4.1,1.4,6.3H1464.5z M1471.9,722.1
		c-0.1-3.1-1.4-5.3-3.6-5.3c-2.2,0-3.6,2.3-3.7,5.3H1471.9z"/>
	<path class="st4" d="M1495.5,730.7h-1.7c0-1.3,0-2.2,0-2.9c-0.7,2.1-2.1,3.3-4,3.3c-3,0-5.1-3.2-5.1-7.9c0-4.7,1.9-8,5.1-8
		c1.7,0,3.2,0.9,4,3.3c0-0.9,0-1.8,0-2.9h1.7V730.7z M1493.4,712.8l-0.7,1.3l-6.2-3.3l0.8-1.5L1493.4,712.8z M1486.6,723.2
		c0,3.4,1.2,6.1,3.5,6.1c1.2,0,2-0.6,2.6-1.7c0.6-1.1,0.9-2.4,0.9-4.4c0-2-0.2-3.4-0.9-4.4c-0.6-1-1.4-1.7-2.6-1.7
		C1487.9,717.1,1486.6,719.7,1486.6,723.2L1486.6,723.2z"/>
	<path class="st4" d="M1508.4,710.1h1.9v20.6h-1.9V710.1z"/>
	<path class="st4" d="M1517,710.1h2l-2.2,5.3h-1.8L1517,710.1z"/>
	<path class="st4" d="M1533.5,730.7h-1.7c0-1.3,0-2.2,0-2.9c-0.7,2.1-2.1,3.3-4,3.3c-3,0-5.1-3.2-5.1-7.9c0-4.7,1.9-8,5.1-8
		c1.7,0,3.2,0.9,4,3.3c0-0.9,0-1.8,0-2.9h1.7V730.7z M1524.6,723.2c0,3.4,1.2,6.1,3.5,6.1c1.2,0,2-0.6,2.6-1.7
		c0.6-1.1,0.9-2.4,0.9-4.4c0-2-0.2-3.4-0.9-4.4c-0.6-1-1.4-1.7-2.6-1.7C1525.8,717.1,1524.6,719.7,1524.6,723.2L1524.6,723.2z"/>
	<path class="st4" d="M1538.5,710.1h1.9v2.7h-1.9V710.1z M1538.5,715.6h1.9v15.1h-1.9V715.6z"/>
	<path class="st4" d="M1551.4,719.5c0-1.9-1-2.6-2.4-2.6c-1.3,0-2.2,0.9-2.2,2.3c0,1.7,1.4,2.3,3.3,2.9c1.7,0.5,3.6,1.5,3.6,4.6
		c0,2.7-1.9,4.5-4.5,4.5c-2.8,0-4.6-1.6-4.7-4.8h1.8c0,2.1,1.2,3.1,2.9,3.1c1.6,0,2.6-1.1,2.6-2.6c0-1.8-1.3-2.6-3.3-3.2
		c-1.9-0.6-3.6-1.6-3.6-4.3c0-2.4,1.8-4,4.2-4c2.6,0,4.1,1.5,4.2,4.3H1551.4z"/>
	<path class="st4" d="M1558.9,723.7c0,3.1,1.3,5.6,3.8,5.6c1.8,0,3-1.3,3.4-3h1.8c-0.3,1.6-1,2.8-1.9,3.6c-0.9,0.8-2.1,1.2-3.3,1.2
		c-4.2,0-5.8-4-5.8-7.9c0-4.7,2.2-8,5.7-8c1.8,0,3.2,0.8,4.1,2.1c1.2,1.8,1.4,4.1,1.4,6.3H1558.9z M1566.2,722.1
		c-0.1-3.1-1.4-5.3-3.6-5.3c-2.2,0-3.6,2.3-3.7,5.3H1566.2z"/>
	<path class="st4" d="M1571,735.7c2.7-2.2,4.8-6.5,4.8-11.8c0-5.4-2-9.4-4.8-11.9v-2c3.7,2.6,6.6,7.7,6.6,13.9
		c0,6.2-3,11.5-6.6,13.9V735.7z"/>
	<path class="st4" d="M1585.1,730.7h-1.9v-3h1.9V730.7z"/>
</g>
<path class="st5" d="M1292.4,354.7H623.2c-4.9,0-8.8,3.9-8.8,8.8v51.4c0,4.9,3.9,8.8,8.8,8.8h279l56.5,36l54.7-36h279
	c4.9,0,8.8-3.9,8.8-8.8v-51.4C1301.2,358.6,1297.3,354.7,1292.4,354.7z"/>
<g>
	<path class="st4" d="M693.9,402.5c-0.5,0.1-1,0.2-1.5,0.2c-1.9,0-3.1-0.6-4-1.4c-1.5,0.9-3.2,1.4-5.3,1.4
		c-7.3,0-10.9-6.1-10.9-15.4c0-9.3,3.6-15.4,10.9-15.4c7.3,0,10.9,6.1,10.9,15.4c0,3.7-0.6,7-1.8,9.6c0.4,0.2,1,0.2,1.6,0V402.5z
		 M683.1,377.5c-3.1,0-4.6,2.8-4.6,9.8c0,0.9,0,1.6,0.1,2.3c0.7-0.2,1.6-0.6,3.1-0.6c0.8,0,1.7,0.1,2.8,0.6c0.9,0.4,2.1,1.3,3.1,2.6
		c0.2-1.1,0.2-2.8,0.2-4.9C687.8,380.3,686.3,377.5,683.1,377.5L683.1,377.5z M683.2,397c0.8,0,1.4-0.2,1.8-0.5
		c-0.4-0.6-1-1.2-1.7-1.6c-0.8-0.4-1.6-0.7-2.9-0.7c-0.4,0-0.8,0.1-1.1,0.2C680.1,396,681.4,397,683.2,397L683.2,397z"/>
	<path class="st4" d="M714.6,402.1h-4.8v-2.4c-0.7,1.8-1.8,2.9-4.6,2.9c-3.6,0-5.9-2-5.9-6.6v-16.6h5.4v14.8c0,1.6,0.4,3,2.2,3
		c1.4,0,2.4-0.7,2.4-2.6v-15.2h5.4V402.1z"/>
	<path class="st4" d="M725.8,392.6c0,2.2,0.6,4.9,3,4.9c1.4,0,2.4-0.9,2.8-2.8h5.3c-0.4,3.2-1.7,5.2-3.3,6.4
		c-1.6,1.1-3.4,1.5-4.8,1.5c-6,0-8.8-5.3-8.8-11.8c0-6.6,2.8-11.8,8.8-11.8c3,0,5.2,1.3,6.6,3.6c1.7,2.9,1.8,6.6,1.7,10.1H725.8z
		 M731.7,388.1c0-1.4-0.2-4.8-2.8-4.8c-1.9,0-3.1,1.6-3.1,4.8H731.7z"/>
	<path class="st4" d="M743.1,372.5h5.4v29.6h-5.4V372.5z"/>
	<path class="st4" d="M755.8,372.5h5.4v29.6h-5.4V372.5z"/>
	<path class="st4" d="M772.8,392.6c0,2.2,0.6,4.9,3,4.9c1.4,0,2.4-0.9,2.8-2.8h5.3c-0.4,3.2-1.7,5.2-3.3,6.4
		c-1.6,1.1-3.4,1.5-4.8,1.5c-6,0-8.8-5.3-8.8-11.8c0-6.6,2.8-11.8,8.8-11.8c3,0,5.2,1.3,6.6,3.6c1.7,2.9,1.8,6.6,1.7,10.1H772.8z
		 M778.7,388.1c0-1.4-0.2-4.8-2.8-4.8c-1.9,0-3.1,1.6-3.1,4.8H778.7z"/>
	<path class="st4" d="M807.1,392.6c0,2.2,0.6,4.9,3,4.9c1.4,0,2.4-0.9,2.8-2.8h5.3c-0.4,3.2-1.7,5.2-3.3,6.4
		c-1.6,1.1-3.4,1.5-4.8,1.5c-6,0-8.8-5.3-8.8-11.8c0-6.6,2.8-11.8,8.8-11.8c3,0,5.2,1.3,6.6,3.6c1.7,2.9,1.8,6.6,1.7,10.1H807.1z
		 M813.1,388.1c0-1.4-0.2-4.8-2.8-4.8c-1.9,0-3.1,1.6-3.1,4.8H813.1z"/>
	<path class="st4" d="M832.4,386.1c-0.1-1.7-0.8-2.6-2.4-2.6c-1.2,0-1.9,0.7-1.9,1.8c0,1.9,2.6,2.1,5.1,2.9c2.6,0.8,5.1,2.3,5.1,7
		c0,4.2-3.4,7.4-8,7.4c-4.4,0-7.8-2.4-8.3-7.8h5.4c0.1,1.7,1.3,2.9,3.1,2.9c1.7,0,2.2-1.2,2.2-2.3c0-2-2.6-2.2-5.1-3
		c-2.6-0.9-5.1-2.4-5.1-6.9c0-3.8,2.6-6.6,7.8-6.6c5,0,7.3,2.8,7.6,7.2H832.4z"/>
	<path class="st4" d="M843.8,384.4h-2.4v-5h2.4V375h5.4v4.3h2.4v5h-2.4v17.7h-5.4V384.4z"/>
	<path class="st4" d="M878,402.1h-4.9l-6.6-22.7h5.4l3.5,14.6l3-14.6h5.4L878,402.1z"/>
	<path class="st4" d="M886.5,390.7c0-6.5,2.8-11.8,8.8-11.8s8.8,5.3,8.8,11.8c0,6.6-2.8,11.8-8.8,11.8S886.5,397.3,886.5,390.7
		L886.5,390.7z M892.2,390.8c0,5.3,1.2,6.8,3.2,6.8c1.8,0,3-1.4,3-6.8c0-5.4-1.2-6.8-3.2-6.8C893.4,383.9,892.2,385.4,892.2,390.8
		L892.2,390.8z"/>
	<path class="st4" d="M909.8,384.4h-2.4v-5h2.4V375h5.4v4.3h2.4v5h-2.4v17.7h-5.4V384.4z"/>
	<path class="st4" d="M921.9,379.4h4.9v3c0.8-2.8,2.8-3.4,5.8-3.4v6.6c-0.8-0.5-1.6-0.7-2.4-0.7c-2,0-2.9,1.7-2.9,4v13.3h-5.4V379.4
		z"/>
	<path class="st4" d="M941.1,392.6c0,2.2,0.6,4.9,3,4.9c1.4,0,2.4-0.9,2.8-2.8h5.3c-0.4,3.2-1.7,5.2-3.3,6.4
		c-1.6,1.1-3.4,1.5-4.8,1.5c-6,0-8.8-5.3-8.8-11.8c0-6.6,2.8-11.8,8.8-11.8c3,0,5.2,1.3,6.6,3.6c1.7,2.9,1.8,6.6,1.7,10.1H941.1z
		 M947.1,388.1c0-1.4-0.2-4.8-2.8-4.8c-1.9,0-3.1,1.6-3.1,4.8H947.1z"/>
	<path class="st4" d="M977.2,377.8h-4.4v-5.4h10.1v29.6h-5.7V377.8z"/>
	<path class="st4" d="M999.3,392.6c0,2.2,0.6,4.9,3,4.9c1.4,0,2.4-0.9,2.8-2.8h5.3c-0.4,3.2-1.7,5.2-3.3,6.4
		c-1.6,1.1-3.4,1.5-4.8,1.5c-6,0-8.8-5.3-8.8-11.8c0-6.6,2.8-11.8,8.8-11.8c3,0,5.2,1.3,6.6,3.6c1.7,2.9,1.8,6.6,1.7,10.1H999.3z
		 M1005.9,374.6l-1.8,3.5l-9.3-4.1l2-4.3L1005.9,374.6z M1005.2,388.1c0-1.4-0.2-4.8-2.8-4.8c-1.9,0-3.1,1.6-3.1,4.8H1005.2z"/>
	<path class="st4" d="M1016,379.4h4.9v3c0.8-2.8,2.8-3.4,5.8-3.4v6.6c-0.8-0.5-1.6-0.7-2.4-0.7c-2,0-2.9,1.7-2.9,4v13.3h-5.4V379.4z
		"/>
	<path class="st4" d="M1035.2,392.6c0,2.2,0.6,4.9,3,4.9c1.4,0,2.4-0.9,2.8-2.8h5.3c-0.4,3.2-1.7,5.2-3.3,6.4
		c-1.6,1.1-3.4,1.5-4.8,1.5c-6,0-8.8-5.3-8.8-11.8c0-6.6,2.8-11.8,8.8-11.8c3,0,5.2,1.3,6.6,3.6c1.7,2.9,1.8,6.6,1.7,10.1H1035.2z
		 M1041.1,388.1c0-1.4-0.2-4.8-2.8-4.8c-1.9,0-3.1,1.6-3.1,4.8H1041.1z"/>
	<path class="st4" d="M1080,409.3h-5.4v-7.2c0-0.6,0-1.3,0-2c-0.8,1.8-2.2,2.4-4,2.4c-4.6,0-7.2-4.2-7.2-11.8
		c0-8.2,3.1-11.8,7.2-11.8c2.1,0,4,1.2,4.2,2.6v-2.2h5V409.3z M1068.9,390.8c0,5,1.1,6.4,2.9,6.4c1.1,0,1.6-0.3,2.1-1
		c0.7-0.8,0.7-1.9,0.7-5.5c0-3.6,0-4.6-0.7-5.5c-0.6-0.7-1-1-2.1-1C1070.1,384.2,1068.9,385.7,1068.9,390.8L1068.9,390.8z"/>
	<path class="st4" d="M1101.6,402.1h-4.8v-2.4c-0.7,1.8-1.8,2.9-4.6,2.9c-3.6,0-5.9-2-5.9-6.6v-16.6h5.4v14.8c0,1.6,0.4,3,2.2,3
		c1.4,0,2.4-0.7,2.4-2.6v-15.2h5.4V402.1z"/>
	<path class="st4" d="M1112.7,392.6c0,2.2,0.6,4.9,3,4.9c1.4,0,2.4-0.9,2.8-2.8h5.3c-0.4,3.2-1.7,5.2-3.3,6.4
		c-1.6,1.1-3.4,1.5-4.8,1.5c-6,0-8.8-5.3-8.8-11.8c0-6.6,2.8-11.8,8.8-11.8c3,0,5.2,1.3,6.6,3.6c1.7,2.9,1.8,6.6,1.7,10.1H1112.7z
		 M1118.6,388.1c0-1.4-0.2-4.8-2.8-4.8c-1.9,0-3.1,1.6-3.1,4.8H1118.6z"/>
	<path class="st4" d="M1138,386.1c-0.1-1.7-0.8-2.6-2.4-2.6c-1.2,0-1.9,0.7-1.9,1.8c0,1.9,2.6,2.1,5.1,2.9c2.6,0.8,5.1,2.3,5.1,7
		c0,4.2-3.4,7.4-8,7.4c-4.4,0-7.8-2.4-8.3-7.8h5.4c0.1,1.7,1.3,2.9,3.1,2.9c1.7,0,2.2-1.2,2.2-2.3c0-2-2.6-2.2-5.1-3
		c-2.6-0.9-5.1-2.4-5.1-6.9c0-3.8,2.6-6.6,7.8-6.6c5,0,7.3,2.8,7.6,7.2H1138z"/>
	<path class="st4" d="M1149.4,384.4h-2.4v-5h2.4V375h5.4v4.3h2.4v5h-2.4v17.7h-5.4V384.4z"/>
	<path class="st4" d="M1162.1,372.5h5.4v4.5h-5.4V372.5z M1162.1,379.4h5.4v22.7h-5.4V379.4z"/>
	<path class="st4" d="M1173.2,390.7c0-6.5,2.8-11.8,8.8-11.8s8.8,5.3,8.8,11.8c0,6.6-2.8,11.8-8.8,11.8S1173.2,397.3,1173.2,390.7
		L1173.2,390.7z M1178.9,390.8c0,5.3,1.2,6.8,3.2,6.8c1.8,0,3-1.4,3-6.8c0-5.4-1.2-6.8-3.2-6.8
		C1180.1,383.9,1178.9,385.4,1178.9,390.8L1178.9,390.8z"/>
	<path class="st4" d="M1195.9,379.4h4.6v2.2c0.9-1.6,2-2.6,4.8-2.6c3.6,0,5.9,2,5.9,6.6v16.6h-5.4v-14.8c0-1.6-0.4-3-2.2-3
		c-1.4,0-2.4,0.7-2.4,2.6v15.2h-5.4V379.4z"/>
	<path class="st4" d="M1234,394.1c0-3.2-0.6-5.9,1.2-8.2c1.8-2.3,4.8-3.6,4.8-5.8c0-1.6-1-2.4-2.6-2.4c-1.3,0-2.4,0.9-2.4,2.8v1
		h-6.1V380c0-5.3,3.4-8,8.8-8c4.8,0,8.6,3.3,8.6,8.2c0,3.4-1.8,5.2-3.4,6.7c-3.2,2.8-3,2.6-3,7.2H1234z M1239.9,402.1h-5.9V396h5.9
		V402.1z"/>
</g>
</svg>
