<svg xmlns="http://www.w3.org/2000/svg" viewBox="0 0 614.81 169.53"><defs><style>.cls-1,.cls-2{isolation:isolate;}.cls-2{fill:#105768;opacity:0.2;}.cls-3{fill:#fefeff;}.cls-4{fill:#d8d8d8;mix-blend-mode:multiply;}</style></defs><title>game3b_item3</title><g class="cls-1"><g id="Calque_2" data-name="Calque 2"><g id="Calque_2-2" data-name="Calque 2"><polygon class="cls-2" points="563.72 19.13 0 27.69 14.15 169.53 602.35 136.33 613.37 39.62 563.72 19.13"/><polygon class="cls-3" points="565.16 0.12 11.48 13.4 25.63 155.24 614.15 123.97 614.81 20.61 565.16 0.12"/><polygon class="cls-4" points="614.81 20.61 564.88 0 570.87 34.71 614.81 20.61"/><path d="M58.59,67.14,57,72.71l-2.34.08L60,55.07,62.7,55l6.57,17.31-2.42.08L64.8,66.93Zm5.68-2-1.89-5c-.43-1.13-.72-2.16-1-3.17h-.05c-.22,1-.47,2.12-.78,3.2L59,65.35Z"/><path d="M72,63.71c-.05-1.61-.15-2.91-.24-4.1l2.05-.07L74,61.69h.05a5,5,0,0,1,4.39-2.59c3-.1,5.42,2.39,5.55,6.21.15,4.52-2.52,6.85-5.49,7a4.41,4.41,0,0,1-3.94-1.84h-.05l.23,6.83-2.26.08ZM74.43,67a5.21,5.21,0,0,0,.14.93,3.53,3.53,0,0,0,3.52,2.56c2.42-.08,3.75-2.11,3.65-5-.09-2.52-1.48-4.63-3.9-4.55a3.65,3.65,0,0,0-3.36,3,3.72,3.72,0,0,0-.12.94Z"/><path d="M87.48,63c-.05-1.48-.12-2.75-.24-3.92l2-.07.16,2.47h.1A3.78,3.78,0,0,1,92.9,58.6a2.48,2.48,0,0,1,.65.06l.07,2.16a3.49,3.49,0,0,0-.78-.05,3.21,3.21,0,0,0-3,3,6.49,6.49,0,0,0-.07,1.07l.23,6.7-2.26.08Z"/><path d="M97.73,65.44c.16,3.09,2.18,4.3,4.46,4.22a8.27,8.27,0,0,0,3.46-.77l.44,1.62a10.18,10.18,0,0,1-4.16.92c-3.87.13-6.27-2.34-6.4-6.13s2-6.86,5.67-7c4.11-.14,5.32,3.43,5.4,5.75a8.7,8.7,0,0,1,0,1.07Zm2.44-12.23,2.41,3.64L101,56.9l-3.3-3.61Zm4.2,10.37c0-1.46-.72-3.7-3.3-3.61-2.31.08-3.25,2.24-3.38,3.83Z"/><path d="M109.94,68.56a6,6,0,0,0,3,.81c1.66-.06,2.41-.92,2.38-2s-.71-1.67-2.42-2.23c-2.29-.73-3.4-1.94-3.45-3.45-.07-2,1.51-3.75,4.21-3.84a6.29,6.29,0,0,1,3.12.67l-.52,1.68a4.9,4.9,0,0,0-2.6-.64c-1.35,0-2.08.85-2,1.79s.81,1.48,2.46,2c2.21.76,3.37,1.81,3.43,3.68.08,2.21-1.59,3.83-4.58,3.93a7.17,7.17,0,0,1-3.56-.74Z"/><path d="M137.83,66.52c0,1.3.11,2.44.22,3.43L136,70l-.2-2h-.05a4.73,4.73,0,0,1-4.08,2.48c-2,.07-4.38-.94-4.53-5.36l-.25-7.35,2.29-.08.24,7c.08,2.39.86,4,2.94,3.91a3.31,3.31,0,0,0,2.94-2.18,3.35,3.35,0,0,0,.17-1.18l-.26-7.72,2.29-.08Z"/><path d="M142.08,60.62c0-1.3-.11-2.36-.22-3.4l2-.07.2,2.07h.05a4.62,4.62,0,0,1,4.08-2.51c1.74-.06,4.48.89,4.63,5.2l.26,7.51-2.29.08-.25-7.25c-.07-2-.88-3.69-3-3.62a3.36,3.36,0,0,0-3.11,3.51l.26,7.56-2.29.08Z"/><path d="M163.31,59.9c0-1.3-.11-2.36-.22-3.4l2-.07.17,2h.08A4.34,4.34,0,0,1,169.21,56a3.72,3.72,0,0,1,3.65,2.4h.05a5.18,5.18,0,0,1,1.35-1.69,4.3,4.3,0,0,1,2.75-1c1.66-.06,4.17,1,4.32,5.32l.25,7.41-2.23.08-.24-7.12c-.08-2.42-1-3.84-2.86-3.78a3,3,0,0,0-2.63,2.17,3.77,3.77,0,0,0-.14,1.15l.27,7.77-2.23.08-.26-7.54c-.07-2-1-3.43-2.74-3.37a3.41,3.41,0,0,0-2.9,3.51l.26,7.59-2.23.08Z"/><path d="M197.11,61.53c.16,4.65-3,6.79-6,6.89-3.4.12-6.11-2.29-6.25-6.26-.14-4.21,2.53-6.77,6-6.89S197,57.68,197.11,61.53Zm-10,.47c.09,2.75,1.75,4.78,4,4.7s3.75-2.18,3.65-5c-.07-2.13-1.23-4.8-3.93-4.7S187.05,59.61,187.13,62Z"/><path d="M202.86,51.6a1.42,1.42,0,0,1-2.83.1,1.39,1.39,0,0,1,1.38-1.48A1.36,1.36,0,0,1,202.86,51.6Zm-2,16.2-.43-12.58,2.29-.08.43,12.58Z"/><path d="M207.2,65.24a6,6,0,0,0,3,.81c1.66-.06,2.42-.92,2.38-2s-.71-1.67-2.42-2.23c-2.29-.73-3.4-1.94-3.45-3.45-.07-2,1.51-3.75,4.21-3.84a6.29,6.29,0,0,1,3.12.67l-.52,1.68a4.9,4.9,0,0,0-2.6-.64c-1.35,0-2.08.85-2,1.79s.8,1.48,2.46,2c2.21.76,3.37,1.81,3.43,3.68.08,2.21-1.59,3.83-4.57,3.93a7.18,7.18,0,0,1-3.56-.74Z"/><path d="M216.87,70.46a37.46,37.46,0,0,0,1.35-6.26l2.54-.35a31.66,31.66,0,0,1-2.25,6.4Z"/><path d="M227.49,70.54a3.7,3.7,0,0,0,2.46-1c.6-.75.8-1.75.7-4.76l-.36-10.52,2.29-.08L233,65.54c.08,2.44-.25,4-1.33,5.22a5.81,5.81,0,0,1-3.85,1.56Zm5.23-20A1.34,1.34,0,0,1,231.33,52a1.37,1.37,0,0,1-1.45-1.36,1.4,1.4,0,0,1,1.41-1.48A1.35,1.35,0,0,1,232.71,50.59Z"/><path d="M238.47,60.64c.16,3.09,2.17,4.3,4.46,4.22a8.26,8.26,0,0,0,3.46-.77l.45,1.62a10.18,10.18,0,0,1-4.16.92c-3.87.13-6.27-2.34-6.4-6.13s2-6.86,5.67-7c4.11-.14,5.32,3.43,5.4,5.75a8.58,8.58,0,0,1,0,1.07Zm6.65-1.87c0-1.46-.72-3.7-3.3-3.61-2.31.08-3.25,2.24-3.38,3.83Z"/><path d="M256.92,57.23c-.05-1.48-.12-2.75-.24-3.92l2-.07.16,2.47h.1a3.78,3.78,0,0,1,3.39-2.87,2.47,2.47,0,0,1,.65.06l.07,2.16a3.43,3.43,0,0,0-.78-.05,3.21,3.21,0,0,0-3,3,6.42,6.42,0,0,0-.07,1.07l.23,6.7-2.26.08Z"/><path d="M267.18,59.66c.16,3.09,2.18,4.3,4.46,4.22a8.28,8.28,0,0,0,3.46-.77l.45,1.63a10.2,10.2,0,0,1-4.16.92c-3.87.13-6.27-2.34-6.4-6.13s2-6.86,5.67-7c4.11-.14,5.32,3.43,5.4,5.75a8.69,8.69,0,0,1,0,1.07Zm6.65-1.87c0-1.46-.72-3.7-3.3-3.61-2.31.08-3.25,2.24-3.38,3.83Z"/><path d="M282,48.83l.12,3.61,3.27-.11.06,1.74-3.27.11.23,6.78c.05,1.56.52,2.43,1.8,2.38a5.09,5.09,0,0,0,1.32-.2l.16,1.71a5.62,5.62,0,0,1-2,.38,3.17,3.17,0,0,1-2.5-.88,4.66,4.66,0,0,1-1-3.24l-.23-6.86-1.95.07-.06-1.74,1.95-.07-.1-3Z"/><path d="M288.73,56.14c-.05-1.48-.12-2.75-.24-3.92l2-.07.16,2.47h.1a3.77,3.77,0,0,1,3.39-2.87,2.48,2.48,0,0,1,.65.06l.07,2.16a3.37,3.37,0,0,0-.78-.05,3.21,3.21,0,0,0-3,3,6.43,6.43,0,0,0-.07,1.07l.23,6.7L289,64.8Z"/><path d="M309.07,57.71c.16,4.65-3,6.79-6,6.89-3.4.12-6.11-2.29-6.25-6.27-.14-4.21,2.53-6.77,6-6.89S308.94,53.87,309.07,57.71Zm-10,.47c.09,2.75,1.75,4.78,4,4.7s3.75-2.18,3.65-5c-.07-2.13-1.23-4.8-3.93-4.71S299,55.79,299.1,58.18Z"/><path d="M323.23,60.19c0,1.3.11,2.44.22,3.43l-2,.07-.2-2h-.05a4.73,4.73,0,0,1-4.08,2.48c-2,.07-4.38-.94-4.53-5.36l-.25-7.35,2.29-.08.24,7c.08,2.39.86,4,2.94,3.91A3.31,3.31,0,0,0,320.73,60a3.35,3.35,0,0,0,.17-1.18l-.26-7.72,2.29-.08Z"/><path d="M328.25,50.87l2.71,7A32.34,32.34,0,0,1,332.08,61h.08c.25-1,.58-2.1,1-3.26l2.2-7.15,2.39-.08L333.2,63.29l-2.18.08-5.21-12.41Z"/><path d="M341.75,57.12c.16,3.09,2.18,4.3,4.46,4.22a8.28,8.28,0,0,0,3.46-.77l.44,1.63a10.2,10.2,0,0,1-4.16.92c-3.87.13-6.27-2.34-6.4-6.13s2-6.86,5.67-7c4.11-.14,5.32,3.43,5.4,5.75a8.69,8.69,0,0,1,0,1.07Zm6.65-1.87c0-1.46-.72-3.7-3.3-3.61-2.31.08-3.25,2.24-3.38,3.83Z"/><path d="M372.81,61.37a11.22,11.22,0,0,1-4.6,1c-4.94.17-8.76-2.82-9-8.57-.19-5.48,3.4-9.33,8.83-9.51a9.38,9.38,0,0,1,4.18.64l-.48,1.86a8.24,8.24,0,0,0-3.56-.61c-4.11.14-6.75,2.86-6.59,7.46.15,4.29,2.71,7,7,6.81a9,9,0,0,0,3.67-.85Z"/><path d="M383,61.59,382.77,60h-.08a4.68,4.68,0,0,1-3.78,2,3.59,3.59,0,0,1-4-3.48c-.1-3,2.54-4.8,7.4-4.94v-.26a2.59,2.59,0,0,0-3-2.81,6.26,6.26,0,0,0-3.24,1l-.57-1.49a7.81,7.81,0,0,1,4.09-1.26c3.85-.13,4.87,2.46,5,5l.16,4.7a17.7,17.7,0,0,0,.31,3Zm-.56-6.41c-2.5,0-5.31.57-5.23,3a2,2,0,0,0,2.23,2.11,3.13,3.13,0,0,0,3-2.21,2.41,2.41,0,0,0,.1-.73Z"/><path d="M388.91,52.21c0-1.3-.11-2.36-.22-3.4l2-.07.17,2h.08a4.34,4.34,0,0,1,3.87-2.45,3.72,3.72,0,0,1,3.65,2.4h.05A5.19,5.19,0,0,1,399.86,49a4.29,4.29,0,0,1,2.75-1c1.66-.06,4.17,1,4.32,5.32l.25,7.41-2.23.08-.24-7.12c-.08-2.42-1-3.84-2.86-3.78a3,3,0,0,0-2.63,2.17,3.78,3.78,0,0,0-.14,1.15l.27,7.77-2.24.08-.26-7.54c-.07-2-1-3.43-2.74-3.37a3.41,3.41,0,0,0-2.9,3.51l.26,7.59-2.23.08Z"/><path d="M413.54,44.42a1.42,1.42,0,0,1-2.83.1A1.39,1.39,0,0,1,412.09,43,1.36,1.36,0,0,1,413.54,44.42Zm-2,16.2L411.11,48,413.4,48l.43,12.58Z"/><path d="M417.64,41.94l2.29-.08.63,18.45-2.29.08Z"/><path d="M424.42,41.71l2.29-.08.63,18.45-2.29.08Z"/><path d="M432.91,54c.16,3.09,2.17,4.3,4.46,4.22a8.27,8.27,0,0,0,3.46-.77l.45,1.62a10.18,10.18,0,0,1-4.16.92c-3.87.13-6.27-2.34-6.4-6.13s2-6.86,5.67-7c4.11-.14,5.32,3.43,5.4,5.75a8.58,8.58,0,0,1,0,1.07Zm6.65-1.87c0-1.46-.72-3.7-3.3-3.61-2.31.08-3.25,2.24-3.38,3.84Z"/><path d="M451.37,50.78c-.05-1.61-.15-2.91-.24-4.1l2.05-.07.18,2.15h.05a5,5,0,0,1,4.39-2.59c3-.1,5.41,2.39,5.54,6.21.15,4.52-2.52,6.85-5.49,7a4.41,4.41,0,0,1-3.94-1.84h-.05l.23,6.83-2.26.08Zm2.38,3.28a5.14,5.14,0,0,0,.14.93,3.53,3.53,0,0,0,3.52,2.56c2.42-.08,3.75-2.11,3.65-5-.09-2.52-1.48-4.63-3.9-4.55a3.65,3.65,0,0,0-3.36,3,3.7,3.7,0,0,0-.12.94Z"/><path d="M478.26,51.94c.16,4.65-3,6.79-6,6.89-3.4.12-6.11-2.29-6.25-6.27-.14-4.21,2.53-6.77,6-6.89S478.13,48.1,478.26,51.94Zm-10,.47c.09,2.75,1.75,4.78,4,4.7s3.75-2.18,3.65-5c-.07-2.13-1.23-4.8-3.93-4.71S468.2,50,468.29,52.41Z"/><path d="M492.42,54.43c0,1.3.11,2.44.22,3.43l-2,.07-.2-2h-.05a4.73,4.73,0,0,1-4.08,2.48c-2,.07-4.38-.94-4.53-5.36l-.25-7.35,2.29-.08.24,7c.08,2.39.86,4,2.94,3.91a3.22,3.22,0,0,0,3.11-3.36l-.26-7.72,2.29-.08Z"/><path d="M496.68,49.05c-.05-1.48-.12-2.75-.24-3.92l2-.07.16,2.47h.1a3.78,3.78,0,0,1,3.39-2.87,2.47,2.47,0,0,1,.65.06l.07,2.16a3.43,3.43,0,0,0-.78-.05,3.21,3.21,0,0,0-3,3,6.37,6.37,0,0,0-.07,1.07l.23,6.71L497,57.7Z"/><path d="M512.52,57.17l-.37-10.84-1.77.06-.06-1.74,1.77-.06,0-.6a5.93,5.93,0,0,1,1.31-4.44,4.38,4.38,0,0,1,3-1.27,5.31,5.31,0,0,1,2,.3l-.25,1.78a3.43,3.43,0,0,0-1.46-.24c-1.95.07-2.38,1.8-2.32,3.72l0,.68,3-.1.06,1.74-3,.1.37,10.84Z"/><path d="M527.48,56.66l-.24-1.58h-.08a4.69,4.69,0,0,1-3.78,2,3.58,3.58,0,0,1-4-3.48c-.1-3,2.54-4.8,7.4-4.94v-.26a2.59,2.59,0,0,0-3-2.81,6.27,6.27,0,0,0-3.24,1L520,45.16a7.81,7.81,0,0,1,4.09-1.26c3.85-.13,4.87,2.46,5,5l.16,4.7a17.7,17.7,0,0,0,.31,3Zm-.56-6.41c-2.5,0-5.31.57-5.23,3a2,2,0,0,0,2.23,2.11,3.13,3.13,0,0,0,3-2.21,2.41,2.41,0,0,0,.1-.73Z"/><path d="M535.69,40.25a1.42,1.42,0,0,1-2.83.1,1.39,1.39,0,0,1,1.38-1.48A1.36,1.36,0,0,1,535.69,40.25Zm-2,16.2-.43-12.58,2.29-.08L536,56.37Z"/><path d="M540.13,47.57c-.05-1.48-.12-2.75-.24-3.92l2-.07.16,2.47h.1a3.78,3.78,0,0,1,3.39-2.87,2.48,2.48,0,0,1,.65.06l.07,2.16a3.49,3.49,0,0,0-.78-.05,3.21,3.21,0,0,0-3,3,6.5,6.5,0,0,0-.07,1.07l.23,6.7-2.26.08Z"/><path d="M550.38,50c.16,3.09,2.18,4.3,4.46,4.22a8.28,8.28,0,0,0,3.46-.77l.45,1.62a10.18,10.18,0,0,1-4.16.92c-3.87.13-6.27-2.34-6.4-6.13s2-6.86,5.67-7c4.11-.14,5.32,3.43,5.4,5.75a8.7,8.7,0,0,1,0,1.07ZM557,48.14c0-1.46-.72-3.7-3.3-3.61-2.31.08-3.25,2.24-3.38,3.84Z"/><path d="M77,104l-.24-1.58h-.08a4.68,4.68,0,0,1-3.78,2,3.58,3.58,0,0,1-4-3.48c-.1-3,2.54-4.8,7.4-4.94v-.26a2.59,2.59,0,0,0-3-2.81,6.27,6.27,0,0,0-3.24,1l-.57-1.49a7.81,7.81,0,0,1,4.09-1.26c3.85-.13,4.87,2.46,5,5l.16,4.7a17.72,17.72,0,0,0,.31,3Zm-.56-6.41c-2.5,0-5.31.57-5.23,3a2,2,0,0,0,2.23,2.11,3.13,3.13,0,0,0,3-2.21,2.37,2.37,0,0,0,.1-.73Z"/><path d="M83.46,91.23l2.71,7a32.19,32.19,0,0,1,1.12,3.19h.08c.25-1,.58-2.1,1-3.26L90.53,91l2.39-.08-4.51,12.75-2.18.07L81,91.31Z"/><path d="M97,97.48c.16,3.09,2.18,4.3,4.46,4.22a8.26,8.26,0,0,0,3.46-.77l.45,1.62a10.18,10.18,0,0,1-4.16.92c-3.87.13-6.27-2.33-6.4-6.13s2-6.86,5.67-7c4.11-.14,5.32,3.44,5.4,5.75a8.57,8.57,0,0,1,0,1.07Zm6.65-1.87c0-1.46-.72-3.7-3.3-3.61-2.31.08-3.25,2.24-3.38,3.83Z"/><path d="M118.51,102.16a8.4,8.4,0,0,1-3.59.85c-3.79.13-6.35-2.36-6.48-6.2A6.39,6.39,0,0,1,115,89.9a7.64,7.64,0,0,1,3.19.54l-.46,1.78a5.31,5.31,0,0,0-2.67-.51c-2.88.1-4.37,2.28-4.28,4.91.1,2.91,2,4.64,4.53,4.55a6.49,6.49,0,0,0,2.79-.72Z"/><path d="M129.08,96.39c.16,3.09,2.18,4.3,4.46,4.22a8.28,8.28,0,0,0,3.46-.77l.45,1.62a10.17,10.17,0,0,1-4.16.92c-3.87.13-6.27-2.34-6.4-6.13s2-6.86,5.67-7c4.11-.14,5.32,3.43,5.4,5.75a8.67,8.67,0,0,1,0,1.07Zm6.65-1.87c0-1.46-.72-3.7-3.3-3.61-2.31.08-3.25,2.24-3.38,3.84Z"/><path d="M141,83.39l2.29-.08.63,18.45-2.29.08Z"/><path d="M147.83,83.16l2.29-.08.63,18.45-2.29.08Z"/><path d="M156.32,95.46c.16,3.09,2.18,4.3,4.46,4.22a8.26,8.26,0,0,0,3.46-.77l.45,1.62a10.21,10.21,0,0,1-4.16.92c-3.87.13-6.27-2.34-6.4-6.13s2-6.86,5.67-7c4.11-.14,5.32,3.44,5.4,5.75a8.58,8.58,0,0,1,0,1.07ZM163,93.59c0-1.46-.73-3.7-3.3-3.61-2.31.08-3.25,2.24-3.38,3.84Z"/><path d="M174.44,82.25l2.29-.08.63,18.45-2.29.08Z"/><path d="M182.92,94.55c.16,3.09,2.18,4.3,4.46,4.22a8.28,8.28,0,0,0,3.46-.77l.44,1.62a10.17,10.17,0,0,1-4.16.92c-3.87.13-6.27-2.34-6.4-6.13s2-6.86,5.67-7c4.11-.14,5.32,3.43,5.4,5.75a8.79,8.79,0,0,1,0,1.07Zm6.65-1.87c0-1.46-.72-3.7-3.3-3.61-2.31.08-3.25,2.24-3.38,3.84Z"/><path d="M201.57,99.8c0-.86,0-2.13,0-3.25L201,81.34l2.26-.08.27,7.9h.05a4.69,4.69,0,0,1,4.21-2.46c3.12-.11,5.42,2.42,5.52,6.24.15,4.5-2.6,6.83-5.41,6.92a4.48,4.48,0,0,1-4.29-2.22h-.08l0,2.08Zm2.19-5.12a4.33,4.33,0,0,0,.13.83,3.53,3.53,0,0,0,3.52,2.56c2.39-.08,3.75-2.08,3.66-5-.09-2.52-1.46-4.63-3.9-4.55a3.65,3.65,0,0,0-3.39,2.92,4.53,4.53,0,0,0-.1.94Z"/><path d="M219.11,83.07a1.42,1.42,0,0,1-2.83.1,1.39,1.39,0,0,1,1.38-1.48A1.36,1.36,0,0,1,219.11,83.07Zm-2,16.2-.43-12.58,2.29-.08.43,12.58Z"/><path d="M223.21,80.59l2.29-.08L226.13,99l-2.29.08Z"/><path d="M237.59,98.57,237.35,97h-.08a4.69,4.69,0,0,1-3.78,2,3.59,3.59,0,0,1-4-3.48c-.1-3,2.54-4.79,7.4-4.93v-.26a2.59,2.59,0,0,0-3-2.81,6.28,6.28,0,0,0-3.24,1l-.57-1.49a7.81,7.81,0,0,1,4.09-1.26c3.85-.13,4.87,2.46,5,5l.16,4.7a17.71,17.71,0,0,0,.31,3ZM237,92.16c-2.5,0-5.31.57-5.23,3A2,2,0,0,0,234,97.28a3.13,3.13,0,0,0,3-2.21,2.37,2.37,0,0,0,.1-.73Z"/><path d="M243.48,89.18c0-1.3-.11-2.36-.22-3.4l2-.07.2,2.07h.05a4.63,4.63,0,0,1,4.08-2.51c1.74-.06,4.48.89,4.63,5.2L254.5,98l-2.29.08L252,90.82c-.07-2-.88-3.69-3-3.62a3.25,3.25,0,0,0-3,2.44,3.3,3.3,0,0,0-.12,1.07l.26,7.56-2.29.08Z"/><path d="M258.28,96.51a1.54,1.54,0,0,1,1.5-1.69,1.64,1.64,0,1,1-1.5,1.69Z"/><path d="M273.78,91.82l-1.63,5.57-2.34.08,5.35-17.72,2.73-.09L284.46,97l-2.42.08L280,91.61Zm5.68-2-1.89-5c-.43-1.13-.72-2.16-1-3.17h-.05c-.22,1-.47,2.12-.78,3.2L274.19,90Z"/><path d="M292.56,88.81l.06,1.69-6.42.22L286.14,89Z"/><path d="M298.36,80.29l.12,3.61,3.27-.11.06,1.74-3.27.11.23,6.78c.05,1.56.53,2.43,1.8,2.38a5.09,5.09,0,0,0,1.32-.2l.16,1.71a5.6,5.6,0,0,1-2,.38,3.17,3.17,0,0,1-2.5-.88,4.66,4.66,0,0,1-1-3.24l-.23-6.86-1.95.07L294.3,84l1.95-.07-.1-3Z"/><path d="M310.31,88.21l.06,1.69-6.42.22-.06-1.69Z"/><path d="M315.44,90c.16,3.09,2.18,4.3,4.46,4.22a8.28,8.28,0,0,0,3.46-.77l.45,1.62a10.19,10.19,0,0,1-4.16.92c-3.87.13-6.27-2.34-6.4-6.13s2-6.86,5.67-7c4.11-.14,5.32,3.43,5.4,5.75a8.7,8.7,0,0,1,0,1.07Zm6.65-1.87c0-1.46-.73-3.7-3.3-3.61-2.31.08-3.25,2.25-3.38,3.84Z"/><path d="M327.41,77,329.7,77l.63,18.45-2.29.08Z"/><path d="M334.19,76.8l2.29-.08.63,18.45-2.29.08Z"/><path d="M342.68,89.1c.16,3.09,2.18,4.3,4.46,4.22a8.29,8.29,0,0,0,3.46-.77l.44,1.62a10.19,10.19,0,0,1-4.16.92c-3.87.13-6.27-2.34-6.4-6.13s2-6.86,5.67-7c4.11-.14,5.32,3.43,5.4,5.75a8.68,8.68,0,0,1,0,1.07Zm6.65-1.87c0-1.46-.72-3.7-3.3-3.61-2.31.08-3.25,2.24-3.38,3.84Z"/><path d="M363.63,78.06l.12,3.61,3.27-.11.06,1.74-3.27.11L364,90.2c.05,1.56.52,2.43,1.8,2.38a5.09,5.09,0,0,0,1.32-.2l.16,1.71a5.6,5.6,0,0,1-2,.38,3.17,3.17,0,0,1-2.5-.88,4.66,4.66,0,0,1-1-3.24l-.23-6.86-1.95.07-.06-1.74,1.95-.07-.1-3Z"/><path d="M370.38,85.38c-.05-1.48-.12-2.75-.24-3.92l2-.07.16,2.47h.1A3.77,3.77,0,0,1,375.8,81a2.43,2.43,0,0,1,.65.06l.07,2.16a3.38,3.38,0,0,0-.78-.05,3.21,3.21,0,0,0-3,3,6.37,6.37,0,0,0-.07,1.07l.23,6.7-2.26.08Z"/><path d="M390.73,86.95c.16,4.65-3,6.79-6,6.89-3.4.12-6.11-2.29-6.25-6.26-.14-4.21,2.53-6.77,6-6.89S390.6,83.1,390.73,86.95Zm-10,.47c.09,2.75,1.75,4.78,4,4.7s3.75-2.18,3.65-5c-.07-2.13-1.23-4.8-3.93-4.7S380.67,85,380.76,87.42Z"/><path d="M404.89,89.43c0,1.3.11,2.44.22,3.43l-2,.07-.2-2h-.05a4.73,4.73,0,0,1-4.08,2.48c-2,.07-4.38-.94-4.53-5.36L394,80.64l2.29-.08.24,7c.08,2.39.86,4,2.94,3.91a3.22,3.22,0,0,0,3.11-3.36l-.26-7.72,2.29-.08Z"/><path d="M409.9,80.1l2.71,7a32.09,32.09,0,0,1,1.12,3.19h.08c.25-1,.58-2.1,1-3.26l2.2-7.15,2.39-.08-4.51,12.75-2.18.07-5.21-12.41Z"/><path d="M423.41,86.35c.16,3.09,2.18,4.3,4.46,4.22a8.28,8.28,0,0,0,3.46-.77l.44,1.62a10.19,10.19,0,0,1-4.16.92c-3.87.13-6.27-2.34-6.4-6.13s2-6.86,5.67-7c4.11-.14,5.32,3.43,5.4,5.75a8.69,8.69,0,0,1,0,1.07Zm6.65-1.87c0-1.46-.72-3.7-3.3-3.61-2.31.08-3.25,2.24-3.38,3.83ZM430.25,74l-3,3.82-1.64.06,2.16-3.79Z"/><path d="M441.77,89.26a6,6,0,0,0,3,.81c1.66-.06,2.41-.92,2.38-2s-.71-1.67-2.42-2.23c-2.29-.73-3.4-1.94-3.45-3.45-.07-2,1.51-3.75,4.21-3.84a6.29,6.29,0,0,1,3.12.67L448.15,81a4.89,4.89,0,0,0-2.6-.64c-1.35,0-2.08.85-2,1.79s.81,1.48,2.46,2c2.21.76,3.37,1.81,3.43,3.68.08,2.21-1.59,3.83-4.57,3.93a7.17,7.17,0,0,1-3.56-.74Z"/><path d="M460.07,91l-.24-1.58h-.08a4.68,4.68,0,0,1-3.78,2,3.58,3.58,0,0,1-4-3.48c-.1-3,2.54-4.8,7.4-4.94v-.26a2.59,2.59,0,0,0-3-2.81,6.27,6.27,0,0,0-3.24,1l-.57-1.49a7.82,7.82,0,0,1,4.09-1.26c3.85-.13,4.87,2.46,5,5l.16,4.7a17.78,17.78,0,0,0,.31,3Zm-.56-6.41c-2.5,0-5.31.57-5.23,3a2,2,0,0,0,2.23,2.11,3.13,3.13,0,0,0,3-2.21,2.37,2.37,0,0,0,.1-.73Z"/><path d="M472.15,82.09c-.06-1.61-.15-2.91-.24-4.1l2.05-.07.18,2.15h.05a5,5,0,0,1,4.39-2.6c3-.1,5.42,2.39,5.54,6.21.15,4.52-2.52,6.85-5.49,7a4.42,4.42,0,0,1-3.94-1.84h-.05l.23,6.83-2.26.08Zm2.38,3.28a5.1,5.1,0,0,0,.14.93,3.53,3.53,0,0,0,3.52,2.56c2.42-.08,3.75-2.11,3.65-5-.09-2.52-1.49-4.63-3.9-4.55a3.65,3.65,0,0,0-3.36,3,3.7,3.7,0,0,0-.12.94Z"/><path d="M487.24,71.58l2.29-.08L490.16,90l-2.29.08Z"/><path d="M501.62,89.56,501.38,88h-.08a4.69,4.69,0,0,1-3.78,2,3.59,3.59,0,0,1-4-3.48c-.1-3,2.54-4.8,7.4-4.94v-.26a2.59,2.59,0,0,0-3-2.81,6.28,6.28,0,0,0-3.24,1l-.57-1.49a7.81,7.81,0,0,1,4.09-1.26c3.85-.13,4.87,2.46,5,5l.16,4.7a17.72,17.72,0,0,0,.31,3Zm-.56-6.41c-2.5,0-5.31.57-5.23,3a2,2,0,0,0,2.23,2.11,3.13,3.13,0,0,0,3-2.21,2.37,2.37,0,0,0,.1-.73Z"/><path d="M516.77,88.58a8.41,8.41,0,0,1-3.59.85c-3.79.13-6.35-2.36-6.48-6.21a6.39,6.39,0,0,1,6.53-6.91,7.63,7.63,0,0,1,3.19.54L516,78.64a5.3,5.3,0,0,0-2.67-.51c-2.88.1-4.37,2.28-4.28,4.91.1,2.91,2,4.64,4.53,4.55a6.5,6.5,0,0,0,2.79-.72Z"/><path d="M521,83c.16,3.09,2.18,4.3,4.46,4.22a8.27,8.27,0,0,0,3.46-.77l.45,1.62a10.19,10.19,0,0,1-4.16.92c-3.87.13-6.27-2.34-6.4-6.13s2-6.86,5.67-7c4.11-.14,5.32,3.43,5.4,5.75a8.56,8.56,0,0,1,0,1.07Zm6.65-1.87c0-1.46-.72-3.7-3.3-3.61-2.31.08-3.25,2.24-3.38,3.84Z"/><path d="M541.38,83.24l-.08-.67A6,6,0,0,1,542.77,78c1.12-1.42,1.74-2.45,1.7-3.62,0-1.33-.91-2.18-2.54-2.15a4.62,4.62,0,0,0-2.6.89l-.68-1.62a6.82,6.82,0,0,1,3.68-1.17c3-.1,4.4,1.7,4.47,3.67.06,1.77-.88,3.07-2.08,4.6a5.14,5.14,0,0,0-1.35,3.87l0,.67Zm-.45,3.66a1.54,1.54,0,0,1,1.5-1.69,1.63,1.63,0,1,1-1.5,1.69Z"/></g></g></g></svg>