<?xml version="1.0" encoding="utf-8"?>
<!-- Generator: Adobe Illustrator 21.1.0, SVG Export Plug-In . SVG Version: 6.00 Build 0)  -->
<svg version="1.1" id="Calque_1" xmlns="http://www.w3.org/2000/svg" xmlns:xlink="http://www.w3.org/1999/xlink" x="0px" y="0px"
	 viewBox="0 0 1920 1080" style="enable-background:new 0 0 1920 1080;" xml:space="preserve">
<style type="text/css">
	.st0{opacity:0.2;fill:#FFFFFF;enable-background:new    ;}
	.st1{fill:none;stroke:#FFFFFF;stroke-width:5;stroke-linecap:round;stroke-miterlimit:10;}
	.st2{fill:none;stroke:#FFFFFF;stroke-width:5;stroke-linecap:round;stroke-miterlimit:10;stroke-dasharray:1,14.96;}
	.st3{fill:#225366;}
	.st4{opacity:0.2;fill:#105768;enable-background:new    ;}
	.st5{fill:#FEFEFF;}
	.st6{fill:#FCC600;}
	.st7{enable-background:new    ;}
	.st8{fill:#FFFFFF;}
	.st9{opacity:0.1;fill:#464646;enable-background:new    ;}
	.st10{fill:#434A54;}
	.st11{fill:#4D5661;}
</style>
<title>game3b_bg</title>
<g>
	<g id="Calque_1_1_">
		<path class="st0" d="M850.8,90H284.4c-4.9,0-8.4,4-8.4,8.9v51.4c-0.2,4.6,3.4,8.5,8.1,8.7c0.1,0,0.2,0,0.3,0h220.1l54.9,35
			l53.1-35h238.2c4.9,0,9.2-3.9,9.2-8.7V98.9C860,94,855.6,90,850.8,90z"/>
		<line class="st1" x1="919.4" y1="161.2" x2="919.4" y2="161.7"/>
		<line class="st2" x1="919.4" y1="176.7" x2="919.4" y2="966.8"/>
		<line class="st1" x1="919.4" y1="974.3" x2="919.4" y2="974.8"/>
		<polygon class="st3" points="985.4,978.8 1064.9,1029 1144.3,978.8 1121.9,-1 1013.9,-1 		"/>
		
			<rect x="1129.1" y="120.8" transform="matrix(1 -2.443451e-03 2.443451e-03 1 -1.353 3.4991)" class="st4" width="604.4" height="869.4"/>
		
			<rect x="1140.6" y="109.4" transform="matrix(1 -2.443451e-03 2.443451e-03 1 -1.325 3.527)" class="st5" width="604.4" height="869.4"/>
		<circle class="st6" cx="1069.9" cy="220.6" r="24"/>
		<g class="st7">
			<path class="st8" d="M1071.8,205.2v25.3h4v4.2h-12.2v-4.2h4v-21.1h-4v-4.2H1071.8z"/>
		</g>
		<path class="st9" d="M1069.9,196.6h-0.2v48h0.2c13.3,0,24-10.7,24-24S1083.1,196.6,1069.9,196.6z"/>
		<circle class="st6" cx="1069.9" cy="389" r="24"/>
		<g class="st7">
			<path class="st8" d="M1063.6,396.8c0-2.7,1.3-4.9,4-6.8c2.7-1.9,4-3.5,4-4.8v-5.8c0-1.3-0.6-2-1.8-2h0c-1.2,0-1.8,0.7-1.8,2v4
				h-4.3v-4c0-4.1,2-6.2,6.1-6.2c4.1,0,6.1,2.1,6.1,6.2v5.9c0,2.7-1.3,5-4,6.9c-2.7,1.9-4,3.6-4,5v1.8h8v4.2h-12.2V396.8z"/>
		</g>
		<path class="st9" d="M1069.9,365h-0.2v48h0.2c13.3,0,24-10.7,24-24S1083.1,365,1069.9,365z"/>
		<circle class="st6" cx="1069.9" cy="557.5" r="24"/>
		<g class="st7">
			<path class="st8" d="M1071.5,547.8c0-1.3-0.6-2-1.8-2h0c-1.2,0-1.8,0.7-1.8,2v4h-4.3v-4c0-4.1,2-6.2,6.1-6.2
				c4.1,0,6.1,2.1,6.1,6.2v5.1c0,1.9-0.8,3.3-2.3,4.1c1.6,0.8,2.3,2.2,2.3,4.1v4.7c0,4.1-2,6.2-6.1,6.2c-4.1,0-6.1-2.1-6.1-6.2v-4
				h4.3v4c0,1.3,0.6,2,1.8,2h0c1.2,0,1.8-0.7,1.8-2v-4.7c0-1.1-0.2-1.7-0.7-1.9c-0.2-0.1-0.6-0.2-1.1-0.2h-1.4v-4.2h1.7
				c0.4,0,0.7-0.1,0.9-0.2c0.4-0.2,0.6-0.8,0.6-1.8V547.8z"/>
		</g>
		<path class="st9" d="M1069.9,533.5h-0.2v48h0.2c13.3,0,24-10.7,24-24S1083.1,533.5,1069.9,533.5z"/>
		<circle class="st6" cx="1069.9" cy="725.9" r="24"/>
		<g class="st7">
			<path class="st8" d="M1075.3,710.5v19.4h1.6v4.2h-1.6v6h-4.3v-6h-8.6v-3.7l7.5-19.8H1075.3z M1066.6,729.8h4.4v-12.5
				L1066.6,729.8z"/>
		</g>
		<path class="st9" d="M1069.9,701.9h-0.2v48h0.2c13.3,0,24-10.7,24-24S1083.1,701.9,1069.9,701.9z"/>
		<circle class="st6" cx="1069.9" cy="894.3" r="24"/>
		<g class="st7">
			<path class="st8" d="M1071.5,894.3c0-1-0.2-1.7-0.7-1.8c-0.2-0.1-0.6-0.2-1.2-0.2c-0.1,0-0.3,0-0.4,0c-0.9,0-1.3,0.4-1.4,1.2
				l0,1.2h-4.3l0.6-15.7h11.6v4.2h-7.5l-0.3,6.3c0.7-0.8,1.7-1.2,2.9-1.2c0.2,0,0.3,0,0.5,0c1.5,0.1,2.6,0.7,3.4,1.8
				c0.6,0.9,0.9,2.3,0.9,4.3v8.4c0,4.1-2,6.2-6.1,6.2c-4.1,0-6.1-2.1-6.1-6.2v-3.5h4.3v3.5c0,1.3,0.6,2,1.8,2h0c1.2,0,1.8-0.7,1.8-2
				V894.3z"/>
		</g>
		<path class="st9" d="M1069.9,870.3h-0.2v48h0.2c13.3,0,24-10.7,24-24S1083.1,870.3,1069.9,870.3z"/>
		<path class="st4" d="M1616.1,1041.8l0.9,3.2c-1.7,1.1-2.6,3.2-2,5.2c0.7,2.5,3.4,4,5.9,3.3c0,0,0,0,0,0l84.9-24.5
			c2.5-0.7,4-3.4,3.3-5.9s-3.4-4-5.9-3.3l-63.7,18.4l-0.7-2.6l100.1-28.8c2.6-0.7,4-3.4,3.3-6c0,0,0,0,0,0l-0.4-1.5l224.7-64.7
			c10.8-3.5,16.7-15.1,13.2-25.9c-3.3-10.3-14.1-16.2-24.5-13.6l-224.7,64.7l-0.4-1.5c-0.7-2.6-3.4-4.1-6-3.3c0,0,0,0,0,0
			l-118.6,34.2c-14.3,4.1-22.5,19-18.4,33.3C1590.5,1035.3,1602.9,1043.5,1616.1,1041.8L1616.1,1041.8z"/>
		<path class="st10" d="M1982.4,896.1L1982.4,896.1c3.1,10.9-3.1,22.3-14,25.4l-271.8,78.3l-11.4-39.5L1957,882
			C1967.9,878.9,1979.3,885.2,1982.4,896.1z"/>
		<path class="st11" d="M1731.9,945.2l12.3,42.5c0.8,2.6-0.7,5.2-3.3,6c0,0,0,0,0,0l-118.6,34.2c-14.3,4.1-29.2-4.1-33.4-18.5l0,0
			c-4.1-14.3,4.1-29.2,18.4-33.4l118.6-34.2C1728.4,941.2,1731.1,942.7,1731.9,945.2z"/>
		
			<rect x="1618.2" y="1024.4" transform="matrix(0.9609 -0.2768 0.2768 0.9609 -220.7658 491.3307)" class="st11" width="23.5" height="6.4"/>
		<path class="st11" d="M1711.1,1010L1711.1,1010c0.7,2.5-0.7,5.2-3.3,5.9c0,0,0,0,0,0l-84.9,24.5c-2.5,0.7-5.2-0.7-5.9-3.3
			c0,0,0,0,0,0l0,0c-0.7-2.5,0.7-5.2,3.3-5.9c0,0,0,0,0,0l84.9-24.5C1707.8,1006,1710.4,1007.5,1711.1,1010
			C1711.1,1010,1711.1,1010,1711.1,1010z"/>
		<path class="st8" d="M332.8,110.4V132c-0.1,1.2,0.2,2.5,0.9,3.5c0.8,0.8,1.9,1.3,3,1.1c1.2,0.1,2.3-0.3,3.1-1.1
			c0.7-1,1-2.3,0.9-3.5v-21.6h6.5v22.7c0,2.8-0.7,5.2-2.4,6.9s-4.3,2.8-8.1,2.8s-6.5-1-8.1-2.8c-1.7-1.9-2.5-4.4-2.4-6.9v-22.7
			H332.8z"/>
		<path class="st8" d="M369.2,129.1v-18.7h5.8v31.8h-5.9l-9-20.4v20.4h-5.8v-31.8h6.6L369.2,129.1z"/>
		<path class="st8" d="M382.6,110.4h15.5v6h-9v6.1h9v6h-9v7.7h9v6h-15.5V110.4z"/>
		<path class="st8" d="M419.2,110.4h9.6c3,0,5.2,0.8,6.7,2.3c1.4,1.5,2.2,3.6,2.1,5.7c0,3.9-2,6-5.2,6.4c3.7,0.8,6.5,2.7,6.5,8
			c0.1,2.4-0.8,4.8-2.3,6.6c-1.8,1.8-4.2,2.8-6.8,2.8h-10.6V110.4z M425.8,122.8h1.5c1,0.1,2-0.2,2.8-0.8c0.7-0.7,1-1.6,0.9-2.6
			c0.1-0.9-0.2-1.8-0.9-2.4c-0.8-0.6-1.8-0.8-2.8-0.8h-1.5V122.8z M425.8,136.4h2.5c1.1,0.1,2.2-0.3,3-1.1c0.7-0.8,1-1.7,0.9-2.8
			c0.3-2-1.1-3.8-3.1-4.1c-0.3,0-0.6,0-0.9,0h-2.5L425.8,136.4z"/>
		<path class="st8" d="M443.5,126.2c0-9.9,3.9-16.5,11.7-16.5s11.7,6.5,11.7,16.5s-3.9,16.5-11.7,16.5S443.5,136.3,443.5,126.2
			L443.5,126.2z M450.3,126.3c0,7.6,1.6,10.5,5,10.5s5-2.8,5-10.5s-1.6-10.5-5-10.5S450.3,118.6,450.3,126.3L450.3,126.3z"/>
		<path class="st8" d="M487.8,129.1v-18.7h5.8v31.8h-5.9l-9-20.4v20.4H473v-31.8h6.6L487.8,129.1z"/>
		<path class="st8" d="M515.8,129.1v-18.7h5.8v31.8h-5.8l-9-20.4v20.4H501v-31.8h6.6L515.8,129.1z"/>
		<path class="st8" d="M529.1,110.4h15.5v6h-9v6.1h9v6h-9v7.7h9v6h-15.5V110.4z"/>
		<path class="st8" d="M565.7,110.4h6.5v31.8h-6.5V110.4z"/>
		<path class="st8" d="M594.3,129.1v-18.7h5.8v31.8h-5.8l-9-20.4v20.4h-5.8v-31.8h6.6L594.3,129.1z"/>
		<path class="st8" d="M611,116.4h-5.3v-6h17.2v6h-5.3v25.8H611V116.4z"/>
		<path class="st8" d="M628.5,110.4H644v6h-9v6.1h9v6h-9v7.7h9v6h-15.5V110.4z M641.9,100.7l2.2,4.6l-10,4.4l-2-3.7L641.9,100.7z"/>
		<path class="st8" d="M666.5,121.6c0-1.1-0.2-2.3-0.7-3.3c-0.6-1.5-2.1-2.5-3.7-2.5c-3.4,0-5.2,3-5.2,10.5c0,7.5,1.6,10.5,5.2,10.5
			c1.4,0.1,2.7-0.6,3.5-1.8c0.7-1.2,1.1-2.7,1-4.1h-5.5v-6h12.2v6.1c0,6.7-4.3,11.8-11.1,11.8c-8.2,0-11.9-6.2-11.9-16.5
			c0-9.9,4-16.5,11.9-16.5c6.7,0,10.8,4.5,11.1,11.8L666.5,121.6z"/>
		<path class="st8" d="M679.5,110.4h8.3c4.5,0,7.4,1.2,8.8,2.8c1.7,2.1,2.7,4.7,2.6,7.4c0,1.7-0.3,3.3-1,4.8
			c-0.7,1.8-2.1,3.2-3.7,4.2l6,12.7h-7.3l-7-16.2c0.7,0,1.1,0,1.6,0c1.2,0,2.3-0.4,3.2-1.2c1-1,1.5-2.3,1.4-3.7
			c0.1-1.5-0.4-2.9-1.5-3.9c-1-0.7-2.2-1-3.3-0.9H686v25.7h-6.5V110.4z"/>
		<path class="st8" d="M709.1,142.2h-6.6l8.7-31.8h6l9,31.8h-6.6l-1.5-6.1h-7.3L709.1,142.2z M714.2,119.7l-2,10.4h4L714.2,119.7z"
			/>
		<path class="st8" d="M731.1,116.4h-5.3v-6H743v6h-5.3v25.8h-6.5L731.1,116.4z"/>
		<path class="st8" d="M748.3,110.4h6.5v31.8h-6.5V110.4z"/>
		<path class="st8" d="M760.7,126.2c0-9.9,3.9-16.5,11.7-16.5s11.7,6.5,11.7,16.5s-3.9,16.5-11.7,16.5S760.7,136.3,760.7,126.2
			L760.7,126.2z M767.4,126.3c0,7.6,1.6,10.5,5,10.5s5-2.8,5-10.5s-1.6-10.5-5-10.5S767.4,118.6,767.4,126.3L767.4,126.3z"/>
		<path class="st8" d="M804.9,129.1v-18.7h5.8v31.8h-5.8l-9-20.4v20.4h-5.8v-31.8h6.6L804.9,129.1z"/>
	</g>
</g>
</svg>
