<?xml version="1.0" encoding="utf-8"?>
<!-- Generator: Adobe Illustrator 21.1.0, SVG Export Plug-In . SVG Version: 6.00 Build 0)  -->
<svg version="1.1" id="Calque_1" xmlns="http://www.w3.org/2000/svg" xmlns:xlink="http://www.w3.org/1999/xlink" x="0px" y="0px"
	 viewBox="0 0 1920 1080" style="enable-background:new 0 0 1920 1080;" xml:space="preserve">
<style type="text/css">
	.st0{fill:none;stroke:#FFFFFF;stroke-width:5;stroke-linecap:round;stroke-miterlimit:10;}
	.st1{fill:none;stroke:#FFFFFF;stroke-width:5;stroke-linecap:round;stroke-miterlimit:10;stroke-dasharray:1,14.96;}
	.st2{fill:#F7C646;}
	.st3{opacity:0.42;fill:#BC8F00;enable-background:new    ;}
	.st4{fill:#FFFFFF;}
	.st5{opacity:0.2;fill:#FFFFFF;}
</style>
<title>game2b4_bg</title>
<line class="st0" x1="555.8" y1="247.2" x2="556.3" y2="247.2"/>
<line class="st1" x1="571.3" y1="247.2" x2="1361.4" y2="247.2"/>
<line class="st0" x1="1368.9" y1="247.2" x2="1369.4" y2="247.2"/>
<circle class="st2" cx="689.3" cy="247.2" r="19.3"/>
<path class="st3" d="M689.3,227.8h-0.2v38.6h0.2c10.7,0.2,19.5-8.2,19.8-18.9c0.2-10.7-8.2-19.5-18.9-19.8
	C689.9,227.8,689.6,227.8,689.3,227.8z"/>
<circle class="st2" cx="826" cy="247.2" r="19.3"/>
<path class="st3" d="M826,227.8h-0.2v38.6h0.2c10.7,0.2,19.5-8.2,19.8-18.9c0.2-10.7-8.2-19.5-18.9-19.8
	C826.5,227.8,826.2,227.8,826,227.8z"/>
<circle class="st2" cx="962.6" cy="247.2" r="19.3"/>
<path class="st3" d="M962.6,227.8h-0.2v38.6h0.2c10.7,0.2,19.5-8.2,19.8-18.9c0.2-10.7-8.2-19.5-18.9-19.8
	C963.2,227.8,962.9,227.8,962.6,227.8z"/>
<circle class="st2" cx="1099.3" cy="247.2" r="39.3"/>
<path class="st3" d="M1099.3,207.8h-0.3v78.6h0.3c21.7,0,39.3-17.6,39.3-39.3S1121.1,207.9,1099.3,207.8
	C1099.3,207.8,1099.3,207.8,1099.3,207.8L1099.3,207.8z"/>
<circle class="st2" cx="1235.9" cy="247.2" r="19.3"/>
<path class="st3" d="M1235.9,227.8h-0.2v38.6h0.2c10.7,0.2,19.5-8.2,19.8-18.9c0.2-10.7-8.2-19.5-18.9-19.8
	C1236.5,227.8,1236.2,227.8,1235.9,227.8z"/>
<path class="st4" d="M690.8,234.7v20.4h3.2v3.4h-9.8v-3.4h3.2v-17h-3.2v-3.4L690.8,234.7z"/>
<path class="st4" d="M820.9,253.4c0.1-2.3,1.3-4.3,3.2-5.5c2.1-1.5,3.2-2.8,3.2-3.9v-4.7c0-1.1-0.5-1.6-1.5-1.6l0,0
	c-1,0-1.5,0.5-1.5,1.6v3.2h-3.4v-3.2c0-3.3,1.6-5,4.9-5s4.9,1.7,4.9,5v4.7c-0.1,2.3-1.3,4.4-3.2,5.6c-2.1,1.5-3.2,2.9-3.2,4v1.4h6.4
	v3.4h-9.8L820.9,253.4z"/>
<path class="st4" d="M964,239.3c0-1.1-0.5-1.6-1.5-1.6l0,0c-1,0-1.5,0.5-1.5,1.6v3.2h-3.4v-3.2c0-3.3,1.6-5,4.9-5
	c3.3,0,4.9,1.7,4.9,5v4.1c0.1,1.4-0.6,2.7-1.9,3.3c1.2,0.6,2,1.9,1.9,3.3v3.8c0,3.3-1.6,5-4.9,5c-3.3,0-4.9-1.7-4.9-5v-3.2h3.4v3.2
	c0,1.1,0.5,1.6,1.5,1.6l0,0c1,0,1.5-0.5,1.5-1.6v-3.8c0-0.9-0.2-1.4-0.5-1.5c-0.3-0.1-0.6-0.1-0.9-0.1h-1.1V245h1.4
	c0.3,0,0.5,0,0.7-0.1c0.3-0.2,0.5-0.6,0.5-1.4L964,239.3z"/>
<path class="st4" d="M1108.1,221.9v31.7h2.7v6.9h-2.7v9.8h-7v-9.8H1087v-6.1l12.2-32.5L1108.1,221.9z M1093.9,253.6h7.3V233
	L1093.9,253.6z"/>
<path class="st4" d="M1237.3,247.1c0-0.8-0.2-1.3-0.5-1.5c-0.3-0.1-0.6-0.1-0.9-0.1h-0.3c-0.7,0-1.1,0.3-1.2,0.9v1h-3.4l0.5-12.7
	h9.3v3.4h-6l-0.2,5.1c0.6-0.7,1.5-1,2.4-1h0.4c1.1,0,2.1,0.6,2.7,1.4c0.6,1,0.9,2.2,0.8,3.4v6.7c0,3.3-1.6,5-4.9,5s-4.9-1.7-4.9-5
	V251h3.4v2.8c0,1.1,0.5,1.6,1.5,1.6l0,0c1,0,1.5-0.5,1.5-1.6L1237.3,247.1z"/>
<g>
	<path class="st4" d="M581.3,540.1c2.4,0,3.8,0.4,5.1,1.4c1.2,1,2,2.8,2,4.7c0,2-0.8,3.8-2,4.8c-1.3,1.1-2.8,1.4-5.1,1.4h-1.8v8.3
		h-2.1v-20.6H581.3z M579.5,550.5h1.8c1.9,0,2.8-0.2,3.8-1c0.8-0.6,1.3-1.9,1.3-3.3c0-1.4-0.5-2.7-1.3-3.3c-0.9-0.8-1.9-0.9-3.8-0.9
		h-1.8V550.5z"/>
	<path class="st4" d="M601.1,560.7h-1.7c0-1.3,0-2.2,0-2.9c-0.7,2.1-2.1,3.3-4,3.3c-3,0-5.1-3.2-5.1-7.9c0-4.7,1.9-8,5.1-8
		c1.7,0,3.2,0.9,4,3.3c0-0.9,0-1.8,0-2.9h1.7V560.7z M592.2,553.2c0,3.4,1.2,6.1,3.5,6.1c1.2,0,2-0.6,2.6-1.7
		c0.6-1.1,0.9-2.4,0.9-4.4c0-2-0.2-3.4-0.9-4.4c-0.6-1-1.4-1.7-2.6-1.7C593.4,547.1,592.2,549.7,592.2,553.2L592.2,553.2z"/>
	<path class="st4" d="M605.9,545.6h1.7c0,1.4,0,2.3-0.1,3.2c0.8-3,2.7-3.5,4-3.5v2.2c-0.2-0.1-0.4-0.2-0.7-0.2
		c-1.3,0-3.1,1.6-3.1,5.4v8.1h-1.9V545.6z"/>
	<path class="st4" d="M614.9,540.1h1.9v20.6h-1.9V540.1z"/>
	<path class="st4" d="M623,553.7c0,3.1,1.3,5.6,3.8,5.6c1.8,0,3-1.3,3.4-3h1.8c-0.3,1.6-1,2.8-1.9,3.6c-0.9,0.8-2.1,1.2-3.3,1.2
		c-4.2,0-5.8-4-5.8-7.9c0-4.7,2.2-8,5.7-8c1.8,0,3.2,0.8,4.1,2.1c1.2,1.8,1.4,4.1,1.4,6.3H623z M630.3,552.1
		c-0.1-3.1-1.4-5.3-3.6-5.3c-2.2,0-3.6,2.3-3.7,5.3H630.3z"/>
	<path class="st4" d="M636.2,545.6h1.7c0,1.4,0,2.3-0.1,3.2c0.8-3,2.7-3.5,4-3.5v2.2c-0.2-0.1-0.4-0.2-0.7-0.2
		c-1.3,0-3.1,1.6-3.1,5.4v8.1h-1.9V545.6z"/>
	<path class="st4" d="M662.8,560.7h-1.7c0-1.4,0-2.2,0-3c-0.5,2.1-2.1,3.4-4,3.4c-3,0-5.1-3.2-5.1-7.9c0-4.7,1.9-8,5.1-8
		c1.7,0,3.1,0.9,3.9,3.2c-0.1-0.9-0.1-1.7-0.1-2.8v-5.5h1.9V560.7z M653.9,553.2c0,3.4,1.2,6.1,3.5,6.1c1.2,0,2-0.6,2.6-1.7
		c0.6-1.1,0.9-2.4,0.9-4.4s-0.2-3.4-0.9-4.4c-0.6-1-1.4-1.6-2.6-1.6C655.1,547.1,653.9,549.7,653.9,553.2L653.9,553.2z"/>
	<path class="st4" d="M677.7,560.7H676c0-0.9,0-1.7,0.1-2.6c-0.8,2.2-2.5,3-4.2,3c-2.6,0-4.3-1.5-4.3-5.2v-10.3h1.9v9.7
		c0,1.5,0.2,3.9,2.9,3.9c2.2,0,3.6-1.5,3.6-4.7v-9h1.9V560.7z"/>
	<path class="st4" d="M690.1,544.9h3.4v1.5c0.5-1,1.4-1.8,3.1-1.8c2.8,0,5,2.6,5,8.2c0,5.3-1.8,8.2-5,8.2c-1.3,0-2.2-0.6-2.7-1.5
		v1.2v5h-3.7V544.9z M697.8,552.8c0-3.5-0.7-4.5-2-4.5c-0.6,0-1,0.2-1.4,0.7c-0.5,0.6-0.6,1.3-0.6,3.8c0,2.5,0.1,3.2,0.6,3.8
		c0.4,0.5,0.7,0.7,1.4,0.7C697.1,557.3,697.8,556.3,697.8,552.8L697.8,552.8z"/>
	<path class="st4" d="M715.8,560.7h-3.4v-1.5c-0.7,1.3-1.6,1.8-3.1,1.8c-2.8,0-5-2.6-5-8.2c0-5.3,1.8-8.2,5-8.2
		c1.3,0,2.5,0.5,3.1,1.9v-1.6h3.4V560.7z M708.1,552.9c0,3.5,0.8,4.5,2,4.5c0.8,0,1.1-0.2,1.5-0.7c0.5-0.6,0.5-1.3,0.5-3.8
		c0-2.5,0-3.2-0.5-3.8c-0.4-0.5-0.7-0.7-1.5-0.7C708.9,548.3,708.1,549.3,708.1,552.9L708.1,552.9z"/>
	<path class="st4" d="M720.2,544.9h3.4v2.1c0.6-2,1.9-2.4,4-2.4v4.6c-0.5-0.4-1.1-0.5-1.6-0.5c-1.4,0-2,1.2-2,2.8v9.2h-3.7V544.9z"
		/>
	<path class="st4" d="M740.4,554.7c0,3.2-1.6,6.3-5.1,6.3c-3.8,0-6.1-3-6.1-8.2s2.4-8.2,6.1-8.2c3.5,0,5.1,3.1,5.1,6.3h-3.9
		c0-1.9-0.5-2.8-1.5-2.8c-0.6,0-1.1,0.3-1.4,1c-0.3,0.7-0.5,1.9-0.5,3.7c0,3.6,0.7,4.7,1.9,4.7c1.1,0,1.5-1.3,1.5-2.8H740.4z"/>
	<path class="st4" d="M742.8,552.8c0-4.5,1.9-8.2,6.1-8.2c4.1,0,6.1,3.7,6.1,8.2s-1.9,8.2-6.1,8.2
		C744.8,561.1,742.8,557.4,742.8,552.8L742.8,552.8z M746.8,552.9c0,3.7,0.8,4.7,2.2,4.7c1.3,0,2.1-1,2.1-4.7s-0.8-4.7-2.2-4.7
		C747.6,548.1,746.8,549.1,746.8,552.9L746.8,552.9z"/>
	<path class="st4" d="M769.3,560.7h-3.4v-1.7c-0.5,1.3-1.3,2-3.2,2c-2.5,0-4.1-1.4-4.1-4.6v-11.6h3.7v10.3c0,1.1,0.3,2.1,1.6,2.1
		c1,0,1.7-0.5,1.7-1.8v-10.6h3.7V560.7z"/>
	<path class="st4" d="M773.6,544.9h3.4v2.1c0.6-2,1.9-2.4,4-2.4v4.6c-0.5-0.4-1.1-0.5-1.6-0.5c-1.4,0-2,1.2-2,2.8v9.2h-3.7V544.9z"
		/>
	<path class="st4" d="M789.8,549.6c-0.1-1.2-0.5-1.8-1.7-1.8c-0.9,0-1.3,0.5-1.3,1.2c0,1.3,1.8,1.4,3.6,2c1.8,0.6,3.6,1.6,3.6,4.8
		c0,3-2.3,5.2-5.6,5.2c-3,0-5.4-1.7-5.8-5.4h3.7c0.1,1.2,0.9,2,2.1,2c1.2,0,1.5-0.8,1.5-1.6c0-1.4-1.8-1.5-3.6-2.1
		c-1.8-0.6-3.6-1.7-3.6-4.8c0-2.6,1.8-4.6,5.4-4.6c3.5,0,5.1,1.9,5.3,5H789.8z"/>
	<path class="st4" d="M812.7,551v3.6h-6.9V551H812.7z"/>
	<path class="st4" d="M836.1,560.7h-3.4V559c-0.3,1.3-1.6,2.1-3.1,2.1c-2.8,0-5-2.6-5-8.2c0-5.3,1.8-8.2,5-8.2
		c1.3,0,2.2,0.5,2.8,1.7c0-0.4,0-0.9,0-1.3v-4.8h3.7V560.7z M828.4,552.9c0,3.5,0.8,4.5,2,4.5c0.8,0,1.1-0.2,1.5-0.7
		c0.5-0.6,0.5-1.3,0.5-3.8c0-2.5,0-3.2-0.5-3.8c-0.4-0.5-0.7-0.7-1.5-0.7C829.2,548.3,828.4,549.3,828.4,552.9L828.4,552.9z"/>
	<path class="st4" d="M851.1,560.7h-3.4v-1.7c-0.5,1.3-1.3,2-3.2,2c-2.5,0-4.1-1.4-4.1-4.6v-11.6h3.7v10.3c0,1.1,0.2,2.1,1.6,2.1
		c1,0,1.7-0.5,1.7-1.8v-10.6h3.7V560.7z"/>
	<path class="st4" d="M870.3,549.6c-0.1-1.2-0.5-1.8-1.7-1.8c-0.9,0-1.3,0.5-1.3,1.2c0,1.3,1.8,1.4,3.6,2c1.8,0.6,3.6,1.6,3.6,4.8
		c0,3-2.3,5.2-5.6,5.2c-3,0-5.4-1.7-5.8-5.4h3.7c0.1,1.2,0.9,2,2.1,2c1.2,0,1.5-0.8,1.5-1.6c0-1.4-1.8-1.5-3.6-2.1
		c-1.8-0.6-3.6-1.7-3.6-4.8c0-2.6,1.8-4.6,5.4-4.6c3.5,0,5.1,1.9,5.3,5H870.3z"/>
	<path class="st4" d="M888.5,560.7h-3.4v-1.5c-0.7,1.3-1.6,1.8-3.1,1.8c-2.8,0-5-2.6-5-8.2c0-5.3,1.8-8.2,5-8.2
		c1.3,0,2.5,0.5,3.1,1.9v-1.6h3.4V560.7z M880.8,552.9c0,3.5,0.8,4.5,2,4.5c0.8,0,1.1-0.2,1.5-0.7c0.5-0.6,0.5-1.3,0.5-3.8
		c0-2.5,0-3.2-0.5-3.8c-0.4-0.5-0.7-0.7-1.5-0.7C881.6,548.3,880.8,549.3,880.8,552.9L880.8,552.9z"/>
	<path class="st4" d="M893.2,540.1h3.7v20.6h-3.7V540.1z"/>
	<path class="st4" d="M912.4,560.7H909v-1.5c-0.7,1.3-1.6,1.8-3.1,1.8c-2.8,0-5-2.6-5-8.2c0-5.3,1.8-8.2,5-8.2
		c1.3,0,2.5,0.5,3.1,1.9v-1.6h3.4V560.7z M904.6,552.9c0,3.5,0.8,4.5,2,4.5c0.8,0,1.1-0.2,1.5-0.7c0.5-0.6,0.5-1.3,0.5-3.8
		c0-2.5,0-3.2-0.5-3.8c-0.4-0.5-0.7-0.7-1.5-0.7C905.4,548.3,904.6,549.3,904.6,552.9L904.6,552.9z"/>
	<path class="st4" d="M917.1,540.1h3.7v3.1h-3.7V540.1z M917.1,544.9h3.7v15.8h-3.7V544.9z"/>
	<path class="st4" d="M925.5,544.9h3.4v2.1c0.6-2,1.9-2.4,4-2.4v4.6c-0.5-0.4-1.1-0.5-1.6-0.5c-1.4,0-2,1.2-2,2.8v9.2h-3.7V544.9z"
		/>
	<path class="st4" d="M938.9,554.2c0,1.6,0.4,3.4,2.1,3.4c1,0,1.7-0.6,1.9-1.9h3.7c-0.3,2.2-1.2,3.6-2.3,4.4c-1.1,0.8-2.3,1-3.4,1
		c-4.1,0-6.1-3.7-6.1-8.2s1.9-8.2,6.1-8.2c2.1,0,3.6,0.9,4.6,2.5c1.2,2,1.3,4.6,1.2,7H938.9z M943,551c0-0.9-0.1-3.3-2-3.3
		c-1.3,0-2.1,1.1-2.1,3.3H943z"/>
	<path class="st4" d="M965.9,551v3.6h-6.9V551H965.9z"/>
	<path class="st4" d="M989.3,560.7h-3.4V559c-0.3,1.3-1.6,2.1-3.1,2.1c-2.8,0-5-2.6-5-8.2c0-5.3,1.8-8.2,5-8.2
		c1.3,0,2.2,0.5,2.8,1.7c0-0.4,0-0.9,0-1.3v-4.8h3.7V560.7z M981.6,552.9c0,3.5,0.8,4.5,2,4.5c0.8,0,1.1-0.2,1.5-0.7
		c0.5-0.6,0.5-1.3,0.5-3.8c0-2.5,0-3.2-0.5-3.8c-0.4-0.5-0.7-0.7-1.5-0.7C982.4,548.3,981.6,549.3,981.6,552.9L981.6,552.9z"/>
	<path class="st4" d="M997,554.2c0,1.6,0.4,3.4,2.1,3.4c1,0,1.7-0.6,1.9-1.9h3.7c-0.3,2.2-1.2,3.6-2.3,4.4c-1.1,0.8-2.3,1-3.4,1
		c-4.1,0-6.1-3.7-6.1-8.2s1.9-8.2,6.1-8.2c2.1,0,3.6,0.9,4.6,2.5c1.2,2,1.3,4.6,1.2,7H997z M1001.1,551c0-0.9-0.1-3.3-2-3.3
		c-1.3,0-2.1,1.1-2.1,3.3H1001.1z"/>
	<path class="st4" d="M1014.6,549.6c-0.1-1.2-0.5-1.8-1.7-1.8c-0.9,0-1.3,0.5-1.3,1.2c0,1.3,1.8,1.4,3.6,2c1.8,0.6,3.6,1.6,3.6,4.8
		c0,3-2.3,5.2-5.6,5.2c-3,0-5.4-1.7-5.8-5.4h3.7c0.1,1.2,0.9,2,2.1,2c1.2,0,1.5-0.8,1.5-1.6c0-1.4-1.8-1.5-3.6-2.1
		c-1.8-0.6-3.6-1.7-3.6-4.8c0-2.6,1.8-4.6,5.4-4.6c3.5,0,5.1,1.9,5.3,5H1014.6z"/>
	<path class="st4" d="M1041.7,560.7h-3.4v-1.5c-0.7,1.3-1.6,1.8-3.1,1.8c-2.8,0-5-2.6-5-8.2c0-5.3,1.8-8.2,5-8.2
		c1.3,0,2.5,0.5,3.1,1.9v-1.6h3.4V560.7z M1034,552.9c0,3.5,0.8,4.5,2,4.5c0.8,0,1.1-0.2,1.5-0.7c0.5-0.6,0.5-1.3,0.5-3.8
		c0-2.5,0-3.2-0.5-3.8c-0.4-0.5-0.7-0.7-1.5-0.7C1034.7,548.3,1034,549.3,1034,552.9L1034,552.9z"/>
	<path class="st4" d="M1046.4,548.4h-1.7v-3.5h1.7v-3h3.7v3h1.7v3.5h-1.7v12.3h-3.7V548.4z"/>
	<path class="st4" d="M1055.2,548.4h-1.7v-3.5h1.7v-3h3.7v3h1.7v3.5h-1.7v12.3h-3.7V548.4z"/>
	<path class="st4" d="M1066.8,554.2c0,1.6,0.4,3.4,2.1,3.4c1,0,1.7-0.6,1.9-1.9h3.7c-0.3,2.2-1.2,3.6-2.3,4.4c-1.1,0.8-2.3,1-3.4,1
		c-4.1,0-6.1-3.7-6.1-8.2s1.9-8.2,6.1-8.2c2.1,0,3.6,0.9,4.6,2.5c1.2,2,1.3,4.6,1.2,7H1066.8z M1070.9,551c0-0.9-0.1-3.3-2-3.3
		c-1.3,0-2.1,1.1-2.1,3.3H1070.9z"/>
	<path class="st4" d="M1078.4,544.9h3.2v1.5c0.6-1.1,1.4-1.8,3.4-1.8c2.5,0,4.1,1.4,4.1,4.6v11.5h-3.7v-10.3c0-1.1-0.3-2.1-1.6-2.1
		c-1,0-1.7,0.5-1.7,1.8v10.6h-3.7V544.9z"/>
	<path class="st4" d="M1093.9,548.4h-1.7v-3.5h1.7v-3h3.7v3h1.7v3.5h-1.7v12.3h-3.7V548.4z"/>
	<path class="st4" d="M1105.4,554.2c0,1.6,0.4,3.4,2.1,3.4c1,0,1.7-0.6,1.9-1.9h3.7c-0.3,2.2-1.2,3.6-2.3,4.4c-1.1,0.8-2.3,1-3.4,1
		c-4.1,0-6.1-3.7-6.1-8.2s1.9-8.2,6.1-8.2c2.1,0,3.6,0.9,4.6,2.5c1.2,2,1.3,4.6,1.2,7H1105.4z M1109.6,551c0-0.9-0.1-3.3-2-3.3
		c-1.3,0-2.1,1.1-2.1,3.3H1109.6z"/>
	<path class="st4" d="M1123,549.6c-0.1-1.2-0.5-1.8-1.7-1.8c-0.9,0-1.3,0.5-1.3,1.2c0,1.3,1.8,1.4,3.6,2c1.8,0.6,3.6,1.6,3.6,4.8
		c0,3-2.3,5.2-5.6,5.2c-3,0-5.4-1.7-5.8-5.4h3.7c0.1,1.2,0.9,2,2.1,2c1.2,0,1.5-0.8,1.5-1.6c0-1.4-1.8-1.5-3.6-2.1
		c-1.8-0.6-3.6-1.7-3.6-4.8c0-2.6,1.8-4.6,5.4-4.6c3.5,0,5.1,1.9,5.3,5H1123z"/>
	<path class="st4" d="M1150.1,560.7h-3.4V559c-0.3,1.3-1.6,2.1-3.1,2.1c-2.8,0-5-2.6-5-8.2c0-5.3,1.8-8.2,5-8.2
		c1.3,0,2.2,0.5,2.8,1.7c0-0.4,0-0.9,0-1.3v-4.8h3.7V560.7z M1142.4,552.9c0,3.5,0.8,4.5,2,4.5c0.8,0,1.1-0.2,1.5-0.7
		c0.5-0.6,0.5-1.3,0.5-3.8c0-2.5,0-3.2-0.5-3.8c-0.4-0.5-0.7-0.7-1.5-0.7C1143.1,548.3,1142.4,549.3,1142.4,552.9L1142.4,552.9z"/>
	<path class="st4" d="M1165.1,560.7h-3.4v-1.7c-0.5,1.3-1.3,2-3.2,2c-2.5,0-4.1-1.4-4.1-4.6v-11.6h3.7v10.3c0,1.1,0.3,2.1,1.6,2.1
		c1,0,1.7-0.5,1.7-1.8v-10.6h3.7V560.7z"/>
	<path class="st4" d="M1178.3,544.9h3.4v1.5c0.5-1,1.4-1.8,3.1-1.8c2.8,0,5,2.6,5,8.2c0,5.3-1.8,8.2-5,8.2c-1.3,0-2.2-0.6-2.7-1.5
		v1.2v5h-3.7V544.9z M1186,552.8c0-3.5-0.7-4.5-2-4.5c-0.6,0-1,0.2-1.4,0.7c-0.5,0.6-0.6,1.3-0.6,3.8c0,2.5,0.1,3.2,0.6,3.8
		c0.4,0.5,0.7,0.7,1.4,0.7C1185.3,557.3,1186,556.3,1186,552.8L1186,552.8z"/>
	<path class="st4" d="M1192.6,552.8c0-4.5,1.9-8.2,6.1-8.2c4.1,0,6.1,3.7,6.1,8.2s-1.9,8.2-6.1,8.2
		C1194.5,561.1,1192.6,557.4,1192.6,552.8L1192.6,552.8z M1196.5,552.9c0,3.7,0.8,4.7,2.2,4.7c1.3,0,2.1-1,2.1-4.7s-0.8-4.7-2.2-4.7
		C1197.3,548.1,1196.5,549.1,1196.5,552.9L1196.5,552.9z"/>
	<path class="st4" d="M1214.3,549.6c-0.1-1.2-0.5-1.8-1.7-1.8c-0.9,0-1.3,0.5-1.3,1.2c0,1.3,1.8,1.4,3.6,2c1.8,0.6,3.6,1.6,3.6,4.8
		c0,3-2.3,5.2-5.6,5.2c-3,0-5.4-1.7-5.8-5.4h3.7c0.1,1.2,0.9,2,2.1,2c1.2,0,1.5-0.8,1.5-1.6c0-1.4-1.8-1.5-3.6-2.1
		c-1.8-0.6-3.6-1.7-3.6-4.8c0-2.6,1.8-4.6,5.4-4.6c3.5,0,5.1,1.9,5.3,5H1214.3z"/>
	<path class="st4" d="M1222.2,548.4h-1.7v-3.5h1.7v-3h3.7v3h1.7v3.5h-1.7v12.3h-3.7V548.4z"/>
	<path class="st4" d="M1233.8,554.2c0,1.6,0.4,3.4,2.1,3.4c1,0,1.7-0.6,1.9-1.9h3.7c-0.3,2.2-1.2,3.6-2.3,4.4c-1.1,0.8-2.3,1-3.4,1
		c-4.1,0-6.1-3.7-6.1-8.2s1.9-8.2,6.1-8.2c2.1,0,3.6,0.9,4.6,2.5c1.2,2,1.3,4.6,1.2,7H1233.8z M1237.9,551c0-0.9-0.1-3.3-2-3.3
		c-1.3,0-2.1,1.1-2.1,3.3H1237.9z"/>
	<path class="st4" d="M1260.1,541.9c-2.7,2.3-4.8,6.5-4.8,11.9s2,9.4,4.8,11.9v2c-3.7-2.6-6.6-7.7-6.6-13.9c0-6.2,2.9-11.5,6.6-13.9
		V541.9z"/>
	<path class="st4" d="M1273.7,560.7h-1.7c0-1.4,0-2.2,0-3c-0.5,2.1-2.1,3.4-4,3.4c-3,0-5.1-3.2-5.1-7.9c0-4.7,1.9-8,5.1-8
		c1.7,0,3.1,0.9,3.9,3.2c-0.1-0.9-0.1-1.7-0.1-2.8v-5.5h1.9V560.7z M1264.8,553.2c0,3.4,1.2,6.1,3.5,6.1c1.2,0,2-0.6,2.6-1.7
		c0.6-1.1,0.9-2.4,0.9-4.4s-0.2-3.4-0.9-4.4c-0.6-1-1.4-1.6-2.6-1.6C1266.1,547.1,1264.8,549.7,1264.8,553.2L1264.8,553.2z"/>
	<path class="st4" d="M1288.5,560.7h-1.7c0-1.3,0-2.2,0-2.9c-0.7,2.1-2.1,3.3-4,3.3c-3,0-5.1-3.2-5.1-7.9c0-4.7,1.9-8,5.1-8
		c1.7,0,3.2,0.9,4,3.3c0-0.9,0-1.8,0-2.9h1.7V560.7z M1279.6,553.2c0,3.4,1.2,6.1,3.5,6.1c1.2,0,2-0.6,2.6-1.7
		c0.6-1.1,0.9-2.4,0.9-4.4c0-2-0.2-3.4-0.9-4.4c-0.6-1-1.4-1.7-2.6-1.7C1280.8,547.1,1279.6,549.7,1279.6,553.2L1279.6,553.2z"/>
	<path class="st4" d="M1293.3,545.6h1.7c0,0.9,0,1.6-0.1,2.6c0.8-2.1,2.5-3,4.3-3c2.6,0,4.3,1.5,4.3,5.2v10.3h-1.9V551
		c0-1.5-0.2-3.9-2.9-3.9c-2.2,0-3.6,1.5-3.6,4.7v9h-1.9V545.6z"/>
	<path class="st4" d="M1314.3,549.5c0-1.9-1-2.6-2.4-2.6c-1.3,0-2.2,0.9-2.2,2.3c0,1.7,1.4,2.3,3.3,2.9c1.7,0.5,3.6,1.5,3.6,4.6
		c0,2.7-1.9,4.5-4.5,4.5c-2.8,0-4.6-1.6-4.7-4.8h1.8c0,2.1,1.2,3.1,2.9,3.1c1.6,0,2.6-1.1,2.6-2.6c0-1.8-1.3-2.6-3.3-3.2
		c-1.9-0.6-3.6-1.6-3.6-4.3c0-2.4,1.8-4,4.2-4c2.6,0,4.1,1.5,4.2,4.3H1314.3z"/>
	<path class="st4" d="M1338.3,555.6c-0.3,3.1-2,5.5-5,5.5c-4,0-5.8-3.8-5.8-7.9c0-5,2.3-8,5.8-8c3.1,0,4.9,2.4,5,5.6h-1.9
		c-0.3-3-1.8-3.8-3.2-3.8c-1.1,0-2.1,0.4-2.8,1.6c-0.7,1.2-1,2.6-1,4.6c0,4,1.4,6.2,3.8,6.2c1.9,0,2.9-1.5,3.2-3.8H1338.3z"/>
	<path class="st4" d="M1343.1,553.7c0,3.1,1.3,5.6,3.8,5.6c1.8,0,3-1.3,3.4-3h1.8c-0.3,1.6-1,2.8-1.9,3.6c-0.9,0.8-2.1,1.2-3.3,1.2
		c-4.2,0-5.8-4-5.8-7.9c0-4.7,2.2-8,5.7-8c1.8,0,3.2,0.8,4.1,2.1c1.2,1.8,1.4,4.1,1.4,6.3H1343.1z M1350.4,552.1
		c-0.1-3.1-1.4-5.3-3.6-5.3c-2.2,0-3.6,2.3-3.7,5.3H1350.4z"/>
	<path class="st4" d="M1357,547.3h-2.1v-1.8h2.1v-4.8h1.9v4.8h2.1v1.8h-2.1v13.4h-1.9V547.3z"/>
	<path class="st4" d="M1371.4,553.1c0-4.3,1.8-7.9,5.8-7.9c4,0,5.8,3.6,5.8,7.9s-1.8,7.9-5.8,7.9
		C1373.1,561.1,1371.4,557.5,1371.4,553.1L1371.4,553.1z M1373.3,553.2c0,4,1.3,6.2,3.9,6.2c2.5,0,3.8-2.1,3.8-6.2
		c0-4-1.3-6.2-3.9-6.2C1374.6,547,1373.3,549.1,1373.3,553.2L1373.3,553.2z"/>
	<path class="st4" d="M1387,545.6h1.7c0,1.4,0,2.3-0.1,3.2c0.8-3,2.7-3.5,4-3.5v2.2c-0.2-0.1-0.4-0.2-0.7-0.2
		c-1.3,0-3.1,1.6-3.1,5.4v8.1h-1.9V545.6z"/>
	<path class="st4" d="M1405.4,560.7h-1.7c0-1.4,0-2.2,0-3c-0.5,2.1-2.1,3.4-4,3.4c-3,0-5.1-3.2-5.1-7.9c0-4.7,1.9-8,5.1-8
		c1.7,0,3.1,0.9,3.9,3.2c-0.1-0.9-0.1-1.7-0.1-2.8v-5.5h1.9V560.7z M1396.5,553.2c0,3.4,1.2,6.1,3.5,6.1c1.2,0,2-0.6,2.6-1.7
		c0.6-1.1,0.9-2.4,0.9-4.4s-0.2-3.4-0.9-4.4c-0.6-1-1.4-1.6-2.6-1.6C1397.8,547.1,1396.5,549.7,1396.5,553.2L1396.5,553.2z"/>
	<path class="st4" d="M1410.2,545.6h1.7c0,1.4,0,2.3-0.1,3.2c0.8-3,2.7-3.5,4-3.5v2.2c-0.2-0.1-0.4-0.2-0.7-0.2
		c-1.3,0-3.1,1.6-3.1,5.4v8.1h-1.9V545.6z"/>
	<path class="st4" d="M1419.9,553.7c0,3.1,1.3,5.6,3.8,5.6c1.8,0,3-1.3,3.4-3h1.8c-0.3,1.6-1,2.8-1.9,3.6c-0.9,0.8-2.1,1.2-3.3,1.2
		c-4.2,0-5.8-4-5.8-7.9c0-4.7,2.2-8,5.7-8c1.8,0,3.2,0.8,4.1,2.1c1.2,1.8,1.4,4.1,1.4,6.3H1419.9z M1427.3,552.1
		c-0.1-3.1-1.4-5.3-3.6-5.3c-2.2,0-3.6,2.3-3.7,5.3H1427.3z"/>
	<path class="st4" d="M1432.1,565.7c2.7-2.2,4.8-6.5,4.8-11.8c0-5.4-2-9.4-4.8-11.9v-2c3.7,2.6,6.6,7.7,6.6,13.9
		c0,6.2-3,11.5-6.6,13.9V565.7z"/>
	<path class="st4" d="M1446.2,560.7h-1.9v-3h1.9V560.7z"/>
	<path class="st4" d="M591.8,630.1c-0.2,0-0.4,0-0.6,0c-1.2,0-2.2-0.3-3.1-1.4c-0.9,0.8-2.4,1.4-4.1,1.4c-4.9,0-7.5-4.6-7.5-10.7
		s2.6-10.7,7.5-10.7c5,0,7.5,4.6,7.5,10.7c0,3.4-0.9,6.2-2.1,7.8c0.7,0.8,1.5,1.1,2.4,0.9V630.1z M584,610.7c-3.3,0-5.3,3.1-5.3,8.8
		c0,1.9,0.3,3.3,0.5,3.8c0.9-0.6,2.1-1.1,3.4-1.1c1.1,0,2,0.4,2.9,1c0.8,0.6,1.7,1.5,2.4,2.5c0.6-0.8,1.5-3.1,1.5-6.2
		C589.4,613.8,587.3,610.7,584,610.7L584,610.7z M584,628.2c0.9,0,1.9-0.2,2.9-1.1c-0.6-0.8-1.2-1.5-1.9-2.1c-0.8-0.6-1.7-1-2.8-1
		c-1,0-1.9,0.3-2.7,1C580.4,626.8,581.8,628.2,584,628.2L584,628.2z"/>
	<path class="st4" d="M605.8,629.7H604c0-0.9,0-1.7,0.1-2.6c-0.8,2.2-2.5,3-4.2,3c-2.6,0-4.3-1.5-4.3-5.2v-10.3h1.9v9.7
		c0,1.5,0.2,3.9,2.9,3.9c2.2,0,3.6-1.5,3.6-4.7v-9h1.9V629.7z"/>
	<path class="st4" d="M611.7,622.7c0,3.1,1.3,5.6,3.8,5.6c1.8,0,3-1.3,3.4-3h1.8c-0.3,1.6-1,2.8-1.9,3.6c-0.9,0.8-2.1,1.2-3.3,1.2
		c-4.2,0-5.8-4-5.8-7.9c0-4.7,2.2-8,5.7-8c1.8,0,3.2,0.8,4.1,2.1c1.2,1.8,1.4,4.1,1.4,6.3H611.7z M619.1,621.1
		c-0.1-3.1-1.4-5.3-3.6-5.3c-2.2,0-3.6,2.3-3.7,5.3H619.1z"/>
	<path class="st4" d="M625.2,609.1h1.9v20.6h-1.9V609.1z"/>
	<path class="st4" d="M632.3,609.1h1.9v20.6h-1.9V609.1z"/>
	<path class="st4" d="M640.3,622.7c0,3.1,1.3,5.6,3.8,5.6c1.8,0,3-1.3,3.4-3h1.8c-0.3,1.6-1,2.8-1.9,3.6c-0.9,0.8-2.1,1.2-3.3,1.2
		c-4.2,0-5.8-4-5.8-7.9c0-4.7,2.2-8,5.7-8c1.8,0,3.2,0.8,4.1,2.1c1.2,1.8,1.4,4.1,1.4,6.3H640.3z M647.7,621.1
		c-0.1-3.1-1.4-5.3-3.6-5.3c-2.2,0-3.6,2.3-3.7,5.3H647.7z"/>
	<path class="st4" d="M671.5,623.7c0,3.2-1.6,6.3-5.1,6.3c-3.8,0-6.1-3-6.1-8.2s2.4-8.2,6.1-8.2c3.5,0,5.1,3.1,5.1,6.3h-3.9
		c0-1.9-0.5-2.8-1.5-2.8c-0.6,0-1.1,0.3-1.4,1c-0.3,0.7-0.5,1.9-0.5,3.7c0,3.6,0.7,4.7,1.9,4.7c1.1,0,1.5-1.3,1.5-2.8H671.5z"/>
	<path class="st4" d="M674.6,609.1h3.7v4.5v1.3c0.3-0.6,0.9-1.3,2.8-1.3c1.4,0,2.5,0.5,3.1,1.3c0.7,0.8,1,1.9,1,3.3v11.5h-3.7v-10.4
		c0-0.5-0.1-1-0.3-1.4c-0.2-0.4-0.6-0.6-1.2-0.6c-0.5,0-0.9,0.1-1.2,0.4c-0.3,0.3-0.5,0.7-0.5,1.3v10.7h-3.7V609.1z"/>
	<path class="st4" d="M693,623.2c0,1.6,0.4,3.4,2.1,3.4c1,0,1.7-0.6,1.9-1.9h3.7c-0.3,2.2-1.2,3.6-2.3,4.4c-1.1,0.8-2.3,1-3.4,1
		c-4.1,0-6.1-3.7-6.1-8.2s1.9-8.2,6.1-8.2c2.1,0,3.6,0.9,4.6,2.5c1.2,2,1.3,4.6,1.2,7H693z M697.2,620c0-0.9-0.1-3.3-2-3.3
		c-1.3,0-2.1,1.1-2.1,3.3H697.2z"/>
	<path class="st4" d="M715,623.7c0,3.2-1.6,6.3-5.1,6.3c-3.8,0-6.1-3-6.1-8.2s2.4-8.2,6.1-8.2c3.5,0,5.1,3.1,5.1,6.3h-3.9
		c0-1.9-0.5-2.8-1.5-2.8c-0.6,0-1.1,0.3-1.4,1c-0.3,0.7-0.5,1.9-0.5,3.7c0,3.6,0.7,4.7,1.9,4.7c1.1,0,1.5-1.3,1.5-2.8H715z"/>
	<path class="st4" d="M717.9,609.1h3.7v11.3l3.1-6.5h4.2l-4.1,7.2l4.2,8.7h-4l-3.4-7.1v7.1h-3.7V609.1z"/>
	<path class="st4" d="M738.1,620v3.6h-6.9V620H738.1z"/>
	<path class="st4" d="M742.4,609.1h3.7v20.6h-3.7V609.1z"/>
	<path class="st4" d="M751.2,609.1h3.7v3.1h-3.7V609.1z M751.2,613.9h3.7v15.8h-3.7V613.9z"/>
	<path class="st4" d="M765.6,618.6c-0.1-1.2-0.5-1.8-1.7-1.8c-0.9,0-1.3,0.5-1.3,1.2c0,1.3,1.8,1.4,3.6,2c1.8,0.6,3.6,1.6,3.6,4.8
		c0,3-2.3,5.2-5.6,5.2c-3,0-5.4-1.7-5.8-5.4h3.7c0.1,1.2,0.9,2,2.1,2c1.2,0,1.5-0.8,1.5-1.6c0-1.4-1.8-1.5-3.6-2.1
		c-1.8-0.6-3.6-1.7-3.6-4.8c0-2.6,1.8-4.6,5.4-4.6c3.5,0,5.1,1.9,5.3,5H765.6z"/>
	<path class="st4" d="M773.5,617.4h-1.7v-3.5h1.7v-3h3.7v3h1.7v3.5h-1.7v12.3h-3.7V617.4z"/>
	<path class="st4" d="M794.7,624.8c0-1.9-0.1-3.8,1.8-5.8c1.3-1.6,2.8-2.5,2.8-4.4c0-2.1-1.4-3.7-3.5-3.7c-1.6,0-3.3,0.8-3.5,3.3
		c0,0.2,0,0.5,0,0.8h-2.1c0-0.3,0-0.6,0-0.8c0.3-3.8,3.1-5.3,5.6-5.3c3,0,5.5,2.4,5.5,5.8c0,2.3-1.4,3.7-2.8,5.1
		c-2,2-1.9,3.1-1.9,5.1H794.7z M796.7,629.7h-2v-3h2V629.7z"/>
	<path class="st4" d="M579.8,698.7h-4.3l5.6-20.6h3.9l5.8,20.6h-4.3l-1.1-3.9h-4.7L579.8,698.7z M583.2,684.2l-1.3,6.7h2.6
		L583.2,684.2z"/>
	<path class="st4" d="M604,692.7c0,3.2-1.6,6.3-5.1,6.3c-3.8,0-6.1-3-6.1-8.2s2.4-8.2,6.1-8.2c3.5,0,5.1,3.1,5.1,6.3h-3.9
		c0-1.9-0.5-2.8-1.5-2.8c-0.6,0-1.1,0.3-1.4,1c-0.3,0.7-0.5,1.9-0.5,3.7c0,3.6,0.7,4.7,1.9,4.7c1.1,0,1.5-1.3,1.5-2.8H604z"/>
	<path class="st4" d="M617.4,692.7c0,3.2-1.6,6.3-5.1,6.3c-3.8,0-6.1-3-6.1-8.2s2.4-8.2,6.1-8.2c3.5,0,5.1,3.1,5.1,6.3h-3.9
		c0-1.9-0.5-2.8-1.5-2.8c-0.6,0-1.1,0.3-1.4,1c-0.3,0.7-0.5,1.9-0.5,3.7c0,3.6,0.7,4.7,1.9,4.7c1.1,0,1.5-1.3,1.5-2.8H617.4z"/>
	<path class="st4" d="M631.3,698.7h-3.4v-1.7c-0.5,1.3-1.3,2-3.2,2c-2.5,0-4.1-1.4-4.1-4.6v-11.6h3.7v10.3c0,1.1,0.3,2.1,1.6,2.1
		c1,0,1.7-0.5,1.7-1.8v-10.6h3.7V698.7z"/>
	<path class="st4" d="M639,692.2c0,1.6,0.4,3.4,2.1,3.4c1,0,1.7-0.6,1.9-1.9h3.7c-0.3,2.2-1.2,3.6-2.3,4.4c-1.1,0.8-2.3,1-3.4,1
		c-4.1,0-6.1-3.7-6.1-8.2s1.9-8.2,6.1-8.2c2.1,0,3.6,0.9,4.6,2.5c1.2,2,1.3,4.6,1.2,7H639z M643.2,689c0-0.9-0.1-3.3-2-3.3
		c-1.3,0-2.1,1.1-2.1,3.3H643.2z"/>
	<path class="st4" d="M651.1,678.1h3.7v3.1h-3.7V678.1z M651.1,682.9h3.7v15.8h-3.7V682.9z"/>
	<path class="st4" d="M659.9,678.1h3.7v20.6h-3.7V678.1z"/>
	<path class="st4" d="M683.7,689v3.6h-6.9V689H683.7z"/>
	<path class="st4" d="M696.8,678.1h10v3.9H701v4h5.8v3.9H701v5h5.8v3.9h-10V678.1z"/>
	<path class="st4" d="M714.5,690.5l-4.1-7.6h4.4l1.9,4.8l2.1-4.8h4.3l-4.1,7.6l4.6,8.2h-4.5l-2.4-5.5l-2.3,5.5H710L714.5,690.5z"/>
	<path class="st4" d="M726.5,682.9h3.4v1.5c0.5-1,1.4-1.8,3.1-1.8c2.8,0,5,2.6,5,8.2c0,5.3-1.8,8.2-5,8.2c-1.3,0-2.2-0.6-2.7-1.5
		v1.2v5h-3.7V682.9z M734.2,690.8c0-3.5-0.7-4.5-2-4.5c-0.6,0-1,0.2-1.4,0.7c-0.5,0.6-0.6,1.3-0.6,3.8c0,2.5,0.1,3.2,0.6,3.8
		c0.4,0.5,0.7,0.7,1.4,0.7C733.5,695.3,734.2,694.3,734.2,690.8L734.2,690.8z"/>
	<path class="st4" d="M744.9,692.2c0,1.6,0.4,3.4,2.1,3.4c1,0,1.7-0.6,1.9-1.9h3.7c-0.3,2.2-1.2,3.6-2.3,4.4c-1.1,0.8-2.3,1-3.4,1
		c-4.1,0-6.1-3.7-6.1-8.2s1.9-8.2,6.1-8.2c2.1,0,3.6,0.9,4.6,2.5c1.2,2,1.3,4.6,1.2,7H744.9z M750.5,676.2l1.4,3l-6.5,2.9l-1.3-2.4
		L750.5,676.2z M749,689c0-0.9-0.1-3.3-2-3.3c-1.3,0-2.1,1.1-2.1,3.3H749z"/>
	<path class="st4" d="M756.5,682.9h3.4v2.1c0.6-2,1.9-2.4,4-2.4v4.6c-0.5-0.4-1.1-0.5-1.6-0.5c-1.4,0-2,1.2-2,2.8v9.2h-3.7V682.9z"
		/>
	<path class="st4" d="M767.3,678.1h3.7v3.1h-3.7V678.1z M767.3,682.9h3.7v15.8h-3.7V682.9z"/>
	<path class="st4" d="M779.2,692.2c0,1.6,0.4,3.4,2.1,3.4c1,0,1.7-0.6,1.9-1.9h3.7c-0.3,2.2-1.2,3.6-2.3,4.4c-1.1,0.8-2.3,1-3.4,1
		c-4.1,0-6.1-3.7-6.1-8.2s1.9-8.2,6.1-8.2c2.1,0,3.6,0.9,4.6,2.5c1.2,2,1.3,4.6,1.2,7H779.2z M783.3,689c0-0.9-0.1-3.3-2-3.3
		c-1.3,0-2.1,1.1-2.1,3.3H783.3z"/>
	<path class="st4" d="M790.8,682.9h3.2v1.5c0.6-1.1,1.4-1.8,3.4-1.8c2.5,0,4.1,1.4,4.1,4.6v11.5h-3.7v-10.3c0-1.1-0.3-2.1-1.6-2.1
		c-1,0-1.7,0.5-1.7,1.8v10.6h-3.7V682.9z"/>
	<path class="st4" d="M816.1,692.7c0,3.2-1.6,6.3-5.1,6.3c-3.8,0-6.1-3-6.1-8.2s2.4-8.2,6.1-8.2c3.5,0,5.1,3.1,5.1,6.3h-3.9
		c0-1.9-0.5-2.8-1.5-2.8c-0.6,0-1.1,0.3-1.4,1c-0.3,0.7-0.5,1.9-0.5,3.7c0,3.6,0.7,4.7,1.9,4.7c1.1,0,1.5-1.3,1.5-2.8H816.1z"/>
	<path class="st4" d="M822.7,692.2c0,1.6,0.4,3.4,2.1,3.4c1,0,1.7-0.6,1.9-1.9h3.7c-0.3,2.2-1.2,3.6-2.3,4.4c-1.1,0.8-2.3,1-3.4,1
		c-4.1,0-6.1-3.7-6.1-8.2s1.9-8.2,6.1-8.2c2.1,0,3.6,0.9,4.6,2.5c1.2,2,1.3,4.6,1.2,7H822.7z M826.8,689c0-0.9-0.1-3.3-2-3.3
		c-1.3,0-2.1,1.1-2.1,3.3H826.8z"/>
	<path class="st4" d="M849.6,689v3.6h-6.9V689H849.6z"/>
	<path class="st4" d="M876.6,690.7c0,4.7-2.6,8.4-7.5,8.4c-4.5,0-7.5-3.5-7.5-10.7c0-7.2,3-10.7,7.5-10.7c5,0,7.5,3.8,7.5,8.5h-4.3
		c-0.1-3.7-1.2-4.5-2.8-4.5c-1.9,0-3.5,1.8-3.5,6.7c0,4.9,1.5,6.7,3.5,6.7c2.2,0,2.7-2.2,2.8-4.4H876.6z"/>
	<path class="st4" d="M879.7,690.8c0-4.5,1.9-8.2,6.1-8.2s6.1,3.7,6.1,8.2s-1.9,8.2-6.1,8.2S879.7,695.4,879.7,690.8L879.7,690.8z
		 M883.7,690.9c0,3.7,0.8,4.7,2.2,4.7c1.3,0,2.1-1,2.1-4.7s-0.8-4.7-2.2-4.7C884.5,686.1,883.7,687.1,883.7,690.9L883.7,690.9z"/>
	<path class="st4" d="M895.7,682.9h3.5v1.8c0.5-1.6,1.5-2.2,3.2-2.2c0.9,0,1.7,0.2,2.3,0.7c0.3,0.2,0.6,0.6,0.8,1
		c0.2-0.4,0.6-0.8,1-1.1c0.7-0.4,1.6-0.7,2.6-0.7c1.6,0,2.8,0.6,3.6,1.5c0.8,0.9,1.1,2.1,1.1,3.4v11.2h-3.7v-10.6
		c0-0.7-0.1-1.1-0.4-1.4c-0.3-0.3-0.7-0.4-1.3-0.4c-0.5,0-1,0.1-1.3,0.3c-0.3,0.3-0.5,0.7-0.5,1.3v10.8h-3.7v-10.6
		c0-0.7-0.1-1.1-0.4-1.4c-0.3-0.3-0.7-0.4-1.3-0.4c-0.5,0-1,0.1-1.3,0.3c-0.3,0.3-0.5,0.7-0.5,1.3v10.8h-3.7V682.9z"/>
	<path class="st4" d="M918.3,682.9h3.4v1.5c0.5-1,1.4-1.8,3.1-1.8c2.8,0,5,2.6,5,8.2c0,5.3-1.8,8.2-5,8.2c-1.3,0-2.2-0.6-2.7-1.5
		v1.2v5h-3.7V682.9z M926,690.8c0-3.5-0.7-4.5-2-4.5c-0.6,0-1,0.2-1.4,0.7c-0.5,0.6-0.6,1.3-0.6,3.8c0,2.5,0.1,3.2,0.6,3.8
		c0.4,0.5,0.7,0.7,1.4,0.7C925.3,695.3,926,694.3,926,690.8L926,690.8z"/>
	<path class="st4" d="M936.7,692.2c0,1.6,0.4,3.4,2.1,3.4c1,0,1.7-0.6,1.9-1.9h3.7c-0.3,2.2-1.2,3.6-2.3,4.4c-1.1,0.8-2.3,1-3.4,1
		c-4.1,0-6.1-3.7-6.1-8.2s1.9-8.2,6.1-8.2c2.1,0,3.6,0.9,4.6,2.5c1.2,2,1.3,4.6,1.2,7H936.7z M942.3,676.2l1.4,3l-6.5,2.9l-1.3-2.4
		L942.3,676.2z M940.8,689c0-0.9-0.1-3.3-2-3.3c-1.3,0-2.1,1.1-2.1,3.3H940.8z"/>
	<path class="st4" d="M948.7,686.4h-1.7v-3.5h1.7v-3h3.7v3h1.7v3.5h-1.7v12.3h-3.7V686.4z"/>
	<path class="st4" d="M960.3,692.2c0,1.6,0.4,3.4,2.1,3.4c1,0,1.7-0.6,1.9-1.9h3.7c-0.3,2.2-1.2,3.6-2.3,4.4c-1.1,0.8-2.3,1-3.4,1
		c-4.1,0-6.1-3.7-6.1-8.2s1.9-8.2,6.1-8.2c2.1,0,3.6,0.9,4.6,2.5c1.2,2,1.3,4.6,1.2,7H960.3z M964.4,689c0-0.9-0.1-3.3-2-3.3
		c-1.3,0-2.1,1.1-2.1,3.3H964.4z"/>
	<path class="st4" d="M971.9,682.9h3.2v1.5c0.6-1.1,1.4-1.8,3.4-1.8c2.5,0,4.1,1.4,4.1,4.6v11.5h-3.7v-10.3c0-1.1-0.2-2.1-1.6-2.1
		c-1,0-1.7,0.5-1.7,1.8v10.6h-3.7V682.9z"/>
	<path class="st4" d="M997.3,692.7c0,3.2-1.6,6.3-5.1,6.3c-3.8,0-6.1-3-6.1-8.2s2.4-8.2,6.1-8.2c3.5,0,5.1,3.1,5.1,6.3h-3.9
		c0-1.9-0.5-2.8-1.5-2.8c-0.6,0-1.1,0.3-1.4,1c-0.3,0.7-0.5,1.9-0.5,3.7c0,3.6,0.7,4.7,1.9,4.7c1.1,0,1.5-1.3,1.5-2.8H997.3z"/>
	<path class="st4" d="M1003.8,692.2c0,1.6,0.4,3.4,2.1,3.4c1,0,1.7-0.6,1.9-1.9h3.7c-0.3,2.2-1.2,3.6-2.3,4.4c-1.1,0.8-2.3,1-3.4,1
		c-4.1,0-6.1-3.7-6.1-8.2s1.9-8.2,6.1-8.2c2.1,0,3.6,0.9,4.6,2.5c1.2,2,1.3,4.6,1.2,7H1003.8z M1007.9,689c0-0.9-0.1-3.3-2-3.3
		c-1.3,0-2.1,1.1-2.1,3.3H1007.9z"/>
	<path class="st4" d="M1021.4,687.6c-0.1-1.2-0.5-1.8-1.7-1.8c-0.9,0-1.3,0.5-1.3,1.2c0,1.3,1.8,1.4,3.6,2c1.8,0.6,3.6,1.6,3.6,4.8
		c0,3-2.3,5.2-5.6,5.2c-3,0-5.4-1.7-5.8-5.4h3.7c0.1,1.2,0.9,2,2.1,2c1.2,0,1.5-0.8,1.5-1.6c0-1.4-1.8-1.5-3.6-2.1
		c-1.8-0.6-3.6-1.7-3.6-4.8c0-2.6,1.8-4.6,5.4-4.6c3.5,0,5.1,1.9,5.3,5H1021.4z"/>
	<path class="st4" d="M1044.3,689v3.6h-6.9V689H1044.3z"/>
	<path class="st4" d="M1057.8,698.7h-4.3l5.6-20.6h3.9l5.8,20.6h-4.3l-1.1-3.9h-4.7L1057.8,698.7z M1061.1,684.2l-1.3,6.7h2.6
		L1061.1,684.2z"/>
	<path class="st4" d="M1072,686.4h-1.7v-3.5h1.7v-3h3.7v3h1.7v3.5h-1.7v12.3h-3.7V686.4z"/>
	<path class="st4" d="M1080.9,686.4h-1.7v-3.5h1.7v-3h3.7v3h1.7v3.5h-1.7v12.3h-3.7V686.4z"/>
	<path class="st4" d="M1089.7,678.1h3.7v3.1h-3.7V678.1z M1089.7,682.9h3.7v15.8h-3.7V682.9z"/>
	<path class="st4" d="M1098.6,686.4h-1.7v-3.5h1.7v-3h3.7v3h1.7v3.5h-1.7v12.3h-3.7V686.4z"/>
	<path class="st4" d="M1117.7,698.7h-3.4v-1.7c-0.5,1.3-1.3,2-3.2,2c-2.5,0-4.1-1.4-4.1-4.6v-11.6h3.7v10.3c0,1.1,0.3,2.1,1.6,2.1
		c1,0,1.7-0.5,1.7-1.8v-10.6h3.7V698.7z"/>
	<path class="st4" d="M1132.7,698.7h-3.4V697c-0.3,1.3-1.6,2.1-3.1,2.1c-2.8,0-5-2.6-5-8.2c0-5.3,1.8-8.2,5-8.2
		c1.3,0,2.2,0.5,2.8,1.7c0-0.4,0-0.9,0-1.3v-4.8h3.7V698.7z M1125,690.9c0,3.5,0.8,4.5,2,4.5c0.8,0,1.1-0.2,1.5-0.7
		c0.5-0.6,0.5-1.3,0.5-3.8c0-2.5,0-3.2-0.5-3.8c-0.4-0.5-0.7-0.7-1.5-0.7C1125.8,686.3,1125,687.3,1125,690.9L1125,690.9z"/>
	<path class="st4" d="M1140.5,692.2c0,1.6,0.4,3.4,2.1,3.4c1,0,1.7-0.6,1.9-1.9h3.7c-0.3,2.2-1.2,3.6-2.3,4.4c-1.1,0.8-2.3,1-3.4,1
		c-4.1,0-6.1-3.7-6.1-8.2s1.9-8.2,6.1-8.2c2.1,0,3.6,0.9,4.6,2.5c1.2,2,1.3,4.6,1.2,7H1140.5z M1144.6,689c0-0.9-0.1-3.3-2-3.3
		c-1.3,0-2.1,1.1-2.1,3.3H1144.6z"/>
	<path class="st4" d="M1164.3,692.2c0,1.6,0.4,3.4,2.1,3.4c1,0,1.7-0.6,1.9-1.9h3.7c-0.3,2.2-1.2,3.6-2.3,4.4c-1.1,0.8-2.3,1-3.4,1
		c-4.1,0-6.1-3.7-6.1-8.2s1.9-8.2,6.1-8.2c2.1,0,3.6,0.9,4.6,2.5c1.2,2,1.3,4.6,1.2,7H1164.3z M1168.5,689c0-0.9-0.1-3.3-2-3.3
		c-1.3,0-2.1,1.1-2.1,3.3H1168.5z"/>
	<path class="st4" d="M1176.4,686.4h-1.7v-3.5h1.7v-3h3.7v3h1.7v3.5h-1.7v12.3h-3.7V686.4z"/>
	<path class="st4" d="M1193.8,682.9h3.5v1.8c0.5-1.6,1.5-2.2,3.2-2.2c0.9,0,1.7,0.2,2.3,0.7c0.3,0.2,0.6,0.6,0.8,1
		c0.3-0.4,0.6-0.8,1-1.1c0.7-0.4,1.6-0.7,2.6-0.7c1.6,0,2.8,0.6,3.6,1.5c0.8,0.9,1.1,2.1,1.1,3.4v11.2h-3.7v-10.6
		c0-0.7-0.1-1.1-0.4-1.4c-0.3-0.3-0.7-0.4-1.3-0.4c-0.5,0-1,0.1-1.3,0.3c-0.3,0.3-0.5,0.7-0.5,1.3v10.8h-3.7v-10.6
		c0-0.7-0.1-1.1-0.4-1.4c-0.3-0.3-0.7-0.4-1.3-0.4c-0.5,0-1,0.1-1.3,0.3c-0.3,0.3-0.5,0.7-0.5,1.3v10.8h-3.7V682.9z"/>
	<path class="st4" d="M1215.7,690.8c0-4.5,1.9-8.2,6.1-8.2c4.1,0,6.1,3.7,6.1,8.2s-1.9,8.2-6.1,8.2
		C1217.6,699.1,1215.7,695.4,1215.7,690.8L1215.7,690.8z M1219.6,690.9c0,3.7,0.8,4.7,2.2,4.7c1.3,0,2.1-1,2.1-4.7s-0.8-4.7-2.2-4.7
		C1220.5,686.1,1219.6,687.1,1219.6,690.9L1219.6,690.9z"/>
	<path class="st4" d="M1231.8,686.4h-1.7v-3.5h1.7v-3h3.7v3h1.7v3.5h-1.7v12.3h-3.7V686.4z"/>
	<path class="st4" d="M1240.7,678.1h3.7v3.1h-3.7V678.1z M1240.7,682.9h3.7v15.8h-3.7V682.9z"/>
	<path class="st4" d="M1255.6,698.7h-3.4l-4.6-15.8h3.8l2.4,10.1l2.1-10.1h3.8L1255.6,698.7z"/>
	<path class="st4" d="M1273,698.7h-3.4v-1.5c-0.7,1.3-1.6,1.8-3.1,1.8c-2.8,0-5-2.6-5-8.2c0-5.3,1.8-8.2,5-8.2
		c1.3,0,2.5,0.5,3.1,1.9v-1.6h3.4V698.7z M1265.3,690.9c0,3.5,0.8,4.5,2,4.5c0.8,0,1.1-0.2,1.5-0.7c0.5-0.6,0.5-1.3,0.5-3.8
		c0-2.5,0-3.2-0.5-3.8c-0.4-0.5-0.7-0.7-1.5-0.7C1266.1,686.3,1265.3,687.3,1265.3,690.9L1265.3,690.9z"/>
	<path class="st4" d="M1277.8,686.4h-1.7v-3.5h1.7v-3h3.7v3h1.7v3.5h-1.7v12.3h-3.7V686.4z"/>
	<path class="st4" d="M1286.6,678.1h3.7v3.1h-3.7V678.1z M1286.6,682.9h3.7v15.8h-3.7V682.9z"/>
	<path class="st4" d="M1294.3,690.8c0-4.5,1.9-8.2,6.1-8.2s6.1,3.7,6.1,8.2s-1.9,8.2-6.1,8.2S1294.3,695.4,1294.3,690.8
		L1294.3,690.8z M1298.3,690.9c0,3.7,0.8,4.7,2.2,4.7c1.3,0,2.1-1,2.1-4.7s-0.8-4.7-2.2-4.7C1299.1,686.1,1298.3,687.1,1298.3,690.9
		L1298.3,690.9z"/>
	<path class="st4" d="M1310.1,682.9h3.2v1.5c0.6-1.1,1.4-1.8,3.4-1.8c2.5,0,4.1,1.4,4.1,4.6v11.5h-3.7v-10.3c0-1.1-0.3-2.1-1.6-2.1
		c-1,0-1.7,0.5-1.7,1.8v10.6h-3.7V682.9z"/>
	<path class="st4" d="M583.3,710.1c1.9,0,3.6,0.6,4.8,1.7c1.2,1.1,1.9,2.8,1.9,5c0,2.2-0.7,3.8-1.9,5c-1.2,1.1-2.9,1.7-4.8,1.7h-1.6
		v7.2h-4.2v-20.6H583.3z M581.7,719.7h1.6c0.8,0,1.4-0.2,1.8-0.7c0.4-0.4,0.6-1.1,0.6-2.1c0-1.1-0.2-1.7-0.6-2.2
		c-0.4-0.4-1-0.6-1.8-0.6h-1.6V719.7z"/>
	<path class="st4" d="M596.2,724.2c0,1.6,0.4,3.4,2.1,3.4c1,0,1.7-0.6,1.9-1.9h3.7c-0.3,2.2-1.2,3.6-2.3,4.4c-1.1,0.8-2.3,1-3.4,1
		c-4.1,0-6.1-3.7-6.1-8.2s1.9-8.2,6.1-8.2c2.1,0,3.6,0.9,4.6,2.5c1.2,2,1.3,4.6,1.2,7H596.2z M600.4,721c0-0.9-0.1-3.3-2-3.3
		c-1.3,0-2.1,1.1-2.1,3.3H600.4z"/>
	<path class="st4" d="M607.9,714.9h3.4v2.1c0.6-2,1.9-2.4,4-2.4v4.6c-0.5-0.4-1.1-0.5-1.6-0.5c-1.4,0-2,1.2-2,2.8v9.2h-3.7V714.9z"
		/>
	<path class="st4" d="M624.1,719.6c-0.1-1.2-0.5-1.8-1.7-1.8c-0.9,0-1.3,0.5-1.3,1.2c0,1.3,1.8,1.4,3.6,2c1.8,0.6,3.6,1.6,3.6,4.8
		c0,3-2.3,5.2-5.6,5.2c-3,0-5.4-1.7-5.8-5.4h3.7c0.1,1.2,0.9,2,2.1,2c1.2,0,1.5-0.8,1.5-1.6c0-1.4-1.8-1.5-3.6-2.1
		c-1.8-0.6-3.6-1.7-3.6-4.8c0-2.6,1.8-4.6,5.4-4.6c3.5,0,5.1,1.9,5.3,5H624.1z"/>
	<path class="st4" d="M630.8,722.8c0-4.5,1.9-8.2,6.1-8.2s6.1,3.7,6.1,8.2s-1.9,8.2-6.1,8.2S630.8,727.4,630.8,722.8L630.8,722.8z
		 M634.8,722.9c0,3.7,0.8,4.7,2.2,4.7c1.3,0,2.1-1,2.1-4.7s-0.8-4.7-2.2-4.7C635.6,718.1,634.8,719.1,634.8,722.9L634.8,722.9z"/>
	<path class="st4" d="M646.6,714.9h3.2v1.5c0.6-1.1,1.4-1.8,3.4-1.8c2.5,0,4.1,1.4,4.1,4.6v11.5h-3.7v-10.3c0-1.1-0.2-2.1-1.6-2.1
		c-1,0-1.7,0.5-1.7,1.8v10.6h-3.7V714.9z"/>
	<path class="st4" d="M661.6,714.9h3.2v1.5c0.6-1.1,1.4-1.8,3.4-1.8c2.5,0,4.1,1.4,4.1,4.6v11.5h-3.7v-10.3c0-1.1-0.2-2.1-1.6-2.1
		c-1,0-1.7,0.5-1.7,1.8v10.6h-3.7V714.9z"/>
	<path class="st4" d="M687.3,730.7h-3.4v-1.5c-0.7,1.3-1.6,1.8-3.1,1.8c-2.8,0-5-2.6-5-8.2c0-5.3,1.8-8.2,5-8.2
		c1.3,0,2.5,0.5,3.1,1.9v-1.6h3.4V730.7z M679.6,722.9c0,3.5,0.8,4.5,2,4.5c0.8,0,1.1-0.2,1.5-0.7c0.5-0.6,0.5-1.3,0.5-3.8
		c0-2.5,0-3.2-0.5-3.8c-0.4-0.5-0.7-0.7-1.5-0.7C680.4,718.3,679.6,719.3,679.6,722.9L679.6,722.9z"/>
	<path class="st4" d="M692.1,710.1h3.7v20.6h-3.7V710.1z"/>
	<path class="st4" d="M700.9,710.1h3.7v3.1h-3.7V710.1z M700.9,714.9h3.7v15.8h-3.7V714.9z"/>
	<path class="st4" d="M709.8,718.4h-1.7v-3.5h1.7v-3h3.7v3h1.7v3.5h-1.7v12.3h-3.7V718.4z"/>
	<path class="st4" d="M721.3,724.2c0,1.6,0.4,3.4,2.1,3.4c1,0,1.7-0.6,1.9-1.9h3.7c-0.3,2.2-1.2,3.6-2.3,4.4c-1.1,0.8-2.3,1-3.4,1
		c-4.1,0-6.1-3.7-6.1-8.2s1.9-8.2,6.1-8.2c2.1,0,3.6,0.9,4.6,2.5c1.2,2,1.3,4.6,1.2,7H721.3z M726.9,708.2l1.4,3l-6.5,2.9l-1.3-2.4
		L726.9,708.2z M725.5,721c0-0.9-0.1-3.3-2-3.3c-1.3,0-2.1,1.1-2.1,3.3H725.5z"/>
	<path class="st4" d="M745.2,724.2c0,1.6,0.4,3.4,2.1,3.4c1,0,1.7-0.6,1.9-1.9h3.7c-0.3,2.2-1.2,3.6-2.3,4.4c-1.1,0.8-2.3,1-3.4,1
		c-4.1,0-6.1-3.7-6.1-8.2s1.9-8.2,6.1-8.2c2.1,0,3.6,0.9,4.6,2.5c1.2,2,1.3,4.6,1.2,7H745.2z M749.3,721c0-0.9-0.1-3.3-2-3.3
		c-1.3,0-2.1,1.1-2.1,3.3H749.3z"/>
	<path class="st4" d="M757.2,718.4h-1.7v-3.5h1.7v-3h3.7v3h1.7v3.5H761v12.3h-3.7V718.4z"/>
	<path class="st4" d="M774.7,710.1h4.2v20.6h-4.2V710.1z"/>
	<path class="st4" d="M783.4,714.9h3.2v1.5c0.6-1.1,1.4-1.8,3.4-1.8c2.5,0,4.1,1.4,4.1,4.6v11.5h-3.7v-10.3c0-1.1-0.3-2.1-1.6-2.1
		c-1,0-1.7,0.5-1.7,1.8v10.6h-3.7V714.9z"/>
	<path class="st4" d="M798.7,718.4h-1.4v-3.5h1.4v-0.6c0-4.2,3.7-4.5,5.8-4.5v3.2c-0.9,0-2.1,0-2.1,1.6v0.3h2.1v3.5h-2.1v12.3h-3.7
		V718.4z"/>
	<path class="st4" d="M806.4,722.8c0-4.5,1.9-8.2,6.1-8.2s6.1,3.7,6.1,8.2s-1.9,8.2-6.1,8.2S806.4,727.4,806.4,722.8L806.4,722.8z
		 M810.3,722.9c0,3.7,0.8,4.7,2.2,4.7c1.3,0,2.1-1,2.1-4.7s-0.8-4.7-2.2-4.7C811.2,718.1,810.3,719.1,810.3,722.9L810.3,722.9z"/>
	<path class="st4" d="M822.2,714.9h3.4v2.1c0.6-2,1.9-2.4,4-2.4v4.6c-0.5-0.4-1.1-0.5-1.6-0.5c-1.4,0-2,1.2-2,2.8v9.2h-3.7V714.9z"
		/>
	<path class="st4" d="M832.7,714.9h3.5v1.8c0.5-1.6,1.5-2.2,3.2-2.2c0.9,0,1.7,0.2,2.3,0.7c0.3,0.2,0.6,0.6,0.8,1
		c0.3-0.4,0.6-0.8,1-1.1c0.7-0.4,1.6-0.7,2.6-0.7c1.6,0,2.8,0.6,3.6,1.5c0.8,0.9,1.1,2.1,1.1,3.4v11.2h-3.7v-10.6
		c0-0.7-0.1-1.1-0.4-1.4c-0.3-0.3-0.7-0.4-1.3-0.4c-0.5,0-1,0.1-1.3,0.3c-0.3,0.3-0.5,0.7-0.5,1.3v10.8h-3.7v-10.6
		c0-0.7-0.1-1.1-0.4-1.4c-0.3-0.3-0.7-0.4-1.3-0.4c-0.5,0-1,0.1-1.3,0.3c-0.3,0.3-0.5,0.7-0.5,1.3v10.8h-3.7V714.9z"/>
	<path class="st4" d="M866,730.7h-3.4v-1.5c-0.7,1.3-1.6,1.8-3.1,1.8c-2.8,0-5-2.6-5-8.2c0-5.3,1.8-8.2,5-8.2c1.3,0,2.5,0.5,3.1,1.9
		v-1.6h3.4V730.7z M858.3,722.9c0,3.5,0.8,4.5,2,4.5c0.8,0,1.1-0.2,1.5-0.7c0.5-0.6,0.5-1.3,0.5-3.8c0-2.5,0-3.2-0.5-3.8
		c-0.4-0.5-0.7-0.7-1.5-0.7C859,718.3,858.3,719.3,858.3,722.9L858.3,722.9z"/>
	<path class="st4" d="M870.7,718.4H869v-3.5h1.7v-3h3.7v3h1.7v3.5h-1.7v12.3h-3.7V718.4z"/>
	<path class="st4" d="M879.6,710.1h3.7v3.1h-3.7V710.1z M879.6,714.9h3.7v15.8h-3.7V714.9z"/>
	<path class="st4" d="M887.3,722.8c0-4.5,1.9-8.2,6.1-8.2s6.1,3.7,6.1,8.2s-1.9,8.2-6.1,8.2S887.3,727.4,887.3,722.8L887.3,722.8z
		 M891.2,722.9c0,3.7,0.8,4.7,2.2,4.7c1.3,0,2.1-1,2.1-4.7s-0.8-4.7-2.2-4.7C892,718.1,891.2,719.1,891.2,722.9L891.2,722.9z"/>
	<path class="st4" d="M903,714.9h3.2v1.5c0.6-1.1,1.4-1.8,3.4-1.8c2.5,0,4.1,1.4,4.1,4.6v11.5H910v-10.3c0-1.1-0.3-2.1-1.6-2.1
		c-1,0-1.7,0.5-1.7,1.8v10.6H903V714.9z"/>
	<path class="st4" d="M924,719.6c-0.1-1.2-0.5-1.8-1.7-1.8c-0.9,0-1.3,0.5-1.3,1.2c0,1.3,1.8,1.4,3.6,2c1.8,0.6,3.6,1.6,3.6,4.8
		c0,3-2.3,5.2-5.6,5.2c-3,0-5.4-1.7-5.8-5.4h3.7c0.1,1.2,0.9,2,2.1,2c1.2,0,1.5-0.8,1.5-1.6c0-1.4-1.8-1.5-3.6-2.1
		c-1.8-0.6-3.6-1.7-3.6-4.8c0-2.6,1.8-4.6,5.4-4.6c3.5,0,5.1,1.9,5.3,5H924z"/>
	<path class="st4" d="M945.7,719.5c0-1.9-1-2.6-2.4-2.6c-1.3,0-2.2,0.9-2.2,2.3c0,1.7,1.4,2.3,3.3,2.9c1.7,0.5,3.6,1.5,3.6,4.6
		c0,2.7-1.9,4.5-4.5,4.5c-2.8,0-4.6-1.6-4.7-4.8h1.8c0,2.1,1.2,3.1,2.9,3.1c1.6,0,2.6-1.1,2.6-2.6c0-1.8-1.3-2.6-3.3-3.2
		c-1.9-0.6-3.6-1.6-3.6-4.3c0-2.4,1.8-4,4.2-4c2.6,0,4.1,1.5,4.2,4.3H945.7z"/>
	<path class="st4" d="M962.1,730.7h-1.7c0-0.9,0-1.7,0.1-2.6c-0.8,2.2-2.5,3-4.2,3c-2.6,0-4.3-1.5-4.3-5.2v-10.3h1.9v9.7
		c0,1.5,0.2,3.9,2.9,3.9c2.2,0,3.6-1.5,3.6-4.7v-9h1.9V730.7z"/>
	<path class="st4" d="M966.8,715.6h1.7c0,1.4,0,2.3-0.1,3.2c0.8-3,2.7-3.5,4-3.5v2.2c-0.2-0.1-0.4-0.2-0.7-0.2
		c-1.3,0-3.1,1.6-3.1,5.4v8.1h-1.9V715.6z"/>
	<path class="st4" d="M983.7,710.1h1.9v20.6h-1.9V710.1z"/>
	<path class="st4" d="M991.8,723.7c0,3.1,1.3,5.6,3.8,5.6c1.8,0,3-1.3,3.4-3h1.8c-0.3,1.6-1,2.8-1.9,3.6c-0.9,0.8-2.1,1.2-3.3,1.2
		c-4.2,0-5.8-4-5.8-7.9c0-4.7,2.2-8,5.7-8c1.8,0,3.2,0.8,4.1,2.1c1.2,1.8,1.4,4.1,1.4,6.3H991.8z M999.1,722.1
		c-0.1-3.1-1.4-5.3-3.6-5.3c-2.2,0-3.6,2.3-3.7,5.3H999.1z"/>
	<path class="st4" d="M1012.8,715.6h1.7c0,1.1,0,2,0,2.9c0.8-2.3,2.2-3.3,4-3.3c3,0,5.1,3.1,5.1,8c0,4.6-1.9,7.9-5.1,7.9
		c-1.8,0-3.3-1.2-3.9-3.1c0.1,0.7,0.1,1.4,0.1,2.8v5.6h-1.9V715.6z M1021.7,723.1c0-3.4-1.2-6.1-3.5-6.1c-1.2,0-2,0.6-2.6,1.7
		c-0.7,1-0.9,2.4-0.9,4.4c0,2,0.2,3.4,0.9,4.4c0.6,1,1.4,1.7,2.6,1.7C1020.5,729.3,1021.7,726.6,1021.7,723.1L1021.7,723.1z"/>
	<path class="st4" d="M1026.7,723.1c0-4.3,1.8-7.9,5.8-7.9c4,0,5.8,3.6,5.8,7.9s-1.8,7.9-5.8,7.9
		C1028.5,731.1,1026.7,727.5,1026.7,723.1L1026.7,723.1z M1028.7,723.2c0,4,1.3,6.2,3.9,6.2c2.5,0,3.8-2.1,3.8-6.2
		c0-4-1.3-6.2-3.9-6.2C1030,717,1028.7,719.1,1028.7,723.2L1028.7,723.2z"/>
	<path class="st4" d="M1048.5,719.5c0-1.9-1-2.6-2.4-2.6c-1.3,0-2.2,0.9-2.2,2.3c0,1.7,1.4,2.3,3.3,2.9c1.7,0.5,3.6,1.5,3.6,4.6
		c0,2.7-1.9,4.5-4.5,4.5c-2.8,0-4.6-1.6-4.7-4.8h1.8c0,2.1,1.2,3.1,2.9,3.1c1.6,0,2.6-1.1,2.6-2.6c0-1.8-1.3-2.6-3.3-3.2
		c-1.9-0.6-3.6-1.6-3.6-4.3c0-2.4,1.8-4,4.2-4c2.6,0,4.1,1.5,4.2,4.3H1048.5z"/>
	<path class="st4" d="M1055.4,717.3h-2.1v-1.8h2.1v-4.8h1.9v4.8h2.1v1.8h-2.1v13.4h-1.9V717.3z"/>
	<path class="st4" d="M1063.6,723.7c0,3.1,1.3,5.6,3.8,5.6c1.8,0,3-1.3,3.4-3h1.8c-0.3,1.6-1,2.8-1.9,3.6c-0.9,0.8-2.1,1.2-3.3,1.2
		c-4.2,0-5.8-4-5.8-7.9c0-4.7,2.2-8,5.7-8c1.8,0,3.2,0.8,4.1,2.1c1.2,1.8,1.4,4.1,1.4,6.3H1063.6z M1071,722.1
		c-0.1-3.1-1.4-5.3-3.6-5.3c-2.2,0-3.6,2.3-3.7,5.3H1071z"/>
	<path class="st4" d="M1079.1,730.7h-1.9v-3h1.9V730.7z"/>
</g>
<g>
	<path class="st4" d="M459.4,402.5c-0.5,0.1-1,0.2-1.5,0.2c-1.9,0-3.1-0.6-4-1.4c-1.5,0.9-3.2,1.4-5.3,1.4
		c-7.3,0-10.9-6.1-10.9-15.4c0-9.3,3.6-15.4,10.9-15.4c7.3,0,10.9,6.1,10.9,15.4c0,3.7-0.6,7-1.8,9.6c0.4,0.2,1,0.2,1.6,0V402.5z
		 M448.6,377.5c-3.1,0-4.6,2.8-4.6,9.8c0,0.9,0,1.6,0.1,2.3c0.7-0.2,1.6-0.6,3.1-0.6c0.8,0,1.7,0.1,2.8,0.6c0.9,0.4,2.1,1.3,3.1,2.6
		c0.2-1.1,0.2-2.8,0.2-4.9C453.3,380.3,451.8,377.5,448.6,377.5L448.6,377.5z M448.7,397c0.8,0,1.4-0.2,1.8-0.5
		c-0.4-0.6-1-1.2-1.7-1.6c-0.8-0.4-1.6-0.7-2.9-0.7c-0.4,0-0.8,0.1-1.1,0.2C445.6,396,446.9,397,448.7,397L448.7,397z"/>
	<path class="st4" d="M480.2,402.1h-4.8v-2.4c-0.7,1.8-1.8,2.9-4.6,2.9c-3.6,0-5.9-2-5.9-6.6v-16.6h5.4v14.8c0,1.6,0.4,3,2.2,3
		c1.4,0,2.4-0.7,2.4-2.6v-15.2h5.4V402.1z"/>
	<path class="st4" d="M491.3,392.6c0,2.2,0.6,4.9,3,4.9c1.4,0,2.4-0.9,2.8-2.8h5.3c-0.4,3.2-1.7,5.2-3.3,6.4
		c-1.6,1.1-3.4,1.5-4.8,1.5c-6,0-8.8-5.3-8.8-11.8c0-6.6,2.8-11.8,8.8-11.8c3,0,5.2,1.3,6.6,3.6c1.7,2.9,1.8,6.6,1.7,10.1H491.3z
		 M497.2,388.1c0-1.4-0.2-4.8-2.8-4.8c-1.9,0-3.1,1.6-3.1,4.8H497.2z"/>
	<path class="st4" d="M508.6,372.5h5.4v29.6h-5.4V372.5z"/>
	<path class="st4" d="M521.3,372.5h5.4v29.6h-5.4V372.5z"/>
	<path class="st4" d="M538.3,392.6c0,2.2,0.6,4.9,3,4.9c1.4,0,2.4-0.9,2.8-2.8h5.3c-0.4,3.2-1.7,5.2-3.3,6.4
		c-1.6,1.1-3.4,1.5-4.8,1.5c-6,0-8.8-5.3-8.8-11.8c0-6.6,2.8-11.8,8.8-11.8c3,0,5.2,1.3,6.6,3.6c1.7,2.9,1.8,6.6,1.7,10.1H538.3z
		 M544.3,388.1c0-1.4-0.2-4.8-2.8-4.8c-1.9,0-3.1,1.6-3.1,4.8H544.3z"/>
	<path class="st4" d="M582.6,393.4c0,4.6-2.3,9.1-7.3,9.1c-5.4,0-8.8-4.2-8.8-11.8c0-7.6,3.4-11.8,8.8-11.8c5,0,7.3,4.4,7.3,9.1H577
		c0-2.7-0.7-4.1-2.1-4.1c-0.9,0-1.6,0.4-2,1.4c-0.5,1-0.7,2.8-0.7,5.4c0,5.2,1,6.8,2.7,6.8c1.6,0,2.1-1.8,2.1-4.1H582.6z"/>
	<path class="st4" d="M587.1,372.5h5.4v6.4v1.9c0.4-0.9,1.3-1.9,4-1.9c2.1,0,3.6,0.7,4.5,1.9c1,1.2,1.4,2.8,1.4,4.8v16.6h-5.4v-15
		c0-0.8-0.1-1.5-0.4-2c-0.3-0.6-0.9-0.9-1.8-0.9c-0.7,0-1.4,0.2-1.8,0.6c-0.4,0.4-0.7,1-0.7,1.9v15.4h-5.4V372.5z"/>
	<path class="st4" d="M613.6,392.6c0,2.2,0.6,4.9,3,4.9c1.4,0,2.4-0.9,2.8-2.8h5.3c-0.4,3.2-1.7,5.2-3.3,6.4
		c-1.6,1.1-3.4,1.5-4.8,1.5c-6,0-8.8-5.3-8.8-11.8c0-6.6,2.8-11.8,8.8-11.8c3,0,5.2,1.3,6.6,3.6c1.7,2.9,1.8,6.6,1.7,10.1H613.6z
		 M619.5,388.1c0-1.4-0.2-4.8-2.8-4.8c-1.9,0-3.1,1.6-3.1,4.8H619.5z"/>
	<path class="st4" d="M645.1,393.4c0,4.6-2.3,9.1-7.3,9.1c-5.4,0-8.8-4.2-8.8-11.8c0-7.6,3.4-11.8,8.8-11.8c5,0,7.3,4.4,7.3,9.1
		h-5.6c0-2.7-0.7-4.1-2.1-4.1c-0.9,0-1.6,0.4-2,1.4c-0.5,1-0.7,2.8-0.7,5.4c0,5.2,1,6.8,2.7,6.8c1.6,0,2.1-1.8,2.1-4.1H645.1z"/>
	<path class="st4" d="M649.4,372.5h5.4v16.2l4.5-9.4h6l-5.8,10.3l6,12.4h-5.8l-4.9-10.2v10.2h-5.4V372.5z"/>
	<path class="st4" d="M678.4,388.1v5.2h-10v-5.2H678.4z"/>
	<path class="st4" d="M684.5,372.5h5.4v29.6h-5.4V372.5z"/>
	<path class="st4" d="M697.3,372.5h5.4v4.5h-5.4V372.5z M697.3,379.4h5.4v22.7h-5.4V379.4z"/>
	<path class="st4" d="M718,386.1c-0.1-1.7-0.8-2.6-2.4-2.6c-1.2,0-1.9,0.7-1.9,1.8c0,1.9,2.6,2.1,5.1,2.9c2.6,0.8,5.1,2.3,5.1,7
		c0,4.2-3.4,7.4-8,7.4c-4.4,0-7.8-2.4-8.3-7.8h5.4c0.1,1.7,1.3,2.9,3.1,2.9c1.7,0,2.2-1.2,2.2-2.3c0-2-2.6-2.2-5.1-3
		c-2.6-0.9-5.1-2.4-5.1-6.9c0-3.8,2.6-6.6,7.8-6.6c5,0,7.3,2.8,7.6,7.2H718z"/>
	<path class="st4" d="M729.3,384.4h-2.4v-5h2.4V375h5.4v4.3h2.4v5h-2.4v17.7h-5.4V384.4z"/>
	<path class="st4" d="M763.5,402.1h-4.9l-6.6-22.7h5.4l3.5,14.6l3-14.6h5.4L763.5,402.1z"/>
	<path class="st4" d="M772.1,390.7c0-6.5,2.8-11.8,8.8-11.8s8.8,5.3,8.8,11.8c0,6.6-2.8,11.8-8.8,11.8S772.1,397.3,772.1,390.7
		L772.1,390.7z M777.8,390.8c0,5.3,1.2,6.8,3.2,6.8c1.8,0,3-1.4,3-6.8c0-5.4-1.2-6.8-3.2-6.8C779,383.9,777.8,385.4,777.8,390.8
		L777.8,390.8z"/>
	<path class="st4" d="M810.1,402.1h-4.8v-2.4c-0.7,1.8-1.8,2.9-4.6,2.9c-3.6,0-5.9-2-5.9-6.6v-16.6h5.4v14.8c0,1.6,0.4,3,2.2,3
		c1.4,0,2.4-0.7,2.4-2.6v-15.2h5.4V402.1z"/>
	<path class="st4" d="M824.9,386.1c-0.1-1.7-0.8-2.6-2.4-2.6c-1.2,0-1.9,0.7-1.9,1.8c0,1.9,2.6,2.1,5.1,2.9c2.6,0.8,5.1,2.3,5.1,7
		c0,4.2-3.4,7.4-8,7.4c-4.4,0-7.8-2.4-8.3-7.8h5.4c0.1,1.7,1.3,2.9,3.1,2.9c1.7,0,2.2-1.2,2.2-2.3c0-2-2.6-2.2-5.1-3
		c-2.6-0.9-5.1-2.4-5.1-6.9c0-3.8,2.6-6.6,7.8-6.6c5,0,7.3,2.8,7.6,7.2H824.9z"/>
	<path class="st4" d="M853.3,392.6c0,2.2,0.6,4.9,3,4.9c1.4,0,2.4-0.9,2.8-2.8h5.3c-0.4,3.2-1.7,5.2-3.3,6.4
		c-1.6,1.1-3.4,1.5-4.8,1.5c-6,0-8.8-5.3-8.8-11.8c0-6.6,2.8-11.8,8.8-11.8c3,0,5.2,1.3,6.6,3.6c1.7,2.9,1.8,6.6,1.7,10.1H853.3z
		 M863.2,377h-4.6l-2.5-3.4l-2.5,3.4h-4.6l4.5-5.9h5.1L863.2,377z M859.2,388.1c0-1.4-0.2-4.8-2.8-4.8c-1.9,0-3.1,1.6-3.1,4.8H859.2
		z"/>
	<path class="st4" d="M870.6,384.4h-2.4v-5h2.4V375h5.4v4.3h2.4v5H876v17.7h-5.4V384.4z"/>
	<path class="st4" d="M887.3,392.6c0,2.2,0.6,4.9,3,4.9c1.4,0,2.4-0.9,2.8-2.8h5.3c-0.4,3.2-1.7,5.2-3.3,6.4
		c-1.6,1.1-3.4,1.5-4.8,1.5c-6,0-8.8-5.3-8.8-11.8c0-6.6,2.8-11.8,8.8-11.8c3,0,5.2,1.3,6.6,3.6c1.7,2.9,1.8,6.6,1.7,10.1H887.3z
		 M893.2,388.1c0-1.4-0.2-4.8-2.8-4.8c-1.9,0-3.1,1.6-3.1,4.8H893.2z"/>
	<path class="st4" d="M912.5,386.1c-0.1-1.7-0.8-2.6-2.4-2.6c-1.2,0-1.9,0.7-1.9,1.8c0,1.9,2.6,2.1,5.1,2.9c2.6,0.8,5.1,2.3,5.1,7
		c0,4.2-3.4,7.4-8,7.4c-4.4,0-7.8-2.4-8.3-7.8h5.4c0.1,1.7,1.3,2.9,3.1,2.9c1.7,0,2.2-1.2,2.2-2.3c0-2-2.6-2.2-5.1-3
		c-2.6-0.9-5.1-2.4-5.1-6.9c0-3.8,2.6-6.6,7.8-6.6c5,0,7.3,2.8,7.6,7.2H912.5z"/>
	<path class="st4" d="M932.6,388.1v5.2h-10v-5.2H932.6z"/>
	<path class="st4" d="M947.6,402.1h-4.9l-6.6-22.7h5.4l3.5,14.6l3-14.6h5.4L947.6,402.1z"/>
	<path class="st4" d="M956.1,390.7c0-6.5,2.8-11.8,8.8-11.8s8.8,5.3,8.8,11.8c0,6.6-2.8,11.8-8.8,11.8S956.1,397.3,956.1,390.7
		L956.1,390.7z M961.8,390.8c0,5.3,1.2,6.8,3.2,6.8c1.8,0,3-1.4,3-6.8c0-5.4-1.2-6.8-3.2-6.8C963,383.9,961.8,385.4,961.8,390.8
		L961.8,390.8z"/>
	<path class="st4" d="M994.2,402.1h-4.8v-2.4c-0.7,1.8-1.8,2.9-4.6,2.9c-3.6,0-5.9-2-5.9-6.6v-16.6h5.4v14.8c0,1.6,0.4,3,2.2,3
		c1.4,0,2.4-0.7,2.4-2.6v-15.2h5.4V402.1z"/>
	<path class="st4" d="M1009,386.1c-0.1-1.7-0.8-2.6-2.4-2.6c-1.2,0-1.9,0.7-1.9,1.8c0,1.9,2.6,2.1,5.1,2.9c2.6,0.8,5.1,2.3,5.1,7
		c0,4.2-3.4,7.4-8,7.4c-4.4,0-7.8-2.4-8.3-7.8h5.4c0.1,1.7,1.3,2.9,3.1,2.9c1.7,0,2.2-1.2,2.2-2.3c0-2-2.6-2.2-5.1-3
		c-2.6-0.9-5.1-2.4-5.1-6.9c0-3.8,2.6-6.6,7.8-6.6c5,0,7.3,2.8,7.6,7.2H1009z"/>
	<path class="st4" d="M1032.9,384.4h-2.1v-5h2.1v-0.9c0-6,5.3-6.5,8.3-6.5v4.6c-1.2,0-3,0-3,2.4v0.4h3v5h-3v17.7h-5.4V384.4z"/>
	<path class="st4" d="M1060.4,402.1h-4.9v-2.2c-1,1.8-2.3,2.6-4.4,2.6c-4.1,0-7.2-3.7-7.2-11.8c0-7.7,2.5-11.8,7.2-11.8
		c1.8,0,3.6,0.7,4.4,2.8v-2.3h4.9V402.1z M1049.3,390.8c0,5,1.1,6.4,2.9,6.4c1.1,0,1.6-0.3,2.1-1c0.7-0.8,0.7-1.9,0.7-5.5
		c0-3.6,0-4.6-0.7-5.5c-0.6-0.7-1-1-2.1-1C1050.4,384.2,1049.3,385.7,1049.3,390.8L1049.3,390.8z"/>
	<path class="st4" d="M1067.2,372.5h5.4v4.5h-5.4V372.5z M1067.2,379.4h5.4v22.7h-5.4V379.4z"/>
	<path class="st4" d="M1079.9,384.4h-2.4v-5h2.4V375h5.4v4.3h2.4v5h-2.4v17.7h-5.4V384.4z"/>
	<path class="st4" d="M1096.5,392.6c0,2.2,0.6,4.9,3,4.9c1.4,0,2.4-0.9,2.8-2.8h5.3c-0.4,3.2-1.7,5.2-3.3,6.4
		c-1.6,1.1-3.4,1.5-4.8,1.5c-6,0-8.8-5.3-8.8-11.8c0-6.6,2.8-11.8,8.8-11.8c3,0,5.2,1.3,6.6,3.6c1.7,2.9,1.8,6.6,1.7,10.1H1096.5z
		 M1102.4,388.1c0-1.4-0.2-4.8-2.8-4.8c-1.9,0-3.1,1.6-3.1,4.8H1102.4z"/>
	<path class="st4" d="M1126,379.4h4.9v2.2c0.7-1.4,2-2.6,4.4-2.6c4.1,0,7.2,3.7,7.2,11.8c0,7.7-2.5,11.8-7.2,11.8
		c-1.8,0-3.2-0.9-3.9-2.2v1.7v7.2h-5.4V379.4z M1137,390.7c0-5-1-6.4-2.9-6.4c-0.9,0-1.4,0.3-2,1c-0.7,0.8-0.8,1.9-0.8,5.5
		c0,3.6,0.2,4.6,0.8,5.5c0.6,0.7,1,1,2,1C1136,397.2,1137,395.8,1137,390.7L1137,390.7z"/>
	<path class="st4" d="M1146.5,390.7c0-6.5,2.8-11.8,8.8-11.8s8.8,5.3,8.8,11.8c0,6.6-2.8,11.8-8.8,11.8S1146.5,397.3,1146.5,390.7
		L1146.5,390.7z M1152.2,390.8c0,5.3,1.2,6.8,3.2,6.8c1.8,0,3-1.4,3-6.8c0-5.4-1.2-6.8-3.2-6.8
		C1153.4,383.9,1152.2,385.4,1152.2,390.8L1152.2,390.8z"/>
	<path class="st4" d="M1184.5,402.1h-4.8v-2.4c-0.7,1.8-1.8,2.9-4.6,2.9c-3.6,0-5.9-2-5.9-6.6v-16.6h5.4v14.8c0,1.6,0.4,3,2.2,3
		c1.4,0,2.4-0.7,2.4-2.6v-15.2h5.4V402.1z"/>
	<path class="st4" d="M1190.8,379.4h4.9v3c0.8-2.8,2.8-3.4,5.8-3.4v6.6c-0.8-0.5-1.6-0.7-2.4-0.7c-2,0-2.9,1.7-2.9,4v13.3h-5.4
		V379.4z"/>
	<path class="st4" d="M1219,372.5h5.4v29.6h-5.4V372.5z"/>
	<path class="st4" d="M1236,392.6c0,2.2,0.6,4.9,3,4.9c1.4,0,2.4-0.9,2.8-2.8h5.3c-0.4,3.2-1.7,5.2-3.3,6.4
		c-1.6,1.1-3.4,1.5-4.8,1.5c-6,0-8.8-5.3-8.8-11.8c0-6.6,2.8-11.8,8.8-11.8c3,0,5.2,1.3,6.6,3.6c1.7,2.9,1.8,6.6,1.7,10.1H1236z
		 M1241.9,388.1c0-1.4-0.2-4.8-2.8-4.8c-1.9,0-3.1,1.6-3.1,4.8H1241.9z"/>
	<path class="st4" d="M1261.3,386.1c-0.1-1.7-0.8-2.6-2.4-2.6c-1.2,0-1.9,0.7-1.9,1.8c0,1.9,2.6,2.1,5.1,2.9c2.6,0.8,5.1,2.3,5.1,7
		c0,4.2-3.4,7.4-8,7.4c-4.4,0-7.8-2.4-8.3-7.8h5.4c0.1,1.7,1.3,2.9,3.1,2.9c1.7,0,2.2-1.2,2.2-2.3c0-2-2.6-2.2-5.1-3
		c-2.6-0.9-5.1-2.4-5.1-6.9c0-3.8,2.6-6.6,7.8-6.6c5,0,7.3,2.8,7.6,7.2H1261.3z"/>
	<path class="st4" d="M1289.7,392.6c0,2.2,0.6,4.9,3,4.9c1.4,0,2.4-0.9,2.8-2.8h5.3c-0.4,3.2-1.7,5.2-3.3,6.4
		c-1.6,1.1-3.4,1.5-4.8,1.5c-6,0-8.8-5.3-8.8-11.8c0-6.6,2.8-11.8,8.8-11.8c3,0,5.2,1.3,6.6,3.6c1.7,2.9,1.8,6.6,1.7,10.1H1289.7z
		 M1295.6,388.1c0-1.4-0.2-4.8-2.8-4.8c-1.9,0-3.1,1.6-3.1,4.8H1295.6z"/>
	<path class="st4" d="M1306.4,379.4h4.6v2.2c0.9-1.6,2-2.6,4.8-2.6c3.6,0,5.9,2,5.9,6.6v16.6h-5.4v-14.8c0-1.6-0.4-3-2.2-3
		c-1.4,0-2.4,0.7-2.4,2.6v15.2h-5.4V379.4z"/>
	<path class="st4" d="M1328.6,384.4h-2.4v-5h2.4V375h5.4v4.3h2.4v5h-2.4v17.7h-5.4V384.4z"/>
	<path class="st4" d="M1340.7,379.4h4.9v3c0.8-2.8,2.8-3.4,5.8-3.4v6.6c-0.8-0.5-1.6-0.7-2.4-0.7c-2,0-2.9,1.7-2.9,4v13.3h-5.4
		V379.4z"/>
	<path class="st4" d="M1359.9,392.6c0,2.2,0.6,4.9,3,4.9c1.4,0,2.4-0.9,2.8-2.8h5.3c-0.4,3.2-1.7,5.2-3.3,6.4
		c-1.6,1.1-3.4,1.5-4.8,1.5c-6,0-8.8-5.3-8.8-11.8c0-6.6,2.8-11.8,8.8-11.8c3,0,5.2,1.3,6.6,3.6c1.7,2.9,1.8,6.6,1.7,10.1H1359.9z
		 M1365.8,388.1c0-1.4-0.2-4.8-2.8-4.8c-1.9,0-3.1,1.6-3.1,4.8H1365.8z"/>
	<path class="st4" d="M1377.2,384.4h-2.4v-5h2.4V375h5.4v4.3h2.4v5h-2.4v17.7h-5.4V384.4z"/>
	<path class="st4" d="M1389.9,372.5h5.4v4.5h-5.4V372.5z M1389.9,379.4h5.4v22.7h-5.4V379.4z"/>
	<path class="st4" d="M1407,392.6c0,2.2,0.6,4.9,3,4.9c1.4,0,2.4-0.9,2.8-2.8h5.3c-0.4,3.2-1.7,5.2-3.3,6.4
		c-1.6,1.1-3.4,1.5-4.8,1.5c-6,0-8.8-5.3-8.8-11.8c0-6.6,2.8-11.8,8.8-11.8c3,0,5.2,1.3,6.6,3.6c1.7,2.9,1.8,6.6,1.7,10.1H1407z
		 M1412.9,388.1c0-1.4-0.2-4.8-2.8-4.8c-1.9,0-3.1,1.6-3.1,4.8H1412.9z"/>
	<path class="st4" d="M1423.7,379.4h4.6v2.2c0.9-1.6,2-2.6,4.8-2.6c3.6,0,5.9,2,5.9,6.6v16.6h-5.4v-14.8c0-1.6-0.4-3-2.2-3
		c-1.4,0-2.4,0.7-2.4,2.6v15.2h-5.4V379.4z"/>
	<path class="st4" d="M1453.8,386.1c-0.1-1.7-0.8-2.6-2.4-2.6c-1.2,0-1.9,0.7-1.9,1.8c0,1.9,2.6,2.1,5.1,2.9c2.6,0.8,5.1,2.3,5.1,7
		c0,4.2-3.4,7.4-8,7.4c-4.4,0-7.8-2.4-8.3-7.8h5.4c0.1,1.7,1.3,2.9,3.1,2.9c1.7,0,2.2-1.2,2.2-2.3c0-2-2.6-2.2-5.1-3
		c-2.6-0.9-5.1-2.4-5.1-6.9c0-3.8,2.6-6.6,7.8-6.6c5,0,7.3,2.8,7.6,7.2H1453.8z"/>
	<path class="st4" d="M1468.5,394.1c0-3.2-0.6-5.9,1.2-8.2c1.8-2.3,4.8-3.6,4.8-5.8c0-1.6-1-2.4-2.6-2.4c-1.3,0-2.4,0.9-2.4,2.8v1
		h-6.1V380c0-5.3,3.4-8,8.8-8c4.8,0,8.6,3.3,8.6,8.2c0,3.4-1.8,5.2-3.4,6.7c-3.2,2.8-3,2.6-3,7.2H1468.5z M1474.4,402.1h-5.9V396
		h5.9V402.1z"/>
</g>
<path class="st5" d="M1514.9,354.7H400.7c-4.9,0-8.8,3.9-8.8,8.8v51.4c0,4.9,3.9,8.8,8.8,8.8h501.5l56.5,36l54.7-36h501.5
	c4.9,0,8.8-3.9,8.8-8.8v-51.4C1523.7,358.6,1519.8,354.7,1514.9,354.7z"/>
</svg>
