<svg xmlns="http://www.w3.org/2000/svg" viewBox="0 0 43.77 43.77"><defs><style>.cls-1{fill:#105768;opacity:0.2;isolation:isolate;}.cls-2{fill:#fcc600;}</style></defs><title>game2b_case_b_actif</title><g id="Calque_2" data-name="Calque 2"><g id="cases_jeu2_etat_normal" data-name="cases jeu2_etat normal"><rect class="cls-1" y="7.45" width="36.32" height="36.32" rx="4.98" ry="4.98"/><rect class="cls-2" x="7.45" width="36.32" height="36.32" rx="4.98" ry="4.98"/><path d="M20.17,7.86H22v5.46c0,1.34,0,2.17-.06,2.89A4,4,0,0,1,25.85,13c3.2,0,5.09,3.28,5.09,7.9,0,4.81-2.06,8-5.09,8-1.75,0-3.15-.89-4-3.28,0,.92,0,1.78,0,2.92H20.17Zm8.91,13c0-3.26-1.14-6.07-3.51-6.07C23,14.79,22,17.85,22,20.88S23,27,25.57,27c2.37,0,3.51-2.81,3.51-6.1Z"/></g></g></svg>