<svg xmlns="http://www.w3.org/2000/svg" viewBox="0 0 57.4 40.09"><defs><style>.cls-1{fill:#fff;}</style></defs><title>game1bbis_flag2</title><g id="Calque_2" data-name="Calque 2"><g id="vignette_etape_jeu1" data-name="vignette etape jeu1"><path class="cls-1" d="M0,30.92q0-5.32,5.3-9.1,5-3.55,5-5.94V8.41q0-2.19-1.88-2.19h0q-1.9,0-1.9,2.19V13.9H0V8.41Q0,0,8.37,0t8.39,8.41V16q0,5.42-5.32,9.22-5,3.55-5,6.15v1.9H16.75v6.19H0Z"/><path class="cls-1" d="M35.35.6,27.6,39.48H22L29.78.6Z"/><path class="cls-1" d="M47.05,31.68q.06,2.19,2,2.19t2-2.19V25.2q0-1.84-.62-2.12a3.27,3.27,0,0,0-1.2-.16H46.82V16.73h2.78a1.9,1.9,0,0,0,.89-.16q.51-.29.5-2V8.41q-.06-2.19-2-2.19t-2,2.19V13.9H40.65V8.41Q40.65,0,49,0T57.4,8.41V14.6q0,4-2.6,5.3,2.6,1.34,2.6,5.3v6.48q0,8.41-8.37,8.41t-8.39-8.41V26.19h6.41Z"/></g></g></svg>