<svg xmlns="http://www.w3.org/2000/svg" xmlns:xlink="http://www.w3.org/1999/xlink" viewBox="0 0 1920 1080"><defs><style>.cls-1{fill:none;}.cls-2{isolation:isolate;}.cls-3{fill:#f7931e;}.cls-4{clip-path:url(#clip-path);}.cls-5{fill:#d8d8d8;}.cls-15,.cls-18,.cls-5{mix-blend-mode:multiply;}.cls-6{fill:#524538;}.cls-7{fill:#d6d8db;}.cls-8{opacity:0.17;}.cls-9{clip-path:url(#clip-path-2);}.cls-10{fill:#fff;}.cls-11{opacity:0.12;}.cls-12{clip-path:url(#clip-path-3);}.cls-13{clip-path:url(#clip-path-4);}.cls-14{fill:#fcc600;}.cls-15{fill:#d6d6d6;}.cls-16{fill:#4c4d49;}.cls-17{fill:#4e96b3;}.cls-18{fill:#e3e3e3;}.cls-19{fill:#fbb03b;}.cls-20{fill:#ffff1d;}.cls-21{fill:#333;}</style><clipPath id="clip-path"><rect class="cls-1" x="1661.22" y="-684.5" width="258.78" height="496.84"/></clipPath><clipPath id="clip-path-2"><rect class="cls-1" x="2046.33" width="1920" height="1080"/></clipPath><clipPath id="clip-path-3"><rect class="cls-1" x="2.65" y="-3.64" width="1920" height="1080"/></clipPath><clipPath id="clip-path-4"><rect class="cls-1" x="-2063.12" width="1920" height="1080"/></clipPath></defs><title>game1c_result_orange</title><g class="cls-2"><g id="backgrounds"><rect class="cls-3" width="1920" height="1080"/></g><g id="contenu"><g class="cls-4"><path class="cls-5" d="M2704.22-724.88l-115.85,8.3-.62-8.63-20.28,1.45-.83-11.59-43.45,3.11,1.45,20.21L2248-692.21l-62.28,4.46-456.19,32.68c-21.6,1.55-37.82,20.91-36.22,43.24L1747,137.61c1.6,22.33,20.41,39.18,42,37.64l365.68-26.19,5.21,72.74,43.45-3.11-5.21-72.74,47.07-3.37,62.28-4.46,456.2-32.68c21.6-1.55,37.82-20.9,36.22-43.24l-53.68-749.44C2744.63-709.58,2725.82-726.43,2704.22-724.88Z"/><path class="cls-6" d="M1733-595.08l53.68,749.44c1.6,22.33,20.41,39.18,42,37.63l974.67-69.81c21.6-1.55,37.81-20.91,36.22-43.24l-53.68-749.44c-1.6-22.33-20.41-39.18-42-37.64l-974.67,69.81C1747.65-636.77,1731.44-617.41,1733-595.08Z"/><path class="cls-7" d="M1793.75-558.1l47.79,667.21c1.42,19.88,18.17,34.88,37.4,33.51l867.73-62.15c19.23-1.38,33.67-18.61,32.24-38.5l-47.79-667.21c-1.42-19.88-18.17-34.88-37.4-33.51L1826-596.6C1806.76-595.22,1792.32-578,1793.75-558.1Z"/></g></g><g id="contenu_animé" data-name="contenu animé"><g class="cls-8"><g class="cls-9"><polygon class="cls-10" points="1194.61 875.16 3006.33 1080 1260.36 589.25 1194.61 875.16"/><polygon class="cls-10" points="1273.71 531.21 1275.89 525.87 3006.33 1080 1287.12 472.87 1273.71 531.21"/><polygon class="cls-10" points="1677.28 -157.49 3006.33 1080 1727.27 -219.34 1677.28 -157.49"/><polygon class="cls-10" points="1467.76 101.69 3006.33 1080 1669.06 -147.33 1467.76 101.69"/></g></g><g class="cls-11"><g class="cls-12"><polygon class="cls-10" points="385.61 2805.89 962.64 1076.36 119.61 2682.14 385.61 2805.89"/><polygon class="cls-10" points="-755.51 1686.46 962.64 1076.36 -821.75 1400.65 -755.51 1686.46"/><polygon class="cls-10" points="65.62 2657.02 60.84 2653.77 962.64 1076.36 11.34 2631.76 65.62 2657.02"/><polygon class="cls-10" points="1650.85 2754.33 1916.64 2630.12 962.64 1076.36 962.65 1076.36 1650.85 2754.33"/><polygon class="cls-10" points="-314.17 2377.9 962.64 1076.36 -499 2150.06 -314.17 2377.9"/><polygon class="cls-10" points="-536.51 2103.81 -539.38 2098.8 962.64 1076.36 -574.23 2057.32 -536.51 2103.81"/><polygon class="cls-10" points="2279.34 2329.14 2275.04 2332.98 962.64 1076.36 2241.71 2375.69 2279.34 2329.14"/><polygon class="cls-10" points="962.64 1076.36 962.64 1076.36 845.29 2891.32 1138.96 2891.07 962.64 1076.36 962.64 1076.36"/><polygon class="cls-10" points="2501.21 2054.66 962.64 1076.36 2316.78 2282.82 2501.21 2054.66"/><polygon class="cls-10" points="1591.35 2781.12 962.65 1076.36 1542.67 2804.9 1596.9 2779.55 1591.35 2781.12"/><polygon class="cls-10" points="-849.07 871.52 962.64 1076.36 -783.32 585.6 -849.07 871.52"/><polygon class="cls-10" points="2239.46 -225.19 962.64 1076.36 2424.29 2.65 2239.46 -225.19"/><polygon class="cls-10" points="-835.2 1342.64 -835.58 1336.88 962.64 1076.36 -848.72 1284.32 -835.2 1342.64"/><polygon class="cls-10" points="1664.69 -572.37 962.64 1076.36 1832.7 -476.36 1664.69 -572.37"/><polygon class="cls-10" points="2253.89 556.2 962.64 1076.36 2320.13 842 2253.89 556.2"/><polygon class="cls-10" points="2774.01 868.39 2760.49 810.07 2760.87 815.83 962.64 1076.36 2681.85 1683.49 2695.27 1625.14 2693.09 1630.49 962.65 1076.36 2708.61 1567.11 2774.36 1281.19 962.65 1076.36 2774.01 868.39"/><polygon class="cls-10" points="1539.68 -653.18 962.64 1076.36 1638.78 -607.08 1539.68 -653.18"/><polygon class="cls-10" points="2461.8 48.9 2464.67 53.91 962.64 1076.36 2499.52 95.39 2461.8 48.9"/><polygon class="cls-10" points="786.33 -738.36 962.64 1076.36 1080 -738.61 786.33 -738.36"/><polygon class="cls-10" points="-769.98 527.57 -767.8 522.22 962.64 1076.36 -756.56 469.22 -769.98 527.57"/><polygon class="cls-10" points="-366.41 -161.14 962.64 1076.36 -316.42 -222.98 -366.41 -161.14"/><polygon class="cls-10" points="-575.92 98.05 962.64 1076.36 -374.62 -150.98 -575.92 98.05"/><polygon class="cls-10" points="87.72 -514.36 962.64 1076.36 382.62 -652.18 87.72 -514.36"/><polygon class="cls-10" points="8.65 -477.41 962.64 1076.36 62.38 -502.52 8.65 -477.41"/></g></g><g class="cls-11"><g class="cls-13"><polygon class="cls-10" points="173.7 -221.54 -1103.12 1080 358.52 6.3 173.7 -221.54"/><polygon class="cls-10" points="188.13 559.84 -1103.12 1080 254.37 845.64 188.13 559.84"/><polygon class="cls-10" points="708.24 872.04 694.73 813.72 695.11 819.47 -1103.12 1080 616.09 1687.13 629.5 1628.79 627.32 1634.13 -1103.12 1080 642.85 1570.75 708.6 1284.84 -1103.12 1080 708.24 872.04"/><polygon class="cls-10" points="396.04 52.54 398.91 57.55 -1103.12 1080 433.76 99.04 396.04 52.54"/></g></g><path class="cls-14" d="M1120.74,494.13l-.42,1.58c-4.91-.28-1.31-1.91-5.88-1.8-1.91,2.15-7.52-.7-9.16.4,0-.18-2.17-.38-2-1.07-.75,1.19-2.3.17-3.72.41-.53.32.35.38.71.77l-3.23.27c-1.23-.46-1.51-1.19-.13-1.26-2.09-.21-6.18-.57-11.27-1s-11.19-.92-17.32-1.25c-12.26-.7-24.6-1.35-29.14-1.12,1.14,1,4,.39,5,1.89-2.41.72-3.51-.38-4.59.45-.86-2.19-5.24-.63-7-2.87l-.72,1.21-1.17-.78c-10.56,1-2.42.57-11.75.08-5.41.07-8,1.71-11,1,.45,0,1.63.79.22,1.08-.22-1.08-3.73.75-4.4-.34-1.37.13-5.81,0-4.32,1.44-.75-.74-4.7-1.07-2.34-1.69a11.45,11.45,0,0,0-3.59,0l1.71.42c-4.51.18-7-1-9.91.34l1.66.6c-2.7.08-5,.17-6-1.29l2.77-.43a49.7,49.7,0,0,0-10.9.84l1.33,0c-4.75,1.46-29.57,2.95-33.91,4.81l2,1.11-3.74,1c.44,0,1.75-3.7,2.13-3.33l-4.47.12-6.84.3-17.6.75-9.16.34c-3,.1-5.78.18-8.33.31-5.1.22-9.11.33-11,.23-3-.48-.62-1.77-.6-2-3.64.6-1.52,1.28-4.63,1.33-.86-.16.13-.9.6-1.08-1.36.2-2.64-.13-2.72.4,1.72.33,1.07,1.77,1.83,2.64l-4,.07.13-.89c-.89,0-2.13,2.53-6.08,2.24-3.32,0-6.77.11-10.22.3s-6.9.51-10.23.64c.07-.54,1.44-.95,2.82-1.36a8.9,8.9,0,0,1-3.09-.06c1.67.83-2.75.82-1.47,1.13-4.72,2.5-11.15,1-15.34,2.74-.12,1-1.79,9.5-3.36,18.05s-3.06,17.15-3,18.3a12.62,12.62,0,0,1-3-.06c.38.52,3,.6,4.31.19l.14-1.25c3.11-.65.79.68,3.85.39.24,1-2.56,1.42-5,1.69,2.24,0,4.53.54,5.35-.63,2.13.27-.14,1.25,2.42,1.51,1.78-.42,4.07-1.58,6.18-1.13l0,.18c5.1.69,7.59-2.08,12.26-1.37l-.47.37c1.66.47,4.81-.54,7.78-.12-.85-.15-1.62-.83.14-1.07,3.41.38,5.68-.31,8.19.34l2.31-1.11c2.94-.09,8-.39,14.24-.8l10-.68c3.5-.25,7.14-.52,10.78-.68,14.57-.75,29.16-1.6,35.08-1.79l-.46.16c9-.33,22.8-.61,36.66-.91,13.86-.1,27.81-.41,37.16-.92,2.87,1,6.86.9,9.87,1.24-1.67-.45-1.08-1.13.23-1.06,9.18.32.63-.66,9.94-.88,10.73-.82,51.66,1.91,61.09,3.32a31.86,31.86,0,0,1,8.31-.42,50.11,50.11,0,0,0,8.21.07l-.52.31c2.7-.1,11.61.63,20.63,1.42s18.13,1.74,21.26,1.71L1150,538c5.5-.48,4.63,1.06,8.86,1.91-.43-1.66,4.29-2.19,6.08-2.16l-.1.35c2.69,0,8.88-1,13.3-.73l-.25.87c3.76-.6,10.64.44,13.29.61,6,1,15.12,3.48,23.27,3.24l4.84,3.13.78-.16s.76-1.83,1.72-4.7a113.25,113.25,0,0,0,3.13-10.9,45.5,45.5,0,0,0,1.35-12.35c-.25-3.84-1.43-7.14-4-9.08l.28-.86-2.19-.15c-2.56-.75-3.86.15-3.59-.71l3.54.52c-2.59-.57-.71-.82.35-1.19a15.24,15.24,0,0,1-3-.81c-.55.28.33.41.72.64-1.44.15-3.48.76-5.14.16-2.66-.38,0-1.44-3.11-1.89-8.16-1.21-16.17-2.49-24.22-3.54s-16.13-2-24.41-2.58c-.35-.4.1-.35.59-.47-2.51,0-4.87-.16-7.17-.29s-4.55-.21-6.83-.18a3.89,3.89,0,0,1-1.88-1.45c.35.39-5.94.13-12.35-.25l-8.92-.54C1122.53,494.32,1120.84,494.18,1120.74,494.13Z"/><path class="cls-15" d="M446.6,292.85H1481.13a0,0,0,0,1,0,0V461a15.73,15.73,0,0,1-15.73,15.73H446.6A15.73,15.73,0,0,1,430.87,461V308.58A15.74,15.74,0,0,1,446.6,292.85Z"/><path class="cls-16" d="M699.29,500.91h4.59l3.81,15.78,3.88-15.78H716l-6.26,22.94h-4.16Z"/><path class="cls-16" d="M721.82,516.54c0,1.74.46,3.78,2.33,3.78,1.09,0,1.86-.68,2.17-2.17h4.12a7.09,7.09,0,0,1-2.54,4.93,6.45,6.45,0,0,1-3.75,1.15c-4.62,0-6.79-4.09-6.79-9.18s2.17-9.18,6.79-9.18a5.55,5.55,0,0,1,5.12,2.82c1.3,2.26,1.4,5.15,1.3,7.84Zm4.59-3.53c0-1.05-.16-3.72-2.2-3.72-1.46,0-2.39,1.24-2.39,3.72Z"/><path class="cls-16" d="M735.22,500.91h4.15v3.47h-4.15Zm0,5.33h4.15v17.61h-4.15Z"/><path class="cls-16" d="M745.07,500.91h4.16v22.94h-4.16Z"/><path class="cls-16" d="M754.93,500.91h4.16v22.94h-4.16Z"/><path class="cls-16" d="M768.14,516.54c0,1.74.46,3.78,2.33,3.78,1.09,0,1.86-.68,2.17-2.17h4.12a7.09,7.09,0,0,1-2.54,4.93,6.45,6.45,0,0,1-3.75,1.15c-4.62,0-6.79-4.09-6.79-9.18s2.17-9.18,6.79-9.18a5.55,5.55,0,0,1,5.12,2.82c1.3,2.26,1.4,5.15,1.3,7.84Zm4.59-3.53c0-1.05-.16-3.72-2.2-3.72-1.46,0-2.39,1.24-2.39,3.72Z"/><path class="cls-16" d="M780.17,520l6.45-9.8h-5.83v-3.91h10.79v3.91l-6.33,9.8h6.33v3.91H780.17Z"/><path class="cls-16" d="M817.86,523.86h-3.78v-1.67a3.47,3.47,0,0,1-3.41,2c-3.16,0-5.55-2.85-5.55-9.18,0-6,2-9.18,5.55-9.18a3.33,3.33,0,0,1,3.41,2.17v-1.8h3.78Zm-3-21.27-1.43,2.7-7.19-3.19,1.58-3.32Zm-5.61,12.5c0,3.88.87,5,2.26,5a1.81,1.81,0,0,0,1.64-.78c.53-.65.53-1.49.53-4.25s0-3.6-.53-4.25a1.81,1.81,0,0,0-1.64-.78c-1.39,0-2.26,1.12-2.26,5Z"/><path class="cls-16" d="M832.56,506.25h3.78v2.29c.62-2.2,2.17-2.67,4.46-2.67V511a3.12,3.12,0,0,0-1.83-.53c-1.55,0-2.26,1.3-2.26,3.1v10.29h-4.15Z"/><path class="cls-16" d="M847.44,516.54c0,1.74.46,3.78,2.33,3.78,1.09,0,1.86-.68,2.17-2.17h4.12a7.09,7.09,0,0,1-2.54,4.93,6.45,6.45,0,0,1-3.75,1.15c-4.62,0-6.79-4.09-6.79-9.18s2.17-9.18,6.79-9.18a5.55,5.55,0,0,1,5.12,2.82c1.3,2.26,1.4,5.15,1.3,7.84ZM852,513c0-1.05-.16-3.72-2.2-3.72-1.46,0-2.39,1.24-2.39,3.72Z"/><path class="cls-16" d="M867,511.46c-.06-1.3-.59-2-1.86-2a1.32,1.32,0,0,0-1.49,1.36c0,1.49,2,1.61,4,2.23s4,1.8,4,5.4c0,3.29-2.6,5.77-6.23,5.77-3.38,0-6-1.86-6.42-6h4.16a2.26,2.26,0,0,0,2.39,2.23,1.57,1.57,0,0,0,1.71-1.77c0-1.52-2-1.67-4-2.33s-4-1.86-4-5.36c0-2.95,2-5.12,6-5.12s5.64,2.17,5.89,5.58Z"/><path class="cls-16" d="M875.4,506.25h3.78v1.67a3.52,3.52,0,0,1,3.41-2c3.16,0,5.55,2.85,5.55,9.18,0,6-2,9.18-5.55,9.18a3.38,3.38,0,0,1-3-1.67v6.88H875.4ZM884,515c0-3.88-.81-5-2.26-5a1.74,1.74,0,0,0-1.52.78c-.53.65-.65,1.49-.65,4.25s.12,3.6.65,4.25a1.74,1.74,0,0,0,1.52.78c1.46,0,2.26-1.12,2.26-5Z"/><path class="cls-16" d="M895.92,516.54c0,1.74.46,3.78,2.33,3.78,1.08,0,1.86-.68,2.17-2.17h4.12a7.09,7.09,0,0,1-2.54,4.93,6.45,6.45,0,0,1-3.75,1.15c-4.62,0-6.79-4.09-6.79-9.18s2.17-9.18,6.79-9.18a5.55,5.55,0,0,1,5.12,2.82c1.3,2.26,1.4,5.15,1.3,7.84Zm4.59-3.53c0-1.05-.16-3.72-2.2-3.72-1.46,0-2.39,1.24-2.39,3.72Z"/><path class="cls-16" d="M920.35,517.16c0,3.6-1.8,7.07-5.67,7.07-4.19,0-6.82-3.29-6.82-9.18s2.64-9.18,6.82-9.18c3.88,0,5.67,3.41,5.67,7.07H916c0-2.11-.56-3.16-1.64-3.16a1.58,1.58,0,0,0-1.55,1.12,10.7,10.7,0,0,0-.56,4.15c0,4,.78,5.27,2.11,5.27s1.64-1.43,1.64-3.16Z"/><path class="cls-16" d="M924.31,510.15h-1.86v-3.91h1.86V502.9h4.16v3.35h1.86v3.91h-1.86v13.7h-4.16Z"/><path class="cls-16" d="M937.21,516.54c0,1.74.46,3.78,2.33,3.78,1.09,0,1.86-.68,2.17-2.17h4.12a7.09,7.09,0,0,1-2.54,4.93,6.45,6.45,0,0,1-3.75,1.15c-4.62,0-6.79-4.09-6.79-9.18s2.17-9.18,6.79-9.18a5.55,5.55,0,0,1,5.12,2.82c1.3,2.26,1.4,5.15,1.3,7.84ZM941.8,513c0-1.05-.16-3.72-2.2-3.72-1.46,0-2.39,1.24-2.39,3.72Z"/><path class="cls-16" d="M950.17,506.25H954v2.29c.62-2.2,2.17-2.67,4.46-2.67V511a3.12,3.12,0,0,0-1.83-.53c-1.55,0-2.26,1.3-2.26,3.1v10.29h-4.15Z"/><path class="cls-16" d="M972,500.91h4.16v22.94H972Z"/><path class="cls-16" d="M985.23,516.54c0,1.74.46,3.78,2.33,3.78,1.08,0,1.86-.68,2.17-2.17h4.12a7.09,7.09,0,0,1-2.54,4.93,6.45,6.45,0,0,1-3.75,1.15c-4.62,0-6.79-4.09-6.79-9.18s2.17-9.18,6.79-9.18a5.55,5.55,0,0,1,5.12,2.82c1.3,2.26,1.4,5.15,1.3,7.84Zm4.59-3.53c0-1.05-.16-3.72-2.2-3.72-1.46,0-2.39,1.24-2.39,3.72Z"/><path class="cls-16" d="M1019.52,517.16c0,3.6-1.8,7.07-5.67,7.07-4.19,0-6.82-3.29-6.82-9.18s2.63-9.18,6.82-9.18c3.88,0,5.67,3.41,5.67,7.07h-4.34c0-2.11-.56-3.16-1.64-3.16a1.58,1.58,0,0,0-1.55,1.12,10.7,10.7,0,0,0-.56,4.15c0,4,.78,5.27,2.11,5.27s1.64-1.43,1.64-3.16Z"/><path class="cls-16" d="M1035,523.86h-3.78v-1.67a3.47,3.47,0,0,1-3.41,2c-3.16,0-5.55-2.85-5.55-9.18,0-6,2-9.18,5.55-9.18a3.33,3.33,0,0,1,3.41,2.17v-1.8H1035Zm-8.59-8.77c0,3.88.87,5,2.26,5a1.81,1.81,0,0,0,1.64-.78c.53-.65.53-1.49.53-4.25s0-3.6-.53-4.25a1.81,1.81,0,0,0-1.64-.78c-1.4,0-2.26,1.12-2.26,5Z"/><path class="cls-16" d="M1051.69,523.86h-3.78v-2a3.31,3.31,0,0,1-3.41,2.36c-3.16,0-5.55-2.85-5.55-9.18,0-6,2-9.18,5.55-9.18a3.1,3.1,0,0,1,3.07,1.86c0-.5,0-1,0-1.49v-5.33h4.15Zm-8.59-8.77c0,3.88.87,5,2.26,5a1.81,1.81,0,0,0,1.64-.78c.53-.65.53-1.49.53-4.25s0-3.6-.53-4.25a1.81,1.81,0,0,0-1.64-.78c-1.4,0-2.26,1.12-2.26,5Z"/><path class="cls-16" d="M1056.53,506.25h3.78v2.29c.62-2.2,2.17-2.67,4.46-2.67V511a3.12,3.12,0,0,0-1.83-.53c-1.55,0-2.26,1.3-2.26,3.1v10.29h-4.16Z"/><path class="cls-16" d="M1071.41,516.54c0,1.74.46,3.78,2.33,3.78,1.08,0,1.86-.68,2.17-2.17H1080a7.09,7.09,0,0,1-2.54,4.93,6.45,6.45,0,0,1-3.75,1.15c-4.62,0-6.79-4.09-6.79-9.18s2.17-9.18,6.79-9.18a5.55,5.55,0,0,1,5.12,2.82c1.3,2.26,1.4,5.15,1.3,7.84ZM1076,513c0-1.05-.16-3.72-2.2-3.72-1.46,0-2.39,1.24-2.39,3.72Z"/><path class="cls-16" d="M1098.81,524.79c0,3.29-1.67,5-4.71,5h-1.24V525.9h.25c1.12,0,1.55-.56,1.55-1.8V506.25h4.16Zm-4.16-23.87h4.16v3.47h-4.16Z"/><path class="cls-16" d="M1116,523.86h-3.75V522c-.53,1.43-1.43,2.23-3.6,2.23-2.79,0-4.56-1.55-4.56-5.12V506.25h4.15v11.5c0,1.21.28,2.33,1.74,2.33,1.08,0,1.86-.56,1.86-2V506.25H1116Z"/><path class="cls-16" d="M1120.82,506.25h3.78v2.29c.62-2.2,2.17-2.67,4.46-2.67V511a3.12,3.12,0,0,0-1.83-.53c-1.55,0-2.26,1.3-2.26,3.1v10.29h-4.15Z"/><path class="cls-16" d="M1132.82,500.91H1137v3.47h-4.15Zm0,5.33H1137v17.61h-4.15Z"/><path class="cls-16" d="M1154.15,523.86h-3.78v-2a3.31,3.31,0,0,1-3.41,2.36c-3.16,0-5.55-2.85-5.55-9.18,0-6,2-9.18,5.55-9.18a3.1,3.1,0,0,1,3.07,1.86c0-.5,0-1,0-1.49v-5.33h4.16Zm-8.59-8.77c0,3.88.87,5,2.26,5a1.81,1.81,0,0,0,1.64-.78c.53-.65.53-1.49.53-4.25s0-3.6-.53-4.25a1.81,1.81,0,0,0-1.64-.78c-1.39,0-2.26,1.12-2.26,5Z"/><path class="cls-16" d="M1159.42,500.91h4.15v3.47h-4.15Zm0,5.33h4.15v17.61h-4.15Z"/><path class="cls-16" d="M1180.75,529.44h-4.15v-5.58c0-.5,0-1,0-1.52a3.08,3.08,0,0,1-3.07,1.89c-3.6,0-5.55-3.22-5.55-9.18,0-6.33,2.39-9.18,5.55-9.18,1.64,0,3.07.9,3.29,2v-1.67h3.91Zm-8.59-14.36c0,3.88.87,5,2.26,5a1.81,1.81,0,0,0,1.64-.78c.53-.65.53-1.49.53-4.25s0-3.6-.53-4.25a1.81,1.81,0,0,0-1.64-.78c-1.4,0-2.26,1.12-2.26,5Z"/><path class="cls-16" d="M1197.49,523.86h-3.75V522c-.53,1.43-1.43,2.23-3.6,2.23-2.79,0-4.56-1.55-4.56-5.12V506.25h4.16v11.5c0,1.21.28,2.33,1.74,2.33,1.08,0,1.86-.56,1.86-2V506.25h4.15Z"/><path class="cls-16" d="M1206.1,516.54c0,1.74.46,3.78,2.33,3.78,1.09,0,1.86-.68,2.17-2.17h4.12a7.09,7.09,0,0,1-2.54,4.93,6.45,6.45,0,0,1-3.75,1.15c-4.62,0-6.79-4.09-6.79-9.18s2.17-9.18,6.79-9.18a5.55,5.55,0,0,1,5.12,2.82c1.3,2.26,1.4,5.15,1.3,7.84Zm4.59-3.53c0-1.05-.16-3.72-2.2-3.72-1.46,0-2.39,1.24-2.39,3.72Z"/><path class="cls-16" d="M1223.34,523.86h-4.16v-4.59h4.16Z"/><path class="cls-14" d="M455.61,284.85H1490.13a0,0,0,0,1,0,0v166.5a15.73,15.73,0,0,1-15.73,15.73H455.6a15.73,15.73,0,0,1-15.73-15.73V300.58a15.74,15.74,0,0,1,15.74-15.74Z"/><path class="cls-17" d="M691.83,372.14H679.89l-6.15-39-2.83-21.35h8.8l6.12,46.51L692,311.78h8.8L698,333.19Z"/><path class="cls-17" d="M732.93,360.42q0,12.67-12.52,12.7t-12.49-12.7V323.5q0-12.67,12.49-12.67t12.52,12.67Zm-8.71-36.91q0-4.06-3.78-4.09h-.06q-3.75,0-3.75,4.09v36.91q0,4.09,3.78,4.09t3.81-4.09Z"/><path class="cls-17" d="M767.53,360.42q0,12.67-12.52,12.7t-12.49-12.7V311.78h8.71v48.63q0,4.09,3.78,4.09t3.81-4.09V311.78h8.71Z"/><path class="cls-17" d="M777.13,323.5q0-12.67,12.49-12.67t12.52,12.67v8.12h-8.71V323.5q0-4.06-3.78-4.09h-.06q-3.75,0-3.75,4.09V329q0,4,8.15,9.87t8.15,13.94v7.63q0,12.7-12.49,12.7t-12.52-12.7V352.3h8.71v8.12q0,4.09,3.81,4.09t3.78-4.09v-6.89q0-4.37-8.15-10.21t-8.15-14.15Z"/><path class="cls-17" d="M830.18,311.78h8.71l8.24,35v-35h8.06v60.35h-8.71l-7.94-33.9v33.9h-8.37Z"/><path class="cls-17" d="M865.71,311.75h10.77v8.86l-3.29,11.2h-5.66l1.78-10.06h-3.6Z"/><path class="cls-17" d="M911.27,350.73l2.83,21.41h-8.8l-1.69-12.8h-8.89L893,372.14h-8.77l2.83-21.32,6.15-39h11.94Zm-8.8,0-3.32-25.1-3.32,25.1Z"/><path class="cls-17" d="M938.55,372.14H926.61l-6.15-39-2.83-21.35h8.8l6.12,46.51,6.15-46.51h8.8l-2.83,21.41Z"/><path class="cls-17" d="M955.25,311.78h22.58v8.58H964v17.29h11.94v8.61H964v17.29h13.87v8.58H955.25Z"/><path class="cls-17" d="M1006.9,317l-11.81,46.54h12.34v8.58H985.27v-5.23l11.81-46.54H985.67v-8.58h21.22Z"/><path class="cls-17" d="M1034.55,311.78h12.67q11.6,0,11.6,12.7v9.07q0,9.35-8.34,12.06a20,20,0,0,1-5.81.65h-1.41v25.87h-8.71Zm8.71,8.58v17.29h2a8.39,8.39,0,0,0,2.49-.25,3.74,3.74,0,0,0,2.37-3.85v-9.07q0-4.12-3.78-4.12Z"/><path class="cls-17" d="M1089.42,350.73l2.83,21.41h-8.8l-1.69-12.8h-8.89l-1.72,12.8h-8.77l2.83-21.32,6.15-39h11.94Zm-8.8,0-3.32-25.1-3.32,25.1Z"/><path class="cls-17" d="M1099.39,323.5q0-12.67,12.49-12.67t12.52,12.67v8.12h-8.71V323.5q0-4.06-3.78-4.09h-.06q-3.75,0-3.75,4.09V329q0,4,8.15,9.87t8.15,13.94v7.63q0,12.7-12.49,12.7t-12.52-12.7V352.3h8.71v8.12q0,4.09,3.81,4.09t3.78-4.09v-6.89q0-4.37-8.15-10.21t-8.15-14.15Z"/><path class="cls-17" d="M1152.45,311.78H1175v8.58h-13.87v17.29h11.94v8.61h-11.94v17.29H1175v8.58h-22.58Zm11-2.34h-4.83l4.37-7.78h6.83Z"/><path class="cls-17" d="M1206.56,311.78v8.58h-8.15v51.77h-8.71V320.37h-8.15v-8.58Z"/><path class="cls-17" d="M1214.61,311.78h22.58v8.58h-13.87v17.29h11.94v8.61h-11.94v17.29h13.87v8.58h-22.58Zm11-2.34h-4.83l4.37-7.78H1232Z"/><path class="cls-17" d="M590,425.82l2.83,21.41h-8.8l-1.69-12.8H573.5l-1.72,12.8H563l2.83-21.32,6.15-39h11.94Zm-8.8,0-3.32-25.1-3.32,25.1Z"/><path class="cls-17" d="M600,398.59q0-12.67,12.49-12.67T625,398.59v8.12h-8.71v-8.12q0-4.06-3.78-4.09h-.06q-3.75,0-3.75,4.09v5.48q0,4,8.15,9.87T625,427.88v7.63q0,12.7-12.49,12.7T600,435.51v-8.12h8.71v8.12q0,4.09,3.81,4.09t3.78-4.09v-6.89q0-4.37-8.15-10.21T600,404.25Z"/><path class="cls-17" d="M634.31,398.59q0-12.67,12.49-12.67t12.52,12.67v8.12h-8.71v-8.12q0-4.06-3.78-4.09h-.06q-3.75,0-3.75,4.09v5.48q0,4,8.15,9.87t8.15,13.94v7.63q0,12.7-12.49,12.7t-12.52-12.7v-8.12H643v8.12q0,4.09,3.81,4.09t3.78-4.09v-6.89q0-4.37-8.15-10.21t-8.15-14.15Z"/><path class="cls-17" d="M669.22,386.87H691.8v8.58H677.93v17.29h11.94v8.61H677.93v17.29H691.8v8.58H669.22Z"/><path class="cls-17" d="M720.87,392.1l-11.81,46.54h12.34v8.58H699.24V442l11.81-46.54H699.64v-8.58h21.22Z"/><path class="cls-17" d="M748.52,386.87h12.67q11.6,0,11.6,12.7v9.07q0,9.35-8.34,12.06a20,20,0,0,1-5.81.65h-1.41v25.87h-8.71Zm8.71,8.58v17.29h2a8.39,8.39,0,0,0,2.49-.25,3.74,3.74,0,0,0,2.37-3.85v-9.07q0-4.12-3.78-4.12Z"/><path class="cls-17" d="M781.77,386.87h12.67q11.6,0,11.6,12.7v9.07q0,8-6.86,10.49L809,447.23h-9.54l-7.84-26.55-1.11.15v26.39h-8.71Zm8.71,8.58v17.29h2a8.39,8.39,0,0,0,2.49-.25,3.74,3.74,0,0,0,2.37-3.85v-9.07q0-4.12-3.78-4.12Z"/><path class="cls-17" d="M816.4,386.87H839v8.58H825.11v17.29H837v8.61H825.11v17.29H839v8.58H816.4Zm11-2.34h-4.83l4.37-7.78h6.83Z"/><path class="cls-17" d="M872.36,435.51q0,12.67-12.52,12.7t-12.49-12.7V398.59q0-12.67,12.49-12.67t12.52,12.67v8.12h-8.71v-8.12q0-4.06-3.78-4.09h-.06q-3.75,0-3.75,4.09v36.91q0,4.09,3.78,4.09t3.81-4.09v-8.12h8.71Z"/><path class="cls-17" d="M882.11,386.87h8.71v60.35h-8.71Z"/><path class="cls-17" d="M900.87,398.59q0-12.67,12.49-12.67t12.52,12.67v8.12h-8.71v-8.12q0-4.06-3.78-4.09h-.06q-3.75,0-3.75,4.09v5.48q0,4,8.15,9.87t8.15,13.94v7.63q0,12.7-12.49,12.7t-12.52-12.7v-8.12h8.71v8.12q0,4.09,3.81,4.09t3.78-4.09v-6.89q0-4.37-8.15-10.21t-8.15-14.15Z"/><path class="cls-17" d="M978.32,435.51q0,12.67-12.52,12.7t-12.49-12.7V398.59q0-12.67,12.49-12.67t12.52,12.67Zm-8.71-36.91q0-4.06-3.78-4.09h-.06q-3.75,0-3.75,4.09v36.91q0,4.09,3.78,4.09t3.81-4.09Z"/><path class="cls-17" d="M1012.93,435.51q0,12.67-12.52,12.7t-12.49-12.7V386.87h8.71v48.63q0,4.09,3.78,4.09t3.81-4.09V386.87h8.71Z"/><path class="cls-17" d="M1041.44,386.87h8.71v60.35h-8.71Z"/><path class="cls-17" d="M1060.81,386.87h8.71l8.24,35v-35h8.06v60.35h-8.71l-7.94-33.9v33.9h-8.37Z"/><path class="cls-17" d="M1096.34,386.87h22.58v8.58H1105v17.29H1117v8.61H1105v25.87h-8.71Z"/><path class="cls-17" d="M1151.68,435.51q0,12.67-12.52,12.7t-12.49-12.7V398.59q0-12.67,12.49-12.67t12.52,12.67ZM1143,398.59q0-4.06-3.78-4.09h-.06q-3.75,0-3.75,4.09v36.91q0,4.09,3.78,4.09t3.81-4.09Z"/><path class="cls-17" d="M1161.58,386.87h12.67q11.6,0,11.6,12.7v9.07q0,8-6.86,10.49l9.78,28.09h-9.54l-7.84-26.55-1.11.15v26.39h-8.71Zm8.71,8.58v17.29h2a8.39,8.39,0,0,0,2.49-.25,3.74,3.74,0,0,0,2.37-3.85v-9.07q0-4.12-3.78-4.12Z"/><path class="cls-17" d="M1215.17,428.22l10.12-41.34H1234v60.35h-8.34V413.36l-7.44,33.87h-5.91l-7.66-33.87v33.87h-8.43V386.87h8.71Z"/><path class="cls-17" d="M1268.78,425.82l2.83,21.41h-8.8l-1.69-12.8h-8.89l-1.72,12.8h-8.77l2.83-21.32,6.15-39h11.94Zm-8.8,0-3.32-25.1-3.32,25.1Z"/><path class="cls-17" d="M1301,386.87v8.58h-8.15v51.77h-8.71V395.45h-8.15v-8.58Z"/><path class="cls-17" d="M1309.17,386.87h8.71v60.35h-8.71Z"/><path class="cls-17" d="M1328.55,386.87h22.58v8.58h-13.87v17.29h11.94v8.61h-11.94v25.87h-8.71Z"/><path class="cls-17" d="M1352,437.23h10v10h-10Z"/><path class="cls-18" d="M1574.81,769.11l-2.35-1.58a16.59,16.59,0,0,0-23,4.5l-19.24,28.6h0l-19.24,28.6a16.59,16.59,0,0,0,4.51,23h0l2.35,1.58a12.39,12.39,0,0,0-.68,3.91,12.53,12.53,0,0,0,3.58,8.75,12.7,12.7,0,0,0,2,1.62l2.82,1.9c-.16.11-.36.14-.47.31l-3.22,4.78-7.85-5.28a6.24,6.24,0,1,0-7,10.35l87.55,58.91h0a6.24,6.24,0,1,0,7-10.35h0L1549,893.41l3.22-4.78c.12-.17.07-.37.11-.56l72.19,48.57h0a9.61,9.61,0,0,0,13.05-2.24l178.62,120.17h0l6.7-10,5.59,3.76a7.72,7.72,0,0,0,10.71-2.1l35-52a7.71,7.71,0,0,0-2.1-10.71l-5.59-3.76,6.7-10L1694.56,849.67a9.61,9.61,0,0,0-2.85-12.94l-101.84-68.52A12.48,12.48,0,0,0,1574.81,769.11Z"/><path class="cls-14" d="M1639,698h100a1.08,1.08,0,0,1,1.08,1.08v378a0,0,0,0,1,0,0H1638a0,0,0,0,1,0,0v-378A1.08,1.08,0,0,1,1639,698Z" transform="translate(9.85 1793.5) rotate(-56.07)"/><path class="cls-19" d="M1813.19,990.09h78.12a0,0,0,0,1,0,0v14a.5.5,0,0,1-.5.5H1813.7a.5.5,0,0,1-.5-.5v-14A0,0,0,0,1,1813.19,990.09Z" transform="translate(-9.14 1977.48) rotate(-56.07)"/><path class="cls-16" d="M1548.17,760.26H1667a.81.81,0,0,1,.81.81V904.52a.63.63,0,0,1-.63.63H1548a.63.63,0,0,1-.63-.63V761.07A.81.81,0,0,1,1548.17,760.26Z" transform="translate(19.32 1701.69) rotate(-56.07)"/><path class="cls-16" d="M1554.59,868.49l-5.41,8.05-.14,0-27-18.18,0-.14,5.42-8.05.14,0,27,18.18Z"/><path class="cls-16" d="M1604.77,918.48h0a6.24,6.24,0,0,1-8.66,1.7l-87.56-58.91a6.24,6.24,0,0,1-1.69-8.66h0a6.24,6.24,0,0,1,8.66-1.69l87.56,58.9A6.24,6.24,0,0,1,1604.77,918.48Z"/><path class="cls-20" d="M1489.32,469.35a9.85,9.85,0,0,0,5.45,1.89C1493.56,470.11,1491.4,469.76,1489.32,469.35Z"/><path class="cls-20" d="M1489.25,469.33l.07,0,0,0Z"/><path class="cls-20" d="M1091.13,505.06l1.66-.18A7.63,7.63,0,0,0,1091.13,505.06Z"/><path class="cls-20" d="M859.72,469.66a5.47,5.47,0,0,0,3.91,1.59C862.76,470.2,861.21,470,859.72,469.66Z"/><path class="cls-20" d="M859.69,469.64h0Z"/><path class="cls-20" d="M574.1,505.09a4,4,0,0,0-1.2.1Z"/><path class="cls-20" d="M1386.31,884.31l2.94,9.51c0,3.25,0,6.66,0,10.26,0,3.33,0,6.84,0,10.57.07-2.51.12-5.54.16-8.94,0-3.64.05-7.67.08-11.92l-5.63-17.73Z"/><path class="cls-20" d="M1383.67,875.58l.15.48-.08-.27Z"/><path class="cls-20" d="M581.23,653.2c0,.42,0,.81,0,1.14C581.22,654,581.22,653.58,581.23,653.2Z"/><path class="cls-20" d="M699.13,930.11h0Z"/><path class="cls-20" d="M1323.75,933h0C1323.9,933.87,1324,934.16,1323.75,933Z"/><path class="cls-20" d="M631.28,930.51h0C631.33,930.94,631.36,931,631.28,930.51Z"/><path class="cls-20" d="M723.3,555.71h0S723.29,555.66,723.3,555.71Z"/><path class="cls-20" d="M724,559.41v0Z"/><path class="cls-20" d="M724,559.41v0h0Z"/><path class="cls-20" d="M724.13,559.89l.07.37-.06-.32Z"/><circle class="cls-20" cx="723.41" cy="556.25" transform="translate(-172.39 382.24) rotate(-26.57)"/><path class="cls-20" d="M724.14,559.94h0l-.11-.53h0Z"/><path class="cls-14" d="M1382.41,871.77a.27.27,0,0,1,0-.08l-.07-3.7q0-2,0-3.95c0-2.57,0-5,0-7.24-.11-3.49-.08,2.57-.09,5.33-.2-9.52-.37-22.84-.26-34.52,0-18.27.4-1.15.31-22.5q-.07-5-.13-10.05c0-1.09,0-2.18-.07-3.27l.05-18.32q.11-38.55.22-76.9,0-19.2.1-38.42c0-6.4.1-12.92-.08-19.44-.08-3.26-.21-6.53-.38-9.79s-.45-6.6-.47-9.31l-.09-14.36-.85.92c0-.31,0-.74,0-1.13v-5.95c0-.1,0-.28,0-.08v.18h0l.1-.27.11-.3a1.33,1.33,0,0,0,.07-.23l0-.27.05-.38,0-.24c0-.48,0-.75.06-1.06l0-.89v-7l-.05-3.16c0-1.08-.1-2.25-.16-3.21-.12-1.9-.17-3.86-.21-5.87V576c0-.2,0,0,0,.11a.43.43,0,0,0,0,.08s0,.05,0-.05a.39.39,0,0,0,0-.1l.09-.26c.05-.16.13-.41.13-.45.09-.38.12-.55.15-.73s.07-.5.08-.68l.08-1c.07-1.16.1-2.19.14-3.25.08-1.32.1-1.19.09-.32l0,1.81c0,.76,0,1.55-.13,2.65.09-1,.11-1.77.15-2.57l.07-2.29c0-1.64.07-2.34.08-5.54-.13-.89-.17-1.83-.37-2.67a9.39,9.39,0,0,0-1.06-2.36,9.27,9.27,0,0,0-3.84-3.42,9.65,9.65,0,0,0-2.45-.77,15.11,15.11,0,0,0-2.75-.14h-36.5l-42.56.09c-8.65-.1-11-.23-13.56-.32,2.56.1-40.38.13-84.4.23l-90.4.11-2.16.4c-16.56,0-19.21-.08-21.36-.18-1.07,0-2-.1-4.52-.12h-1v-.44h-.12v-1c-6.39.18-14.12.33-21.7.47l0,2.45-3.29.58-3.07.45c.06,0-.83.08-2.18.25l-4.95.59a46.51,46.51,0,0,1-6.63.58c-2.28.36-6.13.74-10.59,1.14s-9.57.57-14.31.92c-3.44.3,2.53-.07,5.11-.13-7.24.57-14.52.76-21.79,1.09-8.55,0-10.65-.12-1.37-.29-9.89.17-26.32.36-47.14-.36-10.41-.32-21.91-.91-34.23-1.67-6.16-.41-12.52-.85-19.06-1.36l-13-1.06v-.58l-6.66,0-.5,0v0l-38.92.25v-.09c-3.31-.37-6.26-.46-9.26-.55s-5.91-.12-8.83-.14H794.76v.53c-6.66.1-13.27.07-19.78,0-9.55-.08-18.86-.13-27.74-.09v.22h-5a5.66,5.66,0,0,0-.86-.17c-.42-.05-.54-.05-.74-.07l-1.67-.08-3-.09-5.7-.14-2.73-.08-1.46,0c-.89,0-1.78-.06-2.67-.13l0,.41h0l0,.13h0l0,.2s0-.05,0-.08v-.27l-.85,0c-1.64.07-3.38.1-5,.13l-9.48.09-8.28,0h-1.38l-.4,0-.6,0-1,0c-1.28,0-2.42,0-3.49,0,1,0,2.23.05,3.69.13l1.19.07.37,0,.19,0c.06,0,.17,0,0,0h11.93l9.52,0,2.05,0h.43l.25-.1.07,0h0l0,.07,0,.06.75,0v.16l-.64,0,.26.51.16.3.08.15s0,.1,0,.06v.15l0,0L723,557l-.37-.69a2.11,2.11,0,0,0-.63.25,3.11,3.11,0,0,0-1,.71l0,0-.15-.31h0l0,0,.1-.1.19-.2a3.59,3.59,0,0,1,.56-.37l-.54,0c-1.73.06-3.39.09-4.94.12l-8.27.05-6.59,0-2.91,0h-.29l-.21,0-.49,0-1.56,0c-1.79-.2-5.08-.26-9.2-.24l-6.7.06h-3.6c-.58,0-1.21,0-1.74,0l-.72,0-.28,0h.12s0,0,0,0v.59a11.43,11.43,0,0,1-1.05,4.53l-.26-5.29c-1.11,0-2.11,0-3.48.12l-.3,0-.42,0-.32,0a7.25,7.25,0,0,0-.74.17h0l-.23,0-.31,0-3.21-.05-5.8-.12-4.72.38-8.15,0c-16,.39-25.69.5-31.78.56l-2.12,0-2.18.08a17.76,17.76,0,0,0-1.94.19,15.65,15.65,0,0,0-1.67.27,20.62,20.62,0,0,0-2.64.7,15.2,15.2,0,0,0-1.88.72,20.73,20.73,0,0,0-2.75,1.46c-.44.29-.9.63-1.44,1l-.81.67-.49.42-.14.12a.23.23,0,0,1-.12.07c-.05,0-.08-.1-.12-.15l-.05-.07-.58-.77-1-1.26-.52-.68-.28-.37-.19-.24,0-.06,0,0s.1.09-.33-.38a5.94,5.94,0,0,0-6-1.55l-.74.24-.73.5a6.09,6.09,0,0,0-2.17,2.7,6.3,6.3,0,0,0-.46,2l0,.38v1.13q0,.81,0,1.7,0,1.78,0,3.84c0,2.75.06,5.89.09,9.38q.06,4.62.12,8.83c.06,1.42-.09,2.71-.13,4l-.22,4.37.62,3.9c-.15,1.7-.22,3.26-.29,4.79-.12,3-.15,5.87-.18,8.58,0,5.35,0,10.22,0,14.81,0,2.26,0,4.47-.11,6.55,0,.53,0,1-.06,1.54s0,1-.09,1.46l-.06.68,0,.33,0,.24-.19,1.36.07,1.31c.2,3.49.1,7.27.06,11.19.06-3.49.26-9,.26-.5-.14.83-.16,7.68.12,14.75l1.75.08c.16,7.22.28,12.78-.13,3.25.29,9.15.54,18,.84,24.58l-.29-11.74c1.09,30.87,1.32,47.68,2.12,67.75l-.13-11.4c.5,18.44.8,33.86.52,41.1l-.43-18.92c.31,15.29.45,27.53.56,39.14,0,5.79.1,11.48.06,17.2s-.15,11.61-.39,17.93c.16-3,.24-6,.35-9-.09,4.17-.26,10.62-.72,18.79s-1.16,18-1.88,29.09c-.36,5.53-.68,11.36-.9,17.41-.12,3-.18,6.11-.23,9.24q0,2.35,0,4.72t0,4.71q0,5.32,0,10.74a14.36,14.36,0,0,0,.29,4.12,7.42,7.42,0,0,0,.66,1.53l.19.32,0,.08c.42-.36.13-.08.23-.14l0,0,.12.2a4,4,0,0,0,.5.67,3.5,3.5,0,0,0,1.43.74c.28.1.53.22.84.29s.64.12,1,.16c1.42.05,2.88,0,4.32,0H609.5l-.2,0s-.2,0,.46.15c.34.07.47.09.62.11l.67.07c.76.06,1.41.1,2.07.13l1.94.07c.67,0,1.21,0,2,0l14.18-.21-.09-.46H632c0,.06,0,.12,0,.16a.83.83,0,0,1,0,.19h-.1s.07,0-.06,0l-.54-.21-.13-.05.07.44,3.36,0,.11-.46h2.63l7.69,0c1.28,0,2.56,0,3.86-.07,1,0,2-.09,3.17-.21h0l.59.06.9.05,1.62.06,3.07.06,3,0,1.44,0h1.13l.12-1.82.13-1.61c0-.2.05-.41.08-.6a.74.74,0,0,1,.05-.27h0l.29,4.32,1.78-.08.14.55c0,.36.57.07,1.17-.61l2.9-.06,5.8,0,10.37,0c6.3,0,11.29,0,14.6-.06-4.63-.08-9.24-.22-13.84-.36l12.92,0c4.33,0,8.64-.11,13.06-.36-1.59.1-4.73.4-7.82.66-2.51.2-5,.37-6.47.4,2.46,0,5.3,0,8.61-.06.92,0,1.88,0,2.88-.07s2-.07,3.11-.13c.54,0,1.07,0,1.66-.1l1.57-.13,3.12,0h7.21c1.23,0,2.52,0,3.69.11.61,0,1.12.08,1.78.16s1.52.16,2.26.2c3,.18,5.86.19,8.9.22l4.6,0h3a1.85,1.85,0,0,0,1-.13l1.25-.55.27-.12,67.41,0,38.87-.08,20-.07,10.07-.06,5,0,2.54,0,1.29,0,.68,0,.4,0,.37,0,.22,0H901c.14,2.41.53,1.68.85-.11l.57-.11c.6-.12,1.11-.25,1.62-.37l2.87-.76c1.86-.5,3.66-1,5.44-1.35a41.14,41.14,0,0,1,5.18-.83c.83-.07,1.58-.08,2.49-.07l2.88,0c7.61,0,15.09.52,22.56,1.14s14.9,1.37,22.25,1.91c3.68.26,7.33.49,10.95.63,1.81.08,3.61.14,5.4.17l2.67.06h1.1l-.65,0s-.23,0,.35.11l.55.07.41,0a3.7,3.7,0,0,0,.46,0h1.2l8.51,0,16.26,0,28.93.09,38.92.17c20.58.21,3.7.46,3.47.5,25,0,10.8-.27,32.09-.19,5.81.07-1.2.22-4.47.25,9.33,0,18,.11,18.7,0-11.67-.13-6.73-.47-11.67-.71l27.39.1-1.21.22c6.11,0,15.49-.56,42.39-.37L1252,930l15.88,0,7.88,0c1.27,0,2.62,0,3.71.13l.32,0h.09s0,0,0,0h0s0,0,0,0l.27.08.56.13.43.07c1,.14,1.67.14,2.4.18,2.78.09,5.34.05,8,.11s5.3,0,7.94,0l7.85-.13,1.52,0,.14,0,.49.09.25,0h.22V931h0l-.13,2.06,7.83,0h6.08l-.05-.28h0l.05.28h6.37v-.45l1.46,0,4.75.23c3.4.15,6.65.24,9.79.3,6.27.11,12.07.1,17.68,0l.1-3.09c9.27,1.84,11.14,4.34,9.62,6.83a11.85,11.85,0,0,0,2.51-.53l2.1,3.36,0,0-2.08-3.33.06,0,2.05,3.28,0,.07.06.09,0-.07.09.14h0l-.09-.15c.15-.26.3-.53.44-.81a11,11,0,0,0,.42-1.06,7.9,7.9,0,0,0,.38-2.69c0-.17,0-.34,0-.52l.13-.09a8,8,0,0,1-.09,2.44,9.09,9.09,0,0,1-1.15,2.87h0a9.1,9.1,0,0,0,1.15-2.87,8,8,0,0,0,.09-2.45,12,12,0,0,0,4.74-8.4c.78,1.23,1.56.91,2.27-2.11a73.62,73.62,0,0,0,1.29-10c.19-2.39.36-5.16.52-8.36l.22-5.13.1-2.82,0-1.47,0-2.21-1.81-6.13.57,1.07L1383,874.74l-.91-2.79,0-.11a.38.38,0,0,1,0-.12l-.18-9.18q-.06-4-.09-6.59c0-3.4,0-4.81.06-4.26l.06,10.23.07,5.1.1,4.7a.39.39,0,0,0,0,.11l0,.11.79,2.37-.78-2.37,0-.11a.39.39,0,0,1,0-.11c0-2,0-3.29-.06-4s0-1,0-.77l.22,4.77a.31.31,0,0,0,0,.09l0,.08,1.3,3.71-1.23-3.74ZM698.24,556h0Zm-29.33,6,.07.22h0l-.07-.22Zm54.49-5.82h0v0h0l0,.12h0c0,.09,0,.11,0,0,0,.09,0,.12,0,.11v-.12l0-.12v0h0Zm.16,0h0Zm-.11,0h0v-.06C723.47,556,723.46,556.09,723.45,556.21Zm0,0h0l0-.15h0Zm.69,3.54v-.06h0Zm16.51,2.32ZM1375.4,574h0C1375.51,574,1375.55,574,1375.4,574Zm-60.56,356.78s0,0,0,0l-.13,0-.22-.07.27,0h0s.07,0,.1,0v0h0C1315,930.86,1314.83,930.75,1314.84,930.77Zm60.41-333.57h0C1375.37,597.22,1375.36,597.22,1375.26,597.2Zm-.42-.09.34.07h0l-.34-.07Zm.13-23.29h0l.33.13h0Zm.12,0-.11,0h0Zm5.28,207.63s0,0,0,0ZM1314.1,930.58v0ZM736.45,562.06h0Zm-13.52-1.3,0,.32v.11h0v0l0-.15,0-.31L723,560Zm-.06.45v0h0Zm-1.67-3.39.5,1Zm1.25,2.54.43.87h0Zm.43.87h0l.22.46h0ZM615.78,925.53ZM900,927c0-.2,0-.42.05-.63Zm414.13,3.68,0,.11a.48.48,0,0,1,0-.11Zm0,0h0c0,.06,0,.1,0,.11Zm17.37-.16h0Zm49.06-324.15v0S1380.55,606.42,1380.55,606.4Zm0,0h0Zm-.12-.45,0-.17c0,.07,0,.14,0,.21v0h0Zm.08-.41s0,0,0,.09ZM742.18,556.1h0Zm-18.05,3.77v0l0-.21,0-.25v.06l0-.12v0h0v0l-.05-.28,0-.19c0,.18.06.36.1.54l.17.85C724.35,561,724.39,561.17,724.13,559.87Zm-.23-1.3,0-.24v-.07l-.09-.69,0-.22.06.45C723.82,558.08,723.86,558.32,723.9,558.57Zm-.39-2.88h0Zm0,0h0Zm-.15-.1v.11h0Zm0,.41v-.14h0V556s0,.06,0,.07Zm0,.07h.06l0,.15h0l0-.1v.1h-.08ZM721,557.35h0v0h0s0,.05,0,0l.1-.09a3,3,0,0,1,.95-.64,5.64,5.64,0,0,1,.55-.23h0a1.48,1.48,0,0,1,.07.13l.16.3.32.59,0,0-.27,3.07-.06.65v0l-.83-1.69L721,557.33v0l-.09-.19C720.33,556.05,720.84,557.07,721,557.35Zm-90,372.72h0Zm-.49-3.66.07.34s0,.07,0,.11C630.45,926.44,630.41,926.22,630.45,926.41Zm123.38,3.16.15-.07h0ZM1280,930l.09-.39A3.22,3.22,0,0,1,1280,930Zm44.11,3h-.06l-.06,0-.14-.1-.14-.1,0,0h0l.53,0,0,.25C1324.21,933,1324.15,933,1324.12,933Zm20.17-.46,0,0,0,.2,0,0Zm35.11,2.47a7.8,7.8,0,0,1-.37,2.72,11,11,0,0,1-.42,1.06c-.13.26-.27.5-.41.75l-2-3.28a12,12,0,0,0,3.22-1.65C1379.37,934.71,1379.39,934.84,1379.39,935Z"/><path class="cls-20" d="M1279.92,930.29h0s0,0,0,0h0Z"/><path class="cls-20" d="M722.66,556.26l0-.09,0-.09h-.43l-.4.21.75,0Z"/><polygon class="cls-20" points="723.43 556.38 723.43 556.38 723.43 556.37 723.43 556.37 723.43 556.38"/><path class="cls-20" d="M721,557.35c.15.3.29.59,0,0h0Z"/><path class="cls-16" d="M923.45,604.64h6.72c3.68,0,6,.95,7.14,2.28a8.89,8.89,0,0,1,2.1,6,9.55,9.55,0,0,1-.77,3.92,7,7,0,0,1-3,3.4l4.9,10.33h-6l-5.71-13.16c.59,0,.91,0,1.33,0a4.12,4.12,0,0,0,2.63-1,4,4,0,0,0,1.16-3,3.73,3.73,0,0,0-1.22-3.15,4.06,4.06,0,0,0-2.73-.7h-1.23v21h-5.32Z"/><path class="cls-16" d="M947.56,630.54h-5.39l7.07-25.9h4.9l7.35,25.9h-5.39l-1.33-4.94h-6Zm4.2-18.31-1.65,8.47h3.29Z"/><path class="cls-16" d="M972.76,604.64a8.64,8.64,0,0,1,6.09,2.17,9.44,9.44,0,0,1,0,12.53,8.64,8.64,0,0,1-6.09,2.17h-2v9h-5.32v-25.9Zm-2,12h2a2.8,2.8,0,0,0,2.31-.84,3.76,3.76,0,0,0,.77-2.7,3.8,3.8,0,0,0-.77-2.73,2.9,2.9,0,0,0-2.31-.81h-2Z"/><path class="cls-16" d="M993.62,604.64a8.64,8.64,0,0,1,6.09,2.17,9.44,9.44,0,0,1,0,12.53,8.64,8.64,0,0,1-6.09,2.17h-2v9h-5.32v-25.9Zm-2,12h2a2.8,2.8,0,0,0,2.31-.84,3.76,3.76,0,0,0,.77-2.7,3.8,3.8,0,0,0-.77-2.73,2.9,2.9,0,0,0-2.31-.81h-2Z"/><path class="cls-16" d="M1007.13,604.64h12.6v4.9h-7.28v5h7.28v4.9h-7.28v6.23h7.28v4.9h-12.6Z"/><path class="cls-16" d="M1026,604.64h5.32v21h6.79v4.9H1026Z"/><path class="cls-21" d="M689.43,680.65H692v17.58h8.42v2.14h-11Z"/><path class="cls-21" d="M712.16,700.37l-.21-1.78h-.09a5.27,5.27,0,0,1-4.33,2.11,4,4,0,0,1-4.33-4.07c0-3.42,3-5.29,8.51-5.27v-.29c0-1.17-.32-3.28-3.22-3.28a7.05,7.05,0,0,0-3.69,1.05l-.58-1.7a8.79,8.79,0,0,1,4.65-1.26c4.33,0,5.38,3,5.38,5.79V697a20,20,0,0,0,.23,3.39Zm-.38-7.23c-2.81-.06-6,.44-6,3.19a2.28,2.28,0,0,0,2.43,2.46,3.52,3.52,0,0,0,3.42-2.37,2.68,2.68,0,0,0,.15-.82Z"/><path class="cls-21" d="M727,679.6h2.57v20.77H727Z"/><path class="cls-21" d="M747.85,693.17c0,5.24-3.63,7.52-7,7.52-3.83,0-6.79-2.81-6.79-7.28,0-4.74,3.1-7.52,7-7.52S747.85,688.84,747.85,693.17Zm-11.23.15c0,3.1,1.78,5.44,4.3,5.44s4.3-2.31,4.3-5.5c0-2.4-1.2-5.44-4.24-5.44S736.62,690.63,736.62,693.32Z"/><path class="cls-21" d="M755.13,682.23a1.59,1.59,0,0,1-3.19,0,1.57,1.57,0,0,1,1.61-1.61A1.53,1.53,0,0,1,755.13,682.23Zm-2.87,18.14V686.21h2.57v14.16Z"/><path class="cls-21" d="M767.65,690.83c0-1.81-.06-3.28-.12-4.62h2.31l.12,2.43H770a5.57,5.57,0,0,1,5-2.75c3.42,0,6,2.9,6,7.2,0,5.09-3.1,7.61-6.44,7.61a5,5,0,0,1-4.36-2.22h-.06v7.69h-2.54Zm2.54,3.77a5.79,5.79,0,0,0,.12,1.05,4,4,0,0,0,3.86,3c2.72,0,4.3-2.22,4.3-5.47,0-2.84-1.49-5.27-4.21-5.27a4.11,4.11,0,0,0-3.89,3.19,4.17,4.17,0,0,0-.18,1.05Z"/><path class="cls-21" d="M797.31,696.51c0,1.46,0,2.75.12,3.86h-2.28l-.15-2.31h-.06a5.33,5.33,0,0,1-4.68,2.63c-2.22,0-4.88-1.23-4.88-6.2v-8.28H788V694c0,2.69.82,4.5,3.16,4.5a3.72,3.72,0,0,0,3.39-2.34,3.76,3.76,0,0,0,.23-1.32v-8.69h2.57Z"/><path class="cls-21" d="M802.76,690c0-1.46,0-2.66-.12-3.83h2.28l.15,2.34h.06a5.21,5.21,0,0,1,4.68-2.66c2,0,5,1.17,5,6v8.45h-2.57v-8.16c0-2.28-.85-4.18-3.28-4.18a3.66,3.66,0,0,0-3.45,2.63,3.69,3.69,0,0,0-.18,1.2v8.51h-2.57Z"/><path class="cls-21" d="M823,682.23a1.59,1.59,0,0,1-3.19,0,1.57,1.57,0,0,1,1.61-1.61A1.53,1.53,0,0,1,823,682.23Zm-2.87,18.14V686.21h2.57v14.16Z"/><path class="cls-21" d="M831.28,682.14v4.07H835v2h-3.69v7.63c0,1.76.5,2.75,1.93,2.75a5.71,5.71,0,0,0,1.49-.18l.12,1.93a6.3,6.3,0,0,1-2.28.35,3.57,3.57,0,0,1-2.78-1.08c-.73-.76-1-2-1-3.69v-7.72h-2.19v-2h2.19v-3.39Z"/><path class="cls-21" d="M849.5,682.14v4.07h3.69v2H849.5v7.63c0,1.76.5,2.75,1.93,2.75a5.71,5.71,0,0,0,1.49-.18l.12,1.93a6.3,6.3,0,0,1-2.28.35,3.57,3.57,0,0,1-2.78-1.08c-.73-.76-1-2-1-3.69v-7.72h-2.19v-2H847v-3.39Z"/><path class="cls-21" d="M869.89,693.17c0,5.24-3.63,7.52-7,7.52-3.83,0-6.79-2.81-6.79-7.28,0-4.74,3.1-7.52,7-7.52S869.89,688.84,869.89,693.17Zm-11.23.15c0,3.1,1.78,5.44,4.3,5.44s4.3-2.31,4.3-5.5c0-2.4-1.2-5.44-4.24-5.44S858.66,690.63,858.66,693.32Z"/><path class="cls-21" d="M886.15,696.51c0,1.46,0,2.75.12,3.86H884l-.15-2.31h-.06a5.33,5.33,0,0,1-4.68,2.63c-2.22,0-4.88-1.23-4.88-6.2v-8.28h2.57V694c0,2.69.82,4.5,3.16,4.5a3.72,3.72,0,0,0,3.39-2.34,3.76,3.76,0,0,0,.23-1.32v-8.69h2.57Z"/><path class="cls-21" d="M894.69,682.14v4.07h3.69v2h-3.69v7.63c0,1.76.5,2.75,1.93,2.75a5.72,5.72,0,0,0,1.49-.18l.12,1.93a6.3,6.3,0,0,1-2.28.35,3.57,3.57,0,0,1-2.78-1.08c-.73-.76-1-2-1-3.69v-7.72H890v-2h2.19v-3.39Z"/><path class="cls-21" d="M903.7,693.76c.06,3.48,2.28,4.91,4.86,4.91a9.31,9.31,0,0,0,3.92-.73l.44,1.84a11.48,11.48,0,0,1-4.71.88c-4.36,0-7-2.87-7-7.14s2.52-7.63,6.64-7.63c4.62,0,5.85,4.07,5.85,6.67a9.69,9.69,0,0,1-.09,1.2Zm7.55-1.84c0-1.64-.67-4.18-3.57-4.18-2.6,0-3.74,2.4-3.95,4.18Z"/><path class="cls-21" d="M917.74,697.74a6.75,6.75,0,0,0,3.39,1c1.87,0,2.75-.94,2.75-2.11s-.73-1.9-2.63-2.6c-2.54-.91-3.74-2.31-3.74-4,0-2.28,1.84-4.15,4.88-4.15a7.07,7.07,0,0,1,3.48.88l-.64,1.87a5.51,5.51,0,0,0-2.9-.82c-1.52,0-2.37.88-2.37,1.93s.85,1.7,2.69,2.4c2.46.94,3.71,2.16,3.71,4.27,0,2.49-1.93,4.24-5.29,4.24a8.08,8.08,0,0,1-4-1Z"/><path class="cls-21" d="M938.48,700.37v-12.2h-2v-2h2v-.67a6.67,6.67,0,0,1,1.64-4.94,4.92,4.92,0,0,1,3.45-1.32,6,6,0,0,1,2.19.41l-.35,2a3.84,3.84,0,0,0-1.64-.32c-2.19,0-2.75,1.93-2.75,4.1v.76h3.42v2H941v12.2Z"/><path class="cls-21" d="M960.36,693.17c0,5.24-3.63,7.52-7,7.52-3.83,0-6.79-2.81-6.79-7.28,0-4.74,3.1-7.52,7-7.52S960.36,688.84,960.36,693.17Zm-11.23.15c0,3.1,1.78,5.44,4.3,5.44s4.3-2.31,4.3-5.5c0-2.4-1.2-5.44-4.24-5.44S949.13,690.63,949.13,693.32Z"/><path class="cls-21" d="M964.78,690.63c0-1.67,0-3.1-.12-4.42h2.25L967,689h.12a4.25,4.25,0,0,1,3.92-3.1,2.77,2.77,0,0,1,.73.09v2.43a3.85,3.85,0,0,0-.88-.09c-1.81,0-3.1,1.38-3.45,3.31a7.23,7.23,0,0,0-.12,1.2v7.55h-2.54Z"/><path class="cls-21" d="M975.64,690c0-1.46,0-2.66-.12-3.83h2.25l.12,2.28H978a4.88,4.88,0,0,1,4.45-2.6,4.18,4.18,0,0,1,4,2.84h.06a5.83,5.83,0,0,1,1.58-1.84,4.83,4.83,0,0,1,3.13-1c1.87,0,4.65,1.23,4.65,6.14v8.34h-2.52v-8c0-2.72-1-4.36-3.07-4.36a3.33,3.33,0,0,0-3,2.34,4.23,4.23,0,0,0-.21,1.29v8.75H984.5v-8.48c0-2.25-1-3.89-3-3.89a3.83,3.83,0,0,0-3.39,3.83v8.54h-2.52Z"/><path class="cls-21" d="M1002.63,693.76c.06,3.48,2.28,4.91,4.86,4.91a9.31,9.31,0,0,0,3.92-.73l.44,1.84a11.48,11.48,0,0,1-4.71.88c-4.36,0-7-2.87-7-7.14s2.52-7.63,6.64-7.63c4.62,0,5.85,4.07,5.85,6.67a9.69,9.69,0,0,1-.09,1.2Zm7.55-1.84c0-1.64-.67-4.18-3.57-4.18-2.6,0-3.74,2.4-3.95,4.18Z"/><path class="cls-21" d="M1016.68,697.74a6.75,6.75,0,0,0,3.39,1c1.87,0,2.75-.94,2.75-2.11s-.73-1.9-2.63-2.6c-2.54-.91-3.74-2.31-3.74-4,0-2.28,1.84-4.15,4.88-4.15a7.07,7.07,0,0,1,3.48.88l-.64,1.87a5.51,5.51,0,0,0-2.9-.82c-1.52,0-2.37.88-2.37,1.93s.85,1.7,2.69,2.4c2.46.94,3.71,2.16,3.71,4.27,0,2.49-1.93,4.24-5.29,4.24a8.08,8.08,0,0,1-4-1Z"/><path class="cls-21" d="M1049.38,679.6v17.11c0,1.26,0,2.69.12,3.66h-2.31l-.12-2.46H1047a5.24,5.24,0,0,1-4.83,2.78c-3.42,0-6.06-2.9-6.06-7.2,0-4.71,2.9-7.61,6.35-7.61a4.73,4.73,0,0,1,4.27,2.16h.06V679.6ZM1046.8,692a4.54,4.54,0,0,0-.12-1.08,3.78,3.78,0,0,0-3.71-3c-2.66,0-4.24,2.34-4.24,5.47,0,2.87,1.4,5.24,4.18,5.24a3.87,3.87,0,0,0,3.77-3.07,4.46,4.46,0,0,0,.12-1.11Z"/><path class="cls-21" d="M1056.25,693.76c.06,3.48,2.28,4.91,4.86,4.91a9.31,9.31,0,0,0,3.92-.73l.44,1.84a11.48,11.48,0,0,1-4.71.88c-4.36,0-7-2.87-7-7.14s2.52-7.63,6.64-7.63c4.62,0,5.85,4.07,5.85,6.67a9.69,9.69,0,0,1-.09,1.2Zm7.55-1.84c0-1.64-.67-4.18-3.57-4.18-2.6,0-3.74,2.4-3.95,4.18Z"/><path class="cls-21" d="M1090.24,679.6v17.11c0,1.26,0,2.69.12,3.66H1088l-.12-2.46h-.06a5.24,5.24,0,0,1-4.83,2.78c-3.42,0-6.06-2.9-6.06-7.2,0-4.71,2.9-7.61,6.35-7.61a4.73,4.73,0,0,1,4.27,2.16h.06V679.6ZM1087.67,692a4.54,4.54,0,0,0-.12-1.08,3.78,3.78,0,0,0-3.71-3c-2.66,0-4.24,2.34-4.24,5.47,0,2.87,1.4,5.24,4.18,5.24a3.87,3.87,0,0,0,3.77-3.07,4.46,4.46,0,0,0,.12-1.11Z"/><path class="cls-21" d="M1098.55,682.23a1.59,1.59,0,0,1-3.19,0,1.57,1.57,0,0,1,1.61-1.61A1.53,1.53,0,0,1,1098.55,682.23Zm-2.87,18.14V686.21h2.57v14.16Z"/><path class="cls-21" d="M1103.35,697.74a6.75,6.75,0,0,0,3.39,1c1.87,0,2.75-.94,2.75-2.11s-.73-1.9-2.63-2.6c-2.54-.91-3.74-2.31-3.74-4,0-2.28,1.84-4.15,4.88-4.15a7.07,7.07,0,0,1,3.48.88l-.64,1.87a5.51,5.51,0,0,0-2.9-.82c-1.52,0-2.37.88-2.37,1.93s.85,1.7,2.69,2.4c2.46.94,3.71,2.16,3.71,4.27,0,2.49-1.93,4.24-5.29,4.24a8.08,8.08,0,0,1-4-1Z"/><path class="cls-21" d="M1126.54,699.84a9.48,9.48,0,0,1-4.07.82c-4.27,0-7-2.9-7-7.23a7.19,7.19,0,0,1,7.61-7.52,8.6,8.6,0,0,1,3.57.73l-.58,2a6,6,0,0,0-3-.67c-3.25,0-5,2.4-5,5.35,0,3.28,2.11,5.29,4.91,5.29a7.31,7.31,0,0,0,3.16-.7Z"/><path class="cls-21" d="M1130.73,690.63c0-1.67,0-3.1-.12-4.42h2.25L1133,689h.12a4.25,4.25,0,0,1,3.92-3.1,2.77,2.77,0,0,1,.73.09v2.43a3.85,3.85,0,0,0-.88-.09c-1.81,0-3.1,1.38-3.45,3.31a7.24,7.24,0,0,0-.12,1.2v7.55h-2.54Z"/><path class="cls-21" d="M1144.45,682.23a1.59,1.59,0,0,1-3.19,0,1.57,1.57,0,0,1,1.61-1.61A1.53,1.53,0,0,1,1144.45,682.23Zm-2.87,18.14V686.21h2.57v14.16Z"/><path class="cls-21" d="M1149.6,690c0-1.46,0-2.66-.12-3.83h2.25l.12,2.28h.09a4.88,4.88,0,0,1,4.45-2.6,4.18,4.18,0,0,1,4,2.84h.06a5.83,5.83,0,0,1,1.58-1.84,4.83,4.83,0,0,1,3.13-1c1.87,0,4.65,1.23,4.65,6.14v8.34h-2.52v-8c0-2.72-1-4.36-3.07-4.36a3.33,3.33,0,0,0-3,2.34,4.23,4.23,0,0,0-.21,1.29v8.75h-2.52v-8.48c0-2.25-1-3.89-3-3.89a3.83,3.83,0,0,0-3.39,3.83v8.54h-2.52Z"/><path class="cls-21" d="M1178,682.23a1.59,1.59,0,0,1-3.19,0,1.57,1.57,0,0,1,1.61-1.61A1.53,1.53,0,0,1,1178,682.23Zm-2.87,18.14V686.21h2.57v14.16Z"/><path class="cls-21" d="M1183.18,690c0-1.46,0-2.66-.12-3.83h2.28l.15,2.34h.06a5.21,5.21,0,0,1,4.68-2.66c2,0,5,1.17,5,6v8.45h-2.57v-8.16c0-2.28-.85-4.18-3.28-4.18a3.66,3.66,0,0,0-3.45,2.63,3.69,3.69,0,0,0-.18,1.2v8.51h-2.57Z"/><path class="cls-21" d="M1208.42,700.37l-.21-1.78h-.09a5.27,5.27,0,0,1-4.33,2.11,4,4,0,0,1-4.33-4.07c0-3.42,3-5.29,8.51-5.27v-.29c0-1.17-.32-3.28-3.22-3.28a7.05,7.05,0,0,0-3.69,1.05l-.58-1.7a8.79,8.79,0,0,1,4.65-1.26c4.33,0,5.38,3,5.38,5.79V697a20,20,0,0,0,.23,3.39Zm-.38-7.23c-2.81-.06-6,.44-6,3.19a2.28,2.28,0,0,0,2.43,2.46,3.52,3.52,0,0,0,3.42-2.37,2.68,2.68,0,0,0,.15-.82Z"/><path class="cls-21" d="M1218.84,682.14v4.07h3.69v2h-3.69v7.63c0,1.76.5,2.75,1.93,2.75a5.71,5.71,0,0,0,1.49-.18l.12,1.93a6.3,6.3,0,0,1-2.28.35,3.57,3.57,0,0,1-2.78-1.08c-.73-.76-1-2-1-3.69v-7.72h-2.19v-2h2.19v-3.39Z"/><path class="cls-21" d="M1229.45,682.23a1.59,1.59,0,0,1-3.19,0,1.57,1.57,0,0,1,1.61-1.61A1.53,1.53,0,0,1,1229.45,682.23Zm-2.87,18.14V686.21h2.57v14.16Z"/><path class="cls-21" d="M1247.41,693.17c0,5.24-3.63,7.52-7,7.52-3.83,0-6.79-2.81-6.79-7.28,0-4.74,3.1-7.52,7-7.52S1247.41,688.84,1247.41,693.17Zm-11.23.15c0,3.1,1.78,5.44,4.3,5.44s4.3-2.31,4.3-5.5c0-2.4-1.2-5.44-4.24-5.44S1236.18,690.63,1236.18,693.32Z"/><path class="cls-21" d="M1251.83,690c0-1.46,0-2.66-.12-3.83H1254l.15,2.34h.06a5.21,5.21,0,0,1,4.68-2.66c2,0,5,1.17,5,6v8.45h-2.57v-8.16c0-2.28-.85-4.18-3.28-4.18a3.66,3.66,0,0,0-3.45,2.63,3.69,3.69,0,0,0-.18,1.2v8.51h-2.57Z"/><path class="cls-21" d="M1268.62,698.85a1.73,1.73,0,0,1,1.75-1.84,1.85,1.85,0,1,1-1.75,1.84Z"/><path class="cls-21" d="M621.36,750.48V770.2h-2.54V750.48Z"/><path class="cls-21" d="M627.19,749.43h2.57V770.2h-2.57Z"/><path class="cls-21" d="M644.06,763.58c.06,3.48,2.28,4.91,4.86,4.91a9.3,9.3,0,0,0,3.92-.73l.44,1.84a11.47,11.47,0,0,1-4.71.88c-4.36,0-7-2.87-7-7.14s2.52-7.63,6.64-7.63c4.62,0,5.85,4.07,5.85,6.67a9.69,9.69,0,0,1-.09,1.2Zm7.55-1.84c0-1.64-.67-4.18-3.57-4.18-2.6,0-3.74,2.4-3.95,4.18Z"/><path class="cls-21" d="M658.1,767.56a6.75,6.75,0,0,0,3.39,1c1.87,0,2.75-.94,2.75-2.11s-.73-1.9-2.63-2.6c-2.54-.91-3.74-2.31-3.74-4,0-2.28,1.84-4.15,4.88-4.15a7.06,7.06,0,0,1,3.48.88l-.64,1.87a5.51,5.51,0,0,0-2.9-.82c-1.52,0-2.37.88-2.37,1.93s.85,1.7,2.69,2.4c2.46.94,3.71,2.16,3.71,4.27,0,2.49-1.93,4.24-5.29,4.24a8.07,8.07,0,0,1-4-1Z"/><path class="cls-21" d="M674.31,752V756H678v2h-3.69v7.63c0,1.75.5,2.75,1.93,2.75a5.74,5.74,0,0,0,1.49-.18l.12,1.93a6.29,6.29,0,0,1-2.28.35,3.57,3.57,0,0,1-2.78-1.08c-.73-.76-1-2-1-3.69V758H669.6v-2h2.19v-3.39Z"/><path class="cls-21" d="M692.3,752.06a1.59,1.59,0,0,1-3.19,0,1.57,1.57,0,0,1,1.61-1.61A1.53,1.53,0,0,1,692.3,752.06Zm-2.87,18.14V756H692V770.2Z"/><path class="cls-21" d="M697.45,759.87c0-1.46,0-2.66-.12-3.83h2.28l.15,2.34h.06a5.21,5.21,0,0,1,4.68-2.66c2,0,5,1.17,5,6v8.45h-2.57V762c0-2.28-.85-4.18-3.28-4.18a3.66,3.66,0,0,0-3.45,2.63,3.7,3.7,0,0,0-.18,1.2v8.51h-2.57Z"/><path class="cls-21" d="M717.84,752V756h3.69v2h-3.69v7.63c0,1.75.5,2.75,1.93,2.75a5.74,5.74,0,0,0,1.49-.18l.12,1.93a6.29,6.29,0,0,1-2.28.35,3.57,3.57,0,0,1-2.78-1.08c-.73-.76-1-2-1-3.69V758h-2.19v-2h2.19v-3.39Z"/><path class="cls-21" d="M726.85,763.58c.06,3.48,2.28,4.91,4.86,4.91a9.3,9.3,0,0,0,3.92-.73l.44,1.84a11.47,11.47,0,0,1-4.71.88c-4.36,0-7-2.87-7-7.14s2.52-7.63,6.64-7.63c4.62,0,5.85,4.07,5.85,6.67a9.69,9.69,0,0,1-.09,1.2Zm7.55-1.84c0-1.64-.67-4.18-3.57-4.18-2.6,0-3.74,2.4-3.95,4.18Z"/><path class="cls-21" d="M741.24,760.46c0-1.67,0-3.1-.12-4.42h2.25l.09,2.78h.12a4.25,4.25,0,0,1,3.92-3.1,2.79,2.79,0,0,1,.73.09v2.43a3.85,3.85,0,0,0-.88-.09c-1.81,0-3.1,1.37-3.45,3.31a7.24,7.24,0,0,0-.12,1.2v7.55h-2.54Z"/><path class="cls-21" d="M763.91,749.43v17.11c0,1.26,0,2.69.12,3.66h-2.31l-.12-2.46h-.06a5.24,5.24,0,0,1-4.83,2.78c-3.42,0-6.06-2.9-6.06-7.2,0-4.71,2.9-7.6,6.35-7.6a4.73,4.73,0,0,1,4.27,2.16h.06v-8.45Zm-2.57,12.37a4.53,4.53,0,0,0-.12-1.08,3.79,3.79,0,0,0-3.71-3c-2.66,0-4.24,2.34-4.24,5.47,0,2.87,1.4,5.24,4.18,5.24a3.87,3.87,0,0,0,3.77-3.07,4.47,4.47,0,0,0,.12-1.11Z"/><path class="cls-21" d="M772.22,752.06a1.59,1.59,0,0,1-3.19,0,1.57,1.57,0,0,1,1.61-1.61A1.53,1.53,0,0,1,772.22,752.06Zm-2.87,18.14V756h2.57V770.2Z"/><path class="cls-21" d="M780.47,752V756h3.69v2h-3.69v7.63c0,1.75.5,2.75,1.93,2.75a5.74,5.74,0,0,0,1.49-.18l.12,1.93a6.29,6.29,0,0,1-2.28.35,3.57,3.57,0,0,1-2.78-1.08c-.73-.76-1-2-1-3.69V758h-2.19v-2H778v-3.39Z"/><path class="cls-21" d="M807.82,749.43v17.11c0,1.26,0,2.69.12,3.66h-2.31l-.12-2.46h-.06a5.24,5.24,0,0,1-4.83,2.78c-3.42,0-6.06-2.9-6.06-7.2,0-4.71,2.9-7.6,6.35-7.6a4.73,4.73,0,0,1,4.27,2.16h.06v-8.45Zm-2.57,12.37a4.53,4.53,0,0,0-.12-1.08,3.79,3.79,0,0,0-3.71-3c-2.66,0-4.24,2.34-4.24,5.47,0,2.87,1.4,5.24,4.18,5.24a3.87,3.87,0,0,0,3.77-3.07,4.47,4.47,0,0,0,.12-1.11Z"/><path class="cls-21" d="M814.69,763.58c.06,3.48,2.28,4.91,4.86,4.91a9.3,9.3,0,0,0,3.92-.73l.44,1.84a11.47,11.47,0,0,1-4.71.88c-4.36,0-7-2.87-7-7.14s2.52-7.63,6.64-7.63c4.62,0,5.85,4.07,5.85,6.67a9.69,9.69,0,0,1-.09,1.2Zm7.55-1.84c0-1.64-.67-4.18-3.57-4.18-2.6,0-3.74,2.4-3.95,4.18Z"/><path class="cls-21" d="M836.45,759.87c0-1.46,0-2.66-.12-3.83h2.25l.12,2.28h.09a4.88,4.88,0,0,1,4.45-2.6,4.18,4.18,0,0,1,4,2.84h.06a5.83,5.83,0,0,1,1.58-1.84,4.83,4.83,0,0,1,3.13-1c1.87,0,4.65,1.23,4.65,6.14v8.34h-2.52v-8c0-2.72-1-4.36-3.07-4.36a3.33,3.33,0,0,0-3,2.34,4.23,4.23,0,0,0-.21,1.29v8.75h-2.52v-8.48c0-2.25-1-3.89-3-3.89a3.83,3.83,0,0,0-3.39,3.83v8.54h-2.52Z"/><path class="cls-21" d="M863.45,763.58c.06,3.48,2.28,4.91,4.86,4.91a9.3,9.3,0,0,0,3.92-.73l.44,1.84a11.47,11.47,0,0,1-4.71.88c-4.36,0-7-2.87-7-7.14s2.52-7.63,6.64-7.63c4.62,0,5.85,4.07,5.85,6.67a9.69,9.69,0,0,1-.09,1.2Zm7.55-1.84c0-1.64-.67-4.18-3.57-4.18-2.6,0-3.74,2.4-3.95,4.18Z"/><path class="cls-21" d="M877.85,759.87c0-1.46,0-2.66-.12-3.83H880l.15,2.34h.06a5.21,5.21,0,0,1,4.68-2.66c2,0,5,1.17,5,6v8.45h-2.57V762c0-2.28-.85-4.18-3.28-4.18a3.66,3.66,0,0,0-3.45,2.63,3.7,3.7,0,0,0-.18,1.2v8.51h-2.57Z"/><path class="cls-21" d="M898.23,752V756h3.69v2h-3.69v7.63c0,1.75.5,2.75,1.93,2.75a5.74,5.74,0,0,0,1.49-.18l.12,1.93a6.29,6.29,0,0,1-2.28.35,3.57,3.57,0,0,1-2.78-1.08c-.73-.76-1-2-1-3.69V758h-2.19v-2h2.19v-3.39Z"/><path class="cls-21" d="M908.85,752.06a1.59,1.59,0,0,1-3.19,0,1.57,1.57,0,0,1,1.61-1.61A1.53,1.53,0,0,1,908.85,752.06ZM906,770.2V756h2.57V770.2Z"/><path class="cls-21" d="M926.81,763c0,5.24-3.63,7.52-7,7.52-3.83,0-6.79-2.81-6.79-7.28,0-4.74,3.1-7.52,7-7.52S926.81,758.67,926.81,763Zm-11.23.15c0,3.1,1.78,5.44,4.3,5.44s4.3-2.31,4.3-5.5c0-2.4-1.2-5.44-4.24-5.44S915.58,760.46,915.58,763.15Z"/><path class="cls-21" d="M931.23,759.87c0-1.46,0-2.66-.12-3.83h2.28l.15,2.34h.06a5.21,5.21,0,0,1,4.68-2.66c2,0,5,1.17,5,6v8.45h-2.57V762c0-2.28-.85-4.18-3.28-4.18a3.66,3.66,0,0,0-3.45,2.63,3.7,3.7,0,0,0-.18,1.2v8.51h-2.57Z"/><path class="cls-21" d="M948.64,759.87c0-1.46,0-2.66-.12-3.83h2.28l.15,2.34H951a5.21,5.21,0,0,1,4.68-2.66c2,0,5,1.17,5,6v8.45h-2.57V762c0-2.28-.85-4.18-3.28-4.18a3.66,3.66,0,0,0-3.45,2.63,3.7,3.7,0,0,0-.18,1.2v8.51h-2.57Z"/><path class="cls-21" d="M967.47,763.58c.06,3.48,2.28,4.91,4.86,4.91a9.3,9.3,0,0,0,3.92-.73l.44,1.84a11.47,11.47,0,0,1-4.71.88c-4.36,0-7-2.87-7-7.14s2.52-7.63,6.64-7.63c4.62,0,5.85,4.07,5.85,6.67a9.69,9.69,0,0,1-.09,1.2Zm7.55-1.84c0-1.64-.67-4.18-3.57-4.18-2.6,0-3.74,2.4-3.95,4.18Z"/><path class="cls-21" d="M981.87,760.46c0-1.67,0-3.1-.12-4.42H984l.09,2.78h.12a4.25,4.25,0,0,1,3.92-3.1,2.79,2.79,0,0,1,.73.09v2.43a3.85,3.85,0,0,0-.88-.09c-1.81,0-3.1,1.37-3.45,3.31a7.24,7.24,0,0,0-.12,1.2v7.55h-2.54Z"/><path class="cls-21" d="M1012.2,749.43v17.11c0,1.26,0,2.69.12,3.66H1010l-.12-2.46h-.06a5.24,5.24,0,0,1-4.83,2.78c-3.42,0-6.06-2.9-6.06-7.2,0-4.71,2.9-7.6,6.35-7.6a4.73,4.73,0,0,1,4.27,2.16h.06v-8.45Zm-2.57,12.37a4.53,4.53,0,0,0-.12-1.08,3.79,3.79,0,0,0-3.71-3c-2.66,0-4.24,2.34-4.24,5.47,0,2.87,1.4,5.24,4.18,5.24a3.87,3.87,0,0,0,3.77-3.07,4.47,4.47,0,0,0,.12-1.11Z"/><path class="cls-21" d="M1025.48,770.2l-.21-1.78h-.09a5.27,5.27,0,0,1-4.33,2.11,4,4,0,0,1-4.33-4.07c0-3.42,3-5.29,8.51-5.27v-.29c0-1.17-.32-3.28-3.22-3.28a7.05,7.05,0,0,0-3.69,1.05l-.58-1.7a8.78,8.78,0,0,1,4.65-1.26c4.33,0,5.38,3,5.38,5.79v5.29a20,20,0,0,0,.23,3.39Zm-.38-7.23c-2.81-.06-6,.44-6,3.19a2.28,2.28,0,0,0,2.43,2.46,3.52,3.52,0,0,0,3.42-2.37,2.68,2.68,0,0,0,.15-.82Z"/><path class="cls-21" d="M1032.91,759.87c0-1.46,0-2.66-.12-3.83h2.28l.15,2.34h.06a5.21,5.21,0,0,1,4.68-2.66c2,0,5,1.17,5,6v8.45h-2.57V762c0-2.28-.85-4.18-3.28-4.18a3.66,3.66,0,0,0-3.45,2.63,3.7,3.7,0,0,0-.18,1.2v8.51h-2.57Z"/><path class="cls-21" d="M1050,767.56a6.75,6.75,0,0,0,3.39,1c1.87,0,2.75-.94,2.75-2.11s-.73-1.9-2.63-2.6c-2.54-.91-3.74-2.31-3.74-4,0-2.28,1.84-4.15,4.88-4.15a7.06,7.06,0,0,1,3.48.88l-.64,1.87a5.51,5.51,0,0,0-2.9-.82c-1.52,0-2.37.88-2.37,1.93s.85,1.7,2.69,2.4c2.46.94,3.71,2.16,3.71,4.27,0,2.49-1.93,4.24-5.29,4.24a8.07,8.07,0,0,1-4-1Z"/><path class="cls-21" d="M1082.29,766.33c0,1.46,0,2.75.12,3.86h-2.28l-.15-2.31h-.06a5.33,5.33,0,0,1-4.68,2.63c-2.22,0-4.88-1.23-4.88-6.2V756h2.57v7.84c0,2.69.82,4.5,3.16,4.5a3.72,3.72,0,0,0,3.39-2.34,3.76,3.76,0,0,0,.23-1.32V756h2.57Z"/><path class="cls-21" d="M1087.73,759.87c0-1.46,0-2.66-.12-3.83h2.28l.15,2.34h.06a5.21,5.21,0,0,1,4.68-2.66c2,0,5,1.17,5,6v8.45h-2.57V762c0-2.28-.85-4.18-3.28-4.18a3.66,3.66,0,0,0-3.45,2.63,3.7,3.7,0,0,0-.18,1.2v8.51h-2.57Z"/><path class="cls-21" d="M1106.57,763.58c.06,3.48,2.28,4.91,4.86,4.91a9.3,9.3,0,0,0,3.92-.73l.44,1.84a11.47,11.47,0,0,1-4.71.88c-4.36,0-7-2.87-7-7.14s2.52-7.63,6.64-7.63c4.62,0,5.85,4.07,5.85,6.67a9.69,9.69,0,0,1-.09,1.2Zm7.55-1.84c0-1.64-.67-4.18-3.57-4.18-2.6,0-3.74,2.4-3.95,4.18Z"/><path class="cls-21" d="M1136.17,770.2l-.21-1.78h-.09a5.27,5.27,0,0,1-4.33,2.11,4,4,0,0,1-4.33-4.07c0-3.42,3-5.29,8.51-5.27v-.29c0-1.17-.32-3.28-3.22-3.28a7.05,7.05,0,0,0-3.69,1.05l-.58-1.7a8.78,8.78,0,0,1,4.65-1.26c4.33,0,5.38,3,5.38,5.79v5.29a20,20,0,0,0,.23,3.39Zm-.38-7.23c-2.81-.06-6,.44-6,3.19a2.28,2.28,0,0,0,2.43,2.46,3.52,3.52,0,0,0,3.42-2.37,2.68,2.68,0,0,0,.15-.82Z"/><path class="cls-21" d="M1143.6,759.87c0-1.46,0-2.66-.12-3.83h2.28l.15,2.34h.06a5.21,5.21,0,0,1,4.68-2.66c2,0,5,1.17,5,6v8.45h-2.57V762c0-2.28-.85-4.18-3.28-4.18a3.66,3.66,0,0,0-3.45,2.63,3.7,3.7,0,0,0-.18,1.2v8.51h-2.57Z"/><path class="cls-21" d="M1161,759.87c0-1.46,0-2.66-.12-3.83h2.28l.15,2.34h.06a5.21,5.21,0,0,1,4.68-2.66c2,0,5,1.17,5,6v8.45h-2.57V762c0-2.28-.85-4.18-3.28-4.18a3.66,3.66,0,0,0-3.45,2.63,3.7,3.7,0,0,0-.18,1.2v8.51H1161Z"/><path class="cls-21" d="M1191.22,763c0,5.24-3.63,7.52-7,7.52-3.83,0-6.79-2.81-6.79-7.28,0-4.74,3.1-7.52,7-7.52S1191.22,758.67,1191.22,763Zm-11.23.15c0,3.1,1.78,5.44,4.3,5.44s4.3-2.31,4.3-5.5c0-2.4-1.2-5.44-4.24-5.44S1180,760.46,1180,763.15Z"/><path class="cls-21" d="M1195.64,759.87c0-1.46,0-2.66-.12-3.83h2.28l.15,2.34h.06a5.21,5.21,0,0,1,4.68-2.66c2,0,5,1.17,5,6v8.45h-2.57V762c0-2.28-.85-4.18-3.28-4.18a3.66,3.66,0,0,0-3.45,2.63,3.7,3.7,0,0,0-.18,1.2v8.51h-2.57Z"/><path class="cls-21" d="M1223.13,769.67a9.48,9.48,0,0,1-4.07.82c-4.27,0-7-2.9-7-7.23a7.19,7.19,0,0,1,7.61-7.52,8.6,8.6,0,0,1,3.57.73l-.58,2a6,6,0,0,0-3-.67c-3.25,0-5,2.4-5,5.35,0,3.28,2.11,5.29,4.91,5.29a7.31,7.31,0,0,0,3.16-.7Z"/><path class="cls-21" d="M1228.58,763.58c.06,3.48,2.28,4.91,4.86,4.91a9.3,9.3,0,0,0,3.92-.73l.44,1.84a11.47,11.47,0,0,1-4.71.88c-4.36,0-7-2.87-7-7.14s2.52-7.63,6.64-7.63c4.62,0,5.85,4.07,5.85,6.67a9.69,9.69,0,0,1-.09,1.2Zm7.55-1.84c0-1.64-.67-4.18-3.57-4.18-2.6,0-3.74,2.4-3.95,4.18Z"/><path class="cls-21" d="M1250.34,749.43h2.57V770.2h-2.57Z"/><path class="cls-21" d="M1259.85,763.58c.06,3.48,2.28,4.91,4.86,4.91a9.3,9.3,0,0,0,3.92-.73l.44,1.84a11.47,11.47,0,0,1-4.71.88c-4.36,0-7-2.87-7-7.14s2.52-7.63,6.64-7.63c4.62,0,5.85,4.07,5.85,6.67a9.69,9.69,0,0,1-.09,1.2Zm7.55-1.84c0-1.64-.67-4.18-3.57-4.18-2.6,0-3.74,2.4-3.95,4.18Z"/><path class="cls-21" d="M1281.26,767.56a6.75,6.75,0,0,0,3.39,1c1.87,0,2.75-.94,2.75-2.11s-.73-1.9-2.63-2.6c-2.54-.91-3.74-2.31-3.74-4,0-2.28,1.84-4.15,4.88-4.15a7.06,7.06,0,0,1,3.48.88l-.64,1.87a5.51,5.51,0,0,0-2.9-.82c-1.52,0-2.37.88-2.37,1.93s.85,1.7,2.69,2.4c2.46.94,3.71,2.16,3.71,4.27,0,2.49-1.93,4.24-5.29,4.24a8.07,8.07,0,0,1-4-1Z"/><path class="cls-21" d="M1295.8,763.58c.06,3.48,2.28,4.91,4.86,4.91a9.3,9.3,0,0,0,3.92-.73l.44,1.84a11.47,11.47,0,0,1-4.71.88c-4.36,0-7-2.87-7-7.14s2.52-7.63,6.64-7.63c4.62,0,5.85,4.07,5.85,6.67a9.69,9.69,0,0,1-.09,1.2Zm7.55-1.84c0-1.64-.67-4.18-3.57-4.18-2.6,0-3.74,2.4-3.95,4.18Z"/><path class="cls-21" d="M1311.3,756l2,3c.53.79,1,1.52,1.43,2.31h.09c.47-.85.94-1.58,1.4-2.34l2-3H1321l-4.83,6.84,5,7.31h-2.92l-2.08-3.19c-.56-.82-1-1.61-1.52-2.46h-.06c-.47.85-1,1.61-1.49,2.46l-2,3.19h-2.84l5-7.23-4.8-6.93Z"/><path class="cls-21" d="M1325.81,763.58c.06,3.48,2.28,4.91,4.86,4.91a9.3,9.3,0,0,0,3.92-.73l.44,1.84a11.47,11.47,0,0,1-4.71.88c-4.36,0-7-2.87-7-7.14s2.52-7.63,6.64-7.63c4.62,0,5.85,4.07,5.85,6.67a9.69,9.69,0,0,1-.09,1.2Zm7.55-1.84c0-1.64-.67-4.18-3.57-4.18-2.6,0-3.74,2.4-3.95,4.18Z"/><path class="cls-21" d="M1338.18,773.79a42,42,0,0,0,1.75-7l2.87-.29a35.64,35.64,0,0,1-2.78,7.11Z"/><path class="cls-21" d="M651.47,784.34H654v20.77h-2.57Z"/><path class="cls-21" d="M667.38,805.11l-.21-1.78h-.09a5.27,5.27,0,0,1-4.33,2.11,4,4,0,0,1-4.33-4.07c0-3.42,3-5.29,8.51-5.27v-.29c0-1.17-.32-3.28-3.22-3.28a7.05,7.05,0,0,0-3.69,1.05l-.58-1.7a8.78,8.78,0,0,1,4.65-1.26c4.33,0,5.38,3,5.38,5.79v5.29a20,20,0,0,0,.23,3.39Zm-.38-7.23c-2.81-.06-6,.44-6,3.19a2.28,2.28,0,0,0,2.43,2.46,3.52,3.52,0,0,0,3.42-2.37,2.68,2.68,0,0,0,.15-.82Z"/><path class="cls-21" d="M681.83,802.48a6.75,6.75,0,0,0,3.39,1c1.87,0,2.75-.94,2.75-2.11s-.73-1.9-2.63-2.6c-2.54-.91-3.74-2.31-3.74-4,0-2.28,1.84-4.15,4.88-4.15a7.06,7.06,0,0,1,3.48.88l-.64,1.87a5.51,5.51,0,0,0-2.9-.82c-1.52,0-2.37.88-2.37,1.93s.85,1.7,2.69,2.4c2.46.94,3.71,2.16,3.71,4.27,0,2.49-1.93,4.24-5.29,4.24a8.07,8.07,0,0,1-4-1Z"/><path class="cls-21" d="M697.8,787a1.59,1.59,0,0,1-3.19,0,1.57,1.57,0,0,1,1.61-1.61A1.53,1.53,0,0,1,697.8,787Zm-2.87,18.14V791h2.57v14.16Z"/><path class="cls-21" d="M706.05,786.89V791h3.69v2h-3.69v7.63c0,1.75.5,2.75,1.93,2.75a5.74,5.74,0,0,0,1.49-.18l.12,1.93a6.29,6.29,0,0,1-2.28.35,3.57,3.57,0,0,1-2.78-1.08c-.73-.76-1-2-1-3.69v-7.72h-2.19v-2h2.19v-3.39Z"/><path class="cls-21" d="M725.65,801.25c0,1.46,0,2.75.12,3.86h-2.28l-.15-2.31h-.06a5.33,5.33,0,0,1-4.68,2.63c-2.22,0-4.88-1.23-4.88-6.2V791h2.57v7.84c0,2.69.82,4.5,3.16,4.5a3.72,3.72,0,0,0,3.39-2.34,3.76,3.76,0,0,0,.23-1.32V791h2.57Z"/><path class="cls-21" d="M738.93,805.11l-.21-1.78h-.09a5.27,5.27,0,0,1-4.33,2.11,4,4,0,0,1-4.33-4.07c0-3.42,3-5.29,8.51-5.27v-.29c0-1.17-.32-3.28-3.22-3.28a7.05,7.05,0,0,0-3.69,1.05l-.58-1.7a8.78,8.78,0,0,1,4.65-1.26c4.33,0,5.38,3,5.38,5.79v5.29a20,20,0,0,0,.23,3.39Zm-.38-7.23c-2.81-.06-6,.44-6,3.19a2.28,2.28,0,0,0,2.43,2.46,3.52,3.52,0,0,0,3.42-2.37,2.68,2.68,0,0,0,.15-.82Z"/><path class="cls-21" d="M749.34,786.89V791H753v2h-3.69v7.63c0,1.75.5,2.75,1.93,2.75a5.74,5.74,0,0,0,1.49-.18l.12,1.93a6.29,6.29,0,0,1-2.28.35,3.57,3.57,0,0,1-2.78-1.08c-.73-.76-1-2-1-3.69v-7.72h-2.19v-2h2.19v-3.39Z"/><path class="cls-21" d="M760,787a1.59,1.59,0,0,1-3.19,0,1.57,1.57,0,0,1,1.61-1.61A1.53,1.53,0,0,1,760,787Zm-2.87,18.14V791h2.57v14.16Z"/><path class="cls-21" d="M777.92,797.91c0,5.24-3.63,7.52-7,7.52-3.83,0-6.79-2.81-6.79-7.28,0-4.74,3.1-7.52,7-7.52S777.92,793.58,777.92,797.91Zm-11.23.15c0,3.1,1.78,5.44,4.3,5.44s4.3-2.31,4.3-5.5c0-2.4-1.2-5.44-4.24-5.44S766.69,795.37,766.69,798.06Z"/><path class="cls-21" d="M782.34,794.78c0-1.46,0-2.66-.12-3.83h2.28l.15,2.34h.06a5.21,5.21,0,0,1,4.68-2.66c2,0,5,1.17,5,6v8.45h-2.57v-8.16c0-2.28-.85-4.18-3.28-4.18a3.66,3.66,0,0,0-3.45,2.63,3.7,3.7,0,0,0-.18,1.2v8.51h-2.57Z"/><path class="cls-21" d="M807.38,805.11v-12.2h-2v-2h2v-.67a6.67,6.67,0,0,1,1.64-4.94,4.92,4.92,0,0,1,3.45-1.32,6,6,0,0,1,2.19.41l-.35,2a3.84,3.84,0,0,0-1.64-.32c-2.19,0-2.75,1.93-2.75,4.1V791h3.42v2h-3.42v12.2Z"/><path class="cls-21" d="M824.67,805.11l-.21-1.78h-.09a5.27,5.27,0,0,1-4.33,2.11,4,4,0,0,1-4.33-4.07c0-3.42,3-5.29,8.51-5.27v-.29c0-1.17-.32-3.28-3.22-3.28a7.05,7.05,0,0,0-3.69,1.05l-.58-1.7a8.78,8.78,0,0,1,4.65-1.26c4.33,0,5.38,3,5.38,5.79v5.29a20,20,0,0,0,.23,3.39Zm-.38-7.23c-2.81-.06-6,.44-6,3.19a2.28,2.28,0,0,0,2.43,2.46,3.52,3.52,0,0,0,3.42-2.37,2.68,2.68,0,0,0,.15-.82Z"/><path class="cls-21" d="M832.1,794.78c0-1.46,0-2.66-.12-3.83h2.25l.12,2.28h.09a4.88,4.88,0,0,1,4.45-2.6,4.18,4.18,0,0,1,4,2.84h.06a5.83,5.83,0,0,1,1.58-1.84,4.83,4.83,0,0,1,3.13-1c1.87,0,4.65,1.23,4.65,6.14v8.34h-2.52v-8c0-2.72-1-4.36-3.07-4.36a3.33,3.33,0,0,0-3,2.34,4.23,4.23,0,0,0-.21,1.29v8.75H841v-8.48c0-2.25-1-3.89-3-3.89a3.83,3.83,0,0,0-3.39,3.83v8.54H832.1Z"/><path class="cls-21" d="M860.53,787a1.59,1.59,0,0,1-3.19,0,1.57,1.57,0,0,1,1.61-1.61A1.53,1.53,0,0,1,860.53,787Zm-2.87,18.14V791h2.57v14.16Z"/><path class="cls-21" d="M865.68,784.34h2.57v20.77h-2.57Z"/><path class="cls-21" d="M876.62,787a1.59,1.59,0,0,1-3.19,0,1.57,1.57,0,0,1,1.61-1.61A1.53,1.53,0,0,1,876.62,787Zm-2.87,18.14V791h2.57v14.16Z"/><path class="cls-21" d="M889.6,805.11l-.21-1.78h-.09a5.27,5.27,0,0,1-4.33,2.11,4,4,0,0,1-4.33-4.07c0-3.42,3-5.29,8.51-5.27v-.29c0-1.17-.32-3.28-3.22-3.28a7.05,7.05,0,0,0-3.69,1.05l-.58-1.7a8.78,8.78,0,0,1,4.65-1.26c4.33,0,5.38,3,5.38,5.79v5.29a20,20,0,0,0,.23,3.39Zm-.38-7.23c-2.81-.06-6,.44-6,3.19a2.28,2.28,0,0,0,2.43,2.46,3.52,3.52,0,0,0,3.42-2.37,2.68,2.68,0,0,0,.15-.82Z"/><path class="cls-21" d="M897,784.34h2.57v20.77H897Z"/><path class="cls-21" d="M906.54,798.5c.06,3.48,2.28,4.91,4.86,4.91a9.3,9.3,0,0,0,3.92-.73l.44,1.84a11.47,11.47,0,0,1-4.71.88c-4.36,0-7-2.87-7-7.14s2.52-7.63,6.64-7.63c4.62,0,5.85,4.07,5.85,6.67a9.69,9.69,0,0,1-.09,1.2Zm7.55-1.84c0-1.64-.67-4.18-3.57-4.18-2.6,0-3.74,2.4-3.95,4.18Z"/><path class="cls-21" d="M918.92,808.71a42,42,0,0,0,1.75-7l2.87-.29a35.64,35.64,0,0,1-2.78,7.11Z"/><path class="cls-21" d="M935.18,784.34h2.57v20.77h-2.57Z"/><path class="cls-21" d="M946.67,785.07a33.77,33.77,0,0,1-2.75,6.93l-1.64.21a41.47,41.47,0,0,0,1.73-6.87Z"/><path class="cls-21" d="M958,805.11l-.21-1.78h-.09a5.27,5.27,0,0,1-4.33,2.11,4,4,0,0,1-4.33-4.07c0-3.42,3-5.29,8.51-5.27v-.29c0-1.17-.32-3.28-3.22-3.28a7.05,7.05,0,0,0-3.69,1.05l-.58-1.7a8.78,8.78,0,0,1,4.65-1.26c4.33,0,5.38,3,5.38,5.79v5.29a20,20,0,0,0,.23,3.39Zm-.38-7.23c-2.81-.06-6,.44-6,3.19a2.28,2.28,0,0,0,2.43,2.46,3.52,3.52,0,0,0,3.42-2.37,2.68,2.68,0,0,0,.15-.82Z"/><path class="cls-21" d="M965.4,795.57c0-1.81-.06-3.28-.12-4.62h2.31l.12,2.43h.06a5.56,5.56,0,0,1,5-2.75c3.42,0,6,2.9,6,7.2,0,5.09-3.1,7.6-6.44,7.6a5,5,0,0,1-4.36-2.22h-.06v7.69H965.4Zm2.54,3.77a5.79,5.79,0,0,0,.12,1.05,4,4,0,0,0,3.86,3c2.72,0,4.3-2.22,4.3-5.47,0-2.84-1.49-5.27-4.21-5.27a4.11,4.11,0,0,0-3.89,3.19,4.17,4.17,0,0,0-.17,1.05Z"/><path class="cls-21" d="M983.21,795.57c0-1.81-.06-3.28-.12-4.62h2.31l.12,2.43h.06a5.56,5.56,0,0,1,5-2.75c3.42,0,6,2.9,6,7.2,0,5.09-3.1,7.6-6.44,7.6a5,5,0,0,1-4.36-2.22h-.06v7.69h-2.54Zm2.54,3.77a5.78,5.78,0,0,0,.12,1.05,4,4,0,0,0,3.86,3c2.72,0,4.3-2.22,4.3-5.47,0-2.84-1.49-5.27-4.21-5.27a4.11,4.11,0,0,0-3.89,3.19,4.17,4.17,0,0,0-.18,1.05Z"/><path class="cls-21" d="M1008.86,805.11l-.21-1.78h-.09a5.27,5.27,0,0,1-4.33,2.11,4,4,0,0,1-4.33-4.07c0-3.42,3-5.29,8.51-5.27v-.29c0-1.17-.32-3.28-3.22-3.28a7.05,7.05,0,0,0-3.69,1.05l-.58-1.7a8.78,8.78,0,0,1,4.65-1.26c4.33,0,5.38,3,5.38,5.79v5.29a20,20,0,0,0,.23,3.39Zm-.38-7.23c-2.81-.06-6,.44-6,3.19a2.28,2.28,0,0,0,2.43,2.46,3.52,3.52,0,0,0,3.42-2.37,2.68,2.68,0,0,0,.15-.82Z"/><path class="cls-21" d="M1016.29,795.37c0-1.67,0-3.1-.12-4.42h2.25l.09,2.78h.12a4.25,4.25,0,0,1,3.92-3.1,2.79,2.79,0,0,1,.73.09v2.43a3.85,3.85,0,0,0-.88-.09c-1.81,0-3.1,1.37-3.45,3.31a7.24,7.24,0,0,0-.12,1.2v7.55h-2.54Z"/><path class="cls-21" d="M1030.83,786.89V791h3.69v2h-3.69v7.63c0,1.75.5,2.75,1.93,2.75a5.74,5.74,0,0,0,1.49-.18l.12,1.93a6.29,6.29,0,0,1-2.28.35,3.57,3.57,0,0,1-2.78-1.08c-.73-.76-1-2-1-3.69v-7.72h-2.19v-2h2.19v-3.39Z"/><path class="cls-21" d="M1039.84,798.5c.06,3.48,2.28,4.91,4.86,4.91a9.3,9.3,0,0,0,3.92-.73l.44,1.84a11.47,11.47,0,0,1-4.71.88c-4.36,0-7-2.87-7-7.14s2.52-7.63,6.64-7.63c4.62,0,5.85,4.07,5.85,6.67a9.69,9.69,0,0,1-.09,1.2Zm7.55-1.84c0-1.64-.67-4.18-3.57-4.18-2.6,0-3.74,2.4-3.95,4.18Z"/><path class="cls-21" d="M1054.23,794.78c0-1.46,0-2.66-.12-3.83h2.28l.15,2.34h.06a5.21,5.21,0,0,1,4.68-2.66c2,0,5,1.17,5,6v8.45h-2.57v-8.16c0-2.28-.85-4.18-3.28-4.18a3.66,3.66,0,0,0-3.45,2.63,3.7,3.7,0,0,0-.18,1.2v8.51h-2.57Z"/><path class="cls-21" d="M1079.48,805.11l-.21-1.78h-.09a5.27,5.27,0,0,1-4.33,2.11,4,4,0,0,1-4.33-4.07c0-3.42,3-5.29,8.51-5.27v-.29c0-1.17-.32-3.28-3.22-3.28a7.05,7.05,0,0,0-3.69,1.05l-.58-1.7a8.78,8.78,0,0,1,4.65-1.26c4.33,0,5.38,3,5.38,5.79v5.29a20,20,0,0,0,.23,3.39Zm-.38-7.23c-2.81-.06-6,.44-6,3.19a2.28,2.28,0,0,0,2.43,2.46,3.52,3.52,0,0,0,3.42-2.37,2.68,2.68,0,0,0,.15-.82Z"/><path class="cls-21" d="M1086.91,794.78c0-1.46,0-2.66-.12-3.83h2.28l.15,2.34h.06a5.21,5.21,0,0,1,4.68-2.66c2,0,5,1.17,5,6v8.45h-2.57v-8.16c0-2.28-.85-4.18-3.28-4.18a3.66,3.66,0,0,0-3.45,2.63,3.7,3.7,0,0,0-.18,1.2v8.51h-2.57Z"/><path class="cls-21" d="M1114.4,804.58a9.48,9.48,0,0,1-4.07.82c-4.27,0-7-2.9-7-7.23a7.19,7.19,0,0,1,7.61-7.52,8.6,8.6,0,0,1,3.57.73l-.58,2a6,6,0,0,0-3-.67c-3.25,0-5,2.4-5,5.35,0,3.28,2.11,5.29,4.91,5.29a7.31,7.31,0,0,0,3.16-.7Z"/><path class="cls-21" d="M1119.85,798.5c.06,3.48,2.28,4.91,4.86,4.91a9.3,9.3,0,0,0,3.92-.73l.44,1.84a11.47,11.47,0,0,1-4.71.88c-4.36,0-7-2.87-7-7.14s2.52-7.63,6.64-7.63c4.62,0,5.85,4.07,5.85,6.67a9.69,9.69,0,0,1-.09,1.2Zm7.55-1.84c0-1.64-.67-4.18-3.57-4.18-2.6,0-3.74,2.4-3.95,4.18Z"/><path class="cls-21" d="M1149.45,805.11l-.21-1.78h-.09a5.27,5.27,0,0,1-4.33,2.11,4,4,0,0,1-4.33-4.07c0-3.42,3-5.29,8.51-5.27v-.29c0-1.17-.32-3.28-3.22-3.28a7.05,7.05,0,0,0-3.69,1.05l-.58-1.7a8.78,8.78,0,0,1,4.65-1.26c4.33,0,5.38,3,5.38,5.79v5.29a20,20,0,0,0,.23,3.39Zm-4.36-20.27,2.54,4.18h-1.81l-3.57-4.18Zm4,13c-2.81-.06-6,.44-6,3.19a2.28,2.28,0,0,0,2.43,2.46,3.52,3.52,0,0,0,3.42-2.37,2.68,2.68,0,0,0,.15-.82Z"/><path class="cls-21" d="M1176.1,801.25c0,1.46,0,2.75.12,3.86h-2.28l-.15-2.31h-.06a5.33,5.33,0,0,1-4.68,2.63c-2.22,0-4.88-1.23-4.88-6.2V791h2.57v7.84c0,2.69.82,4.5,3.16,4.5a3.72,3.72,0,0,0,3.39-2.34,3.76,3.76,0,0,0,.23-1.32V791h2.57Z"/><path class="cls-21" d="M1181.54,794.78c0-1.46,0-2.66-.12-3.83h2.28l.15,2.34h.06a5.21,5.21,0,0,1,4.68-2.66c2,0,5,1.17,5,6v8.45H1191v-8.16c0-2.28-.85-4.18-3.28-4.18a3.66,3.66,0,0,0-3.45,2.63,3.7,3.7,0,0,0-.18,1.2v8.51h-2.57Z"/><path class="cls-21" d="M1200.38,798.5c.06,3.48,2.28,4.91,4.86,4.91a9.3,9.3,0,0,0,3.92-.73l.44,1.84a11.47,11.47,0,0,1-4.71.88c-4.36,0-7-2.87-7-7.14s2.52-7.63,6.64-7.63c4.62,0,5.85,4.07,5.85,6.67a9.69,9.69,0,0,1-.09,1.2Zm7.55-1.84c0-1.64-.67-4.18-3.57-4.18-2.6,0-3.74,2.4-3.95,4.18Z"/><path class="cls-21" d="M1223.57,798.5c.06,3.48,2.28,4.91,4.86,4.91a9.3,9.3,0,0,0,3.92-.73l.44,1.84a11.47,11.47,0,0,1-4.71.88c-4.36,0-7-2.87-7-7.14s2.52-7.63,6.64-7.63c4.62,0,5.85,4.07,5.85,6.67a9.69,9.69,0,0,1-.09,1.2Zm7.55-1.84c0-1.64-.67-4.18-3.57-4.18-2.6,0-3.74,2.4-3.95,4.18Z"/><path class="cls-21" d="M1241.06,786.89V791h3.69v2h-3.69v7.63c0,1.75.5,2.75,1.93,2.75a5.74,5.74,0,0,0,1.49-.18l.12,1.93a6.29,6.29,0,0,1-2.28.35,3.57,3.57,0,0,1-2.78-1.08c-.73-.76-1-2-1-3.69v-7.72h-2.19v-2h2.19v-3.39Z"/><path class="cls-21" d="M1248.82,784.34h2.57v8.83h.06a4.79,4.79,0,0,1,1.84-1.81,5.3,5.3,0,0,1,2.63-.73c1.9,0,4.94,1.17,4.94,6.05v8.42h-2.57V797c0-2.28-.85-4.21-3.28-4.21a3.7,3.7,0,0,0-3.45,2.57,3.11,3.11,0,0,0-.18,1.23v8.54h-2.57Z"/><path class="cls-21" d="M1266.22,794.78c0-1.46,0-2.66-.12-3.83h2.28l.15,2.34h.06a5.21,5.21,0,0,1,4.68-2.66c2,0,5,1.17,5,6v8.45h-2.57v-8.16c0-2.28-.85-4.18-3.28-4.18a3.66,3.66,0,0,0-3.45,2.63,3.7,3.7,0,0,0-.18,1.2v8.51h-2.57Z"/><path class="cls-21" d="M1286.49,787a1.59,1.59,0,0,1-3.19,0,1.57,1.57,0,0,1,1.61-1.61A1.53,1.53,0,0,1,1286.49,787Zm-2.87,18.14V791h2.57v14.16Z"/><path class="cls-21" d="M1293.07,798.5c.06,3.48,2.28,4.91,4.86,4.91a9.3,9.3,0,0,0,3.92-.73l.44,1.84a11.47,11.47,0,0,1-4.71.88c-4.36,0-7-2.87-7-7.14s2.52-7.63,6.64-7.63c4.62,0,5.85,4.07,5.85,6.67a9.69,9.69,0,0,1-.09,1.2Zm7.55-1.84c0-1.64-.67-4.18-3.57-4.18-2.6,0-3.74,2.4-3.95,4.18Z"/><path class="cls-21" d="M1305.45,808.71a42,42,0,0,0,1.75-7l2.87-.29a35.64,35.64,0,0,1-2.78,7.11Z"/><path class="cls-21" d="M699.94,836.16c0,1.46,0,2.75.12,3.86h-2.28l-.15-2.31h-.06a5.33,5.33,0,0,1-4.68,2.63c-2.22,0-4.88-1.23-4.88-6.2v-8.28h2.57v7.84c0,2.69.82,4.5,3.16,4.5a3.72,3.72,0,0,0,3.39-2.34,3.76,3.76,0,0,0,.23-1.32v-8.69h2.57Z"/><path class="cls-21" d="M705.38,829.7c0-1.46,0-2.66-.12-3.83h2.28l.15,2.34h.06a5.21,5.21,0,0,1,4.68-2.66c2,0,5,1.17,5,6V840h-2.57v-8.16c0-2.28-.85-4.18-3.28-4.18a3.66,3.66,0,0,0-3.45,2.63,3.7,3.7,0,0,0-.18,1.2V840h-2.57Z"/><path class="cls-21" d="M724.21,833.41c.06,3.48,2.28,4.91,4.86,4.91a9.3,9.3,0,0,0,3.92-.73l.44,1.84a11.47,11.47,0,0,1-4.71.88c-4.36,0-7-2.87-7-7.14s2.52-7.63,6.64-7.63c4.62,0,5.85,4.07,5.85,6.67a9.69,9.69,0,0,1-.09,1.2Zm7.55-1.84c0-1.64-.67-4.18-3.57-4.18-2.6,0-3.74,2.4-3.95,4.18Z"/><path class="cls-21" d="M746,830.28c0-1.67,0-3.1-.12-4.42h2.25l.09,2.78h.12a4.25,4.25,0,0,1,3.92-3.1,2.79,2.79,0,0,1,.73.09v2.43a3.85,3.85,0,0,0-.88-.09c-1.81,0-3.1,1.37-3.45,3.31a7.24,7.24,0,0,0-.12,1.2V840H746Z"/><path class="cls-21" d="M757.85,833.41c.06,3.48,2.28,4.91,4.86,4.91a9.3,9.3,0,0,0,3.92-.73l.44,1.84a11.47,11.47,0,0,1-4.71.88c-4.36,0-7-2.87-7-7.14s2.52-7.63,6.64-7.63c4.62,0,5.85,4.07,5.85,6.67a9.69,9.69,0,0,1-.09,1.2Zm7.55-1.84c0-1.64-.67-4.18-3.57-4.18-2.6,0-3.74,2.4-3.95,4.18Z"/><path class="cls-21" d="M772.25,819.26h2.57V840h-2.57Z"/><path class="cls-21" d="M783.19,821.89a1.59,1.59,0,0,1-3.19,0,1.57,1.57,0,0,1,1.61-1.61A1.53,1.53,0,0,1,783.19,821.89ZM780.32,840V825.87h2.57V840Z"/><path class="cls-21" d="M800.53,825.87c-.06,1-.12,2.16-.12,3.89V838c0,3.25-.64,5.24-2,6.46a7.5,7.5,0,0,1-5.15,1.7,9.14,9.14,0,0,1-4.71-1.17l.64-2a8,8,0,0,0,4.15,1.11c2.63,0,4.56-1.37,4.56-4.94V837.6h-.06a5.05,5.05,0,0,1-4.5,2.37c-3.51,0-6-3-6-6.9,0-4.8,3.13-7.52,6.38-7.52A4.71,4.71,0,0,1,798.1,828h.06l.12-2.14Zm-2.66,5.59a3.76,3.76,0,0,0-3.74-3.89c-2.46,0-4.21,2.08-4.21,5.35,0,2.78,1.4,5.09,4.18,5.09a3.76,3.76,0,0,0,3.57-2.63,4.5,4.5,0,0,0,.2-1.37Z"/><path class="cls-21" d="M808.55,821.89a1.59,1.59,0,0,1-3.19,0,1.57,1.57,0,0,1,1.61-1.61A1.53,1.53,0,0,1,808.55,821.89ZM805.68,840V825.87h2.57V840Z"/><path class="cls-21" d="M826.51,832.83c0,5.24-3.63,7.52-7,7.52-3.83,0-6.79-2.81-6.79-7.28,0-4.74,3.1-7.52,7-7.52S826.51,828.5,826.51,832.83Zm-11.23.15c0,3.1,1.78,5.44,4.3,5.44s4.3-2.31,4.3-5.5c0-2.4-1.2-5.44-4.24-5.44S815.28,830.28,815.28,833Z"/><path class="cls-21" d="M830.93,829.7c0-1.46,0-2.66-.12-3.83h2.28l.15,2.34h.06a5.21,5.21,0,0,1,4.68-2.66c2,0,5,1.17,5,6V840H840.4v-8.16c0-2.28-.85-4.18-3.28-4.18a3.66,3.66,0,0,0-3.45,2.63,3.7,3.7,0,0,0-.18,1.2V840h-2.57Z"/><path class="cls-21" d="M846.66,843.62a42,42,0,0,0,1.75-7l2.87-.29a35.64,35.64,0,0,1-2.78,7.11Z"/><path class="cls-21" d="M862.93,819.26h2.57V840h-2.57Z"/><path class="cls-21" d="M874.42,820a33.77,33.77,0,0,1-2.75,6.93l-1.64.21a41.47,41.47,0,0,0,1.73-6.87Z"/><path class="cls-21" d="M877.58,833.41c.06,3.48,2.28,4.91,4.86,4.91a9.3,9.3,0,0,0,3.92-.73l.44,1.84a11.47,11.47,0,0,1-4.71.88c-4.36,0-7-2.87-7-7.14s2.52-7.63,6.64-7.63c4.62,0,5.85,4.07,5.85,6.67a9.69,9.69,0,0,1-.09,1.2Zm7.55-1.84c0-1.64-.67-4.18-3.57-4.18-2.6,0-3.74,2.4-3.95,4.18Zm.61-11.82-3.57,4.18h-1.84l2.57-4.18Z"/><path class="cls-21" d="M895.07,821.8v4.07h3.69v2h-3.69v7.63c0,1.75.5,2.75,1.93,2.75a5.74,5.74,0,0,0,1.49-.18l.12,1.93a6.29,6.29,0,0,1-2.28.35,3.57,3.57,0,0,1-2.78-1.08c-.73-.76-1-2-1-3.69v-7.72h-2.19v-2h2.19v-3.39Z"/><path class="cls-21" d="M910.67,840l-.21-1.78h-.09a5.27,5.27,0,0,1-4.33,2.11,4,4,0,0,1-4.33-4.07c0-3.42,3-5.29,8.51-5.27v-.29c0-1.17-.32-3.28-3.22-3.28a7.05,7.05,0,0,0-3.69,1.05l-.58-1.7a8.78,8.78,0,0,1,4.65-1.26c4.33,0,5.38,3,5.38,5.79v5.29A20,20,0,0,0,913,840Zm-.38-7.23c-2.81-.06-6,.44-6,3.19a2.28,2.28,0,0,0,2.43,2.46,3.52,3.52,0,0,0,3.42-2.37,2.68,2.68,0,0,0,.15-.82Z"/><path class="cls-21" d="M921.08,821.8v4.07h3.69v2h-3.69v7.63c0,1.75.5,2.75,1.93,2.75a5.74,5.74,0,0,0,1.49-.18l.12,1.93a6.29,6.29,0,0,1-2.28.35,3.57,3.57,0,0,1-2.78-1.08c-.73-.76-1-2-1-3.69v-7.72h-2.19v-2h2.19v-3.39Z"/><path class="cls-21" d="M948.43,819.26v17.11c0,1.26,0,2.69.12,3.66h-2.31l-.12-2.46h-.06a5.24,5.24,0,0,1-4.83,2.78c-3.42,0-6.06-2.9-6.06-7.2,0-4.71,2.9-7.6,6.35-7.6a4.73,4.73,0,0,1,4.27,2.16h.06v-8.45Zm-2.57,12.37a4.53,4.53,0,0,0-.12-1.08,3.79,3.79,0,0,0-3.71-3c-2.66,0-4.24,2.34-4.24,5.47,0,2.87,1.4,5.24,4.18,5.24a3.87,3.87,0,0,0,3.77-3.07,4.47,4.47,0,0,0,.12-1.11Z"/><path class="cls-21" d="M955.3,833.41c.06,3.48,2.28,4.91,4.86,4.91a9.3,9.3,0,0,0,3.92-.73l.44,1.84a11.47,11.47,0,0,1-4.71.88c-4.36,0-7-2.87-7-7.14s2.52-7.63,6.64-7.63c4.62,0,5.85,4.07,5.85,6.67a9.69,9.69,0,0,1-.09,1.2Zm7.55-1.84c0-1.64-.67-4.18-3.57-4.18-2.6,0-3.74,2.4-3.95,4.18Z"/><path class="cls-21" d="M976.72,837.39a6.75,6.75,0,0,0,3.39,1c1.87,0,2.75-.94,2.75-2.11s-.73-1.9-2.63-2.6c-2.54-.91-3.74-2.31-3.74-4,0-2.28,1.84-4.15,4.88-4.15a7.06,7.06,0,0,1,3.48.88l-.64,1.87a5.51,5.51,0,0,0-2.9-.82c-1.52,0-2.37.88-2.37,1.93s.85,1.7,2.69,2.4c2.46.94,3.71,2.16,3.71,4.27,0,2.49-1.93,4.24-5.29,4.24a8.07,8.07,0,0,1-4-1Z"/><path class="cls-21" d="M997.66,840l-.21-1.78h-.09a5.27,5.27,0,0,1-4.33,2.11,4,4,0,0,1-4.33-4.07c0-3.42,3-5.29,8.51-5.27v-.29c0-1.17-.32-3.28-3.22-3.28a7.05,7.05,0,0,0-3.69,1.05l-.58-1.7a8.78,8.78,0,0,1,4.65-1.26c4.33,0,5.38,3,5.38,5.79v5.29A20,20,0,0,0,1000,840Zm-.38-7.23c-2.81-.06-6,.44-6,3.19a2.28,2.28,0,0,0,2.43,2.46,3.52,3.52,0,0,0,3.42-2.37,2.68,2.68,0,0,0,.15-.82Z"/><path class="cls-21" d="M1005.09,829.7c0-1.46,0-2.66-.12-3.83h2.28l.15,2.34h.06a5.21,5.21,0,0,1,4.68-2.66c2,0,5,1.17,5,6V840h-2.57v-8.16c0-2.28-.85-4.18-3.28-4.18a3.66,3.66,0,0,0-3.45,2.63,3.7,3.7,0,0,0-.18,1.2V840h-2.57Z"/><path class="cls-21" d="M1025.48,821.8v4.07h3.69v2h-3.69v7.63c0,1.75.5,2.75,1.93,2.75a5.74,5.74,0,0,0,1.49-.18L1029,840a6.29,6.29,0,0,1-2.28.35,3.57,3.57,0,0,1-2.78-1.08c-.73-.76-1-2-1-3.69v-7.72h-2.19v-2H1023v-3.39Z"/><path class="cls-21" d="M1034.49,833.41c.06,3.48,2.28,4.91,4.86,4.91a9.3,9.3,0,0,0,3.92-.73l.44,1.84a11.47,11.47,0,0,1-4.71.88c-4.36,0-7-2.87-7-7.14s2.52-7.63,6.64-7.63c4.62,0,5.85,4.07,5.85,6.67a9.69,9.69,0,0,1-.09,1.2Zm7.55-1.84c0-1.64-.67-4.18-3.57-4.18-2.6,0-3.74,2.4-3.95,4.18Zm.61-11.82-3.57,4.18h-1.84l2.57-4.18Z"/><path class="cls-21" d="M1046.86,843.62a42,42,0,0,0,1.75-7l2.87-.29a35.64,35.64,0,0,1-2.78,7.11Z"/><path class="cls-21" d="M1075,836.16c0,1.46,0,2.75.12,3.86h-2.28l-.15-2.31h-.06a5.33,5.33,0,0,1-4.68,2.63c-2.22,0-4.88-1.23-4.88-6.2v-8.28h2.57v7.84c0,2.69.82,4.5,3.16,4.5a3.72,3.72,0,0,0,3.39-2.34,3.76,3.76,0,0,0,.23-1.32v-8.69H1075Z"/><path class="cls-21" d="M1080.41,829.7c0-1.46,0-2.66-.12-3.83h2.28l.15,2.34h.06a5.21,5.21,0,0,1,4.68-2.66c2,0,5,1.17,5,6V840h-2.57v-8.16c0-2.28-.85-4.18-3.28-4.18a3.66,3.66,0,0,0-3.45,2.63,3.7,3.7,0,0,0-.18,1.2V840h-2.57Z"/><path class="cls-21" d="M1099.25,833.41c.06,3.48,2.28,4.91,4.86,4.91a9.3,9.3,0,0,0,3.92-.73l.44,1.84a11.47,11.47,0,0,1-4.71.88c-4.36,0-7-2.87-7-7.14s2.52-7.63,6.64-7.63c4.62,0,5.85,4.07,5.85,6.67a9.69,9.69,0,0,1-.09,1.2Zm7.55-1.84c0-1.64-.67-4.18-3.57-4.18-2.6,0-3.74,2.4-3.95,4.18Z"/><path class="cls-21" d="M1121,819.26h2.57V840H1121Z"/><path class="cls-21" d="M1132,821.89a1.59,1.59,0,0,1-3.19,0,1.57,1.57,0,0,1,1.61-1.61A1.53,1.53,0,0,1,1132,821.89ZM1129.09,840V825.87h2.57V840Z"/><path class="cls-21" d="M1137.1,829.7c0-1.46,0-2.66-.12-3.83h2.25l.12,2.28h.09a4.88,4.88,0,0,1,4.45-2.6,4.18,4.18,0,0,1,4,2.84h.06a5.83,5.83,0,0,1,1.58-1.84,4.83,4.83,0,0,1,3.13-1c1.87,0,4.65,1.23,4.65,6.14V840h-2.52v-8c0-2.72-1-4.36-3.07-4.36a3.33,3.33,0,0,0-3,2.34,4.23,4.23,0,0,0-.21,1.29V840H1146v-8.48c0-2.25-1-3.89-3-3.89a3.83,3.83,0,0,0-3.39,3.83V840h-2.52Z"/><path class="cls-21" d="M1165.54,821.89a1.59,1.59,0,0,1-3.19,0,1.57,1.57,0,0,1,1.61-1.61A1.53,1.53,0,0,1,1165.54,821.89ZM1162.67,840V825.87h2.57V840Z"/><path class="cls-21" d="M1173.79,821.8v4.07h3.69v2h-3.69v7.63c0,1.75.5,2.75,1.93,2.75a5.74,5.74,0,0,0,1.49-.18l.12,1.93a6.29,6.29,0,0,1-2.28.35,3.57,3.57,0,0,1-2.78-1.08c-.73-.76-1-2-1-3.69v-7.72h-2.19v-2h2.19v-3.39Z"/><path class="cls-21" d="M1182.8,833.41c.06,3.48,2.28,4.91,4.86,4.91a9.3,9.3,0,0,0,3.92-.73l.44,1.84a11.47,11.47,0,0,1-4.71.88c-4.36,0-7-2.87-7-7.14s2.52-7.63,6.64-7.63c4.62,0,5.85,4.07,5.85,6.67a9.69,9.69,0,0,1-.09,1.2Zm7.55-1.84c0-1.64-.67-4.18-3.57-4.18-2.6,0-3.74,2.4-3.95,4.18Z"/><path class="cls-21" d="M1216.79,819.26v17.11c0,1.26,0,2.69.12,3.66h-2.31l-.12-2.46h-.06a5.24,5.24,0,0,1-4.83,2.78c-3.42,0-6.06-2.9-6.06-7.2,0-4.71,2.9-7.6,6.35-7.6a4.73,4.73,0,0,1,4.27,2.16h.06v-8.45Zm-2.57,12.37a4.53,4.53,0,0,0-.12-1.08,3.79,3.79,0,0,0-3.71-3c-2.66,0-4.24,2.34-4.24,5.47,0,2.87,1.4,5.24,4.18,5.24a3.87,3.87,0,0,0,3.77-3.07,4.47,4.47,0,0,0,.12-1.11Z"/><path class="cls-21" d="M1225.65,820a33.77,33.77,0,0,1-2.75,6.93l-1.64.21a41.47,41.47,0,0,0,1.73-6.87Z"/><path class="cls-21" d="M1236.94,840l-.21-1.78h-.09a5.27,5.27,0,0,1-4.33,2.11,4,4,0,0,1-4.33-4.07c0-3.42,3-5.29,8.51-5.27v-.29c0-1.17-.32-3.28-3.22-3.28a7.05,7.05,0,0,0-3.69,1.05l-.58-1.7a8.78,8.78,0,0,1,4.65-1.26c4.33,0,5.38,3,5.38,5.79v5.29a20,20,0,0,0,.23,3.39Zm-2.19-20.27,2.81,4.18h-2l-1.7-2.78h-.06l-1.7,2.78h-1.93l2.75-4.18Zm1.81,13c-2.81-.06-6,.44-6,3.19a2.28,2.28,0,0,0,2.43,2.46,3.52,3.52,0,0,0,3.42-2.37,2.68,2.68,0,0,0,.15-.82Z"/><path class="cls-21" d="M1256.57,825.87c-.06,1-.12,2.16-.12,3.89V838c0,3.25-.64,5.24-2,6.46a7.5,7.5,0,0,1-5.15,1.7,9.14,9.14,0,0,1-4.71-1.17l.64-2a8,8,0,0,0,4.15,1.11c2.63,0,4.56-1.37,4.56-4.94V837.6h-.06a5.05,5.05,0,0,1-4.5,2.37c-3.51,0-6-3-6-6.9,0-4.8,3.13-7.52,6.38-7.52a4.71,4.71,0,0,1,4.42,2.46h.06l.12-2.14Zm-2.66,5.59a3.76,3.76,0,0,0-3.74-3.89c-2.46,0-4.21,2.08-4.21,5.35,0,2.78,1.4,5.09,4.18,5.09a3.76,3.76,0,0,0,3.57-2.63,4.5,4.5,0,0,0,.2-1.37Z"/><path class="cls-21" d="M1263.32,833.41c.06,3.48,2.28,4.91,4.86,4.91a9.3,9.3,0,0,0,3.92-.73l.44,1.84a11.47,11.47,0,0,1-4.71.88c-4.36,0-7-2.87-7-7.14s2.52-7.63,6.64-7.63c4.62,0,5.85,4.07,5.85,6.67a9.69,9.69,0,0,1-.09,1.2Zm7.55-1.84c0-1.64-.67-4.18-3.57-4.18-2.6,0-3.74,2.4-3.95,4.18Z"/><path class="cls-21" d="M706.63,867.74c0,5.24-3.63,7.52-7,7.52-3.83,0-6.79-2.81-6.79-7.28,0-4.74,3.1-7.52,7-7.52S706.63,863.41,706.63,867.74Zm-11.23.15c0,3.1,1.78,5.44,4.3,5.44s4.3-2.31,4.3-5.5c0-2.4-1.2-5.44-4.24-5.44S695.4,865.2,695.4,867.89Z"/><path class="cls-21" d="M722.9,871.08c0,1.46,0,2.75.12,3.86h-2.28l-.15-2.31h-.06a5.33,5.33,0,0,1-4.68,2.63c-2.22,0-4.88-1.23-4.88-6.2v-8.28h2.57v7.84c0,2.69.82,4.5,3.16,4.5a3.72,3.72,0,0,0,3.39-2.34,3.76,3.76,0,0,0,.23-1.32v-8.69h2.57Z"/><path class="cls-21" d="M735.71,854.17h2.57v20.77h-2.57Z"/><path class="cls-21" d="M745.22,868.33c.06,3.48,2.28,4.91,4.86,4.91a9.3,9.3,0,0,0,3.92-.73l.44,1.84a11.47,11.47,0,0,1-4.71.88c-4.36,0-7-2.87-7-7.14s2.52-7.63,6.64-7.63c4.62,0,5.85,4.07,5.85,6.67a9.69,9.69,0,0,1-.09,1.2Zm7.55-1.84c0-1.64-.67-4.18-3.57-4.18-2.6,0-3.74,2.4-3.95,4.18Z"/><path class="cls-21" d="M767,854.17h2.57V863h.06a4.79,4.79,0,0,1,1.84-1.81,5.3,5.3,0,0,1,2.63-.73c1.9,0,4.94,1.17,4.94,6.05v8.42h-2.57v-8.13c0-2.28-.85-4.21-3.28-4.21a3.7,3.7,0,0,0-3.45,2.57,3.11,3.11,0,0,0-.18,1.23v8.54H767Z"/><path class="cls-21" d="M792.22,874.94l-.21-1.78h-.09a5.27,5.27,0,0,1-4.33,2.11,4,4,0,0,1-4.33-4.07c0-3.42,3-5.29,8.51-5.27v-.29c0-1.17-.32-3.28-3.22-3.28a7.05,7.05,0,0,0-3.69,1.05l-.58-1.7a8.78,8.78,0,0,1,4.65-1.26c4.33,0,5.38,3,5.38,5.79v5.29a20,20,0,0,0,.23,3.39Zm-.38-7.23c-2.81-.06-6,.44-6,3.19a2.28,2.28,0,0,0,2.43,2.46A3.52,3.52,0,0,0,791.7,871a2.68,2.68,0,0,0,.15-.82Z"/><path class="cls-21" d="M799.65,864.61c0-1.46,0-2.66-.12-3.83h2.28l.15,2.34H802a5.21,5.21,0,0,1,4.68-2.66c2,0,5,1.17,5,6v8.45h-2.57v-8.16c0-2.28-.85-4.18-3.28-4.18a3.66,3.66,0,0,0-3.45,2.63,3.7,3.7,0,0,0-.18,1.2v8.51h-2.57Z"/><path class="cls-21" d="M829.29,854.17v17.11c0,1.26,0,2.69.12,3.66h-2.31l-.12-2.46h-.06a5.24,5.24,0,0,1-4.83,2.78c-3.42,0-6.06-2.9-6.06-7.2,0-4.71,2.9-7.6,6.35-7.6a4.73,4.73,0,0,1,4.27,2.16h.06v-8.45Zm-2.57,12.37a4.53,4.53,0,0,0-.12-1.08,3.79,3.79,0,0,0-3.71-3c-2.66,0-4.24,2.34-4.24,5.47,0,2.87,1.4,5.24,4.18,5.24a3.87,3.87,0,0,0,3.77-3.07,4.47,4.47,0,0,0,.12-1.11Z"/><path class="cls-21" d="M837.59,856.8a1.59,1.59,0,0,1-3.19,0,1.57,1.57,0,0,1,1.61-1.61A1.53,1.53,0,0,1,837.59,856.8Zm-2.87,18.14V860.78h2.57v14.16Z"/><path class="cls-21" d="M852.83,874.41a9.48,9.48,0,0,1-4.07.82c-4.27,0-7-2.9-7-7.23a7.19,7.19,0,0,1,7.61-7.52,8.6,8.6,0,0,1,3.57.73l-.58,2a6,6,0,0,0-3-.67c-3.25,0-5,2.4-5,5.35,0,3.28,2.11,5.29,4.91,5.29a7.31,7.31,0,0,0,3.16-.7Z"/><path class="cls-21" d="M864.86,874.94l-.21-1.78h-.09a5.27,5.27,0,0,1-4.33,2.11,4,4,0,0,1-4.33-4.07c0-3.42,3-5.29,8.51-5.27v-.29c0-1.17-.32-3.28-3.22-3.28a7.05,7.05,0,0,0-3.69,1.05l-.58-1.7a8.78,8.78,0,0,1,4.65-1.26c4.33,0,5.38,3,5.38,5.79v5.29a20,20,0,0,0,.23,3.39Zm-.38-7.23c-2.81-.06-6,.44-6,3.19a2.28,2.28,0,0,0,2.43,2.46,3.52,3.52,0,0,0,3.42-2.37,2.68,2.68,0,0,0,.15-.82Z"/><path class="cls-21" d="M872.29,865.4c0-1.81-.06-3.28-.12-4.62h2.31l.12,2.43h.06a5.56,5.56,0,0,1,5-2.75c3.42,0,6,2.9,6,7.2,0,5.09-3.1,7.6-6.44,7.6a5,5,0,0,1-4.36-2.22h-.06v7.69h-2.54Zm2.54,3.77a5.79,5.79,0,0,0,.12,1.05,4,4,0,0,0,3.86,3c2.72,0,4.3-2.22,4.3-5.47,0-2.84-1.49-5.27-4.21-5.27a4.11,4.11,0,0,0-3.89,3.19,4.17,4.17,0,0,0-.17,1.05Z"/><path class="cls-21" d="M909.7,854.17v17.11c0,1.26,0,2.69.12,3.66h-2.31l-.12-2.46h-.06a5.24,5.24,0,0,1-4.83,2.78c-3.42,0-6.06-2.9-6.06-7.2,0-4.71,2.9-7.6,6.35-7.6a4.73,4.73,0,0,1,4.27,2.16h.06v-8.45Zm-2.57,12.37a4.53,4.53,0,0,0-.12-1.08,3.79,3.79,0,0,0-3.71-3c-2.66,0-4.24,2.34-4.24,5.47,0,2.87,1.4,5.24,4.18,5.24a3.87,3.87,0,0,0,3.77-3.07,4.47,4.47,0,0,0,.12-1.11Z"/><path class="cls-21" d="M927,871.08c0,1.46,0,2.75.12,3.86h-2.28l-.15-2.31h-.06a5.33,5.33,0,0,1-4.68,2.63c-2.22,0-4.88-1.23-4.88-6.2v-8.28h2.57v7.84c0,2.69.82,4.5,3.16,4.5a3.72,3.72,0,0,0,3.39-2.34,3.76,3.76,0,0,0,.23-1.32v-8.69H927Z"/><path class="cls-21" d="M949.89,874.41a9.48,9.48,0,0,1-4.07.82c-4.27,0-7-2.9-7-7.23a7.19,7.19,0,0,1,7.61-7.52,8.6,8.6,0,0,1,3.57.73l-.58,2a6,6,0,0,0-3-.67c-3.25,0-5,2.4-5,5.35,0,3.28,2.11,5.29,4.91,5.29a7.31,7.31,0,0,0,3.16-.7Z"/><path class="cls-21" d="M961.91,874.94l-.21-1.78h-.09a5.27,5.27,0,0,1-4.33,2.11,4,4,0,0,1-4.33-4.07c0-3.42,3-5.29,8.51-5.27v-.29c0-1.17-.32-3.28-3.22-3.28a7.05,7.05,0,0,0-3.69,1.05l-.58-1.7a8.78,8.78,0,0,1,4.65-1.26c4.33,0,5.38,3,5.38,5.79v5.29a20,20,0,0,0,.23,3.39Zm-.38-7.23c-2.81-.06-6,.44-6,3.19a2.28,2.28,0,0,0,2.43,2.46,3.52,3.52,0,0,0,3.42-2.37,2.68,2.68,0,0,0,.15-.82Z"/><path class="cls-21" d="M969.35,864.61c0-1.46,0-2.66-.12-3.83h2.28l.15,2.34h.06a5.21,5.21,0,0,1,4.68-2.66c2,0,5,1.17,5,6v8.45h-2.57v-8.16c0-2.28-.85-4.18-3.28-4.18a3.66,3.66,0,0,0-3.45,2.63,3.7,3.7,0,0,0-.18,1.2v8.51h-2.57Z"/><path class="cls-21" d="M999,854.17v17.11c0,1.26,0,2.69.12,3.66h-2.31l-.12-2.46h-.06a5.24,5.24,0,0,1-4.83,2.78c-3.42,0-6.06-2.9-6.06-7.2,0-4.71,2.9-7.6,6.35-7.6a4.73,4.73,0,0,1,4.27,2.16h.06v-8.45Zm-2.57,12.37a4.53,4.53,0,0,0-.12-1.08,3.79,3.79,0,0,0-3.71-3c-2.66,0-4.24,2.34-4.24,5.47,0,2.87,1.4,5.24,4.18,5.24a3.87,3.87,0,0,0,3.77-3.07,4.47,4.47,0,0,0,.12-1.11Z"/><path class="cls-21" d="M1007.28,856.8a1.59,1.59,0,0,1-3.19,0,1.57,1.57,0,0,1,1.61-1.61A1.53,1.53,0,0,1,1007.28,856.8Zm-2.87,18.14V860.78H1007v14.16Z"/><path class="cls-21" d="M1024.66,854.17v17.11c0,1.26,0,2.69.12,3.66h-2.31l-.12-2.46h-.06a5.24,5.24,0,0,1-4.83,2.78c-3.42,0-6.06-2.9-6.06-7.2,0-4.71,2.9-7.6,6.35-7.6a4.73,4.73,0,0,1,4.27,2.16h.06v-8.45Zm-2.57,12.37a4.53,4.53,0,0,0-.12-1.08,3.79,3.79,0,0,0-3.71-3c-2.66,0-4.24,2.34-4.24,5.47,0,2.87,1.4,5.24,4.18,5.24a3.87,3.87,0,0,0,3.77-3.07,4.47,4.47,0,0,0,.12-1.11Z"/><path class="cls-21" d="M1037.94,874.94l-.21-1.78h-.09a5.27,5.27,0,0,1-4.33,2.11,4,4,0,0,1-4.33-4.07c0-3.42,3-5.29,8.51-5.27v-.29c0-1.17-.32-3.28-3.22-3.28a7.05,7.05,0,0,0-3.69,1.05l-.58-1.7a8.78,8.78,0,0,1,4.65-1.26c4.33,0,5.38,3,5.38,5.79v5.29a20,20,0,0,0,.23,3.39Zm-.38-7.23c-2.81-.06-6,.44-6,3.19a2.28,2.28,0,0,0,2.43,2.46,3.52,3.52,0,0,0,3.42-2.37,2.68,2.68,0,0,0,.15-.82Z"/><path class="cls-21" d="M1048.35,856.71v4.07H1052v2h-3.69v7.63c0,1.75.5,2.75,1.93,2.75a5.74,5.74,0,0,0,1.49-.18l.12,1.93a6.29,6.29,0,0,1-2.28.35,3.57,3.57,0,0,1-2.78-1.08c-.73-.76-1-2-1-3.69v-7.72h-2.19v-2h2.19v-3.39Z"/><path class="cls-21" d="M1061.69,854.64a19.29,19.29,0,0,0-3.69,12,19.71,19.71,0,0,0,3.69,11.88h-2a18.91,18.91,0,0,1-3.83-11.88,19.31,19.31,0,0,1,3.83-12Z"/><path class="cls-21" d="M1067,868.33c.06,3.48,2.28,4.91,4.86,4.91a9.3,9.3,0,0,0,3.92-.73l.44,1.84a11.47,11.47,0,0,1-4.71.88c-4.36,0-7-2.87-7-7.14s2.52-7.63,6.64-7.63c4.62,0,5.85,4.07,5.85,6.67a9.69,9.69,0,0,1-.09,1.2Zm7.55-1.84c0-1.64-.67-4.18-3.57-4.18-2.6,0-3.74,2.4-3.95,4.18Z"/><path class="cls-21" d="M1079.86,878.48a19.8,19.8,0,0,0,3.69-12,19.39,19.39,0,0,0-3.69-11.88h2a18.63,18.63,0,0,1,3.83,11.91,19,19,0,0,1-3.83,11.93Z"/><path class="cls-21" d="M1098.26,865.2c0-1.67,0-3.1-.12-4.42h2.25l.09,2.78h.12a4.25,4.25,0,0,1,3.92-3.1,2.79,2.79,0,0,1,.73.09V863a3.85,3.85,0,0,0-.88-.09c-1.81,0-3.1,1.37-3.45,3.31a7.24,7.24,0,0,0-.12,1.2v7.55h-2.54Z"/><path class="cls-21" d="M1110.13,868.33c.06,3.48,2.28,4.91,4.86,4.91a9.3,9.3,0,0,0,3.92-.73l.44,1.84a11.47,11.47,0,0,1-4.71.88c-4.36,0-7-2.87-7-7.14s2.52-7.63,6.64-7.63c4.62,0,5.85,4.07,5.85,6.67a9.69,9.69,0,0,1-.09,1.2Zm7.55-1.84c0-1.64-.67-4.18-3.57-4.18-2.6,0-3.74,2.4-3.95,4.18Z"/><path class="cls-21" d="M1134.62,874.41a9.48,9.48,0,0,1-4.07.82c-4.27,0-7-2.9-7-7.23a7.19,7.19,0,0,1,7.61-7.52,8.6,8.6,0,0,1,3.57.73l-.58,2a6,6,0,0,0-3-.67c-3.25,0-5,2.4-5,5.35,0,3.28,2.11,5.29,4.91,5.29a7.31,7.31,0,0,0,3.16-.7Z"/><path class="cls-21" d="M1138.8,854.17h2.57V863h.06a4.79,4.79,0,0,1,1.84-1.81,5.3,5.3,0,0,1,2.63-.73c1.9,0,4.94,1.17,4.94,6.05v8.42h-2.57v-8.13c0-2.28-.85-4.21-3.28-4.21a3.7,3.7,0,0,0-3.45,2.57,3.11,3.11,0,0,0-.18,1.23v8.54h-2.57Z"/><path class="cls-21" d="M1157.64,868.33c.06,3.48,2.28,4.91,4.86,4.91a9.3,9.3,0,0,0,3.92-.73l.44,1.84a11.47,11.47,0,0,1-4.71.88c-4.36,0-7-2.87-7-7.14s2.52-7.63,6.64-7.63c4.62,0,5.85,4.07,5.85,6.67a9.69,9.69,0,0,1-.09,1.2Zm7.55-1.84c0-1.64-.67-4.18-3.57-4.18-2.6,0-3.74,2.4-3.95,4.18Z"/><path class="cls-21" d="M1172,865.2c0-1.67,0-3.1-.12-4.42h2.25l.09,2.78h.12a4.25,4.25,0,0,1,3.92-3.1,2.79,2.79,0,0,1,.73.09V863a3.85,3.85,0,0,0-.88-.09c-1.81,0-3.1,1.37-3.45,3.31a7.24,7.24,0,0,0-.12,1.2v7.55H1172Z"/><path class="cls-21" d="M1192.57,874.41a9.48,9.48,0,0,1-4.07.82c-4.27,0-7-2.9-7-7.23a7.19,7.19,0,0,1,7.61-7.52,8.6,8.6,0,0,1,3.57.73l-.58,2a6,6,0,0,0-3-.67c-3.25,0-5,2.4-5,5.35,0,3.28,2.11,5.29,4.91,5.29a7.31,7.31,0,0,0,3.16-.7Z"/><path class="cls-21" d="M1196.75,854.17h2.57V863h.06a4.79,4.79,0,0,1,1.84-1.81,5.3,5.3,0,0,1,2.63-.73c1.9,0,4.94,1.17,4.94,6.05v8.42h-2.57v-8.13c0-2.28-.85-4.21-3.28-4.21a3.7,3.7,0,0,0-3.45,2.57,3.11,3.11,0,0,0-.18,1.23v8.54h-2.57Z"/><path class="cls-21" d="M1215.59,868.33c.06,3.48,2.28,4.91,4.86,4.91a9.3,9.3,0,0,0,3.92-.73l.44,1.84a11.47,11.47,0,0,1-4.71.88c-4.36,0-7-2.87-7-7.14s2.52-7.63,6.64-7.63c4.62,0,5.85,4.07,5.85,6.67a9.69,9.69,0,0,1-.09,1.2Zm7.55-1.84c0-1.64-.67-4.18-3.57-4.18-2.6,0-3.74,2.4-3.95,4.18Zm.61-11.82-3.57,4.18h-1.84l2.57-4.18Z"/><path class="cls-21" d="M1235.57,854.64a19.29,19.29,0,0,0-3.69,12,19.71,19.71,0,0,0,3.69,11.88h-2a18.91,18.91,0,0,1-3.83-11.88,19.31,19.31,0,0,1,3.83-12Z"/><path class="cls-21" d="M1240.89,868.33c.06,3.48,2.28,4.91,4.86,4.91a9.3,9.3,0,0,0,3.92-.73l.44,1.84a11.47,11.47,0,0,1-4.71.88c-4.36,0-7-2.87-7-7.14s2.52-7.63,6.64-7.63c4.62,0,5.85,4.07,5.85,6.67a9.69,9.69,0,0,1-.09,1.2Zm7.55-1.84c0-1.64-.67-4.18-3.57-4.18-2.6,0-3.74,2.4-3.95,4.18Z"/><path class="cls-21" d="M1253.73,878.48a19.8,19.8,0,0,0,3.69-12,19.39,19.39,0,0,0-3.69-11.88h2a18.63,18.63,0,0,1,3.83,11.91,19,19,0,0,1-3.83,11.93Z"/><path class="cls-21" d="M1264.15,873.42a1.73,1.73,0,0,1,1.75-1.84,1.85,1.85,0,1,1-1.75,1.84Z"/></g></g></svg>