<svg id="Calque_2" data-name="Calque 2" xmlns="http://www.w3.org/2000/svg" viewBox="0 0 297.68 136.05"><defs><style>.cls-1{fill:#fcc600;}.cls-2{fill:#4e96b3;}</style></defs><title>game2_bt_continuer</title><g id="Calque_2-2" data-name="Calque 2"><g id="boutons"><rect class="cls-1" x="18.29" y="60.44" width="260.59" height="75.61" rx="37.8" ry="37.8"/><path class="cls-2" d="M70,108.3q0,7.32-7.23,7.34t-7.21-7.34V87q0-7.32,7.21-7.32T70,87v4.69H65V87q0-2.34-2.18-2.36h0q-2.17,0-2.17,2.36V108.3q0,2.36,2.18,2.36T65,108.3v-4.69h5Z"/><path class="cls-2" d="M88.19,108.3q0,7.32-7.23,7.34t-7.21-7.34V87q0-7.32,7.21-7.32T88.19,87ZM83.19,87q0-2.34-2.18-2.36h0q-2.17,0-2.17,2.36V108.3q0,2.36,2.18,2.36t2.2-2.36Z"/><path class="cls-2" d="M92.45,80.22h5l4.79,20.22V80.22h4.65v34.85h-5L97.29,95.5v19.57H92.45Z"/><path class="cls-2" d="M124.53,80.22v5h-4.71v29.85h-5V85.18h-4.73v-5Z"/><path class="cls-2" d="M127.81,80.22h5v34.85h-5Z"/><path class="cls-2" d="M137.55,80.22h5l4.74,20.22V80.22h4.65v34.85h-5L142.35,95.5v19.57h-4.83Z"/><path class="cls-2" d="M170.87,108.3q0,7.32-7.23,7.34t-7.21-7.34V80.22h5V108.3q0,2.36,2.18,2.36t2.2-2.36V80.22h5Z"/><path class="cls-2" d="M175.29,80.22h13v5h-8v10h6.89v5h-6.89v10h8v5h-13Z"/><path class="cls-2" d="M203.67,83.24l-6.82,26.87H204v5H191.18v-3L198,85.24h-6.59v-5h12.25Z"/><path class="cls-2" d="M227.11,97.32V82.38c.11-2.53,1.89-3.51,4.1-2.25,1,.56,2,1.14,2.94,1.71l17.31,10.08c1.85,1.08,3.71,2.13,5.51,3.29s1.81,3.12,0,4.35c-.36.25-.73.49-1.11.71l-15.94,9.2c-2.95,1.7-5.88,3.43-8.88,5-2,1.1-3.78,0-3.8-2.3V97.3Z"/></g></g></svg>