<?xml version="1.0" encoding="utf-8"?>
<!-- Generator: Adobe Illustrator 21.1.0, SVG Export Plug-In . SVG Version: 6.00 Build 0)  -->
<svg version="1.1" id="Calque_1" xmlns="http://www.w3.org/2000/svg" xmlns:xlink="http://www.w3.org/1999/xlink" x="0px" y="0px"
	 viewBox="0 0 1920 1080" style="enable-background:new 0 0 1920 1080;" xml:space="preserve">
<style type="text/css">
	.st0{fill:none;stroke:#FFFFFF;stroke-width:5;stroke-linecap:round;stroke-miterlimit:10;stroke-dasharray:1,14.96;}
	.st1{fill:none;stroke:#FFFFFF;stroke-width:5;stroke-linecap:round;stroke-miterlimit:10;}
	.st2{fill:#FFFFFF;}
	.st3{fill:#F7C646;}
	.st4{opacity:0.42;fill:#BC8F00;enable-background:new    ;}
	.st5{enable-background:new    ;}
	.st6{opacity:0.2;fill:#FFFFFF;}
</style>
<line class="st0" x1="571.3" y1="247.2" x2="1361.4" y2="247.2"/>
<title>game2b2_bg</title>
<line class="st1" x1="555.8" y1="247.2" x2="556.3" y2="247.2"/>
<g>
	<path class="st2" d="M545.2,560.7v-20.6h6.2l2.8,13.3l2.8-13.3h6.2v20.6h-3.7v-16l-3.7,16h-3.1l-3.7-16v16H545.2z"/>
	<path class="st2" d="M567,552.8c0-4.5,1.9-8.2,6.1-8.2c4.1,0,6.1,3.7,6.1,8.2s-1.9,8.2-6.1,8.2C569,561.1,567,557.4,567,552.8
		L567,552.8z M571,552.9c0,3.7,0.8,4.7,2.2,4.7c1.3,0,2.1-1,2.1-4.7s-0.8-4.7-2.2-4.7C571.8,548.1,571,549.1,571,552.9L571,552.9z"
		/>
	<path class="st2" d="M583.2,540.1h3.7v3.1h-3.7V540.1z M583.2,544.9h3.7v15.8h-3.7V544.9z"/>
	<path class="st2" d="M591.7,544.9h3.2v1.5c0.6-1.1,1.4-1.8,3.4-1.8c2.5,0,4.1,1.4,4.1,4.6v11.5h-3.7v-10.3c0-1.1-0.3-2.1-1.6-2.1
		c-1,0-1.7,0.5-1.7,1.8v10.6h-3.7V544.9z"/>
	<path class="st2" d="M612.6,549.6c-0.1-1.2-0.5-1.8-1.7-1.8c-0.9,0-1.3,0.5-1.3,1.2c0,1.3,1.8,1.4,3.6,2c1.8,0.6,3.6,1.6,3.6,4.8
		c0,3-2.3,5.2-5.6,5.2c-3,0-5.4-1.7-5.8-5.4h3.7c0.1,1.2,0.9,2,2.1,2c1.2,0,1.5-0.8,1.5-1.6c0-1.4-1.8-1.5-3.6-2.1
		c-1.8-0.6-3.6-1.7-3.6-4.8c0-2.6,1.8-4.6,5.4-4.6c3.5,0,5.1,1.9,5.3,5H612.6z"/>
	<path class="st2" d="M639.7,560.7h-3.4V559c-0.3,1.3-1.6,2.1-3.1,2.1c-2.8,0-5-2.6-5-8.2c0-5.3,1.8-8.2,5-8.2
		c1.3,0,2.2,0.5,2.8,1.7c0-0.4,0-0.9,0-1.3v-4.8h3.7V560.7z M632,552.9c0,3.5,0.8,4.5,2,4.5c0.8,0,1.1-0.2,1.5-0.7
		c0.5-0.6,0.5-1.3,0.5-3.8c0-2.5,0-3.2-0.5-3.8c-0.4-0.5-0.7-0.7-1.5-0.7C632.8,548.3,632,549.3,632,552.9L632,552.9z"/>
	<path class="st2" d="M647.4,554.2c0,1.6,0.4,3.4,2.1,3.4c1,0,1.7-0.6,1.9-1.9h3.7c-0.3,2.2-1.2,3.6-2.3,4.4c-1.1,0.8-2.3,1-3.4,1
		c-4.1,0-6.1-3.7-6.1-8.2s1.9-8.2,6.1-8.2c2.1,0,3.6,0.9,4.6,2.5c1.2,2,1.3,4.6,1.2,7H647.4z M651.5,551c0-0.9-0.1-3.3-2-3.3
		c-1.3,0-2.1,1.1-2.1,3.3H651.5z"/>
	<path class="st2" d="M672.5,543.9h-3.1v-3.7h7v20.6h-4V543.9z"/>
	<path class="st2" d="M684.2,546.8c0-4.5,2.6-7,6.5-7s6.5,2.6,6.5,7v7.2c0,4.5-2.6,7-6.5,7s-6.5-2.6-6.5-7V546.8z M688.1,553.8
		c0,2.4,1,3.5,2.5,3.5c1.5,0,2.5-1.1,2.5-3.5v-6.7c0-2.4-1-3.5-2.5-3.5c-1.5,0-2.5,1.1-2.5,3.5V553.8z"/>
	<path class="st2" d="M710.1,544.9h3.5v1.8c0.5-1.6,1.5-2.2,3.2-2.2c0.9,0,1.7,0.2,2.3,0.7c0.3,0.2,0.6,0.6,0.8,1
		c0.3-0.4,0.6-0.8,1-1.1c0.7-0.4,1.6-0.7,2.6-0.7c1.6,0,2.8,0.6,3.6,1.5c0.8,0.9,1.1,2.1,1.1,3.4v11.2h-3.7v-10.6
		c0-0.7-0.1-1.1-0.4-1.4c-0.3-0.3-0.7-0.4-1.3-0.4c-0.5,0-1,0.1-1.3,0.3c-0.3,0.3-0.5,0.7-0.5,1.3v10.8h-3.7v-10.6
		c0-0.7-0.1-1.1-0.4-1.4c-0.3-0.3-0.7-0.4-1.3-0.4c-0.5,0-1,0.1-1.3,0.3c-0.3,0.3-0.5,0.7-0.5,1.3v10.8h-3.7V544.9z"/>
	<path class="st2" d="M733.1,540.1h3.7v3.1h-3.7V540.1z M733.1,544.9h3.7v15.8h-3.7V544.9z"/>
	<path class="st2" d="M741.5,544.9h3.2v1.5c0.6-1.1,1.4-1.8,3.4-1.8c2.5,0,4.1,1.4,4.1,4.6v11.5h-3.7v-10.3c0-1.1-0.2-2.1-1.6-2.1
		c-1,0-1.7,0.5-1.7,1.8v10.6h-3.7V544.9z"/>
	<path class="st2" d="M767.1,560.7h-3.4v-1.7c-0.5,1.3-1.3,2-3.2,2c-2.5,0-4.1-1.4-4.1-4.6v-11.6h3.7v10.3c0,1.1,0.3,2.1,1.6,2.1
		c1,0,1.7-0.5,1.7-1.8v-10.6h3.7V560.7z"/>
	<path class="st2" d="M771.8,548.4h-1.7v-3.5h1.7v-3h3.7v3h1.7v3.5h-1.7v12.3h-3.7V548.4z"/>
	<path class="st2" d="M783.4,554.2c0,1.6,0.4,3.4,2.1,3.4c1,0,1.7-0.6,1.9-1.9h3.7c-0.3,2.2-1.2,3.6-2.3,4.4c-1.1,0.8-2.3,1-3.4,1
		c-4.1,0-6.1-3.7-6.1-8.2s1.9-8.2,6.1-8.2c2.1,0,3.6,0.9,4.6,2.5c1.2,2,1.3,4.6,1.2,7H783.4z M787.5,551c0-0.9-0.1-3.3-2-3.3
		c-1.3,0-2.1,1.1-2.1,3.3H787.5z"/>
	<path class="st2" d="M801,549.6c-0.1-1.2-0.5-1.8-1.7-1.8c-0.9,0-1.3,0.5-1.3,1.2c0,1.3,1.8,1.4,3.6,2c1.8,0.6,3.6,1.6,3.6,4.8
		c0,3-2.3,5.2-5.6,5.2c-3,0-5.4-1.7-5.8-5.4h3.7c0.1,1.2,0.9,2,2.1,2c1.2,0,1.5-0.8,1.5-1.6c0-1.4-1.8-1.5-3.6-2.1
		c-1.8-0.6-3.6-1.7-3.6-4.8c0-2.6,1.8-4.6,5.4-4.6c3.5,0,5.1,1.9,5.3,5H801z"/>
	<path class="st2" d="M809.8,563h-1.6l1.8-5.3h1.9L809.8,563z"/>
	<path class="st2" d="M822.2,540.1h1.9v2.7h-1.9V540.1z M822.2,545.6h1.9v15.1h-1.9V545.6z"/>
	<path class="st2" d="M829.3,540.1h1.9v20.6h-1.9V540.1z"/>
	<path class="st2" d="M844.4,547.3h-1.7v-1.8h1.7v-1.1c0-4.5,3.6-4.7,4.5-4.7v1.6c-1.4,0.1-2.6,0.8-2.6,3.2v1h2.6v1.8h-2.6v13.4
		h-1.9V547.3z"/>
	<path class="st2" d="M861.5,560.7h-1.7c0-1.3,0-2.2,0-2.9c-0.7,2.1-2.1,3.3-4,3.3c-3,0-5.1-3.2-5.1-7.9c0-4.7,1.9-8,5.1-8
		c1.7,0,3.2,0.9,4,3.3c0-0.9,0-1.8,0-2.9h1.7V560.7z M852.6,553.2c0,3.4,1.2,6.1,3.5,6.1c1.2,0,2-0.6,2.6-1.7
		c0.6-1.1,0.9-2.4,0.9-4.4c0-2-0.2-3.4-0.9-4.4c-0.6-1-1.4-1.7-2.6-1.7C853.8,547.1,852.6,549.7,852.6,553.2L852.6,553.2z"/>
	<path class="st2" d="M876.4,560.7h-1.7c0-0.9,0-1.7,0.1-2.6c-0.8,2.2-2.5,3-4.2,3c-2.6,0-4.3-1.5-4.3-5.2v-10.3h1.9v9.7
		c0,1.5,0.2,3.9,2.9,3.9c2.2,0,3.6-1.5,3.6-4.7v-9h1.9V560.7z"/>
	<path class="st2" d="M881.9,547.3h-2.1v-1.8h2.1v-4.8h1.9v4.8h2.1v1.8h-2.1v13.4h-1.9V547.3z"/>
	<path class="st2" d="M907.1,566.3h-1.9v-5.6c0-1.3,0-2.1,0.1-2.8c-0.6,2-2.1,3.2-3.9,3.2c-3.2,0-5.1-3.3-5.1-7.9c0-4.8,2.1-8,5.1-8
		c1.8,0,3.3,1,4,3.3c0-0.9,0-1.8,0-2.9h1.8V566.3z M898.2,553.2c0,3.4,1.2,6.1,3.5,6.1c1.2,0,2-0.6,2.6-1.7c0.6-1.1,0.9-2.4,0.9-4.4
		c0-2-0.2-3.4-0.9-4.4c-0.6-1-1.4-1.7-2.6-1.7C899.4,547.1,898.2,549.7,898.2,553.2L898.2,553.2z"/>
	<path class="st2" d="M922,560.7h-1.7c0-0.9,0-1.7,0.1-2.6c-0.8,2.2-2.5,3-4.2,3c-2.6,0-4.3-1.5-4.3-5.2v-10.3h1.9v9.7
		c0,1.5,0.2,3.9,2.9,3.9c2.2,0,3.6-1.5,3.6-4.7v-9h1.9V560.7z"/>
	<path class="st2" d="M928,553.7c0,3.1,1.3,5.6,3.8,5.6c1.8,0,3-1.3,3.4-3h1.8c-0.3,1.6-1,2.8-1.9,3.6c-0.9,0.8-2.1,1.2-3.3,1.2
		c-4.2,0-5.8-4-5.8-7.9c0-4.7,2.2-8,5.7-8c1.8,0,3.2,0.8,4.1,2.1c1.2,1.8,1.4,4.1,1.4,6.3H928z M935.3,552.1
		c-0.1-3.1-1.4-5.3-3.6-5.3c-2.2,0-3.6,2.3-3.7,5.3H935.3z"/>
	<path class="st2" d="M959,555.6c-0.3,3.1-2,5.5-5,5.5c-4,0-5.8-3.8-5.8-7.9c0-5,2.3-8,5.8-8c3.1,0,4.9,2.4,5,5.6H957
		c-0.3-3-1.8-3.8-3.2-3.8c-1.1,0-2.1,0.4-2.8,1.6c-0.7,1.2-1,2.6-1,4.6c0,4,1.4,6.2,3.8,6.2c1.9,0,2.9-1.5,3.2-3.8H959z"/>
	<path class="st2" d="M963.7,553.7c0,3.1,1.3,5.6,3.8,5.6c1.8,0,3-1.3,3.4-3h1.8c-0.3,1.6-1,2.8-1.9,3.6c-0.9,0.8-2.1,1.2-3.3,1.2
		c-4.2,0-5.8-4-5.8-7.9c0-4.7,2.2-8,5.7-8c1.8,0,3.2,0.8,4.1,2.1c1.2,1.8,1.4,4.1,1.4,6.3H963.7z M971.1,552.1
		c-0.1-3.1-1.4-5.3-3.6-5.3c-2.2,0-3.6,2.3-3.7,5.3H971.1z"/>
	<path class="st2" d="M990.8,549.5c0-1.9-1-2.6-2.4-2.6c-1.3,0-2.2,0.9-2.2,2.3c0,1.7,1.4,2.3,3.3,2.9c1.7,0.5,3.6,1.5,3.6,4.6
		c0,2.7-1.9,4.5-4.5,4.5c-2.8,0-4.6-1.6-4.7-4.8h1.8c0,2.1,1.2,3.1,2.9,3.1c1.6,0,2.6-1.1,2.6-2.6c0-1.8-1.3-2.6-3.3-3.2
		c-1.9-0.6-3.6-1.6-3.6-4.3c0-2.4,1.8-4,4.2-4c2.6,0,4.1,1.5,4.2,4.3H990.8z"/>
	<path class="st2" d="M996.3,553.1c0-4.3,1.8-7.9,5.8-7.9c4,0,5.8,3.6,5.8,7.9s-1.8,7.9-5.8,7.9C998,561.1,996.3,557.5,996.3,553.1
		L996.3,553.1z M998.2,553.2c0,4,1.3,6.2,3.9,6.2c2.5,0,3.8-2.1,3.8-6.2c0-4-1.3-6.2-3.9-6.2C999.5,547,998.2,549.1,998.2,553.2
		L998.2,553.2z"/>
	<path class="st2" d="M1012.1,540.1h1.9v2.7h-1.9V540.1z M1012.1,545.6h1.9v15.1h-1.9V545.6z"/>
	<path class="st2" d="M1019.7,547.3h-2.1v-1.8h2.1v-4.8h1.9v4.8h2.1v1.8h-2.1v13.4h-1.9V547.3z"/>
	<path class="st2" d="M1034.9,545.6h1.7c0,1.4,0,2.3-0.1,3.2c0.8-3,2.7-3.5,4-3.5v2.2c-0.2-0.1-0.4-0.2-0.7-0.2
		c-1.3,0-3.1,1.6-3.1,5.4v8.1h-1.9V545.6z"/>
	<path class="st2" d="M1053.3,560.7h-1.7c0-1.3,0-2.2,0-2.9c-0.7,2.1-2.1,3.3-4,3.3c-3,0-5.1-3.2-5.1-7.9c0-4.7,1.9-8,5.1-8
		c1.7,0,3.2,0.9,4,3.3c0-0.9,0-1.8,0-2.9h1.7V560.7z M1044.4,553.2c0,3.4,1.2,6.1,3.5,6.1c1.2,0,2-0.6,2.6-1.7
		c0.6-1.1,0.9-2.4,0.9-4.4c0-2-0.2-3.4-0.9-4.4c-0.6-1-1.4-1.7-2.6-1.7C1045.6,547.1,1044.4,549.7,1044.4,553.2L1044.4,553.2z"/>
	<path class="st2" d="M1058.1,545.6h1.7c0,1.1,0,2,0,2.9c0.8-2.3,2.2-3.3,4-3.3c3,0,5.1,3.1,5.1,8c0,4.6-1.9,7.9-5.1,7.9
		c-1.8,0-3.3-1.2-3.9-3.1c0.1,0.7,0.1,1.4,0.1,2.8v5.6h-1.9V545.6z M1067,553.1c0-3.4-1.2-6.1-3.5-6.1c-1.2,0-2,0.6-2.6,1.7
		c-0.7,1-0.9,2.4-0.9,4.4c0,2,0.3,3.4,0.9,4.4c0.6,1,1.4,1.7,2.6,1.7C1065.8,559.3,1067,556.6,1067,553.1L1067,553.1z"/>
	<path class="st2" d="M1073.1,540.1h1.9v2.7h-1.9V540.1z M1073.1,545.6h1.9v15.1h-1.9V545.6z"/>
	<path class="st2" d="M1089.9,560.7h-1.7c0-1.4,0-2.2,0-3c-0.5,2.1-2.1,3.4-4,3.4c-3,0-5.1-3.2-5.1-7.9c0-4.7,1.9-8,5.1-8
		c1.7,0,3.1,0.9,3.9,3.2c-0.1-0.9-0.1-1.7-0.1-2.8v-5.5h1.9V560.7z M1081,553.2c0,3.4,1.2,6.1,3.5,6.1c1.2,0,2-0.6,2.6-1.7
		c0.6-1.1,0.9-2.4,0.9-4.4s-0.2-3.4-0.9-4.4c-0.6-1-1.4-1.6-2.6-1.6C1082.2,547.1,1081,549.7,1081,553.2L1081,553.2z"/>
	<path class="st2" d="M1095.9,553.7c0,3.1,1.3,5.6,3.8,5.6c1.8,0,3-1.3,3.4-3h1.8c-0.3,1.6-1,2.8-1.9,3.6c-0.9,0.8-2.1,1.2-3.3,1.2
		c-4.2,0-5.8-4-5.8-7.9c0-4.7,2.2-8,5.7-8c1.8,0,3.2,0.8,4.1,2.1c1.2,1.8,1.4,4.1,1.4,6.3H1095.9z M1103.2,552.1
		c-0.1-3.1-1.4-5.3-3.6-5.3c-2.2,0-3.6,2.3-3.7,5.3H1103.2z"/>
	<path class="st2" d="M1118.1,553.7c0,3.1,1.3,5.6,3.8,5.6c1.8,0,3-1.3,3.4-3h1.8c-0.3,1.6-1,2.8-1.9,3.6c-0.9,0.8-2.1,1.2-3.3,1.2
		c-4.2,0-5.8-4-5.8-7.9c0-4.7,2.2-8,5.7-8c1.8,0,3.2,0.8,4.1,2.1c1.2,1.8,1.4,4.1,1.4,6.3H1118.1z M1125.5,552.1
		c-0.1-3.1-1.4-5.3-3.6-5.3c-2.2,0-3.6,2.3-3.7,5.3H1125.5z"/>
	<path class="st2" d="M1132.1,547.3h-2.1v-1.8h2.1v-4.8h1.9v4.8h2.1v1.8h-2.1v13.4h-1.9V547.3z"/>
	<path class="st2" d="M1148.4,553.7c0,3.1,1.3,5.6,3.8,5.6c1.8,0,3-1.3,3.4-3h1.8c-0.3,1.6-1,2.8-1.9,3.6c-0.9,0.8-2.1,1.2-3.3,1.2
		c-4.2,0-5.8-4-5.8-7.9c0-4.7,2.2-8,5.7-8c1.8,0,3.2,0.8,4.1,2.1c1.2,1.8,1.4,4.1,1.4,6.3H1148.4z M1155.8,552.1
		c-0.1-3.1-1.4-5.3-3.6-5.3c-2.2,0-3.6,2.3-3.7,5.3H1155.8z"/>
	<path class="st2" d="M1162,547.3h-1.7v-1.8h1.7v-1.1c0-4.5,3.6-4.7,4.5-4.7v1.6c-1.4,0.1-2.6,0.8-2.6,3.2v1h2.6v1.8h-2.6v13.4h-1.9
		V547.3z"/>
	<path class="st2" d="M1171.5,547.3v13.4h-1.9v-13.4h-1.7v-1.8h1.7v-1.1c0-4.5,3.6-4.7,4.5-4.7v1.6c-1.4,0.1-2.6,0.8-2.6,3.2v1h5.8
		v15.1h-1.9v-13.4H1171.5z M1175.4,542.9v-2.8h1.9v2.8H1175.4z"/>
	<path class="st2" d="M1192.1,555.6c-0.3,3.1-2,5.5-5,5.5c-4,0-5.8-3.8-5.8-7.9c0-5,2.3-8,5.8-8c3.1,0,4.9,2.4,5,5.6h-1.9
		c-0.3-3-1.8-3.8-3.2-3.8c-1.1,0-2.1,0.4-2.8,1.6c-0.7,1.2-1,2.6-1,4.6c0,4,1.4,6.2,3.8,6.2c1.9,0,2.9-1.5,3.2-3.8H1192.1z"/>
	<path class="st2" d="M1205.6,560.7h-1.7c0-1.3,0-2.2,0-2.9c-0.7,2.1-2.1,3.3-4,3.3c-3,0-5.1-3.2-5.1-7.9c0-4.7,1.9-8,5.1-8
		c1.7,0,3.2,0.9,4,3.3c0-0.9,0-1.8,0-2.9h1.7V560.7z M1196.7,553.2c0,3.4,1.2,6.1,3.5,6.1c1.2,0,2-0.6,2.6-1.7
		c0.6-1.1,0.9-2.4,0.9-4.4c0-2-0.2-3.4-0.9-4.4c-0.6-1-1.4-1.7-2.6-1.7C1197.9,547.1,1196.7,549.7,1196.7,553.2L1196.7,553.2z"/>
	<path class="st2" d="M1220.4,555.6c-0.3,3.1-2,5.5-5,5.5c-4,0-5.8-3.8-5.8-7.9c0-5,2.3-8,5.8-8c3.1,0,4.9,2.4,5,5.6h-1.9
		c-0.3-3-1.8-3.8-3.2-3.8c-1.1,0-2.1,0.4-2.8,1.6c-0.7,1.2-1,2.6-1,4.6c0,4,1.4,6.2,3.8,6.2c1.9,0,2.9-1.5,3.2-3.8H1220.4z"/>
	<path class="st2" d="M1225.1,553.7c0,3.1,1.3,5.6,3.8,5.6c1.8,0,3-1.3,3.4-3h1.8c-0.3,1.6-1,2.8-1.9,3.6c-0.9,0.8-2.1,1.2-3.3,1.2
		c-4.2,0-5.8-4-5.8-7.9c0-4.7,2.2-8,5.7-8c1.8,0,3.2,0.8,4.1,2.1c1.2,1.8,1.4,4.1,1.4,6.3H1225.1z M1232.4,552.1
		c-0.1-3.1-1.4-5.3-3.6-5.3c-2.2,0-3.6,2.3-3.7,5.3H1232.4z"/>
	<path class="st2" d="M1240.6,560.7h-1.9v-3h1.9V560.7z"/>
	<path class="st2" d="M545.4,609.1h10v3.9h-5.8v4h5.8v3.9h-5.8v5h5.8v3.9h-10V609.1z"/>
	<path class="st2" d="M560.1,613.9h3.2v1.5c0.6-1.1,1.4-1.8,3.4-1.8c2.5,0,4.1,1.4,4.1,4.6v11.5H567v-10.3c0-1.1-0.3-2.1-1.6-2.1
		c-1,0-1.7,0.5-1.7,1.8v10.6h-3.7V613.9z"/>
	<path class="st2" d="M575.5,617.4h-1.7v-3.5h1.7v-3h3.7v3h1.7v3.5h-1.7v12.3h-3.7V617.4z"/>
	<path class="st2" d="M583.9,613.9h3.4v2.1c0.6-2,1.9-2.4,4-2.4v4.6c-0.5-0.4-1.1-0.5-1.6-0.5c-1.4,0-2,1.2-2,2.8v9.2h-3.7V613.9z"
		/>
	<path class="st2" d="M597.3,623.2c0,1.6,0.4,3.4,2.1,3.4c1,0,1.7-0.6,1.9-1.9h3.7c-0.3,2.2-1.2,3.6-2.3,4.4c-1.1,0.8-2.3,1-3.4,1
		c-4.1,0-6.1-3.7-6.1-8.2s1.9-8.2,6.1-8.2c2.1,0,3.6,0.9,4.6,2.5c1.2,2,1.3,4.6,1.2,7H597.3z M601.4,620c0-0.9-0.1-3.3-2-3.3
		c-1.3,0-2.1,1.1-2.1,3.3H601.4z"/>
	<path class="st2" d="M617.4,615c0-4,2.6-6.2,6.3-6.2c3.7,0,6.1,2.2,6.1,5.5c0,2.4-1,3.5-2.5,4.1c2.5,0.8,3.3,3,3.3,5.3
		c0,3.5-2.3,6.3-6.6,6.3c-2.8,0-4.9-1.1-6-2.9c-0.6-1.1-1-2.3-1-3.8h4.3c0,1.7,0.9,2.8,2.6,2.8c1.4,0,2.3-1.1,2.3-2.6
		c0-2.1-1.3-3-3.1-3h-1.3v-3.7h1.1c1.7,0,2.5-0.8,2.5-2.2c0-1.1-0.6-2-2-2c-1.2,0-1.8,1.1-1.8,2.3H617.4z"/>
	<path class="st2" d="M634,615.8c0-4.5,2.6-7,6.5-7s6.5,2.6,6.5,7v7.2c0,4.5-2.6,7-6.5,7s-6.5-2.6-6.5-7V615.8z M638,622.8
		c0,2.4,1,3.5,2.5,3.5c1.5,0,2.5-1.1,2.5-3.5v-6.7c0-2.4-1-3.5-2.5-3.5c-1.5,0-2.5,1.1-2.5,3.5V622.8z"/>
	<path class="st2" d="M663.2,623.2c0,1.6,0.4,3.4,2.1,3.4c1,0,1.7-0.6,1.9-1.9h3.7c-0.3,2.2-1.2,3.6-2.3,4.4c-1.1,0.8-2.3,1-3.4,1
		c-4.1,0-6.1-3.7-6.1-8.2s1.9-8.2,6.1-8.2c2.1,0,3.6,0.9,4.6,2.5c1.2,2,1.3,4.6,1.2,7H663.2z M667.3,620c0-0.9-0.1-3.3-2-3.3
		c-1.3,0-2.1,1.1-2.1,3.3H667.3z"/>
	<path class="st2" d="M675.2,617.4h-1.7v-3.5h1.7v-3h3.7v3h1.7v3.5h-1.7v12.3h-3.7V617.4z"/>
	<path class="st2" d="M699.1,625.6h-7.3v-3.7l7.2-12.7h4.1v12.7h2v3.7h-2v4.1h-4V625.6z M699.1,621.9v-6.8l-3.6,6.8H699.1z"/>
	<path class="st2" d="M720.8,609.1v3.5h-7.3l-0.2,4c0.8-1.2,1.7-1.4,3.1-1.4c3.1,0,5.5,2.4,5.5,7c0,4.9-2.2,7.9-6.8,7.9
		c-4.2,0-6-2.5-6.2-6.4h4.2c0,1.1,0.7,2.5,2.1,2.5c1.7,0,2.4-1.1,2.4-3.7c0-2.4-0.9-3.4-2.2-3.4c-1,0-1.8,0.8-2,1.8h-4.1l0.5-11.7
		H720.8z"/>
	<path class="st2" d="M734.7,613.9h3.5v1.8c0.5-1.6,1.5-2.2,3.2-2.2c0.9,0,1.7,0.2,2.3,0.7c0.3,0.2,0.6,0.6,0.8,1
		c0.2-0.4,0.6-0.8,1-1.1c0.7-0.4,1.6-0.7,2.6-0.7c1.6,0,2.8,0.6,3.6,1.5c0.8,0.9,1.1,2.1,1.1,3.4v11.2H749v-10.6
		c0-0.7-0.1-1.1-0.4-1.4c-0.3-0.3-0.7-0.4-1.3-0.4c-0.5,0-1,0.1-1.3,0.3c-0.3,0.3-0.5,0.7-0.5,1.3v10.8h-3.7v-10.6
		c0-0.7-0.1-1.1-0.4-1.4c-0.3-0.3-0.7-0.4-1.3-0.4c-0.5,0-1,0.1-1.3,0.3c-0.3,0.3-0.5,0.7-0.5,1.3v10.8h-3.7V613.9z"/>
	<path class="st2" d="M757.7,609.1h3.7v3.1h-3.7V609.1z M757.7,613.9h3.7v15.8h-3.7V613.9z"/>
	<path class="st2" d="M766.1,613.9h3.2v1.5c0.6-1.1,1.4-1.8,3.4-1.8c2.5,0,4.1,1.4,4.1,4.6v11.5h-3.7v-10.3c0-1.1-0.3-2.1-1.6-2.1
		c-1,0-1.7,0.5-1.7,1.8v10.6h-3.7V613.9z"/>
	<path class="st2" d="M791.7,629.7h-3.4v-1.7c-0.5,1.3-1.3,2-3.2,2c-2.5,0-4.1-1.4-4.1-4.6v-11.6h3.7v10.3c0,1.1,0.3,2.1,1.6,2.1
		c1,0,1.7-0.5,1.7-1.8v-10.6h3.7V629.7z"/>
	<path class="st2" d="M796.4,617.4h-1.7v-3.5h1.7v-3h3.7v3h1.7v3.5h-1.7v12.3h-3.7V617.4z"/>
	<path class="st2" d="M808,623.2c0,1.6,0.4,3.4,2.1,3.4c1,0,1.7-0.6,1.9-1.9h3.7c-0.3,2.2-1.2,3.6-2.3,4.4c-1.1,0.8-2.3,1-3.4,1
		c-4.1,0-6.1-3.7-6.1-8.2s1.9-8.2,6.1-8.2c2.1,0,3.6,0.9,4.6,2.5c1.2,2,1.3,4.6,1.2,7H808z M812.1,620c0-0.9-0.1-3.3-2-3.3
		c-1.3,0-2.1,1.1-2.1,3.3H812.1z"/>
	<path class="st2" d="M825.6,618.6c-0.1-1.2-0.5-1.8-1.7-1.8c-0.9,0-1.3,0.5-1.3,1.2c0,1.3,1.8,1.4,3.6,2c1.8,0.6,3.6,1.6,3.6,4.8
		c0,3-2.3,5.2-5.6,5.2c-3,0-5.4-1.7-5.8-5.4h3.7c0.1,1.2,0.9,2,2.1,2c1.2,0,1.5-0.8,1.5-1.6c0-1.4-1.8-1.5-3.6-2.1
		c-1.8-0.6-3.6-1.7-3.6-4.8c0-2.6,1.8-4.6,5.4-4.6c3.5,0,5.1,1.9,5.3,5H825.6z"/>
	<path class="st2" d="M841.1,614.6h1.7c0,1.1,0,2,0,2.9c0.8-2.3,2.2-3.3,4-3.3c3,0,5.1,3.1,5.1,8c0,4.6-1.9,7.9-5.1,7.9
		c-1.8,0-3.3-1.2-3.9-3.1c0.1,0.7,0.1,1.4,0.1,2.8v5.6h-1.9V614.6z M850,622.1c0-3.4-1.2-6.1-3.5-6.1c-1.2,0-2,0.6-2.6,1.7
		c-0.7,1-0.9,2.4-0.9,4.4c0,2,0.2,3.4,0.9,4.4c0.6,1,1.4,1.7,2.6,1.7C848.8,628.3,850,625.6,850,622.1L850,622.1z"/>
	<path class="st2" d="M855.1,622.1c0-4.3,1.8-7.9,5.8-7.9c4,0,5.8,3.6,5.8,7.9s-1.8,7.9-5.8,7.9
		C856.9,630.1,855.1,626.5,855.1,622.1L855.1,622.1z M857,622.2c0,4,1.3,6.2,3.9,6.2c2.5,0,3.8-2.1,3.8-6.2c0-4-1.3-6.2-3.9-6.2
		C858.3,616,857,618.1,857,622.2L857,622.2z"/>
	<path class="st2" d="M880.9,629.7h-1.7c0-0.9,0-1.7,0.1-2.6c-0.8,2.2-2.5,3-4.2,3c-2.6,0-4.3-1.5-4.3-5.2v-10.3h1.9v9.7
		c0,1.5,0.2,3.9,2.9,3.9c2.2,0,3.6-1.5,3.6-4.7v-9h1.9V629.7z"/>
	<path class="st2" d="M885.7,614.6h1.7c0,1.4,0,2.3-0.1,3.2c0.8-3,2.7-3.5,4-3.5v2.2c-0.2-0.1-0.4-0.2-0.7-0.2
		c-1.3,0-3.1,1.6-3.1,5.4v8.1h-1.9V614.6z"/>
	<path class="st2" d="M912.3,629.7h-1.7c0-1.3,0-2.2,0-2.9c-0.7,2.1-2.1,3.3-4,3.3c-3,0-5.1-3.2-5.1-7.9c0-4.7,1.9-8,5.1-8
		c1.7,0,3.2,0.9,4,3.3c0-0.9,0-1.8,0-2.9h1.7V629.7z M903.4,622.2c0,3.4,1.2,6.1,3.5,6.1c1.2,0,2-0.6,2.6-1.7
		c0.6-1.1,0.9-2.4,0.9-4.4c0-2-0.2-3.4-0.9-4.4c-0.6-1-1.4-1.7-2.6-1.7C904.6,616.1,903.4,618.7,903.4,622.2L903.4,622.2z"/>
	<path class="st2" d="M921.7,629.7h-1.9l-4.6-15.1h1.9l3.6,12.6l3.5-12.6h1.9L921.7,629.7z"/>
	<path class="st2" d="M928,622.1c0-4.3,1.8-7.9,5.8-7.9c4,0,5.8,3.6,5.8,7.9s-1.8,7.9-5.8,7.9C929.8,630.1,928,626.5,928,622.1
		L928,622.1z M930,622.2c0,4,1.3,6.2,3.9,6.2c2.5,0,3.8-2.1,3.8-6.2c0-4-1.3-6.2-3.9-6.2C931.3,616,930,618.1,930,622.2L930,622.2z"
		/>
	<path class="st2" d="M943.9,609.1h1.9v2.7h-1.9V609.1z M943.9,614.6h1.9v15.1h-1.9V614.6z"/>
	<path class="st2" d="M950.8,614.6h1.7c0,1.4,0,2.3-0.1,3.2c0.8-3,2.7-3.5,4-3.5v2.2c-0.2-0.1-0.4-0.2-0.7-0.2
		c-1.3,0-3.1,1.6-3.1,5.4v8.1h-1.9V614.6z"/>
	<path class="st2" d="M967.6,609.1h1.9v20.6h-1.9V609.1z"/>
	<path class="st2" d="M975.7,622.7c0,3.1,1.3,5.6,3.8,5.6c1.8,0,3-1.3,3.4-3h1.8c-0.3,1.6-1,2.8-1.9,3.6c-0.9,0.8-2.1,1.2-3.3,1.2
		c-4.2,0-5.8-4-5.8-7.9c0-4.7,2.2-8,5.7-8c1.8,0,3.2,0.8,4.1,2.1c1.2,1.8,1.4,4.1,1.4,6.3H975.7z M983,621.1
		c-0.1-3.1-1.4-5.3-3.6-5.3c-2.2,0-3.6,2.3-3.7,5.3H983z"/>
	<path class="st2" d="M997.5,616.3h-2.1v-1.8h2.1v-4.8h1.9v4.8h2.1v1.8h-2.1v13.4h-1.9V616.3z"/>
	<path class="st2" d="M1005.6,622.7c0,3.1,1.3,5.6,3.8,5.6c1.8,0,3-1.3,3.4-3h1.8c-0.3,1.6-1,2.8-1.9,3.6c-0.9,0.8-2.1,1.2-3.3,1.2
		c-4.2,0-5.8-4-5.8-7.9c0-4.7,2.2-8,5.7-8c1.8,0,3.2,0.8,4.1,2.1c1.2,1.8,1.4,4.1,1.4,6.3H1005.6z M1013,621.1
		c-0.1-3.1-1.4-5.3-3.6-5.3c-2.2,0-3.6,2.3-3.7,5.3H1013z"/>
	<path class="st2" d="M1018.9,614.6h1.8c0,0.8,0,1.6-0.1,2.5c0.8-2.4,2.5-2.8,3.8-2.8c1.1,0,1.9,0.3,2.6,1c0.4,0.4,0.7,1.1,0.8,1.8
		c0.3-0.8,0.7-1.4,1.3-1.9c0.8-0.6,1.7-0.9,2.8-0.9c1.8,0,2.9,0.9,3.5,1.9c0.6,0.9,0.7,2.6,0.7,4.1v9.4h-1.9v-9.3
		c0-1.1-0.1-2.1-0.3-2.8c-0.3-1-1.3-1.6-2.3-1.6c-0.9,0-1.7,0.2-2.4,1.2c-0.6,0.9-0.8,2.2-0.8,3.3v9.1h-1.9v-9.2c0-1.2,0-2-0.3-2.9
		c-0.3-1-1.2-1.6-2.3-1.6c-0.9,0-1.8,0.3-2.4,1.2c-0.7,0.9-0.8,2.2-0.8,3.4v9.1h-1.9V614.6z"/>
	<path class="st2" d="M1041,614.6h1.7c0,1.1,0,2,0,2.9c0.8-2.3,2.2-3.3,4-3.3c3,0,5.1,3.1,5.1,8c0,4.6-1.9,7.9-5.1,7.9
		c-1.8,0-3.3-1.2-3.9-3.1c0.1,0.7,0.1,1.4,0.1,2.8v5.6h-1.9V614.6z M1049.9,622.1c0-3.4-1.2-6.1-3.5-6.1c-1.2,0-2,0.6-2.6,1.7
		c-0.7,1-0.9,2.4-0.9,4.4c0,2,0.3,3.4,0.9,4.4c0.6,1,1.4,1.7,2.6,1.7C1048.7,628.3,1049.9,625.6,1049.9,622.1L1049.9,622.1z"/>
	<path class="st2" d="M1061.8,618.5c0-1.9-1-2.6-2.4-2.6c-1.3,0-2.2,0.9-2.2,2.3c0,1.7,1.4,2.3,3.3,2.9c1.7,0.5,3.6,1.5,3.6,4.6
		c0,2.7-1.9,4.5-4.5,4.5c-2.8,0-4.6-1.6-4.7-4.8h1.8c0,2.1,1.2,3.1,2.9,3.1c1.6,0,2.6-1.1,2.6-2.6c0-1.8-1.3-2.6-3.3-3.2
		c-1.9-0.6-3.6-1.6-3.6-4.3c0-2.4,1.8-4,4.2-4c2.6,0,4.1,1.5,4.2,4.3H1061.8z"/>
	<path class="st2" d="M1085.8,629.7h-1.7c0-1.4,0-2.2,0-3c-0.5,2.1-2.1,3.4-4,3.4c-3,0-5.1-3.2-5.1-7.9c0-4.7,1.9-8,5.1-8
		c1.7,0,3.1,0.9,3.9,3.2c-0.1-0.9-0.1-1.7-0.1-2.8v-5.5h1.9V629.7z M1076.9,622.2c0,3.4,1.2,6.1,3.5,6.1c1.2,0,2-0.6,2.6-1.7
		c0.6-1.1,0.9-2.4,0.9-4.4s-0.2-3.4-0.9-4.4c-0.6-1-1.4-1.6-2.6-1.6C1078.2,616.1,1076.9,618.7,1076.9,622.2L1076.9,622.2z"/>
	<path class="st2" d="M1091.8,622.7c0,3.1,1.3,5.6,3.8,5.6c1.8,0,3-1.3,3.4-3h1.8c-0.3,1.6-1,2.8-1.9,3.6c-0.9,0.8-2.1,1.2-3.3,1.2
		c-4.2,0-5.8-4-5.8-7.9c0-4.7,2.2-8,5.7-8c1.8,0,3.2,0.8,4.1,2.1c1.2,1.8,1.4,4.1,1.4,6.3H1091.8z M1099.2,621.1
		c-0.1-3.1-1.4-5.3-3.6-5.3c-2.2,0-3.6,2.3-3.7,5.3H1099.2z"/>
	<path class="st2" d="M1113.1,609.1h1.9v20.6h-1.9V609.1z"/>
	<path class="st2" d="M1130.1,629.7h-1.7c0-0.9,0-1.7,0.1-2.6c-0.8,2.2-2.5,3-4.2,3c-2.6,0-4.3-1.5-4.3-5.2v-10.3h1.9v9.7
		c0,1.5,0.2,3.9,2.9,3.9c2.2,0,3.6-1.5,3.6-4.7v-9h1.9V629.7z"/>
	<path class="st2" d="M1135.1,609.1h1.9v2.7h-1.9V609.1z M1135.1,614.6h1.9v15.1h-1.9V614.6z"/>
	<path class="st2" d="M1149.8,614.6h1.7c0,1.1,0,2,0,2.9c0.8-2.3,2.2-3.3,4-3.3c3,0,5.1,3.1,5.1,8c0,4.6-1.9,7.9-5.1,7.9
		c-1.8,0-3.3-1.2-3.9-3.1c0.1,0.7,0.1,1.4,0.1,2.8v5.6h-1.9V614.6z M1158.7,622.1c0-3.4-1.2-6.1-3.5-6.1c-1.2,0-2,0.6-2.6,1.7
		c-0.7,1-0.9,2.4-0.9,4.4c0,2,0.3,3.4,0.9,4.4c0.6,1,1.4,1.7,2.6,1.7C1157.5,628.3,1158.7,625.6,1158.7,622.1L1158.7,622.1z"/>
	<path class="st2" d="M1163.7,622.1c0-4.3,1.8-7.9,5.8-7.9c4,0,5.8,3.6,5.8,7.9s-1.8,7.9-5.8,7.9
		C1165.5,630.1,1163.7,626.5,1163.7,622.1L1163.7,622.1z M1165.7,622.2c0,4,1.3,6.2,3.9,6.2c2.5,0,3.8-2.1,3.8-6.2
		c0-4-1.3-6.2-3.9-6.2C1167,616,1165.7,618.1,1165.7,622.2L1165.7,622.2z"/>
	<path class="st2" d="M1185.5,618.5c0-1.9-1-2.6-2.4-2.6c-1.3,0-2.2,0.9-2.2,2.3c0,1.7,1.4,2.3,3.3,2.9c1.7,0.5,3.6,1.5,3.6,4.6
		c0,2.7-1.9,4.5-4.5,4.5c-2.8,0-4.6-1.6-4.7-4.8h1.8c0,2.1,1.2,3.1,2.9,3.1c1.6,0,2.6-1.1,2.6-2.6c0-1.8-1.3-2.6-3.3-3.2
		c-1.9-0.6-3.6-1.6-3.6-4.3c0-2.4,1.8-4,4.2-4c2.6,0,4.1,1.5,4.2,4.3H1185.5z"/>
	<path class="st2" d="M1192.9,622.7c0,3.1,1.3,5.6,3.8,5.6c1.8,0,3-1.3,3.4-3h1.8c-0.3,1.6-1,2.8-1.9,3.6c-0.9,0.8-2.1,1.2-3.3,1.2
		c-4.2,0-5.8-4-5.8-7.9c0-4.7,2.2-8,5.7-8c1.8,0,3.2,0.8,4.1,2.1c1.2,1.8,1.4,4.1,1.4,6.3H1192.9z M1200.2,621.1
		c-0.1-3.1-1.4-5.3-3.6-5.3c-2.2,0-3.6,2.3-3.7,5.3H1200.2z"/>
	<path class="st2" d="M1206.1,614.6h1.7c0,1.4,0,2.3-0.1,3.2c0.8-3,2.7-3.5,4-3.5v2.2c-0.2-0.1-0.4-0.2-0.7-0.2
		c-1.3,0-3.1,1.6-3.1,5.4v8.1h-1.9V614.6z"/>
	<path class="st2" d="M1223.5,616.3h-2.1v-1.8h2.1v-4.8h1.9v4.8h2.1v1.8h-2.1v13.4h-1.9V616.3z"/>
	<path class="st2" d="M1229.7,622.1c0-4.3,1.8-7.9,5.8-7.9c4,0,5.8,3.6,5.8,7.9s-1.8,7.9-5.8,7.9
		C1231.4,630.1,1229.7,626.5,1229.7,622.1L1229.7,622.1z M1231.6,622.2c0,4,1.3,6.2,3.9,6.2c2.5,0,3.8-2.1,3.8-6.2
		c0-4-1.3-6.2-3.9-6.2C1232.9,616,1231.6,618.1,1231.6,622.2L1231.6,622.2z"/>
	<path class="st2" d="M1255.5,629.7h-1.7c0-0.9,0-1.7,0.1-2.6c-0.8,2.2-2.5,3-4.2,3c-2.6,0-4.3-1.5-4.3-5.2v-10.3h1.9v9.7
		c0,1.5,0.2,3.9,2.9,3.9c2.2,0,3.6-1.5,3.6-4.7v-9h1.9V629.7z"/>
	<path class="st2" d="M1261,616.3h-2.1v-1.8h2.1v-4.8h1.9v4.8h2.1v1.8h-2.1v13.4h-1.9V616.3z"/>
	<path class="st2" d="M1269.1,622.7c0,3.1,1.3,5.6,3.8,5.6c1.8,0,3-1.3,3.4-3h1.8c-0.3,1.6-1,2.8-1.9,3.6c-0.9,0.8-2.1,1.2-3.3,1.2
		c-4.2,0-5.8-4-5.8-7.9c0-4.7,2.2-8,5.7-8c1.8,0,3.2,0.8,4.1,2.1c1.2,1.8,1.4,4.1,1.4,6.3H1269.1z M1276.5,621.1
		c-0.1-3.1-1.4-5.3-3.6-5.3c-2.2,0-3.6,2.3-3.7,5.3H1276.5z"/>
	<path class="st2" d="M1288.4,618.5c0-1.9-1-2.6-2.4-2.6c-1.3,0-2.2,0.9-2.2,2.3c0,1.7,1.4,2.3,3.3,2.9c1.7,0.5,3.6,1.5,3.6,4.6
		c0,2.7-1.9,4.5-4.5,4.5c-2.8,0-4.6-1.6-4.7-4.8h1.8c0,2.1,1.2,3.1,2.9,3.1c1.6,0,2.6-1.1,2.6-2.6c0-1.8-1.3-2.6-3.3-3.2
		c-1.9-0.6-3.6-1.6-3.6-4.3c0-2.4,1.8-4,4.2-4c2.6,0,4.1,1.5,4.2,4.3H1288.4z"/>
	<path class="st2" d="M1302.7,609.1h1.9v20.6h-1.9V609.1z"/>
	<path class="st2" d="M1310.8,622.7c0,3.1,1.3,5.6,3.8,5.6c1.8,0,3-1.3,3.4-3h1.8c-0.3,1.6-1,2.8-1.9,3.6c-0.9,0.8-2.1,1.2-3.3,1.2
		c-4.2,0-5.8-4-5.8-7.9c0-4.7,2.2-8,5.7-8c1.8,0,3.2,0.8,4.1,2.1c1.2,1.8,1.4,4.1,1.4,6.3H1310.8z M1318.1,621.1
		c-0.1-3.1-1.4-5.3-3.6-5.3c-2.2,0-3.6,2.3-3.7,5.3H1318.1z"/>
	<path class="st2" d="M1330.1,618.5c0-1.9-1-2.6-2.4-2.6c-1.3,0-2.2,0.9-2.2,2.3c0,1.7,1.4,2.3,3.3,2.9c1.7,0.5,3.6,1.5,3.6,4.6
		c0,2.7-1.9,4.5-4.5,4.5c-2.8,0-4.6-1.6-4.7-4.8h1.8c0,2.1,1.2,3.1,2.9,3.1c1.6,0,2.6-1.1,2.6-2.6c0-1.8-1.3-2.6-3.3-3.2
		c-1.9-0.6-3.6-1.6-3.6-4.3c0-2.4,1.8-4,4.2-4c2.6,0,4.1,1.5,4.2,4.3H1330.1z"/>
	<path class="st2" d="M1354.1,635.3h-1.9v-5.6c0-1.3,0-2.1,0.1-2.8c-0.6,2-2.1,3.2-3.9,3.2c-3.2,0-5.1-3.3-5.1-7.9
		c0-4.8,2.1-8,5.1-8c1.8,0,3.3,1,4,3.3c0-0.9,0-1.8,0-2.9h1.8V635.3z M1345.2,622.2c0,3.4,1.2,6.1,3.5,6.1c1.2,0,2-0.6,2.6-1.7
		c0.6-1.1,0.9-2.4,0.9-4.4c0-2-0.2-3.4-0.9-4.4c-0.6-1-1.4-1.7-2.6-1.7C1346.4,616.1,1345.2,618.7,1345.2,622.2L1345.2,622.2z"/>
	<path class="st2" d="M1369.1,629.7h-1.7c0-0.9,0-1.7,0.1-2.6c-0.8,2.2-2.5,3-4.2,3c-2.6,0-4.3-1.5-4.3-5.2v-10.3h1.9v9.7
		c0,1.5,0.2,3.9,2.9,3.9c2.2,0,3.6-1.5,3.6-4.7v-9h1.9V629.7z"/>
	<path class="st2" d="M1375,622.7c0,3.1,1.3,5.6,3.8,5.6c1.8,0,3-1.3,3.4-3h1.8c-0.3,1.6-1,2.8-1.9,3.6c-0.9,0.8-2.1,1.2-3.3,1.2
		c-4.2,0-5.8-4-5.8-7.9c0-4.7,2.2-8,5.7-8c1.8,0,3.2,0.8,4.1,2.1c1.2,1.8,1.4,4.1,1.4,6.3H1375z M1382.4,621.1
		c-0.1-3.1-1.4-5.3-3.6-5.3c-2.2,0-3.6,2.3-3.7,5.3H1382.4z"/>
	<path class="st2" d="M1394.4,618.5c0-1.9-1-2.6-2.4-2.6c-1.3,0-2.2,0.9-2.2,2.3c0,1.7,1.4,2.3,3.3,2.9c1.7,0.5,3.6,1.5,3.6,4.6
		c0,2.7-1.9,4.5-4.5,4.5c-2.8,0-4.6-1.6-4.7-4.8h1.8c0,2.1,1.2,3.1,2.9,3.1c1.6,0,2.6-1.1,2.6-2.6c0-1.8-1.3-2.6-3.3-3.2
		c-1.9-0.6-3.6-1.6-3.6-4.3c0-2.4,1.8-4,4.2-4c2.6,0,4.1,1.5,4.2,4.3H1394.4z"/>
	<path class="st2" d="M1401.3,616.3h-2.1v-1.8h2.1v-4.8h1.9v4.8h2.1v1.8h-2.1v13.4h-1.9V616.3z"/>
	<path class="st2" d="M1408.9,609.1h1.9v2.7h-1.9V609.1z M1408.9,614.6h1.9v15.1h-1.9V614.6z"/>
	<path class="st2" d="M1414.9,622.1c0-4.3,1.8-7.9,5.8-7.9c4,0,5.8,3.6,5.8,7.9s-1.8,7.9-5.8,7.9
		C1416.7,630.1,1414.9,626.5,1414.9,622.1L1414.9,622.1z M1416.9,622.2c0,4,1.3,6.2,3.9,6.2c2.5,0,3.8-2.1,3.8-6.2
		c0-4-1.3-6.2-3.9-6.2C1418.2,616,1416.9,618.1,1416.9,622.2L1416.9,622.2z"/>
	<path class="st2" d="M1430.6,614.6h1.7c0,0.9,0,1.6-0.1,2.6c0.8-2.1,2.5-3,4.3-3c2.6,0,4.3,1.5,4.3,5.2v10.3h-1.9V620
		c0-1.5-0.2-3.9-2.9-3.9c-2.2,0-3.6,1.5-3.6,4.7v9h-1.9V614.6z"/>
	<path class="st2" d="M1451.6,618.5c0-1.9-1-2.6-2.4-2.6c-1.3,0-2.2,0.9-2.2,2.3c0,1.7,1.4,2.3,3.3,2.9c1.7,0.5,3.6,1.5,3.6,4.6
		c0,2.7-1.9,4.5-4.5,4.5c-2.8,0-4.6-1.6-4.7-4.8h1.8c0,2.1,1.2,3.1,2.9,3.1c1.6,0,2.6-1.1,2.6-2.6c0-1.8-1.3-2.6-3.3-3.2
		c-1.9-0.6-3.6-1.6-3.6-4.3c0-2.4,1.8-4,4.2-4c2.6,0,4.1,1.5,4.2,4.3H1451.6z"/>
	<path class="st2" d="M1460.1,629.7h-1.9v-3h1.9V629.7z"/>
	<path class="st2" d="M551.2,678.1c1.9,0,3.6,0.6,4.8,1.7c1.2,1.1,1.9,2.8,1.9,5c0,2.2-0.7,3.8-1.9,5c-1.2,1.1-2.9,1.7-4.8,1.7h-1.6
		v7.2h-4.2v-20.6H551.2z M549.6,687.7h1.6c0.8,0,1.4-0.2,1.8-0.7c0.4-0.4,0.6-1.1,0.6-2.1c0-1.1-0.2-1.7-0.6-2.2
		c-0.4-0.4-1-0.6-1.8-0.6h-1.6V687.7z"/>
	<path class="st2" d="M562,678.1h3.7v20.6H562V678.1z"/>
	<path class="st2" d="M581.1,698.7h-3.4v-1.7c-0.5,1.3-1.3,2-3.2,2c-2.5,0-4.1-1.4-4.1-4.6v-11.6h3.7v10.3c0,1.1,0.3,2.1,1.6,2.1
		c1,0,1.7-0.5,1.7-1.8v-10.6h3.7V698.7z"/>
	<path class="st2" d="M591.4,687.6c-0.1-1.2-0.5-1.8-1.7-1.8c-0.9,0-1.3,0.5-1.3,1.2c0,1.3,1.8,1.4,3.6,2c1.8,0.6,3.6,1.6,3.6,4.8
		c0,3-2.3,5.2-5.6,5.2c-3,0-5.4-1.7-5.8-5.4h3.7c0.1,1.2,0.9,2,2.1,2c1.2,0,1.5-0.8,1.5-1.6c0-1.4-1.8-1.5-3.6-2.1
		c-1.8-0.6-3.6-1.7-3.6-4.8c0-2.6,1.8-4.6,5.4-4.6c3.5,0,5.1,1.9,5.3,5H591.4z"/>
	<path class="st2" d="M618.5,698.7h-3.4V697c-0.3,1.3-1.6,2.1-3.1,2.1c-2.8,0-5-2.6-5-8.2c0-5.3,1.8-8.2,5-8.2
		c1.3,0,2.2,0.5,2.8,1.7c0-0.4,0-0.9,0-1.3v-4.8h3.7V698.7z M610.8,690.9c0,3.5,0.8,4.5,2,4.5c0.8,0,1.1-0.2,1.5-0.7
		c0.5-0.6,0.5-1.3,0.5-3.8c0-2.5,0-3.2-0.5-3.8c-0.4-0.5-0.7-0.7-1.5-0.7C611.6,686.3,610.8,687.3,610.8,690.9L610.8,690.9z"/>
	<path class="st2" d="M623.6,678.1h4l-3,7h-3.3L623.6,678.1z"/>
	<path class="st2" d="M640.8,698.7h-3.4v-1.7c-0.5,1.3-1.3,2-3.2,2c-2.5,0-4.1-1.4-4.1-4.6v-11.6h3.7v10.3c0,1.1,0.3,2.1,1.6,2.1
		c1,0,1.7-0.5,1.7-1.8v-10.6h3.7V698.7z"/>
	<path class="st2" d="M645.1,682.9h3.2v1.5c0.6-1.1,1.4-1.8,3.4-1.8c2.5,0,4.1,1.4,4.1,4.6v11.5h-3.7v-10.3c0-1.1-0.2-2.1-1.6-2.1
		c-1,0-1.7,0.5-1.7,1.8v10.6h-3.7V682.9z"/>
	<path class="st2" d="M663.6,692.2c0,1.6,0.4,3.4,2.1,3.4c1,0,1.7-0.6,1.9-1.9h3.7c-0.3,2.2-1.2,3.6-2.3,4.4c-1.1,0.8-2.3,1-3.4,1
		c-4.1,0-6.1-3.7-6.1-8.2s1.9-8.2,6.1-8.2c2.1,0,3.6,0.9,4.6,2.5c1.2,2,1.3,4.6,1.2,7H663.6z M667.7,689c0-0.9-0.1-3.3-2-3.3
		c-1.3,0-2.1,1.1-2.1,3.3H667.7z"/>
	<path class="st2" d="M684,678.1h3.7v4.5v1.3c0.3-0.6,0.9-1.3,2.8-1.3c1.4,0,2.5,0.5,3.1,1.3c0.7,0.8,1,1.9,1,3.3v11.5H691v-10.4
		c0-0.5-0.1-1-0.3-1.4c-0.2-0.4-0.6-0.6-1.2-0.6c-0.5,0-0.9,0.1-1.2,0.4c-0.3,0.3-0.5,0.7-0.5,1.3v10.7H684V678.1z"/>
	<path class="st2" d="M702.5,692.2c0,1.6,0.4,3.4,2.1,3.4c1,0,1.7-0.6,1.9-1.9h3.7c-0.3,2.2-1.2,3.6-2.3,4.4c-1.1,0.8-2.3,1-3.4,1
		c-4.1,0-6.1-3.7-6.1-8.2s1.9-8.2,6.1-8.2c2.1,0,3.6,0.9,4.6,2.5c1.2,2,1.3,4.6,1.2,7H702.5z M706.6,689c0-0.9-0.1-3.3-2-3.3
		c-1.3,0-2.1,1.1-2.1,3.3H706.6z"/>
	<path class="st2" d="M724.8,698.7h-3.4v-1.7c-0.5,1.3-1.3,2-3.2,2c-2.5,0-4.1-1.4-4.1-4.6v-11.6h3.7v10.3c0,1.1,0.3,2.1,1.6,2.1
		c1,0,1.7-0.5,1.7-1.8v-10.6h3.7V698.7z"/>
	<path class="st2" d="M729.1,682.9h3.4v2.1c0.6-2,1.9-2.4,4-2.4v4.6c-0.5-0.4-1.1-0.5-1.6-0.5c-1.4,0-2,1.2-2,2.8v9.2h-3.7V682.9z"
		/>
	<path class="st2" d="M742.5,692.2c0,1.6,0.4,3.4,2.1,3.4c1,0,1.7-0.6,1.9-1.9h3.7c-0.3,2.2-1.2,3.6-2.3,4.4c-1.1,0.8-2.3,1-3.4,1
		c-4.1,0-6.1-3.7-6.1-8.2s1.9-8.2,6.1-8.2c2.1,0,3.6,0.9,4.6,2.5c1.2,2,1.3,4.6,1.2,7H742.5z M746.6,689c0-0.9-0.1-3.3-2-3.3
		c-1.3,0-2.1,1.1-2.1,3.3H746.6z"/>
	<path class="st2" d="M762.1,683.6h1.7c0,1.1,0,2,0,2.9c0.8-2.3,2.2-3.3,4-3.3c3,0,5.1,3.1,5.1,8c0,4.6-1.9,7.9-5.1,7.9
		c-1.8,0-3.3-1.2-3.9-3.1c0.1,0.7,0.1,1.4,0.1,2.8v5.6h-1.9V683.6z M771,691.1c0-3.4-1.2-6.1-3.5-6.1c-1.2,0-2,0.6-2.6,1.7
		c-0.7,1-0.9,2.4-0.9,4.4c0,2,0.2,3.4,0.9,4.4c0.6,1,1.4,1.7,2.6,1.7C769.9,697.3,771,694.6,771,691.1L771,691.1z"/>
	<path class="st2" d="M776.1,691.1c0-4.3,1.8-7.9,5.8-7.9c4,0,5.8,3.6,5.8,7.9s-1.8,7.9-5.8,7.9
		C777.9,699.1,776.1,695.5,776.1,691.1L776.1,691.1z M778,691.2c0,4,1.3,6.2,3.9,6.2c2.5,0,3.8-2.1,3.8-6.2c0-4-1.3-6.2-3.9-6.2
		C779.3,685,778,687.1,778,691.2L778,691.2z"/>
	<path class="st2" d="M801.9,698.7h-1.7c0-0.9,0-1.7,0.1-2.6c-0.8,2.2-2.5,3-4.2,3c-2.6,0-4.3-1.5-4.3-5.2v-10.3h1.9v9.7
		c0,1.5,0.2,3.9,2.9,3.9c2.2,0,3.6-1.5,3.6-4.7v-9h1.9V698.7z"/>
	<path class="st2" d="M806.7,683.6h1.7c0,1.4,0,2.3-0.1,3.2c0.8-3,2.7-3.5,4-3.5v2.2c-0.2-0.1-0.4-0.2-0.7-0.2
		c-1.3,0-3.1,1.6-3.1,5.4v8.1h-1.9V683.6z"/>
	<path class="st2" d="M823.5,678.1h1.9v20.6h-1.9V678.1z"/>
	<path class="st2" d="M831.6,691.7c0,3.1,1.3,5.6,3.8,5.6c1.8,0,3-1.3,3.4-3h1.8c-0.3,1.6-1,2.8-1.9,3.6c-0.9,0.8-2.1,1.2-3.3,1.2
		c-4.2,0-5.8-4-5.8-7.9c0-4.7,2.2-8,5.7-8c1.8,0,3.2,0.8,4.1,2.1c1.2,1.8,1.4,4.1,1.4,6.3H831.6z M838.9,690.1
		c-0.1-3.1-1.4-5.3-3.6-5.3c-2.2,0-3.6,2.3-3.7,5.3H838.9z"/>
	<path class="st2" d="M853.4,685.3h-2.1v-1.8h2.1v-4.8h1.9v4.8h2.1v1.8h-2.1v13.4h-1.9V685.3z"/>
	<path class="st2" d="M861.5,691.7c0,3.1,1.3,5.6,3.8,5.6c1.8,0,3-1.3,3.4-3h1.8c-0.3,1.6-1,2.8-1.9,3.6c-0.9,0.8-2.1,1.2-3.3,1.2
		c-4.2,0-5.8-4-5.8-7.9c0-4.7,2.2-8,5.7-8c1.8,0,3.2,0.8,4.1,2.1c1.2,1.8,1.4,4.1,1.4,6.3H861.5z M868.9,690.1
		c-0.1-3.1-1.4-5.3-3.6-5.3c-2.2,0-3.6,2.3-3.7,5.3H868.9z"/>
	<path class="st2" d="M880.8,687.5c0-1.9-1-2.6-2.4-2.6c-1.3,0-2.2,0.9-2.2,2.3c0,1.7,1.4,2.3,3.3,2.9c1.7,0.5,3.6,1.5,3.6,4.6
		c0,2.7-1.9,4.5-4.5,4.5c-2.8,0-4.6-1.6-4.7-4.8h1.8c0,2.1,1.2,3.1,2.9,3.1c1.6,0,2.6-1.1,2.6-2.6c0-1.8-1.3-2.6-3.3-3.2
		c-1.9-0.6-3.6-1.6-3.6-4.3c0-2.4,1.8-4,4.2-4c2.6,0,4.1,1.5,4.2,4.3H880.8z"/>
	<path class="st2" d="M887.8,685.3h-2.1v-1.8h2.1v-4.8h1.9v4.8h2.1v1.8h-2.1v13.4h-1.9V685.3z"/>
	<path class="st2" d="M896,691.7c0,3.1,1.3,5.6,3.8,5.6c1.8,0,3-1.3,3.4-3h1.8c-0.3,1.6-1,2.8-1.9,3.6c-0.9,0.8-2.1,1.2-3.3,1.2
		c-4.2,0-5.8-4-5.8-7.9c0-4.7,2.2-8,5.7-8c1.8,0,3.2,0.8,4.1,2.1c1.2,1.8,1.4,4.1,1.4,6.3H896z M903.3,690.1
		c-0.1-3.1-1.4-5.3-3.6-5.3c-2.2,0-3.6,2.3-3.7,5.3H903.3z"/>
	<path class="st2" d="M909.2,683.6h1.7c0,1.4,0,2.3-0.1,3.2c0.8-3,2.7-3.5,4-3.5v2.2c-0.2-0.1-0.4-0.2-0.7-0.2
		c-1.3,0-3.1,1.6-3.1,5.4v8.1h-1.9V683.6z"/>
	<path class="st2" d="M931.9,687.5c0-1.9-1-2.6-2.4-2.6c-1.3,0-2.2,0.9-2.2,2.3c0,1.7,1.4,2.3,3.3,2.9c1.7,0.5,3.6,1.5,3.6,4.6
		c0,2.7-1.9,4.5-4.5,4.5c-2.8,0-4.6-1.6-4.7-4.8h1.8c0,2.1,1.2,3.1,2.9,3.1c1.6,0,2.6-1.1,2.6-2.6c0-1.8-1.3-2.6-3.3-3.2
		c-1.9-0.6-3.6-1.6-3.6-4.3c0-2.4,1.8-4,4.2-4c2.6,0,4.1,1.5,4.2,4.3H931.9z"/>
	<path class="st2" d="M948.3,698.7h-1.7c0-0.9,0-1.7,0.1-2.6c-0.8,2.2-2.5,3-4.2,3c-2.6,0-4.3-1.5-4.3-5.2v-10.3h1.9v9.7
		c0,1.5,0.2,3.9,2.9,3.9c2.2,0,3.6-1.5,3.6-4.7v-9h1.9V698.7z"/>
	<path class="st2" d="M953.1,683.6h1.7c0,1.4,0,2.3-0.1,3.2c0.8-3,2.7-3.5,4-3.5v2.2c-0.2-0.1-0.4-0.2-0.7-0.2
		c-1.3,0-3.1,1.6-3.1,5.4v8.1h-1.9V683.6z"/>
	<path class="st2" d="M970,678.1h1.9v20.6H970V678.1z"/>
	<path class="st2" d="M986.8,698.7h-1.7c0-1.3,0-2.2,0-2.9c-0.7,2.1-2.1,3.3-4,3.3c-3,0-5.1-3.2-5.1-7.9c0-4.7,1.9-8,5.1-8
		c1.7,0,3.2,0.9,4,3.3c0-0.9,0-1.8,0-2.9h1.7V698.7z M977.9,691.2c0,3.4,1.2,6.1,3.5,6.1c1.2,0,2-0.6,2.6-1.7
		c0.6-1.1,0.9-2.4,0.9-4.4c0-2-0.2-3.4-0.9-4.4c-0.6-1-1.4-1.7-2.6-1.7C979.1,685.1,977.9,687.7,977.9,691.2L977.9,691.2z"/>
	<path class="st2" d="M1009.4,698.7h-1.7c0-1.4,0-2.2,0-3c-0.5,2.1-2.1,3.4-4,3.4c-3,0-5.1-3.2-5.1-7.9c0-4.7,1.9-8,5.1-8
		c1.7,0,3.1,0.9,3.9,3.2c-0.1-0.9-0.1-1.7-0.1-2.8v-5.5h1.9V698.7z M1000.5,691.2c0,3.4,1.2,6.1,3.5,6.1c1.2,0,2-0.6,2.6-1.7
		c0.6-1.1,0.9-2.4,0.9-4.4s-0.2-3.4-0.9-4.4c-0.6-1-1.4-1.6-2.6-1.6C1001.7,685.1,1000.5,687.7,1000.5,691.2L1000.5,691.2z"/>
	<path class="st2" d="M1014.4,678.1h1.9v2.7h-1.9V678.1z M1014.4,683.6h1.9v15.1h-1.9V683.6z"/>
	<path class="st2" d="M1027.3,687.5c0-1.9-1-2.6-2.4-2.6c-1.3,0-2.2,0.9-2.2,2.3c0,1.7,1.4,2.3,3.3,2.9c1.7,0.5,3.6,1.5,3.6,4.6
		c0,2.7-1.9,4.5-4.5,4.5c-2.8,0-4.6-1.6-4.7-4.8h1.8c0,2.1,1.2,3.1,2.9,3.1c1.6,0,2.6-1.1,2.6-2.6c0-1.8-1.3-2.6-3.3-3.2
		c-1.9-0.6-3.6-1.6-3.6-4.3c0-2.4,1.8-4,4.2-4c2.6,0,4.1,1.5,4.2,4.3H1027.3z"/>
	<path class="st2" d="M1034.3,685.3h-2.1v-1.8h2.1v-4.8h1.9v4.8h2.1v1.8h-2.1v13.4h-1.9V685.3z"/>
	<path class="st2" d="M1051.2,698.7h-1.7c0-1.3,0-2.2,0-2.9c-0.7,2.1-2.1,3.3-4,3.3c-3,0-5.1-3.2-5.1-7.9c0-4.7,1.9-8,5.1-8
		c1.7,0,3.2,0.9,4,3.3c0-0.9,0-1.8,0-2.9h1.7V698.7z M1042.3,691.2c0,3.4,1.2,6.1,3.5,6.1c1.2,0,2-0.6,2.6-1.7
		c0.6-1.1,0.9-2.4,0.9-4.4c0-2-0.2-3.4-0.9-4.4c-0.6-1-1.4-1.7-2.6-1.7C1043.6,685.1,1042.3,687.7,1042.3,691.2L1042.3,691.2z"/>
	<path class="st2" d="M1056,683.6h1.7c0,0.9,0,1.6-0.1,2.6c0.8-2.1,2.5-3,4.3-3c2.6,0,4.3,1.5,4.3,5.2v10.3h-1.9V689
		c0-1.5-0.2-3.9-2.9-3.9c-2.2,0-3.6,1.5-3.6,4.7v9h-1.9V683.6z"/>
	<path class="st2" d="M1080.9,693.6c-0.3,3.1-2,5.5-5,5.5c-4,0-5.8-3.8-5.8-7.9c0-5,2.3-8,5.8-8c3.1,0,4.9,2.4,5,5.6h-1.9
		c-0.3-3-1.8-3.8-3.2-3.8c-1.1,0-2.1,0.4-2.8,1.6c-0.7,1.2-1,2.6-1,4.6c0,4,1.4,6.2,3.8,6.2c1.9,0,2.9-1.5,3.2-3.8H1080.9z"/>
	<path class="st2" d="M1085.7,691.7c0,3.1,1.3,5.6,3.8,5.6c1.8,0,3-1.3,3.4-3h1.8c-0.3,1.6-1,2.8-1.9,3.6c-0.9,0.8-2.1,1.2-3.3,1.2
		c-4.2,0-5.8-4-5.8-7.9c0-4.7,2.2-8,5.7-8c1.8,0,3.2,0.8,4.1,2.1c1.2,1.8,1.4,4.1,1.4,6.3H1085.7z M1093,690.1
		c-0.1-3.1-1.4-5.3-3.6-5.3c-2.2,0-3.6,2.3-3.7,5.3H1093z"/>
	<path class="st2" d="M1101.1,698.7h-1.9v-3h1.9V698.7z"/>
</g>
<line class="st1" x1="1368.9" y1="247.2" x2="1369.4" y2="247.2"/>
<circle class="st3" cx="689.3" cy="247.2" r="19.3"/>
<path class="st4" d="M689.3,227.8h-0.2v38.6h0.2c10.7,0.2,19.5-8.2,19.8-18.9c0.2-10.7-8.2-19.5-18.9-19.8
	C689.9,227.8,689.6,227.8,689.3,227.8z"/>
<circle class="st3" cx="826" cy="247.2" r="39.3"/>
<path class="st4" d="M826,207.8h-0.3v78.6h0.3c21.7,0,39.3-17.6,39.3-39.3S847.7,207.9,826,207.8C826,207.8,826,207.8,826,207.8
	L826,207.8z"/>
<circle class="st3" cx="972.6" cy="247.2" r="19.3"/>
<path class="st4" d="M972.6,227.8h-0.2v38.6h0.2c10.7,0.2,19.5-8.2,19.8-18.9c0.2-10.7-8.2-19.5-18.9-19.8
	C973.2,227.8,972.9,227.8,972.6,227.8z"/>
<circle class="st3" cx="1109.2" cy="247.2" r="19.3"/>
<path class="st4" d="M1109.2,227.8h-0.2v38.6h0.2c10.7,0.2,19.5-8.2,19.8-18.9c0.2-10.7-8.2-19.5-18.9-19.8
	C1109.8,227.8,1109.5,227.8,1109.2,227.8z"/>
<circle class="st3" cx="1245.9" cy="247.2" r="19.3"/>
<path class="st4" d="M1245.9,227.8h-0.2v38.6h0.2c10.7,0.2,19.5-8.2,19.8-18.9c0.2-10.7-8.2-19.5-18.9-19.8
	C1246.5,227.8,1246.2,227.8,1245.9,227.8z"/>
<g class="st5">
	<path class="st2" d="M973.9,239.3c0-1.1-0.5-1.6-1.5-1.6h0c-1,0-1.5,0.5-1.5,1.6v3.2h-3.4v-3.2c0-3.3,1.6-5,4.9-5
		c3.3,0,4.9,1.7,4.9,5v4.1c0,1.6-0.6,2.7-1.9,3.3c1.2,0.6,1.9,1.7,1.9,3.3v3.8c0,3.3-1.6,5-4.9,5c-3.3,0-4.9-1.7-4.9-5v-3.2h3.4v3.2
		c0,1.1,0.5,1.6,1.5,1.6h0c1,0,1.5-0.5,1.5-1.6v-3.8c0-0.9-0.2-1.4-0.5-1.5c-0.2-0.1-0.5-0.1-0.9-0.1h-1.1V245h1.4
		c0.3,0,0.6,0,0.7-0.1c0.3-0.2,0.4-0.7,0.4-1.5V239.3z"/>
</g>
<g class="st5">
	<path class="st2" d="M1113.6,234.7v15.6h1.3v3.4h-1.3v4.8h-3.4v-4.8h-6.9v-3l6-15.9H1113.6z M1106.6,250.3h3.6v-10.1L1106.6,250.3z
		"/>
</g>
<g class="st5">
	<path class="st2" d="M1247.3,247.1c0-0.8-0.2-1.3-0.5-1.5c-0.2-0.1-0.5-0.1-0.9-0.1c-0.1,0-0.2,0-0.3,0c-0.7,0-1.1,0.3-1.2,0.9l0,1
		h-3.4l0.5-12.7h9.3v3.4h-6l-0.2,5.1c0.6-0.7,1.4-1,2.4-1c0.1,0,0.3,0,0.4,0c1.2,0.1,2.1,0.6,2.7,1.4c0.5,0.7,0.8,1.8,0.8,3.4v6.7
		c0,3.3-1.6,5-4.9,5c-3.3,0-4.9-1.7-4.9-5v-2.8h3.4v2.8c0,1.1,0.5,1.6,1.5,1.6h0c1,0,1.5-0.5,1.5-1.6V247.1z"/>
</g>
<path class="st2" d="M690.8,234.7v20.4h3.2v3.4h-9.8v-3.4h3.2v-17h-3.2v-3.4L690.8,234.7z"/>
<path class="st2" d="M815.6,259.8c0-4.4,2.2-8.1,6.5-11.2c4.3-3.1,6.5-5.7,6.5-7.9v-9.5c0-2.2-1-3.3-3-3.3l0,0c-2,0-3,1.1-3,3.3v6.5
	h-7v-6.5c0-6.8,3.3-10.2,10-10.2c6.7,0,10,3.4,10,10.2v9.6c0,4.4-2.2,8.2-6.5,11.3c-4.4,3.1-6.5,5.8-6.5,8.2v2.9h13v6.9h-20
	L815.6,259.8z"/>
<path class="st6" d="M1373.7,354.7H541.9c-4.9,0-8.8,3.9-8.8,8.8v51.4c0,4.9,3.9,8.8,8.8,8.8h360.3l56.5,36l54.7-36h360.3
	c4.9,0,8.8-3.9,8.8-8.8v-51.4C1382.5,358.6,1378.6,354.7,1373.7,354.7z"/>
<g>
	<path class="st2" d="M601.1,392.8c0.1,3.1,1.1,4.5,3.8,4.5c2.2,0,3.4-1.4,3.4-3.5c0-2.7-3.2-3.3-6.4-4.6c-3.2-1.3-6.4-3.1-6.4-8.1
		c0-5.6,3.4-9.2,9.1-9.2c5.5,0,8.5,2.6,9.4,8.5h-5.9c-0.1-2.2-1.3-3.4-3.2-3.4c-1.9,0-3.1,1.4-3.1,3.2c0,2.8,3.2,3.3,6.4,4.6
		s6.4,3.3,6.4,8.9c0,5.6-4.2,9-9.8,9c-6.8,0-9.7-3.6-9.7-9.9H601.1z"/>
	<path class="st2" d="M624.7,392.6c0,2.2,0.6,4.9,3,4.9c1.4,0,2.4-0.9,2.8-2.8h5.3c-0.4,3.2-1.7,5.2-3.3,6.4
		c-1.6,1.1-3.4,1.5-4.8,1.5c-6,0-8.8-5.3-8.8-11.8c0-6.6,2.8-11.8,8.8-11.8c3,0,5.2,1.3,6.6,3.6c1.7,2.9,1.8,6.6,1.7,10.1H624.7z
		 M630.7,388.1c0-1.4-0.2-4.8-2.8-4.8c-1.9,0-3.1,1.6-3.1,4.8H630.7z"/>
	<path class="st2" d="M642,372.5h5.4v29.6H642V372.5z"/>
	<path class="st2" d="M653.1,390.7c0-6.5,2.8-11.8,8.8-11.8s8.8,5.3,8.8,11.8c0,6.6-2.8,11.8-8.8,11.8S653.1,397.3,653.1,390.7
		L653.1,390.7z M658.8,390.8c0,5.3,1.2,6.8,3.2,6.8c1.8,0,3-1.4,3-6.8c0-5.4-1.2-6.8-3.2-6.8C660,383.9,658.8,385.4,658.8,390.8
		L658.8,390.8z"/>
	<path class="st2" d="M675.8,379.4h4.6v2.2c0.9-1.6,2-2.6,4.8-2.6c3.6,0,5.9,2,5.9,6.6v16.6h-5.4v-14.8c0-1.6-0.4-3-2.2-3
		c-1.4,0-2.4,0.7-2.4,2.6v15.2h-5.4V379.4z"/>
	<path class="st2" d="M719.4,402.1h-4.9l-6.6-22.7h5.4l3.5,14.6l3-14.6h5.4L719.4,402.1z"/>
	<path class="st2" d="M728,390.7c0-6.5,2.8-11.8,8.8-11.8s8.8,5.3,8.8,11.8c0,6.6-2.8,11.8-8.8,11.8S728,397.3,728,390.7L728,390.7z
		 M733.7,390.8c0,5.3,1.2,6.8,3.2,6.8c1.8,0,3-1.4,3-6.8c0-5.4-1.2-6.8-3.2-6.8C734.9,383.9,733.7,385.4,733.7,390.8L733.7,390.8z"
		/>
	<path class="st2" d="M766,402.1h-4.8v-2.4c-0.7,1.8-1.8,2.9-4.6,2.9c-3.6,0-5.9-2-5.9-6.6v-16.6h5.4v14.8c0,1.6,0.4,3,2.2,3
		c1.4,0,2.4-0.7,2.4-2.6v-15.2h5.4V402.1z"/>
	<path class="st2" d="M780.8,386.1c-0.1-1.7-0.8-2.6-2.4-2.6c-1.2,0-1.9,0.7-1.9,1.8c0,1.9,2.6,2.1,5.1,2.9c2.6,0.8,5.1,2.3,5.1,7
		c0,4.2-3.4,7.4-8,7.4c-4.4,0-7.8-2.4-8.3-7.8h5.4c0.1,1.7,1.3,2.9,3.1,2.9c1.7,0,2.2-1.2,2.2-2.3c0-2-2.6-2.2-5.1-3
		c-2.6-0.9-5.1-2.4-5.1-6.9c0-3.8,2.6-6.6,7.8-6.6c5,0,7.3,2.8,7.6,7.2H780.8z"/>
	<path class="st2" d="M793.7,406.2h-4.2l2.9-10h5L793.7,406.2z"/>
	<path class="st2" d="M828,402.1h-4.8v-2.4c-0.7,1.8-1.8,2.9-4.6,2.9c-3.6,0-5.9-2-5.9-6.6v-16.6h5.4v14.8c0,1.6,0.4,3,2.2,3
		c1.4,0,2.4-0.7,2.4-2.6v-15.2h5.4V402.1z"/>
	<path class="st2" d="M834.3,379.4h4.6v2.2c0.9-1.6,2-2.6,4.8-2.6c3.6,0,5.9,2,5.9,6.6v16.6h-5.4v-14.8c0-1.6-0.4-3-2.2-3
		c-1.4,0-2.4,0.7-2.4,2.6v15.2h-5.4V379.4z"/>
	<path class="st2" d="M868.6,372.5h5.4v6.9v2.2c0.5-1.4,1.7-2.6,3.9-2.6c4.6,0,7.2,4.2,7.2,11.8c0,8.2-3.1,11.8-7.2,11.8
		c-2.1,0-3.5-0.9-4.4-2.7v2.2h-4.9V372.5z M879.7,390.7c0-4.4-0.8-6.4-2.8-6.4c-2.9,0-2.9,3.1-2.9,6.5s0,6.5,2.9,6.5
		C878.9,397.2,879.7,395.1,879.7,390.7L879.7,390.7z"/>
	<path class="st2" d="M889.1,390.7c0-6.5,2.8-11.8,8.8-11.8s8.8,5.3,8.8,11.8c0,6.6-2.8,11.8-8.8,11.8S889.1,397.3,889.1,390.7
		L889.1,390.7z M894.8,390.8c0,5.3,1.2,6.8,3.2,6.8c1.8,0,3-1.4,3-6.8c0-5.4-1.2-6.8-3.2-6.8C896,383.9,894.8,385.4,894.8,390.8
		L894.8,390.8z"/>
	<path class="st2" d="M911.8,379.4h4.6v2.2c0.9-1.6,2-2.6,4.8-2.6c3.6,0,5.9,2,5.9,6.6v16.6h-5.4v-14.8c0-1.6-0.4-3-2.2-3
		c-1.4,0-2.4,0.7-2.4,2.6v15.2h-5.4V379.4z"/>
	<path class="st2" d="M951,392.6c0,2.2,0.6,4.9,3,4.9c1.4,0,2.4-0.9,2.8-2.8h5.3c-0.4,3.2-1.7,5.2-3.3,6.4c-1.6,1.1-3.4,1.5-4.8,1.5
		c-6,0-8.8-5.3-8.8-11.8c0-6.6,2.8-11.8,8.8-11.8c3,0,5.2,1.3,6.6,3.6c1.7,2.9,1.8,6.6,1.7,10.1H951z M956.9,388.1
		c0-1.4-0.2-4.8-2.8-4.8c-1.9,0-3.1,1.6-3.1,4.8H956.9z"/>
	<path class="st2" d="M967.7,379.4h4.6v2.2c0.9-1.6,2-2.6,4.8-2.6c3.6,0,5.9,2,5.9,6.6v16.6h-5.4v-14.8c0-1.6-0.4-3-2.2-3
		c-1.4,0-2.4,0.7-2.4,2.6v15.2h-5.4V379.4z"/>
	<path class="st2" d="M989.9,384.4h-2.4v-5h2.4V375h5.4v4.3h2.4v5h-2.4v17.7h-5.4V384.4z"/>
	<path class="st2" d="M1002,379.4h4.9v3c0.8-2.8,2.8-3.4,5.8-3.4v6.6c-0.8-0.5-1.6-0.7-2.4-0.7c-2,0-2.9,1.7-2.9,4v13.3h-5.4V379.4z
		"/>
	<path class="st2" d="M1021.2,392.6c0,2.2,0.6,4.9,3,4.9c1.4,0,2.4-0.9,2.8-2.8h5.3c-0.4,3.2-1.7,5.2-3.3,6.4
		c-1.6,1.1-3.4,1.5-4.8,1.5c-6,0-8.8-5.3-8.8-11.8c0-6.6,2.8-11.8,8.8-11.8c3,0,5.2,1.3,6.6,3.6c1.7,2.9,1.8,6.6,1.7,10.1H1021.2z
		 M1027.1,388.1c0-1.4-0.2-4.8-2.8-4.8c-1.9,0-3.1,1.6-3.1,4.8H1027.1z"/>
	<path class="st2" d="M1038.5,384.4h-2.4v-5h2.4V375h5.4v4.3h2.4v5h-2.4v17.7h-5.4V384.4z"/>
	<path class="st2" d="M1051.2,372.5h5.4v4.5h-5.4V372.5z M1051.2,379.4h5.4v22.7h-5.4V379.4z"/>
	<path class="st2" d="M1068.3,392.6c0,2.2,0.6,4.9,3,4.9c1.4,0,2.4-0.9,2.8-2.8h5.3c-0.4,3.2-1.7,5.2-3.3,6.4
		c-1.6,1.1-3.4,1.5-4.8,1.5c-6,0-8.8-5.3-8.8-11.8c0-6.6,2.8-11.8,8.8-11.8c3,0,5.2,1.3,6.6,3.6c1.7,2.9,1.8,6.6,1.7,10.1H1068.3z
		 M1074.2,388.1c0-1.4-0.2-4.8-2.8-4.8c-1.9,0-3.1,1.6-3.1,4.8H1074.2z"/>
	<path class="st2" d="M1085,379.4h4.6v2.2c0.9-1.6,2-2.6,4.8-2.6c3.6,0,5.9,2,5.9,6.6v16.6h-5.4v-14.8c0-1.6-0.4-3-2.2-3
		c-1.4,0-2.4,0.7-2.4,2.6v15.2h-5.4V379.4z"/>
	<path class="st2" d="M1134.7,402.1h-4.9v-2.6c-0.4,1.9-2.3,3-4.4,3c-4.1,0-7.2-3.7-7.2-11.8c0-7.7,2.5-11.8,7.2-11.8
		c1.8,0,3.1,0.7,4,2.4c0-0.6,0-1.3,0-1.9v-6.9h5.4V402.1z M1123.6,390.8c0,5,1.1,6.4,2.9,6.4c1.1,0,1.6-0.3,2.1-1
		c0.7-0.8,0.7-1.9,0.7-5.5c0-3.6,0-4.6-0.7-5.5c-0.6-0.7-1-1-2.1-1C1124.7,384.2,1123.6,385.7,1123.6,390.8L1123.6,390.8z"/>
	<path class="st2" d="M1139.8,390.7c0-6.5,2.8-11.8,8.8-11.8s8.8,5.3,8.8,11.8c0,6.6-2.8,11.8-8.8,11.8S1139.8,397.3,1139.8,390.7
		L1139.8,390.7z M1145.5,390.8c0,5.3,1.2,6.8,3.2,6.8c1.8,0,3-1.4,3-6.8c0-5.4-1.2-6.8-3.2-6.8
		C1146.7,383.9,1145.5,385.4,1145.5,390.8L1145.5,390.8z"/>
	<path class="st2" d="M1163.1,372.5h5.4v4.5h-5.4V372.5z M1163.1,379.4h5.4v22.7h-5.4V379.4z"/>
	<path class="st2" d="M1175.8,384.4h-2.4v-5h2.4V375h5.4v4.3h2.4v5h-2.4v17.7h-5.4V384.4z"/>
	<path class="st2" d="M1216,402.1h-4.9v-2.6c-0.4,1.9-2.3,3-4.4,3c-4.1,0-7.2-3.7-7.2-11.8c0-7.7,2.5-11.8,7.2-11.8
		c1.8,0,3.1,0.7,4,2.4c0-0.6,0-1.3,0-1.9v-6.9h5.4V402.1z M1204.9,390.8c0,5,1.1,6.4,2.9,6.4c1.1,0,1.6-0.3,2.1-1
		c0.7-0.8,0.7-1.9,0.7-5.5c0-3.6,0-4.6-0.7-5.5c-0.6-0.7-1-1-2.1-1C1206.1,384.2,1204.9,385.7,1204.9,390.8L1204.9,390.8z"/>
	<path class="st2" d="M1237.6,402.1h-4.8v-2.4c-0.7,1.8-1.8,2.9-4.6,2.9c-3.6,0-5.9-2-5.9-6.6v-16.6h5.4v14.8c0,1.6,0.4,3,2.2,3
		c1.4,0,2.4-0.7,2.4-2.6v-15.2h5.4V402.1z"/>
	<path class="st2" d="M1243.9,379.4h4.9v3c0.8-2.8,2.8-3.4,5.8-3.4v6.6c-0.8-0.5-1.6-0.7-2.4-0.7c-2,0-2.9,1.7-2.9,4v13.3h-5.4
		V379.4z"/>
	<path class="st2" d="M1263.1,392.6c0,2.2,0.6,4.9,3,4.9c1.4,0,2.4-0.9,2.8-2.8h5.3c-0.4,3.2-1.7,5.2-3.3,6.4
		c-1.6,1.1-3.4,1.5-4.8,1.5c-6,0-8.8-5.3-8.8-11.8c0-6.6,2.8-11.8,8.8-11.8c3,0,5.2,1.3,6.6,3.6c1.7,2.9,1.8,6.6,1.7,10.1H1263.1z
		 M1269,388.1c0-1.4-0.2-4.8-2.8-4.8c-1.9,0-3.1,1.6-3.1,4.8H1269z"/>
	<path class="st2" d="M1279.8,379.4h4.9v3c0.8-2.8,2.8-3.4,5.8-3.4v6.6c-0.8-0.5-1.6-0.7-2.4-0.7c-2,0-2.9,1.7-2.9,4v13.3h-5.4
		V379.4z"/>
	<path class="st2" d="M1311.3,394.1c0-3.2-0.6-5.9,1.2-8.2c1.8-2.3,4.8-3.6,4.8-5.8c0-1.6-1-2.4-2.6-2.4c-1.3,0-2.4,0.9-2.4,2.8v1
		h-6.1V380c0-5.3,3.4-8,8.8-8c4.8,0,8.6,3.3,8.6,8.2c0,3.4-1.8,5.2-3.4,6.7c-3.2,2.8-3,2.6-3,7.2H1311.3z M1317.2,402.1h-5.9V396
		h5.9V402.1z"/>
</g>
</svg>
