<svg xmlns="http://www.w3.org/2000/svg" viewBox="0 0 616.24 141.9"><defs><style>.cls-1,.cls-2{isolation:isolate;}.cls-2{fill:#105768;opacity:0.2;}.cls-3{fill:#fefeff;}.cls-4{fill:#d8d8d8;mix-blend-mode:multiply;}.cls-5{fill:#fff;}</style></defs><title>game3b_item2</title><g class="cls-1"><g id="Calque_2" data-name="Calque 2"><g id="Calque_2-2" data-name="Calque 2"><polygon class="cls-2" points="52.72 125.23 616.24 141.9 608.54 14.7 5.35 2.53 4.05 104.8 52.72 125.23"/><polygon class="cls-3" points="48.67 115.18 602.37 127.2 594.67 0 5.35 2.53 0 94.75 48.67 115.18"/><polygon class="cls-4" points="0 94.75 48.67 115.18 35.45 85.85 0 94.75"/><path class="cls-5" d="M593.8,99.07"/><path d="M71.51,27,69.62,32.5l-2.34,0L73.45,15l2.73,0,5.76,17.6-2.42,0-1.8-5.54Zm5.77-1.69-1.65-5.07c-.38-1.15-.62-2.19-.87-3.21H74.7c-.27,1-.57,2.1-.92,3.16l-1.78,5Z"/><path d="M85.58,20.12,88,27.22a32.22,32.22,0,0,1,1,3.24H89c.3-1,.68-2.07,1.11-3.21l2.53-7,2.39,0-5.1,12.52-2.18,0L83.14,20.09Z"/><path d="M104.56,32.94l-.16-1.59h-.08a4.69,4.69,0,0,1-3.87,1.82,3.59,3.59,0,0,1-3.8-3.66c0-3,2.76-4.67,7.63-4.58v-.26a2.59,2.59,0,0,0-2.82-2.95,6.27,6.27,0,0,0-3.29.89l-.5-1.51A7.81,7.81,0,0,1,101.81,20c3.85,0,4.75,2.69,4.72,5.21L106.47,30a17.74,17.74,0,0,0,.17,3Zm-.26-6.43c-2.5-.08-5.33.32-5.37,2.77a2,2,0,0,0,2.13,2.21,3.13,3.13,0,0,0,3.07-2.07,2.38,2.38,0,0,0,.14-.73Z"/><path d="M110.89,23.84c0-1.3,0-2.37-.06-3.41l2,0,.1,2.08H113a4.63,4.63,0,0,1,4.19-2.31c1.74,0,4.43,1.1,4.38,5.41l-.1,7.51-2.29,0,.09-7.25c0-2-.71-3.73-2.87-3.75a3.25,3.25,0,0,0-3.1,2.3,3.3,3.3,0,0,0-.17,1.06l-.1,7.57-2.29,0Z"/><path d="M128.71,17.05l0,3.61,3.28,0,0,1.74-3.28,0-.09,6.79c0,1.56.41,2.45,1.68,2.47a5.07,5.07,0,0,0,1.33-.14l.08,1.72a5.61,5.61,0,0,1-2,.29,3.17,3.17,0,0,1-2.46-1,4.66,4.66,0,0,1-.84-3.29l.09-6.86-1.95,0,0-1.74,1.95,0,0-3Z"/><path d="M144.12,17.25l0,3.61,3.28,0,0,1.74-3.28,0L144,29.39c0,1.56.41,2.45,1.68,2.47a5.09,5.09,0,0,0,1.33-.14l.08,1.72a5.59,5.59,0,0,1-2,.29,3.17,3.17,0,0,1-2.46-1,4.66,4.66,0,0,1-.84-3.29l.09-6.86-2,0,0-1.74,2,0,0-3Z"/><path d="M161.73,27.27c-.06,4.65-3.31,6.64-6.35,6.6-3.41,0-6-2.57-5.95-6.55.05-4.21,2.84-6.65,6.32-6.6S161.78,23.42,161.73,27.27Zm-10,0c0,2.76,1.52,4.86,3.76,4.88s3.85-2,3.88-4.84c0-2.13-1-4.85-3.71-4.88S151.77,24.88,151.74,27.28Z"/><path d="M175.76,30.41c0,1.3,0,2.44.06,3.43l-2,0-.1-2.06h-.05a4.74,4.74,0,0,1-4.19,2.29c-2,0-4.33-1.15-4.27-5.57l.09-7.36,2.29,0-.09,7c0,2.39.68,4,2.76,4A3.22,3.22,0,0,0,173.49,29l.1-7.72,2.29,0Z"/><path d="M183.12,17.74l0,3.61,3.28,0,0,1.74-3.28,0L183,29.88c0,1.56.41,2.45,1.68,2.47a5.07,5.07,0,0,0,1.33-.14l.08,1.72a5.61,5.61,0,0,1-2,.29,3.17,3.17,0,0,1-2.46-1,4.66,4.66,0,0,1-.84-3.29l.09-6.86-1.95,0,0-1.74,1.95,0,0-3Z"/><path d="M190.61,28.16c0,3.09,2,4.39,4.26,4.42a8.27,8.27,0,0,0,3.49-.61l.37,1.64a10.19,10.19,0,0,1-4.2.73c-3.87,0-6.15-2.63-6.11-6.42s2.32-6.76,6-6.71c4.11.05,5.15,3.68,5.13,6a8.76,8.76,0,0,1-.09,1.07Zm6.73-1.55c0-1.46-.55-3.73-3.12-3.76-2.31,0-3.35,2.09-3.56,3.67Z"/><path d="M218.07,33.92a8.42,8.42,0,0,1-3.62.68c-3.8,0-6.23-2.65-6.18-6.5a6.4,6.4,0,0,1,6.85-6.6,7.64,7.64,0,0,1,3.16.69L217.73,24a5.3,5.3,0,0,0-2.64-.63c-2.89,0-4.47,2.08-4.51,4.7,0,2.91,1.81,4.73,4.31,4.76a6.5,6.5,0,0,0,2.82-.59Z"/><path d="M221.62,16l2.29,0-.1,7.85h.05a4.24,4.24,0,0,1,1.66-1.59,4.71,4.71,0,0,1,2.35-.62c1.69,0,4.38,1.1,4.33,5.44l-.1,7.49-2.29,0,.09-7.23c0-2-.71-3.75-2.86-3.78a3.29,3.29,0,0,0-3.1,2.25,2.77,2.77,0,0,0-.17,1.09l-.1,7.59-2.29,0Z"/><path d="M247.94,28.37c-.06,4.65-3.31,6.64-6.35,6.6-3.41,0-6-2.57-5.95-6.55.05-4.21,2.84-6.65,6.32-6.6S248,24.52,247.94,28.37Zm-10,0c0,2.76,1.52,4.86,3.76,4.88s3.85-2,3.88-4.84c0-2.13-1-4.85-3.71-4.88S238,26,238,28.37Z"/><path d="M251.11,32.46a6,6,0,0,0,3,.95c1.66,0,2.45-.8,2.47-1.84s-.63-1.7-2.31-2.34c-2.25-.83-3.3-2.1-3.28-3.6,0-2,1.68-3.67,4.39-3.64a6.29,6.29,0,0,1,3.08.82l-.59,1.66a4.89,4.89,0,0,0-2.56-.76c-1.35,0-2.12.75-2.13,1.69s.73,1.52,2.36,2.16c2.17.86,3.28,2,3.25,3.84,0,2.21-1.76,3.75-4.75,3.71a7.18,7.18,0,0,1-3.52-.9Z"/><path d="M263.68,29.09c0,3.09,2,4.39,4.26,4.42a8.27,8.27,0,0,0,3.49-.61l.37,1.64a10.19,10.19,0,0,1-4.2.73c-3.87,0-6.15-2.63-6.11-6.42s2.32-6.76,6-6.71c4.11.05,5.15,3.68,5.13,6a8.77,8.77,0,0,1-.09,1.07Zm6.73-1.55c0-1.46-.55-3.73-3.12-3.76-2.31,0-3.35,2.09-3.56,3.67Z"/><path d="M274.18,38.29a37.42,37.42,0,0,0,1.64-6.19l2.55-.23a31.67,31.67,0,0,1-2.55,6.29Z"/><path d="M284.78,38.87a3.7,3.7,0,0,0,2.51-.93c.63-.72.88-1.71.92-4.72l.13-10.53,2.29,0-.14,11.41c0,2.44-.44,4-1.57,5.15A5.8,5.8,0,0,1,285,40.67Zm6.15-19.68a1.34,1.34,0,0,1-1.45,1.39,1.37,1.37,0,0,1-1.39-1.42,1.4,1.4,0,0,1,1.47-1.41A1.35,1.35,0,0,1,290.93,19.19Z"/><path d="M296.21,29.5c0,3.09,2,4.39,4.26,4.42a8.27,8.27,0,0,0,3.49-.61l.37,1.64a10.2,10.2,0,0,1-4.2.73c-3.87,0-6.16-2.63-6.11-6.42s2.32-6.76,6-6.71c4.11.05,5.15,3.68,5.13,6a8.74,8.74,0,0,1-.09,1.07Zm6.73-1.55c0-1.46-.55-3.73-3.12-3.76-2.31,0-3.35,2.09-3.56,3.67Z"/><path d="M314.8,27.13c0-1.61,0-2.91-.05-4.11l2.05,0,.08,2.16h.05a5,5,0,0,1,4.5-2.39c3,0,5.3,2.64,5.25,6.46-.06,4.52-2.84,6.72-5.81,6.69a4.41,4.41,0,0,1-3.85-2H317l-.09,6.84-2.26,0ZM317,30.52a5.14,5.14,0,0,0,.09.94,3.53,3.53,0,0,0,3.4,2.72c2.42,0,3.85-1.93,3.88-4.81,0-2.52-1.27-4.7-3.68-4.73a3.65,3.65,0,0,0-3.49,2.79,3.71,3.71,0,0,0-.17.93Z"/><path d="M330.25,27.15c0-1.48,0-2.76-.05-3.93l2,0,0,2.47h.1A3.78,3.78,0,0,1,335.86,23a2.5,2.5,0,0,1,.65.09l0,2.16a3.39,3.39,0,0,0-.78-.09,3.21,3.21,0,0,0-3.1,2.9,6.47,6.47,0,0,0-.12,1.06l-.08,6.71-2.26,0Z"/><path d="M340.38,30.06c0,3.09,2,4.39,4.26,4.42a8.27,8.27,0,0,0,3.49-.61l.37,1.64a10.19,10.19,0,0,1-4.2.73c-3.87,0-6.16-2.63-6.11-6.42s2.32-6.76,6-6.71c4.11.05,5.15,3.68,5.13,6a8.65,8.65,0,0,1-.09,1.07Zm6.73-1.55c0-1.46-.55-3.73-3.12-3.76-2.31,0-3.35,2.09-3.56,3.67Zm.68-10.5-3.22,3.68-1.64,0L345.26,18Z"/><path d="M353.75,23.52l2.38,7.1a32.21,32.21,0,0,1,1,3.24h.08c.3-1,.68-2.07,1.11-3.21l2.53-7,2.39,0-5.1,12.52-2.18,0L351.3,23.49Z"/><path d="M377.07,30c-.06,4.65-3.31,6.64-6.35,6.6-3.41,0-6-2.57-5.95-6.55.05-4.21,2.84-6.65,6.32-6.6S377.12,26.16,377.07,30Zm-10,0c0,2.76,1.52,4.86,3.76,4.88s3.85-2,3.88-4.84c0-2.13-1-4.85-3.71-4.88S367.11,27.61,367.08,30Z"/><path d="M383.27,20.36a1.42,1.42,0,0,1-2.83,0,1.39,1.39,0,0,1,1.45-1.41A1.36,1.36,0,0,1,383.27,20.36Zm-2.75,16.09.16-12.58,2.29,0-.16,12.58Z"/><path d="M387,34.18a6,6,0,0,0,3,.95c1.66,0,2.46-.8,2.47-1.84s-.63-1.7-2.31-2.34c-2.25-.83-3.3-2.1-3.28-3.6,0-2,1.68-3.67,4.39-3.64a6.28,6.28,0,0,1,3.08.82l-.59,1.66a4.9,4.9,0,0,0-2.56-.76c-1.35,0-2.12.75-2.13,1.69s.74,1.52,2.37,2.16c2.17.86,3.28,2,3.25,3.84,0,2.21-1.76,3.75-4.75,3.71a7.17,7.17,0,0,1-3.52-.9Z"/><path d="M414.93,33.45c0,1.3,0,2.44.06,3.43l-2,0-.1-2.06h-.05a4.74,4.74,0,0,1-4.19,2.29c-2,0-4.33-1.15-4.27-5.57l.09-7.36,2.29,0-.09,7c0,2.39.68,4,2.76,4A3.22,3.22,0,0,0,412.66,32l.1-7.72,2.29,0Z"/><path d="M419.45,27.76c0-1.3,0-2.37-.06-3.41l2,0,.1,2.08h.05a4.63,4.63,0,0,1,4.19-2.31c1.74,0,4.43,1.1,4.38,5.41l-.1,7.51-2.29,0,.09-7.25c0-2-.71-3.73-2.86-3.75a3.25,3.25,0,0,0-3.1,2.3,3.29,3.29,0,0,0-.17,1.06l-.1,7.57-2.29,0Z"/><path d="M440.68,28.73c0-1.61,0-2.91-.05-4.11l2.05,0,.08,2.16h.05a5,5,0,0,1,4.5-2.39c3,0,5.3,2.64,5.25,6.46-.06,4.52-2.84,6.73-5.81,6.69a4.41,4.41,0,0,1-3.85-2h-.05l-.09,6.84-2.26,0Zm2.22,3.38A5.1,5.1,0,0,0,443,33a3.53,3.53,0,0,0,3.4,2.72c2.42,0,3.85-1.93,3.88-4.81,0-2.52-1.27-4.7-3.68-4.73A3.65,3.65,0,0,0,443.1,29a3.69,3.69,0,0,0-.17.93Z"/><path d="M463,37.49l-.16-1.59h-.08a4.68,4.68,0,0,1-3.87,1.82,3.58,3.58,0,0,1-3.8-3.66c0-3,2.76-4.67,7.62-4.58v-.26a2.59,2.59,0,0,0-2.82-2.95,6.27,6.27,0,0,0-3.29.89l-.5-1.51a7.81,7.81,0,0,1,4.15-1.07c3.85,0,4.75,2.69,4.72,5.21l-.06,4.71a17.75,17.75,0,0,0,.17,3Zm-.26-6.43c-2.5-.08-5.33.32-5.37,2.77A2,2,0,0,0,459.49,36,3.13,3.13,0,0,0,462.56,34a2.39,2.39,0,0,0,.14-.73Z"/><path d="M469.31,28.91c0-1.48,0-2.76-.05-3.93l2,0,0,2.47h.1a3.78,3.78,0,0,1,3.52-2.71,2.48,2.48,0,0,1,.65.09l0,2.16a3.42,3.42,0,0,0-.78-.09,3.21,3.21,0,0,0-3.1,2.9,6.52,6.52,0,0,0-.12,1.06l-.08,6.71-2.26,0Z"/><path d="M487.06,37.33a8.42,8.42,0,0,1-3.62.68c-3.8,0-6.23-2.65-6.18-6.5a6.39,6.39,0,0,1,6.84-6.6,7.64,7.64,0,0,1,3.16.69l-.54,1.76a5.3,5.3,0,0,0-2.64-.63c-2.89,0-4.47,2.08-4.51,4.7,0,2.91,1.81,4.73,4.31,4.76a6.49,6.49,0,0,0,2.82-.59Z"/><path d="M501.7,31.58c-.06,4.65-3.31,6.64-6.35,6.6-3.41,0-6-2.57-5.95-6.55.05-4.21,2.84-6.65,6.32-6.6S501.75,27.74,501.7,31.58Zm-10,0c0,2.76,1.52,4.86,3.76,4.88s3.85-2,3.88-4.84c0-2.13-1-4.85-3.71-4.88S491.74,29.2,491.71,31.59Z"/><path d="M515.73,34.73c0,1.3,0,2.44.06,3.43l-2,0-.1-2.06h-.05a4.73,4.73,0,0,1-4.19,2.29c-2,0-4.33-1.15-4.27-5.57l.09-7.36,2.29,0-.09,7c0,2.39.68,4,2.76,4a3.22,3.22,0,0,0,3.26-3.21l.1-7.72,2.29,0Z"/><path d="M520.24,29.56c0-1.48,0-2.76-.05-3.93l2,0,0,2.47h.1a3.78,3.78,0,0,1,3.52-2.71,2.48,2.48,0,0,1,.65.09l0,2.16a3.39,3.39,0,0,0-.78-.09,3.21,3.21,0,0,0-3.1,2.9,6.47,6.47,0,0,0-.12,1.06l-.08,6.71-2.26,0Z"/><path d="M529,36a6,6,0,0,0,3,.95c1.66,0,2.46-.8,2.47-1.84s-.63-1.7-2.31-2.34c-2.25-.83-3.3-2.1-3.28-3.6,0-2,1.68-3.67,4.39-3.64a6.28,6.28,0,0,1,3.08.82L535.76,28a4.89,4.89,0,0,0-2.56-.76c-1.35,0-2.12.75-2.13,1.69s.73,1.52,2.37,2.16c2.17.86,3.28,2,3.25,3.84,0,2.21-1.76,3.75-4.75,3.71a7.17,7.17,0,0,1-3.52-.9Z"/><path d="M99.84,46.42l-.19,15.21c0,1.12,0,2.39.06,3.25l-2.05,0-.08-2.19h-.05a4.66,4.66,0,0,1-4.32,2.42c-3,0-5.35-2.64-5.3-6.46,0-4.19,2.66-6.73,5.73-6.69a4.21,4.21,0,0,1,3.77,2h.05l.1-7.51Zm-2.43,11a4,4,0,0,0-.09-1A3.37,3.37,0,0,0,94,53.74c-2.37,0-3.8,2-3.83,4.81,0,2.55,1.19,4.67,3.66,4.7a3.44,3.44,0,0,0,3.39-2.69,4,4,0,0,0,.12-1Z"/><path d="M107.32,47.17a30,30,0,0,1-2.52,6.13l-1.46.16a36.82,36.82,0,0,0,1.61-6.09Z"/><path d="M112,48.92a1.42,1.42,0,0,1-2.83,0,1.39,1.39,0,0,1,1.45-1.41A1.36,1.36,0,0,1,112,48.92ZM109.22,65l.16-12.58,2.29,0L111.51,65Z"/><path d="M116.07,55.91c0-1.3,0-2.37-.06-3.41l2,0,.1,2.08h.05a4.63,4.63,0,0,1,4.19-2.31c1.74,0,4.43,1.1,4.38,5.41l-.1,7.51-2.29,0,.09-7.25c0-2-.71-3.73-2.87-3.75a3.25,3.25,0,0,0-3.1,2.3,3.29,3.29,0,0,0-.17,1.06l-.1,7.57-2.29,0Z"/><path d="M133.89,49.12l0,3.61,3.28,0,0,1.74-3.28,0-.09,6.79c0,1.56.41,2.45,1.68,2.47a5,5,0,0,0,1.33-.14l.08,1.72a5.6,5.6,0,0,1-2,.29,3.17,3.17,0,0,1-2.46-1,4.66,4.66,0,0,1-.84-3.29l.09-6.86-1.95,0,0-1.74,1.95,0,0-3Z"/><path d="M141.38,59.54c0,3.09,2,4.39,4.26,4.42a8.27,8.27,0,0,0,3.49-.61L149.5,65a10.19,10.19,0,0,1-4.2.73c-3.87,0-6.16-2.63-6.11-6.42s2.32-6.76,6-6.71c4.11.05,5.15,3.68,5.13,6a8.74,8.74,0,0,1-.09,1.06ZM148.11,58c0-1.46-.55-3.73-3.12-3.76-2.31,0-3.35,2.09-3.56,3.67Zm.68-10.5-3.22,3.68-1.64,0,2.33-3.69Z"/><path d="M164.7,53.12c-.06.91-.13,1.92-.15,3.46l-.09,7.31c0,2.89-.63,4.65-1.87,5.72A6.67,6.67,0,0,1,158,71.06,8.13,8.13,0,0,1,153.83,70l.59-1.73a7.09,7.09,0,0,0,3.68,1c2.34,0,4.07-1.17,4.11-4.34l0-1.4h-.05a4.49,4.49,0,0,1-4,2.06c-3.12,0-5.32-2.72-5.28-6.2.05-4.26,2.87-6.65,5.75-6.61a4.19,4.19,0,0,1,3.9,2.23h.05l.13-1.9Zm-2.43,4.94a3.25,3.25,0,0,0-.12-1A3.29,3.29,0,0,0,159,54.56c-2.18,0-3.77,1.8-3.8,4.71,0,2.47,1.19,4.54,3.66,4.57a3.35,3.35,0,0,0,3.2-2.3,4,4,0,0,0,.2-1.22Z"/><path d="M168.84,57.1c0-1.48,0-2.76-.05-3.93l2,0,0,2.47h.1A3.78,3.78,0,0,1,174.46,53a2.49,2.49,0,0,1,.65.09l0,2.16a3.44,3.44,0,0,0-.78-.09,3.21,3.21,0,0,0-3.11,2.9,6.52,6.52,0,0,0-.12,1.06L171,65.79l-2.26,0Z"/><path d="M184.72,66l-.16-1.59h-.08a4.69,4.69,0,0,1-3.87,1.82,3.59,3.59,0,0,1-3.8-3.66c0-3,2.76-4.67,7.63-4.58v-.26a2.59,2.59,0,0,0-2.82-2.95,6.27,6.27,0,0,0-3.29.89l-.5-1.51A7.8,7.8,0,0,1,182,53.06c3.85,0,4.75,2.69,4.72,5.21L186.63,63a17.75,17.75,0,0,0,.17,3Zm-.26-6.43c-2.5-.08-5.33.32-5.37,2.77a2,2,0,0,0,2.13,2.21,3.13,3.13,0,0,0,3.07-2.07,2.39,2.39,0,0,0,.14-.73Z"/><path d="M193.79,49.88l0,3.61,3.28,0,0,1.74-3.28,0L193.64,62c0,1.56.41,2.45,1.68,2.47a5.08,5.08,0,0,0,1.33-.14l.08,1.72a5.61,5.61,0,0,1-2,.29,3.17,3.17,0,0,1-2.46-1,4.66,4.66,0,0,1-.84-3.29l.09-6.86-2,0,0-1.74,2,0,0-3Z"/><path d="M202.84,50.07A1.42,1.42,0,0,1,200,50a1.39,1.39,0,0,1,1.45-1.41A1.36,1.36,0,0,1,202.84,50.07Zm-2.75,16.09.16-12.58,2.29,0-.16,12.58Z"/><path d="M218.29,60c-.06,4.65-3.31,6.64-6.35,6.6-3.41,0-6-2.57-5.95-6.55.05-4.21,2.84-6.65,6.32-6.6S218.33,56.14,218.29,60Zm-10,0c0,2.76,1.52,4.86,3.76,4.88s3.85-2,3.88-4.84c0-2.13-1-4.85-3.71-4.88S208.33,57.6,208.3,60Z"/><path d="M221.86,57.26c0-1.3,0-2.37-.06-3.41l2,0,.1,2.08H224a4.63,4.63,0,0,1,4.19-2.31c1.74,0,4.43,1.1,4.38,5.41l-.1,7.51-2.29,0,.09-7.25c0-2-.71-3.73-2.86-3.75a3.25,3.25,0,0,0-3.1,2.3,3.3,3.3,0,0,0-.17,1.06l-.1,7.57-2.29,0Z"/><path d="M243.09,58.23c0-1.61,0-2.91-.05-4.11l2.05,0,.08,2.16h.05a5,5,0,0,1,4.5-2.39c3,0,5.3,2.64,5.25,6.46-.06,4.52-2.84,6.73-5.81,6.69a4.42,4.42,0,0,1-3.85-2h-.05l-.09,6.84-2.26,0Zm2.22,3.38a5.15,5.15,0,0,0,.09.94,3.53,3.53,0,0,0,3.4,2.72c2.42,0,3.85-1.93,3.88-4.81,0-2.52-1.27-4.7-3.69-4.73a3.65,3.65,0,0,0-3.49,2.79,3.69,3.69,0,0,0-.17.93Z"/><path d="M269.89,60.65c-.06,4.65-3.31,6.64-6.35,6.6-3.41,0-6-2.57-5.95-6.55.05-4.21,2.84-6.65,6.32-6.6S269.94,56.8,269.89,60.65Zm-10,0c0,2.76,1.52,4.86,3.76,4.88s3.85-2,3.88-4.84c0-2.13-1-4.85-3.71-4.88S259.94,58.26,259.91,60.65Z"/><path d="M283.92,63.79c0,1.3,0,2.44.06,3.43l-2,0-.1-2.06h-.05a4.73,4.73,0,0,1-4.19,2.29c-2,0-4.33-1.15-4.27-5.57l.09-7.36,2.29,0-.09,7c0,2.39.68,4,2.76,4a3.31,3.31,0,0,0,3-2,3.35,3.35,0,0,0,.22-1.17l.1-7.72,2.29,0Z"/><path d="M288.43,58.62c0-1.48,0-2.76-.05-3.93l2,0,0,2.47h.1A3.78,3.78,0,0,1,294,54.48a2.48,2.48,0,0,1,.65.09l0,2.16a3.45,3.45,0,0,0-.78-.09,3.21,3.21,0,0,0-3.1,2.9,6.53,6.53,0,0,0-.12,1.06l-.08,6.71-2.26,0Z"/><path d="M305,61.61c0,3.09,2,4.39,4.26,4.42a8.26,8.26,0,0,0,3.49-.61l.37,1.64a10.19,10.19,0,0,1-4.2.73c-3.87,0-6.16-2.63-6.11-6.42s2.32-6.76,6-6.71c4.11.05,5.15,3.68,5.13,6a8.65,8.65,0,0,1-.09,1.07Zm6.73-1.55c0-1.46-.55-3.73-3.12-3.76-2.31,0-3.35,2.09-3.56,3.67Zm.68-10.5-3.22,3.68-1.64,0,2.33-3.69Z"/><path d="M318.35,55.07l2.38,7.1a32.2,32.2,0,0,1,1,3.24h.08c.3-1,.68-2.07,1.11-3.21l2.53-7,2.39,0-5.1,12.52-2.18,0L315.91,55Z"/><path d="M337.32,67.9l-.16-1.59h-.08a4.68,4.68,0,0,1-3.87,1.82,3.58,3.58,0,0,1-3.8-3.66c0-3,2.76-4.67,7.62-4.58v-.26a2.59,2.59,0,0,0-2.82-2.95,6.27,6.27,0,0,0-3.29.89l-.5-1.51A7.81,7.81,0,0,1,334.58,55c3.85,0,4.75,2.69,4.72,5.21l-.06,4.71a17.75,17.75,0,0,0,.17,3Zm-.26-6.43c-2.5-.08-5.33.32-5.37,2.77a2,2,0,0,0,2.13,2.21,3.13,3.13,0,0,0,3.07-2.07,2.39,2.39,0,0,0,.14-.73Z"/><path d="M343.77,49.52l2.29,0L345.83,68l-2.29,0Z"/><path d="M360.9,64.76c0,1.3,0,2.44.06,3.43l-2,0-.1-2.06h-.05a4.73,4.73,0,0,1-4.19,2.29c-2,0-4.33-1.15-4.27-5.57l.09-7.36,2.29,0-.09,7c0,2.39.68,4,2.76,4a3.22,3.22,0,0,0,3.26-3.21l.1-7.72,2.29,0Z"/><path d="M366.65,62.39c0,3.09,2,4.39,4.26,4.42a8.28,8.28,0,0,0,3.49-.61l.37,1.64a10.19,10.19,0,0,1-4.2.73c-3.87,0-6.16-2.63-6.11-6.42s2.32-6.76,6-6.71c4.11.05,5.15,3.68,5.13,6a8.76,8.76,0,0,1-.09,1.06Zm6.73-1.55c0-1.46-.55-3.73-3.12-3.76-2.31,0-3.35,2.09-3.56,3.67Z"/><path d="M379.08,59.77c0-1.48,0-2.76-.05-3.93l2,0,0,2.47h.1a3.78,3.78,0,0,1,3.52-2.71,2.48,2.48,0,0,1,.65.09l0,2.16a3.42,3.42,0,0,0-.78-.09,3.21,3.21,0,0,0-3.1,2.9,6.46,6.46,0,0,0-.12,1.06l-.08,6.71-2.26,0Z"/><path d="M394.52,50.16l2.29,0-.23,18.46-2.29,0Z"/><path d="M408,68.8l-.16-1.59h-.08A4.69,4.69,0,0,1,403.93,69a3.58,3.58,0,0,1-3.8-3.66c0-3,2.76-4.67,7.62-4.58v-.26a2.59,2.59,0,0,0-2.82-2.95,6.27,6.27,0,0,0-3.29.89l-.5-1.51a7.81,7.81,0,0,1,4.15-1.07c3.85,0,4.75,2.69,4.72,5.21l-.06,4.71a17.75,17.75,0,0,0,.17,3Zm-.26-6.43c-2.5-.08-5.33.32-5.37,2.77a2,2,0,0,0,2.13,2.21,3.13,3.13,0,0,0,3.07-2.07,2.4,2.4,0,0,0,.14-.73Z"/><path d="M420.53,59.77c0-1.3,0-2.37-.06-3.41l2,0,.1,2.08h.05a4.63,4.63,0,0,1,4.19-2.31c1.74,0,4.43,1.1,4.38,5.41l-.1,7.51-2.29,0,.09-7.25c0-2-.71-3.73-2.87-3.75a3.25,3.25,0,0,0-3.1,2.3,3.3,3.3,0,0,0-.17,1.06L422.7,69l-2.29,0Z"/><path d="M447,62.89c-.06,4.65-3.31,6.64-6.35,6.6-3.41,0-6-2.57-5.95-6.55.05-4.21,2.84-6.65,6.32-6.6S447,59,447,62.89Zm-10,0c0,2.76,1.52,4.86,3.76,4.88s3.85-2,3.88-4.84c0-2.13-1-4.85-3.71-4.88S437,60.5,437,62.9Z"/><path d="M461,66c0,1.3,0,2.44.06,3.43l-2,0-.1-2.06h-.05a4.73,4.73,0,0,1-4.19,2.29c-2,0-4.33-1.15-4.27-5.57l.09-7.36,2.29,0-.09,7c0,2.39.68,4,2.76,4a3.22,3.22,0,0,0,3.26-3.21l.1-7.72,2.29,0Z"/><path d="M466.43,56.95l2.38,7.1a32.24,32.24,0,0,1,1,3.24h.08c.3-1,.68-2.07,1.11-3.21l2.53-7,2.39,0-5.1,12.52-2.18,0L464,56.92Z"/><path d="M479.63,63.83c0,3.09,2,4.39,4.26,4.42a8.26,8.26,0,0,0,3.49-.61l.37,1.64a10.19,10.19,0,0,1-4.2.73c-3.87,0-6.16-2.63-6.11-6.42s2.32-6.76,6-6.71c4.11.05,5.15,3.68,5.13,6a8.77,8.77,0,0,1-.09,1.07Zm6.73-1.55c0-1.46-.55-3.73-3.12-3.76-2.31,0-3.35,2.09-3.56,3.67Z"/><path d="M492.19,51.4l2.29,0-.23,18.46-2.29,0Z"/><path d="M499,51.49l2.29,0L501,70l-2.29,0Z"/><path d="M506.88,64.17c0,3.09,2,4.39,4.26,4.42a8.28,8.28,0,0,0,3.49-.61l.37,1.64a10.19,10.19,0,0,1-4.2.73c-3.87,0-6.16-2.63-6.11-6.42s2.32-6.76,6-6.71c4.11.05,5.15,3.68,5.13,6a8.76,8.76,0,0,1-.09,1.06Zm6.73-1.55c0-1.46-.55-3.73-3.12-3.76-2.31,0-3.35,2.09-3.56,3.67Z"/><path d="M218.88,89.74c0-1.48,0-2.76-.05-3.93l2,0,0,2.47h.1a3.78,3.78,0,0,1,3.52-2.71,2.48,2.48,0,0,1,.65.09l0,2.16a3.42,3.42,0,0,0-.78-.09,3.21,3.21,0,0,0-3.1,2.9,6.47,6.47,0,0,0-.12,1.06L221,98.43l-2.26,0Z"/><path d="M229,92.65c0,3.09,2,4.39,4.26,4.42a8.27,8.27,0,0,0,3.49-.61l.37,1.64a10.19,10.19,0,0,1-4.2.73c-3.87,0-6.16-2.63-6.11-6.42s2.32-6.76,6-6.71c4.11.05,5.15,3.68,5.13,6a8.64,8.64,0,0,1-.09,1.07Zm6.73-1.55c0-1.46-.55-3.73-3.12-3.76-2.31,0-3.35,2.09-3.56,3.67Z"/><path d="M250.31,98.33a8.42,8.42,0,0,1-3.62.68c-3.8,0-6.23-2.65-6.19-6.5a6.39,6.39,0,0,1,6.85-6.6,7.64,7.64,0,0,1,3.16.69L250,88.37a5.3,5.3,0,0,0-2.64-.63c-2.89,0-4.47,2.08-4.51,4.7,0,2.91,1.81,4.73,4.31,4.76a6.5,6.5,0,0,0,2.82-.59Z"/><path d="M253.74,90.18c0-1.48,0-2.76-.05-3.93l2,0,0,2.47h.1A3.78,3.78,0,0,1,259.36,86a2.48,2.48,0,0,1,.65.09l0,2.16a3.39,3.39,0,0,0-.78-.09,3.21,3.21,0,0,0-3.11,2.9,6.52,6.52,0,0,0-.12,1.06l-.08,6.71-2.26,0Z"/><path d="M273.36,95.66c0,1.3,0,2.44.06,3.43l-2,0-.1-2.06h-.05A4.74,4.74,0,0,1,267,99.3c-2,0-4.33-1.15-4.27-5.57l.09-7.36,2.29,0-.09,7c0,2.39.68,4,2.76,4a3.31,3.31,0,0,0,3-2,3.35,3.35,0,0,0,.22-1.17l.1-7.72,2.29,0Z"/><path d="M279.11,93.29c0,3.09,2,4.39,4.26,4.42a8.26,8.26,0,0,0,3.49-.61l.37,1.64a10.19,10.19,0,0,1-4.2.73c-3.87,0-6.16-2.63-6.11-6.42s2.32-6.76,6-6.71c4.11.05,5.15,3.68,5.13,6a8.62,8.62,0,0,1-.09,1.06Zm6.73-1.55c0-1.46-.55-3.73-3.12-3.76-2.31,0-3.35,2.09-3.56,3.67Z"/><path d="M309.93,99a11.22,11.22,0,0,1-4.64.77c-4.94-.06-8.62-3.23-8.55-9,.07-5.49,3.83-9.16,9.27-9.09a9.39,9.39,0,0,1,4.15.83l-.57,1.84a8.24,8.24,0,0,0-3.53-.77c-4.11-.05-6.87,2.54-6.93,7.14-.05,4.29,2.38,7.08,6.64,7.13a9,9,0,0,0,3.7-.68Z"/><path d="M320.11,99.68l-.16-1.59h-.08A4.69,4.69,0,0,1,316,99.92a3.58,3.58,0,0,1-3.8-3.66c0-3,2.76-4.67,7.63-4.58v-.26A2.59,2.59,0,0,0,317,88.46a6.27,6.27,0,0,0-3.29.89l-.5-1.51a7.81,7.81,0,0,1,4.15-1.07c3.85,0,4.75,2.69,4.72,5.21L322,96.69a17.75,17.75,0,0,0,.17,3Zm-.26-6.43c-2.5-.08-5.33.32-5.37,2.77a2,2,0,0,0,2.13,2.21,3.13,3.13,0,0,0,3.07-2.07,2.38,2.38,0,0,0,.14-.73Z"/><path d="M326.44,90.58c0-1.3,0-2.37-.06-3.41l2,0,.08,2h.08a4.34,4.34,0,0,1,4-2.26A3.72,3.72,0,0,1,336,89.54h.05a5.16,5.16,0,0,1,1.43-1.62,4.29,4.29,0,0,1,2.79-.85c1.66,0,4.12,1.15,4.07,5.51l-.09,7.41-2.24,0,.09-7.12c0-2.42-.83-3.88-2.68-3.91a3,3,0,0,0-2.73,2,3.78,3.78,0,0,0-.2,1.14l-.1,7.77-2.24,0,.1-7.54c0-2-.84-3.47-2.58-3.49a3.13,3.13,0,0,0-2.86,2.25,3.18,3.18,0,0,0-.2,1.12l-.1,7.59-2.24,0Z"/><path d="M351.41,84a1.42,1.42,0,0,1-2.83,0A1.39,1.39,0,0,1,350,82.51,1.36,1.36,0,0,1,351.41,84ZM348.66,100l.16-12.58,2.29,0-.16,12.58Z"/><path d="M355.62,81.67l2.29,0-.23,18.46-2.29,0Z"/><path d="M362.41,81.76l2.29,0-.23,18.46-2.29,0Z"/><path d="M370.31,94.44c0,3.09,2,4.39,4.26,4.42a8.27,8.27,0,0,0,3.49-.61l.37,1.64a10.19,10.19,0,0,1-4.2.73c-3.87,0-6.16-2.63-6.11-6.42s2.32-6.76,6-6.71c4.11.05,5.15,3.68,5.13,6a8.76,8.76,0,0,1-.09,1.06ZM377,92.89c0-1.46-.55-3.73-3.12-3.76-2.31,0-3.35,2.09-3.56,3.67Z"/><path d="M381.79,99.11a1.54,1.54,0,0,1,1.58-1.62,1.64,1.64,0,1,1-1.58,1.62Z"/></g></g></g></svg>