<svg xmlns="http://www.w3.org/2000/svg" viewBox="0 0 523.77 85.27"><defs><style>.cls-1{fill:#e6e6e6;}</style></defs><title>game3b_itemzone_bg</title><g id="Calque_2" data-name="Calque 2"><g id="Calque_1-2" data-name="Calque 1"><path class="cls-1" d="M517.78,11.06,5.83,12.26A5.64,5.64,0,0,1,0,6.84v-.2A5.63,5.63,0,0,1,5.8,1.2L517.75,0a5.64,5.64,0,0,1,5.83,5.42v.19A5.63,5.63,0,0,1,517.78,11.06Z"/><path class="cls-1" d="M517.84,34.29,5.89,35.49A5.64,5.64,0,0,1,.06,30.07v-.19a5.63,5.63,0,0,1,5.8-5.45l511.95-1.2a5.64,5.64,0,0,1,5.83,5.42v.2A5.63,5.63,0,0,1,517.84,34.29Z"/><path class="cls-1" d="M517.91,60.84,6,62A5.64,5.64,0,0,1,.13,56.62v-.2A5.63,5.63,0,0,1,5.93,51l511.95-1.19a5.64,5.64,0,0,1,5.83,5.42v.19A5.63,5.63,0,0,1,517.91,60.84Z"/><path class="cls-1" d="M518,84.07,6,85.27A5.64,5.64,0,0,1,.2,79.85v-.19A5.63,5.63,0,0,1,6,74.21L517.94,73a5.64,5.64,0,0,1,5.83,5.42v.19A5.63,5.63,0,0,1,518,84.07Z"/></g></g></svg>