<?xml version="1.0" encoding="utf-8"?>
<!-- Generator: Adobe Illustrator 21.1.0, SVG Export Plug-In . SVG Version: 6.00 Build 0)  -->
<svg version="1.1" id="Calque_1" xmlns="http://www.w3.org/2000/svg" xmlns:xlink="http://www.w3.org/1999/xlink" x="0px" y="0px"
	 viewBox="0 0 1920 1080" style="enable-background:new 0 0 1920 1080;" xml:space="preserve">
<style type="text/css">
	.st0{fill:none;stroke:#FFFFFF;stroke-width:5;stroke-linecap:round;stroke-miterlimit:10;}
	.st1{fill:none;stroke:#FFFFFF;stroke-width:5;stroke-linecap:round;stroke-miterlimit:10;stroke-dasharray:1,14.96;}
	.st2{fill:#F7C646;}
	.st3{opacity:0.42;fill:#BC8F00;enable-background:new    ;}
	.st4{enable-background:new    ;}
	.st5{fill:#FFFFFF;}
	.st6{opacity:0.2;fill:#FFFFFF;}
</style>
<title>game2b1_bg</title>
<line class="st0" x1="555.8" y1="247.2" x2="556.3" y2="247.2"/>
<line class="st1" x1="571.3" y1="247.2" x2="1361.4" y2="247.2"/>
<line class="st0" x1="1368.9" y1="247.2" x2="1369.4" y2="247.2"/>
<circle class="st2" cx="699.3" cy="247.2" r="39.3"/>
<path class="st3" d="M699.3,207.8H699v78.6h0.3c21.7,0,39.3-17.6,39.3-39.3S721,207.8,699.3,207.8L699.3,207.8z"/>
<circle class="st2" cx="835.9" cy="247.2" r="19.3"/>
<path class="st3" d="M835.9,227.8h-0.2v38.6h0.2c10.7,0.2,19.5-8.2,19.8-18.9c0.2-10.7-8.2-19.5-18.9-19.8
	C836.5,227.8,836.2,227.8,835.9,227.8z"/>
<circle class="st2" cx="972.6" cy="247.2" r="19.3"/>
<path class="st3" d="M972.6,227.8h-0.2v38.6h0.2c10.7,0.2,19.5-8.2,19.8-18.9c0.2-10.7-8.2-19.5-18.9-19.8
	C973.2,227.8,972.9,227.8,972.6,227.8z"/>
<circle class="st2" cx="1109.2" cy="247.2" r="19.3"/>
<path class="st3" d="M1109.2,227.8h-0.2v38.6h0.2c10.7,0.2,19.5-8.2,19.8-18.9c0.2-10.7-8.2-19.5-18.9-19.8
	C1109.8,227.8,1109.5,227.8,1109.2,227.8z"/>
<circle class="st2" cx="1245.9" cy="247.2" r="19.3"/>
<path class="st3" d="M1245.9,227.8h-0.2v38.6h0.2c10.7,0.2,19.5-8.2,19.8-18.9c0.2-10.7-8.2-19.5-18.9-19.8
	C1246.5,227.8,1246.2,227.8,1245.9,227.8z"/>
<g class="st4">
	<path class="st5" d="M702.5,221.9v41.5h6.5v6.9h-20v-6.9h6.5v-34.6H689v-6.9H702.5z"/>
</g>
<g class="st4">
	<path class="st5" d="M830.9,253.4c0-2.1,1.1-4,3.2-5.5c2.1-1.5,3.2-2.8,3.2-3.9v-4.7c0-1.1-0.5-1.6-1.5-1.6h0c-1,0-1.5,0.5-1.5,1.6
		v3.2h-3.4v-3.2c0-3.3,1.6-5,4.9-5c3.3,0,4.9,1.7,4.9,5v4.7c0,2.2-1.1,4-3.2,5.6c-2.1,1.5-3.2,2.9-3.2,4v1.4h6.4v3.4h-9.8V253.4z"/>
</g>
<g class="st4">
	<path class="st5" d="M973.9,239.3c0-1.1-0.5-1.6-1.5-1.6h0c-1,0-1.5,0.5-1.5,1.6v3.2h-3.4v-3.2c0-3.3,1.6-5,4.9-5
		c3.3,0,4.9,1.7,4.9,5v4.1c0,1.6-0.6,2.7-1.9,3.3c1.2,0.6,1.9,1.7,1.9,3.3v3.8c0,3.3-1.6,5-4.9,5c-3.3,0-4.9-1.7-4.9-5v-3.2h3.4v3.2
		c0,1.1,0.5,1.6,1.5,1.6h0c1,0,1.5-0.5,1.5-1.6v-3.8c0-0.9-0.2-1.4-0.5-1.5c-0.2-0.1-0.5-0.1-0.9-0.1h-1.1V245h1.4
		c0.3,0,0.6,0,0.7-0.1c0.3-0.2,0.4-0.7,0.4-1.5V239.3z"/>
</g>
<g class="st4">
	<path class="st5" d="M1113.6,234.7v15.6h1.3v3.4h-1.3v4.8h-3.4v-4.8h-6.9v-3l6-15.9H1113.6z M1106.6,250.3h3.6v-10.1L1106.6,250.3z
		"/>
</g>
<g class="st4">
	<path class="st5" d="M1247.3,247.1c0-0.8-0.2-1.3-0.5-1.5c-0.2-0.1-0.5-0.1-0.9-0.1c-0.1,0-0.2,0-0.3,0c-0.7,0-1.1,0.3-1.2,0.9l0,1
		h-3.4l0.5-12.7h9.3v3.4h-6l-0.2,5.1c0.6-0.7,1.4-1,2.4-1c0.1,0,0.3,0,0.4,0c1.2,0.1,2.1,0.6,2.7,1.4c0.5,0.7,0.8,1.8,0.8,3.4v6.7
		c0,3.3-1.6,5-4.9,5c-3.3,0-4.9-1.7-4.9-5v-2.8h3.4v2.8c0,1.1,0.5,1.6,1.5,1.6h0c1,0,1.5-0.5,1.5-1.6V247.1z"/>
</g>
<g>
	<path class="st5" d="M467.2,540.1c1.9,0,3.6,0.6,4.8,1.7s1.9,2.8,1.9,5c0,2.2-0.7,3.8-1.9,5s-2.9,1.7-4.8,1.7h-1.6v7.2h-4.2v-20.6
		H467.2z M465.6,549.7h1.6c0.8,0,1.4-0.2,1.8-0.7c0.4-0.4,0.6-1.1,0.6-2.1c0-1.1-0.2-1.7-0.6-2.2c-0.4-0.4-1-0.6-1.8-0.6h-1.6V549.7
		z"/>
	<path class="st5" d="M477.6,544.9h3.4v2.1c0.6-2,1.9-2.4,4-2.4v4.6c-0.5-0.4-1.1-0.5-1.6-0.5c-1.4,0-2,1.2-2,2.8v9.2h-3.7V544.9z"
		/>
	<path class="st5" d="M491,554.2c0,1.6,0.4,3.4,2.1,3.4c1,0,1.7-0.6,1.9-1.9h3.7c-0.3,2.2-1.2,3.6-2.3,4.4c-1.1,0.8-2.3,1-3.4,1
		c-4.1,0-6.1-3.7-6.1-8.2s1.9-8.2,6.1-8.2c2.1,0,3.6,0.9,4.6,2.5c1.2,2,1.3,4.6,1.2,7H491z M496.6,538.2l1.4,3l-6.5,2.9l-1.3-2.4
		L496.6,538.2z M495.1,551c0-0.9-0.1-3.3-2-3.3c-1.3,0-2.1,1.1-2.1,3.3H495.1z"/>
	<path class="st5" d="M502.6,544.9h3.4v1.5c0.5-1,1.4-1.8,3.1-1.8c2.8,0,5,2.6,5,8.2c0,5.3-1.8,8.2-5,8.2c-1.3,0-2.2-0.6-2.7-1.5
		v1.2v5h-3.7V544.9z M510.3,552.8c0-3.5-0.7-4.5-2-4.5c-0.6,0-1,0.2-1.4,0.7c-0.5,0.6-0.6,1.3-0.6,3.8s0.1,3.2,0.6,3.8
		c0.4,0.5,0.7,0.7,1.4,0.7C509.6,557.3,510.3,556.3,510.3,552.8L510.3,552.8z"/>
	<path class="st5" d="M528.3,560.7h-3.4v-1.5c-0.7,1.3-1.6,1.8-3.1,1.8c-2.8,0-5-2.6-5-8.2c0-5.3,1.8-8.2,5-8.2
		c1.3,0,2.5,0.5,3.1,1.9v-1.6h3.4V560.7z M520.6,552.9c0,3.5,0.8,4.5,2,4.5c0.8,0,1.1-0.2,1.5-0.7c0.5-0.6,0.5-1.3,0.5-3.8
		s0-3.2-0.5-3.8c-0.4-0.5-0.7-0.7-1.5-0.7C521.4,548.3,520.6,549.3,520.6,552.9L520.6,552.9z"/>
	<path class="st5" d="M532.7,544.9h3.4v2.1c0.6-2,1.9-2.4,4-2.4v4.6c-0.5-0.4-1.1-0.5-1.6-0.5c-1.4,0-2,1.2-2,2.8v9.2h-3.7V544.9z"
		/>
	<path class="st5" d="M546,554.2c0,1.6,0.4,3.4,2.1,3.4c1,0,1.7-0.6,1.9-1.9h3.7c-0.3,2.2-1.2,3.6-2.3,4.4c-1.1,0.8-2.3,1-3.4,1
		c-4.1,0-6.1-3.7-6.1-8.2s1.9-8.2,6.1-8.2c2.1,0,3.6,0.9,4.6,2.5c1.2,2,1.3,4.6,1.2,7H546z M551.6,538.2l1.4,3l-6.5,2.9l-1.3-2.4
		L551.6,538.2z M550.1,551c0-0.9-0.1-3.3-2-3.3c-1.3,0-2.1,1.1-2.1,3.3H550.1z"/>
	<path class="st5" d="M558.9,563h-1.6l1.8-5.3h1.9L558.9,563z"/>
	<path class="st5" d="M575.8,560.7h-1.9l-4.6-15.1h1.9l3.6,12.6l3.5-12.6h1.9L575.8,560.7z"/>
	<path class="st5" d="M582.2,553.1c0-4.3,1.8-7.9,5.8-7.9c4,0,5.8,3.6,5.8,7.9s-1.8,7.9-5.8,7.9
		C583.9,561.1,582.2,557.5,582.2,553.1L582.2,553.1z M584.1,553.2c0,4,1.3,6.2,3.9,6.2c2.5,0,3.8-2.1,3.8-6.2s-1.3-6.2-3.9-6.2
		C585.4,547,584.1,549.1,584.1,553.2L584.1,553.2z"/>
	<path class="st5" d="M607.9,560.7h-1.7c0-0.9,0-1.7,0.1-2.6c-0.8,2.2-2.5,3-4.2,3c-2.6,0-4.3-1.5-4.3-5.2v-10.3h1.9v9.7
		c0,1.5,0.2,3.9,2.9,3.9c2.2,0,3.6-1.5,3.6-4.7v-9h1.9V560.7z"/>
	<path class="st5" d="M618.8,549.5c0-1.9-1-2.6-2.4-2.6c-1.3,0-2.2,0.9-2.2,2.3c0,1.7,1.4,2.3,3.3,2.9c1.7,0.5,3.6,1.5,3.6,4.6
		c0,2.7-1.9,4.5-4.5,4.5c-2.8,0-4.6-1.6-4.7-4.8h1.8c0,2.1,1.2,3.1,2.9,3.1c1.6,0,2.6-1.1,2.6-2.6c0-1.8-1.3-2.6-3.3-3.2
		c-1.9-0.6-3.6-1.6-3.6-4.3c0-2.4,1.8-4,4.2-4c2.6,0,4.1,1.5,4.2,4.3H618.8z"/>
	<path class="st5" d="M642.8,560.7h-1.7c0-1.3,0-2.2,0-2.9c-0.7,2.1-2.1,3.3-4,3.3c-3,0-5.1-3.2-5.1-7.9c0-4.7,1.9-8,5.1-8
		c1.7,0,3.2,0.9,4,3.3c0-0.9,0-1.8,0-2.9h1.7V560.7z M633.9,553.2c0,3.4,1.2,6.1,3.5,6.1c1.2,0,2-0.6,2.6-1.7
		c0.6-1.1,0.9-2.4,0.9-4.4c0-2-0.2-3.4-0.9-4.4c-0.6-1-1.4-1.7-2.6-1.7C635.2,547.1,633.9,549.7,633.9,553.2L633.9,553.2z"/>
	<path class="st5" d="M652.2,560.7h-1.9l-4.6-15.1h1.9l3.6,12.6l3.5-12.6h1.9L652.2,560.7z"/>
	<path class="st5" d="M660.6,553.7c0,3.1,1.3,5.6,3.8,5.6c1.8,0,3-1.3,3.4-3h1.8c-0.3,1.6-1,2.8-1.9,3.6c-0.9,0.8-2.1,1.2-3.3,1.2
		c-4.2,0-5.8-4-5.8-7.9c0-4.7,2.2-8,5.7-8c1.8,0,3.2,0.8,4.1,2.1c1.2,1.8,1.4,4.1,1.4,6.3H660.6z M668,552.1
		c-0.1-3.1-1.4-5.3-3.6-5.3c-2.2,0-3.6,2.3-3.7,5.3H668z"/>
	<path class="st5" d="M672.6,559l7.3-11.7H673v-1.8h9v1.8l-7.2,11.6h7.5v1.8h-9.7V559z"/>
	<path class="st5" d="M695,553.7c0,3.1,1.3,5.6,3.8,5.6c1.8,0,3-1.3,3.4-3h1.8c-0.3,1.6-1,2.8-1.9,3.6c-0.9,0.8-2.1,1.2-3.3,1.2
		c-4.2,0-5.8-4-5.8-7.9c0-4.7,2.2-8,5.7-8c1.8,0,3.2,0.8,4.1,2.1c1.2,1.8,1.4,4.1,1.4,6.3H695z M702.4,552.1
		c-0.1-3.1-1.4-5.3-3.6-5.3c-2.2,0-3.6,2.3-3.7,5.3H702.4z M701.8,539.3l0.8,1.5l-6.2,3.3l-0.7-1.3L701.8,539.3z"/>
	<path class="st5" d="M709,547.4h-2.1v-1.8h2.1v-4.8h1.9v4.8h2.1v1.8h-2.1v13.4H709V547.4z"/>
	<path class="st5" d="M726.5,560.7h-1.7c0-0.9,0-1.7,0.1-2.6c-0.8,2.2-2.5,3-4.2,3c-2.6,0-4.3-1.5-4.3-5.2v-10.3h1.9v9.7
		c0,1.5,0.2,3.9,2.9,3.9c2.2,0,3.6-1.5,3.6-4.7v-9h1.9V560.7z"/>
	<path class="st5" d="M741.2,560.7h-1.7c0-1.4,0-2.2,0-3c-0.5,2.1-2.1,3.4-4,3.4c-3,0-5.1-3.2-5.1-7.9c0-4.7,1.9-8,5.1-8
		c1.7,0,3.1,0.9,3.9,3.2c-0.1-0.9-0.1-1.7-0.1-2.8v-5.5h1.9V560.7z M732.3,553.2c0,3.4,1.2,6.1,3.5,6.1c1.2,0,2-0.6,2.6-1.7
		c0.6-1.1,0.9-2.4,0.9-4.4s-0.2-3.4-0.9-4.4c-0.6-1-1.4-1.6-2.6-1.6C733.5,547.1,732.3,549.7,732.3,553.2L732.3,553.2z"/>
	<path class="st5" d="M746.2,540.1h1.9v2.7h-1.9V540.1z M746.2,545.6h1.9v15.1h-1.9V545.6z"/>
	<path class="st5" d="M754.3,553.7c0,3.1,1.3,5.6,3.8,5.6c1.8,0,3-1.3,3.4-3h1.8c-0.3,1.6-1,2.8-1.9,3.6c-0.9,0.8-2.1,1.2-3.3,1.2
		c-4.2,0-5.8-4-5.8-7.9c0-4.7,2.2-8,5.7-8c1.8,0,3.2,0.8,4.1,2.1c1.2,1.8,1.4,4.1,1.4,6.3H754.3z M761.6,552.1
		c-0.1-3.1-1.4-5.3-3.6-5.3c-2.2,0-3.6,2.3-3.7,5.3H761.6z M761,539.3l0.8,1.5l-6.2,3.3l-0.7-1.3L761,539.3z"/>
	<path class="st5" d="M775.5,540.1h1.9v20.6h-1.9V540.1z"/>
	<path class="st5" d="M783.6,553.7c0,3.1,1.3,5.6,3.8,5.6c1.8,0,3-1.3,3.4-3h1.8c-0.3,1.6-1,2.8-1.9,3.6c-0.9,0.8-2.1,1.2-3.3,1.2
		c-4.2,0-5.8-4-5.8-7.9c0-4.7,2.2-8,5.7-8c1.8,0,3.2,0.8,4.1,2.1c1.2,1.8,1.4,4.1,1.4,6.3H783.6z M791,552.1
		c-0.1-3.1-1.4-5.3-3.6-5.3c-2.2,0-3.6,2.3-3.7,5.3H791z"/>
	<path class="st5" d="M802.9,549.5c0-1.9-1-2.6-2.4-2.6c-1.3,0-2.2,0.9-2.2,2.3c0,1.7,1.4,2.3,3.3,2.9c1.7,0.5,3.6,1.5,3.6,4.6
		c0,2.7-1.9,4.5-4.5,4.5c-2.8,0-4.6-1.6-4.7-4.8h1.8c0,2.1,1.2,3.1,2.9,3.1c1.6,0,2.6-1.1,2.6-2.6c0-1.8-1.3-2.6-3.3-3.2
		c-1.9-0.6-3.6-1.6-3.6-4.3c0-2.4,1.8-4,4.2-4c2.6,0,4.1,1.5,4.2,4.3H802.9z"/>
	<path class="st5" d="M829.7,554c0,3.6-2.1,7.1-6.4,7.1c-4.4,0-7.2-3.7-7.2-10.7c0-6.5,2.4-10.7,7.2-10.7c4.3,0,6.5,3.6,6.4,7.5
		h-2.1c-0.1-2.7-1.1-5.6-4.3-5.6c-3.6,0-5.1,3.5-5.1,8.9c0,5.8,2.2,8.5,5.1,8.5c3.2,0,4.1-2.6,4.3-5.1H829.7z"/>
	<path class="st5" d="M831.7,540.1h2.1l4.9,17.7l4.9-17.7h2l-6,20.6h-2L831.7,540.1z"/>
	<path class="st5" d="M857.6,553.7c0,3.1,1.3,5.6,3.8,5.6c1.8,0,3-1.3,3.4-3h1.8c-0.3,1.6-1,2.8-1.9,3.6c-0.9,0.8-2.1,1.2-3.3,1.2
		c-4.2,0-5.8-4-5.8-7.9c0-4.7,2.2-8,5.7-8c1.8,0,3.2,0.8,4.1,2.1c1.2,1.8,1.4,4.1,1.4,6.3H857.6z M865,552.1
		c-0.1-3.1-1.4-5.3-3.6-5.3c-2.2,0-3.6,2.3-3.7,5.3H865z"/>
	<path class="st5" d="M871.6,547.4h-2.1v-1.8h2.1v-4.8h1.9v4.8h2.1v1.8h-2.1v13.4h-1.9V547.4z"/>
	<path class="st5" d="M887,540.1h1.9v20.6H887V540.1z"/>
	<path class="st5" d="M895,553.7c0,3.1,1.3,5.6,3.8,5.6c1.8,0,3-1.3,3.4-3h1.8c-0.3,1.6-1,2.8-1.9,3.6c-0.9,0.8-2.1,1.2-3.3,1.2
		c-4.2,0-5.8-4-5.8-7.9c0-4.7,2.2-8,5.7-8c1.8,0,3.2,0.8,4.1,2.1c1.2,1.8,1.4,4.1,1.4,6.3H895z M902.4,552.1
		c-0.1-3.1-1.4-5.3-3.6-5.3c-2.2,0-3.6,2.3-3.7,5.3H902.4z"/>
	<path class="st5" d="M914.4,549.5c0-1.9-1-2.6-2.4-2.6c-1.3,0-2.2,0.9-2.2,2.3c0,1.7,1.4,2.3,3.3,2.9c1.7,0.5,3.6,1.5,3.6,4.6
		c0,2.7-1.9,4.5-4.5,4.5c-2.8,0-4.6-1.6-4.7-4.8h1.8c0,2.1,1.2,3.1,2.9,3.1c1.6,0,2.6-1.1,2.6-2.6c0-1.8-1.3-2.6-3.3-3.2
		c-1.9-0.6-3.6-1.6-3.6-4.3c0-2.4,1.8-4,4.2-4c2.6,0,4.1,1.5,4.2,4.3H914.4z"/>
	<path class="st5" d="M928.6,540.1h1.9v20.6h-1.9V540.1z"/>
	<path class="st5" d="M936.7,553.7c0,3.1,1.3,5.6,3.8,5.6c1.8,0,3-1.3,3.4-3h1.8c-0.3,1.6-1,2.8-1.9,3.6c-0.9,0.8-2.1,1.2-3.3,1.2
		c-4.2,0-5.8-4-5.8-7.9c0-4.7,2.2-8,5.7-8c1.8,0,3.2,0.8,4.1,2.1c1.2,1.8,1.4,4.1,1.4,6.3H936.7z M944,552.1
		c-0.1-3.1-1.4-5.3-3.6-5.3c-2.2,0-3.6,2.3-3.7,5.3H944z"/>
	<path class="st5" d="M950.6,547.4h-2.1v-1.8h2.1v-4.8h1.9v4.8h2.1v1.8h-2.1v13.4h-1.9V547.4z"/>
	<path class="st5" d="M958.7,547.4h-2.1v-1.8h2.1v-4.8h1.9v4.8h2.1v1.8h-2.1v13.4h-1.9V547.4z"/>
	<path class="st5" d="M966,545.6h1.7c0,1.4,0,2.3-0.1,3.2c0.8-3,2.7-3.5,4-3.5v2.2c-0.2-0.1-0.4-0.2-0.7-0.2c-1.3,0-3.1,1.6-3.1,5.4
		v8.1H966V545.6z"/>
	<path class="st5" d="M975.7,553.7c0,3.1,1.3,5.6,3.8,5.6c1.8,0,3-1.3,3.4-3h1.8c-0.3,1.6-1,2.8-1.9,3.6c-0.9,0.8-2.1,1.2-3.3,1.2
		c-4.2,0-5.8-4-5.8-7.9c0-4.7,2.2-8,5.7-8c1.8,0,3.2,0.8,4.1,2.1c1.2,1.8,1.4,4.1,1.4,6.3H975.7z M983.1,552.1
		c-0.1-3.1-1.4-5.3-3.6-5.3c-2.2,0-3.6,2.3-3.7,5.3H983.1z"/>
	<path class="st5" d="M995,549.5c0-1.9-1-2.6-2.4-2.6c-1.3,0-2.2,0.9-2.2,2.3c0,1.7,1.4,2.3,3.3,2.9c1.7,0.5,3.6,1.5,3.6,4.6
		c0,2.7-1.9,4.5-4.5,4.5c-2.8,0-4.6-1.6-4.7-4.8h1.8c0,2.1,1.2,3.1,2.9,3.1c1.6,0,2.6-1.1,2.6-2.6c0-1.8-1.3-2.6-3.3-3.2
		c-1.9-0.6-3.6-1.6-3.6-4.3c0-2.4,1.8-4,4.2-4c2.6,0,4.1,1.5,4.2,4.3H995z"/>
	<path class="st5" d="M1019.1,560.7h-1.7c0-1.4,0-2.2,0-3c-0.5,2.1-2.1,3.4-4,3.4c-3,0-5.1-3.2-5.1-7.9c0-4.7,1.9-8,5.1-8
		c1.7,0,3.1,0.9,3.9,3.2c-0.1-0.9-0.1-1.7-0.1-2.8v-5.5h1.9V560.7z M1010.2,553.2c0,3.4,1.2,6.1,3.5,6.1c1.2,0,2-0.6,2.6-1.7
		c0.6-1.1,0.9-2.4,0.9-4.4s-0.2-3.4-0.9-4.4c-0.6-1-1.4-1.6-2.6-1.6C1011.4,547.1,1010.2,549.7,1010.2,553.2L1010.2,553.2z"/>
	<path class="st5" d="M1025,553.7c0,3.1,1.3,5.6,3.8,5.6c1.8,0,3-1.3,3.4-3h1.8c-0.3,1.6-1,2.8-1.9,3.6c-0.9,0.8-2.1,1.2-3.3,1.2
		c-4.2,0-5.8-4-5.8-7.9c0-4.7,2.2-8,5.7-8c1.8,0,3.2,0.8,4.1,2.1c1.2,1.8,1.4,4.1,1.4,6.3H1025z M1032.4,552.1
		c-0.1-3.1-1.4-5.3-3.6-5.3c-2.2,0-3.6,2.3-3.7,5.3H1032.4z"/>
	<path class="st5" d="M1046.1,545.6h1.8c0,0.8,0,1.6-0.1,2.5c0.8-2.4,2.5-2.8,3.8-2.8c1.1,0,1.9,0.3,2.6,1c0.4,0.4,0.7,1.1,0.8,1.8
		c0.3-0.8,0.7-1.4,1.3-1.9c0.8-0.6,1.7-0.9,2.8-0.9c1.8,0,2.9,0.9,3.5,1.9c0.6,0.9,0.7,2.6,0.7,4.1v9.4h-1.9v-9.3
		c0-1.1-0.1-2.1-0.3-2.8c-0.3-1-1.3-1.6-2.3-1.6c-0.9,0-1.7,0.2-2.4,1.2c-0.6,0.9-0.8,2.2-0.8,3.3v9.1h-1.9v-9.2c0-1.2,0-2-0.3-2.9
		c-0.3-1-1.2-1.6-2.3-1.6c-0.9,0-1.8,0.3-2.4,1.2c-0.7,0.9-0.8,2.2-0.8,3.4v9.1h-1.9V545.6z"/>
	<path class="st5" d="M1067.4,553.1c0-4.3,1.8-7.9,5.8-7.9c4,0,5.8,3.6,5.8,7.9s-1.8,7.9-5.8,7.9
		C1069.2,561.1,1067.4,557.5,1067.4,553.1L1067.4,553.1z M1069.3,553.2c0,4,1.3,6.2,3.9,6.2c2.5,0,3.8-2.1,3.8-6.2s-1.3-6.2-3.9-6.2
		C1070.6,547,1069.3,549.1,1069.3,553.2L1069.3,553.2z"/>
	<path class="st5" d="M1083.7,547.4h-2.1v-1.8h2.1v-4.8h1.9v4.8h2.1v1.8h-2.1v13.4h-1.9V547.4z"/>
	<path class="st5" d="M1091.3,540.1h1.9v2.7h-1.9V540.1z M1091.3,545.6h1.9v15.1h-1.9V545.6z"/>
	<path class="st5" d="M1102.8,560.7h-1.9l-4.6-15.1h1.9l3.6,12.6l3.5-12.6h1.9L1102.8,560.7z"/>
	<path class="st5" d="M1120,560.7h-1.7c0-1.3,0-2.2,0-2.9c-0.7,2.1-2.1,3.3-4,3.3c-3,0-5.1-3.2-5.1-7.9c0-4.7,1.9-8,5.1-8
		c1.7,0,3.2,0.9,4,3.3c0-0.9,0-1.8,0-2.9h1.7V560.7z M1111,553.2c0,3.4,1.2,6.1,3.5,6.1c1.2,0,2-0.6,2.6-1.7
		c0.6-1.1,0.9-2.4,0.9-4.4c0-2-0.2-3.4-0.9-4.4c-0.6-1-1.4-1.7-2.6-1.7C1112.3,547.1,1111,549.7,1111,553.2L1111,553.2z"/>
	<path class="st5" d="M1125.5,547.4h-2.1v-1.8h2.1v-4.8h1.9v4.8h2.1v1.8h-2.1v13.4h-1.9V547.4z"/>
	<path class="st5" d="M1133,540.1h1.9v2.7h-1.9V540.1z M1133,545.6h1.9v15.1h-1.9V545.6z"/>
	<path class="st5" d="M1139.1,553.1c0-4.3,1.8-7.9,5.8-7.9c4,0,5.8,3.6,5.8,7.9s-1.8,7.9-5.8,7.9
		C1140.9,561.1,1139.1,557.5,1139.1,553.1L1139.1,553.1z M1141,553.2c0,4,1.3,6.2,3.9,6.2c2.5,0,3.8-2.1,3.8-6.2s-1.3-6.2-3.9-6.2
		C1142.3,547,1141,549.1,1141,553.2L1141,553.2z"/>
	<path class="st5" d="M1154.7,545.6h1.7c0,0.9,0,1.6-0.1,2.6c0.8-2.1,2.5-3,4.3-3c2.6,0,4.3,1.5,4.3,5.2v10.3h-1.9V551
		c0-1.5-0.2-3.9-2.9-3.9c-2.2,0-3.6,1.5-3.6,4.7v9h-1.9V545.6z"/>
	<path class="st5" d="M1172.4,560.7h-1.9v-3h1.9V560.7z"/>
	<path class="st5" d="M461.5,629.7h-2.1l5.9-20.6h2.1l6,20.6h-2.1l-1.8-6.1h-6.2L461.5,629.7z M466.3,611.8l-2.5,9.9h5.1
		L466.3,611.8z"/>
	<path class="st5" d="M485.8,629.7h-1.7c0-0.9,0-1.7,0.1-2.6c-0.8,2.2-2.5,3-4.2,3c-2.6,0-4.3-1.5-4.3-5.2v-10.3h1.9v9.7
		c0,1.5,0.2,3.9,2.9,3.9c2.2,0,3.6-1.5,3.6-4.7v-9h1.9V629.7z"/>
	<path class="st5" d="M496.7,618.5c0-1.9-1-2.6-2.4-2.6c-1.3,0-2.2,0.9-2.2,2.3c0,1.7,1.4,2.3,3.3,2.9c1.7,0.5,3.6,1.5,3.6,4.6
		c0,2.7-1.9,4.5-4.5,4.5c-2.8,0-4.6-1.6-4.7-4.8h1.8c0,2.1,1.2,3.1,2.9,3.1c1.6,0,2.6-1.1,2.6-2.6c0-1.8-1.3-2.6-3.3-3.2
		c-1.9-0.6-3.6-1.6-3.6-4.3c0-2.4,1.8-4,4.2-4c2.6,0,4.1,1.5,4.2,4.3H496.7z"/>
	<path class="st5" d="M509,618.5c0-1.9-1-2.6-2.4-2.6c-1.3,0-2.2,0.9-2.2,2.3c0,1.7,1.4,2.3,3.3,2.9c1.7,0.5,3.6,1.5,3.6,4.6
		c0,2.7-1.9,4.5-4.5,4.5c-2.8,0-4.6-1.6-4.7-4.8h1.8c0,2.1,1.2,3.1,2.9,3.1c1.6,0,2.6-1.1,2.6-2.6c0-1.8-1.3-2.6-3.3-3.2
		c-1.9-0.6-3.6-1.6-3.6-4.3c0-2.4,1.8-4,4.2-4c2.6,0,4.1,1.5,4.2,4.3H509z"/>
	<path class="st5" d="M515.5,609.1h1.9v2.7h-1.9V609.1z M515.5,614.6h1.9v15.1h-1.9V614.6z"/>
	<path class="st5" d="M541.7,629.7h-3.4v-1.5c-0.7,1.3-1.6,1.8-3.1,1.8c-2.8,0-5-2.6-5-8.2c0-5.3,1.8-8.2,5-8.2
		c1.3,0,2.5,0.5,3.1,1.9v-1.6h3.4V629.7z M534,621.9c0,3.5,0.8,4.5,2,4.5c0.8,0,1.1-0.2,1.5-0.7c0.5-0.6,0.5-1.3,0.5-3.8
		s0-3.2-0.5-3.8c-0.4-0.5-0.7-0.7-1.5-0.7C534.7,617.3,534,618.3,534,621.9L534,621.9z"/>
	<path class="st5" d="M546,613.9h3.2v1.5c0.6-1.1,1.4-1.8,3.4-1.8c2.5,0,4.1,1.4,4.1,4.6v11.6H553v-10.3c0-1.1-0.3-2.1-1.6-2.1
		c-1,0-1.7,0.5-1.7,1.8v10.6H546V613.9z"/>
	<path class="st5" d="M564,621.5l-4.1-7.6h4.4l1.9,4.8l2.1-4.8h4.3l-4.1,7.6l4.6,8.2h-4.5l-2.4-5.5l-2.3,5.5h-4.5L564,621.5z"/>
	<path class="st5" d="M576.4,609.1h3.7v3.1h-3.7V609.1z M576.4,613.9h3.7v15.8h-3.7V613.9z"/>
	<path class="st5" d="M588.3,623.2c0,1.6,0.4,3.4,2.1,3.4c1,0,1.7-0.6,1.9-1.9h3.7c-0.3,2.2-1.2,3.6-2.3,4.4c-1.1,0.8-2.3,1-3.4,1
		c-4.1,0-6.1-3.7-6.1-8.2s1.9-8.2,6.1-8.2c2.1,0,3.6,0.9,4.6,2.5c1.2,2,1.3,4.6,1.2,7H588.3z M592.4,620c0-0.9-0.1-3.3-2-3.3
		c-1.3,0-2.1,1.1-2.1,3.3H592.4z"/>
	<path class="st5" d="M610.6,629.7h-3.4v-1.7c-0.5,1.3-1.3,2-3.2,2c-2.5,0-4.1-1.4-4.1-4.6v-11.6h3.7v10.3c0,1.1,0.3,2.1,1.6,2.1
		c1,0,1.7-0.5,1.7-1.8v-10.6h3.7V629.7z"/>
	<path class="st5" d="M618,621.5l-4.1-7.6h4.4l1.9,4.8l2.1-4.8h4.3l-4.1,7.6l4.6,8.2h-4.5l-2.4-5.5l-2.3,5.5h-4.5L618,621.5z"/>
	<path class="st5" d="M648,635.3h-1.9v-5.6c0-1.3,0-2.1,0.1-2.8c-0.6,2-2.1,3.2-3.9,3.2c-3.2,0-5.1-3.3-5.1-7.9c0-4.8,2.1-8,5.1-8
		c1.8,0,3.3,1,4,3.3c0-0.9,0-1.8,0-2.9h1.8V635.3z M639.1,622.2c0,3.4,1.2,6.1,3.5,6.1c1.2,0,2-0.6,2.6-1.7c0.6-1.1,0.9-2.4,0.9-4.4
		c0-2-0.2-3.4-0.9-4.4c-0.6-1-1.4-1.7-2.6-1.7C640.3,616.1,639.1,618.7,639.1,622.2L639.1,622.2z"/>
	<path class="st5" d="M662.9,629.7h-1.7c0-0.9,0-1.7,0.1-2.6c-0.8,2.2-2.5,3-4.2,3c-2.6,0-4.3-1.5-4.3-5.2v-10.3h1.9v9.7
		c0,1.5,0.2,3.9,2.9,3.9c2.2,0,3.6-1.5,3.6-4.7v-9h1.9V629.7z"/>
	<path class="st5" d="M668.9,622.7c0,3.1,1.3,5.6,3.8,5.6c1.8,0,3-1.3,3.4-3h1.8c-0.3,1.6-1,2.8-1.9,3.6c-0.9,0.8-2.1,1.2-3.3,1.2
		c-4.2,0-5.8-4-5.8-7.9c0-4.7,2.2-8,5.7-8c1.8,0,3.2,0.8,4.1,2.1c1.2,1.8,1.4,4.1,1.4,6.3H668.9z M676.3,621.1
		c-0.1-3.1-1.4-5.3-3.6-5.3c-2.2,0-3.6,2.3-3.7,5.3H676.3z"/>
	<path class="st5" d="M690.2,609.1h1.9v20.6h-1.9V609.1z"/>
	<path class="st5" d="M698.2,622.7c0,3.1,1.3,5.6,3.8,5.6c1.8,0,3-1.3,3.4-3h1.8c-0.3,1.6-1,2.8-1.9,3.6c-0.9,0.8-2.1,1.2-3.3,1.2
		c-4.2,0-5.8-4-5.8-7.9c0-4.7,2.2-8,5.7-8c1.8,0,3.2,0.8,4.1,2.1c1.2,1.8,1.4,4.1,1.4,6.3H698.2z M705.6,621.1
		c-0.1-3.1-1.4-5.3-3.6-5.3c-2.2,0-3.6,2.3-3.7,5.3H705.6z"/>
	<path class="st5" d="M729.2,624.6c-0.3,3.1-2,5.5-5,5.5c-4,0-5.8-3.8-5.8-7.9c0-5,2.3-8,5.8-8c3.1,0,4.9,2.4,5,5.6h-1.9
		c-0.3-3-1.8-3.8-3.2-3.8c-1.1,0-2.1,0.4-2.8,1.6c-0.7,1.2-1,2.6-1,4.6c0,4,1.4,6.2,3.8,6.2c1.9,0,2.9-1.5,3.2-3.8H729.2z"/>
	<path class="st5" d="M742.7,629.7H741c0-1.3,0-2.2,0-2.9c-0.7,2.1-2.1,3.3-4,3.3c-3,0-5.1-3.2-5.1-7.9c0-4.7,1.9-8,5.1-8
		c1.7,0,3.2,0.9,4,3.3c0-0.9,0-1.8,0-2.9h1.7V629.7z M733.8,622.2c0,3.4,1.2,6.1,3.5,6.1c1.2,0,2-0.6,2.6-1.7
		c0.6-1.1,0.9-2.4,0.9-4.4c0-2-0.2-3.4-0.9-4.4c-0.6-1-1.4-1.7-2.6-1.7C735,616.1,733.8,618.7,733.8,622.2L733.8,622.2z"/>
	<path class="st5" d="M747.5,614.6h1.7c0,0.9,0,1.6-0.1,2.6c0.8-2.1,2.5-3,4.3-3c2.6,0,4.3,1.5,4.3,5.2v10.3h-1.9V620
		c0-1.5-0.2-3.9-2.9-3.9c-2.2,0-3.6,1.5-3.6,4.7v9h-1.9V614.6z"/>
	<path class="st5" d="M772.4,629.7h-1.7c0-1.4,0-2.2,0-3c-0.5,2.1-2.1,3.4-4,3.4c-3,0-5.1-3.2-5.1-7.9c0-4.7,1.9-8,5.1-8
		c1.7,0,3.1,0.9,3.9,3.2c-0.1-0.9-0.1-1.7-0.1-2.8v-5.5h1.9V629.7z M763.5,622.2c0,3.4,1.2,6.1,3.5,6.1c1.2,0,2-0.6,2.6-1.7
		c0.6-1.1,0.9-2.4,0.9-4.4s-0.2-3.4-0.9-4.4c-0.6-1-1.4-1.6-2.6-1.6C764.7,616.1,763.5,618.7,763.5,622.2L763.5,622.2z"/>
	<path class="st5" d="M777.4,609.1h1.9v2.7h-1.9V609.1z M777.4,614.6h1.9v15.1h-1.9V614.6z"/>
	<path class="st5" d="M794.3,629.7h-1.7c0-1.4,0-2.2,0-3c-0.5,2.1-2.1,3.4-4,3.4c-3,0-5.1-3.2-5.1-7.9c0-4.7,1.9-8,5.1-8
		c1.7,0,3.1,0.9,3.9,3.2c-0.1-0.9-0.1-1.7-0.1-2.8v-5.5h1.9V629.7z M785.4,622.2c0,3.4,1.2,6.1,3.5,6.1c1.2,0,2-0.6,2.6-1.7
		c0.6-1.1,0.9-2.4,0.9-4.4s-0.2-3.4-0.9-4.4c-0.6-1-1.4-1.6-2.6-1.6C786.6,616.1,785.4,618.7,785.4,622.2L785.4,622.2z"/>
	<path class="st5" d="M809,629.7h-1.7c0-1.3,0-2.2,0-2.9c-0.7,2.1-2.1,3.3-4,3.3c-3,0-5.1-3.2-5.1-7.9c0-4.7,1.9-8,5.1-8
		c1.7,0,3.2,0.9,4,3.3c0-0.9,0-1.8,0-2.9h1.7V629.7z M800.1,622.2c0,3.4,1.2,6.1,3.5,6.1c1.2,0,2-0.6,2.6-1.7
		c0.6-1.1,0.9-2.4,0.9-4.4c0-2-0.2-3.4-0.9-4.4c-0.6-1-1.4-1.7-2.6-1.7C801.3,616.1,800.1,618.7,800.1,622.2L800.1,622.2z"/>
	<path class="st5" d="M814.5,616.4h-2.1v-1.8h2.1v-4.8h1.9v4.8h2.1v1.8h-2.1v13.4h-1.9V616.4z"/>
	<path class="st5" d="M828.9,622.1c0-4.3,1.8-7.9,5.8-7.9c4,0,5.8,3.6,5.8,7.9s-1.8,7.9-5.8,7.9
		C830.7,630.1,828.9,626.5,828.9,622.1L828.9,622.1z M830.8,622.2c0,4,1.3,6.2,3.9,6.2c2.5,0,3.8-2.1,3.8-6.2s-1.3-6.2-3.9-6.2
		C832.1,616,830.8,618.1,830.8,622.2L830.8,622.2z"/>
	<path class="st5" d="M854.7,629.7h-1.7c0-0.9,0-1.7,0.1-2.6c-0.8,2.2-2.5,3-4.2,3c-2.6,0-4.3-1.5-4.3-5.2v-10.3h1.9v9.7
		c0,1.5,0.2,3.9,2.9,3.9c2.2,0,3.6-1.5,3.6-4.7v-9h1.9V629.7z"/>
	<path class="st5" d="M867.5,609.1h1.9v20.6h-1.9V609.1z"/>
	<path class="st5" d="M884.3,629.7h-1.7c0-1.3,0-2.2,0-2.9c-0.7,2.1-2.1,3.3-4,3.3c-3,0-5.1-3.2-5.1-7.9c0-4.7,1.9-8,5.1-8
		c1.7,0,3.2,0.9,4,3.3c0-0.9,0-1.8,0-2.9h1.7V629.7z M875.4,622.2c0,3.4,1.2,6.1,3.5,6.1c1.2,0,2-0.6,2.6-1.7
		c0.6-1.1,0.9-2.4,0.9-4.4c0-2-0.2-3.4-0.9-4.4c-0.6-1-1.4-1.7-2.6-1.7C876.6,616.1,875.4,618.7,875.4,622.2L875.4,622.2z"/>
	<path class="st5" d="M906.9,624.6c-0.3,3.1-2,5.5-5,5.5c-4,0-5.8-3.8-5.8-7.9c0-5,2.3-8,5.8-8c3.1,0,4.9,2.4,5,5.6h-1.9
		c-0.3-3-1.8-3.8-3.2-3.8c-1.1,0-2.1,0.4-2.8,1.6c-0.7,1.2-1,2.6-1,4.6c0,4,1.4,6.2,3.8,6.2c1.9,0,2.9-1.5,3.2-3.8H906.9z"/>
	<path class="st5" d="M920.4,629.7h-1.7c0-1.3,0-2.2,0-2.9c-0.7,2.1-2.1,3.3-4,3.3c-3,0-5.1-3.2-5.1-7.9c0-4.7,1.9-8,5.1-8
		c1.7,0,3.2,0.9,4,3.3c0-0.9,0-1.8,0-2.9h1.7V629.7z M911.5,622.2c0,3.4,1.2,6.1,3.5,6.1c1.2,0,2-0.6,2.6-1.7
		c0.6-1.1,0.9-2.4,0.9-4.4c0-2-0.2-3.4-0.9-4.4c-0.6-1-1.4-1.7-2.6-1.7C912.7,616.1,911.5,618.7,911.5,622.2L911.5,622.2z"/>
	<path class="st5" d="M925.2,614.6h1.7c0,0.9,0,1.6-0.1,2.6c0.8-2.1,2.5-3,4.3-3c2.6,0,4.3,1.5,4.3,5.2v10.3h-1.9V620
		c0-1.5-0.2-3.9-2.9-3.9c-2.2,0-3.6,1.5-3.6,4.7v9h-1.9V614.6z"/>
	<path class="st5" d="M950.1,629.7h-1.7c0-1.4,0-2.2,0-3c-0.5,2.1-2.1,3.4-4,3.4c-3,0-5.1-3.2-5.1-7.9c0-4.7,1.9-8,5.1-8
		c1.7,0,3.1,0.9,3.9,3.2c-0.1-0.9-0.1-1.7-0.1-2.8v-5.5h1.9V629.7z M941.2,622.2c0,3.4,1.2,6.1,3.5,6.1c1.2,0,2-0.6,2.6-1.7
		c0.6-1.1,0.9-2.4,0.9-4.4s-0.2-3.4-0.9-4.4c-0.6-1-1.4-1.6-2.6-1.6C942.4,616.1,941.2,618.7,941.2,622.2L941.2,622.2z"/>
	<path class="st5" d="M955.1,609.1h1.9v2.7h-1.9V609.1z M955.1,614.6h1.9v15.1h-1.9V614.6z"/>
	<path class="st5" d="M971.9,629.7h-1.7c0-1.4,0-2.2,0-3c-0.5,2.1-2.1,3.4-4,3.4c-3,0-5.1-3.2-5.1-7.9c0-4.7,1.9-8,5.1-8
		c1.7,0,3.1,0.9,3.9,3.2c-0.1-0.9-0.1-1.7-0.1-2.8v-5.5h1.9V629.7z M963,622.2c0,3.4,1.2,6.1,3.5,6.1c1.2,0,2-0.6,2.6-1.7
		c0.6-1.1,0.9-2.4,0.9-4.4s-0.2-3.4-0.9-4.4c-0.6-1-1.4-1.6-2.6-1.6C964.2,616.1,963,618.7,963,622.2L963,622.2z"/>
	<path class="st5" d="M986.7,629.7h-1.7c0-1.3,0-2.2,0-2.9c-0.7,2.1-2.1,3.3-4,3.3c-3,0-5.1-3.2-5.1-7.9c0-4.7,1.9-8,5.1-8
		c1.7,0,3.2,0.9,4,3.3c0-0.9,0-1.8,0-2.9h1.7V629.7z M977.8,622.2c0,3.4,1.2,6.1,3.5,6.1c1.2,0,2-0.6,2.6-1.7
		c0.6-1.1,0.9-2.4,0.9-4.4c0-2-0.2-3.4-0.9-4.4c-0.6-1-1.4-1.7-2.6-1.7C979,616.1,977.8,618.7,977.8,622.2L977.8,622.2z"/>
	<path class="st5" d="M992.2,616.4h-2.1v-1.8h2.1v-4.8h1.9v4.8h2.1v1.8H994v13.4h-1.9V616.4z"/>
	<path class="st5" d="M1000.4,622.7c0,3.1,1.3,5.6,3.8,5.6c1.8,0,3-1.3,3.4-3h1.8c-0.3,1.6-1,2.8-1.9,3.6c-0.9,0.8-2.1,1.2-3.3,1.2
		c-4.2,0-5.8-4-5.8-7.9c0-4.7,2.2-8,5.7-8c1.8,0,3.2,0.8,4.1,2.1c1.2,1.8,1.4,4.1,1.4,6.3H1000.4z M1007.7,621.1
		c-0.1-3.1-1.4-5.3-3.6-5.3c-2.2,0-3.6,2.3-3.7,5.3H1007.7z"/>
	<path class="st5" d="M1014.2,632h-1.6l1.8-5.3h1.9L1014.2,632z"/>
	<path class="st5" d="M1031,629.7h-1.9l-4.6-15.1h1.9l3.6,12.6l3.5-12.6h1.9L1031,629.7z"/>
	<path class="st5" d="M1037.4,622.1c0-4.3,1.8-7.9,5.8-7.9c4,0,5.8,3.6,5.8,7.9s-1.8,7.9-5.8,7.9
		C1039.2,630.1,1037.4,626.5,1037.4,622.1L1037.4,622.1z M1039.4,622.2c0,4,1.3,6.2,3.9,6.2c2.5,0,3.8-2.1,3.8-6.2s-1.3-6.2-3.9-6.2
		C1040.7,616,1039.4,618.1,1039.4,622.2L1039.4,622.2z"/>
	<path class="st5" d="M1063.2,629.7h-1.7c0-0.9,0-1.7,0.1-2.6c-0.8,2.2-2.5,3-4.2,3c-2.6,0-4.3-1.5-4.3-5.2v-10.3h1.9v9.7
		c0,1.5,0.2,3.9,2.9,3.9c2.2,0,3.6-1.5,3.6-4.7v-9h1.9V629.7z"/>
	<path class="st5" d="M1074.1,618.5c0-1.9-1-2.6-2.4-2.6c-1.3,0-2.2,0.9-2.2,2.3c0,1.7,1.4,2.3,3.3,2.9c1.7,0.5,3.6,1.5,3.6,4.6
		c0,2.7-1.9,4.5-4.5,4.5c-2.8,0-4.6-1.6-4.7-4.8h1.8c0,2.1,1.2,3.1,2.9,3.1c1.6,0,2.6-1.1,2.6-2.6c0-1.8-1.3-2.6-3.3-3.2
		c-1.9-0.6-3.6-1.6-3.6-4.3c0-2.4,1.8-4,4.2-4c2.6,0,4.1,1.5,4.2,4.3H1074.1z"/>
	<path class="st5" d="M1088.1,614.6h1.7c0,0.9,0,1.6-0.1,2.6c0.8-2.1,2.5-3,4.3-3c2.6,0,4.3,1.5,4.3,5.2v10.3h-1.9V620
		c0-1.5-0.2-3.9-2.9-3.9c-2.2,0-3.6,1.5-3.6,4.7v9h-1.9V614.6z"/>
	<path class="st5" d="M1104.3,622.7c0,3.1,1.3,5.6,3.8,5.6c1.8,0,3-1.3,3.4-3h1.8c-0.3,1.6-1,2.8-1.9,3.6c-0.9,0.8-2.1,1.2-3.3,1.2
		c-4.2,0-5.8-4-5.8-7.9c0-4.7,2.2-8,5.7-8c1.8,0,3.2,0.8,4.1,2.1c1.2,1.8,1.4,4.1,1.4,6.3H1104.3z M1111.6,621.1
		c-0.1-3.1-1.4-5.3-3.6-5.3c-2.2,0-3.6,2.3-3.7,5.3H1111.6z"/>
	<path class="st5" d="M1131.4,618.5c0-1.9-1-2.6-2.4-2.6c-1.3,0-2.2,0.9-2.2,2.3c0,1.7,1.4,2.3,3.3,2.9c1.7,0.5,3.6,1.5,3.6,4.6
		c0,2.7-1.9,4.5-4.5,4.5c-2.8,0-4.6-1.6-4.7-4.8h1.8c0,2.1,1.2,3.1,2.9,3.1c1.6,0,2.6-1.1,2.6-2.6c0-1.8-1.3-2.6-3.3-3.2
		c-1.9-0.6-3.6-1.6-3.6-4.3c0-2.4,1.8-4,4.2-4c2.6,0,4.1,1.5,4.2,4.3H1131.4z"/>
	<path class="st5" d="M1147.6,629.7h-1.7c0-1.3,0-2.2,0-2.9c-0.7,2.1-2.1,3.3-4,3.3c-3,0-5.1-3.2-5.1-7.9c0-4.7,1.9-8,5.1-8
		c1.7,0,3.2,0.9,4,3.3c0-0.9,0-1.8,0-2.9h1.7V629.7z M1138.7,622.2c0,3.4,1.2,6.1,3.5,6.1c1.2,0,2-0.6,2.6-1.7
		c0.6-1.1,0.9-2.4,0.9-4.4c0-2-0.2-3.4-0.9-4.4c-0.6-1-1.4-1.7-2.6-1.7C1139.9,616.1,1138.7,618.7,1138.7,622.2L1138.7,622.2z"/>
	<path class="st5" d="M1157,629.7h-1.9l-4.6-15.1h1.9l3.6,12.6l3.5-12.6h1.9L1157,629.7z"/>
	<path class="st5" d="M1165.4,622.7c0,3.1,1.3,5.6,3.8,5.6c1.8,0,3-1.3,3.4-3h1.8c-0.3,1.6-1,2.8-1.9,3.6c-0.9,0.8-2.1,1.2-3.3,1.2
		c-4.2,0-5.8-4-5.8-7.9c0-4.7,2.2-8,5.7-8c1.8,0,3.2,0.8,4.1,2.1c1.2,1.8,1.4,4.1,1.4,6.3H1165.4z M1172.7,621.1
		c-0.1-3.1-1.4-5.3-3.6-5.3c-2.2,0-3.6,2.3-3.7,5.3H1172.7z"/>
	<path class="st5" d="M1177.3,628l7.3-11.7h-6.8v-1.8h9v1.8l-7.2,11.6h7.5v1.8h-9.7V628z"/>
	<path class="st5" d="M1198.6,614.6h1.7c0,1.1,0,2,0,2.9c0.8-2.3,2.2-3.3,4-3.3c3,0,5.1,3.1,5.1,8c0,4.6-1.9,7.9-5.1,7.9
		c-1.8,0-3.3-1.2-3.9-3.1c0.1,0.7,0.1,1.4,0.1,2.8v5.6h-1.9V614.6z M1207.5,622.1c0-3.4-1.2-6.1-3.5-6.1c-1.2,0-2,0.6-2.6,1.7
		c-0.7,1-0.9,2.4-0.9,4.4c0,2,0.3,3.4,0.9,4.4c0.6,1,1.4,1.7,2.6,1.7C1206.3,628.3,1207.5,625.6,1207.5,622.1L1207.5,622.1z"/>
	<path class="st5" d="M1223.3,629.7h-1.7c0-1.3,0-2.2,0-2.9c-0.7,2.1-2.1,3.3-4,3.3c-3,0-5.1-3.2-5.1-7.9c0-4.7,1.9-8,5.1-8
		c1.7,0,3.2,0.9,4,3.3c0-0.9,0-1.8,0-2.9h1.7V629.7z M1214.4,622.2c0,3.4,1.2,6.1,3.5,6.1c1.2,0,2-0.6,2.6-1.7
		c0.6-1.1,0.9-2.4,0.9-4.4c0-2-0.2-3.4-0.9-4.4c-0.6-1-1.4-1.7-2.6-1.7C1215.6,616.1,1214.4,618.7,1214.4,622.2L1214.4,622.2z"/>
	<path class="st5" d="M1234.2,618.5c0-1.9-1-2.6-2.4-2.6c-1.3,0-2.2,0.9-2.2,2.3c0,1.7,1.4,2.3,3.3,2.9c1.7,0.5,3.6,1.5,3.6,4.6
		c0,2.7-1.9,4.5-4.5,4.5c-2.8,0-4.6-1.6-4.7-4.8h1.8c0,2.1,1.2,3.1,2.9,3.1c1.6,0,2.6-1.1,2.6-2.6c0-1.8-1.3-2.6-3.3-3.2
		c-1.9-0.6-3.6-1.6-3.6-4.3c0-2.4,1.8-4,4.2-4c2.6,0,4.1,1.5,4.2,4.3H1234.2z"/>
	<path class="st5" d="M1258.2,635.3h-1.9v-5.6c0-1.3,0-2.1,0.1-2.8c-0.6,2-2.1,3.2-3.9,3.2c-3.2,0-5.1-3.3-5.1-7.9
		c0-4.8,2.1-8,5.1-8c1.8,0,3.3,1,4,3.3c0-0.9,0-1.8,0-2.9h1.8V635.3z M1249.3,622.2c0,3.4,1.2,6.1,3.5,6.1c1.2,0,2-0.6,2.6-1.7
		c0.6-1.1,0.9-2.4,0.9-4.4c0-2-0.2-3.4-0.9-4.4c-0.6-1-1.4-1.7-2.6-1.7C1250.5,616.1,1249.3,618.7,1249.3,622.2L1249.3,622.2z"/>
	<path class="st5" d="M1273.1,629.7h-1.7c0-0.9,0-1.7,0.1-2.6c-0.8,2.2-2.5,3-4.2,3c-2.6,0-4.3-1.5-4.3-5.2v-10.3h1.9v9.7
		c0,1.5,0.2,3.9,2.9,3.9c2.2,0,3.6-1.5,3.6-4.7v-9h1.9V629.7z"/>
	<path class="st5" d="M1278.1,609.1h1.9v2.7h-1.9V609.1z M1278.1,614.6h1.9v15.1h-1.9V614.6z"/>
	<path class="st5" d="M1297.4,629.7h-1.9l-4.6-15.1h1.9l3.6,12.6l3.5-12.6h1.9L1297.4,629.7z"/>
	<path class="st5" d="M1303.8,622.1c0-4.3,1.8-7.9,5.8-7.9c4,0,5.8,3.6,5.8,7.9s-1.8,7.9-5.8,7.9
		C1305.6,630.1,1303.8,626.5,1303.8,622.1L1303.8,622.1z M1305.8,622.2c0,4,1.3,6.2,3.9,6.2c2.5,0,3.8-2.1,3.8-6.2s-1.3-6.2-3.9-6.2
		C1307.1,616,1305.8,618.1,1305.8,622.2L1305.8,622.2z"/>
	<path class="st5" d="M1329.6,629.7h-1.7c0-0.9,0-1.7,0.1-2.6c-0.8,2.2-2.5,3-4.2,3c-2.6,0-4.3-1.5-4.3-5.2v-10.3h1.9v9.7
		c0,1.5,0.2,3.9,2.9,3.9c2.2,0,3.6-1.5,3.6-4.7v-9h1.9V629.7z"/>
	<path class="st5" d="M1340.5,618.5c0-1.9-1-2.6-2.4-2.6c-1.3,0-2.2,0.9-2.2,2.3c0,1.7,1.4,2.3,3.3,2.9c1.7,0.5,3.6,1.5,3.6,4.6
		c0,2.7-1.9,4.5-4.5,4.5c-2.8,0-4.6-1.6-4.7-4.8h1.8c0,2.1,1.2,3.1,2.9,3.1c1.6,0,2.6-1.1,2.6-2.6c0-1.8-1.3-2.6-3.3-3.2
		c-1.9-0.6-3.6-1.6-3.6-4.3c0-2.4,1.8-4,4.2-4c2.6,0,4.1,1.5,4.2,4.3H1340.5z"/>
	<path class="st5" d="M1364.5,629.7h-1.7c0-1.3,0-2.2,0-2.9c-0.7,2.1-2.1,3.3-4,3.3c-3,0-5.1-3.2-5.1-7.9c0-4.7,1.9-8,5.1-8
		c1.7,0,3.2,0.9,4,3.3c0-0.9,0-1.8,0-2.9h1.7V629.7z M1355.6,622.2c0,3.4,1.2,6.1,3.5,6.1c1.2,0,2-0.6,2.6-1.7
		c0.6-1.1,0.9-2.4,0.9-4.4c0-2-0.2-3.4-0.9-4.4c-0.6-1-1.4-1.7-2.6-1.7C1356.8,616.1,1355.6,618.7,1355.6,622.2L1355.6,622.2z"/>
	<path class="st5" d="M1369.5,609.1h1.9v20.6h-1.9V609.1z"/>
	<path class="st5" d="M1376.6,609.1h1.9v20.6h-1.9V609.1z"/>
	<path class="st5" d="M1384.7,622.7c0,3.1,1.3,5.6,3.8,5.6c1.8,0,3-1.3,3.4-3h1.8c-0.3,1.6-1,2.8-1.9,3.6c-0.9,0.8-2.1,1.2-3.3,1.2
		c-4.2,0-5.8-4-5.8-7.9c0-4.7,2.2-8,5.7-8c1.8,0,3.2,0.8,4.1,2.1c1.2,1.8,1.4,4.1,1.4,6.3H1384.7z M1392,621.1
		c-0.1-3.1-1.4-5.3-3.6-5.3c-2.2,0-3.6,2.3-3.7,5.3H1392z"/>
	<path class="st5" d="M1396.6,628l7.3-11.7h-6.8v-1.8h9v1.8l-7.2,11.6h7.5v1.8h-9.7V628z"/>
	<path class="st5" d="M1417.9,614.6h1.7c0,1.4,0,2.3-0.1,3.2c0.8-3,2.7-3.5,4-3.5v2.2c-0.2-0.1-0.4-0.2-0.7-0.2
		c-1.3,0-3.1,1.6-3.1,5.4v8.1h-1.9V614.6z"/>
	<path class="st5" d="M1427.5,622.7c0,3.1,1.3,5.6,3.8,5.6c1.8,0,3-1.3,3.4-3h1.8c-0.3,1.6-1,2.8-1.9,3.6c-0.9,0.8-2.1,1.2-3.3,1.2
		c-4.2,0-5.8-4-5.8-7.9c0-4.7,2.2-8,5.7-8c1.8,0,3.2,0.8,4.1,2.1c1.2,1.8,1.4,4.1,1.4,6.3H1427.5z M1434.9,621.1
		c-0.1-3.1-1.4-5.3-3.6-5.3c-2.2,0-3.6,2.3-3.7,5.3H1434.9z"/>
	<path class="st5" d="M1440.8,614.6h1.7c0,0.9,0,1.6-0.1,2.6c0.8-2.1,2.5-3,4.3-3c2.6,0,4.3,1.5,4.3,5.2v10.3h-1.9V620
		c0-1.5-0.2-3.9-2.9-3.9c-2.2,0-3.6,1.5-3.6,4.7v9h-1.9V614.6z"/>
	<path class="st5" d="M1465.7,624.6c-0.3,3.1-2,5.5-5,5.5c-4,0-5.8-3.8-5.8-7.9c0-5,2.3-8,5.8-8c3.1,0,4.9,2.4,5,5.6h-1.9
		c-0.3-3-1.8-3.8-3.2-3.8c-1.1,0-2.1,0.4-2.8,1.6c-0.7,1.2-1,2.6-1,4.6c0,4,1.4,6.2,3.8,6.2c1.9,0,2.9-1.5,3.2-3.8H1465.7z"/>
	<path class="st5" d="M1468.4,622.1c0-4.3,1.8-7.9,5.8-7.9c4,0,5.8,3.6,5.8,7.9s-1.8,7.9-5.8,7.9
		C1470.2,630.1,1468.4,626.5,1468.4,622.1L1468.4,622.1z M1470.3,622.2c0,4,1.3,6.2,3.9,6.2c2.5,0,3.8-2.1,3.8-6.2s-1.3-6.2-3.9-6.2
		C1471.6,616,1470.3,618.1,1470.3,622.2L1470.3,622.2z"/>
	<path class="st5" d="M1484,614.6h1.7c0,0.9,0,1.6-0.1,2.6c0.8-2.1,2.5-3,4.3-3c2.6,0,4.3,1.5,4.3,5.2v10.3h-1.9V620
		c0-1.5-0.2-3.9-2.9-3.9c-2.2,0-3.6,1.5-3.6,4.7v9h-1.9V614.6z"/>
	<path class="st5" d="M1499.7,616.4h-2.1v-1.8h2.1v-4.8h1.9v4.8h2.1v1.8h-2.1v13.4h-1.9V616.4z"/>
	<path class="st5" d="M1507,614.6h1.7c0,1.4,0,2.3-0.1,3.2c0.8-3,2.7-3.5,4-3.5v2.2c-0.2-0.1-0.4-0.2-0.7-0.2
		c-1.3,0-3.1,1.6-3.1,5.4v8.1h-1.9V614.6z"/>
	<path class="st5" d="M1516.7,622.7c0,3.1,1.3,5.6,3.8,5.6c1.8,0,3-1.3,3.4-3h1.8c-0.3,1.6-1,2.8-1.9,3.6c-0.9,0.8-2.1,1.2-3.3,1.2
		c-4.2,0-5.8-4-5.8-7.9c0-4.7,2.2-8,5.7-8c1.8,0,3.2,0.8,4.1,2.1c1.2,1.8,1.4,4.1,1.4,6.3H1516.7z M1524.1,621.1
		c-0.1-3.1-1.4-5.3-3.6-5.3c-2.2,0-3.6,2.3-3.7,5.3H1524.1z"/>
	<path class="st5" d="M1529.9,614.6h1.7c0,1.4,0,2.3-0.1,3.2c0.8-3,2.7-3.5,4-3.5v2.2c-0.2-0.1-0.4-0.2-0.7-0.2
		c-1.3,0-3.1,1.6-3.1,5.4v8.1h-1.9V614.6z"/>
	<path class="st5" d="M1540.4,629.7h-1.9v-3h1.9V629.7z"/>
	<path class="st5" d="M465.3,694.8h6.8v3.9h-11.7V695l6.7-13H461v-3.9h11.1v3.9L465.3,694.8z"/>
	<path class="st5" d="M479.5,692.2c0,1.6,0.4,3.4,2.1,3.4c1,0,1.7-0.6,1.9-1.9h3.7c-0.3,2.2-1.2,3.6-2.3,4.4c-1.1,0.8-2.3,1-3.4,1
		c-4.1,0-6.1-3.7-6.1-8.2s1.9-8.2,6.1-8.2c2.1,0,3.6,0.9,4.6,2.5c1.2,2,1.3,4.6,1.2,7H479.5z M483.6,689c0-0.9-0.1-3.3-2-3.3
		c-1.3,0-2.1,1.1-2.1,3.3H483.6z"/>
	<path class="st5" d="M491.1,682.9h3.2v1.5c0.6-1.1,1.4-1.8,3.4-1.8c2.5,0,4.1,1.4,4.1,4.6v11.6H498v-10.3c0-1.1-0.3-2.1-1.6-2.1
		c-1,0-1.7,0.5-1.7,1.8v10.6h-3.7V682.9z"/>
	<path class="st5" d="M507.4,701h-1.6l1.8-5.3h1.9L507.4,701z"/>
	<path class="st5" d="M529.6,693.6c-0.3,3.1-2,5.5-5,5.5c-4,0-5.8-3.8-5.8-7.9c0-5,2.3-8,5.8-8c3.1,0,4.9,2.4,5,5.6h-1.9
		c-0.3-3-1.8-3.8-3.2-3.8c-1.1,0-2.1,0.4-2.8,1.6c-0.7,1.2-1,2.6-1,4.6c0,4,1.4,6.2,3.8,6.2c1.9,0,2.9-1.5,3.2-3.8H529.6z"/>
	<path class="st5" d="M534.9,678.1h2l-2.2,5.3h-1.8L534.9,678.1z"/>
	<path class="st5" d="M542.6,691.7c0,3.1,1.3,5.6,3.8,5.6c1.8,0,3-1.3,3.4-3h1.8c-0.3,1.6-1,2.8-1.9,3.6c-0.9,0.8-2.1,1.2-3.3,1.2
		c-4.2,0-5.8-4-5.8-7.9c0-4.7,2.2-8,5.7-8c1.8,0,3.2,0.8,4.1,2.1c1.2,1.8,1.4,4.1,1.4,6.3H542.6z M549.9,690.1
		c-0.1-3.1-1.4-5.3-3.6-5.3c-2.2,0-3.6,2.3-3.7,5.3H549.9z"/>
	<path class="st5" d="M561.9,687.5c0-1.9-1-2.6-2.4-2.6c-1.3,0-2.2,0.9-2.2,2.3c0,1.7,1.4,2.3,3.3,2.9c1.7,0.5,3.6,1.5,3.6,4.6
		c0,2.7-1.9,4.5-4.5,4.5c-2.8,0-4.6-1.6-4.7-4.8h1.8c0,2.1,1.2,3.1,2.9,3.1c1.6,0,2.6-1.1,2.6-2.6c0-1.8-1.3-2.6-3.3-3.2
		c-1.9-0.6-3.6-1.6-3.6-4.3c0-2.4,1.8-4,4.2-4c2.6,0,4.1,1.5,4.2,4.3H561.9z"/>
	<path class="st5" d="M568.9,685.4h-2.1v-1.8h2.1v-4.8h1.9v4.8h2.1v1.8h-2.1v13.4h-1.9V685.4z"/>
	<path class="st5" d="M594,698.7h-1.7c0-1.3,0-2.2,0-2.9c-0.7,2.1-2.1,3.3-4,3.3c-3,0-5.1-3.2-5.1-7.9c0-4.7,1.9-8,5.1-8
		c1.7,0,3.2,0.9,4,3.3c0-0.9,0-1.8,0-2.9h1.7V698.7z M591.8,680.8l-0.7,1.3l-6.2-3.3l0.8-1.5L591.8,680.8z M585.1,691.2
		c0,3.4,1.2,6.1,3.5,6.1c1.2,0,2-0.6,2.6-1.7c0.6-1.1,0.9-2.4,0.9-4.4c0-2-0.2-3.4-0.9-4.4c-0.6-1-1.4-1.7-2.6-1.7
		C586.3,685.1,585.1,687.7,585.1,691.2L585.1,691.2z"/>
	<path class="st5" d="M607.8,691.7c0,3.1,1.3,5.6,3.8,5.6c1.8,0,3-1.3,3.4-3h1.8c-0.3,1.6-1,2.8-1.9,3.6c-0.9,0.8-2.1,1.2-3.3,1.2
		c-4.2,0-5.8-4-5.8-7.9c0-4.7,2.2-8,5.7-8c1.8,0,3.2,0.8,4.1,2.1c1.2,1.8,1.4,4.1,1.4,6.3H607.8z M615.1,690.1
		c-0.1-3.1-1.4-5.3-3.6-5.3c-2.2,0-3.6,2.3-3.7,5.3H615.1z"/>
	<path class="st5" d="M631.2,698.7h-1.7c0-0.9,0-1.7,0.1-2.6c-0.8,2.2-2.5,3-4.2,3c-2.6,0-4.3-1.5-4.3-5.2v-10.3h1.9v9.7
		c0,1.5,0.2,3.9,2.9,3.9c2.2,0,3.6-1.5,3.6-4.7v-9h1.9V698.7z"/>
	<path class="st5" d="M638.3,691l-3.9-7.4h2.1l2.9,6l2.9-6h2.1l-3.9,7.4l4.1,7.7h-2.1l-3.1-6.2l-3.1,6.2h-2.1L638.3,691z"/>
	<path class="st5" d="M665.5,698.7h-1.7c0-1.4,0-2.2,0-3c-0.5,2.1-2.1,3.4-4,3.4c-3,0-5.1-3.2-5.1-7.9c0-4.7,1.9-8,5.1-8
		c1.7,0,3.1,0.9,3.9,3.2c-0.1-0.9-0.1-1.7-0.1-2.8v-5.5h1.9V698.7z M656.6,691.2c0,3.4,1.2,6.1,3.5,6.1c1.2,0,2-0.6,2.6-1.7
		c0.6-1.1,0.9-2.4,0.9-4.4s-0.2-3.4-0.9-4.4c-0.6-1-1.4-1.6-2.6-1.6C657.8,685.1,656.6,687.7,656.6,691.2L656.6,691.2z"/>
	<path class="st5" d="M671.5,691.7c0,3.1,1.3,5.6,3.8,5.6c1.8,0,3-1.3,3.4-3h1.8c-0.3,1.6-1,2.8-1.9,3.6c-0.9,0.8-2.1,1.2-3.3,1.2
		c-4.2,0-5.8-4-5.8-7.9c0-4.7,2.2-8,5.7-8c1.8,0,3.2,0.8,4.1,2.1c1.2,1.8,1.4,4.1,1.4,6.3H671.5z M678.8,690.1
		c-0.1-3.1-1.4-5.3-3.6-5.3c-2.2,0-3.6,2.3-3.7,5.3H678.8z"/>
	<path class="st5" d="M692.9,685.4h-1.7v-1.8h1.7v-1.1c0-4.5,3.6-4.7,4.5-4.7v1.6c-1.4,0.1-2.6,0.8-2.6,3.2v1h2.6v1.8h-2.6v13.4
		h-1.9V685.4z"/>
	<path class="st5" d="M710,698.7h-1.7c0-1.3,0-2.2,0-2.9c-0.7,2.1-2.1,3.3-4,3.3c-3,0-5.1-3.2-5.1-7.9c0-4.7,1.9-8,5.1-8
		c1.7,0,3.2,0.9,4,3.3c0-0.9,0-1.8,0-2.9h1.7V698.7z M701,691.2c0,3.4,1.2,6.1,3.5,6.1c1.2,0,2-0.6,2.6-1.7c0.6-1.1,0.9-2.4,0.9-4.4
		c0-2-0.2-3.4-0.9-4.4c-0.6-1-1.4-1.7-2.6-1.7C702.3,685.1,701,687.7,701,691.2L701,691.2z"/>
	<path class="st5" d="M715,678.1h1.9v2.7H715V678.1z M715,683.6h1.9v15.1H715V683.6z"/>
	<path class="st5" d="M721.8,683.6h1.7c0,1.4,0,2.3-0.1,3.2c0.8-3,2.7-3.5,4-3.5v2.2c-0.2-0.1-0.4-0.2-0.7-0.2
		c-1.3,0-3.1,1.6-3.1,5.4v8.1h-1.9V683.6z"/>
	<path class="st5" d="M731.5,691.7c0,3.1,1.3,5.6,3.8,5.6c1.8,0,3-1.3,3.4-3h1.8c-0.3,1.6-1,2.8-1.9,3.6c-0.9,0.8-2.1,1.2-3.3,1.2
		c-4.2,0-5.8-4-5.8-7.9c0-4.7,2.2-8,5.7-8c1.8,0,3.2,0.8,4.1,2.1c1.2,1.8,1.4,4.1,1.4,6.3H731.5z M738.9,690.1
		c-0.1-3.1-1.4-5.3-3.6-5.3c-2.2,0-3.6,2.3-3.7,5.3H738.9z"/>
	<path class="st5" d="M752.8,678.1h1.9v20.6h-1.9V678.1z"/>
	<path class="st5" d="M760.8,691.7c0,3.1,1.3,5.6,3.8,5.6c1.8,0,3-1.3,3.4-3h1.8c-0.3,1.6-1,2.8-1.9,3.6c-0.9,0.8-2.1,1.2-3.3,1.2
		c-4.2,0-5.8-4-5.8-7.9c0-4.7,2.2-8,5.7-8c1.8,0,3.2,0.8,4.1,2.1c1.2,1.8,1.4,4.1,1.4,6.3H760.8z M768.2,690.1
		c-0.1-3.1-1.4-5.3-3.6-5.3c-2.2,0-3.6,2.3-3.7,5.3H768.2z"/>
	<path class="st5" d="M784.2,698.7h-1.7c0-0.9,0-1.7,0.1-2.6c-0.8,2.2-2.5,3-4.2,3c-2.6,0-4.3-1.5-4.3-5.2v-10.3h1.9v9.7
		c0,1.5,0.2,3.9,2.9,3.9c2.2,0,3.6-1.5,3.6-4.7v-9h1.9V698.7z"/>
	<path class="st5" d="M789,683.6h1.7c0,1.4,0,2.3-0.1,3.2c0.8-3,2.7-3.5,4-3.5v2.2c-0.2-0.1-0.4-0.2-0.7-0.2c-1.3,0-3.1,1.6-3.1,5.4
		v8.1H789V683.6z"/>
	<path class="st5" d="M805.6,683.6h1.7c0,1.1,0,2,0,2.9c0.8-2.3,2.2-3.3,4-3.3c3,0,5.1,3.1,5.1,8c0,4.6-1.9,7.9-5.1,7.9
		c-1.8,0-3.3-1.2-3.9-3.1c0.1,0.7,0.1,1.4,0.1,2.8v5.6h-1.9V683.6z M814.5,691.1c0-3.4-1.2-6.1-3.5-6.1c-1.2,0-2,0.6-2.6,1.7
		c-0.7,1-0.9,2.4-0.9,4.4c0,2,0.3,3.4,0.9,4.4c0.6,1,1.4,1.7,2.6,1.7C813.3,697.3,814.5,694.6,814.5,691.1L814.5,691.1z"/>
	<path class="st5" d="M820.4,683.6h1.7c0,1.4,0,2.3-0.1,3.2c0.8-3,2.7-3.5,4-3.5v2.2c-0.2-0.1-0.4-0.2-0.7-0.2
		c-1.3,0-3.1,1.6-3.1,5.4v8.1h-1.9V683.6z"/>
	<path class="st5" d="M830.1,691.7c0,3.1,1.3,5.6,3.8,5.6c1.8,0,3-1.3,3.4-3h1.8c-0.3,1.6-1,2.8-1.9,3.6c-0.9,0.8-2.1,1.2-3.3,1.2
		c-4.2,0-5.8-4-5.8-7.9c0-4.7,2.2-8,5.7-8c1.8,0,3.2,0.8,4.1,2.1c1.2,1.8,1.4,4.1,1.4,6.3H830.1z M837.4,690.1
		c-0.1-3.1-1.4-5.3-3.6-5.3c-2.2,0-3.6,2.3-3.7,5.3H837.4z"/>
	<path class="st5" d="M853.4,698.7h-1.7c0-0.9,0-1.7,0.1-2.6c-0.8,2.2-2.5,3-4.2,3c-2.6,0-4.3-1.5-4.3-5.2v-10.3h1.9v9.7
		c0,1.5,0.2,3.9,2.9,3.9c2.2,0,3.6-1.5,3.6-4.7v-9h1.9V698.7z"/>
	<path class="st5" d="M862.8,698.7H861l-4.6-15.1h1.9l3.6,12.6l3.5-12.6h1.9L862.8,698.7z"/>
	<path class="st5" d="M871.2,691.7c0,3.1,1.3,5.6,3.8,5.6c1.8,0,3-1.3,3.4-3h1.8c-0.3,1.6-1,2.8-1.9,3.6c-0.9,0.8-2.1,1.2-3.3,1.2
		c-4.2,0-5.8-4-5.8-7.9c0-4.7,2.2-8,5.7-8c1.8,0,3.2,0.8,4.1,2.1c1.2,1.8,1.4,4.1,1.4,6.3H871.2z M878.6,690.1
		c-0.1-3.1-1.4-5.3-3.6-5.3c-2.2,0-3.6,2.3-3.7,5.3H878.6z"/>
	<path class="st5" d="M886.7,698.7h-1.9v-3h1.9V698.7z"/>
</g>
<g>
	<path class="st5" d="M434.9,372.5h14.4v5.6h-8.3v5.7h8.3v5.6h-8.3v7.1h8.3v5.6h-14.4V372.5z"/>
	<path class="st5" d="M456,379.4h4.6v2.2c0.9-1.6,2-2.6,4.8-2.6c3.6,0,5.9,2,5.9,6.6v16.6H466v-14.8c0-1.6-0.4-3-2.2-3
		c-1.4,0-2.4,0.7-2.4,2.6v15.2H456V379.4z"/>
	<path class="st5" d="M490.9,384.4h-2.4v-5h2.4V375h5.4v4.3h2.4v5h-2.4v17.7h-5.4V384.4z"/>
	<path class="st5" d="M518,402.1h-4.9v-2.2c-1,1.8-2.3,2.6-4.4,2.6c-4.1,0-7.2-3.7-7.2-11.8c0-7.7,2.5-11.8,7.2-11.8
		c1.8,0,3.6,0.7,4.4,2.8v-2.3h4.9V402.1z M506.9,390.8c0,5,1.1,6.4,2.9,6.4c1.1,0,1.6-0.3,2.1-1c0.7-0.8,0.7-1.9,0.7-5.5
		c0-3.6,0-4.6-0.7-5.5c-0.6-0.7-1-1-2.1-1C508,384.2,506.9,385.7,506.9,390.8L506.9,390.8z"/>
	<path class="st5" d="M524.2,379.4h4.6v2.2c0.9-1.6,2-2.6,4.8-2.6c3.6,0,5.9,2,5.9,6.6v16.6h-5.4v-14.8c0-1.6-0.4-3-2.2-3
		c-1.4,0-2.4,0.7-2.4,2.6v15.2h-5.4V379.4z"/>
	<path class="st5" d="M546.4,384.4H544v-5h2.4V375h5.4v4.3h2.4v5h-2.4v17.7h-5.4V384.4z"/>
	<path class="st5" d="M586.6,409.3h-5.4v-7.2c0-0.6,0-1.3,0-2c-0.8,1.8-2.2,2.4-4,2.4c-4.6,0-7.2-4.2-7.2-11.8
		c0-8.2,3.1-11.8,7.2-11.8c2.1,0,4,1.2,4.2,2.6v-2.2h5V409.3z M575.5,390.8c0,5,1.1,6.4,2.9,6.4c1.1,0,1.6-0.3,2.1-1
		c0.7-0.8,0.7-1.9,0.7-5.5c0-3.6,0-4.6-0.7-5.5c-0.6-0.7-1-1-2.1-1C576.7,384.2,575.5,385.7,575.5,390.8L575.5,390.8z"/>
	<path class="st5" d="M608.2,402.1h-4.8v-2.4c-0.7,1.8-1.8,2.9-4.6,2.9c-3.6,0-5.9-2-5.9-6.6v-16.6h5.4v14.8c0,1.6,0.4,3,2.2,3
		c1.4,0,2.4-0.7,2.4-2.6v-15.2h5.4V402.1z"/>
	<path class="st5" d="M619.3,392.6c0,2.2,0.6,4.9,3,4.9c1.4,0,2.4-0.9,2.8-2.8h5.3c-0.4,3.2-1.7,5.2-3.3,6.4
		c-1.6,1.1-3.4,1.5-4.8,1.5c-6,0-8.8-5.3-8.8-11.8c0-6.6,2.8-11.8,8.8-11.8c3,0,5.2,1.3,6.6,3.6c1.7,2.9,1.8,6.6,1.7,10.1H619.3z
		 M625.3,388.1c0-1.4-0.2-4.8-2.8-4.8c-1.9,0-3.1,1.6-3.1,4.8H625.3z"/>
	<path class="st5" d="M648.8,379.4h4.9v3c0.8-2.8,2.8-3.4,5.8-3.4v6.6c-0.8-0.5-1.6-0.7-2.4-0.7c-2,0-2.9,1.7-2.9,4v13.3h-5.4V379.4
		z"/>
	<path class="st5" d="M668,392.6c0,2.2,0.6,4.9,3,4.9c1.4,0,2.4-0.9,2.8-2.8h5.3c-0.4,3.2-1.7,5.2-3.3,6.4c-1.6,1.1-3.4,1.5-4.8,1.5
		c-6,0-8.8-5.3-8.8-11.8c0-6.6,2.8-11.8,8.8-11.8c3,0,5.2,1.3,6.6,3.6c1.7,2.9,1.8,6.6,1.7,10.1H668z M673.9,388.1
		c0-1.4-0.2-4.8-2.8-4.8c-1.9,0-3.1,1.6-3.1,4.8H673.9z"/>
	<path class="st5" d="M699.5,393.4c0,4.6-2.3,9.1-7.3,9.1c-5.4,0-8.8-4.2-8.8-11.8c0-7.6,3.4-11.8,8.8-11.8c5,0,7.3,4.4,7.3,9.1
		h-5.6c0-2.7-0.7-4.1-2.1-4.1c-0.9,0-1.6,0.4-2,1.4c-0.5,1-0.7,2.8-0.7,5.4c0,5.2,1,6.8,2.7,6.8c1.6,0,2.1-1.8,2.1-4.1H699.5z"/>
	<path class="st5" d="M704.1,379.4h4.9v3c0.8-2.8,2.8-3.4,5.8-3.4v6.6c-0.8-0.5-1.6-0.7-2.4-0.7c-2,0-2.9,1.7-2.9,4v13.3h-5.4V379.4
		z"/>
	<path class="st5" d="M734.3,402.1h-4.8v-2.4c-0.7,1.8-1.8,2.9-4.6,2.9c-3.6,0-5.9-2-5.9-6.6v-16.6h5.4v14.8c0,1.6,0.4,3,2.2,3
		c1.4,0,2.4-0.7,2.4-2.6v-15.2h5.4V402.1z"/>
	<path class="st5" d="M741.1,384.4h-2.4v-5h2.4V375h5.4v4.3h2.4v5h-2.4v17.7h-5.4V384.4z"/>
	<path class="st5" d="M757.8,392.6c0,2.2,0.6,4.9,3,4.9c1.4,0,2.4-0.9,2.8-2.8h5.3c-0.4,3.2-1.7,5.2-3.3,6.4
		c-1.6,1.1-3.4,1.5-4.8,1.5c-6,0-8.8-5.3-8.8-11.8c0-6.6,2.8-11.8,8.8-11.8c3,0,5.2,1.3,6.6,3.6c1.7,2.9,1.8,6.6,1.7,10.1H757.8z
		 M763.7,388.1c0-1.4-0.2-4.8-2.8-4.8c-1.9,0-3.1,1.6-3.1,4.8H763.7z"/>
	<path class="st5" d="M789.9,402.1H785v-2.4c-0.7,1.8-1.8,2.9-4.6,2.9c-3.6,0-5.9-2-5.9-6.6v-16.6h5.4v14.8c0,1.6,0.4,3,2.2,3
		c1.4,0,2.4-0.7,2.4-2.6v-15.2h5.4V402.1z"/>
	<path class="st5" d="M796.1,379.4h4.9v3c0.8-2.8,2.8-3.4,5.8-3.4v6.6c-0.8-0.5-1.6-0.7-2.4-0.7c-2,0-2.9,1.7-2.9,4v13.3h-5.4V379.4
		z"/>
	<path class="st5" d="M811.1,406.2h-4.2l2.9-10h5L811.1,406.2z"/>
	<path class="st5" d="M844.9,393.4c0,4.6-2.3,9.1-7.3,9.1c-5.4,0-8.8-4.2-8.8-11.8c0-7.6,3.4-11.8,8.8-11.8c5,0,7.3,4.4,7.3,9.1
		h-5.6c0-2.7-0.7-4.1-2.1-4.1c-0.9,0-1.6,0.4-2,1.4c-0.5,1-0.7,2.8-0.7,5.4c0,5.2,1,6.8,2.7,6.8c1.6,0,2.1-1.8,2.1-4.1H844.9z"/>
	<path class="st5" d="M848.3,390.7c0-6.5,2.8-11.8,8.8-11.8s8.8,5.3,8.8,11.8c0,6.6-2.8,11.8-8.8,11.8S848.3,397.3,848.3,390.7
		L848.3,390.7z M854,390.8c0,5.3,1.2,6.8,3.2,6.8c1.8,0,3-1.4,3-6.8c0-5.4-1.2-6.8-3.2-6.8C855.2,383.9,854,385.4,854,390.8
		L854,390.8z"/>
	<path class="st5" d="M871.3,379.4h5v2.6c0.7-2.2,2.2-3.1,4.6-3.1c1.3,0,2.4,0.3,3.2,1c0.4,0.4,0.8,0.8,1.1,1.5
		c0.4-0.6,0.9-1.1,1.5-1.5c1-0.6,2.4-1,3.7-1c2.4,0,4.1,0.9,5.2,2.2c1.1,1.3,1.6,3.1,1.6,4.8v16.2h-5.4v-15.2c0-1-0.2-1.6-0.6-2
		c-0.4-0.4-1-0.6-1.8-0.6c-0.8,0-1.4,0.1-1.9,0.5s-0.7,1-0.7,1.8v15.5h-5.4v-15.2c0-1-0.2-1.6-0.6-2c-0.4-0.4-1-0.6-1.8-0.6
		c-0.8,0-1.4,0.1-1.9,0.5s-0.7,1-0.7,1.8v15.5h-5.4V379.4z"/>
	<path class="st5" d="M904,379.4h5v2.6c0.7-2.2,2.2-3.1,4.6-3.1c1.3,0,2.4,0.3,3.2,1c0.4,0.4,0.8,0.8,1.1,1.5
		c0.4-0.6,0.9-1.1,1.5-1.5c1-0.6,2.4-1,3.7-1c2.4,0,4.1,0.9,5.2,2.2c1.1,1.3,1.6,3.1,1.6,4.8v16.2h-5.4v-15.2c0-1-0.2-1.6-0.6-2
		c-0.4-0.4-1-0.6-1.8-0.6c-0.8,0-1.4,0.1-1.9,0.5s-0.7,1-0.7,1.8v15.5h-5.4v-15.2c0-1-0.2-1.6-0.6-2c-0.4-0.4-1-0.6-1.8-0.6
		c-0.8,0-1.4,0.1-1.9,0.5s-0.7,1-0.7,1.8v15.5H904V379.4z"/>
	<path class="st5" d="M941.3,392.6c0,2.2,0.6,4.9,3,4.9c1.4,0,2.4-0.9,2.8-2.8h5.3c-0.4,3.2-1.7,5.2-3.3,6.4
		c-1.6,1.1-3.4,1.5-4.8,1.5c-6,0-8.8-5.3-8.8-11.8c0-6.6,2.8-11.8,8.8-11.8c3,0,5.2,1.3,6.6,3.6c1.7,2.9,1.8,6.6,1.7,10.1H941.3z
		 M947.3,388.1c0-1.4-0.2-4.8-2.8-4.8c-1.9,0-3.1,1.6-3.1,4.8H947.3z"/>
	<path class="st5" d="M958.1,379.4h4.6v2.2c0.9-1.6,2-2.6,4.8-2.6c3.6,0,5.9,2,5.9,6.6v16.6h-5.4v-14.8c0-1.6-0.4-3-2.2-3
		c-1.4,0-2.4,0.7-2.4,2.6v15.2h-5.4V379.4z"/>
	<path class="st5" d="M980.2,384.4h-2.4v-5h2.4V375h5.4v4.3h2.4v5h-2.4v17.7h-5.4V384.4z"/>
	<path class="st5" d="M1020.5,402.1h-4.9v-2.2c-1,1.8-2.3,2.6-4.4,2.6c-4.1,0-7.2-3.7-7.2-11.8c0-7.7,2.5-11.8,7.2-11.8
		c1.8,0,3.6,0.7,4.4,2.8v-2.3h4.9V402.1z M1009.4,390.8c0,5,1.1,6.4,2.9,6.4c1.1,0,1.6-0.3,2.1-1c0.7-0.8,0.7-1.9,0.7-5.5
		c0-3.6,0-4.6-0.7-5.5c-0.6-0.7-1-1-2.1-1C1010.5,384.2,1009.4,385.7,1009.4,390.8L1009.4,390.8z"/>
	<path class="st5" d="M1026.7,379.4h4.9v3c0.8-2.8,2.8-3.4,5.8-3.4v6.6c-0.8-0.5-1.6-0.7-2.4-0.7c-2,0-2.9,1.7-2.9,4v13.3h-5.4
		V379.4z"/>
	<path class="st5" d="M1041.6,379.4h4.9v3c0.8-2.8,2.8-3.4,5.8-3.4v6.6c-0.8-0.5-1.6-0.7-2.4-0.7c-2,0-2.9,1.7-2.9,4v13.3h-5.4
		V379.4z"/>
	<path class="st5" d="M1057.1,372.5h5.4v4.5h-5.4V372.5z M1057.1,379.4h5.4v22.7h-5.4V379.4z"/>
	<path class="st5" d="M1078.6,402.1h-4.9l-6.6-22.7h5.4l3.5,14.6l3-14.6h5.4L1078.6,402.1z"/>
	<path class="st5" d="M1093.1,392.6c0,2.2,0.6,4.9,3,4.9c1.4,0,2.4-0.9,2.8-2.8h5.3c-0.4,3.2-1.7,5.2-3.3,6.4
		c-1.6,1.1-3.4,1.5-4.8,1.5c-6,0-8.8-5.3-8.8-11.8c0-6.6,2.8-11.8,8.8-11.8c3,0,5.2,1.3,6.6,3.6c1.7,2.9,1.8,6.6,1.7,10.1H1093.1z
		 M1099,388.1c0-1.4-0.2-4.8-2.8-4.8c-1.9,0-3.1,1.6-3.1,4.8H1099z"/>
	<path class="st5" d="M1108.6,397l8.3-12.6h-7.5v-5h13.9v5l-8.2,12.6h8.2v5h-14.7V397z"/>
	<path class="st5" d="M1138.5,388.1v5.2h-10v-5.2H1138.5z"/>
	<path class="st5" d="M1153.4,402.1h-4.9l-6.6-22.7h5.4l3.5,14.6l3-14.6h5.4L1153.4,402.1z"/>
	<path class="st5" d="M1162,390.7c0-6.5,2.8-11.8,8.8-11.8s8.8,5.3,8.8,11.8c0,6.6-2.8,11.8-8.8,11.8S1162,397.3,1162,390.7
		L1162,390.7z M1167.7,390.8c0,5.3,1.2,6.8,3.2,6.8c1.8,0,3-1.4,3-6.8c0-5.4-1.2-6.8-3.2-6.8
		C1168.9,383.9,1167.7,385.4,1167.7,390.8L1167.7,390.8z"/>
	<path class="st5" d="M1200,402.1h-4.8v-2.4c-0.7,1.8-1.8,2.9-4.6,2.9c-3.6,0-5.9-2-5.9-6.6v-16.6h5.4v14.8c0,1.6,0.4,3,2.2,3
		c1.4,0,2.4-0.7,2.4-2.6v-15.2h5.4V402.1z"/>
	<path class="st5" d="M1214.8,386.1c-0.1-1.7-0.8-2.6-2.4-2.6c-1.2,0-1.9,0.7-1.9,1.8c0,1.9,2.6,2.1,5.1,2.9c2.6,0.8,5.1,2.3,5.1,7
		c0,4.2-3.4,7.4-8,7.4c-4.4,0-7.8-2.4-8.3-7.8h5.4c0.1,1.7,1.3,2.9,3.1,2.9c1.7,0,2.2-1.2,2.2-2.3c0-2-2.6-2.2-5.1-3
		c-2.6-0.9-5.1-2.4-5.1-6.9c0-3.8,2.6-6.6,7.8-6.6c5,0,7.3,2.8,7.6,7.2H1214.8z"/>
	<path class="st5" d="M1253.7,402.1h-4.9v-2.2c-1,1.8-2.3,2.6-4.4,2.6c-4.1,0-7.2-3.7-7.2-11.8c0-7.7,2.5-11.8,7.2-11.8
		c1.8,0,3.6,0.7,4.4,2.8v-2.3h4.9V402.1z M1249.9,374.6l-1.8,3.5l-9.3-4.1l2-4.3L1249.9,374.6z M1242.6,390.8c0,5,1.1,6.4,2.9,6.4
		c1.1,0,1.6-0.3,2.1-1c0.7-0.8,0.7-1.9,0.7-5.5c0-3.6,0-4.6-0.7-5.5c-0.6-0.7-1-1-2.1-1C1243.7,384.2,1242.6,385.7,1242.6,390.8
		L1242.6,390.8z"/>
	<path class="st5" d="M1273.2,372.5h5.4v29.6h-5.4V372.5z"/>
	<path class="st5" d="M1286.5,372.5h5.7l-4.2,10h-4.8L1286.5,372.5z"/>
	<path class="st5" d="M1300.7,392.6c0,2.2,0.6,4.9,3,4.9c1.4,0,2.4-0.9,2.8-2.8h5.3c-0.4,3.2-1.7,5.2-3.3,6.4
		c-1.6,1.1-3.4,1.5-4.8,1.5c-6,0-8.8-5.3-8.8-11.8c0-6.6,2.8-11.8,8.8-11.8c3,0,5.2,1.3,6.6,3.6c1.7,2.9,1.8,6.6,1.7,10.1H1300.7z
		 M1306.7,388.1c0-1.4-0.2-4.8-2.8-4.8c-1.9,0-3.1,1.6-3.1,4.8H1306.7z"/>
	<path class="st5" d="M1317.5,379.4h4.6v2.2c0.9-1.6,2-2.6,4.8-2.6c3.6,0,5.9,2,5.9,6.6v16.6h-5.4v-14.8c0-1.6-0.4-3-2.2-3
		c-1.4,0-2.4,0.7-2.4,2.6v15.2h-5.4V379.4z"/>
	<path class="st5" d="M1339.6,384.4h-2.4v-5h2.4V375h5.4v4.3h2.4v5h-2.4v17.7h-5.4V384.4z"/>
	<path class="st5" d="M1351.8,379.4h4.9v3c0.8-2.8,2.8-3.4,5.8-3.4v6.6c-0.8-0.5-1.6-0.7-2.4-0.7c-2,0-2.9,1.7-2.9,4v13.3h-5.4
		V379.4z"/>
	<path class="st5" d="M1371,392.6c0,2.2,0.6,4.9,3,4.9c1.4,0,2.4-0.9,2.8-2.8h5.3c-0.4,3.2-1.7,5.2-3.3,6.4
		c-1.6,1.1-3.4,1.5-4.8,1.5c-6,0-8.8-5.3-8.8-11.8c0-6.6,2.8-11.8,8.8-11.8c3,0,5.2,1.3,6.6,3.6c1.7,2.9,1.8,6.6,1.7,10.1H1371z
		 M1376.9,388.1c0-1.4-0.2-4.8-2.8-4.8c-1.9,0-3.1,1.6-3.1,4.8H1376.9z"/>
	<path class="st5" d="M1388.3,384.4h-2.4v-5h2.4V375h5.4v4.3h2.4v5h-2.4v17.7h-5.4V384.4z"/>
	<path class="st5" d="M1401,372.5h5.4v4.5h-5.4V372.5z M1401,379.4h5.4v22.7h-5.4V379.4z"/>
	<path class="st5" d="M1418,392.6c0,2.2,0.6,4.9,3,4.9c1.4,0,2.4-0.9,2.8-2.8h5.3c-0.4,3.2-1.7,5.2-3.3,6.4
		c-1.6,1.1-3.4,1.5-4.8,1.5c-6,0-8.8-5.3-8.8-11.8c0-6.6,2.8-11.8,8.8-11.8c3,0,5.2,1.3,6.6,3.6c1.7,2.9,1.8,6.6,1.7,10.1H1418z
		 M1423.9,388.1c0-1.4-0.2-4.8-2.8-4.8c-1.9,0-3.1,1.6-3.1,4.8H1423.9z"/>
	<path class="st5" d="M1434.7,379.4h4.6v2.2c0.9-1.6,2-2.6,4.8-2.6c3.6,0,5.9,2,5.9,6.6v16.6h-5.4v-14.8c0-1.6-0.4-3-2.2-3
		c-1.4,0-2.4,0.7-2.4,2.6v15.2h-5.4V379.4z"/>
	<path class="st5" d="M1472.9,394.1c0-3.2-0.6-5.9,1.2-8.2c1.8-2.3,4.8-3.6,4.8-5.8c0-1.6-1-2.4-2.6-2.4c-1.3,0-2.4,0.9-2.4,2.8v1
		h-6.1V380c0-5.3,3.4-8,8.8-8c4.8,0,8.6,3.3,8.6,8.2c0,3.4-1.8,5.2-3.4,6.7c-3.2,2.8-3,2.6-3,7.2H1472.9z M1478.8,402.1h-5.9V396
		h5.9V402.1z"/>
</g>
<path class="st6" d="M1501.4,354.7H414.2c-4.9,0-8.8,3.9-8.8,8.8v51.4c0,4.9,3.9,8.8,8.8,8.8h489.2l55.3,36l53.5-36h489.2
	c4.9,0,8.8-3.9,8.8-8.8v-51.4C1510.2,358.6,1506.3,354.7,1501.4,354.7z"/>
</svg>
