<svg xmlns="http://www.w3.org/2000/svg" xmlns:xlink="http://www.w3.org/1999/xlink" viewBox="0 0 1920 1080"><defs><style>.cls-1{fill:none;}.cls-2,.cls-3{isolation:isolate;}.cls-3{fill:#105768;opacity:0.2;}.cls-4{fill:#fefeff;}.cls-5{fill:#8cc63f;}.cls-6{clip-path:url(#clip-path);}.cls-7{fill:#f27162;}.cls-8{fill:#d16255;}.cls-9{clip-path:url(#clip-path-2);}.cls-10{fill:#524538;}.cls-11{fill:#d6d8db;}.cls-12{fill:#d8d8d8;mix-blend-mode:multiply;}.cls-13{fill:#f38174;}.cls-14{fill:#333;}.cls-15{fill:#fff;}.cls-16{fill:#fcc600;}.cls-17{fill:#464646;opacity:0.7;mix-blend-mode:soft-light;}.cls-18{fill:#4e96b3;}.cls-19{fill:#999;}.cls-20{fill:lime;}</style><clipPath id="clip-path"><rect class="cls-1" x="1630.59" width="289.41" height="172.41"/></clipPath><clipPath id="clip-path-2"><rect class="cls-1" x="1661.22" y="583.1" width="258.78" height="496.84"/></clipPath></defs><title>game1bbis_bg2</title><g class="cls-2"><g id="contenu"><rect class="cls-3" x="280.36" width="1300.08" height="1080"/><rect class="cls-4" x="304.87" width="1300.08" height="1080"/><path class="cls-5" d="M633.14,361.66H864.61a0,0,0,0,1,0,0V392A20.59,20.59,0,0,1,844,412.57H633.14A20.59,20.59,0,0,1,612.55,392v-9.72A20.59,20.59,0,0,1,633.14,361.66Z"/><path class="cls-5" d="M1023.74,361.66h231.48a0,0,0,0,1,0,0V392a20.59,20.59,0,0,1-20.59,20.59H1023.74A20.59,20.59,0,0,1,1003.16,392v-9.72a20.59,20.59,0,0,1,20.59-20.59Z"/><path class="cls-5" d="M518.35,597.81h142.9a0,0,0,0,1,0,0v30.31a20.59,20.59,0,0,1-20.59,20.59H518.35a20.59,20.59,0,0,1-20.59-20.59V618.4A20.59,20.59,0,0,1,518.35,597.81Z"/><path class="cls-5" d="M911.84,597.81h133.39a0,0,0,0,1,0,0v30.31a20.59,20.59,0,0,1-20.59,20.59H911.84a20.59,20.59,0,0,1-20.59-20.59V618.4A20.59,20.59,0,0,1,911.84,597.81Z"/><path class="cls-5" d="M519.67,654.18H773.74a0,0,0,0,1,0,0v30.31a20.59,20.59,0,0,1-20.59,20.59H519.67a20.59,20.59,0,0,1-20.59-20.59v-9.72A20.59,20.59,0,0,1,519.67,654.18Z"/><path class="cls-5" d="M911.32,654.18h669.11a0,0,0,0,1,0,0v30.31a20.59,20.59,0,0,1-20.59,20.59H911.32a20.59,20.59,0,0,1-20.59-20.59v-9.72a20.59,20.59,0,0,1,20.59-20.59Z"/><path class="cls-5" d="M519.67,709.27H652.25a0,0,0,0,1,0,0v30.31a20.59,20.59,0,0,1-20.59,20.59h-112a20.59,20.59,0,0,1-20.59-20.59v-9.72a20.59,20.59,0,0,1,20.59-20.59Z"/><g class="cls-6"><path class="cls-3" d="M1726.3-253.51l-1.86-2.13a16.59,16.59,0,0,0-23.41-1.59l-26,22.67h0l-26,22.67a16.52,16.52,0,0,0-5.12,8.24,16.5,16.5,0,0,0-.52,3.14,16.54,16.54,0,0,0,4.06,12h0l1.86,2.13a12.39,12.39,0,0,0-1.67,3.61,12.53,12.53,0,0,0,1.2,9.38,12.7,12.7,0,0,0,1.47,2.07l2.23,2.56c-.18.06-.38,0-.54.18l-4.34,3.79-6.22-7.12a6.24,6.24,0,0,0-8.8-.59,6.24,6.24,0,0,0-.59,8.8l69.41,79.48h0a6.24,6.24,0,0,0,6.65,1.82,6.2,6.2,0,0,0,2.15-1.23,6.22,6.22,0,0,0,1.51-2,6.25,6.25,0,0,0-.91-6.84h0l-41.64-47.68,4.34-3.79c.16-.13.16-.34.25-.51l57.23,65.54h0a9.61,9.61,0,0,0,13.19,1.2L1885.93,84.53h0l9-7.89,4.44,5.08a7.72,7.72,0,0,0,10.89.74l47.21-41.23a7.71,7.71,0,0,0,.73-10.89l-4.43-5.08,9-7.89L1821.24-144.8a9.61,9.61,0,0,0,.59-13.23l-80.74-92.45A12.48,12.48,0,0,0,1726.3-253.51Z"/><path class="cls-7" d="M1756.15-299.2h100a1.08,1.08,0,0,1,1.08,1.08v378a0,0,0,0,1,0,0H1755.07a0,0,0,0,1,0,0v-378A1.08,1.08,0,0,1,1756.15-299.2Z" transform="translate(517.88 1160.97) rotate(-41.13)"/><path class="cls-8" d="M1896.49,31.28h78.12a0,0,0,0,1,0,0v14a.5.5,0,0,1-.5.5H1897a.5.5,0,0,1-.5-.5v-14a0,0,0,0,1,0,0Z" transform="translate(452.35 1282.68) rotate(-41.13)"/></g><g class="cls-9"><path class="cls-3" d="M2704.22,542.72,2588.37,551l-.62-8.63-20.28,1.45-.83-11.59-43.45,3.11,1.45,20.21L2248,575.4l-62.28,4.46-456.19,32.68c-21.6,1.55-37.82,20.91-36.22,43.24L1747,1405.21c1.6,22.33,20.41,39.18,42,37.64l365.68-26.19,5.21,72.74,43.45-3.11-5.21-72.74,47.07-3.37,62.28-4.46L2763.7,1373c21.6-1.55,37.82-20.9,36.22-43.24l-53.68-749.44C2744.63,558,2725.82,541.17,2704.22,542.72Z"/><path class="cls-10" d="M1733,672.53,1786.72,1422c1.6,22.33,20.41,39.18,42,37.63l974.67-69.81c21.6-1.55,37.81-20.91,36.22-43.24l-53.68-749.44c-1.6-22.33-20.41-39.18-42-37.64l-974.67,69.81C1747.65,630.83,1731.44,650.19,1733,672.53Z"/><path class="cls-11" d="M1793.75,709.5l47.79,667.21c1.42,19.88,18.17,34.88,37.4,33.51l867.73-62.15c19.23-1.38,33.67-18.61,32.24-38.5l-47.79-667.21c-1.42-19.88-18.17-34.88-37.4-33.51L1826,671C1806.76,672.38,1792.32,689.62,1793.75,709.5Z"/><path class="cls-12" d="M2239.34,784.08l-406.06,29.09a5.9,5.9,0,0,1-6.31-5.46h0a5.9,5.9,0,0,1,5.46-6.3l406.06-29.09a5.9,5.9,0,0,1,6.3,5.46h0A5.9,5.9,0,0,1,2239.34,784.08Z"/><path class="cls-12" d="M2241.15,809.42l-406.06,29.09a5.9,5.9,0,0,1-6.31-5.46h0a5.9,5.9,0,0,1,5.46-6.3l406.06-29.09a5.9,5.9,0,0,1,6.3,5.46h0A5.9,5.9,0,0,1,2241.15,809.42Z"/><path class="cls-12" d="M2243,835.49,1837,864.57a5.9,5.9,0,0,1-6.31-5.46h0a5.9,5.9,0,0,1,5.46-6.31l406.06-29.09a5.9,5.9,0,0,1,6.3,5.46h0A5.9,5.9,0,0,1,2243,835.49Z"/><path class="cls-12" d="M2244.83,860.84l-406.06,29.09a5.9,5.9,0,0,1-6.31-5.46h0a5.9,5.9,0,0,1,5.46-6.3L2244,849.07a5.9,5.9,0,0,1,6.3,5.46h0A5.9,5.9,0,0,1,2244.83,860.84Z"/><path class="cls-12" d="M2246.53,884.55l-406.06,29.09a5.9,5.9,0,0,1-6.3-5.46h0a5.89,5.89,0,0,1,5.46-6.3l406.06-29.09a5.9,5.9,0,0,1,6.31,5.46h0A5.9,5.9,0,0,1,2246.53,884.55Z"/><path class="cls-12" d="M2248.35,909.89,1842.29,939a5.9,5.9,0,0,1-6.3-5.46h0a5.9,5.9,0,0,1,5.46-6.3l406.06-29.09a5.9,5.9,0,0,1,6.31,5.46h0A5.9,5.9,0,0,1,2248.35,909.89Z"/><path class="cls-12" d="M2250.22,936,1844.16,965a5.9,5.9,0,0,1-6.3-5.46h0a5.9,5.9,0,0,1,5.46-6.31l406.06-29.09a5.9,5.9,0,0,1,6.31,5.46h0A5.9,5.9,0,0,1,2250.22,936Z"/><path class="cls-12" d="M2252,961.31,1846,990.39a5.9,5.9,0,0,1-6.3-5.46h0a5.89,5.89,0,0,1,5.46-6.3l406.06-29.09a5.9,5.9,0,0,1,6.31,5.46h0A5.9,5.9,0,0,1,2252,961.31Z"/><path class="cls-12" d="M2256.42,1022.61l-406.06,29.09a5.9,5.9,0,0,1-6.3-5.46h0a5.9,5.9,0,0,1,5.46-6.31l406.06-29.09a5.9,5.9,0,0,1,6.3,5.46h0A5.9,5.9,0,0,1,2256.42,1022.61Z"/><path class="cls-12" d="M2258.24,1048,1852.18,1077a5.9,5.9,0,0,1-6.3-5.46h0a5.9,5.9,0,0,1,5.46-6.31l406.06-29.09a5.9,5.9,0,0,1,6.3,5.46h0A5.9,5.9,0,0,1,2258.24,1048Z"/><path class="cls-12" d="M2260.1,1074,1854,1103.11a5.9,5.9,0,0,1-6.3-5.46h0a5.9,5.9,0,0,1,5.46-6.3l406.06-29.09a5.9,5.9,0,0,1,6.31,5.46h0A5.9,5.9,0,0,1,2260.1,1074Z"/></g><path class="cls-13" d="M487.61,272.42c.84,1,2.29,1.16,3.68,1.38A4.81,4.81,0,0,0,487.61,272.42Z"/><path class="cls-13" d="M491.31,273.83h0Z"/><path class="cls-13" d="M757.94,230.51l-1.12.11A3.47,3.47,0,0,0,757.94,230.51Z"/><path class="cls-13" d="M558.34,278.65l.24-1.59c3.28,0,.92,1.85,4,1.51,1.23-2.24,5,.33,6.11-.85,0,.18,1.46.28,1.35,1,.48-1.22,1.53-.26,2.48-.55.35-.34-.24-.37-.49-.75l2.15-.4c.83.41,1,1.13.11,1.25,2.8.26,10.94.78,19.14,1.15s16.45.54,19.48.25c-.77-.93-2.64-.32-3.35-1.78,1.6-.81,2.35.3,3.06-.55.6,2.18,3.51.53,4.72,2.73l.46-1.23.79.75c7-1.27,1.61-.62,7.85-.33,3.61-.19,5.32-1.89,7.33-1.26-.3,0-1.09-.77-.16-1.08.16,1.08,2.49-.77,2.94.32.92-.14,3.88,0,2.87-1.49.51.73,3.15,1,1.58,1.67a5.16,5.16,0,0,0,2.4-.08l-1.15-.4c3-.23,4.66.9,6.62-.45l-1.12-.58c1.8-.1,3.31-.22,4,1.23l-1.85.46a22.68,22.68,0,0,0,7.28-1l-.89,0c3.16-1.44,19.75-2.92,22.64-4.77l-1.36-1.11,2.5-1c-.3,0-1.15,3.69-1.41,3.33l19.34-.82c4.15-.16,8.29-.3,11.7-.35a66.81,66.81,0,0,1,7.35.07c2,.56.42,1.79.4,2,2.43-.5,1-1.23,3.1-1.2.57.19-.09.89-.4,1.06.91-.16,1.76.2,1.82-.33-1.15-.37-.71-1.79-1.23-2.69l2.68,0-.09.89c.6,0,1.43-2.47,4.07-2.08,4.44.25,9.24-.22,13.7-.23,0,.53-1,.89-1.9,1.24a4.08,4.08,0,0,1,2.07.18c-1.11-.89,1.84-.71,1-1.07,3.17-2.31,7.47-.51,10.29-2.1.19-2,4.58-33.73,4.44-36a5.83,5.83,0,0,1,2,.19c-.25-.54-2-.72-2.9-.37l-.1,1.25c-2.09.53-.53-.72-2.59-.54-.16-1,1.73-1.31,3.4-1.48-1.51-.05-3-.73-3.6.41-1.43-.36.1-1.25-1.62-1.61-1.2.35-2.75,1.41-4.17.87l0-.18c-3.43-.9-5.12,1.76-8.25.86l.32-.35c-1.12-.54-3.24.34-5.24-.2.57.18,1.09.89-.09,1.07-2.29-.56-3.82.13-5.51-.61l-1.56,1c-4,0-13.73.7-23.53,1.27S684,234.41,680,234.51l.31-.16c-6.07.32-15.33.6-24.64.88s-18.69.68-25,1.33c-1.94-1-4.62-.75-6.65-1,1.13.41.74,1.1-.14,1.06-6.18-.12-.42.68-6.67,1.09-3.6.47-12.29.34-20.87,0s-17.06-.94-20.24-1.39c-3.45,1.41-7.72.22-11.1,1.07l.34-.33c-3.62.5-24-1.3-28.23-.91l.56.22c-3.68.79-3.14-.77-6-1.35.33,1.63-2.83,2.46-4,2.55l.06-.35c-1.81.23-5.94,1.51-8.92,1.62L519,238c-2.51.87-7.17.33-9,.35-4.07-.51-10.29-2.29-15.77-1.35l-3.38-2.68-.52.23a160.9,160.9,0,0,0-2.67,16c-.95,8.41-1,17.68,2.54,21.09l-.16.88,1.46,0c1.73.51,2.57-.48,2.41.4l-2.38-.21c1.74.33.5.75-.19,1.22a6.79,6.79,0,0,1,2,.55c.36-.33-.24-.38-.5-.58,1-.27,2.29-1.05,3.42-.6,1.78.16.06,1.44,2.14,1.62,10.95,1.11,21.54,2.5,32.62,2.6.24.37-.06.35-.38.51,3.35-.29,6.31-.06,9.36-.39a2.89,2.89,0,0,1,1.29,1.34c-.24-.37,4-.47,8.25-.46,2.15,0,4.32.05,6,.09A25.46,25.46,0,0,1,558.34,278.65Z"/><path class="cls-14" d="M627.06,324.52h2.09v18.68h6.57v1.92h-8.66Z"/><path class="cls-14" d="M640.3,338.1c0,3.15,1.28,5.62,3.84,5.62a3.44,3.44,0,0,0,3.4-3h1.84a6.05,6.05,0,0,1-1.89,3.56,5.06,5.06,0,0,1-3.34,1.2c-4.17,0-5.79-4-5.79-7.9,0-4.7,2.17-8,5.73-8a4.7,4.7,0,0,1,4.06,2.14c1.22,1.81,1.42,4.15,1.39,6.35Zm7.35-1.64c-.06-3.15-1.36-5.26-3.65-5.26s-3.65,2.25-3.7,5.26Z"/><path class="cls-14" d="M661.34,330h1.73c0,1.14,0,2,0,2.89.78-2.28,2.17-3.26,4-3.26,3,0,5.09,3.15,5.09,8,0,4.62-1.89,7.9-5.09,7.9a4.11,4.11,0,0,1-3.87-3.12c.06.67.06,1.45.06,2.76v5.59h-1.87Zm8.91,7.54c0-3.42-1.2-6.07-3.53-6.07a2.9,2.9,0,0,0-2.59,1.67,8,8,0,0,0-.92,4.43,8.13,8.13,0,0,0,.92,4.43,2.9,2.9,0,0,0,2.59,1.67c2.34,0,3.53-2.64,3.53-6.1Z"/><path class="cls-14" d="M677.28,338.1c0,3.15,1.28,5.62,3.84,5.62a3.44,3.44,0,0,0,3.4-3h1.84a6.06,6.06,0,0,1-1.89,3.56,5.06,5.06,0,0,1-3.34,1.2c-4.17,0-5.79-4-5.79-7.9,0-4.7,2.17-8,5.73-8a4.7,4.7,0,0,1,4.06,2.14c1.22,1.81,1.42,4.15,1.39,6.35Zm7.35-1.64c-.06-3.15-1.36-5.26-3.65-5.26s-3.65,2.25-3.7,5.26Z"/><path class="cls-14" d="M690.5,330h1.73c0,1.39,0,2.25-.06,3.17.75-3,2.7-3.48,4-3.53v2.17a1.26,1.26,0,0,0-.7-.19c-1.28,0-3.14,1.59-3.14,5.4v8.13H690.5Z"/><path class="cls-14" d="M699.37,330h1.78c0,.78,0,1.59-.06,2.48a3.74,3.74,0,0,1,3.84-2.84,3.58,3.58,0,0,1,2.64,1,3.52,3.52,0,0,1,.83,1.81,4.14,4.14,0,0,1,1.25-1.92,4.63,4.63,0,0,1,2.78-.92,3.89,3.89,0,0,1,3.53,1.95,9.11,9.11,0,0,1,.7,4.15v9.41h-1.87v-9.27a9.14,9.14,0,0,0-.31-2.81,2.32,2.32,0,0,0-2.31-1.59,2.77,2.77,0,0,0-2.45,1.22,5.93,5.93,0,0,0-.81,3.31v9.13h-1.87v-9.18a9.06,9.06,0,0,0-.31-2.89,2.29,2.29,0,0,0-2.28-1.59,2.86,2.86,0,0,0-2.45,1.17,6,6,0,0,0-.81,3.42v9.07h-1.86Z"/><path class="cls-14" d="M721.66,324.52h1.86v2.73h-1.86Zm0,5.46h1.86v15.14h-1.86Z"/><path class="cls-14" d="M734.63,333.9c0-1.92-1-2.62-2.45-2.62a2.13,2.13,0,0,0-2.2,2.25c0,1.7,1.42,2.31,3.26,2.87,1.67.5,3.62,1.53,3.62,4.56a4.34,4.34,0,0,1-4.51,4.51c-2.76,0-4.59-1.64-4.73-4.81h1.84c0,2.06,1.22,3.09,2.89,3.09a2.43,2.43,0,0,0,2.56-2.64c0-1.84-1.28-2.56-3.31-3.2s-3.56-1.61-3.56-4.31a3.9,3.9,0,0,1,4.23-4c2.59,0,4.12,1.48,4.2,4.29Z"/><path class="cls-14" d="M748.71,324.52H753c2,0,3.06.36,3.84,1a4.89,4.89,0,0,1,1.78,4.15,4.2,4.2,0,0,1-2.87,4.4,5.26,5.26,0,0,1,3.84,5.34,5.17,5.17,0,0,1-2.28,4.68,6,6,0,0,1-3.59,1h-5Zm2.09,8.91h2.28a3.61,3.61,0,0,0,2.12-.53,3.43,3.43,0,0,0,1.28-3,3.53,3.53,0,0,0-1.25-2.92,4,4,0,0,0-2.59-.56h-1.84Zm0,9.82h2.56a4.49,4.49,0,0,0,2.48-.53c1.06-.56,1.61-1.64,1.64-3.37a4.09,4.09,0,0,0-1.64-3.48,4.67,4.67,0,0,0-2.73-.58h-2.31Z"/><path class="cls-15" d="M627.06,379.52h2.09v18.68h6.57v1.92h-8.66Z"/><path class="cls-15" d="M640.3,393.1c0,3.15,1.28,5.62,3.84,5.62a3.44,3.44,0,0,0,3.4-3h1.84a6.05,6.05,0,0,1-1.89,3.56,5.06,5.06,0,0,1-3.34,1.2c-4.17,0-5.79-4-5.79-7.9,0-4.7,2.17-8,5.73-8a4.7,4.7,0,0,1,4.06,2.14c1.22,1.81,1.42,4.15,1.39,6.35Zm7.35-1.64c-.06-3.15-1.36-5.26-3.65-5.26s-3.65,2.25-3.7,5.26Z"/><path class="cls-15" d="M661.34,385h1.73c0,1.14,0,2,0,2.89.78-2.28,2.17-3.26,4-3.26,3,0,5.09,3.15,5.09,8,0,4.62-1.89,7.9-5.09,7.9a4.11,4.11,0,0,1-3.87-3.12c.06.67.06,1.45.06,2.76v5.59h-1.87Zm8.91,7.54c0-3.42-1.2-6.07-3.53-6.07a2.9,2.9,0,0,0-2.59,1.67,8,8,0,0,0-.92,4.43,8.13,8.13,0,0,0,.92,4.43,2.9,2.9,0,0,0,2.59,1.67c2.34,0,3.53-2.64,3.53-6.1Z"/><path class="cls-15" d="M677.28,393.1c0,3.15,1.28,5.62,3.84,5.62a3.44,3.44,0,0,0,3.4-3h1.84a6.06,6.06,0,0,1-1.89,3.56,5.06,5.06,0,0,1-3.34,1.2c-4.17,0-5.79-4-5.79-7.9,0-4.7,2.17-8,5.73-8a4.7,4.7,0,0,1,4.06,2.14c1.22,1.81,1.42,4.15,1.39,6.35Zm7.35-1.64c-.06-3.15-1.36-5.26-3.65-5.26s-3.65,2.25-3.7,5.26Z"/><path class="cls-15" d="M690.5,385h1.73c0,1.39,0,2.25-.06,3.17.75-3,2.7-3.48,4-3.53v2.17a1.26,1.26,0,0,0-.7-.19c-1.28,0-3.14,1.59-3.14,5.4v8.13H690.5Z"/><path class="cls-15" d="M699.37,385h1.78c0,.78,0,1.59-.06,2.48a3.74,3.74,0,0,1,3.84-2.84,3.58,3.58,0,0,1,2.64,1,3.52,3.52,0,0,1,.83,1.81,4.14,4.14,0,0,1,1.25-1.92,4.63,4.63,0,0,1,2.78-.92,3.89,3.89,0,0,1,3.53,1.95,9.11,9.11,0,0,1,.7,4.15v9.41h-1.87v-9.27a9.14,9.14,0,0,0-.31-2.81,2.32,2.32,0,0,0-2.31-1.59,2.77,2.77,0,0,0-2.45,1.22,5.93,5.93,0,0,0-.81,3.31v9.13h-1.87v-9.18a9.06,9.06,0,0,0-.31-2.89,2.29,2.29,0,0,0-2.28-1.59,2.86,2.86,0,0,0-2.45,1.17,6,6,0,0,0-.81,3.42v9.07h-1.86Z"/><path class="cls-15" d="M721.66,379.52h1.86v2.73h-1.86Zm0,5.46h1.86v15.14h-1.86Z"/><path class="cls-15" d="M734.63,388.9c0-1.92-1-2.62-2.45-2.62a2.13,2.13,0,0,0-2.2,2.25c0,1.7,1.42,2.31,3.26,2.87,1.67.5,3.62,1.53,3.62,4.56a4.34,4.34,0,0,1-4.51,4.51c-2.76,0-4.59-1.64-4.73-4.81h1.84c0,2.06,1.22,3.09,2.89,3.09a2.43,2.43,0,0,0,2.56-2.64c0-1.84-1.28-2.56-3.31-3.2s-3.56-1.61-3.56-4.31a3.9,3.9,0,0,1,4.23-4c2.59,0,4.12,1.48,4.2,4.29Z"/><path class="cls-15" d="M761.45,393.41c0,3.56-2.09,7.07-6.43,7.07s-7.15-3.7-7.15-10.66c0-6.51,2.42-10.66,7.15-10.66,4.34,0,6.46,3.62,6.43,7.51h-2.06c-.06-2.7-1.11-5.57-4.26-5.57-3.59,0-5.12,3.48-5.12,8.91,0,5.84,2.17,8.52,5.12,8.52,3.17,0,4.15-2.64,4.26-5.12Z"/><path class="cls-15" d="M771.72,392.27h5.68V394h-5.68v6.12H770V394h-5.68v-1.73H770v-6.15h1.75Z"/><path class="cls-15" d="M789.08,379.52H798v1.92h-6.79v7.18H798v1.89h-6.79v9.6h-2.09Z"/><path class="cls-15" d="M802,379.52h2.09v20.6H802Z"/><path class="cls-15" d="M809,400.11v-20.6h3.23l4.84,17.56,4.51-17.56h3.26v20.6h-1.89V381.44l-4.87,18.68h-1.95l-5.23-18.68v18.68Z"/><path class="cls-15" d="M828.89,389.79c0-6,2.56-10.63,7.49-10.63s7.49,4.59,7.49,10.66c0,5.29-2.09,10.66-7.49,10.66-4.93,0-7.49-4.59-7.49-10.66Zm2.14.06c0,5.62,2,8.74,5.34,8.74s5.37-3.12,5.37-8.77-2.06-8.77-5.37-8.77-5.34,3.12-5.34,8.77Z"/><path class="cls-15" d="M516.7,260.25c.15,2.83,1.45,3.94,3.36,3.94a3.11,3.11,0,0,0,3.3-3.39c0-2.56-2.62-3.14-5-4s-5-2.19-5-6.13c0-4.19,2.56-6.84,6.59-6.84s6.19,1.94,6.81,6.25h-3.64c-.12-1.66-1-3.11-3-3.11a2.86,2.86,0,0,0-2.9,3.11c0,2.46,2.4,3,5,3.94,2.19.86,5,2.28,5,6.69,0,4.19-3.08,6.81-7.18,6.81-4.56,0-7-2.56-7.06-7.27Z"/><path class="cls-15" d="M531.52,244.29h3.76v22.8h-3.76Z"/><path class="cls-15" d="M545.66,244.29h3.7l4.44,17.19,4.44-17.19h3.57l-6.38,22.8H552Z"/><path class="cls-15" d="M563.71,255.66c0-7,2.77-11.8,8.32-11.8s8.35,4.84,8.35,11.83c0,6.65-2.59,11.83-8.35,11.83-5.54,0-8.32-4.84-8.32-11.83Zm3.85.06c0,5.76,1.6,8.32,4.47,8.32s4.5-2.56,4.5-8.35-1.6-8.35-4.5-8.35-4.47,2.56-4.47,8.35Z"/><path class="cls-15" d="M588.39,244.29v16a3.78,3.78,0,0,0,.86,2.83,3.18,3.18,0,0,0,2.53.89,3.29,3.29,0,0,0,2.56-.89,3.9,3.9,0,0,0,.83-2.83v-16h3.76v16.48a6.55,6.55,0,0,1-1.66,4.87,8.94,8.94,0,0,1-11,0,6.67,6.67,0,0,1-1.66-4.87V244.29Z"/><path class="cls-15" d="M606.91,260.25c.15,2.83,1.45,3.94,3.36,3.94a3.11,3.11,0,0,0,3.3-3.39c0-2.56-2.62-3.14-5-4s-5-2.19-5-6.13c0-4.19,2.56-6.84,6.59-6.84s6.19,1.94,6.81,6.25h-3.63c-.12-1.66-1-3.11-3-3.11a2.86,2.86,0,0,0-2.9,3.11c0,2.46,2.4,3,5,3.94,2.19.86,5,2.28,5,6.69,0,4.19-3.08,6.81-7.18,6.81-4.56,0-7-2.56-7.05-7.27Z"/><path class="cls-15" d="M631.15,267.09h-3.82l6.32-22.8h3.54l6.5,22.8h-3.82l-1.45-5.27h-5.85Zm4.31-17.53-2,8.81h3.94Z"/><path class="cls-15" d="M643.76,244.29h3.7l4.44,17.19,4.44-17.19h3.57l-6.38,22.8h-3.39Z"/><path class="cls-15" d="M663.47,244.29h10.94v3.48h-7.18v5.76h7.18V257h-7.18v6.62h7.18v3.48H663.47Z"/><path class="cls-15" d="M683.1,263.61h8.6v3.48h-13v-3.27l8.44-16.05h-8v-3.48h12.42v3.39Z"/><path class="cls-15" d="M709.32,255.75H706v-4.07h3.33Zm0,11.34H706V263h3.33Z"/><circle class="cls-16" cx="468.82" cy="253.09" r="26.98"/><path class="cls-15" d="M461.74,261.77q0-4.48,4.46-7.67t4.5-5.42v-6.51q0-2.25-2.06-2.25h0q-2.08,0-2.08,2.25v4.44h-4.78v-4.44q0-7,6.86-7t6.88,7v6.62q0,4.56-4.48,7.77t-4.48,5.61v2h9v4.71H461.74Z"/><path class="cls-17" d="M468.82,226.12h-.21v53.94h.21a27,27,0,1,0,0-54Z"/><path class="cls-14" d="M1016,343h-2.14l5.87-20.6h2.06l6,20.6h-2.12l-1.75-6.1h-6.18Zm4.79-17.9-2.53,9.91h5.07Z"/><path class="cls-14" d="M1040.62,342.68a6.64,6.64,0,0,1-1.28,4.54,5.05,5.05,0,0,1-4.06,1.67,4.94,4.94,0,0,1-5.09-4.76h1.89a3.28,3.28,0,0,0,.86,2.12,3.35,3.35,0,0,0,2.42.92c1.59,0,3.42-.72,3.42-4.34,0-.72,0-1.7,0-2.7a3.94,3.94,0,0,1-3.9,3.2c-3.26,0-5.07-3.28-5.07-7.9s1.81-8,5.07-8c1.78,0,3.17.83,4.09,3.28,0-.92,0-1.78,0-2.92h1.64Zm-8.91-7.26c0,3.42,1.22,6.07,3.54,6.07a3,3,0,0,0,2.64-1.67,8.45,8.45,0,0,0,.86-4.43,8.32,8.32,0,0,0-.86-4.43,3,3,0,0,0-2.64-1.67c-2.31,0-3.54,2.64-3.54,6.1Z"/><path class="cls-14" d="M1046.6,335.94c0,3.15,1.28,5.62,3.84,5.62a3.44,3.44,0,0,0,3.4-3h1.84a6,6,0,0,1-1.89,3.56,5.06,5.06,0,0,1-3.34,1.2c-4.17,0-5.79-4-5.79-7.9,0-4.7,2.17-8,5.73-8a4.7,4.7,0,0,1,4.06,2.14c1.22,1.81,1.42,4.15,1.39,6.35Zm7.35-1.64c-.06-3.15-1.36-5.26-3.65-5.26s-3.65,2.25-3.7,5.26Zm-.58-12.75.78,1.5-6.23,3.31-.7-1.31Z"/><path class="cls-14" d="M1066.44,324.14c-2.73,2.25-4.79,6.46-4.79,11.86s2,9.35,4.79,11.88v2c-3.73-2.64-6.6-7.68-6.6-13.92s2.95-11.52,6.6-13.89Z"/><path class="cls-14" d="M1071.36,335.94c0,3.15,1.28,5.62,3.84,5.62a3.44,3.44,0,0,0,3.4-3h1.84a6,6,0,0,1-1.89,3.56,5.06,5.06,0,0,1-3.34,1.2c-4.17,0-5.79-4-5.79-7.9,0-4.7,2.17-8,5.73-8a4.7,4.7,0,0,1,4.06,2.14c1.22,1.81,1.42,4.15,1.39,6.35Zm7.35-1.64c-.06-3.15-1.36-5.26-3.65-5.26s-3.65,2.25-3.7,5.26Z"/><path class="cls-14" d="M1083.52,347.88c2.73-2.23,4.79-6.46,4.79-11.83s-2-9.38-4.79-11.91v-2a17,17,0,0,1,6.62,13.94c0,6.15-3,11.49-6.62,13.86Z"/><path class="cls-14" d="M1112.71,343H1111c0-1.39,0-2.23,0-3a4.13,4.13,0,0,1-4,3.37c-3,0-5.06-3.17-5.06-7.9s1.89-8,5.06-8c1.7,0,3.09.86,3.9,3.2-.05-.89-.05-1.73-.05-2.84v-5.46h1.86Zm-8.91-7.57c0,3.42,1.22,6.07,3.53,6.07a3,3,0,0,0,2.64-1.67,11.77,11.77,0,0,0,0-8.85,3,3,0,0,0-2.64-1.64c-2.31,0-3.53,2.62-3.53,6.07Z"/><path class="cls-14" d="M1118.69,335.94c0,3.15,1.28,5.62,3.84,5.62a3.44,3.44,0,0,0,3.4-3h1.84a6.05,6.05,0,0,1-1.89,3.56,5.06,5.06,0,0,1-3.34,1.2c-4.17,0-5.79-4-5.79-7.9,0-4.7,2.17-8,5.73-8a4.7,4.7,0,0,1,4.06,2.14c1.22,1.81,1.42,4.15,1.39,6.35Zm7.35-1.64c-.06-3.15-1.36-5.26-3.65-5.26s-3.65,2.25-3.7,5.26Z"/><path class="cls-14" d="M1139.73,327.81h1.73c0,1.14,0,2,0,2.89.78-2.28,2.17-3.26,4-3.26,3,0,5.09,3.15,5.09,8,0,4.62-1.89,7.9-5.09,7.9a4.11,4.11,0,0,1-3.87-3.12c.06.67.06,1.45.06,2.76v5.59h-1.87Zm8.91,7.54c0-3.42-1.2-6.07-3.54-6.07a2.9,2.9,0,0,0-2.59,1.67,8,8,0,0,0-.92,4.43,8.13,8.13,0,0,0,.92,4.43,2.9,2.9,0,0,0,2.59,1.67c2.34,0,3.54-2.64,3.54-6.1Z"/><path class="cls-14" d="M1154.7,322.36h1.86V343h-1.86Z"/><path class="cls-14" d="M1171.73,343H1170c0-.86,0-1.7.06-2.64a4.25,4.25,0,0,1-4.23,3c-2.59,0-4.34-1.5-4.34-5.18V327.81h1.86v9.74c0,1.53.22,3.92,2.89,3.92,2.2,0,3.62-1.53,3.62-4.7v-9h1.86Z"/><path class="cls-14" d="M1182.61,331.74c0-1.92-1-2.62-2.45-2.62a2.13,2.13,0,0,0-2.2,2.25c0,1.7,1.42,2.31,3.26,2.87,1.67.5,3.62,1.53,3.62,4.56a4.34,4.34,0,0,1-4.51,4.51c-2.76,0-4.59-1.64-4.73-4.81h1.84c0,2.06,1.22,3.09,2.89,3.09a2.43,2.43,0,0,0,2.56-2.64c0-1.84-1.28-2.56-3.31-3.2s-3.56-1.61-3.56-4.31a3.9,3.9,0,0,1,4.23-4c2.59,0,4.12,1.48,4.2,4.29Z"/><path class="cls-14" d="M1206.62,343h-1.73c0-1.39,0-2.23,0-3a4.13,4.13,0,0,1-4,3.37c-3,0-5.07-3.17-5.07-7.9s1.89-8,5.07-8c1.7,0,3.09.86,3.9,3.2-.06-.89-.06-1.73-.06-2.84v-5.46h1.87Zm-8.91-7.57c0,3.42,1.22,6.07,3.54,6.07a3,3,0,0,0,2.64-1.67,11.79,11.79,0,0,0,0-8.85,3,3,0,0,0-2.64-1.64c-2.31,0-3.54,2.62-3.54,6.07Z"/><path class="cls-14" d="M1212.6,335.94c0,3.15,1.28,5.62,3.84,5.62a3.44,3.44,0,0,0,3.4-3h1.84a6,6,0,0,1-1.89,3.56,5.06,5.06,0,0,1-3.34,1.2c-4.17,0-5.79-4-5.79-7.9,0-4.7,2.17-8,5.73-8a4.7,4.7,0,0,1,4.06,2.14c1.22,1.81,1.42,4.15,1.39,6.35Zm7.35-1.64c-.06-3.15-1.36-5.26-3.65-5.26s-3.65,2.25-3.7,5.26Z"/><path class="cls-14" d="M1234,327.26c.11-3.51,2.34-5.26,5.26-5.26a4.73,4.73,0,0,1,5,5.07,4.15,4.15,0,0,1-3.12,4.26c3.09.95,4,3.48,4,5.73,0,3.65-2.2,6.26-6,6.26a5.87,5.87,0,0,1-5.21-3,7.7,7.7,0,0,1-.92-3.53h2.09c.06,3.12,1.95,4.56,4.06,4.56,2.42,0,3.84-1.7,3.84-4.51a4.34,4.34,0,0,0-4.68-4.51h-.83v-1.84h.78c2.62,0,3.92-1.31,3.92-3.34s-1-3.28-3-3.28-3,1.42-3.06,3.34Z"/><path class="cls-14" d="M1248.6,328.73c0-4.15,2.64-6.74,6-6.74s6.07,2.59,6.07,6.74v7.85c0,4.15-2.64,6.74-6.07,6.74s-6-2.59-6-6.74Zm2,7.77c0,3.7,2.37,4.93,4.06,4.93s4.06-1.22,4.06-4.93v-7.68c0-3.7-2.34-4.93-4.06-4.93s-4.06,1.22-4.06,4.93Z"/><path class="cls-14" d="M1282.64,343h-1.73c0-1.34,0-2.17,0-2.89a4.16,4.16,0,0,1-4,3.26c-3,0-5.06-3.17-5.06-7.9s1.89-8,5.06-8c1.7,0,3.2.86,4,3.28,0-.92,0-1.78,0-2.92h1.73Zm-8.91-7.54c0,3.42,1.22,6.07,3.53,6.07a3,3,0,0,0,2.64-1.67,8.44,8.44,0,0,0,.86-4.43,8.31,8.31,0,0,0-.86-4.43,3,3,0,0,0-2.64-1.67c-2.31,0-3.53,2.64-3.53,6.1Z"/><path class="cls-14" d="M1287.42,327.81h1.67c0,.86,0,1.64-.05,2.59a4.32,4.32,0,0,1,4.29-3c2.59,0,4.34,1.5,4.34,5.18V343h-1.86v-9.74c0-1.53-.22-3.92-2.89-3.92-2.2,0-3.62,1.53-3.62,4.7v9h-1.87Z"/><path class="cls-14" d="M1308.46,331.74c0-1.92-1-2.62-2.45-2.62a2.13,2.13,0,0,0-2.2,2.25c0,1.7,1.42,2.31,3.26,2.87,1.67.5,3.62,1.53,3.62,4.56a4.34,4.34,0,0,1-4.51,4.51c-2.76,0-4.59-1.64-4.73-4.81h1.84c0,2.06,1.22,3.09,2.89,3.09a2.43,2.43,0,0,0,2.56-2.64c0-1.84-1.28-2.56-3.31-3.2s-3.56-1.61-3.56-4.31a3.9,3.9,0,0,1,4.23-4c2.59,0,4.12,1.48,4.2,4.29Z"/><path class="cls-15" d="M1015.88,377.36h9.66v1.92H1018v7.18h7.57v1.92H1018V396h7.57V398h-9.66Z"/><path class="cls-15" d="M1032.47,390.24l-3.9-7.43h2.12l2.89,6,2.92-6h2.09l-3.92,7.43,4.12,7.71h-2.14l-3.06-6.21-3.06,6.21h-2.12Z"/><path class="cls-15" d="M1041.87,382.81h1.72c0,1.14,0,2,0,2.89.78-2.28,2.17-3.26,4-3.26,3,0,5.09,3.15,5.09,8,0,4.62-1.89,7.9-5.09,7.9a4.11,4.11,0,0,1-3.87-3.12c.06.67.06,1.45.06,2.76v5.59h-1.86Zm8.91,7.54c0-3.42-1.2-6.07-3.54-6.07a2.9,2.9,0,0,0-2.59,1.67,8,8,0,0,0-.92,4.43,8.13,8.13,0,0,0,.92,4.43,2.9,2.9,0,0,0,2.59,1.67c2.34,0,3.54-2.64,3.54-6.1Z"/><path class="cls-15" d="M1057.81,390.94c0,3.15,1.28,5.62,3.84,5.62a3.44,3.44,0,0,0,3.4-3h1.84a6,6,0,0,1-1.89,3.56,5.06,5.06,0,0,1-3.34,1.2c-4.17,0-5.79-4-5.79-7.9,0-4.7,2.17-8,5.73-8a4.7,4.7,0,0,1,4.06,2.14c1.22,1.81,1.42,4.15,1.39,6.35Zm7.35-1.64c-.06-3.15-1.36-5.26-3.65-5.26s-3.65,2.25-3.7,5.26Zm-.58-12.75.78,1.5-6.23,3.31-.7-1.31Z"/><path class="cls-15" d="M1071,382.81h1.72c0,1.39,0,2.25-.05,3.17.75-3,2.7-3.48,4-3.53v2.17a1.26,1.26,0,0,0-.7-.19c-1.28,0-3.15,1.59-3.15,5.4V398H1071Z"/><path class="cls-15" d="M1080.07,377.36h1.86v2.73h-1.86Zm0,5.46h1.86V398h-1.86Z"/><path class="cls-15" d="M1088.14,390.94c0,3.15,1.28,5.62,3.84,5.62a3.44,3.44,0,0,0,3.4-3h1.84a6.06,6.06,0,0,1-1.89,3.56,5.06,5.06,0,0,1-3.34,1.2c-4.17,0-5.79-4-5.79-7.9,0-4.7,2.17-8,5.73-8a4.7,4.7,0,0,1,4.06,2.14c1.22,1.81,1.42,4.15,1.39,6.35Zm7.35-1.64c-.06-3.15-1.36-5.26-3.65-5.26s-3.65,2.25-3.7,5.26Z"/><path class="cls-15" d="M1101.36,382.81H1103c0,.86,0,1.64-.05,2.59a4.32,4.32,0,0,1,4.29-3c2.59,0,4.34,1.5,4.34,5.18V398h-1.86v-9.74c0-1.53-.22-3.92-2.89-3.92-2.2,0-3.62,1.53-3.62,4.7v9h-1.87Z"/><path class="cls-15" d="M1126.26,392.81c-.33,3.09-2,5.51-5,5.51-4,0-5.85-3.79-5.85-7.9,0-5,2.34-8,5.76-8,3.12,0,4.87,2.39,5,5.59h-1.89c-.31-3-1.75-3.84-3.17-3.84a2.94,2.94,0,0,0-2.75,1.61,9,9,0,0,0-1,4.56c0,4,1.36,6.18,3.76,6.18,1.86,0,2.92-1.5,3.2-3.76Z"/><path class="cls-15" d="M1131,390.94c0,3.15,1.28,5.62,3.84,5.62a3.44,3.44,0,0,0,3.4-3h1.84a6.06,6.06,0,0,1-1.89,3.56,5.06,5.06,0,0,1-3.34,1.2c-4.17,0-5.79-4-5.79-7.9,0-4.7,2.17-8,5.73-8a4.7,4.7,0,0,1,4.06,2.14c1.22,1.81,1.42,4.15,1.39,6.35Zm7.35-1.64c-.06-3.15-1.36-5.26-3.65-5.26s-3.65,2.25-3.7,5.26Z"/><path class="cls-15" d="M1153.22,390.94c0,3.15,1.28,5.62,3.84,5.62a3.44,3.44,0,0,0,3.39-3h1.84a6.06,6.06,0,0,1-1.89,3.56,5.07,5.07,0,0,1-3.34,1.2c-4.18,0-5.79-4-5.79-7.9,0-4.7,2.17-8,5.73-8a4.7,4.7,0,0,1,4.06,2.14c1.22,1.81,1.42,4.15,1.39,6.35Zm7.35-1.64c-.05-3.15-1.36-5.26-3.65-5.26s-3.65,2.25-3.7,5.26Z"/><path class="cls-15" d="M1168.5,390.24l-3.9-7.43h2.12l2.89,6,2.92-6h2.09l-3.92,7.43,4.12,7.71h-2.14l-3.06-6.21-3.06,6.21h-2.12Z"/><path class="cls-15" d="M1178.13,377.36H1180v2.73h-1.86Zm0,5.46H1180V398h-1.86Z"/><path class="cls-15" d="M1195,397.68a6.64,6.64,0,0,1-1.28,4.54,5.05,5.05,0,0,1-4.06,1.67,4.94,4.94,0,0,1-5.09-4.76h1.89a3.28,3.28,0,0,0,.86,2.12,3.35,3.35,0,0,0,2.42.92c1.59,0,3.42-.72,3.42-4.34,0-.72,0-1.7,0-2.7a3.94,3.94,0,0,1-3.9,3.2c-3.26,0-5.07-3.28-5.07-7.9s1.81-8,5.07-8c1.78,0,3.17.83,4.09,3.28,0-.92,0-1.78,0-2.92H1195Zm-8.91-7.26c0,3.42,1.22,6.07,3.54,6.07a3,3,0,0,0,2.64-1.67,8.45,8.45,0,0,0,.86-4.43,8.32,8.32,0,0,0-.86-4.43,3,3,0,0,0-2.64-1.67c-2.31,0-3.54,2.64-3.54,6.1Z"/><path class="cls-15" d="M1200.94,390.94c0,3.15,1.28,5.62,3.84,5.62a3.44,3.44,0,0,0,3.4-3H1210a6.06,6.06,0,0,1-1.89,3.56,5.06,5.06,0,0,1-3.34,1.2c-4.17,0-5.79-4-5.79-7.9,0-4.7,2.17-8,5.73-8a4.7,4.7,0,0,1,4.06,2.14c1.22,1.81,1.42,4.15,1.39,6.35Zm7.35-1.64c-.06-3.15-1.36-5.26-3.65-5.26s-3.65,2.25-3.7,5.26Zm-.58-12.75.78,1.5-6.23,3.31-.7-1.31Z"/><path class="cls-15" d="M1215.36,390.94c0,3.15,1.28,5.62,3.84,5.62a3.44,3.44,0,0,0,3.39-3h1.84a6.06,6.06,0,0,1-1.89,3.56,5.07,5.07,0,0,1-3.34,1.2c-4.18,0-5.79-4-5.79-7.9,0-4.7,2.17-8,5.73-8a4.7,4.7,0,0,1,4.06,2.14c1.22,1.81,1.42,4.15,1.39,6.35Zm7.35-1.64c-.05-3.15-1.36-5.26-3.65-5.26s-3.65,2.25-3.7,5.26Z"/><path class="cls-13" d="M472.62,555c1.61,1,4.4,1.16,7,1.38A15,15,0,0,0,472.62,555Z"/><path class="cls-13" d="M479.72,556.44h-.05Z"/><path class="cls-13" d="M991.34,513.08l-2.16.11A12.92,12.92,0,0,0,991.34,513.08Z"/><path class="cls-13" d="M607.68,561.25l.42-1.59c6.27,0,1.81,1.85,7.61,1.51,2.29-2.24,9.62.33,11.64-.85,0,.18,2.79.28,2.6,1,.88-1.22,2.92-.26,4.71-.55.65-.34-.47-.37-1-.75l4.1-.4c1.6.41,2,1.13.25,1.25,5.36.26,20.89.78,36.54,1.15s31.39.54,37.17.25c-1.48-.93-5-.32-6.4-1.78,3.05-.81,4.49.3,5.84-.55,1.17,2.18,6.71.53,9,2.73l.88-1.23,1.52.75c13.42-1.27,3.07-.62,15-.33,6.89-.19,10.16-1.89,14-1.26-.57,0-2.09-.77-.31-1.08.31,1.08,4.75-.77,5.62.32,1.75-.14,7.41,0,5.49-1.49,1,.73,6,1,3,1.67a18.57,18.57,0,0,0,4.58-.08l-2.19-.4c5.75-.23,8.89.9,12.64-.45l-2.13-.58c3.44-.1,6.32-.22,7.67,1.23l-3.53.46a80.82,80.82,0,0,0,13.9-1l-1.7,0c6.05-1.44,37.73-2.92,43.3-4.77l-2.58-1.11,4.79-1c-.57,0-2.28,3.69-2.76,3.33l36.93-.82c7.92-.16,15.82-.3,22.33-.35s11.64-.08,14,.07c3.84.56.72,1.79.68,2,4.66-.5,2-1.23,6-1.2,1.09.19-.21.89-.82,1.06,1.74-.16,3.35.2,3.48-.33-2.18-.37-1.28-1.79-2.22-2.69l5.1,0-.21.89c1.14,0,2.84-2.47,7.86-2.08,8.46.25,17.63-.22,26.14-.23-.12.53-1.9.89-3.68,1.24a14.4,14.4,0,0,1,3.93.19c-2.07-.89,3.55-.71,1.94-1.07,6.18-2.31,14.28-.51,19.74-2.1.45-2,10.94-33.76,10.87-36.07a21.08,21.08,0,0,1,3.91.19c-.45-.54-3.8-.72-5.56-.37l-.28,1.25c-4.07.53-1-.72-5-.54-.24-1,3.42-1.31,6.65-1.48-2.91-.05-5.82-.73-7,.41-2.74-.36.27-1.25-3-1.61-2.34.35-5.39,1.42-8.1.87l0-.18c-6.57-.9-10,1.77-16,.86l.64-.35c-2.13-.54-6.27.34-10.1-.2,1.09.18,2.05.9-.24,1.07-4.4-.56-7.38.13-10.6-.61l-3.06,1c-7.64,0-26.54.7-45.45,1.27s-37.84,1.22-45.52,1.32l.6-.16c-11.7.32-29.55.6-47.51.88s-36,.68-48.11,1.33c-3.74-1-8.9-.75-12.8-1,2.17.41,1.43,1.1-.27,1.06-11.89-.12-.8.68-12.83,1.09-6.93.47-23.64.34-40.16,0s-32.84-.94-39-1.39c-6.62,1.41-14.85.22-21.33,1.07l.65-.33c-7,.5-46.28-1.3-54.36-.91l1.08.22c-7.05.79-6.07-.77-11.61-1.35.71,1.63-5.34,2.46-7.65,2.55l.09-.35c-3.47.23-11.36,1.51-17.09,1.62l.24-.88c-4.8.87-13.78.33-17.21.35-7.85-.51-19.93-2.29-30.45-1.35l-6.71-2.68-1,.23a84.48,84.48,0,0,0-4.11,16c-1.22,8.41-.71,17.7,6.19,21.1l-.24.88L480,555c3.3.51,4.85-.48,4.6.4l-4.53-.21c3.32.33,1,.75-.29,1.22a23,23,0,0,1,3.83.55c.66-.33-.47-.38-1-.58,1.79-.27,4.3-1.05,6.46-.6,3.4.16.19,1.44,4.15,1.62,20.91,1.1,41.15,2.5,62.29,2.6.48.37-.1.35-.71.51,6.37-.29,12-.06,17.83-.39a5.14,5.14,0,0,1,2.51,1.34c-.47-.37,7.53-.47,15.72-.46l11.39.09C605.39,561.14,607.55,561.2,607.68,561.25Z"/><path class="cls-15" d="M512.91,636.61h-2.14l5.87-20.6h2.06l6,20.6h-2.12l-1.75-6.1H514.6Zm4.79-17.9-2.53,9.91h5.07Z"/><path class="cls-15" d="M537.23,636.61H535.5c0-.86,0-1.7.06-2.64a4.25,4.25,0,0,1-4.23,3c-2.59,0-4.34-1.5-4.34-5.18V621.47h1.87v9.74c0,1.53.22,3.92,2.89,3.92,2.2,0,3.62-1.53,3.62-4.7v-9h1.86Z"/><path class="cls-15" d="M542.73,623.22h-2.12v-1.75h2.12v-4.79h1.87v4.79h2.09v1.75H544.6v13.39h-1.87Z"/><path class="cls-15" d="M548.91,629c0-4.31,1.78-7.9,5.84-7.9s5.82,3.59,5.82,7.93-1.78,7.93-5.82,7.93-5.84-3.59-5.84-7.93Zm1.95.06c0,4,1.31,6.15,3.92,6.15s3.84-2.14,3.84-6.18-1.31-6.18-3.9-6.18-3.87,2.14-3.87,6.18Z"/><path class="cls-15" d="M564.55,621.47h1.67c0,.86,0,1.64-.06,2.59a4.32,4.32,0,0,1,4.29-3c2.59,0,4.34,1.5,4.34,5.18v10.33h-1.87v-9.74c0-1.53-.22-3.92-2.89-3.92-2.2,0-3.62,1.53-3.62,4.7v9h-1.86Z"/><path class="cls-15" d="M578.68,629c0-4.31,1.78-7.9,5.84-7.9s5.82,3.59,5.82,7.93-1.78,7.93-5.82,7.93-5.84-3.59-5.84-7.93Zm1.95.06c0,4,1.31,6.15,3.92,6.15s3.84-2.14,3.84-6.18-1.31-6.18-3.9-6.18-3.87,2.14-3.87,6.18Z"/><path class="cls-15" d="M594.38,621.47h1.78c0,.78,0,1.59-.06,2.48a3.74,3.74,0,0,1,3.84-2.84,3.58,3.58,0,0,1,2.64,1,3.52,3.52,0,0,1,.83,1.81,4.14,4.14,0,0,1,1.25-1.92,4.63,4.63,0,0,1,2.78-.92,3.89,3.89,0,0,1,3.53,1.95,9.11,9.11,0,0,1,.7,4.15v9.41h-1.87v-9.27a9.14,9.14,0,0,0-.31-2.81,2.32,2.32,0,0,0-2.31-1.59,2.77,2.77,0,0,0-2.45,1.22,5.93,5.93,0,0,0-.81,3.31v9.13h-1.87v-9.18a9.06,9.06,0,0,0-.31-2.89,2.29,2.29,0,0,0-2.28-1.59,2.86,2.86,0,0,0-2.45,1.17,6,6,0,0,0-.81,3.42v9.07h-1.86Z"/><path class="cls-15" d="M616.67,616h1.86v2.73h-1.86Zm0,5.46h1.86v15.14h-1.86Z"/><path class="cls-15" d="M624.73,629.6c0,3.15,1.28,5.62,3.84,5.62a3.44,3.44,0,0,0,3.4-3h1.84a6.06,6.06,0,0,1-1.89,3.56,5.06,5.06,0,0,1-3.34,1.2c-4.17,0-5.79-4-5.79-7.9,0-4.7,2.17-8,5.73-8a4.7,4.7,0,0,1,4.06,2.14c1.22,1.81,1.42,4.15,1.39,6.35Zm7.35-1.64c-.06-3.15-1.36-5.26-3.65-5.26s-3.65,2.25-3.7,5.26Z"/><path class="cls-15" d="M511.85,681.29c0-6,2.56-10.63,7.49-10.63s7.49,4.59,7.49,10.66c0,5.29-2.09,10.66-7.49,10.66-4.93,0-7.49-4.59-7.49-10.66Zm2.14.06c0,5.62,2,8.74,5.34,8.74s5.37-3.12,5.37-8.77-2.06-8.77-5.37-8.77-5.34,3.12-5.34,8.77Z"/><path class="cls-15" d="M530.83,676.47h1.73c0,1.39,0,2.25-.06,3.17.75-3,2.7-3.48,4-3.53v2.17a1.26,1.26,0,0,0-.7-.19c-1.28,0-3.14,1.59-3.14,5.4v8.13h-1.87Z"/><path class="cls-15" d="M549.28,691.33a6.64,6.64,0,0,1-1.28,4.54,5.05,5.05,0,0,1-4.06,1.67,4.94,4.94,0,0,1-5.09-4.76h1.89a3.28,3.28,0,0,0,.86,2.12,3.35,3.35,0,0,0,2.42.92c1.59,0,3.42-.72,3.42-4.34,0-.72,0-1.7,0-2.7a3.94,3.94,0,0,1-3.9,3.2c-3.26,0-5.07-3.28-5.07-7.9s1.81-8,5.07-8c1.78,0,3.17.83,4.09,3.28,0-.92,0-1.78,0-2.92h1.64Zm-8.91-7.26c0,3.42,1.22,6.07,3.54,6.07a3,3,0,0,0,2.64-1.67,8.44,8.44,0,0,0,.86-4.43,8.31,8.31,0,0,0-.86-4.43,3,3,0,0,0-2.64-1.67c-2.31,0-3.54,2.64-3.54,6.1Z"/><path class="cls-15" d="M564,691.61H562.3c0-1.34,0-2.17,0-2.89a4.16,4.16,0,0,1-4,3.26c-3,0-5.07-3.17-5.07-7.9s1.89-8,5.07-8c1.7,0,3.2.86,4,3.28,0-.92,0-1.78,0-2.92H564Zm-8.91-7.54c0,3.42,1.22,6.07,3.53,6.07a3,3,0,0,0,2.64-1.67,8.45,8.45,0,0,0,.86-4.43,8.32,8.32,0,0,0-.86-4.43,3,3,0,0,0-2.64-1.67c-2.31,0-3.53,2.64-3.53,6.1Z"/><path class="cls-15" d="M568.81,676.47h1.67c0,.86,0,1.64-.06,2.59a4.32,4.32,0,0,1,4.29-3c2.59,0,4.34,1.5,4.34,5.18v10.33h-1.87v-9.74c0-1.53-.22-3.92-2.89-3.92-2.2,0-3.62,1.53-3.62,4.7v9h-1.86Z"/><path class="cls-15" d="M584,671h1.86v2.73H584Zm0,5.46h1.86v15.14H584Z"/><path class="cls-15" d="M596.94,680.4c0-1.92-1-2.62-2.45-2.62a2.13,2.13,0,0,0-2.2,2.25c0,1.7,1.42,2.31,3.26,2.87,1.67.5,3.62,1.53,3.62,4.56a4.34,4.34,0,0,1-4.51,4.51c-2.75,0-4.59-1.64-4.73-4.81h1.84c0,2.06,1.22,3.09,2.89,3.09a2.43,2.43,0,0,0,2.56-2.64c0-1.84-1.28-2.56-3.31-3.2s-3.56-1.61-3.56-4.31a3.9,3.9,0,0,1,4.23-4c2.59,0,4.12,1.48,4.2,4.29Z"/><path class="cls-15" d="M613.13,691.61h-1.73c0-1.34,0-2.17,0-2.89a4.16,4.16,0,0,1-4,3.26c-3,0-5.07-3.17-5.07-7.9s1.89-8,5.07-8c1.7,0,3.2.86,4,3.28,0-.92,0-1.78,0-2.92h1.73Zm-8.91-7.54c0,3.42,1.22,6.07,3.53,6.07a3,3,0,0,0,2.64-1.67,8.45,8.45,0,0,0,.86-4.43,8.32,8.32,0,0,0-.86-4.43,3,3,0,0,0-2.64-1.67c-2.31,0-3.53,2.64-3.53,6.1Z"/><path class="cls-15" d="M618.64,678.22h-2.12v-1.75h2.12v-4.79h1.87v4.79h2.09v1.75h-2.09v13.39h-1.87Z"/><path class="cls-15" d="M626.21,671h1.87v2.73h-1.87Zm0,5.46h1.87v15.14h-1.87Z"/><path class="cls-15" d="M632.27,684c0-4.31,1.78-7.9,5.84-7.9s5.82,3.59,5.82,7.93-1.78,7.93-5.82,7.93-5.84-3.59-5.84-7.93Zm1.95.06c0,4,1.31,6.15,3.92,6.15S642,688.08,642,684s-1.31-6.18-3.9-6.18-3.87,2.14-3.87,6.18Z"/><path class="cls-15" d="M647.91,676.47h1.67c0,.86,0,1.64-.06,2.59a4.32,4.32,0,0,1,4.29-3c2.59,0,4.34,1.5,4.34,5.18v10.33h-1.87v-9.74c0-1.53-.22-3.92-2.89-3.92-2.2,0-3.62,1.53-3.62,4.7v9h-1.86Z"/><path class="cls-15" d="M663.88,693.92h-1.64l1.84-5.26h1.86Z"/><path class="cls-15" d="M676.15,676.47h1.73c0,1.39,0,2.25-.06,3.17.75-3,2.7-3.48,4-3.53v2.17a1.26,1.26,0,0,0-.7-.19c-1.28,0-3.14,1.59-3.14,5.4v8.13h-1.87Z"/><path class="cls-15" d="M685.2,671h1.87v2.73H685.2Zm0,5.46h1.87v15.14H685.2Z"/><path class="cls-15" d="M702,691.33a6.64,6.64,0,0,1-1.28,4.54,5.05,5.05,0,0,1-4.06,1.67,4.94,4.94,0,0,1-5.09-4.76h1.89a3.28,3.28,0,0,0,.86,2.12,3.35,3.35,0,0,0,2.42.92c1.59,0,3.42-.72,3.42-4.34,0-.72,0-1.7,0-2.7a3.94,3.94,0,0,1-3.9,3.2c-3.26,0-5.07-3.28-5.07-7.9s1.81-8,5.07-8c1.78,0,3.17.83,4.09,3.28,0-.92,0-1.78,0-2.92H702Zm-8.91-7.26c0,3.42,1.22,6.07,3.54,6.07a3,3,0,0,0,2.64-1.67,8.44,8.44,0,0,0,.86-4.43,8.31,8.31,0,0,0-.86-4.43,3,3,0,0,0-2.64-1.67c-2.31,0-3.54,2.64-3.54,6.1Z"/><path class="cls-15" d="M717,691.61h-1.73c0-.86,0-1.7.06-2.64a4.25,4.25,0,0,1-4.23,3c-2.59,0-4.34-1.5-4.34-5.18V676.47h1.87v9.74c0,1.53.22,3.92,2.89,3.92,2.2,0,3.62-1.53,3.62-4.7v-9H717Z"/><path class="cls-15" d="M723,684.6c0,3.15,1.28,5.62,3.84,5.62a3.44,3.44,0,0,0,3.4-3H732a6.06,6.06,0,0,1-1.89,3.56,5.06,5.06,0,0,1-3.34,1.2c-4.17,0-5.79-4-5.79-7.9,0-4.7,2.17-8,5.73-8a4.7,4.7,0,0,1,4.06,2.14c1.22,1.81,1.42,4.15,1.39,6.35ZM730.3,683c-.06-3.15-1.36-5.26-3.65-5.26S723,680,723,683Z"/><path class="cls-15" d="M746.33,691.61H744.6c0-.86,0-1.7.06-2.64a4.25,4.25,0,0,1-4.23,3c-2.59,0-4.34-1.5-4.34-5.18V676.47H738v9.74c0,1.53.22,3.92,2.89,3.92,2.2,0,3.62-1.53,3.62-4.7v-9h1.87Z"/><path class="cls-15" d="M751.11,676.47h1.73c0,1.39,0,2.25-.06,3.17.75-3,2.7-3.48,4-3.53v2.17a1.26,1.26,0,0,0-.7-.19c-1.28,0-3.14,1.59-3.14,5.4v8.13h-1.87Z"/><path class="cls-15" d="M512.68,726h3.92c3.06,0,4.31.53,5.09,1.22a6.21,6.21,0,0,1,2.14,5,7,7,0,0,1-.92,3.73,5,5,0,0,1-3.56,2.37l4.12,8.29h-2.34L516.55,737a6.06,6.06,0,0,0,.72,0,4.54,4.54,0,0,0,3.23-1.11,4.7,4.7,0,0,0,1.2-3.48,4.57,4.57,0,0,0-1.56-3.79,6.23,6.23,0,0,0-3.59-.7h-1.78v18.68h-2.09Z"/><path class="cls-15" d="M528.93,739.6c0,3.15,1.28,5.62,3.84,5.62a3.44,3.44,0,0,0,3.4-3H538a6.05,6.05,0,0,1-1.89,3.56,5.06,5.06,0,0,1-3.34,1.2c-4.17,0-5.79-4-5.79-7.9,0-4.7,2.17-8,5.73-8a4.7,4.7,0,0,1,4.06,2.14c1.22,1.81,1.42,4.15,1.39,6.35Zm7.35-1.64c-.06-3.15-1.36-5.26-3.65-5.26S529,735,528.93,738Zm-.58-12.75.78,1.5L530.24,730l-.7-1.31Z"/><path class="cls-15" d="M552.11,746.61h-1.73c0-1.34,0-2.17,0-2.89a4.16,4.16,0,0,1-4,3.26c-3,0-5.07-3.17-5.07-7.9s1.89-8,5.07-8c1.7,0,3.2.86,4,3.28,0-.92,0-1.78,0-2.92h1.73Zm-8.91-7.54c0,3.42,1.22,6.07,3.54,6.07a3,3,0,0,0,2.64-1.67,8.44,8.44,0,0,0,.86-4.43,8.31,8.31,0,0,0-.86-4.43,3,3,0,0,0-2.64-1.67c-2.31,0-3.54,2.64-3.54,6.1Z"/><path class="cls-15" d="M566.86,741.46c-.33,3.09-2,5.51-5,5.51-4,0-5.84-3.79-5.84-7.9,0-5,2.34-8,5.76-8,3.12,0,4.87,2.39,5,5.59h-1.89c-.31-3-1.75-3.84-3.17-3.84a2.94,2.94,0,0,0-2.75,1.61,9,9,0,0,0-1,4.56c0,4,1.36,6.18,3.76,6.18,1.86,0,2.92-1.5,3.2-3.76Z"/><path class="cls-15" d="M571.12,733.22H569v-1.75h2.12v-4.79H573v4.79h2.09v1.75H573v13.39h-1.86Z"/><path class="cls-15" d="M578.68,726h1.87v2.73h-1.87Zm0,5.46h1.87v15.14h-1.87Z"/><path class="cls-15" d="M590.18,746.61h-1.86l-4.56-15.14h1.89l3.59,12.64,3.48-12.64h1.86Z"/><path class="cls-15" d="M597.77,726h1.87v2.73h-1.87Zm0,5.46h1.87v15.14h-1.87Z"/><path class="cls-15" d="M605.37,733.22h-2.12v-1.75h2.12v-4.79h1.86v4.79h2.09v1.75h-2.09v13.39h-1.86Z"/><path class="cls-15" d="M613.55,739.6c0,3.15,1.28,5.62,3.84,5.62a3.44,3.44,0,0,0,3.4-3h1.84a6.05,6.05,0,0,1-1.89,3.56,5.06,5.06,0,0,1-3.34,1.2c-4.17,0-5.79-4-5.79-7.9,0-4.7,2.17-8,5.73-8a4.7,4.7,0,0,1,4.06,2.14c1.22,1.81,1.42,4.15,1.39,6.35ZM620.9,738c-.06-3.15-1.36-5.26-3.65-5.26s-3.65,2.25-3.7,5.26Zm-.58-12.75.78,1.5L614.86,730l-.7-1.31Z"/><path class="cls-15" d="M516.42,526.88h10.94v3.48h-7.18v5.76h7.18v3.45h-7.18v6.62h7.18v3.48H516.42Z"/><path class="cls-15" d="M535.37,530.36h-4.13v-3.48h12v3.48h-4.13v19.32h-3.76Z"/><path class="cls-15" d="M572.34,550c-.31,0-.65.09-1,.09a4.16,4.16,0,0,1-3.23-1.29,7.33,7.33,0,0,1-4.25,1.29c-5.54,0-8.32-4.84-8.32-11.83s2.77-11.83,8.32-11.83,8.35,4.84,8.35,11.83a16.31,16.31,0,0,1-1.73,7.86,2,2,0,0,0,1.82.4Zm-8.47-20.09c-2.83,0-4.44,2.65-4.44,8.35a15.33,15.33,0,0,0,.25,2.71,6.24,6.24,0,0,1,2.9-.74,5.1,5.1,0,0,1,2.56.71,9.56,9.56,0,0,1,2.53,2.31,15,15,0,0,0,.74-5c0-5.7-1.6-8.35-4.5-8.35Zm.06,16.7a3.06,3.06,0,0,0,2.13-.71,7.68,7.68,0,0,0-1.63-1.69,4.34,4.34,0,0,0-2.56-.77,2.79,2.79,0,0,0-1.63.52,3.91,3.91,0,0,0,3.67,2.65Z"/><path class="cls-15" d="M580.29,526.88v16a3.78,3.78,0,0,0,.86,2.83,3.18,3.18,0,0,0,2.53.89,3.29,3.29,0,0,0,2.56-.89,3.9,3.9,0,0,0,.83-2.83v-16h3.76v16.48a6.55,6.55,0,0,1-1.66,4.87,7.39,7.39,0,0,1-5.48,1.88c-2.56,0-4.34-.71-5.48-1.88a6.67,6.67,0,0,1-1.66-4.87V526.88Z"/><path class="cls-15" d="M596.15,526.88h10.94v3.48h-7.18v5.76h7.18v3.45h-7.18v6.62h7.18v3.48H596.15Z"/><path class="cls-15" d="M621.85,526.88h3.76V546.2h6.5v3.48H621.85Z"/><path class="cls-15" d="M634.54,526.88h3.54l-3,7h-3Z"/><path class="cls-15" d="M640.92,538.25c0-7,2.77-11.8,8.32-11.8s8.35,4.84,8.35,11.83c0,6.65-2.59,11.83-8.35,11.83-5.55,0-8.32-4.84-8.32-11.83Zm3.85.06c0,5.76,1.6,8.32,4.47,8.32s4.5-2.56,4.5-8.35-1.6-8.35-4.5-8.35-4.47,2.56-4.47,8.35Z"/><path class="cls-15" d="M673.14,542.44V526.88h3.33v22.8h-3.54l-7.58-16.48v16.48H662v-22.8h4Z"/><path class="cls-15" d="M691.17,526.88h5.3c3.3,0,5.08.74,6,1.76a7.34,7.34,0,0,1,2,5.36,7.83,7.83,0,0,1-.8,3.7,5.61,5.61,0,0,1-3.17,2.87l4.41,9.12h-4.22l-5-11.21c.43,0,.68,0,1,0a4.1,4.1,0,0,0,2.8-1,4.29,4.29,0,0,0,1.14-3.11,4,4,0,0,0-1.33-3.3,4.89,4.89,0,0,0-3-.68h-1.42v19.32h-3.76Z"/><path class="cls-15" d="M709,526.88H720v3.48H712.8v5.76H720v3.45H712.8v6.62H720v3.48H709Z"/><path class="cls-15" d="M728,530.36h-4.13v-3.48h12v3.48h-4.13v19.32H728Z"/><path class="cls-15" d="M739.76,526.88h5.3c3.3,0,5.08.74,6,1.76a7.34,7.34,0,0,1,2,5.36,7.83,7.83,0,0,1-.8,3.7,5.61,5.61,0,0,1-3.17,2.87l4.41,9.12h-4.22l-5-11.21c.43,0,.68,0,1,0a4.1,4.1,0,0,0,2.8-1,4.29,4.29,0,0,0,1.14-3.11,4,4,0,0,0-1.33-3.3,4.89,4.89,0,0,0-3-.68h-1.42v19.32h-3.76Z"/><path class="cls-15" d="M756.55,538.25c0-7,2.77-11.8,8.32-11.8s8.35,4.84,8.35,11.83c0,6.65-2.59,11.83-8.35,11.83-5.55,0-8.32-4.84-8.32-11.83Zm3.85.06c0,5.76,1.6,8.32,4.47,8.32s4.5-2.56,4.5-8.35-1.6-8.35-4.5-8.35-4.47,2.56-4.47,8.35Z"/><path class="cls-15" d="M781.23,526.88v16a3.78,3.78,0,0,0,.86,2.83,3.18,3.18,0,0,0,2.53.89,3.29,3.29,0,0,0,2.56-.89,3.91,3.91,0,0,0,.83-2.83v-16h3.76v16.48a6.55,6.55,0,0,1-1.66,4.87,8.94,8.94,0,0,1-11,0,6.68,6.68,0,0,1-1.66-4.87V526.88Z"/><path class="cls-15" d="M795.12,526.88h3.7l4.44,17.19,4.44-17.19h3.57l-6.38,22.8H801.5Z"/><path class="cls-15" d="M814.84,526.88h10.94v3.48H818.6v5.76h7.18v3.45H818.6v6.62h7.18v3.48H814.84Z"/><path class="cls-15" d="M840.53,526.88h10.94v3.48h-7.18v5.76h7.18v3.45h-7.18v6.62h7.18v3.48H840.53Z"/><path class="cls-15" d="M867.92,542.44V526.88h3.33v22.8H867.7l-7.58-16.48v16.48h-3.36v-22.8h4Z"/><path class="cls-15" d="M881.72,526.88h3.7l4.44,17.19,4.44-17.19h3.57l-6.38,22.8H888.1Z"/><path class="cls-15" d="M899.78,538.25c0-7,2.77-11.8,8.32-11.8s8.35,4.84,8.35,11.83c0,6.65-2.59,11.83-8.35,11.83-5.54,0-8.32-4.84-8.32-11.83Zm3.85.06c0,5.76,1.6,8.32,4.47,8.32s4.5-2.56,4.5-8.35-1.6-8.35-4.5-8.35-4.47,2.56-4.47,8.35Z"/><path class="cls-15" d="M924.46,526.88v16a3.78,3.78,0,0,0,.86,2.83,3.18,3.18,0,0,0,2.53.89,3.29,3.29,0,0,0,2.56-.89,3.9,3.9,0,0,0,.83-2.83v-16H935v16.48a6.55,6.55,0,0,1-1.66,4.87,7.39,7.39,0,0,1-5.48,1.88c-2.56,0-4.34-.71-5.48-1.88a6.67,6.67,0,0,1-1.66-4.87V526.88Z"/><path class="cls-15" d="M943,542.84c.15,2.83,1.45,3.94,3.36,3.94a3.12,3.12,0,0,0,3.3-3.39c0-2.56-2.62-3.14-5-4s-5-2.19-5-6.13c0-4.19,2.56-6.84,6.59-6.84s6.19,1.94,6.81,6.25h-3.64c-.12-1.66-1-3.11-3-3.11a2.86,2.86,0,0,0-2.9,3.11c0,2.46,2.4,3,5,3.94,2.19.86,5,2.28,5,6.69,0,4.19-3.08,6.81-7.18,6.81-4.56,0-7-2.56-7.05-7.27Z"/><path class="cls-15" d="M971,538.34h-3.33v-4.07H971Zm0,11.34h-3.33v-4.07H971Z"/><circle class="cls-16" cx="471.2" cy="535.68" r="26.98"/><path class="cls-15" d="M473.07,524.76q0-2.23-2.08-2.25h0q-2.06,0-2.06,2.25v4.44h-4.78v-4.44q0-7,6.86-7t6.88,7v5.76a4.77,4.77,0,0,1-2.62,4.61,4.77,4.77,0,0,1,2.62,4.61V545q0,7-6.88,7t-6.86-7V540.6h4.78V545q0,2.25,2.06,2.25h0q2.08,0,2.08-2.25v-5.29q0-1.81-.76-2.15a3.46,3.46,0,0,0-1.25-.17h-1.57v-4.71h1.94a2,2,0,0,0,1-.2q.62-.35.63-2Z"/><path class="cls-17" d="M471.2,508.71H471v53.94h.21a27,27,0,1,0,0-54Z"/><path class="cls-15" d="M902.41,618.69h4.73c2.75,0,5.18.7,6.74,3a12.89,12.89,0,0,1,1.81,7.32c0,7.88-3.84,10.3-8.49,10.3h-4.79Zm2.09,18.68H907c4.84,0,6.54-3.09,6.54-8.38,0-2.87-.45-4.93-1.45-6.29s-2.7-2.09-5.15-2.09H904.5Z"/><path class="cls-15" d="M919.92,618.69h1.86v2.73h-1.86Zm0,5.46h1.86v15.14h-1.86Z"/><path class="cls-15" d="M926.79,624.15h1.72c0,1.14,0,2,0,2.89.78-2.28,2.17-3.26,4-3.26,3,0,5.09,3.15,5.09,8,0,4.62-1.89,7.9-5.09,7.9a4.11,4.11,0,0,1-3.87-3.12c.06.67.06,1.45.06,2.76v5.59h-1.86Zm8.91,7.54c0-3.42-1.2-6.07-3.54-6.07a2.9,2.9,0,0,0-2.59,1.67,8,8,0,0,0-.92,4.43,8.13,8.13,0,0,0,.92,4.43,2.9,2.9,0,0,0,2.59,1.67c2.34,0,3.54-2.64,3.54-6.1Z"/><path class="cls-15" d="M941.76,618.69h1.87v20.6h-1.87Z"/><path class="cls-15" d="M947.82,631.69c0-4.31,1.78-7.9,5.84-7.9s5.82,3.59,5.82,7.93-1.78,7.93-5.82,7.93-5.84-3.59-5.84-7.93Zm1.95.06c0,4,1.31,6.15,3.92,6.15s3.84-2.14,3.84-6.18-1.31-6.18-3.9-6.18-3.87,2.14-3.87,6.18Z"/><path class="cls-15" d="M963.52,624.15h1.78c0,.78,0,1.59-.06,2.48a3.75,3.75,0,0,1,3.84-2.84,3.59,3.59,0,0,1,2.64,1,3.53,3.53,0,0,1,.83,1.81,4.14,4.14,0,0,1,1.25-1.92,4.64,4.64,0,0,1,2.78-.92,3.89,3.89,0,0,1,3.54,1.95,9.11,9.11,0,0,1,.7,4.15v9.41H979V630a9.14,9.14,0,0,0-.31-2.81,2.32,2.32,0,0,0-2.31-1.59,2.77,2.77,0,0,0-2.45,1.22,5.92,5.92,0,0,0-.81,3.31v9.13h-1.87V630.1a9,9,0,0,0-.31-2.89,2.29,2.29,0,0,0-2.28-1.59,2.86,2.86,0,0,0-2.45,1.17,6,6,0,0,0-.81,3.42v9.07h-1.86Z"/><path class="cls-15" d="M995.55,639.29h-1.73c0-1.34,0-2.17,0-2.89a4.16,4.16,0,0,1-4,3.26c-3,0-5.06-3.17-5.06-7.9s1.89-8,5.06-8c1.7,0,3.2.86,4,3.28,0-.92,0-1.78,0-2.92h1.73Zm-8.91-7.54c0,3.42,1.22,6.07,3.53,6.07a3,3,0,0,0,2.64-1.67,8.44,8.44,0,0,0,.86-4.43,8.31,8.31,0,0,0-.86-4.43,3,3,0,0,0-2.64-1.67c-2.31,0-3.53,2.64-3.53,6.1Z"/><path class="cls-15" d="M1001.05,625.9h-2.12v-1.75h2.12v-4.79h1.86v4.79H1005v1.75h-2.09v13.39h-1.86Z"/><path class="cls-15" d="M1008.62,618.69h1.86v2.73h-1.86Zm0,5.46h1.86v15.14h-1.86Z"/><path class="cls-15" d="M1016.69,632.27c0,3.15,1.28,5.62,3.84,5.62a3.44,3.44,0,0,0,3.39-3h1.84a6.06,6.06,0,0,1-1.89,3.56,5.07,5.07,0,0,1-3.34,1.2c-4.18,0-5.79-4-5.79-7.9,0-4.7,2.17-8,5.73-8a4.7,4.7,0,0,1,4.06,2.14c1.22,1.81,1.42,4.15,1.39,6.35Zm7.35-1.64c-.05-3.15-1.36-5.26-3.65-5.26s-3.65,2.25-3.7,5.26Z"/><path class="cls-14" d="M903.6,723.93h4.73c2.76,0,5.18.7,6.74,3a12.89,12.89,0,0,1,1.81,7.32c0,7.88-3.84,10.3-8.49,10.3H903.6Zm2.09,18.68h2.53c4.84,0,6.54-3.09,6.54-8.38,0-2.87-.45-4.93-1.45-6.29s-2.7-2.09-5.15-2.09h-2.48Z"/><path class="cls-14" d="M921.1,723.93H923v2.73H921.1Zm0,5.46H923v15.14H921.1Z"/><path class="cls-14" d="M934.07,733.31c0-1.92-1-2.62-2.45-2.62a2.13,2.13,0,0,0-2.2,2.25c0,1.7,1.42,2.31,3.26,2.87,1.67.5,3.62,1.53,3.62,4.56a4.34,4.34,0,0,1-4.51,4.51c-2.76,0-4.59-1.64-4.73-4.81h1.84c0,2.06,1.22,3.09,2.89,3.09a2.43,2.43,0,0,0,2.56-2.64c0-1.84-1.28-2.56-3.31-3.2s-3.56-1.61-3.56-4.31a3.9,3.9,0,0,1,4.23-4c2.59,0,4.12,1.48,4.2,4.29Z"/><path class="cls-14" d="M940.3,729.39H942c0,1.14,0,2,0,2.89.78-2.28,2.17-3.26,4-3.26,3,0,5.09,3.15,5.09,8,0,4.62-1.89,7.9-5.09,7.9a4.11,4.11,0,0,1-3.87-3.12c.05.67.05,1.45.05,2.76v5.59H940.3Zm8.91,7.54c0-3.42-1.2-6.07-3.53-6.07a2.9,2.9,0,0,0-2.59,1.67,8,8,0,0,0-.92,4.43,8.13,8.13,0,0,0,.92,4.43,2.9,2.9,0,0,0,2.59,1.67c2.34,0,3.53-2.64,3.53-6.1Z"/><path class="cls-14" d="M954.24,736.93c0-4.31,1.78-7.9,5.84-7.9s5.82,3.59,5.82,7.93-1.78,7.93-5.82,7.93-5.84-3.59-5.84-7.93Zm1.95.06c0,4,1.31,6.15,3.92,6.15S964,741,964,737s-1.31-6.18-3.9-6.18-3.87,2.14-3.87,6.18Z"/><path class="cls-14" d="M969.88,729.39h1.67c0,.86,0,1.64-.05,2.59a4.32,4.32,0,0,1,4.29-3c2.59,0,4.34,1.5,4.34,5.18v10.33h-1.86v-9.74c0-1.53-.22-3.92-2.89-3.92-2.2,0-3.62,1.53-3.62,4.7v9h-1.87Z"/><path class="cls-14" d="M985,723.93h1.86v2.73H985Zm0,5.46h1.86v15.14H985Z"/><path class="cls-14" d="M991.92,723.93h1.87v5.46c0,1.34,0,2.17-.06,2.89a4,4,0,0,1,3.87-3.26c3.2,0,5.09,3.28,5.09,7.9,0,4.81-2.06,8-5.09,8-1.75,0-3.14-.89-4-3.28,0,.92,0,1.78,0,2.92h-1.73Zm8.91,13c0-3.26-1.14-6.07-3.51-6.07-2.62,0-3.54,3.06-3.54,6.1s.92,6.1,3.54,6.1c2.37,0,3.51-2.81,3.51-6.1Z"/><path class="cls-14" d="M1006.89,723.93h1.86v2.73h-1.86Zm0,5.46h1.86v15.14h-1.86Z"/><path class="cls-14" d="M1014,723.93h1.86v20.6H1014Z"/><path class="cls-14" d="M1021.08,723.93h1.87v2.73h-1.87Zm0,5.46h1.87v15.14h-1.87Z"/><path class="cls-14" d="M1028.67,731.14h-2.12v-1.75h2.12V724.6h1.86v4.79h2.09v1.75h-2.09v13.39h-1.86Z"/><path class="cls-14" d="M1036.85,737.52c0,3.15,1.28,5.62,3.84,5.62a3.44,3.44,0,0,0,3.39-3h1.84a6.06,6.06,0,0,1-1.89,3.56,5.07,5.07,0,0,1-3.34,1.2c-4.18,0-5.79-4-5.79-7.9,0-4.7,2.17-8,5.73-8a4.7,4.7,0,0,1,4.06,2.14c1.22,1.81,1.42,4.15,1.39,6.35Zm7.35-1.64c-.05-3.15-1.36-5.26-3.65-5.26s-3.65,2.25-3.7,5.26Zm-.58-12.75.78,1.5-6.23,3.31-.7-1.31Z"/><path class="cls-14" d="M1068.83,723.93v1.75l-7.54,18.84h-2.17l7.54-18.73h-8.79v-1.86Z"/><path class="cls-14" d="M1078.81,723.82h1.95l-8.52,22.6h-1.95Z"/><path class="cls-14" d="M1093.29,723.93v1.75l-7.54,18.84h-2.17l7.54-18.73h-8.79v-1.86Z"/><path class="cls-14" d="M1100,744.72c0,2.48-.56,5-3.17,5.46a5.4,5.4,0,0,1-.67.06v-1.81a1.78,1.78,0,0,0,.25-.06c1.45-.33,1.73-1.73,1.73-3.87V729.39H1100Zm-1.87-20.79H1100v2.76h-1.87Z"/><path class="cls-15" d="M915.16,682.82c0,3.56-2.09,7.07-6.43,7.07s-7.15-3.7-7.15-10.66c0-6.51,2.42-10.66,7.15-10.66,4.34,0,6.46,3.62,6.43,7.51H913.1c-.05-2.7-1.11-5.57-4.26-5.57-3.59,0-5.12,3.48-5.12,8.91,0,5.84,2.17,8.52,5.12,8.52,3.17,0,4.15-2.64,4.26-5.12Z"/><path class="cls-15" d="M918.11,681.93c0-4.31,1.78-7.9,5.84-7.9s5.82,3.59,5.82,7.93-1.78,7.93-5.82,7.93-5.84-3.59-5.84-7.93Zm1.95.06c0,4,1.31,6.15,3.92,6.15s3.84-2.14,3.84-6.18-1.31-6.18-3.9-6.18-3.87,2.14-3.87,6.18Z"/><path class="cls-15" d="M933.75,674.39h1.67c0,.86,0,1.64-.06,2.59a4.32,4.32,0,0,1,4.29-3c2.59,0,4.34,1.5,4.34,5.18v10.33h-1.86v-9.74c0-1.53-.22-3.92-2.89-3.92-2.2,0-3.62,1.53-3.62,4.7v9h-1.86Z"/><path class="cls-15" d="M948.69,674.39h1.67c0,.86,0,1.64-.06,2.59a4.32,4.32,0,0,1,4.29-3c2.59,0,4.34,1.5,4.34,5.18v10.33h-1.86v-9.74c0-1.53-.22-3.92-2.89-3.92-2.2,0-3.62,1.53-3.62,4.7v9h-1.86Z"/><path class="cls-15" d="M973.59,689.53h-1.72c0-1.34,0-2.17,0-2.89a4.16,4.16,0,0,1-4,3.26c-3,0-5.07-3.17-5.07-7.9s1.89-8,5.07-8c1.7,0,3.2.86,4,3.28,0-.92,0-1.78,0-2.92h1.72ZM964.69,682c0,3.42,1.22,6.07,3.54,6.07a3,3,0,0,0,2.64-1.67,8.45,8.45,0,0,0,.86-4.43,8.32,8.32,0,0,0-.86-4.43,3,3,0,0,0-2.64-1.67c-2.31,0-3.54,2.64-3.54,6.1Z"/><path class="cls-15" d="M978.6,668.93h1.87v2.73H978.6Zm0,5.46h1.87v15.14H978.6Z"/><path class="cls-15" d="M991.57,678.31c0-1.92-1-2.62-2.45-2.62a2.13,2.13,0,0,0-2.2,2.25c0,1.7,1.42,2.31,3.26,2.87,1.67.5,3.62,1.53,3.62,4.56a4.34,4.34,0,0,1-4.51,4.51c-2.75,0-4.59-1.64-4.73-4.81h1.84c0,2.06,1.22,3.09,2.89,3.09a2.43,2.43,0,0,0,2.56-2.64c0-1.84-1.28-2.56-3.31-3.2S985,680.71,985,678a3.9,3.9,0,0,1,4.23-4c2.59,0,4.12,1.48,4.2,4.29Z"/><path class="cls-15" d="M1003.89,678.31c0-1.92-1-2.62-2.45-2.62a2.13,2.13,0,0,0-2.2,2.25c0,1.7,1.42,2.31,3.26,2.87,1.67.5,3.62,1.53,3.62,4.56a4.34,4.34,0,0,1-4.51,4.51c-2.75,0-4.59-1.64-4.73-4.81h1.84c0,2.06,1.22,3.09,2.89,3.09a2.43,2.43,0,0,0,2.56-2.64c0-1.84-1.28-2.56-3.31-3.2s-3.56-1.61-3.56-4.31a3.9,3.9,0,0,1,4.23-4c2.59,0,4.12,1.48,4.2,4.29Z"/><path class="cls-15" d="M1020.09,689.53h-1.73c0-1.34,0-2.17,0-2.89a4.16,4.16,0,0,1-4,3.26c-3,0-5.06-3.17-5.06-7.9s1.89-8,5.06-8c1.7,0,3.2.86,4,3.28,0-.92,0-1.78,0-2.92h1.73Zm-8.91-7.54c0,3.42,1.22,6.07,3.53,6.07a3,3,0,0,0,2.64-1.67,8.44,8.44,0,0,0,.86-4.43,8.31,8.31,0,0,0-.86-4.43,3,3,0,0,0-2.64-1.67c-2.31,0-3.53,2.64-3.53,6.1Z"/><path class="cls-15" d="M1024.87,674.39h1.67c0,.86,0,1.64-.06,2.59a4.32,4.32,0,0,1,4.29-3c2.59,0,4.34,1.5,4.34,5.18v10.33h-1.86v-9.74c0-1.53-.22-3.92-2.89-3.92-2.2,0-3.62,1.53-3.62,4.7v9h-1.86Z"/><path class="cls-15" d="M1049.78,684.38c-.33,3.09-2,5.51-5,5.51-4,0-5.84-3.79-5.84-7.9,0-5,2.34-8,5.76-8,3.12,0,4.87,2.39,5,5.59h-1.89c-.31-3-1.75-3.84-3.17-3.84a2.94,2.94,0,0,0-2.76,1.61,9,9,0,0,0-1,4.56c0,4,1.36,6.18,3.76,6.18,1.87,0,2.92-1.5,3.2-3.76Z"/><path class="cls-15" d="M1054.5,682.52c0,3.15,1.28,5.62,3.84,5.62a3.44,3.44,0,0,0,3.4-3h1.84a6,6,0,0,1-1.89,3.56,5.06,5.06,0,0,1-3.34,1.2c-4.17,0-5.79-4-5.79-7.9,0-4.7,2.17-8,5.73-8a4.7,4.7,0,0,1,4.06,2.14c1.22,1.81,1.42,4.15,1.39,6.35Zm7.35-1.64c-.06-3.15-1.36-5.26-3.65-5.26s-3.65,2.25-3.7,5.26Z"/><path class="cls-15" d="M1076.74,682.52c0,3.15,1.28,5.62,3.84,5.62a3.44,3.44,0,0,0,3.4-3h1.84a6.06,6.06,0,0,1-1.89,3.56,5.06,5.06,0,0,1-3.34,1.2c-4.17,0-5.79-4-5.79-7.9,0-4.7,2.17-8,5.73-8a4.7,4.7,0,0,1,4.06,2.14c1.22,1.81,1.42,4.15,1.39,6.35Zm7.35-1.64c-.06-3.15-1.36-5.26-3.65-5.26s-3.65,2.25-3.7,5.26Z"/><path class="cls-15" d="M1090.68,676.14h-2.12v-1.75h2.12V669.6h1.86v4.79h2.09v1.75h-2.09v13.39h-1.86Z"/><path class="cls-15" d="M1116,689.53h-1.73c0-.86,0-1.7.06-2.64a4.25,4.25,0,0,1-4.23,3c-2.59,0-4.34-1.5-4.34-5.18V674.39h1.87v9.74c0,1.53.22,3.92,2.89,3.92,2.2,0,3.62-1.53,3.62-4.7v-9H1116Z"/><path class="cls-15" d="M1121.5,676.14h-2.12v-1.75h2.12V669.6h1.87v4.79h2.09v1.75h-2.09v13.39h-1.87Z"/><path class="cls-15" d="M1129.07,668.93h1.87v2.73h-1.87Zm0,5.46h1.87v15.14h-1.87Z"/><path class="cls-15" d="M1136.17,668.93H1138v20.6h-1.87Z"/><path class="cls-15" d="M1143.26,668.93h1.86v2.73h-1.86Zm0,5.46h1.86v15.14h-1.86Z"/><path class="cls-15" d="M1156.23,678.31c0-1.92-1-2.62-2.45-2.62a2.13,2.13,0,0,0-2.2,2.25c0,1.7,1.42,2.31,3.26,2.87,1.67.5,3.62,1.53,3.62,4.56a4.34,4.34,0,0,1-4.51,4.51c-2.76,0-4.59-1.64-4.73-4.81h1.84c0,2.06,1.22,3.09,2.89,3.09a2.43,2.43,0,0,0,2.56-2.64c0-1.84-1.28-2.56-3.31-3.2s-3.56-1.61-3.56-4.31a3.9,3.9,0,0,1,4.23-4c2.59,0,4.12,1.48,4.2,4.29Z"/><path class="cls-15" d="M1172.43,689.53h-1.72c0-1.34,0-2.17,0-2.89a4.16,4.16,0,0,1-4,3.26c-3,0-5.07-3.17-5.07-7.9s1.89-8,5.07-8c1.7,0,3.2.86,4,3.28,0-.92,0-1.78,0-2.92h1.72Zm-8.91-7.54c0,3.42,1.22,6.07,3.54,6.07a3,3,0,0,0,2.64-1.67,8.45,8.45,0,0,0,.86-4.43,8.32,8.32,0,0,0-.86-4.43,3,3,0,0,0-2.64-1.67c-2.31,0-3.54,2.64-3.54,6.1Z"/><path class="cls-15" d="M1177.93,676.14h-2.12v-1.75h2.12V669.6h1.86v4.79h2.09v1.75h-2.09v13.39h-1.86Z"/><path class="cls-15" d="M1185.5,668.93h1.86v2.73h-1.86Zm0,5.46h1.86v15.14h-1.86Z"/><path class="cls-15" d="M1191.57,681.93c0-4.31,1.78-7.9,5.85-7.9s5.82,3.59,5.82,7.93-1.78,7.93-5.82,7.93-5.85-3.59-5.85-7.93Zm1.95.06c0,4,1.31,6.15,3.92,6.15s3.84-2.14,3.84-6.18-1.31-6.18-3.9-6.18-3.87,2.14-3.87,6.18Z"/><path class="cls-15" d="M1207.21,674.39h1.67c0,.86,0,1.64-.06,2.59a4.32,4.32,0,0,1,4.29-3c2.59,0,4.34,1.5,4.34,5.18v10.33h-1.87v-9.74c0-1.53-.22-3.92-2.89-3.92-2.2,0-3.62,1.53-3.62,4.7v9h-1.86Z"/><path class="cls-15" d="M1239.93,689.53h-1.73c0-1.39,0-2.23,0-3a4.13,4.13,0,0,1-4,3.37c-3,0-5.06-3.17-5.06-7.9s1.89-8,5.06-8c1.7,0,3.09.86,3.9,3.2-.05-.89-.05-1.73-.05-2.84v-5.46h1.86ZM1231,682c0,3.42,1.22,6.07,3.53,6.07a3,3,0,0,0,2.64-1.67,11.77,11.77,0,0,0,0-8.85,3,3,0,0,0-2.64-1.64c-2.31,0-3.53,2.62-3.53,6.07Z"/><path class="cls-15" d="M1245.91,682.52c0,3.15,1.28,5.62,3.84,5.62a3.44,3.44,0,0,0,3.4-3H1255a6.05,6.05,0,0,1-1.89,3.56,5.06,5.06,0,0,1-3.34,1.2c-4.17,0-5.79-4-5.79-7.9,0-4.7,2.17-8,5.73-8a4.7,4.7,0,0,1,4.06,2.14c1.22,1.81,1.42,4.15,1.39,6.35Zm7.35-1.64c-.06-3.15-1.36-5.26-3.65-5.26s-3.65,2.25-3.7,5.26Z"/><path class="cls-15" d="M1267.17,668.93H1269v20.6h-1.87Z"/><path class="cls-15" d="M1275.79,668.93h2l-2.2,5.26h-1.81Z"/><path class="cls-15" d="M1282.53,668.93h1.87v2.73h-1.87Zm0,5.46h1.87v15.14h-1.87Z"/><path class="cls-15" d="M1289.4,674.39h1.67c0,.86,0,1.64-.06,2.59a4.32,4.32,0,0,1,4.29-3c2.59,0,4.34,1.5,4.34,5.18v10.33h-1.87v-9.74c0-1.53-.22-3.92-2.89-3.92-2.2,0-3.62,1.53-3.62,4.7v9h-1.86Z"/><path class="cls-15" d="M1304.73,676.14H1303v-1.75h1.7v-1.14c0-4.54,3.59-4.68,4.51-4.68v1.64c-1.39.08-2.64.75-2.64,3.2v1h2.64v1.75h-2.64v13.39h-1.86Z"/><path class="cls-15" d="M1311,681.93c0-4.31,1.78-7.9,5.84-7.9s5.82,3.59,5.82,7.93-1.78,7.93-5.82,7.93S1311,686.3,1311,682Zm1.95.06c0,4,1.31,6.15,3.92,6.15s3.84-2.14,3.84-6.18-1.31-6.18-3.9-6.18S1313,677.92,1313,682Z"/><path class="cls-15" d="M1326.66,674.39h1.72c0,1.39,0,2.25-.05,3.17.75-3,2.7-3.48,4-3.53v2.17a1.26,1.26,0,0,0-.7-.19c-1.28,0-3.15,1.59-3.15,5.4v8.13h-1.86Z"/><path class="cls-15" d="M1335.53,674.39h1.78c0,.78,0,1.59-.05,2.48a3.74,3.74,0,0,1,3.84-2.84,3.59,3.59,0,0,1,2.64,1,3.52,3.52,0,0,1,.83,1.81,4.14,4.14,0,0,1,1.25-1.92,4.63,4.63,0,0,1,2.78-.92,3.89,3.89,0,0,1,3.53,1.95,9.11,9.11,0,0,1,.7,4.15v9.41H1351v-9.27a9.11,9.11,0,0,0-.31-2.81,2.32,2.32,0,0,0-2.31-1.59,2.77,2.77,0,0,0-2.45,1.22,5.93,5.93,0,0,0-.81,3.31v9.13h-1.86v-9.18a9.09,9.09,0,0,0-.31-2.89,2.29,2.29,0,0,0-2.28-1.59,2.86,2.86,0,0,0-2.45,1.17,6,6,0,0,0-.81,3.42v9.07h-1.87Z"/><path class="cls-15" d="M1367.56,689.53h-1.73c0-1.34,0-2.17,0-2.89a4.16,4.16,0,0,1-4,3.26c-3,0-5.07-3.17-5.07-7.9s1.89-8,5.07-8c1.7,0,3.2.86,4,3.28,0-.92,0-1.78,0-2.92h1.73Zm-8.91-7.54c0,3.42,1.22,6.07,3.53,6.07a3,3,0,0,0,2.64-1.67,8.44,8.44,0,0,0,.86-4.43,8.31,8.31,0,0,0-.86-4.43,3,3,0,0,0-2.64-1.67c-2.31,0-3.53,2.64-3.53,6.1Z"/><path class="cls-15" d="M1373.07,676.14H1371v-1.75h2.12V669.6h1.87v4.79H1377v1.75h-2.09v13.39h-1.87Z"/><path class="cls-15" d="M1380.64,668.93h1.87v2.73h-1.87Zm0,5.46h1.87v15.14h-1.87Z"/><path class="cls-15" d="M1397.47,695.12h-1.86v-5.59c0-1.34,0-2.12.05-2.84a4.07,4.07,0,0,1-3.9,3.2c-3.17,0-5.06-3.28-5.06-7.9,0-4.81,2.06-8,5.06-8,1.78,0,3.29,1,4,3.26,0-.92,0-1.75,0-2.89h1.78ZM1388.57,682c0,3.42,1.22,6.07,3.53,6.07a3,3,0,0,0,2.64-1.67,8.44,8.44,0,0,0,.86-4.43,8.31,8.31,0,0,0-.86-4.43,3,3,0,0,0-2.64-1.67c-2.31,0-3.53,2.64-3.53,6.1Z"/><path class="cls-15" d="M1412.41,689.53h-1.73c0-.86,0-1.7.06-2.64a4.25,4.25,0,0,1-4.23,3c-2.59,0-4.34-1.5-4.34-5.18V674.39H1404v9.74c0,1.53.22,3.92,2.89,3.92,2.2,0,3.62-1.53,3.62-4.7v-9h1.86Z"/><path class="cls-15" d="M1418.39,682.52c0,3.15,1.28,5.62,3.84,5.62a3.44,3.44,0,0,0,3.39-3h1.84a6.06,6.06,0,0,1-1.89,3.56,5.07,5.07,0,0,1-3.34,1.2c-4.18,0-5.79-4-5.79-7.9,0-4.7,2.17-8,5.73-8a4.7,4.7,0,0,1,4.06,2.14c1.22,1.81,1.42,4.15,1.39,6.35Zm7.35-1.64c-.05-3.15-1.36-5.26-3.65-5.26s-3.65,2.25-3.7,5.26Z"/><path class="cls-15" d="M1440.63,682.52c0,3.15,1.28,5.62,3.84,5.62a3.44,3.44,0,0,0,3.4-3h1.84a6,6,0,0,1-1.89,3.56,5.06,5.06,0,0,1-3.34,1.2c-4.17,0-5.79-4-5.79-7.9,0-4.7,2.17-8,5.73-8a4.7,4.7,0,0,1,4.06,2.14c1.22,1.81,1.42,4.15,1.39,6.35Zm7.35-1.64c-.06-3.15-1.36-5.26-3.65-5.26s-3.65,2.25-3.7,5.26Z"/><path class="cls-15" d="M1453.9,674.39h1.78c0,.78,0,1.59-.05,2.48a3.74,3.74,0,0,1,3.84-2.84,3.59,3.59,0,0,1,2.64,1,3.52,3.52,0,0,1,.83,1.81,4.14,4.14,0,0,1,1.25-1.92A4.63,4.63,0,0,1,1467,674a3.89,3.89,0,0,1,3.53,1.95,9.11,9.11,0,0,1,.7,4.15v9.41h-1.87v-9.27a9.11,9.11,0,0,0-.31-2.81,2.32,2.32,0,0,0-2.31-1.59,2.77,2.77,0,0,0-2.45,1.22,5.93,5.93,0,0,0-.81,3.31v9.13h-1.86v-9.18a9.09,9.09,0,0,0-.31-2.89,2.29,2.29,0,0,0-2.28-1.59,2.86,2.86,0,0,0-2.45,1.17,6,6,0,0,0-.81,3.42v9.07h-1.87Z"/><path class="cls-15" d="M1476,668.93h1.87v5.46c0,1.34,0,2.17-.06,2.89a4,4,0,0,1,3.87-3.26c3.2,0,5.09,3.28,5.09,7.9,0,4.81-2.06,8-5.09,8-1.75,0-3.14-.89-4-3.28,0,.92,0,1.78,0,2.92H1476Zm8.91,13c0-3.26-1.14-6.07-3.51-6.07-2.62,0-3.54,3.06-3.54,6.1s.92,6.1,3.54,6.1c2.37,0,3.51-2.81,3.51-6.1Z"/><path class="cls-15" d="M1500.67,689.53h-1.72c0-1.34,0-2.17,0-2.89a4.16,4.16,0,0,1-4,3.26c-3,0-5.07-3.17-5.07-7.9s1.89-8,5.07-8c1.7,0,3.2.86,4,3.28,0-.92,0-1.78,0-2.92h1.72Zm-8.91-7.54c0,3.42,1.22,6.07,3.54,6.07a3,3,0,0,0,2.64-1.67,8.45,8.45,0,0,0,.86-4.43,8.32,8.32,0,0,0-.86-4.43,3,3,0,0,0-2.64-1.67c-2.31,0-3.54,2.64-3.54,6.1Z"/><path class="cls-15" d="M1505.46,674.39h1.73c0,1.39,0,2.25-.06,3.17.75-3,2.7-3.48,4-3.53v2.17a1.26,1.26,0,0,0-.7-.19c-1.28,0-3.14,1.59-3.14,5.4v8.13h-1.87Z"/><path class="cls-15" d="M1523.91,695.12H1522v-5.59c0-1.34,0-2.12.06-2.84a4.07,4.07,0,0,1-3.9,3.2c-3.17,0-5.07-3.28-5.07-7.9,0-4.81,2.06-8,5.07-8,1.78,0,3.28,1,4,3.26,0-.92,0-1.75,0-2.89h1.78ZM1515,682c0,3.42,1.22,6.07,3.53,6.07a3,3,0,0,0,2.64-1.67A8.44,8.44,0,0,0,1522,682a8.31,8.31,0,0,0-.86-4.43,3,3,0,0,0-2.64-1.67c-2.31,0-3.53,2.64-3.53,6.1Z"/><path class="cls-15" d="M1538.85,689.53h-1.73c0-.86,0-1.7.06-2.64a4.25,4.25,0,0,1-4.23,3c-2.59,0-4.34-1.5-4.34-5.18V674.39h1.86v9.74c0,1.53.22,3.92,2.89,3.92,2.2,0,3.62-1.53,3.62-4.7v-9h1.87Z"/><path class="cls-15" d="M1544.83,682.52c0,3.15,1.28,5.62,3.84,5.62a3.44,3.44,0,0,0,3.39-3h1.84a6.06,6.06,0,0,1-1.89,3.56,5.07,5.07,0,0,1-3.34,1.2c-4.18,0-5.79-4-5.79-7.9,0-4.7,2.17-8,5.73-8a4.7,4.7,0,0,1,4.06,2.14c1.22,1.81,1.42,4.15,1.39,6.35Zm7.35-1.64c-.05-3.15-1.36-5.26-3.65-5.26s-3.65,2.25-3.7,5.26Zm-.58-12.75.78,1.5-6.23,3.31-.7-1.31Z"/><path class="cls-15" d="M1559.24,682.52c0,3.15,1.28,5.62,3.84,5.62a3.44,3.44,0,0,0,3.4-3h1.84a6.05,6.05,0,0,1-1.89,3.56,5.06,5.06,0,0,1-3.34,1.2c-4.17,0-5.79-4-5.79-7.9,0-4.7,2.17-8,5.73-8a4.7,4.7,0,0,1,4.06,2.14c1.22,1.81,1.42,4.15,1.39,6.35Zm7.35-1.64c-.06-3.15-1.36-5.26-3.65-5.26s-3.65,2.25-3.7,5.26Z"/><rect class="cls-18" x="494.59" y="817.21" width="920.65" height="58.14" rx="15.88" ry="15.88"/><path class="cls-4" d="M535.48,832.2h4.13L543,846.41l3.49-14.21h4l-5.64,20.66h-3.74Z"/><path class="cls-4" d="M551.62,844.9c0-4.55,2-8.24,6.12-8.24s6.12,3.69,6.12,8.27-2,8.27-6.12,8.27-6.12-3.69-6.12-8.27Zm4,.06c0,3.71.84,4.72,2.21,4.72s2.09-1,2.09-4.75-.84-4.75-2.21-4.75-2.09,1-2.09,4.75Z"/><path class="cls-4" d="M578.17,852.86h-3.38v-1.68c-.47,1.28-1.29,2-3.24,2-2.51,0-4.1-1.4-4.1-4.61V837h3.74v10.36c0,1.09.25,2.09,1.56,2.09,1,0,1.68-.5,1.68-1.84V837h3.74Z"/><path class="cls-4" d="M588.5,841.69c-.06-1.17-.53-1.79-1.68-1.79a1.19,1.19,0,0,0-1.34,1.23c0,1.34,1.79,1.45,3.57,2a4.54,4.54,0,0,1,3.57,4.86c0,3-2.35,5.19-5.61,5.19-3,0-5.45-1.68-5.78-5.42H585a2,2,0,0,0,2.15,2,1.42,1.42,0,0,0,1.54-1.59c0-1.37-1.79-1.51-3.57-2.09s-3.57-1.68-3.57-4.83c0-2.65,1.84-4.61,5.42-4.61s5.08,2,5.31,5Z"/><path class="cls-4" d="M608.32,846.27c0,1.56.42,3.41,2.09,3.41,1,0,1.67-.61,2-2h3.71a6.38,6.38,0,0,1-2.29,4.44,5.81,5.81,0,0,1-3.38,1c-4.16,0-6.12-3.69-6.12-8.27s2-8.27,6.12-8.27a5,5,0,0,1,4.61,2.54c1.17,2,1.26,4.64,1.17,7.06Zm6.9-10.89H612L610.27,833l-1.76,2.35h-3.18l3.15-4.13h3.57Zm-2.76,7.71c0-.95-.14-3.35-2-3.35-1.31,0-2.15,1.12-2.15,3.35Z"/><path class="cls-4" d="M620.38,840.52H618.7V837h1.68v-3h3.74v3h1.67v3.52h-1.67v12.34h-3.74Z"/><path class="cls-4" d="M632,846.27c0,1.56.42,3.41,2.09,3.41,1,0,1.67-.61,2-2h3.71a6.38,6.38,0,0,1-2.29,4.44,5.81,5.81,0,0,1-3.38,1c-4.16,0-6.12-3.69-6.12-8.27s2-8.27,6.12-8.27a5,5,0,0,1,4.61,2.54c1.17,2,1.26,4.64,1.17,7.06Zm4.13-3.18c0-.95-.14-3.35-2-3.35-1.31,0-2.15,1.12-2.15,3.35Z"/><path class="cls-4" d="M649.64,841.69c-.05-1.17-.53-1.79-1.67-1.79a1.19,1.19,0,0,0-1.34,1.23c0,1.34,1.79,1.45,3.57,2a4.54,4.54,0,0,1,3.57,4.86c0,3-2.35,5.19-5.61,5.19-3,0-5.45-1.68-5.78-5.42h3.74a2,2,0,0,0,2.15,2,1.42,1.42,0,0,0,1.54-1.59c0-1.37-1.79-1.51-3.57-2.09s-3.57-1.68-3.57-4.83c0-2.65,1.84-4.61,5.42-4.61s5.08,2,5.31,5Z"/><path class="cls-4" d="M666,837h3.41v1.51a3.17,3.17,0,0,1,3.07-1.84c2.85,0,5,2.57,5,8.27,0,5.36-1.76,8.27-5,8.27a3,3,0,0,1-2.74-1.51v6.2H666Zm7.74,7.9c0-3.49-.73-4.5-2-4.5a1.57,1.57,0,0,0-1.37.7c-.47.59-.59,1.34-.59,3.83s.11,3.24.59,3.83a1.57,1.57,0,0,0,1.37.7c1.31,0,2-1,2-4.52Z"/><path class="cls-4" d="M684.53,846.27c0,1.56.42,3.41,2.09,3.41,1,0,1.67-.61,2-2h3.71a6.38,6.38,0,0,1-2.29,4.44,5.81,5.81,0,0,1-3.38,1c-4.16,0-6.12-3.69-6.12-8.27s2-8.27,6.12-8.27a5,5,0,0,1,4.61,2.54c1.17,2,1.26,4.64,1.17,7.06Zm4.13-3.18c0-.95-.14-3.35-2-3.35-1.31,0-2.15,1.12-2.15,3.35Z"/><path class="cls-4" d="M706.92,852.86h-3.38v-1.68c-.47,1.28-1.28,2-3.24,2-2.51,0-4.1-1.4-4.1-4.61V837h3.74v10.36c0,1.09.25,2.09,1.56,2.09,1,0,1.68-.5,1.68-1.84V837h3.74Z"/><path class="cls-4" d="M711.66,840.52H710V837h1.68v-3h3.74v3h1.68v3.52h-1.68v12.34h-3.74Z"/><path class="cls-4" d="M732.44,846.27c0,1.56.42,3.41,2.09,3.41,1,0,1.68-.61,2-2h3.71a6.38,6.38,0,0,1-2.29,4.44,5.81,5.81,0,0,1-3.38,1c-4.16,0-6.12-3.69-6.12-8.27s2-8.27,6.12-8.27a5,5,0,0,1,4.61,2.54c1.17,2,1.26,4.64,1.17,7.06Zm6.9-10.89h-3.18L734.39,833l-1.76,2.35h-3.18l3.16-4.13h3.57Zm-2.76,7.71c0-.95-.14-3.35-2-3.35-1.31,0-2.15,1.12-2.15,3.35Z"/><path class="cls-4" d="M744.49,840.52h-1.68V837h1.68v-3h3.74v3h1.68v3.52h-1.68v12.34h-3.74Z"/><path class="cls-4" d="M753,837h3.41v2.07c.56-2,2-2.4,4-2.4v4.61a2.81,2.81,0,0,0-1.65-.47c-1.4,0-2,1.17-2,2.79v9.27H753Z"/><path class="cls-4" d="M766.38,846.27c0,1.56.42,3.41,2.09,3.41,1,0,1.67-.61,2-2h3.71a6.38,6.38,0,0,1-2.29,4.44,5.81,5.81,0,0,1-3.38,1c-4.16,0-6.12-3.69-6.12-8.27s2-8.27,6.12-8.27a5,5,0,0,1,4.61,2.54c1.17,2,1.26,4.64,1.17,7.06Zm4.13-3.18c0-.95-.14-3.35-2-3.35-1.31,0-2.15,1.12-2.15,3.35Z"/><path class="cls-4" d="M787.32,832.2h3.74v20.66h-3.74Z"/><path class="cls-4" d="M806.53,852.86h-3.41v-1.51A3.13,3.13,0,0,1,800,853.2c-2.85,0-5-2.57-5-8.27,0-5.36,1.76-8.27,5-8.27a3,3,0,0,1,3.07,2V837h3.41Zm-7.73-7.9c0,3.49.78,4.5,2,4.5a1.63,1.63,0,0,0,1.48-.7c.47-.59.47-1.34.47-3.83s0-3.24-.47-3.83a1.63,1.63,0,0,0-1.48-.7c-1.26,0-2,1-2,4.52Z"/><path class="cls-4" d="M819.76,837h3.41v1.51a3.17,3.17,0,0,1,3.07-1.84c2.85,0,5,2.57,5,8.27,0,5.36-1.76,8.27-5,8.27a3,3,0,0,1-2.74-1.51v6.2h-3.74Zm7.73,7.9c0-3.49-.73-4.5-2-4.5a1.56,1.56,0,0,0-1.37.7c-.47.59-.59,1.34-.59,3.83s.11,3.24.59,3.83a1.56,1.56,0,0,0,1.37.7c1.31,0,2-1,2-4.52Z"/><path class="cls-4" d="M838.24,846.27c0,1.56.42,3.41,2.09,3.41,1,0,1.67-.61,2-2H846a6.38,6.38,0,0,1-2.29,4.44,5.81,5.81,0,0,1-3.38,1c-4.16,0-6.12-3.69-6.12-8.27s2-8.27,6.12-8.27a5,5,0,0,1,4.61,2.54c1.17,2,1.26,4.64,1.17,7.06Zm4.13-3.18c0-.95-.14-3.35-2-3.35-1.31,0-2.15,1.12-2.15,3.35Z"/><path class="cls-4" d="M849.91,837h3.41v2.07c.56-2,2-2.4,4-2.4v4.61a2.81,2.81,0,0,0-1.65-.47c-1.4,0-2,1.17-2,2.79v9.27h-3.74Z"/><path class="cls-4" d="M866.16,841.69c-.06-1.17-.53-1.79-1.68-1.79a1.19,1.19,0,0,0-1.34,1.23c0,1.34,1.79,1.45,3.57,2a4.54,4.54,0,0,1,3.57,4.86c0,3-2.35,5.19-5.61,5.19-3,0-5.44-1.68-5.78-5.42h3.74a2,2,0,0,0,2.15,2,1.42,1.42,0,0,0,1.54-1.59c0-1.37-1.79-1.51-3.57-2.09s-3.57-1.68-3.57-4.83c0-2.65,1.84-4.61,5.42-4.61s5.08,2,5.31,5Z"/><path class="cls-4" d="M872.94,844.9c0-4.55,2-8.24,6.12-8.24s6.12,3.69,6.12,8.27-2,8.27-6.12,8.27-6.12-3.69-6.12-8.27Zm4,.06c0,3.71.84,4.72,2.21,4.72s2.09-1,2.09-4.75-.84-4.75-2.21-4.75-2.09,1-2.09,4.75Z"/><path class="cls-4" d="M888.77,837H892v1.51a3.31,3.31,0,0,1,3.38-1.84c2.51,0,4.11,1.4,4.11,4.61v11.59h-3.74V842.5c0-1.09-.25-2.09-1.56-2.09-1,0-1.67.5-1.67,1.84v10.61h-3.74Z"/><path class="cls-4" d="M903.84,837h3.24v1.51a3.31,3.31,0,0,1,3.38-1.84c2.51,0,4.1,1.4,4.1,4.61v11.59h-3.74V842.5c0-1.09-.25-2.09-1.56-2.09-1,0-1.68.5-1.68,1.84v10.61h-3.74Z"/><path class="cls-4" d="M922.32,846.27c0,1.56.42,3.41,2.09,3.41,1,0,1.68-.61,2-2h3.71a6.38,6.38,0,0,1-2.29,4.44,5.81,5.81,0,0,1-3.38,1c-4.16,0-6.12-3.69-6.12-8.27s2-8.27,6.12-8.27a5,5,0,0,1,4.61,2.54c1.17,2,1.26,4.64,1.17,7.06Zm4.13-3.18c0-.95-.14-3.35-2-3.35-1.31,0-2.15,1.12-2.15,3.35Z"/><path class="cls-4" d="M953.59,857.89h-3.74v-5c0-.45,0-.89,0-1.37a2.78,2.78,0,0,1-2.76,1.7c-3.24,0-5-2.9-5-8.27,0-5.7,2.15-8.27,5-8.27,1.48,0,2.76.81,3,1.84V837h3.52ZM945.86,845c0,3.49.78,4.5,2,4.5a1.63,1.63,0,0,0,1.48-.7c.47-.59.47-1.34.47-3.83s0-3.24-.47-3.83a1.63,1.63,0,0,0-1.48-.7c-1.26,0-2,1-2,4.52Z"/><path class="cls-4" d="M968.67,852.86h-3.38v-1.68c-.47,1.28-1.28,2-3.24,2-2.51,0-4.1-1.4-4.1-4.61V837h3.74v10.36c0,1.09.25,2.09,1.56,2.09,1,0,1.67-.5,1.67-1.84V837h3.74Z"/><path class="cls-4" d="M973.41,832.2h3.74v3.13h-3.74Zm0,4.8h3.74v15.86h-3.74Z"/><path class="cls-4" d="M997.28,852.86h-3.41L989.3,837h3.8l2.43,10.16L997.62,837h3.8Z"/><path class="cls-4" d="M1004.68,832.2h3.74v3.13h-3.74Zm0,4.8h3.74v15.86h-3.74Z"/><path class="cls-4" d="M1016.57,846.27c0,1.56.42,3.41,2.09,3.41,1,0,1.67-.61,2-2h3.71a6.38,6.38,0,0,1-2.29,4.44,5.81,5.81,0,0,1-3.38,1c-4.16,0-6.12-3.69-6.12-8.27s2-8.27,6.12-8.27a5,5,0,0,1,4.61,2.54c1.17,2,1.26,4.64,1.17,7.06Zm4.13-3.18c0-.95-.14-3.35-2-3.35-1.31,0-2.15,1.12-2.15,3.35Z"/><path class="cls-4" d="M1028.24,837h3.24v1.51a3.31,3.31,0,0,1,3.38-1.84c2.51,0,4.1,1.4,4.1,4.61v11.59h-3.74V842.5c0-1.09-.25-2.09-1.56-2.09-1,0-1.68.5-1.68,1.84v10.61h-3.74Z"/><path class="cls-4" d="M1054,852.86h-3.41v-1.79a3,3,0,0,1-3.07,2.12c-2.85,0-5-2.57-5-8.27,0-5.36,1.76-8.27,5-8.27a2.79,2.79,0,0,1,2.76,1.68c0-.45,0-.89,0-1.34v-4.8H1054Zm-7.73-7.9c0,3.49.78,4.5,2,4.5a1.63,1.63,0,0,0,1.48-.7c.47-.59.47-1.34.47-3.83s0-3.24-.47-3.83a1.63,1.63,0,0,0-1.48-.7c-1.26,0-2,1-2,4.52Z"/><path class="cls-4" d="M1058.39,837h3.41v2.07c.56-2,2-2.4,4-2.4v4.61a2.81,2.81,0,0,0-1.65-.47c-1.4,0-2,1.17-2,2.79v9.27h-3.74Z"/><path class="cls-4" d="M1079.11,852.86h-3.41v-1.51a3.13,3.13,0,0,1-3.07,1.84c-2.85,0-5-2.57-5-8.27,0-5.36,1.76-8.27,5-8.27a3,3,0,0,1,3.07,2V837h3.41Zm-7.73-7.9c0,3.49.78,4.5,2,4.5a1.63,1.63,0,0,0,1.48-.7c.47-.59.47-1.34.47-3.83s0-3.24-.47-3.83a1.63,1.63,0,0,0-1.48-.7c-1.26,0-2,1-2,4.52Z"/><path class="cls-4" d="M1092.34,837h3.41v2.07c.56-2,2-2.4,4-2.4v4.61a2.82,2.82,0,0,0-1.65-.47c-1.4,0-2,1.17-2,2.79v9.27h-3.74Z"/><path class="cls-4" d="M1105.74,846.27c0,1.56.42,3.41,2.09,3.41,1,0,1.68-.61,2-2h3.71a6.38,6.38,0,0,1-2.29,4.44,5.81,5.81,0,0,1-3.38,1c-4.16,0-6.12-3.69-6.12-8.27s2-8.27,6.12-8.27a5,5,0,0,1,4.61,2.54c1.17,2,1.26,4.64,1.17,7.06Zm4.13-3.18c0-.95-.14-3.35-2-3.35-1.31,0-2.15,1.12-2.15,3.35Z"/><path class="cls-4" d="M1117.4,837h3.24v1.51a3.31,3.31,0,0,1,3.38-1.84c2.51,0,4.1,1.4,4.1,4.61v11.59h-3.74V842.5c0-1.09-.25-2.09-1.56-2.09-1,0-1.68.5-1.68,1.84v10.61h-3.74Z"/><path class="cls-4" d="M1132.76,840.52h-1.45V837h1.45v-.64c0-4.19,3.69-4.52,5.81-4.52v3.24c-.87,0-2.07,0-2.07,1.65V837h2.07v3.52h-2.07v12.34h-3.74Z"/><path class="cls-4" d="M1140.47,844.9c0-4.55,2-8.24,6.12-8.24s6.12,3.69,6.12,8.27-2,8.27-6.12,8.27-6.12-3.69-6.12-8.27Zm4,.06c0,3.71.84,4.72,2.21,4.72s2.09-1,2.09-4.75-.84-4.75-2.21-4.75-2.09,1-2.09,4.75Z"/><path class="cls-4" d="M1156.29,837h3.41v2.07c.56-2,2-2.4,4-2.4v4.61a2.81,2.81,0,0,0-1.65-.47c-1.4,0-2,1.17-2,2.79v9.27h-3.74Z"/><path class="cls-4" d="M1176.62,846.83c0,3.24-1.62,6.37-5.11,6.37-3.77,0-6.14-3-6.14-8.27s2.37-8.27,6.14-8.27c3.49,0,5.11,3.07,5.11,6.37h-3.91c0-1.9-.5-2.85-1.48-2.85a1.42,1.42,0,0,0-1.4,1,9.61,9.61,0,0,0-.5,3.74c0,3.63.7,4.75,1.9,4.75s1.48-1.28,1.48-2.85Z"/><path class="cls-4" d="M1183.21,846.27c0,1.56.42,3.41,2.09,3.41,1,0,1.68-.61,2-2H1191a6.38,6.38,0,0,1-2.29,4.44,5.81,5.81,0,0,1-3.38,1c-4.16,0-6.12-3.69-6.12-8.27s2-8.27,6.12-8.27a5,5,0,0,1,4.61,2.54c1.17,2,1.26,4.64,1.17,7.06Zm4.13-3.18c0-.95-.14-3.35-2-3.35-1.31,0-2.15,1.12-2.15,3.35Z"/><path class="cls-4" d="M1194.87,837h3.41v2.07c.56-2,2-2.4,4-2.4v4.61a2.81,2.81,0,0,0-1.65-.47c-1.4,0-2,1.17-2,2.79v9.27h-3.74Z"/><path class="cls-4" d="M1214.16,837h3.24v1.51a3.31,3.31,0,0,1,3.38-1.84c2.51,0,4.11,1.4,4.11,4.61v11.59h-3.74V842.5c0-1.09-.25-2.09-1.56-2.09-1,0-1.67.5-1.67,1.84v10.61h-3.74Z"/><path class="cls-4" d="M1228.48,844.9c0-4.55,2-8.24,6.12-8.24s6.12,3.69,6.12,8.27-2,8.27-6.12,8.27-6.12-3.69-6.12-8.27Zm4,.06c0,3.71.84,4.72,2.21,4.72s2.09-1,2.09-4.75-.84-4.75-2.21-4.75-2.09,1-2.09,4.75Z"/><path class="cls-4" d="M1244.71,840.52H1243V837h1.68v-3h3.74v3h1.67v3.52h-1.67v12.34h-3.74Z"/><path class="cls-4" d="M1253.19,837h3.41v2.07c.56-2,2-2.4,4-2.4v4.61a2.82,2.82,0,0,0-1.65-.47c-1.4,0-2,1.17-2,2.79v9.27h-3.74Z"/><path class="cls-4" d="M1266.59,846.27c0,1.56.42,3.41,2.09,3.41,1,0,1.68-.61,2-2h3.71a6.38,6.38,0,0,1-2.29,4.44,5.81,5.81,0,0,1-3.38,1c-4.16,0-6.12-3.69-6.12-8.27s2-8.27,6.12-8.27a5,5,0,0,1,4.61,2.54c1.17,2,1.26,4.64,1.17,7.06Zm4.13-3.18c0-.95-.14-3.35-2-3.35-1.31,0-2.15,1.12-2.15,3.35Z"/><path class="cls-4" d="M1290.55,846.27c0,1.56.42,3.41,2.09,3.41,1,0,1.68-.61,2-2h3.71a6.38,6.38,0,0,1-2.29,4.44,5.81,5.81,0,0,1-3.38,1c-4.16,0-6.12-3.69-6.12-8.27s2-8.27,6.12-8.27a5,5,0,0,1,4.61,2.54c1.17,2,1.26,4.64,1.17,7.06Zm5.61-16,1.42,3-6.48,2.88-1.28-2.43Zm-1.48,12.82c0-.95-.14-3.35-2-3.35-1.31,0-2.15,1.12-2.15,3.35Z"/><path class="cls-4" d="M1312.94,857.89h-3.74v-5c0-.45,0-.89,0-1.37a2.78,2.78,0,0,1-2.76,1.7c-3.24,0-5-2.9-5-8.27,0-5.7,2.15-8.27,5-8.27,1.48,0,2.76.81,3,1.84V837h3.52ZM1305.2,845c0,3.49.78,4.5,2,4.5a1.63,1.63,0,0,0,1.48-.7c.47-.59.47-1.34.47-3.83s0-3.24-.47-3.83a1.63,1.63,0,0,0-1.48-.7c-1.26,0-2,1-2,4.52Z"/><path class="cls-4" d="M1328,852.86h-3.38v-1.68c-.47,1.28-1.28,2-3.24,2-2.51,0-4.1-1.4-4.1-4.61V837H1321v10.36c0,1.09.25,2.09,1.56,2.09,1,0,1.68-.5,1.68-1.84V837H1328Z"/><path class="cls-4" d="M1332.75,832.2h3.74v3.13h-3.74Zm0,4.8h3.74v15.86h-3.74Z"/><path class="cls-4" d="M1341.24,837h3.41v1.51a3.17,3.17,0,0,1,3.07-1.84c2.85,0,5,2.57,5,8.27,0,5.36-1.76,8.27-5,8.27a3,3,0,0,1-2.74-1.51v6.2h-3.74Zm7.74,7.9c0-3.49-.73-4.5-2-4.5a1.57,1.57,0,0,0-1.37.7c-.47.59-.59,1.34-.59,3.83s.11,3.24.59,3.83a1.57,1.57,0,0,0,1.37.7c1.31,0,2-1,2-4.52Z"/><path class="cls-4" d="M1359.72,846.27c0,1.56.42,3.41,2.09,3.41,1,0,1.68-.61,2-2h3.71a6.38,6.38,0,0,1-2.29,4.44,5.81,5.81,0,0,1-3.38,1c-4.16,0-6.12-3.69-6.12-8.27s2-8.27,6.12-8.27a5,5,0,0,1,4.61,2.54c1.17,2,1.26,4.64,1.17,7.06Zm4.13-3.18c0-.95-.14-3.35-2-3.35-1.31,0-2.15,1.12-2.15,3.35Z"/><path class="cls-4" d="M1375.24,852.86h-3.74v-4.13h3.74Z"/></g><g id="cases_jeu1"><rect class="cls-15" x="565.36" y="309.82" width="41.32" height="41.32" rx="7.48" ry="7.48"/><path class="cls-19" d="M599.19,312.32a5,5,0,0,1,5,5v26.36a5,5,0,0,1-5,5H572.84a5,5,0,0,1-5-5V317.3a5,5,0,0,1,5-5h26.36m0-5H572.84a10,10,0,0,0-10,10v26.36a10,10,0,0,0,10,10h26.36a10,10,0,0,0,10-10V317.3a10,10,0,0,0-10-10Z"/><rect class="cls-15" x="565.36" y="366.19" width="41.32" height="41.32" rx="7.48" ry="7.48"/><path class="cls-19" d="M599.19,368.69a5,5,0,0,1,5,5V400a5,5,0,0,1-5,5H572.84a5,5,0,0,1-5-5V373.67a5,5,0,0,1,5-5h26.36m0-5H572.84a10,10,0,0,0-10,10V400a10,10,0,0,0,10,10h26.36a10,10,0,0,0,10-10V373.67a10,10,0,0,0-10-10Z"/><rect class="cls-15" x="952.34" y="309.82" width="41.32" height="41.32" rx="7.48" ry="7.48"/><path class="cls-19" d="M986.18,312.32a5,5,0,0,1,5,5v26.36a5,5,0,0,1-5,5H959.82a5,5,0,0,1-5-5V317.3a5,5,0,0,1,5-5h26.36m0-5H959.82a10,10,0,0,0-10,10v26.36a10,10,0,0,0,10,10h26.36a10,10,0,0,0,10-10V317.3a10,10,0,0,0-10-10Z"/><rect class="cls-15" x="952.34" y="366.19" width="41.32" height="41.32" rx="7.48" ry="7.48"/><path class="cls-19" d="M986.18,368.7a5,5,0,0,1,5,5V400a5,5,0,0,1-5,5H959.82a5,5,0,0,1-5-5V373.67a5,5,0,0,1,5-5h26.36m0-5H959.82a10,10,0,0,0-10,10V400a10,10,0,0,0,10,10h26.36a10,10,0,0,0,10-10V373.67a10,10,0,0,0-10-10Z"/><rect class="cls-15" x="451.07" y="601.32" width="41.32" height="41.32" rx="7.48" ry="7.48"/><path class="cls-19" d="M484.91,603.82a5,5,0,0,1,5,5v26.36a5,5,0,0,1-5,5H458.55a5,5,0,0,1-5-5V608.8a5,5,0,0,1,5-5h26.36m0-5H458.55a10,10,0,0,0-10,10v26.36a10,10,0,0,0,10,10h26.36a10,10,0,0,0,10-10V608.8a10,10,0,0,0-10-10Z"/><rect class="cls-15" x="451.07" y="657.69" width="41.32" height="41.32" rx="7.48" ry="7.48"/><path class="cls-19" d="M484.91,660.19a5,5,0,0,1,5,5v26.36a5,5,0,0,1-5,5H458.55a5,5,0,0,1-5-5V665.17a5,5,0,0,1,5-5h26.36m0-5H458.55a10,10,0,0,0-10,10v26.36a10,10,0,0,0,10,10h26.36a10,10,0,0,0,10-10V665.17a10,10,0,0,0-10-10Z"/><rect class="cls-15" x="451.07" y="714.06" width="41.32" height="41.32" rx="7.48" ry="7.48"/><path class="cls-19" d="M484.91,716.56a5,5,0,0,1,5,5V747.9a5,5,0,0,1-5,5H458.55a5,5,0,0,1-5-5V721.54a5,5,0,0,1,5-5h26.36m0-5H458.55a10,10,0,0,0-10,10V747.9a10,10,0,0,0,10,10h26.36a10,10,0,0,0,10-10V721.54a10,10,0,0,0-10-10Z"/><rect class="cls-15" x="843.95" y="602.6" width="41.32" height="41.32" rx="7.48" ry="7.48"/><path class="cls-19" d="M877.79,605.1a5,5,0,0,1,5,5v26.36a5,5,0,0,1-5,5H851.43a5,5,0,0,1-5-5V610.08a5,5,0,0,1,5-5h26.36m0-5H851.43a10,10,0,0,0-10,10v26.36a10,10,0,0,0,10,10h26.36a10,10,0,0,0,10-10V610.08a10,10,0,0,0-10-10Z"/><rect class="cls-15" x="843.95" y="658.97" width="41.32" height="41.32" rx="7.48" ry="7.48"/><path class="cls-19" d="M877.79,661.47a5,5,0,0,1,5,5v26.36a5,5,0,0,1-5,5H851.43a5,5,0,0,1-5-5V666.45a5,5,0,0,1,5-5h26.36m0-5H851.43a10,10,0,0,0-10,10v26.36a10,10,0,0,0,10,10h26.36a10,10,0,0,0,10-10V666.45a10,10,0,0,0-10-10Z"/><rect class="cls-15" x="843.95" y="714.06" width="41.32" height="41.32" rx="7.48" ry="7.48"/><path class="cls-19" d="M877.79,716.56a5,5,0,0,1,5,5V747.9a5,5,0,0,1-5,5H851.43a5,5,0,0,1-5-5V721.54a5,5,0,0,1,5-5h26.36m0-5H851.43a10,10,0,0,0-10,10V747.9a10,10,0,0,0,10,10h26.36a10,10,0,0,0,10-10V721.54a10,10,0,0,0-10-10Z"/></g><g id="coches_bonnes_rponses" data-name="coches bonnes rponses"><polygon class="cls-20" points="571.8 380.71 587.84 398.89 583.5 399.59 600.6 354.52 601.31 354.76 588.19 401.14 586.69 406.45 583.86 401.83 571.19 381.16 571.8 380.71"/><polygon class="cls-20" points="958.57 380.71 974.61 398.89 970.27 399.59 987.37 354.52 988.08 354.76 974.97 401.14 973.46 406.45 970.63 401.83 957.96 381.16 958.57 380.71"/><polygon class="cls-20" points="457.51 617.4 473.55 635.58 469.21 636.28 486.31 591.21 487.02 591.45 473.9 637.83 472.4 643.14 469.57 638.52 456.9 617.85 457.51 617.4"/><polygon class="cls-20" points="457.51 670.95 473.55 689.12 469.21 689.82 486.31 644.75 487.02 644.99 473.9 691.37 472.4 696.68 469.57 692.06 456.9 671.39 457.51 670.95"/><polygon class="cls-20" points="850.19 617.4 866.22 635.58 861.89 636.28 878.98 591.21 879.7 591.45 866.58 637.83 865.08 643.14 862.25 638.52 849.58 617.85 850.19 617.4"/><polygon class="cls-20" points="850.19 670.95 866.22 689.12 861.89 689.82 878.98 644.75 879.7 644.99 866.58 691.37 865.08 696.68 862.25 692.06 849.58 671.39 850.19 670.95"/><polygon class="cls-20" points="457.51 731.38 473.55 749.56 469.21 750.25 486.31 705.19 487.02 705.43 473.9 751.8 472.4 757.12 469.57 752.5 456.9 731.83 457.51 731.38"/></g></g></svg>