<?xml version="1.0" encoding="utf-8"?>
<!-- Generator: Adobe Illustrator 21.1.0, SVG Export Plug-In . SVG Version: 6.00 Build 0)  -->
<svg version="1.1" id="Calque_1" xmlns="http://www.w3.org/2000/svg" xmlns:xlink="http://www.w3.org/1999/xlink" x="0px" y="0px"
	 viewBox="0 0 598.5 131.9" style="enable-background:new 0 0 598.5 131.9;" xml:space="preserve">
<style type="text/css">
	.st0{fill:#FFFFFF;}
	.st1{opacity:0.2;fill:#105768;enable-background:new    ;}
	.st2{fill:#FEFEFF;}
	.st3{fill:#D8D8D8;}
</style>
<title>game3b_item1</title>
<g id="Calque_2-2">
	<path class="st0" d="M20.5,14.8"/>
	<polygon class="st1" points="537,9 7.2,17 0,131.9 586.1,107.2 579.2,30.3 	"/>
	<polygon class="st2" points="549.4,0 19.5,7.9 12.4,122.9 598.5,98.2 591.5,21.2 	"/>
	<path d="M41.8,39.4h2.3l0.2,11.7c0.1,4.7-2.2,6.1-5.2,6.2c-0.8,0-1.6-0.1-2.4-0.4L37,55c0.6,0.2,1.3,0.3,1.9,0.3c2,0,3.2-1,3.2-4.4
		L41.8,39.4z"/>
	<path d="M49.9,51c0.1,3,2.1,4.3,4.4,4.3c1.2,0,2.4-0.2,3.5-0.7l0.4,1.6C56.9,56.7,55.4,57,54,57c-3.9,0.1-6.2-2.5-6.3-6.2
		s2.1-6.8,5.8-6.9c4.1-0.1,5.2,3.5,5.3,5.8c0,0.4,0,0.7-0.1,1.1L49.9,51z M56.6,49.3c0-1.5-0.7-3.7-3.2-3.7c-2.3,0-3.3,2.2-3.5,3.8
		L56.6,49.3z"/>
	<path d="M77.5,56c-1.1,0.5-2.4,0.8-3.6,0.8c-3.8,0.1-6.3-2.5-6.4-6.3c-0.2-3.5,2.5-6.6,6-6.8c0.2,0,0.5,0,0.7,0
		c1.1,0,2.2,0.2,3.2,0.6L76.9,46c-0.8-0.4-1.7-0.6-2.7-0.6c-2.9,0-4.4,2.2-4.4,4.8c0,2.9,1.9,4.7,4.4,4.6c1,0,1.9-0.2,2.8-0.7
		L77.5,56z"/>
	<path d="M92,49.8c0.1,4.7-3.1,6.7-6.2,6.8c-3.4,0-6.1-2.4-6.1-6.4c-0.1-4.2,2.7-6.7,6.1-6.8S91.9,46,92,49.8z M82,50.1
		c0,2.8,1.7,4.8,3.9,4.8s3.8-2.1,3.8-4.9c0-2.1-1.1-4.8-3.8-4.8S82,47.7,82,50.1z"/>
	<path d="M95.5,47c0-1.3-0.1-2.4-0.2-3.4h2l0.2,2.1h0.1c0.8-1.5,2.4-2.4,4.1-2.4s4.5,1,4.5,5.3l0.1,7.5L104,56l-0.1-7.2
		c0-2-0.8-3.7-3-3.7c-1.4,0.1-2.6,1-3,2.4c-0.1,0.3-0.2,0.7-0.1,1.1l0.1,7.6h-2.3L95.5,47z"/>
	<path d="M111,43.3l2.6,7c0.4,1.1,0.8,2.1,1.1,3.2h0.1c0.3-1,0.6-2.1,1-3.2l2.3-7.1h2.4l-4.8,12.7h-2.2l-5-12.5L111,43.3z"/>
	<path d="M134.5,49.2c0.1,4.7-3.1,6.7-6.2,6.8c-3.4,0-6.1-2.4-6.1-6.4c-0.1-4.2,2.7-6.7,6.1-6.8C131.9,42.7,134.5,45.3,134.5,49.2z
		 M124.5,49.4c0,2.8,1.7,4.8,3.9,4.8s3.8-2.1,3.8-4.9c0-2.1-1.1-4.8-3.8-4.8S124.5,47,124.5,49.4L124.5,49.4z"/>
	<path d="M146.7,53.4L146.7,53.4c-0.9,1.5-2.4,2.4-4.1,2.3c-2.9,0-5.4-2.5-5.4-6.3c-0.1-4.7,2.9-6.8,5.6-6.9
		c1.6-0.1,3.1,0.7,3.9,2.1h0.1v-1.9h2.2c0,1.1,0,2.2,0,3.5l0.2,14.3h-2.3L146.7,53.4z M146.6,47.9c0-0.3,0-0.7-0.1-1
		c-0.4-1.5-1.7-2.6-3.3-2.5c-2.4,0-3.8,2.1-3.7,4.9c0,2.5,1.3,4.7,3.8,4.6c1.5,0,2.9-1.1,3.2-2.5c0.1-0.4,0.2-0.7,0.2-1.1
		L146.6,47.9z"/>
	<path d="M163.9,51.7c0,1.3,0.1,2.4,0.2,3.4h-2l-0.2-2h-0.1c-0.8,1.5-2.4,2.4-4.1,2.4c-2,0-4.4-1-4.4-5.5l-0.1-7.4h2.3l0.1,7
		c0,2.4,0.8,4,2.9,4c1.8,0,3.2-1.5,3.2-3.3l0,0l-0.1-7.7h2.3L163.9,51.7z"/>
	<path d="M169.6,49.2c0.1,3.1,2.1,4.3,4.4,4.3c1.2,0,2.4-0.2,3.5-0.7l0.4,1.6c-1.3,0.6-2.7,0.9-4.2,0.8c-3.9,0.1-6.2-2.5-6.3-6.2
		s2.1-6.8,5.8-6.9c4.1-0.1,5.2,3.5,5.3,5.8c0,0.4,0,0.7-0.1,1.1L169.6,49.2z M176.3,47.4c0-1.5-0.6-3.7-3.2-3.7
		c-2.3,0-3.3,2.2-3.4,3.8L176.3,47.4z"/>
	<path d="M188,36.3h2.3l0.3,18.5h-2.3L188,36.3z"/>
	<path d="M202,54.5l-0.2-1.5h-0.1c-0.9,1.2-2.3,1.9-3.8,1.9c-2,0.2-3.7-1.3-3.9-3.3c0-0.1,0-0.2,0-0.3c0-3,2.6-4.8,7.5-4.8v-0.3
		c0.2-1.4-0.9-2.7-2.3-2.9c-0.2,0-0.4,0-0.6,0c-1.2,0-2.3,0.4-3.3,1l-0.5-1.5c1.2-0.8,2.7-1.2,4.1-1.2c3.9-0.1,4.8,2.5,4.9,5.1
		l0.1,4.7c0,1,0.1,2,0.2,3L202,54.5z M201.6,48.1c-2.5,0-5.3,0.5-5.3,2.9c-0.1,1.1,0.7,2.1,1.8,2.2c0.1,0,0.2,0,0.4,0
		c1.4,0,2.6-0.9,3-2.2c0.1-0.2,0.1-0.5,0.1-0.7V48.1z"/>
	<path d="M214.3,45.2c0-1.3-0.1-2.4-0.2-3.4h2l0.2,2.1h0.1c0.8-1.5,2.4-2.4,4.1-2.4c1.7,0,4.5,1,4.5,5.3l0.1,7.5h-2.3l-0.1-7.2
		c0-2-0.8-3.7-3-3.7c-1.4,0.1-2.6,1-3,2.4c-0.1,0.3-0.2,0.7-0.1,1.1l0.1,7.6h-2.3L214.3,45.2z"/>
	<path d="M240.8,47.6c0.1,4.7-3.1,6.7-6.2,6.8c-3.4,0-6.1-2.4-6.1-6.4c-0.1-4.2,2.7-6.7,6.1-6.8S240.7,43.7,240.8,47.6z M230.8,47.8
		c0,2.8,1.7,4.8,3.9,4.8s3.8-2.1,3.8-5c0-2.1-1.1-4.8-3.8-4.8S230.8,45.5,230.8,47.8L230.8,47.8z"/>
	<path d="M254.9,50.3c0,1.3,0.1,2.4,0.2,3.4h-2l-0.2-2h-0.1c-0.8,1.5-2.4,2.4-4.1,2.4c-2,0-4.4-1-4.4-5.5l-0.1-7.4h2.3l0.1,7
		c0,2.4,0.8,4,2.9,4c1.8,0,3.2-1.5,3.2-3.3l0,0l-0.1-7.7h2.3L254.9,50.3z"/>
	<path d="M260.1,41.1l2.6,7c0.4,1.1,0.8,2.1,1.1,3.2h0.1c0.3-1,0.6-2.1,1-3.2l2.4-7.1h2.4l-4.8,12.7h-2.2l-5-12.5L260.1,41.1z"/>
	<path d="M273.5,47.6c0.1,3.1,2.1,4.3,4.4,4.3c1.2,0,2.4-0.2,3.5-0.7l0.4,1.6c-1.3,0.6-2.7,0.9-4.2,0.8c-3.9,0.1-6.2-2.5-6.3-6.2
		s2.1-6.8,5.8-6.9c4.1-0.1,5.2,3.5,5.3,5.8c0,0.4,0,0.7-0.1,1.1L273.5,47.6z M280.1,45.9c0-1.5-0.6-3.7-3.2-3.7
		c-2.3,0-3.3,2.2-3.5,3.8L280.1,45.9z"/>
	<path d="M195.3,80.9c0.1,3.1,2.1,4.3,4.4,4.3c1.2,0,2.4-0.2,3.5-0.7l0.4,1.6c-1.3,0.6-2.7,0.9-4.2,0.8c-3.9,0.1-6.2-2.5-6.3-6.2
		c0-3.8,2.1-6.8,5.8-6.9c4.1-0.1,5.2,3.5,5.3,5.8c0,0.4,0,0.7-0.1,1.1L195.3,80.9z M202,79.2c0-1.5-0.6-3.7-3.2-3.7
		c-2.3,0-3.3,2.2-3.5,3.8L202,79.2z"/>
	<path d="M285.7,34.8h2.3l0.3,18.5H286L285.7,34.8z"/>
	<path d="M292.4,34.7h2.3l0.3,18.4h-2.3L292.4,34.7z"/>
	<path d="M300.7,47.2c0.1,3.1,2.1,4.3,4.4,4.3c1.2,0,2.4-0.2,3.5-0.7l0.4,1.6c-1.3,0.6-2.7,0.9-4.2,0.8c-3.9,0.1-6.2-2.5-6.3-6.2
		s2.1-6.8,5.8-6.9c4.1-0.1,5.2,3.5,5.3,5.8c0,0.4,0,0.7-0.1,1.1L300.7,47.2z M307.4,45.5c0-1.5-0.6-3.7-3.2-3.7
		c-2.3,0-3.3,2.2-3.5,3.8L307.4,45.5z"/>
	<path d="M320.5,46.9c0.1,3.1,2.1,4.3,4.4,4.3c1.2,0,2.4-0.2,3.5-0.7l0.4,1.6c-1.3,0.6-2.7,0.9-4.2,0.8c-3.9,0.1-6.2-2.5-6.3-6.2
		s2.1-6.8,5.8-6.9c4.1-0.1,5.2,3.5,5.3,5.8c0,0.4,0,0.7-0.1,1.1L320.5,46.9z M327.2,45.2c0-1.5-0.6-3.7-3.2-3.7
		c-2.3,0-3.3,2.2-3.5,3.8L327.2,45.2z"/>
	<path d="M332.9,43.4c0-1.3-0.1-2.4-0.2-3.4h2l0.1,2h0.1c0.7-1.5,2.3-2.4,3.9-2.4s3.1,1,3.6,2.5l0,0c0.3-0.6,0.8-1.2,1.4-1.7
		c0.8-0.6,1.8-1,2.8-0.9c1.7,0,4.1,1,4.2,5.4l0.1,7.4h-2.2l-0.1-7.1c0-2.4-0.9-3.9-2.8-3.8c-1.2,0.1-2.3,0.9-2.7,2.1
		c-0.1,0.4-0.2,0.8-0.2,1.2l0.1,7.8h-2.2l-0.1-7.5c0-2-0.9-3.4-2.7-3.4c-1.3,0.1-2.5,1-2.8,2.3c-0.1,0.4-0.2,0.7-0.2,1.1l0.1,7.6
		H333L332.9,43.4z"/>
	<path d="M355.2,52.2c0-0.9,0.1-2.1,0.1-3.2l-0.2-15.2h2.3l0.1,7.9l0,0c0.9-1.5,2.5-2.4,4.2-2.4c3.1,0,5.4,2.5,5.4,6.3
		c0.1,4.5-2.7,6.8-5.5,6.8c-1.7,0.1-3.4-0.8-4.2-2.3h-0.1l-0.1,2.1C357.2,52.2,355.2,52.2,355.2,52.2z M357.5,47.2
		c0,0.3,0.1,0.6,0.1,0.8c0.4,1.6,1.8,2.7,3.5,2.6c2.4,0,3.8-2,3.8-4.9c0-2.5-1.4-4.7-3.8-4.6c-1.7,0.1-3.1,1.2-3.4,2.9
		c-0.1,0.3-0.1,0.6-0.1,0.9L357.5,47.2z"/>
	<path d="M377.8,51.9l-0.2-1.6h-0.1c-0.9,1.2-2.3,1.9-3.8,1.9c-2,0.2-3.7-1.3-3.9-3.3c0-0.1,0-0.2,0-0.3c0-3,2.6-4.8,7.5-4.8v-0.3
		c0.2-1.4-0.9-2.7-2.3-2.9c-0.2,0-0.4,0-0.6,0c-1.2,0-2.3,0.4-3.3,1l-0.5-1.5c1.2-0.8,2.7-1.2,4.1-1.2c3.9-0.1,4.8,2.5,4.9,5.1
		l0.1,4.7c0,1,0.1,2,0.2,3L377.8,51.9z M377.3,45.5c-2.5,0-5.3,0.5-5.3,2.9c-0.1,1.1,0.7,2.1,1.8,2.2c0.1,0,0.2,0,0.4,0
		c1.4,0,2.6-0.9,3-2.2c0.1-0.2,0.1-0.5,0.1-0.7V45.5z"/>
	<path d="M394.5,48.2c0,1.3,0.1,2.4,0.2,3.4h-2l-0.2-2l0,0c-0.8,1.5-2.4,2.4-4.1,2.4c-2,0-4.4-1-4.4-5.5l-0.1-7.4h2.3l0.1,7
		c0,2.4,0.8,4,2.9,4c1.8,0,3.2-1.5,3.2-3.3l0,0l-0.2-7.8h2.3L394.5,48.2z"/>
	<path d="M407.9,51c-1.1,0.5-2.4,0.8-3.6,0.8c-3.8,0.1-6.3-2.5-6.4-6.3c-0.2-3.5,2.5-6.6,6-6.8c0.2,0,0.5,0,0.7,0
		c1.1,0,2.2,0.2,3.2,0.6l-0.5,1.7c-0.8-0.4-1.7-0.6-2.7-0.6c-2.9,0-4.4,2.2-4.4,4.8c0,2.9,1.9,4.7,4.4,4.6c1,0,1.9-0.2,2.8-0.7
		L407.9,51z"/>
	<path d="M411,33h2.3l0.1,7.8l0,0c0.3-0.7,0.9-1.3,1.5-1.7c0.7-0.4,1.5-0.7,2.3-0.7c1.7,0,4.4,1,4.5,5.3l0.1,7.5h-2.3l-0.1-7.2
		c0-2-0.8-3.7-3-3.7c-1.4,0.1-2.6,1-3,2.3c-0.1,0.4-0.2,0.7-0.1,1.1l0.1,7.6h-2.3L411,33z"/>
	<path d="M427.5,45.3c0.1,3.1,2.1,4.3,4.4,4.3c1.2,0,2.4-0.2,3.5-0.7l0.4,1.6c-1.3,0.6-2.7,0.9-4.2,0.8c-3.9,0.1-6.2-2.5-6.3-6.2
		s2.1-6.8,5.8-6.9c4.1-0.1,5.2,3.5,5.3,5.8c0,0.4,0,0.7-0.1,1.1L427.5,45.3z M434.2,43.6c0-1.5-0.6-3.7-3.2-3.7
		c-2.3,0-3.3,2.2-3.5,3.8L434.2,43.6z M434.6,33l-3.1,3.8h-1.6L432,33H434.6z"/>
	<path d="M441.2,45.1c0.1,3.1,2.1,4.3,4.4,4.3c1.2,0,2.4-0.2,3.5-0.7l0.4,1.6c-1.3,0.6-2.7,0.9-4.2,0.8c-3.9,0.1-6.2-2.5-6.3-6.2
		s2.1-6.8,5.8-6.9c4.1-0.1,5.2,3.5,5.3,5.8c0,0.4,0,0.7-0.1,1.1L441.2,45.1z M447.9,43.3c0-1.5-0.6-3.7-3.2-3.7
		c-2.3,0-3.3,2.2-3.5,3.8L447.9,43.3z"/>
	<path d="M451.9,54c0.7-2,1.2-4.1,1.5-6.2l2.5-0.3c-0.6,2.2-1.4,4.3-2.4,6.3L451.9,54z"/>
	<path d="M474.5,50c-1.1,0.5-2.4,0.8-3.6,0.8c-3.8,0.1-6.3-2.5-6.4-6.3c-0.2-3.5,2.5-6.6,6-6.8c0.2,0,0.5,0,0.7,0
		c1.1,0,2.2,0.2,3.2,0.6l-0.5,1.7c-0.8-0.4-1.7-0.6-2.7-0.6c-2.9,0-4.4,2.2-4.4,4.8c0,2.9,1.9,4.7,4.4,4.6c1,0,1.9-0.2,2.8-0.7
		L474.5,50z"/>
	<path d="M489,43.8c0.1,4.7-3.1,6.7-6.2,6.8c-3.4,0-6.1-2.4-6.1-6.4c-0.1-4.2,2.7-6.7,6.1-6.8S488.9,40,489,43.8z M479,44.1
		c0,2.8,1.7,4.8,3.9,4.8s3.8-2.1,3.8-5c0-2.1-1.1-4.8-3.8-4.8S479,41.7,479,44.1z"/>
	<path d="M492.5,41c0-1.3-0.1-2.4-0.1-3.4h2l0.1,2h0.1c0.7-1.5,2.3-2.4,3.9-2.4s3.1,1,3.6,2.5l0,0c0.3-0.7,0.8-1.2,1.4-1.7
		c0.8-0.6,1.8-1,2.8-0.9c1.7,0,4.1,1,4.2,5.4l0.1,7.4h-2.2l-0.1-7.1c0-2.4-0.9-3.9-2.8-3.8c-1.2,0.1-2.3,0.9-2.7,2.1
		c-0.1,0.4-0.2,0.8-0.2,1.2l0.1,7.8h-2.2l-0.1-7.5c0-2-0.9-3.4-2.7-3.4c-1.7,0.2-3,1.7-3,3.5l0.1,7.6h-2.2L492.5,41z"/>
	<path d="M514.8,40.7c0-1.3-0.1-2.4-0.2-3.4h2l0.1,2h0.1c0.7-1.5,2.3-2.4,3.9-2.4c1.6,0,3.1,1,3.6,2.5l0,0c0.3-0.6,0.8-1.2,1.4-1.7
		c0.8-0.6,1.8-1,2.8-0.9c1.7,0,4.2,1,4.2,5.4l0.1,7.4h-2.2l-0.1-7.1c0-2.4-0.9-3.9-2.8-3.8c-1.2,0.1-2.3,0.9-2.7,2.1
		c-0.1,0.4-0.2,0.8-0.2,1.2l0.1,7.8h-2.2l-0.1-7.5c0-2-0.9-3.4-2.7-3.4c-1.3,0.1-2.5,1-2.8,2.3c-0.1,0.4-0.2,0.7-0.2,1.1l0.1,7.6
		h-2.2L514.8,40.7z"/>
	<path d="M538.5,43.6c0.1,3.1,2.1,4.3,4.4,4.3c1.2,0,2.4-0.2,3.5-0.7l0.4,1.6c-1.3,0.6-2.7,0.9-4.2,0.8c-3.9,0.1-6.2-2.5-6.3-6.2
		s2.1-6.8,5.8-6.9c4.1-0.1,5.2,3.5,5.3,5.8c0,0.4,0,0.7-0.1,1.1L538.5,43.6z M545.1,41.9c0-1.5-0.7-3.7-3.2-3.7
		c-2.3,0-3.3,2.2-3.5,3.8L545.1,41.9z"/>
	<path d="M550.8,40.2c0-1.3-0.1-2.4-0.2-3.4h2l0.2,2.1l0,0c0.8-1.5,2.4-2.5,4.1-2.5c1.7,0,4.5,1,4.5,5.3l0.1,7.5h-2.3l-0.1-7.2
		c0-2-0.8-3.7-3-3.7c-1.4,0.1-2.6,1-3,2.4c-0.1,0.3-0.2,0.7-0.1,1.1l0.1,7.6h-2.3V40.2z"/>
	<path d="M568.4,32.9v3.6h3.3v1.7h-3.3l0.1,6.8c0,1.6,0.5,2.4,1.8,2.4c0.4,0,0.9-0.1,1.3-0.2l0.1,1.7c-0.6,0.2-1.3,0.3-2,0.3
		c-0.9,0.1-1.8-0.3-2.5-0.9c-0.7-0.9-1-2.1-0.9-3.3l-0.1-6.9h-2v-1.7h2v-3L568.4,32.9z"/>
	<path d="M89.5,86c0.9,0.5,1.9,0.8,3,0.9c1.7,0,2.4-0.9,2.4-1.9s-0.7-1.7-2.3-2.3c-2.3-0.8-3.4-2-3.4-3.5c0-2,1.6-3.7,4.3-3.8
		c1.1,0,2.2,0.2,3.1,0.7L96,77.8c-0.8-0.5-1.7-0.7-2.6-0.7c-1.3,0-2.1,0.8-2.1,1.8s0.8,1.5,2.4,2.1c2.2,0.8,3.3,1.9,3.4,3.8
		c0,2.2-1.7,3.8-4.7,3.8c-1.2,0-2.5-0.2-3.6-0.8L89.5,86z"/>
	<path d="M102.9,70.2c-0.6,2.1-1.3,4.2-2.3,6.2l-1.4,0.2c0.7-2,1.1-4,1.4-6.1L102.9,70.2z"/>
	<path d="M105.5,82.2c0.1,3.1,2.1,4.3,4.4,4.3c1.2,0,2.4-0.2,3.5-0.7l0.4,1.6c-1.3,0.6-2.7,0.9-4.2,0.8c-3.9,0.1-6.2-2.5-6.3-6.2
		s2.1-6.8,5.8-6.9c4.1-0.1,5.2,3.5,5.3,5.8c0,0.4,0,0.7-0.1,1.1L105.5,82.2z M112.2,80.5c0-1.5-0.7-3.7-3.2-3.7
		c-2.3,0-3.3,2.2-3.4,3.8L112.2,80.5z"/>
	<path d="M117.7,85.5c0.9,0.5,1.9,0.8,3,0.9c1.7,0,2.4-0.9,2.4-1.9s-0.7-1.7-2.4-2.3c-2.3-0.8-3.4-2-3.4-3.5c0-2,1.6-3.7,4.3-3.8
		c1.1,0,2.2,0.2,3.1,0.7l-0.5,1.7c-0.8-0.5-1.7-0.7-2.6-0.7c-1.4,0-2.1,0.8-2.1,1.8s0.8,1.5,2.4,2.1c2.2,0.8,3.3,1.9,3.4,3.8
		c0,2.2-1.7,3.8-4.6,3.8c-1.2,0-2.5-0.2-3.6-0.8L117.7,85.5z"/>
	<path d="M131.5,71.5l0.1,3.6h3.3v1.7h-3.3l0.1,6.8c0,1.6,0.5,2.4,1.8,2.4c0.4,0,0.9-0.1,1.3-0.2l0.1,1.7c-0.6,0.2-1.3,0.3-2,0.3
		c-0.9,0.1-1.8-0.3-2.5-0.9c-0.7-0.9-1-2.1-0.9-3.3l-0.1-6.9h-1.9V75h1.9v-3L131.5,71.5z"/>
	<path d="M144.2,79c0-1.6-0.1-2.9-0.2-4.1h2.1l0.1,2.2h0.1c0.9-1.6,2.6-2.5,4.4-2.5c3,0,5.4,2.5,5.4,6.3c0.1,4.5-2.6,6.8-5.6,6.8
		c-1.5,0.1-3-0.6-3.9-1.9h-0.1l0.1,6.8h-2.3L144.2,79z M146.5,82.3c0,0.3,0.1,0.6,0.1,0.9c0.4,1.6,1.8,2.7,3.5,2.6
		c2.4,0,3.8-2,3.8-4.9c0-2.5-1.4-4.7-3.8-4.6c-1.6,0.1-3,1.3-3.4,2.9c-0.1,0.3-0.1,0.6-0.1,0.9L146.5,82.3z"/>
	<path d="M166.8,87.2l-0.2-1.6h-0.1c-0.9,1.2-2.3,1.9-3.8,1.9c-2,0.2-3.7-1.3-3.9-3.3c0-0.1,0-0.2,0-0.3c0-3,2.6-4.8,7.5-4.8v-0.3
		c0.2-1.4-0.9-2.7-2.3-2.9c-0.2,0-0.4,0-0.6,0c-1.2,0-2.3,0.4-3.3,1l-0.5-1.5c1.2-0.8,2.7-1.2,4.1-1.2c3.9-0.1,4.8,2.6,4.9,5.1
		l0.1,4.7c0,1,0.1,2,0.2,3L166.8,87.2z M166.3,80.7c-2.5,0-5.3,0.5-5.3,2.9c-0.1,1.1,0.7,2.1,1.8,2.2c0.1,0,0.2,0,0.4,0
		c1.4,0,2.6-0.9,3-2.2c0.1-0.2,0.1-0.5,0.1-0.7V80.7z"/>
	<path d="M172.6,84.7c0.9,0.5,1.9,0.8,3,0.9c1.7,0,2.4-0.9,2.4-1.9s-0.7-1.7-2.4-2.3c-2.3-0.8-3.4-2-3.4-3.5c0-2,1.6-3.7,4.3-3.8
		c1.1,0,2.2,0.2,3.1,0.7l-0.5,1.7c-0.8-0.5-1.7-0.7-2.6-0.7c-1.4,0-2.1,0.8-2.1,1.8s0.8,1.5,2.4,2.1c2.2,0.8,3.3,1.9,3.4,3.8
		c0,2.2-1.7,3.8-4.6,3.8c-1.2,0-2.5-0.2-3.6-0.8L172.6,84.7z"/>
	<path d="M183.6,84.6c0.9,0.5,1.9,0.8,3,0.9c1.7,0,2.4-0.9,2.4-1.9s-0.7-1.7-2.4-2.3c-2.3-0.8-3.4-2-3.4-3.5c0-2,1.6-3.7,4.3-3.8
		c1.1,0,2.2,0.2,3.1,0.7l-0.6,1.7c-0.8-0.5-1.7-0.7-2.6-0.7c-1.4,0-2.1,0.8-2.1,1.8s0.8,1.5,2.4,2.1c2.2,0.8,3.3,1.9,3.4,3.8
		c0,2.2-1.7,3.8-4.6,3.8c-1.2,0-2.5-0.2-3.6-0.8L183.6,84.6z"/>
	<path d="M207.9,80.6c0.1,3.1,2.1,4.3,4.4,4.3c1.2,0,2.4-0.2,3.5-0.7l0.4,1.6c-1.3,0.6-2.7,0.9-4.2,0.8c-3.9,0.1-6.2-2.5-6.3-6.2
		s2.1-6.8,5.8-6.9c4.1-0.1,5.2,3.5,5.3,5.8c0,0.4,0,0.7-0.1,1.1L207.9,80.6z M214.5,78.8c0-1.5-0.6-3.7-3.2-3.7
		c-2.3,0-3.3,2.2-3.4,3.8L214.5,78.8z M203.9,68.3l-3.1,3.8h-1.6l2.2-3.8H203.9z"/>
	<path d="M235.5,85.6c-1.1,0.5-2.4,0.8-3.6,0.8c-3.8,0.1-6.3-2.5-6.4-6.3c-0.2-3.5,2.5-6.6,6-6.8c0.2,0,0.5,0,0.7,0
		c1.1,0,2.2,0.2,3.2,0.6l-0.5,1.8c-0.8-0.4-1.7-0.6-2.7-0.6c-2.9,0-4.4,2.2-4.4,4.8c0,2.9,1.9,4.7,4.4,4.6c1,0,1.9-0.2,2.8-0.7
		L235.5,85.6z"/>
	<path d="M239.9,80.1c0.1,3.1,2.1,4.3,4.4,4.3c1.2,0,2.4-0.2,3.5-0.7l0.4,1.6c-1.3,0.6-2.7,0.9-4.2,0.8c-3.9,0.1-6.2-2.4-6.3-6.2
		s2.1-6.8,5.8-6.9c4.1-0.1,5.2,3.5,5.3,5.8c0,0.4,0,0.7-0.1,1.1L239.9,80.1z M246.5,78.4c0-1.5-0.6-3.7-3.2-3.7
		c-2.3,0-3.3,2.2-3.4,3.8L246.5,78.4z"/>
	<path d="M254.9,69.6l0.1,3.6h3.3v1.7H255l0.1,6.8c0,1.6,0.5,2.4,1.8,2.4c0.4,0,0.9-0.1,1.3-0.2l0.1,1.7c-0.6,0.2-1.3,0.3-2,0.3
		c-0.9,0.1-1.8-0.3-2.5-0.9c-0.7-0.9-1-2.1-0.9-3.3l-0.1-6.9h-1.9v-1.7h1.9v-3L254.9,69.6z"/>
	<path d="M264.1,69.4V73h3.3v1.7h-3.3l0.1,6.8c0,1.6,0.5,2.4,1.8,2.4c0.4,0,0.9-0.1,1.3-0.2l0.1,1.7c-0.6,0.2-1.3,0.3-2,0.3
		c-0.9,0.1-1.8-0.3-2.5-0.9c-0.7-0.9-1-2.1-0.9-3.3l-0.1-6.9h-2v-1.7h2v-3L264.1,69.4z"/>
	<path d="M271.9,79.6c0.1,3.1,2.1,4.3,4.4,4.3c1.2,0,2.4-0.2,3.5-0.7l0.4,1.6c-1.3,0.6-2.7,0.9-4.2,0.8c-3.9,0.1-6.2-2.5-6.3-6.2
		s2.1-6.8,5.8-6.9c4.1-0.1,5.2,3.5,5.3,5.8c0,0.4,0,0.7-0.1,1.1L271.9,79.6z M278.5,77.9c0-1.5-0.6-3.7-3.2-3.7
		c-2.3,0-3.3,2.2-3.5,3.8L278.5,77.9z"/>
	<path d="M290.4,76.8c0-1.6-0.1-2.9-0.2-4.1h2l0.1,2.2l0,0c0.9-1.6,2.6-2.5,4.4-2.5c3,0,5.4,2.5,5.4,6.3c0.1,4.5-2.6,6.8-5.6,6.8
		c-1.5,0.1-3-0.6-3.9-1.9l0,0l0.1,6.8h-2.3V76.8z M292.7,80.1c0,0.3,0.1,0.6,0.1,0.9c0.4,1.6,1.8,2.7,3.5,2.6c2.4,0,3.8-2,3.8-4.9
		c0-2.5-1.4-4.7-3.8-4.6c-1.7,0.1-3.1,1.3-3.4,2.9c-0.1,0.3-0.1,0.6-0.1,0.9L292.7,80.1z"/>
	<path d="M305.8,76.3c0-1.5-0.1-2.8-0.2-3.9h2l0.1,2.5h0.1c0.4-1.6,1.8-2.8,3.4-2.9c0.2,0,0.4,0,0.6,0.1v2.2
		c-0.3-0.1-0.5-0.1-0.8-0.1c-1.6,0.1-2.9,1.4-3,3c-0.1,0.4-0.1,0.7-0.1,1.1L308,85l-2,0L305.8,76.3z"/>
	<path d="M316,79c0.1,3.1,2.1,4.3,4.4,4.3c1.2,0,2.4-0.2,3.5-0.7l0.4,1.6c-1.3,0.6-2.7,0.9-4.2,0.8c-3.9,0.1-6.2-2.4-6.3-6.2
		s2.1-6.8,5.8-6.9c4.1-0.1,5.2,3.5,5.3,5.8c0,0.4,0,0.7-0.1,1.1L316,79z M322.7,77.3c0-1.5-0.6-3.7-3.2-3.7c-2.3,0-3.3,2.2-3.5,3.8
		L322.7,77.3z"/>
	<path d="M328.4,75.5c0-1.3-0.1-2.4-0.2-3.4h2l0.1,2h0.1c0.7-1.5,2.3-2.4,3.9-2.4s3.1,1,3.6,2.5l0,0c0.3-0.6,0.8-1.2,1.4-1.7
		c0.8-0.6,1.8-1,2.8-0.9c1.7,0,4.1,1,4.2,5.4l0.1,7.4h-2.2l-0.1-7.1c0-2.4-0.9-3.9-2.8-3.8c-1.2,0.1-2.3,0.9-2.7,2.1
		c-0.1,0.4-0.2,0.8-0.2,1.2l0.1,7.8h-2.2l-0.1-7.5c0-2-0.9-3.4-2.7-3.4c-1.7,0.2-3,1.7-3,3.4l0.1,7.6h-2.2L328.4,75.5z"/>
	<path d="M353.2,68.2c-0.1,0.8-0.8,1.4-1.5,1.3s-1.2-0.6-1.3-1.3c0-0.8,0.6-1.4,1.3-1.4h0.1C352.6,66.8,353.2,67.3,353.2,68.2
		C353.2,68.1,353.2,68.1,353.2,68.2z M350.9,84.3l-0.2-12.6h2.3l0.2,12.6H350.9z"/>
	<path d="M358.8,78.3c0.1,3.1,2.1,4.3,4.4,4.3c1.2,0,2.4-0.2,3.5-0.7l0.4,1.6c-1.3,0.6-2.7,0.9-4.2,0.8c-3.9,0.1-6.2-2.4-6.3-6.2
		s2.1-6.8,5.8-6.9c4.1-0.1,5.2,3.5,5.3,5.8c0,0.4,0,0.7-0.1,1.1L358.8,78.3z M365.5,76.6c0-1.5-0.6-3.7-3.2-3.7
		c-2.3,0-3.3,2.2-3.5,3.8L365.5,76.6z M361.5,66.1l2.3,3.7h-1.6l-3.2-3.7H361.5z"/>
	<path d="M371.1,75.4c0-1.5-0.1-2.8-0.2-3.9h2L373,74h0.1c0.4-1.6,1.8-2.7,3.4-2.8c0.2,0,0.4,0,0.6,0.1v2.2
		c-0.3-0.1-0.5-0.1-0.8-0.1c-1.6,0.1-2.9,1.4-3,3c-0.1,0.4-0.1,0.7-0.1,1.1l0.1,6.7H371L371.1,75.4z"/>
	<path d="M381.4,78c0.1,3.1,2.1,4.3,4.4,4.3c1.2,0,2.4-0.2,3.5-0.7l0.4,1.6c-1.3,0.6-2.7,0.9-4.2,0.8c-3.9,0.1-6.2-2.5-6.3-6.2
		s2.1-6.8,5.8-6.9c4.1-0.1,5.2,3.5,5.3,5.8c0,0.4,0,0.7-0.1,1.1L381.4,78z M388,76.2c0-1.5-0.6-3.7-3.2-3.7c-2.3,0-3.3,2.2-3.5,3.8
		L388,76.2z"/>
	<path d="M399.6,81.2c0.9,0.5,1.9,0.8,3,0.9c1.7,0,2.4-0.9,2.4-1.9s-0.7-1.7-2.4-2.3c-2.3-0.8-3.4-2-3.4-3.5c0-2,1.6-3.7,4.3-3.8
		c1.1,0,2.2,0.2,3.1,0.7l-0.5,1.7c-0.8-0.5-1.7-0.7-2.6-0.7c-1.4,0-2.1,0.8-2.1,1.8s0.8,1.5,2.4,2.1c2.2,0.8,3.3,1.9,3.4,3.8
		c0,2.2-1.7,3.8-4.6,3.8c-1.2,0-2.4-0.2-3.5-0.8L399.6,81.2z"/>
	<path d="M412.1,77.5c0.1,3.1,2.1,4.3,4.4,4.3c1.2,0,2.4-0.2,3.5-0.7l0.4,1.6c-1.3,0.6-2.7,0.9-4.2,0.8c-3.9,0.1-6.2-2.4-6.3-6.2
		s2.1-6.8,5.8-6.9c4.1-0.1,5.2,3.5,5.3,5.8c0,0.4,0,0.7,0,1.1L412.1,77.5z M418.8,75.8c0-1.5-0.6-3.7-3.2-3.7
		c-2.3,0-3.3,2.2-3.5,3.8L418.8,75.8z"/>
	<path d="M424.5,74c0-1.3-0.1-2.4-0.2-3.4h2l0.1,2h0.1c0.7-1.5,2.3-2.4,3.9-2.4s3.1,1,3.6,2.5l0,0c0.3-0.6,0.8-1.2,1.4-1.7
		c0.8-0.6,1.8-1,2.8-0.9c1.7,0,4.1,1,4.2,5.4l0.1,7.4h-2.2l-0.1-7.1c0-2.4-0.9-3.9-2.8-3.8c-1.2,0.1-2.3,0.9-2.7,2.1
		c-0.1,0.4-0.2,0.8-0.2,1.2l0.1,7.8h-2.2l-0.1-7.5c0-2-0.9-3.4-2.7-3.4c-1.7,0.2-3,1.7-3,3.4l0.1,7.6h-2.2L424.5,74z"/>
	<path d="M453.9,82.8l-0.2-1.6h-0.1c-0.9,1.2-2.3,1.9-3.8,1.9c-2,0.2-3.7-1.3-3.9-3.3c0-0.1,0-0.2,0-0.3c0-3,2.6-4.8,7.5-4.8v-0.3
		c0.2-1.4-0.9-2.7-2.3-2.9c-0.2,0-0.4,0-0.6,0c-1.2,0-2.3,0.4-3.3,1l-0.5-1.5c1.2-0.8,2.7-1.2,4.1-1.1c3.9-0.1,4.8,2.6,4.9,5.1
		l0.1,4.7c0,1,0.1,2,0.2,3L453.9,82.8z M453.5,76.4c-2.5,0-5.3,0.5-5.3,2.9c-0.1,1.1,0.7,2.1,1.8,2.2c0.1,0,0.2,0,0.4,0
		c1.4,0,2.6-0.9,3-2.2c0.1-0.2,0.1-0.5,0.1-0.7V76.4z"/>
	<path d="M462.4,66.5c-0.1,0.8-0.8,1.4-1.5,1.3s-1.2-0.6-1.3-1.3c0-0.8,0.6-1.4,1.4-1.4l0,0C461.8,65.1,462.4,65.6,462.4,66.5
		L462.4,66.5z M460.1,82.7l-0.2-12.6h2.3l0.2,12.6H460.1z"/>
	<path d="M466.7,73.4c0-1.3-0.1-2.4-0.2-3.4h2l0.2,2.1l0,0c0.8-1.5,2.4-2.4,4.1-2.4s4.5,1,4.5,5.3l0.1,7.5h-2.3l-0.1-7.2
		c0-2-0.8-3.7-3-3.7c-1.4,0.1-2.6,1-3,2.4c-0.1,0.3-0.1,0.7-0.1,1.1l0.1,7.6h-2.3L466.7,73.4z"/>
	<path d="M483.1,76.5c0.1,3.1,2.1,4.3,4.4,4.3c1.2,0,2.4-0.2,3.5-0.7l0.4,1.6c-1.3,0.6-2.7,0.9-4.2,0.8c-3.9,0.1-6.2-2.5-6.3-6.2
		s2.1-6.8,5.8-6.9c4.1-0.1,5.2,3.5,5.3,5.8c0,0.4,0,0.7-0.1,1.1L483.1,76.5z M489.8,74.7c0-1.5-0.6-3.7-3.2-3.7
		c-2.3,0-3.3,2.2-3.5,3.8L489.8,74.7z"/>
	<path d="M503.5,77.1l-0.1-0.7c-0.1-1.7,0.4-3.3,1.5-4.5c1.1-1.4,1.8-2.4,1.8-3.6c0-1.3-0.9-2.2-2.5-2.2c-0.9,0-1.8,0.3-2.6,0.8
		l-0.6-1.6c1.1-0.7,2.4-1.1,3.7-1.1c3,0,4.4,1.8,4.4,3.8c0,1.8-0.9,3.1-2.2,4.6c-1,1-1.5,2.4-1.4,3.8V77L503.5,77.1z M503,80.7
		c-0.1-0.8,0.6-1.6,1.4-1.7h0.1c0.9-0.1,1.7,0.6,1.7,1.5c0.1,0.9-0.6,1.7-1.5,1.7C503.8,82.4,503,81.7,503,80.7
		C503,80.8,503,80.7,503,80.7z"/>
	<polygon class="st3" points="591.8,21.2 549.7,0 557.8,22.5 	"/>
</g>
</svg>
