<svg xmlns="http://www.w3.org/2000/svg" xmlns:xlink="http://www.w3.org/1999/xlink" viewBox="0 0 1920 1080"><defs><style>.cls-1{fill:none;}.cls-2,.cls-3{isolation:isolate;}.cls-3{fill:#105768;opacity:0.2;}.cls-4{fill:#fefeff;}.cls-5{fill:#8cc63f;}.cls-6{clip-path:url(#clip-path);}.cls-7{fill:#524538;}.cls-8{fill:#b3b3b3;}.cls-12,.cls-14,.cls-8{mix-blend-mode:multiply;}.cls-9{fill:#d6d8db;}.cls-10{fill:#f4d888;}.cls-11{fill:#ec967b;}.cls-12{fill:#d8d8d8;}.cls-13{clip-path:url(#clip-path-2);}.cls-14{fill:#d4d4d4;}.cls-15{fill:#646d78;}.cls-16{fill:#4e96b3;}.cls-17{fill:#f38174;}.cls-18{fill:#333;}.cls-19{fill:#fff;}.cls-20{fill:#fcc600;}.cls-21{fill:#464646;opacity:0.7;mix-blend-mode:soft-light;}.cls-22{clip-path:url(#clip-path-3);}.cls-23{fill:#999;}.cls-24{fill:lime;}</style><clipPath id="clip-path"><rect class="cls-1" x="-381.99" y="605.87" width="258.78" height="496.84"/></clipPath><clipPath id="clip-path-2"><rect class="cls-1" x="1686.72" y="0.05" width="233.28" height="397.42"/></clipPath><clipPath id="clip-path-3"><rect class="cls-1" y="255.39" width="346.98" height="824.61"/></clipPath></defs><title>game1bbis_bg3</title><g class="cls-2"><g id="contenu"><rect class="cls-3" x="280.36" y="-13.14" width="1300.08" height="1076.48"/><rect class="cls-4" x="304.87" y="-18.19" width="1300.08" height="1048.24"/><path class="cls-5" d="M766.2,346.86h465.39a0,0,0,0,1,0,0v30.31A20.59,20.59,0,0,1,1211,397.76H766.2a20.59,20.59,0,0,1-20.59-20.59v-9.72a20.59,20.59,0,0,1,20.59-20.59Z"/><g class="cls-6"><path class="cls-3" d="M661,565.49l-115.85,8.3-.62-8.63-20.28,1.45L523.44,555,480,558.14l1.45,20.21L204.82,598.17l-62.28,4.46L-313.65,635.3c-21.6,1.55-37.82,20.91-36.22,43.24L-296.19,1428c1.6,22.33,20.41,39.18,42,37.64l365.68-26.19,5.21,72.74,43.45-3.11L155,1436.32l47.07-3.37,62.28-4.46,456.2-32.68c21.6-1.55,37.82-20.9,36.22-43.24L703,603.13C701.43,580.8,682.62,563.95,661,565.49Z"/><path class="cls-7" d="M-310.16,695.3l53.68,749.44c1.6,22.33,20.41,39.18,42,37.63l974.67-69.81c21.6-1.55,37.81-20.91,36.22-43.24L742.73,619.88c-1.6-22.33-20.41-39.18-42-37.64l-974.67,69.81C-295.55,653.61-311.76,673-310.16,695.3Z"/><rect class="cls-8" x="211.91" y="616.09" width="62.43" height="832.44" transform="translate(-73.15 20.01) rotate(-4.1)"/><path class="cls-9" d="M-249.46,732.27l47.79,667.21c1.42,19.88,18.17,34.88,37.4,33.51l867.73-62.15c19.23-1.38,33.67-18.61,32.24-38.5L687.91,665.13c-1.42-19.88-18.17-34.88-37.4-33.51l-867.73,62.15C-236.45,695.16-250.88,712.39-249.46,732.27Z"/><rect class="cls-8" x="236.59" y="661.75" width="13.07" height="741.11" transform="translate(-73.2 20.03) rotate(-4.1)"/><rect class="cls-10" x="522" y="573.25" width="43.56" height="65.93" transform="translate(-41.92 40.4) rotate(-4.1)"/><rect class="cls-11" x="542.69" y="583.4" width="43.56" height="54.32" transform="translate(-42.18 41.89) rotate(-4.1)"/><path class="cls-12" d="M196.13,806.85l-406.06,29.09a5.9,5.9,0,0,1-6.31-5.46h0a5.9,5.9,0,0,1,5.46-6.3l406.06-29.09a5.9,5.9,0,0,1,6.3,5.46h0A5.9,5.9,0,0,1,196.13,806.85Z"/><path class="cls-12" d="M197.95,832.2l-406.06,29.09a5.9,5.9,0,0,1-6.31-5.46h0a5.9,5.9,0,0,1,5.46-6.3L197.1,820.43a5.9,5.9,0,0,1,6.3,5.46h0A5.9,5.9,0,0,1,197.95,832.2Z"/><path class="cls-12" d="M199.81,858.26l-406.06,29.09a5.9,5.9,0,0,1-6.31-5.46h0a5.9,5.9,0,0,1,5.46-6.31L199,846.49a5.9,5.9,0,0,1,6.3,5.46h0A5.9,5.9,0,0,1,199.81,858.26Z"/><path class="cls-12" d="M201.63,883.61l-406.06,29.09a5.9,5.9,0,0,1-6.31-5.46h0a5.9,5.9,0,0,1,5.46-6.3l406.06-29.09a5.9,5.9,0,0,1,6.3,5.46h0A5.9,5.9,0,0,1,201.63,883.61Z"/><path class="cls-12" d="M203.33,907.32l-406.06,29.09a5.9,5.9,0,0,1-6.3-5.46h0a5.89,5.89,0,0,1,5.46-6.3l406.06-29.09a5.9,5.9,0,0,1,6.31,5.46h0A5.9,5.9,0,0,1,203.33,907.32Z"/><path class="cls-12" d="M205.14,932.67l-406.06,29.09a5.9,5.9,0,0,1-6.3-5.46h0a5.9,5.9,0,0,1,5.46-6.3L204.3,920.9a5.9,5.9,0,0,1,6.31,5.46h0A5.9,5.9,0,0,1,205.14,932.67Z"/><path class="cls-12" d="M207,958.74-199,987.82a5.9,5.9,0,0,1-6.3-5.46h0a5.9,5.9,0,0,1,5.46-6.31L206.17,947a5.9,5.9,0,0,1,6.31,5.46h0A5.9,5.9,0,0,1,207,958.74Z"/><path class="cls-12" d="M208.83,984.08l-406.06,29.08a5.9,5.9,0,0,1-6.3-5.46h0a5.89,5.89,0,0,1,5.46-6.3L208,972.31a5.9,5.9,0,0,1,6.31,5.46h0A5.9,5.9,0,0,1,208.83,984.08Z"/><path class="cls-12" d="M213.22,1045.38l-406.06,29.09a5.9,5.9,0,0,1-6.3-5.46h0a5.9,5.9,0,0,1,5.46-6.31l406.06-29.09a5.9,5.9,0,0,1,6.3,5.46h0A5.9,5.9,0,0,1,213.22,1045.38Z"/><path class="cls-12" d="M215,1070.73-191,1099.81a5.9,5.9,0,0,1-6.3-5.46h0a5.9,5.9,0,0,1,5.46-6.31L214.19,1059a5.9,5.9,0,0,1,6.3,5.46h0A5.9,5.9,0,0,1,215,1070.73Z"/><path class="cls-12" d="M669.9,772.91,263.84,802a5.9,5.9,0,0,1-6.31-5.46h0a5.9,5.9,0,0,1,5.46-6.3l406.06-29.09a5.9,5.9,0,0,1,6.3,5.46h0A5.9,5.9,0,0,1,669.9,772.91Z"/><path class="cls-12" d="M671.71,798.26,265.65,827.34a5.9,5.9,0,0,1-6.31-5.46h0a5.9,5.9,0,0,1,5.46-6.3l406.06-29.09a5.9,5.9,0,0,1,6.3,5.46h0A5.9,5.9,0,0,1,671.71,798.26Z"/><path class="cls-12" d="M673.58,824.33,267.52,853.41a5.9,5.9,0,0,1-6.31-5.46h0a5.9,5.9,0,0,1,5.46-6.31l406.06-29.09A5.9,5.9,0,0,1,679,818h0A5.9,5.9,0,0,1,673.58,824.33Z"/><path class="cls-12" d="M675.39,849.67,269.33,878.76A5.9,5.9,0,0,1,263,873.3h0a5.9,5.9,0,0,1,5.46-6.31l406.06-29.08a5.9,5.9,0,0,1,6.3,5.46h0A5.9,5.9,0,0,1,675.39,849.67Z"/><path class="cls-12" d="M677.09,873.39,271,902.47a5.9,5.9,0,0,1-6.31-5.46h0a5.9,5.9,0,0,1,5.46-6.31l406.06-29.08a5.9,5.9,0,0,1,6.3,5.46h0A5.9,5.9,0,0,1,677.09,873.39Z"/><path class="cls-12" d="M678.91,898.73,272.85,927.82a5.9,5.9,0,0,1-6.31-5.46h0a5.9,5.9,0,0,1,5.46-6.3L678.07,887a5.9,5.9,0,0,1,6.31,5.46h0A5.9,5.9,0,0,1,678.91,898.73Z"/><path class="cls-12" d="M680.78,924.8,274.72,953.88a5.9,5.9,0,0,1-6.31-5.46h0a5.9,5.9,0,0,1,5.46-6.31L679.94,913a5.9,5.9,0,0,1,6.3,5.46h0A5.9,5.9,0,0,1,680.78,924.8Z"/><path class="cls-12" d="M682.59,950.15,276.53,979.23a5.9,5.9,0,0,1-6.31-5.46h0a5.9,5.9,0,0,1,5.46-6.3l406.06-29.09a5.9,5.9,0,0,1,6.3,5.46h0A5.9,5.9,0,0,1,682.59,950.15Z"/><path class="cls-12" d="M687,1011.45l-406.06,29.09a5.9,5.9,0,0,1-6.31-5.46h0a5.9,5.9,0,0,1,5.47-6.3l406.06-29.09a5.9,5.9,0,0,1,6.3,5.46h0A5.9,5.9,0,0,1,687,1011.45Z"/><path class="cls-12" d="M688.8,1036.79l-406.06,29.09a5.9,5.9,0,0,1-6.31-5.46h0a5.9,5.9,0,0,1,5.46-6.31L688,1025a5.9,5.9,0,0,1,6.31,5.46h0A5.9,5.9,0,0,1,688.8,1036.79Z"/><path class="cls-12" d="M690.67,1062.86l-406.06,29.08a5.9,5.9,0,0,1-6.31-5.46h0a5.9,5.9,0,0,1,5.47-6.3l406.06-29.09a5.9,5.9,0,0,1,6.3,5.46h0A5.9,5.9,0,0,1,690.67,1062.86Z"/><path class="cls-12" d="M692.48,1088.21l-406.06,29.09a5.9,5.9,0,0,1-6.31-5.46h0a5.9,5.9,0,0,1,5.46-6.31l406.06-29.08a5.9,5.9,0,0,1,6.3,5.46h0A5.9,5.9,0,0,1,692.48,1088.21Z"/></g><g class="cls-13"><path class="cls-3" d="M2704.22-537.17l-115.85,8.3-.62-8.63L2567.48-536l-.83-11.59-43.45,3.11,1.45,20.21L2248-504.49,2185.75-500l-456.19,32.68c-21.6,1.55-37.82,20.91-36.22,43.24L1747,325.32c1.6,22.33,20.41,39.18,42,37.64l365.68-26.19,5.21,72.74,43.45-3.11-5.21-72.74,47.07-3.37,62.28-4.46,456.2-32.68c21.6-1.55,37.82-20.9,36.22-43.24l-53.68-749.44C2744.63-521.87,2725.82-538.72,2704.22-537.17Z"/><path class="cls-7" d="M1733-407.36l53.68,749.44c1.6,22.33,20.41,39.18,42,37.63L2803.4,309.9c21.6-1.55,37.81-20.91,36.22-43.24l-53.68-749.44c-1.6-22.33-20.41-39.18-42-37.64L1769.26-450.6C1747.65-449.06,1731.44-429.7,1733-407.36Z"/><path class="cls-9" d="M1793.75-370.39l47.79,667.21c1.42,19.88,18.17,34.88,37.4,33.51l867.73-62.15c19.23-1.38,33.67-18.61,32.24-38.5l-47.79-667.21c-1.42-19.88-18.17-34.88-37.4-33.51L1826-408.88C1806.76-407.51,1792.32-390.27,1793.75-370.39Z"/><path class="cls-12" d="M2260.1-5.86,1854,23.22a5.9,5.9,0,0,1-6.3-5.46h0a5.9,5.9,0,0,1,5.46-6.3l406.06-29.09a5.9,5.9,0,0,1,6.31,5.46h0A5.9,5.9,0,0,1,2260.1-5.86Z"/><path class="cls-12" d="M2261.92,19.48,1855.86,48.56a5.9,5.9,0,0,1-6.3-5.46h0A5.9,5.9,0,0,1,1855,36.8L2261.08,7.71a5.9,5.9,0,0,1,6.31,5.46h0A5.9,5.9,0,0,1,2261.92,19.48Z"/><path class="cls-12" d="M2263.62,43.2,1857.56,72.28a5.9,5.9,0,0,1-6.31-5.46h0a5.9,5.9,0,0,1,5.46-6.31l406.06-29.09a5.9,5.9,0,0,1,6.3,5.46h0A5.9,5.9,0,0,1,2263.62,43.2Z"/><path class="cls-12" d="M2265.43,68.54,1859.37,97.63a5.9,5.9,0,0,1-6.31-5.46h0a5.9,5.9,0,0,1,5.46-6.31l406.06-29.08a5.9,5.9,0,0,1,6.3,5.46h0A5.9,5.9,0,0,1,2265.43,68.54Z"/><path class="cls-12" d="M2267.3,94.61l-406.06,29.08a5.9,5.9,0,0,1-6.31-5.46h0a5.9,5.9,0,0,1,5.46-6.31l406.06-29.09a5.9,5.9,0,0,1,6.3,5.46h0A5.9,5.9,0,0,1,2267.3,94.61Z"/><path class="cls-12" d="M2269.12,120,1863.06,149a5.9,5.9,0,0,1-6.31-5.46h0a5.9,5.9,0,0,1,5.46-6.3l406.06-29.09a5.9,5.9,0,0,1,6.3,5.46h0A5.9,5.9,0,0,1,2269.12,120Z"/><path class="cls-14" d="M208.68,619.59l-.65-.39,1.39-2.35,1.86-3.15h0l5.11-8.64.39-.66h0L269.13,516l0,0L312.5,408.26l-24.8-14.69-72.37,90.58L155.62,585l-1.4,2.35-.41-.24a6.82,6.82,0,0,0-6.95,11.73l5.3,3.14-230,388.36a25,25,0,0,0,8.76,34.2l1,.62a25,25,0,0,0,34.2-8.76L196.18,628l5.54,3.28a6.82,6.82,0,0,0,7-11.74Z"/><path class="cls-15" d="M-61.12,1041.74l-1-.62a25,25,0,0,1-8.76-34.2L162.5,612.68l44,26.06L-26.92,1033A25,25,0,0,1-61.12,1041.74Z"/><path class="cls-15" d="M275.79,532.9l-53.61-32.18,72.37-90.58,24.8,14.68Z"/><path class="cls-14" d="M106,758.6h0a11,11,0,0,1-3.86-15.06l73.61-124.31,18.91,11.2L121.1,754.74A11,11,0,0,1,106,758.6Z"/><rect class="cls-15" x="185.68" y="507.85" width="62.52" height="126.18" transform="translate(321.17 -30.87) rotate(30.63)"/><path class="cls-15" d="M208.59,647.9l-54.86-32.48a6.82,6.82,0,0,1-2.39-9.34h0a6.82,6.82,0,0,1,9.34-2.39l54.86,32.48a6.82,6.82,0,0,1,2.4,9.34h0A6.82,6.82,0,0,1,208.59,647.9Z"/><rect class="cls-14" x="158.35" y="613.9" width="62.52" height="6.39" transform="translate(340.87 -10.5) rotate(30.63)"/><rect class="cls-14" x="163.85" y="604.61" width="62.52" height="6.39" transform="translate(336.9 -14.6) rotate(30.63)"/><rect class="cls-14" x="169.5" y="595.07" width="62.52" height="6.39" transform="translate(332.83 -18.81) rotate(30.63)"/></g><rect class="cls-16" x="434.49" y="555.6" width="1045.34" height="185.8" rx="20.89" ry="20.89"/><path class="cls-17" d="M500.47,257.21c1.79,1,4.87,1.18,7.8,1.4A17.91,17.91,0,0,0,500.47,257.21Z"/><path class="cls-17" d="M508.33,258.64h-.06Z"/><path class="cls-17" d="M1074.61,214.61l-2.4.11A15.46,15.46,0,0,0,1074.61,214.61Z"/><path class="cls-17" d="M649.92,263.49l.46-1.62c6.94,0,2,1.88,8.42,1.53,2.53-2.27,10.65.33,12.88-.87-.05.18,3.09.28,2.88,1,1-1.24,3.23-.26,5.21-.56.72-.34-.52-.38-1.06-.76l4.54-.41c1.77.41,2.2,1.15.27,1.27,5.93.26,23.12.79,40.43,1.16s34.73.54,41.12.26c-1.64-.95-5.58-.33-7.08-1.81,3.38-.82,5,.31,6.46-.56,1.29,2.21,7.42.54,10,2.77l1-1.25,1.68.76c14.85-1.29,3.39-.63,16.56-.33,7.62-.19,11.24-1.92,15.48-1.28-.63,0-2.31-.78-.34-1.1.34,1.1,5.25-.78,6.22.32,1.93-.14,8.2,0,6.07-1.51,1.06.74,6.65,1,3.33,1.69a22.36,22.36,0,0,0,5.07-.08l-2.42-.41c6.37-.24,9.84.91,14-.45l-2.35-.59c3.81-.11,7-.23,8.49,1.25l-3.91.47a97.34,97.34,0,0,0,15.38-1l-1.88,0c6.7-1.46,41.75-3,47.91-4.84l-2.85-1.13,5.3-1c-.63,0-2.53,3.75-3.06,3.38l40.86-.83c8.77-.16,17.51-.3,24.71-.35s12.88-.08,15.51.07c4.25.57.79,1.81.74,2,5.16-.51,2.21-1.25,6.6-1.22,1.2.19-.23.91-.91,1.08,1.92-.17,3.71.21,3.85-.33-2.41-.38-1.41-1.82-2.45-2.73l5.65,0-.24.9c1.26,0,3.15-2.51,8.7-2.11,9.36.26,19.51-.22,28.92-.22-.14.54-2.1.9-4.08,1.26a17.31,17.31,0,0,1,4.35.19c-2.29-.91,3.94-.72,2.15-1.08,6.85-2.34,15.8-.51,21.85-2.13.5-2,12.26-34.28,12.2-36.63a25.39,25.39,0,0,1,4.33.19c-.5-.54-4.2-.73-6.16-.38l-.31,1.27c-4.51.53-1.08-.73-5.49-.55-.26-1,3.8-1.33,7.37-1.5-3.22-.05-6.45-.74-7.73.42-3-.37.31-1.27-3.35-1.64-2.59.36-6,1.44-9,.89l0-.18c-7.27-.92-11.06,1.79-17.71.87l.71-.36c-2.35-.55-6.95.35-11.18-.2,1.21.18,2.27.91-.27,1.08-4.87-.57-8.17.13-11.74-.62l-3.39,1.06c-8.46,0-29.38.71-50.33,1.28s-41.9,1.23-50.4,1.34l.66-.17c-13,.32-32.72.61-52.6.89s-39.87.69-53.26,1.35c-4.14-1-9.85-.77-14.17-1,2.4.42,1.58,1.12-.3,1.08-13.17-.12-.89.69-14.21,1.11-7.67.48-26.17.35-44.46,0s-36.36-.95-43.16-1.41c-7.32,1.43-16.44.22-23.61,1.09l.72-.34c-7.7.51-51.23-1.31-60.18-.91l1.2.23c-7.81.81-6.73-.79-12.86-1.37.79,1.66-5.91,2.5-8.46,2.59l.1-.36c-3.85.23-12.57,1.53-18.92,1.65l.26-.9c-5.31.88-15.25.33-19.05.36-8.69-.52-22.07-2.32-33.71-1.36l-7.45-2.72-1.1.23a79.72,79.72,0,0,0-4.48,16.23c-1.31,8.54-.7,18,6.95,21.43l-.26.89,3.05-.05c3.65.52,5.36-.49,5.1.4l-5-.21c3.67.34,1.09.76-.32,1.24a27.69,27.69,0,0,1,4.24.56c.73-.33-.52-.38-1.09-.59,2-.28,4.75-1.07,7.15-.61,3.76.16.21,1.46,4.6,1.64,23.13,1.11,45.53,2.53,68.92,2.62.53.38-.11.36-.78.52,7.05-.3,13.31-.06,19.73-.4a5.85,5.85,0,0,1,2.78,1.36c-.52-.38,8.33-.48,17.4-.47l12.6.09C647.39,263.38,649.77,263.44,649.92,263.49Z"/><path class="cls-18" d="M770.06,322.43c0,3.56-2.09,7.07-6.43,7.07s-7.15-3.7-7.15-10.66c0-6.51,2.42-10.66,7.15-10.66,4.34,0,6.46,3.62,6.43,7.51H768c-.05-2.7-1.11-5.57-4.26-5.57-3.59,0-5.12,3.48-5.12,8.91,0,5.84,2.17,8.52,5.12,8.52,3.17,0,4.15-2.64,4.26-5.12Z"/><path class="cls-18" d="M773,321.54c0-4.31,1.78-7.9,5.84-7.9s5.82,3.59,5.82,7.93-1.78,7.93-5.82,7.93-5.84-3.59-5.84-7.93Zm1.95.06c0,4,1.31,6.15,3.92,6.15s3.84-2.14,3.84-6.18-1.31-6.18-3.9-6.18-3.87,2.14-3.87,6.18Z"/><path class="cls-18" d="M788.64,314h1.67c0,.86,0,1.64-.06,2.59a4.32,4.32,0,0,1,4.29-3c2.59,0,4.34,1.5,4.34,5.18v10.33H797V319.4c0-1.53-.22-3.92-2.89-3.92-2.2,0-3.62,1.53-3.62,4.7v9h-1.86Z"/><path class="cls-18" d="M804.31,315.75h-2.12V314h2.12v-4.79h1.87V314h2.09v1.75h-2.09v13.39h-1.87Z"/><path class="cls-18" d="M811.65,314h1.73c0,1.39,0,2.25-.06,3.17.75-3,2.7-3.48,4-3.53v2.17a1.26,1.26,0,0,0-.7-.19c-1.28,0-3.14,1.59-3.14,5.4v8.13h-1.87Z"/><path class="cls-18" d="M830.1,329.14h-1.73c0-1.34,0-2.17,0-2.89a4.16,4.16,0,0,1-4,3.26c-3,0-5.07-3.17-5.07-7.9s1.89-8,5.07-8c1.7,0,3.2.86,4,3.28,0-.92,0-1.78,0-2.92h1.73Zm-8.91-7.54c0,3.42,1.22,6.07,3.53,6.07a3,3,0,0,0,2.64-1.67,8.44,8.44,0,0,0,.86-4.43,8.31,8.31,0,0,0-.86-4.43,3,3,0,0,0-2.64-1.67c-2.31,0-3.53,2.64-3.53,6.1Z"/><path class="cls-18" d="M835.61,315.75H833.5V314h2.12v-4.79h1.87V314h2.09v1.75h-2.09v13.39h-1.87Z"/><path class="cls-18" d="M860.74,329.14H859c0-1.34,0-2.17,0-2.89a4.16,4.16,0,0,1-4,3.26c-3,0-5.06-3.17-5.06-7.9s1.89-8,5.06-8c1.7,0,3.2.86,4,3.28,0-.92,0-1.78,0-2.92h1.73Zm-2.14-17.9-.7,1.31-6.21-3.31.78-1.5Zm-6.76,10.35c0,3.42,1.22,6.07,3.53,6.07A3,3,0,0,0,858,326a8.44,8.44,0,0,0,.86-4.43,8.31,8.31,0,0,0-.86-4.43,3,3,0,0,0-2.64-1.67c-2.31,0-3.53,2.64-3.53,6.1Z"/><path class="cls-18" d="M883.3,329.14h-1.73c0-1.39,0-2.23,0-3a4.13,4.13,0,0,1-4,3.37c-3,0-5.07-3.17-5.07-7.9s1.89-8,5.07-8c1.7,0,3.09.86,3.9,3.2-.06-.89-.06-1.73-.06-2.84v-5.46h1.87Zm-8.91-7.57c0,3.42,1.22,6.07,3.54,6.07a3,3,0,0,0,2.64-1.67,11.79,11.79,0,0,0,0-8.85,3,3,0,0,0-2.64-1.64c-2.31,0-3.54,2.62-3.54,6.07Z"/><path class="cls-18" d="M889.28,322.12c0,3.15,1.28,5.62,3.84,5.62a3.44,3.44,0,0,0,3.4-3h1.84a6,6,0,0,1-1.89,3.56,5.06,5.06,0,0,1-3.34,1.2c-4.17,0-5.79-4-5.79-7.9,0-4.7,2.17-8,5.73-8a4.7,4.7,0,0,1,4.06,2.14c1.22,1.81,1.42,4.15,1.39,6.35Zm7.35-1.64c-.06-3.15-1.36-5.26-3.65-5.26s-3.65,2.25-3.7,5.26ZM896,307.74l.78,1.5-6.23,3.31-.7-1.31Z"/><path class="cls-18" d="M903.22,315.75h-2.12V314h2.12v-4.79h1.87V314h2.09v1.75h-2.09v13.39h-1.87Z"/><path class="cls-18" d="M911.41,322.12c0,3.15,1.28,5.62,3.84,5.62a3.44,3.44,0,0,0,3.4-3h1.84a6,6,0,0,1-1.89,3.56,5.06,5.06,0,0,1-3.34,1.2c-4.17,0-5.79-4-5.79-7.9,0-4.7,2.17-8,5.73-8a4.7,4.7,0,0,1,4.06,2.14c1.22,1.81,1.42,4.15,1.39,6.35Zm7.35-1.64c-.06-3.15-1.36-5.26-3.65-5.26s-3.65,2.25-3.7,5.26Z"/><path class="cls-18" d="M924.62,314h1.73c0,1.39,0,2.25-.06,3.17.75-3,2.7-3.48,4-3.53v2.17a1.26,1.26,0,0,0-.7-.19c-1.28,0-3.15,1.59-3.15,5.4v8.13h-1.86Z"/><path class="cls-18" d="M933.5,314h1.78c0,.78,0,1.59-.06,2.48a3.75,3.75,0,0,1,3.84-2.84,3.59,3.59,0,0,1,2.64,1,3.53,3.53,0,0,1,.83,1.81,4.15,4.15,0,0,1,1.25-1.92,4.63,4.63,0,0,1,2.78-.92,3.89,3.89,0,0,1,3.53,1.95,9.11,9.11,0,0,1,.7,4.15v9.41h-1.86v-9.27a9.14,9.14,0,0,0-.31-2.81,2.32,2.32,0,0,0-2.31-1.59,2.77,2.77,0,0,0-2.45,1.22,5.93,5.93,0,0,0-.81,3.31v9.13h-1.87V320a9.06,9.06,0,0,0-.31-2.89,2.29,2.29,0,0,0-2.28-1.59,2.86,2.86,0,0,0-2.45,1.17,6,6,0,0,0-.81,3.42v9.07H933.5Z"/><path class="cls-18" d="M955.78,308.54h1.87v2.73h-1.87Zm0,5.46h1.87v15.14h-1.87Z"/><path class="cls-18" d="M962.66,314h1.67c0,.86,0,1.64-.06,2.59a4.32,4.32,0,0,1,4.29-3c2.59,0,4.34,1.5,4.34,5.18v10.33H971V319.4c0-1.53-.22-3.92-2.89-3.92-2.2,0-3.62,1.53-3.62,4.7v9h-1.87Z"/><path class="cls-18" d="M978.8,322.12c0,3.15,1.28,5.62,3.84,5.62a3.44,3.44,0,0,0,3.4-3h1.84A6.05,6.05,0,0,1,986,328.3a5.06,5.06,0,0,1-3.34,1.2c-4.17,0-5.79-4-5.79-7.9,0-4.7,2.17-8,5.73-8a4.7,4.7,0,0,1,4.06,2.14c1.22,1.81,1.42,4.15,1.39,6.35Zm7.35-1.64c-.06-3.15-1.36-5.26-3.65-5.26s-3.65,2.25-3.7,5.26Z"/><path class="cls-18" d="M992,314h1.72c0,1.39,0,2.25-.05,3.17.75-3,2.7-3.48,4-3.53v2.17a1.26,1.26,0,0,0-.7-.19c-1.28,0-3.15,1.59-3.15,5.4v8.13H992Z"/><path class="cls-18" d="M1002.47,329.14h-1.89v-3h1.89Z"/><path class="cls-19" d="M760.15,365.46H756v-1.92h10.44v1.92h-4.17v18.68h-2.09Z"/><path class="cls-19" d="M771.09,383.78,766.72,369h1.95L772,381,775.59,369h1.92L771,389.73h-1.86Z"/><path class="cls-19" d="M780.6,369h1.73c0,1.14,0,2,0,2.89.78-2.28,2.17-3.26,4-3.26,3,0,5.09,3.15,5.09,8,0,4.62-1.89,7.9-5.09,7.9a4.11,4.11,0,0,1-3.87-3.12c.06.67.06,1.45.06,2.76v5.59H780.6Zm8.91,7.54c0-3.42-1.2-6.07-3.54-6.07a2.9,2.9,0,0,0-2.59,1.67,8,8,0,0,0-.92,4.43,8.13,8.13,0,0,0,.92,4.43,2.9,2.9,0,0,0,2.59,1.67c2.34,0,3.54-2.64,3.54-6.1Z"/><path class="cls-19" d="M796.54,377.12c0,3.15,1.28,5.62,3.84,5.62a3.44,3.44,0,0,0,3.4-3h1.84a6.05,6.05,0,0,1-1.89,3.56,5.06,5.06,0,0,1-3.34,1.2c-4.17,0-5.79-4-5.79-7.9,0-4.7,2.17-8,5.73-8a4.7,4.7,0,0,1,4.06,2.14c1.22,1.81,1.42,4.15,1.39,6.35Zm7.35-1.64c-.06-3.15-1.36-5.26-3.65-5.26s-3.65,2.25-3.7,5.26Z"/><path class="cls-19" d="M827.54,384.14h-1.73c0-1.39,0-2.23,0-3a4.13,4.13,0,0,1-4,3.37c-3,0-5.06-3.17-5.06-7.9s1.89-8,5.06-8c1.7,0,3.09.86,3.9,3.2-.05-.89-.05-1.73-.05-2.84v-5.46h1.86Zm-8.91-7.57c0,3.42,1.22,6.07,3.53,6.07a3,3,0,0,0,2.64-1.67,11.77,11.77,0,0,0,0-8.85,3,3,0,0,0-2.64-1.64c-2.31,0-3.53,2.62-3.53,6.07Z"/><path class="cls-19" d="M833.52,377.12c0,3.15,1.28,5.62,3.84,5.62a3.44,3.44,0,0,0,3.39-3h1.84a6.06,6.06,0,0,1-1.89,3.56,5.07,5.07,0,0,1-3.34,1.2c-4.18,0-5.79-4-5.79-7.9,0-4.7,2.17-8,5.73-8a4.7,4.7,0,0,1,4.06,2.14c1.22,1.81,1.42,4.15,1.39,6.35Zm7.35-1.64c-.05-3.15-1.36-5.26-3.65-5.26s-3.65,2.25-3.7,5.26Z"/><path class="cls-19" d="M864.52,379c-.33,3.09-2,5.51-5,5.51-4,0-5.84-3.79-5.84-7.9,0-5,2.34-8,5.76-8,3.12,0,4.87,2.39,5,5.59h-1.89c-.31-3-1.75-3.84-3.17-3.84a2.94,2.94,0,0,0-2.75,1.61,9,9,0,0,0-1,4.56c0,4,1.36,6.18,3.76,6.18,1.86,0,2.92-1.5,3.2-3.76Z"/><path class="cls-19" d="M867.25,376.54c0-4.31,1.78-7.9,5.85-7.9s5.82,3.59,5.82,7.93-1.78,7.93-5.82,7.93-5.85-3.59-5.85-7.93Zm1.95.06c0,4,1.31,6.15,3.92,6.15s3.84-2.14,3.84-6.18-1.31-6.18-3.9-6.18-3.87,2.14-3.87,6.18Z"/><path class="cls-19" d="M882.88,369h1.67c0,.86,0,1.64-.06,2.59a4.32,4.32,0,0,1,4.29-3c2.59,0,4.34,1.5,4.34,5.18v10.33h-1.87V374.4c0-1.53-.22-3.92-2.89-3.92-2.2,0-3.62,1.53-3.62,4.7v9h-1.86Z"/><path class="cls-19" d="M898.55,370.75h-2.12V369h2.12v-4.79h1.86V369h2.09v1.75h-2.09v13.39h-1.86Z"/><path class="cls-19" d="M905.89,369h1.73c0,1.39,0,2.25-.06,3.17.75-3,2.7-3.48,4-3.53v2.17a1.26,1.26,0,0,0-.7-.19c-1.28,0-3.14,1.59-3.14,5.4v8.13h-1.87Z"/><path class="cls-19" d="M924.34,384.14h-1.72c0-1.34,0-2.17,0-2.89a4.16,4.16,0,0,1-4,3.26c-3,0-5.07-3.17-5.07-7.9s1.89-8,5.07-8c1.7,0,3.2.86,4,3.28,0-.92,0-1.78,0-2.92h1.72Zm-8.91-7.54c0,3.42,1.22,6.07,3.54,6.07a3,3,0,0,0,2.64-1.67,8.45,8.45,0,0,0,.86-4.43,8.32,8.32,0,0,0-.86-4.43,3,3,0,0,0-2.64-1.67c-2.31,0-3.54,2.64-3.54,6.1Z"/><path class="cls-19" d="M929.85,370.75h-2.12V369h2.12v-4.79h1.86V369h2.09v1.75h-2.09v13.39h-1.86Z"/><path class="cls-19" d="M947.72,372.76h-1.89v-3h1.89Zm0,11.38h-1.89v-3h1.89Z"/><path class="cls-19" d="M971.09,377.43c0,3.56-2.09,7.07-6.43,7.07s-7.15-3.7-7.15-10.66c0-6.51,2.42-10.66,7.15-10.66,4.34,0,6.46,3.62,6.43,7.51H969c-.06-2.7-1.11-5.57-4.26-5.57-3.59,0-5.12,3.48-5.12,8.91,0,5.84,2.17,8.52,5.12,8.52,3.17,0,4.15-2.64,4.26-5.12Z"/><path class="cls-19" d="M974.87,363.54h4.73c2.76,0,5.18.7,6.74,3a12.88,12.88,0,0,1,1.81,7.32c0,7.88-3.84,10.3-8.49,10.3h-4.79ZM977,382.22h2.53c4.84,0,6.54-3.09,6.54-8.38,0-2.87-.45-4.93-1.45-6.29s-2.7-2.09-5.15-2.09H977Z"/><path class="cls-19" d="M992.18,363.54h4.73c2.76,0,5.18.7,6.74,3a12.88,12.88,0,0,1,1.81,7.32c0,7.88-3.84,10.3-8.49,10.3h-4.79Zm2.09,18.68h2.53c4.84,0,6.54-3.09,6.54-8.38,0-2.87-.45-4.93-1.45-6.29s-2.7-2.09-5.15-2.09h-2.48Z"/><path class="cls-19" d="M1027.24,384.14h-1.73c0-1.34,0-2.17,0-2.89a4.16,4.16,0,0,1-4,3.26c-3,0-5.07-3.17-5.07-7.9s1.89-8,5.07-8c1.7,0,3.2.86,4,3.28,0-.92,0-1.78,0-2.92h1.73Zm-2.14-17.9-.7,1.31-6.21-3.31.78-1.5Zm-6.76,10.35c0,3.42,1.22,6.07,3.54,6.07a3,3,0,0,0,2.64-1.67,8.45,8.45,0,0,0,.86-4.43,8.32,8.32,0,0,0-.86-4.43,3,3,0,0,0-2.64-1.67c-2.31,0-3.54,2.64-3.54,6.1Z"/><path class="cls-19" d="M1040.56,370.75h-2.12V369h2.12v-4.79h1.86V369h2.09v1.75h-2.09v13.39h-1.86Z"/><path class="cls-19" d="M1048.75,377.12c0,3.15,1.28,5.62,3.84,5.62a3.44,3.44,0,0,0,3.39-3h1.84a6.06,6.06,0,0,1-1.89,3.56,5.07,5.07,0,0,1-3.34,1.2c-4.18,0-5.79-4-5.79-7.9,0-4.7,2.17-8,5.73-8a4.7,4.7,0,0,1,4.06,2.14c1.22,1.81,1.42,4.15,1.39,6.35Zm7.35-1.64c-.05-3.15-1.36-5.26-3.65-5.26s-3.65,2.25-3.7,5.26Z"/><path class="cls-19" d="M1062,369h1.78c0,.78,0,1.59-.06,2.48a3.74,3.74,0,0,1,3.84-2.84,3.58,3.58,0,0,1,2.64,1,3.52,3.52,0,0,1,.84,1.81,4.13,4.13,0,0,1,1.25-1.92,4.63,4.63,0,0,1,2.78-.92,3.9,3.9,0,0,1,3.54,1.95,9.11,9.11,0,0,1,.7,4.15v9.41h-1.87v-9.27a9.11,9.11,0,0,0-.31-2.81,2.32,2.32,0,0,0-2.31-1.59,2.77,2.77,0,0,0-2.45,1.22,5.92,5.92,0,0,0-.81,3.31v9.13h-1.86V375a9.06,9.06,0,0,0-.31-2.89,2.29,2.29,0,0,0-2.28-1.59,2.86,2.86,0,0,0-2.45,1.17,6,6,0,0,0-.81,3.42v9.07H1062Z"/><path class="cls-19" d="M1084.08,369h1.73c0,1.14,0,2,0,2.89.78-2.28,2.17-3.26,4-3.26,3,0,5.09,3.15,5.09,8,0,4.62-1.89,7.9-5.09,7.9a4.11,4.11,0,0,1-3.87-3.12c.05.67.05,1.45.05,2.76v5.59h-1.86Zm8.91,7.54c0-3.42-1.2-6.07-3.53-6.07a2.9,2.9,0,0,0-2.59,1.67,8,8,0,0,0-.92,4.43,8.13,8.13,0,0,0,.92,4.43,2.9,2.9,0,0,0,2.59,1.67c2.34,0,3.53-2.64,3.53-6.1Z"/><path class="cls-19" d="M1104.93,372.92c0-1.92-1-2.62-2.45-2.62a2.13,2.13,0,0,0-2.2,2.25c0,1.7,1.42,2.31,3.26,2.87,1.67.5,3.62,1.53,3.62,4.56a4.34,4.34,0,0,1-4.51,4.51c-2.75,0-4.59-1.64-4.73-4.81h1.84c0,2.06,1.22,3.09,2.89,3.09a2.43,2.43,0,0,0,2.56-2.64c0-1.84-1.28-2.56-3.31-3.2s-3.56-1.61-3.56-4.31a3.9,3.9,0,0,1,4.23-4c2.59,0,4.12,1.48,4.2,4.29Z"/><path class="cls-19" d="M1128.94,379c-.33,3.09-2,5.51-5,5.51-4,0-5.85-3.79-5.85-7.9,0-5,2.34-8,5.76-8,3.12,0,4.87,2.39,5,5.59H1127c-.31-3-1.75-3.84-3.17-3.84A2.94,2.94,0,0,0,1121,372a9,9,0,0,0-1,4.56c0,4,1.36,6.18,3.76,6.18,1.86,0,2.92-1.5,3.2-3.76Z"/><path class="cls-19" d="M1131.66,376.54c0-4.31,1.78-7.9,5.85-7.9s5.82,3.59,5.82,7.93-1.78,7.93-5.82,7.93-5.85-3.59-5.85-7.93Zm1.95.06c0,4,1.31,6.15,3.92,6.15s3.84-2.14,3.84-6.18-1.31-6.18-3.9-6.18-3.87,2.14-3.87,6.18Z"/><path class="cls-19" d="M1147.36,369h1.78c0,.78,0,1.59-.06,2.48a3.74,3.74,0,0,1,3.84-2.84,3.58,3.58,0,0,1,2.64,1,3.52,3.52,0,0,1,.84,1.81,4.13,4.13,0,0,1,1.25-1.92,4.63,4.63,0,0,1,2.78-.92,3.9,3.9,0,0,1,3.54,1.95,9.11,9.11,0,0,1,.7,4.15v9.41h-1.87v-9.27a9.11,9.11,0,0,0-.31-2.81,2.32,2.32,0,0,0-2.31-1.59,2.77,2.77,0,0,0-2.45,1.22,5.92,5.92,0,0,0-.81,3.31v9.13h-1.86V375a9.06,9.06,0,0,0-.31-2.89,2.29,2.29,0,0,0-2.28-1.59,2.86,2.86,0,0,0-2.45,1.17,6,6,0,0,0-.81,3.42v9.07h-1.86Z"/><path class="cls-19" d="M1169.42,369h1.73c0,1.14,0,2,0,2.89.78-2.28,2.17-3.26,4-3.26,3,0,5.09,3.15,5.09,8,0,4.62-1.89,7.9-5.09,7.9a4.11,4.11,0,0,1-3.87-3.12c.05.67.05,1.45.05,2.76v5.59h-1.86Zm8.91,7.54c0-3.42-1.2-6.07-3.53-6.07a2.9,2.9,0,0,0-2.59,1.67,8,8,0,0,0-.92,4.43,8.13,8.13,0,0,0,.92,4.43,2.9,2.9,0,0,0,2.59,1.67c2.34,0,3.53-2.64,3.53-6.1Z"/><path class="cls-19" d="M1184.39,363.54h1.86v20.6h-1.86Z"/><path class="cls-19" d="M1192.46,377.12c0,3.15,1.28,5.62,3.84,5.62a3.44,3.44,0,0,0,3.4-3h1.84a6.06,6.06,0,0,1-1.89,3.56,5.06,5.06,0,0,1-3.34,1.2c-4.17,0-5.79-4-5.79-7.9,0-4.7,2.17-8,5.73-8a4.7,4.7,0,0,1,4.06,2.14c1.22,1.81,1.42,4.15,1.39,6.35Zm7.35-1.64c-.06-3.15-1.36-5.26-3.65-5.26s-3.65,2.25-3.7,5.26Z"/><path class="cls-19" d="M1206.4,370.75h-2.12V369h2.12v-4.79h1.86V369h2.09v1.75h-2.09v13.39h-1.86Z"/><path class="cls-19" d="M1216.44,384.14h-1.89v-3h1.89Z"/><path class="cls-18" d="M757.31,418.54h3.92c3.06,0,4.31.53,5.09,1.22a6.21,6.21,0,0,1,2.14,5,7,7,0,0,1-.92,3.73,5,5,0,0,1-3.56,2.37l4.12,8.29h-2.34l-4.59-9.57a6.06,6.06,0,0,0,.72,0,4.54,4.54,0,0,0,3.23-1.11,4.7,4.7,0,0,0,1.2-3.48,4.57,4.57,0,0,0-1.56-3.79,6.23,6.23,0,0,0-3.59-.7H759.4v18.68h-2.09Z"/><path class="cls-18" d="M773.56,432.12c0,3.15,1.28,5.62,3.84,5.62a3.44,3.44,0,0,0,3.39-3h1.84a6.06,6.06,0,0,1-1.89,3.56,5.07,5.07,0,0,1-3.34,1.2c-4.18,0-5.79-4-5.79-7.9,0-4.7,2.17-8,5.73-8a4.7,4.7,0,0,1,4.06,2.14c1.22,1.81,1.42,4.15,1.39,6.35Zm7.35-1.64c-.05-3.15-1.36-5.26-3.65-5.26s-3.65,2.25-3.7,5.26Zm-.58-12.75.78,1.5-6.23,3.31-.7-1.31Z"/><path class="cls-18" d="M786.84,424h1.78c0,.78,0,1.59-.06,2.48a3.75,3.75,0,0,1,3.84-2.84,3.59,3.59,0,0,1,2.64,1,3.53,3.53,0,0,1,.83,1.81,4.14,4.14,0,0,1,1.25-1.92,4.64,4.64,0,0,1,2.78-.92,3.89,3.89,0,0,1,3.54,1.95,9.11,9.11,0,0,1,.7,4.15v9.41h-1.86v-9.27a9.14,9.14,0,0,0-.31-2.81,2.32,2.32,0,0,0-2.31-1.59,2.77,2.77,0,0,0-2.45,1.22,5.92,5.92,0,0,0-.81,3.31v9.13h-1.87V430a9,9,0,0,0-.31-2.89,2.29,2.29,0,0,0-2.28-1.59,2.86,2.86,0,0,0-2.45,1.17,6,6,0,0,0-.81,3.42v9.07h-1.86Z"/><path class="cls-18" d="M818.92,439.14h-1.73c0-.86,0-1.7.06-2.64a4.25,4.25,0,0,1-4.23,3c-2.59,0-4.34-1.5-4.34-5.18V424h1.87v9.74c0,1.53.22,3.92,2.89,3.92,2.2,0,3.62-1.53,3.62-4.7v-9h1.87Z"/><path class="cls-18" d="M823.7,424h1.67c0,.86,0,1.64-.06,2.59a4.32,4.32,0,0,1,4.29-3c2.59,0,4.34,1.5,4.34,5.18v10.33h-1.87V429.4c0-1.53-.22-3.92-2.89-3.92-2.2,0-3.62,1.53-3.62,4.7v9H823.7Z"/><path class="cls-18" d="M839.84,432.12c0,3.15,1.28,5.62,3.84,5.62a3.44,3.44,0,0,0,3.4-3h1.84A6,6,0,0,1,847,438.3a5.06,5.06,0,0,1-3.34,1.2c-4.17,0-5.79-4-5.79-7.9,0-4.7,2.17-8,5.73-8a4.7,4.7,0,0,1,4.06,2.14c1.22,1.81,1.42,4.15,1.39,6.35Zm7.35-1.64c-.06-3.15-1.36-5.26-3.65-5.26s-3.65,2.25-3.7,5.26Zm-.58-12.75.78,1.5-6.23,3.31-.7-1.31Z"/><path class="cls-18" d="M853.06,424h1.72c0,1.39,0,2.25-.05,3.17.75-3,2.7-3.48,4-3.53v2.17a1.26,1.26,0,0,0-.7-.19c-1.28,0-3.15,1.59-3.15,5.4v8.13h-1.86Z"/><path class="cls-18" d="M871.51,439.14h-1.72c0-1.34,0-2.17,0-2.89a4.16,4.16,0,0,1-4,3.26c-3,0-5.07-3.17-5.07-7.9s1.89-8,5.07-8c1.7,0,3.2.86,4,3.28,0-.92,0-1.78,0-2.92h1.72Zm-8.91-7.54c0,3.42,1.22,6.07,3.54,6.07a3,3,0,0,0,2.64-1.67,8.45,8.45,0,0,0,.86-4.43,8.32,8.32,0,0,0-.86-4.43,3,3,0,0,0-2.64-1.67c-2.31,0-3.54,2.64-3.54,6.1Z"/><path class="cls-18" d="M877,425.75H874.9V424H877v-4.79h1.86V424H881v1.75h-2.09v13.39H877Z"/><path class="cls-18" d="M884.58,418.54h1.86v2.73h-1.86Zm0,5.46h1.86v15.14h-1.86Z"/><path class="cls-18" d="M890.65,431.54c0-4.31,1.78-7.9,5.84-7.9s5.82,3.59,5.82,7.93-1.78,7.93-5.82,7.93-5.84-3.59-5.84-7.93Zm1.95.06c0,4,1.31,6.15,3.92,6.15s3.84-2.14,3.84-6.18-1.31-6.18-3.9-6.18-3.87,2.14-3.87,6.18Z"/><path class="cls-18" d="M906.29,424H908c0,.86,0,1.64-.06,2.59a4.32,4.32,0,0,1,4.29-3c2.59,0,4.34,1.5,4.34,5.18v10.33h-1.87V429.4c0-1.53-.22-3.92-2.89-3.92-2.2,0-3.62,1.53-3.62,4.7v9h-1.86Z"/><path class="cls-18" d="M939,439.14h-1.73c0-1.34,0-2.17,0-2.89a4.16,4.16,0,0,1-4,3.26c-3,0-5.06-3.17-5.06-7.9s1.89-8,5.06-8c1.7,0,3.2.86,4,3.28,0-.92,0-1.78,0-2.92H939Zm-8.91-7.54c0,3.42,1.22,6.07,3.53,6.07a3,3,0,0,0,2.64-1.67,8.44,8.44,0,0,0,.86-4.43,8.31,8.31,0,0,0-.86-4.43,3,3,0,0,0-2.64-1.67c-2.31,0-3.53,2.64-3.53,6.1Z"/><path class="cls-18" d="M944.52,425.75H942.4V424h2.12v-4.79h1.86V424h2.09v1.75h-2.09v13.39h-1.86Z"/><path class="cls-18" d="M952.59,425.75h-2.12V424h2.12v-4.79h1.87V424h2.09v1.75h-2.09v13.39h-1.87Z"/><path class="cls-18" d="M959.93,424h1.73c0,1.39,0,2.25-.06,3.17.75-3,2.7-3.48,4-3.53v2.17a1.26,1.26,0,0,0-.7-.19c-1.28,0-3.14,1.59-3.14,5.4v8.13h-1.87Z"/><path class="cls-18" d="M978.38,439.14h-1.73c0-1.34,0-2.17,0-2.89a4.16,4.16,0,0,1-4,3.26c-3,0-5.07-3.17-5.07-7.9s1.89-8,5.07-8c1.7,0,3.2.86,4,3.28,0-.92,0-1.78,0-2.92h1.73Zm-8.91-7.54c0,3.42,1.22,6.07,3.53,6.07a3,3,0,0,0,2.64-1.67,8.44,8.44,0,0,0,.86-4.43,8.31,8.31,0,0,0-.86-4.43,3,3,0,0,0-2.64-1.67c-2.31,0-3.53,2.64-3.53,6.1Z"/><path class="cls-18" d="M993.13,434c-.33,3.09-2,5.51-5,5.51-4,0-5.84-3.79-5.84-7.9,0-5,2.34-8,5.76-8,3.12,0,4.87,2.39,5,5.59h-1.89c-.31-3-1.75-3.84-3.17-3.84a2.94,2.94,0,0,0-2.76,1.61,9,9,0,0,0-1,4.56c0,4,1.36,6.18,3.76,6.18,1.87,0,2.92-1.5,3.2-3.76Z"/><path class="cls-18" d="M997.38,425.75h-2.12V424h2.12v-4.79h1.86V424h2.09v1.75h-2.09v13.39h-1.86Z"/><path class="cls-18" d="M1005,418.54h1.87v2.73H1005Zm0,5.46h1.87v15.14H1005Z"/><path class="cls-18" d="M1016.44,439.14h-1.87L1010,424h1.89l3.59,12.64L1019,424h1.86Z"/><path class="cls-18" d="M1024.82,432.12c0,3.15,1.28,5.62,3.84,5.62a3.44,3.44,0,0,0,3.4-3h1.84a6.06,6.06,0,0,1-1.89,3.56,5.06,5.06,0,0,1-3.34,1.2c-4.17,0-5.79-4-5.79-7.9,0-4.7,2.17-8,5.73-8a4.7,4.7,0,0,1,4.06,2.14c1.22,1.81,1.42,4.15,1.39,6.35Zm7.35-1.64c-.06-3.15-1.36-5.26-3.65-5.26s-3.65,2.25-3.7,5.26Z"/><path class="cls-18" d="M1040.29,439.14h-1.89v-3h1.89Z"/><path class="cls-18" d="M758.48,488.46c.25,3.2,2.14,4.2,3.7,4.2a3.74,3.74,0,0,0,3.9-4c0-3-2.56-3.7-4.59-4.37-1.75-.61-4.7-1.64-4.7-5.34s2.23-5.79,5.43-5.79,5,1.59,5.51,5.23h-2c-.2-1.53-.92-3.45-3.45-3.45-2.09,0-3.37,1.5-3.37,3.65,0,2.7,2.06,3.34,4.7,4.2,1.59.56,4.59,1.67,4.59,5.76a5.71,5.71,0,0,1-6,6c-3.23,0-5.68-1.95-5.79-6Z"/><path class="cls-18" d="M772.36,473.54h1.87v2.73h-1.87Zm0,5.46h1.87v15.14h-1.87Z"/><path class="cls-18" d="M780,480.75h-2.12V479H780v-4.79h1.86V479h2.09v1.75h-2.09v13.39H780Z"/><path class="cls-18" d="M797.47,494.14h-1.73c0-.86,0-1.7.06-2.64a4.25,4.25,0,0,1-4.23,3c-2.59,0-4.34-1.5-4.34-5.18V479h1.86v9.74c0,1.53.22,3.92,2.89,3.92,2.2,0,3.62-1.53,3.62-4.7v-9h1.87Z"/><path class="cls-18" d="M812.21,494.14h-1.72c0-1.34,0-2.17,0-2.89a4.16,4.16,0,0,1-4,3.26c-3,0-5.07-3.17-5.07-7.9s1.89-8,5.07-8c1.7,0,3.2.86,4,3.28,0-.92,0-1.78,0-2.92h1.72Zm-8.91-7.54c0,3.42,1.22,6.07,3.54,6.07a3,3,0,0,0,2.64-1.67,8.45,8.45,0,0,0,.86-4.43,8.32,8.32,0,0,0-.86-4.43,3,3,0,0,0-2.64-1.67c-2.31,0-3.54,2.64-3.54,6.1Z"/><path class="cls-18" d="M817.72,480.75H815.6V479h2.12v-4.79h1.86V479h2.09v1.75h-2.09v13.39h-1.86Z"/><path class="cls-18" d="M825.29,473.54h1.86v2.73h-1.86Zm0,5.46h1.86v15.14h-1.86Z"/><path class="cls-18" d="M831.35,486.54c0-4.31,1.78-7.9,5.84-7.9s5.82,3.59,5.82,7.93-1.78,7.93-5.82,7.93-5.84-3.59-5.84-7.93Zm1.95.06c0,4,1.31,6.15,3.92,6.15s3.84-2.14,3.84-6.18-1.31-6.18-3.9-6.18-3.87,2.14-3.87,6.18Z"/><path class="cls-18" d="M847,479h1.67c0,.86,0,1.64-.06,2.59a4.32,4.32,0,0,1,4.29-3c2.59,0,4.34,1.5,4.34,5.18v10.33h-1.86V484.4c0-1.53-.22-3.92-2.89-3.92-2.2,0-3.62,1.53-3.62,4.7v9H847Z"/><path class="cls-18" d="M870.14,480.75h-1.7V479h1.7v-1.14c0-4.54,3.59-4.68,4.51-4.68v1.64c-1.39.08-2.64.75-2.64,3.2v1h2.64v1.75H872v13.39h-1.87Z"/><path class="cls-18" d="M887.2,494.14h-1.73c0-1.34,0-2.17,0-2.89a4.16,4.16,0,0,1-4,3.26c-3,0-5.07-3.17-5.07-7.9s1.89-8,5.07-8c1.7,0,3.2.86,4,3.28,0-.92,0-1.78,0-2.92h1.73Zm-8.91-7.54c0,3.42,1.22,6.07,3.53,6.07a3,3,0,0,0,2.64-1.67,8.44,8.44,0,0,0,.86-4.43,8.31,8.31,0,0,0-.86-4.43,3,3,0,0,0-2.64-1.67c-2.31,0-3.53,2.64-3.53,6.1Z"/><path class="cls-18" d="M892,479h1.78c0,.78,0,1.59-.06,2.48a3.75,3.75,0,0,1,3.84-2.84,3.59,3.59,0,0,1,2.64,1,3.53,3.53,0,0,1,.83,1.81,4.15,4.15,0,0,1,1.25-1.92,4.63,4.63,0,0,1,2.78-.92,3.89,3.89,0,0,1,3.53,1.95,9.11,9.11,0,0,1,.7,4.15v9.41h-1.86v-9.27a9.14,9.14,0,0,0-.31-2.81,2.32,2.32,0,0,0-2.31-1.59,2.77,2.77,0,0,0-2.45,1.22,5.93,5.93,0,0,0-.81,3.31v9.13h-1.87V485a9.06,9.06,0,0,0-.31-2.89,2.29,2.29,0,0,0-2.28-1.59,2.86,2.86,0,0,0-2.45,1.17,6,6,0,0,0-.81,3.42v9.07H892Z"/><path class="cls-18" d="M914.33,473.54h1.87v2.73h-1.87Zm0,5.46h1.87v15.14h-1.87Z"/><path class="cls-18" d="M921.42,473.54h1.87v20.6h-1.87Z"/><path class="cls-18" d="M928.52,473.54h1.86v2.73h-1.86Zm0,5.46h1.86v15.14h-1.86Z"/><path class="cls-18" d="M945.35,494.14h-1.72c0-1.34,0-2.17,0-2.89a4.16,4.16,0,0,1-4,3.26c-3,0-5.07-3.17-5.07-7.9s1.89-8,5.07-8c1.7,0,3.2.86,4,3.28,0-.92,0-1.78,0-2.92h1.72Zm-8.91-7.54c0,3.42,1.22,6.07,3.54,6.07a3,3,0,0,0,2.64-1.67,8.45,8.45,0,0,0,.86-4.43,8.32,8.32,0,0,0-.86-4.43,3,3,0,0,0-2.64-1.67c-2.31,0-3.54,2.64-3.54,6.1Z"/><path class="cls-18" d="M950.36,473.54h1.87v20.6h-1.87Z"/><path class="cls-18" d="M958.43,487.12c0,3.15,1.28,5.62,3.84,5.62a3.44,3.44,0,0,0,3.4-3h1.84a6,6,0,0,1-1.89,3.56,5.06,5.06,0,0,1-3.34,1.2c-4.17,0-5.79-4-5.79-7.9,0-4.7,2.17-8,5.73-8a4.7,4.7,0,0,1,4.06,2.14c1.22,1.81,1.42,4.15,1.39,6.35Zm7.35-1.64c-.06-3.15-1.36-5.26-3.65-5.26s-3.65,2.25-3.7,5.26Z"/><path class="cls-18" d="M989.43,494.14H987.7c0-1.34,0-2.17,0-2.89a4.16,4.16,0,0,1-4,3.26c-3,0-5.07-3.17-5.07-7.9s1.89-8,5.07-8c1.7,0,3.2.86,4,3.28,0-.92,0-1.78,0-2.92h1.73Zm-2.14-17.9-.7,1.31-6.21-3.31.78-1.5Zm-6.76,10.35c0,3.42,1.22,6.07,3.54,6.07A3,3,0,0,0,986.7,491a8.45,8.45,0,0,0,.86-4.43,8.32,8.32,0,0,0-.86-4.43,3,3,0,0,0-2.64-1.67c-2.31,0-3.54,2.64-3.54,6.1Z"/><path class="cls-18" d="M1002,479h1.73c0,1.14,0,2,0,2.89.78-2.28,2.17-3.26,4-3.26,3,0,5.09,3.15,5.09,8,0,4.62-1.89,7.9-5.09,7.9a4.11,4.11,0,0,1-3.87-3.12c.06.67.06,1.45.06,2.76v5.59H1002Zm8.91,7.54c0-3.42-1.2-6.07-3.54-6.07a2.9,2.9,0,0,0-2.59,1.67,8,8,0,0,0-.92,4.43,8.13,8.13,0,0,0,.92,4.43,2.9,2.9,0,0,0,2.59,1.67c2.34,0,3.54-2.64,3.54-6.1Z"/><path class="cls-18" d="M1016.78,479h1.73c0,1.39,0,2.25-.06,3.17.75-3,2.7-3.48,4-3.53v2.17a1.26,1.26,0,0,0-.7-.19c-1.28,0-3.15,1.59-3.15,5.4v8.13h-1.86Z"/><path class="cls-18" d="M1026.46,487.12c0,3.15,1.28,5.62,3.84,5.62a3.44,3.44,0,0,0,3.39-3h1.84a6.06,6.06,0,0,1-1.89,3.56,5.07,5.07,0,0,1-3.34,1.2c-4.18,0-5.79-4-5.79-7.9,0-4.7,2.17-8,5.73-8a4.7,4.7,0,0,1,4.06,2.14c1.22,1.81,1.42,4.15,1.39,6.35Zm7.35-1.64c-.05-3.15-1.36-5.26-3.65-5.26s-3.65,2.25-3.7,5.26Zm-.58-12.75.78,1.5-6.23,3.31-.7-1.31Z"/><path class="cls-18" d="M1049.64,489c-.33,3.09-2,5.51-5,5.51-4,0-5.85-3.79-5.85-7.9,0-5,2.34-8,5.76-8,3.12,0,4.87,2.39,5,5.59h-1.89c-.31-3-1.75-3.84-3.17-3.84a2.94,2.94,0,0,0-2.75,1.61,9,9,0,0,0-1,4.56c0,4,1.36,6.18,3.76,6.18,1.86,0,2.92-1.5,3.2-3.76Z"/><path class="cls-18" d="M1053.39,473.54h1.86v2.73h-1.86Zm0,5.46h1.86v15.14h-1.86Z"/><path class="cls-18" d="M1066.36,482.92c0-1.92-1-2.62-2.45-2.62a2.13,2.13,0,0,0-2.2,2.25c0,1.7,1.42,2.31,3.26,2.87,1.67.5,3.62,1.53,3.62,4.56a4.34,4.34,0,0,1-4.51,4.51c-2.75,0-4.59-1.64-4.73-4.81h1.84c0,2.06,1.22,3.09,2.89,3.09a2.43,2.43,0,0,0,2.56-2.64c0-1.84-1.28-2.56-3.31-3.2s-3.56-1.61-3.56-4.31a3.9,3.9,0,0,1,4.23-4c2.59,0,4.12,1.48,4.2,4.29Z"/><path class="cls-18" d="M1073.79,487.12c0,3.15,1.28,5.62,3.84,5.62a3.44,3.44,0,0,0,3.39-3h1.84a6.06,6.06,0,0,1-1.89,3.56,5.07,5.07,0,0,1-3.34,1.2c-4.18,0-5.79-4-5.79-7.9,0-4.7,2.17-8,5.73-8a4.7,4.7,0,0,1,4.06,2.14c1.22,1.81,1.42,4.15,1.39,6.35Zm7.35-1.64c-.05-3.15-1.36-5.26-3.65-5.26s-3.65,2.25-3.7,5.26Z"/><path class="cls-18" d="M1087,479h1.73c0,1.39,0,2.25-.06,3.17.75-3,2.7-3.48,4-3.53v2.17a1.26,1.26,0,0,0-.7-.19c-1.28,0-3.14,1.59-3.14,5.4v8.13H1087Z"/><path class="cls-18" d="M1097.47,494.14h-1.89v-3h1.89Z"/><path class="cls-19" d="M542.66,227.33h3.76v22.8h-3.76Z"/><path class="cls-19" d="M562.87,242.89V227.33h3.33v22.8h-3.54l-7.58-16.48v16.48h-3.36v-22.8h4Z"/><path class="cls-19" d="M571.41,227.33h10.26v3.48h-6.5v5.7h6.5V240h-6.5v10.14h-3.76Z"/><path class="cls-19" d="M585.27,238.7c0-7,2.77-11.8,8.32-11.8s8.35,4.84,8.35,11.83c0,6.65-2.59,11.83-8.35,11.83-5.54,0-8.32-4.84-8.32-11.83Zm3.85.06c0,5.76,1.6,8.32,4.47,8.32s4.5-2.56,4.5-8.35-1.6-8.35-4.5-8.35-4.47,2.56-4.47,8.35Z"/><path class="cls-19" d="M606.29,227.33h5.3c3.3,0,5.08.74,6,1.76a7.34,7.34,0,0,1,2,5.36,7.83,7.83,0,0,1-.8,3.7,5.61,5.61,0,0,1-3.17,2.87l4.41,9.12h-4.22l-5-11.21c.43,0,.68,0,1,0a4.1,4.1,0,0,0,2.8-1,4.29,4.29,0,0,0,1.14-3.11,4,4,0,0,0-1.33-3.3,4.89,4.89,0,0,0-3-.68H610v19.32h-3.76Z"/><path class="cls-19" d="M624.06,250.13v-22.8h5.58l4,16.51,3.85-16.51h5.58v22.8h-3.36V231.3l-4.62,18.82h-2.93l-4.75-18.82v18.82Z"/><path class="cls-19" d="M650.22,250.13H646.4l6.32-22.8h3.54l6.5,22.8h-3.82l-1.45-5.27h-5.85Zm4.31-17.53-2,8.81h3.94Z"/><path class="cls-19" d="M666.52,230.81h-4.13v-3.48h12v3.48h-4.13v19.32h-3.76Z"/><path class="cls-19" d="M678.29,227.33H682v22.8h-3.76Z"/><path class="cls-19" d="M686.36,238.7c0-7,2.77-11.8,8.32-11.8s8.35,4.84,8.35,11.83c0,6.65-2.59,11.83-8.35,11.83-5.54,0-8.32-4.84-8.32-11.83Zm3.85.06c0,5.76,1.6,8.32,4.47,8.32s4.5-2.56,4.5-8.35-1.6-8.35-4.5-8.35-4.47,2.56-4.47,8.35Z"/><path class="cls-19" d="M718.59,242.89V227.33h3.33v22.8h-3.54l-7.58-16.48v16.48h-3.36v-22.8h4Z"/><path class="cls-19" d="M730,243.29c.15,2.83,1.45,3.94,3.36,3.94a3.11,3.11,0,0,0,3.3-3.39c0-2.56-2.62-3.14-5-4s-5-2.19-5-6.13c0-4.19,2.56-6.84,6.59-6.84s6.19,1.94,6.81,6.25h-3.63c-.12-1.66-1-3.11-3-3.11a2.86,2.86,0,0,0-2.9,3.11c0,2.46,2.4,3,5,3.94,2.19.86,5,2.28,5,6.69,0,4.19-3.08,6.81-7.18,6.81-4.56,0-7-2.56-7.06-7.27Z"/><path class="cls-19" d="M769.24,241.84c0,4.71-2.68,8.72-7.83,8.72-4.93,0-8.1-3.94-8.1-11.83,0-7.7,3-11.83,8.1-11.83,5.24,0,7.89,4.13,7.83,9h-3.82c-.09-3.64-1.26-5.45-3.73-5.45-2.87,0-4.53,2.68-4.53,8.35,0,5.82,1.94,8.16,4.53,8.16,2.87,0,3.61-2.62,3.73-5.14Z"/><path class="cls-19" d="M772.69,238.7c0-7,2.77-11.8,8.32-11.8s8.35,4.84,8.35,11.83c0,6.65-2.59,11.83-8.35,11.83-5.55,0-8.32-4.84-8.32-11.83Zm3.85.06c0,5.76,1.6,8.32,4.47,8.32s4.5-2.56,4.5-8.35-1.6-8.35-4.5-8.35-4.47,2.56-4.47,8.35Z"/><path class="cls-19" d="M793.76,250.13v-22.8h5.58l4,16.51,3.85-16.51h5.58v22.8h-3.36V231.3l-4.62,18.82h-2.93l-4.74-18.82v18.82Z"/><path class="cls-19" d="M823.86,227.33a7.75,7.75,0,0,1,5.48,1.79,7.85,7.85,0,0,1,0,10.81,7.8,7.8,0,0,1-5.48,1.79H822v8.41h-3.76v-22.8ZM822,238.23h1.85a3.65,3.65,0,0,0,2.87-.86,4.84,4.84,0,0,0,0-5.73,3.77,3.77,0,0,0-2.83-.83H822Z"/><path class="cls-19" d="M835.78,227.33h3.76v19.32H846v3.48H835.78Z"/><path class="cls-19" d="M850.14,227.33h10.94v3.48H853.9v5.76h7.18V240H853.9v6.62h7.18v3.48H850.14Zm9.21-6.78,1.29,2.68-7.05,3.36-1.14-2.22Z"/><path class="cls-19" d="M866.38,250.13v-22.8H872l4,16.51,3.85-16.51h5.58v22.8H882V231.3l-4.62,18.82h-2.93l-4.75-18.82v18.82Z"/><path class="cls-19" d="M890.84,227.33h10.94v3.48H894.6v5.76h7.18V240H894.6v6.62h7.18v3.48H890.84Z"/><path class="cls-19" d="M918.23,242.89V227.33h3.33v22.8H918l-7.58-16.48v16.48h-3.36v-22.8h4Z"/><path class="cls-19" d="M929.66,230.81h-4.13v-3.48h12v3.48h-4.13v19.32h-3.76Z"/><path class="cls-19" d="M941,250.13h-3.82l6.32-22.8H947l6.5,22.8h-3.82l-1.45-5.27h-5.85Zm4.31-17.53-2,8.81h3.94Z"/><path class="cls-19" d="M956.8,227.33h3.76v22.8H956.8Z"/><path class="cls-19" d="M965.8,227.33h5.3c3.3,0,5.08.74,6,1.76a7.34,7.34,0,0,1,2,5.36,7.83,7.83,0,0,1-.8,3.7A5.61,5.61,0,0,1,975.2,241l4.41,9.12h-4.22l-5-11.21c.43,0,.68,0,1,0a4.1,4.1,0,0,0,2.8-1,4.29,4.29,0,0,0,1.14-3.11,4,4,0,0,0-1.33-3.3,4.89,4.89,0,0,0-3-.68h-1.42v19.32H965.8Z"/><path class="cls-19" d="M983.67,227.33H994.6v3.48h-7.18v5.76h7.18V240h-7.18v6.62h7.18v3.48H983.67Z"/><path class="cls-19" d="M1002.65,243.29c.15,2.83,1.45,3.94,3.36,3.94a3.11,3.11,0,0,0,3.3-3.39c0-2.56-2.62-3.14-5-4s-5-2.19-5-6.13c0-4.19,2.56-6.84,6.59-6.84s6.19,1.94,6.81,6.25h-3.64c-.12-1.66-1-3.11-3-3.11a2.86,2.86,0,0,0-2.9,3.11c0,2.46,2.4,3,5,3.94,2.19.86,5,2.28,5,6.69,0,4.19-3.08,6.81-7.18,6.81-4.56,0-7-2.56-7.05-7.27Z"/><path class="cls-19" d="M1030.65,238.79h-3.33v-4.07h3.33Zm0,11.34h-3.33v-4.07h3.33Z"/><circle class="cls-20" cx="496.23" cy="237.56" r="26.98"/><path class="cls-19" d="M500.32,220.2V242h1.84v4.71h-1.84v6.69h-4.78v-6.69h-9.7v-4.19l8.38-22.27ZM490.55,242h5V227.86Z"/><path class="cls-21" d="M496.23,210.59H496v53.94h.21a27,27,0,1,0,0-54Z"/><path class="cls-4" d="M564.37,594.19c.25,3.18,2.13,4.17,3.68,4.17a3.71,3.71,0,0,0,3.87-4c0-3-2.54-3.68-4.56-4.34-1.74-.61-4.67-1.63-4.67-5.31s2.21-5.75,5.39-5.75,5,1.58,5.47,5.2h-2c-.19-1.52-.91-3.43-3.43-3.43-2.07,0-3.34,1.49-3.34,3.62,0,2.68,2,3.32,4.67,4.17,1.58.55,4.56,1.66,4.56,5.72a5.67,5.67,0,0,1-5.91,5.91c-3.21,0-5.64-1.93-5.75-6Z"/><path class="cls-4" d="M578.15,579.38H580v2.71h-1.85Zm0,5.42H580v15h-1.85Z"/><path class="cls-4" d="M586,602.12h-1.63l1.82-5.22H588Z"/><path class="cls-4" d="M599.37,592.86c0,3.12,1.27,5.58,3.81,5.58a3.42,3.42,0,0,0,3.37-3h1.82A6,6,0,0,1,606.5,599a5,5,0,0,1-3.32,1.19c-4.15,0-5.75-4-5.75-7.85,0-4.67,2.16-7.9,5.69-7.9a4.67,4.67,0,0,1,4,2.13,10.94,10.94,0,0,1,1.38,6.3Zm7.29-1.63c-.05-3.12-1.35-5.22-3.62-5.22s-3.62,2.24-3.68,5.22Z"/><path class="cls-4" d="M612.5,584.79h1.66c0,.86,0,1.63-.06,2.57a4.29,4.29,0,0,1,4.25-2.93c2.57,0,4.31,1.49,4.31,5.14v10.25h-1.85v-9.67c0-1.52-.22-3.9-2.87-3.9-2.18,0-3.59,1.52-3.59,4.67v8.9H612.5Z"/><path class="cls-4" d="M639.68,599.83h-1.85l-4.53-15h1.88l3.57,12.55,3.45-12.55H644Z"/><path class="cls-4" d="M648,592.86c0,3.12,1.27,5.58,3.81,5.58a3.42,3.42,0,0,0,3.37-3H657a6,6,0,0,1-1.88,3.54,5,5,0,0,1-3.32,1.19c-4.15,0-5.75-4-5.75-7.85,0-4.67,2.16-7.9,5.69-7.9a4.67,4.67,0,0,1,4,2.13,10.94,10.94,0,0,1,1.38,6.3Zm7.29-1.63c-.05-3.12-1.35-5.22-3.62-5.22s-3.62,2.24-3.68,5.22Zm-.58-12.66.77,1.49-6.19,3.29-.69-1.3Z"/><path class="cls-4" d="M661.12,584.79h1.71c0,1.38,0,2.24-.05,3.15.75-2.93,2.68-3.45,4-3.51v2.16a1.24,1.24,0,0,0-.69-.19c-1.27,0-3.12,1.58-3.12,5.36v8.07h-1.85Z"/><path class="cls-4" d="M670.1,579.38H672v2.71H670.1Zm0,5.42H672v15H670.1Z"/><path class="cls-4" d="M677.64,586.54h-2.1v-1.74h2.1V580h1.85v4.75h2.07v1.74h-2.07v13.29h-1.85Z"/><path class="cls-4" d="M694.47,599.83h-1.71c0-1.33,0-2.16,0-2.87a4.13,4.13,0,0,1-4,3.23c-3,0-5-3.15-5-7.85s1.88-7.9,5-7.9c1.69,0,3.18.86,4,3.26,0-.91,0-1.77,0-2.9h1.71Zm-8.84-7.49c0,3.4,1.22,6,3.51,6a3,3,0,0,0,2.63-1.66,8.39,8.39,0,0,0,.86-4.39,8.27,8.27,0,0,0-.86-4.39,3,3,0,0,0-2.62-1.66c-2.29,0-3.51,2.63-3.51,6.05Z"/><path class="cls-4" d="M699.22,579.38h1.85v5.42c0,1.33,0,2.16-.05,2.87a4,4,0,0,1,3.84-3.23c3.18,0,5.06,3.26,5.06,7.85,0,4.78-2,7.9-5.06,7.9-1.74,0-3.12-.88-4-3.26,0,.91,0,1.77,0,2.9h-1.71Zm8.84,12.9c0-3.23-1.13-6-3.48-6-2.6,0-3.51,3-3.51,6.05s.91,6.05,3.51,6.05c2.35,0,3.48-2.79,3.48-6.05Z"/><path class="cls-4" d="M714.08,579.38h1.85v20.45h-1.85Z"/><path class="cls-4" d="M722.09,592.86c0,3.12,1.27,5.58,3.81,5.58a3.42,3.42,0,0,0,3.37-3h1.82a6,6,0,0,1-1.88,3.54,5,5,0,0,1-3.32,1.19c-4.15,0-5.75-4-5.75-7.85,0-4.67,2.16-7.9,5.69-7.9a4.67,4.67,0,0,1,4,2.13,10.94,10.94,0,0,1,1.38,6.3Zm7.29-1.63c-.05-3.12-1.35-5.22-3.62-5.22s-3.62,2.24-3.68,5.22Z"/><path class="cls-4" d="M743,584.79h1.71c0,1.13,0,2,0,2.87.77-2.27,2.16-3.23,4-3.23,3,0,5.06,3.12,5.06,7.9,0,4.59-1.88,7.85-5.06,7.85a4.08,4.08,0,0,1-3.84-3.1c.06.66.06,1.44.06,2.74v5.55H743Zm8.84,7.49c0-3.4-1.19-6-3.51-6a2.87,2.87,0,0,0-2.57,1.66,8,8,0,0,0-.91,4.39,8.07,8.07,0,0,0,.91,4.39,2.87,2.87,0,0,0,2.57,1.66c2.32,0,3.51-2.63,3.51-6.05Z"/><path class="cls-4" d="M757.62,584.79h1.71c0,1.38,0,2.24-.05,3.15.75-2.93,2.68-3.45,4-3.51v2.16a1.24,1.24,0,0,0-.69-.19c-1.27,0-3.12,1.58-3.12,5.36v8.07h-1.85Z"/><path class="cls-4" d="M765.25,592.28c0-4.28,1.77-7.85,5.8-7.85s5.78,3.56,5.78,7.88-1.77,7.88-5.78,7.88-5.8-3.56-5.8-7.88Zm1.93.06c0,4,1.3,6.11,3.9,6.11s3.81-2.13,3.81-6.13-1.3-6.13-3.87-6.13-3.84,2.13-3.84,6.13Z"/><path class="cls-4" d="M781.16,586.54h-1.69v-1.74h1.69v-1.13c0-4.5,3.56-4.64,4.48-4.64v1.63c-1.38.08-2.62.75-2.62,3.18v1h2.63v1.74H783v13.29h-1.85Z"/><path class="cls-4" d="M789.4,592.86c0,3.12,1.27,5.58,3.81,5.58a3.42,3.42,0,0,0,3.37-3h1.82a6,6,0,0,1-1.88,3.54,5,5,0,0,1-3.32,1.19c-4.14,0-5.75-4-5.75-7.85,0-4.67,2.16-7.9,5.69-7.9a4.67,4.67,0,0,1,4,2.13c1.22,1.8,1.41,4.12,1.38,6.3Zm7.29-1.63c-.06-3.12-1.35-5.22-3.62-5.22s-3.62,2.24-3.67,5.22Z"/><path class="cls-4" d="M808.57,588.69c0-1.91-1-2.6-2.43-2.6a2.12,2.12,0,0,0-2.18,2.24c0,1.69,1.41,2.29,3.23,2.85,1.66.5,3.59,1.52,3.59,4.53a4.31,4.31,0,0,1-4.48,4.48c-2.74,0-4.56-1.63-4.7-4.78h1.82c0,2,1.22,3.07,2.88,3.07a2.41,2.41,0,0,0,2.54-2.62c0-1.82-1.27-2.54-3.29-3.18s-3.54-1.6-3.54-4.28a3.87,3.87,0,0,1,4.2-4c2.57,0,4.09,1.46,4.17,4.26Z"/><path class="cls-4" d="M820.81,588.69c0-1.91-1-2.6-2.43-2.6a2.12,2.12,0,0,0-2.18,2.24c0,1.69,1.41,2.29,3.23,2.85,1.66.5,3.59,1.52,3.59,4.53a4.31,4.31,0,0,1-4.48,4.48c-2.74,0-4.56-1.63-4.7-4.78h1.82c0,2,1.22,3.07,2.87,3.07a2.41,2.41,0,0,0,2.54-2.62c0-1.82-1.27-2.54-3.29-3.18s-3.54-1.6-3.54-4.28a3.87,3.87,0,0,1,4.2-4c2.57,0,4.09,1.46,4.17,4.26Z"/><path class="cls-4" d="M827.22,579.38h1.85v2.71h-1.85Zm0,5.42h1.85v15h-1.85Z"/><path class="cls-4" d="M833.24,592.28c0-4.28,1.77-7.85,5.8-7.85s5.78,3.56,5.78,7.88-1.77,7.88-5.78,7.88-5.8-3.56-5.8-7.88Zm1.93.06c0,4,1.3,6.11,3.9,6.11s3.81-2.13,3.81-6.13-1.3-6.13-3.87-6.13-3.84,2.13-3.84,6.13Z"/><path class="cls-4" d="M848.77,584.79h1.66c0,.86,0,1.63-.06,2.57a4.29,4.29,0,0,1,4.26-2.93c2.57,0,4.31,1.49,4.31,5.14v10.25h-1.85v-9.67c0-1.52-.22-3.9-2.87-3.9-2.18,0-3.59,1.52-3.59,4.67v8.9h-1.85Z"/><path class="cls-4" d="M863.6,584.79h1.66c0,.86,0,1.63-.06,2.57a4.29,4.29,0,0,1,4.26-2.93c2.57,0,4.31,1.49,4.31,5.14v10.25h-1.85v-9.67c0-1.52-.22-3.9-2.87-3.9-2.18,0-3.59,1.52-3.59,4.67v8.9H863.6Z"/><path class="cls-4" d="M879.63,592.86c0,3.12,1.27,5.58,3.81,5.58a3.42,3.42,0,0,0,3.37-3h1.82a6,6,0,0,1-1.88,3.54,5,5,0,0,1-3.32,1.19c-4.15,0-5.75-4-5.75-7.85,0-4.67,2.16-7.9,5.69-7.9a4.67,4.67,0,0,1,4,2.13,10.94,10.94,0,0,1,1.38,6.3Zm7.29-1.63c-.05-3.12-1.35-5.22-3.62-5.22s-3.62,2.24-3.68,5.22Z"/><path class="cls-4" d="M893,579.38h1.85v20.45H893Z"/><path class="cls-4" d="M917.45,599.83h-1.71c0-1.38,0-2.21,0-3a4.1,4.1,0,0,1-4,3.34c-3,0-5-3.15-5-7.85s1.88-7.9,5-7.9c1.69,0,3.07.86,3.87,3.18-.05-.88-.05-1.71-.05-2.82v-5.42h1.85Zm-8.84-7.52c0,3.4,1.22,6,3.51,6a3,3,0,0,0,2.63-1.66,11.7,11.7,0,0,0,0-8.79,3,3,0,0,0-2.63-1.63c-2.29,0-3.51,2.6-3.51,6Z"/><path class="cls-4" d="M923.39,592.86c0,3.12,1.27,5.58,3.81,5.58a3.42,3.42,0,0,0,3.37-3h1.82a6,6,0,0,1-1.88,3.54,5,5,0,0,1-3.32,1.19c-4.14,0-5.75-4-5.75-7.85,0-4.67,2.16-7.9,5.69-7.9a4.67,4.67,0,0,1,4,2.13c1.22,1.8,1.41,4.12,1.38,6.3Zm7.29-1.63c-.06-3.12-1.35-5.22-3.62-5.22s-3.62,2.24-3.67,5.22Z"/><path class="cls-4" d="M944.5,579.38h1.85v20.45H944.5Z"/><path class="cls-4" d="M961.21,599.83H959.5c0-1.33,0-2.16,0-2.87a4.13,4.13,0,0,1-4,3.23c-3,0-5-3.15-5-7.85s1.88-7.9,5-7.9c1.69,0,3.18.86,4,3.26,0-.91,0-1.77,0-2.9h1.71Zm-8.84-7.49c0,3.4,1.21,6,3.51,6a3,3,0,0,0,2.63-1.66,8.39,8.39,0,0,0,.86-4.39,8.27,8.27,0,0,0-.86-4.39,3,3,0,0,0-2.63-1.66c-2.29,0-3.51,2.63-3.51,6.05Z"/><path class="cls-4" d="M983.62,594.72c-.33,3.07-2,5.47-5,5.47-4,0-5.8-3.76-5.8-7.85,0-4.92,2.32-7.9,5.72-7.9,3.1,0,4.84,2.38,5,5.55h-1.88c-.3-3-1.74-3.81-3.15-3.81a2.92,2.92,0,0,0-2.74,1.6,8.9,8.9,0,0,0-1,4.53c0,4,1.35,6.13,3.73,6.13,1.85,0,2.9-1.49,3.18-3.73Z"/><path class="cls-4" d="M986.33,592.28c0-4.28,1.77-7.85,5.8-7.85s5.78,3.56,5.78,7.88-1.77,7.88-5.78,7.88-5.8-3.56-5.8-7.88Zm1.93.06c0,4,1.3,6.11,3.9,6.11s3.81-2.13,3.81-6.13-1.3-6.13-3.87-6.13-3.84,2.13-3.84,6.13Z"/><path class="cls-4" d="M1001.85,584.79h1.66c0,.86,0,1.63-.06,2.57a4.29,4.29,0,0,1,4.25-2.93c2.57,0,4.31,1.49,4.31,5.14v10.25h-1.85v-9.67c0-1.52-.22-3.9-2.87-3.9-2.18,0-3.59,1.52-3.59,4.67v8.9h-1.85Z"/><path class="cls-4" d="M1026.58,599.83h-1.71c0-1.38,0-2.21,0-3a4.1,4.1,0,0,1-4,3.34c-3,0-5-3.15-5-7.85s1.88-7.9,5-7.9c1.69,0,3.07.86,3.87,3.18-.06-.88-.06-1.71-.06-2.82v-5.42h1.85Zm-8.84-7.52c0,3.4,1.21,6,3.51,6a3,3,0,0,0,2.63-1.66,11.71,11.71,0,0,0,0-8.79,3,3,0,0,0-2.63-1.63c-2.29,0-3.51,2.6-3.51,6Z"/><path class="cls-4" d="M1041.42,599.83h-1.71c0-.86,0-1.69.05-2.62a4.22,4.22,0,0,1-4.2,3c-2.57,0-4.31-1.49-4.31-5.14V584.79h1.85v9.67c0,1.52.22,3.9,2.87,3.9,2.18,0,3.59-1.52,3.59-4.67v-8.9h1.85Z"/><path class="cls-4" d="M1046.39,579.38h1.85v2.71h-1.85Zm0,5.42h1.85v15h-1.85Z"/><path class="cls-4" d="M1053.93,586.54h-2.1v-1.74h2.1V580h1.85v4.75h2.07v1.74h-2.07v13.29h-1.85Z"/><path class="cls-4" d="M1062.05,592.86c0,3.12,1.27,5.58,3.81,5.58a3.42,3.42,0,0,0,3.37-3h1.82a6,6,0,0,1-1.88,3.54,5,5,0,0,1-3.32,1.19c-4.15,0-5.75-4-5.75-7.85,0-4.67,2.16-7.9,5.69-7.9a4.67,4.67,0,0,1,4,2.13,10.94,10.94,0,0,1,1.38,6.3Zm7.29-1.63c-.05-3.12-1.35-5.22-3.62-5.22s-3.62,2.24-3.68,5.22Z"/><path class="cls-4" d="M1075.76,602.12h-1.63l1.82-5.22h1.85Z"/><path class="cls-4" d="M1092.53,599.83h-1.85l-4.53-15H1088l3.57,12.55,3.45-12.55h1.85Z"/><path class="cls-4" d="M1098.85,592.28c0-4.28,1.77-7.85,5.8-7.85s5.78,3.56,5.78,7.88-1.77,7.88-5.78,7.88-5.8-3.56-5.8-7.88Zm1.93.06c0,4,1.3,6.11,3.9,6.11s3.81-2.13,3.81-6.13-1.3-6.13-3.87-6.13-3.84,2.13-3.84,6.13Z"/><path class="cls-4" d="M1124.47,599.83h-1.71c0-.86,0-1.69.06-2.62a4.22,4.22,0,0,1-4.2,3c-2.57,0-4.31-1.49-4.31-5.14V584.79h1.85v9.67c0,1.52.22,3.9,2.87,3.9,2.18,0,3.59-1.52,3.59-4.67v-8.9h1.85Z"/><path class="cls-4" d="M1135.27,588.69c0-1.91-1-2.6-2.43-2.6a2.12,2.12,0,0,0-2.18,2.24c0,1.69,1.41,2.29,3.23,2.85,1.66.5,3.59,1.52,3.59,4.53a4.31,4.31,0,0,1-4.48,4.48c-2.74,0-4.56-1.63-4.7-4.78h1.82c0,2,1.22,3.07,2.88,3.07a2.41,2.41,0,0,0,2.54-2.62c0-1.82-1.27-2.54-3.29-3.18s-3.54-1.6-3.54-4.28a3.87,3.87,0,0,1,4.2-4c2.57,0,4.09,1.46,4.17,4.26Z"/><path class="cls-4" d="M1155.27,588.69c0-1.91-1-2.6-2.43-2.6a2.12,2.12,0,0,0-2.18,2.24c0,1.69,1.41,2.29,3.23,2.85,1.66.5,3.59,1.52,3.59,4.53a4.31,4.31,0,0,1-4.48,4.48c-2.74,0-4.56-1.63-4.7-4.78h1.82c0,2,1.22,3.07,2.87,3.07a2.41,2.41,0,0,0,2.54-2.62c0-1.82-1.27-2.54-3.29-3.18s-3.54-1.6-3.54-4.28a3.87,3.87,0,0,1,4.2-4c2.57,0,4.09,1.46,4.17,4.26Z"/><path class="cls-4" d="M1160.66,592.28c0-4.28,1.77-7.85,5.8-7.85s5.78,3.56,5.78,7.88-1.77,7.88-5.78,7.88-5.8-3.56-5.8-7.88Zm1.93.06c0,4,1.3,6.11,3.9,6.11s3.81-2.13,3.81-6.13-1.3-6.13-3.87-6.13-3.84,2.13-3.84,6.13Z"/><path class="cls-4" d="M1186.27,599.83h-1.71c0-.86,0-1.69.06-2.62a4.22,4.22,0,0,1-4.2,3c-2.57,0-4.31-1.49-4.31-5.14V584.79H1178v9.67c0,1.52.22,3.9,2.87,3.9,2.18,0,3.59-1.52,3.59-4.67v-8.9h1.85Z"/><path class="cls-4" d="M1191,579.38h1.85v5.31c0,.8,0,1.57-.06,2.49a3.9,3.9,0,0,1,4-2.74,4,4,0,0,1,3.23,1.35c.83.94,1.11,2.27,1.11,4.15v9.89h-1.85v-9.34a5.46,5.46,0,0,0-.69-3.26,2.61,2.61,0,0,0-2.18-1,3.09,3.09,0,0,0-2.65,1.22c-.64.83-.94,1.77-.94,3.81v8.54H1191Z"/><path class="cls-4" d="M1215.75,599.83H1214c0-1.33,0-2.16,0-2.87a4.14,4.14,0,0,1-4,3.23c-3,0-5-3.15-5-7.85s1.88-7.9,5-7.9c1.69,0,3.18.86,4,3.26,0-.91,0-1.77,0-2.9h1.71Zm-8.84-7.49c0,3.4,1.22,6,3.51,6a3,3,0,0,0,2.63-1.66,8.38,8.38,0,0,0,.86-4.39,8.25,8.25,0,0,0-.86-4.39,3,3,0,0,0-2.62-1.66c-2.29,0-3.51,2.63-3.51,6.05Z"/><path class="cls-4" d="M1220.72,579.38h1.85v2.71h-1.85Zm0,5.42h1.85v15h-1.85Z"/><path class="cls-4" d="M1228.26,586.54h-2.1v-1.74h2.1V580h1.85v4.75h2.07v1.74h-2.07v13.29h-1.85Z"/><path class="cls-4" d="M1236.39,592.86c0,3.12,1.27,5.58,3.81,5.58a3.42,3.42,0,0,0,3.37-3h1.82a6,6,0,0,1-1.88,3.54,5,5,0,0,1-3.32,1.19c-4.14,0-5.75-4-5.75-7.85,0-4.67,2.16-7.9,5.69-7.9a4.67,4.67,0,0,1,4,2.13c1.22,1.8,1.41,4.12,1.38,6.3Zm7.29-1.63c-.06-3.12-1.35-5.22-3.62-5.22s-3.62,2.24-3.67,5.22Z"/><path class="cls-4" d="M1248.24,598.11l7.21-11.58h-6.74v-1.74h9v1.77l-7.18,11.52h7.43v1.74h-9.67Z"/><path class="cls-4" d="M1279.24,599.83h-1.71c0-1.33,0-2.16,0-2.87a4.13,4.13,0,0,1-4,3.23c-3,0-5-3.15-5-7.85s1.88-7.9,5-7.9c1.69,0,3.18.86,4,3.26,0-.91,0-1.77,0-2.9h1.71Zm-8.84-7.49c0,3.4,1.22,6,3.51,6a3,3,0,0,0,2.63-1.66,8.39,8.39,0,0,0,.86-4.39,8.27,8.27,0,0,0-.86-4.39,3,3,0,0,0-2.62-1.66c-2.29,0-3.51,2.63-3.51,6.05Z"/><path class="cls-4" d="M1290,588.69c0-1.91-1-2.6-2.43-2.6a2.12,2.12,0,0,0-2.18,2.24c0,1.69,1.41,2.29,3.23,2.85,1.66.5,3.59,1.52,3.59,4.53a4.31,4.31,0,0,1-4.48,4.48c-2.74,0-4.56-1.63-4.7-4.78h1.82c0,2,1.22,3.07,2.87,3.07a2.41,2.41,0,0,0,2.54-2.62c0-1.82-1.27-2.54-3.29-3.18s-3.54-1.6-3.54-4.28a3.87,3.87,0,0,1,4.2-4c2.57,0,4.09,1.46,4.17,4.26Z"/><path class="cls-4" d="M1302.28,588.69c0-1.91-1-2.6-2.43-2.6a2.12,2.12,0,0,0-2.18,2.24c0,1.69,1.41,2.29,3.23,2.85,1.66.5,3.59,1.52,3.59,4.53a4.31,4.31,0,0,1-4.48,4.48c-2.74,0-4.56-1.63-4.7-4.78h1.82c0,2,1.21,3.07,2.87,3.07a2.42,2.42,0,0,0,2.54-2.62c0-1.82-1.27-2.54-3.29-3.18s-3.54-1.6-3.54-4.28a3.87,3.87,0,0,1,4.2-4c2.57,0,4.09,1.46,4.17,4.26Z"/><path class="cls-4" d="M1318.55,599.83h-1.71c0-.86,0-1.69.05-2.62a4.22,4.22,0,0,1-4.2,3c-2.57,0-4.31-1.49-4.31-5.14V584.79h1.85v9.67c0,1.52.22,3.9,2.87,3.9,2.18,0,3.59-1.52,3.59-4.67v-8.9h1.85Z"/><path class="cls-4" d="M1323.3,584.79H1325c0,1.38,0,2.24-.06,3.15.75-2.93,2.68-3.45,4-3.51v2.16a1.25,1.25,0,0,0-.69-.19c-1.27,0-3.12,1.58-3.12,5.36v8.07h-1.85Z"/><path class="cls-4" d="M1332.92,592.86c0,3.12,1.27,5.58,3.81,5.58a3.42,3.42,0,0,0,3.37-3h1.82A6,6,0,0,1,1340,599a5,5,0,0,1-3.32,1.19c-4.15,0-5.75-4-5.75-7.85,0-4.67,2.15-7.9,5.69-7.9a4.67,4.67,0,0,1,4,2.13,10.93,10.93,0,0,1,1.38,6.3Zm7.29-1.63c-.05-3.12-1.35-5.22-3.62-5.22s-3.62,2.24-3.68,5.22Z"/><path class="cls-4" d="M1346,584.79h1.71c0,1.38,0,2.24-.05,3.15.75-2.93,2.68-3.45,4-3.51v2.16a1.25,1.25,0,0,0-.69-.19c-1.27,0-3.12,1.58-3.12,5.36v8.07H1346Z"/><path class="cls-4" d="M535.19,617.17H537v20.45h-1.85Z"/><path class="cls-4" d="M543.21,630.65c0,3.12,1.27,5.58,3.81,5.58a3.42,3.42,0,0,0,3.37-3h1.82a6,6,0,0,1-1.88,3.54A5,5,0,0,1,547,638c-4.15,0-5.75-4-5.75-7.85,0-4.67,2.16-7.9,5.69-7.9a4.67,4.67,0,0,1,4,2.13,10.94,10.94,0,0,1,1.38,6.3ZM550.5,629c-.05-3.12-1.35-5.22-3.62-5.22s-3.62,2.24-3.68,5.22Z"/><path class="cls-4" d="M564.81,624.32h-2.1v-1.74h2.1v-4.75h1.85v4.75h2.07v1.74h-2.07v13.29h-1.85Z"/><path class="cls-4" d="M572.1,622.58h1.71c0,1.38,0,2.24-.05,3.15.75-2.93,2.68-3.45,4-3.51v2.16a1.24,1.24,0,0,0-.69-.19c-1.27,0-3.12,1.58-3.12,5.36v8.07H572.1Z"/><path class="cls-4" d="M590.42,637.62h-1.71c0-1.33,0-2.16,0-2.87a4.13,4.13,0,0,1-4,3.23c-3,0-5-3.15-5-7.85s1.88-7.9,5-7.9c1.69,0,3.18.86,4,3.26,0-.91,0-1.77,0-2.9h1.71Zm-8.84-7.49c0,3.4,1.21,6,3.51,6a3,3,0,0,0,2.63-1.66,8.39,8.39,0,0,0,.86-4.39,8.27,8.27,0,0,0-.86-4.39,3,3,0,0,0-2.63-1.66c-2.29,0-3.51,2.63-3.51,6.05Z"/><path class="cls-4" d="M595.17,622.58h1.66c0,.86,0,1.63-.05,2.57a4.29,4.29,0,0,1,4.26-2.93c2.57,0,4.31,1.49,4.31,5.14v10.25h-1.85v-9.67c0-1.52-.22-3.9-2.87-3.9-2.18,0-3.59,1.52-3.59,4.67v8.9h-1.85Z"/><path class="cls-4" d="M616.06,626.48c0-1.91-1-2.6-2.43-2.6a2.12,2.12,0,0,0-2.18,2.24c0,1.69,1.41,2.29,3.23,2.85,1.66.5,3.59,1.52,3.59,4.53A4.31,4.31,0,0,1,613.8,638c-2.74,0-4.56-1.63-4.7-4.78h1.82c0,2,1.22,3.07,2.88,3.07a2.41,2.41,0,0,0,2.54-2.63c0-1.82-1.27-2.54-3.29-3.18s-3.54-1.6-3.54-4.28a3.87,3.87,0,0,1,4.2-4c2.57,0,4.09,1.46,4.17,4.26Z"/><path class="cls-4" d="M622.25,622.58H624c0,1.13,0,2,0,2.87.77-2.27,2.16-3.23,4-3.23,3,0,5.06,3.12,5.06,7.9,0,4.59-1.88,7.85-5.06,7.85a4.08,4.08,0,0,1-3.84-3.1c.06.66.06,1.44.06,2.74v5.55h-1.85Zm8.84,7.49c0-3.4-1.19-6-3.51-6a2.88,2.88,0,0,0-2.57,1.66,8,8,0,0,0-.91,4.39,8.08,8.08,0,0,0,.91,4.39,2.88,2.88,0,0,0,2.57,1.66c2.32,0,3.51-2.63,3.51-6.05Z"/><path class="cls-4" d="M636.09,630.07c0-4.28,1.77-7.85,5.8-7.85s5.78,3.56,5.78,7.88S645.9,638,641.89,638s-5.8-3.56-5.8-7.88Zm1.94.06c0,4,1.3,6.11,3.9,6.11s3.81-2.13,3.81-6.13-1.3-6.13-3.87-6.13S638,626.09,638,630.1Z"/><path class="cls-4" d="M651.62,622.58h1.71c0,1.38,0,2.24-.06,3.15.75-2.93,2.68-3.45,4-3.51v2.16a1.25,1.25,0,0,0-.69-.19c-1.27,0-3.12,1.58-3.12,5.36v8.07h-1.85Z"/><path class="cls-4" d="M661.23,624.32h-2.1v-1.74h2.1v-4.75h1.85v4.75h2.07v1.74h-2.07v13.29h-1.85Z"/><path class="cls-4" d="M686.18,637.62h-1.71c0-1.38,0-2.21,0-3a4.1,4.1,0,0,1-4,3.34c-3,0-5-3.15-5-7.85s1.88-7.9,5-7.9c1.69,0,3.07.86,3.87,3.18-.05-.88-.05-1.71-.05-2.82v-5.42h1.85Zm-8.84-7.52c0,3.4,1.22,6,3.51,6a3,3,0,0,0,2.63-1.66,11.7,11.7,0,0,0,0-8.79,3,3,0,0,0-2.63-1.63c-2.29,0-3.51,2.6-3.51,6Z"/><path class="cls-4" d="M692.12,630.65c0,3.12,1.27,5.58,3.81,5.58a3.42,3.42,0,0,0,3.37-3h1.82a6,6,0,0,1-1.88,3.54,5,5,0,0,1-3.32,1.19c-4.14,0-5.75-4-5.75-7.85,0-4.67,2.16-7.9,5.69-7.9a4.67,4.67,0,0,1,4,2.13c1.22,1.8,1.41,4.12,1.38,6.3Zm7.29-1.63c-.06-3.12-1.35-5.22-3.62-5.22s-3.62,2.24-3.67,5.22Z"/><path class="cls-4" d="M713.06,622.58h1.77c0,.77,0,1.58-.06,2.46a3.72,3.72,0,0,1,3.81-2.82,3.56,3.56,0,0,1,2.63,1A3.5,3.5,0,0,1,722,625a4.11,4.11,0,0,1,1.24-1.91,4.6,4.6,0,0,1,2.76-.91,3.87,3.87,0,0,1,3.51,1.93,9,9,0,0,1,.69,4.12v9.34H728.4v-9.2a9,9,0,0,0-.3-2.79A2.3,2.3,0,0,0,725.8,624a2.75,2.75,0,0,0-2.43,1.22,5.87,5.87,0,0,0-.8,3.29v9.06h-1.85V628.5a9,9,0,0,0-.3-2.87,2.28,2.28,0,0,0-2.27-1.58,2.84,2.84,0,0,0-2.43,1.16,5.92,5.92,0,0,0-.8,3.4v9h-1.85Z"/><path class="cls-4" d="M744.86,637.62h-1.71c0-1.33,0-2.16,0-2.87a4.13,4.13,0,0,1-4,3.23c-3,0-5-3.15-5-7.85s1.88-7.9,5-7.9c1.69,0,3.18.86,4,3.26,0-.91,0-1.77,0-2.9h1.71ZM736,630.13c0,3.4,1.22,6,3.51,6a3,3,0,0,0,2.63-1.66,8.38,8.38,0,0,0,.86-4.39,8.25,8.25,0,0,0-.86-4.39,3,3,0,0,0-2.63-1.66c-2.29,0-3.51,2.63-3.51,6.05Z"/><path class="cls-4" d="M749.61,622.58h1.71c0,1.38,0,2.24-.05,3.15.75-2.93,2.68-3.45,4-3.51v2.16a1.24,1.24,0,0,0-.69-.19c-1.27,0-3.12,1.58-3.12,5.36v8.07h-1.85Z"/><path class="cls-4" d="M767.93,632.5c-.33,3.07-2,5.47-5,5.47-4,0-5.8-3.76-5.8-7.85,0-4.92,2.32-7.9,5.72-7.9,3.1,0,4.84,2.38,5,5.55H766c-.3-3-1.74-3.81-3.15-3.81a2.92,2.92,0,0,0-2.74,1.6,8.9,8.9,0,0,0-1,4.53c0,4,1.35,6.13,3.73,6.13,1.85,0,2.9-1.49,3.18-3.73Z"/><path class="cls-4" d="M771.44,617.17h1.85v5.31c0,.8,0,1.57-.05,2.49a3.9,3.9,0,0,1,4-2.74,4,4,0,0,1,3.23,1.35c.83.94,1.11,2.27,1.11,4.15v9.89h-1.85v-9.34a5.46,5.46,0,0,0-.69-3.26,2.61,2.61,0,0,0-2.18-1,3.1,3.1,0,0,0-2.65,1.22c-.63.83-.94,1.77-.94,3.81v8.54h-1.85Z"/><path class="cls-4" d="M796.17,637.62h-1.71c0-1.33,0-2.16,0-2.87a4.14,4.14,0,0,1-4,3.23c-3,0-5-3.15-5-7.85s1.88-7.9,5-7.9c1.69,0,3.18.86,4,3.26,0-.91,0-1.77,0-2.9h1.71Zm-8.84-7.49c0,3.4,1.22,6,3.51,6a3,3,0,0,0,2.63-1.66,8.38,8.38,0,0,0,.86-4.39,8.25,8.25,0,0,0-.86-4.39,3,3,0,0,0-2.62-1.66c-2.29,0-3.51,2.63-3.51,6.05Z"/><path class="cls-4" d="M800.92,622.58h1.66c0,.86,0,1.63-.06,2.57a4.29,4.29,0,0,1,4.26-2.93c2.57,0,4.31,1.49,4.31,5.14v10.25h-1.85v-9.67c0-1.52-.22-3.9-2.87-3.9-2.18,0-3.59,1.52-3.59,4.67v8.9h-1.85Z"/><path class="cls-4" d="M825.65,637.62h-1.71c0-1.38,0-2.21,0-3a4.1,4.1,0,0,1-4,3.34c-3,0-5-3.15-5-7.85s1.88-7.9,5-7.9c1.69,0,3.07.86,3.87,3.18-.05-.88-.05-1.71-.05-2.82v-5.42h1.85Zm-8.84-7.52c0,3.4,1.22,6,3.51,6a3,3,0,0,0,2.63-1.66,11.69,11.69,0,0,0,0-8.79,3,3,0,0,0-2.62-1.63c-2.29,0-3.51,2.6-3.51,6Z"/><path class="cls-4" d="M830.62,617.17h1.85v2.71h-1.85Zm0,5.42h1.85v15h-1.85Z"/><path class="cls-4" d="M843.49,626.48c0-1.91-1-2.6-2.43-2.6a2.12,2.12,0,0,0-2.18,2.24c0,1.69,1.41,2.29,3.23,2.85,1.66.5,3.59,1.52,3.59,4.53a4.31,4.31,0,0,1-4.48,4.48c-2.74,0-4.56-1.63-4.7-4.78h1.82c0,2,1.21,3.07,2.87,3.07a2.42,2.42,0,0,0,2.54-2.63c0-1.82-1.27-2.54-3.29-3.18s-3.54-1.6-3.54-4.28a3.87,3.87,0,0,1,4.2-4c2.57,0,4.09,1.46,4.17,4.26Z"/><path class="cls-4" d="M850.87,630.65c0,3.12,1.27,5.58,3.81,5.58a3.42,3.42,0,0,0,3.37-3h1.82a6,6,0,0,1-1.88,3.54,5,5,0,0,1-3.32,1.19c-4.14,0-5.75-4-5.75-7.85,0-4.67,2.16-7.9,5.69-7.9a4.67,4.67,0,0,1,4,2.13c1.22,1.8,1.41,4.12,1.38,6.3Zm7.29-1.63c-.06-3.12-1.35-5.22-3.62-5.22s-3.62,2.24-3.67,5.22Z"/><path class="cls-4" d="M870,626.48c0-1.91-1-2.6-2.43-2.6a2.12,2.12,0,0,0-2.18,2.24c0,1.69,1.41,2.29,3.23,2.85,1.66.5,3.59,1.52,3.59,4.53a4.31,4.31,0,0,1-4.48,4.48c-2.74,0-4.56-1.63-4.7-4.78h1.82c0,2,1.22,3.07,2.88,3.07a2.41,2.41,0,0,0,2.54-2.63c0-1.82-1.27-2.54-3.29-3.18s-3.54-1.6-3.54-4.28a3.87,3.87,0,0,1,4.2-4c2.57,0,4.09,1.46,4.17,4.26Z"/><path class="cls-4" d="M893.89,637.62h-1.71c0-1.38,0-2.21,0-3a4.1,4.1,0,0,1-4,3.34c-3,0-5-3.15-5-7.85s1.88-7.9,5-7.9c1.69,0,3.07.86,3.87,3.18-.05-.88-.05-1.71-.05-2.82v-5.42h1.85ZM885,630.1c0,3.4,1.22,6,3.51,6a3,3,0,0,0,2.63-1.66,11.69,11.69,0,0,0,0-8.79,3,3,0,0,0-2.62-1.63c-2.29,0-3.51,2.6-3.51,6Z"/><path class="cls-4" d="M908.53,637.62h-1.71c0-1.33,0-2.16,0-2.87a4.14,4.14,0,0,1-4,3.23c-3,0-5-3.15-5-7.85s1.88-7.9,5-7.9c1.69,0,3.18.86,4,3.26,0-.91,0-1.77,0-2.9h1.71Zm-8.84-7.49c0,3.4,1.22,6,3.51,6a3,3,0,0,0,2.63-1.66,8.38,8.38,0,0,0,.86-4.39,8.25,8.25,0,0,0-.86-4.39,3,3,0,0,0-2.62-1.66c-2.29,0-3.51,2.63-3.51,6.05Z"/><path class="cls-4" d="M913.28,622.58h1.66c0,.86,0,1.63-.06,2.57a4.29,4.29,0,0,1,4.26-2.93c2.57,0,4.31,1.49,4.31,5.14v10.25h-1.85v-9.67c0-1.52-.22-3.9-2.87-3.9-2.18,0-3.59,1.52-3.59,4.67v8.9h-1.85Z"/><path class="cls-4" d="M934.17,626.48c0-1.91-1-2.6-2.43-2.6a2.12,2.12,0,0,0-2.18,2.24c0,1.69,1.41,2.29,3.23,2.85,1.66.5,3.59,1.52,3.59,4.53A4.31,4.31,0,0,1,931.9,638c-2.74,0-4.56-1.63-4.7-4.78H929c0,2,1.22,3.07,2.87,3.07a2.41,2.41,0,0,0,2.54-2.63c0-1.82-1.27-2.54-3.29-3.18s-3.54-1.6-3.54-4.28a3.87,3.87,0,0,1,4.2-4c2.57,0,4.09,1.46,4.17,4.26Z"/><path class="cls-4" d="M958,637.62H956.3c0-1.38,0-2.21,0-3a4.1,4.1,0,0,1-4,3.34c-3,0-5-3.15-5-7.85s1.88-7.9,5-7.9c1.69,0,3.07.86,3.87,3.18-.05-.88-.05-1.71-.05-2.82v-5.42H958Zm-8.84-7.52c0,3.4,1.22,6,3.51,6a3,3,0,0,0,2.63-1.66,11.7,11.7,0,0,0,0-8.79,3,3,0,0,0-2.63-1.63c-2.29,0-3.51,2.6-3.51,6Z"/><path class="cls-4" d="M963.95,630.65c0,3.12,1.27,5.58,3.81,5.58a3.42,3.42,0,0,0,3.37-3H973a6,6,0,0,1-1.88,3.54,5,5,0,0,1-3.32,1.19c-4.15,0-5.75-4-5.75-7.85,0-4.67,2.15-7.9,5.69-7.9a4.67,4.67,0,0,1,4,2.13,10.93,10.93,0,0,1,1.38,6.3Zm7.29-1.63c-.05-3.12-1.35-5.22-3.62-5.22S964,626,963.95,629Z"/><path class="cls-4" d="M983.12,626.48c0-1.91-1-2.6-2.43-2.6a2.12,2.12,0,0,0-2.18,2.24c0,1.69,1.41,2.29,3.23,2.85,1.66.5,3.59,1.52,3.59,4.53a4.31,4.31,0,0,1-4.48,4.48c-2.74,0-4.56-1.63-4.7-4.78H978c0,2,1.22,3.07,2.88,3.07a2.41,2.41,0,0,0,2.54-2.63c0-1.82-1.27-2.54-3.29-3.18s-3.54-1.6-3.54-4.28a3.87,3.87,0,0,1,4.2-4c2.57,0,4.09,1.46,4.17,4.26Z"/><path class="cls-4" d="M1007,632.5c-.33,3.07-2,5.47-5,5.47-4,0-5.8-3.76-5.8-7.85,0-4.92,2.32-7.9,5.72-7.9,3.1,0,4.84,2.38,5,5.55H1005c-.3-3-1.74-3.81-3.15-3.81a2.92,2.92,0,0,0-2.74,1.6,8.91,8.91,0,0,0-1,4.53c0,4,1.35,6.13,3.73,6.13,1.85,0,2.9-1.49,3.18-3.73Z"/><path class="cls-4" d="M1009.67,630.07c0-4.28,1.77-7.85,5.8-7.85s5.78,3.56,5.78,7.88-1.77,7.88-5.78,7.88-5.8-3.56-5.8-7.88Zm1.94.06c0,4,1.3,6.11,3.9,6.11s3.81-2.13,3.81-6.13-1.3-6.13-3.87-6.13-3.84,2.13-3.84,6.13Z"/><path class="cls-4" d="M1025.2,622.58h1.66c0,.86,0,1.63-.05,2.57a4.29,4.29,0,0,1,4.26-2.93c2.57,0,4.31,1.49,4.31,5.14v10.25h-1.85v-9.67c0-1.52-.22-3.9-2.87-3.9-2.18,0-3.59,1.52-3.59,4.67v8.9h-1.85Z"/><path class="cls-4" d="M1049.93,637.62h-1.71c0-1.38,0-2.21,0-3a4.1,4.1,0,0,1-4,3.34c-3,0-5-3.15-5-7.85s1.88-7.9,5-7.9c1.69,0,3.07.86,3.87,3.18-.06-.88-.06-1.71-.06-2.82v-5.42h1.85Zm-8.84-7.52c0,3.4,1.22,6,3.51,6a3,3,0,0,0,2.63-1.66,11.7,11.7,0,0,0,0-8.79,3,3,0,0,0-2.62-1.63c-2.29,0-3.51,2.6-3.51,6Z"/><path class="cls-4" d="M1054.9,617.17h1.85v2.71h-1.85Zm0,5.42h1.85v15h-1.85Z"/><path class="cls-4" d="M1062.44,624.32h-2.1v-1.74h2.1v-4.75h1.85v4.75h2.07v1.74h-2.07v13.29h-1.85Z"/><path class="cls-4" d="M1070,617.17h1.85v2.71H1070Zm0,5.42h1.85v15H1070Z"/><path class="cls-4" d="M1076,630.07c0-4.28,1.77-7.85,5.8-7.85s5.78,3.56,5.78,7.88-1.77,7.88-5.78,7.88-5.8-3.56-5.8-7.88Zm1.94.06c0,4,1.3,6.11,3.9,6.11s3.81-2.13,3.81-6.13-1.3-6.13-3.87-6.13-3.84,2.13-3.84,6.13Z"/><path class="cls-4" d="M1091.5,622.58h1.66c0,.86,0,1.63-.05,2.57a4.29,4.29,0,0,1,4.25-2.93c2.57,0,4.31,1.49,4.31,5.14v10.25h-1.85v-9.67c0-1.52-.22-3.9-2.87-3.9-2.18,0-3.59,1.52-3.59,4.67v8.9h-1.85Z"/><path class="cls-4" d="M1112.39,626.48c0-1.91-1-2.6-2.43-2.6a2.12,2.12,0,0,0-2.18,2.24c0,1.69,1.41,2.29,3.23,2.85,1.66.5,3.59,1.52,3.59,4.53a4.31,4.31,0,0,1-4.48,4.48c-2.74,0-4.56-1.63-4.7-4.78h1.82c0,2,1.22,3.07,2.87,3.07a2.42,2.42,0,0,0,2.54-2.63c0-1.82-1.27-2.54-3.29-3.18s-3.54-1.6-3.54-4.28a3.87,3.87,0,0,1,4.2-4c2.57,0,4.09,1.46,4.17,4.26Z"/><path class="cls-4" d="M1136.23,637.62h-1.71c0-1.38,0-2.21,0-3a4.1,4.1,0,0,1-4,3.34c-3,0-5-3.15-5-7.85s1.88-7.9,5-7.9c1.69,0,3.07.86,3.87,3.18-.06-.88-.06-1.71-.06-2.82v-5.42h1.85Zm-8.84-7.52c0,3.4,1.22,6,3.51,6a3,3,0,0,0,2.63-1.66,11.7,11.7,0,0,0,0-8.79,3,3,0,0,0-2.62-1.63c-2.29,0-3.51,2.6-3.51,6Z"/><path class="cls-4" d="M1142.17,630.65c0,3.12,1.27,5.58,3.81,5.58a3.42,3.42,0,0,0,3.37-3h1.82a6,6,0,0,1-1.88,3.54A5,5,0,0,1,1146,638c-4.14,0-5.75-4-5.75-7.85,0-4.67,2.16-7.9,5.69-7.9a4.67,4.67,0,0,1,4,2.13,10.93,10.93,0,0,1,1.38,6.3Zm7.29-1.63c-.06-3.12-1.35-5.22-3.62-5.22s-3.62,2.24-3.67,5.22Z"/><path class="cls-4" d="M1169.11,626.48c0-1.91-1-2.6-2.43-2.6a2.12,2.12,0,0,0-2.18,2.24c0,1.69,1.41,2.29,3.23,2.85,1.66.5,3.59,1.52,3.59,4.53a4.31,4.31,0,0,1-4.48,4.48c-2.74,0-4.56-1.63-4.7-4.78H1164c0,2,1.22,3.07,2.87,3.07a2.41,2.41,0,0,0,2.54-2.63c0-1.82-1.27-2.54-3.29-3.18s-3.54-1.6-3.54-4.28a3.87,3.87,0,0,1,4.2-4c2.57,0,4.09,1.46,4.17,4.26Z"/><path class="cls-4" d="M1176.49,630.65c0,3.12,1.27,5.58,3.81,5.58a3.42,3.42,0,0,0,3.37-3h1.82a6,6,0,0,1-1.88,3.54,5,5,0,0,1-3.32,1.19c-4.15,0-5.75-4-5.75-7.85,0-4.67,2.15-7.9,5.69-7.9a4.67,4.67,0,0,1,4,2.13,10.93,10.93,0,0,1,1.38,6.3Zm7.29-1.63c-.05-3.12-1.35-5.22-3.62-5.22s-3.62,2.24-3.68,5.22Zm-.58-12.66.77,1.49-6.19,3.29-.69-1.3Z"/><path class="cls-4" d="M1199.5,632.5c-.33,3.07-2,5.47-5,5.47-4,0-5.8-3.76-5.8-7.85,0-4.92,2.32-7.9,5.72-7.9,3.1,0,4.84,2.38,5,5.55h-1.88c-.3-3-1.74-3.81-3.15-3.81a2.92,2.92,0,0,0-2.74,1.6,8.9,8.9,0,0,0-1,4.53c0,4,1.35,6.13,3.73,6.13,1.85,0,2.9-1.49,3.18-3.73Z"/><path class="cls-4" d="M1213.09,637.62h-1.71c0-.86,0-1.69.06-2.62a4.22,4.22,0,0,1-4.2,3c-2.57,0-4.31-1.49-4.31-5.14V622.58h1.85v9.67c0,1.52.22,3.9,2.87,3.9,2.18,0,3.59-1.52,3.59-4.67v-8.9h1.85Z"/><path class="cls-4" d="M1217.84,622.58h1.71c0,1.38,0,2.24-.06,3.15.75-2.93,2.68-3.45,4-3.51v2.16a1.25,1.25,0,0,0-.69-.19c-1.27,0-3.12,1.58-3.12,5.36v8.07h-1.85Z"/><path class="cls-4" d="M1226.82,617.17h1.85v2.71h-1.85Zm0,5.42h1.85v15h-1.85Z"/><path class="cls-4" d="M1234.37,624.32h-2.1v-1.74h2.1v-4.75h1.85v4.75h2.07v1.74h-2.07v13.29h-1.85Z"/><path class="cls-4" d="M1242.49,630.65c0,3.12,1.27,5.58,3.81,5.58a3.42,3.42,0,0,0,3.37-3h1.82a6,6,0,0,1-1.88,3.54,5,5,0,0,1-3.32,1.19c-4.14,0-5.75-4-5.75-7.85,0-4.67,2.16-7.9,5.69-7.9a4.67,4.67,0,0,1,4,2.13c1.22,1.8,1.41,4.12,1.38,6.3Zm7.29-1.63c-.06-3.12-1.35-5.22-3.62-5.22s-3.62,2.24-3.67,5.22Zm-.58-12.66.77,1.49-6.19,3.29-.69-1.3Z"/><path class="cls-4" d="M1262.57,630.07c0-4.28,1.77-7.85,5.8-7.85s5.78,3.56,5.78,7.88-1.77,7.88-5.78,7.88-5.8-3.56-5.8-7.88Zm1.93.06c0,4,1.3,6.11,3.9,6.11s3.81-2.13,3.81-6.13-1.3-6.13-3.87-6.13-3.84,2.13-3.84,6.13Z"/><path class="cls-4" d="M1278.1,622.58h1.71c0,1.13,0,2,0,2.87.77-2.27,2.16-3.23,4-3.23,3,0,5.06,3.12,5.06,7.9,0,4.59-1.88,7.85-5.06,7.85a4.08,4.08,0,0,1-3.84-3.1c.06.66.06,1.44.06,2.74v5.55h-1.85Zm8.84,7.49c0-3.4-1.19-6-3.51-6a2.88,2.88,0,0,0-2.57,1.66,8,8,0,0,0-.91,4.39,8.08,8.08,0,0,0,.91,4.39,2.88,2.88,0,0,0,2.57,1.66c2.32,0,3.51-2.63,3.51-6.05Z"/><path class="cls-4" d="M1293.46,624.32h-2.1v-1.74h2.1v-4.75h1.85v4.75h2.07v1.74h-2.07v13.29h-1.85Z"/><path class="cls-4" d="M1301,617.17h1.85v2.71H1301Zm0,5.42h1.85v15H1301Z"/><path class="cls-4" d="M1307.85,622.58h1.77c0,.77,0,1.58-.06,2.46a3.72,3.72,0,0,1,3.81-2.82,3.56,3.56,0,0,1,2.63,1,3.49,3.49,0,0,1,.83,1.8,4.12,4.12,0,0,1,1.24-1.91,4.6,4.6,0,0,1,2.76-.91,3.87,3.87,0,0,1,3.51,1.93,9,9,0,0,1,.69,4.12v9.34h-1.85v-9.2a9.08,9.08,0,0,0-.3-2.79,2.3,2.3,0,0,0-2.29-1.58,2.75,2.75,0,0,0-2.43,1.22,5.88,5.88,0,0,0-.8,3.29v9.06h-1.85V628.5a9,9,0,0,0-.3-2.87,2.28,2.28,0,0,0-2.27-1.58,2.84,2.84,0,0,0-2.43,1.16,5.92,5.92,0,0,0-.8,3.4v9h-1.85Z"/><path class="cls-4" d="M1339.66,637.62h-1.71c0-1.33,0-2.16,0-2.87a4.14,4.14,0,0,1-4,3.23c-3,0-5-3.15-5-7.85s1.88-7.9,5-7.9c1.69,0,3.18.86,4,3.26,0-.91,0-1.77,0-2.9h1.71Zm-8.84-7.49c0,3.4,1.22,6,3.51,6a3,3,0,0,0,2.63-1.66,8.38,8.38,0,0,0,.86-4.39,8.25,8.25,0,0,0-.86-4.39,3,3,0,0,0-2.62-1.66c-2.29,0-3.51,2.63-3.51,6.05Z"/><path class="cls-4" d="M1344.63,617.17h1.85v20.45h-1.85Z"/><path class="cls-4" d="M1352.64,630.65c0,3.12,1.27,5.58,3.81,5.58a3.42,3.42,0,0,0,3.37-3h1.82a6,6,0,0,1-1.88,3.54,5,5,0,0,1-3.32,1.19c-4.15,0-5.75-4-5.75-7.85,0-4.67,2.16-7.9,5.69-7.9a4.67,4.67,0,0,1,4,2.13,10.94,10.94,0,0,1,1.38,6.3Zm7.29-1.63c-.05-3.12-1.35-5.22-3.62-5.22s-3.62,2.24-3.68,5.22Z"/><path class="cls-4" d="M1371.81,626.48c0-1.91-1-2.6-2.43-2.6a2.12,2.12,0,0,0-2.18,2.24c0,1.69,1.41,2.29,3.23,2.85,1.66.5,3.59,1.52,3.59,4.53a4.31,4.31,0,0,1-4.48,4.48c-2.74,0-4.56-1.63-4.7-4.78h1.82c0,2,1.21,3.07,2.87,3.07a2.42,2.42,0,0,0,2.54-2.63c0-1.82-1.27-2.54-3.29-3.18s-3.54-1.6-3.54-4.28a3.87,3.87,0,0,1,4.2-4c2.57,0,4.09,1.46,4.17,4.26Z"/><path class="cls-4" d="M1378.58,639.91H1377l1.82-5.22h1.85Z"/><path class="cls-4" d="M633.52,668.88c0,1.55.42,3.37,2.07,3.37,1,0,1.66-.61,1.93-1.93h3.68a6.32,6.32,0,0,1-2.27,4.39,5.74,5.74,0,0,1-3.34,1c-4.12,0-6.05-3.65-6.05-8.18s1.93-8.18,6.05-8.18a4.94,4.94,0,0,1,4.56,2.51c1.16,2,1.24,4.59,1.16,7Zm4.09-3.15c0-.94-.14-3.32-2-3.32-1.3,0-2.13,1.11-2.13,3.32Z"/><path class="cls-4" d="M645.07,659.71h3.21v1.49a3.27,3.27,0,0,1,3.34-1.82c2.49,0,4.06,1.38,4.06,4.56V675.4H652V665.15c0-1.08-.25-2.07-1.55-2.07-1,0-1.66.5-1.66,1.82v10.5h-3.7Z"/><path class="cls-4" d="M666.43,675.4h-3.37l-4.53-15.7h3.76l2.4,10.06,2.07-10.06h3.76Z"/><path class="cls-4" d="M672.34,667.53c0-4.5,1.94-8.15,6.05-8.15s6.05,3.65,6.05,8.18-1.93,8.18-6.05,8.18-6.05-3.65-6.05-8.18Zm3.92.06c0,3.68.83,4.67,2.18,4.67s2.07-1,2.07-4.7-.83-4.7-2.18-4.7-2.07,1-2.07,4.7Z"/><path class="cls-4" d="M690.46,674.46l-4.25-14.76h3.87l2.27,9.06,2.1-9.06h3.87l-6,20.67h-3.76Z"/><path class="cls-4" d="M703.92,668.88c0,1.55.41,3.37,2.07,3.37,1,0,1.66-.61,1.93-1.93h3.67a6.31,6.31,0,0,1-2.27,4.39,5.75,5.75,0,0,1-3.34,1c-4.12,0-6.05-3.65-6.05-8.18s1.93-8.18,6.05-8.18a4.94,4.94,0,0,1,4.56,2.51c1.16,2,1.24,4.59,1.16,7Zm4.09-3.15c0-.94-.14-3.32-2-3.32-1.3,0-2.13,1.11-2.13,3.32Z"/><path class="cls-4" d="M714.63,671.92l5.75-8.73h-5.2v-3.48h9.62v3.48l-5.64,8.73h5.64v3.48H714.63Z"/><path class="cls-4" d="M744.06,675.4h-3.37l-4.53-15.7h3.76l2.4,10.06,2.07-10.06h3.76Z"/><path class="cls-4" d="M750,667.53c0-4.5,1.93-8.15,6.05-8.15s6.05,3.65,6.05,8.18-1.93,8.18-6.05,8.18-6.05-3.65-6.05-8.18Zm3.92.06c0,3.68.83,4.67,2.18,4.67s2.07-1,2.07-4.7-.83-4.7-2.18-4.7-2.07,1-2.07,4.7Z"/><path class="cls-4" d="M766,663.19h-1.66v-3.48H766v-3h3.7v3h1.66v3.48h-1.66V675.4H766Z"/><path class="cls-4" d="M774.42,659.71h3.37v2c.55-2,1.93-2.38,4-2.38v4.56a2.78,2.78,0,0,0-1.63-.47c-1.38,0-2,1.16-2,2.76v9.17h-3.7Z"/><path class="cls-4" d="M787.68,668.88c0,1.55.41,3.37,2.07,3.37,1,0,1.66-.61,1.93-1.93h3.68a6.32,6.32,0,0,1-2.27,4.39,5.75,5.75,0,0,1-3.34,1c-4.12,0-6.05-3.65-6.05-8.18s1.94-8.18,6.05-8.18a4.94,4.94,0,0,1,4.56,2.51c1.16,2,1.24,4.59,1.16,7Zm4.09-3.15c0-.94-.14-3.32-2-3.32-1.3,0-2.13,1.11-2.13,3.32Z"/><path class="cls-4" d="M822.14,667.47c0,4.67-2.6,8.32-7.41,8.32-4.48,0-7.41-3.45-7.41-10.61s2.93-10.61,7.41-10.61c4.95,0,7.46,3.73,7.41,8.48h-4.31c-.11-3.65-1.16-4.5-2.76-4.5-1.93,0-3.43,1.74-3.43,6.63s1.49,6.63,3.43,6.63c2.18,0,2.65-2.16,2.76-4.34Z"/><path class="cls-4" d="M824.65,655h4.09l3.4,14.07L835.59,655h3.92l-5.58,20.45h-3.7Z"/><path class="cls-4" d="M854.63,668.88c0,1.55.42,3.37,2.07,3.37,1,0,1.66-.61,1.93-1.93h3.68a6.32,6.32,0,0,1-2.27,4.39,5.74,5.74,0,0,1-3.34,1c-4.12,0-6.05-3.65-6.05-8.18s1.93-8.18,6.05-8.18a4.94,4.94,0,0,1,4.56,2.51c1.16,2,1.24,4.59,1.16,7Zm4.09-3.15c0-.94-.14-3.32-2-3.32-1.3,0-2.13,1.11-2.13,3.32Z"/><path class="cls-4" d="M866.56,663.19H864.9v-3.48h1.66v-3h3.7v3h1.66v3.48h-1.66V675.4h-3.7Z"/><path class="cls-4" d="M884.13,655h3.7V675.4h-3.7Z"/><path class="cls-4" d="M895.9,668.88c0,1.55.41,3.37,2.07,3.37,1,0,1.66-.61,1.93-1.93h3.67a6.31,6.31,0,0,1-2.27,4.39,5.75,5.75,0,0,1-3.34,1c-4.12,0-6.05-3.65-6.05-8.18s1.93-8.18,6.05-8.18a4.94,4.94,0,0,1,4.56,2.51c1.16,2,1.24,4.59,1.16,7Zm4.09-3.15c0-.94-.14-3.32-2-3.32-1.3,0-2.13,1.11-2.13,3.32Z"/><path class="cls-4" d="M907.84,663.19h-1.66v-3.48h1.66v-3h3.7v3h1.66v3.48h-1.66V675.4h-3.7Z"/><path class="cls-4" d="M916.62,663.19H915v-3.48h1.66v-3h3.7v3H922v3.48h-1.66V675.4h-3.7Z"/><path class="cls-4" d="M925,659.71h3.37v2c.55-2,1.93-2.38,4-2.38v4.56a2.78,2.78,0,0,0-1.63-.47c-1.38,0-2,1.16-2,2.76v9.17H925Z"/><path class="cls-4" d="M938.28,668.88c0,1.55.41,3.37,2.07,3.37,1,0,1.66-.61,1.93-1.93H946a6.31,6.31,0,0,1-2.27,4.39,5.75,5.75,0,0,1-3.34,1c-4.12,0-6.05-3.65-6.05-8.18s1.93-8.18,6.05-8.18a4.94,4.94,0,0,1,4.56,2.51c1.16,2,1.24,4.59,1.16,7Zm4.09-3.15c0-.94-.14-3.32-2-3.32-1.3,0-2.13,1.11-2.13,3.32Z"/><path class="cls-4" d="M969.23,675.4h-3.37v-1.77a3,3,0,0,1-3,2.1c-2.82,0-4.95-2.54-4.95-8.18,0-5.31,1.74-8.18,4.95-8.18a2.76,2.76,0,0,1,2.74,1.66c0-.44,0-.88,0-1.33V655h3.7Zm-7.65-7.82c0,3.45.77,4.45,2,4.45a1.62,1.62,0,0,0,1.46-.69c.47-.58.47-1.33.47-3.79s0-3.21-.47-3.79a1.62,1.62,0,0,0-1.46-.69c-1.24,0-2,1-2,4.48Z"/><path class="cls-4" d="M976.91,668.88c0,1.55.42,3.37,2.07,3.37,1,0,1.66-.61,1.94-1.93h3.67a6.31,6.31,0,0,1-2.27,4.39,5.74,5.74,0,0,1-3.34,1c-4.12,0-6.05-3.65-6.05-8.18s1.93-8.18,6.05-8.18a4.94,4.94,0,0,1,4.56,2.51c1.16,2,1.24,4.59,1.16,7Zm4.09-3.15c0-.94-.14-3.32-2-3.32-1.3,0-2.13,1.11-2.13,3.32Z"/><path class="cls-4" d="M997.41,659.71h3.48v1.82a2.9,2.9,0,0,1,3.21-2.16,3.49,3.49,0,0,1,2.24.69,2.66,2.66,0,0,1,.75,1,3.09,3.09,0,0,1,1-1,4.94,4.94,0,0,1,2.57-.66,4.42,4.42,0,0,1,3.57,1.52,5.16,5.16,0,0,1,1.13,3.34V675.4h-3.7V664.9a2,2,0,0,0-.39-1.41,1.55,1.55,0,0,0-1.24-.41,2.07,2.07,0,0,0-1.3.33,1.56,1.56,0,0,0-.5,1.27V675.4h-3.7V664.9a2,2,0,0,0-.39-1.41,1.54,1.54,0,0,0-1.24-.41,2.07,2.07,0,0,0-1.3.33,1.56,1.56,0,0,0-.5,1.27V675.4h-3.7Z"/><path class="cls-4" d="M1019.09,667.53c0-4.5,1.93-8.15,6.05-8.15s6.05,3.65,6.05,8.18-1.93,8.18-6.05,8.18-6.05-3.65-6.05-8.18Zm3.92.06c0,3.68.83,4.67,2.18,4.67s2.07-1,2.07-4.7-.83-4.7-2.18-4.7-2.07,1-2.07,4.7Z"/><path class="cls-4" d="M1035.15,663.19h-1.66v-3.48h1.66v-3h3.7v3h1.66v3.48h-1.66V675.4h-3.7Z"/><path class="cls-4" d="M1043.93,655h3.7V658h-3.7Zm0,4.75h3.7v15.7h-3.7Z"/><path class="cls-4" d="M1058.77,675.4h-3.37l-4.53-15.7h3.76l2.4,10.06,2.07-10.06h3.76Z"/><path class="cls-4" d="M1076,675.4h-3.37v-1.49a3.09,3.09,0,0,1-3,1.82c-2.82,0-4.95-2.54-4.95-8.18,0-5.31,1.74-8.18,4.95-8.18a3,3,0,0,1,3,1.93v-1.6H1076Zm-7.65-7.82c0,3.45.77,4.45,2,4.45a1.62,1.62,0,0,0,1.46-.69c.47-.58.47-1.33.47-3.79s0-3.21-.47-3.79a1.62,1.62,0,0,0-1.46-.69c-1.24,0-2,1-2,4.48Z"/><path class="cls-4" d="M1080.73,663.19h-1.66v-3.48h1.66v-3h3.7v3h1.66v3.48h-1.66V675.4h-3.7Z"/><path class="cls-4" d="M1089.52,655h3.7V658h-3.7Zm0,4.75h3.7v15.7h-3.7Z"/><path class="cls-4" d="M1097.17,667.53c0-4.5,1.93-8.15,6.05-8.15s6.05,3.65,6.05,8.18-1.93,8.18-6.05,8.18-6.05-3.65-6.05-8.18Zm3.92.06c0,3.68.83,4.67,2.18,4.67s2.07-1,2.07-4.7-.83-4.7-2.18-4.7-2.07,1-2.07,4.7Z"/><path class="cls-4" d="M1112.84,659.71H1116v1.49a3.28,3.28,0,0,1,3.34-1.82c2.49,0,4.06,1.38,4.06,4.56V675.4h-3.7V665.15c0-1.08-.25-2.07-1.55-2.07-1,0-1.66.5-1.66,1.82v10.5h-3.7Z"/><path class="cls-4" d="M1147.15,675.4h-3.37v-1.49a3.09,3.09,0,0,1-3,1.82c-2.82,0-4.95-2.54-4.95-8.18,0-5.31,1.74-8.18,4.95-8.18a3,3,0,0,1,3,1.93v-1.6h3.37Zm-2.65-19-1.27,2.4-6.41-2.85,1.41-3Zm-5,11.14c0,3.45.77,4.45,2,4.45a1.62,1.62,0,0,0,1.46-.69c.47-.58.47-1.33.47-3.79s0-3.21-.47-3.79a1.62,1.62,0,0,0-1.46-.69c-1.24,0-2,1-2,4.48Z"/><path class="cls-4" d="M1160.63,655h3.7V675.4h-3.7Z"/><path class="cls-4" d="M1169.8,655h3.92l-2.93,6.91h-3.32Z"/><path class="cls-4" d="M1186.88,675.4h-3.37v-1.49a3.09,3.09,0,0,1-3,1.82c-2.82,0-4.95-2.54-4.95-8.18,0-5.31,1.74-8.18,4.95-8.18a3,3,0,0,1,3,1.93v-1.6h3.37Zm-7.65-7.82c0,3.45.77,4.45,2,4.45a1.62,1.62,0,0,0,1.46-.69c.47-.58.47-1.33.47-3.79s0-3.21-.47-3.79a1.62,1.62,0,0,0-1.46-.69c-1.24,0-2,1-2,4.48Z"/><path class="cls-4" d="M1201.8,675.4h-3.37v-1.77a3,3,0,0,1-3,2.1c-2.82,0-4.95-2.54-4.95-8.18,0-5.31,1.74-8.18,4.95-8.18a2.76,2.76,0,0,1,2.74,1.66c0-.44,0-.88,0-1.33V655h3.7Zm-7.65-7.82c0,3.45.77,4.45,2,4.45a1.62,1.62,0,0,0,1.46-.69c.47-.58.47-1.33.47-3.79s0-3.21-.47-3.79a1.62,1.62,0,0,0-1.46-.69c-1.24,0-2,1-2,4.48Z"/><path class="cls-4" d="M1206.11,659.71h3.37v2c.55-2,1.93-2.38,4-2.38v4.56a2.78,2.78,0,0,0-1.63-.47c-1.38,0-2,1.16-2,2.76v9.17h-3.7Z"/><path class="cls-4" d="M1219.37,668.88c0,1.55.42,3.37,2.07,3.37,1,0,1.66-.61,1.94-1.93h3.67a6.31,6.31,0,0,1-2.27,4.39,5.74,5.74,0,0,1-3.34,1c-4.12,0-6.05-3.65-6.05-8.18s1.93-8.18,6.05-8.18a4.94,4.94,0,0,1,4.56,2.51c1.16,2,1.24,4.59,1.16,7Zm4.09-3.15c0-.94-.14-3.32-2-3.32-1.3,0-2.13,1.11-2.13,3.32Z"/><path class="cls-4" d="M1236.83,664.35c-.05-1.16-.52-1.77-1.66-1.77a1.18,1.18,0,0,0-1.33,1.22c0,1.33,1.77,1.44,3.54,2a4.49,4.49,0,0,1,3.54,4.81c0,2.93-2.32,5.14-5.55,5.14-3,0-5.39-1.66-5.72-5.36h3.7a2,2,0,0,0,2.13,2,1.4,1.4,0,0,0,1.52-1.58c0-1.35-1.77-1.49-3.54-2.07s-3.54-1.66-3.54-4.78c0-2.63,1.82-4.56,5.36-4.56s5,1.93,5.25,5Z"/><path class="cls-4" d="M1250.2,664.35c-.06-1.16-.53-1.77-1.66-1.77a1.18,1.18,0,0,0-1.33,1.22c0,1.33,1.77,1.44,3.54,2a4.49,4.49,0,0,1,3.54,4.81c0,2.93-2.32,5.14-5.55,5.14-3,0-5.39-1.66-5.72-5.36h3.7a2,2,0,0,0,2.13,2,1.4,1.4,0,0,0,1.52-1.58c0-1.35-1.77-1.49-3.54-2.07s-3.54-1.66-3.54-4.78c0-2.63,1.82-4.56,5.36-4.56s5,1.93,5.25,5Z"/><path class="cls-4" d="M1261,668.88c0,1.55.42,3.37,2.07,3.37,1,0,1.66-.61,1.93-1.93h3.68a6.32,6.32,0,0,1-2.27,4.39,5.74,5.74,0,0,1-3.34,1c-4.12,0-6.05-3.65-6.05-8.18s1.93-8.18,6.05-8.18a4.94,4.94,0,0,1,4.56,2.51c1.16,2,1.24,4.59,1.16,7Zm4.09-3.15c0-.94-.14-3.32-2-3.32-1.3,0-2.13,1.11-2.13,3.32Z"/><path class="cls-4" d="M1285.45,666h-3.7v-4.09h3.7Zm0,9.45h-3.7v-4.09h3.7Z"/><path class="cls-4" d="M748,707.94a6.37,6.37,0,0,1-.5,2.63,4.8,4.8,0,0,1-2.35,2.38,7,7,0,0,1-3,.64c-3.48,0-5.89-1.93-5.89-5.64v-1.16h4.2v.39c0,2,.47,2.54,1.69,2.54a1.49,1.49,0,0,0,1.3-.5,3.63,3.63,0,0,0,.39-2V692.74H748Z"/><path class="cls-4" d="M755.85,706.67c0,1.55.42,3.37,2.07,3.37,1,0,1.66-.61,1.94-1.93h3.67a6.31,6.31,0,0,1-2.27,4.39,5.74,5.74,0,0,1-3.34,1c-4.12,0-6.05-3.65-6.05-8.18s1.93-8.18,6.05-8.18a4.94,4.94,0,0,1,4.56,2.51c1.16,2,1.24,4.59,1.16,7Zm4.09-3.15c0-.94-.14-3.32-2-3.32-1.3,0-2.13,1.11-2.13,3.32Z"/><path class="cls-4" d="M766,692.74h4.09l3.4,14.07L777,692.74h3.92l-5.58,20.45h-3.7Z"/><path class="cls-4" d="M783.87,697.49h3.37V699a3.13,3.13,0,0,1,3-1.82c2.82,0,4.95,2.54,4.95,8.18,0,5.31-1.74,8.18-4.95,8.18a3,3,0,0,1-2.71-1.49v6.13h-3.7Zm7.66,7.82c0-3.45-.72-4.45-2-4.45a1.55,1.55,0,0,0-1.36.69c-.47.58-.58,1.33-.58,3.79s.11,3.21.58,3.79a1.55,1.55,0,0,0,1.36.69c1.3,0,2-1,2-4.48Z"/><path class="cls-4" d="M809.4,713.19H806V711.7a3.1,3.1,0,0,1-3,1.82c-2.82,0-4.95-2.54-4.95-8.18,0-5.31,1.74-8.18,4.95-8.18a3,3,0,0,1,3,1.93v-1.6h3.37Zm-7.65-7.82c0,3.45.77,4.45,2,4.45a1.62,1.62,0,0,0,1.46-.69c.47-.58.47-1.33.47-3.79s0-3.21-.47-3.79a1.62,1.62,0,0,0-1.46-.69c-1.24,0-2,1-2,4.48Z"/><path class="cls-4" d="M813.71,697.49h3.37v2c.55-2,1.93-2.38,4-2.38v4.56a2.78,2.78,0,0,0-1.63-.47c-1.38,0-2,1.16-2,2.76v9.17h-3.7Z"/><path class="cls-4" d="M824.54,701h-1.66v-3.48h1.66v-3h3.7v3h1.66V701h-1.66v12.21h-3.7Z"/><path class="cls-4" d="M831.91,705.31c0-4.5,1.93-8.15,6.05-8.15s6.05,3.65,6.05,8.18-1.93,8.18-6.05,8.18-6.05-3.65-6.05-8.18Zm3.92.06c0,3.68.83,4.67,2.18,4.67s2.07-1,2.07-4.7-.83-4.7-2.18-4.7-2.07,1-2.07,4.7Z"/><path class="cls-4" d="M846.83,705.31c0-4.5,1.94-8.15,6.05-8.15s6.05,3.65,6.05,8.18-1.93,8.18-6.05,8.18-6.05-3.65-6.05-8.18Zm3.92.06c0,3.68.83,4.67,2.18,4.67s2.07-1,2.07-4.7-.83-4.7-2.18-4.7-2.07,1-2.07,4.7Z"/><path class="cls-4" d="M871.28,692.74h9.45v3.87h-5.25v3.87h5.25v3.87h-5.25v8.84h-4.2Z"/><path class="cls-4" d="M884.52,697.49h3.37v2c.55-2,1.93-2.38,4-2.38v4.56a2.78,2.78,0,0,0-1.63-.47c-1.38,0-2,1.16-2,2.76v9.17h-3.7Z"/><path class="cls-4" d="M905,713.19h-3.37V711.7a3.09,3.09,0,0,1-3,1.82c-2.82,0-4.95-2.54-4.95-8.18,0-5.31,1.74-8.18,4.95-8.18a3,3,0,0,1,3,1.93v-1.6H905Zm-7.65-7.82c0,3.45.77,4.45,2,4.45a1.62,1.62,0,0,0,1.46-.69c.47-.58.47-1.33.47-3.79s0-3.21-.47-3.79a1.62,1.62,0,0,0-1.46-.69c-1.24,0-2,1-2,4.48Z"/><path class="cls-4" d="M909.33,697.49h3.21V699a3.27,3.27,0,0,1,3.34-1.82c2.49,0,4.06,1.38,4.06,4.56v11.47h-3.7V702.94c0-1.08-.25-2.07-1.55-2.07-1,0-1.66.5-1.66,1.82v10.5h-3.7Z"/><path class="cls-4" d="M934.47,707.22c0,3.21-1.6,6.3-5.06,6.3-3.73,0-6.08-2.93-6.08-8.18s2.35-8.18,6.08-8.18c3.45,0,5.06,3,5.06,6.3H930.6c0-1.88-.5-2.82-1.46-2.82a1.41,1.41,0,0,0-1.38,1,9.52,9.52,0,0,0-.5,3.7c0,3.59.69,4.7,1.88,4.7s1.46-1.27,1.46-2.82Z"/><path class="cls-4" d="M941,706.67c0,1.55.42,3.37,2.07,3.37,1,0,1.66-.61,1.94-1.93h3.67a6.31,6.31,0,0,1-2.27,4.39,5.74,5.74,0,0,1-3.34,1c-4.12,0-6.05-3.65-6.05-8.18s1.93-8.18,6.05-8.18a4.94,4.94,0,0,1,4.56,2.51c1.16,2,1.24,4.59,1.16,7Zm4.09-3.15c0-.94-.14-3.32-2-3.32-1.3,0-2.13,1.11-2.13,3.32Z"/><path class="cls-4" d="M967.76,703.52v3.59h-6.88v-3.59Z"/><path class="cls-4" d="M980.55,692.74h5.31c2.9,0,4.75.75,5.64,1.8a7,7,0,0,1,1.66,4.73,7.54,7.54,0,0,1-.61,3.09,5.51,5.51,0,0,1-2.4,2.68l3.87,8.15h-4.7l-4.5-10.39c.47,0,.72,0,1,0a3.25,3.25,0,0,0,2.07-.77,3.18,3.18,0,0,0,.91-2.35,3,3,0,0,0-1-2.49,3.2,3.2,0,0,0-2.16-.55h-1v16.58h-4.2Z"/><path class="cls-4" d="M996.13,705.31c0-4.5,1.93-8.15,6.05-8.15s6.05,3.65,6.05,8.18-1.93,8.18-6.05,8.18-6.05-3.65-6.05-8.18Zm3.92.06c0,3.68.83,4.67,2.18,4.67s2.07-1,2.07-4.7-.83-4.7-2.18-4.7-2.07,1-2.07,4.7Z"/><path class="cls-4" d="M1022.41,713.19h-3.34v-1.66c-.47,1.27-1.27,2-3.21,2-2.49,0-4.06-1.38-4.06-4.56V697.49h3.7v10.25c0,1.08.25,2.07,1.55,2.07,1,0,1.66-.5,1.66-1.82v-10.5h3.7Z"/><path class="cls-4" d="M1027.1,701h-1.66v-3.48h1.66v-3h3.7v3h1.66V701h-1.66v12.21h-3.7Z"/><path class="cls-4" d="M1038.6,706.67c0,1.55.42,3.37,2.07,3.37,1,0,1.66-.61,1.94-1.93h3.67a6.31,6.31,0,0,1-2.27,4.39,5.74,5.74,0,0,1-3.34,1c-4.12,0-6.05-3.65-6.05-8.18s1.93-8.18,6.05-8.18a4.94,4.94,0,0,1,4.56,2.51c1.16,2,1.24,4.59,1.16,7Zm4.09-3.15c0-.94-.14-3.32-2-3.32-1.3,0-2.13,1.11-2.13,3.32Z"/><path class="cls-4" d="M1069.54,713.19h-3.37v-1.77a3,3,0,0,1-3,2.1c-2.82,0-4.95-2.54-4.95-8.18,0-5.31,1.74-8.18,4.95-8.18a2.76,2.76,0,0,1,2.73,1.66c0-.44,0-.88,0-1.33v-4.75h3.7Zm-7.65-7.82c0,3.45.77,4.45,2,4.45a1.62,1.62,0,0,0,1.46-.69c.47-.58.47-1.33.47-3.79s0-3.21-.47-3.79a1.62,1.62,0,0,0-1.46-.69c-1.24,0-2,1-2,4.48Z"/><path class="cls-4" d="M1084.46,713.19h-3.34v-1.66c-.47,1.27-1.27,2-3.21,2-2.49,0-4.06-1.38-4.06-4.56V697.49h3.7v10.25c0,1.08.25,2.07,1.55,2.07,1,0,1.66-.5,1.66-1.82v-10.5h3.7Z"/><path class="cls-4" d="M1097.72,697.49h3.48v1.82a2.9,2.9,0,0,1,3.21-2.16,3.49,3.49,0,0,1,2.24.69,2.65,2.65,0,0,1,.75,1,3.1,3.1,0,0,1,1-1,4.94,4.94,0,0,1,2.57-.66,4.42,4.42,0,0,1,3.57,1.52,5.16,5.16,0,0,1,1.13,3.34v11.16H1112v-10.5a2,2,0,0,0-.39-1.41,1.55,1.55,0,0,0-1.24-.41,2.07,2.07,0,0,0-1.3.33,1.56,1.56,0,0,0-.5,1.27v10.72h-3.7v-10.5a2,2,0,0,0-.39-1.41,1.55,1.55,0,0,0-1.24-.41,2.07,2.07,0,0,0-1.3.33,1.56,1.56,0,0,0-.5,1.27v10.72h-3.7Z"/><path class="cls-4" d="M1119.41,705.31c0-4.5,1.93-8.15,6.05-8.15s6.05,3.65,6.05,8.18-1.93,8.18-6.05,8.18-6.05-3.65-6.05-8.18Zm3.92.06c0,3.68.83,4.67,2.18,4.67s2.07-1,2.07-4.7-.83-4.7-2.18-4.7-2.07,1-2.07,4.7Z"/><path class="cls-4" d="M1135.07,697.49h3.21V699a3.28,3.28,0,0,1,3.34-1.82c2.49,0,4.06,1.38,4.06,4.56v11.47H1142V702.94c0-1.08-.25-2.07-1.55-2.07-1,0-1.66.5-1.66,1.82v10.5h-3.7Z"/><path class="cls-4" d="M1160.6,713.19h-3.37v-1.77a3,3,0,0,1-3,2.1c-2.82,0-4.95-2.54-4.95-8.18,0-5.31,1.74-8.18,4.95-8.18a2.76,2.76,0,0,1,2.74,1.66c0-.44,0-.88,0-1.33v-4.75h3.7Zm-7.65-7.82c0,3.45.77,4.45,2,4.45a1.62,1.62,0,0,0,1.46-.69c.47-.58.47-1.33.47-3.79s0-3.21-.47-3.79a1.62,1.62,0,0,0-1.46-.69c-1.24,0-2,1-2,4.48Z"/><path class="cls-4" d="M1168.28,706.67c0,1.55.42,3.37,2.07,3.37,1,0,1.66-.61,1.93-1.93H1176a6.32,6.32,0,0,1-2.27,4.39,5.74,5.74,0,0,1-3.34,1c-4.12,0-6.05-3.65-6.05-8.18s1.93-8.18,6.05-8.18a4.94,4.94,0,0,1,4.56,2.51c1.16,2,1.24,4.59,1.16,7Zm4.09-3.15c0-.94-.14-3.32-2-3.32-1.3,0-2.13,1.11-2.13,3.32Z"/><g class="cls-22"><path class="cls-3" d="M208.68,620.59l-.65-.39,1.39-2.35,1.86-3.15h0l5.11-8.64.39-.66h0L269.13,517l0,0L312.5,409.26l-24.8-14.69-72.37,90.58L155.62,586l-1.4,2.35-.41-.24a6.82,6.82,0,0,0-6.95,11.73l5.3,3.14-230,388.36a25,25,0,0,0,8.76,34.2l1,.62a25,25,0,0,0,34.2-8.76L196.18,629l5.54,3.28a6.82,6.82,0,0,0,7-11.74Z"/><path class="cls-15" d="M-61.12,1042.74l-1-.62a25,25,0,0,1-8.76-34.2L162.5,613.68l44,26.06L-26.92,1034A25,25,0,0,1-61.12,1042.74Z"/><path class="cls-15" d="M275.79,533.9l-53.61-32.18,72.37-90.58,24.8,14.68Z"/><path class="cls-14" d="M106,759.6h0a11,11,0,0,1-3.86-15.06l73.61-124.31,18.91,11.2L121.1,755.74A11,11,0,0,1,106,759.6Z"/><rect class="cls-15" x="185.68" y="508.85" width="62.52" height="126.18" transform="translate(321.68 -30.73) rotate(30.63)"/><path class="cls-15" d="M208.59,648.9l-54.86-32.48a6.82,6.82,0,0,1-2.39-9.34h0a6.82,6.82,0,0,1,9.34-2.39l54.86,32.48a6.82,6.82,0,0,1,2.4,9.34h0A6.82,6.82,0,0,1,208.59,648.9Z"/><rect class="cls-14" x="158.35" y="614.9" width="62.52" height="6.39" transform="translate(341.38 -10.36) rotate(30.63)"/><rect class="cls-14" x="163.85" y="605.61" width="62.52" height="6.39" transform="translate(337.41 -14.46) rotate(30.63)"/><rect class="cls-14" x="169.5" y="596.07" width="62.52" height="6.39" transform="translate(333.34 -18.67) rotate(30.63)"/></g></g><g id="cases_jeu1"><rect class="cls-19" x="697.12" y="295.28" width="41.32" height="41.32" rx="7.48" ry="7.48"/><path class="cls-23" d="M731,297.78a5,5,0,0,1,5,5v26.36a5,5,0,0,1-5,5H704.6a5,5,0,0,1-5-5V302.76a5,5,0,0,1,5-5H731m0-5H704.6a10,10,0,0,0-10,10v26.36a10,10,0,0,0,10,10H731a10,10,0,0,0,10-10V302.76a10,10,0,0,0-10-10Z"/><rect class="cls-19" x="697.12" y="351.65" width="41.32" height="41.32" rx="7.48" ry="7.48"/><path class="cls-23" d="M731,354.15a5,5,0,0,1,5,5v26.36a5,5,0,0,1-5,5H704.6a5,5,0,0,1-5-5V359.13a5,5,0,0,1,5-5H731m0-5H704.6a10,10,0,0,0-10,10v26.36a10,10,0,0,0,10,10H731a10,10,0,0,0,10-10V359.13a10,10,0,0,0-10-10Z"/><rect class="cls-19" x="697.12" y="408.02" width="41.32" height="41.32" rx="7.48" ry="7.48"/><path class="cls-23" d="M731,410.52a5,5,0,0,1,5,5v26.36a5,5,0,0,1-5,5H704.6a5,5,0,0,1-5-5V415.5a5,5,0,0,1,5-5H731m0-5H704.6a10,10,0,0,0-10,10v26.36a10,10,0,0,0,10,10H731a10,10,0,0,0,10-10V415.5a10,10,0,0,0-10-10Z"/><rect class="cls-19" x="697.12" y="464.39" width="41.32" height="41.32" rx="7.48" ry="7.48"/><path class="cls-23" d="M731,466.89a5,5,0,0,1,5,5v26.36a5,5,0,0,1-5,5H704.6a5,5,0,0,1-5-5V471.87a5,5,0,0,1,5-5H731m0-5H704.6a10,10,0,0,0-10,10v26.36a10,10,0,0,0,10,10H731a10,10,0,0,0,10-10V471.87a10,10,0,0,0-10-10Z"/></g><g id="coches_bonnes_rponses" data-name="coches bonnes rponses"><polygon class="cls-24" points="703.35 366.69 719.39 384.87 715.05 385.56 732.15 340.5 732.87 340.74 719.75 387.11 718.25 392.43 715.41 387.81 702.75 367.14 703.35 366.69"/></g></g></svg>