<svg xmlns="http://www.w3.org/2000/svg" viewBox="0 0 431.54 75.61"><defs><style>.cls-1{fill:#fcc600;}.cls-2{fill:#4e96b3;}</style></defs><title>game3b_bt_validez</title><g id="Calque_2" data-name="Calque 2"><g id="boutons"><rect class="cls-1" width="431.54" height="75.61" rx="37.8" ry="37.8"/><path class="cls-2" d="M50.73,54.63H43.84L40.29,32.11,38.65,19.78h5.08l3.54,26.85,3.55-26.85H55.9L54.27,32.14Z"/><path class="cls-2" d="M72.24,42.27l1.63,12.36H68.79l-1-7.39H62.68l-1,7.39H56.63l1.63-12.31,3.55-22.54H68.7Zm-5.08,0L65.24,27.77,63.32,42.27Z"/><path class="cls-2" d="M76.89,54.63V19.78h5V49.67h8v5Z"/><path class="cls-2" d="M93,19.78h5V54.63H93Z"/><path class="cls-2" d="M102.77,19.78h7.74q6.69,0,6.7,7.33V47.31q0,7.3-7,7.32h-7.42Zm5,5V49.67H110q2.18,0,2.18-2.36V27.12q0-2.38-2.18-2.38Z"/><path class="cls-2" d="M121.47,19.78h13v5h-8v10h6.89v5H126.5v10h8v5h-13Z"/><path class="cls-2" d="M149.84,22.8,143,49.67h7.12v5H137.35v-3l6.82-26.87h-6.59v-5h12.26Z"/><path class="cls-2" d="M162.89,54.63V19.78h5V49.67h8v5Z"/><path class="cls-2" d="M193,42.27l1.63,12.36h-5.08l-1-7.39H183.4l-1,7.39h-5.06L179,42.32l3.55-22.54h6.89Zm-5.08,0L186,27.77,184,42.27Z"/><path class="cls-2" d="M220.72,47.86q0,7.32-7.23,7.33t-7.21-7.33V26.55q0-7.32,7.21-7.32t7.23,7.32v4.69h-5V26.55q0-2.35-2.18-2.36h0q-2.17,0-2.17,2.36V47.86q0,2.36,2.19,2.36t2.2-2.36V43.17h5Z"/><path class="cls-2" d="M224.8,19.78h5V34.72h4.39V19.78h5V54.63h-5V39.69h-4.39V54.63h-5Z"/><path class="cls-2" d="M243.86,19.78h7.32q6.69,0,6.7,7.33v5.24q0,4.6-4,6.06l5.65,16.21h-5.51L249.53,39.3l-.64.09V54.63h-5Zm5,5v10H250a4.86,4.86,0,0,0,1.44-.14,2.16,2.16,0,0,0,1.37-2.22V27.12q0-2.38-2.19-2.38Z"/><path class="cls-2" d="M276.49,47.86q0,7.32-7.23,7.33T262,47.86V26.55q0-7.32,7.21-7.32t7.23,7.32Zm-5-21.31q0-2.35-2.18-2.36h0q-2.17,0-2.17,2.36V47.86q0,2.36,2.18,2.36t2.2-2.36Z"/><path class="cls-2" d="M280.75,19.78h5L290.54,40V19.78h4.65V54.63h-5l-4.58-19.57V54.63h-4.83Z"/><path class="cls-2" d="M313.89,47.86q0,7.32-7.23,7.33t-7.21-7.33V26.55q0-7.32,7.21-7.32t7.23,7.32Zm-5-21.31q0-2.35-2.18-2.36h0q-2.17,0-2.17,2.36V47.86q0,2.36,2.19,2.36t2.2-2.36Z"/><path class="cls-2" d="M318.15,54.63V19.78h5V49.67h8v5Z"/><path class="cls-2" d="M348.29,47.86q0,7.32-7.23,7.33t-7.21-7.33V26.55q0-7.32,7.21-7.32t7.23,7.32Zm-5-21.31q0-2.35-2.18-2.36h0q-2.17,0-2.17,2.36V47.86q0,2.36,2.19,2.36t2.2-2.36Z"/><path class="cls-2" d="M366.64,47.86q0,7.32-7.23,7.33t-7.21-7.33V26.55q0-7.32,7.21-7.32t7.23,7.32v4.69h-5V26.55q0-2.35-2.19-2.36h0q-2.17,0-2.17,2.36V47.86q0,2.36,2.18,2.36t2.2-2.36V39.69h-2.19v-5h7.21Z"/><path class="cls-2" d="M371,19.78h5V54.63h-5Z"/><path class="cls-2" d="M380.72,19.78h13v5h-8v10h6.89v5h-6.89v10h8v5h-13Z"/></g></g></svg>