<svg xmlns="http://www.w3.org/2000/svg" viewBox="0 0 297.68 75.61"><defs><style>.cls-1{fill:#fcc600;}.cls-2{fill:#4e96b3;}</style></defs><title>game2_bt_valider</title><g id="Calque_2" data-name="Calque 2"><g id="boutons"><rect class="cls-1" width="297.68" height="75.61" rx="37.8" ry="37.8"/><path class="cls-2" d="M60.86,54.63H54.93L51.87,32.11l-1.4-12.33h4.37l3,26.85,3.05-26.85H65.3L63.9,32.14Z"/><path class="cls-2" d="M79.35,42.27l1.41,12.36H76.39l-.84-7.39H71.14l-.86,7.39H65.93l1.41-12.31,3.05-22.54h5.93Zm-4.37,0L73.34,27.77,71.69,42.27Z"/><path class="cls-2" d="M83.36,54.63V19.78h4.32V49.67h6.89v5Z"/><path class="cls-2" d="M97.24,19.78h4.32V54.63H97.24Z"/><path class="cls-2" d="M105.61,19.78h6.66q5.76,0,5.76,7.33V47.31q0,7.3-6,7.32h-6.38Zm4.32,5V49.67h1.89q1.88,0,1.88-2.36V27.12q0-2.38-1.88-2.38Z"/><path class="cls-2" d="M121.69,19.78H132.9v5H126v10h5.93v5H126v10h6.89v5H121.69Z"/><path class="cls-2" d="M146.09,22.8l-5.87,26.87h6.13v5h-11v-3l5.87-26.87h-5.67v-5h10.54Z"/><path class="cls-2" d="M157.31,54.63V19.78h4.32V49.67h6.89v5Z"/><path class="cls-2" d="M171.12,19.78h11.21v5h-6.89v10h5.93v5h-5.93v10h6.89v5H171.12Z"/><path class="cls-2" d="M204.5,19.78v5h-4V54.63h-4.32V24.74h-4v-5Z"/><path class="cls-2" d="M207.24,19.78h11.21v5h-6.89v10h5.93v5h-5.93v10h6.89v5H207.24Z"/><path class="cls-2" d="M221.36,26.55q0-7.32,6.2-7.32t6.22,7.32v4.69h-4.32V26.55q0-2.34-1.88-2.36h0q-1.86,0-1.86,2.36v3.16q0,2.33,4,5.7a10.14,10.14,0,0,1,4,8v4.4q0,7.34-6.2,7.34t-6.22-7.34V43.17h4.32v4.69q0,2.36,1.89,2.36t1.88-2.36v-4q0-2.52-4-5.9a10.25,10.25,0,0,1-4-8.17Z"/><path class="cls-2" d="M248.64,19.78v5h-4V54.63h-4.32V24.74h-4v-5Z"/></g></g></svg>