<?xml version="1.0" encoding="utf-8"?>
<!-- Generator: Adobe Illustrator 21.1.0, SVG Export Plug-In . SVG Version: 6.00 Build 0)  -->
<svg version="1.1" id="Calque_1" xmlns="http://www.w3.org/2000/svg" xmlns:xlink="http://www.w3.org/1999/xlink" x="0px" y="0px"
	 viewBox="0 0 1920 1080" style="enable-background:new 0 0 1920 1080;" xml:space="preserve">
<style type="text/css">
	.st0{clip-path:url(#SVGID_2_);}
	.st1{opacity:0.2;fill:#105768;enable-background:new    ;}
	.st2{fill:#E17064;}
	.st3{fill:#D16355;}
	.st4{clip-path:url(#SVGID_4_);}
	.st5{fill:#534639;}
	.st6{fill:#D7D8DB;}
	.st7{fill:#D8D8D8;}
	.st8{fill:#FFFFFF;}
	.st9{fill:#F7C646;}
	.st10{fill:#4E97B4;}
	.st11{opacity:0.42;fill:#BC8F00;}
	.st12{fill:#333333;}
</style>
<title>game1b_bg2</title>
<g>
	<g id="game1b_bg2">
		<g>
			<defs>
				<rect id="SVGID_1_" x="1630.6" y="0" width="289.4" height="172.4"/>
			</defs>
			<clipPath id="SVGID_2_">
				<use xlink:href="#SVGID_1_"  style="overflow:visible;"/>
			</clipPath>
			<g class="st0">
				<path class="st1" d="M1726.3-253.5l-1.9-2.1c-6-6.9-16.5-7.6-23.4-1.6c0,0,0,0,0,0l-26,22.7l0,0l-26,22.7
					c-2.5,2.2-4.3,5-5.1,8.2c-0.3,1-0.4,2.1-0.5,3.1c-0.3,4.4,1.2,8.7,4.1,12l0,0l1.9,2.1c-0.7,1.1-1.3,2.3-1.7,3.6
					c-0.8,3.2-0.4,6.5,1.2,9.4c0.4,0.7,0.9,1.4,1.5,2.1l2.2,2.6c-0.2,0.1-0.4,0-0.5,0.2l-4.3,3.8l-6.2-7.1c-2.3-2.6-6.2-2.9-8.8-0.6
					c-2.6,2.3-2.9,6.2-0.6,8.8l69.4,79.5l0,0c1.6,1.9,4.3,2.6,6.7,1.8c0.8-0.3,1.5-0.7,2.2-1.2c0.6-0.6,1.1-1.2,1.5-2
					c1.1-2.3,0.7-4.9-0.9-6.8l0,0l-41.6-47.7l4.3-3.8c0.2-0.1,0.2-0.3,0.2-0.5l57.2,65.5l0,0c3.4,3.8,9.2,4.4,13.2,1.2l141.7,162.2
					l0,0l9-7.9l4.4,5.1c2.8,3.2,7.7,3.5,10.9,0.7l47.2-41.2c3.2-2.8,3.5-7.7,0.7-10.9c0,0,0,0,0,0l-4.4-5.1l9-7.9l-141.5-162.2
					c3.7-3.5,3.9-9.4,0.6-13.2l-80.7-92.4C1737.4-254.7,1731.4-255.9,1726.3-253.5z"/>
				<path class="st2" d="M1643.8-219.5l75.3-65.8c0.4-0.4,1.1-0.3,1.5,0.1L1969.3-0.5l0,0l-76.9,67.2l0,0L1643.7-218
					C1643.3-218.5,1643.4-219.1,1643.8-219.5L1643.8-219.5z"/>
				<path class="st3" d="M1901.4,58.8l58.8-51.4l0,0l9.2,10.5c0.2,0.2,0.2,0.5,0,0.7l-58.1,50.7c-0.2,0.2-0.5,0.2-0.7,0L1901.4,58.8
					L1901.4,58.8z"/>
			</g>
		</g>
		<g>
			<defs>
				<rect id="SVGID_3_" x="1661.2" y="583.1" width="258.8" height="496.8"/>
			</defs>
			<clipPath id="SVGID_4_">
				<use xlink:href="#SVGID_3_"  style="overflow:visible;"/>
			</clipPath>
			<g class="st4">
				<path class="st1" d="M2704.2,542.7l-115.8,8.3l-0.6-8.6l-20.3,1.5l-0.8-11.6l-43.4,3.1l1.4,20.2L2248,575.4l-62.3,4.5
					l-456.2,32.7c-21.6,1.5-37.8,20.9-36.2,43.2l53.7,749.4c1.6,22.3,20.4,39.2,42,37.6l365.7-26.2l5.2,72.7l43.4-3.1l-5.2-72.7
					l47.1-3.4l62.3-4.5l456.2-32.7c21.6-1.6,37.8-20.9,36.2-43.2l-53.7-749.4C2744.6,558,2725.8,541.2,2704.2,542.7z"/>
				<path class="st5" d="M1733,672.5l53.7,749.5c1.6,22.3,20.4,39.2,42,37.6l974.7-69.8c21.6-1.6,37.8-20.9,36.2-43.2l-53.7-749.4
					c-1.6-22.3-20.4-39.2-42-37.6l-974.7,69.8C1747.7,630.8,1731.4,650.2,1733,672.5z"/>
				<path class="st6" d="M1793.8,709.5l47.8,667.2c1.4,19.9,18.2,34.9,37.4,33.5l867.7-62.2c19.2-1.4,33.7-18.6,32.2-38.5
					l-47.8-667.2c-1.4-19.9-18.2-34.9-37.4-33.5L1826,671C1806.8,672.4,1792.3,689.6,1793.8,709.5z"/>
				<path class="st7" d="M2239.3,784.1l-406.1,29.1c-3.2,0.2-6.1-2.2-6.3-5.5c0,0,0,0,0,0l0,0c-0.2-3.2,2.2-6.1,5.5-6.3l406.1-29.1
					c3.2-0.2,6.1,2.2,6.3,5.5l0,0C2245,781,2242.6,783.8,2239.3,784.1z"/>
				<path class="st7" d="M2241.1,809.4l-406.1,29.1c-3.2,0.2-6.1-2.2-6.3-5.5c0,0,0,0,0,0l0,0c-0.2-3.2,2.2-6.1,5.5-6.3l406.1-29.1
					c3.2-0.2,6.1,2.2,6.3,5.5l0,0C2246.8,806.4,2244.4,809.2,2241.1,809.4z"/>
				<path class="st7" d="M2243,835.5l-406,29.1c-3.2,0.2-6.1-2.2-6.3-5.5c0,0,0,0,0,0l0,0c-0.2-3.2,2.2-6.1,5.5-6.3c0,0,0,0,0,0
					l406.1-29.1c3.2-0.2,6.1,2.2,6.3,5.5l0,0C2248.7,832.4,2246.3,835.2,2243,835.5C2243,835.5,2243,835.5,2243,835.5z"/>
				<path class="st7" d="M2244.8,860.8l-406.1,29.1c-3.2,0.2-6.1-2.2-6.3-5.5c0,0,0,0,0,0l0,0c-0.2-3.2,2.2-6.1,5.5-6.3l406.1-29.1
					c3.2-0.2,6.1,2.2,6.3,5.5l0,0C2250.5,857.8,2248.1,860.6,2244.8,860.8C2244.8,860.8,2244.8,860.8,2244.8,860.8z"/>
				<path class="st7" d="M2246.5,884.5l-406.1,29.1c-3.2,0.2-6.1-2.2-6.3-5.5l0,0c-0.2-3.2,2.2-6.1,5.5-6.3c0,0,0,0,0,0l406.1-29.1
					c3.2-0.2,6.1,2.2,6.3,5.5c0,0,0,0,0,0l0,0C2252.2,881.5,2249.8,884.3,2246.5,884.5z"/>
				<path class="st7" d="M2248.4,909.9L1842.3,939c-3.2,0.2-6.1-2.2-6.3-5.5l0,0c-0.2-3.2,2.2-6.1,5.5-6.3l406.1-29.1
					c3.2-0.2,6.1,2.2,6.3,5.5c0,0,0,0,0,0l0,0C2254,906.9,2251.6,909.7,2248.4,909.9z"/>
				<path class="st7" d="M2250.2,936l-406.1,29c-3.2,0.2-6.1-2.2-6.3-5.5l0,0c-0.2-3.2,2.2-6.1,5.5-6.3c0,0,0,0,0,0l406.1-29.1
					c3.2-0.2,6.1,2.2,6.3,5.5c0,0,0,0,0,0l0,0c0.3,3.2-2.1,6.1-5.4,6.4C2250.3,936,2250.3,936,2250.2,936z"/>
				<path class="st7" d="M2252,961.3l-406,29.1c-3.2,0.2-6.1-2.2-6.3-5.5l0,0c-0.2-3.2,2.2-6.1,5.5-6.3c0,0,0,0,0,0l406.1-29.1
					c3.2-0.2,6.1,2.2,6.3,5.5c0,0,0,0,0,0l0,0C2257.8,958.3,2255.3,961.1,2252,961.3C2252,961.3,2252,961.3,2252,961.3z"/>
				<path class="st7" d="M2256.4,1022.6l-406.1,29.1c-3.2,0.2-6.1-2.2-6.3-5.5l0,0c-0.2-3.2,2.2-6.1,5.5-6.3c0,0,0,0,0,0l406.1-29.1
					c3.2-0.2,6.1,2.2,6.3,5.5l0,0C2262.1,1019.5,2259.7,1022.4,2256.4,1022.6C2256.4,1022.6,2256.4,1022.6,2256.4,1022.6z"/>
				<path class="st7" d="M2258.2,1048l-406.1,29c-3.2,0.2-6.1-2.2-6.3-5.5l0,0c-0.2-3.2,2.2-6.1,5.5-6.3c0,0,0,0,0,0l406.1-29.1
					c3.2-0.2,6.1,2.2,6.3,5.5l0,0C2264,1044.8,2261.6,1047.7,2258.2,1048C2258.3,1048,2258.3,1048,2258.2,1048z"/>
				<path class="st7" d="M2260.1,1074l-406.1,29.1c-3.2,0.2-6.1-2.2-6.3-5.5l0,0c-0.2-3.2,2.2-6.1,5.5-6.3l406.1-29.1
					c3.2-0.2,6.1,2.2,6.3,5.5c0,0,0,0,0,0l0,0C2265.7,1070.9,2263.3,1073.7,2260.1,1074z"/>
			</g>
		</g>
		<rect x="280.4" y="0" class="st1" width="1300.1" height="1080"/>
		<rect x="304.9" y="0" class="st8" width="1300.1" height="1080"/>
		<path class="st2" d="M487.6,272.4c0.8,1,2.3,1.2,3.7,1.4C490.3,272.8,489,272.3,487.6,272.4z"/>
		<path class="st2" d="M491.3,273.8L491.3,273.8z"/>
		<path class="st2" d="M757.9,230.5l-1.1,0.1C757.2,230.6,757.6,230.6,757.9,230.5z"/>
		<path class="st2" d="M558.3,278.6l0.2-1.6c3.3,0,0.9,1.9,4,1.5c1.2-2.2,5,0.3,6.1-0.9c0,0.2,1.5,0.3,1.3,1
			c0.5-1.2,1.5-0.3,2.5-0.5c0.3-0.3-0.2-0.4-0.5-0.8l2.2-0.4c0.8,0.4,1,1.1,0.1,1.2c2.8,0.3,10.9,0.8,19.1,1.1s16.5,0.5,19.5,0.2
			c-0.8-0.9-2.6-0.3-3.3-1.8c1.6-0.8,2.3,0.3,3.1-0.5c0.6,2.2,3.5,0.5,4.7,2.7l0.5-1.2l0.8,0.8c7-1.3,1.6-0.6,7.8-0.3
			c3.6-0.2,5.3-1.9,7.3-1.3c-0.3,0-1.1-0.8-0.2-1.1c0.2,1.1,2.5-0.8,2.9,0.3c0.9-0.1,3.9,0,2.9-1.5c0.5,0.7,3.2,1,1.6,1.7
			c0.8,0.2,1.6,0.1,2.4-0.1l-1.2-0.4c3-0.2,4.7,0.9,6.6-0.5l-1.1-0.6c1.8-0.1,3.3-0.2,4,1.2l-1.8,0.5c2.5,0.1,4.9-0.3,7.3-1h-0.9
			c3.2-1.4,19.8-2.9,22.6-4.8l-1.4-1.1l2.5-1c-0.3,0-1.2,3.7-1.4,3.3l19.3-0.8c4.2-0.2,8.3-0.3,11.7-0.4c2.4-0.1,4.9-0.1,7.3,0.1
			c2,0.6,0.4,1.8,0.4,2c2.4-0.5,1-1.2,3.1-1.2c0.6,0.2-0.1,0.9-0.4,1.1c0.9-0.2,1.8,0.2,1.8-0.3c-1.2-0.4-0.7-1.8-1.2-2.7h2.7
			l-0.1,0.9c0.6,0,1.4-2.5,4.1-2.1c4.4,0.2,9.2-0.2,13.7-0.2c0,0.5-1,0.9-1.9,1.2c0.7-0.1,1.4-0.1,2.1,0.2c-1.1-0.9,1.8-0.7,1-1.1
			c3.2-2.3,7.5-0.5,10.3-2.1c0.2-2,4.6-33.7,4.4-36c0.7-0.1,1.3,0,2,0.2c-0.2-0.5-2-0.7-2.9-0.4l-0.1,1.2c-2.1,0.5-0.5-0.7-2.6-0.5
			c-0.2-1,1.7-1.3,3.4-1.5c-1.5-0.1-3-0.7-3.6,0.4c-1.4-0.4,0.1-1.2-1.6-1.6c-1.2,0.4-2.8,1.4-4.2,0.9v-0.2
			c-3.4-0.9-5.1,1.8-8.2,0.9l0.3-0.4c-1.1-0.5-3.2,0.3-5.2-0.2c0.6,0.2,1.1,0.9-0.1,1.1c-2.3-0.6-3.8,0.1-5.5-0.6l-1.6,1
			c-4,0-13.7,0.7-23.5,1.3s-19.6,1.2-23.6,1.3l0.3-0.2c-6.1,0.3-15.3,0.6-24.6,0.9s-18.7,0.7-25,1.3c-1.9-1-4.6-0.8-6.7-1
			c1.1,0.4,0.7,1.1-0.1,1.1c-6.2-0.1-0.4,0.7-6.7,1.1c-3.6,0.5-12.3,0.3-20.9,0s-17.1-0.9-20.2-1.4c-3.5,1.4-7.7,0.2-11.1,1.1
			l0.3-0.3c-3.6,0.5-24-1.3-28.2-0.9l0.6,0.2c-3.7,0.8-3.1-0.8-6-1.4c0.3,1.6-2.8,2.5-4,2.6l0.1-0.4c-1.8,0.2-5.9,1.5-8.9,1.6
			l0.2-0.8c-2.5,0.9-7.2,0.3-9,0.4c-4.1-0.5-10.3-2.3-15.8-1.4l-3.4-2.7l-0.5,0.2c-1.2,5.3-2,10.6-2.7,16c-1,8.4-1,17.7,2.5,21.1
			l-0.2,0.9l1.5,0c1.7,0.5,2.6-0.5,2.4,0.4l-2.4-0.2c1.7,0.3,0.5,0.8-0.2,1.2c0.7,0.1,1.4,0.3,2,0.5c0.4-0.3-0.2-0.4-0.5-0.6
			c1-0.3,2.3-1,3.4-0.6c1.8,0.2,0.1,1.4,2.1,1.6c11,1.1,21.5,2.5,32.6,2.6c0.2,0.4-0.1,0.4-0.4,0.5c3.3-0.3,6.3-0.1,9.4-0.4
			c0.6,0.3,1,0.8,1.3,1.3c-0.2-0.4,4-0.5,8.2-0.5c2.2,0,4.3,0,6,0.1C556.5,278.5,557.4,278.6,558.3,278.6z"/>
		<path class="st8" d="M516.7,260.2c0.2,2.8,1.5,3.9,3.4,3.9c1.7,0.1,3.2-1.2,3.3-2.9c0-0.2,0-0.3,0-0.5c0-2.6-2.6-3.1-5-4
			c-2.4-0.9-5-2.2-5-6.1c0-4.2,2.6-6.8,6.6-6.8s6.2,1.9,6.8,6.2h-3.6c-0.1-1.7-1-3.1-3-3.1c-1.6,0-2.9,1.2-2.9,2.8
			c0,0.1,0,0.2,0,0.3c0,2.5,2.4,3,5,3.9c2.2,0.9,5,2.3,5,6.7c0,4.2-3.1,6.8-7.2,6.8c-4.6,0-7-2.6-7.1-7.3H516.7z"/>
		<path class="st8" d="M531.5,244.3h3.8v22.8h-3.8V244.3z"/>
		<path class="st8" d="M545.7,244.3h3.7l4.4,17.2l4.4-17.2h3.6l-6.4,22.8H552L545.7,244.3z"/>
		<path class="st8" d="M563.7,255.7c0-7,2.8-11.8,8.3-11.8s8.3,4.8,8.3,11.8c0,6.7-2.6,11.8-8.3,11.8
			C566.5,267.5,563.7,262.7,563.7,255.7L563.7,255.7z M567.6,255.7c0,5.8,1.6,8.3,4.5,8.3s4.5-2.6,4.5-8.4c0-5.8-1.6-8.4-4.5-8.4
			S567.6,249.9,567.6,255.7L567.6,255.7z"/>
		<path class="st8" d="M588.4,244.3v16c-0.1,1,0.2,2,0.9,2.8c0.7,0.7,1.6,1,2.5,0.9c0.9,0.1,1.9-0.2,2.6-0.9
			c0.6-0.8,0.9-1.8,0.8-2.8v-16h3.8v16.5c0.1,1.8-0.5,3.5-1.7,4.9c-3.2,2.5-7.8,2.5-11,0c-1.2-1.3-1.8-3.1-1.7-4.9v-16.5H588.4z"/>
		<path class="st8" d="M606.9,260.2c0.2,2.8,1.5,3.9,3.4,3.9c1.7,0.1,3.2-1.2,3.3-2.9c0-0.2,0-0.3,0-0.5c0-2.6-2.6-3.1-5-4
			c-2.4-0.9-5-2.2-5-6.1c0-4.2,2.6-6.8,6.6-6.8s6.2,1.9,6.8,6.2h-3.6c-0.1-1.7-1-3.1-3-3.1c-1.6,0-2.9,1.2-2.9,2.8
			c0,0.1,0,0.2,0,0.3c0,2.5,2.4,3,5,3.9c2.2,0.9,5,2.3,5,6.7c0,4.2-3.1,6.8-7.2,6.8c-4.6,0-7-2.6-7.1-7.3H606.9z"/>
		<path class="st8" d="M631.2,267.1h-3.8l6.3-22.8h3.5l6.5,22.8h-3.8l-1.5-5.3h-5.8L631.2,267.1z M635.5,249.6l-2,8.8h3.9
			L635.5,249.6z"/>
		<path class="st8" d="M643.8,244.3h3.7l4.4,17.2l4.4-17.2h3.6l-6.4,22.8h-3.4L643.8,244.3z"/>
		<path class="st8" d="M663.5,244.3h10.9v3.5h-7.2v5.8h7.2v3.5h-7.2v6.6h7.2v3.5h-10.9V244.3z"/>
		<path class="st8" d="M683.1,263.6h8.6v3.5h-13v-3.3l8.4-16.1h-8v-3.5h12.4v3.4L683.1,263.6z"/>
		<path class="st8" d="M709.3,255.7H706v-4.1h3.3L709.3,255.7z M709.3,267.1H706V263h3.3L709.3,267.1z"/>
		<circle class="st9" cx="468.8" cy="253.1" r="27"/>
		<path class="st2" d="M472.6,555c1.6,1,4.4,1.2,7,1.4C477.4,555.4,475,554.9,472.6,555z"/>
		<path class="st2" d="M479.7,556.4L479.7,556.4L479.7,556.4z"/>
		<path class="st2" d="M991.3,513.1l-2.2,0.1C989.9,513.2,990.6,513.2,991.3,513.1z"/>
		<path class="st2" d="M607.7,561.2l0.4-1.6c6.3,0,1.8,1.8,7.6,1.5c2.3-2.2,9.6,0.3,11.6-0.8c0,0.2,2.8,0.3,2.6,1
			c0.9-1.2,2.9-0.3,4.7-0.5c0.7-0.3-0.5-0.4-1-0.8l4.1-0.4c1.6,0.4,2,1.1,0.2,1.2c5.4,0.2,20.9,0.8,36.5,1.2s31.4,0.5,37.2,0.2
			c-1.5-0.9-5-0.3-6.4-1.8c3-0.8,4.5,0.3,5.8-0.5c1.2,2.2,6.7,0.5,9,2.7l0.9-1.2l1.5,0.8c13.4-1.3,3.1-0.6,15-0.3
			c6.9-0.2,10.2-1.9,14-1.3c-0.6,0-2.1-0.8-0.3-1.1c0.3,1.1,4.8-0.8,5.6,0.3c1.8-0.1,7.4,0,5.5-1.5c1,0.7,6,1,3,1.7
			c1.5,0.2,3.1,0.1,4.6-0.1l-2.2-0.4c5.8-0.2,8.9,0.9,12.6-0.5l-2.1-0.6c3.4-0.1,6.3-0.2,7.7,1.2l-3.5,0.5c4.7,0.1,9.3-0.3,13.9-1
			h-1.7c6-1.4,37.7-2.9,43.3-4.8l-2.6-1.1l4.8-1c-0.6,0-2.3,3.7-2.8,3.3l36.9-0.8c7.9-0.2,15.8-0.3,22.3-0.3s11.6-0.1,14,0.1
			c3.8,0.6,0.7,1.8,0.7,2c4.7-0.5,2-1.2,6-1.2c1.1,0.2-0.2,0.9-0.8,1.1c1.7-0.2,3.3,0.2,3.5-0.3c-2.2-0.4-1.3-1.8-2.2-2.7h5.1
			l-0.2,0.9c1.1,0,2.8-2.5,7.9-2.1c8.5,0.2,17.6-0.2,26.1-0.2c-0.1,0.5-1.9,0.9-3.7,1.2c1.3-0.1,2.6-0.1,3.9,0.2
			c-2.1-0.9,3.5-0.7,1.9-1.1c6.2-2.3,14.3-0.5,19.7-2.1c0.5-2,10.9-33.8,10.9-36.1c1.3-0.1,2.6,0,3.9,0.2c-0.5-0.5-3.8-0.7-5.6-0.4
			l-0.3,1.2c-4.1,0.5-1-0.7-5-0.5c-0.2-1,3.4-1.3,6.7-1.5c-2.9,0-5.8-0.7-7,0.4c-2.7-0.4,0.3-1.2-3-1.6c-2.3,0.3-5.4,1.4-8.1,0.9
			v-0.2c-6.6-0.9-10,1.8-16,0.9l0.6-0.3c-2.1-0.5-6.3,0.3-10.1-0.2c1.1,0.2,2,0.9-0.2,1.1c-4.4-0.6-7.4,0.1-10.6-0.6l-3.1,1
			c-7.6,0-26.5,0.7-45.5,1.3s-37.8,1.2-45.5,1.3l0.6-0.2c-11.7,0.3-29.5,0.6-47.5,0.9s-36,0.7-48.1,1.3c-3.7-1-8.9-0.8-12.8-1
			c2.2,0.4,1.4,1.1-0.3,1.1c-11.9-0.1-0.8,0.7-12.8,1.1c-6.9,0.5-23.6,0.3-40.2,0s-32.8-0.9-39-1.4c-6.6,1.4-14.8,0.2-21.3,1.1
			l0.7-0.3c-7,0.5-46.3-1.3-54.4-0.9l1.1,0.2c-7,0.8-6.1-0.8-11.6-1.3c0.7,1.6-5.3,2.5-7.7,2.5l0.1-0.3c-3.5,0.2-11.4,1.5-17.1,1.6
			l0.2-0.9c-4.8,0.9-13.8,0.3-17.2,0.3c-7.9-0.5-19.9-2.3-30.5-1.3l-6.7-2.7l-1,0.2c-1.9,5.2-3.3,10.5-4.1,16
			c-1.2,8.4-0.7,17.7,6.2,21.1l-0.2,0.9l2.9-0.1c3.3,0.5,4.9-0.5,4.6,0.4l-4.5-0.2c3.3,0.3,1,0.8-0.3,1.2c1.3,0.1,2.6,0.3,3.8,0.5
			c0.7-0.3-0.5-0.4-1-0.6c1.8-0.3,4.3-1,6.5-0.6c3.4,0.2,0.2,1.4,4.1,1.6c20.9,1.1,41.2,2.5,62.3,2.6c0.5,0.4-0.1,0.3-0.7,0.5
			c6.4-0.3,12-0.1,17.8-0.4c0.9,0.2,1.8,0.7,2.5,1.3c-0.5-0.4,7.5-0.5,15.7-0.5l11.4,0.1C605.4,561.1,607.5,561.2,607.7,561.2z"/>
		<path class="st8" d="M516.4,526.9h10.9v3.5h-7.2v5.8h7.2v3.5h-7.2v6.6h7.2v3.5h-10.9V526.9z"/>
		<path class="st8" d="M535.4,530.4h-4.1v-3.5h12v3.5h-4.1v19.3h-3.8L535.4,530.4z"/>
		<path class="st8" d="M572.3,550c-0.3,0-0.7,0.1-1,0.1c-1.2,0.1-2.4-0.4-3.2-1.3c-1.2,0.9-2.7,1.3-4.2,1.3c-5.5,0-8.3-4.8-8.3-11.8
			s2.8-11.8,8.3-11.8s8.3,4.8,8.3,11.8c0.1,2.7-0.5,5.4-1.7,7.9c0.5,0.4,1.2,0.6,1.8,0.4L572.3,550z M563.9,529.9
			c-2.8,0-4.4,2.7-4.4,8.3c0,0.9,0.1,1.8,0.2,2.7c0.9-0.5,1.9-0.7,2.9-0.7c0.9,0,1.8,0.3,2.6,0.7c1,0.6,1.8,1.4,2.5,2.3
			c0.5-1.6,0.8-3.3,0.7-5C568.4,532.5,566.8,529.9,563.9,529.9L563.9,529.9z M563.9,546.6c0.8,0,1.5-0.2,2.1-0.7
			c-0.5-0.6-1-1.2-1.6-1.7c-0.8-0.5-1.6-0.8-2.6-0.8c-0.6,0-1.2,0.2-1.6,0.5C560.8,545.5,562.2,546.6,563.9,546.6L563.9,546.6z"/>
		<path class="st8" d="M580.3,526.9v16c-0.1,1,0.2,2,0.9,2.8c0.7,0.7,1.6,1,2.5,0.9c0.9,0.1,1.9-0.2,2.6-0.9
			c0.6-0.8,0.9-1.8,0.8-2.8v-16h3.8v16.5c0.1,1.8-0.5,3.5-1.7,4.9c-3.2,2.5-7.8,2.5-11,0c-1.2-1.3-1.8-3.1-1.7-4.9v-16.5H580.3z"/>
		<path class="st8" d="M596.2,526.9h10.9v3.5h-7.2v5.8h7.2v3.5h-7.2v6.6h7.2v3.5h-10.9V526.9z"/>
		<path class="st8" d="M621.8,526.9h3.8v19.3h6.5v3.5h-10.3V526.9z"/>
		<path class="st8" d="M634.5,526.9h3.5l-3,7h-3L634.5,526.9z"/>
		<path class="st8" d="M640.9,538.2c0-7,2.8-11.8,8.3-11.8s8.3,4.8,8.3,11.8c0,6.7-2.6,11.8-8.3,11.8
			C643.7,550.1,640.9,545.3,640.9,538.2L640.9,538.2z M644.8,538.3c0,5.8,1.6,8.3,4.5,8.3s4.5-2.6,4.5-8.3s-1.6-8.3-4.5-8.3
			S644.8,532.5,644.8,538.3L644.8,538.3z"/>
		<path class="st8" d="M673.2,542.4v-15.6h3.3v22.8h-3.5l-7.6-16.5v16.5H662v-22.8h4L673.2,542.4z"/>
		<path class="st8" d="M691.2,526.9h5.3c3.3,0,5.1,0.7,6,1.8c1.4,1.4,2.1,3.4,2,5.4c0,1.3-0.2,2.6-0.8,3.7c-0.6,1.3-1.8,2.4-3.2,2.9
			l4.4,9.1h-4.2l-5-11.2c0.4,0,0.7,0,1,0c1,0,2-0.3,2.8-1c0.8-0.8,1.2-2,1.1-3.1c0.1-1.2-0.4-2.5-1.3-3.3c-0.9-0.5-2-0.8-3-0.7h-1.4
			v19.3h-3.8L691.2,526.9z"/>
		<path class="st8" d="M709,526.9h11v3.5h-7.2v5.8h7.2v3.5h-7.2v6.6h7.2v3.5h-11V526.9z"/>
		<path class="st8" d="M728,530.4h-4.1v-3.5h12v3.5h-4.1v19.3H728V530.4z"/>
		<path class="st8" d="M739.8,526.9h5.3c3.3,0,5.1,0.7,6,1.8c1.4,1.4,2.1,3.4,2,5.4c0,1.3-0.2,2.6-0.8,3.7c-0.6,1.3-1.8,2.4-3.2,2.9
			l4.4,9.1h-4.2l-5-11.2c0.4,0,0.7,0,1,0c1,0,2-0.3,2.8-1c0.8-0.8,1.2-2,1.1-3.1c0.1-1.3-0.3-2.5-1.2-3.4c-0.9-0.5-2-0.8-3-0.7h-1.4
			v19.3h-3.8L739.8,526.9z"/>
		<path class="st8" d="M756.5,538.2c0-7,2.8-11.8,8.3-11.8s8.3,4.8,8.3,11.8c0,6.7-2.6,11.8-8.3,11.8
			C759.3,550.1,756.5,545.3,756.5,538.2L756.5,538.2z M760.4,538.3c0,5.8,1.6,8.3,4.5,8.3s4.5-2.6,4.5-8.3s-1.6-8.3-4.5-8.3
			S760.4,532.5,760.4,538.3L760.4,538.3z"/>
		<path class="st8" d="M781.2,526.9v16c-0.1,1,0.2,2,0.9,2.8c0.7,0.7,1.6,1,2.5,0.9c0.9,0.1,1.9-0.2,2.6-0.9
			c0.6-0.8,0.9-1.8,0.8-2.8v-16h3.8v16.5c0.1,1.8-0.5,3.5-1.7,4.9c-3.2,2.5-7.8,2.5-11,0c-1.2-1.3-1.8-3.1-1.7-4.9v-16.5H781.2z"/>
		<path class="st8" d="M795.1,526.9h3.7l4.4,17.2l4.4-17.2h3.6l-6.4,22.8h-3.4L795.1,526.9z"/>
		<path class="st8" d="M814.8,526.9h10.9v3.5h-7.2v5.8h7.2v3.5h-7.2v6.6h7.2v3.5h-10.9V526.9z"/>
		<path class="st8" d="M840.5,526.9h10.9v3.5h-7.2v5.8h7.2v3.5h-7.2v6.6h7.2v3.5h-10.9V526.9z"/>
		<path class="st8" d="M867.9,542.4v-15.6h3.3v22.8h-3.5l-7.6-16.5v16.5h-3.4v-22.8h4L867.9,542.4z"/>
		<path class="st8" d="M881.7,526.9h3.7l4.4,17.2l4.4-17.2h3.6l-6.4,22.8h-3.4L881.7,526.9z"/>
		<path class="st8" d="M899.8,538.2c0-7,2.8-11.8,8.3-11.8s8.3,4.8,8.3,11.8c0,6.7-2.6,11.8-8.3,11.8
			C902.6,550.1,899.8,545.3,899.8,538.2L899.8,538.2z M903.6,538.3c0,5.8,1.6,8.3,4.5,8.3s4.5-2.6,4.5-8.3s-1.6-8.3-4.5-8.3
			S903.6,532.5,903.6,538.3L903.6,538.3z"/>
		<path class="st8" d="M924.5,526.9v16c-0.1,1,0.2,2,0.9,2.8c0.7,0.7,1.6,1,2.5,0.9c0.9,0.1,1.9-0.2,2.6-0.9
			c0.6-0.8,0.9-1.8,0.8-2.8v-16h3.8v16.5c0.1,1.8-0.5,3.5-1.7,4.9c-3.2,2.5-7.8,2.5-11,0c-1.2-1.3-1.8-3.1-1.7-4.9v-16.5H924.5z"/>
		<path class="st8" d="M943,542.8c0.2,2.8,1.5,3.9,3.4,3.9c1.7,0.1,3.2-1.2,3.3-2.9c0-0.2,0-0.3,0-0.5c0-2.6-2.6-3.1-5-4
			s-5-2.2-5-6.1c0-4.2,2.6-6.8,6.6-6.8s6.2,1.9,6.8,6.2h-3.6c-0.1-1.7-1-3.1-3-3.1c-1.6,0-2.9,1.2-2.9,2.8c0,0.1,0,0.2,0,0.3
			c0,2.5,2.4,3,5,3.9c2.2,0.9,5,2.3,5,6.7c0,4.2-3.1,6.8-7.2,6.8c-4.6,0-7-2.6-7.1-7.3L943,542.8z"/>
		<path class="st8" d="M971,538.3h-3.3v-4.1h3.3V538.3z M971,549.7h-3.3v-4.1h3.3V549.7z"/>
		<circle class="st9" cx="471.2" cy="535.7" r="27"/>
		<path class="st10" d="M510.5,817.2h888.9c8.8,0,15.9,7.1,15.9,15.9v26.4c0,8.8-7.1,15.9-15.9,15.9H510.5
			c-8.8,0-15.9-7.1-15.9-15.9v-26.4C494.6,824.3,501.7,817.2,510.5,817.2z"/>
		<path class="st8" d="M535.5,832.2h4.1l3.4,14.2l3.5-14.2h4l-5.6,20.7h-3.7L535.5,832.2z"/>
		<path class="st8" d="M551.6,844.9c0-4.5,2-8.2,6.1-8.2s6.1,3.7,6.1,8.3s-2,8.3-6.1,8.3S551.6,849.5,551.6,844.9L551.6,844.9z
			 M555.6,845c0,3.7,0.8,4.7,2.2,4.7s2.1-1,2.1-4.8s-0.8-4.8-2.2-4.8S555.6,841.2,555.6,845L555.6,845z"/>
		<path class="st8" d="M578.2,852.9h-3.4v-1.7c-0.5,1.3-1.3,2-3.2,2c-2.5,0-4.1-1.4-4.1-4.6V837h3.7v10.4c0,1.1,0.2,2.1,1.6,2.1
			c1,0,1.7-0.5,1.7-1.8V837h3.7V852.9z"/>
		<path class="st8" d="M588.5,841.7c-0.1-1.2-0.5-1.8-1.7-1.8c-0.7-0.1-1.2,0.4-1.3,1c0,0.1,0,0.1,0,0.2c0,1.3,1.8,1.5,3.6,2
			c2.2,0.5,3.8,2.6,3.6,4.9c0,3-2.3,5.2-5.6,5.2c-3,0-5.4-1.7-5.8-5.4h3.8c0,1.1,0.9,2,2,2c0.1,0,0.1,0,0.2,0
			c0.8,0.1,1.5-0.5,1.5-1.3c0-0.1,0-0.2,0-0.3c0-1.4-1.8-1.5-3.6-2.1s-3.6-1.7-3.6-4.8c0-2.7,1.8-4.6,5.4-4.6s5.1,2,5.3,5
			L588.5,841.7z"/>
		<path class="st8" d="M608.3,846.3c0,1.6,0.4,3.4,2.1,3.4c1,0,1.7-0.6,2-2h3.7c-0.1,1.7-1,3.3-2.3,4.4c-1,0.7-2.2,1-3.4,1
			c-4.2,0-6.1-3.7-6.1-8.3s2-8.3,6.1-8.3c1.9-0.1,3.7,0.9,4.6,2.5c1.2,2,1.3,4.6,1.2,7.1L608.3,846.3z M615.2,835.4H612l-1.7-2.4
			l-1.8,2.3h-3.2l3.2-4.1h3.6L615.2,835.4z M612.5,843.1c0-1-0.1-3.3-2-3.3c-1.3,0-2.2,1.1-2.2,3.3H612.5z"/>
		<path class="st8" d="M620.4,840.5h-1.7V837h1.7v-3h3.7v3h1.7v3.5h-1.7v12.3h-3.7V840.5z"/>
		<path class="st8" d="M632,846.3c0,1.6,0.4,3.4,2.1,3.4c1,0,1.7-0.6,2-2h3.7c-0.1,1.7-1,3.3-2.3,4.4c-1,0.7-2.2,1-3.4,1
			c-4.2,0-6.1-3.7-6.1-8.3s2-8.3,6.1-8.3c1.9-0.1,3.7,0.9,4.6,2.5c1.2,2,1.3,4.6,1.2,7.1L632,846.3z M636.1,843.1c0-1-0.1-3.3-2-3.3
			c-1.3,0-2.2,1.1-2.2,3.3H636.1z"/>
		<path class="st8" d="M649.6,841.7c-0.1-1.2-0.5-1.8-1.7-1.8c-0.7-0.1-1.2,0.4-1.3,1c0,0.1,0,0.1,0,0.2c0,1.3,1.8,1.5,3.6,2
			c2.2,0.5,3.8,2.6,3.6,4.9c0,3-2.3,5.2-5.6,5.2c-3,0-5.4-1.7-5.8-5.4h3.7c0,1.1,0.9,2,2,2c0.1,0,0.1,0,0.2,0
			c0.8,0.1,1.5-0.5,1.5-1.3c0-0.1,0-0.2,0-0.3c0-1.4-1.8-1.5-3.6-2.1s-3.6-1.7-3.6-4.8c0-2.7,1.8-4.6,5.4-4.6s5.1,2,5.3,5
			L649.6,841.7z"/>
		<path class="st8" d="M666,837h3.4v1.5c0.5-1.2,1.8-1.9,3.1-1.8c2.8,0,5,2.6,5,8.3c0,5.4-1.8,8.3-5,8.3c-1.1,0.1-2.2-0.5-2.7-1.5
			v6.2H666V837z M673.7,844.9c0-3.5-0.7-4.5-2-4.5c-0.5,0-1.1,0.2-1.4,0.7c-0.5,0.6-0.6,1.3-0.6,3.8s0.1,3.2,0.6,3.8
			c0.3,0.5,0.8,0.7,1.4,0.7C673,849.5,673.7,848.5,673.7,844.9L673.7,844.9z"/>
		<path class="st8" d="M684.5,846.3c0,1.6,0.4,3.4,2.1,3.4c1,0,1.7-0.6,2-2h3.7c-0.1,1.7-1,3.3-2.3,4.4c-1,0.7-2.2,1-3.4,1
			c-4.2,0-6.1-3.7-6.1-8.3s2-8.3,6.1-8.3c1.9-0.1,3.7,0.9,4.6,2.5c1.2,2,1.3,4.6,1.2,7.1L684.5,846.3z M688.7,843.1
			c0-1-0.1-3.3-2-3.3c-1.3,0-2.2,1.1-2.2,3.3H688.7z"/>
		<path class="st8" d="M706.9,852.9h-3.4v-1.7c-0.5,1.3-1.3,2-3.2,2c-2.5,0-4.1-1.4-4.1-4.6V837h3.7v10.4c0,1.1,0.2,2.1,1.6,2.1
			c1,0,1.7-0.5,1.7-1.8V837h3.7V852.9z"/>
		<path class="st8" d="M711.7,840.5H710V837h1.7v-3h3.7v3h1.7v3.5h-1.7v12.3h-3.7L711.7,840.5z"/>
		<path class="st8" d="M732.4,846.3c0,1.6,0.4,3.4,2.1,3.4c1,0,1.7-0.6,2-2h3.7c-0.1,1.7-1,3.3-2.3,4.4c-1,0.7-2.2,1-3.4,1
			c-4.2,0-6.1-3.7-6.1-8.3s2-8.3,6.1-8.3c1.9-0.1,3.7,0.9,4.6,2.5c1.2,2,1.3,4.6,1.2,7.1L732.4,846.3z M739.3,835.4h-3.2l-1.8-2.4
			l-1.8,2.3h-3.2l3.2-4.1h3.6L739.3,835.4z M736.6,843.1c0-1-0.1-3.3-2-3.3c-1.3,0-2.2,1.1-2.2,3.3H736.6z"/>
		<path class="st8" d="M744.5,840.5h-1.7V837h1.7v-3h3.7v3h1.7v3.5h-1.7v12.3h-3.7V840.5z"/>
		<path class="st8" d="M753,837h3.4v2.1c0.6-2,2-2.4,4-2.4v4.6c-0.5-0.3-1.1-0.5-1.7-0.5c-1.4,0-2,1.2-2,2.8v9.3H753V837z"/>
		<path class="st8" d="M766.4,846.3c0,1.6,0.4,3.4,2.1,3.4c1,0,1.7-0.6,2-2h3.7c-0.1,1.7-1,3.3-2.3,4.4c-1,0.7-2.2,1-3.4,1
			c-4.2,0-6.1-3.7-6.1-8.3s2-8.3,6.1-8.3c1.9-0.1,3.7,0.9,4.6,2.5c1.2,2,1.3,4.6,1.2,7.1L766.4,846.3z M770.5,843.1
			c0-1-0.1-3.3-2-3.3c-1.3,0-2.2,1.1-2.2,3.3H770.5z"/>
		<path class="st8" d="M787.3,832.2h3.7v20.7h-3.7V832.2z"/>
		<path class="st8" d="M806.5,852.9h-3.4v-1.5c-0.5,1.2-1.8,2-3.1,1.9c-2.8,0-5-2.6-5-8.3c0-5.4,1.8-8.3,5-8.3
			c1.4-0.1,2.6,0.7,3.1,2V837h3.4L806.5,852.9z M798.8,845c0,3.5,0.8,4.5,2,4.5c0.6,0,1.1-0.2,1.5-0.7c0.5-0.6,0.5-1.3,0.5-3.8
			s0-3.2-0.5-3.8c-0.3-0.5-0.9-0.7-1.5-0.7C799.5,840.4,798.8,841.4,798.8,845L798.8,845z"/>
		<path class="st8" d="M819.8,837h3.4v1.5c0.5-1.2,1.8-1.9,3.1-1.8c2.8,0,5,2.6,5,8.3c0,5.4-1.8,8.3-5,8.3c-1.1,0.1-2.2-0.5-2.7-1.5
			v6.2h-3.7V837z M827.5,844.9c0-3.5-0.7-4.5-2-4.5c-0.5,0-1.1,0.2-1.4,0.7c-0.5,0.6-0.6,1.3-0.6,3.8s0.1,3.2,0.6,3.8
			c0.3,0.5,0.8,0.7,1.4,0.7C826.8,849.5,827.5,848.5,827.5,844.9L827.5,844.9z"/>
		<path class="st8" d="M838.2,846.3c0,1.6,0.4,3.4,2.1,3.4c1,0,1.7-0.6,2-2h3.7c-0.1,1.7-1,3.3-2.3,4.4c-1,0.7-2.2,1-3.4,1
			c-4.2,0-6.1-3.7-6.1-8.3s2-8.3,6.1-8.3c1.9-0.1,3.7,0.9,4.6,2.5c1.2,2,1.3,4.6,1.2,7.1L838.2,846.3z M842.4,843.1
			c0-1-0.1-3.3-2-3.3c-1.3,0-2.2,1.1-2.2,3.3H842.4z"/>
		<path class="st8" d="M849.9,837h3.4v2.1c0.6-2,2-2.4,4-2.4v4.6c-0.5-0.3-1.1-0.5-1.7-0.5c-1.4,0-2,1.2-2,2.8v9.3h-3.7L849.9,837z"
			/>
		<path class="st8" d="M866.2,841.7c-0.1-1.2-0.5-1.8-1.7-1.8c-0.7-0.1-1.2,0.4-1.3,1c0,0.1,0,0.1,0,0.2c0,1.3,1.8,1.5,3.6,2
			c2.2,0.5,3.8,2.6,3.6,4.9c0,3-2.3,5.2-5.6,5.2c-3,0-5.4-1.7-5.8-5.4h3.7c0,1.1,0.9,2,2,2c0.1,0,0.1,0,0.2,0
			c0.8,0.1,1.5-0.5,1.5-1.3c0-0.1,0-0.2,0-0.3c0-1.4-1.8-1.5-3.6-2.1s-3.6-1.7-3.6-4.8c0-2.7,1.8-4.6,5.4-4.6s5.1,2,5.3,5
			L866.2,841.7z"/>
		<path class="st8" d="M872.9,844.9c0-4.5,2-8.2,6.1-8.2s6.1,3.7,6.1,8.3s-2,8.3-6.1,8.3S872.9,849.5,872.9,844.9L872.9,844.9z
			 M876.9,845c0,3.7,0.8,4.7,2.2,4.7s2.1-1,2.1-4.8s-0.8-4.8-2.2-4.8S876.9,841.2,876.9,845L876.9,845z"/>
		<path class="st8" d="M888.8,837h3.2v1.5c0.6-1.3,2-2,3.4-1.8c2.5,0,4.1,1.4,4.1,4.6v11.6h-3.7v-10.4c0-1.1-0.2-2.1-1.6-2.1
			c-1,0-1.7,0.5-1.7,1.8v10.6h-3.7L888.8,837z"/>
		<path class="st8" d="M903.8,837h3.2v1.5c0.6-1.3,2-2,3.4-1.8c2.5,0,4.1,1.4,4.1,4.6v11.6h-3.7v-10.4c0-1.1-0.2-2.1-1.6-2.1
			c-1,0-1.7,0.5-1.7,1.8v10.6h-3.7V837z"/>
		<path class="st8" d="M922.3,846.3c0,1.6,0.4,3.4,2.1,3.4c1,0,1.7-0.6,2-2h3.7c-0.1,1.7-1,3.3-2.3,4.4c-1,0.7-2.2,1-3.4,1
			c-4.2,0-6.1-3.7-6.1-8.3s2-8.3,6.1-8.3c1.9-0.1,3.7,0.9,4.6,2.5c1.2,2,1.3,4.6,1.2,7.1L922.3,846.3z M926.5,843.1
			c0-1-0.1-3.3-2-3.3c-1.3,0-2.2,1.1-2.2,3.3H926.5z"/>
		<path class="st8" d="M953.6,857.9h-3.7v-5c0-0.5,0-0.9,0-1.4c-0.5,1.1-1.6,1.8-2.8,1.7c-3.2,0-5-2.9-5-8.3c0-5.7,2.2-8.3,5-8.3
			c1.5,0,2.8,0.8,3,1.8V837h3.5L953.6,857.9z M945.9,845c0,3.5,0.8,4.5,2,4.5c0.6,0,1.1-0.2,1.5-0.7c0.5-0.6,0.5-1.3,0.5-3.8
			s0-3.2-0.5-3.8c-0.3-0.5-0.9-0.7-1.5-0.7C946.6,840.4,945.9,841.4,945.9,845L945.9,845z"/>
		<path class="st8" d="M968.7,852.9h-3.4v-1.7c-0.5,1.3-1.3,2-3.2,2c-2.5,0-4.1-1.4-4.1-4.6V837h3.7v10.4c0,1.1,0.2,2.1,1.6,2.1
			c1,0,1.7-0.5,1.7-1.8V837h3.7V852.9z"/>
		<path class="st8" d="M973.4,832.2h3.7v3.1h-3.7V832.2z M973.4,837h3.7v15.9h-3.7V837z"/>
		<path class="st8" d="M997.3,852.9h-3.4l-4.6-15.9h3.8l2.4,10.2l2.1-10.2h3.8L997.3,852.9z"/>
		<path class="st8" d="M1004.7,832.2h3.7v3.1h-3.7V832.2z M1004.7,837h3.7v15.9h-3.7V837z"/>
		<path class="st8" d="M1016.6,846.3c0,1.6,0.4,3.4,2.1,3.4c1,0,1.7-0.6,2-2h3.7c-0.1,1.7-1,3.3-2.3,4.4c-1,0.7-2.2,1-3.4,1
			c-4.2,0-6.1-3.7-6.1-8.3s2-8.3,6.1-8.3c1.9-0.1,3.7,0.9,4.6,2.5c1.2,2,1.3,4.6,1.2,7.1L1016.6,846.3z M1020.7,843.1
			c0-1-0.1-3.3-2-3.3c-1.3,0-2.2,1.1-2.2,3.3H1020.7z"/>
		<path class="st8" d="M1028.2,837h3.2v1.5c0.6-1.3,2-2,3.4-1.8c2.5,0,4.1,1.4,4.1,4.6v11.6h-3.7v-10.4c0-1.1-0.2-2.1-1.6-2.1
			c-1,0-1.7,0.5-1.7,1.8v10.6h-3.7L1028.2,837z"/>
		<path class="st8" d="M1054,852.9h-3.4v-1.8c-0.4,1.3-1.7,2.2-3.1,2.1c-2.8,0-5-2.6-5-8.3c0-5.4,1.8-8.3,5-8.3
			c1.2-0.1,2.3,0.6,2.8,1.7c0-0.5,0-0.9,0-1.3v-4.8h3.7V852.9z M1046.3,845c0,3.5,0.8,4.5,2,4.5c0.6,0,1.1-0.2,1.5-0.7
			c0.5-0.6,0.5-1.3,0.5-3.8s0-3.2-0.5-3.8c-0.3-0.5-0.9-0.7-1.5-0.7C1047,840.4,1046.3,841.4,1046.3,845L1046.3,845z"/>
		<path class="st11" d="M469,226.1c-0.1,0-0.1,0-0.2,0v53.9c0.1,0,0.1,0,0.2,0c14.9,0,27-12.1,27-27
			C496,238.2,483.9,226.1,469,226.1z"/>
		<path class="st8" d="M1058.4,837h3.4v2.1c0.6-2,2-2.4,4-2.4v4.6c-0.5-0.3-1.1-0.5-1.7-0.5c-1.4,0-2,1.2-2,2.8v9.3h-3.7L1058.4,837
			z"/>
		<path class="st8" d="M1079.1,852.9h-3.4v-1.5c-0.5,1.2-1.8,1.9-3.1,1.8c-2.8,0-5-2.6-5-8.3c0-5.4,1.8-8.3,5-8.3
			c1.4-0.1,2.6,0.7,3.1,2V837h3.4V852.9z M1071.4,845c0,3.5,0.8,4.5,2,4.5c0.6,0,1.1-0.2,1.5-0.7c0.5-0.6,0.5-1.3,0.5-3.8
			s0-3.2-0.5-3.8c-0.3-0.5-0.9-0.7-1.5-0.7C1072.1,840.4,1071.4,841.4,1071.4,845L1071.4,845z"/>
		<path class="st8" d="M1092.3,837h3.4v2.1c0.6-2,2-2.4,4-2.4v4.6c-0.5-0.3-1.1-0.5-1.7-0.5c-1.4,0-2,1.2-2,2.8v9.3h-3.7L1092.3,837
			z"/>
		<path class="st8" d="M1105.7,846.3c0,1.6,0.4,3.4,2.1,3.4c1,0,1.7-0.6,2-2h3.7c-0.1,1.7-1,3.3-2.3,4.4c-1,0.7-2.2,1-3.4,1
			c-4.2,0-6.1-3.7-6.1-8.3s2-8.3,6.1-8.3c1.9-0.1,3.7,0.9,4.6,2.5c1.2,2,1.3,4.6,1.2,7.1L1105.7,846.3z M1109.9,843.1
			c0-1-0.1-3.3-2-3.3c-1.3,0-2.2,1.1-2.2,3.3H1109.9z"/>
		<path class="st8" d="M1117.4,837h3.2v1.5c0.6-1.3,2-2,3.4-1.8c2.5,0,4.1,1.4,4.1,4.6v11.6h-3.7v-10.4c0-1.1-0.2-2.1-1.6-2.1
			c-1,0-1.7,0.5-1.7,1.8v10.6h-3.7L1117.4,837z"/>
		<path class="st8" d="M1132.8,840.5h-1.4V837h1.4v-0.6c0-4.2,3.7-4.5,5.8-4.5v3.2c-0.9,0-2.1,0-2.1,1.7v0.3h2.1v3.5h-2.1v12.3h-3.7
			L1132.8,840.5z"/>
		<path class="st8" d="M1140.5,844.9c0-4.5,2-8.2,6.1-8.2s6.1,3.7,6.1,8.3s-2,8.3-6.1,8.3S1140.5,849.5,1140.5,844.9L1140.5,844.9z
			 M1144.5,845c0,3.7,0.8,4.7,2.2,4.7s2.1-1,2.1-4.8s-0.8-4.8-2.2-4.8S1144.5,841.2,1144.5,845L1144.5,845z"/>
		<path class="st8" d="M1156.3,837h3.4v2.1c0.6-2,2-2.4,4-2.4v4.6c-0.5-0.3-1.1-0.5-1.7-0.5c-1.4,0-2,1.2-2,2.8v9.3h-3.7L1156.3,837
			z"/>
		<path class="st8" d="M1176.6,846.8c0,3.2-1.6,6.4-5.1,6.4c-3.8,0-6.1-3-6.1-8.3s2.4-8.3,6.1-8.3c3.5,0,5.1,3.1,5.1,6.4h-3.9
			c0-1.9-0.5-2.8-1.5-2.8c-0.6,0-1.2,0.4-1.4,1c-0.4,1.2-0.6,2.5-0.5,3.7c0,3.6,0.7,4.8,1.9,4.8s1.5-1.3,1.5-2.8L1176.6,846.8z"/>
		<path class="st8" d="M1183.2,846.3c0,1.6,0.4,3.4,2.1,3.4c1,0,1.7-0.6,2-2h3.7c-0.1,1.7-1,3.3-2.3,4.4c-1,0.7-2.2,1-3.4,1
			c-4.2,0-6.1-3.7-6.1-8.3s2-8.3,6.1-8.3c1.9-0.1,3.7,0.9,4.6,2.5c1.2,2,1.3,4.6,1.2,7.1L1183.2,846.3z M1187.3,843.1
			c0-1-0.1-3.3-2-3.3c-1.3,0-2.2,1.1-2.2,3.3H1187.3z"/>
		<path class="st8" d="M1194.9,837h3.4v2.1c0.6-2,2-2.4,4-2.4v4.6c-0.5-0.3-1.1-0.5-1.7-0.5c-1.4,0-2,1.2-2,2.8v9.3h-3.7L1194.9,837
			z"/>
		<path class="st8" d="M1214.2,837h3.2v1.5c0.6-1.3,2-2,3.4-1.8c2.5,0,4.1,1.4,4.1,4.6v11.6h-3.7v-10.4c0-1.1-0.2-2.1-1.6-2.1
			c-1,0-1.7,0.5-1.7,1.8v10.6h-3.7L1214.2,837z"/>
		<path class="st8" d="M1228.5,844.9c0-4.5,2-8.2,6.1-8.2s6.1,3.7,6.1,8.3s-2,8.3-6.1,8.3S1228.5,849.5,1228.5,844.9L1228.5,844.9z
			 M1232.5,845c0,3.7,0.8,4.7,2.2,4.7s2.1-1,2.1-4.8s-0.8-4.8-2.2-4.8S1232.5,841.2,1232.5,845L1232.5,845z"/>
		<path class="st8" d="M1244.7,840.5h-1.7V837h1.7v-3h3.7v3h1.7v3.5h-1.7v12.3h-3.7L1244.7,840.5z"/>
		<path class="st8" d="M1253.2,837h3.4v2.1c0.6-2,2-2.4,4-2.4v4.6c-0.5-0.3-1.1-0.5-1.7-0.5c-1.4,0-2,1.2-2,2.8v9.3h-3.7L1253.2,837
			z"/>
		<path class="st8" d="M1266.6,846.3c0,1.6,0.4,3.4,2.1,3.4c1,0,1.7-0.6,2-2h3.7c-0.1,1.7-1,3.3-2.3,4.4c-1,0.7-2.2,1-3.4,1
			c-4.2,0-6.1-3.7-6.1-8.3s2-8.3,6.1-8.3c1.9-0.1,3.7,0.9,4.6,2.5c1.2,2,1.3,4.6,1.2,7.1L1266.6,846.3z M1270.7,843.1
			c0-1-0.1-3.3-2-3.3c-1.3,0-2.2,1.1-2.2,3.3H1270.7z"/>
		<path class="st8" d="M1290.6,846.3c0,1.6,0.4,3.4,2.1,3.4c1,0,1.7-0.6,2-2h3.7c-0.1,1.7-1,3.3-2.3,4.4c-1,0.7-2.2,1-3.4,1
			c-4.2,0-6.1-3.7-6.1-8.3s2-8.3,6.1-8.3c1.9-0.1,3.7,0.9,4.6,2.5c1.2,2,1.3,4.6,1.2,7.1L1290.6,846.3z M1296.2,830.3l1.4,3
			l-6.5,2.9l-1.3-2.4L1296.2,830.3z M1294.7,843.1c0-1-0.1-3.3-2-3.3c-1.3,0-2.2,1.1-2.2,3.3H1294.7z"/>
		<path class="st8" d="M1312.9,857.9h-3.7v-5c0-0.5,0-0.9,0-1.4c-0.5,1.1-1.6,1.8-2.8,1.7c-3.2,0-5-2.9-5-8.3c0-5.7,2.2-8.3,5-8.3
			c1.5,0,2.8,0.8,3,1.8V837h3.5L1312.9,857.9z M1305.2,845c0,3.5,0.8,4.5,2,4.5c0.6,0,1.1-0.2,1.5-0.7c0.5-0.6,0.5-1.3,0.5-3.8
			s0-3.2-0.5-3.8c-0.3-0.5-0.9-0.7-1.5-0.7C1305.9,840.4,1305.2,841.4,1305.2,845L1305.2,845z"/>
		<path class="st8" d="M1328,852.9h-3.4v-1.7c-0.5,1.3-1.3,2-3.2,2c-2.5,0-4.1-1.4-4.1-4.6V837h3.7v10.4c0,1.1,0.2,2.1,1.6,2.1
			c1,0,1.7-0.5,1.7-1.8V837h3.8V852.9z"/>
		<path class="st8" d="M1332.8,832.2h3.7v3.1h-3.7V832.2z M1332.8,837h3.7v15.9h-3.7V837z"/>
		<path class="st8" d="M1341.2,837h3.4v1.5c0.5-1.2,1.8-1.9,3.1-1.8c2.8,0,5,2.6,5,8.3c0,5.4-1.8,8.3-5,8.3
			c-1.1,0.1-2.2-0.5-2.7-1.5v6.2h-3.7V837z M1349,844.9c0-3.5-0.7-4.5-2-4.5c-0.5,0-1.1,0.2-1.4,0.7c-0.5,0.6-0.6,1.3-0.6,3.8
			s0.1,3.2,0.6,3.8c0.3,0.5,0.8,0.7,1.4,0.7C1348.3,849.5,1349,848.5,1349,844.9L1349,844.9z"/>
		<path class="st8" d="M1359.7,846.3c0,1.6,0.4,3.4,2.1,3.4c1,0,1.7-0.6,2-2h3.7c-0.1,1.7-1,3.3-2.3,4.4c-1,0.7-2.2,1-3.4,1
			c-4.2,0-6.1-3.7-6.1-8.3s2-8.3,6.1-8.3c1.9-0.1,3.7,0.9,4.6,2.5c1.2,2,1.3,4.6,1.2,7.1L1359.7,846.3z M1363.8,843.1
			c0-1-0.1-3.3-2-3.3c-1.3,0-2.2,1.1-2.2,3.3H1363.8z"/>
		<path class="st8" d="M1375.2,852.9h-3.7v-4.1h3.7V852.9z"/>
		<path class="st8" d="M461.7,261.8c0-3,1.5-5.5,4.5-7.7c3-2.1,4.5-3.9,4.5-5.4v-6.5c0-1.5-0.7-2.2-2.1-2.2l0,0
			c-1.4,0-2.1,0.8-2.1,2.2v4.4h-4.8v-4.4c0-4.7,2.3-7,6.9-7c4.6,0,6.9,2.3,6.9,7v6.6c0,3-1.5,5.6-4.5,7.8s-4.5,4-4.5,5.6v2h9v4.7
			h-13.8V261.8z"/>
		<path class="st11" d="M471.2,508.7c-0.1,0-0.1,0-0.2,0v53.9c0.1,0,0.1,0,0.2,0c14.9,0,27-12.1,27-27
			C498.2,520.8,486.1,508.7,471.2,508.7z"/>
		<path class="st8" d="M473.1,524.8c0-1.5-0.7-2.2-2.1-2.2l0,0c-1.4,0-2.1,0.8-2.1,2.2v4.4h-4.8v-4.4c0-4.7,2.3-7,6.9-7
			s6.9,2.3,6.9,7v5.8c0.1,1.9-0.9,3.7-2.6,4.6c1.7,0.9,2.8,2.7,2.6,4.6v5.3c0,4.7-2.3,7-6.9,7s-6.9-2.3-6.9-7v-4.4h4.8v4.4
			c0,1.5,0.7,2.2,2.1,2.2l0,0c1.4,0,2.1-0.8,2.1-2.2v-5.3c0-1.2-0.3-1.9-0.8-2.2c-0.4-0.1-0.8-0.2-1.2-0.2h-1.6v-4.7h1.9
			c0.3,0,0.7,0,1-0.2c0.4-0.2,0.6-0.9,0.6-2L473.1,524.8z"/>
	</g>
</g>
<g>
	<path class="st12" d="M627.1,324.5h2.1v18.7h6.6v1.9h-8.7V324.5z"/>
	<path class="st12" d="M640.3,338.1c0,3.1,1.3,5.6,3.8,5.6c1.8,0,3-1.3,3.4-3h1.8c-0.3,1.6-1,2.8-1.9,3.6c-0.9,0.8-2.1,1.2-3.3,1.2
		c-4.2,0-5.8-4-5.8-7.9c0-4.7,2.2-8,5.7-8c1.8,0,3.2,0.8,4.1,2.1c1.2,1.8,1.4,4.1,1.4,6.3H640.3z M647.6,336.5
		c-0.1-3.1-1.4-5.3-3.6-5.3c-2.2,0-3.6,2.3-3.7,5.3H647.6z"/>
	<path class="st12" d="M661.3,330h1.7c0,1.1,0,2,0,2.9c0.8-2.3,2.2-3.3,4-3.3c3,0,5.1,3.1,5.1,8c0,4.6-1.9,7.9-5.1,7.9
		c-1.8,0-3.3-1.2-3.9-3.1c0.1,0.7,0.1,1.4,0.1,2.8v5.6h-1.9V330z M670.2,337.5c0-3.4-1.2-6.1-3.5-6.1c-1.2,0-2,0.6-2.6,1.7
		c-0.7,1-0.9,2.4-0.9,4.4c0,2,0.2,3.4,0.9,4.4c0.6,1,1.4,1.7,2.6,1.7C669,343.6,670.2,341,670.2,337.5L670.2,337.5z"/>
	<path class="st12" d="M677.3,338.1c0,3.1,1.3,5.6,3.8,5.6c1.8,0,3-1.3,3.4-3h1.8c-0.3,1.6-1,2.8-1.9,3.6c-0.9,0.8-2.1,1.2-3.3,1.2
		c-4.2,0-5.8-4-5.8-7.9c0-4.7,2.2-8,5.7-8c1.8,0,3.2,0.8,4.1,2.1c1.2,1.8,1.4,4.1,1.4,6.3H677.3z M684.6,336.5
		c-0.1-3.1-1.4-5.3-3.6-5.3c-2.2,0-3.6,2.3-3.7,5.3H684.6z"/>
	<path class="st12" d="M690.5,330h1.7c0,1.4,0,2.3-0.1,3.2c0.8-3,2.7-3.5,4-3.5v2.2c-0.2-0.1-0.4-0.2-0.7-0.2
		c-1.3,0-3.1,1.6-3.1,5.4v8.1h-1.9V330z"/>
	<path class="st12" d="M699.4,330h1.8c0,0.8,0,1.6-0.1,2.5c0.8-2.4,2.5-2.8,3.8-2.8c1.1,0,1.9,0.3,2.6,1c0.4,0.4,0.7,1.1,0.8,1.8
		c0.3-0.8,0.7-1.4,1.3-1.9c0.8-0.6,1.7-0.9,2.8-0.9c1.8,0,2.9,0.9,3.5,1.9c0.6,0.9,0.7,2.6,0.7,4.1v9.4h-1.9v-9.3
		c0-1.1-0.1-2.1-0.3-2.8c-0.3-1-1.3-1.6-2.3-1.6c-0.9,0-1.7,0.2-2.4,1.2c-0.6,0.9-0.8,2.2-0.8,3.3v9.1h-1.9v-9.2c0-1.2,0-2-0.3-2.9
		c-0.3-1-1.2-1.6-2.3-1.6c-0.9,0-1.8,0.3-2.4,1.2c-0.7,0.9-0.8,2.2-0.8,3.4v9.1h-1.9V330z"/>
	<path class="st12" d="M721.7,324.5h1.9v2.7h-1.9V324.5z M721.7,330h1.9v15.1h-1.9V330z"/>
	<path class="st12" d="M734.6,333.9c0-1.9-1-2.6-2.4-2.6c-1.3,0-2.2,0.9-2.2,2.3c0,1.7,1.4,2.3,3.3,2.9c1.7,0.5,3.6,1.5,3.6,4.6
		c0,2.7-1.9,4.5-4.5,4.5c-2.8,0-4.6-1.6-4.7-4.8h1.8c0,2.1,1.2,3.1,2.9,3.1c1.6,0,2.6-1.1,2.6-2.6c0-1.8-1.3-2.6-3.3-3.2
		c-1.9-0.6-3.6-1.6-3.6-4.3c0-2.4,1.8-4,4.2-4c2.6,0,4.1,1.5,4.2,4.3H734.6z"/>
	<path class="st12" d="M748.7,324.5h4.3c2,0,3.1,0.4,3.8,1c1.4,0.9,1.8,2.6,1.8,4.1c0,2.7-1.4,3.9-2.9,4.4c3,0.9,3.8,3.4,3.8,5.3
		c0,2.2-0.8,3.8-2.3,4.7c-0.8,0.6-2.1,1-3.6,1h-5V324.5z M750.8,333.4h2.3c0.9,0,1.6-0.2,2.1-0.5c1-0.8,1.3-1.8,1.3-3
		c0-1.4-0.6-2.5-1.3-2.9c-0.4-0.3-1.1-0.6-2.6-0.6h-1.8V333.4z M750.8,343.2h2.6c1.1,0,1.9-0.2,2.5-0.5c1.1-0.6,1.6-1.6,1.6-3.4
		c0-1.6-0.7-2.9-1.6-3.5c-0.6-0.4-1.4-0.6-2.7-0.6h-2.3V343.2z"/>
	<path class="st12" d="M627.1,379.5h2.1v18.7h6.6v1.9h-8.7V379.5z"/>
	<path class="st12" d="M640.3,393.1c0,3.1,1.3,5.6,3.8,5.6c1.8,0,3-1.3,3.4-3h1.8c-0.3,1.6-1,2.8-1.9,3.6c-0.9,0.8-2.1,1.2-3.3,1.2
		c-4.2,0-5.8-4-5.8-7.9c0-4.7,2.2-8,5.7-8c1.8,0,3.2,0.8,4.1,2.1c1.2,1.8,1.4,4.1,1.4,6.3H640.3z M647.6,391.5
		c-0.1-3.1-1.4-5.3-3.6-5.3c-2.2,0-3.6,2.3-3.7,5.3H647.6z"/>
	<path class="st12" d="M661.3,385h1.7c0,1.1,0,2,0,2.9c0.8-2.3,2.2-3.3,4-3.3c3,0,5.1,3.1,5.1,8c0,4.6-1.9,7.9-5.1,7.9
		c-1.8,0-3.3-1.2-3.9-3.1c0.1,0.7,0.1,1.4,0.1,2.8v5.6h-1.9V385z M670.2,392.5c0-3.4-1.2-6.1-3.5-6.1c-1.2,0-2,0.6-2.6,1.7
		c-0.7,1-0.9,2.4-0.9,4.4c0,2,0.2,3.4,0.9,4.4c0.6,1,1.4,1.7,2.6,1.7C669,398.6,670.2,396,670.2,392.5L670.2,392.5z"/>
	<path class="st12" d="M677.3,393.1c0,3.1,1.3,5.6,3.8,5.6c1.8,0,3-1.3,3.4-3h1.8c-0.3,1.6-1,2.8-1.9,3.6c-0.9,0.8-2.1,1.2-3.3,1.2
		c-4.2,0-5.8-4-5.8-7.9c0-4.7,2.2-8,5.7-8c1.8,0,3.2,0.8,4.1,2.1c1.2,1.8,1.4,4.1,1.4,6.3H677.3z M684.6,391.5
		c-0.1-3.1-1.4-5.3-3.6-5.3c-2.2,0-3.6,2.3-3.7,5.3H684.6z"/>
	<path class="st12" d="M690.5,385h1.7c0,1.4,0,2.3-0.1,3.2c0.8-3,2.7-3.5,4-3.5v2.2c-0.2-0.1-0.4-0.2-0.7-0.2
		c-1.3,0-3.1,1.6-3.1,5.4v8.1h-1.9V385z"/>
	<path class="st12" d="M699.4,385h1.8c0,0.8,0,1.6-0.1,2.5c0.8-2.4,2.5-2.8,3.8-2.8c1.1,0,1.9,0.3,2.6,1c0.4,0.4,0.7,1.1,0.8,1.8
		c0.3-0.8,0.7-1.4,1.3-1.9c0.8-0.6,1.7-0.9,2.8-0.9c1.8,0,2.9,0.9,3.5,1.9c0.6,0.9,0.7,2.6,0.7,4.1v9.4h-1.9v-9.3
		c0-1.1-0.1-2.1-0.3-2.8c-0.3-1-1.3-1.6-2.3-1.6c-0.9,0-1.7,0.2-2.4,1.2c-0.6,0.9-0.8,2.2-0.8,3.3v9.1h-1.9v-9.2c0-1.2,0-2-0.3-2.9
		c-0.3-1-1.2-1.6-2.3-1.6c-0.9,0-1.8,0.3-2.4,1.2c-0.7,0.9-0.8,2.2-0.8,3.4v9.1h-1.9V385z"/>
	<path class="st12" d="M721.7,379.5h1.9v2.7h-1.9V379.5z M721.7,385h1.9v15.1h-1.9V385z"/>
	<path class="st12" d="M734.6,388.9c0-1.9-1-2.6-2.4-2.6c-1.3,0-2.2,0.9-2.2,2.3c0,1.7,1.4,2.3,3.3,2.9c1.7,0.5,3.6,1.5,3.6,4.6
		c0,2.7-1.9,4.5-4.5,4.5c-2.8,0-4.6-1.6-4.7-4.8h1.8c0,2.1,1.2,3.1,2.9,3.1c1.6,0,2.6-1.1,2.6-2.6c0-1.8-1.3-2.6-3.3-3.2
		c-1.9-0.6-3.6-1.6-3.6-4.3c0-2.4,1.8-4,4.2-4c2.6,0,4.1,1.5,4.2,4.3H734.6z"/>
	<path class="st12" d="M761.5,393.4c0,3.6-2.1,7.1-6.4,7.1c-4.4,0-7.2-3.7-7.2-10.7c0-6.5,2.4-10.7,7.2-10.7c4.3,0,6.5,3.6,6.4,7.5
		h-2.1c-0.1-2.7-1.1-5.6-4.3-5.6c-3.6,0-5.1,3.5-5.1,8.9c0,5.8,2.2,8.5,5.1,8.5c3.2,0,4.1-2.6,4.3-5.1H761.5z"/>
	<path class="st12" d="M771.7,392.3h5.7v1.7h-5.7v6.1H770V394h-5.7v-1.7h5.7v-6.2h1.8V392.3z"/>
	<path class="st12" d="M789.1,379.5h8.9v1.9h-6.8v7.2h6.8v1.9h-6.8v9.6h-2.1V379.5z"/>
	<path class="st12" d="M802,379.5h2.1v20.6H802V379.5z"/>
	<path class="st12" d="M809,400.1v-20.6h3.2l4.8,17.6l4.5-17.6h3.3v20.6h-1.9v-18.7l-4.9,18.7h-1.9l-5.2-18.7v18.7H809z"/>
	<path class="st12" d="M828.9,389.8c0-6,2.6-10.6,7.5-10.6c5,0,7.5,4.6,7.5,10.7c0,5.3-2.1,10.7-7.5,10.7
		C831.5,400.5,828.9,395.9,828.9,389.8L828.9,389.8z M831,389.8c0,5.6,2,8.7,5.3,8.7c3.3,0,5.4-3.1,5.4-8.8s-2.1-8.8-5.4-8.8
		C833.1,381,831,384.2,831,389.8L831,389.8z"/>
</g>
<g>
	<path class="st12" d="M1016,343h-2.1l5.9-20.6h2.1l6,20.6h-2.1l-1.8-6.1h-6.2L1016,343z M1020.8,325.1l-2.5,9.9h5.1L1020.8,325.1z"
		/>
	<path class="st12" d="M1040.6,342.7c0,2.2-0.4,3.6-1.3,4.5c-0.9,1.1-2.3,1.7-4.1,1.7c-1.8,0-4.9-1.1-5.1-4.8h1.9
		c0.1,1,0.3,1.6,0.9,2.1c0.7,0.7,1.6,0.9,2.4,0.9c1.6,0,3.4-0.7,3.4-4.3c0-0.7,0-1.7,0-2.7c-0.6,2-1.9,3.2-3.9,3.2
		c-3.3,0-5.1-3.3-5.1-7.9c0-4.7,1.8-8,5.1-8c1.8,0,3.2,0.8,4.1,3.3c0-0.9,0-1.8,0-2.9h1.6V342.7z M1031.7,335.4
		c0,3.4,1.2,6.1,3.5,6.1c1.2,0,2-0.6,2.6-1.7c0.6-1.1,0.9-2.4,0.9-4.4c0-2-0.2-3.4-0.9-4.4c-0.6-1-1.4-1.7-2.6-1.7
		C1032.9,329.3,1031.7,331.9,1031.7,335.4L1031.7,335.4z"/>
	<path class="st12" d="M1046.6,335.9c0,3.1,1.3,5.6,3.8,5.6c1.8,0,3-1.3,3.4-3h1.8c-0.3,1.6-1,2.8-1.9,3.6c-0.9,0.8-2.1,1.2-3.3,1.2
		c-4.2,0-5.8-4-5.8-7.9c0-4.7,2.2-8,5.7-8c1.8,0,3.2,0.8,4.1,2.1c1.2,1.8,1.4,4.1,1.4,6.3H1046.6z M1053.9,334.3
		c-0.1-3.1-1.4-5.3-3.6-5.3c-2.2,0-3.6,2.3-3.7,5.3H1053.9z M1053.4,321.6l0.8,1.5l-6.2,3.3l-0.7-1.3L1053.4,321.6z"/>
	<path class="st12" d="M1066.4,324.1c-2.7,2.3-4.8,6.5-4.8,11.9s2,9.4,4.8,11.9v2c-3.7-2.6-6.6-7.7-6.6-13.9
		c0-6.2,2.9-11.5,6.6-13.9V324.1z"/>
	<path class="st12" d="M1071.4,335.9c0,3.1,1.3,5.6,3.8,5.6c1.8,0,3-1.3,3.4-3h1.8c-0.3,1.6-1,2.8-1.9,3.6c-0.9,0.8-2.1,1.2-3.3,1.2
		c-4.2,0-5.8-4-5.8-7.9c0-4.7,2.2-8,5.7-8c1.8,0,3.2,0.8,4.1,2.1c1.2,1.8,1.4,4.1,1.4,6.3H1071.4z M1078.7,334.3
		c-0.1-3.1-1.4-5.3-3.6-5.3c-2.2,0-3.6,2.3-3.7,5.3H1078.7z"/>
	<path class="st12" d="M1083.5,347.9c2.7-2.2,4.8-6.5,4.8-11.8c0-5.4-2-9.4-4.8-11.9v-2c3.7,2.6,6.6,7.7,6.6,13.9
		c0,6.2-3,11.5-6.6,13.9V347.9z"/>
	<path class="st12" d="M1112.7,343h-1.7c0-1.4,0-2.2,0-3c-0.5,2.1-2.1,3.4-4,3.4c-3,0-5.1-3.2-5.1-7.9c0-4.7,1.9-8,5.1-8
		c1.7,0,3.1,0.9,3.9,3.2c-0.1-0.9-0.1-1.7-0.1-2.8v-5.5h1.9V343z M1103.8,335.4c0,3.4,1.2,6.1,3.5,6.1c1.2,0,2-0.6,2.6-1.7
		c0.6-1.1,0.9-2.4,0.9-4.4s-0.2-3.4-0.9-4.4c-0.6-1-1.4-1.6-2.6-1.6C1105,329.3,1103.8,331.9,1103.8,335.4L1103.8,335.4z"/>
	<path class="st12" d="M1118.7,335.9c0,3.1,1.3,5.6,3.8,5.6c1.8,0,3-1.3,3.4-3h1.8c-0.3,1.6-1,2.8-1.9,3.6c-0.9,0.8-2.1,1.2-3.3,1.2
		c-4.2,0-5.8-4-5.8-7.9c0-4.7,2.2-8,5.7-8c1.8,0,3.2,0.8,4.1,2.1c1.2,1.8,1.4,4.1,1.4,6.3H1118.7z M1126,334.3
		c-0.1-3.1-1.4-5.3-3.6-5.3c-2.2,0-3.6,2.3-3.7,5.3H1126z"/>
	<path class="st12" d="M1139.7,327.8h1.7c0,1.1,0,2,0,2.9c0.8-2.3,2.2-3.3,4-3.3c3,0,5.1,3.1,5.1,8c0,4.6-1.9,7.9-5.1,7.9
		c-1.8,0-3.3-1.2-3.9-3.1c0.1,0.7,0.1,1.4,0.1,2.8v5.6h-1.9V327.8z M1148.6,335.4c0-3.4-1.2-6.1-3.5-6.1c-1.2,0-2,0.6-2.6,1.7
		c-0.7,1-0.9,2.4-0.9,4.4c0,2,0.2,3.4,0.9,4.4c0.6,1,1.4,1.7,2.6,1.7C1147.4,341.5,1148.6,338.8,1148.6,335.4L1148.6,335.4z"/>
	<path class="st12" d="M1154.7,322.4h1.9V343h-1.9V322.4z"/>
	<path class="st12" d="M1171.7,343h-1.7c0-0.9,0-1.7,0.1-2.6c-0.8,2.2-2.5,3-4.2,3c-2.6,0-4.3-1.5-4.3-5.2v-10.3h1.9v9.7
		c0,1.5,0.2,3.9,2.9,3.9c2.2,0,3.6-1.5,3.6-4.7v-9h1.9V343z"/>
	<path class="st12" d="M1182.6,331.7c0-1.9-1-2.6-2.4-2.6c-1.3,0-2.2,0.9-2.2,2.3c0,1.7,1.4,2.3,3.3,2.9c1.7,0.5,3.6,1.5,3.6,4.6
		c0,2.7-1.9,4.5-4.5,4.5c-2.8,0-4.6-1.6-4.7-4.8h1.8c0,2.1,1.2,3.1,2.9,3.1c1.6,0,2.6-1.1,2.6-2.6c0-1.8-1.3-2.6-3.3-3.2
		c-1.9-0.6-3.6-1.6-3.6-4.3c0-2.4,1.8-4,4.2-4c2.6,0,4.1,1.5,4.2,4.3H1182.6z"/>
	<path class="st12" d="M1206.6,343h-1.7c0-1.4,0-2.2,0-3c-0.5,2.1-2.1,3.4-4,3.4c-3,0-5.1-3.2-5.1-7.9c0-4.7,1.9-8,5.1-8
		c1.7,0,3.1,0.9,3.9,3.2c-0.1-0.9-0.1-1.7-0.1-2.8v-5.5h1.9V343z M1197.7,335.4c0,3.4,1.2,6.1,3.5,6.1c1.2,0,2-0.6,2.6-1.7
		c0.6-1.1,0.9-2.4,0.9-4.4s-0.2-3.4-0.9-4.4c-0.6-1-1.4-1.6-2.6-1.6C1198.9,329.3,1197.7,331.9,1197.7,335.4L1197.7,335.4z"/>
	<path class="st12" d="M1212.6,335.9c0,3.1,1.3,5.6,3.8,5.6c1.8,0,3-1.3,3.4-3h1.8c-0.3,1.6-1,2.8-1.9,3.6c-0.9,0.8-2.1,1.2-3.3,1.2
		c-4.2,0-5.8-4-5.8-7.9c0-4.7,2.2-8,5.7-8c1.8,0,3.2,0.8,4.1,2.1c1.2,1.8,1.4,4.1,1.4,6.3H1212.6z M1219.9,334.3
		c-0.1-3.1-1.4-5.3-3.6-5.3c-2.2,0-3.6,2.3-3.7,5.3H1219.9z"/>
	<path class="st12" d="M1234,327.3c0.1-3.5,2.3-5.3,5.3-5.3c3,0,5,1.9,5,5.1c0,2.1-1,3.6-3.1,4.3c3.1,0.9,4,3.5,4,5.7
		c0,3.6-2.2,6.3-6,6.3c-2.2,0-4.1-1.1-5.2-3c-0.6-1-0.9-2.2-0.9-3.5h2.1c0.1,3.1,1.9,4.6,4.1,4.6c2.4,0,3.8-1.7,3.8-4.5
		c0-2.6-1.8-4.5-4.7-4.5h-0.8v-1.8h0.8c2.6,0,3.9-1.3,3.9-3.3c0-1.9-1-3.3-3-3.3c-2.1,0-3,1.4-3.1,3.3H1234z"/>
	<path class="st12" d="M1248.6,328.7c0-4.1,2.6-6.7,6-6.7c3.4,0,6.1,2.6,6.1,6.7v7.8c0,4.1-2.6,6.7-6.1,6.7c-3.4,0-6-2.6-6-6.7
		V328.7z M1250.6,336.5c0,3.7,2.4,4.9,4.1,4.9c1.7,0,4.1-1.2,4.1-4.9v-7.7c0-3.7-2.3-4.9-4.1-4.9c-1.7,0-4.1,1.2-4.1,4.9V336.5z"/>
	<path class="st12" d="M1282.6,343h-1.7c0-1.3,0-2.2,0-2.9c-0.7,2.1-2.1,3.3-4,3.3c-3,0-5.1-3.2-5.1-7.9c0-4.7,1.9-8,5.1-8
		c1.7,0,3.2,0.9,4,3.3c0-0.9,0-1.8,0-2.9h1.7V343z M1273.7,335.4c0,3.4,1.2,6.1,3.5,6.1c1.2,0,2-0.6,2.6-1.7
		c0.6-1.1,0.9-2.4,0.9-4.4c0-2-0.2-3.4-0.9-4.4c-0.6-1-1.4-1.7-2.6-1.7C1275,329.3,1273.7,331.9,1273.7,335.4L1273.7,335.4z"/>
	<path class="st12" d="M1287.4,327.8h1.7c0,0.9,0,1.6-0.1,2.6c0.8-2.1,2.5-3,4.3-3c2.6,0,4.3,1.5,4.3,5.2V343h-1.9v-9.7
		c0-1.5-0.2-3.9-2.9-3.9c-2.2,0-3.6,1.5-3.6,4.7v9h-1.9V327.8z"/>
	<path class="st12" d="M1308.5,331.7c0-1.9-1-2.6-2.4-2.6c-1.3,0-2.2,0.9-2.2,2.3c0,1.7,1.4,2.3,3.3,2.9c1.7,0.5,3.6,1.5,3.6,4.6
		c0,2.7-1.9,4.5-4.5,4.5c-2.8,0-4.6-1.6-4.7-4.8h1.8c0,2.1,1.2,3.1,2.9,3.1c1.6,0,2.6-1.1,2.6-2.6c0-1.8-1.3-2.6-3.3-3.2
		c-1.9-0.6-3.6-1.6-3.6-4.3c0-2.4,1.8-4,4.2-4c2.6,0,4.1,1.5,4.2,4.3H1308.5z"/>
	<path class="st12" d="M1015.9,377.4h9.7v1.9h-7.6v7.2h7.6v1.9h-7.6v7.7h7.6v1.9h-9.7V377.4z"/>
	<path class="st12" d="M1032.5,390.2l-3.9-7.4h2.1l2.9,6l2.9-6h2.1l-3.9,7.4l4.1,7.7h-2.1l-3.1-6.2l-3.1,6.2h-2.1L1032.5,390.2z"/>
	<path class="st12" d="M1041.9,382.8h1.7c0,1.1,0,2,0,2.9c0.8-2.3,2.2-3.3,4-3.3c3,0,5.1,3.1,5.1,8c0,4.6-1.9,7.9-5.1,7.9
		c-1.8,0-3.3-1.2-3.9-3.1c0.1,0.7,0.1,1.4,0.1,2.8v5.6h-1.9V382.8z M1050.8,390.4c0-3.4-1.2-6.1-3.5-6.1c-1.2,0-2,0.6-2.6,1.7
		c-0.7,1-0.9,2.4-0.9,4.4c0,2,0.3,3.4,0.9,4.4c0.6,1,1.4,1.7,2.6,1.7C1049.6,396.5,1050.8,393.8,1050.8,390.4L1050.8,390.4z"/>
	<path class="st12" d="M1057.8,390.9c0,3.1,1.3,5.6,3.8,5.6c1.8,0,3-1.3,3.4-3h1.8c-0.3,1.6-1,2.8-1.9,3.6c-0.9,0.8-2.1,1.2-3.3,1.2
		c-4.2,0-5.8-4-5.8-7.9c0-4.7,2.2-8,5.7-8c1.8,0,3.2,0.8,4.1,2.1c1.2,1.8,1.4,4.1,1.4,6.3H1057.8z M1065.2,389.3
		c-0.1-3.1-1.4-5.3-3.6-5.3c-2.2,0-3.6,2.3-3.7,5.3H1065.2z M1064.6,376.6l0.8,1.5l-6.2,3.3l-0.7-1.3L1064.6,376.6z"/>
	<path class="st12" d="M1071,382.8h1.7c0,1.4,0,2.3-0.1,3.2c0.8-3,2.7-3.5,4-3.5v2.2c-0.2-0.1-0.4-0.2-0.7-0.2
		c-1.3,0-3.1,1.6-3.1,5.4v8.1h-1.9V382.8z"/>
	<path class="st12" d="M1080.1,377.4h1.9v2.7h-1.9V377.4z M1080.1,382.8h1.9V398h-1.9V382.8z"/>
	<path class="st12" d="M1088.1,390.9c0,3.1,1.3,5.6,3.8,5.6c1.8,0,3-1.3,3.4-3h1.8c-0.3,1.6-1,2.8-1.9,3.6c-0.9,0.8-2.1,1.2-3.3,1.2
		c-4.2,0-5.8-4-5.8-7.9c0-4.7,2.2-8,5.7-8c1.8,0,3.2,0.8,4.1,2.1c1.2,1.8,1.4,4.1,1.4,6.3H1088.1z M1095.5,389.3
		c-0.1-3.1-1.4-5.3-3.6-5.3c-2.2,0-3.6,2.3-3.7,5.3H1095.5z"/>
	<path class="st12" d="M1101.4,382.8h1.7c0,0.9,0,1.6-0.1,2.6c0.8-2.1,2.5-3,4.3-3c2.6,0,4.3,1.5,4.3,5.2V398h-1.9v-9.7
		c0-1.5-0.2-3.9-2.9-3.9c-2.2,0-3.6,1.5-3.6,4.7v9h-1.9V382.8z"/>
	<path class="st12" d="M1126.3,392.8c-0.3,3.1-2,5.5-5,5.5c-4,0-5.8-3.8-5.8-7.9c0-5,2.3-8,5.8-8c3.1,0,4.9,2.4,5,5.6h-1.9
		c-0.3-3-1.8-3.8-3.2-3.8c-1.1,0-2.1,0.4-2.8,1.6c-0.7,1.2-1,2.6-1,4.6c0,4,1.4,6.2,3.8,6.2c1.9,0,2.9-1.5,3.2-3.8H1126.3z"/>
	<path class="st12" d="M1131,390.9c0,3.1,1.3,5.6,3.8,5.6c1.8,0,3-1.3,3.4-3h1.8c-0.3,1.6-1,2.8-1.9,3.6c-0.9,0.8-2.1,1.2-3.3,1.2
		c-4.2,0-5.8-4-5.8-7.9c0-4.7,2.2-8,5.7-8c1.8,0,3.2,0.8,4.1,2.1c1.2,1.8,1.4,4.1,1.4,6.3H1131z M1138.3,389.3
		c-0.1-3.1-1.4-5.3-3.6-5.3c-2.2,0-3.6,2.3-3.7,5.3H1138.3z"/>
	<path class="st12" d="M1153.2,390.9c0,3.1,1.3,5.6,3.8,5.6c1.8,0,3-1.3,3.4-3h1.8c-0.3,1.6-1,2.8-1.9,3.6c-0.9,0.8-2.1,1.2-3.3,1.2
		c-4.2,0-5.8-4-5.8-7.9c0-4.7,2.2-8,5.7-8c1.8,0,3.2,0.8,4.1,2.1c1.2,1.8,1.4,4.1,1.4,6.3H1153.2z M1160.6,389.3
		c-0.1-3.1-1.4-5.3-3.6-5.3c-2.2,0-3.6,2.3-3.7,5.3H1160.6z"/>
	<path class="st12" d="M1168.5,390.2l-3.9-7.4h2.1l2.9,6l2.9-6h2.1l-3.9,7.4l4.1,7.7h-2.1l-3.1-6.2l-3.1,6.2h-2.1L1168.5,390.2z"/>
	<path class="st12" d="M1178.1,377.4h1.9v2.7h-1.9V377.4z M1178.1,382.8h1.9V398h-1.9V382.8z"/>
	<path class="st12" d="M1195,397.7c0,2.2-0.4,3.6-1.3,4.5c-0.9,1.1-2.3,1.7-4.1,1.7c-1.8,0-4.9-1.1-5.1-4.8h1.9
		c0.1,1,0.3,1.6,0.9,2.1c0.7,0.7,1.6,0.9,2.4,0.9c1.6,0,3.4-0.7,3.4-4.3c0-0.7,0-1.7,0-2.7c-0.6,2-1.9,3.2-3.9,3.2
		c-3.3,0-5.1-3.3-5.1-7.9c0-4.7,1.8-8,5.1-8c1.8,0,3.2,0.8,4.1,3.3c0-0.9,0-1.8,0-2.9h1.6V397.7z M1186.1,390.4
		c0,3.4,1.2,6.1,3.5,6.1c1.2,0,2-0.6,2.6-1.7c0.6-1.1,0.9-2.4,0.9-4.4c0-2-0.2-3.4-0.9-4.4c-0.6-1-1.4-1.7-2.6-1.7
		C1187.3,384.3,1186.1,386.9,1186.1,390.4L1186.1,390.4z"/>
	<path class="st12" d="M1200.9,390.9c0,3.1,1.3,5.6,3.8,5.6c1.8,0,3-1.3,3.4-3h1.8c-0.3,1.6-1,2.8-1.9,3.6c-0.9,0.8-2.1,1.2-3.3,1.2
		c-4.2,0-5.8-4-5.8-7.9c0-4.7,2.2-8,5.7-8c1.8,0,3.2,0.8,4.1,2.1c1.2,1.8,1.4,4.1,1.4,6.3H1200.9z M1208.3,389.3
		c-0.1-3.1-1.4-5.3-3.6-5.3c-2.2,0-3.6,2.3-3.7,5.3H1208.3z M1207.7,376.6l0.8,1.5l-6.2,3.3l-0.7-1.3L1207.7,376.6z"/>
	<path class="st12" d="M1215.4,390.9c0,3.1,1.3,5.6,3.8,5.6c1.8,0,3-1.3,3.4-3h1.8c-0.3,1.6-1,2.8-1.9,3.6c-0.9,0.8-2.1,1.2-3.3,1.2
		c-4.2,0-5.8-4-5.8-7.9c0-4.7,2.2-8,5.7-8c1.8,0,3.2,0.8,4.1,2.1c1.2,1.8,1.4,4.1,1.4,6.3H1215.4z M1222.7,389.3
		c-0.1-3.1-1.4-5.3-3.6-5.3c-2.2,0-3.6,2.3-3.7,5.3H1222.7z"/>
</g>
<g>
	<path class="st12" d="M512.9,636.6h-2.1l5.9-20.6h2.1l6,20.6h-2.1l-1.8-6.1h-6.2L512.9,636.6z M517.7,618.7l-2.5,9.9h5.1
		L517.7,618.7z"/>
	<path class="st12" d="M537.2,636.6h-1.7c0-0.9,0-1.7,0.1-2.6c-0.8,2.2-2.5,3-4.2,3c-2.6,0-4.3-1.5-4.3-5.2v-10.3h1.9v9.7
		c0,1.5,0.2,3.9,2.9,3.9c2.2,0,3.6-1.5,3.6-4.7v-9h1.9V636.6z"/>
	<path class="st12" d="M542.7,623.2h-2.1v-1.8h2.1v-4.8h1.9v4.8h2.1v1.8h-2.1v13.4h-1.9V623.2z"/>
	<path class="st12" d="M548.9,629c0-4.3,1.8-7.9,5.8-7.9c4,0,5.8,3.6,5.8,7.9s-1.8,7.9-5.8,7.9C550.7,637,548.9,633.4,548.9,629
		L548.9,629z M550.9,629.1c0,4,1.3,6.2,3.9,6.2c2.5,0,3.8-2.1,3.8-6.2s-1.3-6.2-3.9-6.2C552.2,622.9,550.9,625,550.9,629.1
		L550.9,629.1z"/>
	<path class="st12" d="M564.6,621.5h1.7c0,0.9,0,1.6-0.1,2.6c0.8-2.1,2.5-3,4.3-3c2.6,0,4.3,1.5,4.3,5.2v10.3h-1.9v-9.7
		c0-1.5-0.2-3.9-2.9-3.9c-2.2,0-3.6,1.5-3.6,4.7v9h-1.9V621.5z"/>
	<path class="st12" d="M578.7,629c0-4.3,1.8-7.9,5.8-7.9c4,0,5.8,3.6,5.8,7.9s-1.8,7.9-5.8,7.9C580.5,637,578.7,633.4,578.7,629
		L578.7,629z M580.6,629.1c0,4,1.3,6.2,3.9,6.2c2.5,0,3.8-2.1,3.8-6.2s-1.3-6.2-3.9-6.2C581.9,622.9,580.6,625,580.6,629.1
		L580.6,629.1z"/>
	<path class="st12" d="M594.4,621.5h1.8c0,0.8,0,1.6-0.1,2.5c0.8-2.4,2.5-2.8,3.8-2.8c1.1,0,1.9,0.3,2.6,1c0.4,0.4,0.7,1.1,0.8,1.8
		c0.3-0.8,0.7-1.4,1.3-1.9c0.8-0.6,1.7-0.9,2.8-0.9c1.8,0,2.9,0.9,3.5,1.9c0.6,0.9,0.7,2.6,0.7,4.1v9.4h-1.9v-9.3
		c0-1.1-0.1-2.1-0.3-2.8c-0.3-1-1.3-1.6-2.3-1.6c-0.9,0-1.7,0.2-2.4,1.2c-0.6,0.9-0.8,2.2-0.8,3.3v9.1h-1.9v-9.2c0-1.2,0-2-0.3-2.9
		c-0.3-1-1.2-1.6-2.3-1.6c-0.9,0-1.8,0.3-2.4,1.2c-0.7,0.9-0.8,2.2-0.8,3.4v9.1h-1.9V621.5z"/>
	<path class="st12" d="M616.7,616h1.9v2.7h-1.9V616z M616.7,621.5h1.9v15.1h-1.9V621.5z"/>
	<path class="st12" d="M624.7,629.6c0,3.1,1.3,5.6,3.8,5.6c1.8,0,3-1.3,3.4-3h1.8c-0.3,1.6-1,2.8-1.9,3.6c-0.9,0.8-2.1,1.2-3.3,1.2
		c-4.2,0-5.8-4-5.8-7.9c0-4.7,2.2-8,5.7-8c1.8,0,3.2,0.8,4.1,2.1c1.2,1.8,1.4,4.1,1.4,6.3H624.7z M632.1,628
		c-0.1-3.1-1.4-5.3-3.6-5.3c-2.2,0-3.6,2.3-3.7,5.3H632.1z"/>
	<path class="st12" d="M511.8,681.3c0-6,2.6-10.6,7.5-10.6c5,0,7.5,4.6,7.5,10.7c0,5.3-2.1,10.7-7.5,10.7
		C514.4,692,511.8,687.4,511.8,681.3L511.8,681.3z M514,681.3c0,5.6,2,8.7,5.3,8.7c3.3,0,5.4-3.1,5.4-8.8s-2.1-8.8-5.4-8.8
		C516,672.5,514,675.7,514,681.3L514,681.3z"/>
	<path class="st12" d="M530.8,676.5h1.7c0,1.4,0,2.3-0.1,3.2c0.8-3,2.7-3.5,4-3.5v2.2c-0.2-0.1-0.4-0.2-0.7-0.2
		c-1.3,0-3.1,1.6-3.1,5.4v8.1h-1.9V676.5z"/>
	<path class="st12" d="M549.3,691.3c0,2.2-0.4,3.6-1.3,4.5c-0.9,1.1-2.3,1.7-4.1,1.7c-1.8,0-4.9-1.1-5.1-4.8h1.9
		c0.1,1,0.3,1.6,0.9,2.1c0.7,0.7,1.6,0.9,2.4,0.9c1.6,0,3.4-0.7,3.4-4.3c0-0.7,0-1.7,0-2.7c-0.6,2-1.9,3.2-3.9,3.2
		c-3.3,0-5.1-3.3-5.1-7.9c0-4.7,1.8-8,5.1-8c1.8,0,3.2,0.8,4.1,3.3c0-0.9,0-1.8,0-2.9h1.6V691.3z M540.4,684.1
		c0,3.4,1.2,6.1,3.5,6.1c1.2,0,2-0.6,2.6-1.7c0.6-1.1,0.9-2.4,0.9-4.4c0-2-0.2-3.4-0.9-4.4c-0.6-1-1.4-1.7-2.6-1.7
		C541.6,677.9,540.4,680.6,540.4,684.1L540.4,684.1z"/>
	<path class="st12" d="M564,691.6h-1.7c0-1.3,0-2.2,0-2.9c-0.7,2.1-2.1,3.3-4,3.3c-3,0-5.1-3.2-5.1-7.9c0-4.7,1.9-8,5.1-8
		c1.7,0,3.2,0.9,4,3.3c0-0.9,0-1.8,0-2.9h1.7V691.6z M555.1,684.1c0,3.4,1.2,6.1,3.5,6.1c1.2,0,2-0.6,2.6-1.7
		c0.6-1.1,0.9-2.4,0.9-4.4c0-2-0.2-3.4-0.9-4.4c-0.6-1-1.4-1.7-2.6-1.7C556.3,677.9,555.1,680.6,555.1,684.1L555.1,684.1z"/>
	<path class="st12" d="M568.8,676.5h1.7c0,0.9,0,1.6-0.1,2.6c0.8-2.1,2.5-3,4.3-3c2.6,0,4.3,1.5,4.3,5.2v10.3h-1.9v-9.7
		c0-1.5-0.2-3.9-2.9-3.9c-2.2,0-3.6,1.5-3.6,4.7v9h-1.9V676.5z"/>
	<path class="st12" d="M584,671h1.9v2.7H584V671z M584,676.5h1.9v15.1H584V676.5z"/>
	<path class="st12" d="M596.9,680.4c0-1.9-1-2.6-2.4-2.6c-1.3,0-2.2,0.9-2.2,2.3c0,1.7,1.4,2.3,3.3,2.9c1.7,0.5,3.6,1.5,3.6,4.6
		c0,2.7-1.9,4.5-4.5,4.5c-2.8,0-4.6-1.6-4.7-4.8h1.8c0,2.1,1.2,3.1,2.9,3.1c1.6,0,2.6-1.1,2.6-2.6c0-1.8-1.3-2.6-3.3-3.2
		c-1.9-0.6-3.6-1.6-3.6-4.3c0-2.4,1.8-4,4.2-4c2.6,0,4.1,1.5,4.2,4.3H596.9z"/>
	<path class="st12" d="M613.1,691.6h-1.7c0-1.3,0-2.2,0-2.9c-0.7,2.1-2.1,3.3-4,3.3c-3,0-5.1-3.2-5.1-7.9c0-4.7,1.9-8,5.1-8
		c1.7,0,3.2,0.9,4,3.3c0-0.9,0-1.8,0-2.9h1.7V691.6z M604.2,684.1c0,3.4,1.2,6.1,3.5,6.1c1.2,0,2-0.6,2.6-1.7
		c0.6-1.1,0.9-2.4,0.9-4.4c0-2-0.2-3.4-0.9-4.4c-0.6-1-1.4-1.7-2.6-1.7C605.5,677.9,604.2,680.6,604.2,684.1L604.2,684.1z"/>
	<path class="st12" d="M618.6,678.2h-2.1v-1.8h2.1v-4.8h1.9v4.8h2.1v1.8h-2.1v13.4h-1.9V678.2z"/>
	<path class="st12" d="M626.2,671h1.9v2.7h-1.9V671z M626.2,676.5h1.9v15.1h-1.9V676.5z"/>
	<path class="st12" d="M632.3,684c0-4.3,1.8-7.9,5.8-7.9c4,0,5.8,3.6,5.8,7.9s-1.8,7.9-5.8,7.9C634.1,692,632.3,688.4,632.3,684
		L632.3,684z M634.2,684.1c0,4,1.3,6.2,3.9,6.2c2.5,0,3.8-2.1,3.8-6.2s-1.3-6.2-3.9-6.2C635.5,677.9,634.2,680,634.2,684.1
		L634.2,684.1z"/>
	<path class="st12" d="M647.9,676.5h1.7c0,0.9,0,1.6-0.1,2.6c0.8-2.1,2.5-3,4.3-3c2.6,0,4.3,1.5,4.3,5.2v10.3h-1.9v-9.7
		c0-1.5-0.2-3.9-2.9-3.9c-2.2,0-3.6,1.5-3.6,4.7v9h-1.9V676.5z"/>
	<path class="st12" d="M663.9,693.9h-1.6l1.8-5.3h1.9L663.9,693.9z"/>
	<path class="st12" d="M676.2,676.5h1.7c0,1.4,0,2.3-0.1,3.2c0.8-3,2.7-3.5,4-3.5v2.2c-0.2-0.1-0.4-0.2-0.7-0.2
		c-1.3,0-3.1,1.6-3.1,5.4v8.1h-1.9V676.5z"/>
	<path class="st12" d="M685.2,671h1.9v2.7h-1.9V671z M685.2,676.5h1.9v15.1h-1.9V676.5z"/>
	<path class="st12" d="M702,691.3c0,2.2-0.4,3.6-1.3,4.5c-0.9,1.1-2.3,1.7-4.1,1.7c-1.8,0-4.9-1.1-5.1-4.8h1.9
		c0.1,1,0.3,1.6,0.9,2.1c0.7,0.7,1.6,0.9,2.4,0.9c1.6,0,3.4-0.7,3.4-4.3c0-0.7,0-1.7,0-2.7c-0.6,2-1.9,3.2-3.9,3.2
		c-3.3,0-5.1-3.3-5.1-7.9c0-4.7,1.8-8,5.1-8c1.8,0,3.2,0.8,4.1,3.3c0-0.9,0-1.8,0-2.9h1.6V691.3z M693.1,684.1
		c0,3.4,1.2,6.1,3.5,6.1c1.2,0,2-0.6,2.6-1.7c0.6-1.1,0.9-2.4,0.9-4.4c0-2-0.2-3.4-0.9-4.4c-0.6-1-1.4-1.7-2.6-1.7
		C694.4,677.9,693.1,680.6,693.1,684.1L693.1,684.1z"/>
	<path class="st12" d="M717,691.6h-1.7c0-0.9,0-1.7,0.1-2.6c-0.8,2.2-2.5,3-4.2,3c-2.6,0-4.3-1.5-4.3-5.2v-10.3h1.9v9.7
		c0,1.5,0.2,3.9,2.9,3.9c2.2,0,3.6-1.5,3.6-4.7v-9h1.9V691.6z"/>
	<path class="st12" d="M723,684.6c0,3.1,1.3,5.6,3.8,5.6c1.8,0,3-1.3,3.4-3h1.8c-0.3,1.6-1,2.8-1.9,3.6c-0.9,0.8-2.1,1.2-3.3,1.2
		c-4.2,0-5.8-4-5.8-7.9c0-4.7,2.2-8,5.7-8c1.8,0,3.2,0.8,4.1,2.1c1.2,1.8,1.4,4.1,1.4,6.3H723z M730.3,683c-0.1-3.1-1.4-5.3-3.6-5.3
		c-2.2,0-3.6,2.3-3.7,5.3H730.3z"/>
	<path class="st12" d="M746.3,691.6h-1.7c0-0.9,0-1.7,0.1-2.6c-0.8,2.2-2.5,3-4.2,3c-2.6,0-4.3-1.5-4.3-5.2v-10.3h1.9v9.7
		c0,1.5,0.2,3.9,2.9,3.9c2.2,0,3.6-1.5,3.6-4.7v-9h1.9V691.6z"/>
	<path class="st12" d="M751.1,676.5h1.7c0,1.4,0,2.3-0.1,3.2c0.8-3,2.7-3.5,4-3.5v2.2c-0.2-0.1-0.4-0.2-0.7-0.2
		c-1.3,0-3.1,1.6-3.1,5.4v8.1h-1.9V676.5z"/>
	<path class="st12" d="M512.7,726h3.9c3.1,0,4.3,0.5,5.1,1.2c1.3,1.1,2.1,2.8,2.1,5c0,1.3-0.2,2.6-0.9,3.7c-0.8,1.3-2,2.1-3.6,2.4
		l4.1,8.3h-2.3l-4.6-9.6c0.3,0,0.5,0,0.7,0c1.4,0,2.4-0.4,3.2-1.1c0.9-0.8,1.2-2.1,1.2-3.5c0-1.3-0.3-2.9-1.6-3.8
		c-0.9-0.7-2.3-0.7-3.6-0.7h-1.8v18.7h-2.1V726z"/>
	<path class="st12" d="M528.9,739.6c0,3.1,1.3,5.6,3.8,5.6c1.8,0,3-1.3,3.4-3h1.8c-0.3,1.6-1,2.8-1.9,3.6c-0.9,0.8-2.1,1.2-3.3,1.2
		c-4.2,0-5.8-4-5.8-7.9c0-4.7,2.2-8,5.7-8c1.8,0,3.2,0.8,4.1,2.1c1.2,1.8,1.4,4.1,1.4,6.3H528.9z M536.3,738
		c-0.1-3.1-1.4-5.3-3.6-5.3c-2.2,0-3.6,2.3-3.7,5.3H536.3z M535.7,725.2l0.8,1.5l-6.2,3.3l-0.7-1.3L535.7,725.2z"/>
	<path class="st12" d="M552.1,746.6h-1.7c0-1.3,0-2.2,0-2.9c-0.7,2.1-2.1,3.3-4,3.3c-3,0-5.1-3.2-5.1-7.9c0-4.7,1.9-8,5.1-8
		c1.7,0,3.2,0.9,4,3.3c0-0.9,0-1.8,0-2.9h1.7V746.6z M543.2,739.1c0,3.4,1.2,6.1,3.5,6.1c1.2,0,2-0.6,2.6-1.7
		c0.6-1.1,0.9-2.4,0.9-4.4c0-2-0.2-3.4-0.9-4.4c-0.6-1-1.4-1.7-2.6-1.7C544.4,732.9,543.2,735.6,543.2,739.1L543.2,739.1z"/>
	<path class="st12" d="M566.9,741.5c-0.3,3.1-2,5.5-5,5.5c-4,0-5.8-3.8-5.8-7.9c0-5,2.3-8,5.8-8c3.1,0,4.9,2.4,5,5.6h-1.9
		c-0.3-3-1.8-3.8-3.2-3.8c-1.1,0-2.1,0.4-2.8,1.6c-0.7,1.2-1,2.6-1,4.6c0,4,1.4,6.2,3.8,6.2c1.9,0,2.9-1.5,3.2-3.8H566.9z"/>
	<path class="st12" d="M571.1,733.2H569v-1.8h2.1v-4.8h1.9v4.8h2.1v1.8H573v13.4h-1.9V733.2z"/>
	<path class="st12" d="M578.7,726h1.9v2.7h-1.9V726z M578.7,731.5h1.9v15.1h-1.9V731.5z"/>
	<path class="st12" d="M590.2,746.6h-1.9l-4.6-15.1h1.9l3.6,12.6l3.5-12.6h1.9L590.2,746.6z"/>
	<path class="st12" d="M597.8,726h1.9v2.7h-1.9V726z M597.8,731.5h1.9v15.1h-1.9V731.5z"/>
	<path class="st12" d="M605.4,733.2h-2.1v-1.8h2.1v-4.8h1.9v4.8h2.1v1.8h-2.1v13.4h-1.9V733.2z"/>
	<path class="st12" d="M613.5,739.6c0,3.1,1.3,5.6,3.8,5.6c1.8,0,3-1.3,3.4-3h1.8c-0.3,1.6-1,2.8-1.9,3.6c-0.9,0.8-2.1,1.2-3.3,1.2
		c-4.2,0-5.8-4-5.8-7.9c0-4.7,2.2-8,5.7-8c1.8,0,3.2,0.8,4.1,2.1c1.2,1.8,1.4,4.1,1.4,6.3H613.5z M620.9,738
		c-0.1-3.1-1.4-5.3-3.6-5.3c-2.2,0-3.6,2.3-3.7,5.3H620.9z M620.3,725.2l0.8,1.5l-6.2,3.3l-0.7-1.3L620.3,725.2z"/>
</g>
<g>
	<path class="st12" d="M902.4,618.7h4.7c2.8,0,5.2,0.7,6.7,3c1.1,1.7,1.8,4.1,1.8,7.3c0,7.9-3.8,10.3-8.5,10.3h-4.8V618.7z
		 M904.5,637.4h2.5c4.8,0,6.5-3.1,6.5-8.4c0-2.9-0.4-4.9-1.4-6.3c-1-1.4-2.7-2.1-5.1-2.1h-2.5V637.4z"/>
	<path class="st12" d="M919.9,618.7h1.9v2.7h-1.9V618.7z M919.9,624.1h1.9v15.1h-1.9V624.1z"/>
	<path class="st12" d="M926.8,624.1h1.7c0,1.1,0,2,0,2.9c0.8-2.3,2.2-3.3,4-3.3c3,0,5.1,3.1,5.1,8c0,4.6-1.9,7.9-5.1,7.9
		c-1.8,0-3.3-1.2-3.9-3.1c0.1,0.7,0.1,1.4,0.1,2.8v5.6h-1.9V624.1z M935.7,631.7c0-3.4-1.2-6.1-3.5-6.1c-1.2,0-2,0.6-2.6,1.7
		c-0.7,1-0.9,2.4-0.9,4.4c0,2,0.3,3.4,0.9,4.4c0.6,1,1.4,1.7,2.6,1.7C934.5,637.8,935.7,635.2,935.7,631.7L935.7,631.7z"/>
	<path class="st12" d="M941.8,618.7h1.9v20.6h-1.9V618.7z"/>
	<path class="st12" d="M947.8,631.7c0-4.3,1.8-7.9,5.8-7.9c4,0,5.8,3.6,5.8,7.9s-1.8,7.9-5.8,7.9
		C949.6,639.6,947.8,636.1,947.8,631.7L947.8,631.7z M949.8,631.7c0,4,1.3,6.2,3.9,6.2c2.5,0,3.8-2.1,3.8-6.2s-1.3-6.2-3.9-6.2
		C951.1,625.5,949.8,627.7,949.8,631.7L949.8,631.7z"/>
	<path class="st12" d="M963.5,624.1h1.8c0,0.8,0,1.6-0.1,2.5c0.8-2.4,2.5-2.8,3.8-2.8c1.1,0,1.9,0.3,2.6,1c0.4,0.4,0.7,1.1,0.8,1.8
		c0.3-0.8,0.7-1.4,1.3-1.9c0.8-0.6,1.7-0.9,2.8-0.9c1.8,0,2.9,0.9,3.5,1.9c0.6,0.9,0.7,2.6,0.7,4.1v9.4H979V630
		c0-1.1-0.1-2.1-0.3-2.8c-0.3-1-1.3-1.6-2.3-1.6c-0.9,0-1.7,0.2-2.4,1.2c-0.6,0.9-0.8,2.2-0.8,3.3v9.1h-1.9v-9.2c0-1.2,0-2-0.3-2.9
		c-0.3-1-1.2-1.6-2.3-1.6c-0.9,0-1.8,0.3-2.4,1.2c-0.7,0.9-0.8,2.2-0.8,3.4v9.1h-1.9V624.1z"/>
	<path class="st12" d="M995.5,639.3h-1.7c0-1.3,0-2.2,0-2.9c-0.7,2.1-2.1,3.3-4,3.3c-3,0-5.1-3.2-5.1-7.9c0-4.7,1.9-8,5.1-8
		c1.7,0,3.2,0.9,4,3.3c0-0.9,0-1.8,0-2.9h1.7V639.3z M986.6,631.7c0,3.4,1.2,6.1,3.5,6.1c1.2,0,2-0.6,2.6-1.7
		c0.6-1.1,0.9-2.4,0.9-4.4c0-2-0.2-3.4-0.9-4.4c-0.6-1-1.4-1.7-2.6-1.7C987.9,625.6,986.6,628.3,986.6,631.7L986.6,631.7z"/>
	<path class="st12" d="M1001.1,625.9h-2.1v-1.8h2.1v-4.8h1.9v4.8h2.1v1.8h-2.1v13.4h-1.9V625.9z"/>
	<path class="st12" d="M1008.6,618.7h1.9v2.7h-1.9V618.7z M1008.6,624.1h1.9v15.1h-1.9V624.1z"/>
	<path class="st12" d="M1016.7,632.3c0,3.1,1.3,5.6,3.8,5.6c1.8,0,3-1.3,3.4-3h1.8c-0.3,1.6-1,2.8-1.9,3.6c-0.9,0.8-2.1,1.2-3.3,1.2
		c-4.2,0-5.8-4-5.8-7.9c0-4.7,2.2-8,5.7-8c1.8,0,3.2,0.8,4.1,2.1c1.2,1.8,1.4,4.1,1.4,6.3H1016.7z M1024,630.6
		c-0.1-3.1-1.4-5.3-3.6-5.3c-2.2,0-3.6,2.3-3.7,5.3H1024z"/>
</g>
<g>
	<path class="st12" d="M903.6,723.9h4.7c2.8,0,5.2,0.7,6.7,3c1.1,1.7,1.8,4.1,1.8,7.3c0,7.9-3.8,10.3-8.5,10.3h-4.8V723.9z
		 M905.7,742.6h2.5c4.8,0,6.5-3.1,6.5-8.4c0-2.9-0.4-4.9-1.4-6.3c-1-1.4-2.7-2.1-5.1-2.1h-2.5V742.6z"/>
	<path class="st12" d="M921.1,723.9h1.9v2.7h-1.9V723.9z M921.1,729.4h1.9v15.1h-1.9V729.4z"/>
	<path class="st12" d="M934.1,733.3c0-1.9-1-2.6-2.4-2.6c-1.3,0-2.2,0.9-2.2,2.3c0,1.7,1.4,2.3,3.3,2.9c1.7,0.5,3.6,1.5,3.6,4.6
		c0,2.7-1.9,4.5-4.5,4.5c-2.8,0-4.6-1.6-4.7-4.8h1.8c0,2.1,1.2,3.1,2.9,3.1c1.6,0,2.6-1.1,2.6-2.6c0-1.8-1.3-2.6-3.3-3.2
		c-1.9-0.6-3.6-1.6-3.6-4.3c0-2.4,1.8-4,4.2-4c2.6,0,4.1,1.5,4.2,4.3H934.1z"/>
	<path class="st12" d="M940.3,729.4h1.7c0,1.1,0,2,0,2.9c0.8-2.3,2.2-3.3,4-3.3c3,0,5.1,3.1,5.1,8c0,4.6-1.9,7.9-5.1,7.9
		c-1.8,0-3.3-1.2-3.9-3.1c0.1,0.7,0.1,1.4,0.1,2.8v5.6h-1.9V729.4z M949.2,736.9c0-3.4-1.2-6.1-3.5-6.1c-1.2,0-2,0.6-2.6,1.7
		c-0.7,1-0.9,2.4-0.9,4.4c0,2,0.3,3.4,0.9,4.4c0.6,1,1.4,1.7,2.6,1.7C948,743.1,949.2,740.4,949.2,736.9L949.2,736.9z"/>
	<path class="st12" d="M954.2,736.9c0-4.3,1.8-7.9,5.8-7.9c4,0,5.8,3.6,5.8,7.9s-1.8,7.9-5.8,7.9C956,744.9,954.2,741.3,954.2,736.9
		L954.2,736.9z M956.2,737c0,4,1.3,6.2,3.9,6.2c2.5,0,3.8-2.1,3.8-6.2s-1.3-6.2-3.9-6.2C957.5,730.8,956.2,732.9,956.2,737
		L956.2,737z"/>
	<path class="st12" d="M969.9,729.4h1.7c0,0.9,0,1.6-0.1,2.6c0.8-2.1,2.5-3,4.3-3c2.6,0,4.3,1.5,4.3,5.2v10.3h-1.9v-9.7
		c0-1.5-0.2-3.9-2.9-3.9c-2.2,0-3.6,1.5-3.6,4.7v9h-1.9V729.4z"/>
	<path class="st12" d="M985,723.9h1.9v2.7H985V723.9z M985,729.4h1.9v15.1H985V729.4z"/>
	<path class="st12" d="M991.9,723.9h1.9v5.5c0,1.3,0,2.2-0.1,2.9c0.6-1.9,1.9-3.3,3.9-3.3c3.2,0,5.1,3.3,5.1,7.9c0,4.8-2.1,8-5.1,8
		c-1.8,0-3.1-0.9-4-3.3c0,0.9,0,1.8,0,2.9h-1.7V723.9z M1000.8,736.9c0-3.3-1.1-6.1-3.5-6.1c-2.6,0-3.5,3.1-3.5,6.1s0.9,6.1,3.5,6.1
		C999.7,743.1,1000.8,740.2,1000.8,736.9L1000.8,736.9z"/>
	<path class="st12" d="M1006.9,723.9h1.9v2.7h-1.9V723.9z M1006.9,729.4h1.9v15.1h-1.9V729.4z"/>
	<path class="st12" d="M1014,723.9h1.9v20.6h-1.9V723.9z"/>
	<path class="st12" d="M1021.1,723.9h1.9v2.7h-1.9V723.9z M1021.1,729.4h1.9v15.1h-1.9V729.4z"/>
	<path class="st12" d="M1028.7,731.1h-2.1v-1.8h2.1v-4.8h1.9v4.8h2.1v1.8h-2.1v13.4h-1.9V731.1z"/>
	<path class="st12" d="M1036.9,737.5c0,3.1,1.3,5.6,3.8,5.6c1.8,0,3-1.3,3.4-3h1.8c-0.3,1.6-1,2.8-1.9,3.6c-0.9,0.8-2.1,1.2-3.3,1.2
		c-4.2,0-5.8-4-5.8-7.9c0-4.7,2.2-8,5.7-8c1.8,0,3.2,0.8,4.1,2.1c1.2,1.8,1.4,4.1,1.4,6.3H1036.9z M1044.2,735.9
		c-0.1-3.1-1.4-5.3-3.6-5.3c-2.2,0-3.6,2.3-3.7,5.3H1044.2z M1043.6,723.1l0.8,1.5l-6.2,3.3l-0.7-1.3L1043.6,723.1z"/>
	<path class="st12" d="M1068.8,723.9v1.8l-7.5,18.8h-2.2l7.5-18.7h-8.8v-1.9H1068.8z"/>
	<path class="st12" d="M1078.8,723.8h1.9l-8.5,22.6h-1.9L1078.8,723.8z"/>
	<path class="st12" d="M1093.3,723.9v1.8l-7.5,18.8h-2.2l7.5-18.7h-8.8v-1.9H1093.3z"/>
	<path class="st12" d="M1100,744.7c0,2.5-0.6,5-3.2,5.5c-0.2,0-0.4,0.1-0.7,0.1v-1.8c0.1,0,0.2,0,0.3-0.1c1.4-0.3,1.7-1.7,1.7-3.9
		v-15.1h1.9V744.7z M1098.1,723.9h1.9v2.8h-1.9V723.9z"/>
</g>
<g>
	<path class="st12" d="M915.2,682.8c0,3.6-2.1,7.1-6.4,7.1c-4.4,0-7.2-3.7-7.2-10.7c0-6.5,2.4-10.7,7.2-10.7c4.3,0,6.5,3.6,6.4,7.5
		h-2.1c-0.1-2.7-1.1-5.6-4.3-5.6c-3.6,0-5.1,3.5-5.1,8.9c0,5.8,2.2,8.5,5.1,8.5c3.2,0,4.1-2.6,4.3-5.1H915.2z"/>
	<path class="st12" d="M918.1,681.9c0-4.3,1.8-7.9,5.8-7.9c4,0,5.8,3.6,5.8,7.9s-1.8,7.9-5.8,7.9
		C919.9,689.9,918.1,686.3,918.1,681.9L918.1,681.9z M920.1,682c0,4,1.3,6.2,3.9,6.2c2.5,0,3.8-2.1,3.8-6.2s-1.3-6.2-3.9-6.2
		C921.4,675.8,920.1,677.9,920.1,682L920.1,682z"/>
	<path class="st12" d="M933.7,674.4h1.7c0,0.9,0,1.6-0.1,2.6c0.8-2.1,2.5-3,4.3-3c2.6,0,4.3,1.5,4.3,5.2v10.3h-1.9v-9.7
		c0-1.5-0.2-3.9-2.9-3.9c-2.2,0-3.6,1.5-3.6,4.7v9h-1.9V674.4z"/>
	<path class="st12" d="M948.7,674.4h1.7c0,0.9,0,1.6-0.1,2.6c0.8-2.1,2.5-3,4.3-3c2.6,0,4.3,1.5,4.3,5.2v10.3h-1.9v-9.7
		c0-1.5-0.2-3.9-2.9-3.9c-2.2,0-3.6,1.5-3.6,4.7v9h-1.9V674.4z"/>
	<path class="st12" d="M973.6,689.5h-1.7c0-1.3,0-2.2,0-2.9c-0.7,2.1-2.1,3.3-4,3.3c-3,0-5.1-3.2-5.1-7.9c0-4.7,1.9-8,5.1-8
		c1.7,0,3.2,0.9,4,3.3c0-0.9,0-1.8,0-2.9h1.7V689.5z M964.7,682c0,3.4,1.2,6.1,3.5,6.1c1.2,0,2-0.6,2.6-1.7c0.6-1.1,0.9-2.4,0.9-4.4
		c0-2-0.2-3.4-0.9-4.4c-0.6-1-1.4-1.7-2.6-1.7C965.9,675.9,964.7,678.5,964.7,682L964.7,682z"/>
	<path class="st12" d="M978.6,668.9h1.9v2.7h-1.9V668.9z M978.6,674.4h1.9v15.1h-1.9V674.4z"/>
	<path class="st12" d="M991.6,678.3c0-1.9-1-2.6-2.4-2.6c-1.3,0-2.2,0.9-2.2,2.3c0,1.7,1.4,2.3,3.3,2.9c1.7,0.5,3.6,1.5,3.6,4.6
		c0,2.7-1.9,4.5-4.5,4.5c-2.8,0-4.6-1.6-4.7-4.8h1.8c0,2.1,1.2,3.1,2.9,3.1c1.6,0,2.6-1.1,2.6-2.6c0-1.8-1.3-2.6-3.3-3.2
		c-1.9-0.6-3.6-1.6-3.6-4.3c0-2.4,1.8-4,4.2-4c2.6,0,4.1,1.5,4.2,4.3H991.6z"/>
	<path class="st12" d="M1003.9,678.3c0-1.9-1-2.6-2.4-2.6c-1.3,0-2.2,0.9-2.2,2.3c0,1.7,1.4,2.3,3.3,2.9c1.7,0.5,3.6,1.5,3.6,4.6
		c0,2.7-1.9,4.5-4.5,4.5c-2.8,0-4.6-1.6-4.7-4.8h1.8c0,2.1,1.2,3.1,2.9,3.1c1.6,0,2.6-1.1,2.6-2.6c0-1.8-1.3-2.6-3.3-3.2
		c-1.9-0.6-3.6-1.6-3.6-4.3c0-2.4,1.8-4,4.2-4c2.6,0,4.1,1.5,4.2,4.3H1003.9z"/>
	<path class="st12" d="M1020.1,689.5h-1.7c0-1.3,0-2.2,0-2.9c-0.7,2.1-2.1,3.3-4,3.3c-3,0-5.1-3.2-5.1-7.9c0-4.7,1.9-8,5.1-8
		c1.7,0,3.2,0.9,4,3.3c0-0.9,0-1.8,0-2.9h1.7V689.5z M1011.2,682c0,3.4,1.2,6.1,3.5,6.1c1.2,0,2-0.6,2.6-1.7
		c0.6-1.1,0.9-2.4,0.9-4.4c0-2-0.2-3.4-0.9-4.4c-0.6-1-1.4-1.7-2.6-1.7C1012.4,675.9,1011.2,678.5,1011.2,682L1011.2,682z"/>
	<path class="st12" d="M1024.9,674.4h1.7c0,0.9,0,1.6-0.1,2.6c0.8-2.1,2.5-3,4.3-3c2.6,0,4.3,1.5,4.3,5.2v10.3h-1.9v-9.7
		c0-1.5-0.2-3.9-2.9-3.9c-2.2,0-3.6,1.5-3.6,4.7v9h-1.9V674.4z"/>
	<path class="st12" d="M1049.8,684.4c-0.3,3.1-2,5.5-5,5.5c-4,0-5.8-3.8-5.8-7.9c0-5,2.3-8,5.8-8c3.1,0,4.9,2.4,5,5.6h-1.9
		c-0.3-3-1.8-3.8-3.2-3.8c-1.1,0-2.1,0.4-2.8,1.6c-0.7,1.2-1,2.6-1,4.6c0,4,1.4,6.2,3.8,6.2c1.9,0,2.9-1.5,3.2-3.8H1049.8z"/>
	<path class="st12" d="M1054.5,682.5c0,3.1,1.3,5.6,3.8,5.6c1.8,0,3-1.3,3.4-3h1.8c-0.3,1.6-1,2.8-1.9,3.6c-0.9,0.8-2.1,1.2-3.3,1.2
		c-4.2,0-5.8-4-5.8-7.9c0-4.7,2.2-8,5.7-8c1.8,0,3.2,0.8,4.1,2.1c1.2,1.8,1.4,4.1,1.4,6.3H1054.5z M1061.9,680.9
		c-0.1-3.1-1.4-5.3-3.6-5.3c-2.2,0-3.6,2.3-3.7,5.3H1061.9z"/>
	<path class="st12" d="M1076.7,682.5c0,3.1,1.3,5.6,3.8,5.6c1.8,0,3-1.3,3.4-3h1.8c-0.3,1.6-1,2.8-1.9,3.6c-0.9,0.8-2.1,1.2-3.3,1.2
		c-4.2,0-5.8-4-5.8-7.9c0-4.7,2.2-8,5.7-8c1.8,0,3.2,0.8,4.1,2.1c1.2,1.8,1.4,4.1,1.4,6.3H1076.7z M1084.1,680.9
		c-0.1-3.1-1.4-5.3-3.6-5.3c-2.2,0-3.6,2.3-3.7,5.3H1084.1z"/>
	<path class="st12" d="M1090.7,676.1h-2.1v-1.8h2.1v-4.8h1.9v4.8h2.1v1.8h-2.1v13.4h-1.9V676.1z"/>
	<path class="st12" d="M1116,689.5h-1.7c0-0.9,0-1.7,0.1-2.6c-0.8,2.2-2.5,3-4.2,3c-2.6,0-4.3-1.5-4.3-5.2v-10.3h1.9v9.7
		c0,1.5,0.2,3.9,2.9,3.9c2.2,0,3.6-1.5,3.6-4.7v-9h1.9V689.5z"/>
	<path class="st12" d="M1121.5,676.1h-2.1v-1.8h2.1v-4.8h1.9v4.8h2.1v1.8h-2.1v13.4h-1.9V676.1z"/>
	<path class="st12" d="M1129.1,668.9h1.9v2.7h-1.9V668.9z M1129.1,674.4h1.9v15.1h-1.9V674.4z"/>
	<path class="st12" d="M1136.2,668.9h1.9v20.6h-1.9V668.9z"/>
	<path class="st12" d="M1143.3,668.9h1.9v2.7h-1.9V668.9z M1143.3,674.4h1.9v15.1h-1.9V674.4z"/>
	<path class="st12" d="M1156.2,678.3c0-1.9-1-2.6-2.4-2.6c-1.3,0-2.2,0.9-2.2,2.3c0,1.7,1.4,2.3,3.3,2.9c1.7,0.5,3.6,1.5,3.6,4.6
		c0,2.7-1.9,4.5-4.5,4.5c-2.8,0-4.6-1.6-4.7-4.8h1.8c0,2.1,1.2,3.1,2.9,3.1c1.6,0,2.6-1.1,2.6-2.6c0-1.8-1.3-2.6-3.3-3.2
		c-1.9-0.6-3.6-1.6-3.6-4.3c0-2.4,1.8-4,4.2-4c2.6,0,4.1,1.5,4.2,4.3H1156.2z"/>
	<path class="st12" d="M1172.4,689.5h-1.7c0-1.3,0-2.2,0-2.9c-0.7,2.1-2.1,3.3-4,3.3c-3,0-5.1-3.2-5.1-7.9c0-4.7,1.9-8,5.1-8
		c1.7,0,3.2,0.9,4,3.3c0-0.9,0-1.8,0-2.9h1.7V689.5z M1163.5,682c0,3.4,1.2,6.1,3.5,6.1c1.2,0,2-0.6,2.6-1.7
		c0.6-1.1,0.9-2.4,0.9-4.4c0-2-0.2-3.4-0.9-4.4c-0.6-1-1.4-1.7-2.6-1.7C1164.7,675.9,1163.5,678.5,1163.5,682L1163.5,682z"/>
	<path class="st12" d="M1177.9,676.1h-2.1v-1.8h2.1v-4.8h1.9v4.8h2.1v1.8h-2.1v13.4h-1.9V676.1z"/>
	<path class="st12" d="M1185.5,668.9h1.9v2.7h-1.9V668.9z M1185.5,674.4h1.9v15.1h-1.9V674.4z"/>
	<path class="st12" d="M1191.6,681.9c0-4.3,1.8-7.9,5.8-7.9c4,0,5.8,3.6,5.8,7.9s-1.8,7.9-5.8,7.9
		C1193.3,689.9,1191.6,686.3,1191.6,681.9L1191.6,681.9z M1193.5,682c0,4,1.3,6.2,3.9,6.2c2.5,0,3.8-2.1,3.8-6.2s-1.3-6.2-3.9-6.2
		C1194.8,675.8,1193.5,677.9,1193.5,682L1193.5,682z"/>
	<path class="st12" d="M1207.2,674.4h1.7c0,0.9,0,1.6-0.1,2.6c0.8-2.1,2.5-3,4.3-3c2.6,0,4.3,1.5,4.3,5.2v10.3h-1.9v-9.7
		c0-1.5-0.2-3.9-2.9-3.9c-2.2,0-3.6,1.5-3.6,4.7v9h-1.9V674.4z"/>
	<path class="st12" d="M1239.9,689.5h-1.7c0-1.4,0-2.2,0-3c-0.5,2.1-2.1,3.4-4,3.4c-3,0-5.1-3.2-5.1-7.9c0-4.7,1.9-8,5.1-8
		c1.7,0,3.1,0.9,3.9,3.2c-0.1-0.9-0.1-1.7-0.1-2.8v-5.5h1.9V689.5z M1231,682c0,3.4,1.2,6.1,3.5,6.1c1.2,0,2-0.6,2.6-1.7
		c0.6-1.1,0.9-2.4,0.9-4.4s-0.2-3.4-0.9-4.4c-0.6-1-1.4-1.6-2.6-1.6C1232.2,675.9,1231,678.5,1231,682L1231,682z"/>
	<path class="st12" d="M1245.9,682.5c0,3.1,1.3,5.6,3.8,5.6c1.8,0,3-1.3,3.4-3h1.8c-0.3,1.6-1,2.8-1.9,3.6c-0.9,0.8-2.1,1.2-3.3,1.2
		c-4.2,0-5.8-4-5.8-7.9c0-4.7,2.2-8,5.7-8c1.8,0,3.2,0.8,4.1,2.1c1.2,1.8,1.4,4.1,1.4,6.3H1245.9z M1253.3,680.9
		c-0.1-3.1-1.4-5.3-3.6-5.3c-2.2,0-3.6,2.3-3.7,5.3H1253.3z"/>
	<path class="st12" d="M1267.2,668.9h1.9v20.6h-1.9V668.9z"/>
	<path class="st12" d="M1275.8,668.9h2l-2.2,5.3h-1.8L1275.8,668.9z"/>
	<path class="st12" d="M1282.5,668.9h1.9v2.7h-1.9V668.9z M1282.5,674.4h1.9v15.1h-1.9V674.4z"/>
	<path class="st12" d="M1289.4,674.4h1.7c0,0.9,0,1.6-0.1,2.6c0.8-2.1,2.5-3,4.3-3c2.6,0,4.3,1.5,4.3,5.2v10.3h-1.9v-9.7
		c0-1.5-0.2-3.9-2.9-3.9c-2.2,0-3.6,1.5-3.6,4.7v9h-1.9V674.4z"/>
	<path class="st12" d="M1304.7,676.1h-1.7v-1.8h1.7v-1.1c0-4.5,3.6-4.7,4.5-4.7v1.6c-1.4,0.1-2.6,0.8-2.6,3.2v1h2.6v1.8h-2.6v13.4
		h-1.9V676.1z"/>
	<path class="st12" d="M1311,681.9c0-4.3,1.8-7.9,5.8-7.9c4,0,5.8,3.6,5.8,7.9s-1.8,7.9-5.8,7.9C1312.8,689.9,1311,686.3,1311,681.9
		L1311,681.9z M1313,682c0,4,1.3,6.2,3.9,6.2c2.5,0,3.8-2.1,3.8-6.2s-1.3-6.2-3.9-6.2C1314.3,675.8,1313,677.9,1313,682L1313,682z"
		/>
	<path class="st12" d="M1326.7,674.4h1.7c0,1.4,0,2.3-0.1,3.2c0.8-3,2.7-3.5,4-3.5v2.2c-0.2-0.1-0.4-0.2-0.7-0.2
		c-1.3,0-3.1,1.6-3.1,5.4v8.1h-1.9V674.4z"/>
	<path class="st12" d="M1335.5,674.4h1.8c0,0.8,0,1.6-0.1,2.5c0.8-2.4,2.5-2.8,3.8-2.8c1.1,0,1.9,0.3,2.6,1c0.4,0.4,0.7,1.1,0.8,1.8
		c0.3-0.8,0.7-1.4,1.3-1.9c0.8-0.6,1.7-0.9,2.8-0.9c1.8,0,2.9,0.9,3.5,1.9c0.6,0.9,0.7,2.6,0.7,4.1v9.4h-1.9v-9.3
		c0-1.1-0.1-2.1-0.3-2.8c-0.3-1-1.3-1.6-2.3-1.6c-0.9,0-1.7,0.2-2.4,1.2c-0.6,0.9-0.8,2.2-0.8,3.3v9.1h-1.9v-9.2c0-1.2,0-2-0.3-2.9
		c-0.3-1-1.2-1.6-2.3-1.6c-0.9,0-1.8,0.3-2.4,1.2c-0.7,0.9-0.8,2.2-0.8,3.4v9.1h-1.9V674.4z"/>
	<path class="st12" d="M1367.6,689.5h-1.7c0-1.3,0-2.2,0-2.9c-0.7,2.1-2.1,3.3-4,3.3c-3,0-5.1-3.2-5.1-7.9c0-4.7,1.9-8,5.1-8
		c1.7,0,3.2,0.9,4,3.3c0-0.9,0-1.8,0-2.9h1.7V689.5z M1358.7,682c0,3.4,1.2,6.1,3.5,6.1c1.2,0,2-0.6,2.6-1.7
		c0.6-1.1,0.9-2.4,0.9-4.4c0-2-0.2-3.4-0.9-4.4c-0.6-1-1.4-1.7-2.6-1.7C1359.9,675.9,1358.7,678.5,1358.7,682L1358.7,682z"/>
	<path class="st12" d="M1373.1,676.1h-2.1v-1.8h2.1v-4.8h1.9v4.8h2.1v1.8h-2.1v13.4h-1.9V676.1z"/>
	<path class="st12" d="M1380.6,668.9h1.9v2.7h-1.9V668.9z M1380.6,674.4h1.9v15.1h-1.9V674.4z"/>
	<path class="st12" d="M1397.5,695.1h-1.9v-5.6c0-1.3,0-2.1,0.1-2.8c-0.6,2-2.1,3.2-3.9,3.2c-3.2,0-5.1-3.3-5.1-7.9
		c0-4.8,2.1-8,5.1-8c1.8,0,3.3,1,4,3.3c0-0.9,0-1.8,0-2.9h1.8V695.1z M1388.6,682c0,3.4,1.2,6.1,3.5,6.1c1.2,0,2-0.6,2.6-1.7
		c0.6-1.1,0.9-2.4,0.9-4.4c0-2-0.2-3.4-0.9-4.4c-0.6-1-1.4-1.7-2.6-1.7C1389.8,675.9,1388.6,678.5,1388.6,682L1388.6,682z"/>
	<path class="st12" d="M1412.4,689.5h-1.7c0-0.9,0-1.7,0.1-2.6c-0.8,2.2-2.5,3-4.2,3c-2.6,0-4.3-1.5-4.3-5.2v-10.3h1.9v9.7
		c0,1.5,0.2,3.9,2.9,3.9c2.2,0,3.6-1.5,3.6-4.7v-9h1.9V689.5z"/>
	<path class="st12" d="M1418.4,682.5c0,3.1,1.3,5.6,3.8,5.6c1.8,0,3-1.3,3.4-3h1.8c-0.3,1.6-1,2.8-1.9,3.6c-0.9,0.8-2.1,1.2-3.3,1.2
		c-4.2,0-5.8-4-5.8-7.9c0-4.7,2.2-8,5.7-8c1.8,0,3.2,0.8,4.1,2.1c1.2,1.8,1.4,4.1,1.4,6.3H1418.4z M1425.7,680.9
		c-0.1-3.1-1.4-5.3-3.6-5.3c-2.2,0-3.6,2.3-3.7,5.3H1425.7z"/>
	<path class="st12" d="M1440.6,682.5c0,3.1,1.3,5.6,3.8,5.6c1.8,0,3-1.3,3.4-3h1.8c-0.3,1.6-1,2.8-1.9,3.6c-0.9,0.8-2.1,1.2-3.3,1.2
		c-4.2,0-5.8-4-5.8-7.9c0-4.7,2.2-8,5.7-8c1.8,0,3.2,0.8,4.1,2.1c1.2,1.8,1.4,4.1,1.4,6.3H1440.6z M1448,680.9
		c-0.1-3.1-1.4-5.3-3.6-5.3c-2.2,0-3.6,2.3-3.7,5.3H1448z"/>
	<path class="st12" d="M1453.9,674.4h1.8c0,0.8,0,1.6-0.1,2.5c0.8-2.4,2.5-2.8,3.8-2.8c1.1,0,1.9,0.3,2.6,1c0.4,0.4,0.7,1.1,0.8,1.8
		c0.3-0.8,0.7-1.4,1.3-1.9c0.8-0.6,1.7-0.9,2.8-0.9c1.8,0,2.9,0.9,3.5,1.9c0.6,0.9,0.7,2.6,0.7,4.1v9.4h-1.9v-9.3
		c0-1.1-0.1-2.1-0.3-2.8c-0.3-1-1.3-1.6-2.3-1.6c-0.9,0-1.7,0.2-2.4,1.2c-0.6,0.9-0.8,2.2-0.8,3.3v9.1h-1.9v-9.2c0-1.2,0-2-0.3-2.9
		c-0.3-1-1.2-1.6-2.3-1.6c-0.9,0-1.8,0.3-2.4,1.2c-0.7,0.9-0.8,2.2-0.8,3.4v9.1h-1.9V674.4z"/>
	<path class="st12" d="M1476,668.9h1.9v5.5c0,1.3,0,2.2-0.1,2.9c0.6-1.9,1.9-3.3,3.9-3.3c3.2,0,5.1,3.3,5.1,7.9c0,4.8-2.1,8-5.1,8
		c-1.8,0-3.1-0.9-4-3.3c0,0.9,0,1.8,0,2.9h-1.7V668.9z M1484.9,681.9c0-3.3-1.1-6.1-3.5-6.1c-2.6,0-3.5,3.1-3.5,6.1s0.9,6.1,3.5,6.1
		C1483.7,688.1,1484.9,685.2,1484.9,681.9L1484.9,681.9z"/>
	<path class="st12" d="M1500.7,689.5h-1.7c0-1.3,0-2.2,0-2.9c-0.7,2.1-2.1,3.3-4,3.3c-3,0-5.1-3.2-5.1-7.9c0-4.7,1.9-8,5.1-8
		c1.7,0,3.2,0.9,4,3.3c0-0.9,0-1.8,0-2.9h1.7V689.5z M1491.8,682c0,3.4,1.2,6.1,3.5,6.1c1.2,0,2-0.6,2.6-1.7
		c0.6-1.1,0.9-2.4,0.9-4.4c0-2-0.2-3.4-0.9-4.4c-0.6-1-1.4-1.7-2.6-1.7C1493,675.9,1491.8,678.5,1491.8,682L1491.8,682z"/>
	<path class="st12" d="M1505.5,674.4h1.7c0,1.4,0,2.3-0.1,3.2c0.8-3,2.7-3.5,4-3.5v2.2c-0.2-0.1-0.4-0.2-0.7-0.2
		c-1.3,0-3.1,1.6-3.1,5.4v8.1h-1.9V674.4z"/>
	<path class="st12" d="M1523.9,695.1h-1.9v-5.6c0-1.3,0-2.1,0.1-2.8c-0.6,2-2.1,3.2-3.9,3.2c-3.2,0-5.1-3.3-5.1-7.9
		c0-4.8,2.1-8,5.1-8c1.8,0,3.3,1,4,3.3c0-0.9,0-1.8,0-2.9h1.8V695.1z M1515,682c0,3.4,1.2,6.1,3.5,6.1c1.2,0,2-0.6,2.6-1.7
		c0.6-1.1,0.9-2.4,0.9-4.4c0-2-0.2-3.4-0.9-4.4c-0.6-1-1.4-1.7-2.6-1.7C1516.2,675.9,1515,678.5,1515,682L1515,682z"/>
	<path class="st12" d="M1538.8,689.5h-1.7c0-0.9,0-1.7,0.1-2.6c-0.8,2.2-2.5,3-4.2,3c-2.6,0-4.3-1.5-4.3-5.2v-10.3h1.9v9.7
		c0,1.5,0.2,3.9,2.9,3.9c2.2,0,3.6-1.5,3.6-4.7v-9h1.9V689.5z"/>
	<path class="st12" d="M1544.8,682.5c0,3.1,1.3,5.6,3.8,5.6c1.8,0,3-1.3,3.4-3h1.8c-0.3,1.6-1,2.8-1.9,3.6c-0.9,0.8-2.1,1.2-3.3,1.2
		c-4.2,0-5.8-4-5.8-7.9c0-4.7,2.2-8,5.7-8c1.8,0,3.2,0.8,4.1,2.1c1.2,1.8,1.4,4.1,1.4,6.3H1544.8z M1552.2,680.9
		c-0.1-3.1-1.4-5.3-3.6-5.3c-2.2,0-3.6,2.3-3.7,5.3H1552.2z M1551.6,668.1l0.8,1.5l-6.2,3.3l-0.7-1.3L1551.6,668.1z"/>
	<path class="st12" d="M1559.2,682.5c0,3.1,1.3,5.6,3.8,5.6c1.8,0,3-1.3,3.4-3h1.8c-0.3,1.6-1,2.8-1.9,3.6c-0.9,0.8-2.1,1.2-3.3,1.2
		c-4.2,0-5.8-4-5.8-7.9c0-4.7,2.2-8,5.7-8c1.8,0,3.2,0.8,4.1,2.1c1.2,1.8,1.4,4.1,1.4,6.3H1559.2z M1566.6,680.9
		c-0.1-3.1-1.4-5.3-3.6-5.3c-2.2,0-3.6,2.3-3.7,5.3H1566.6z"/>
</g>
</svg>
