<svg xmlns="http://www.w3.org/2000/svg" viewBox="0 0 1920 1080"><defs><style>.cls-1,.cls-6{isolation:isolate;}.cls-11,.cls-14,.cls-2,.cls-9{fill:#fff;}.cls-2{opacity:0.2;}.cls-3,.cls-4{fill:none;stroke:#fff;stroke-linecap:round;stroke-miterlimit:10;stroke-width:5px;}.cls-4{stroke-dasharray:1 14.96;}.cls-5{fill:#225366;}.cls-6{fill:#105768;opacity:0.2;}.cls-7{fill:#fefeff;}.cls-8{fill:#fcc600;}.cls-9{font-size:30.8px;letter-spacing:0.04em;}.cls-11,.cls-9{font-family:Gobold, Gobold;}.cls-10{fill:#464646;opacity:0.7;mix-blend-mode:soft-light;}.cls-11{font-size:30.8px;letter-spacing:0.04em;}.cls-12{fill:#434a54;}.cls-13{fill:#4d5661;}</style></defs><title>game3b_bg</title><g class="cls-1"><g id="Calque_1" data-name="Calque 1"><path class="cls-2" d="M850.75,90H284.41c-4.86,0-8.41,4-8.41,8.87v51.4a8.41,8.41,0,0,0,8.41,8.73H504.47l54.93,35,53.14-35H850.75c4.86,0,9.25-3.87,9.25-8.73V98.87C860,94,855.61,90,850.75,90Z"/><line class="cls-3" x1="919.36" y1="161.24" x2="919.36" y2="161.74"/><line class="cls-4" x1="919.36" y1="176.69" x2="919.36" y2="966.84"/><line class="cls-3" x1="919.36" y1="974.32" x2="919.36" y2="974.82"/><polygon class="cls-5" points="985.44 978.79 1064.88 1028.99 1144.32 978.79 1121.86 -1 1013.86 -1 985.44 978.79"/><rect class="cls-6" x="1129.17" y="120.72" width="604.39" height="869.37" transform="translate(-1.38 3.58) rotate(-0.14)"/><rect class="cls-7" x="1140.62" y="109.27" width="604.39" height="869.37" transform="translate(-1.35 3.61) rotate(-0.14)"/><circle class="cls-8" cx="1069.88" cy="220.62" r="24.01"/><text class="cls-9" transform="translate(1061.62 234.68)">1</text><path class="cls-10" d="M1069.88,196.61h-.19v48h.19a24,24,0,1,0,0-48Z"/><circle class="cls-8" cx="1069.88" cy="389.05" r="24.01"/><text class="cls-11" transform="translate(1061.62 403.11)">2</text><path class="cls-10" d="M1069.88,365h-.19v48h.19a24,24,0,1,0,0-48Z"/><circle class="cls-8" cx="1069.88" cy="557.48" r="24.01"/><text class="cls-11" transform="translate(1061.62 571.54)">3</text><path class="cls-10" d="M1069.88,533.48h-.19v48h.19a24,24,0,1,0,0-48Z"/><circle class="cls-8" cx="1069.88" cy="725.92" r="24.01"/><text class="cls-11" transform="translate(1061.62 739.97)">4</text><path class="cls-10" d="M1069.88,701.91h-.19v48h.19a24,24,0,1,0,0-48Z"/><circle class="cls-8" cx="1069.88" cy="894.35" r="24.01"/><text class="cls-11" transform="translate(1061.62 908.41)">5</text><path class="cls-10" d="M1069.88,870.34h-.19v48h.19a24,24,0,1,0,0-48Z"/><path class="cls-6" d="M1616.14,1041.79l.93,3.25a4.71,4.71,0,0,0-2,5.23,4.76,4.76,0,0,0,5.89,3.26l84.94-24.47a4.76,4.76,0,1,0-2.64-9.15l-63.74,18.36-.74-2.57,100.07-28.83a4.83,4.83,0,0,0,3.3-6l-.45-1.55,224.67-64.73A20.53,20.53,0,0,0,1955,895.16l-224.67,64.73-.45-1.55a4.83,4.83,0,0,0-6-3.31l-118.63,34.18a26.92,26.92,0,0,0,10.82,52.58Z"/><path class="cls-12" d="M1982.38,896.09h0a20.53,20.53,0,0,1-14,25.41l-271.76,78.3-11.37-39.45L1957,882A20.53,20.53,0,0,1,1982.38,896.09Z"/><path class="cls-13" d="M1731.86,945.23l12.26,42.54a4.83,4.83,0,0,1-3.3,6l-118.63,34.18a27,27,0,0,1-33.38-18.45h0a27,27,0,0,1,18.45-33.38l118.63-34.18A4.83,4.83,0,0,1,1731.86,945.23Z"/><rect class="cls-13" x="1626.76" y="1015.89" width="6.44" height="23.47" transform="translate(1093.63 2878.36) rotate(-106.07)"/><path class="cls-13" d="M1711.12,1010h0a4.76,4.76,0,0,1-3.26,5.89l-84.95,24.47a4.76,4.76,0,0,1-5.89-3.26h0a4.76,4.76,0,0,1,3.26-5.89l84.95-24.47A4.76,4.76,0,0,1,1711.12,1010Z"/><path class="cls-14" d="M332.76,110.37V132a5.2,5.2,0,0,0,.9,3.48,3.59,3.59,0,0,0,3.05,1.12,3.74,3.74,0,0,0,3.1-1.12,5.47,5.47,0,0,0,.86-3.48V110.37h6.54v22.75c0,2.8-.69,5.25-2.37,6.93s-4.3,2.75-8.13,2.75-6.45-1-8.13-2.75a9.69,9.69,0,0,1-2.37-6.93V110.37Z"/><path class="cls-14" d="M369.23,129.08V110.37H375V142.2h-5.85l-8.95-20.39V142.2h-5.76V110.37h6.62Z"/><path class="cls-14" d="M382.6,110.37h15.48v6h-8.95v6.11h8.95v6h-8.95v7.66h8.95v6H382.6Z"/><path class="cls-14" d="M419.21,110.37h9.64c3,0,5.2.82,6.67,2.28a7.9,7.9,0,0,1,2.11,5.72c0,3.87-2,6-5.25,6.45,3.66.77,6.5,2.67,6.5,8a9.69,9.69,0,0,1-2.32,6.58,8.93,8.93,0,0,1-6.75,2.75H419.21Zm6.54,12.39h1.51a4.12,4.12,0,0,0,2.75-.82,3.36,3.36,0,0,0,.9-2.58,3.06,3.06,0,0,0-.9-2.45,4.12,4.12,0,0,0-2.75-.77h-1.51Zm0,13.68h2.45a4,4,0,0,0,3.05-1.08,3.63,3.63,0,0,0,.9-2.75,3.61,3.61,0,0,0-4-4.09h-2.45Z"/><path class="cls-14" d="M443.55,126.24c0-9.94,3.87-16.47,11.7-16.47s11.7,6.54,11.7,16.52-3.87,16.52-11.7,16.52-11.7-6.54-11.7-16.52Zm6.71.09c0,7.61,1.63,10.45,5,10.45s5-2.84,5-10.5-1.63-10.5-5-10.5-5,2.84-5,10.5Z"/><path class="cls-14" d="M487.77,129.08V110.37h5.76V142.2h-5.85l-8.95-20.39V142.2H473V110.37h6.62Z"/><path class="cls-14" d="M515.77,129.08V110.37h5.76V142.2h-5.85l-8.95-20.39V142.2H501V110.37h6.62Z"/><path class="cls-14" d="M529.14,110.37h15.48v6h-8.95v6.11h8.95v6h-8.95v7.66h8.95v6H529.14Z"/><path class="cls-14" d="M565.74,110.37h6.54V142.2h-6.54Z"/><path class="cls-14" d="M594.35,129.08V110.37h5.76V142.2h-5.85l-8.95-20.39V142.2h-5.76V110.37h6.62Z"/><path class="cls-14" d="M611,116.39h-5.33v-6h17.21v6h-5.33V142.2H611Z"/><path class="cls-14" d="M628.54,110.37H644v6h-8.95v6.11H644v6h-8.95v7.66H644v6H628.54Zm13.38-9.72,2.19,4.6-10,4.43-2-3.74Z"/><path class="cls-14" d="M666.52,121.6a7.56,7.56,0,0,0-.69-3.31,3.91,3.91,0,0,0-3.74-2.5c-3.44,0-5.21,3-5.21,10.5s1.63,10.5,5.21,10.5a3.89,3.89,0,0,0,3.48-1.81,7,7,0,0,0,.95-4.09h-5.46v-6h12.17V131c0,6.67-4.26,11.79-11.14,11.79-8.17,0-11.92-6.19-11.92-16.52,0-9.89,4-16.52,11.92-16.52,6.67,0,10.75,4.47,11.14,11.83Z"/><path class="cls-14" d="M679.46,110.37h8.26c4.52,0,7.4,1.16,8.78,2.8a10.93,10.93,0,0,1,2.58,7.36,11.74,11.74,0,0,1-.95,4.82,8.57,8.57,0,0,1-3.74,4.17l6,12.69H693.1l-7-16.17c.73,0,1.12,0,1.63,0a5.06,5.06,0,0,0,3.23-1.2,4.94,4.94,0,0,0,1.42-3.66,4.59,4.59,0,0,0-1.51-3.87,5,5,0,0,0-3.35-.86H686V142.2h-6.54Z"/><path class="cls-14" d="M709.09,142.2h-6.62l8.69-31.83h6l9,31.83h-6.62L718,136.13h-7.31Zm5.16-22.5-2,10.41h4Z"/><path class="cls-14" d="M731.07,116.39h-5.33v-6h17.21v6h-5.33V142.2h-6.54Z"/><path class="cls-14" d="M748.32,110.37h6.54V142.2h-6.54Z"/><path class="cls-14" d="M760.71,126.24c0-9.94,3.87-16.47,11.7-16.47s11.7,6.54,11.7,16.52-3.87,16.52-11.7,16.52-11.7-6.54-11.7-16.52Zm6.71.09c0,7.61,1.63,10.45,5,10.45s5-2.84,5-10.5-1.63-10.5-5-10.5-5,2.84-5,10.5Z"/><path class="cls-14" d="M804.92,129.08V110.37h5.76V142.2h-5.85l-8.95-20.39V142.2h-5.76V110.37h6.62Z"/></g></g></svg>