<?xml version="1.0" encoding="utf-8"?>
<!-- Generator: Adobe Illustrator 21.1.0, SVG Export Plug-In . SVG Version: 6.00 Build 0)  -->
<svg version="1.1" id="Calque_1" xmlns="http://www.w3.org/2000/svg" xmlns:xlink="http://www.w3.org/1999/xlink" x="0px" y="0px"
	 viewBox="0 0 1920 1080" style="enable-background:new 0 0 1920 1080;" xml:space="preserve">
<style type="text/css">
	.st0{fill:none;stroke:#FFFFFF;stroke-width:5;stroke-linecap:round;stroke-miterlimit:10;}
	.st1{fill:none;stroke:#FFFFFF;stroke-width:5;stroke-linecap:round;stroke-miterlimit:10;stroke-dasharray:1,14.96;}
	.st2{fill:#F7C646;}
	.st3{opacity:0.42;fill:#BC8F00;enable-background:new    ;}
	.st4{fill:#FFFFFF;}
	.st5{opacity:0.2;fill:#FFFFFF;}
</style>
<title>game2b5_bg</title>
<line class="st0" x1="555.8" y1="247.2" x2="556.3" y2="247.2"/>
<line class="st1" x1="571.3" y1="247.2" x2="1361.4" y2="247.2"/>
<line class="st0" x1="1368.9" y1="247.2" x2="1369.4" y2="247.2"/>
<circle class="st2" cx="689.3" cy="247.2" r="19.3"/>
<path class="st3" d="M689.3,227.8h-0.2v38.6h0.2c10.7,0.2,19.5-8.2,19.8-18.9c0.2-10.7-8.2-19.5-18.9-19.8
	C689.9,227.8,689.6,227.8,689.3,227.8z"/>
<circle class="st2" cx="826" cy="247.2" r="19.3"/>
<path class="st3" d="M826,227.8h-0.2v38.6h0.2c10.7,0.2,19.5-8.2,19.8-18.9c0.2-10.7-8.2-19.5-18.9-19.8
	C826.5,227.8,826.2,227.8,826,227.8z"/>
<circle class="st2" cx="962.6" cy="247.2" r="19.3"/>
<path class="st3" d="M962.6,227.8h-0.2v38.6h0.2c10.7,0.2,19.5-8.2,19.8-18.9c0.2-10.7-8.2-19.5-18.9-19.8
	C963.2,227.8,962.9,227.8,962.6,227.8z"/>
<circle class="st2" cx="1099.3" cy="247.2" r="19.3"/>
<path class="st3" d="M1099.3,227.8h-0.2v38.6h0.2c10.7,0.2,19.5-8.2,19.8-18.9c0.2-10.7-8.2-19.5-18.9-19.8
	C1099.8,227.8,1099.6,227.8,1099.3,227.8z"/>
<circle class="st2" cx="1235.9" cy="247.2" r="39.3"/>
<path class="st3" d="M1235.9,207.8h-0.3v78.6h0.3c21.7,0,39.3-17.6,39.3-39.3S1257.7,207.9,1235.9,207.8
	C1235.9,207.8,1235.9,207.8,1235.9,207.8L1235.9,207.8z"/>
<path class="st4" d="M690.8,234.7v20.4h3.2v3.4h-9.8v-3.4h3.2v-17h-3.2v-3.4L690.8,234.7z"/>
<path class="st4" d="M820.9,253.4c0.1-2.3,1.3-4.3,3.2-5.5c2.1-1.5,3.2-2.8,3.2-3.9v-4.7c0-1.1-0.5-1.6-1.5-1.6l0,0
	c-1,0-1.5,0.5-1.5,1.6v3.2h-3.4v-3.2c0-3.3,1.6-5,4.9-5s4.9,1.7,4.9,5v4.7c-0.1,2.3-1.3,4.4-3.2,5.6c-2.1,1.5-3.2,2.9-3.2,4v1.4h6.4
	v3.4h-9.8L820.9,253.4z"/>
<path class="st4" d="M964,239.3c0-1.1-0.5-1.6-1.5-1.6l0,0c-1,0-1.5,0.5-1.5,1.6v3.2h-3.4v-3.2c0-3.3,1.6-5,4.9-5
	c3.3,0,4.9,1.7,4.9,5v4.1c0.1,1.4-0.6,2.7-1.9,3.3c1.2,0.6,2,1.9,1.9,3.3v3.8c0,3.3-1.6,5-4.9,5c-3.3,0-4.9-1.7-4.9-5v-3.2h3.4v3.2
	c0,1.1,0.5,1.6,1.5,1.6l0,0c1,0,1.5-0.5,1.5-1.6v-3.8c0-0.9-0.2-1.4-0.5-1.5c-0.3-0.1-0.6-0.1-0.9-0.1h-1.1V245h1.4
	c0.3,0,0.5,0,0.7-0.1c0.3-0.2,0.5-0.6,0.5-1.4L964,239.3z"/>
<path class="st4" d="M1103.6,234.7v15.6h1.3v3.4h-1.3v4.8h-3.4v-4.8h-6.9v-3l6-15.9L1103.6,234.7z M1096.6,250.3h3.6v-10.1
	L1096.6,250.3z"/>
<path class="st4" d="M1238.7,247.1c0-1.7-0.4-2.7-1.1-3c-0.6-0.2-1.3-0.3-1.9-0.3h-0.7c-1.4,0.1-2.2,0.7-2.4,1.9l-0.1,1.9h-7l1-25.8
	h19v6.9h-12.3l-0.5,10.4c1.2-1.4,3-2.1,4.8-2c0.3,0,0.6,0,0.9,0c2.2,0.1,4.2,1.2,5.5,2.9c1,1.4,1.6,3.7,1.6,7v13.7
	c0,6.8-3.3,10.1-10,10.1s-10-3.4-10-10.1v-5.7h7v5.7c0,2.2,1,3.3,3,3.3l0,0c2,0,3-1.1,3-3.3L1238.7,247.1z"/>
<g>
	<path class="st4" d="M470.5,540.1h2.1l4.9,17.7l4.9-17.7h2l-6,20.6h-2L470.5,540.1z"/>
	<path class="st4" d="M485.5,553.1c0-4.3,1.8-7.9,5.8-7.9c4,0,5.8,3.6,5.8,7.9s-1.8,7.9-5.8,7.9
		C487.2,561.1,485.5,557.5,485.5,553.1L485.5,553.1z M487.4,553.2c0,4,1.3,6.2,3.9,6.2c2.5,0,3.8-2.1,3.8-6.2c0-4-1.3-6.2-3.9-6.2
		C488.7,547,487.4,549.1,487.4,553.2L487.4,553.2z"/>
	<path class="st4" d="M511.3,560.7h-1.7c0-0.9,0-1.7,0.1-2.6c-0.8,2.2-2.5,3-4.2,3c-2.6,0-4.3-1.5-4.3-5.2v-10.3h1.9v9.7
		c0,1.5,0.2,3.9,2.9,3.9c2.2,0,3.6-1.5,3.6-4.7v-9h1.9V560.7z"/>
	<path class="st4" d="M522.1,549.5c0-1.9-1-2.6-2.4-2.6c-1.3,0-2.2,0.9-2.2,2.3c0,1.7,1.4,2.3,3.3,2.9c1.7,0.5,3.6,1.5,3.6,4.6
		c0,2.7-1.9,4.5-4.5,4.5c-2.8,0-4.6-1.6-4.7-4.8h1.8c0,2.1,1.2,3.1,2.9,3.1c1.6,0,2.6-1.1,2.6-2.6c0-1.8-1.3-2.6-3.3-3.2
		c-1.9-0.6-3.6-1.6-3.6-4.3c0-2.4,1.8-4,4.2-4c2.6,0,4.1,1.5,4.2,4.3H522.1z"/>
	<path class="st4" d="M536.4,540.1h1.9v20.6h-1.9V540.1z"/>
	<path class="st4" d="M553.4,560.7h-1.7c0-0.9,0-1.7,0.1-2.6c-0.8,2.2-2.5,3-4.2,3c-2.6,0-4.3-1.5-4.3-5.2v-10.3h1.9v9.7
		c0,1.5,0.2,3.9,2.9,3.9c2.2,0,3.6-1.5,3.6-4.7v-9h1.9V560.7z"/>
	<path class="st4" d="M558.5,540.1h1.9v2.7h-1.9V540.1z M558.5,545.6h1.9v15.1h-1.9V545.6z"/>
	<path class="st4" d="M573.5,547.3h-1.7v-1.8h1.7v-1.1c0-4.5,3.6-4.7,4.5-4.7v1.6c-1.4,0.1-2.6,0.8-2.6,3.2v1h2.6v1.8h-2.6v13.4
		h-1.9V547.3z"/>
	<path class="st4" d="M590.6,560.7h-1.7c0-1.3,0-2.2,0-2.9c-0.7,2.1-2.1,3.3-4,3.3c-3,0-5.1-3.2-5.1-7.9c0-4.7,1.9-8,5.1-8
		c1.7,0,3.2,0.9,4,3.3c0-0.9,0-1.8,0-2.9h1.7V560.7z M581.7,553.2c0,3.4,1.2,6.1,3.5,6.1c1.2,0,2-0.6,2.6-1.7
		c0.6-1.1,0.9-2.4,0.9-4.4c0-2-0.2-3.4-0.9-4.4c-0.6-1-1.4-1.7-2.6-1.7C582.9,547.1,581.7,549.7,581.7,553.2L581.7,553.2z"/>
	<path class="st4" d="M595.6,540.1h1.9v2.7h-1.9V540.1z M595.6,545.6h1.9v15.1h-1.9V545.6z"/>
	<path class="st4" d="M603.2,547.3h-2.1v-1.8h2.1v-4.8h1.9v4.8h2.1v1.8h-2.1v13.4h-1.9V547.3z"/>
	<path class="st4" d="M611.4,553.7c0,3.1,1.3,5.6,3.8,5.6c1.8,0,3-1.3,3.4-3h1.8c-0.3,1.6-1,2.8-1.9,3.6c-0.9,0.8-2.1,1.2-3.3,1.2
		c-4.2,0-5.8-4-5.8-7.9c0-4.7,2.2-8,5.7-8c1.8,0,3.2,0.8,4.1,2.1c1.2,1.8,1.4,4.1,1.4,6.3H611.4z M618.7,552.1
		c-0.1-3.1-1.4-5.3-3.6-5.3c-2.2,0-3.6,2.3-3.7,5.3H618.7z"/>
	<path class="st4" d="M632.4,545.6h1.7c0,1.1,0,2,0,2.9c0.8-2.3,2.2-3.3,4-3.3c3,0,5.1,3.1,5.1,8c0,4.6-1.9,7.9-5.1,7.9
		c-1.8,0-3.3-1.2-3.9-3.1c0.1,0.7,0.1,1.4,0.1,2.8v5.6h-1.9V545.6z M641.3,553.1c0-3.4-1.2-6.1-3.5-6.1c-1.2,0-2,0.6-2.6,1.7
		c-0.7,1-0.9,2.4-0.9,4.4c0,2,0.2,3.4,0.9,4.4c0.6,1,1.4,1.7,2.6,1.7C640.1,559.3,641.3,556.6,641.3,553.1L641.3,553.1z"/>
	<path class="st4" d="M657.1,560.7h-1.7c0-1.3,0-2.2,0-2.9c-0.7,2.1-2.1,3.3-4,3.3c-3,0-5.1-3.2-5.1-7.9c0-4.7,1.9-8,5.1-8
		c1.7,0,3.2,0.9,4,3.3c0-0.9,0-1.8,0-2.9h1.7V560.7z M648.2,553.2c0,3.4,1.2,6.1,3.5,6.1c1.2,0,2-0.6,2.6-1.7
		c0.6-1.1,0.9-2.4,0.9-4.4c0-2-0.2-3.4-0.9-4.4c-0.6-1-1.4-1.7-2.6-1.7C649.4,547.1,648.2,549.7,648.2,553.2L648.2,553.2z"/>
	<path class="st4" d="M668,549.5c0-1.9-1-2.6-2.4-2.6c-1.3,0-2.2,0.9-2.2,2.3c0,1.7,1.4,2.3,3.3,2.9c1.7,0.5,3.6,1.5,3.6,4.6
		c0,2.7-1.9,4.5-4.5,4.5c-2.8,0-4.6-1.6-4.7-4.8h1.8c0,2.1,1.2,3.1,2.9,3.1c1.6,0,2.6-1.1,2.6-2.6c0-1.8-1.3-2.6-3.3-3.2
		c-1.9-0.6-3.6-1.6-3.6-4.3c0-2.4,1.8-4,4.2-4c2.6,0,4.1,1.5,4.2,4.3H668z"/>
	<path class="st4" d="M680.3,549.5c0-1.9-1-2.6-2.4-2.6c-1.3,0-2.2,0.9-2.2,2.3c0,1.7,1.4,2.3,3.3,2.9c1.7,0.5,3.6,1.5,3.6,4.6
		c0,2.7-1.9,4.5-4.5,4.5c-2.8,0-4.6-1.6-4.7-4.8h1.8c0,2.1,1.2,3.1,2.9,3.1c1.6,0,2.6-1.1,2.6-2.6c0-1.8-1.3-2.6-3.3-3.2
		c-1.9-0.6-3.6-1.6-3.6-4.3c0-2.4,1.8-4,4.2-4c2.6,0,4.1,1.5,4.2,4.3H680.3z"/>
	<path class="st4" d="M687.8,553.7c0,3.1,1.3,5.6,3.8,5.6c1.8,0,3-1.3,3.4-3h1.8c-0.3,1.6-1,2.8-1.9,3.6c-0.9,0.8-2.1,1.2-3.3,1.2
		c-4.2,0-5.8-4-5.8-7.9c0-4.7,2.2-8,5.7-8c1.8,0,3.2,0.8,4.1,2.1c1.2,1.8,1.4,4.1,1.4,6.3H687.8z M695.1,552.1
		c-0.1-3.1-1.4-5.3-3.6-5.3c-2.2,0-3.6,2.3-3.7,5.3H695.1z"/>
	<path class="st4" d="M701,545.6h1.7c0,1.4,0,2.3-0.1,3.2c0.8-3,2.7-3.5,4-3.5v2.2c-0.2-0.1-0.4-0.2-0.7-0.2c-1.3,0-3.1,1.6-3.1,5.4
		v8.1H701V545.6z"/>
	<path class="st4" d="M727.8,560.7H726c0-0.9,0-1.7,0.1-2.6c-0.8,2.2-2.5,3-4.2,3c-2.6,0-4.3-1.5-4.3-5.2v-10.3h1.9v9.7
		c0,1.5,0.2,3.9,2.9,3.9c2.2,0,3.6-1.5,3.6-4.7v-9h1.9V560.7z"/>
	<path class="st4" d="M732.5,545.6h1.7c0,0.9,0,1.6-0.1,2.6c0.8-2.1,2.5-3,4.3-3c2.6,0,4.3,1.5,4.3,5.2v10.3h-1.9V551
		c0-1.5-0.2-3.9-2.9-3.9c-2.2,0-3.6,1.5-3.6,4.7v9h-1.9V545.6z"/>
	<path class="st4" d="M755.5,548.4h-1.7v-3.5h1.7v-3h3.7v3h1.7v3.5h-1.7v12.3h-3.7V548.4z"/>
	<path class="st4" d="M767.1,554.2c0,1.6,0.4,3.4,2.1,3.4c1,0,1.7-0.6,1.9-1.9h3.7c-0.3,2.2-1.2,3.6-2.3,4.4c-1.1,0.8-2.3,1-3.4,1
		c-4.1,0-6.1-3.7-6.1-8.2s1.9-8.2,6.1-8.2c2.1,0,3.6,0.9,4.6,2.5c1.2,2,1.3,4.6,1.2,7H767.1z M771.2,551c0-0.9-0.1-3.3-2-3.3
		c-1.3,0-2.1,1.1-2.1,3.3H771.2z"/>
	<path class="st4" d="M784.6,549.6c-0.1-1.2-0.5-1.8-1.7-1.8c-0.9,0-1.3,0.5-1.3,1.2c0,1.3,1.8,1.4,3.6,2c1.8,0.6,3.6,1.6,3.6,4.8
		c0,3-2.3,5.2-5.6,5.2c-3,0-5.4-1.7-5.8-5.4h3.7c0.1,1.2,0.9,2,2.1,2c1.2,0,1.5-0.8,1.5-1.6c0-1.4-1.8-1.5-3.6-2.1
		c-1.8-0.6-3.6-1.7-3.6-4.8c0-2.6,1.8-4.6,5.4-4.6c3.5,0,5.1,1.9,5.3,5H784.6z"/>
	<path class="st4" d="M792.5,548.4h-1.7v-3.5h1.7v-3h3.7v3h1.7v3.5h-1.7v12.3h-3.7V548.4z"/>
	<path class="st4" d="M810.2,548.4h-1.7v-3.5h1.7v-3h3.7v3h1.7v3.5H814v12.3h-3.7V548.4z"/>
	<path class="st4" d="M821.8,554.2c0,1.6,0.4,3.4,2.1,3.4c1,0,1.7-0.6,1.9-1.9h3.7c-0.3,2.2-1.2,3.6-2.3,4.4c-1.1,0.8-2.3,1-3.4,1
		c-4.1,0-6.1-3.7-6.1-8.2s1.9-8.2,6.1-8.2c2.1,0,3.6,0.9,4.6,2.5c1.2,2,1.3,4.6,1.2,7H821.8z M825.9,551c0-0.9-0.1-3.3-2-3.3
		c-1.3,0-2.1,1.1-2.1,3.3H825.9z"/>
	<path class="st4" d="M843.7,554.7c0,3.2-1.6,6.3-5.1,6.3c-3.8,0-6.1-3-6.1-8.2s2.4-8.2,6.1-8.2c3.5,0,5.1,3.1,5.1,6.3h-3.9
		c0-1.9-0.5-2.8-1.5-2.8c-0.6,0-1.1,0.3-1.4,1c-0.3,0.7-0.5,1.9-0.5,3.7c0,3.6,0.7,4.7,1.9,4.7c1.1,0,1.5-1.3,1.5-2.8H843.7z"/>
	<path class="st4" d="M846.9,540.1h3.7v4.5v1.3c0.3-0.6,0.9-1.3,2.8-1.3c1.4,0,2.5,0.5,3.1,1.3c0.7,0.8,1,1.9,1,3.3v11.5h-3.7v-10.4
		c0-0.5-0.1-1-0.3-1.4c-0.2-0.4-0.6-0.6-1.2-0.6c-0.5,0-0.9,0.1-1.2,0.4c-0.3,0.3-0.5,0.7-0.5,1.3v10.7h-3.7V540.1z"/>
	<path class="st4" d="M861.9,544.9h3.2v1.5c0.6-1.1,1.4-1.8,3.4-1.8c2.5,0,4.1,1.4,4.1,4.6v11.5h-3.7v-10.3c0-1.1-0.3-2.1-1.6-2.1
		c-1,0-1.7,0.5-1.7,1.8v10.6h-3.7V544.9z"/>
	<path class="st4" d="M877.4,540.1h3.7v3.1h-3.7V540.1z M877.4,544.9h3.7v15.8h-3.7V544.9z"/>
	<path class="st4" d="M896.5,565.7h-3.7v-5c0-0.4,0-0.9,0-1.4c-0.6,1.2-1.5,1.7-2.8,1.7c-3.2,0-5-2.9-5-8.2c0-5.7,2.1-8.2,5-8.2
		c1.5,0,2.8,0.8,2.9,1.8v-1.5h3.5V565.7z M888.8,552.9c0,3.5,0.8,4.5,2,4.5c0.8,0,1.1-0.2,1.5-0.7c0.5-0.6,0.5-1.3,0.5-3.8
		c0-2.5,0-3.2-0.5-3.8c-0.4-0.5-0.7-0.7-1.5-0.7C889.6,548.3,888.8,549.3,888.8,552.9L888.8,552.9z"/>
	<path class="st4" d="M911.5,560.7h-3.4v-1.7c-0.5,1.3-1.3,2-3.2,2c-2.5,0-4.1-1.4-4.1-4.6v-11.6h3.7v10.3c0,1.1,0.3,2.1,1.6,2.1
		c1,0,1.7-0.5,1.7-1.8v-10.6h3.7V560.7z"/>
	<path class="st4" d="M919.3,554.2c0,1.6,0.4,3.4,2.1,3.4c1,0,1.7-0.6,1.9-1.9h3.7c-0.3,2.2-1.2,3.6-2.3,4.4c-1.1,0.8-2.3,1-3.4,1
		c-4.1,0-6.1-3.7-6.1-8.2s1.9-8.2,6.1-8.2c2.1,0,3.6,0.9,4.6,2.5c1.2,2,1.3,4.6,1.2,7H919.3z M923.4,551c0-0.9-0.1-3.3-2-3.3
		c-1.3,0-2.1,1.1-2.1,3.3H923.4z"/>
	<path class="st4" d="M938.9,545.6h1.7c0,1.1,0,2,0,2.9c0.8-2.3,2.2-3.3,4-3.3c3,0,5.1,3.1,5.1,8c0,4.6-1.9,7.9-5.1,7.9
		c-1.8,0-3.3-1.2-3.9-3.1c0.1,0.7,0.1,1.4,0.1,2.8v5.6h-1.9V545.6z M947.8,553.1c0-3.4-1.2-6.1-3.5-6.1c-1.2,0-2,0.6-2.6,1.7
		c-0.7,1-0.9,2.4-0.9,4.4c0,2,0.3,3.4,0.9,4.4c0.6,1,1.4,1.7,2.6,1.7C946.6,559.3,947.8,556.6,947.8,553.1L947.8,553.1z"/>
	<path class="st4" d="M952.9,553.1c0-4.3,1.8-7.9,5.8-7.9c4,0,5.8,3.6,5.8,7.9s-1.8,7.9-5.8,7.9
		C954.6,561.1,952.9,557.5,952.9,553.1L952.9,553.1z M954.8,553.2c0,4,1.3,6.2,3.9,6.2c2.5,0,3.8-2.1,3.8-6.2c0-4-1.3-6.2-3.9-6.2
		C956.1,547,954.8,549.1,954.8,553.2L954.8,553.2z"/>
	<path class="st4" d="M978.7,560.7h-1.7c0-0.9,0-1.7,0.1-2.6c-0.8,2.2-2.5,3-4.2,3c-2.6,0-4.3-1.5-4.3-5.2v-10.3h1.9v9.7
		c0,1.5,0.2,3.9,2.9,3.9c2.2,0,3.6-1.5,3.6-4.7v-9h1.9V560.7z"/>
	<path class="st4" d="M983.4,545.6h1.7c0,1.4,0,2.3-0.1,3.2c0.8-3,2.7-3.5,4-3.5v2.2c-0.2-0.1-0.4-0.2-0.7-0.2
		c-1.3,0-3.1,1.6-3.1,5.4v8.1h-1.9V545.6z"/>
	<path class="st4" d="M1001.3,553.7c0,3.1,1.3,5.6,3.8,5.6c1.8,0,3-1.3,3.4-3h1.8c-0.3,1.6-1,2.8-1.9,3.6c-0.9,0.8-2.1,1.2-3.3,1.2
		c-4.2,0-5.8-4-5.8-7.9c0-4.7,2.2-8,5.7-8c1.8,0,3.2,0.8,4.1,2.1c1.2,1.8,1.4,4.1,1.4,6.3H1001.3z M1008.6,552.1
		c-0.1-3.1-1.4-5.3-3.6-5.3c-2.2,0-3.6,2.3-3.7,5.3H1008.6z M1008,539.3l0.8,1.5l-6.2,3.3l-0.7-1.3L1008,539.3z"/>
	<path class="st4" d="M1018.9,560.7h-1.9l-4.6-15.1h1.9l3.6,12.6l3.5-12.6h1.9L1018.9,560.7z"/>
	<path class="st4" d="M1036,560.7h-1.7c0-1.3,0-2.2,0-2.9c-0.7,2.1-2.1,3.3-4,3.3c-3,0-5.1-3.2-5.1-7.9c0-4.7,1.9-8,5.1-8
		c1.7,0,3.2,0.9,4,3.3c0-0.9,0-1.8,0-2.9h1.7V560.7z M1027.1,553.2c0,3.4,1.2,6.1,3.5,6.1c1.2,0,2-0.6,2.6-1.7
		c0.6-1.1,0.9-2.4,0.9-4.4c0-2-0.2-3.4-0.9-4.4c-0.6-1-1.4-1.7-2.6-1.7C1028.3,547.1,1027.1,549.7,1027.1,553.2L1027.1,553.2z"/>
	<path class="st4" d="M1041,540.1h1.9v20.6h-1.9V540.1z"/>
	<path class="st4" d="M1058,560.7h-1.7c0-0.9,0-1.7,0.1-2.6c-0.8,2.2-2.5,3-4.2,3c-2.6,0-4.3-1.5-4.3-5.2v-10.3h1.9v9.7
		c0,1.5,0.2,3.9,2.9,3.9c2.2,0,3.6-1.5,3.6-4.7v-9h1.9V560.7z"/>
	<path class="st4" d="M1064,553.7c0,3.1,1.3,5.6,3.8,5.6c1.8,0,3-1.3,3.4-3h1.8c-0.3,1.6-1,2.8-1.9,3.6c-0.9,0.8-2.1,1.2-3.3,1.2
		c-4.2,0-5.8-4-5.8-7.9c0-4.7,2.2-8,5.7-8c1.8,0,3.2,0.8,4.1,2.1c1.2,1.8,1.4,4.1,1.4,6.3H1064z M1071.4,552.1
		c-0.1-3.1-1.4-5.3-3.6-5.3c-2.2,0-3.6,2.3-3.7,5.3H1071.4z"/>
	<path class="st4" d="M1077.2,545.6h1.7c0,1.4,0,2.3-0.1,3.2c0.8-3,2.7-3.5,4-3.5v2.2c-0.2-0.1-0.4-0.2-0.7-0.2
		c-1.3,0-3.1,1.6-3.1,5.4v8.1h-1.9V545.6z"/>
	<path class="st4" d="M1100,549.5c0-1.9-1-2.6-2.4-2.6c-1.3,0-2.2,0.9-2.2,2.3c0,1.7,1.4,2.3,3.3,2.9c1.7,0.5,3.6,1.5,3.6,4.6
		c0,2.7-1.9,4.5-4.5,4.5c-2.8,0-4.6-1.6-4.7-4.8h1.8c0,2.1,1.2,3.1,2.9,3.1c1.6,0,2.6-1.1,2.6-2.6c0-1.8-1.3-2.6-3.3-3.2
		c-1.9-0.6-3.6-1.6-3.6-4.3c0-2.4,1.8-4,4.2-4c2.6,0,4.1,1.5,4.2,4.3H1100z"/>
	<path class="st4" d="M1107.4,553.7c0,3.1,1.3,5.6,3.8,5.6c1.8,0,3-1.3,3.4-3h1.8c-0.3,1.6-1,2.8-1.9,3.6c-0.9,0.8-2.1,1.2-3.3,1.2
		c-4.2,0-5.8-4-5.8-7.9c0-4.7,2.2-8,5.7-8c1.8,0,3.2,0.8,4.1,2.1c1.2,1.8,1.4,4.1,1.4,6.3H1107.4z M1114.8,552.1
		c-0.1-3.1-1.4-5.3-3.6-5.3c-2.2,0-3.6,2.3-3.7,5.3H1114.8z"/>
	<path class="st4" d="M1126.7,549.5c0-1.9-1-2.6-2.4-2.6c-1.3,0-2.2,0.9-2.2,2.3c0,1.7,1.4,2.3,3.3,2.9c1.7,0.5,3.6,1.5,3.6,4.6
		c0,2.7-1.9,4.5-4.5,4.5c-2.8,0-4.6-1.6-4.7-4.8h1.8c0,2.1,1.2,3.1,2.9,3.1c1.6,0,2.6-1.1,2.6-2.6c0-1.8-1.3-2.6-3.3-3.2
		c-1.9-0.6-3.6-1.6-3.6-4.3c0-2.4,1.8-4,4.2-4c2.6,0,4.1,1.5,4.2,4.3H1126.7z"/>
	<path class="st4" d="M1150.7,555.6c-0.3,3.1-2,5.5-5,5.5c-4,0-5.8-3.8-5.8-7.9c0-5,2.3-8,5.8-8c3.1,0,4.9,2.4,5,5.6h-1.9
		c-0.3-3-1.8-3.8-3.2-3.8c-1.1,0-2.1,0.4-2.8,1.6c-0.7,1.2-1,2.6-1,4.6c0,4,1.4,6.2,3.8,6.2c1.9,0,2.9-1.5,3.2-3.8H1150.7z"/>
	<path class="st4" d="M1153.5,553.1c0-4.3,1.8-7.9,5.8-7.9c4,0,5.8,3.6,5.8,7.9s-1.8,7.9-5.8,7.9
		C1155.2,561.1,1153.5,557.5,1153.5,553.1L1153.5,553.1z M1155.4,553.2c0,4,1.3,6.2,3.9,6.2c2.5,0,3.8-2.1,3.8-6.2
		c0-4-1.3-6.2-3.9-6.2C1156.7,547,1155.4,549.1,1155.4,553.2L1155.4,553.2z"/>
	<path class="st4" d="M1169.1,545.6h1.7c0,0.9,0,1.6-0.1,2.6c0.8-2.1,2.5-3,4.3-3c2.6,0,4.3,1.5,4.3,5.2v10.3h-1.9V551
		c0-1.5-0.2-3.9-2.9-3.9c-2.2,0-3.6,1.5-3.6,4.7v9h-1.9V545.6z"/>
	<path class="st4" d="M1184,545.6h1.7c0,0.9,0,1.6-0.1,2.6c0.8-2.1,2.5-3,4.3-3c2.6,0,4.3,1.5,4.3,5.2v10.3h-1.9V551
		c0-1.5-0.2-3.9-2.9-3.9c-2.2,0-3.6,1.5-3.6,4.7v9h-1.9V545.6z"/>
	<path class="st4" d="M1208.9,560.7h-1.7c0-1.3,0-2.2,0-2.9c-0.7,2.1-2.1,3.3-4,3.3c-3,0-5.1-3.2-5.1-7.9c0-4.7,1.9-8,5.1-8
		c1.7,0,3.2,0.9,4,3.3c0-0.9,0-1.8,0-2.9h1.7V560.7z M1200,553.2c0,3.4,1.2,6.1,3.5,6.1c1.2,0,2-0.6,2.6-1.7
		c0.6-1.1,0.9-2.4,0.9-4.4c0-2-0.2-3.4-0.9-4.4c-0.6-1-1.4-1.7-2.6-1.7C1201.3,547.1,1200,549.7,1200,553.2L1200,553.2z"/>
	<path class="st4" d="M1213.9,540.1h1.9v2.7h-1.9V540.1z M1213.9,545.6h1.9v15.1h-1.9V545.6z"/>
	<path class="st4" d="M1226.9,549.5c0-1.9-1-2.6-2.4-2.6c-1.3,0-2.2,0.9-2.2,2.3c0,1.7,1.4,2.3,3.3,2.9c1.7,0.5,3.6,1.5,3.6,4.6
		c0,2.7-1.9,4.5-4.5,4.5c-2.8,0-4.6-1.6-4.7-4.8h1.8c0,2.1,1.2,3.1,2.9,3.1c1.6,0,2.6-1.1,2.6-2.6c0-1.8-1.3-2.6-3.3-3.2
		c-1.9-0.6-3.6-1.6-3.6-4.3c0-2.4,1.8-4,4.2-4c2.6,0,4.1,1.5,4.2,4.3H1226.9z"/>
	<path class="st4" d="M1239.2,549.5c0-1.9-1-2.6-2.4-2.6c-1.3,0-2.2,0.9-2.2,2.3c0,1.7,1.4,2.3,3.3,2.9c1.7,0.5,3.6,1.5,3.6,4.6
		c0,2.7-1.9,4.5-4.5,4.5c-2.8,0-4.6-1.6-4.7-4.8h1.8c0,2.1,1.2,3.1,2.9,3.1c1.6,0,2.6-1.1,2.6-2.6c0-1.8-1.3-2.6-3.3-3.2
		c-1.9-0.6-3.6-1.6-3.6-4.3c0-2.4,1.8-4,4.2-4c2.6,0,4.1,1.5,4.2,4.3H1239.2z"/>
	<path class="st4" d="M1255.4,560.7h-1.7c0-1.3,0-2.2,0-2.9c-0.7,2.1-2.1,3.3-4,3.3c-3,0-5.1-3.2-5.1-7.9c0-4.7,1.9-8,5.1-8
		c1.7,0,3.2,0.9,4,3.3c0-0.9,0-1.8,0-2.9h1.7V560.7z M1246.5,553.2c0,3.4,1.2,6.1,3.5,6.1c1.2,0,2-0.6,2.6-1.7
		c0.6-1.1,0.9-2.4,0.9-4.4c0-2-0.2-3.4-0.9-4.4c-0.6-1-1.4-1.7-2.6-1.7C1247.8,547.1,1246.5,549.7,1246.5,553.2L1246.5,553.2z"/>
	<path class="st4" d="M1260.2,545.6h1.7c0,0.9,0,1.6-0.1,2.6c0.8-2.1,2.5-3,4.3-3c2.6,0,4.3,1.5,4.3,5.2v10.3h-1.9V551
		c0-1.5-0.2-3.9-2.9-3.9c-2.2,0-3.6,1.5-3.6,4.7v9h-1.9V545.6z"/>
	<path class="st4" d="M1285.1,555.6c-0.3,3.1-2,5.5-5,5.5c-4,0-5.8-3.8-5.8-7.9c0-5,2.3-8,5.8-8c3.1,0,4.9,2.4,5,5.6h-1.9
		c-0.3-3-1.8-3.8-3.2-3.8c-1.1,0-2.1,0.4-2.8,1.6c-0.7,1.2-1,2.6-1,4.6c0,4,1.4,6.2,3.8,6.2c1.9,0,2.9-1.5,3.2-3.8H1285.1z"/>
	<path class="st4" d="M1289.9,553.7c0,3.1,1.3,5.6,3.8,5.6c1.8,0,3-1.3,3.4-3h1.8c-0.3,1.6-1,2.8-1.9,3.6c-0.9,0.8-2.1,1.2-3.3,1.2
		c-4.2,0-5.8-4-5.8-7.9c0-4.7,2.2-8,5.7-8c1.8,0,3.2,0.8,4.1,2.1c1.2,1.8,1.4,4.1,1.4,6.3H1289.9z M1297.2,552.1
		c-0.1-3.1-1.4-5.3-3.6-5.3c-2.2,0-3.6,2.3-3.7,5.3H1297.2z"/>
	<path class="st4" d="M1309.2,549.5c0-1.9-1-2.6-2.4-2.6c-1.3,0-2.2,0.9-2.2,2.3c0,1.7,1.4,2.3,3.3,2.9c1.7,0.5,3.6,1.5,3.6,4.6
		c0,2.7-1.9,4.5-4.5,4.5c-2.8,0-4.6-1.6-4.7-4.8h1.8c0,2.1,1.2,3.1,2.9,3.1c1.6,0,2.6-1.1,2.6-2.6c0-1.8-1.3-2.6-3.3-3.2
		c-1.9-0.6-3.6-1.6-3.6-4.3c0-2.4,1.8-4,4.2-4c2.6,0,4.1,1.5,4.2,4.3H1309.2z"/>
	<path class="st4" d="M1317.6,560.7h-1.9v-3h1.9V560.7z"/>
	<path class="st4" d="M470.7,609.1h4.1l3.4,14.2l3.5-14.2h4l-5.6,20.6h-3.7L470.7,609.1z"/>
	<path class="st4" d="M486.7,621.8c0-4.5,1.9-8.2,6.1-8.2c4.1,0,6.1,3.7,6.1,8.2s-1.9,8.2-6.1,8.2
		C488.7,630.1,486.7,626.4,486.7,621.8L486.7,621.8z M490.7,621.9c0,3.7,0.8,4.7,2.2,4.7c1.3,0,2.1-1,2.1-4.7s-0.8-4.7-2.2-4.7
		C491.5,617.1,490.7,618.1,490.7,621.9L490.7,621.9z"/>
	<path class="st4" d="M513.2,629.7h-3.4v-1.7c-0.5,1.3-1.3,2-3.2,2c-2.5,0-4.1-1.4-4.1-4.6v-11.6h3.7v10.3c0,1.1,0.3,2.1,1.6,2.1
		c1,0,1.7-0.5,1.7-1.8v-10.6h3.7V629.7z"/>
	<path class="st4" d="M523.5,618.6c-0.1-1.2-0.5-1.8-1.7-1.8c-0.9,0-1.3,0.5-1.3,1.2c0,1.3,1.8,1.4,3.6,2c1.8,0.6,3.6,1.6,3.6,4.8
		c0,3-2.3,5.2-5.6,5.2c-3,0-5.4-1.7-5.8-5.4h3.7c0.1,1.2,0.9,2,2.1,2c1.2,0,1.5-0.8,1.5-1.6c0-1.4-1.8-1.5-3.6-2.1
		c-1.8-0.6-3.6-1.7-3.6-4.8c0-2.6,1.8-4.6,5.4-4.6c3.5,0,5.1,1.9,5.3,5H523.5z"/>
	<path class="st4" d="M539.9,613.9h3.2v1.5c0.6-1.1,1.4-1.8,3.4-1.8c2.5,0,4.1,1.4,4.1,4.6v11.5h-3.7v-10.3c0-1.1-0.2-2.1-1.6-2.1
		c-1,0-1.7,0.5-1.7,1.8v10.6h-3.7V613.9z"/>
	<path class="st4" d="M558.3,623.2c0,1.6,0.4,3.4,2.1,3.4c1,0,1.7-0.6,1.9-1.9h3.7c-0.3,2.2-1.2,3.6-2.3,4.4c-1.1,0.8-2.3,1-3.4,1
		c-4.1,0-6.1-3.7-6.1-8.2s1.9-8.2,6.1-8.2c2.1,0,3.6,0.9,4.6,2.5c1.2,2,1.3,4.6,1.2,7H558.3z M562.4,620c0-0.9-0.1-3.3-2-3.3
		c-1.3,0-2.1,1.1-2.1,3.3H562.4z"/>
	<path class="st4" d="M579.2,609.1h3.7v20.6h-3.7V609.1z"/>
	<path class="st4" d="M591,623.2c0,1.6,0.4,3.4,2.1,3.4c1,0,1.7-0.6,1.9-1.9h3.7c-0.3,2.2-1.2,3.6-2.3,4.4c-1.1,0.8-2.3,1-3.4,1
		c-4.1,0-6.1-3.7-6.1-8.2s1.9-8.2,6.1-8.2c2.1,0,3.6,0.9,4.6,2.5c1.2,2,1.3,4.6,1.2,7H591z M595.1,620c0-0.9-0.1-3.3-2-3.3
		c-1.3,0-2.1,1.1-2.1,3.3H595.1z"/>
	<path class="st4" d="M611.5,613.9h3.4v2.1c0.6-2,1.9-2.4,4-2.4v4.6c-0.5-0.4-1.1-0.5-1.6-0.5c-1.4,0-2,1.2-2,2.8v9.2h-3.7V613.9z"
		/>
	<path class="st4" d="M624.8,623.2c0,1.6,0.4,3.4,2.1,3.4c1,0,1.7-0.6,1.9-1.9h3.7c-0.3,2.2-1.2,3.6-2.3,4.4c-1.1,0.8-2.3,1-3.4,1
		c-4.1,0-6.1-3.7-6.1-8.2s1.9-8.2,6.1-8.2c2.1,0,3.6,0.9,4.6,2.5c1.2,2,1.3,4.6,1.2,7H624.8z M629,620c0-0.9-0.1-3.3-2-3.3
		c-1.3,0-2.1,1.1-2.1,3.3H629z"/>
	<path class="st4" d="M636.9,617.4h-1.7v-3.5h1.7v-3h3.7v3h1.7v3.5h-1.7v12.3h-3.7V617.4z"/>
	<path class="st4" d="M645.7,609.1h3.7v3.1h-3.7V609.1z M645.7,613.9h3.7v15.8h-3.7V613.9z"/>
	<path class="st4" d="M657.6,623.2c0,1.6,0.4,3.4,2.1,3.4c1,0,1.7-0.6,1.9-1.9h3.7c-0.3,2.2-1.2,3.6-2.3,4.4c-1.1,0.8-2.3,1-3.4,1
		c-4.1,0-6.1-3.7-6.1-8.2s1.9-8.2,6.1-8.2c2.1,0,3.6,0.9,4.6,2.5c1.2,2,1.3,4.6,1.2,7H657.6z M661.7,620c0-0.9-0.1-3.3-2-3.3
		c-1.3,0-2.1,1.1-2.1,3.3H661.7z"/>
	<path class="st4" d="M669.2,613.9h3.2v1.5c0.6-1.1,1.4-1.8,3.4-1.8c2.5,0,4.1,1.4,4.1,4.6v11.5h-3.7v-10.3c0-1.1-0.3-2.1-1.6-2.1
		c-1,0-1.7,0.5-1.7,1.8v10.6h-3.7V613.9z"/>
	<path class="st4" d="M694.9,629.7h-3.4V628c-0.3,1.3-1.6,2.1-3.1,2.1c-2.8,0-5-2.6-5-8.2c0-5.3,1.8-8.2,5-8.2
		c1.3,0,2.2,0.5,2.8,1.7c0-0.4,0-0.9,0-1.3v-4.8h3.7V629.7z M687.2,621.9c0,3.5,0.8,4.5,2,4.5c0.8,0,1.1-0.2,1.5-0.7
		c0.5-0.6,0.5-1.3,0.5-3.8c0-2.5,0-3.2-0.5-3.8c-0.4-0.5-0.7-0.7-1.5-0.7C688,617.3,687.2,618.3,687.2,621.9L687.2,621.9z"/>
	<path class="st4" d="M699.2,613.9h3.4v2.1c0.6-2,1.9-2.4,4-2.4v4.6c-0.5-0.4-1.1-0.5-1.6-0.5c-1.4,0-2,1.2-2,2.8v9.2h-3.7V613.9z"
		/>
	<path class="st4" d="M712.6,623.2c0,1.6,0.4,3.4,2.1,3.4c1,0,1.7-0.6,1.9-1.9h3.7c-0.3,2.2-1.2,3.6-2.3,4.4c-1.1,0.8-2.3,1-3.4,1
		c-4.1,0-6.1-3.7-6.1-8.2s1.9-8.2,6.1-8.2c2.1,0,3.6,0.9,4.6,2.5c1.2,2,1.3,4.6,1.2,7H712.6z M716.7,620c0-0.9-0.1-3.3-2-3.3
		c-1.3,0-2.1,1.1-2.1,3.3H716.7z"/>
	<path class="st4" d="M723.4,626.2l5.8-8.8H724v-3.5h9.7v3.5l-5.7,8.8h5.7v3.5h-10.2V626.2z"/>
	<path class="st4" d="M746.5,613.9h3.4v1.5c0.5-1,1.4-1.8,3.1-1.8c2.8,0,5,2.6,5,8.2c0,5.3-1.8,8.2-5,8.2c-1.3,0-2.2-0.6-2.7-1.5
		v1.2v5h-3.7V613.9z M754.3,621.8c0-3.5-0.7-4.5-2-4.5c-0.6,0-1,0.2-1.4,0.7c-0.5,0.6-0.6,1.3-0.6,3.8c0,2.5,0.1,3.2,0.6,3.8
		c0.4,0.5,0.7,0.7,1.4,0.7C753.5,626.3,754.3,625.3,754.3,621.8L754.3,621.8z"/>
	<path class="st4" d="M772.3,629.7h-3.4v-1.5c-0.7,1.3-1.6,1.8-3.1,1.8c-2.8,0-5-2.6-5-8.2c0-5.3,1.8-8.2,5-8.2
		c1.3,0,2.5,0.5,3.1,1.9v-1.6h3.4V629.7z M764.6,621.9c0,3.5,0.8,4.5,2,4.5c0.8,0,1.1-0.2,1.5-0.7c0.5-0.6,0.5-1.3,0.5-3.8
		c0-2.5,0-3.2-0.5-3.8c-0.4-0.5-0.7-0.7-1.5-0.7C765.3,617.3,764.6,618.3,764.6,621.9L764.6,621.9z"/>
	<path class="st4" d="M782.6,618.6c-0.1-1.2-0.5-1.8-1.7-1.8c-0.9,0-1.3,0.5-1.3,1.2c0,1.3,1.8,1.4,3.6,2c1.8,0.6,3.6,1.6,3.6,4.8
		c0,3-2.3,5.2-5.6,5.2c-3,0-5.4-1.7-5.8-5.4h3.7c0.1,1.2,0.9,2,2.1,2c1.2,0,1.5-0.8,1.5-1.6c0-1.4-1.8-1.5-3.6-2.1
		c-1.8-0.6-3.6-1.7-3.6-4.8c0-2.6,1.8-4.6,5.4-4.6c3.5,0,5.1,1.9,5.3,5H782.6z"/>
	<path class="st4" d="M798.2,614.6h1.8c0,0.8,0,1.6-0.1,2.5c0.8-2.4,2.5-2.8,3.8-2.8c1.1,0,1.9,0.3,2.6,1c0.4,0.4,0.7,1.1,0.8,1.8
		c0.3-0.8,0.7-1.4,1.3-1.9c0.8-0.6,1.7-0.9,2.8-0.9c1.8,0,2.9,0.9,3.5,1.9c0.6,0.9,0.7,2.6,0.7,4.1v9.4h-1.9v-9.3
		c0-1.1-0.1-2.1-0.3-2.8c-0.3-1-1.3-1.6-2.3-1.6c-0.9,0-1.7,0.2-2.4,1.2c-0.6,0.9-0.8,2.2-0.8,3.3v9.1h-1.9v-9.2c0-1.2,0-2-0.3-2.9
		c-0.3-1-1.2-1.6-2.3-1.6c-0.9,0-1.8,0.3-2.4,1.2c-0.7,0.9-0.8,2.2-0.8,3.4v9.1h-1.9V614.6z"/>
	<path class="st4" d="M830.2,629.7h-1.7c0-1.3,0-2.2,0-2.9c-0.7,2.1-2.1,3.3-4,3.3c-3,0-5.1-3.2-5.1-7.9c0-4.7,1.9-8,5.1-8
		c1.7,0,3.2,0.9,4,3.3c0-0.9,0-1.8,0-2.9h1.7V629.7z M821.3,622.2c0,3.4,1.2,6.1,3.5,6.1c1.2,0,2-0.6,2.6-1.7
		c0.6-1.1,0.9-2.4,0.9-4.4c0-2-0.2-3.4-0.9-4.4c-0.6-1-1.4-1.7-2.6-1.7C822.5,616.1,821.3,618.7,821.3,622.2L821.3,622.2z"/>
	<path class="st4" d="M835.2,609.1h1.9v20.6h-1.9V609.1z"/>
	<path class="st4" d="M852,629.5c0,2.2-0.4,3.6-1.3,4.5c-0.9,1.1-2.3,1.7-4.1,1.7c-1.8,0-4.9-1.1-5.1-4.8h1.9c0.1,1,0.3,1.6,0.9,2.1
		c0.7,0.7,1.6,0.9,2.4,0.9c1.6,0,3.4-0.7,3.4-4.3c0-0.7,0-1.7,0-2.7c-0.6,2-1.9,3.2-3.9,3.2c-3.3,0-5.1-3.3-5.1-7.9
		c0-4.7,1.8-8,5.1-8c1.8,0,3.2,0.8,4.1,3.3c0-0.9,0-1.8,0-2.9h1.6V629.5z M843.1,622.2c0,3.4,1.2,6.1,3.5,6.1c1.2,0,2-0.6,2.6-1.7
		c0.6-1.1,0.9-2.4,0.9-4.4c0-2-0.2-3.4-0.9-4.4c-0.6-1-1.4-1.7-2.6-1.7C844.3,616.1,843.1,618.7,843.1,622.2L843.1,622.2z"/>
	<path class="st4" d="M856.8,614.6h1.7c0,1.4,0,2.3-0.1,3.2c0.8-3,2.7-3.5,4-3.5v2.2c-0.2-0.1-0.4-0.2-0.7-0.2
		c-1.3,0-3.1,1.6-3.1,5.4v8.1h-1.9V614.6z"/>
	<path class="st4" d="M866.5,622.7c0,3.1,1.3,5.6,3.8,5.6c1.8,0,3-1.3,3.4-3h1.8c-0.3,1.6-1,2.8-1.9,3.6c-0.9,0.8-2.1,1.2-3.3,1.2
		c-4.2,0-5.8-4-5.8-7.9c0-4.7,2.2-8,5.7-8c1.8,0,3.2,0.8,4.1,2.1c1.2,1.8,1.4,4.1,1.4,6.3H866.5z M873.8,621.1
		c-0.1-3.1-1.4-5.3-3.6-5.3c-2.2,0-3.6,2.3-3.7,5.3H873.8z M873.3,608.3l0.8,1.5l-6.2,3.3l-0.7-1.3L873.3,608.3z"/>
	<path class="st4" d="M893.6,618.5c0-1.9-1-2.6-2.4-2.6c-1.3,0-2.2,0.9-2.2,2.3c0,1.7,1.4,2.3,3.3,2.9c1.7,0.5,3.6,1.5,3.6,4.6
		c0,2.7-1.9,4.5-4.5,4.5c-2.8,0-4.6-1.6-4.7-4.8h1.8c0,2.1,1.2,3.1,2.9,3.1c1.6,0,2.6-1.1,2.6-2.6c0-1.8-1.3-2.6-3.3-3.2
		c-1.9-0.6-3.6-1.6-3.6-4.3c0-2.4,1.8-4,4.2-4c2.6,0,4.1,1.5,4.2,4.3H893.6z"/>
	<path class="st4" d="M899.1,622.1c0-4.3,1.8-7.9,5.8-7.9c4,0,5.8,3.6,5.8,7.9s-1.8,7.9-5.8,7.9
		C900.8,630.1,899.1,626.5,899.1,622.1L899.1,622.1z M901,622.2c0,4,1.3,6.2,3.9,6.2c2.5,0,3.8-2.1,3.8-6.2c0-4-1.3-6.2-3.9-6.2
		C902.3,616,901,618.1,901,622.2L901,622.2z"/>
	<path class="st4" d="M914.7,614.6h1.7c0,0.9,0,1.6-0.1,2.6c0.8-2.1,2.5-3,4.3-3c2.6,0,4.3,1.5,4.3,5.2v10.3h-1.9V620
		c0-1.5-0.2-3.9-2.9-3.9c-2.2,0-3.6,1.5-3.6,4.7v9h-1.9V614.6z"/>
	<path class="st4" d="M938.6,622.7c0,3.1,1.3,5.6,3.8,5.6c1.8,0,3-1.3,3.4-3h1.8c-0.3,1.6-1,2.8-1.9,3.6c-0.9,0.8-2.1,1.2-3.3,1.2
		c-4.2,0-5.8-4-5.8-7.9c0-4.7,2.2-8,5.7-8c1.8,0,3.2,0.8,4.1,2.1c1.2,1.8,1.4,4.1,1.4,6.3H938.6z M946,621.1
		c-0.1-3.1-1.4-5.3-3.6-5.3c-2.2,0-3.6,2.3-3.7,5.3H946z"/>
	<path class="st4" d="M953.9,622l-3.9-7.4h2.1l2.9,6l2.9-6h2.1l-3.9,7.4l4.1,7.7h-2.1l-3.1-6.2l-3.1,6.2h-2.1L953.9,622z"/>
	<path class="st4" d="M963.3,614.6h1.7c0,1.1,0,2,0,2.9c0.8-2.3,2.2-3.3,4-3.3c3,0,5.1,3.1,5.1,8c0,4.6-1.9,7.9-5.1,7.9
		c-1.8,0-3.3-1.2-3.9-3.1c0.1,0.7,0.1,1.4,0.1,2.8v5.6h-1.9V614.6z M972.2,622.1c0-3.4-1.2-6.1-3.5-6.1c-1.2,0-2,0.6-2.6,1.7
		c-0.7,1-0.9,2.4-0.9,4.4c0,2,0.2,3.4,0.9,4.4c0.6,1,1.4,1.7,2.6,1.7C971,628.3,972.2,625.6,972.2,622.1L972.2,622.1z"/>
	<path class="st4" d="M979.3,622.7c0,3.1,1.3,5.6,3.8,5.6c1.8,0,3-1.3,3.4-3h1.8c-0.3,1.6-1,2.8-1.9,3.6c-0.9,0.8-2.1,1.2-3.3,1.2
		c-4.2,0-5.8-4-5.8-7.9c0-4.7,2.2-8,5.7-8c1.8,0,3.2,0.8,4.1,2.1c1.2,1.8,1.4,4.1,1.4,6.3H979.3z M986.6,621.1
		c-0.1-3.1-1.4-5.3-3.6-5.3c-2.2,0-3.6,2.3-3.7,5.3H986.6z M986,608.3l0.8,1.5l-6.2,3.3l-0.7-1.3L986,608.3z"/>
	<path class="st4" d="M992.5,614.6h1.7c0,1.4,0,2.3-0.1,3.2c0.8-3,2.7-3.5,4-3.5v2.2c-0.2-0.1-0.4-0.2-0.7-0.2
		c-1.3,0-3.1,1.6-3.1,5.4v8.1h-1.9V614.6z"/>
	<path class="st4" d="M1001.5,609.1h1.9v2.7h-1.9V609.1z M1001.5,614.6h1.9v15.1h-1.9V614.6z"/>
	<path class="st4" d="M1009.6,622.7c0,3.1,1.3,5.6,3.8,5.6c1.8,0,3-1.3,3.4-3h1.8c-0.3,1.6-1,2.8-1.9,3.6c-0.9,0.8-2.1,1.2-3.3,1.2
		c-4.2,0-5.8-4-5.8-7.9c0-4.7,2.2-8,5.7-8c1.8,0,3.2,0.8,4.1,2.1c1.2,1.8,1.4,4.1,1.4,6.3H1009.6z M1016.9,621.1
		c-0.1-3.1-1.4-5.3-3.6-5.3c-2.2,0-3.6,2.3-3.7,5.3H1016.9z"/>
	<path class="st4" d="M1022.8,614.6h1.7c0,0.9,0,1.6-0.1,2.6c0.8-2.1,2.5-3,4.3-3c2.6,0,4.3,1.5,4.3,5.2v10.3h-1.9V620
		c0-1.5-0.2-3.9-2.9-3.9c-2.2,0-3.6,1.5-3.6,4.7v9h-1.9V614.6z"/>
	<path class="st4" d="M1047.7,624.6c-0.3,3.1-2,5.5-5,5.5c-4,0-5.8-3.8-5.8-7.9c0-5,2.3-8,5.8-8c3.1,0,4.9,2.4,5,5.6h-1.9
		c-0.3-3-1.8-3.8-3.2-3.8c-1.1,0-2.1,0.4-2.8,1.6c-0.7,1.2-1,2.6-1,4.6c0,4,1.4,6.2,3.8,6.2c1.9,0,2.9-1.5,3.2-3.8H1047.7z"/>
	<path class="st4" d="M1052.5,622.7c0,3.1,1.3,5.6,3.8,5.6c1.8,0,3-1.3,3.4-3h1.8c-0.3,1.6-1,2.8-1.9,3.6c-0.9,0.8-2.1,1.2-3.3,1.2
		c-4.2,0-5.8-4-5.8-7.9c0-4.7,2.2-8,5.7-8c1.8,0,3.2,0.8,4.1,2.1c1.2,1.8,1.4,4.1,1.4,6.3H1052.5z M1059.8,621.1
		c-0.1-3.1-1.4-5.3-3.6-5.3c-2.2,0-3.6,2.3-3.7,5.3H1059.8z"/>
	<path class="st4" d="M1067.9,629.7h-1.9v-3h1.9V629.7z"/>
	<path class="st4" d="M1078.5,609.1h4.7c2.8,0,5.2,0.7,6.7,3c1.1,1.7,1.8,4.1,1.8,7.3c0,7.9-3.8,10.3-8.5,10.3h-4.8V609.1z
		 M1080.6,627.8h2.5c4.8,0,6.5-3.1,6.5-8.4c0-2.9-0.4-4.9-1.4-6.3c-1-1.4-2.7-2.1-5.1-2.1h-2.5V627.8z"/>
	<path class="st4" d="M1095,622.1c0-4.3,1.8-7.9,5.8-7.9c4,0,5.8,3.6,5.8,7.9s-1.8,7.9-5.8,7.9C1096.8,630.1,1095,626.5,1095,622.1
		L1095,622.1z M1097,622.2c0,4,1.3,6.2,3.9,6.2c2.5,0,3.8-2.1,3.8-6.2c0-4-1.3-6.2-3.9-6.2C1098.3,616,1097,618.1,1097,622.2
		L1097,622.2z"/>
	<path class="st4" d="M1110.7,614.6h1.8c0,0.8,0,1.6-0.1,2.5c0.8-2.4,2.5-2.8,3.8-2.8c1.1,0,1.9,0.3,2.6,1c0.4,0.4,0.7,1.1,0.8,1.8
		c0.3-0.8,0.7-1.4,1.3-1.9c0.8-0.6,1.7-0.9,2.8-0.9c1.8,0,2.9,0.9,3.5,1.9c0.6,0.9,0.7,2.6,0.7,4.1v9.4h-1.9v-9.3
		c0-1.1-0.1-2.1-0.3-2.8c-0.3-1-1.3-1.6-2.3-1.6c-0.9,0-1.7,0.2-2.4,1.2c-0.6,0.9-0.8,2.2-0.8,3.3v9.1h-1.9v-9.2c0-1.2,0-2-0.3-2.9
		c-0.3-1-1.2-1.6-2.3-1.6c-0.9,0-1.8,0.3-2.4,1.2c-0.7,0.9-0.8,2.2-0.8,3.4v9.1h-1.9V614.6z"/>
	<path class="st4" d="M1132.8,614.6h1.8c0,0.8,0,1.6-0.1,2.5c0.8-2.4,2.5-2.8,3.8-2.8c1.1,0,1.9,0.3,2.6,1c0.4,0.4,0.7,1.1,0.8,1.8
		c0.3-0.8,0.7-1.4,1.3-1.9c0.8-0.6,1.7-0.9,2.8-0.9c1.8,0,2.9,0.9,3.5,1.9c0.6,0.9,0.7,2.6,0.7,4.1v9.4h-1.9v-9.3
		c0-1.1-0.1-2.1-0.3-2.8c-0.3-1-1.3-1.6-2.3-1.6c-0.9,0-1.7,0.2-2.4,1.2c-0.6,0.9-0.8,2.2-0.8,3.3v9.1h-1.9v-9.2c0-1.2,0-2-0.3-2.9
		c-0.3-1-1.2-1.6-2.3-1.6c-0.9,0-1.8,0.3-2.4,1.2c-0.7,0.9-0.8,2.2-0.8,3.4v9.1h-1.9V614.6z"/>
	<path class="st4" d="M1164.9,629.7h-1.7c0-1.3,0-2.2,0-2.9c-0.7,2.1-2.1,3.3-4,3.3c-3,0-5.1-3.2-5.1-7.9c0-4.7,1.9-8,5.1-8
		c1.7,0,3.2,0.9,4,3.3c0-0.9,0-1.8,0-2.9h1.7V629.7z M1156,622.2c0,3.4,1.2,6.1,3.5,6.1c1.2,0,2-0.6,2.6-1.7
		c0.6-1.1,0.9-2.4,0.9-4.4c0-2-0.2-3.4-0.9-4.4c-0.6-1-1.4-1.7-2.6-1.7C1157.2,616.1,1156,618.7,1156,622.2L1156,622.2z"/>
	<path class="st4" d="M1179.6,629.5c0,2.2-0.4,3.6-1.3,4.5c-0.9,1.1-2.3,1.7-4.1,1.7c-1.8,0-4.9-1.1-5.1-4.8h1.9
		c0.1,1,0.3,1.6,0.9,2.1c0.7,0.7,1.6,0.9,2.4,0.9c1.6,0,3.4-0.7,3.4-4.3c0-0.7,0-1.7,0-2.7c-0.6,2-1.9,3.2-3.9,3.2
		c-3.3,0-5.1-3.3-5.1-7.9c0-4.7,1.8-8,5.1-8c1.8,0,3.2,0.8,4.1,3.3c0-0.9,0-1.8,0-2.9h1.6V629.5z M1170.7,622.2
		c0,3.4,1.2,6.1,3.5,6.1c1.2,0,2-0.6,2.6-1.7c0.6-1.1,0.9-2.4,0.9-4.4c0-2-0.2-3.4-0.9-4.4c-0.6-1-1.4-1.7-2.6-1.7
		C1171.9,616.1,1170.7,618.7,1170.7,622.2L1170.7,622.2z"/>
	<path class="st4" d="M1185.6,622.7c0,3.1,1.3,5.6,3.8,5.6c1.8,0,3-1.3,3.4-3h1.8c-0.3,1.6-1,2.8-1.9,3.6c-0.9,0.8-2.1,1.2-3.3,1.2
		c-4.2,0-5.8-4-5.8-7.9c0-4.7,2.2-8,5.7-8c1.8,0,3.2,0.8,4.1,2.1c1.2,1.8,1.4,4.1,1.4,6.3H1185.6z M1192.9,621.1
		c-0.1-3.1-1.4-5.3-3.6-5.3c-2.2,0-3.6,2.3-3.7,5.3H1192.9z"/>
	<path class="st4" d="M1206.7,614.6h1.8c0,0.8,0,1.6-0.1,2.5c0.8-2.4,2.5-2.8,3.8-2.8c1.1,0,1.9,0.3,2.6,1c0.4,0.4,0.7,1.1,0.8,1.8
		c0.3-0.8,0.7-1.4,1.3-1.9c0.8-0.6,1.7-0.9,2.8-0.9c1.8,0,2.9,0.9,3.5,1.9c0.6,0.9,0.7,2.6,0.7,4.1v9.4h-1.9v-9.3
		c0-1.1-0.1-2.1-0.3-2.8c-0.3-1-1.3-1.6-2.3-1.6c-0.9,0-1.7,0.2-2.4,1.2c-0.6,0.9-0.8,2.2-0.8,3.3v9.1h-1.9v-9.2c0-1.2,0-2-0.3-2.9
		c-0.3-1-1.2-1.6-2.3-1.6c-0.9,0-1.8,0.3-2.4,1.2c-0.7,0.9-0.8,2.2-0.8,3.4v9.1h-1.9V614.6z"/>
	<path class="st4" d="M1238.7,629.7h-1.7c0-1.3,0-2.2,0-2.9c-0.7,2.1-2.1,3.3-4,3.3c-3,0-5.1-3.2-5.1-7.9c0-4.7,1.9-8,5.1-8
		c1.7,0,3.2,0.9,4,3.3c0-0.9,0-1.8,0-2.9h1.7V629.7z M1229.8,622.2c0,3.4,1.2,6.1,3.5,6.1c1.2,0,2-0.6,2.6-1.7
		c0.6-1.1,0.9-2.4,0.9-4.4c0-2-0.2-3.4-0.9-4.4c-0.6-1-1.4-1.7-2.6-1.7C1231,616.1,1229.8,618.7,1229.8,622.2L1229.8,622.2z"/>
	<path class="st4" d="M1243.7,609.1h1.9v2.7h-1.9V609.1z M1243.7,614.6h1.9v15.1h-1.9V614.6z"/>
	<path class="st4" d="M1256.7,618.5c0-1.9-1-2.6-2.4-2.6c-1.3,0-2.2,0.9-2.2,2.3c0,1.7,1.4,2.3,3.3,2.9c1.7,0.5,3.6,1.5,3.6,4.6
		c0,2.7-1.9,4.5-4.5,4.5c-2.8,0-4.6-1.6-4.7-4.8h1.8c0,2.1,1.2,3.1,2.9,3.1c1.6,0,2.6-1.1,2.6-2.6c0-1.8-1.3-2.6-3.3-3.2
		c-1.9-0.6-3.6-1.6-3.6-4.3c0-2.4,1.8-4,4.2-4c2.6,0,4.1,1.5,4.2,4.3H1256.7z"/>
	<path class="st4" d="M1271,609.1h1.9v20.6h-1.9V609.1z"/>
	<path class="st4" d="M1279,622.7c0,3.1,1.3,5.6,3.8,5.6c1.8,0,3-1.3,3.4-3h1.8c-0.3,1.6-1,2.8-1.9,3.6c-0.9,0.8-2.1,1.2-3.3,1.2
		c-4.2,0-5.8-4-5.8-7.9c0-4.7,2.2-8,5.7-8c1.8,0,3.2,0.8,4.1,2.1c1.2,1.8,1.4,4.1,1.4,6.3H1279z M1286.4,621.1
		c-0.1-3.1-1.4-5.3-3.6-5.3c-2.2,0-3.6,2.3-3.7,5.3H1286.4z"/>
	<path class="st4" d="M1300.8,616.3h-2.1v-1.8h2.1v-4.8h1.9v4.8h2.1v1.8h-2.1v13.4h-1.9V616.3z"/>
	<path class="st4" d="M1309,622.7c0,3.1,1.3,5.6,3.8,5.6c1.8,0,3-1.3,3.4-3h1.8c-0.3,1.6-1,2.8-1.9,3.6c-0.9,0.8-2.1,1.2-3.3,1.2
		c-4.2,0-5.8-4-5.8-7.9c0-4.7,2.2-8,5.7-8c1.8,0,3.2,0.8,4.1,2.1c1.2,1.8,1.4,4.1,1.4,6.3H1309z M1316.3,621.1
		c-0.1-3.1-1.4-5.3-3.6-5.3c-2.2,0-3.6,2.3-3.7,5.3H1316.3z"/>
	<path class="st4" d="M1322.2,614.6h1.8c0,0.8,0,1.6-0.1,2.5c0.8-2.4,2.5-2.8,3.8-2.8c1.1,0,1.9,0.3,2.6,1c0.4,0.4,0.7,1.1,0.8,1.8
		c0.3-0.8,0.7-1.4,1.3-1.9c0.8-0.6,1.7-0.9,2.8-0.9c1.8,0,2.9,0.9,3.5,1.9c0.6,0.9,0.7,2.6,0.7,4.1v9.4h-1.9v-9.3
		c0-1.1-0.1-2.1-0.3-2.8c-0.3-1-1.3-1.6-2.3-1.6c-0.9,0-1.7,0.2-2.4,1.2c-0.6,0.9-0.8,2.2-0.8,3.3v9.1h-1.9v-9.2c0-1.2,0-2-0.3-2.9
		c-0.3-1-1.2-1.6-2.3-1.6c-0.9,0-1.8,0.3-2.4,1.2c-0.7,0.9-0.8,2.2-0.8,3.4v9.1h-1.9V614.6z"/>
	<path class="st4" d="M1344.3,614.6h1.7c0,1.1,0,2,0,2.9c0.8-2.3,2.2-3.3,4-3.3c3,0,5.1,3.1,5.1,8c0,4.6-1.9,7.9-5.1,7.9
		c-1.8,0-3.3-1.2-3.9-3.1c0.1,0.7,0.1,1.4,0.1,2.8v5.6h-1.9V614.6z M1353.2,622.1c0-3.4-1.2-6.1-3.5-6.1c-1.2,0-2,0.6-2.6,1.7
		c-0.7,1-0.9,2.4-0.9,4.4c0,2,0.3,3.4,0.9,4.4c0.6,1,1.4,1.7,2.6,1.7C1352,628.3,1353.2,625.6,1353.2,622.1L1353.2,622.1z"/>
	<path class="st4" d="M1365.1,618.5c0-1.9-1-2.6-2.4-2.6c-1.3,0-2.2,0.9-2.2,2.3c0,1.7,1.4,2.3,3.3,2.9c1.7,0.5,3.6,1.5,3.6,4.6
		c0,2.7-1.9,4.5-4.5,4.5c-2.8,0-4.6-1.6-4.7-4.8h1.8c0,2.1,1.2,3.1,2.9,3.1c1.6,0,2.6-1.1,2.6-2.6c0-1.8-1.3-2.6-3.3-3.2
		c-1.9-0.6-3.6-1.6-3.6-4.3c0-2.4,1.8-4,4.2-4c2.6,0,4.1,1.5,4.2,4.3H1365.1z"/>
	<path class="st4" d="M1380.4,622.7c0,3.1,1.3,5.6,3.8,5.6c1.8,0,3-1.3,3.4-3h1.8c-0.3,1.6-1,2.8-1.9,3.6c-0.9,0.8-2.1,1.2-3.3,1.2
		c-4.2,0-5.8-4-5.8-7.9c0-4.7,2.2-8,5.7-8c1.8,0,3.2,0.8,4.1,2.1c1.2,1.8,1.4,4.1,1.4,6.3H1380.4z M1387.7,621.1
		c-0.1-3.1-1.4-5.3-3.6-5.3c-2.2,0-3.6,2.3-3.7,5.3H1387.7z"/>
	<path class="st4" d="M1399.7,618.5c0-1.9-1-2.6-2.4-2.6c-1.3,0-2.2,0.9-2.2,2.3c0,1.7,1.4,2.3,3.3,2.9c1.7,0.5,3.6,1.5,3.6,4.6
		c0,2.7-1.9,4.5-4.5,4.5c-2.8,0-4.6-1.6-4.7-4.8h1.8c0,2.1,1.2,3.1,2.9,3.1c1.6,0,2.6-1.1,2.6-2.6c0-1.8-1.3-2.6-3.3-3.2
		c-1.9-0.6-3.6-1.6-3.6-4.3c0-2.4,1.8-4,4.2-4c2.6,0,4.1,1.5,4.2,4.3H1399.7z"/>
	<path class="st4" d="M1406.7,616.3h-2.1v-1.8h2.1v-4.8h1.9v4.8h2.1v1.8h-2.1v13.4h-1.9V616.3z"/>
	<path class="st4" d="M1423,622.7c0,3.1,1.3,5.6,3.8,5.6c1.8,0,3-1.3,3.4-3h1.8c-0.3,1.6-1,2.8-1.9,3.6c-0.9,0.8-2.1,1.2-3.3,1.2
		c-4.2,0-5.8-4-5.8-7.9c0-4.7,2.2-8,5.7-8c1.8,0,3.2,0.8,4.1,2.1c1.2,1.8,1.4,4.1,1.4,6.3H1423z M1430.4,621.1
		c-0.1-3.1-1.4-5.3-3.6-5.3c-2.2,0-3.6,2.3-3.7,5.3H1430.4z M1429.8,608.3l0.8,1.5l-6.2,3.3l-0.7-1.3L1429.8,608.3z"/>
	<path class="st4" d="M1446.2,624.6c-0.3,3.1-2,5.5-5,5.5c-4,0-5.8-3.8-5.8-7.9c0-5,2.3-8,5.8-8c3.1,0,4.9,2.4,5,5.6h-1.9
		c-0.3-3-1.8-3.8-3.2-3.8c-1.1,0-2.1,0.4-2.8,1.6c-0.7,1.2-1,2.6-1,4.6c0,4,1.4,6.2,3.8,6.2c1.9,0,2.9-1.5,3.2-3.8H1446.2z"/>
	<path class="st4" d="M1448.9,622.1c0-4.3,1.8-7.9,5.8-7.9c4,0,5.8,3.6,5.8,7.9s-1.8,7.9-5.8,7.9
		C1450.7,630.1,1448.9,626.5,1448.9,622.1L1448.9,622.1z M1450.9,622.2c0,4,1.3,6.2,3.9,6.2c2.5,0,3.8-2.1,3.8-6.2
		c0-4-1.3-6.2-3.9-6.2C1452.2,616,1450.9,618.1,1450.9,622.2L1450.9,622.2z"/>
	<path class="st4" d="M1474.7,629.7h-1.7c0-0.9,0-1.7,0.1-2.6c-0.8,2.2-2.5,3-4.2,3c-2.6,0-4.3-1.5-4.3-5.2v-10.3h1.9v9.7
		c0,1.5,0.2,3.9,2.9,3.9c2.2,0,3.6-1.5,3.6-4.7v-9h1.9V629.7z"/>
	<path class="st4" d="M1479.7,609.1h1.9v20.6h-1.9V609.1z"/>
	<path class="st4" d="M1487.8,622.7c0,3.1,1.3,5.6,3.8,5.6c1.8,0,3-1.3,3.4-3h1.8c-0.3,1.6-1,2.8-1.9,3.6c-0.9,0.8-2.1,1.2-3.3,1.2
		c-4.2,0-5.8-4-5.8-7.9c0-4.7,2.2-8,5.7-8c1.8,0,3.2,0.8,4.1,2.1c1.2,1.8,1.4,4.1,1.4,6.3H1487.8z M1495.1,621.1
		c-0.1-3.1-1.4-5.3-3.6-5.3c-2.2,0-3.6,2.3-3.7,5.3H1495.1z M1494.6,608.3l0.8,1.5l-6.2,3.3l-0.7-1.3L1494.6,608.3z"/>
	<path class="st4" d="M1511.5,624.7h-2.1v-15.6h2.1V624.7z M1511.5,629.7h-2.1v-3h2.1V629.7z"/>
	<path class="st4" d="M470.5,678.1h2.1l4.9,17.7l4.9-17.7h2l-6,20.6h-2L470.5,678.1z"/>
	<path class="st4" d="M485.5,691.1c0-4.3,1.8-7.9,5.8-7.9c4,0,5.8,3.6,5.8,7.9s-1.8,7.9-5.8,7.9
		C487.2,699.1,485.5,695.5,485.5,691.1L485.5,691.1z M487.4,691.2c0,4,1.3,6.2,3.9,6.2c2.5,0,3.8-2.1,3.8-6.2c0-4-1.3-6.2-3.9-6.2
		C488.7,685,487.4,687.1,487.4,691.2L487.4,691.2z"/>
	<path class="st4" d="M511.3,698.7h-1.7c0-0.9,0-1.7,0.1-2.6c-0.8,2.2-2.5,3-4.2,3c-2.6,0-4.3-1.5-4.3-5.2v-10.3h1.9v9.7
		c0,1.5,0.2,3.9,2.9,3.9c2.2,0,3.6-1.5,3.6-4.7v-9h1.9V698.7z"/>
	<path class="st4" d="M522.1,687.5c0-1.9-1-2.6-2.4-2.6c-1.3,0-2.2,0.9-2.2,2.3c0,1.7,1.4,2.3,3.3,2.9c1.7,0.5,3.6,1.5,3.6,4.6
		c0,2.7-1.9,4.5-4.5,4.5c-2.8,0-4.6-1.6-4.7-4.8h1.8c0,2.1,1.2,3.1,2.9,3.1c1.6,0,2.6-1.1,2.6-2.6c0-1.8-1.3-2.6-3.3-3.2
		c-1.9-0.6-3.6-1.6-3.6-4.3c0-2.4,1.8-4,4.2-4c2.6,0,4.1,1.5,4.2,4.3H522.1z"/>
	<path class="st4" d="M536.4,678.1h1.9v20.6h-1.9V678.1z"/>
	<path class="st4" d="M553.4,698.7h-1.7c0-0.9,0-1.7,0.1-2.6c-0.8,2.2-2.5,3-4.2,3c-2.6,0-4.3-1.5-4.3-5.2v-10.3h1.9v9.7
		c0,1.5,0.2,3.9,2.9,3.9c2.2,0,3.6-1.5,3.6-4.7v-9h1.9V698.7z"/>
	<path class="st4" d="M558.5,678.1h1.9v2.7h-1.9V678.1z M558.5,683.6h1.9v15.1h-1.9V683.6z"/>
	<path class="st4" d="M572.9,682.9h3.4v1.5c0.5-1,1.4-1.8,3.1-1.8c2.8,0,5,2.6,5,8.2c0,5.3-1.8,8.2-5,8.2c-1.3,0-2.2-0.6-2.7-1.5
		v1.2v5h-3.7V682.9z M580.6,690.8c0-3.5-0.7-4.5-2-4.5c-0.6,0-1,0.2-1.4,0.7c-0.5,0.6-0.6,1.3-0.6,3.8c0,2.5,0.1,3.2,0.6,3.8
		c0.4,0.5,0.7,0.7,1.4,0.7C579.9,695.3,580.6,694.3,580.6,690.8L580.6,690.8z"/>
	<path class="st4" d="M587.2,690.8c0-4.5,1.9-8.2,6.1-8.2c4.1,0,6.1,3.7,6.1,8.2s-1.9,8.2-6.1,8.2
		C589.1,699.1,587.2,695.4,587.2,690.8L587.2,690.8z M591.1,690.9c0,3.7,0.8,4.7,2.2,4.7c1.3,0,2.1-1,2.1-4.7s-0.8-4.7-2.2-4.7
		C592,686.1,591.1,687.1,591.1,690.9L591.1,690.9z"/>
	<path class="st4" d="M608.9,687.6c-0.1-1.2-0.5-1.8-1.7-1.8c-0.9,0-1.3,0.5-1.3,1.2c0,1.3,1.8,1.4,3.6,2c1.8,0.6,3.6,1.6,3.6,4.8
		c0,3-2.3,5.2-5.6,5.2c-3,0-5.4-1.7-5.8-5.4h3.7c0.1,1.2,0.9,2,2.1,2c1.2,0,1.5-0.8,1.5-1.6c0-1.4-1.8-1.5-3.6-2.1
		c-1.8-0.6-3.6-1.7-3.6-4.8c0-2.6,1.8-4.6,5.4-4.6c3.5,0,5.1,1.9,5.3,5H608.9z"/>
	<path class="st4" d="M619.8,692.2c0,1.6,0.4,3.4,2.1,3.4c1,0,1.7-0.6,1.9-1.9h3.7c-0.3,2.2-1.2,3.6-2.3,4.4c-1.1,0.8-2.3,1-3.4,1
		c-4.1,0-6.1-3.7-6.1-8.2s1.9-8.2,6.1-8.2c2.1,0,3.6,0.9,4.6,2.5c1.2,2,1.3,4.6,1.2,7H619.8z M624,689c0-0.9-0.1-3.3-2-3.3
		c-1.3,0-2.1,1.1-2.1,3.3H624z"/>
	<path class="st4" d="M630.6,695.2l5.8-8.8h-5.2v-3.5h9.7v3.5l-5.7,8.8h5.7v3.5h-10.2V695.2z"/>
	<path class="st4" d="M664.5,698.7h-3.4V697c-0.3,1.3-1.6,2.1-3.1,2.1c-2.8,0-5-2.6-5-8.2c0-5.3,1.8-8.2,5-8.2
		c1.3,0,2.2,0.5,2.8,1.7c0-0.4,0-0.9,0-1.3v-4.8h3.7V698.7z M656.8,690.9c0,3.5,0.8,4.5,2,4.5c0.8,0,1.1-0.2,1.5-0.7
		c0.5-0.6,0.5-1.3,0.5-3.8c0-2.5,0-3.2-0.5-3.8c-0.4-0.5-0.7-0.7-1.5-0.7C657.5,686.3,656.8,687.3,656.8,690.9L656.8,690.9z"/>
	<path class="st4" d="M672.2,692.2c0,1.6,0.4,3.4,2.1,3.4c1,0,1.7-0.6,1.9-1.9h3.7c-0.3,2.2-1.2,3.6-2.3,4.4c-1.1,0.8-2.3,1-3.4,1
		c-4.1,0-6.1-3.7-6.1-8.2s1.9-8.2,6.1-8.2c2.1,0,3.6,0.9,4.6,2.5c1.2,2,1.3,4.6,1.2,7H672.2z M676.3,689c0-0.9-0.1-3.3-2-3.3
		c-1.3,0-2.1,1.1-2.1,3.3H676.3z"/>
	<path class="st4" d="M689.8,687.6c-0.1-1.2-0.5-1.8-1.7-1.8c-0.9,0-1.3,0.5-1.3,1.2c0,1.3,1.8,1.4,3.6,2c1.8,0.6,3.6,1.6,3.6,4.8
		c0,3-2.3,5.2-5.6,5.2c-3,0-5.4-1.7-5.8-5.4h3.7c0.1,1.2,0.9,2,2.1,2c1.2,0,1.5-0.8,1.5-1.6c0-1.4-1.8-1.5-3.6-2.1
		c-1.8-0.6-3.6-1.7-3.6-4.8c0-2.6,1.8-4.6,5.4-4.6c3.5,0,5.1,1.9,5.3,5H689.8z"/>
	<path class="st4" d="M716.8,703.7h-3.7v-5c0-0.4,0-0.9,0-1.4c-0.6,1.2-1.5,1.7-2.8,1.7c-3.2,0-5-2.9-5-8.2c0-5.7,2.1-8.2,5-8.2
		c1.5,0,2.8,0.8,3,1.8v-1.5h3.5V703.7z M709.1,690.9c0,3.5,0.8,4.5,2,4.5c0.8,0,1.1-0.2,1.5-0.7c0.5-0.6,0.5-1.3,0.5-3.8
		c0-2.5,0-3.2-0.5-3.8c-0.4-0.5-0.7-0.7-1.5-0.7C709.9,686.3,709.1,687.3,709.1,690.9L709.1,690.9z"/>
	<path class="st4" d="M731.9,698.7h-3.4v-1.7c-0.5,1.3-1.3,2-3.2,2c-2.5,0-4.1-1.4-4.1-4.6v-11.6h3.7v10.3c0,1.1,0.2,2.1,1.6,2.1
		c1,0,1.7-0.5,1.7-1.8v-10.6h3.7V698.7z"/>
	<path class="st4" d="M739.6,692.2c0,1.6,0.4,3.4,2.1,3.4c1,0,1.7-0.6,1.9-1.9h3.7c-0.3,2.2-1.2,3.6-2.3,4.4c-1.1,0.8-2.3,1-3.4,1
		c-4.1,0-6.1-3.7-6.1-8.2s1.9-8.2,6.1-8.2c2.1,0,3.6,0.9,4.6,2.5c1.2,2,1.3,4.6,1.2,7H739.6z M743.7,689c0-0.9-0.1-3.3-2-3.3
		c-1.3,0-2.1,1.1-2.1,3.3H743.7z"/>
	<path class="st4" d="M757.2,687.6c-0.1-1.2-0.5-1.8-1.7-1.8c-0.9,0-1.3,0.5-1.3,1.2c0,1.3,1.8,1.4,3.6,2c1.8,0.6,3.6,1.6,3.6,4.8
		c0,3-2.3,5.2-5.6,5.2c-3,0-5.4-1.7-5.8-5.4h3.7c0.1,1.2,0.9,2,2.1,2c1.2,0,1.5-0.8,1.5-1.6c0-1.4-1.8-1.5-3.6-2.1
		c-1.8-0.6-3.6-1.7-3.6-4.8c0-2.6,1.8-4.6,5.4-4.6c3.5,0,5.1,1.9,5.3,5H757.2z"/>
	<path class="st4" d="M765.1,686.4h-1.7v-3.5h1.7v-3h3.7v3h1.7v3.5h-1.7v12.3h-3.7V686.4z"/>
	<path class="st4" d="M773.9,678.1h3.7v3.1h-3.7V678.1z M773.9,682.9h3.7v15.8h-3.7V682.9z"/>
	<path class="st4" d="M781.6,690.8c0-4.5,1.9-8.2,6.1-8.2s6.1,3.7,6.1,8.2s-1.9,8.2-6.1,8.2S781.6,695.4,781.6,690.8L781.6,690.8z
		 M785.6,690.9c0,3.7,0.8,4.7,2.2,4.7c1.3,0,2.1-1,2.1-4.7s-0.8-4.7-2.2-4.7C786.4,686.1,785.6,687.1,785.6,690.9L785.6,690.9z"/>
	<path class="st4" d="M797.4,682.9h3.2v1.5c0.6-1.1,1.4-1.8,3.4-1.8c2.5,0,4.1,1.4,4.1,4.6v11.5h-3.7v-10.3c0-1.1-0.2-2.1-1.6-2.1
		c-1,0-1.7,0.5-1.7,1.8v10.6h-3.7V682.9z"/>
	<path class="st4" d="M818.4,687.6c-0.1-1.2-0.5-1.8-1.7-1.8c-0.9,0-1.3,0.5-1.3,1.2c0,1.3,1.8,1.4,3.6,2c1.8,0.6,3.6,1.6,3.6,4.8
		c0,3-2.3,5.2-5.6,5.2c-3,0-5.4-1.7-5.8-5.4h3.7c0.1,1.2,0.9,2,2.1,2c1.2,0,1.5-0.8,1.5-1.6c0-1.4-1.8-1.5-3.6-2.1
		c-1.8-0.6-3.6-1.7-3.6-4.8c0-2.6,1.8-4.6,5.4-4.6c3.5,0,5.1,1.9,5.3,5H818.4z"/>
	<path class="st4" d="M834,690.8c0-4.5,1.9-8.2,6.1-8.2s6.1,3.7,6.1,8.2s-1.9,8.2-6.1,8.2S834,695.4,834,690.8L834,690.8z
		 M838,690.9c0,3.7,0.8,4.7,2.2,4.7c1.3,0,2.1-1,2.1-4.7s-0.8-4.7-2.2-4.7C838.8,686.1,838,687.1,838,690.9L838,690.9z"/>
	<path class="st4" d="M860.5,698.7h-3.4v-1.7c-0.5,1.3-1.3,2-3.2,2c-2.5,0-4.1-1.4-4.1-4.6v-11.6h3.7v10.3c0,1.1,0.2,2.1,1.6,2.1
		c1,0,1.7-0.5,1.7-1.8v-10.6h3.7V698.7z"/>
	<path class="st4" d="M871.3,698.7h-3.4l-4.6-15.8h3.8l2.4,10.1l2.1-10.1h3.8L871.3,698.7z"/>
	<path class="st4" d="M881.4,692.2c0,1.6,0.4,3.4,2.1,3.4c1,0,1.7-0.6,1.9-1.9h3.7c-0.3,2.2-1.2,3.6-2.3,4.4c-1.1,0.8-2.3,1-3.4,1
		c-4.1,0-6.1-3.7-6.1-8.2s1.9-8.2,6.1-8.2c2.1,0,3.6,0.9,4.6,2.5c1.2,2,1.3,4.6,1.2,7H881.4z M885.5,689c0-0.9-0.1-3.3-2-3.3
		c-1.3,0-2.1,1.1-2.1,3.3H885.5z"/>
	<path class="st4" d="M893,682.9h3.4v2.1c0.6-2,1.9-2.4,4-2.4v4.6c-0.5-0.4-1.1-0.5-1.6-0.5c-1.4,0-2,1.2-2,2.8v9.2H893V682.9z"/>
	<path class="st4" d="M903.9,686.4h-1.7v-3.5h1.7v-3h3.7v3h1.7v3.5h-1.7v12.3h-3.7V686.4z"/>
	<path class="st4" d="M915.5,692.2c0,1.6,0.4,3.4,2.1,3.4c1,0,1.7-0.6,1.9-1.9h3.7c-0.3,2.2-1.2,3.6-2.3,4.4c-1.1,0.8-2.3,1-3.4,1
		c-4.1,0-6.1-3.7-6.1-8.2s1.9-8.2,6.1-8.2c2.1,0,3.6,0.9,4.6,2.5c1.2,2,1.3,4.6,1.2,7H915.5z M919.6,689c0-0.9-0.1-3.3-2-3.3
		c-1.3,0-2.1,1.1-2.1,3.3H919.6z"/>
	<path class="st4" d="M933.1,687.6c-0.1-1.2-0.5-1.8-1.7-1.8c-0.9,0-1.3,0.5-1.3,1.2c0,1.3,1.8,1.4,3.6,2c1.8,0.6,3.6,1.6,3.6,4.8
		c0,3-2.3,5.2-5.6,5.2c-3,0-5.4-1.7-5.8-5.4h3.7c0.1,1.2,0.9,2,2.1,2c1.2,0,1.5-0.8,1.5-1.6c0-1.4-1.8-1.5-3.6-2.1
		c-1.8-0.6-3.6-1.7-3.6-4.8c0-2.6,1.8-4.6,5.4-4.6c3.5,0,5.1,1.9,5.3,5H933.1z"/>
	<path class="st4" d="M948.6,683.6h1.7c0,1.1,0,2,0,2.9c0.8-2.3,2.2-3.3,4-3.3c3,0,5.1,3.1,5.1,8c0,4.6-1.9,7.9-5.1,7.9
		c-1.8,0-3.3-1.2-3.9-3.1c0.1,0.7,0.1,1.4,0.1,2.8v5.6h-1.9V683.6z M957.5,691.1c0-3.4-1.2-6.1-3.5-6.1c-1.2,0-2,0.6-2.6,1.7
		c-0.7,1-0.9,2.4-0.9,4.4c0,2,0.3,3.4,0.9,4.4c0.6,1,1.4,1.7,2.6,1.7C956.3,697.3,957.5,694.6,957.5,691.1L957.5,691.1z"/>
	<path class="st4" d="M962.6,691.1c0-4.3,1.8-7.9,5.8-7.9c4,0,5.8,3.6,5.8,7.9s-1.8,7.9-5.8,7.9
		C964.4,699.1,962.6,695.5,962.6,691.1L962.6,691.1z M964.5,691.2c0,4,1.3,6.2,3.9,6.2c2.5,0,3.8-2.1,3.8-6.2c0-4-1.3-6.2-3.9-6.2
		C965.8,685,964.5,687.1,964.5,691.2L964.5,691.2z"/>
	<path class="st4" d="M988.4,698.7h-1.7c0-0.9,0-1.7,0.1-2.6c-0.8,2.2-2.5,3-4.2,3c-2.6,0-4.3-1.5-4.3-5.2v-10.3h1.9v9.7
		c0,1.5,0.2,3.9,2.9,3.9c2.2,0,3.6-1.5,3.6-4.7v-9h1.9V698.7z"/>
	<path class="st4" d="M993.2,683.6h1.7c0,1.4,0,2.3-0.1,3.2c0.8-3,2.7-3.5,4-3.5v2.2c-0.2-0.1-0.4-0.2-0.7-0.2
		c-1.3,0-3.1,1.6-3.1,5.4v8.1h-1.9V683.6z"/>
	<path class="st4" d="M1010,678.1h1.9v20.6h-1.9V678.1z"/>
	<path class="st4" d="M1018.1,691.7c0,3.1,1.3,5.6,3.8,5.6c1.8,0,3-1.3,3.4-3h1.8c-0.3,1.6-1,2.8-1.9,3.6c-0.9,0.8-2.1,1.2-3.3,1.2
		c-4.2,0-5.8-4-5.8-7.9c0-4.7,2.2-8,5.7-8c1.8,0,3.2,0.8,4.1,2.1c1.2,1.8,1.4,4.1,1.4,6.3H1018.1z M1025.4,690.1
		c-0.1-3.1-1.4-5.3-3.6-5.3c-2.2,0-3.6,2.3-3.7,5.3H1025.4z"/>
	<path class="st4" d="M1049.1,693.6c-0.3,3.1-2,5.5-5,5.5c-4,0-5.8-3.8-5.8-7.9c0-5,2.3-8,5.8-8c3.1,0,4.9,2.4,5,5.6h-1.9
		c-0.3-3-1.8-3.8-3.2-3.8c-1.1,0-2.1,0.4-2.8,1.6c-0.7,1.2-1,2.6-1,4.6c0,4,1.4,6.2,3.8,6.2c1.9,0,2.9-1.5,3.2-3.8H1049.1z"/>
	<path class="st4" d="M1051.8,691.1c0-4.3,1.8-7.9,5.8-7.9c4,0,5.8,3.6,5.8,7.9s-1.8,7.9-5.8,7.9
		C1053.6,699.1,1051.8,695.5,1051.8,691.1L1051.8,691.1z M1053.8,691.2c0,4,1.3,6.2,3.9,6.2c2.5,0,3.8-2.1,3.8-6.2
		c0-4-1.3-6.2-3.9-6.2C1055.1,685,1053.8,687.1,1053.8,691.2L1053.8,691.2z"/>
	<path class="st4" d="M1067.4,683.6h1.7c0,0.9,0,1.6-0.1,2.6c0.8-2.1,2.5-3,4.3-3c2.6,0,4.3,1.5,4.3,5.2v10.3h-1.9V689
		c0-1.5-0.2-3.9-2.9-3.9c-2.2,0-3.6,1.5-3.6,4.7v9h-1.9V683.6z"/>
	<path class="st4" d="M1082.4,683.6h1.7c0,0.9,0,1.6-0.1,2.6c0.8-2.1,2.5-3,4.3-3c2.6,0,4.3,1.5,4.3,5.2v10.3h-1.9V689
		c0-1.5-0.2-3.9-2.9-3.9c-2.2,0-3.6,1.5-3.6,4.7v9h-1.9V683.6z"/>
	<path class="st4" d="M1107.3,698.7h-1.7c0-1.3,0-2.2,0-2.9c-0.7,2.1-2.1,3.3-4,3.3c-3,0-5.1-3.2-5.1-7.9c0-4.7,1.9-8,5.1-8
		c1.7,0,3.2,0.9,4,3.3c0-0.9,0-1.8,0-2.9h1.7V698.7z M1098.4,691.2c0,3.4,1.2,6.1,3.5,6.1c1.2,0,2-0.6,2.6-1.7
		c0.6-1.1,0.9-2.4,0.9-4.4c0-2-0.2-3.4-0.9-4.4c-0.6-1-1.4-1.7-2.6-1.7C1099.6,685.1,1098.4,687.7,1098.4,691.2L1098.4,691.2z"/>
	<path class="st4" d="M1112.3,678.1h1.9v2.7h-1.9V678.1z M1112.3,683.6h1.9v15.1h-1.9V683.6z"/>
	<path class="st4" d="M1119.9,685.3h-2.1v-1.8h2.1v-4.8h1.9v4.8h2.1v1.8h-2.1v13.4h-1.9V685.3z"/>
	<path class="st4" d="M1127.2,683.6h1.7c0,1.4,0,2.3-0.1,3.2c0.8-3,2.7-3.5,4-3.5v2.2c-0.2-0.1-0.4-0.2-0.7-0.2
		c-1.3,0-3.1,1.6-3.1,5.4v8.1h-1.9V683.6z"/>
	<path class="st4" d="M1136.9,691.7c0,3.1,1.3,5.6,3.8,5.6c1.8,0,3-1.3,3.4-3h1.8c-0.3,1.6-1,2.8-1.9,3.6c-0.9,0.8-2.1,1.2-3.3,1.2
		c-4.2,0-5.8-4-5.8-7.9c0-4.7,2.2-8,5.7-8c1.8,0,3.2,0.8,4.1,2.1c1.2,1.8,1.4,4.1,1.4,6.3H1136.9z M1144.3,690.1
		c-0.1-3.1-1.4-5.3-3.6-5.3c-2.2,0-3.6,2.3-3.7,5.3H1144.3z"/>
	<path class="st4" d="M1158,683.6h1.8c0,0.8,0,1.6-0.1,2.5c0.8-2.4,2.5-2.8,3.8-2.8c1.1,0,1.9,0.3,2.6,1c0.4,0.4,0.7,1.1,0.8,1.8
		c0.3-0.8,0.7-1.4,1.3-1.9c0.8-0.6,1.7-0.9,2.8-0.9c1.8,0,2.9,0.9,3.5,1.9c0.6,0.9,0.7,2.6,0.7,4.1v9.4h-1.9v-9.3
		c0-1.1-0.1-2.1-0.3-2.8c-0.3-1-1.3-1.6-2.3-1.6c-0.9,0-1.7,0.2-2.4,1.2c-0.6,0.9-0.8,2.2-0.8,3.3v9.1h-1.9v-9.2c0-1.2,0-2-0.3-2.9
		c-0.3-1-1.2-1.6-2.3-1.6c-0.9,0-1.8,0.3-2.4,1.2c-0.7,0.9-0.8,2.2-0.8,3.4v9.1h-1.9V683.6z"/>
	<path class="st4" d="M1180.3,678.1h1.9v2.7h-1.9V678.1z M1180.3,683.6h1.9v15.1h-1.9V683.6z"/>
	<path class="st4" d="M1188.4,691.7c0,3.1,1.3,5.6,3.8,5.6c1.8,0,3-1.3,3.4-3h1.8c-0.3,1.6-1,2.8-1.9,3.6c-0.9,0.8-2.1,1.2-3.3,1.2
		c-4.2,0-5.8-4-5.8-7.9c0-4.7,2.2-8,5.7-8c1.8,0,3.2,0.8,4.1,2.1c1.2,1.8,1.4,4.1,1.4,6.3H1188.4z M1195.7,690.1
		c-0.1-3.1-1.4-5.3-3.6-5.3c-2.2,0-3.6,2.3-3.7,5.3H1195.7z"/>
	<path class="st4" d="M1211.7,698.7h-1.7c0-0.9,0-1.7,0.1-2.6c-0.8,2.2-2.5,3-4.2,3c-2.6,0-4.3-1.5-4.3-5.2v-10.3h1.9v9.7
		c0,1.5,0.2,3.9,2.9,3.9c2.2,0,3.6-1.5,3.6-4.7v-9h1.9V698.7z"/>
	<path class="st4" d="M1218.9,691l-3.9-7.4h2.1l2.9,6l2.9-6h2.1l-3.9,7.4l4.1,7.7h-2.1l-3.1-6.2l-3.1,6.2h-2.1L1218.9,691z"/>
	<path class="st4" d="M1231,698.7h-1.9v-3h1.9V698.7z"/>
</g>
<path class="st5" d="M1494.8,338.9h-1074c-4.9,0-8.8,3.9-8.8,8.8v92.9c0,4.9,3.9,8.8,8.8,8.8h483.6l56.5,36l54.7-36h479.2
	c4.9,0,8.8-3.9,8.8-8.8v-92.9C1503.6,342.8,1499.7,338.9,1494.8,338.9z"/>
<g>
	<path class="st4" d="M471.9,373.6c0,6.8-3.8,12-10.7,12c-6.5,0-10.7-5-10.7-15.4c0-10.4,4.2-15.4,10.7-15.4
		c7.2,0,10.8,5.4,10.7,12.3h-6.2c-0.2-5.3-1.7-6.5-4-6.5c-2.8,0-5,2.5-5,9.6c0,7.1,2.2,9.6,5,9.6c3.2,0,3.8-3.1,4-6.3H471.9z"/>
	<path class="st4" d="M478.6,355.5h5.7l-4.2,10h-4.8L478.6,355.5z"/>
	<path class="st4" d="M492.9,375.6c0,2.2,0.6,4.9,3,4.9c1.4,0,2.4-0.9,2.8-2.8h5.3c-0.4,3.2-1.7,5.2-3.3,6.4
		c-1.6,1.1-3.4,1.5-4.8,1.5c-6,0-8.8-5.3-8.8-11.8c0-6.6,2.8-11.8,8.8-11.8c3,0,5.2,1.3,6.6,3.6c1.7,2.9,1.8,6.6,1.7,10.1H492.9z
		 M498.8,371.1c0-1.4-0.2-4.8-2.8-4.8c-1.9,0-3.1,1.6-3.1,4.8H498.8z"/>
	<path class="st4" d="M518.1,369.1c-0.1-1.7-0.8-2.6-2.4-2.6c-1.2,0-1.9,0.7-1.9,1.8c0,1.9,2.6,2.1,5.1,2.9c2.6,0.8,5.1,2.3,5.1,7
		c0,4.2-3.4,7.4-8,7.4c-4.4,0-7.8-2.4-8.3-7.8h5.4c0.1,1.7,1.3,2.9,3.1,2.9c1.7,0,2.2-1.2,2.2-2.3c0-2-2.6-2.2-5.1-3
		c-2.6-0.9-5.1-2.4-5.1-6.9c0-3.8,2.6-6.6,7.8-6.6c5,0,7.3,2.8,7.6,7.2H518.1z"/>
	<path class="st4" d="M529.5,367.4h-2.4v-5h2.4V358h5.4v4.3h2.4v5h-2.4v17.7h-5.4V367.4z"/>
	<path class="st4" d="M554.9,355.5h5.4v29.6h-5.4V355.5z"/>
	<path class="st4" d="M582.5,385.1h-4.9v-2.2c-1,1.8-2.3,2.6-4.4,2.6c-4.1,0-7.2-3.7-7.2-11.8c0-7.7,2.5-11.8,7.2-11.8
		c1.8,0,3.6,0.7,4.4,2.8v-2.3h4.9V385.1z M571.4,373.8c0,5,1.1,6.4,2.9,6.4c1.1,0,1.6-0.3,2.1-1c0.7-0.8,0.7-1.9,0.7-5.5
		c0-3.6,0-4.6-0.7-5.5c-0.6-0.7-1-1-2.1-1C572.5,367.2,571.4,368.7,571.4,373.8L571.4,373.8z"/>
	<path class="st4" d="M607.6,367.4v17.7h-5.4v-17.7h-2.1v-5h2.1v-0.9c0-6,5.3-6.5,8.3-6.5v4.6c-1.2,0-3,0-3,2.4v0.4h10.9v22.7h-5.4
		v-17.7H607.6z M613.1,360v-4.5h5.4v4.5H613.1z"/>
	<path class="st4" d="M625.3,362.4h4.6v2.2c0.9-1.6,2-2.6,4.8-2.6c3.6,0,5.9,2,5.9,6.6v16.6h-5.4v-14.8c0-1.6-0.4-3-2.2-3
		c-1.4,0-2.4,0.7-2.4,2.6v15.2h-5.4V362.4z"/>
	<path class="st4" d="M674.9,385.1h-4.9v-2.6c-0.4,1.9-2.3,3-4.4,3c-4.1,0-7.2-3.7-7.2-11.8c0-7.7,2.5-11.8,7.2-11.8
		c1.8,0,3.1,0.7,4,2.4c0-0.6,0-1.3,0-1.9v-6.9h5.4V385.1z M663.9,373.8c0,5,1.1,6.4,2.9,6.4c1.1,0,1.6-0.3,2.1-1
		c0.7-0.8,0.7-1.9,0.7-5.5c0-3.6,0-4.6-0.7-5.5c-0.6-0.7-1-1-2.1-1C665,367.2,663.9,368.7,663.9,373.8L663.9,373.8z"/>
	<path class="st4" d="M686.1,375.6c0,2.2,0.6,4.9,3,4.9c1.4,0,2.4-0.9,2.8-2.8h5.3c-0.4,3.2-1.7,5.2-3.3,6.4
		c-1.6,1.1-3.4,1.5-4.8,1.5c-6,0-8.8-5.3-8.8-11.8c0-6.6,2.8-11.8,8.8-11.8c3,0,5.2,1.3,6.6,3.6c1.7,2.9,1.8,6.6,1.7,10.1H686.1z
		 M692,371.1c0-1.4-0.2-4.8-2.8-4.8c-1.9,0-3.1,1.6-3.1,4.8H692z"/>
	<path class="st4" d="M716.1,355.5h5.4v29.6h-5.4V355.5z"/>
	<path class="st4" d="M729.3,355.5h5.7l-4.2,10H726L729.3,355.5z"/>
	<path class="st4" d="M743.6,375.6c0,2.2,0.6,4.9,3,4.9c1.4,0,2.4-0.9,2.8-2.8h5.3c-0.4,3.2-1.7,5.2-3.3,6.4
		c-1.6,1.1-3.4,1.5-4.8,1.5c-6,0-8.8-5.3-8.8-11.8c0-6.6,2.8-11.8,8.8-11.8c3,0,5.2,1.3,6.6,3.6c1.7,2.9,1.8,6.6,1.7,10.1H743.6z
		 M749.5,371.1c0-1.4-0.2-4.8-2.8-4.8c-1.9,0-3.1,1.6-3.1,4.8H749.5z"/>
	<path class="st4" d="M760.3,362.4h4.6v2.2c0.9-1.6,2-2.6,4.8-2.6c3.6,0,5.9,2,5.9,6.6v16.6h-5.4v-14.8c0-1.6-0.4-3-2.2-3
		c-1.4,0-2.4,0.7-2.4,2.6v15.2h-5.4V362.4z"/>
	<path class="st4" d="M782.5,367.4h-2.4v-5h2.4V358h5.4v4.3h2.4v5h-2.4v17.7h-5.4V367.4z"/>
	<path class="st4" d="M794.6,362.4h4.9v3c0.8-2.8,2.8-3.4,5.8-3.4v6.6c-0.8-0.5-1.6-0.7-2.4-0.7c-2,0-2.9,1.7-2.9,4v13.3h-5.4V362.4
		z"/>
	<path class="st4" d="M813.8,375.6c0,2.2,0.6,4.9,3,4.9c1.4,0,2.4-0.9,2.8-2.8h5.3c-0.4,3.2-1.7,5.2-3.3,6.4
		c-1.6,1.1-3.4,1.5-4.8,1.5c-6,0-8.8-5.3-8.8-11.8c0-6.6,2.8-11.8,8.8-11.8c3,0,5.2,1.3,6.6,3.6c1.7,2.9,1.8,6.6,1.7,10.1H813.8z
		 M819.7,371.1c0-1.4-0.2-4.8-2.8-4.8c-1.9,0-3.1,1.6-3.1,4.8H819.7z"/>
	<path class="st4" d="M831.1,367.4h-2.4v-5h2.4V358h5.4v4.3h2.4v5h-2.4v17.7h-5.4V367.4z"/>
	<path class="st4" d="M843.8,355.5h5.4v4.5h-5.4V355.5z M843.8,362.4h5.4v22.7h-5.4V362.4z"/>
	<path class="st4" d="M860.9,375.6c0,2.2,0.6,4.9,3,4.9c1.4,0,2.4-0.9,2.8-2.8h5.3c-0.4,3.2-1.7,5.2-3.3,6.4
		c-1.6,1.1-3.4,1.5-4.8,1.5c-6,0-8.8-5.3-8.8-11.8c0-6.6,2.8-11.8,8.8-11.8c3,0,5.2,1.3,6.6,3.6c1.7,2.9,1.8,6.6,1.7,10.1H860.9z
		 M866.8,371.1c0-1.4-0.2-4.8-2.8-4.8c-1.9,0-3.1,1.6-3.1,4.8H866.8z"/>
	<path class="st4" d="M877.6,362.4h4.6v2.2c0.9-1.6,2-2.6,4.8-2.6c3.6,0,5.9,2,5.9,6.6v16.6h-5.4v-14.8c0-1.6-0.4-3-2.2-3
		c-1.4,0-2.4,0.7-2.4,2.6v15.2h-5.4V362.4z"/>
	<path class="st4" d="M916.8,375.6c0,2.2,0.6,4.9,3,4.9c1.4,0,2.4-0.9,2.8-2.8h5.3c-0.4,3.2-1.7,5.2-3.3,6.4
		c-1.6,1.1-3.4,1.5-4.8,1.5c-6,0-8.8-5.3-8.8-11.8c0-6.6,2.8-11.8,8.8-11.8c3,0,5.2,1.3,6.6,3.6c1.7,2.9,1.8,6.6,1.7,10.1H916.8z
		 M922.7,371.1c0-1.4-0.2-4.8-2.8-4.8c-1.9,0-3.1,1.6-3.1,4.8H922.7z"/>
	<path class="st4" d="M934.1,367.4h-2.4v-5h2.4V358h5.4v4.3h2.4v5h-2.4v17.7h-5.4V367.4z"/>
	<path class="st4" d="M968.3,385.1h-4.9l-6.6-22.7h5.4l3.5,14.6l3-14.6h5.4L968.3,385.1z"/>
	<path class="st4" d="M976.8,373.7c0-6.5,2.8-11.8,8.8-11.8s8.8,5.3,8.8,11.8c0,6.6-2.8,11.8-8.8,11.8S976.8,380.3,976.8,373.7
		L976.8,373.7z M982.5,373.8c0,5.3,1.2,6.8,3.2,6.8c1.8,0,3-1.4,3-6.8c0-5.4-1.2-6.8-3.2-6.8C983.7,366.9,982.5,368.4,982.5,373.8
		L982.5,373.8z"/>
	<path class="st4" d="M1014.9,385.1h-4.8v-2.4c-0.7,1.8-1.8,2.9-4.6,2.9c-3.6,0-5.9-2-5.9-6.6v-16.6h5.4v14.8c0,1.6,0.4,3,2.2,3
		c1.4,0,2.4-0.7,2.4-2.6v-15.2h5.4V385.1z"/>
	<path class="st4" d="M1029.7,369.1c-0.1-1.7-0.8-2.6-2.4-2.6c-1.2,0-1.9,0.7-1.9,1.8c0,1.9,2.6,2.1,5.1,2.9c2.6,0.8,5.1,2.3,5.1,7
		c0,4.2-3.4,7.4-8,7.4c-4.4,0-7.8-2.4-8.3-7.8h5.4c0.1,1.7,1.3,2.9,3.1,2.9c1.7,0,2.2-1.2,2.2-2.3c0-2-2.6-2.2-5.1-3
		c-2.6-0.9-5.1-2.4-5.1-6.9c0-3.8,2.6-6.6,7.8-6.6c5,0,7.3,2.8,7.6,7.2H1029.7z"/>
	<path class="st4" d="M1068.5,385.1h-4.9v-2.2c-1,1.8-2.3,2.6-4.4,2.6c-4.1,0-7.2-3.7-7.2-11.8c0-7.7,2.5-11.8,7.2-11.8
		c1.8,0,3.6,0.7,4.4,2.8v-2.3h4.9V385.1z M1057.5,373.8c0,5,1.1,6.4,2.9,6.4c1.1,0,1.6-0.3,2.1-1c0.7-0.8,0.7-1.9,0.7-5.5
		c0-3.6,0-4.6-0.7-5.5c-0.6-0.7-1-1-2.1-1C1058.6,367.2,1057.5,368.7,1057.5,373.8L1057.5,373.8z"/>
	<path class="st4" d="M1084.1,385.1h-4.9l-6.6-22.7h5.4l3.5,14.6l3-14.6h5.4L1084.1,385.1z"/>
	<path class="st4" d="M1098.6,375.6c0,2.2,0.6,4.9,3,4.9c1.4,0,2.4-0.9,2.8-2.8h5.3c-0.4,3.2-1.7,5.2-3.3,6.4
		c-1.6,1.1-3.4,1.5-4.8,1.5c-6,0-8.8-5.3-8.8-11.8c0-6.6,2.8-11.8,8.8-11.8c3,0,5.2,1.3,6.6,3.6c1.7,2.9,1.8,6.6,1.7,10.1H1098.6z
		 M1104.5,371.1c0-1.4-0.2-4.8-2.8-4.8c-1.9,0-3.1,1.6-3.1,4.8H1104.5z"/>
	<path class="st4" d="M1114.1,380l8.3-12.6h-7.5v-5h13.9v5l-8.2,12.6h8.2v5h-14.7V380z"/>
	<path class="st4" d="M1152.3,375.6c0,2.2,0.6,4.9,3,4.9c1.4,0,2.4-0.9,2.8-2.8h5.3c-0.4,3.2-1.7,5.2-3.3,6.4
		c-1.6,1.1-3.4,1.5-4.8,1.5c-6,0-8.8-5.3-8.8-11.8c0-6.6,2.8-11.8,8.8-11.8c3,0,5.2,1.3,6.6,3.6c1.7,2.9,1.8,6.6,1.7,10.1H1152.3z
		 M1158.2,371.1c0-1.4-0.2-4.8-2.8-4.8c-1.9,0-3.1,1.6-3.1,4.8H1158.2z"/>
	<path class="st4" d="M1169,362.4h4.6v2.2c0.9-1.6,2-2.6,4.8-2.6c3.6,0,5.9,2,5.9,6.6v16.6h-5.4v-14.8c0-1.6-0.4-3-2.2-3
		c-1.4,0-2.4,0.7-2.4,2.6v15.2h-5.4V362.4z"/>
	<path class="st4" d="M1205.4,376.4c0,4.6-2.3,9.1-7.3,9.1c-5.4,0-8.8-4.2-8.8-11.8c0-7.6,3.4-11.8,8.8-11.8c5,0,7.3,4.4,7.3,9.1
		h-5.6c0-2.7-0.7-4.1-2.1-4.1c-0.9,0-1.6,0.4-2,1.4c-0.5,1-0.7,2.8-0.7,5.4c0,5.2,1,6.8,2.7,6.8c1.6,0,2.1-1.8,2.1-4.1H1205.4z"/>
	<path class="st4" d="M1208.9,373.7c0-6.5,2.8-11.8,8.8-11.8s8.8,5.3,8.8,11.8c0,6.6-2.8,11.8-8.8,11.8S1208.9,380.3,1208.9,373.7
		L1208.9,373.7z M1214.6,373.8c0,5.3,1.2,6.8,3.2,6.8c1.8,0,3-1.4,3-6.8c0-5.4-1.2-6.8-3.2-6.8
		C1215.8,366.9,1214.6,368.4,1214.6,373.8L1214.6,373.8z"/>
	<path class="st4" d="M1231.6,362.4h4.9v3c0.8-2.8,2.8-3.4,5.8-3.4v6.6c-0.8-0.5-1.6-0.7-2.4-0.7c-2,0-2.9,1.7-2.9,4v13.3h-5.4
		V362.4z"/>
	<path class="st4" d="M1250.8,375.6c0,2.2,0.6,4.9,3,4.9c1.4,0,2.4-0.9,2.8-2.8h5.3c-0.4,3.2-1.7,5.2-3.3,6.4
		c-1.6,1.1-3.4,1.5-4.8,1.5c-6,0-8.8-5.3-8.8-11.8c0-6.6,2.8-11.8,8.8-11.8c3,0,5.2,1.3,6.6,3.6c1.7,2.9,1.8,6.6,1.7,10.1H1250.8z
		 M1256.7,371.1c0-1.4-0.2-4.8-2.8-4.8c-1.9,0-3.1,1.6-3.1,4.8H1256.7z"/>
	<path class="st4" d="M1295.6,385.1h-4.9v-2.6c-0.4,1.9-2.3,3-4.4,3c-4.1,0-7.2-3.7-7.2-11.8c0-7.7,2.5-11.8,7.2-11.8
		c1.8,0,3.1,0.7,4,2.4c0-0.6,0-1.3,0-1.9v-6.9h5.4V385.1z M1284.5,373.8c0,5,1.1,6.4,2.9,6.4c1.1,0,1.6-0.3,2.1-1
		c0.7-0.8,0.7-1.9,0.7-5.5c0-3.6,0-4.6-0.7-5.5c-0.6-0.7-1-1-2.1-1C1285.6,367.2,1284.5,368.7,1284.5,373.8L1284.5,373.8z"/>
	<path class="st4" d="M1306.7,375.6c0,2.2,0.6,4.9,3,4.9c1.4,0,2.4-0.9,2.8-2.8h5.3c-0.4,3.2-1.7,5.2-3.3,6.4
		c-1.6,1.1-3.4,1.5-4.8,1.5c-6,0-8.8-5.3-8.8-11.8c0-6.6,2.8-11.8,8.8-11.8c3,0,5.2,1.3,6.6,3.6c1.7,2.9,1.8,6.6,1.7,10.1H1306.7z
		 M1312.6,371.1c0-1.4-0.2-4.8-2.8-4.8c-1.9,0-3.1,1.6-3.1,4.8H1312.6z"/>
	<path class="st4" d="M1332,369.1c-0.1-1.7-0.8-2.6-2.4-2.6c-1.2,0-1.9,0.7-1.9,1.8c0,1.9,2.6,2.1,5.1,2.9c2.6,0.8,5.1,2.3,5.1,7
		c0,4.2-3.4,7.4-8,7.4c-4.4,0-7.8-2.4-8.3-7.8h5.4c0.1,1.7,1.3,2.9,3.1,2.9c1.7,0,2.2-1.2,2.2-2.3c0-2-2.6-2.2-5.1-3
		c-2.6-0.9-5.1-2.4-5.1-6.9c0-3.8,2.6-6.6,7.8-6.6c5,0,7.3,2.8,7.6,7.2H1332z"/>
	<path class="st4" d="M1370.8,385.1h-4.9v-2.6c-0.4,1.9-2.3,3-4.4,3c-4.1,0-7.2-3.7-7.2-11.8c0-7.7,2.5-11.8,7.2-11.8
		c1.8,0,3.1,0.7,4,2.4c0-0.6,0-1.3,0-1.9v-6.9h5.4V385.1z M1359.8,373.8c0,5,1.1,6.4,2.9,6.4c1.1,0,1.6-0.3,2.1-1
		c0.7-0.8,0.7-1.9,0.7-5.5c0-3.6,0-4.6-0.7-5.5c-0.6-0.7-1-1-2.1-1C1360.9,367.2,1359.8,368.7,1359.8,373.8L1359.8,373.8z"/>
	<path class="st4" d="M1376,373.7c0-6.5,2.8-11.8,8.8-11.8s8.8,5.3,8.8,11.8c0,6.6-2.8,11.8-8.8,11.8S1376,380.3,1376,373.7
		L1376,373.7z M1381.7,373.8c0,5.3,1.2,6.8,3.2,6.8c1.8,0,3-1.4,3-6.8c0-5.4-1.2-6.8-3.2-6.8
		C1382.9,366.9,1381.7,368.4,1381.7,373.8L1381.7,373.8z"/>
	<path class="st4" d="M1414,385.1h-4.8v-2.4c-0.7,1.8-1.8,2.9-4.6,2.9c-3.6,0-5.9-2-5.9-6.6v-16.6h5.4v14.8c0,1.6,0.4,3,2.2,3
		c1.4,0,2.4-0.7,2.4-2.6v-15.2h5.4V385.1z"/>
	<path class="st4" d="M1420.9,367.4h-2.4v-5h2.4V358h5.4v4.3h2.4v5h-2.4v17.7h-5.4V367.4z"/>
	<path class="st4" d="M1437.5,375.6c0,2.2,0.6,4.9,3,4.9c1.4,0,2.4-0.9,2.8-2.8h5.3c-0.4,3.2-1.7,5.2-3.3,6.4
		c-1.6,1.1-3.4,1.5-4.8,1.5c-6,0-8.8-5.3-8.8-11.8c0-6.6,2.8-11.8,8.8-11.8c3,0,5.2,1.3,6.6,3.6c1.7,2.9,1.8,6.6,1.7,10.1H1437.5z
		 M1443.4,371.1c0-1.4-0.2-4.8-2.8-4.8c-1.9,0-3.1,1.6-3.1,4.8H1443.4z"/>
	<path class="st4" d="M1462.8,369.1c-0.1-1.7-0.8-2.6-2.4-2.6c-1.2,0-1.9,0.7-1.9,1.8c0,1.9,2.6,2.1,5.1,2.9c2.6,0.8,5.1,2.3,5.1,7
		c0,4.2-3.4,7.4-8,7.4c-4.4,0-7.8-2.4-8.3-7.8h5.4c0.1,1.7,1.3,2.9,3.1,2.9c1.7,0,2.2-1.2,2.2-2.3c0-2-2.6-2.2-5.1-3
		c-2.6-0.9-5.1-2.4-5.1-6.9c0-3.8,2.6-6.6,7.8-6.6c5,0,7.3,2.8,7.6,7.2H1462.8z"/>
	<path class="st4" d="M668.6,414.1c-0.1-1.7-0.8-2.6-2.4-2.6c-1.2,0-1.9,0.7-1.9,1.8c0,1.9,2.6,2.1,5.1,2.9c2.6,0.8,5.1,2.3,5.1,7
		c0,4.2-3.4,7.4-8,7.4c-4.4,0-7.8-2.4-8.3-7.8h5.4c0.1,1.7,1.3,2.9,3.1,2.9c1.7,0,2.2-1.2,2.2-2.3c0-2-2.6-2.2-5.1-3
		c-2.6-0.9-5.1-2.4-5.1-6.9c0-3.8,2.6-6.6,7.8-6.6c5,0,7.3,2.8,7.6,7.2H668.6z"/>
	<path class="st4" d="M694.8,430.1h-4.8v-2.4c-0.7,1.8-1.8,2.9-4.6,2.9c-3.6,0-5.9-2-5.9-6.6v-16.6h5.4v14.8c0,1.6,0.4,3,2.2,3
		c1.4,0,2.4-0.7,2.4-2.6v-15.2h5.4V430.1z"/>
	<path class="st4" d="M701,407.4h4.9v3c0.8-2.8,2.8-3.4,5.8-3.4v6.6c-0.8-0.5-1.6-0.7-2.4-0.7c-2,0-2.9,1.7-2.9,4v13.3H701V407.4z"
		/>
	<path class="st4" d="M743.5,421.4c0,4.6-2.3,9.1-7.3,9.1c-5.4,0-8.8-4.2-8.8-11.8c0-7.6,3.4-11.8,8.8-11.8c5,0,7.3,4.4,7.3,9.1
		h-5.6c0-2.7-0.7-4.1-2.1-4.1c-0.9,0-1.6,0.4-2,1.4c-0.5,1-0.7,2.8-0.7,5.4c0,5.2,1,6.8,2.7,6.8c1.6,0,2.1-1.8,2.1-4.1H743.5z"/>
	<path class="st4" d="M752.9,420.6c0,2.2,0.6,4.9,3,4.9c1.4,0,2.4-0.9,2.8-2.8h5.3c-0.4,3.2-1.7,5.2-3.3,6.4
		c-1.6,1.1-3.4,1.5-4.8,1.5c-6,0-8.8-5.3-8.8-11.8c0-6.6,2.8-11.8,8.8-11.8c3,0,5.2,1.3,6.6,3.6c1.7,2.9,1.8,6.6,1.7,10.1H752.9z
		 M758.8,416.1c0-1.4-0.2-4.8-2.8-4.8c-1.9,0-3.1,1.6-3.1,4.8H758.8z"/>
	<path class="st4" d="M797.1,421.4c0,4.6-2.3,9.1-7.3,9.1c-5.4,0-8.8-4.2-8.8-11.8c0-7.6,3.4-11.8,8.8-11.8c5,0,7.3,4.4,7.3,9.1
		h-5.6c0-2.7-0.7-4.1-2.1-4.1c-0.9,0-1.6,0.4-2,1.4c-0.5,1-0.7,2.8-0.7,5.4c0,5.2,1,6.8,2.7,6.8c1.6,0,2.1-1.8,2.1-4.1H797.1z"/>
	<path class="st4" d="M817,430.1h-4.9v-2.2c-1,1.8-2.3,2.6-4.4,2.6c-4.1,0-7.2-3.7-7.2-11.8c0-7.7,2.5-11.8,7.2-11.8
		c1.8,0,3.6,0.7,4.4,2.8v-2.3h4.9V430.1z M806,418.8c0,5,1.1,6.4,2.9,6.4c1.1,0,1.6-0.3,2.1-1c0.7-0.8,0.7-1.9,0.7-5.5
		c0-3.6,0-4.6-0.7-5.5c-0.6-0.7-1-1-2.1-1C807.1,412.2,806,413.7,806,418.8L806,418.8z"/>
	<path class="st4" d="M823.3,407.4h4.6v2.2c0.9-1.6,2-2.6,4.8-2.6c3.6,0,5.9,2,5.9,6.6v16.6h-5.4v-14.8c0-1.6-0.4-3-2.2-3
		c-1.4,0-2.4,0.7-2.4,2.6v15.2h-5.4V407.4z"/>
	<path class="st4" d="M860.2,430.1h-4.9v-2.6c-0.4,1.9-2.3,3-4.4,3c-4.1,0-7.2-3.7-7.2-11.8c0-7.7,2.5-11.8,7.2-11.8
		c1.8,0,3.1,0.7,4,2.4c0-0.6,0-1.3,0-1.9v-6.9h5.4V430.1z M849.2,418.8c0,5,1.1,6.4,2.9,6.4c1.1,0,1.6-0.3,2.1-1
		c0.7-0.8,0.7-1.9,0.7-5.5c0-3.6,0-4.6-0.7-5.5c-0.6-0.7-1-1-2.1-1C850.3,412.2,849.2,413.7,849.2,418.8L849.2,418.8z"/>
	<path class="st4" d="M867.1,400.5h5.4v4.5h-5.4V400.5z M867.1,407.4h5.4v22.7h-5.4V407.4z"/>
	<path class="st4" d="M894.6,430.1h-4.9v-2.6c-0.4,1.9-2.3,3-4.4,3c-4.1,0-7.2-3.7-7.2-11.8c0-7.7,2.5-11.8,7.2-11.8
		c1.8,0,3.1,0.7,4,2.4c0-0.6,0-1.3,0-1.9v-6.9h5.4V430.1z M883.5,418.8c0,5,1.1,6.4,2.9,6.4c1.1,0,1.6-0.3,2.1-1
		c0.7-0.8,0.7-1.9,0.7-5.5c0-3.6,0-4.6-0.7-5.5c-0.6-0.7-1-1-2.1-1C884.6,412.2,883.5,413.7,883.5,418.8L883.5,418.8z"/>
	<path class="st4" d="M916.2,430.1h-4.9v-2.2c-1,1.8-2.3,2.6-4.4,2.6c-4.1,0-7.2-3.7-7.2-11.8c0-7.7,2.5-11.8,7.2-11.8
		c1.8,0,3.6,0.7,4.4,2.8v-2.3h4.9V430.1z M905.1,418.8c0,5,1.1,6.4,2.9,6.4c1.1,0,1.6-0.3,2.1-1c0.7-0.8,0.7-1.9,0.7-5.5
		c0-3.6,0-4.6-0.7-5.5c-0.6-0.7-1-1-2.1-1C906.2,412.2,905.1,413.7,905.1,418.8L905.1,418.8z"/>
	<path class="st4" d="M923,412.4h-2.4v-5h2.4V403h5.4v4.3h2.4v5h-2.4v17.7H923V412.4z"/>
	<path class="st4" d="M937.6,434.2h-4.2l2.9-10h5L937.6,434.2z"/>
	<path class="st4" d="M971.9,437.3h-5.4v-7.2c0-0.6,0-1.3,0-2c-0.8,1.8-2.2,2.4-4,2.4c-4.6,0-7.2-4.2-7.2-11.8
		c0-8.2,3.1-11.8,7.2-11.8c2.1,0,4,1.2,4.2,2.6v-2.2h5V437.3z M960.9,418.8c0,5,1.1,6.4,2.9,6.4c1.1,0,1.6-0.3,2.1-1
		c0.7-0.8,0.7-1.9,0.7-5.5c0-3.6,0-4.6-0.7-5.5c-0.6-0.7-1-1-2.1-1C962,412.2,960.9,413.7,960.9,418.8L960.9,418.8z"/>
	<path class="st4" d="M993.5,430.1h-4.8v-2.4c-0.7,1.8-1.8,2.9-4.6,2.9c-3.6,0-5.9-2-5.9-6.6v-16.6h5.4v14.8c0,1.6,0.4,3,2.2,3
		c1.4,0,2.4-0.7,2.4-2.6v-15.2h5.4V430.1z"/>
	<path class="st4" d="M1004.7,420.6c0,2.2,0.6,4.9,3,4.9c1.4,0,2.4-0.9,2.8-2.8h5.3c-0.4,3.2-1.7,5.2-3.3,6.4
		c-1.6,1.1-3.4,1.5-4.8,1.5c-6,0-8.8-5.3-8.8-11.8c0-6.6,2.8-11.8,8.8-11.8c3,0,5.2,1.3,6.6,3.6c1.7,2.9,1.8,6.6,1.7,10.1H1004.7z
		 M1010.6,416.1c0-1.4-0.2-4.8-2.8-4.8c-1.9,0-3.1,1.6-3.1,4.8H1010.6z"/>
	<path class="st4" d="M1034.5,412.4h-2.1v-5h2.1v-0.9c0-6,5.3-6.5,8.3-6.5v4.6c-1.2,0-3,0-3,2.4v0.4h3v5h-3v17.7h-5.4V412.4z"/>
	<path class="st4" d="M1062,430.1h-4.9v-2.2c-1,1.8-2.3,2.6-4.4,2.6c-4.1,0-7.2-3.7-7.2-11.8c0-7.7,2.5-11.8,7.2-11.8
		c1.8,0,3.6,0.7,4.4,2.8v-2.3h4.9V430.1z M1050.9,418.8c0,5,1.1,6.4,2.9,6.4c1.1,0,1.6-0.3,2.1-1c0.7-0.8,0.7-1.9,0.7-5.5
		c0-3.6,0-4.6-0.7-5.5c-0.6-0.7-1-1-2.1-1C1052,412.2,1050.9,413.7,1050.9,418.8L1050.9,418.8z"/>
	<path class="st4" d="M1068.8,400.5h5.4v4.5h-5.4V400.5z M1068.8,407.4h5.4v22.7h-5.4V407.4z"/>
	<path class="st4" d="M1081.5,412.4h-2.4v-5h2.4V403h5.4v4.3h2.4v5h-2.4v17.7h-5.4V412.4z"/>
	<path class="st4" d="M1098.1,420.6c0,2.2,0.6,4.9,3,4.9c1.4,0,2.4-0.9,2.8-2.8h5.3c-0.4,3.2-1.7,5.2-3.3,6.4
		c-1.6,1.1-3.4,1.5-4.8,1.5c-6,0-8.8-5.3-8.8-11.8c0-6.6,2.8-11.8,8.8-11.8c3,0,5.2,1.3,6.6,3.6c1.7,2.9,1.8,6.6,1.7,10.1H1098.1z
		 M1104.1,416.1c0-1.4-0.2-4.8-2.8-4.8c-1.9,0-3.1,1.6-3.1,4.8H1104.1z"/>
	<path class="st4" d="M1123.4,414.1c-0.1-1.7-0.8-2.6-2.4-2.6c-1.2,0-1.9,0.7-1.9,1.8c0,1.9,2.6,2.1,5.1,2.9c2.6,0.8,5.1,2.3,5.1,7
		c0,4.2-3.4,7.4-8,7.4c-4.4,0-7.8-2.4-8.3-7.8h5.4c0.1,1.7,1.3,2.9,3.1,2.9c1.7,0,2.2-1.2,2.2-2.3c0-2-2.6-2.2-5.1-3
		c-2.6-0.9-5.1-2.4-5.1-6.9c0-3.8,2.6-6.6,7.8-6.6c5,0,7.3,2.8,7.6,7.2H1123.4z"/>
	<path class="st4" d="M1143.5,416.1v5.2h-10v-5.2H1143.5z"/>
	<path class="st4" d="M1158.5,430.1h-4.9l-6.6-22.7h5.4l3.5,14.6l3-14.6h5.4L1158.5,430.1z"/>
	<path class="st4" d="M1167,418.7c0-6.5,2.8-11.8,8.8-11.8s8.8,5.3,8.8,11.8c0,6.6-2.8,11.8-8.8,11.8S1167,425.3,1167,418.7
		L1167,418.7z M1172.7,418.8c0,5.3,1.2,6.8,3.2,6.8c1.8,0,3-1.4,3-6.8c0-5.4-1.2-6.8-3.2-6.8
		C1173.9,411.9,1172.7,413.4,1172.7,418.8L1172.7,418.8z"/>
	<path class="st4" d="M1205,430.1h-4.8v-2.4c-0.7,1.8-1.8,2.9-4.6,2.9c-3.6,0-5.9-2-5.9-6.6v-16.6h5.4v14.8c0,1.6,0.4,3,2.2,3
		c1.4,0,2.4-0.7,2.4-2.6v-15.2h5.4V430.1z"/>
	<path class="st4" d="M1219.9,414.1c-0.1-1.7-0.8-2.6-2.4-2.6c-1.2,0-1.9,0.7-1.9,1.8c0,1.9,2.6,2.1,5.1,2.9c2.6,0.8,5.1,2.3,5.1,7
		c0,4.2-3.4,7.4-8,7.4c-4.4,0-7.8-2.4-8.3-7.8h5.4c0.1,1.7,1.3,2.9,3.1,2.9c1.7,0,2.2-1.2,2.2-2.3c0-2-2.6-2.2-5.1-3
		c-2.6-0.9-5.1-2.4-5.1-6.9c0-3.8,2.6-6.6,7.8-6.6c5,0,7.3,2.8,7.6,7.2H1219.9z"/>
	<path class="st4" d="M1247.2,422.1c0-3.2-0.6-5.9,1.2-8.2c1.8-2.3,4.8-3.6,4.8-5.8c0-1.6-1-2.4-2.6-2.4c-1.3,0-2.4,0.9-2.4,2.8v1
		h-6.1V408c0-5.3,3.4-8,8.8-8c4.8,0,8.6,3.3,8.6,8.2c0,3.4-1.8,5.2-3.4,6.7c-3.2,2.8-3,2.6-3,7.2H1247.2z M1253.1,430.1h-5.9V424
		h5.9V430.1z"/>
</g>
</svg>
