<svg xmlns="http://www.w3.org/2000/svg" viewBox="0 0 43.77 43.77"><defs><style>.cls-1{fill:#105768;opacity:0.2;isolation:isolate;}.cls-2{fill:#fff;}</style></defs><title>game2b_case_a</title><g id="Calque_2" data-name="Calque 2"><g id="cases_jeu2_etat_normal" data-name="cases jeu2_etat normal"><rect class="cls-1" y="7.45" width="36.32" height="36.32" rx="4.98" ry="4.98"/><rect class="cls-2" x="7.45" width="36.32" height="36.32" rx="4.98" ry="4.98"/><path d="M30,25.61H28.23c0-1.34,0-2.17,0-2.89a4.16,4.16,0,0,1-4,3.26c-3,0-5.07-3.17-5.07-7.9s1.89-8,5.07-8c1.7,0,3.2.86,4,3.28,0-.92,0-1.78,0-2.92H30Zm-8.91-7.54c0,3.42,1.22,6.07,3.53,6.07a3,3,0,0,0,2.64-1.67A8.44,8.44,0,0,0,28.09,18a8.32,8.32,0,0,0-.86-4.43,3,3,0,0,0-2.64-1.67c-2.31,0-3.53,2.64-3.53,6.1Z"/></g><g id="cases_jeu2_etat_actif" data-name="cases jeu2_etat_actif"><path d="M30,25.61H28.23c0-1.34,0-2.17,0-2.89a4.16,4.16,0,0,1-4,3.26c-3,0-5.07-3.17-5.07-7.9s1.89-8,5.07-8c1.7,0,3.2.86,4,3.28,0-.92,0-1.78,0-2.92H30Zm-8.91-7.54c0,3.42,1.22,6.07,3.53,6.07a3,3,0,0,0,2.64-1.67A8.44,8.44,0,0,0,28.09,18a8.32,8.32,0,0,0-.86-4.43,3,3,0,0,0-2.64-1.67c-2.31,0-3.53,2.64-3.53,6.1Z"/></g></g></svg>