<?xml version="1.0" encoding="utf-8"?>
<!-- Generator: Adobe Illustrator 21.1.0, SVG Export Plug-In . SVG Version: 6.00 Build 0)  -->
<svg version="1.1" id="Calque_1" xmlns="http://www.w3.org/2000/svg" xmlns:xlink="http://www.w3.org/1999/xlink" x="0px" y="0px"
	 viewBox="0 0 598.5 131.9" style="enable-background:new 0 0 598.5 131.9;" xml:space="preserve">
<style type="text/css">
	.st0{fill:#FFFFFF;}
	.st1{opacity:0.2;fill:#105768;enable-background:new    ;}
	.st2{fill:#FEFEFF;}
	.st3{fill:#D8D8D8;}
</style>
<title>game3b_item1</title>
<g>
	<g id="Calque_2">
		<g id="Calque_2-2">
			<path class="st0" d="M20.5,14.8"/>
			<polygon class="st1" points="537,9 7.2,17 0,131.9 586.1,107.2 579.2,30.3 			"/>
			<polygon class="st2" points="549.4,0 19.5,7.9 12.4,122.9 598.5,98.2 591.5,21.2 			"/>
			<path d="M41.8,39.4h2.3l0.2,11.7c0.1,4.7-2.2,6.1-5.2,6.2c-0.8,0-1.6-0.1-2.4-0.4L37,55c0.6,0.2,1.3,0.3,1.9,0.3
				c2,0,3.2-1,3.2-4.4L41.8,39.4z"/>
			<path d="M49.9,51c0.1,3,2.1,4.3,4.4,4.3c1.2,0,2.4-0.2,3.5-0.7l0.4,1.6C56.9,56.7,55.4,57,54,57c-3.9,0.1-6.2-2.5-6.3-6.2
				s2.1-6.8,5.8-6.9c4.1-0.1,5.2,3.5,5.3,5.8c0,0.4,0,0.7-0.1,1.1L49.9,51z M56.6,49.3c0-1.5-0.7-3.7-3.2-3.7
				c-2.3,0-3.3,2.2-3.5,3.8L56.6,49.3z"/>
			<path d="M77.5,56c-1.1,0.5-2.4,0.8-3.6,0.8c-3.8,0.1-6.3-2.5-6.4-6.3c-0.2-3.5,2.5-6.6,6-6.8c0.2,0,0.5,0,0.7,0
				c1.1,0,2.2,0.2,3.2,0.6L76.9,46c-0.8-0.4-1.7-0.6-2.7-0.6c-2.9,0-4.4,2.2-4.4,4.8c0,2.9,1.9,4.7,4.4,4.6c1,0,1.9-0.2,2.8-0.7
				L77.5,56z"/>
			<path d="M92,49.8c0.1,4.7-3.1,6.7-6.2,6.8c-3.4,0-6.1-2.4-6.1-6.4c-0.1-4.2,2.7-6.7,6.1-6.8S91.9,46,92,49.8z M82,50.1
				c0,2.8,1.7,4.8,3.9,4.8s3.8-2.1,3.8-4.9c0-2.1-1.1-4.8-3.8-4.8S82,47.7,82,50.1z"/>
			<path d="M95.5,47c0-1.3-0.1-2.4-0.2-3.4h2l0.2,2.1h0.1c0.8-1.5,2.4-2.4,4.1-2.4c1.7,0,4.5,1,4.5,5.3l0.1,7.5L104,56l-0.1-7.2
				c0-2-0.8-3.7-3-3.7c-1.4,0.1-2.6,1-3,2.4c-0.1,0.3-0.2,0.7-0.1,1.1l0.1,7.6h-2.3L95.5,47z"/>
			<path d="M111,43.3l2.6,7c0.4,1.1,0.8,2.1,1.1,3.2h0.1c0.3-1,0.6-2.1,1-3.2l2.3-7.1h2.4l-4.8,12.7h-2.2l-5-12.5L111,43.3z"/>
			<path d="M134.5,49.2c0.1,4.7-3.1,6.7-6.2,6.8c-3.4,0-6.1-2.4-6.1-6.4c-0.1-4.2,2.7-6.7,6.1-6.8C131.9,42.7,134.5,45.3,134.5,49.2
				z M124.5,49.4c0,2.8,1.7,4.8,3.9,4.8s3.8-2.1,3.8-4.9c0-2.1-1.1-4.8-3.8-4.8S124.5,47,124.5,49.4L124.5,49.4z"/>
			<path d="M146.7,53.4L146.7,53.4c-0.9,1.5-2.4,2.4-4.1,2.3c-2.9,0-5.4-2.5-5.4-6.3c-0.1-4.7,2.9-6.8,5.6-6.9
				c1.6-0.1,3.1,0.7,3.9,2.1h0.1v-1.9h2.2c0,1.1,0,2.2,0,3.5l0.2,14.3h-2.3L146.7,53.4z M146.6,47.9c0-0.3,0-0.7-0.1-1
				c-0.4-1.5-1.7-2.6-3.3-2.5c-2.4,0-3.8,2.1-3.7,4.9c0,2.5,1.3,4.7,3.8,4.6c1.5,0,2.9-1.1,3.2-2.5c0.1-0.4,0.2-0.7,0.2-1.1
				L146.6,47.9z"/>
			<path d="M163.9,51.7c0,1.3,0.1,2.4,0.2,3.4h-2l-0.2-2h-0.1c-0.8,1.5-2.4,2.4-4.1,2.4c-2,0-4.4-1-4.4-5.5l-0.1-7.4h2.3l0.1,7
				c0,2.4,0.8,4,2.9,4c1.8,0,3.2-1.5,3.2-3.3c0,0,0,0,0,0l-0.1-7.7h2.3L163.9,51.7z"/>
			<path d="M169.6,49.2c0.1,3.1,2.1,4.3,4.4,4.3c1.2,0,2.4-0.2,3.5-0.7l0.4,1.6c-1.3,0.6-2.7,0.9-4.2,0.8c-3.9,0.1-6.2-2.5-6.3-6.2
				s2.1-6.8,5.8-6.9c4.1-0.1,5.2,3.5,5.3,5.8c0,0.4,0,0.7-0.1,1.1L169.6,49.2z M176.3,47.4c0-1.5-0.6-3.7-3.2-3.7
				c-2.3,0-3.3,2.2-3.4,3.8L176.3,47.4z"/>
			<path d="M188,36.3h2.3l0.3,18.5h-2.3L188,36.3z"/>
			<path d="M202,54.5l-0.2-1.5h-0.1c-0.9,1.2-2.3,1.9-3.8,1.9c-2,0.2-3.7-1.3-3.9-3.3c0-0.1,0-0.2,0-0.3c0-3,2.6-4.8,7.5-4.8v-0.3
				c0.2-1.4-0.9-2.7-2.3-2.9c-0.2,0-0.4,0-0.6,0c-1.2,0-2.3,0.4-3.3,1l-0.5-1.5c1.2-0.8,2.7-1.2,4.1-1.2c3.9-0.1,4.8,2.5,4.9,5.1
				l0.1,4.7c0,1,0.1,2,0.2,3L202,54.5z M201.6,48.1c-2.5,0-5.3,0.5-5.3,2.9c-0.1,1.1,0.7,2.1,1.8,2.2c0.1,0,0.2,0,0.4,0
				c1.4,0,2.6-0.9,3-2.2c0.1-0.2,0.1-0.5,0.1-0.7L201.6,48.1z"/>
			<path d="M214.3,45.2c0-1.3-0.1-2.4-0.2-3.4h2l0.2,2.1h0.1c0.8-1.5,2.4-2.4,4.1-2.4c1.7,0,4.5,1,4.5,5.3l0.1,7.5h-2.3l-0.1-7.2
				c0-2-0.8-3.7-3-3.7c-1.4,0.1-2.6,1-3,2.4c-0.1,0.3-0.2,0.7-0.1,1.1l0.1,7.6h-2.3L214.3,45.2z"/>
			<path d="M240.8,47.6c0.1,4.7-3.1,6.7-6.2,6.8c-3.4,0-6.1-2.4-6.1-6.4c-0.1-4.2,2.7-6.7,6.1-6.8S240.7,43.7,240.8,47.6z
				 M230.8,47.8c0,2.8,1.7,4.8,3.9,4.8s3.8-2.1,3.8-5c0-2.1-1.1-4.8-3.8-4.8S230.8,45.5,230.8,47.8L230.8,47.8z"/>
			<path d="M254.9,50.3c0,1.3,0.1,2.4,0.2,3.4h-2l-0.2-2h-0.1c-0.8,1.5-2.4,2.4-4.1,2.4c-2,0-4.4-1-4.4-5.5l-0.1-7.4h2.3l0.1,7
				c0,2.4,0.8,4,2.9,4c1.8,0,3.2-1.5,3.2-3.3c0,0,0,0,0,0l-0.1-7.7h2.3L254.9,50.3z"/>
			<path d="M260.1,41.1l2.6,7c0.4,1.1,0.8,2.1,1.1,3.2h0.1c0.3-1,0.6-2.1,1-3.2l2.4-7.1h2.4l-4.8,12.7h-2.2l-5-12.5L260.1,41.1z"/>
			<path d="M273.5,47.6c0.1,3.1,2.1,4.3,4.4,4.3c1.2,0,2.4-0.2,3.5-0.7l0.4,1.6c-1.3,0.6-2.7,0.9-4.2,0.8c-3.9,0.1-6.2-2.5-6.3-6.2
				s2.1-6.8,5.8-6.9c4.1-0.1,5.2,3.5,5.3,5.8c0,0.4,0,0.7-0.1,1.1L273.5,47.6z M280.1,45.9c0-1.5-0.6-3.7-3.2-3.7
				c-2.3,0-3.3,2.2-3.5,3.8L280.1,45.9z"/>
			<path d="M195.3,80.9c0.1,3.1,2.1,4.3,4.4,4.3c1.2,0,2.4-0.2,3.5-0.7l0.4,1.6c-1.3,0.6-2.7,0.9-4.2,0.8c-3.9,0.1-6.2-2.5-6.3-6.2
				c0-3.8,2.1-6.8,5.8-6.9c4.1-0.1,5.2,3.5,5.3,5.8c0,0.4,0,0.7-0.1,1.1L195.3,80.9z M202,79.2c0-1.5-0.6-3.7-3.2-3.7
				c-2.3,0-3.3,2.2-3.5,3.8L202,79.2z"/>
			<path d="M285.7,34.8h2.3l0.3,18.5h-2.3L285.7,34.8z"/>
			<path d="M292.4,34.7h2.3l0.3,18.4h-2.3L292.4,34.7z"/>
			<path d="M300.7,47.2c0.1,3.1,2.1,4.3,4.4,4.3c1.2,0,2.4-0.2,3.5-0.7l0.4,1.6c-1.3,0.6-2.7,0.9-4.2,0.8c-3.9,0.1-6.2-2.5-6.3-6.2
				s2.1-6.8,5.8-6.9c4.1-0.1,5.2,3.5,5.3,5.8c0,0.4,0,0.7-0.1,1.1L300.7,47.2z M307.4,45.5c0-1.5-0.6-3.7-3.2-3.7
				c-2.3,0-3.3,2.2-3.5,3.8L307.4,45.5z"/>
			<path d="M320.5,46.9c0.1,3.1,2.1,4.3,4.4,4.3c1.2,0,2.4-0.2,3.5-0.7l0.4,1.6c-1.3,0.6-2.7,0.9-4.2,0.8c-3.9,0.1-6.2-2.5-6.3-6.2
				s2.1-6.8,5.8-6.9c4.1-0.1,5.2,3.5,5.3,5.8c0,0.4,0,0.7-0.1,1.1L320.5,46.9z M327.2,45.2c0-1.5-0.6-3.7-3.2-3.7
				c-2.3,0-3.3,2.2-3.5,3.8L327.2,45.2z"/>
			<path d="M332.9,43.4c0-1.3-0.1-2.4-0.2-3.4h2l0.1,2h0.1c0.7-1.5,2.3-2.4,3.9-2.4c1.6,0,3.1,1,3.6,2.5h0c0.3-0.6,0.8-1.2,1.4-1.7
				c0.8-0.6,1.8-1,2.8-0.9c1.7,0,4.1,1,4.2,5.4l0.1,7.4h-2.2l-0.1-7.1c0-2.4-0.9-3.9-2.8-3.8c-1.2,0.1-2.3,0.9-2.7,2.1
				c-0.1,0.4-0.2,0.8-0.2,1.2l0.1,7.8h-2.2l-0.1-7.5c0-2-0.9-3.4-2.7-3.4c-1.3,0.1-2.5,1-2.8,2.3c-0.1,0.4-0.2,0.7-0.2,1.1l0.1,7.6
				H333L332.9,43.4z"/>
			<path d="M355.2,52.2c0-0.9,0.1-2.1,0.1-3.2l-0.2-15.2h2.3l0.1,7.9h0c0.9-1.5,2.5-2.4,4.2-2.4c3.1,0,5.4,2.5,5.4,6.3
				c0.1,4.5-2.7,6.8-5.5,6.8c-1.7,0.1-3.4-0.8-4.2-2.3h-0.1l-0.1,2.1H355.2z M357.5,47.2c0,0.3,0.1,0.6,0.1,0.8
				c0.4,1.6,1.8,2.7,3.5,2.6c2.4,0,3.8-2,3.8-4.9c0-2.5-1.4-4.7-3.8-4.6c-1.7,0.1-3.1,1.2-3.4,2.9c-0.1,0.3-0.1,0.6-0.1,0.9
				L357.5,47.2z"/>
			<path d="M377.8,51.9l-0.2-1.6h-0.1c-0.9,1.2-2.3,1.9-3.8,1.9c-2,0.2-3.7-1.3-3.9-3.3c0-0.1,0-0.2,0-0.3c0-3,2.6-4.8,7.5-4.8v-0.3
				c0.2-1.4-0.9-2.7-2.3-2.9c-0.2,0-0.4,0-0.6,0c-1.2,0-2.3,0.4-3.3,1l-0.5-1.5c1.2-0.8,2.7-1.2,4.1-1.2c3.9-0.1,4.8,2.5,4.9,5.1
				l0.1,4.7c0,1,0.1,2,0.2,3L377.8,51.9z M377.3,45.5c-2.5,0-5.3,0.5-5.3,2.9c-0.1,1.1,0.7,2.1,1.8,2.2c0.1,0,0.2,0,0.4,0
				c1.4,0,2.6-0.9,3-2.2c0.1-0.2,0.1-0.5,0.1-0.7L377.3,45.5z"/>
			<path d="M394.5,48.2c0,1.3,0.1,2.4,0.2,3.4h-2l-0.2-2h0c-0.8,1.5-2.4,2.4-4.1,2.4c-2,0-4.4-1-4.4-5.5l-0.1-7.4h2.3l0.1,7
				c0,2.4,0.8,4,2.9,4c1.8,0,3.2-1.5,3.2-3.3c0,0,0,0,0,0l-0.2-7.8h2.3L394.5,48.2z"/>
			<path d="M407.9,51c-1.1,0.5-2.4,0.8-3.6,0.8c-3.8,0.1-6.3-2.5-6.4-6.3c-0.2-3.5,2.5-6.6,6-6.8c0.2,0,0.5,0,0.7,0
				c1.1,0,2.2,0.2,3.2,0.6l-0.5,1.7c-0.8-0.4-1.7-0.6-2.7-0.6c-2.9,0-4.4,2.2-4.4,4.8c0,2.9,1.9,4.7,4.4,4.6c1,0,1.9-0.2,2.8-0.7
				L407.9,51z"/>
			<path d="M411,33h2.3l0.1,7.8h0c0.3-0.7,0.9-1.3,1.5-1.7c0.7-0.4,1.5-0.7,2.3-0.7c1.7,0,4.4,1,4.5,5.3l0.1,7.5h-2.3l-0.1-7.2
				c0-2-0.8-3.7-3-3.7c-1.4,0.1-2.6,1-3,2.3c-0.1,0.4-0.2,0.7-0.1,1.1l0.1,7.6h-2.3L411,33z"/>
			<path d="M427.5,45.3c0.1,3.1,2.1,4.3,4.4,4.3c1.2,0,2.4-0.2,3.5-0.7l0.4,1.6c-1.3,0.6-2.7,0.9-4.2,0.8c-3.9,0.1-6.2-2.5-6.3-6.2
				s2.1-6.8,5.8-6.9c4.1-0.1,5.2,3.5,5.3,5.8c0,0.4,0,0.7-0.1,1.1L427.5,45.3z M434.2,43.6c0-1.5-0.6-3.7-3.2-3.7
				c-2.3,0-3.3,2.2-3.5,3.8L434.2,43.6z M434.6,33l-3.1,3.8h-1.6L432,33L434.6,33z"/>
			<path d="M441.2,45.1c0.1,3.1,2.1,4.3,4.4,4.3c1.2,0,2.4-0.2,3.5-0.7l0.4,1.6c-1.3,0.6-2.7,0.9-4.2,0.8c-3.9,0.1-6.2-2.5-6.3-6.2
				s2.1-6.8,5.8-6.9c4.1-0.1,5.2,3.5,5.3,5.8c0,0.4,0,0.7-0.1,1.1L441.2,45.1z M447.9,43.3c0-1.5-0.6-3.7-3.2-3.7
				c-2.3,0-3.3,2.2-3.5,3.8L447.9,43.3z"/>
			<path d="M451.9,54c0.7-2,1.2-4.1,1.5-6.2l2.5-0.3c-0.6,2.2-1.4,4.3-2.4,6.3L451.9,54z"/>
			<path d="M474.5,50c-1.1,0.5-2.4,0.8-3.6,0.8c-3.8,0.1-6.3-2.5-6.4-6.3c-0.2-3.5,2.5-6.6,6-6.8c0.2,0,0.5,0,0.7,0
				c1.1,0,2.2,0.2,3.2,0.6l-0.5,1.7c-0.8-0.4-1.7-0.6-2.7-0.6c-2.9,0-4.4,2.2-4.4,4.8c0,2.9,1.9,4.7,4.4,4.6c1,0,1.9-0.2,2.8-0.7
				L474.5,50z"/>
			<path d="M489,43.8c0.1,4.7-3.1,6.7-6.2,6.8c-3.4,0-6.1-2.4-6.1-6.4c-0.1-4.2,2.7-6.7,6.1-6.8S488.9,40,489,43.8z M479,44.1
				c0,2.8,1.7,4.8,3.9,4.8s3.8-2.1,3.8-5c0-2.1-1.1-4.8-3.8-4.8S479,41.7,479,44.1z"/>
			<path d="M492.5,41c0-1.3-0.1-2.4-0.1-3.4h2l0.1,2h0.1c0.7-1.5,2.3-2.4,3.9-2.4c1.6,0,3.1,1,3.6,2.5h0c0.3-0.7,0.8-1.2,1.4-1.7
				c0.8-0.6,1.8-1,2.8-0.9c1.7,0,4.1,1,4.2,5.4l0.1,7.4h-2.2l-0.1-7.1c0-2.4-0.9-3.9-2.8-3.8c-1.2,0.1-2.3,0.9-2.7,2.1
				c-0.1,0.4-0.2,0.8-0.2,1.2l0.1,7.8h-2.2l-0.1-7.5c0-2-0.9-3.4-2.7-3.4c-1.7,0.2-3,1.7-3,3.5l0.1,7.6h-2.2L492.5,41z"/>
			<path d="M514.8,40.7c0-1.3-0.1-2.4-0.2-3.4h2l0.1,2h0.1c0.7-1.5,2.3-2.4,3.9-2.4c1.6,0,3.1,1,3.6,2.5h0c0.3-0.6,0.8-1.2,1.4-1.7
				c0.8-0.6,1.8-1,2.8-0.9c1.7,0,4.2,1,4.2,5.4l0.1,7.4h-2.2l-0.1-7.1c0-2.4-0.9-3.9-2.8-3.8c-1.2,0.1-2.3,0.9-2.7,2.1
				c-0.1,0.4-0.2,0.8-0.2,1.2l0.1,7.8h-2.2l-0.1-7.5c0-2-0.9-3.4-2.7-3.4c-1.3,0.1-2.5,1-2.8,2.3c-0.1,0.4-0.2,0.7-0.2,1.1l0.1,7.6
				h-2.2L514.8,40.7z"/>
			<path d="M538.5,43.6c0.1,3.1,2.1,4.3,4.4,4.3c1.2,0,2.4-0.2,3.5-0.7l0.4,1.6c-1.3,0.6-2.7,0.9-4.2,0.8c-3.9,0.1-6.2-2.5-6.3-6.2
				s2.1-6.8,5.8-6.9c4.1-0.1,5.2,3.5,5.3,5.8c0,0.4,0,0.7-0.1,1.1L538.5,43.6z M545.1,41.9c0-1.5-0.7-3.7-3.2-3.7
				c-2.3,0-3.3,2.2-3.5,3.8L545.1,41.9z"/>
			<path d="M550.8,40.2c0-1.3-0.1-2.4-0.2-3.4h2l0.2,2.1h0c0.8-1.5,2.4-2.5,4.1-2.5c1.7,0,4.5,1,4.5,5.3l0.1,7.5h-2.3l-0.1-7.2
				c0-2-0.8-3.7-3-3.7c-1.4,0.1-2.6,1-3,2.4c-0.1,0.3-0.2,0.7-0.1,1.1l0.1,7.6h-2.3L550.8,40.2z"/>
			<path d="M568.4,32.9l0,3.6h3.3v1.7h-3.3l0.1,6.8c0,1.6,0.5,2.4,1.8,2.4c0.4,0,0.9-0.1,1.3-0.2l0.1,1.7c-0.6,0.2-1.3,0.3-2,0.3
				c-0.9,0.1-1.8-0.3-2.5-0.9c-0.7-0.9-1-2.1-0.9-3.3l-0.1-6.9h-2v-1.7h2v-3L568.4,32.9z"/>
			<path d="M89.5,86c0.9,0.5,1.9,0.8,3,0.9c1.7,0,2.4-0.9,2.4-1.9s-0.7-1.7-2.3-2.3c-2.3-0.8-3.4-2-3.4-3.5c0-2,1.6-3.7,4.3-3.8
				c1.1,0,2.2,0.2,3.1,0.7L96,77.8c-0.8-0.5-1.7-0.7-2.6-0.7c-1.3,0-2.1,0.8-2.1,1.8s0.8,1.5,2.4,2.1c2.2,0.8,3.3,1.9,3.4,3.8
				c0,2.2-1.7,3.8-4.7,3.8c-1.2,0-2.5-0.2-3.6-0.8L89.5,86z"/>
			<path d="M102.9,70.2c-0.6,2.1-1.3,4.2-2.3,6.2l-1.4,0.2c0.7-2,1.1-4,1.4-6.1L102.9,70.2z"/>
			<path d="M105.5,82.2c0.1,3.1,2.1,4.3,4.4,4.3c1.2,0,2.4-0.2,3.5-0.7l0.4,1.6c-1.3,0.6-2.7,0.9-4.2,0.8c-3.9,0.1-6.2-2.5-6.3-6.2
				s2.1-6.8,5.8-6.9c4.1-0.1,5.2,3.5,5.3,5.8c0,0.4,0,0.7-0.1,1.1L105.5,82.2z M112.2,80.5c0-1.5-0.7-3.7-3.2-3.7
				c-2.3,0-3.3,2.2-3.4,3.8L112.2,80.5z"/>
			<path d="M117.7,85.5c0.9,0.5,1.9,0.8,3,0.9c1.7,0,2.4-0.9,2.4-1.9s-0.7-1.7-2.4-2.3c-2.3-0.8-3.4-2-3.4-3.5c0-2,1.6-3.7,4.3-3.8
				c1.1,0,2.2,0.2,3.1,0.7l-0.5,1.7c-0.8-0.5-1.7-0.7-2.6-0.7c-1.4,0-2.1,0.8-2.1,1.8s0.8,1.5,2.4,2.1c2.2,0.8,3.3,1.9,3.4,3.8
				c0,2.2-1.7,3.8-4.6,3.8c-1.2,0-2.5-0.2-3.6-0.8L117.7,85.5z"/>
			<path d="M131.5,71.5l0.1,3.6h3.3v1.7h-3.3l0.1,6.8c0,1.6,0.5,2.4,1.8,2.4c0.4,0,0.9-0.1,1.3-0.2l0.1,1.7c-0.6,0.2-1.3,0.3-2,0.3
				c-0.9,0.1-1.8-0.3-2.5-0.9c-0.7-0.9-1-2.1-0.9-3.3l-0.1-6.9h-1.9v-1.7h1.9v-3L131.5,71.5z"/>
			<path d="M144.2,79c0-1.6-0.1-2.9-0.2-4.1h2.1l0.1,2.2h0.1c0.9-1.6,2.6-2.5,4.4-2.5c3,0,5.4,2.5,5.4,6.3c0.1,4.5-2.6,6.8-5.6,6.8
				c-1.5,0.1-3-0.6-3.9-1.9h-0.1l0.1,6.8h-2.3L144.2,79z M146.5,82.3c0,0.3,0.1,0.6,0.1,0.9c0.4,1.6,1.8,2.7,3.5,2.6
				c2.4,0,3.8-2,3.8-4.9c0-2.5-1.4-4.7-3.8-4.6c-1.6,0.1-3,1.3-3.4,2.9c-0.1,0.3-0.1,0.6-0.1,0.9L146.5,82.3z"/>
			<path d="M166.8,87.2l-0.2-1.6h-0.1c-0.9,1.2-2.3,1.9-3.8,1.9c-2,0.2-3.7-1.3-3.9-3.3c0-0.1,0-0.2,0-0.3c0-3,2.6-4.8,7.5-4.8v-0.3
				c0.2-1.4-0.9-2.7-2.3-2.9c-0.2,0-0.4,0-0.6,0c-1.2,0-2.3,0.4-3.3,1l-0.5-1.5c1.2-0.8,2.7-1.2,4.1-1.2c3.9-0.1,4.8,2.6,4.9,5.1
				l0.1,4.7c0,1,0.1,2,0.2,3L166.8,87.2z M166.3,80.7c-2.5,0-5.3,0.5-5.3,2.9c-0.1,1.1,0.7,2.1,1.8,2.2c0.1,0,0.2,0,0.4,0
				c1.4,0,2.6-0.9,3-2.2c0.1-0.2,0.1-0.5,0.1-0.7L166.3,80.7z"/>
			<path d="M172.6,84.7c0.9,0.5,1.9,0.8,3,0.9c1.7,0,2.4-0.9,2.4-1.9s-0.7-1.7-2.4-2.3c-2.3-0.8-3.4-2-3.4-3.5c0-2,1.6-3.7,4.3-3.8
				c1.1,0,2.2,0.2,3.1,0.7l-0.5,1.7c-0.8-0.5-1.7-0.7-2.6-0.7c-1.4,0-2.1,0.8-2.1,1.8s0.8,1.5,2.4,2.1c2.2,0.8,3.3,1.9,3.4,3.8
				c0,2.2-1.7,3.8-4.6,3.8c-1.2,0-2.5-0.2-3.6-0.8L172.6,84.7z"/>
			<path d="M183.6,84.6c0.9,0.5,1.9,0.8,3,0.9c1.7,0,2.4-0.9,2.4-1.9s-0.7-1.7-2.4-2.3c-2.3-0.8-3.4-2-3.4-3.5c0-2,1.6-3.7,4.3-3.8
				c1.1,0,2.2,0.2,3.1,0.7l-0.6,1.7c-0.8-0.5-1.7-0.7-2.6-0.7c-1.4,0-2.1,0.8-2.1,1.8s0.8,1.5,2.4,2.1c2.2,0.8,3.3,1.9,3.4,3.8
				c0,2.2-1.7,3.8-4.6,3.8c-1.2,0-2.5-0.2-3.6-0.8L183.6,84.6z"/>
			<path d="M207.9,80.6c0.1,3.1,2.1,4.3,4.4,4.3c1.2,0,2.4-0.2,3.5-0.7l0.4,1.6c-1.3,0.6-2.7,0.9-4.2,0.8c-3.9,0.1-6.2-2.5-6.3-6.2
				s2.1-6.8,5.8-6.9c4.1-0.1,5.2,3.5,5.3,5.8c0,0.4,0,0.7-0.1,1.1L207.9,80.6z M214.5,78.8c0-1.5-0.6-3.7-3.2-3.7
				c-2.3,0-3.3,2.2-3.4,3.8L214.5,78.8z M214.9,68.3l-3.1,3.8h-1.6l2.2-3.8L214.9,68.3z"/>
			<path d="M235.5,85.6c-1.1,0.5-2.4,0.8-3.6,0.8c-3.8,0.1-6.3-2.5-6.4-6.3c-0.2-3.5,2.5-6.6,6-6.8c0.2,0,0.5,0,0.7,0
				c1.1,0,2.2,0.2,3.2,0.6l-0.5,1.8c-0.8-0.4-1.7-0.6-2.7-0.6c-2.9,0-4.4,2.2-4.4,4.8c0,2.9,1.9,4.7,4.4,4.6c1,0,1.9-0.2,2.8-0.7
				L235.5,85.6z"/>
			<path d="M239.9,80.1c0.1,3.1,2.1,4.3,4.4,4.3c1.2,0,2.4-0.2,3.5-0.7l0.4,1.6c-1.3,0.6-2.7,0.9-4.2,0.8c-3.9,0.1-6.2-2.4-6.3-6.2
				s2.1-6.8,5.8-6.9c4.1-0.1,5.2,3.5,5.3,5.8c0,0.4,0,0.7-0.1,1.1L239.9,80.1z M246.5,78.4c0-1.5-0.6-3.7-3.2-3.7
				c-2.3,0-3.3,2.2-3.4,3.8L246.5,78.4z"/>
			<path d="M254.9,69.6l0.1,3.6h3.3v1.7h-3.3l0.1,6.8c0,1.6,0.5,2.4,1.8,2.4c0.4,0,0.9-0.1,1.3-0.2l0.1,1.7c-0.6,0.2-1.3,0.3-2,0.3
				c-0.9,0.1-1.8-0.3-2.5-0.9c-0.7-0.9-1-2.1-0.9-3.3l-0.1-6.9h-1.9v-1.7h1.9v-3L254.9,69.6z"/>
			<path d="M264.1,69.4l0,3.6h3.3v1.7h-3.3l0.1,6.8c0,1.6,0.5,2.4,1.8,2.4c0.4,0,0.9-0.1,1.3-0.2l0.1,1.7c-0.6,0.2-1.3,0.3-2,0.3
				c-0.9,0.1-1.8-0.3-2.5-0.9c-0.7-0.9-1-2.1-0.9-3.3l-0.1-6.9h-2v-1.7h2v-3L264.1,69.4z"/>
			<path d="M271.9,79.6c0.1,3.1,2.1,4.3,4.4,4.3c1.2,0,2.4-0.2,3.5-0.7l0.4,1.6c-1.3,0.6-2.7,0.9-4.2,0.8c-3.9,0.1-6.2-2.5-6.3-6.2
				s2.1-6.8,5.8-6.9c4.1-0.1,5.2,3.5,5.3,5.8c0,0.4,0,0.7-0.1,1.1L271.9,79.6z M278.5,77.9c0-1.5-0.6-3.7-3.2-3.7
				c-2.3,0-3.3,2.2-3.5,3.8L278.5,77.9z"/>
			<path d="M290.4,76.8c0-1.6-0.1-2.9-0.2-4.1h2l0.1,2.2h0c0.9-1.6,2.6-2.5,4.4-2.5c3,0,5.4,2.5,5.4,6.3c0.1,4.5-2.6,6.8-5.6,6.8
				c-1.5,0.1-3-0.6-3.9-1.9h0l0.1,6.8h-2.3L290.4,76.8z M292.7,80.1c0,0.3,0.1,0.6,0.1,0.9c0.4,1.6,1.8,2.7,3.5,2.6
				c2.4,0,3.8-2,3.8-4.9c0-2.5-1.4-4.7-3.8-4.6c-1.7,0.1-3.1,1.3-3.4,2.9c-0.1,0.3-0.1,0.6-0.1,0.9L292.7,80.1z"/>
			<path d="M305.8,76.3c0-1.5-0.1-2.8-0.2-3.9h2l0.1,2.5h0.1c0.4-1.6,1.8-2.8,3.4-2.9c0.2,0,0.4,0,0.6,0.1v2.2
				c-0.3-0.1-0.5-0.1-0.8-0.1c-1.6,0.1-2.9,1.4-3,3c-0.1,0.4-0.1,0.7-0.1,1.1l0.1,6.7L306,85L305.8,76.3z"/>
			<path d="M316,79c0.1,3.1,2.1,4.3,4.4,4.3c1.2,0,2.4-0.2,3.5-0.7l0.4,1.6c-1.3,0.6-2.7,0.9-4.2,0.8c-3.9,0.1-6.2-2.4-6.3-6.2
				s2.1-6.8,5.8-6.9c4.1-0.1,5.2,3.5,5.3,5.8c0,0.4,0,0.7-0.1,1.1L316,79z M322.7,77.3c0-1.5-0.6-3.7-3.2-3.7
				c-2.3,0-3.3,2.2-3.5,3.8L322.7,77.3z"/>
			<path d="M328.4,75.5c0-1.3-0.1-2.4-0.2-3.4h2l0.1,2h0.1c0.7-1.5,2.3-2.4,3.9-2.4c1.6,0,3.1,1,3.6,2.5h0c0.3-0.6,0.8-1.2,1.4-1.7
				c0.8-0.6,1.8-1,2.8-0.9c1.7,0,4.1,1,4.2,5.4l0.1,7.4h-2.2l-0.1-7.1c0-2.4-0.9-3.9-2.8-3.8c-1.2,0.1-2.3,0.9-2.7,2.1
				c-0.1,0.4-0.2,0.8-0.2,1.2l0.1,7.8h-2.2l-0.1-7.5c0-2-0.9-3.4-2.7-3.4c-1.7,0.2-3,1.7-3,3.4l0.1,7.6h-2.2L328.4,75.5z"/>
			<path d="M353.2,68.2c-0.1,0.8-0.8,1.4-1.5,1.3c-0.7-0.1-1.2-0.6-1.3-1.3c0-0.8,0.6-1.4,1.3-1.4c0,0,0.1,0,0.1,0
				c0.8,0,1.4,0.5,1.4,1.3C353.2,68.1,353.2,68.1,353.2,68.2z M350.9,84.3l-0.2-12.6h2.3l0.2,12.6H350.9z"/>
			<path d="M358.8,78.3c0.1,3.1,2.1,4.3,4.4,4.3c1.2,0,2.4-0.2,3.5-0.7l0.4,1.6c-1.3,0.6-2.7,0.9-4.2,0.8c-3.9,0.1-6.2-2.4-6.3-6.2
				s2.1-6.8,5.8-6.9c4.1-0.1,5.2,3.5,5.3,5.8c0,0.4,0,0.7-0.1,1.1L358.8,78.3z M365.5,76.6c0-1.5-0.6-3.7-3.2-3.7
				c-2.3,0-3.3,2.2-3.5,3.8L365.5,76.6z M361.5,66.1l2.3,3.7h-1.6l-3.2-3.7L361.5,66.1z"/>
			<path d="M371.1,75.4c0-1.5-0.1-2.8-0.2-3.9h2l0.1,2.5h0.1c0.4-1.6,1.8-2.7,3.4-2.8c0.2,0,0.4,0,0.6,0.1v2.2
				c-0.3-0.1-0.5-0.1-0.8-0.1c-1.6,0.1-2.9,1.4-3,3c-0.1,0.4-0.1,0.7-0.1,1.1l0.1,6.7h-2.3L371.1,75.4z"/>
			<path d="M381.4,78c0.1,3.1,2.1,4.3,4.4,4.3c1.2,0,2.4-0.2,3.5-0.7l0.4,1.6c-1.3,0.6-2.7,0.9-4.2,0.8c-3.9,0.1-6.2-2.5-6.3-6.2
				s2.1-6.8,5.8-6.9c4.1-0.1,5.2,3.5,5.3,5.8c0,0.4,0,0.7-0.1,1.1L381.4,78z M388,76.2c0-1.5-0.6-3.7-3.2-3.7
				c-2.3,0-3.3,2.2-3.5,3.8L388,76.2z"/>
			<path d="M399.6,81.2c0.9,0.5,1.9,0.8,3,0.9c1.7,0,2.4-0.9,2.4-1.9s-0.7-1.7-2.4-2.3c-2.3-0.8-3.4-2-3.4-3.5c0-2,1.6-3.7,4.3-3.8
				c1.1,0,2.2,0.2,3.1,0.7l-0.5,1.7c-0.8-0.5-1.7-0.7-2.6-0.7c-1.4,0-2.1,0.8-2.1,1.8s0.8,1.5,2.4,2.1c2.2,0.8,3.3,1.9,3.4,3.8
				c0,2.2-1.7,3.8-4.6,3.8c-1.2,0-2.4-0.2-3.5-0.8L399.6,81.2z"/>
			<path d="M412.1,77.5c0.1,3.1,2.1,4.3,4.4,4.3c1.2,0,2.4-0.2,3.5-0.7l0.4,1.6c-1.3,0.6-2.7,0.9-4.2,0.8c-3.9,0.1-6.2-2.4-6.3-6.2
				s2.1-6.8,5.8-6.9c4.1-0.1,5.2,3.5,5.3,5.8c0,0.4,0,0.7,0,1.1L412.1,77.5z M418.8,75.8c0-1.5-0.6-3.7-3.2-3.7
				c-2.3,0-3.3,2.2-3.5,3.8L418.8,75.8z"/>
			<path d="M424.5,74c0-1.3-0.1-2.4-0.2-3.4h2l0.1,2h0.1c0.7-1.5,2.3-2.4,3.9-2.4c1.6,0,3.1,1,3.6,2.5h0c0.3-0.6,0.8-1.2,1.4-1.7
				c0.8-0.6,1.8-1,2.8-0.9c1.7,0,4.1,1,4.2,5.4l0.1,7.4h-2.2l-0.1-7.1c0-2.4-0.9-3.9-2.8-3.8c-1.2,0.1-2.3,0.9-2.7,2.1
				c-0.1,0.4-0.2,0.8-0.2,1.2l0.1,7.8h-2.2l-0.1-7.5c0-2-0.9-3.4-2.7-3.4c-1.7,0.2-3,1.7-3,3.4l0.1,7.6h-2.2L424.5,74z"/>
			<path d="M453.9,82.8l-0.2-1.6h-0.1c-0.9,1.2-2.3,1.9-3.8,1.9c-2,0.2-3.7-1.3-3.9-3.3c0-0.1,0-0.2,0-0.3c0-3,2.6-4.8,7.5-4.8v-0.3
				c0.2-1.4-0.9-2.7-2.3-2.9c-0.2,0-0.4,0-0.6,0c-1.2,0-2.3,0.4-3.3,1l-0.5-1.5c1.2-0.8,2.7-1.2,4.1-1.1c3.9-0.1,4.8,2.6,4.9,5.1
				l0.1,4.7c0,1,0.1,2,0.2,3L453.9,82.8z M453.5,76.4c-2.5,0-5.3,0.5-5.3,2.9c-0.1,1.1,0.7,2.1,1.8,2.2c0.1,0,0.2,0,0.4,0
				c1.4,0,2.6-0.9,3-2.2c0.1-0.2,0.1-0.5,0.1-0.7L453.5,76.4z"/>
			<path d="M462.4,66.5c-0.1,0.8-0.8,1.4-1.5,1.3c-0.7-0.1-1.2-0.6-1.3-1.3c0-0.8,0.6-1.4,1.4-1.4c0,0,0,0,0,0
				c0.8,0,1.4,0.5,1.4,1.3C462.4,66.4,462.4,66.5,462.4,66.5z M460.1,82.7l-0.2-12.6h2.3l0.2,12.6H460.1z"/>
			<path d="M466.7,73.4c0-1.3-0.1-2.4-0.2-3.4h2l0.2,2.1h0c0.8-1.5,2.4-2.4,4.1-2.4c1.7,0,4.5,1,4.5,5.3l0.1,7.5h-2.3l-0.1-7.2
				c0-2-0.8-3.7-3-3.7c-1.4,0.1-2.6,1-3,2.4c-0.1,0.3-0.1,0.7-0.1,1.1l0.1,7.6h-2.3L466.7,73.4z"/>
			<path d="M483.1,76.5c0.1,3.1,2.1,4.3,4.4,4.3c1.2,0,2.4-0.2,3.5-0.7l0.4,1.6c-1.3,0.6-2.7,0.9-4.2,0.8c-3.9,0.1-6.2-2.5-6.3-6.2
				s2.1-6.8,5.8-6.9c4.1-0.1,5.2,3.5,5.3,5.8c0,0.4,0,0.7-0.1,1.1L483.1,76.5z M489.8,74.7c0-1.5-0.6-3.7-3.2-3.7
				c-2.3,0-3.3,2.2-3.5,3.8L489.8,74.7z"/>
			<path d="M503.5,77.1l-0.1-0.7c-0.1-1.7,0.4-3.3,1.5-4.5c1.1-1.4,1.8-2.4,1.8-3.6c0-1.3-0.9-2.2-2.5-2.2c-0.9,0-1.8,0.3-2.6,0.8
				l-0.6-1.6c1.1-0.7,2.4-1.1,3.7-1.1c3,0,4.4,1.8,4.4,3.8c0,1.8-0.9,3.1-2.2,4.6c-1,1-1.5,2.4-1.4,3.8V77L503.5,77.1z M503,80.7
				c-0.1-0.8,0.6-1.6,1.4-1.7c0,0,0.1,0,0.1,0c0.9-0.1,1.7,0.6,1.7,1.5c0.1,0.9-0.6,1.7-1.5,1.7C503.8,82.4,503,81.7,503,80.7
				C503,80.8,503,80.7,503,80.7z"/>
			<polygon class="st3" points="591.8,21.2 549.7,0 557.8,22.5 			"/>
			<g>
				<path d="M270.6,261.6c0,0.9,0,2-0.4,2.9c-0.3,0.8-0.8,1.4-1.5,1.9c-0.8,0.6-1.7,0.9-2.6,0.9c-2.3,0-4.3-1.3-4.7-4.1
					c0-0.2-0.1-0.5-0.1-0.8l1.9,0c0,0.1,0.1,0.3,0.1,0.4c0.5,2.3,1.8,2.7,2.8,2.7c1.1-0.1,1.8-0.8,2.2-1.6c0.3-0.7,0.3-1.5,0.3-2.5
					l-0.2-13.7l2,0L270.6,261.6z"/>
				<path d="M275.8,260.2c0,2.9,1.3,5.2,3.7,5.2c1.7,0,2.8-1.2,3.1-2.9l1.7,0c-0.2,1.5-0.9,2.6-1.7,3.4c-0.8,0.7-1.9,1.1-3.1,1.2
					c-3.9,0.1-5.5-3.7-5.5-7.3c-0.1-4.4,1.9-7.5,5.2-7.5c1.7,0,3,0.7,3.8,1.9c1.2,1.7,1.4,3.9,1.4,5.9L275.8,260.2z M282.6,258.6
					c-0.1-2.9-1.3-4.9-3.5-4.9c-2.1,0-3.4,2.2-3.4,5L282.6,258.6z"/>
				<path d="M304,261.5c-0.3,2.9-1.8,5.2-4.6,5.2c-3.8,0.1-5.5-3.5-5.6-7.3c-0.1-4.6,2.1-7.5,5.3-7.5c2.9,0,4.6,2.2,4.8,5.2l-1.8,0
					c-0.3-2.8-1.7-3.6-3-3.5c-1,0-1.9,0.4-2.6,1.5c-0.6,1.1-0.9,2.4-0.8,4.3c0.1,3.7,1.4,5.8,3.6,5.7c1.7,0,2.7-1.4,2.9-3.6
					L304,261.5z"/>
				<path d="M306.1,259.2c-0.1-4,1.6-7.4,5.3-7.5c3.8-0.1,5.5,3.3,5.5,7.3c0.1,4.1-1.6,7.4-5.3,7.5
					C307.9,266.6,306.2,263.3,306.1,259.2L306.1,259.2z M307.9,259.3c0.1,3.7,1.3,5.7,3.8,5.7c2.4,0,3.6-2.1,3.5-5.8
					c-0.1-3.8-1.3-5.8-3.7-5.7C309,253.4,307.9,255.5,307.9,259.3L307.9,259.3z"/>
				<path d="M320.2,252l1.6,0c0,0.8,0,1.5,0,2.4c0.7-2,2.3-2.8,4-2.8c2.4,0,4.1,1.3,4.1,4.8l0.1,9.6l-1.7,0l-0.1-9.1
					c0-1.4-0.3-3.7-2.8-3.6c-2.1,0-3.4,1.5-3.3,4.4l0.1,8.4l-1.7,0L320.2,252z"/>
				<path d="M338.3,265.8l-1.7,0l-4.5-14.1l1.8,0l3.5,11.8l3.1-11.9l1.7,0L338.3,265.8z"/>
				<path d="M343.8,258.7c-0.1-4,1.6-7.4,5.3-7.5c3.8-0.1,5.5,3.3,5.5,7.3c0.1,4.1-1.6,7.4-5.3,7.5
					C345.5,266.1,343.8,262.7,343.8,258.7L343.8,258.7z M345.6,258.7c0.1,3.7,1.3,5.7,3.8,5.7c2.4,0,3.6-2.1,3.5-5.8
					c-0.1-3.8-1.3-5.8-3.7-5.7C346.7,252.9,345.5,254.9,345.6,258.7L345.6,258.7z"/>
				<path d="M367.5,270.6l-1.7,0l-0.1-5.2c0-1.2,0-2,0-2.7c-0.6,1.9-1.9,3-3.6,3c-3,0-4.8-3-4.8-7.3c-0.1-4.5,1.8-7.5,4.6-7.5
					c1.7,0,3.1,0.9,3.7,3c0-0.9-0.1-1.6-0.1-2.7l1.7,0L367.5,270.6z M359,258.5c0,3.2,1.2,5.7,3.4,5.6c1.1,0,1.9-0.6,2.4-1.6
					c0.6-1,0.8-2.3,0.7-4.1c0-1.9-0.3-3.2-0.9-4.1c-0.6-1-1.4-1.5-2.5-1.5C360,252.7,358.9,255.2,359,258.5L359,258.5z"/>
				<path d="M381,265.2l-1.6,0c0-0.8,0-1.6,0-2.5c-0.7,2-2.3,2.8-3.9,2.9c-2.4,0-4.1-1.3-4.1-4.8l-0.1-9.6l1.7,0l0.1,9.1
					c0,1.4,0.3,3.7,2.8,3.6c2.1,0,3.4-1.5,3.3-4.4l-0.1-8.4l1.7,0L381,265.2z"/>
				<path d="M386.1,258.6c0,2.9,1.3,5.2,3.7,5.2c1.7,0,2.8-1.2,3.1-2.9l1.7,0c-0.2,1.5-0.9,2.6-1.7,3.4c-0.8,0.7-1.9,1.1-3.1,1.2
					c-3.9,0.1-5.5-3.7-5.5-7.3c-0.1-4.4,1.9-7.5,5.2-7.5c1.7,0,3,0.7,3.8,1.9c1.2,1.7,1.4,3.9,1.4,5.9L386.1,258.6z M392.9,256.9
					c-0.1-2.9-1.3-4.9-3.5-4.9c-2.1,0-3.4,2.2-3.4,5L392.9,256.9z"/>
				<path d="M405,245.6l1.7,0l0.3,19.2l-1.7,0L405,245.6z"/>
				<path d="M420.6,264.6l-1.6,0c0-1.2,0-2,0-2.7c-0.6,1.9-1.9,3.1-3.7,3.1c-2.8,0-4.8-2.9-4.8-7.3c-0.1-4.4,1.7-7.5,4.6-7.5
					c1.6,0,3,0.8,3.8,3c0-0.9-0.1-1.7-0.1-2.7l1.6,0L420.6,264.6z M412.2,257.7c0,3.2,1.2,5.7,3.4,5.6c1.1,0,1.9-0.6,2.4-1.6
					c0.6-1,0.8-2.3,0.7-4.1c0-1.9-0.3-3.2-0.9-4.1c-0.6-1-1.4-1.5-2.5-1.5C413.2,252,412.1,254.4,412.2,257.7L412.2,257.7z"/>
				<path d="M431.4,250.3l1.6,0c0,0.8,0,1.5,0,2.4c0.7-2,2.3-2.8,4-2.8c2.4,0,4.1,1.3,4.1,4.8l0.1,9.6l-1.7,0l-0.1-9.1
					c0-1.4-0.3-3.7-2.8-3.6c-2.1,0-3.4,1.5-3.3,4.4l0.1,8.4l-1.7,0L431.4,250.3z"/>
				<path d="M444.3,257.2c-0.1-4,1.6-7.4,5.3-7.5c3.8-0.1,5.5,3.3,5.5,7.3c0.1,4.1-1.6,7.4-5.3,7.5
					C446.1,264.6,444.4,261.2,444.3,257.2L444.3,257.2z M446.1,257.2c0.1,3.7,1.3,5.7,3.8,5.7c2.4,0,3.6-2.1,3.5-5.8
					c-0.1-3.8-1.3-5.8-3.7-5.7C447.2,251.4,446.1,253.4,446.1,257.2L446.1,257.2z"/>
				<path d="M468.1,263.9l-1.6,0c0-0.8,0-1.6,0-2.5c-0.7,2-2.3,2.8-3.9,2.9c-2.4,0-4.1-1.3-4.1-4.8l-0.1-9.6l1.7,0l0.1,9.1
					c0,1.4,0.3,3.7,2.8,3.6c2.1,0,3.4-1.5,3.3-4.4l-0.1-8.4l1.7,0L468.1,263.9z"/>
				<path d="M476.5,263.8l-1.7,0l-4.5-14.1l1.8,0l3.5,11.8l3.1-11.9l1.7,0L476.5,263.8z"/>
				<path d="M483.8,257.1c0,2.9,1.3,5.2,3.7,5.2c1.7,0,2.8-1.2,3.1-2.9l1.7,0c-0.2,1.5-0.9,2.6-1.7,3.4c-0.8,0.7-1.9,1.1-3.1,1.2
					c-3.9,0.1-5.5-3.7-5.5-7.3c-0.1-4.4,1.9-7.5,5.2-7.5c1.7,0,3,0.7,3.8,1.9c1.2,1.7,1.4,3.9,1.4,5.9L483.8,257.1z M490.7,255.5
					c-0.1-2.9-1.3-4.9-3.5-4.9c-2.1,0-3.4,2.2-3.4,5L490.7,255.5z"/>
				<path d="M495.8,244.2l1.7,0l0.3,19.2l-1.7,0L495.8,244.2z"/>
				<path d="M502.1,244.1l1.7,0l0.3,19.2l-1.7,0L502.1,244.1z"/>
				<path d="M509.4,256.7c0,2.9,1.3,5.2,3.7,5.2c1.7,0,2.8-1.2,3.1-2.9l1.7,0c-0.2,1.5-0.9,2.6-1.7,3.4c-0.8,0.7-1.9,1.1-3.1,1.2
					c-3.9,0.1-5.5-3.7-5.5-7.3c-0.1-4.4,1.9-7.5,5.2-7.5c1.7,0,3,0.7,3.8,1.9c1.2,1.7,1.4,3.9,1.4,5.9L509.4,256.7z M516.2,255.1
					c-0.1-2.9-1.3-4.9-3.5-4.9c-2.1,0-3.4,2.2-3.4,5L516.2,255.1z"/>
				<path d="M529.4,256.4c0,2.9,1.3,5.2,3.7,5.2c1.7,0,2.8-1.2,3.1-2.9l1.7,0c-0.2,1.5-0.9,2.6-1.7,3.4c-0.8,0.7-1.9,1.1-3.1,1.2
					c-3.9,0.1-5.5-3.7-5.5-7.3c-0.1-4.4,1.9-7.5,5.2-7.5c1.7,0,3,0.7,3.8,1.9c1.2,1.7,1.4,3.9,1.4,5.9L529.4,256.4z M536.2,254.8
					c-0.1-2.9-1.3-4.9-3.5-4.9c-2.1,0-3.4,2.2-3.4,5L536.2,254.8z"/>
				<path d="M541.3,248.7l1.7,0c0,0.7,0,1.5,0,2.3c0.7-2.2,2.3-2.7,3.5-2.7c1,0,1.8,0.3,2.5,0.9c0.4,0.4,0.7,1,0.8,1.7
					c0.2-0.8,0.6-1.4,1.1-1.8c0.7-0.5,1.6-0.9,2.6-0.9c1.7,0,2.7,0.8,3.3,1.8c0.5,0.8,0.7,2.4,0.7,3.9l0.1,8.8l-1.7,0l-0.1-8.7
					c0-1-0.1-2-0.3-2.6c-0.3-1-1.2-1.5-2.2-1.5c-0.8,0-1.6,0.2-2.3,1.2c-0.6,0.9-0.7,2.1-0.7,3.1l0.1,8.5l-1.7,0l-0.1-8.6
					c0-1.1-0.1-1.9-0.3-2.7c-0.3-0.9-1.2-1.5-2.2-1.5c-0.9,0-1.6,0.3-2.3,1.1c-0.6,0.9-0.7,2.1-0.7,3.2l0.1,8.5l-1.7,0L541.3,248.7z
					"/>
				<path d="M561.4,243.3l1.7,0l0.1,5.1c0,1.2,0,2,0,2.7c0.5-1.8,1.8-3.1,3.6-3.1c3,0,4.8,3,4.9,7.3c0.1,4.5-1.8,7.5-4.6,7.5
					c-1.6,0-3-0.8-3.8-3c0,0.9,0.1,1.7,0.1,2.7l-1.6,0L561.4,243.3z M569.9,255.3c0-3-1.2-5.7-3.4-5.6c-2.4,0-3.3,2.9-3.2,5.7
					c0,2.8,0.9,5.7,3.4,5.6C569,261,570,258.4,569.9,255.3L569.9,255.3z"/>
				<path d="M584.4,262.2l-1.6,0c0-1.2,0-2,0-2.7c-0.6,1.9-1.9,3.1-3.7,3.1c-2.8,0-4.8-2.9-4.8-7.3c-0.1-4.4,1.7-7.5,4.6-7.5
					c1.6,0,3,0.8,3.8,3c0-0.9-0.1-1.7-0.1-2.7l1.6,0L584.4,262.2z M576,255.2c0,3.2,1.2,5.7,3.4,5.6c1.1,0,1.9-0.6,2.4-1.6
					c0.6-1,0.8-2.3,0.7-4.1c0-1.9-0.3-3.2-0.9-4.1c-0.6-1-1.4-1.5-2.5-1.5C577.1,249.5,575.9,252,576,255.2L576,255.2z"/>
				<path d="M598,262l-1.6,0c0-0.8,0-1.6,0-2.5c-0.7,2-2.3,2.8-3.9,2.9c-2.4,0-4.1-1.3-4.1-4.8l-0.1-9.6l1.7,0l0.1,9.1
					c0,1.4,0.3,3.7,2.8,3.6c2.1,0,3.4-1.5,3.3-4.4l-0.1-8.4l1.7,0L598,262z"/>
				<path d="M611.3,256.9c-0.3,2.9-1.8,5.2-4.6,5.2c-3.8,0.1-5.5-3.5-5.6-7.3c-0.1-4.6,2.1-7.5,5.3-7.5c2.9,0,4.6,2.2,4.8,5.2
					l-1.8,0c-0.3-2.8-1.7-3.6-3-3.5c-1,0-1.9,0.4-2.6,1.5c-0.6,1.1-0.9,2.4-0.8,4.3c0.1,3.7,1.4,5.8,3.6,5.7c1.7,0,2.7-1.4,2.9-3.6
					L611.3,256.9z"/>
				<path d="M614,242.5l1.7,0l0.1,5c0,0.8,0,1.5,0,2.3c0.6-1.8,2-2.6,3.8-2.6c1.3,0,2.3,0.4,3.1,1.2c0.8,0.9,1.1,2.1,1.1,3.9
					l0.1,9.3l-1.7,0l-0.1-8.8c0-1.4-0.2-2.3-0.7-3.1c-0.5-0.7-1.5-0.9-2.1-0.9c-0.6,0-1.7,0.1-2.5,1.2c-0.6,0.8-0.9,1.7-0.8,3.6
					l0.1,8l-1.7,0L614,242.5z"/>
				<path d="M628.9,254.9c0,2.9,1.3,5.2,3.7,5.2c1.7,0,2.8-1.2,3.1-2.9l1.7,0c-0.2,1.5-0.9,2.6-1.7,3.4c-0.8,0.7-1.9,1.1-3.1,1.2
					c-3.9,0.1-5.5-3.7-5.5-7.3c-0.1-4.4,1.9-7.5,5.2-7.5c1.7,0,3,0.7,3.8,1.9c1.2,1.7,1.4,3.9,1.4,5.9L628.9,254.9z M635.7,253.3
					c-0.1-2.9-1.3-4.9-3.5-4.9c-2.1,0-3.4,2.2-3.4,5L635.7,253.3z M635,241.4l0.7,1.4L630,246l-0.7-1.2L635,241.4z"/>
				<path d="M642,254.7c0,2.9,1.3,5.2,3.7,5.2c1.7,0,2.8-1.2,3.1-2.9l1.7,0c-0.2,1.5-0.9,2.6-1.7,3.4c-0.8,0.7-1.9,1.1-3.1,1.2
					c-3.9,0.1-5.5-3.7-5.5-7.3c-0.1-4.4,1.9-7.5,5.2-7.5c1.7,0,3,0.7,3.8,1.9c1.2,1.7,1.4,3.9,1.4,5.9L642,254.7z M648.8,253.1
					c-0.1-2.9-1.3-4.9-3.5-4.9c-2.1,0-3.4,2.2-3.4,5L648.8,253.1z"/>
				<path d="M654.6,263.3l-1.5,0l1.6-4.9l1.7,0L654.6,263.3z"/>
				<path d="M674.5,256c-0.3,2.9-1.8,5.2-4.6,5.2c-3.8,0.1-5.5-3.5-5.6-7.3c-0.1-4.6,2.1-7.5,5.3-7.5c2.9,0,4.6,2.2,4.8,5.2l-1.8,0
					c-0.3-2.8-1.7-3.6-3-3.5c-1,0-1.9,0.4-2.6,1.5c-0.6,1.1-0.9,2.4-0.8,4.3c0.1,3.7,1.4,5.8,3.6,5.7c1.7,0,2.7-1.4,2.9-3.6
					L674.5,256z"/>
				<path d="M676.6,253.7c-0.1-4,1.6-7.4,5.3-7.5c3.8-0.1,5.5,3.3,5.5,7.3c0.1,4.1-1.6,7.4-5.3,7.5
					C678.4,261.1,676.7,257.8,676.6,253.7L676.6,253.7z M678.4,253.7c0.1,3.7,1.3,5.7,3.8,5.7c2.4,0,3.6-2.1,3.5-5.8
					c-0.1-3.8-1.3-5.8-3.7-5.7C679.6,247.9,678.4,249.9,678.4,253.7L678.4,253.7z"/>
				<path d="M690.8,246.4l1.7,0c0,0.7,0,1.5,0,2.3c0.7-2.2,2.3-2.7,3.5-2.7c1,0,1.8,0.3,2.5,0.9c0.4,0.4,0.7,1,0.8,1.7
					c0.2-0.8,0.6-1.4,1.1-1.8c0.7-0.5,1.6-0.9,2.6-0.9c1.7,0,2.7,0.8,3.3,1.8c0.5,0.8,0.7,2.4,0.7,3.9l0.1,8.8l-1.7,0l-0.1-8.7
					c0-1-0.1-2-0.3-2.6c-0.3-1-1.2-1.5-2.2-1.5c-0.8,0-1.6,0.2-2.3,1.2c-0.6,0.9-0.7,2.1-0.7,3.1l0.1,8.5l-1.7,0l-0.1-8.6
					c0-1.1-0.1-1.9-0.3-2.7c-0.3-0.9-1.2-1.5-2.2-1.4c-0.9,0-1.6,0.3-2.3,1.1c-0.6,0.9-0.7,2.1-0.7,3.2l0.1,8.5l-1.7,0L690.8,246.4z
					"/>
				<path d="M711,246.1l1.7,0c0,0.7,0,1.5,0,2.3c0.7-2.2,2.3-2.7,3.5-2.7c1,0,1.8,0.3,2.5,0.9c0.4,0.4,0.7,1,0.8,1.7
					c0.2-0.8,0.6-1.4,1.1-1.8c0.7-0.5,1.6-0.9,2.6-0.9c1.7,0,2.7,0.8,3.3,1.8c0.5,0.9,0.7,2.4,0.7,3.9l0.1,8.8l-1.7,0l-0.1-8.7
					c0-1-0.1-2-0.3-2.6c-0.3-1-1.2-1.5-2.2-1.4c-0.8,0-1.6,0.2-2.3,1.2c-0.6,0.9-0.7,2.1-0.7,3.1l0.1,8.5l-1.7,0l-0.1-8.6
					c0-1.1-0.1-1.9-0.3-2.7c-0.3-0.9-1.2-1.5-2.2-1.5c-0.9,0-1.6,0.3-2.3,1.1c-0.6,0.9-0.7,2.1-0.7,3.2l0.1,8.5l-1.7,0L711,246.1z"
					/>
				<path d="M732.5,253.4c0,2.9,1.3,5.2,3.7,5.2c1.7,0,2.8-1.2,3.1-2.9l1.7,0c-0.2,1.5-0.9,2.6-1.7,3.4c-0.8,0.7-1.9,1.1-3.1,1.2
					c-3.9,0.1-5.5-3.7-5.5-7.3c-0.1-4.4,1.9-7.5,5.2-7.5c1.7,0,3,0.7,3.8,1.9c1.2,1.7,1.4,3.9,1.4,5.9L732.5,253.4z M739.3,251.7
					c-0.1-2.9-1.3-4.9-3.5-4.9c-2.1,0-3.4,2.2-3.4,5L739.3,251.7z"/>
				<path d="M744.3,245.6l1.6,0c0,0.8,0,1.5,0,2.4c0.7-2,2.3-2.8,4-2.8c2.4,0,4.1,1.3,4.1,4.8l0.1,9.6l-1.7,0l-0.1-9.1
					c0-1.4-0.3-3.7-2.8-3.6c-2.1,0-3.4,1.5-3.3,4.4l0.1,8.4l-1.7,0L744.3,245.6z"/>
				<path d="M758.6,247l-2,0l0-1.6l2,0l-0.1-4.5l1.7,0l0.1,4.5l2,0l0,1.6l-2,0l0.2,12.5l-1.7,0L758.6,247z"/>
				<path d="M315.2,287.7c0-1.8-1-2.4-2.3-2.4c-1.2,0-2,0.9-2,2.1c0,1.6,1.4,2.1,3.1,2.6c1.6,0.4,3.4,1.4,3.4,4.2
					c0,2.5-1.7,4.2-4.1,4.3c-2.6,0-4.3-1.5-4.5-4.4l1.7,0c0.1,1.9,1.2,2.9,2.7,2.8c1.5,0,2.4-1.1,2.4-2.5c0-1.7-1.2-2.4-3.1-2.9
					c-1.8-0.6-3.4-1.5-3.4-4c0-2.3,1.6-3.7,3.9-3.8c2.4,0,3.9,1.3,4,3.9L315.2,287.7z"/>
				<path d="M322.1,278.8l1.9,0l-2,4.9l-1.7,0L322.1,278.8z"/>
				<path d="M329.1,291.4c0,2.9,1.3,5.2,3.7,5.2c1.7,0,2.8-1.2,3.1-2.9l1.7,0c-0.2,1.5-0.9,2.6-1.7,3.4c-0.8,0.7-1.9,1.1-3.1,1.2
					c-3.9,0.1-5.5-3.7-5.5-7.3c-0.1-4.4,1.9-7.5,5.2-7.5c1.7,0,3,0.7,3.8,1.9c1.2,1.7,1.4,3.9,1.4,5.9L329.1,291.4z M336,289.8
					c-0.1-2.9-1.3-4.9-3.5-4.9c-2.1,0-3.4,2.2-3.4,5L336,289.8z"/>
				<path d="M346.7,287.2c0-1.8-1-2.4-2.3-2.4c-1.2,0-2,0.9-2,2.1c0,1.6,1.4,2.1,3.1,2.6c1.6,0.4,3.4,1.4,3.4,4.2
					c0,2.5-1.7,4.2-4.1,4.3c-2.6,0-4.3-1.5-4.5-4.4l1.7,0c0.1,1.9,1.2,2.9,2.7,2.8c1.5,0,2.4-1.1,2.4-2.5c0-1.7-1.2-2.4-3.1-2.9
					c-1.8-0.6-3.4-1.5-3.4-4c0-2.3,1.6-3.7,3.9-3.8c2.4,0,3.9,1.3,4,3.9L346.7,287.2z"/>
				<path d="M352.8,285.1l-2,0l0-1.6l2,0l-0.1-4.5l1.7,0l0.1,4.5l1.9,0l0,1.6l-1.9,0l0.2,12.5l-1.7,0L352.8,285.1z"/>
				<path d="M366.2,283.3l1.6,0c0,1.1,0,1.8,0,2.7c0.7-2.1,2-3.1,3.7-3.1c2.8,0,4.8,2.9,4.9,7.4c0.1,4.3-1.7,7.4-4.6,7.5
					c-1.7,0-3.1-1.1-3.7-2.9c0.1,0.6,0.1,1.4,0.1,2.6l0.1,5.2l-1.7,0L366.2,283.3z M374.6,290.2c0-3.2-1.2-5.7-3.4-5.6
					c-1.1,0-1.9,0.6-2.4,1.6c-0.6,1-0.8,2.3-0.8,4.1c0,1.8,0.3,3.1,0.9,4.1c0.6,1,1.3,1.5,2.4,1.5
					C373.6,295.9,374.6,293.5,374.6,290.2L374.6,290.2z"/>
				<path d="M389.1,297.1l-1.6,0c0-1.2,0-2,0-2.7c-0.6,1.9-1.9,3.1-3.7,3.1c-2.8,0-4.8-2.9-4.8-7.3c-0.1-4.4,1.7-7.5,4.6-7.5
					c1.6,0,3,0.8,3.8,3c0-0.9-0.1-1.7-0.1-2.7l1.6,0L389.1,297.1z M380.6,290.2c0,3.2,1.2,5.7,3.4,5.6c1.1,0,1.9-0.6,2.4-1.6
					c0.6-1,0.8-2.3,0.7-4.1c0-1.9-0.3-3.2-0.9-4.1c-0.6-1-1.4-1.5-2.5-1.5C381.7,284.4,380.6,286.9,380.6,290.2L380.6,290.2z"/>
				<path d="M398.7,286.5c0-1.8-1-2.4-2.3-2.4c-1.2,0-2,0.9-2,2.1c0,1.6,1.4,2.1,3.1,2.6c1.6,0.4,3.4,1.4,3.4,4.2
					c0,2.5-1.7,4.2-4.1,4.3c-2.6,0-4.3-1.5-4.5-4.4l1.7,0c0.1,1.9,1.2,2.9,2.7,2.8c1.5,0,2.4-1.1,2.4-2.5c0-1.7-1.2-2.4-3.1-2.9
					c-1.8-0.6-3.4-1.5-3.4-4c0-2.3,1.6-3.7,3.9-3.8c2.4,0,3.9,1.3,4,3.9L398.7,286.5z"/>
				<path d="M409.8,286.3c0-1.8-1-2.4-2.3-2.4c-1.2,0-2,0.9-2,2.1c0,1.6,1.4,2.1,3.1,2.6c1.6,0.4,3.4,1.4,3.4,4.2
					c0,2.5-1.7,4.2-4.1,4.3c-2.6,0-4.3-1.5-4.5-4.4l1.7,0c0.1,1.9,1.2,2.9,2.7,2.8c1.5,0,2.4-1.1,2.4-2.5c0-1.7-1.2-2.4-3.1-2.9
					c-1.8-0.6-3.4-1.5-3.4-4c0-2.3,1.6-3.7,3.9-3.8c2.4,0,3.9,1.3,4,3.9L409.8,286.3z"/>
				<path d="M416.4,290.1c0,2.9,1.3,5.2,3.7,5.2c1.7,0,2.8-1.2,3.1-2.9l1.7,0c-0.2,1.5-0.9,2.6-1.7,3.4c-0.8,0.7-1.9,1.1-3.1,1.2
					c-3.9,0.1-5.5-3.7-5.5-7.3c-0.1-4.4,1.9-7.5,5.2-7.5c1.7,0,3,0.7,3.8,1.9c1.2,1.7,1.4,3.9,1.4,5.9L416.4,290.1z M423.3,288.5
					c-0.1-2.9-1.3-4.9-3.5-4.9c-2.1,0-3.4,2.2-3.4,5L423.3,288.5z M422.5,276.6l0.7,1.4l-5.8,3.2l-0.7-1.2L422.5,276.6z"/>
				<path d="M429.5,289.9c0,2.9,1.3,5.2,3.7,5.2c1.7,0,2.8-1.2,3.1-2.9l1.7,0c-0.2,1.5-0.9,2.6-1.7,3.4c-0.8,0.7-1.9,1.1-3.1,1.2
					c-3.9,0.1-5.5-3.7-5.5-7.3c-0.1-4.4,1.9-7.5,5.2-7.5c1.7,0,3,0.7,3.8,1.9c1.2,1.7,1.4,3.9,1.4,5.9L429.5,289.9z M436.3,288.3
					c-0.1-2.9-1.3-4.9-3.5-4.9c-2.1,0-3.4,2.2-3.4,5L436.3,288.3z"/>
				<path d="M457.7,291.2c-0.3,2.9-1.8,5.2-4.6,5.2c-3.8,0.1-5.5-3.5-5.6-7.3c-0.1-4.6,2.1-7.5,5.3-7.5c2.9,0,4.6,2.2,4.8,5.2
					l-1.8,0c-0.3-2.8-1.7-3.6-3-3.5c-1,0-1.9,0.4-2.6,1.5c-0.6,1.1-0.9,2.4-0.8,4.3c0.1,3.7,1.4,5.8,3.6,5.7c1.7,0,2.7-1.4,2.9-3.6
					L457.7,291.2z"/>
				<path d="M461.7,289.4c0,2.9,1.3,5.2,3.7,5.2c1.7,0,2.8-1.2,3.1-2.9l1.7,0c-0.2,1.5-0.9,2.6-1.7,3.4c-0.8,0.7-1.9,1.1-3.1,1.2
					c-3.9,0.1-5.5-3.7-5.5-7.3c-0.1-4.4,1.9-7.5,5.2-7.5c1.7,0,3,0.7,3.8,1.9c1.2,1.7,1.4,3.9,1.4,5.9L461.7,289.4z M468.6,287.8
					c-0.1-2.9-1.3-4.9-3.5-4.9c-2.1,0-3.4,2.2-3.4,5L468.6,287.8z"/>
				<path d="M474.3,283.3l-2,0l0-1.6l2,0l-0.1-4.5l1.7,0l0.1,4.5l1.9,0l0,1.6l-1.9,0l0.2,12.5l-1.7,0L474.3,283.3z"/>
				<path d="M481.4,283.2l-2,0l0-1.6l2,0l-0.1-4.5l1.7,0l0.1,4.5l1.9,0l0,1.6l-1.9,0l0.2,12.5l-1.7,0L481.4,283.2z"/>
				<path d="M488.8,289c0,2.9,1.3,5.2,3.7,5.2c1.7,0,2.8-1.2,3.1-2.9l1.7,0c-0.2,1.5-0.9,2.6-1.7,3.4c-0.8,0.7-1.9,1.1-3.1,1.2
					c-3.9,0.1-5.5-3.7-5.5-7.3c-0.1-4.4,1.9-7.5,5.2-7.5c1.7,0,3,0.7,3.8,1.9c1.2,1.7,1.4,3.9,1.4,5.9L488.8,289z M495.6,287.4
					c-0.1-2.9-1.3-4.9-3.5-4.9c-2.1,0-3.4,2.2-3.4,5L495.6,287.4z"/>
				<path d="M507.5,281.2l1.6,0c0,1.1,0,1.8,0,2.7c0.7-2.1,2-3.1,3.7-3.1c2.8,0,4.8,2.9,4.9,7.4c0.1,4.3-1.7,7.4-4.6,7.5
					c-1.7,0-3.1-1.1-3.7-2.9c0.1,0.6,0.1,1.4,0.1,2.6l0.1,5.2l-1.7,0L507.5,281.2z M515.9,288.1c0-3.2-1.2-5.7-3.4-5.6
					c-1.1,0-1.9,0.6-2.4,1.6c-0.6,1-0.8,2.3-0.8,4.1c0,1.8,0.3,3.1,0.9,4.1c0.6,1,1.3,1.5,2.4,1.5
					C514.9,293.8,516,291.3,515.9,288.1L515.9,288.1z"/>
				<path d="M520.9,281l1.6,0c0,1.3,0,2.1,0,3c0.7-2.8,2.5-3.3,3.7-3.4l0,2c-0.2-0.1-0.4-0.2-0.7-0.2c-1.2,0-2.9,1.5-2.9,5.1
					l0.1,7.6l-1.7,0L520.9,281z"/>
				<path d="M529.7,288.4c0,2.9,1.3,5.2,3.7,5.2c1.7,0,2.8-1.2,3.1-2.9l1.7,0c-0.2,1.5-0.9,2.6-1.7,3.4c-0.8,0.7-1.9,1.1-3.1,1.2
					c-3.9,0.1-5.5-3.7-5.5-7.3c-0.1-4.4,1.9-7.5,5.2-7.5c1.7,0,3,0.7,3.8,1.9c1.2,1.7,1.4,3.9,1.4,5.9L529.7,288.4z M536.5,286.8
					c-0.1-2.9-1.3-4.9-3.5-4.9c-2.1,0-3.4,2.2-3.4,5L536.5,286.8z"/>
				<path d="M541.6,280.7l1.7,0c0,0.7,0,1.5,0,2.3c0.7-2.2,2.3-2.7,3.5-2.7c1,0,1.8,0.3,2.5,0.9c0.4,0.4,0.7,1,0.8,1.7
					c0.2-0.8,0.6-1.4,1.1-1.8c0.7-0.5,1.6-0.9,2.6-0.9c1.7,0,2.7,0.8,3.3,1.8c0.5,0.9,0.7,2.4,0.7,3.9l0.1,8.8l-1.7,0l-0.1-8.7
					c0-1-0.1-2-0.3-2.6c-0.3-1-1.2-1.5-2.2-1.4c-0.8,0-1.6,0.2-2.3,1.2c-0.6,0.9-0.7,2.1-0.7,3.1l0.1,8.5l-1.7,0l-0.1-8.6
					c0-1.1-0.1-1.9-0.3-2.7c-0.3-0.9-1.2-1.5-2.2-1.5c-0.9,0-1.6,0.3-2.3,1.1c-0.6,0.9-0.7,2.1-0.7,3.2l0.1,8.5l-1.7,0L541.6,280.7z
					"/>
				<path d="M561.9,275.3l1.7,0l0,2.5l-1.7,0L561.9,275.3z M562,280.3l1.7,0l0.2,14.1l-1.7,0L562,280.3z"/>
				<path d="M569.3,287.8c0,2.9,1.3,5.2,3.7,5.2c1.7,0,2.8-1.2,3.1-2.9l1.7,0c-0.2,1.5-0.9,2.6-1.7,3.4c-0.8,0.7-1.9,1.1-3.1,1.2
					c-3.9,0.1-5.5-3.7-5.5-7.3c-0.1-4.4,1.9-7.5,5.2-7.5c1.7,0,3,0.7,3.8,1.9c1.2,1.7,1.4,3.9,1.4,5.9L569.3,287.8z M575.3,277.6
					l-0.6,1.2l-5.8-3l0.7-1.4L575.3,277.6z M576.1,286.2c-0.1-2.9-1.3-4.9-3.5-4.9c-2.1,0-3.4,2.2-3.4,5L576.1,286.2z"/>
				<path d="M581.1,280.1l1.6,0c0,1.3,0,2.1,0,3c0.7-2.8,2.5-3.3,3.7-3.4l0,2c-0.2-0.1-0.4-0.2-0.7-0.2c-1.2,0-2.9,1.5-2.9,5.1
					l0.1,7.6l-1.7,0L581.1,280.1z"/>
				<path d="M589.9,287.5c0,2.9,1.3,5.2,3.7,5.2c1.7,0,2.8-1.2,3.1-2.9l1.7,0c-0.2,1.5-0.9,2.6-1.7,3.4c-0.8,0.7-1.9,1.1-3.1,1.2
					c-3.9,0.1-5.5-3.7-5.5-7.3c-0.1-4.4,1.9-7.5,5.2-7.5c1.7,0,3,0.7,3.8,1.9c1.2,1.7,1.4,3.9,1.4,5.9L589.9,287.5z M596.7,285.9
					c-0.1-2.9-1.3-4.9-3.5-4.9c-2.1,0-3.4,2.2-3.4,5L596.7,285.9z"/>
				<path d="M614.4,283.2c0-1.8-1-2.4-2.3-2.4c-1.2,0-2,0.9-2,2.1c0,1.6,1.4,2.1,3.1,2.6c1.6,0.4,3.4,1.4,3.4,4.2
					c0,2.5-1.7,4.2-4.1,4.3c-2.6,0-4.3-1.5-4.5-4.4l1.7,0c0.1,1.9,1.2,2.9,2.7,2.8c1.5,0,2.4-1.1,2.4-2.5c0-1.7-1.2-2.4-3.1-2.9
					c-1.8-0.6-3.4-1.5-3.4-4c0-2.3,1.6-3.7,3.9-3.8c2.4,0,3.9,1.3,4,3.9L614.4,283.2z"/>
				<path d="M621,287.1c0,2.9,1.3,5.2,3.7,5.2c1.7,0,2.8-1.2,3.1-2.9l1.7,0c-0.2,1.5-0.9,2.6-1.7,3.4c-0.8,0.7-1.9,1.1-3.1,1.2
					c-3.9,0.1-5.5-3.7-5.5-7.3c-0.1-4.4,1.9-7.5,5.2-7.5c1.7,0,3,0.7,3.8,1.9c1.2,1.7,1.4,3.9,1.4,5.9L621,287.1z M627.8,285.4
					c-0.1-2.9-1.3-4.9-3.5-4.9c-2.1,0-3.4,2.2-3.4,5L627.8,285.4z"/>
				<path d="M632.9,279.3l1.7,0c0,0.7,0,1.5,0,2.3c0.7-2.2,2.3-2.7,3.5-2.7c1,0,1.8,0.3,2.5,0.9c0.4,0.4,0.7,1,0.8,1.7
					c0.2-0.8,0.6-1.4,1.1-1.8c0.7-0.5,1.6-0.9,2.6-0.9c1.7,0,2.7,0.8,3.3,1.8c0.5,0.9,0.7,2.4,0.7,3.9l0.1,8.8l-1.7,0l-0.1-8.7
					c0-1-0.1-2-0.3-2.6c-0.3-1-1.2-1.5-2.2-1.4c-0.8,0-1.6,0.2-2.3,1.2c-0.6,0.9-0.7,2.1-0.7,3.1l0.1,8.5l-1.7,0l-0.1-8.6
					c0-1.1-0.1-1.9-0.3-2.7c-0.3-0.9-1.2-1.5-2.2-1.5c-0.9,0-1.6,0.3-2.3,1.1c-0.6,0.9-0.7,2.1-0.7,3.2l0.1,8.5l-1.7,0L632.9,279.3z
					"/>
				<path d="M662.6,293l-1.6,0c0-1.2,0-2,0-2.7c-0.6,1.9-1.9,3.1-3.7,3.1c-2.8,0-4.8-2.9-4.8-7.3c-0.1-4.4,1.7-7.5,4.6-7.5
					c1.6,0,3,0.8,3.8,3c0-0.9-0.1-1.7-0.1-2.7l1.6,0L662.6,293z M654.2,286.1c0,3.2,1.2,5.7,3.4,5.6c1.1,0,1.9-0.6,2.4-1.6
					c0.6-1,0.8-2.3,0.7-4.1c0-1.9-0.3-3.2-0.9-4.1c-0.6-1-1.4-1.5-2.5-1.5C655.3,280.3,654.2,282.8,654.2,286.1L654.2,286.1z"/>
				<path d="M666.6,273.7l1.7,0l0,2.5l-1.7,0L666.6,273.7z M666.7,278.8l1.7,0l0.2,14.1l-1.7,0L666.7,278.8z"/>
				<path d="M672.7,278.7l1.6,0c0,0.8,0,1.5,0,2.4c0.7-2,2.3-2.8,4-2.8c2.4,0,4.1,1.3,4.1,4.8l0.1,9.6l-1.7,0l-0.1-9.1
					c0-1.4-0.3-3.7-2.8-3.6c-2.1,0-3.4,1.5-3.3,4.4l0.1,8.4l-1.7,0L672.7,278.7z"/>
				<path d="M687.6,286.1c0,2.9,1.3,5.2,3.7,5.2c1.7,0,2.8-1.2,3.1-2.9l1.7,0c-0.2,1.5-0.9,2.6-1.7,3.4c-0.8,0.7-1.9,1.1-3.1,1.2
					c-3.9,0.1-5.5-3.7-5.5-7.3c-0.1-4.4,1.9-7.5,5.2-7.5c1.7,0,3,0.7,3.8,1.9c1.2,1.7,1.4,3.9,1.4,5.9L687.6,286.1z M694.4,284.4
					c-0.1-2.9-1.3-4.9-3.5-4.9c-2.1,0-3.4,2.2-3.4,5L694.4,284.4z"/>
				<path d="M709.9,287.6c0-1.8-0.2-3.5,1.6-5.5c1.1-1.5,2.5-2.4,2.6-4.2c0-2-1.4-3.5-3.3-3.4c-1.5,0-3,0.8-3.2,3.2
					c0,0.2,0,0.5,0,0.7l-1.9,0c0-0.3,0-0.5,0-0.8c0.2-3.6,2.8-5,5.2-5c2.8,0,5.2,2.1,5.3,5.4c0,2.1-1.3,3.5-2.5,4.8
					c-1.8,1.9-1.7,2.9-1.7,4.8L709.9,287.6z M711.8,292.2l-1.9,0l0-2.8l1.9,0L711.8,292.2z"/>
			</g>
		</g>
	</g>
</g>
</svg>
