<svg xmlns="http://www.w3.org/2000/svg" viewBox="0 0 587.29 118.91"><defs><style>.cls-1,.cls-2{isolation:isolate;}.cls-2{fill:#105768;opacity:0.2;}.cls-3{fill:#fefeff;}.cls-4{fill:#d8d8d8;mix-blend-mode:multiply;}.cls-5{fill:#fff;}</style></defs><title>game3b_item4</title><g class="cls-1"><g id="Calque_2" data-name="Calque 2"><g id="Calque_2-2" data-name="Calque 2"><polygon class="cls-2" points="47.61 118.91 577.54 118.91 572.67 8.1 0 20.01 5.83 97.03 47.61 118.91"/><polygon class="cls-3" points="57.36 110.81 587.29 110.81 582.42 0 9.74 11.9 15.57 88.93 57.36 110.81"/><polygon class="cls-4" points="15.57 88.93 57.36 110.81 44.13 85.37 15.57 88.93"/><path class="cls-5" d="M586.45,103.9"/><path d="M46.35,35h2.26V46.74c0,4.65-2.29,6.08-5.3,6.08a7.34,7.34,0,0,1-2.42-.42l.34-1.85a5.38,5.38,0,0,0,1.9.34c2,0,3.22-.91,3.22-4.34Z"/><path d="M54.23,46.66c.05,3.09,2,4.37,4.32,4.37A8.25,8.25,0,0,0,62,50.38L62.42,52a10.19,10.19,0,0,1-4.19.78c-3.87,0-6.19-2.55-6.19-6.34s2.24-6.79,5.9-6.79c4.11,0,5.2,3.61,5.2,5.93a8.53,8.53,0,0,1-.08,1.07ZM60.93,45c0-1.46-.6-3.72-3.17-3.72-2.31,0-3.33,2.13-3.51,3.72Z"/><path d="M72.79,44.06c0-1.61-.05-2.91-.1-4.11h2.05l.1,2.16h.05a5,5,0,0,1,4.47-2.44c3,0,5.33,2.57,5.33,6.4,0,4.52-2.76,6.76-5.72,6.76a4.41,4.41,0,0,1-3.87-2h-.05v6.84H72.79Zm2.26,3.35a5.13,5.13,0,0,0,.1.94A3.53,3.53,0,0,0,78.59,51c2.42,0,3.82-2,3.82-4.86,0-2.52-1.33-4.68-3.74-4.68a3.65,3.65,0,0,0-3.46,2.83,3.71,3.71,0,0,0-.16.94Z"/><path d="M88.23,43.88c0-1.48,0-2.76-.1-3.93h2l.08,2.47h.1a3.78,3.78,0,0,1,3.48-2.76,2.49,2.49,0,0,1,.65.08V41.9a3.45,3.45,0,0,0-.78-.08,3.21,3.21,0,0,0-3.07,2.94,6.4,6.4,0,0,0-.1,1.07v6.71H88.23Z"/><path d="M98.4,46.66c.05,3.09,2,4.37,4.32,4.37a8.25,8.25,0,0,0,3.48-.65l.39,1.64a10.19,10.19,0,0,1-4.19.78c-3.87,0-6.19-2.55-6.19-6.34s2.24-6.79,5.9-6.79c4.11,0,5.2,3.61,5.2,5.93a8.53,8.53,0,0,1-.08,1.07ZM105.11,45c0-1.46-.6-3.72-3.17-3.72-2.31,0-3.33,2.13-3.51,3.72Zm.55-10.5-3.17,3.72h-1.64l2.29-3.72Z"/><path d="M111.68,40,114.16,47a32.26,32.26,0,0,1,1,3.22h.08c.29-1,.65-2.08,1.07-3.22L118.76,40h2.39l-4.94,12.58H114L109.24,40Z"/><path d="M126.5,36.42a1.42,1.42,0,0,1-2.83,0A1.39,1.39,0,0,1,125.1,35,1.36,1.36,0,0,1,126.5,36.42ZM124,52.54V40h2.29V52.54Z"/><path d="M132,46.66c.05,3.09,2,4.37,4.32,4.37a8.25,8.25,0,0,0,3.48-.65l.39,1.64a10.19,10.19,0,0,1-4.19.78c-3.87,0-6.19-2.55-6.19-6.34s2.24-6.79,5.9-6.79c4.11,0,5.2,3.61,5.2,5.93a8.53,8.53,0,0,1-.08,1.07ZM138.67,45c0-1.46-.6-3.72-3.17-3.72-2.31,0-3.33,2.13-3.51,3.72Z"/><path d="M144.37,43.36c0-1.3,0-2.37-.1-3.41h2l.13,2.08h.05a4.63,4.63,0,0,1,4.16-2.37c1.74,0,4.45,1,4.45,5.36v7.51h-2.29V45.28c0-2-.75-3.72-2.91-3.72a3.25,3.25,0,0,0-3.07,2.34,3.29,3.29,0,0,0-.16,1.07v7.57h-2.29Z"/><path d="M159.13,50.2a6,6,0,0,0,3,.91c1.66,0,2.44-.83,2.44-1.87s-.65-1.69-2.34-2.31c-2.26-.81-3.33-2.05-3.33-3.56,0-2,1.64-3.69,4.34-3.69a6.28,6.28,0,0,1,3.09.78l-.57,1.66a4.89,4.89,0,0,0-2.57-.73c-1.35,0-2.11.78-2.11,1.72s.75,1.51,2.39,2.13c2.18.83,3.3,1.92,3.3,3.8,0,2.21-1.72,3.77-4.71,3.77a7.18,7.18,0,0,1-3.54-.86Z"/><path d="M185.71,44.32h-6.81v6.32h7.59v1.9h-9.85V35h9.46v1.9h-7.2v5.54h6.81ZM185.26,31l-3.3,3h-1.87l2.42-3Z"/><path d="M190,43.88c0-1.48,0-2.76-.1-3.93h2l.08,2.47h.1a3.78,3.78,0,0,1,3.48-2.76,2.49,2.49,0,0,1,.65.08V41.9a3.45,3.45,0,0,0-.78-.08,3.21,3.21,0,0,0-3.07,2.94,6.4,6.4,0,0,0-.1,1.07v6.71H190Z"/><path d="M201.8,36.42a1.42,1.42,0,0,1-2.83,0A1.39,1.39,0,0,1,200.4,35,1.36,1.36,0,0,1,201.8,36.42Zm-2.55,16.12V40h2.29V52.54Z"/><path d="M215,52.07a8.42,8.42,0,0,1-3.61.73c-3.8,0-6.27-2.57-6.27-6.42a6.39,6.39,0,0,1,6.76-6.68,7.64,7.64,0,0,1,3.17.65l-.52,1.77a5.3,5.3,0,0,0-2.65-.6c-2.89,0-4.45,2.13-4.45,4.76,0,2.91,1.87,4.71,4.37,4.71a6.5,6.5,0,0,0,2.81-.62Z"/><path d="M216.54,55.74a37.42,37.42,0,0,0,1.56-6.21l2.55-.26a31.72,31.72,0,0,1-2.47,6.32Z"/><path d="M241.09,34.08V49.29c0,1.12,0,2.39.1,3.25h-2.05l-.1-2.18H239a4.66,4.66,0,0,1-4.29,2.47c-3,0-5.38-2.57-5.38-6.4,0-4.19,2.57-6.76,5.64-6.76a4.21,4.21,0,0,1,3.8,1.92h.05V34.08Zm-2.29,11a4,4,0,0,0-.1-1,3.37,3.37,0,0,0-3.3-2.65c-2.37,0-3.77,2.08-3.77,4.86,0,2.55,1.25,4.65,3.72,4.65a3.44,3.44,0,0,0,3.35-2.73,4,4,0,0,0,.1-1Z"/><path d="M246.8,46.66c.05,3.09,2,4.37,4.32,4.37a8.25,8.25,0,0,0,3.48-.65L255,52a10.19,10.19,0,0,1-4.19.78c-3.87,0-6.19-2.55-6.19-6.34s2.24-6.79,5.9-6.79c4.11,0,5.2,3.61,5.2,5.93a8.53,8.53,0,0,1-.08,1.07ZM253.51,45c0-1.46-.6-3.72-3.17-3.72-2.31,0-3.33,2.13-3.51,3.72Z"/><path d="M259.21,43.36c0-1.3,0-2.37-.1-3.41h2l.1,2h.08a4.34,4.34,0,0,1,4-2.31,3.72,3.72,0,0,1,3.56,2.52h.05a5.19,5.19,0,0,1,1.4-1.64,4.29,4.29,0,0,1,2.78-.88c1.66,0,4.13,1.09,4.13,5.46v7.41h-2.24V45.41c0-2.42-.88-3.87-2.73-3.87a3,3,0,0,0-2.7,2.08,3.77,3.77,0,0,0-.18,1.14v7.77h-2.24V45c0-2-.88-3.46-2.63-3.46a3.41,3.41,0,0,0-3,3.41v7.59h-2.24Z"/><path d="M288.51,52.54,288.33,51h-.08a4.69,4.69,0,0,1-3.85,1.87,3.59,3.59,0,0,1-3.85-3.62c0-3,2.7-4.71,7.57-4.68v-.26a2.59,2.59,0,0,0-2.86-2.91,6.27,6.27,0,0,0-3.28.94l-.52-1.51a7.81,7.81,0,0,1,4.13-1.12c3.85,0,4.78,2.63,4.78,5.15v4.71a17.74,17.74,0,0,0,.21,3Zm-.34-6.42c-2.5-.05-5.33.39-5.33,2.83A2,2,0,0,0,285,51.13,3.13,3.13,0,0,0,288,49a2.4,2.4,0,0,0,.13-.73Z"/><path d="M297.27,36.42a1.42,1.42,0,0,1-2.83,0A1.39,1.39,0,0,1,295.87,35,1.36,1.36,0,0,1,297.27,36.42Zm-2.55,16.12V40H297V52.54Z"/><path d="M301.46,43.36c0-1.3,0-2.37-.1-3.41h2l.13,2.08h.05a4.63,4.63,0,0,1,4.16-2.37c1.74,0,4.45,1,4.45,5.36v7.51h-2.29V45.28c0-2-.75-3.72-2.91-3.72a3.25,3.25,0,0,0-3.07,2.34,3.29,3.29,0,0,0-.16,1.07v7.57h-2.29Z"/><path d="M325.25,36.42a1.42,1.42,0,0,1-2.83,0A1.4,1.4,0,0,1,323.84,35,1.36,1.36,0,0,1,325.25,36.42ZM322.7,52.54V40H325V52.54Z"/><path d="M329.43,34.08h2.29V52.54h-2.29Z"/><path d="M353.25,34.08V49.29c0,1.12,0,2.39.1,3.25H351.3l-.1-2.18h-.05a4.66,4.66,0,0,1-4.29,2.47c-3,0-5.38-2.57-5.38-6.4,0-4.19,2.57-6.76,5.64-6.76a4.21,4.21,0,0,1,3.8,1.92H351V34.08Zm-2.29,11a4,4,0,0,0-.1-1,3.37,3.37,0,0,0-3.3-2.65c-2.37,0-3.77,2.08-3.77,4.86,0,2.55,1.25,4.65,3.72,4.65a3.44,3.44,0,0,0,3.35-2.73,4,4,0,0,0,.1-1Z"/><path d="M359,46.66c.05,3.09,2,4.37,4.32,4.37a8.26,8.26,0,0,0,3.48-.65l.39,1.64a10.19,10.19,0,0,1-4.19.78c-3.87,0-6.19-2.55-6.19-6.34s2.24-6.79,5.9-6.79c4.11,0,5.2,3.61,5.2,5.93a8.65,8.65,0,0,1-.08,1.07ZM365.68,45c0-1.46-.6-3.72-3.17-3.72-2.31,0-3.33,2.13-3.51,3.72Z"/><path d="M372.25,40,374.72,47a32.27,32.27,0,0,1,1,3.22h.08c.29-1,.65-2.08,1.07-3.22L379.33,40h2.39l-4.94,12.58h-2.18L369.81,40Z"/><path d="M384.52,43.88c0-1.48,0-2.76-.1-3.93h2l.08,2.47h.1a3.78,3.78,0,0,1,3.48-2.76,2.49,2.49,0,0,1,.65.08V41.9a3.45,3.45,0,0,0-.78-.08,3.21,3.21,0,0,0-3.07,2.94,6.46,6.46,0,0,0-.1,1.07v6.71h-2.26Z"/><path d="M400.51,52.54,400.33,51h-.08a4.69,4.69,0,0,1-3.85,1.87,3.59,3.59,0,0,1-3.85-3.62c0-3,2.7-4.71,7.57-4.68v-.26a2.59,2.59,0,0,0-2.86-2.91,6.27,6.27,0,0,0-3.28.94l-.52-1.51a7.81,7.81,0,0,1,4.13-1.12c3.85,0,4.78,2.63,4.78,5.15v4.71a17.74,17.74,0,0,0,.21,3Zm-.34-6.42c-2.5-.05-5.33.39-5.33,2.83A2,2,0,0,0,397,51.13,3.13,3.13,0,0,0,400,49a2.39,2.39,0,0,0,.13-.73Z"/><path d="M412.89,44.06c0-1.61-.05-2.91-.1-4.11h2.05l.1,2.16H415a5,5,0,0,1,4.47-2.44c3,0,5.33,2.57,5.33,6.4,0,4.52-2.76,6.76-5.72,6.76a4.41,4.41,0,0,1-3.87-2h-.05v6.84h-2.26Zm2.26,3.35a5.13,5.13,0,0,0,.1.94A3.53,3.53,0,0,0,418.69,51c2.42,0,3.82-2,3.82-4.86,0-2.52-1.33-4.68-3.74-4.68a3.65,3.65,0,0,0-3.46,2.83,3.71,3.71,0,0,0-.16.94Z"/><path d="M428.33,43.88c0-1.48,0-2.76-.1-3.93h2l.08,2.47h.1a3.78,3.78,0,0,1,3.48-2.76,2.49,2.49,0,0,1,.65.08V41.9a3.45,3.45,0,0,0-.78-.08,3.21,3.21,0,0,0-3.07,2.94,6.4,6.4,0,0,0-.1,1.07v6.71h-2.26Z"/><path d="M438.5,46.66c.05,3.09,2,4.37,4.32,4.37a8.25,8.25,0,0,0,3.48-.65l.39,1.64a10.19,10.19,0,0,1-4.19.78c-3.87,0-6.19-2.55-6.19-6.34s2.24-6.79,5.9-6.79c4.11,0,5.2,3.61,5.2,5.93a8.53,8.53,0,0,1-.08,1.07ZM445.21,45c0-1.46-.6-3.72-3.17-3.72-2.31,0-3.33,2.13-3.51,3.72Zm.55-10.5-3.17,3.72h-1.64l2.29-3.72Z"/><path d="M450.59,50.2a6,6,0,0,0,3,.91c1.66,0,2.44-.83,2.44-1.87s-.65-1.69-2.34-2.31c-2.26-.81-3.33-2.05-3.33-3.56,0-2,1.64-3.69,4.34-3.69a6.28,6.28,0,0,1,3.09.78l-.57,1.66a4.89,4.89,0,0,0-2.57-.73c-1.35,0-2.11.78-2.11,1.72s.75,1.51,2.39,2.13c2.18.83,3.3,1.92,3.3,3.8,0,2.21-1.72,3.77-4.71,3.77a7.18,7.18,0,0,1-3.54-.86Z"/><path d="M463.12,46.66c.05,3.09,2,4.37,4.32,4.37a8.26,8.26,0,0,0,3.48-.65l.39,1.64a10.19,10.19,0,0,1-4.19.78c-3.87,0-6.19-2.55-6.19-6.34s2.24-6.79,5.9-6.79c4.11,0,5.2,3.61,5.2,5.93a8.65,8.65,0,0,1-.08,1.07ZM469.83,45c0-1.46-.6-3.72-3.17-3.72-2.31,0-3.33,2.13-3.51,3.72Z"/><path d="M475.52,43.36c0-1.3,0-2.37-.1-3.41h2l.13,2.08h.05a4.63,4.63,0,0,1,4.16-2.37c1.74,0,4.45,1,4.45,5.36v7.51h-2.29V45.28c0-2-.75-3.72-2.91-3.72A3.25,3.25,0,0,0,478,43.91a3.29,3.29,0,0,0-.16,1.07v7.57h-2.29Z"/><path d="M493.26,36.34V40h3.28V41.7h-3.28v6.79c0,1.56.44,2.44,1.72,2.44a5.08,5.08,0,0,0,1.33-.16l.1,1.72a5.59,5.59,0,0,1-2,.31,3.17,3.17,0,0,1-2.47-1,4.66,4.66,0,0,1-.88-3.28V41.7h-1.95V40H491v-3Z"/><path d="M500.87,46.66c.05,3.09,2,4.37,4.32,4.37a8.26,8.26,0,0,0,3.48-.65l.39,1.64a10.19,10.19,0,0,1-4.19.78c-3.87,0-6.19-2.55-6.19-6.34s2.24-6.79,5.9-6.79c4.11,0,5.2,3.61,5.2,5.93a8.65,8.65,0,0,1-.08,1.07ZM507.58,45c0-1.46-.6-3.72-3.17-3.72-2.31,0-3.33,2.13-3.51,3.72Z"/><path d="M513.27,43.88c0-1.48,0-2.76-.1-3.93h2l.08,2.47h.1a3.78,3.78,0,0,1,3.48-2.76,2.49,2.49,0,0,1,.65.08V41.9a3.45,3.45,0,0,0-.78-.08,3.21,3.21,0,0,0-3.07,2.94,6.4,6.4,0,0,0-.1,1.07v6.71h-2.26Z"/><path d="M528.59,34.08h2.29V52.54h-2.29Z"/><path d="M536.65,46.66c.05,3.09,2,4.37,4.32,4.37a8.25,8.25,0,0,0,3.48-.65l.39,1.64a10.19,10.19,0,0,1-4.19.78c-3.87,0-6.19-2.55-6.19-6.34s2.24-6.79,5.9-6.79c4.11,0,5.2,3.61,5.2,5.93a8.53,8.53,0,0,1-.08,1.07ZM543.36,45c0-1.46-.6-3.72-3.17-3.72-2.31,0-3.33,2.13-3.51,3.72Z"/><path d="M190.55,72,193,79a32.27,32.27,0,0,1,1,3.22h.08c.29-1,.65-2.08,1.07-3.22L197.63,72H200l-4.94,12.58h-2.18L188.11,72Z"/><path d="M203.84,78.66c.05,3.09,2,4.37,4.32,4.37a8.25,8.25,0,0,0,3.48-.65L212,84a10.19,10.19,0,0,1-4.19.78c-3.87,0-6.19-2.55-6.19-6.34s2.24-6.79,5.9-6.79c4.11,0,5.2,3.61,5.2,5.93a8.53,8.53,0,0,1-.08,1.07ZM210.55,77c0-1.46-.6-3.72-3.17-3.72-2.31,0-3.33,2.13-3.51,3.72Zm.55-10.5-3.17,3.72h-1.64l2.29-3.72Z"/><path d="M216.24,66.08h2.29v7.85h.05a4.24,4.24,0,0,1,1.64-1.61,4.71,4.71,0,0,1,2.34-.65c1.69,0,4.39,1,4.39,5.38v7.49h-2.29V77.31c0-2-.75-3.74-2.91-3.74a3.29,3.29,0,0,0-3.07,2.29,2.77,2.77,0,0,0-.16,1.09v7.59h-2.29Z"/><path d="M233.87,68.42a1.42,1.42,0,0,1-2.83,0A1.39,1.39,0,0,1,232.47,67,1.36,1.36,0,0,1,233.87,68.42Zm-2.55,16.12V72h2.29V84.54Z"/><path d="M247,84.07a8.42,8.42,0,0,1-3.61.73c-3.8,0-6.27-2.57-6.27-6.42a6.39,6.39,0,0,1,6.76-6.68,7.64,7.64,0,0,1,3.17.65l-.52,1.77a5.3,5.3,0,0,0-2.65-.6c-2.89,0-4.45,2.13-4.45,4.76,0,2.91,1.87,4.71,4.37,4.71a6.5,6.5,0,0,0,2.81-.62Z"/><path d="M260.88,81.11c0,1.3,0,2.44.1,3.43h-2l-.13-2.05h-.05a4.73,4.73,0,0,1-4.16,2.34c-2,0-4.34-1.09-4.34-5.51V72h2.29v7c0,2.39.73,4,2.81,4a3.22,3.22,0,0,0,3.22-3.25V72h2.29Z"/><path d="M265.33,66.08h2.29V84.54h-2.29Z"/><path d="M273.39,78.66c.05,3.09,2,4.37,4.32,4.37a8.25,8.25,0,0,0,3.48-.65l.39,1.64a10.19,10.19,0,0,1-4.19.78c-3.87,0-6.19-2.55-6.19-6.34s2.24-6.79,5.9-6.79c4.11,0,5.2,3.61,5.2,5.93a8.53,8.53,0,0,1-.08,1.07ZM280.1,77c0-1.46-.6-3.72-3.17-3.72-2.31,0-3.33,2.13-3.51,3.72Z"/><path d="M298.92,84.54,298.74,83h-.08a4.69,4.69,0,0,1-3.85,1.87A3.59,3.59,0,0,1,291,81.21c0-3,2.7-4.71,7.57-4.68v-.26a2.59,2.59,0,0,0-2.86-2.91,6.27,6.27,0,0,0-3.28.94l-.52-1.51A7.81,7.81,0,0,1,296,71.67c3.85,0,4.78,2.63,4.78,5.15v4.71a17.74,17.74,0,0,0,.21,3Zm-3.87-18,2.26,3.72H295.7l-3.17-3.72Zm3.54,11.6c-2.5-.05-5.33.39-5.33,2.83a2,2,0,0,0,2.16,2.18,3.13,3.13,0,0,0,3-2.11,2.39,2.39,0,0,0,.13-.73Z"/><path d="M323.62,84a11.23,11.23,0,0,1-4.63.83c-4.94,0-8.66-3.12-8.66-8.87,0-5.49,3.72-9.21,9.15-9.21a9.4,9.4,0,0,1,4.16.78l-.55,1.85a8.24,8.24,0,0,0-3.54-.73c-4.11,0-6.84,2.63-6.84,7.23,0,4.29,2.47,7,6.73,7a9.06,9.06,0,0,0,3.69-.73Z"/><path d="M333.81,84.54,333.63,83h-.08a4.69,4.69,0,0,1-3.85,1.87,3.59,3.59,0,0,1-3.85-3.62c0-3,2.7-4.71,7.57-4.68v-.26a2.59,2.59,0,0,0-2.86-2.91,6.27,6.27,0,0,0-3.28.94l-.52-1.51a7.81,7.81,0,0,1,4.13-1.12c3.85,0,4.78,2.63,4.78,5.15v4.71a17.74,17.74,0,0,0,.21,3Zm-.34-6.42c-2.5-.05-5.33.39-5.33,2.83a2,2,0,0,0,2.16,2.18,3.13,3.13,0,0,0,3-2.11,2.39,2.39,0,0,0,.13-.73Z"/><path d="M340,75.36c0-1.3,0-2.37-.1-3.41h2l.1,2h.08a4.34,4.34,0,0,1,4-2.31,3.72,3.72,0,0,1,3.56,2.52h.05a5.19,5.19,0,0,1,1.4-1.64,4.29,4.29,0,0,1,2.78-.88c1.66,0,4.13,1.09,4.13,5.46v7.41h-2.24V77.41c0-2.42-.88-3.87-2.73-3.87a3,3,0,0,0-2.7,2.08,3.77,3.77,0,0,0-.18,1.14v7.77H347.9V77c0-2-.88-3.46-2.63-3.46a3.41,3.41,0,0,0-3,3.41v7.59H340Z"/><path d="M364.91,68.42a1.42,1.42,0,0,1-2.83,0A1.4,1.4,0,0,1,363.5,67,1.36,1.36,0,0,1,364.91,68.42Zm-2.55,16.12V72h2.29V84.54Z"/><path d="M369.09,66.08h2.29V84.54h-2.29Z"/><path d="M375.88,66.08h2.29V84.54h-2.29Z"/><path d="M383.94,78.66c.05,3.09,2,4.37,4.32,4.37a8.26,8.26,0,0,0,3.48-.65l.39,1.64a10.19,10.19,0,0,1-4.19.78c-3.87,0-6.19-2.55-6.19-6.34s2.24-6.79,5.9-6.79c4.11,0,5.2,3.61,5.2,5.93a8.65,8.65,0,0,1-.08,1.07ZM390.65,77c0-1.46-.6-3.72-3.17-3.72-2.31,0-3.33,2.13-3.51,3.72Z"/><path d="M395.48,83.19A1.54,1.54,0,0,1,397,81.55a1.64,1.64,0,1,1-1.56,1.64Z"/></g></g></g></svg>