<svg xmlns="http://www.w3.org/2000/svg" viewBox="0 0 245.96 241.64"><defs><style>.cls-1{fill:#105768;opacity:0.2;isolation:isolate;}.cls-2{fill:#8cc63f;}.cls-3{fill:#fff;}</style></defs><title>game1bbis_flag</title><g id="Calque_2" data-name="Calque 2"><g id="vignette_etape_jeu1" data-name="vignette etape jeu1"><polygon class="cls-1" points="237.96 241.64 118.98 210.08 0 241.64 0 0 237.96 0 237.96 241.64"/><polygon class="cls-2" points="245.96 232.64 126.98 201.08 8 232.64 8 0 245.96 0 245.96 232.64"/><path class="cls-3" d="M29.08,64.46h9.66q8.89,0,8.89,9.57v6.52q0,6-4.82,7.78l7.1,20.38h-8l-5-19h-.4v19H29.08Zm7.36,7.05V83.06h.88a5.53,5.53,0,0,0,1.55-.13,2.27,2.27,0,0,0,1.39-2.37V74q0-2.52-2.17-2.52Z"/><path class="cls-3" d="M55.26,64.46H72.59v7.05h-10V83.06H71.2v7.07H62.62v11.54h10v7.05H55.26Zm16.54-5-6.41,4.16H59.06l7-6.48h5.7Z"/><path class="cls-3" d="M77.94,64.46H87.6q8.89,0,8.89,9.57v6.52q0,7-6.35,9.09a15.16,15.16,0,0,1-4.38.49H85.3v18.59H77.94Zm7.36,7.05V83.06h.88a5.53,5.53,0,0,0,1.55-.13,2.27,2.27,0,0,0,1.39-2.37V74q0-2.52-2.17-2.52Z"/><path class="cls-3" d="M121.58,99.86q0,9.55-9.55,9.57t-9.53-9.57V73.33q0-9.55,9.53-9.55t9.55,9.55Zm-7.36-26.53q0-2.48-2.17-2.5h0q-2.14,0-2.14,2.5V99.86q0,2.5,2.17,2.5t2.19-2.5Z"/><path class="cls-3" d="M128.69,64.46H136l4.91,21.8V64.46h6.9v44.26H140.5l-4.69-21.2v21.2h-7.12Z"/><path class="cls-3" d="M154.89,73.33q0-9.55,9.53-9.55T174,73.33v6.28h-7.36V73.33q0-2.48-2.17-2.5h0q-2.14,0-2.14,2.5v3.94q0,2.7,5.66,6.77Q174,88.34,174,94.38v5.48q0,9.57-9.53,9.57t-9.55-9.57V93.58h7.36v6.28q0,2.5,2.19,2.5t2.17-2.5v-5q0-2.94-5.66-7-6.06-4.31-6.06-10.5Z"/><path class="cls-3" d="M181.08,64.46h17.33v7.05h-10V83.06H197v7.07h-8.58v11.54h10v7.05H181.08Z"/><path class="cls-3" d="M204.43,73.33q0-9.55,9.53-9.55t9.55,9.55v6.28h-7.36V73.33q0-2.48-2.17-2.5h0q-2.14,0-2.14,2.5v3.94q0,2.7,5.66,6.77,6.06,4.31,6.06,10.35v5.48q0,9.57-9.53,9.57t-9.55-9.57V93.58h7.36v6.28q0,2.5,2.19,2.5t2.17-2.5v-5q0-2.94-5.66-7-6.06-4.31-6.06-10.5Z"/></g></g></svg>