<svg id="boutons" xmlns="http://www.w3.org/2000/svg" viewBox="0 0 1920 1080"><defs><style>.cls-1{fill:#fff;}</style></defs><title>index_bt2_txt1</title><path class="cls-1" d="M1100,781.24h3.83l-.34,1.57a3,3,0,0,0-.07.61q0,1.19,1.37,1.19a2,2,0,0,0,2-1.8l4.55-21.42h3.83l-4.55,21.42q-1.19,5.59-6.69,5.59-4.54,0-4.54-3.79a8.47,8.47,0,0,1,.22-1.8Z"/><path class="cls-1" d="M1119.91,761.39h9.94l-.8,3.78h-6.11l-1.63,7.61h5.26l-.8,3.79h-5.26l-1.63,7.61H1125l-.8,3.78h-9.94Z"/><path class="cls-1" d="M1141.79,761.39h5.58q4.14,0,4.15,3.68a9,9,0,0,1-.23,1.91l-.84,4a5.85,5.85,0,0,1-4,4.62l1.68,12.37h-4.2l-1-11.69-.5.07L1140,788h-3.83Zm3,3.78-1.63,7.61h.88a4,4,0,0,0,1.12-.11,2.15,2.15,0,0,0,1.41-1.69l.84-4a2.82,2.82,0,0,0,.08-.62q0-1.19-1.35-1.19Z"/><path class="cls-1" d="M1157,761.39H1167l-.8,3.78h-6.11l-1.63,7.61h5.26l-.8,3.79h-5.26l-1.63,7.61h6.11l-.8,3.78h-9.94Z"/><path class="cls-1" d="M1177.13,782.81q-1.19,5.58-6.71,5.59-4.52,0-4.52-3.78a8.67,8.67,0,0,1,.22-1.82l3.45-16.25q1.19-5.58,6.69-5.58,4.54,0,4.54,3.78a8.48,8.48,0,0,1-.22,1.8l-.76,3.58H1176l.76-3.58a2.92,2.92,0,0,0,.07-.6q0-1.19-1.35-1.21h0a2,2,0,0,0-2,1.8L1170,782.81a3.12,3.12,0,0,0-.07.61q0,1.19,1.35,1.19a2,2,0,0,0,2.06-1.8l1.33-6.23h-1.94l.8-3.79h5.77Z"/><path class="cls-1" d="M1193.09,778.54l-.76,9.43h-3.87l.45-5.63H1185l-2,5.63h-3.86l3.24-9.39,6.37-17.19H1194Zm-3.87,0,.88-11.05-3.81,11.05Z"/><path class="cls-1" d="M1201.39,761.39H1207q4.14,0,4.15,3.68a9,9,0,0,1-.23,1.91l-.84,4a5.85,5.85,0,0,1-4,4.62l1.68,12.37h-4.2l-1-11.69-.5.07L1199.58,788h-3.83Zm3,3.78-1.63,7.61h.88a4,4,0,0,0,1.12-.11,2.15,2.15,0,0,0,1.41-1.69l.84-4a2.82,2.82,0,0,0,.08-.62q0-1.19-1.35-1.19Z"/><path class="cls-1" d="M1216.64,761.39h5.91q4.14,0,4.15,3.68a9.08,9.08,0,0,1-.23,1.91l-3.26,15.4Q1222,788,1216.66,788H1211Zm3,3.78-4.05,19h1.68a2,2,0,0,0,2.06-1.8l3.26-15.4a2.81,2.81,0,0,0,.08-.62q0-1.19-1.35-1.19Z"/><path class="cls-1" d="M1232,761.39H1242l-.8,3.78h-6.11l-1.63,7.61h5.26l-.8,3.79h-5.26l-1.63,7.61h6.11l-.8,3.78h-9.94Z"/><path class="cls-1" d="M993.7,831.44V796.31h5.84v29.53h7.91v5.6Z"/><path class="cls-1" d="M1026.65,818.84l1.67,12.6h-5.9l-1-7.3h-4.3l-1,7.3h-5.88l1.67-12.54,3.56-22.58h7.58Zm-5.95-.32-1.4-10.63-1.4,10.63Z"/><path class="cls-1" d="M1054.32,831.44h-7.58l-3.56-22.56-1.67-12.56h5.9l3.11,27.53,3.12-27.53h5.9l-1.67,12.6Z"/><path class="cls-1" d="M1064,796.31h5.84v35.13H1064Z"/><path class="cls-1" d="M1076,796.31h8.09q7.05,0,7.05,7.6v19.95q0,7.56-7.35,7.58H1076Zm5.84,5.6v23.93h1.74q1.72,0,1.72-2V803.91q0-2-1.72-2Z"/><path class="cls-1" d="M1096.76,796.31h13.76v5.6h-7.91v9.16h6.81v5.61h-6.81v9.16h7.91v5.6h-13.76Zm13.12-3.93-5.09,3.3h-5l5.58-5.14h4.53Z"/><path class="cls-1" d="M1129.55,824.4q0,7.58-7.58,7.6t-7.56-7.6V803.35q0-7.58,7.56-7.58t7.58,7.58Zm-5.84-21.05q0-2-1.72-2h0q-1.7,0-1.7,2V824.4q0,2,1.72,2t1.74-2Z"/><path class="cls-1" d="M1145.63,796.31h5.84v35.13h-5.84Z"/><path class="cls-1" d="M1157.56,796.31h5.77l3.9,17.3v-17.3h5.47v35.13h-5.77l-3.72-16.83v16.83h-5.65Z"/><path class="cls-1" d="M1192.44,796.31v5.6h-4.65v29.53h-5.84V801.91h-4.65v-5.6Z"/><path class="cls-1" d="M1197,796.31h13.76v5.6h-7.91v9.16h6.81v5.61h-6.81v9.16h7.91v5.6H1197Z"/><path class="cls-1" d="M1215.91,796.31h7.67q7.05,0,7.05,7.6v5.18q0,4.77-3.83,6.18l5.63,16.18h-6.37l-4-15.11h-.32v15.11h-5.84Zm5.84,5.6v9.16h.7a4.38,4.38,0,0,0,1.23-.11,1.8,1.8,0,0,0,1.11-1.88v-5.18q0-2-1.72-2Z"/><path class="cls-1" d="M1251.46,818.84l1.67,12.6h-5.9l-1-7.3H1242l-1,7.3h-5.88l1.67-12.54,3.56-22.58h7.58Zm-5.95-.32-1.4-10.63-1.4,10.63Z"/><path class="cls-1" d="M1272.34,824.4q0,7.58-7.58,7.6t-7.56-7.6V803.35q0-7.58,7.56-7.58t7.58,7.58v5h-5.84v-5q0-2-1.72-2h0q-1.7,0-1.7,2V824.4q0,2,1.72,2t1.74-2v-5h5.84Z"/><path class="cls-1" d="M1291.55,796.31v5.6h-4.65v29.53h-5.84V801.91h-4.65v-5.6Z"/><path class="cls-1" d="M1296.23,796.31h5.84v35.13h-5.84Z"/><path class="cls-1" d="M1319.39,831.44h-7.58l-3.56-22.56-1.67-12.56h5.9l3.11,27.53,3.12-27.53h5.9l-1.67,12.6Z"/><path class="cls-1" d="M1329,796.31h13.76v5.6h-7.91v9.16h6.81v5.61h-6.81v9.16h7.91v5.6H1329Z"/></svg>