<svg xmlns="http://www.w3.org/2000/svg" viewBox="0 0 1920 1080"><defs><style>.cls-1{fill:#fff;}.cls-2{fill:#4e96b3;}</style></defs><title>index_titre</title><g id="sous_titre" data-name="sous titre"><path class="cls-1" d="M649.73,418.77h618.11a0,0,0,0,1,0,0v79a29.21,29.21,0,0,1-29.21,29.21H678.94a29.21,29.21,0,0,1-29.21-29.21v-79A0,0,0,0,1,649.73,418.77Z"/><g id="RÉUSSIR_VOS_RECRUTEMENTS" data-name="RÉUSSIR VOS RECRUTEMENTS"><path class="cls-2" d="M693.9,440.57h8.88q6.59,0,6.59,8.54a30.22,30.22,0,0,1-.37,4.43l-1.34,9.27q-1.21,8.14-6.38,10.71L704,502.2h-6.68l-1.55-27.11-.8.16-3.92,27h-6.1Zm4.83,8.76L696.14,467h1.4a4.47,4.47,0,0,0,1.79-.25q1.81-1,2.24-3.93l1.34-9.27a9.39,9.39,0,0,0,.13-1.44q0-2.76-2.16-2.76Z"/><path class="cls-2" d="M718.16,440.57H734l-1.27,8.76H723L720.4,467h8.36l-1.27,8.8h-8.36l-2.59,17.65h9.72L725,502.2H709.18Zm7-2.39h-3.38l4.2-7.95h4.78Z"/><path class="cls-2" d="M750.33,490.23q-1.9,12.94-10.67,13-7.2,0-7.2-8.76a28.92,28.92,0,0,1,.34-4.21l7.24-49.66h6.1l-7.24,49.66a10.43,10.43,0,0,0-.11,1.41q0,2.76,2.15,2.76,2.67,0,3.28-4.18l7.24-49.66h6.1Z"/><path class="cls-2" d="M762.55,452.54q1.9-12.94,10.64-12.94,7.22,0,7.22,8.76a28.28,28.28,0,0,1-.34,4.18l-1.21,8.29h-6.1l1.21-8.29a9.84,9.84,0,0,0,.11-1.38q0-2.76-2.15-2.8h0q-2.63,0-3.23,4.18l-.82,5.59a6.51,6.51,0,0,0-.06.94q0,3.83,4.31,9.14a16.91,16.91,0,0,1,3.88,11,22.78,22.78,0,0,1-.24,3.2l-1.14,7.79q-1.9,13-10.65,13-7.22,0-7.22-8.8a28.29,28.29,0,0,1,.34-4.18l1.21-8.29h6.1l-1.21,8.29a10,10,0,0,0-.11,1.41q0,2.76,2.18,2.76,2.65,0,3.25-4.18l1-7a6.73,6.73,0,0,0,.09-1.07q0-4.08-4.29-9.36a16.92,16.92,0,0,1-3.86-11.06,23.35,23.35,0,0,1,.26-3.39Z"/><path class="cls-2" d="M786.58,452.54q1.9-12.94,10.64-12.94,7.22,0,7.22,8.76a28.28,28.28,0,0,1-.34,4.18l-1.21,8.29h-6.1l1.21-8.29a9.84,9.84,0,0,0,.11-1.38q0-2.76-2.15-2.8h0q-2.63,0-3.23,4.18l-.82,5.59a6.51,6.51,0,0,0-.06.94q0,3.83,4.31,9.14a16.91,16.91,0,0,1,3.88,11,22.78,22.78,0,0,1-.24,3.2l-1.14,7.79q-1.9,13-10.65,13-7.22,0-7.22-8.8a28.29,28.29,0,0,1,.34-4.18l1.21-8.29h6.1l-1.21,8.29a10,10,0,0,0-.11,1.41q0,2.76,2.18,2.76,2.65,0,3.25-4.18l1-7a6.73,6.73,0,0,0,.09-1.07q0-4.08-4.29-9.36a16.92,16.92,0,0,1-3.86-11.06,23.35,23.35,0,0,1,.26-3.39Z"/><path class="cls-2" d="M812.88,440.57H819l-9,61.63h-6.1Z"/><path class="cls-2" d="M826.46,440.57h8.88q6.59,0,6.59,8.54a30.22,30.22,0,0,1-.37,4.43l-1.34,9.27q-1.21,8.14-6.38,10.71l2.67,28.68h-6.68l-1.55-27.11-.8.16-3.92,27h-6.1Zm4.83,8.76L828.7,467h1.4a4.47,4.47,0,0,0,1.79-.25q1.81-1,2.24-3.93l1.34-9.27a9.39,9.39,0,0,0,.13-1.44q0-2.76-2.16-2.76Z"/><path class="cls-2" d="M867.16,502.2H858.8l1.51-39.83,1.19-21.8h6.16L865,488.06l11.23-47.5h6.16l-5.17,21.86Z"/><path class="cls-2" d="M897.69,490.23q-1.9,12.94-10.67,13-7.2,0-7.2-8.76a28.92,28.92,0,0,1,.34-4.21l5.5-37.7q1.9-12.94,10.64-12.94,7.22,0,7.22,8.76a28.28,28.28,0,0,1-.34,4.18Zm-.6-37.7a9.84,9.84,0,0,0,.11-1.38q0-2.76-2.15-2.8h0q-2.63,0-3.23,4.18l-5.5,37.7a10.51,10.51,0,0,0-.11,1.41q0,2.76,2.15,2.76,2.67,0,3.28-4.18Z"/><path class="cls-2" d="M909.69,452.54q1.9-12.94,10.64-12.94,7.22,0,7.22,8.76a28.28,28.28,0,0,1-.34,4.18L926,460.83h-6.1l1.21-8.29a9.84,9.84,0,0,0,.11-1.38q0-2.76-2.15-2.8h0q-2.63,0-3.23,4.18l-.82,5.59a6.51,6.51,0,0,0-.06.94q0,3.83,4.31,9.14a16.91,16.91,0,0,1,3.88,11,22.78,22.78,0,0,1-.24,3.2l-1.14,7.79q-1.9,13-10.65,13-7.22,0-7.22-8.8a28.29,28.29,0,0,1,.34-4.18l1.21-8.29h6.1l-1.21,8.29a10,10,0,0,0-.11,1.41q0,2.76,2.18,2.76,2.65,0,3.25-4.18l1-7a6.73,6.73,0,0,0,.09-1.07q0-4.08-4.29-9.36a16.92,16.92,0,0,1-3.86-11.06,23.35,23.35,0,0,1,.26-3.39Z"/><path class="cls-2" d="M948.61,440.57h8.88q6.59,0,6.59,8.54a30.21,30.21,0,0,1-.37,4.43l-1.34,9.27q-1.21,8.14-6.38,10.71l2.67,28.68H952l-1.55-27.11-.8.16-3.92,27h-6.1Zm4.83,8.76L950.85,467h1.4a4.47,4.47,0,0,0,1.79-.25q1.81-1,2.24-3.93l1.34-9.27a9.39,9.39,0,0,0,.13-1.44q0-2.76-2.16-2.76Z"/><path class="cls-2" d="M972.87,440.57h15.82l-1.27,8.76H977.7L975.11,467h8.36l-1.27,8.8h-8.36l-2.59,17.65H981l-1.27,8.76H963.88Z"/><path class="cls-2" d="M1004.82,490.23q-1.9,12.94-10.67,13-7.2,0-7.2-8.76a28.86,28.86,0,0,1,.35-4.21l5.49-37.7q1.9-12.94,10.64-12.94,7.22,0,7.22,8.76a28.34,28.34,0,0,1-.34,4.18l-1.21,8.29H1003l1.21-8.29a9.92,9.92,0,0,0,.11-1.38q0-2.76-2.16-2.8h0q-2.63,0-3.23,4.18l-5.5,37.7a10.43,10.43,0,0,0-.11,1.41q0,2.76,2.15,2.76,2.67,0,3.28-4.18l1.21-8.29h6.1Z"/><path class="cls-2" d="M1018.79,440.57h8.88q6.59,0,6.59,8.54a30.21,30.21,0,0,1-.37,4.43l-1.34,9.27q-1.21,8.14-6.38,10.71l2.67,28.68h-6.68l-1.55-27.11-.8.16-3.92,27h-6.1Zm4.83,8.76L1021,467h1.4a4.47,4.47,0,0,0,1.79-.25q1.81-1,2.24-3.93l1.34-9.27a9.39,9.39,0,0,0,.13-1.44q0-2.76-2.16-2.76Z"/><path class="cls-2" d="M1053.11,490.23q-1.9,12.94-10.67,13-7.2,0-7.2-8.76a29,29,0,0,1,.34-4.21l7.24-49.66h6.1l-7.24,49.66a10.43,10.43,0,0,0-.11,1.41q0,2.76,2.15,2.76,2.67,0,3.28-4.18l7.24-49.66h6.1Z"/><path class="cls-2" d="M1083.3,440.57l-1.27,8.76h-5.71l-7.71,52.87h-6.1l7.71-52.87h-5.71l1.27-8.76Z"/><path class="cls-2" d="M1088.94,440.57h15.82l-1.27,8.76h-9.72L1091.18,467h8.36l-1.27,8.8h-8.36l-2.59,17.65H1097l-1.27,8.76H1080Z"/><path class="cls-2" d="M1118.16,482.79l13.25-42.22h6.1l-9,61.63h-5.84l5-34.59-10.26,34.59h-4.14l-.32-34.59-5,34.59h-5.9l9-61.63h6.1Z"/><path class="cls-2" d="M1144.88,440.57h15.82l-1.27,8.76h-9.72L1147.12,467h8.36l-1.27,8.8h-8.36l-2.59,17.65H1153l-1.27,8.76h-15.82Z"/><path class="cls-2" d="M1167,440.57h6.1l.56,35.75,5.21-35.75h5.65l-9,61.63h-6.1l-.52-34.62-5,34.62H1158Z"/><path class="cls-2" d="M1207.67,440.57l-1.27,8.76h-5.71L1193,502.2h-6.1l7.71-52.87h-5.71l1.27-8.76Z"/><path class="cls-2" d="M1211.13,452.54q1.9-12.94,10.64-12.94,7.22,0,7.22,8.76a28.23,28.23,0,0,1-.35,4.18l-1.21,8.29h-6.1l1.21-8.29a9.76,9.76,0,0,0,.11-1.38q0-2.76-2.15-2.8h0q-2.63,0-3.23,4.18l-.82,5.59a6.51,6.51,0,0,0-.07.94q0,3.83,4.31,9.14a16.9,16.9,0,0,1,3.88,11,22.85,22.85,0,0,1-.24,3.2l-1.14,7.79q-1.9,13-10.64,13-7.22,0-7.22-8.8a28.34,28.34,0,0,1,.34-4.18l1.21-8.29h6.1l-1.21,8.29a10.1,10.1,0,0,0-.11,1.41q0,2.76,2.18,2.76,2.65,0,3.25-4.18l1-7a6.67,6.67,0,0,0,.09-1.07q0-4.08-4.29-9.36a16.92,16.92,0,0,1-3.86-11.06,23.42,23.42,0,0,1,.26-3.39Z"/></g></g><g id="titre"><path class="cls-1" d="M538.5,220.86v13.87H527v73.18H512.5V234.73H501V220.86Z"/><path class="cls-1" d="M549.89,220.86h19q17.48,0,17.48,18.83v12.83q0,11.83-9.48,15.3l14,40.09H575.06l-9.91-37.44h-.78v37.44H549.89Zm14.48,13.87v22.7h1.74a10.85,10.85,0,0,0,3-.26q2.74-1.09,2.74-4.65V239.69q0-5-4.26-5Z"/><path class="cls-1" d="M638,276.69l4.13,31.22H627.49l-2.39-18.09H614.45L612,307.91H597.45l4.13-31.09,8.83-56h18.78Zm-14.74-.78-3.48-26.35-3.48,26.35Z"/><path class="cls-1" d="M653.06,220.86h14.3L677,263.73V220.86h13.57v87h-14.3l-9.22-41.7v41.7h-14Z"/><path class="cls-1" d="M704.58,238.3q0-18.78,18.74-18.78T742.1,238.3v12.35H727.62V238.3q0-4.87-4.26-4.91h-.09q-4.22,0-4.22,4.91V246q0,5.3,11.13,13.3,11.91,8.48,11.91,20.35v10.78q0,18.83-18.74,18.83t-18.78-18.83V278.12h14.48v12.35q0,4.91,4.3,4.91t4.26-4.91v-9.74q0-5.78-11.13-13.78-11.91-8.48-11.91-20.65Z"/><path class="cls-1" d="M756.1,220.86h19q17.48,0,17.48,18.83v12.83q0,13.78-12.48,17.87a29.8,29.8,0,0,1-8.61,1h-.91v36.57H756.1Zm14.48,13.87v22.7h1.74a10.85,10.85,0,0,0,3-.26q2.74-1.09,2.74-4.65V239.69q0-5-4.26-5Z"/><path class="cls-1" d="M841.92,290.47q0,18.78-18.78,18.83T804.4,290.47V238.3q0-18.78,18.74-18.78t18.78,18.78ZM827.44,238.3q0-4.87-4.26-4.91h-.09q-4.22,0-4.22,4.91v52.17q0,4.91,4.26,4.91t4.3-4.91Z"/><path class="cls-1" d="M855.92,220.86h19q17.48,0,17.48,18.83v12.83q0,11.83-9.48,15.3l14,40.09H881.09l-9.91-37.44h-.78v37.44H855.92Zm14.48,13.87v22.7h1.74a10.85,10.85,0,0,0,3-.26q2.74-1.09,2.74-4.65V239.69q0-5-4.26-5Z"/><path class="cls-1" d="M940.44,220.86v13.87H928.91v73.18H914.43V234.73H902.91V220.86Z"/><path class="cls-1" d="M951,238.3q0-18.78,18.74-18.78t18.78,18.78v12.35H974V238.3q0-4.87-4.26-4.91h-.09q-4.22,0-4.22,4.91V246q0,5.3,11.13,13.3,11.92,8.48,11.91,20.35v10.78q0,18.83-18.74,18.83T951,290.47V278.12h14.48v12.35q0,4.91,4.3,4.91t4.26-4.91v-9.74Q974,275,962.87,267,951,258.47,951,246.3Z"/><path class="cls-1" d="M1028.12,220.86h19q17.48,0,17.48,18.83v12.83q0,11.83-9.48,15.3l14,40.09H1053.3l-9.91-37.44h-.78v37.44h-14.48Zm14.48,13.87v22.7h1.74a10.84,10.84,0,0,0,3-.26q2.74-1.09,2.74-4.65V239.69q0-5-4.26-5Z"/><path class="cls-1" d="M1116.25,290.47q0,18.78-18.78,18.83t-18.74-18.83V238.3q0-18.78,18.74-18.78t18.78,18.78Zm-14.48-52.17q0-4.87-4.26-4.91h-.09q-4.22,0-4.22,4.91v52.17q0,4.91,4.26,4.91t4.3-4.91Z"/><path class="cls-1" d="M1167.34,290.47q0,18.78-18.78,18.83t-18.74-18.83V220.86h14.48v69.61q0,4.91,4.26,4.91t4.3-4.91V220.86h14.48Z"/><path class="cls-1" d="M1215.81,220.86v13.87h-11.52v73.18h-14.48V234.73h-11.52V220.86Z"/><path class="cls-1" d="M1227.42,220.86h14.48v87h-14.48Z"/><path class="cls-1" d="M1257,220.86h34.09v13.87h-19.61v22.7h16.87v13.91h-16.87V294h19.61v13.87H1257Z"/><path class="cls-1" d="M1303.76,220.86h19q17.48,0,17.48,18.83v12.83q0,11.83-9.48,15.3l14,40.09h-15.78L1319,270.47h-.78v37.44h-14.48Zm14.48,13.87v22.7H1320a10.84,10.84,0,0,0,3-.26q2.74-1.09,2.74-4.65V239.69q0-5-4.26-5Z"/><path class="cls-1" d="M1354.36,238.3q0-18.78,18.74-18.78t18.78,18.78v12.35h-14.48V238.3q0-4.87-4.26-4.91h-.09q-4.22,0-4.22,4.91V246q0,5.3,11.13,13.3,11.91,8.48,11.91,20.35v10.78q0,18.83-18.74,18.83t-18.78-18.83V278.12h14.48v12.35q0,4.91,4.3,4.91t4.26-4.91v-9.74q0-5.78-11.13-13.78-11.91-8.48-11.91-20.65Z"/><path class="cls-1" d="M930.77,360.65c-.78-.78-1.51-1.55-2.57-2.69a11.27,11.27,0,0,1-8,3.14c-5.35,0-8.45-3.59-8.45-7.71,0-3.75,2.24-6.32,5.39-8v-.12a9.45,9.45,0,0,1-2.29-5.75,6.67,6.67,0,0,1,7-6.77c3.43,0,6.08,2.28,6.08,5.83,0,2.9-1.67,5.18-6,7.34V346c2.33,2.69,4.94,5.71,6.69,7.67a20.17,20.17,0,0,0,2.65-8h3.26c-.73,4.33-1.92,7.75-4,10.16,1.47,1.55,2.9,3.1,4.53,4.86Zm-4.33-4.73c-1.63-1.8-4.69-5.14-7.75-8.65-1.47.94-3.55,2.69-3.55,5.59a5.42,5.42,0,0,0,5.63,5.55A7.68,7.68,0,0,0,926.45,355.92Zm-8.36-16.77a7.71,7.71,0,0,0,2.08,4.94c2.77-1.59,4.57-3.06,4.57-5.39,0-1.67-.94-3.55-3.18-3.55S918.08,337,918.08,339.15Z"/><path class="cls-1" d="M982.2,346.41,981,361.06h-6.86l.67-8.49h-5l-2.94,8.49h-6.84l5-14.59,9.71-26.26h8.82Zm-6.84-.37,1-12.37L972.09,346Z"/><path class="cls-1" d="M1005.11,352.88q-1.88,8.82-10.69,8.84-7.24,0-7.24-6a13.85,13.85,0,0,1,.33-2.84l5.2-24.49q1.88-8.82,10.67-8.82,7.26,0,7.26,6a13.78,13.78,0,0,1-.33,2.82l-1.22,5.8h-6.8l1.22-5.8a3.75,3.75,0,0,0,.1-.82q0-1.47-1.61-1.49h0q-2,0-2.47,2.31l-5.2,24.49a3.69,3.69,0,0,0-.1.82q0,1.49,1.61,1.49,2,0,2.51-2.31l1.22-5.8h6.8Z"/><path class="cls-1" d="M1034.39,320.2l-1.39,6.51h-5.41l-7.29,34.34h-6.79l7.29-34.34h-5.41l1.39-6.51Z"/><path class="cls-1" d="M1039.84,320.2h6.8L1038,361.06h-6.8Z"/><path class="cls-1" d="M1058.1,361.06h-8.82l1.43-26.24,1.16-14.61h6.86l-3.18,32,10.43-32h6.86l-5,14.65Z"/><path class="cls-1" d="M1078.08,320.2h6.8l-8.67,40.85h-6.8Z"/><path class="cls-1" d="M1107.93,320.2l-1.39,6.51h-5.41l-7.29,34.34h-6.79l7.29-34.34h-5.41l1.39-6.51Z"/><path class="cls-1" d="M1113.28,320.2h16l-1.39,6.51h-9.2l-2.24,10.65h7.92L1123,343.9h-7.92l-2.27,10.65h9.2l-1.39,6.51h-16Zm15.22-4.57-6.73,3.84h-5.84l7.78-6H1129Z"/><path class="cls-1" d="M1132.07,328.39q1.88-8.82,10.67-8.82,7.26,0,7.26,6a13.78,13.78,0,0,1-.33,2.82l-1.22,5.8h-6.8l1.22-5.8a3.75,3.75,0,0,0,.1-.82q0-1.47-1.61-1.49h0q-2,0-2.47,2.31l-.78,3.63a2.43,2.43,0,0,0-.06.55q0,2.35,4,5.69a9.42,9.42,0,0,1,3.82,7.39,10,10,0,0,1-.25,2.16l-1.08,5.06q-1.88,8.84-10.67,8.84-7.27,0-7.26-6a13.77,13.77,0,0,1,.33-2.82l1.22-5.8h6.8l-1.22,5.8a3.69,3.69,0,0,0-.1.82q0,1.49,1.63,1.49,2,0,2.49-2.31l1-4.57a3.2,3.2,0,0,0,.06-.63q0-2.51-3.92-5.84a9.45,9.45,0,0,1-3.78-7.43,11,11,0,0,1,.25-2.27Z"/><path class="cls-1" d="M1181.63,346.41l-1.16,14.65h-6.86l.67-8.49h-5l-2.94,8.49h-6.84l5-14.59,9.71-26.26h8.82Zm-6.84-.37,1-12.37L1171.53,346Z"/><path class="cls-1" d="M1204.75,352.88q-1.88,8.82-10.69,8.84-7.25,0-7.24-6a13.85,13.85,0,0,1,.33-2.84l6.94-32.67h6.79l-6.94,32.67a3.69,3.69,0,0,0-.1.82q0,1.49,1.61,1.49,2,0,2.51-2.31l6.94-32.67h6.8Z"/><path class="cls-1" d="M1223.48,320.2l.88,11.71,5.84-11.71h6.86L1226,340.63l2.43,20.43h-6.86l-.59-13-6.12,13H1208l11.12-20.43-2.45-20.43Z"/><path class="cls-1" d="M1242.32,320.2h6.8l-8.67,40.85h-6.8Z"/><path class="cls-1" d="M1247.52,361.06l8.67-40.85H1263l-7.29,34.34h9.2l-1.39,6.51Z"/><path class="cls-1" d="M1277.43,320.2h6.8l-8.67,40.85h-6.8Z"/><path class="cls-1" d="M1302.92,346.41l-1.16,14.65h-6.86l.67-8.49h-5l-2.94,8.49h-6.84l5-14.59,9.71-26.26h8.82Zm-6.84-.37,1-12.37L1292.82,346Z"/><path class="cls-1" d="M1315.67,320.2h6.8l-8.67,40.85H1307Z"/><path class="cls-1" d="M1329.55,320.2h8.92q6.67,0,6.67,5.86a14.49,14.49,0,0,1-.35,3l-1.27,6q-1.18,5.55-6,7.18l2.55,18.81h-7.41l-.92-17.57h-.37l-3.73,17.57h-6.79Zm5.41,6.51-2.24,10.65h.82a5.36,5.36,0,0,0,1.45-.12,2.76,2.76,0,0,0,1.75-2.18l1.27-6a3.69,3.69,0,0,0,.1-.82q0-1.51-1.61-1.51Z"/><path class="cls-1" d="M1353.71,320.2h16l-1.39,6.51h-9.2l-2.24,10.65h7.92l-1.39,6.53h-7.92l-2.27,10.65h9.2l-1.39,6.51h-16Z"/><path class="cls-1" d="M1373.52,328.39q1.88-8.82,10.67-8.82,7.26,0,7.26,6a13.78,13.78,0,0,1-.33,2.82l-1.22,5.8h-6.8l1.22-5.8a3.75,3.75,0,0,0,.1-.82q0-1.47-1.61-1.49h0q-2,0-2.47,2.31l-.78,3.63a2.43,2.43,0,0,0-.06.55q0,2.35,4,5.69a9.42,9.42,0,0,1,3.82,7.39,10,10,0,0,1-.25,2.16l-1.08,5.06q-1.88,8.84-10.67,8.84-7.27,0-7.26-6a13.77,13.77,0,0,1,.33-2.82l1.22-5.8h6.8l-1.22,5.8a3.69,3.69,0,0,0-.1.82q0,1.49,1.63,1.49,2,0,2.49-2.31l1-4.57a3.2,3.2,0,0,0,.06-.63q0-2.51-3.92-5.84a9.45,9.45,0,0,1-3.78-7.43,11,11,0,0,1,.25-2.27Z"/></g></svg>