<svg xmlns="http://www.w3.org/2000/svg" viewBox="0 0 143.94 143.94"><defs><style>.cls-1{isolation:isolate;}.cls-2{fill:#fff;}.cls-3{fill:#fcc600;}.cls-4{opacity:0.7;mix-blend-mode:soft-light;}.cls-5{fill:#464646;}</style></defs><title>screen1_bt1.svg</title><g class="cls-1"><g id="Calque_2" data-name="Calque 2"><g id="boutons"><circle class="cls-2" cx="71.97" cy="71.97" r="66.89"/><path class="cls-3" d="M143.94,67.83v8.51c-.08.41-.16.82-.23,1.23-.55,3.48-.94,7-1.66,10.42a68.19,68.19,0,0,1-8.74,21.6,71.08,71.08,0,0,1-15,17.4,71.92,71.92,0,0,1-14.78,9.61,70.1,70.1,0,0,1-19.71,6.32c-2.49.4-5,.69-7.49,1H67.6c-.41-.08-.82-.19-1.23-.22a75.53,75.53,0,0,1-19-4.16A72,72,0,0,1,.78,82.24C.5,80.2.26,78.15,0,76.11q0-4.25,0-8.51c.08-.45.19-.89.23-1.35a75.81,75.81,0,0,1,2.55-14,73.1,73.1,0,0,1,8.46-18.89A72.18,72.18,0,0,1,59.66,1.1C62.29.66,65,.36,67.6,0h8.74c.41.08.82.16,1.23.23,3.48.55,7,.93,10.42,1.66a68.49,68.49,0,0,1,21.31,8.56,70.67,70.67,0,0,1,18,15.52A72.14,72.14,0,0,1,136.88,41a70.7,70.7,0,0,1,6.26,20.56C143.44,63.66,143.68,65.75,143.94,67.83ZM72.13,14.43a57.53,57.53,0,1,0,57.28,61.09A57.4,57.4,0,0,0,72.13,14.43Z"/><path class="cls-3" d="M54,72.57q0-10.46,0-20.92c0-.42,0-.84,0-1.26.17-3.76,2.8-5.21,6.08-3.34,1.46.83,2.91,1.69,4.36,2.54q12.84,7.48,25.68,15c2.74,1.6,5.51,3.17,8.18,4.88s2.69,4.63,0,6.45c-.54.37-1.08.72-1.65,1Q84.92,83.76,73.09,90.58c-4.38,2.52-8.73,5.08-13.17,7.47-3,1.63-5.61,0-5.65-3.41-.07-7.35,0-14.71,0-22.07Z"/><g class="cls-4"><path class="cls-5" d="M136.88,41A72.14,72.14,0,0,0,127.29,26a70.67,70.67,0,0,0-18-15.52A68.49,68.49,0,0,0,88,1.89C84.56,1.16,81,.77,77.57.23,77.16.16,76.75.08,76.34,0H72.21V14.43a57.52,57.52,0,0,1,0,115v14.46h4.13c2.5-.34,5-.62,7.49-1a70.1,70.1,0,0,0,19.71-6.32A71.92,71.92,0,0,0,118.32,127a71.08,71.08,0,0,0,15-17.4A68.19,68.19,0,0,0,142,88c.73-3.44,1.12-6.95,1.66-10.42.06-.41.15-.82.23-1.23V67.83c-.26-2.08-.5-4.17-.8-6.24A70.7,70.7,0,0,0,136.88,41Z"/><path class="cls-5" d="M96.74,76.92c.56-.33,1.11-.68,1.65-1,2.66-1.82,2.7-4.7,0-6.45s-5.44-3.28-8.18-4.88l-18-10.47v37l.88-.51Q84.93,83.77,96.74,76.92Z"/></g></g></g></g></svg>