<svg id="boutons" xmlns="http://www.w3.org/2000/svg" viewBox="0 0 1920 1080"><defs><style>.cls-1{fill:#fff;}</style></defs><title>index_bt1_txt</title><path class="cls-1" d="M654.25,781.24h3.83l-.34,1.57a3,3,0,0,0-.07.61q0,1.19,1.37,1.19a2,2,0,0,0,2-1.8l4.55-21.42h3.83l-4.55,21.42q-1.19,5.59-6.69,5.59-4.54,0-4.54-3.79a8.47,8.47,0,0,1,.22-1.8Z"/><path class="cls-1" d="M674.11,761.39H684l-.8,3.78h-6.11l-1.63,7.61h5.26l-.8,3.79h-5.26l-1.63,7.61h6.11l-.8,3.78h-9.94Z"/><path class="cls-1" d="M696,761.39h5.58q4.14,0,4.15,3.68a9,9,0,0,1-.23,1.91l-.84,4a5.85,5.85,0,0,1-4,4.62L702.32,788h-4.2l-1-11.69-.5.07L694.18,788h-3.83Zm3,3.78-1.63,7.61h.88a4,4,0,0,0,1.12-.11,2.15,2.15,0,0,0,1.41-1.69l.84-4a2.82,2.82,0,0,0,.08-.62q0-1.19-1.35-1.19Z"/><path class="cls-1" d="M711.25,761.39h9.94l-.8,3.78h-6.11l-1.63,7.61h5.26l-.8,3.79h-5.26l-1.63,7.61h6.11l-.8,3.78H705.6Z"/><path class="cls-1" d="M731.33,782.81q-1.19,5.58-6.71,5.59-4.52,0-4.52-3.78a8.67,8.67,0,0,1,.22-1.82l3.45-16.25Q725,761,730.47,761q4.54,0,4.54,3.78a8.48,8.48,0,0,1-.22,1.8l-.76,3.58H730.2l.76-3.58a2.92,2.92,0,0,0,.07-.6q0-1.19-1.35-1.21h0a2,2,0,0,0-2,1.8l-3.45,16.25a3.12,3.12,0,0,0-.07.61q0,1.19,1.35,1.19a2,2,0,0,0,2.06-1.8l1.33-6.23h-1.94l.8-3.79h5.77Z"/><path class="cls-1" d="M747.29,778.54l-.76,9.43h-3.87l.45-5.63h-3.92l-2,5.63h-3.86l3.24-9.39L743,761.39h5.26Zm-3.87,0,.88-11.05-3.81,11.05Z"/><path class="cls-1" d="M755.59,761.39h5.58q4.14,0,4.15,3.68a9,9,0,0,1-.23,1.91l-.84,4a5.85,5.85,0,0,1-4,4.62L761.92,788h-4.2l-1-11.69-.5.07L753.78,788h-3.83Zm3,3.78L757,772.78h.88a4,4,0,0,0,1.12-.11,2.15,2.15,0,0,0,1.41-1.69l.84-4a2.82,2.82,0,0,0,.08-.62q0-1.19-1.35-1.19Z"/><path class="cls-1" d="M770.84,761.39h5.91q4.14,0,4.15,3.68a9.08,9.08,0,0,1-.23,1.91l-3.26,15.4q-1.19,5.57-6.54,5.58h-5.66Zm3,3.78-4.05,19h1.68a2,2,0,0,0,2.06-1.8l3.26-15.4a2.81,2.81,0,0,0,.08-.62q0-1.19-1.35-1.19Z"/><path class="cls-1" d="M786.22,761.39h9.94l-.8,3.78h-6.11l-1.63,7.61h5.26l-.8,3.79h-5.26l-1.63,7.61h6.11l-.8,3.78h-9.94Z"/><path class="cls-1" d="M600.5,831.44V796.31h5.84v29.53h7.91v5.6Z"/><path class="cls-1" d="M633.45,818.84l1.67,12.6h-5.9l-1-7.3H624l-1,7.3H617.1l1.67-12.54,3.56-22.58h7.58Zm-5.95-.32-1.4-10.63-1.4,10.63Z"/><path class="cls-1" d="M661.11,831.44h-7.58L650,808.88l-1.67-12.56h5.9l3.11,27.53,3.12-27.53h5.9l-1.67,12.6Z"/><path class="cls-1" d="M670.83,796.31h5.84v35.13h-5.84Z"/><path class="cls-1" d="M682.76,796.31h8.09q7.05,0,7.05,7.6v19.95q0,7.56-7.35,7.58h-7.79Zm5.84,5.6v23.93h1.74q1.72,0,1.72-2V803.91q0-2-1.72-2Z"/><path class="cls-1" d="M703.55,796.31h13.76v5.6h-7.91v9.16h6.81v5.61h-6.81v9.16h7.91v5.6H703.55Zm13.12-3.93-5.09,3.3h-5l5.58-5.14h4.53Z"/><path class="cls-1" d="M736.34,824.4q0,7.58-7.58,7.6t-7.56-7.6V803.35q0-7.58,7.56-7.58t7.58,7.58Zm-5.84-21.05q0-2-1.72-2h0q-1.7,0-1.7,2V824.4q0,2,1.72,2t1.74-2Z"/><path class="cls-1" d="M752,803.35q0-7.58,7.56-7.58t7.58,7.58v5h-5.84v-5q0-2-1.72-2h0q-1.7,0-1.7,2v3.12q0,2.14,4.49,5.37,4.81,3.42,4.81,8.21v4.35q0,7.6-7.56,7.6T752,824.4v-5h5.84v5q0,2,1.74,2t1.72-2v-3.93q0-2.33-4.49-5.56-4.81-3.42-4.81-8.33Z"/><path class="cls-1" d="M772.78,796.31h13.76v5.6h-7.91v9.16h6.81v5.61h-6.81v9.16h7.91v5.6H772.78Z"/><path class="cls-1" d="M806.62,824.4q0,7.58-7.58,7.6t-7.56-7.6V796.31h5.84V824.4q0,2,1.72,2t1.74-2V796.31h5.84Z"/><path class="cls-1" d="M812.45,831.44V796.31h5.84v29.53h7.91v5.6Z"/><path class="cls-1" d="M830.62,796.31h13.76v5.6h-7.91v9.16h6.81v5.61h-6.81v9.16h7.91v5.6H830.62Z"/></svg>