<svg id="boutons" xmlns="http://www.w3.org/2000/svg" viewBox="0 0 1920 1080"><defs><style>.cls-1{fill:#fcc600;}.cls-2{fill:#4e96b3;}</style></defs><title>index_bt2_txt2</title><path class="cls-1" d="M1068.5,846.16h209.93a0,0,0,0,1,0,0v44.65a11.93,11.93,0,0,1-11.93,11.93h-198a11.93,11.93,0,0,1-11.93-11.93V858.09a11.93,11.93,0,0,1,11.93-11.93Z" transform="translate(-44.08 62.17) rotate(-2.99)"/><path class="cls-2" d="M1071.5,860.62l3.6-.19q3.11-.16,3.29,3.25l.49,9.38q.18,3.39-3.08,3.57l-3.45.18Zm2.46,2.18.61,11.59,1-.05q1-.05,1-1.15l-.49-9.38q-.06-1.11-1.07-1.05Z"/><path class="cls-2" d="M1080.87,860.13l6.06-.32.12,2.3-3.72.19.24,4.64,3.2-.17.12,2.31-3.2.17.24,4.64,3.72-.19.12,2.3-6.06.32Z"/><path class="cls-2" d="M1089.33,862.84q-.18-3.4,3.17-3.58t3.54,3.22l.11,2.18-2.33.12-.11-2.18q-.06-1.09-1.07-1h0q-1,.05-.95,1.15l.08,1.47q.06,1.08,2.33,2.53a4.53,4.53,0,0,1,2.38,3.63l.11,2q.18,3.41-3.17,3.58t-3.54-3.23l-.11-2.18,2.34-.12.11,2.18q.06,1.1,1.08,1t1-1.15l-.1-1.85q-.06-1.17-2.33-2.63a4.57,4.57,0,0,1-2.39-3.68Z"/><path class="cls-2" d="M1103.15,869.86l2.34-.12.11,2.18q.06,1.1,1.08,1t1-1.15l-.68-13,2.34-.12.68,13q.18,3.41-3.17,3.58t-3.54-3.23Z"/><path class="cls-2" d="M1112.11,858.5l6.06-.32.12,2.3-3.72.19.24,4.64,3.2-.17.12,2.31-3.2.17.24,4.64,3.72-.19.12,2.3-6.06.32Z"/><path class="cls-2" d="M1127.89,870.76q.18,3.4-3.18,3.58t-3.53-3.23l-.68-13,2.34-.12.68,13q.06,1.1,1.07,1t1-1.15l-.68-13,2.34-.12Z"/><path class="cls-2" d="M1131.56,857.48l1.76,4.48,1.27-4.63,2.35-.12-2.27,8.24,3.11,8-2.35.12-1.75-4.48-1.28,4.64-2.35.12,2.27-8.24-3.11-8Z"/><path class="cls-2" d="M1143.89,856.83l6.06-.32.12,2.3-3.72.19.24,4.64,3.2-.17.12,2.31-3.2.17.24,4.64,3.72-.19.12,2.3-6.06.32Z"/><path class="cls-2" d="M1158.41,856.08l.12,2.3-2.19.11.73,13.89-2.33.12-.73-13.89-2.19.11-.12-2.3Z"/><path class="cls-2" d="M1165.44,855.71l3.6-.19q3.11-.16,3.29,3.25l.49,9.38q.18,3.39-3.08,3.57l-3.45.18Zm2.46,2.18.61,11.59,1-.05q1-.05,1-1.15l-.49-9.38q-.06-1.11-1.07-1.05Z"/><path class="cls-2" d="M1174.8,855.22l6.06-.32.12,2.3-3.72.19.24,4.64,3.2-.17.12,2.31-3.2.17.24,4.64,3.72-.19.12,2.3-6.06.32Z"/><path class="cls-2" d="M1183.27,857.93q-.18-3.4,3.17-3.58t3.54,3.22l.11,2.18-2.33.12-.11-2.18q-.06-1.09-1.07-1h0q-1,.05-.95,1.15l.08,1.47q.06,1.08,2.33,2.53a4.53,4.53,0,0,1,2.38,3.63l.11,2q.18,3.41-3.17,3.58t-3.54-3.23l-.11-2.18,2.34-.12.11,2.18q.06,1.1,1.08,1t1-1.15l-.1-1.85q-.06-1.17-2.33-2.63a4.57,4.57,0,0,1-2.39-3.68Z"/><path class="cls-2" d="M1204.57,866.74q.18,3.4-3.18,3.58t-3.53-3.23l-.52-9.9q-.18-3.4,3.17-3.58t3.54,3.22l.11,2.18-2.34.12-.11-2.18q-.06-1.09-1.07-1h0q-1,.05-1,1.15l.52,9.9q.06,1.1,1.07,1t1-1.15l-.11-2.18,2.34-.12Z"/><path class="cls-2" d="M1213.69,866.27q.18,3.4-3.18,3.58t-3.53-3.23l-.52-9.9q-.18-3.4,3.17-3.58t3.54,3.22Zm-2.85-9.78q-.06-1.09-1.07-1h0q-1,.05-1,1.15l.52,9.9q.06,1.1,1.07,1t1-1.15Z"/><path class="cls-2" d="M1215.67,853.08,1218,853l2.7,9.28-.49-9.39,2.16-.11.85,16.19-2.34.12-2.61-9,.48,9.1-2.25.12Z"/><path class="cls-2" d="M1231.25,852.26l.12,2.3-2.19.11.73,13.89-2.34.12-.73-13.89-2.19.11-.12-2.3Z"/><path class="cls-2" d="M1233.41,852.15l6.06-.32.12,2.3-3.72.19.24,4.64,3.2-.17.12,2.31-3.2.17.24,4.64,3.72-.19.12,2.3-6.06.32Z"/><path class="cls-2" d="M1241.88,851.71l2.34-.12,2.7,9.28-.49-9.39,2.16-.11.85,16.19-2.34.12-2.61-9,.48,9.1-2.25.12Z"/><path class="cls-2" d="M1258.72,863.91q.18,3.4-3.18,3.58t-3.53-3.23l-.68-13,2.33-.12.68,13q.06,1.1,1.07,1c.68,0,1-.42,1-1.15l-.68-13,2.33-.12Z"/><path class="cls-2" d="M1260.78,853.87q-.18-3.4,3.17-3.58t3.54,3.22l.11,2.18-2.33.12-.11-2.18q-.06-1.09-1.07-1h0q-1,.05-.95,1.15l.08,1.47q.06,1.08,2.33,2.53a4.53,4.53,0,0,1,2.38,3.63l.11,2q.18,3.41-3.17,3.58t-3.54-3.23l-.11-2.18,2.34-.12.11,2.18q.06,1.1,1.08,1t1-1.15l-.1-1.85q-.06-1.17-2.33-2.63a4.57,4.57,0,0,1-2.39-3.68Z"/><path class="cls-2" d="M1072.32,891.4l1.06,5.7-2.36.12-.63-3.41-2.38.13-.28,3.46-2.35.12.46-5.76,1.1-10.56,3.2-.17Zm-2.36.12-1.24-6.69-.54,6.78Z"/><path class="cls-2" d="M1074.61,880.8l2.33-.12,2.7,9.28-.49-9.39,2.16-.11.85,16.19-2.33.12-2.61-9,.48,9.1-2.25.12Z"/><path class="cls-2" d="M1084.14,880.3l2.34-.12,2.7,9.28-.49-9.39,2.16-.11.85,16.19-2.34.12-2.61-9,.48,9.1-2.25.12Z"/><path class="cls-2" d="M1093.67,879.8l6.06-.32.12,2.3-3.72.19.24,4.64,3.2-.17.12,2.31-3.2.17.24,4.64,3.72-.19.12,2.3-6.06.32Z"/><path class="cls-2" d="M1103.75,879.27l1.76,4.48,1.27-4.63,2.35-.12-2.27,8.24,3.11,8-2.35.12-1.75-4.48-1.28,4.64-2.35.12,2.27-8.24-3.12-8Z"/><path class="cls-2" d="M1111.21,878.88l6.06-.32.12,2.3-3.72.19.24,4.64,3.2-.17.12,2.31-3.2.17.24,4.64,3.72-.19.12,2.3-6.06.32Z"/><path class="cls-2" d="M1119.68,881.59q-.18-3.4,3.17-3.58t3.54,3.23l.11,2.18-2.34.12-.11-2.18q-.06-1.09-1.07-1h0q-1,.05-1,1.15l.08,1.47q.06,1.08,2.33,2.53a4.53,4.53,0,0,1,2.38,3.62l.11,2q.18,3.41-3.17,3.58t-3.54-3.23l-.11-2.18,2.34-.12.11,2.18q.06,1.1,1.08,1t1-1.15l-.1-1.85q-.06-1.17-2.33-2.63a4.57,4.57,0,0,1-2.39-3.68Z"/><path class="cls-2" d="M1139.41,888.53l2.13-11.24,2.34-.12.85,16.19-2.24.12-.47-9.09-1.52,9.19-1.58.08-2.53-9,.47,9.09-2.26.12-.85-16.19,2.34-.12Z"/><path class="cls-2" d="M1146.71,877l6.06-.32.12,2.3-3.72.19.24,4.64,3.2-.17.12,2.31-3.2.17.24,4.64,3.72-.19.12,2.3-6.06.32Z"/><path class="cls-2" d="M1160,879.48q-.18-3.4,3.17-3.58t3.54,3.23l.11,2.18-2.33.12-.11-2.18q-.06-1.09-1.07-1h0q-1,.05-1,1.15l.08,1.47q.06,1.08,2.33,2.53a4.53,4.53,0,0,1,2.38,3.63l.11,2q.18,3.41-3.17,3.58t-3.54-3.23l-.11-2.18,2.33-.12.11,2.18q.06,1.1,1.08,1t1-1.15l-.1-1.85q-.06-1.17-2.33-2.63a4.57,4.57,0,0,1-2.39-3.68Z"/><path class="cls-2" d="M1176.48,888.56q.18,3.4-3.18,3.58t-3.53-3.23l-.52-9.9q-.18-3.4,3.17-3.58t3.54,3.23Zm-2.85-9.78q-.06-1.09-1.07-1h0q-1,.05-1,1.15l.52,9.9q.06,1.1,1.07,1t1-1.15Z"/><path class="cls-2" d="M1178.45,875.37l2.34-.12,2.7,9.28-.49-9.39,2.16-.11.85,16.19-2.33.12-2.61-9,.48,9.1-2.25.12Z"/><path class="cls-2" d="M1194,874.55l.12,2.3L1192,877l.73,13.89-2.34.12-.73-13.89-2.19.11-.12-2.3Z"/><path class="cls-2" d="M1201.06,874.18l3.4-.18q3.11-.16,3.29,3.25l.13,2.44a3.07,3.07,0,0,1-2.07,3.35,5.32,5.32,0,0,1-1.55.26l-.38,0,.36,6.94-2.34.12Zm2.46,2.18.24,4.64.54,0a2.25,2.25,0,0,0,.66-.1,1,1,0,0,0,.58-1.06l-.13-2.44q-.06-1.11-1.07-1.05Z"/><path class="cls-2" d="M1210,873.72l3.4-.18q3.11-.16,3.29,3.25l.13,2.44a2.71,2.71,0,0,1-1.69,2.91l3,7.4-2.56.13-2.48-7-.29.06.37,7.08-2.34.12Zm2.46,2.18.24,4.64.54,0a2.26,2.26,0,0,0,.66-.1,1,1,0,0,0,.58-1.06l-.13-2.44q-.06-1.11-1.07-1.05Z"/><path class="cls-2" d="M1226.51,885.94q.18,3.4-3.18,3.58t-3.53-3.23l-.52-9.9q-.18-3.4,3.17-3.58T1226,876Zm-2.85-9.78q-.06-1.09-1.07-1h0q-1,.05-1,1.15l.52,9.9q.06,1.1,1.07,1t1-1.15Z"/><path class="cls-2" d="M1228.48,872.75l3.4-.18q3.11-.16,3.29,3.25l.13,2.44a3.07,3.07,0,0,1-2.07,3.35,5.33,5.33,0,0,1-1.55.26l-.38,0,.36,6.94-2.34.12Zm2.46,2.18.24,4.64.54,0a2.26,2.26,0,0,0,.66-.1,1,1,0,0,0,.58-1.06l-.13-2.44q-.06-1.11-1.07-1.05Z"/><path class="cls-2" d="M1244.63,885q.18,3.4-3.18,3.58t-3.53-3.23l-.52-9.9q-.18-3.4,3.17-3.58t3.54,3.23Zm-2.85-9.78q-.06-1.09-1.07-1h0q-1,.05-1,1.15l.52,9.9q.06,1.1,1.07,1t1-1.15Z"/><path class="cls-2" d="M1246.6,875q-.18-3.4,3.17-3.58t3.54,3.23l.11,2.18-2.34.12-.11-2.18q-.06-1.09-1.07-1h0q-1,.05-1,1.15l.08,1.47q.06,1.08,2.33,2.53a4.53,4.53,0,0,1,2.38,3.63l.11,2q.18,3.41-3.17,3.58t-3.54-3.23l-.11-2.18,2.34-.12.11,2.18q.06,1.1,1.08,1t1-1.15l-.1-1.85q-.06-1.17-2.33-2.63a4.57,4.57,0,0,1-2.39-3.68Z"/><path class="cls-2" d="M1255.81,871.32l6.06-.32.12,2.3-3.72.19.24,4.64,3.2-.17.12,2.31-3.2.17.24,4.64,3.72-.19.12,2.3-6.06.32Zm2.93-.78-1.3.07,1.06-2.15,1.83-.1Z"/><path class="cls-2" d="M1264.27,874q-.18-3.4,3.17-3.58t3.54,3.23l.11,2.18-2.34.12-.11-2.18q-.06-1.09-1.07-1h0q-1,.05-1,1.15l.08,1.47q.06,1.08,2.33,2.53a4.53,4.53,0,0,1,2.38,3.63l.11,2q.18,3.41-3.17,3.58t-3.54-3.23l-.11-2.18,2.34-.12.11,2.18q.06,1.1,1.08,1t1-1.15l-.1-1.85q-.06-1.17-2.33-2.63a4.57,4.57,0,0,1-2.39-3.68Z"/></svg>