<svg id="logo" xmlns="http://www.w3.org/2000/svg" xmlns:xlink="http://www.w3.org/1999/xlink" viewBox="0 0 1920 1080"><defs><style>.cls-1{fill:url(#radial-gradient);filter:url(#luminosity-invert-noclip);}.cls-2{fill:#fff;}.cls-3{mask:url(#mask);}.cls-4{fill:#4e96b3;}.cls-5{fill:#fcc600;}</style><radialGradient id="radial-gradient" cx="1866.88" cy="1001.76" r="105.52" gradientTransform="translate(0 12.09) scale(1 0.99)" gradientUnits="userSpaceOnUse"><stop offset="0" stop-color="#fff"/><stop offset="1"/></radialGradient><filter id="luminosity-invert-noclip" x="1588.16" y="742.74" width="318.78" height="257.74" filterUnits="userSpaceOnUse" color-interpolation-filters="sRGB"><feColorMatrix values="-1 0 0 0 1 0 -1 0 0 1 0 0 -1 0 1 0 0 0 1 0" result="invert"/><feFlood flood-color="#fff" result="bg"/><feBlend in="invert" in2="bg"/></filter><mask id="mask" x="1588.16" y="742.74" width="318.78" height="257.74" maskUnits="userSpaceOnUse"><ellipse class="cls-1" cx="1747.55" cy="852.68" rx="159.39" ry="109.95"/></mask></defs><title>index_logo</title><polygon class="cls-2" points="1847.84 1000.48 1760.39 978.38 1760.39 928.11 1847.84 906.02 1847.84 1000.48"/><g class="cls-3"><polygon class="cls-4" points="1847.84 1000.48 1760.39 978.38 1760.39 928.11 1847.84 906.02 1847.84 1000.48"/></g><path class="cls-2" d="M1786.73,941.14a3.31,3.31,0,0,0-1.6-.3,3.41,3.41,0,0,0-1.61.3,1.31,1.31,0,0,0-.54,1.26v16.83a2,2,0,0,1-1.28,1.71,8.82,8.82,0,0,1-4.1.71h-7.79a8.82,8.82,0,0,1-4.1-.71,2,2,0,0,1-1.28-1.71V952a2,2,0,0,1,1.28-1.72,9,9,0,0,1,4.1-.7h8.86q.77,0,1-.41a2.77,2.77,0,0,0,.22-1.24,2.88,2.88,0,0,0-.22-1.26q-.22-.43-1-.43h-9q-9.5,0-9.5,5.77v7.19q0,5.77,9.5,5.77h8.06q9.5,0,9.5-5.77V942.4A1.33,1.33,0,0,0,1786.73,941.14Z"/><path class="cls-2" d="M1828.52,965q-9.5,0-9.5-5.77V952q0-5.76,9.5-5.77h15.72a1.06,1.06,0,0,1,1,.41,2.67,2.67,0,0,1,.24,1.28,2.58,2.58,0,0,1-.24,1.24,1.06,1.06,0,0,1-1,.41h-15.59a9,9,0,0,0-4.1.7,2,2,0,0,0-1.28,1.72v7.19a2,2,0,0,0,1.28,1.71,8.82,8.82,0,0,0,4.1.71h15.69q.77,0,1,.41a2.76,2.76,0,0,1,.22,1.24,2.87,2.87,0,0,1-.22,1.26q-.22.43-1,.43Z"/><path class="cls-2" d="M1814.5,947.7q-2.23-1.42-7.27-1.42h-7.76q-9.5,0-9.5,5.77v7.19q0,5.77,9.5,5.77h16.05q.77,0,1-.43a2.88,2.88,0,0,0,.22-1.26,2.77,2.77,0,0,0-.22-1.24q-.22-.41-1-.41H1799.6a8.82,8.82,0,0,1-4.1-.71,2,2,0,0,1-1.28-1.71V952a2,2,0,0,1,1.28-1.72,9,9,0,0,1,4.1-.7h7.49a9.83,9.83,0,0,1,4.11.63,2,2,0,0,1,1.26,1.79v2.22h-13.74q-.76,0-1,.41a2.71,2.71,0,0,0-.21,1.22,2.82,2.82,0,0,0,.21,1.23q.21.42,1,.42h16a2.5,2.5,0,0,0,1.65-.36,1.85,1.85,0,0,0,.37-1.33V952A4.8,4.8,0,0,0,1814.5,947.7Z"/><path class="cls-5" d="M1763.82,962.54l-14.64-20.61a2.66,2.66,0,0,0-1-.86,3.71,3.71,0,0,0-1.6-.3,3.91,3.91,0,0,0-1.65.3,2.39,2.39,0,0,0-1,.86l-7,10.49-6.76,10.12a1.46,1.46,0,0,0-.23.73,1.22,1.22,0,0,0,.22.71,2.26,2.26,0,0,0,.57.56,2.71,2.71,0,0,0,.79.38,2.9,2.9,0,0,0,.84.13,2.27,2.27,0,0,0,.82-.15,1.27,1.27,0,0,0,.62-.51l12.79-19.58,6.52,9.42h-10.57q-.77,0-1,.41a2.77,2.77,0,0,0-.22,1.24,2.88,2.88,0,0,0,.22,1.26q.22.43,1,.43h12.89l4.73,6.82a1.47,1.47,0,0,0,.64.51,2.23,2.23,0,0,0,.84.15,3.12,3.12,0,0,0,1.66-.5,2,2,0,0,0,.57-.56,1.24,1.24,0,0,0,.22-.7A1.4,1.4,0,0,0,1763.82,962.54Z"/></svg>