<svg xmlns="http://www.w3.org/2000/svg" xmlns:xlink="http://www.w3.org/1999/xlink" viewBox="0 0 1920 1080"><defs><style>.cls-1{fill:none;}.cls-2{isolation:isolate;}.cls-3,.cls-54{fill:#4e96b3;}.cls-4{fill:#d8d8d8;}.cls-13,.cls-4,.cls-51,.cls-8{mix-blend-mode:multiply;}.cls-24,.cls-5{fill:#fefeff;}.cls-6{clip-path:url(#clip-path);}.cls-7{fill:#524538;}.cls-8{fill:#b3b3b3;}.cls-9{fill:#d6d8db;}.cls-10{fill:#f4d888;}.cls-11{fill:#ec967b;}.cls-12{clip-path:url(#clip-path-2);}.cls-13{fill:#d4d4d4;}.cls-14{fill:#646d78;}.cls-15{fill:#f38174;}.cls-16{font-size:30.81px;font-family:ITCAvantGardeStd-DemiCn, ITCAvantGardeStd DemiCn;letter-spacing:0.04em;}.cls-16,.cls-22,.cls-48,.cls-53{fill:#fff;}.cls-17{letter-spacing:0.03em;}.cls-18{letter-spacing:-0.04em;}.cls-19{letter-spacing:0.02em;}.cls-20{letter-spacing:-0.03em;}.cls-21{fill:#fcc600;}.cls-22{font-size:34.61px;letter-spacing:0.04em;}.cls-22,.cls-54{font-family:Gobold, Gobold;}.cls-23{fill:#464646;opacity:0.7;mix-blend-mode:soft-light;}.cls-24{font-size:27.63px;font-family:ITCAvantGardeStd-BkCn, ITCAvantGardeStd BkCn;}.cls-24,.cls-42{letter-spacing:0.04em;}.cls-25{letter-spacing:0.03em;}.cls-26{letter-spacing:0.04em;}.cls-27{letter-spacing:0.04em;}.cls-28{letter-spacing:0.03em;}.cls-29{letter-spacing:0.03em;}.cls-30{letter-spacing:0.03em;}.cls-31,.cls-41{letter-spacing:0.04em;}.cls-32{letter-spacing:0.06em;}.cls-33{letter-spacing:0.04em;}.cls-34{letter-spacing:0.03em;}.cls-35{letter-spacing:0.03em;}.cls-36,.cls-41{font-family:ITCAvantGardeStd-BoldCn, ITC Avant Garde Gothic Std;font-weight:700;}.cls-37{letter-spacing:0.02em;}.cls-38{letter-spacing:0.03em;}.cls-39{letter-spacing:0.03em;}.cls-40{letter-spacing:-0.06em;}.cls-43{letter-spacing:0.04em;}.cls-44{letter-spacing:0.04em;}.cls-45{clip-path:url(#clip-path-3);}.cls-46{opacity:0.17;}.cls-47{clip-path:url(#clip-path-4);}.cls-49{opacity:0.12;}.cls-50{clip-path:url(#clip-path-5);}.cls-51{fill:#e3e3e3;}.cls-52{fill:#f27162;}.cls-53{font-size:57.64px;font-family:GoboldBold, Gobold Bold;letter-spacing:0.04em;}.cls-54{font-size:36.37px;}.cls-55{letter-spacing:-0.02em;}.cls-56{letter-spacing:-0.11em;}</style><clipPath id="clip-path"><rect class="cls-1" x="-381.99" y="605.87" width="258.78" height="496.84"/></clipPath><clipPath id="clip-path-2"><rect class="cls-1" x="1686.72" y="1.05" width="233.28" height="397.42"/></clipPath><clipPath id="clip-path-3"><rect class="cls-1" y="255.39" width="346.98" height="824.61"/></clipPath><clipPath id="clip-path-4"><rect class="cls-1" x="3.12" y="1290.38" width="1920" height="1080"/></clipPath><clipPath id="clip-path-5"><rect class="cls-1" x="-2040.56" y="1286.73" width="1920" height="1080"/></clipPath></defs><title>jeu1_3</title><g class="cls-2"><g id="backgrounds"><rect class="cls-3" width="1920" height="1080"/></g><g id="contenu"><rect class="cls-4" x="280.36" y="4.84" width="1300.08" height="1058.5"/><rect class="cls-5" x="304.87" y="1.05" width="1300.08" height="1028.99"/><g class="cls-6"><path class="cls-4" d="M661,565.49l-115.85,8.3-.62-8.63-20.28,1.45L523.44,555,480,558.14l1.45,20.21L204.82,598.17l-62.28,4.46L-313.65,635.3c-21.6,1.55-37.82,20.91-36.22,43.24L-296.19,1428c1.6,22.33,20.41,39.18,42,37.64l365.68-26.19,5.21,72.74,43.45-3.11L155,1436.32l47.07-3.37,62.28-4.46,456.2-32.68c21.6-1.55,37.82-20.9,36.22-43.24L703,603.13C701.43,580.8,682.62,563.95,661,565.49Z"/><path class="cls-7" d="M-310.16,695.3l53.68,749.44c1.6,22.33,20.41,39.18,42,37.63l974.67-69.81c21.6-1.55,37.81-20.91,36.22-43.24L742.73,619.88c-1.6-22.33-20.41-39.18-42-37.64l-974.67,69.81C-295.55,653.61-311.76,673-310.16,695.3Z"/><rect class="cls-8" x="211.91" y="616.09" width="62.43" height="832.44" transform="translate(-73.15 20.01) rotate(-4.1)"/><path class="cls-9" d="M-249.46,732.27l47.79,667.21c1.42,19.88,18.17,34.88,37.4,33.51l867.73-62.15c19.23-1.38,33.67-18.61,32.24-38.5L687.91,665.13c-1.42-19.88-18.17-34.88-37.4-33.51l-867.73,62.15C-236.45,695.16-250.88,712.39-249.46,732.27Z"/><rect class="cls-8" x="236.59" y="661.75" width="13.07" height="741.11" transform="translate(-73.2 20.03) rotate(-4.1)"/><rect class="cls-10" x="522" y="573.25" width="43.56" height="65.93" transform="translate(-41.92 40.4) rotate(-4.1)"/><rect class="cls-11" x="542.69" y="583.4" width="43.56" height="54.32" transform="translate(-42.18 41.89) rotate(-4.1)"/><path class="cls-4" d="M196.13,806.85l-406.06,29.09a5.9,5.9,0,0,1-6.31-5.46h0a5.9,5.9,0,0,1,5.46-6.3l406.06-29.09a5.9,5.9,0,0,1,6.3,5.46h0A5.9,5.9,0,0,1,196.13,806.85Z"/><path class="cls-4" d="M197.95,832.2l-406.06,29.09a5.9,5.9,0,0,1-6.31-5.46h0a5.9,5.9,0,0,1,5.46-6.3L197.1,820.43a5.9,5.9,0,0,1,6.3,5.46h0A5.9,5.9,0,0,1,197.95,832.2Z"/><path class="cls-4" d="M199.81,858.26l-406.06,29.09a5.9,5.9,0,0,1-6.31-5.46h0a5.9,5.9,0,0,1,5.46-6.31L199,846.49a5.9,5.9,0,0,1,6.3,5.46h0A5.9,5.9,0,0,1,199.81,858.26Z"/><path class="cls-4" d="M201.63,883.61l-406.06,29.09a5.9,5.9,0,0,1-6.31-5.46h0a5.9,5.9,0,0,1,5.46-6.3l406.06-29.09a5.9,5.9,0,0,1,6.3,5.46h0A5.9,5.9,0,0,1,201.63,883.61Z"/><path class="cls-4" d="M203.33,907.32l-406.06,29.09a5.9,5.9,0,0,1-6.3-5.46h0a5.89,5.89,0,0,1,5.46-6.3l406.06-29.09a5.9,5.9,0,0,1,6.31,5.46h0A5.9,5.9,0,0,1,203.33,907.32Z"/><path class="cls-4" d="M205.14,932.67l-406.06,29.09a5.9,5.9,0,0,1-6.3-5.46h0a5.9,5.9,0,0,1,5.46-6.3L204.3,920.9a5.9,5.9,0,0,1,6.31,5.46h0A5.9,5.9,0,0,1,205.14,932.67Z"/><path class="cls-4" d="M207,958.74-199,987.82a5.9,5.9,0,0,1-6.3-5.46h0a5.9,5.9,0,0,1,5.46-6.31L206.17,947a5.9,5.9,0,0,1,6.31,5.46h0A5.9,5.9,0,0,1,207,958.74Z"/><path class="cls-4" d="M208.83,984.08l-406.06,29.08a5.9,5.9,0,0,1-6.3-5.46h0a5.89,5.89,0,0,1,5.46-6.3L208,972.31a5.9,5.9,0,0,1,6.31,5.46h0A5.9,5.9,0,0,1,208.83,984.08Z"/><path class="cls-4" d="M213.22,1045.38l-406.06,29.09a5.9,5.9,0,0,1-6.3-5.46h0a5.9,5.9,0,0,1,5.46-6.31l406.06-29.09a5.9,5.9,0,0,1,6.3,5.46h0A5.9,5.9,0,0,1,213.22,1045.38Z"/><path class="cls-4" d="M215,1070.73-191,1099.81a5.9,5.9,0,0,1-6.3-5.46h0a5.9,5.9,0,0,1,5.46-6.31L214.19,1059a5.9,5.9,0,0,1,6.3,5.46h0A5.9,5.9,0,0,1,215,1070.73Z"/><path class="cls-4" d="M669.9,772.91,263.84,802a5.9,5.9,0,0,1-6.31-5.46h0a5.9,5.9,0,0,1,5.46-6.3l406.06-29.09a5.9,5.9,0,0,1,6.3,5.46h0A5.9,5.9,0,0,1,669.9,772.91Z"/><path class="cls-4" d="M671.71,798.26,265.65,827.34a5.9,5.9,0,0,1-6.31-5.46h0a5.9,5.9,0,0,1,5.46-6.3l406.06-29.09a5.9,5.9,0,0,1,6.3,5.46h0A5.9,5.9,0,0,1,671.71,798.26Z"/><path class="cls-4" d="M673.58,824.33,267.52,853.41a5.9,5.9,0,0,1-6.31-5.46h0a5.9,5.9,0,0,1,5.46-6.31l406.06-29.09A5.9,5.9,0,0,1,679,818h0A5.9,5.9,0,0,1,673.58,824.33Z"/><path class="cls-4" d="M675.39,849.67,269.33,878.76A5.9,5.9,0,0,1,263,873.3h0a5.9,5.9,0,0,1,5.46-6.31l406.06-29.08a5.9,5.9,0,0,1,6.3,5.46h0A5.9,5.9,0,0,1,675.39,849.67Z"/><path class="cls-4" d="M677.09,873.39,271,902.47a5.9,5.9,0,0,1-6.31-5.46h0a5.9,5.9,0,0,1,5.46-6.31l406.06-29.08a5.9,5.9,0,0,1,6.3,5.46h0A5.9,5.9,0,0,1,677.09,873.39Z"/><path class="cls-4" d="M678.91,898.73,272.85,927.82a5.9,5.9,0,0,1-6.31-5.46h0a5.9,5.9,0,0,1,5.46-6.3L678.07,887a5.9,5.9,0,0,1,6.31,5.46h0A5.9,5.9,0,0,1,678.91,898.73Z"/><path class="cls-4" d="M680.78,924.8,274.72,953.88a5.9,5.9,0,0,1-6.31-5.46h0a5.9,5.9,0,0,1,5.46-6.31L679.94,913a5.9,5.9,0,0,1,6.3,5.46h0A5.9,5.9,0,0,1,680.78,924.8Z"/><path class="cls-4" d="M682.59,950.15,276.53,979.23a5.9,5.9,0,0,1-6.31-5.46h0a5.9,5.9,0,0,1,5.46-6.3l406.06-29.09a5.9,5.9,0,0,1,6.3,5.46h0A5.9,5.9,0,0,1,682.59,950.15Z"/><path class="cls-4" d="M687,1011.45l-406.06,29.09a5.9,5.9,0,0,1-6.31-5.46h0a5.9,5.9,0,0,1,5.47-6.3l406.06-29.09a5.9,5.9,0,0,1,6.3,5.46h0A5.9,5.9,0,0,1,687,1011.45Z"/><path class="cls-4" d="M688.8,1036.79l-406.06,29.09a5.9,5.9,0,0,1-6.31-5.46h0a5.9,5.9,0,0,1,5.46-6.31L688,1025a5.9,5.9,0,0,1,6.31,5.46h0A5.9,5.9,0,0,1,688.8,1036.79Z"/><path class="cls-4" d="M690.67,1062.86l-406.06,29.08a5.9,5.9,0,0,1-6.31-5.46h0a5.9,5.9,0,0,1,5.47-6.3l406.06-29.09a5.9,5.9,0,0,1,6.3,5.46h0A5.9,5.9,0,0,1,690.67,1062.86Z"/><path class="cls-4" d="M692.48,1088.21l-406.06,29.09a5.9,5.9,0,0,1-6.31-5.46h0a5.9,5.9,0,0,1,5.46-6.31l406.06-29.08a5.9,5.9,0,0,1,6.3,5.46h0A5.9,5.9,0,0,1,692.48,1088.21Z"/></g><g class="cls-12"><path class="cls-4" d="M2704.22-536.17l-115.85,8.3-.62-8.63L2567.48-535l-.83-11.59-43.45,3.11,1.45,20.21L2248-503.49,2185.75-499l-456.19,32.68c-21.6,1.55-37.82,20.91-36.22,43.24L1747,326.32c1.6,22.33,20.41,39.18,42,37.64l365.68-26.19,5.21,72.74,43.45-3.11-5.21-72.74,47.07-3.37,62.28-4.46,456.2-32.68c21.6-1.55,37.82-20.9,36.22-43.24l-53.68-749.44C2744.63-520.87,2725.82-537.72,2704.22-536.17Z"/><path class="cls-7" d="M1733-406.36l53.68,749.44c1.6,22.33,20.41,39.18,42,37.63L2803.4,310.9c21.6-1.55,37.81-20.91,36.22-43.24l-53.68-749.44c-1.6-22.33-20.41-39.18-42-37.64L1769.26-449.6C1747.65-448.06,1731.44-428.7,1733-406.36Z"/><path class="cls-9" d="M1793.75-369.39l47.79,667.21c1.42,19.88,18.17,34.88,37.4,33.51l867.73-62.15c19.23-1.38,33.67-18.61,32.24-38.5l-47.79-667.21c-1.42-19.88-18.17-34.88-37.4-33.51L1826-407.88C1806.76-406.51,1792.32-389.27,1793.75-369.39Z"/><path class="cls-4" d="M2260.1-4.86,1854,24.22a5.9,5.9,0,0,1-6.3-5.46h0a5.9,5.9,0,0,1,5.46-6.3l406.06-29.09a5.9,5.9,0,0,1,6.31,5.46h0A5.9,5.9,0,0,1,2260.1-4.86Z"/><path class="cls-4" d="M2261.92,20.48,1855.86,49.56a5.9,5.9,0,0,1-6.3-5.46h0A5.9,5.9,0,0,1,1855,37.8L2261.08,8.71a5.9,5.9,0,0,1,6.31,5.46h0A5.9,5.9,0,0,1,2261.92,20.48Z"/><path class="cls-4" d="M2263.62,44.2,1857.56,73.28a5.9,5.9,0,0,1-6.31-5.46h0a5.9,5.9,0,0,1,5.46-6.31l406.06-29.09a5.9,5.9,0,0,1,6.3,5.46h0A5.9,5.9,0,0,1,2263.62,44.2Z"/><path class="cls-4" d="M2265.43,69.54,1859.37,98.63a5.9,5.9,0,0,1-6.31-5.46h0a5.9,5.9,0,0,1,5.46-6.31l406.06-29.08a5.9,5.9,0,0,1,6.3,5.46h0A5.9,5.9,0,0,1,2265.43,69.54Z"/><path class="cls-4" d="M2267.3,95.61l-406.06,29.08a5.9,5.9,0,0,1-6.31-5.46h0a5.9,5.9,0,0,1,5.46-6.31l406.06-29.09a5.9,5.9,0,0,1,6.3,5.46h0A5.9,5.9,0,0,1,2267.3,95.61Z"/><path class="cls-4" d="M2269.12,121,1863.06,150a5.9,5.9,0,0,1-6.31-5.46h0a5.9,5.9,0,0,1,5.46-6.3l406.06-29.09a5.9,5.9,0,0,1,6.3,5.46h0A5.9,5.9,0,0,1,2269.12,121Z"/><path class="cls-13" d="M208.68,620.59l-.65-.39,1.39-2.35,1.86-3.15h0l5.11-8.64.39-.66h0L269.13,517l0,0L312.5,409.26l-24.8-14.69-72.37,90.58L155.62,586l-1.4,2.35-.41-.24a6.82,6.82,0,0,0-6.95,11.73l5.3,3.14-230,388.36a25,25,0,0,0,8.76,34.2l1,.62a25,25,0,0,0,34.2-8.76L196.18,629l5.54,3.28a6.82,6.82,0,0,0,7-11.74Z"/><path class="cls-14" d="M-61.12,1042.74l-1-.62a25,25,0,0,1-8.76-34.2L162.5,613.68l44,26.06L-26.92,1034A25,25,0,0,1-61.12,1042.74Z"/><path class="cls-14" d="M275.79,533.9l-53.61-32.18,72.37-90.58,24.8,14.68Z"/><path class="cls-13" d="M106,759.6h0a11,11,0,0,1-3.86-15.06l73.61-124.31,18.91,11.2L121.1,755.74A11,11,0,0,1,106,759.6Z"/><rect class="cls-14" x="185.68" y="508.85" width="62.52" height="126.18" transform="translate(321.68 -30.73) rotate(30.63)"/><path class="cls-14" d="M208.59,648.9l-54.86-32.48a6.82,6.82,0,0,1-2.39-9.34h0a6.82,6.82,0,0,1,9.34-2.39l54.86,32.48a6.82,6.82,0,0,1,2.4,9.34h0A6.82,6.82,0,0,1,208.59,648.9Z"/><rect class="cls-13" x="158.35" y="614.9" width="62.52" height="6.39" transform="translate(341.38 -10.36) rotate(30.63)"/><rect class="cls-13" x="163.85" y="605.61" width="62.52" height="6.39" transform="translate(337.41 -14.46) rotate(30.63)"/><rect class="cls-13" x="169.5" y="596.07" width="62.52" height="6.39" transform="translate(333.34 -18.67) rotate(30.63)"/></g><rect class="cls-3" x="434.49" y="555.6" width="1045.34" height="185.8" rx="20.89" ry="20.89"/><path class="cls-15" d="M500.47,257.21c1.79,1,4.87,1.18,7.8,1.4A17.91,17.91,0,0,0,500.47,257.21Z"/><path class="cls-15" d="M508.33,258.64h-.06Z"/><path class="cls-15" d="M1074.61,214.61l-2.4.11A15.46,15.46,0,0,0,1074.61,214.61Z"/><path class="cls-15" d="M649.92,263.49l.46-1.62c6.94,0,2,1.88,8.42,1.53,2.53-2.27,10.65.33,12.88-.87-.05.18,3.09.28,2.88,1,1-1.24,3.23-.26,5.21-.56.72-.34-.52-.38-1.06-.76l4.54-.41c1.77.41,2.2,1.15.27,1.27,5.93.26,23.12.79,40.43,1.16s34.73.54,41.12.26c-1.64-.95-5.58-.33-7.08-1.81,3.38-.82,5,.31,6.46-.56,1.29,2.21,7.42.54,10,2.77l1-1.25,1.68.76c14.85-1.29,3.39-.63,16.56-.33,7.62-.19,11.24-1.92,15.48-1.28-.63,0-2.31-.78-.34-1.1.34,1.1,5.25-.78,6.22.32,1.93-.14,8.2,0,6.07-1.51,1.06.74,6.65,1,3.33,1.69a22.36,22.36,0,0,0,5.07-.08l-2.42-.41c6.37-.24,9.84.91,14-.45l-2.35-.59c3.81-.11,7-.23,8.49,1.25l-3.91.47a97.34,97.34,0,0,0,15.38-1l-1.88,0c6.7-1.46,41.75-3,47.91-4.84l-2.85-1.13,5.3-1c-.63,0-2.53,3.75-3.06,3.38l40.86-.83c8.77-.16,17.51-.3,24.71-.35s12.88-.08,15.51.07c4.25.57.79,1.81.74,2,5.16-.51,2.21-1.25,6.6-1.22,1.2.19-.23.91-.91,1.08,1.92-.17,3.71.21,3.85-.33-2.41-.38-1.41-1.82-2.45-2.73l5.65,0-.24.9c1.26,0,3.15-2.51,8.7-2.11,9.36.26,19.51-.22,28.92-.22-.14.54-2.1.9-4.08,1.26a17.31,17.31,0,0,1,4.35.19c-2.29-.91,3.94-.72,2.15-1.08,6.85-2.34,15.8-.51,21.85-2.13.5-2,12.26-34.28,12.2-36.63a25.39,25.39,0,0,1,4.33.19c-.5-.54-4.2-.73-6.16-.38l-.31,1.27c-4.51.53-1.08-.73-5.49-.55-.26-1,3.8-1.33,7.37-1.5-3.22-.05-6.45-.74-7.73.42-3-.37.31-1.27-3.35-1.64-2.59.36-6,1.44-9,.89l0-.18c-7.27-.92-11.06,1.79-17.71.87l.71-.36c-2.35-.55-6.95.35-11.18-.2,1.21.18,2.27.91-.27,1.08-4.87-.57-8.17.13-11.74-.62l-3.39,1.06c-8.46,0-29.38.71-50.33,1.28s-41.9,1.23-50.4,1.34l.66-.17c-13,.32-32.72.61-52.6.89s-39.87.69-53.26,1.35c-4.14-1-9.85-.77-14.17-1,2.4.42,1.58,1.12-.3,1.08-13.17-.12-.89.69-14.21,1.11-7.67.48-26.17.35-44.46,0s-36.36-.95-43.16-1.41c-7.32,1.43-16.44.22-23.61,1.09l.72-.34c-7.7.51-51.23-1.31-60.18-.91l1.2.23c-7.81.81-6.73-.79-12.86-1.37.79,1.66-5.91,2.5-8.46,2.59l.1-.36c-3.85.23-12.57,1.53-18.92,1.65l.26-.9c-5.31.88-15.25.33-19.05.36-8.69-.52-22.07-2.32-33.71-1.36l-7.45-2.72-1.1.23a79.72,79.72,0,0,0-4.48,16.23c-1.31,8.54-.7,18,6.95,21.43l-.26.89,3.05-.05c3.65.52,5.36-.49,5.1.4l-5-.21c3.67.34,1.09.76-.32,1.24a27.69,27.69,0,0,1,4.24.56c.73-.33-.52-.38-1.09-.59,2-.28,4.75-1.07,7.15-.61,3.76.16.21,1.46,4.6,1.64,23.13,1.11,45.53,2.53,68.92,2.62.53.38-.11.36-.78.52,7.05-.3,13.31-.06,19.73-.4a5.85,5.85,0,0,1,2.78,1.36c-.52-.38,8.33-.48,17.4-.47l12.6.09C647.39,263.38,649.77,263.44,649.92,263.49Z"/><text class="cls-16" transform="translate(540.66 250.13)">INFOR<tspan class="cls-17" x="86.6" y="0">M</tspan><tspan class="cls-18" x="112.3" y="0">A</tspan><tspan x="130.02" y="0">TIONS </tspan><tspan class="cls-19" x="223.31" y="0">C</tspan><tspan x="241.76" y="0">OMPLÉMEN</tspan><tspan class="cls-20" x="403.91" y="0">T</tspan><tspan x="418.14" y="0">AIRES :</tspan></text><circle class="cls-21" cx="496.23" cy="237.56" r="26.98"/><text class="cls-22" transform="translate(484.96 253.36)">4</text><path class="cls-23" d="M496.23,210.59H496v53.94h.21a27,27,0,1,0,0-54Z"/><text class="cls-24" transform="translate(534.35 599.83)">Si, en <tspan class="cls-25" x="74.43" y="0">v</tspan><tspan x="88.55" y="0">é</tspan><tspan class="cls-26" x="103.49" y="0">r</tspan><tspan x="113.74" y="0">itable p</tspan><tspan class="cls-25" x="209.17" y="0">r</tspan><tspan class="cls-27" x="219.03" y="0">o</tspan><tspan class="cls-28" x="235.3" y="0">f</tspan><tspan x="244.12" y="0">essionnel de la </tspan><tspan class="cls-29" x="437.01" y="0">c</tspan><tspan x="450.33" y="0">ondui</tspan><tspan class="cls-29" x="523.62" y="0">t</tspan><tspan class="cls-30" x="533.71" y="0">e</tspan><tspan x="548.32" y="0">, </tspan><tspan class="cls-25" x="562.11" y="0">v</tspan><tspan x="576.23" y="0">ous souhai</tspan><tspan class="cls-29" x="710.91" y="0">t</tspan><tspan class="cls-27" x="720.99" y="0">ez assu</tspan><tspan class="cls-25" x="810.67" y="0">r</tspan><tspan x="820.54" y="0">er</tspan><tspan x="-29.55" y="37.79">le t</tspan><tspan class="cls-31" x="10.23" y="37.79">r</tspan><tspan x="20.24" y="37.79">anspo</tspan><tspan class="cls-32" x="96.24" y="37.79">r</tspan><tspan class="cls-27" x="107.04" y="37.79">t de ma</tspan><tspan class="cls-25" x="201.42" y="37.79">r</tspan><tspan x="211.28" y="37.79">chandises dans des </tspan><tspan class="cls-29" x="459.51" y="37.79">c</tspan><tspan x="472.83" y="37.79">onditions de sécu</tspan><tspan class="cls-33" x="694.73" y="37.79">r</tspan><tspan x="704.98" y="37.79">i</tspan><tspan class="cls-34" x="712.55" y="37.79">t</tspan><tspan x="722.64" y="37.79">é optimale</tspan><tspan class="cls-35" x="856.6" y="37.79">s</tspan><tspan x="868.35" y="37.79">,</tspan><tspan class="cls-36"><tspan x="94.19" y="75.58">en</tspan><tspan class="cls-25" x="124.03" y="75.58">vo</tspan><tspan class="cls-37" x="151.77" y="75.58">y</tspan><tspan x="164.59" y="75.58">ez </tspan><tspan class="cls-38" x="201.66" y="75.58">v</tspan><tspan class="cls-27" x="214.76" y="75.58">ot</tspan><tspan class="cls-39" x="238.46" y="75.58">r</tspan><tspan x="248.35" y="75.58">e CV et lett</tspan><tspan class="cls-39" x="389.06" y="75.58">r</tspan><tspan x="398.95" y="75.58">e de moti</tspan><tspan class="cls-25" x="516.37" y="75.58">v</tspan><tspan x="529.47" y="75.58">ation à l’ad</tspan><tspan class="cls-39" x="670.15" y="75.58">r</tspan><tspan x="680.04" y="75.58">esse </tspan><tspan class="cls-40" x="745.41" y="75.58">:</tspan></tspan><tspan class="cls-41"><tspan x="201.75" y="113.36">J</tspan><tspan class="cls-42" x="216.53" y="113.36">eVpa</tspan><tspan class="cls-43" x="277.75" y="113.36">r</tspan><tspan class="cls-25" x="288.19" y="113.36">t</tspan><tspan class="cls-42" x="296.7" y="113.36">oo </tspan><tspan class="cls-44" x="335.33" y="113.36">F</tspan><tspan class="cls-39" x="348.56" y="113.36">r</tspan><tspan class="cls-42" x="358.45" y="113.36">ance - Rou</tspan><tspan class="cls-38" x="490.76" y="113.36">t</tspan><tspan class="cls-27" x="499.27" y="113.36">e du monde</tspan></tspan></text><g class="cls-45"><path class="cls-13" d="M208.68,620.59l-.65-.39,1.39-2.35,1.86-3.15h0l5.11-8.64.39-.66h0L269.13,517l0,0L312.5,409.26l-24.8-14.69-72.37,90.58L155.62,586l-1.4,2.35-.41-.24a6.82,6.82,0,0,0-6.95,11.73l5.3,3.14-230,388.36a25,25,0,0,0,8.76,34.2l1,.62a25,25,0,0,0,34.2-8.76L196.18,629l5.54,3.28a6.82,6.82,0,0,0,7-11.74Z"/><path class="cls-14" d="M-61.12,1042.74l-1-.62a25,25,0,0,1-8.76-34.2L162.5,613.68l44,26.06L-26.92,1034A25,25,0,0,1-61.12,1042.74Z"/><path class="cls-14" d="M275.79,533.9l-53.61-32.18,72.37-90.58,24.8,14.68Z"/><path class="cls-13" d="M106,759.6h0a11,11,0,0,1-3.86-15.06l73.61-124.31,18.91,11.2L121.1,755.74A11,11,0,0,1,106,759.6Z"/><rect class="cls-14" x="185.68" y="508.85" width="62.52" height="126.18" transform="translate(321.68 -30.73) rotate(30.63)"/><path class="cls-14" d="M208.59,648.9l-54.86-32.48a6.82,6.82,0,0,1-2.39-9.34h0a6.82,6.82,0,0,1,9.34-2.39l54.86,32.48a6.82,6.82,0,0,1,2.4,9.34h0A6.82,6.82,0,0,1,208.59,648.9Z"/><rect class="cls-13" x="158.35" y="614.9" width="62.52" height="6.39" transform="translate(341.38 -10.36) rotate(30.63)"/><rect class="cls-13" x="163.85" y="605.61" width="62.52" height="6.39" transform="translate(337.41 -14.46) rotate(30.63)"/><rect class="cls-13" x="169.5" y="596.07" width="62.52" height="6.39" transform="translate(333.34 -18.67) rotate(30.63)"/></g></g><g id="contenu_animé" data-name="contenu animé"><g class="cls-46"><g class="cls-47"><polygon class="cls-48" points="1135.88 559.84 1136.31 555.36 1108.36 555.38 1135.88 559.84"/><polygon class="cls-48" points="2239.94 1068.83 963.13 2370.38 2424.77 1296.67 2239.94 1068.83"/><polygon class="cls-48" points="1665.17 721.65 963.13 2370.38 1833.18 817.66 1665.17 721.65"/><polygon class="cls-48" points="1540.16 640.84 963.13 2370.38 1639.25 686.94 1540.16 640.84"/><polygon class="cls-48" points="786.81 555.66 963.13 2370.38 1080.48 555.41 786.81 555.66"/><polygon class="cls-48" points="-365.93 1132.88 963.13 2370.38 -315.94 1071.04 -365.93 1132.88"/><polygon class="cls-48" points="88.2 779.66 963.13 2370.38 383.1 641.84 88.2 779.66"/><polygon class="cls-48" points="9.13 816.61 963.13 2370.38 62.86 791.5 9.13 816.61"/></g></g><g class="cls-49"><g class="cls-50"><polygon class="cls-48" points="196.26 1065.19 -1080.56 2366.73 381.08 1293.03 196.26 1065.19"/></g></g></g><g id="vignette_etape_jeu1" data-name="vignette etape jeu1"><polygon class="cls-51" points="206.5 206.75 134.96 179.41 63.41 206.75 63.41 -0.72 206.5 -0.72 206.5 206.75"/><polygon class="cls-52" points="215.11 196.46 143.57 169.13 72.03 196.46 72.03 0 215.11 0 215.11 196.46"/><text class="cls-53" transform="translate(101.36 117.64)">3/3</text></g><g id="boutons"><path class="cls-3" d="M995.44,824.38A56.57,56.57,0,0,0,986,806.67c.31-.2.62-.39.91-.6a4.55,4.55,0,0,0,2-3.72c.05-1.41,0-2.83,0-4.25a27.81,27.81,0,0,1,.17-5.56c.27-1.46.59-2.92,1-4.35a9.3,9.3,0,0,0-.1-5.35c-.52-1.71-1.08-3.41-1.59-5.12a3.33,3.33,0,0,1-.13-1.19,1.5,1.5,0,0,1,1.2-1.39,5.17,5.17,0,0,1,5.75,2,14.35,14.35,0,0,1,2.25,5.33,48.76,48.76,0,0,1,.89,6.07,7.24,7.24,0,0,0,.42,1.69,1.12,1.12,0,0,0,1.59.69,10.78,10.78,0,0,0,1.17-.6c2.92-1.59,5.84-3.19,8.77-4.76a6.61,6.61,0,0,1,1.88-.73,3.37,3.37,0,0,1,3.54,1.58,4.16,4.16,0,0,1,.45,4.24c-.34.77,0,1.26.83,1.27a3.66,3.66,0,0,1,3.41,4.69,3.32,3.32,0,0,1-.41.75.83.83,0,0,0,.54,1.4,3.61,3.61,0,0,1,2.72,4.31,2.7,2.7,0,0,1-1.45,1.73,1.18,1.18,0,0,0,0,2.1,3.2,3.2,0,0,1,0,5.5c-2.23,1.39-4.53,2.69-6.85,3.93a113.14,113.14,0,0,1-12.43,5.56,11.43,11.43,0,0,1-2,.55,14,14,0,0,0-4.65,1.77Z"/><path class="cls-3" d="M989.68,815.18a69.49,69.49,0,0,1,3.7,8.8l.79,2.26a1.33,1.33,0,0,1-.68,1.8c-1.41.78-2.8,1.58-4.21,2.36a.73.73,0,0,0-.43.78c.05,1,0,2.09.07,3.14a1.37,1.37,0,0,1-.91,1.42l-9.75,4.3a1.29,1.29,0,0,1-1.68-.51c-1.19-1.84-85.87,36.52-87.07,34.69l-4.2-6.4-4.65-7.08c-.77-1.17-1.54-2.33-2.29-3.5a1.3,1.3,0,0,1,.7-2.13c2.35-1,88.17-42.19,90.52-43.19l7.17-3,5.36-2.28a1.23,1.23,0,0,1,1.45.27,29.22,29.22,0,0,1,4.19,5.14C988.42,813,989,814.12,989.68,815.18ZM988,828.07l3.42-1.83-.87-2.44a50.41,50.41,0,0,0-4.68-9.94,29.57,29.57,0,0,0-3.35-4.36.37.37,0,0,0-.52-.1c-.43.21-.87.38-1.31.57l-1.73.77A74,74,0,0,1,988,828.07Z"/><rect class="cls-21" x="773.28" y="835.36" width="372.28" height="75.61" rx="37.8" ry="37.8"/><text class="cls-54" transform="translate(822.89 889.99)"><tspan class="cls-55">V</tspan><tspan x="17.97" y="0">ALIDEZ </tspan><tspan class="cls-56" x="122.64" y="0">L</tspan><tspan x="134.68" y="0">’ANNONCE</tspan></text><polyline class="cls-21" points="964.31 106.15 859.87 169.13 1068.75 169.13 964.31 106.15"/></g></g></svg>