<svg xmlns="http://www.w3.org/2000/svg" xmlns:xlink="http://www.w3.org/1999/xlink" viewBox="0 0 1920 1080"><defs><style>.cls-1{fill:none;}.cls-2{isolation:isolate;}.cls-3{clip-path:url(#clip-path);}.cls-4{fill:#e3e3e3;}.cls-4,.cls-8{mix-blend-mode:multiply;}.cls-5{fill:#e17064;}.cls-6{fill:#d16355;}.cls-7{clip-path:url(#clip-path-2);}.cls-8{fill:#d8d8d8;}.cls-9{fill:#534639;}.cls-10{fill:#d7d8db;}.cls-11,.cls-12,.cls-21,.cls-26{fill:#fff;}.cls-12{font-size:30.81px;font-family:ITCAvantGardeStd-DemiCn, ITC Avant Garde Gothic Std;letter-spacing:0.04em;}.cls-13{letter-spacing:-0.04em;}.cls-14{letter-spacing:0.02em;}.cls-15{letter-spacing:0.04em;}.cls-16{letter-spacing:-0.02em;}.cls-17{letter-spacing:-0.01em;}.cls-18{letter-spacing:0.04em;}.cls-19{letter-spacing:-0.06em;}.cls-20{fill:#f7c646;}.cls-21{font-size:34.61px;font-family:Gobold, Gobold;letter-spacing:0.04em;}.cls-22{fill:#464647;opacity:0.7;mix-blend-mode:soft-light;}.cls-23{letter-spacing:-0.05em;}.cls-24{letter-spacing:0.02em;}.cls-25{fill:#4e97b4;}.cls-26{font-size:27.92px;font-family:ITCAvantGardeStd-BoldCn, ITC Avant Garde Gothic Std;font-weight:700;}.cls-27{letter-spacing:0.04em;}.cls-28{letter-spacing:0.03em;}.cls-29{letter-spacing:0.03em;}.cls-30{letter-spacing:0.04em;}.cls-31{letter-spacing:0.02em;}.cls-32{letter-spacing:0.04em;}.cls-33{letter-spacing:0.04em;}.cls-34{letter-spacing:-0.06em;}</style><clipPath id="clip-path"><rect class="cls-1" x="1630.59" width="289.41" height="172.41"/></clipPath><clipPath id="clip-path-2"><rect class="cls-1" x="1661.22" y="583.1" width="258.78" height="496.84"/></clipPath></defs><title>Plan de travail 1</title><g class="cls-2"><g id="game1b_bg2"><g class="cls-3"><path class="cls-4" d="M1726.3-253.51l-1.86-2.13a16.59,16.59,0,0,0-23.41-1.59l-26,22.67h0l-26,22.67a16.52,16.52,0,0,0-5.12,8.24,16.5,16.5,0,0,0-.52,3.14,16.54,16.54,0,0,0,4.06,12h0l1.86,2.13a12.39,12.39,0,0,0-1.67,3.61,12.53,12.53,0,0,0,1.2,9.38,12.7,12.7,0,0,0,1.47,2.07l2.23,2.56c-.18.06-.38,0-.54.18l-4.34,3.79-6.22-7.12a6.24,6.24,0,0,0-8.8-.59,6.24,6.24,0,0,0-.59,8.8l69.41,79.48h0a6.24,6.24,0,0,0,6.65,1.82,6.2,6.2,0,0,0,2.15-1.23,6.22,6.22,0,0,0,1.51-2,6.25,6.25,0,0,0-.91-6.84h0l-41.64-47.68,4.34-3.79c.16-.13.16-.34.25-.51l57.23,65.54h0a9.61,9.61,0,0,0,13.19,1.2L1885.93,84.53h0l9-7.89,4.44,5.08a7.72,7.72,0,0,0,10.89.74l47.21-41.23a7.71,7.71,0,0,0,.73-10.89l-4.43-5.08,9-7.89L1821.24-144.8a9.61,9.61,0,0,0,.59-13.23l-80.74-92.45A12.48,12.48,0,0,0,1726.3-253.51Z"/><path class="cls-5" d="M1756.15-299.2h100a1.08,1.08,0,0,1,1.08,1.08v378a0,0,0,0,1,0,0H1755.07a0,0,0,0,1,0,0v-378a1.08,1.08,0,0,1,1.08-1.08Z" transform="translate(517.88 1160.97) rotate(-41.13)"/><path class="cls-6" d="M1896.49,31.28h78.12a0,0,0,0,1,0,0v14a.5.5,0,0,1-.5.5H1897a.5.5,0,0,1-.5-.5v-14A0,0,0,0,1,1896.49,31.28Z" transform="translate(452.35 1282.68) rotate(-41.13)"/></g><g class="cls-7"><path class="cls-8" d="M2704.22,542.72,2588.37,551l-.62-8.63-20.28,1.45-.83-11.59-43.45,3.11,1.45,20.21L2248,575.4l-62.28,4.46-456.19,32.68c-21.6,1.55-37.82,20.91-36.22,43.24L1747,1405.21c1.6,22.33,20.41,39.18,42,37.64l365.68-26.19,5.21,72.74,43.45-3.11-5.21-72.74,47.07-3.37,62.28-4.46L2763.7,1373c21.6-1.55,37.82-20.9,36.22-43.24l-53.68-749.44C2744.63,558,2725.82,541.17,2704.22,542.72Z"/><path class="cls-9" d="M1733,672.53,1786.72,1422c1.6,22.33,20.41,39.18,42,37.63l974.67-69.81c21.6-1.55,37.81-20.91,36.22-43.24l-53.68-749.44c-1.6-22.33-20.41-39.18-42-37.64l-974.67,69.81C1747.65,630.83,1731.44,650.19,1733,672.53Z"/><path class="cls-10" d="M1793.75,709.5l47.79,667.21c1.42,19.88,18.17,34.88,37.4,33.51l867.73-62.15c19.23-1.38,33.67-18.61,32.24-38.5l-47.79-667.21c-1.42-19.88-18.17-34.88-37.4-33.51L1826,671C1806.76,672.38,1792.32,689.62,1793.75,709.5Z"/><path class="cls-8" d="M2239.34,784.08l-406.06,29.09a5.9,5.9,0,0,1-6.31-5.46h0a5.9,5.9,0,0,1,5.46-6.3l406.06-29.09a5.9,5.9,0,0,1,6.3,5.46h0A5.9,5.9,0,0,1,2239.34,784.08Z"/><path class="cls-8" d="M2241.15,809.42l-406.06,29.09a5.9,5.9,0,0,1-6.31-5.46h0a5.9,5.9,0,0,1,5.46-6.3l406.06-29.09a5.9,5.9,0,0,1,6.3,5.46h0A5.9,5.9,0,0,1,2241.15,809.42Z"/><path class="cls-8" d="M2243,835.49,1837,864.57a5.9,5.9,0,0,1-6.31-5.46h0a5.9,5.9,0,0,1,5.46-6.31l406.06-29.09a5.9,5.9,0,0,1,6.3,5.46h0A5.9,5.9,0,0,1,2243,835.49Z"/><path class="cls-8" d="M2244.83,860.84l-406.06,29.09a5.9,5.9,0,0,1-6.31-5.46h0a5.9,5.9,0,0,1,5.46-6.3L2244,849.07a5.9,5.9,0,0,1,6.3,5.46h0A5.9,5.9,0,0,1,2244.83,860.84Z"/><path class="cls-8" d="M2246.53,884.55l-406.06,29.09a5.9,5.9,0,0,1-6.3-5.46h0a5.89,5.89,0,0,1,5.46-6.3l406.06-29.09a5.9,5.9,0,0,1,6.31,5.46h0A5.9,5.9,0,0,1,2246.53,884.55Z"/><path class="cls-8" d="M2248.35,909.89,1842.29,939a5.9,5.9,0,0,1-6.3-5.46h0a5.9,5.9,0,0,1,5.46-6.3l406.06-29.09a5.9,5.9,0,0,1,6.31,5.46h0A5.9,5.9,0,0,1,2248.35,909.89Z"/><path class="cls-8" d="M2250.22,936,1844.16,965a5.9,5.9,0,0,1-6.3-5.46h0a5.9,5.9,0,0,1,5.46-6.31l406.06-29.09a5.9,5.9,0,0,1,6.31,5.46h0A5.9,5.9,0,0,1,2250.22,936Z"/><path class="cls-8" d="M2252,961.31,1846,990.39a5.9,5.9,0,0,1-6.3-5.46h0a5.89,5.89,0,0,1,5.46-6.3l406.06-29.09a5.9,5.9,0,0,1,6.31,5.46h0A5.9,5.9,0,0,1,2252,961.31Z"/><path class="cls-8" d="M2256.42,1022.61l-406.06,29.09a5.9,5.9,0,0,1-6.3-5.46h0a5.9,5.9,0,0,1,5.46-6.31l406.06-29.09a5.9,5.9,0,0,1,6.3,5.46h0A5.9,5.9,0,0,1,2256.42,1022.61Z"/><path class="cls-8" d="M2258.24,1048,1852.18,1077a5.9,5.9,0,0,1-6.3-5.46h0a5.9,5.9,0,0,1,5.46-6.31l406.06-29.09a5.9,5.9,0,0,1,6.3,5.46h0A5.9,5.9,0,0,1,2258.24,1048Z"/><path class="cls-8" d="M2260.1,1074,1854,1103.11a5.9,5.9,0,0,1-6.3-5.46h0a5.9,5.9,0,0,1,5.46-6.3l406.06-29.09a5.9,5.9,0,0,1,6.31,5.46h0A5.9,5.9,0,0,1,2260.1,1074Z"/></g><rect class="cls-8" x="280.36" width="1300.08" height="1080"/><rect class="cls-11" x="304.87" width="1300.08" height="1080"/><path class="cls-5" d="M487.61,272.42c.84,1,2.29,1.16,3.68,1.38A4.81,4.81,0,0,0,487.61,272.42Z"/><path class="cls-5" d="M491.31,273.83h0Z"/><path class="cls-5" d="M757.94,230.51l-1.12.11A3.47,3.47,0,0,0,757.94,230.51Z"/><path class="cls-5" d="M558.34,278.65l.24-1.59c3.28,0,.92,1.85,4,1.51,1.23-2.24,5,.33,6.11-.85,0,.18,1.46.28,1.35,1,.48-1.22,1.53-.26,2.48-.55.35-.34-.24-.37-.49-.75l2.15-.4c.83.41,1,1.13.11,1.25,2.8.26,10.94.78,19.14,1.15s16.45.54,19.48.25c-.77-.93-2.64-.32-3.35-1.78,1.6-.81,2.35.3,3.06-.55.6,2.18,3.51.53,4.72,2.73l.46-1.23.79.75c7-1.27,1.61-.62,7.85-.33,3.61-.19,5.32-1.89,7.33-1.26-.3,0-1.09-.77-.16-1.08.16,1.08,2.49-.77,2.94.32.92-.14,3.88,0,2.87-1.49.51.73,3.15,1,1.58,1.67a5.16,5.16,0,0,0,2.4-.08l-1.15-.4c3-.23,4.66.9,6.62-.45l-1.12-.58c1.8-.1,3.31-.22,4,1.23l-1.85.46a22.69,22.69,0,0,0,7.28-1l-.89,0c3.16-1.44,19.75-2.92,22.64-4.77l-1.36-1.11,2.5-1c-.3,0-1.15,3.69-1.41,3.33l19.34-.82c4.15-.16,8.29-.3,11.7-.35a66.83,66.83,0,0,1,7.35.07c2,.56.42,1.79.4,2,2.43-.5,1-1.23,3.1-1.2.57.19-.09.89-.4,1.06.91-.16,1.76.2,1.82-.33-1.15-.37-.71-1.79-1.23-2.69l2.68,0-.09.89c.6,0,1.43-2.47,4.07-2.08,4.44.25,9.24-.22,13.7-.23,0,.53-1,.89-1.9,1.24a4.08,4.08,0,0,1,2.07.18c-1.11-.89,1.84-.71,1-1.07,3.17-2.31,7.47-.51,10.29-2.1.19-2,4.58-33.73,4.44-36a5.83,5.83,0,0,1,2,.19c-.25-.53-2-.72-2.9-.37l-.1,1.25c-2.09.53-.53-.72-2.59-.54-.16-1,1.73-1.31,3.4-1.48-1.51-.05-3-.73-3.6.41-1.43-.36.1-1.25-1.62-1.61-1.2.35-2.75,1.41-4.17.87l0-.18c-3.43-.9-5.12,1.76-8.25.86l.32-.35c-1.12-.54-3.24.34-5.24-.2.57.18,1.09.89-.09,1.07-2.29-.56-3.82.13-5.51-.61l-1.56,1c-4,0-13.73.7-23.53,1.27S684,234.41,680,234.51l.31-.16c-6.07.32-15.33.6-24.64.88s-18.69.68-25,1.33c-1.94-1-4.62-.75-6.65-1,1.13.41.74,1.1-.14,1.06-6.18-.12-.42.68-6.67,1.09-3.6.47-12.29.34-20.87,0s-17.06-.94-20.24-1.39c-3.45,1.41-7.72.22-11.1,1.07l.34-.33c-3.62.5-24-1.3-28.23-.91l.56.22c-3.68.79-3.14-.77-6-1.35.33,1.63-2.83,2.46-4,2.55l.06-.35c-1.81.23-5.94,1.51-8.92,1.62L519,238c-2.51.87-7.17.33-9,.35-4.07-.51-10.29-2.29-15.77-1.35l-3.38-2.68-.52.23a160.94,160.94,0,0,0-2.67,16c-.95,8.41-1,17.68,2.54,21.09l-.16.88,1.46-.05c1.73.51,2.57-.48,2.41.4l-2.38-.21c1.74.33.5.75-.19,1.22a6.78,6.78,0,0,1,2,.55c.36-.33-.24-.38-.5-.58,1-.27,2.29-1.05,3.42-.6,1.78.16.06,1.44,2.14,1.62,10.95,1.11,21.54,2.5,32.62,2.6.24.37-.06.35-.38.51,3.35-.29,6.31-.06,9.36-.39a2.89,2.89,0,0,1,1.29,1.34c-.24-.37,4-.47,8.25-.46,2.15,0,4.32.05,6,.09A25.47,25.47,0,0,1,558.34,278.65Z"/><text class="cls-12" transform="translate(511.89 267.09)">SI<tspan class="cls-13" x="26.62" y="0"> </tspan><tspan class="cls-14" x="33.58" y="0">V</tspan><tspan class="cls-15" x="50.74" y="0">OUS</tspan><tspan class="cls-16" x="107.83" y="0"> </tspan><tspan class="cls-17" x="115.41" y="0">A</tspan><tspan class="cls-18" x="131.68" y="0">VEZ </tspan><tspan class="cls-19" x="191.6" y="0">:</tspan></text><circle class="cls-20" cx="468.82" cy="253.09" r="26.98"/><text class="cls-21" transform="translate(459.55 268.88)">2</text><path class="cls-22" d="M468.82,226.12h-.21v53.94h.21a27,27,0,1,0,0-54Z"/><path class="cls-5" d="M472.62,555c1.61,1,4.4,1.16,7,1.38A15,15,0,0,0,472.62,555Z"/><path class="cls-5" d="M479.72,556.44h-.05Z"/><path class="cls-5" d="M991.34,513.08l-2.16.11A12.86,12.86,0,0,0,991.34,513.08Z"/><path class="cls-5" d="M607.68,561.25l.42-1.59c6.27,0,1.81,1.85,7.61,1.51,2.29-2.24,9.62.33,11.64-.85,0,.18,2.79.28,2.6,1,.88-1.22,2.92-.26,4.71-.55.65-.34-.47-.37-1-.75l4.1-.4c1.6.41,2,1.13.25,1.25,5.36.25,20.89.78,36.53,1.15s31.39.54,37.17.25c-1.48-.93-5-.32-6.4-1.78,3.05-.81,4.49.3,5.84-.55,1.17,2.18,6.71.53,9,2.73l.88-1.23,1.52.75c13.43-1.27,3.07-.62,15-.33,6.89-.19,10.16-1.89,14-1.26-.57,0-2.09-.77-.31-1.08.31,1.08,4.75-.77,5.62.32,1.75-.14,7.41,0,5.49-1.49,1,.73,6,1,3,1.67a18.56,18.56,0,0,0,4.58-.08l-2.19-.4c5.75-.23,8.89.9,12.64-.45l-2.13-.58c3.44-.1,6.32-.22,7.67,1.23l-3.53.46a80.84,80.84,0,0,0,13.9-1l-1.7,0c6.05-1.44,37.73-2.92,43.3-4.77l-2.58-1.11,4.79-1c-.57,0-2.28,3.69-2.76,3.33l36.93-.82c7.92-.16,15.82-.3,22.33-.35s11.64-.08,14,.07c3.84.56.72,1.79.68,2,4.66-.5,2-1.23,6-1.2,1.09.19-.21.89-.82,1.06,1.74-.16,3.35.2,3.48-.33-2.18-.37-1.28-1.79-2.22-2.69l5.1,0-.21.89c1.14,0,2.84-2.47,7.86-2.08,8.46.25,17.63-.22,26.14-.23-.12.53-1.9.89-3.68,1.24a14.4,14.4,0,0,1,3.93.19c-2.07-.89,3.55-.71,1.94-1.07,6.18-2.31,14.28-.51,19.74-2.1.45-2,10.94-33.76,10.87-36.07a21.06,21.06,0,0,1,3.91.19c-.45-.54-3.8-.72-5.56-.37l-.28,1.25c-4.07.53-1-.72-5-.54-.24-1,3.42-1.31,6.65-1.48-2.91-.05-5.82-.73-7,.41-2.74-.36.27-1.25-3-1.61-2.34.35-5.39,1.42-8.1.88l0-.18c-6.57-.9-10,1.77-16,.86l.64-.35c-2.13-.54-6.27.34-10.1-.2,1.09.18,2.05.89-.24,1.07-4.4-.56-7.38.13-10.6-.61l-3.06,1c-7.64,0-26.54.7-45.45,1.27s-37.84,1.22-45.52,1.32l.6-.16c-11.7.32-29.55.6-47.51.88s-36,.68-48.11,1.33c-3.74-1-8.9-.75-12.8-1,2.17.41,1.43,1.1-.27,1.06-11.89-.12-.8.68-12.83,1.09-6.93.47-23.64.34-40.16,0s-32.84-.94-39-1.39c-6.62,1.41-14.85.22-21.33,1.07l.66-.33c-7,.5-46.28-1.3-54.36-.91l1.08.22c-7.05.79-6.07-.77-11.61-1.35.71,1.63-5.34,2.46-7.65,2.55l.09-.35c-3.47.23-11.36,1.51-17.09,1.62l.24-.88c-4.8.87-13.78.33-17.21.35-7.85-.51-19.93-2.29-30.45-1.35l-6.71-2.68-1,.23a84.49,84.49,0,0,0-4.11,16c-1.22,8.41-.71,17.7,6.19,21.1l-.24.88L480,555c3.3.51,4.85-.48,4.6.4l-4.53-.21c3.32.33,1,.75-.29,1.22a23.08,23.08,0,0,1,3.83.55c.66-.33-.47-.38-1-.58,1.79-.27,4.3-1.05,6.46-.6,3.4.16.19,1.44,4.15,1.62,20.91,1.1,41.15,2.5,62.29,2.6.48.37-.1.35-.71.51,6.37-.29,12-.06,17.83-.39a5.14,5.14,0,0,1,2.51,1.34c-.47-.37,7.53-.47,15.72-.46l11.39.09C605.39,561.14,607.55,561.2,607.68,561.25Z"/><text class="cls-12" transform="translate(514.26 549.68)">ET QUE <tspan class="cls-23" x="105.43" y="0">L</tspan><tspan x="117.11" y="0">’ON RETROUVE EN</tspan><tspan class="cls-13" x="360.31" y="0"> </tspan><tspan class="cls-24" x="367.28" y="0">V</tspan><tspan x="384.44" y="0">OUS </tspan><tspan class="cls-19" x="450.89" y="0">:</tspan></text><circle class="cls-20" cx="471.2" cy="535.68" r="26.98"/><text class="cls-21" transform="translate(461.92 551.48)">3</text><path class="cls-22" d="M471.2,508.71H471v53.94h.21a27,27,0,1,0,0-54Z"/><rect class="cls-25" x="494.59" y="817.21" width="920.65" height="58.14" rx="15.88" ry="15.88"/><text class="cls-26" transform="translate(535.23 852.86)">V<tspan class="cls-27" x="15.52" y="0">ous ê</tspan><tspan class="cls-28" x="83.14" y="0">t</tspan><tspan class="cls-27" x="91.73" y="0">es peut êt</tspan><tspan class="cls-29" x="216.13" y="0">r</tspan><tspan class="cls-27" x="226.13" y="0">e la pe</tspan><tspan class="cls-30" x="313.06" y="0">r</tspan><tspan class="cls-27" x="323.33" y="0">sonne qui viend</tspan><tspan class="cls-31" x="521.54" y="0">r</tspan><tspan class="cls-27" x="531.53" y="0">a </tspan><tspan class="cls-29" x="555.49" y="0">r</tspan><tspan class="cls-27" x="565.48" y="0">en</tspan><tspan class="cls-32" x="595.63" y="0">f</tspan><tspan class="cls-33" x="604.37" y="0">o</tspan><tspan class="cls-29" x="619.44" y="0">r</tspan><tspan class="cls-27" x="629.44" y="0">cer not</tspan><tspan class="cls-29" x="716.34" y="0">r</tspan><tspan class="cls-27" x="726.34" y="0">e équip</tspan><tspan class="cls-28" x="819.47" y="0">e</tspan><tspan class="cls-34" x="834.26" y="0">.</tspan></text></g></g></svg>