<svg id="titre" xmlns="http://www.w3.org/2000/svg" viewBox="0 0 1920 1080"><defs><style>.cls-1{fill:#fff;}.cls-2{fill:#4e96b3;}</style></defs><title>screen1_sstitre</title><path class="cls-1" d="M647.68,347.59h618.11a0,0,0,0,1,0,0v79a29.21,29.21,0,0,1-29.21,29.21H676.89a29.21,29.21,0,0,1-29.21-29.21v-79A0,0,0,0,1,647.68,347.59Z"/><path class="cls-2" d="M691.85,369.39h8.88q6.59,0,6.59,8.54a30.23,30.23,0,0,1-.37,4.43l-1.34,9.27q-1.21,8.14-6.38,10.71L701.92,431h-6.68l-1.55-27.11-.8.16L689,431h-6.1Zm4.83,8.76L694.1,395.8h1.4a4.47,4.47,0,0,0,1.79-.25q1.81-1,2.24-3.93l1.34-9.27a9.4,9.4,0,0,0,.13-1.45q0-2.76-2.16-2.76Z"/><path class="cls-2" d="M716.12,369.39h15.82l-1.27,8.76h-9.72l-2.59,17.65h8.36l-1.27,8.8h-8.36l-2.59,17.65h9.72L722.95,431H707.13Zm7-2.39h-3.38l4.2-7.95h4.78Z"/><path class="cls-2" d="M748.29,419q-1.9,12.94-10.67,13-7.2,0-7.2-8.76a28.92,28.92,0,0,1,.34-4.21L738,369.39h6.1L736.87,419a10.43,10.43,0,0,0-.11,1.41q0,2.76,2.15,2.76,2.67,0,3.28-4.18l7.24-49.66h6.1Z"/><path class="cls-2" d="M760.5,381.35q1.9-12.94,10.64-12.94,7.22,0,7.22,8.76a28.28,28.28,0,0,1-.34,4.18l-1.21,8.29h-6.1l1.21-8.29A9.84,9.84,0,0,0,772,380q0-2.76-2.15-2.8h0q-2.63,0-3.23,4.18l-.82,5.59a6.51,6.51,0,0,0-.06.94q0,3.83,4.31,9.14a16.91,16.91,0,0,1,3.88,11,22.78,22.78,0,0,1-.24,3.2L772.53,419q-1.9,13-10.65,13-7.22,0-7.22-8.8A28.29,28.29,0,0,1,755,419l1.21-8.29h6.1L761.11,419a10,10,0,0,0-.11,1.41q0,2.76,2.18,2.76,2.65,0,3.25-4.18l1-7a6.73,6.73,0,0,0,.09-1.07q0-4.08-4.29-9.36a16.93,16.93,0,0,1-3.86-11.06,23.34,23.34,0,0,1,.26-3.39Z"/><path class="cls-2" d="M784.53,381.35q1.9-12.94,10.64-12.94,7.22,0,7.22,8.76a28.28,28.28,0,0,1-.34,4.18l-1.21,8.29h-6.1l1.21-8.29a9.84,9.84,0,0,0,.11-1.38q0-2.76-2.15-2.8h0q-2.63,0-3.23,4.18l-.82,5.59a6.51,6.51,0,0,0-.06.94q0,3.83,4.31,9.14a16.91,16.91,0,0,1,3.88,11,22.78,22.78,0,0,1-.24,3.2L796.55,419q-1.9,13-10.65,13-7.22,0-7.22-8.8A28.29,28.29,0,0,1,779,419l1.21-8.29h6.1L785.13,419a10,10,0,0,0-.11,1.41q0,2.76,2.18,2.76,2.65,0,3.25-4.18l1-7a6.73,6.73,0,0,0,.09-1.07q0-4.08-4.29-9.36a16.93,16.93,0,0,1-3.86-11.06,23.34,23.34,0,0,1,.26-3.39Z"/><path class="cls-2" d="M810.84,369.39h6.1l-9,61.63h-6.1Z"/><path class="cls-2" d="M824.41,369.39h8.88q6.59,0,6.59,8.54a30.23,30.23,0,0,1-.37,4.43l-1.34,9.27q-1.21,8.14-6.38,10.71L834.47,431h-6.68l-1.55-27.11-.8.16-3.92,27h-6.1Zm4.83,8.76-2.59,17.65h1.4a4.47,4.47,0,0,0,1.79-.25q1.81-1,2.24-3.93l1.34-9.27a9.4,9.4,0,0,0,.13-1.45q0-2.76-2.16-2.76Z"/><path class="cls-2" d="M865.11,431h-8.36l1.51-39.83,1.19-21.8h6.16L863,416.88l11.23-47.5h6.16l-5.17,21.86Z"/><path class="cls-2" d="M895.64,419Q893.75,432,885,432q-7.2,0-7.2-8.76a28.92,28.92,0,0,1,.34-4.21l5.5-37.7q1.9-12.94,10.64-12.94,7.22,0,7.22,8.76a28.28,28.28,0,0,1-.34,4.18Zm-.6-37.7a9.84,9.84,0,0,0,.11-1.38q0-2.76-2.15-2.8h0q-2.63,0-3.23,4.18l-5.5,37.7a10.51,10.51,0,0,0-.11,1.41q0,2.76,2.15,2.76,2.67,0,3.28-4.18Z"/><path class="cls-2" d="M907.65,381.35q1.9-12.94,10.64-12.94,7.22,0,7.22,8.76a28.28,28.28,0,0,1-.34,4.18L924,389.65h-6.1l1.21-8.29a9.84,9.84,0,0,0,.11-1.38q0-2.76-2.15-2.8h0q-2.63,0-3.23,4.18l-.82,5.59a6.51,6.51,0,0,0-.06.94q0,3.83,4.31,9.14a16.91,16.91,0,0,1,3.88,11,22.78,22.78,0,0,1-.24,3.2L919.67,419q-1.9,13-10.65,13-7.22,0-7.22-8.8a28.29,28.29,0,0,1,.34-4.18l1.21-8.29h6.1L908.25,419a10,10,0,0,0-.11,1.41q0,2.76,2.18,2.76,2.65,0,3.25-4.18l1-7a6.73,6.73,0,0,0,.09-1.07q0-4.08-4.29-9.36a16.93,16.93,0,0,1-3.86-11.06,23.34,23.34,0,0,1,.26-3.39Z"/><path class="cls-2" d="M946.56,369.39h8.88q6.59,0,6.59,8.54a30.23,30.23,0,0,1-.37,4.43l-1.34,9.27q-1.21,8.14-6.38,10.71L956.62,431h-6.68l-1.55-27.11-.8.16-3.92,27h-6.1Zm4.83,8.76L948.8,395.8h1.4a4.47,4.47,0,0,0,1.79-.25q1.81-1,2.24-3.93l1.34-9.27a9.4,9.4,0,0,0,.13-1.45q0-2.76-2.16-2.76Z"/><path class="cls-2" d="M970.82,369.39h15.82l-1.27,8.76h-9.72l-2.59,17.65h8.36l-1.27,8.8h-8.36l-2.59,17.65h9.72L977.65,431H961.84Z"/><path class="cls-2" d="M1002.78,419q-1.9,12.94-10.67,13-7.2,0-7.2-8.76a28.92,28.92,0,0,1,.34-4.21l5.5-37.7q1.9-12.94,10.64-12.94,7.22,0,7.22,8.76a28.28,28.28,0,0,1-.34,4.18l-1.21,8.29H1001l1.21-8.29a9.84,9.84,0,0,0,.11-1.38q0-2.76-2.15-2.8h0q-2.63,0-3.23,4.18l-5.5,37.7a10.51,10.51,0,0,0-.11,1.41q0,2.76,2.15,2.76,2.67,0,3.28-4.18l1.21-8.29h6.1Z"/><path class="cls-2" d="M1016.74,369.39h8.88q6.59,0,6.59,8.54a30.23,30.23,0,0,1-.37,4.43l-1.34,9.27q-1.21,8.14-6.38,10.71L1026.8,431h-6.68l-1.55-27.11-.8.16-3.92,27h-6.1Zm4.83,8.76L1019,395.8h1.4a4.47,4.47,0,0,0,1.79-.25q1.81-1,2.24-3.93l1.34-9.27a9.4,9.4,0,0,0,.13-1.45q0-2.76-2.16-2.76Z"/><path class="cls-2" d="M1051.06,419q-1.9,12.94-10.67,13-7.2,0-7.2-8.76a28.92,28.92,0,0,1,.34-4.21l7.24-49.66h6.1L1039.64,419a10.43,10.43,0,0,0-.11,1.41q0,2.76,2.15,2.76,2.67,0,3.28-4.18l7.24-49.66h6.1Z"/><path class="cls-2" d="M1081.25,369.39l-1.27,8.76h-5.71L1066.55,431h-6.1l7.71-52.87h-5.71l1.27-8.76Z"/><path class="cls-2" d="M1086.89,369.39h15.82l-1.27,8.76h-9.72l-2.59,17.65h8.36l-1.27,8.8h-8.36l-2.59,17.65H1095l-1.27,8.76h-15.82Z"/><path class="cls-2" d="M1116.11,411.6l13.25-42.22h6.1l-9,61.63h-5.84l5-34.59L1115.42,431h-4.14l-.32-34.59-5,34.59H1100l9-61.63h6.1Z"/><path class="cls-2" d="M1142.83,369.39h15.82l-1.27,8.76h-9.72l-2.59,17.65h8.36l-1.27,8.8h-8.36l-2.59,17.65h9.72l-1.27,8.76h-15.82Z"/><path class="cls-2" d="M1164.94,369.39h6.1l.56,35.75,5.21-35.75h5.65l-9,61.63h-6.1l-.52-34.62-5,34.62H1156Z"/><path class="cls-2" d="M1205.62,369.39l-1.27,8.76h-5.71L1190.92,431h-6.1l7.71-52.87h-5.71l1.27-8.76Z"/><path class="cls-2" d="M1209.09,381.35q1.9-12.94,10.64-12.94,7.22,0,7.22,8.76a28.28,28.28,0,0,1-.34,4.18l-1.21,8.29h-6.1l1.21-8.29a9.84,9.84,0,0,0,.11-1.38q0-2.76-2.15-2.8h0q-2.63,0-3.23,4.18l-.82,5.59a6.51,6.51,0,0,0-.06.94q0,3.83,4.31,9.14a16.91,16.91,0,0,1,3.88,11,22.78,22.78,0,0,1-.24,3.2l-1.14,7.79q-1.9,13-10.65,13-7.22,0-7.22-8.8a28.29,28.29,0,0,1,.34-4.18l1.21-8.29h6.1l-1.21,8.29a10,10,0,0,0-.11,1.41q0,2.76,2.18,2.76,2.65,0,3.25-4.18l1-7a6.73,6.73,0,0,0,.09-1.07q0-4.08-4.29-9.36a16.93,16.93,0,0,1-3.86-11.06,23.34,23.34,0,0,1,.26-3.39Z"/></svg>