<svg id="titre" xmlns="http://www.w3.org/2000/svg" viewBox="0 0 1920 1080"><defs><style>.cls-1{fill:#fff;}</style></defs><title>screen1_titre</title><path class="cls-1" d="M500.57,238v15.33H487.83v80.9h-16v-80.9H459.09V238Z"/><path class="cls-1" d="M513.16,238h21q19.32,0,19.32,20.81V273q0,13.08-10.48,16.92l15.43,44.32H541l-11-41.39h-.87v41.39h-16Zm16,15.33v25.09h1.92a12,12,0,0,0,3.36-.29q3-1.2,3-5.14V258.82q0-5.48-4.71-5.48Z"/><path class="cls-1" d="M610.54,299.72l4.57,34.51H599l-2.64-20H584.54l-2.69,20h-16.1l4.57-34.37L580.07,238h20.76Zm-16.29-.87-3.85-29.13-3.85,29.13Z"/><path class="cls-1" d="M627.22,238H643L653.7,285.4V238h15v96.23H652.88l-10.19-46.1v46.1H627.22Z"/><path class="cls-1" d="M684.17,257.28q0-20.76,20.72-20.76t20.76,20.76v13.65h-16V257.28q0-5.38-4.71-5.43h-.1q-4.66,0-4.66,5.43v8.56q0,5.86,12.31,14.71,13.17,9.37,13.17,22.5V315q0,20.81-20.72,20.81T684.17,315V301.31h16V315q0,5.43,4.76,5.43t4.71-5.43V304.19q0-6.39-12.31-15.24-13.17-9.37-13.17-22.83Z"/><path class="cls-1" d="M741.12,238h21q19.32,0,19.32,20.81V273q0,15.24-13.79,19.76a33,33,0,0,1-9.52,1.06h-1v40.42h-16Zm16,15.33v25.09h1.92a12,12,0,0,0,3.36-.29q3-1.2,3-5.14V258.82q0-5.48-4.71-5.48Z"/><path class="cls-1" d="M836,315q0,20.76-20.76,20.81T794.52,315V257.28q0-20.76,20.72-20.76T836,257.28Zm-16-57.68q0-5.38-4.71-5.43h-.1q-4.66,0-4.66,5.43V315q0,5.43,4.71,5.43T820,315Z"/><path class="cls-1" d="M851.48,238h21q19.32,0,19.32,20.81V273q0,13.08-10.48,16.92l15.43,44.32H879.31l-11-41.39h-.87v41.39h-16Zm16,15.33v25.09h1.92a12,12,0,0,0,3.36-.29q3-1.2,3-5.14V258.82q0-5.48-4.71-5.48Z"/><path class="cls-1" d="M944.92,238v15.33H932.18v80.9h-16v-80.9H903.43V238Z"/><path class="cls-1" d="M956.54,257.28q0-20.76,20.72-20.76T998,257.28v13.65H982V257.28q0-5.38-4.71-5.43h-.1q-4.66,0-4.66,5.43v8.56q0,5.86,12.31,14.71Q998,289.92,998,303V315q0,20.81-20.72,20.81T956.54,315V301.31h16V315q0,5.43,4.76,5.43T982,315V304.19q0-6.39-12.31-15.24-13.17-9.37-13.17-22.83Z"/><path class="cls-1" d="M1041.85,238h21q19.32,0,19.32,20.81V273q0,13.08-10.48,16.92l15.43,44.32h-17.45l-11-41.39h-.87v41.39h-16Zm16,15.33v25.09h1.92a12,12,0,0,0,3.36-.29q3-1.2,3-5.14V258.82q0-5.48-4.71-5.48Z"/><path class="cls-1" d="M1139.28,315q0,20.76-20.76,20.81T1097.8,315V257.28q0-20.76,20.72-20.76t20.76,20.76Zm-16-57.68q0-5.38-4.71-5.43h-.1q-4.66,0-4.66,5.43V315q0,5.43,4.71,5.43t4.76-5.43Z"/><path class="cls-1" d="M1195.75,315q0,20.76-20.76,20.81T1154.27,315V238h16v77q0,5.43,4.71,5.43t4.76-5.43V238h16Z"/><path class="cls-1" d="M1249.34,238v15.33h-12.74v80.9h-16v-80.9h-12.74V238Z"/><path class="cls-1" d="M1262.18,238h16v96.23h-16Z"/><path class="cls-1" d="M1294.86,238h37.68v15.33h-21.68v25.09h18.65v15.38h-18.65V318.9h21.68v15.33h-37.68Z"/><path class="cls-1" d="M1346.57,238h21q19.32,0,19.32,20.81V273q0,13.08-10.48,16.92l15.43,44.32H1374.4l-11-41.39h-.87v41.39h-16Zm16,15.33v25.09h1.92a12,12,0,0,0,3.36-.29q3-1.2,3-5.14V258.82q0-5.48-4.71-5.48Z"/><path class="cls-1" d="M1402.52,257.28q0-20.76,20.72-20.76T1444,257.28v13.65h-16V257.28q0-5.38-4.71-5.43h-.1q-4.66,0-4.66,5.43v8.56q0,5.86,12.31,14.71Q1444,289.92,1444,303V315q0,20.81-20.72,20.81T1402.52,315V301.31h16V315q0,5.43,4.76,5.43T1428,315V304.19q0-6.39-12.31-15.24-13.17-9.37-13.17-22.83Z"/></svg>