<svg xmlns="http://www.w3.org/2000/svg" viewBox="0 0 330.83 89.2"><defs><style>.cls-1{fill:#fff;}.cls-2{fill:#e71d2b;}.cls-3{fill:#1f4381;}.cls-4{fill:#74797a;}.cls-5{fill:#231f20;}</style></defs><title>video4_ui3_bt_rf</title><g id="Calque_2" data-name="Calque 2"><g id="adec"><rect id="rect6" class="cls-1" y="1.03" width="143.32" height="48.46"/><path id="path8" d="M114.44,85.4c-.07,0-.08-.12,0-.31s.12-.26.44-.22.38,0,.51-.16c.23-.34.05-.58-.38-.5s-.33.06-.27-.19c.2-.8.22-.76-.38-.88A3.52,3.52,0,0,1,112.44,82a3.89,3.89,0,0,1-1-3.18,3.48,3.48,0,0,1,.33-1.51c.7-1.54,2.29-2.32,4.44-2.18a10.37,10.37,0,0,1,1.31.17l.46.12,0,.86,0,.87h-.29c-.16,0-.28,0-.28-.12,0-.24-.57-.8-1-1a3.24,3.24,0,0,0-2,.09c-1.16.56-1.69,2-1.33,3.68a3.37,3.37,0,0,0,.94,1.81,2.16,2.16,0,0,0,1.73.71,1.71,1.71,0,0,0,1.67-1c.24-.44.32-.49.54-.35s.11.22,0,.93l-.12.85-.42.14a7,7,0,0,1-1.2.21c-.73,0-.77.06-.77.27s0,.22.21.22a.71.71,0,0,1,.68.55,1.12,1.12,0,0,1-.52,1.08,3.15,3.15,0,0,1-1.46.08ZM59,85a7.34,7.34,0,0,1-2.33-1.21l-.73-.52-1.12-.06a3.66,3.66,0,0,1-2.47-.79c-1.77-1.3-1.83-4.6-.12-6.21a4.66,4.66,0,0,1,5.18-.57c2.2,1.2,2.44,4.73.44,6.59a3.12,3.12,0,0,1-.68.52,15.46,15.46,0,0,0,2.64,1.44,3.31,3.31,0,0,0,2.14.1c.44-.16.52-.14.59.14s0,.24-.48.44A5.34,5.34,0,0,1,59,85Zm-2.73-2.88c1.56-.82,1.86-3.43.58-5.09a2.28,2.28,0,0,0-4,.45c-.7,1.6.1,4.06,1.54,4.72A2.27,2.27,0,0,0,56.27,82.13Zm-49,1c-.43-.18-.9-.76-1.64-2C4.52,79.13,4.31,78.84,4,78.84H3.71v1c0,1.92.2,2.57.8,2.72a.25.25,0,0,1,.23.29v.23H.92v-.22c0-.17.07-.24.29-.3a1.11,1.11,0,0,0,.49-.35c.19-.26.2-.35.2-3.88s0-3.63-.2-3.88a1.11,1.11,0,0,0-.49-.35C1,74.09.92,74,.92,73.86s0-.2,2.36-.27c2.51-.06,3.06,0,3.77.33a2.43,2.43,0,0,1,1.14,2,2.88,2.88,0,0,1-1.56,2.36l-.47.23,1,1.54c1.21,1.81,1.59,2.3,1.94,2.48s.37.55.06.64a5.15,5.15,0,0,1-1.89-.08ZM5,77.9a1.81,1.81,0,0,0,.72-3,1.7,1.7,0,0,0-1.51-.49l-.47.06V78h.45A4.17,4.17,0,0,0,5,77.9Zm21.47,5.2a2.92,2.92,0,0,1-1.25-.85c-.46-.6-.51-.92-.52-3.39s-.05-2.87-.52-3.09c-.2-.09-.31-.21-.31-.33s.06-.18,1.58-.18,1.59,0,1.59.21-.06.21-.17.21a.73.73,0,0,0-.4.24l-.22.24v2.53c0,2.38,0,2.55.19,2.9a1.8,1.8,0,0,0,3.1-.22c.24-.52.24-.54.25-2.81,0-2,0-2.31-.17-2.54a.87.87,0,0,0-.39-.31c-.15,0-.23-.12-.23-.23s.08-.18,1.25-.18,1.26,0,1.26.18-.09.2-.23.23c-.43.11-.46.31-.51,3l0,2.52-.28.55a2.49,2.49,0,0,1-1.56,1.3,5.94,5.94,0,0,1-2.41,0Zm36.34,0a2.88,2.88,0,0,1-1.26-.86c-.44-.58-.5-1-.5-3.43s-.06-2.82-.53-3c-.19-.09-.3-.21-.31-.33s.06-.18,1.59-.18,1.58,0,1.58.2a.21.21,0,0,1-.2.23.81.81,0,0,0-.4.3c-.18.24-.19.4-.22,2.44,0,2.51,0,3,.46,3.47a1.85,1.85,0,0,0,2.82-.39,7.6,7.6,0,0,0,.32-3.32c0-2.09-.1-2.35-.59-2.48-.15,0-.23-.12-.23-.23s.08-.18,1.25-.18,1.26,0,1.26.18-.11.22-.27.29a.74.74,0,0,0-.34.26c0,.09-.1,1.29-.13,2.68l0,2.52-.28.55a2.49,2.49,0,0,1-1.56,1.3,5.94,5.94,0,0,1-2.41,0Zm29.5,0c-.38-.16-.82-.71-1.51-1.87-.88-1.49-1-1.63-1.21-1.63s-.21,0-.21,1.17c0,1.39.11,1.78.55,1.87.22.05.29.11.29.28v.22H87v-.22c0-.17.06-.23.28-.28.53-.1.57-.36.54-3.6l0-2.87-.23-.24a.68.68,0,0,0-.39-.24A.16.16,0,0,1,87,75.5c0-.16.09-.19.68-.24.38,0,1.42-.05,2.31,0,1.45,0,1.66,0,2,.24a1.87,1.87,0,0,1,1,1.76,2.2,2.2,0,0,1-1.23,1.89c-.25.14-.42.29-.36.32s.46.62.91,1.29c.88,1.33,1.37,1.93,1.58,1.93s.16.44,0,.51a3.7,3.7,0,0,1-1.58-.08Zm-1.73-4.38a1.69,1.69,0,0,0,.81-1,1.72,1.72,0,0,0-.48-1.42,1.29,1.29,0,0,0-1.2-.33l-.33,0v2.86h.47a2,2,0,0,0,.73-.13ZM132,83.08a3.75,3.75,0,0,1-.54-.18,7.2,7.2,0,0,1-.15-.93l-.12-.89h.26c.15,0,.27,0,.27.08a2.44,2.44,0,0,0,1,1.13c1,.46,2.11,0,2.11-.8,0-.55-.26-.87-1.16-1.43-1.26-.79-1.75-1.21-2-1.72a2.69,2.69,0,0,1-.1-1.86,2.55,2.55,0,0,1,1.2-1.16,5.56,5.56,0,0,1,2.69,0l.49.17v1.67h-.27c-.21,0-.28,0-.33-.23a1.63,1.63,0,0,0-1-1c-1.12-.3-2,.84-1.31,1.68a9.66,9.66,0,0,0,1.35,1c1.18.8,1.61,1.23,1.76,1.76a2.06,2.06,0,0,1-1.37,2.6,5.81,5.81,0,0,1-2.73,0ZM10,82.88c0-.17,0-.22.22-.22a.59.59,0,0,0,.42-.24c.19-.24.19-.35.19-3.18a19.9,19.9,0,0,0-.1-3.13.72.72,0,0,0-.57-.43c-.11,0-.16-.08-.16-.24v-.23h5.59v2l-.25,0c-.18,0-.27-.11-.35-.35-.18-.55-.49-.7-1.6-.74l-1,0v2.65l.75,0c.82,0,1.23-.25,1.28-.62,0-.15.1-.2.28-.2h.25v2.42h-.25c-.21,0-.26,0-.26-.22,0-.41-.31-.57-1.22-.6l-.83,0v1.31c0,1.58,0,1.6,1.08,1.6s1.59-.26,1.87-.91c.14-.32.46-.41.56-.16a4.7,4.7,0,0,1-.4,1.65l-.14.27-2.7,0-2.69,0v-.21Zm7.17,0c0-.17.06-.23.28-.28.49-.1.51-.23.54-3.23s0-3.39-.51-3.63c-.22-.1-.31-.2-.31-.36v-.22l2.12,0c2.29,0,2.48.08,3.1.6a2.15,2.15,0,0,1,.4,2.57,2.57,2.57,0,0,1-2.21,1.25l-.58.06-.15-.37L19.67,79l.34,0a1.9,1.9,0,0,0,1.17-.68,1.07,1.07,0,0,0,.18-.74A1.43,1.43,0,0,0,20,76l-.5,0,0,3.11c0,3.39.05,3.49.56,3.6.2,0,.26.1.26.27v.22H17.13v-.22Zm15.47,0c0-.15.06-.22.18-.22a.86.86,0,0,0,.39-.17l.22-.18,0-2.89c0-3.23,0-3.48-.54-3.68-.17-.06-.28-.17-.28-.27s.13-.17,1.42-.19c2.72,0,3.29,0,3.73.2a1.46,1.46,0,0,1,.89,1.33,3.55,3.55,0,0,1,0,.77,1.9,1.9,0,0,1-1,1l-.44.21.38.11a2,2,0,0,1,1.35,2.22,2,2,0,0,1-1.31,1.72c-.45.2-.57.21-2.73.21H32.6v-.21Zm4.11-.71a1.38,1.38,0,0,0,.61-1.4,1.65,1.65,0,0,0-1.83-1.55h-.57l0,1.4c0,1.35,0,1.42.25,1.59a1.51,1.51,0,0,0,1.51,0Zm-.39-3.87a1.14,1.14,0,0,0,.82-1.21c-.08-.73-.67-1.13-1.65-1.13h-.56v2.51h.49a3.2,3.2,0,0,0,.9-.17Zm3.83,4.58c0-.15.06-.21.24-.23a.84.84,0,0,0,.45-.29C41,82.1,41,82,41,79.23a12,12,0,0,0-.13-3.09.76.76,0,0,0-.59-.46c-.11,0-.16-.08-.16-.21s0-.21,1.67-.21,1.68,0,1.68.21,0,.21-.18.21a.9.9,0,0,0-.44.22l-.26.23,0,2.93,0,2.94.24.16c.19.12.39.15,1,.11.89,0,1.3-.27,1.55-.82.16-.36.34-.45.58-.29s.08.23-.07.81a4.45,4.45,0,0,1-.33,1l-.14.22-2.61,0-2.6,0Zm6.52,0c0-.17.06-.23.28-.28.52-.1.56-.36.56-3.48,0-2.59,0-2.79-.18-3.08a1,1,0,0,0-.42-.36c-.16,0-.24-.12-.24-.25s0-.2,1.58-.2,1.59,0,1.59.2-.08.21-.23.25a.84.84,0,0,0-.4.31c-.15.23-.16.54-.16,3.1,0,3.16,0,3.42.52,3.51.21.05.27.11.27.28v.22H46.67Zm22.27,0c0-.15.07-.22.28-.26.52-.1.56-.36.56-3.49,0-2.75,0-2.79-.21-3.1a.92.92,0,0,0-.42-.35c-.15,0-.21-.09-.21-.25v-.23h5.5v1c0,1,0,1-.22,1s-.24-.06-.29-.33c-.1-.55-.48-.74-1.6-.78l-.94,0-.06.44c0,.24-.06.84-.06,1.33v.88l.79-.05c.88,0,1.22-.2,1.32-.58a.25.25,0,0,1,.28-.23h.22v2.42h-.23c-.16,0-.24,0-.24-.16,0-.46-.45-.68-1.4-.68h-.76l0,1.32c0,1.59,0,1.57,1.14,1.57s1.5-.23,1.77-.81c.14-.29.24-.4.39-.4a.36.36,0,0,1,.27.1A4.91,4.91,0,0,1,74.37,83c-.11.11-.59.13-2.78.12l-2.65,0v-.21Zm10.25,0c0-.15.09-.25.3-.34a1.72,1.72,0,0,0,.49-.4c.18-.26.19-.37.19-3.78,0-3.94,0-4-.65-4.2-.26-.09-.33-.16-.33-.34v-.22h6.52V76h-.28c-.22,0-.28,0-.28-.21a1.28,1.28,0,0,0-.72-1A5.25,5.25,0,0,0,83,74.58l-1.05,0v3.2h.77c1,0,1.37-.13,1.59-.58.14-.28.22-.35.44-.35h.27V79.6l-.3,0c-.2,0-.31-.09-.35-.21-.14-.55-.71-.8-1.85-.8H82l0,1.66c0,1.89.13,2.16.68,2.36.25.09.33.18.33.34v.21H79.19v-.22Zm14.91,0c0-.17.05-.24.19-.24s.61-.58,1.32-2.35c1-2.37,1.85-4.78,1.85-5s.09-.15.44-.15h.44l1.26,3.23c1.36,3.49,1.61,4,1.93,4.18a.32.32,0,0,1,.21.3c0,.21,0,.21-1.58.21H98.57v-.22c0-.17.07-.23.28-.28.4-.08.43-.35.11-1.27l-.26-.79H96.49l-.22.65c-.28.82-.26,1.38,0,1.43s.21.09.21.25v.23H94.1V82.9Zm4.29-3.27a15.87,15.87,0,0,0-.74-2,1,1,0,0,0-.21.4c-.08.22-.26.68-.39,1l-.24.63h.79A3.07,3.07,0,0,0,98.39,79.63Zm4,3.28c0-.17.07-.23.26-.27.5-.11.53-.24.57-3.29s0-3.4-.54-3.61c-.17-.06-.29-.17-.29-.27s.11-.17,1-.17h1l.61.77c.33.42,1.19,1.46,1.91,2.31s1.4,1.66,1.51,1.82l.22.27,0-2.1c0-2.29-.09-2.53-.59-2.66-.14,0-.23-.12-.23-.23s.09-.18,1.26-.18,1.26,0,1.26.18a.21.21,0,0,1-.2.21.81.81,0,0,0-.4.3c-.19.25-.2.37-.22,3.7l0,3.44h-.41c-.37,0-.43,0-.71-.4l-4.35-5.38s0,1,0,2.29c0,2.59.11,2.91.55,3,.21.05.27.11.27.28v.22h-2.52v-.22Zm16.31,0c0-.14,0-.24.13-.24s.53-.43.78-1c.34-.76,1.94-4.87,2.21-5.71l.25-.77.42,0,.42,0,1.23,3.16c.68,1.75,1.31,3.32,1.41,3.5.2.41.51.74.67.74s.12.11.12.24v.23h-3.17V82.9c0-.16,0-.24.17-.24.45,0,.49-.39.15-1.42l-.24-.72h-2.19l-.19.63c-.38,1.19-.36,1.51.08,1.51.12,0,.17.07.17.24v.23H118.7Zm4-4.17c-.17-.53-.34-1-.37-1.1s-.22.28-.46.89-.41,1-.41,1.09a2.16,2.16,0,0,0,.78.07H123Zm4.25,4.17c0-.18,0-.24.22-.24a.62.62,0,0,0,.4-.19c.16-.18.18-.4.2-3.1,0-1.6,0-3,0-3.11a.89.89,0,0,0-.63-.58c-.11,0-.17-.07-.17-.21s0-.21,1.59-.21,1.58,0,1.58.18a.37.37,0,0,1-.27.31.83.83,0,0,0-.37.37,30.23,30.23,0,0,0-.12,4.84c.05,1.09.1,1.35.24,1.51a.56.56,0,0,0,.35.19c.12,0,.17.07.17.24v.23H126.9V82.9Zm10.44,0c0-.17,0-.22.22-.22a.59.59,0,0,0,.42-.24c.19-.24.2-.35.2-3.18a19,19,0,0,0-.11-3.13.72.72,0,0,0-.57-.43c-.11,0-.16-.08-.16-.24v-.23h5.59v2l-.25,0c-.18,0-.27-.11-.35-.35-.18-.55-.49-.7-1.6-.74l-1,0v2.63h.58c.81,0,1.21-.16,1.38-.53s.2-.3.37-.3h.23v2.42h-.25c-.21,0-.26,0-.26-.22,0-.41-.31-.57-1.22-.6l-.83,0v1.31c0,1.58,0,1.6,1.08,1.6s1.6-.26,1.87-.91c.14-.32.46-.41.56-.16a4.7,4.7,0,0,1-.4,1.65l-.14.27-2.69,0-2.7,0v-.22ZM12.48,74.38l-.23-.18.55-.84a3.21,3.21,0,0,1,.69-.85,4,4,0,0,1,1.29.28,19,19,0,0,1-2,1.77,1.22,1.22,0,0,1-.32-.18ZM.64,67.94H142.56v.84H.64v-.84Zm54-1.91a1.5,1.5,0,0,1-1-1.7,1.45,1.45,0,0,1,.88-1.09l.44-.2-.27-.15a.52.52,0,0,1-.27-.34,2.07,2.07,0,0,1,.86-.85s0-.16-.13-.35a1.81,1.81,0,0,1,.79-2.43c.48-.25.65-.26,2.34-.15,1,.06,1,.07,1,.26a1.44,1.44,0,0,0-.05.27s-.17.07-.37.07h-.36l0,.54c.11,1.18-.74,2-2.09,2-.71,0-1,.16-.77.34a7.49,7.49,0,0,0,1,.37c1.54.5,1.83.75,1.76,1.56A2.24,2.24,0,0,1,56.68,66a4.1,4.1,0,0,1-2,0Zm2.08-.57c.75-.38,1.08-1.1.67-1.47a4,4,0,0,0-1.81-.58,1.49,1.49,0,0,0-1.12,1.47c.15.77,1.28,1.06,2.26.58ZM57,61.24a1.38,1.38,0,0,0,.41-1.81c-.52-.67-1.52.07-1.53,1.14a.65.65,0,0,0,.26.62A.59.59,0,0,0,57,61.24Zm3.54,2.17a.84.84,0,0,1-.68-.85,4.36,4.36,0,0,1,2.09-3.64,4.05,4.05,0,0,1,2.61-.07c.07,0,0,.35-.17,1a8,8,0,0,0-.45,2.79c.08.14.14.15.38.07s.31-.08.37,0,.06.3-.48.48c-.71.24-1,.2-1.15-.17L63,62.75l-.38.22a3.54,3.54,0,0,1-2.06.44Zm1.61-.84a2.09,2.09,0,0,0,.63-.44,15,15,0,0,0,.65-2.4c.06-.34.05-.35-.29-.44-.62-.18-1.25.28-1.75,1.27s-.66,2-.32,2.2S61.42,62.9,62.12,62.57Zm44.12.81a.77.77,0,0,1-.68-.67,4,4,0,0,1,.91-2.76,2.85,2.85,0,0,1,3.06-1.23,3.12,3.12,0,0,1,.71.16,6.92,6.92,0,0,1-.27,1.33,12.58,12.58,0,0,0-.34,1.86v.61l.39,0c.36,0,.4,0,.4.19s-.09.24-.54.38c-.74.22-1.08.18-1.12-.16,0-.14,0-.25-.07-.25l-.54.22a5.57,5.57,0,0,1-1.53.42Zm1.56-.8a2.31,2.31,0,0,0,.57-.38,8.44,8.44,0,0,0,.77-2.53c0-.28,0-.3-.32-.4a.82.82,0,0,0-.7.06,3.76,3.76,0,0,0-1.48,2.41c-.29,1.12.07,1.38,1.16.84ZM6.74,63.17a11.42,11.42,0,0,1,.37-1.93c.46-1.86.45-2-.05-1.87-.24.07-.27.06-.27-.13s.08-.24.53-.37a4.82,4.82,0,0,1,.87-.18c.3,0,.32,0,.35.29a10.89,10.89,0,0,1-.36,1.9,10.15,10.15,0,0,0-.33,1.72c.05.11.14.13.48.08s.43,0,.4.15-.14.25-.54.37a4,4,0,0,1-1,.17c-.38,0-.45,0-.49-.2Zm3.58,0L10.11,63l.72-3.17c.4-1.74.71-3.29.69-3.44s-.06-.29-.42-.18c-.18.06-.21,0-.21-.17s.33-.4,1.23-.49c.52-.06.54,0,.54.17s-.15.89-.33,1.7S12,59,12,59.05s.1.08.4-.06c1-.46,1.94-.43,2.27.06a3.37,3.37,0,0,1-.35,2.65,4.25,4.25,0,0,1-1.44,1.5,4.48,4.48,0,0,1-2.57,0Zm2.36-.59a4.29,4.29,0,0,0,1.14-2.43c.14-1-.51-1.19-1.55-.47a1.35,1.35,0,0,0-.49.62,14.29,14.29,0,0,0-.52,2.21c0,.4.9.44,1.42.07Zm3.56.48c-.25-.26-.27-.34-.27-1a3.49,3.49,0,0,1,2.14-3.36,1.54,1.54,0,0,1,1.52.18c.21.18.25.29.25.67,0,1-.87,1.69-2.13,1.78a1.56,1.56,0,0,0-.73.15,1.28,1.28,0,0,0,0,.92c.23.45.57.46,1.37.05.49-.26.6-.28.67-.17s.09.34-.63.68a2.53,2.53,0,0,1-1.34.35C16.57,63.38,16.49,63.35,16.24,63.09Zm1.67-2.24c.79-.22,1.31-1.07.91-1.47s-.49-.25-.82,0a3.75,3.75,0,0,0-.82,1.33c-.05.18,0,.21.15.21A2.51,2.51,0,0,0,17.91,60.85Zm3.14,2.49s.16-.73.37-1.6a16.12,16.12,0,0,0,.37-2v-.4l-.37,0c-.33.06-.37,0-.37-.12s.3-.36,1.05-.55c.52-.13.72,0,.72.32v.22l.33-.22c.58-.4.93-.47,1.36-.28.2.09.35.21.33.27-.25.89-.39,1.17-.6,1.17s-.21-.05-.21-.32c0-.68-.59-.68-1,0a8.61,8.61,0,0,0-.76,2.64,1.76,1.76,0,0,1-.22.72,5,5,0,0,1-1,.1Zm4.67-.09c-.1-.12,0-.45.49-2.88l.22-1h-.32c-.17,0-.31,0-.31,0s.21-.42.32-.42.66-.44.85-.85.28-.54.59-.54.21,0,.16.3-.09.46-.12.65l-.06.35H28c.44,0,.5.07.37.41,0,.11-.18.15-.5.15-.52,0-.44-.19-.85,1.85-.3,1.5-.28,1.64.22,1.5s.46-.12.42.12-.14.25-.49.37C26.58,63.4,25.86,63.42,25.72,63.25Zm3.76-.12c-.68-.73-.19-2.82.9-3.8A2.77,2.77,0,0,1,32,58.62a1.83,1.83,0,0,1,1,.47,1.66,1.66,0,0,1-.09,1.27,2.55,2.55,0,0,1-2.17,1.06h-.54v.49c0,1,.39,1.12,1.44.61a2.29,2.29,0,0,1,.64-.26.62.62,0,0,1,.07.23c0,.15-.1.26-.65.54a2.3,2.3,0,0,1-1.33.35c-.58,0-.67,0-.87-.25Zm1.64-2.28a1.56,1.56,0,0,0,1-.81c.12-.3.12-.35,0-.57s-.51-.35-.89,0a3.42,3.42,0,0,0-.81,1.39c0,.13.36.13.76,0Zm35,2.46c-.13-.13,0-.68.41-2.58.6-2.58.93-4.11.93-4.35s0-.2-.33-.15-.32,0-.32-.17.23-.34,1.16-.52c.47-.09.61,0,.61.28,0,.14-.32,1.61-.7,3.28s-.7,3.16-.7,3.33v.32l.43-.06c.4,0,.42,0,.39.15s-.14.24-.54.36a2.27,2.27,0,0,1-1.34.11Zm3.52-.05c-.12-.18,0-.59.35-2.14a12.32,12.32,0,0,0,.34-1.64c0-.17-.06-.17-.47-.07-.22.05-.26,0-.26-.14s.4-.42,1.13-.55c.51-.1.74,0,.74.16s-.19.94-.42,1.91a11.84,11.84,0,0,0-.37,1.86c0,.06.23.07.48,0s.41,0,.38.15-.14.24-.54.36c-.61.19-1.26.22-1.36.06Zm3.44,0a2,2,0,0,1,.05-.68c.21-.93.67-3.08.67-3.13a.59.59,0,0,0-.29,0c-.4,0-.33-.26.15-.51a1.55,1.55,0,0,0,.68-.77c.26-.51.34-.58.57-.58h.26l-.12.58c-.07.32-.13.61-.13.65s.2.07.46.07c.49,0,.5,0,.41.35,0,.18-.12.21-.54.21h-.48l-.32,1.57a10.51,10.51,0,0,0-.25,1.72c0,.12.11.13.36.06.43-.12.45-.12.45.13s-.08.24-.54.37c-.73.21-1.31.2-1.39,0Zm3.84-.06c-.24-.19-.28-.3-.31-.83a3.86,3.86,0,0,1,1.26-3.1c.88-.67,1.84-.76,2.38-.22.25.25.27.32.23.74a2.06,2.06,0,0,1-2.18,1.65c-.76,0-.84.13-.69.79s.46.79,1.39.35c.62-.3.76-.3.76,0s-1.12.77-1.92.82c-.59,0-.68,0-.92-.2Zm2-2.49c.58-.29.83-1,.5-1.32s-1.19.15-1.57,1.23l-.14.4.42-.06a2.7,2.7,0,0,0,.79-.25Zm22.27,2.67s.17-.73.37-1.6a14.91,14.91,0,0,0,.38-2v-.4l-.37,0c-.33.06-.38,0-.38-.12s.17-.32.92-.51.85-.11.85.28v.22l.33-.22c.58-.4.94-.47,1.36-.28A1,1,0,0,1,105,59a6.44,6.44,0,0,1-.21.64c-.17.48-.24.58-.41.58s-.22-.05-.22-.32c0-.63-.54-.68-1-.08a5.77,5.77,0,0,0-.73,2.26,8.17,8.17,0,0,1-.26,1.13,3.64,3.64,0,0,1-1,.14Zm10.75-.11a7.36,7.36,0,0,1,.37-2.42l.31-1.39-.26,0c-.32,0-.37-.35-.08-.44a1.7,1.7,0,0,0,.89-.9c.21-.47.29-.54.59-.54s.22,0,.16.3-.08.46-.12.65l-.05.35h.43c.44,0,.51.07.37.41,0,.11-.18.15-.5.15-.52,0-.43-.19-.84,1.85-.31,1.5-.29,1.64.22,1.5s.45-.12.42.12-.14.25-.5.37c-.62.2-1.34.22-1.41,0Zm3.76-.1c-.71-.7-.22-2.81.88-3.8a2.77,2.77,0,0,1,1.59-.71,1.83,1.83,0,0,1,1,.47,1.66,1.66,0,0,1-.09,1.27,2.51,2.51,0,0,1-2.17,1.06h-.56l0,.57c.07.91.4,1,1.42.53a2.18,2.18,0,0,1,.65-.26.91.91,0,0,1,.07.23c0,.15-.1.26-.66.54a2.25,2.25,0,0,1-1.31.35c-.55,0-.66,0-.87-.25Zm2-2.42c.65-.33,1-1.08.54-1.39s-.46-.17-.82.15a3.36,3.36,0,0,0-.8,1.4c0,.15.64.06,1.08-.16Zm2.83,2.59s.17-.8.38-1.68a13.32,13.32,0,0,0,.35-1.91c0-.28,0-.29-.37-.28s-.35,0-.39-.16,0-.21.44-.35a4.91,4.91,0,0,1,.83-.24c.36-.07.35-.07.58.47a3.26,3.26,0,0,0,.55-.25c.64-.33.75-.33,1.14-.1l.3.18-.21.61c-.16.51-.23.61-.41.62s-.21-.05-.21-.31c0-.81-.77-.65-1.19.25a10.79,10.79,0,0,0-.47,1.73c-.15.73-.29,1.33-.31,1.35a2.76,2.76,0,0,1-1,.07Zm4.66,0s.15-.66.33-1.38a10.68,10.68,0,0,0,.35-2l0-.65-.34,0c-.26,0-.35,0-.38-.15s0-.2.43-.32c.85-.26,1-.28,1.21-.11a.61.61,0,0,1,.15.37c0,.13,0,.23,0,.23a6.49,6.49,0,0,0,.61-.27,3.37,3.37,0,0,1,2-.39c.19.11.21.16.15.59,0,.26-.19,1-.34,1.6a13.53,13.53,0,0,0-.29,1.45c0,.33,0,.33.36.32s.41,0,.45.13,0,.26-.6.43-1.27.19-1.35,0a12,12,0,0,1,.32-1.8c.41-1.83.43-2,.24-2.12s-.92.27-1.34.66-.4.41-.61,1.34c-.13.55-.26,1.2-.3,1.44s-.11.47-.17.49a2.57,2.57,0,0,1-1,.06Zm6.39-.08a12.83,12.83,0,0,1,.37-1.91,12.58,12.58,0,0,0,.38-1.9c0-.09-.12-.1-.35,0l-.34.09a.62.62,0,0,1,0-.21c0-.18.08-.24.49-.37,1.1-.33,1.44-.27,1.33.22,0,.12-.22.93-.42,1.8a10.51,10.51,0,0,0-.33,1.71c0,.11.15.12.48.08s.42,0,.39.15c-.06.4-1.84.74-2,.38Zm3.52,0a7.29,7.29,0,0,1,.37-2.22c.41-1.79.4-1.63.06-1.63s-.34-.26.14-.51a1.51,1.51,0,0,0,.66-.75c.24-.45.34-.56.55-.59s.29,0,.09,1l-.06.3h.49c.4,0,.47,0,.43.15a.94.94,0,0,0-.06.28c0,.09-.13.13-.5.13h-.5l-.31,1.57a10.31,10.31,0,0,0-.25,1.71c0,.13.12.14.37.07.42-.12.44-.12.44.13s-.07.24-.54.37c-.71.2-1.31.2-1.38,0Zm3.83-.06c-.27-.23-.27-.25-.27-1.16a2.55,2.55,0,0,1,.35-1.63,2.83,2.83,0,0,1,1.64-1.57c1.32-.49,2.27.35,1.69,1.5a2.45,2.45,0,0,1-2.11,1.12c-.54,0-.58,0-.64.24a1.25,1.25,0,0,0,.21,1c.21.24.57.2,1.22-.13.49-.25.6-.28.67-.16s.08.36-.54.66a3,3,0,0,1-1.29.34c-.6,0-.69,0-.93-.2Zm2-2.51c.63-.35.84-1,.4-1.33a.48.48,0,0,0-.49-.07,2.29,2.29,0,0,0-1,1.29l-.15.44.43-.06A2.61,2.61,0,0,0,140.9,60.65ZM0,63.12a.3.3,0,0,1,.22-.2c.28-.05.52-.29.71-.71A35,35,0,0,0,2,57c0-.69,0-.7-.28-.88-.58-.37-.42-.43,1.18-.43,1.28,0,1.5,0,1.5.14s-.12.17-.29.2c-.59.12-.82.71-1.38,3.59-.52,2.7-.52,2.65-.28,2.88s.27.2,1,.16c1,0,1.33-.21,1.67-.78s.28-.45.47-.33.11.16,0,.54a5.62,5.62,0,0,1-.36.82L5,63.24l-2.5,0c-2.34,0-2.5,0-2.47-.14Zm47.14,0c0-.07.15-.21.35-.3a1.18,1.18,0,0,0,.55-.59,33,33,0,0,0,1.09-5.36c0-.63,0-.65-.29-.83-.62-.4-.48-.43,2.36-.43,2.6,0,2.66,0,2.6.18s-.11.47-.17.82c-.1.54-.15.64-.33.66s-.2,0-.2-.21c0-.62-.37-.8-1.67-.8h-.9l-.26,1.19c-.14.66-.28,1.26-.31,1.35s0,.17.78.16c.93,0,1.2-.1,1.47-.53s.56-.41.49-.05c0,.14-.13.65-.22,1.12-.13.68-.19.86-.32.86s-.18-.1-.21-.27a.62.62,0,0,0-.27-.39,5,5,0,0,0-1.8-.07,18,18,0,0,0-.45,2.24c-.06.4,0,.45.17.6s.4.15,1,.11c1,0,1.32-.2,1.72-.77.18-.24.34-.39.42-.36s.16.24-.12.9c-.41,1-.17.9-3,.9-2.1,0-2.5,0-2.5-.13Zm47.33,0c0-.07.14-.18.31-.24.58-.2.78-.73,1.37-3.74.5-2.6.49-3-.1-3.2-.1,0-.17-.11-.15-.17a10.5,10.5,0,0,1,2.62-.14c2.54,0,2.58,0,2.52.16s-.11.47-.17.82c-.1.54-.15.64-.32.66s-.21,0-.21-.25c0-.59-.45-.79-1.71-.74l-.74,0-.26,1.21c-.15.67-.26,1.27-.26,1.33s1.41.16,1.75,0a.86.86,0,0,0,.38-.42c.08-.17.19-.28.3-.28s.21-.07,0,1.19c-.17.88-.23,1-.37,1a.15.15,0,0,1-.17-.17c0-.43-.88-.75-1.68-.62l-.36.06-.19,1c-.33,1.84-.31,2,.19,2.22s.24.32-1.26.34c-1.22,0-1.46,0-1.46-.11Zm-54.66-2A1.53,1.53,0,0,1,39,59.9a1.43,1.43,0,0,1,1.38-1.4,1.3,1.3,0,0,1,1.41,1.39,1.36,1.36,0,0,1-2,1.26Zm47.43,0a1.82,1.82,0,0,1-.56-.47,1.09,1.09,0,0,1-.25-.83,1.3,1.3,0,0,1,1.39-1.39,1.09,1.09,0,0,1,.86.28,1.39,1.39,0,0,1,.23,2,1.4,1.4,0,0,1-1.67.41ZM31.53,57.88c-.18-.2-.2-.18.86-1.39l.36-.4.53.11a1.32,1.32,0,0,1,.53.19,24.34,24.34,0,0,1-2.07,1.67.76.76,0,0,1-.21-.18Zm47.41,0-.21-.17.7-.8a5.43,5.43,0,0,1,.79-.8,2.86,2.86,0,0,1,1,.29c0,.06-1.76,1.45-2,1.59,0,0-.19,0-.3-.11Zm61.94,0-.22-.17.73-.8a6.5,6.5,0,0,1,.8-.8,3.7,3.7,0,0,1,1,.27s-1.76,1.47-2,1.61C141.15,58,141,58,140.88,57.88ZM7.9,57.4c-.38-.38,0-1.11.56-1.11a.54.54,0,0,1,.6.61A.68.68,0,0,1,7.9,57.4Zm62.88.07a.8.8,0,0,1,0-1,.66.66,0,0,1,1.12.38A.75.75,0,0,1,70.78,57.47Zm61.89-.07c-.39-.38,0-1.11.58-1.11a.61.61,0,0,1,.41,1.08.69.69,0,0,1-1,0ZM51,54.74c-.14-.16-.11-.22.57-1l.71-.78.54.12a1.31,1.31,0,0,1,.52.17,15.43,15.43,0,0,1-2,1.57.37.37,0,0,1-.3-.13Z"/><path id="path10" class="cls-2" d="M82,49.49l.22-.57a12.47,12.47,0,0,1,1.3-2.64,9.67,9.67,0,0,1,2.4-2.48,4.8,4.8,0,0,1,2.49-.33c.87.07,3.53.51,4.61.75a6.44,6.44,0,0,0,2.58,0,2.74,2.74,0,0,0,2-1.93,2.71,2.71,0,0,0,0-1.94c-.32-.63-.26-.8.51-1.54a4.43,4.43,0,0,0,.7-.76,2.81,2.81,0,0,0-.66-1.25.8.8,0,0,1-.37-.17l-.22-.18.47-.23c.63-.33,1.09-.83,1.09-1.18a2.49,2.49,0,0,0-.29-.83,1.71,1.71,0,0,1-.22-1.48c.12-.21.32-.31,1.3-.59.82-.24,1.12-.48,1.24-1A1.64,1.64,0,0,0,101,29.9c-.22-.44-1.65-2.64-2.07-3.18a10.3,10.3,0,0,1-1.44-2.63,2.3,2.3,0,0,1-.06-1.55c.31-1.8.13-3.3-.75-6.21a24,24,0,0,0-1-3.1c-.37-.73-.32-.9.43-1.52a5.62,5.62,0,0,0,.75-.7,1.29,1.29,0,0,0-.46-1.48c-.27-.15-.43,0-.71.46s-.29.46-.51.46-.44-.15-.2-.47.25-.43-.18-.48-.49-.17-1.19-.88a8.16,8.16,0,0,0-2.81-2c-.57-.26-.77-.39-.56-.35s.81.08,1.41.11c1.73.09,2.15-.14,2.55-1.39.27-.84.4-1.23-.22-1.82L91.62,1h51.7V49.49Z"/><path id="path12" class="cls-3" d="M37.93,49.49c-.38,0-.7-.06-.72-.08a14.35,14.35,0,0,1,2.32-1.5c.62-.38.88-.58.79-.63a9.46,9.46,0,0,0-1.2-.13,2.89,2.89,0,0,0-1.4.08,14.79,14.79,0,0,1-1.55.47c-1.69.44-2.25.75-2.79,1.5l-.21.29H0V1H65.82l-1.28.83a13.15,13.15,0,0,0-1.81,1.08A10.76,10.76,0,0,0,60,6.68a1.22,1.22,0,0,1-.61.78,8,8,0,0,0-1.85,2A41.65,41.65,0,0,0,55,14c-.45,1.13-.41,2,.26,5.37.29,1.49.61,3,.71,3.36a9.5,9.5,0,0,1,.23,1.35,3.58,3.58,0,0,0,.5,1.68,2.07,2.07,0,0,1,.2.58.42.42,0,0,0,.19.28.43.43,0,0,1,.18.35c0,.16.22.47.68,1a7.87,7.87,0,0,1,1.84,2.61c0,.29-.42.36-1.09.2a5.29,5.29,0,0,1-2.43-1.59c-.42-.41-.77-.68-.77-.61a3.73,3.73,0,0,0,.65.85c.7.78.81,1,.66,1.28s-.46.32-.9.2-.8.06-.72.48c.06.25,0,.28-.1.23a7.31,7.31,0,0,0-1.48-.3c-.52-.06-.55-.08-.87-.51a1.25,1.25,0,0,0-.67-.56,39.42,39.42,0,0,0-4.77-.83,16.85,16.85,0,0,0-4.67-.16,4.17,4.17,0,0,0-1.81.46c-1,.49-2.65,2-2.65,2.44,0,.18.37.12.79-.15a24.25,24.25,0,0,1,7.83-2c1.07,0,1,0-.27.24-.35.06-1.19.27-1.86.47s-1.83.51-2.57.68-1.59.41-1.87.51l-.51.18h.79c4,.05,8.64,1.33,10.51,2.93a2.3,2.3,0,0,0,2.29.65A10.35,10.35,0,0,0,58,33.94c.4-.33.73-.46.73-.29A11,11,0,0,1,57.93,36c-.25.45-.27.51-.14.61s.13.13.1.16,0,.08.14.12c.31.09.23.19-.26.31s-.85.34-.85.49.07.08.15.08c.24,0,.06.17-.26.24s-.25.09-.16.15.1.08,0,.08-.11.1-.11.21-.09.25-.28.34c-.47.2-.34.31.3.25.32,0,.52,0,.44,0l-1.16.53c-.56.26-1.3.57-1.63.69s-.62.27-.64.37.14.15.58,0c.09,0,.15,0,.15,0a20.48,20.48,0,0,1-2.16,1.25,21.9,21.9,0,0,0-2.46,1.47,1.12,1.12,0,0,1-.48.3.38.38,0,0,0-.29.24c-.18.39-.14.44.29.37.64-.11.94-.11,1,0s0,.11-.15.11a.44.44,0,0,0-.29.14.6.6,0,0,1-.36.16A.64.64,0,0,0,49,45a.89.89,0,0,1-.38.34c-.1,0,.05,0,.33,0,4.19-.31,5-.46,6.66-1.32a15.94,15.94,0,0,0,4-2.91,4.31,4.31,0,0,1,.63-.57c.15,0,.07.52-.14,1a7.08,7.08,0,0,1-2.75,2.59,12.39,12.39,0,0,1-1.93,1.12,25.18,25.18,0,0,1-3.44.72c-4.42.63-6.11,1.12-7.78,2.23a2,2,0,0,1-.65.31.85.85,0,0,0-.47.25c-.51.43-.14.36.9-.18s1.57-.64.73-.13a5.34,5.34,0,0,1-2.59,1Zm-5.48-5.41c.16-.07.72-.38,1.23-.69s1.11-.65,1.34-.75L36.47,42a8.2,8.2,0,0,1,3-.88,1.17,1.17,0,0,0,.58.14c.39,0,.46,0,.3.11s-.21.11-.21.15.87.12,1.24-.07a2.76,2.76,0,0,1,.72-.19c.32,0,.46-.09.46-.19s.08-.12.37-.07a12.56,12.56,0,0,0,3.5-.66,22.38,22.38,0,0,0,3.72-1.24l.74-.34-.74-.48c-1.8-1.15-3.61-1.86-7.59-3a9.1,9.1,0,0,1-1.35-.44c-.06-.07,0-.07.09,0,.4.14.7.17.7.06s-.3-.25-.89-.33-.89-.23-.51-.23c.58,0-.42-.38-1.53-.57-.83-.14-.88-.17-.53-.34s.62-.7.54-.92-.17-.17-.61.13a6.32,6.32,0,0,0-2.1,2.52c-.25.56-.16.61,1.14.67,1.07,0,1.08,0,.81.19a2.47,2.47,0,0,1-.68.22c-.76.11-1.18.47-.81.68.11.06.07.12-.2.25s-.33.18-.19.26a1.43,1.43,0,0,0,.6.06.7.7,0,0,1,.63.15l.21.18-.41.26a1.9,1.9,0,0,0-.57.56,5.35,5.35,0,0,1-.7.87,2.51,2.51,0,0,0-.53.73,4.37,4.37,0,0,1-1,.91c-1.41,1.13-2,1.75-2,2a.46.46,0,0,1-.22.39c-.44.29-.67.63-.43.63a1.76,1.76,0,0,0,.41-.13ZM43.35,43a3.07,3.07,0,0,0,.89-.24l.27-.16-.45-.22-.45-.22-.45.18-.76.3c-.69.26-.78.61-.13.51L43.35,43ZM27.57,38.75A33.34,33.34,0,0,1,33,34c.63-.44,1.08-.69,1.1-.63s.33.13.77-.15.76-.65,1.39-1.79a5.58,5.58,0,0,1,1.85-2.21c.45-.34,1.1-.85,1.45-1.13.51-.41.64-.47.6-.31s0,.2,0,.2a3.6,3.6,0,0,0,1.25-.53c0-.16-1-.33-1.71-.28a2.81,2.81,0,0,0-1.49.48A21.31,21.31,0,0,0,33,31.85,18.46,18.46,0,0,1,29.38,35c-.22.1-.38.32-.64.85a30.28,30.28,0,0,1-2.28,3.73c-.82,1.13-1,1.53-.36.8.22-.25.88-1,1.47-1.58ZM48.35,49a19.93,19.93,0,0,1,4.52-.63,6.62,6.62,0,0,0,3.4-.69c.37-.18.52-.22.58-.13s.73-.2,2-1.08c.51-.36,1.24-.82,1.61-1,.56-.31.74-.36,1-.31s.37,0,.74-.31A4.32,4.32,0,0,1,65,43.46c.26,0,.35,0,.35.15s0,.13.14.1c.26-.1.14,0-.53.51s-.7.74.09.2.76-.53.76-.32-.28.43-.81.87a30.68,30.68,0,0,0-3.35,3.27l-1.16,1.25H45.69Zm0-19a.92.92,0,0,1,.33,0c.09,0,0,0-.17,0S48.28,30,48.37,30Z"/><path id="path14" class="cls-4" d="M91.84,26.42c-.41-.06-.2-.21.3-.21s.75-.19.75-.55c0-.17,0-.19-.19-.14a.27.27,0,0,1-.33-.13.83.83,0,0,0-.58-.24c-.53-.07-1.39-.58-1.24-.74a1.73,1.73,0,0,1,.61-.14c.48,0,.52-.06.62-.35s.17-.34.35-.38a1.23,1.23,0,0,0,.48-.27,10.42,10.42,0,0,1,.93-.67c.65-.42,1-.87.91-1a6.31,6.31,0,0,0-2.21-.26,13.19,13.19,0,0,0-2.63.56c-.57.22-.41,0,.37-.43a10.26,10.26,0,0,1,4.19-1.21,7.52,7.52,0,0,1,2,.49c.34.28,0,1.26-.66,1.76l-.26.2.22.23.21.23-.22.18a.74.74,0,0,1-.37.18,1.07,1.07,0,0,0-.45.29c-.25.25-.28.33-.21.52a.47.47,0,0,1,0,.42,1.52,1.52,0,0,0,0,.69c.08.62,0,.84-.48,1a7.63,7.63,0,0,1-2.1,0Z"/><path class="cls-5" d="M163.61,7.89c0,1.91-1.12,3.79-3.45,3.79s-3.84-2-3.84-5.72c0-3.5,1.3-5.72,3.84-5.72,2.33,0,3.46,1.94,3.45,4H162.5c0-1.45-.59-3-2.28-3-1.93,0-2.75,1.87-2.75,4.78,0,3.14,1.16,4.58,2.75,4.58s2.22-1.42,2.28-2.75Z"/><path class="cls-5" d="M165.67,7.72c0,1.69.69,3,2.06,3a1.85,1.85,0,0,0,1.83-1.61h1a3.27,3.27,0,0,1-1,1.91,2.73,2.73,0,0,1-1.8.64c-2.24,0-3.1-2.15-3.1-4.24,0-2.52,1.16-4.27,3.07-4.27a2.5,2.5,0,0,1,2.18,1.15,5.83,5.83,0,0,1,.75,3.4Zm4-.88c0-1.69-.74-2.82-2-2.82s-2,1.21-2,2.82Z"/><path class="cls-5" d="M172.56,4.3h-1.14V3.36h1.14V.79h1V3.36h1.12V4.3h-1.12v7.19h-1Z"/><path class="cls-5" d="M176.29,4.3h-1.13V3.36h1.13V.79h1V3.36h1.12V4.3H177.3v7.19h-1Z"/><path class="cls-5" d="M180.09,7.72c0,1.69.69,3,2.06,3A1.84,1.84,0,0,0,184,9.13h1a3.22,3.22,0,0,1-1,1.91,2.69,2.69,0,0,1-1.79.64c-2.24,0-3.11-2.15-3.11-4.24,0-2.52,1.17-4.27,3.08-4.27a2.51,2.51,0,0,1,2.18,1.15,5.91,5.91,0,0,1,.75,3.4ZM184,6.84C184,5.15,183.3,4,182.08,4s-2,1.21-2,2.82Z"/><path class="cls-5" d="M195.54,11.49h-.93c0-.72,0-1.17,0-1.56a2.23,2.23,0,0,1-2.15,1.75c-1.62,0-2.72-1.7-2.72-4.24s1-4.27,2.72-4.27a2.19,2.19,0,0,1,2.15,1.76c0-.49,0-1,0-1.57h.93Zm-4.78-4c0,1.84.65,3.26,1.89,3.26a1.6,1.6,0,0,0,1.42-.9,4.47,4.47,0,0,0,.47-2.38,4.38,4.38,0,0,0-.47-2.37,1.6,1.6,0,0,0-1.42-.9c-1.24,0-1.89,1.42-1.89,3.27Z"/><path class="cls-5" d="M202.86,8.72c-.18,1.66-1.08,3-2.69,3-2.17,0-3.14-2-3.14-4.24,0-2.66,1.26-4.27,3.1-4.27,1.67,0,2.61,1.28,2.68,3h-1c-.17-1.61-.94-2.06-1.7-2.06a1.57,1.57,0,0,0-1.48.86,4.81,4.81,0,0,0-.53,2.45c0,2.14.74,3.32,2,3.32,1,0,1.57-.81,1.72-2Z"/><path class="cls-5" d="M204.55,4.3h-1.14V3.36h1.14V.79h1V3.36h1.12V4.3h-1.12v7.19h-1Z"/><path class="cls-5" d="M208,.43h1V1.9h-1Zm0,2.93h1v8.13h-1Z"/><path class="cls-5" d="M210.67,7.41c0-2.32,1-4.24,3.14-4.24s3.12,1.92,3.12,4.25-1,4.26-3.12,4.26-3.14-1.93-3.14-4.26Zm1.05,0c0,2.15.7,3.3,2.11,3.3s2.06-1.15,2.06-3.32-.7-3.31-2.09-3.31-2.08,1.15-2.08,3.31Z"/><path class="cls-5" d="M218.47,3.36h.9c0,.46,0,.88,0,1.39a2.32,2.32,0,0,1,2.3-1.58C223,3.17,224,4,224,6v5.54h-1V6.26c0-.82-.12-2.11-1.55-2.11-1.18,0-1.95.82-1.95,2.53v4.81h-1Z"/><path class="cls-5" d="M229.5.43h1V3.36c0,.72,0,1.17,0,1.56a2.17,2.17,0,0,1,2.08-1.75c1.71,0,2.73,1.76,2.73,4.24s-1.1,4.27-2.73,4.27a2.19,2.19,0,0,1-2.14-1.76c0,.49,0,1,0,1.57h-.93Zm4.78,7c0-1.75-.61-3.26-1.88-3.26s-1.9,1.65-1.9,3.27.49,3.28,1.9,3.28,1.88-1.51,1.88-3.28Z"/><path class="cls-5" d="M237.46,7.72c0,1.69.69,3,2.06,3a1.85,1.85,0,0,0,1.83-1.61h1a3.27,3.27,0,0,1-1,1.91,2.73,2.73,0,0,1-1.8.64c-2.24,0-3.1-2.15-3.1-4.24,0-2.52,1.16-4.27,3.07-4.27a2.53,2.53,0,0,1,2.19,1.15,5.9,5.9,0,0,1,.74,3.4Zm3.95-.88c0-1.69-.74-2.82-2-2.82s-2,1.21-2,2.82ZM241.09,0l.42.81-3.35,1.77-.37-.7Z"/><path class="cls-5" d="M244,3.36h.9c0,.46,0,.88,0,1.39a2.32,2.32,0,0,1,2.3-1.58c1.39,0,2.33.8,2.33,2.78v5.54h-1V6.26c0-.82-.12-2.11-1.56-2.11-1.17,0-1.94.82-1.94,2.53v4.81h-1Z"/><path class="cls-5" d="M252,7.72c0,1.69.69,3,2.06,3a1.84,1.84,0,0,0,1.82-1.61h1a3.22,3.22,0,0,1-1,1.91,2.69,2.69,0,0,1-1.79.64c-2.24,0-3.1-2.15-3.1-4.24,0-2.52,1.16-4.27,3.07-4.27a2.5,2.5,0,0,1,2.18,1.15,5.91,5.91,0,0,1,.75,3.4ZM256,6.84c0-1.69-.73-2.82-1.95-2.82s-2,1.21-2,2.82ZM255.66,0l.42.81-3.35,1.77-.37-.7Z"/><path class="cls-5" d="M259.8,4.3v7.19h-1V4.3h-.93V3.36h.93V2.75A2.24,2.24,0,0,1,261.22.24v.88c-.75,0-1.42.4-1.42,1.72v.52h3.09v8.13h-1V4.3Zm2.09-2.39V.43h1V1.91Z"/><path class="cls-5" d="M270.29,8.72c-.18,1.66-1.08,3-2.69,3-2.17,0-3.14-2-3.14-4.24,0-2.66,1.26-4.27,3.09-4.27s2.62,1.28,2.69,3h-1c-.17-1.61-1-2.06-1.71-2.06A1.59,1.59,0,0,0,266,5a4.93,4.93,0,0,0-.52,2.45c0,2.14.73,3.32,2,3.32,1,0,1.57-.81,1.72-2Z"/><path class="cls-5" d="M271.71.43h1V1.9h-1Zm0,2.93h1v8.13h-1Z"/><path class="cls-5" d="M275.44,7.72c0,1.69.69,3,2.06,3a1.85,1.85,0,0,0,1.83-1.61h1a3.27,3.27,0,0,1-1,1.91,2.73,2.73,0,0,1-1.8.64c-2.24,0-3.1-2.15-3.1-4.24,0-2.52,1.16-4.27,3.07-4.27a2.5,2.5,0,0,1,2.18,1.15,5.83,5.83,0,0,1,.75,3.4Zm3.95-.88c0-1.69-.74-2.82-2-2.82s-2,1.21-2,2.82Z"/><path class="cls-5" d="M290.89,11.49H290c0-.75,0-1.2,0-1.62a2.22,2.22,0,0,1-2.15,1.81c-1.62,0-2.72-1.7-2.72-4.24s1-4.27,2.72-4.27a2.13,2.13,0,0,1,2.09,1.72c0-.48,0-.93,0-1.53V.43h1Zm-4.78-4.07c0,1.84.66,3.26,1.9,3.26a1.59,1.59,0,0,0,1.42-.9,4.49,4.49,0,0,0,.46-2.37A4.55,4.55,0,0,0,289.43,5,1.63,1.63,0,0,0,288,4.15c-1.24,0-1.9,1.41-1.9,3.26Z"/><path class="cls-5" d="M293.5,7.72c0,1.69.69,3,2.07,3a1.85,1.85,0,0,0,1.82-1.61h1a3.21,3.21,0,0,1-1,1.91,2.71,2.71,0,0,1-1.79.64c-2.24,0-3.11-2.15-3.11-4.24,0-2.52,1.16-4.27,3.08-4.27a2.52,2.52,0,0,1,2.18,1.15,5.9,5.9,0,0,1,.74,3.4Zm3.95-.88c0-1.69-.73-2.82-2-2.82s-2,1.21-2,2.82Z"/><path class="cls-5" d="M303.72.43h1V11.49h-1Z"/><path class="cls-5" d="M307.76.43h1.09l-1.18,2.83h-1Z"/><path class="cls-5" d="M311.3,7.72c0,1.69.69,3,2.06,3a1.84,1.84,0,0,0,1.82-1.61h1a3.22,3.22,0,0,1-1,1.91,2.69,2.69,0,0,1-1.79.64c-2.24,0-3.11-2.15-3.11-4.24,0-2.52,1.17-4.27,3.08-4.27a2.51,2.51,0,0,1,2.18,1.15,5.91,5.91,0,0,1,.75,3.4Zm3.94-.88c0-1.69-.73-2.82-1.95-2.82s-2,1.21-2,2.82Z"/><path class="cls-5" d="M318.9,7.35l-2.09-4H318l1.55,3.2,1.57-3.2h1.12l-2.11,4,2.21,4.14h-1.15L319.5,8.16l-1.64,3.33h-1.14Z"/><path class="cls-5" d="M325.91,6.81v1h-3.17v-1Z"/><path class="cls-5" d="M156.75,18.3h.93c0,.61,0,1.06,0,1.56a2.19,2.19,0,0,1,2.14-1.75c1.63,0,2.73,1.69,2.73,4.27s-1,4.24-2.73,4.24A2.2,2.2,0,0,1,157.72,25c0,.36,0,.78,0,1.48v3h-1Zm4.78,4.05c0-1.84-.64-3.26-1.89-3.26a1.56,1.56,0,0,0-1.39.9,4.28,4.28,0,0,0-.5,2.38,4.33,4.33,0,0,0,.5,2.37,1.56,1.56,0,0,0,1.39.9c1.25,0,1.89-1.42,1.89-3.27Z"/><path class="cls-5" d="M164.72,22.66c0,1.69.68,3,2.06,3a1.85,1.85,0,0,0,1.82-1.61h1a3.28,3.28,0,0,1-1,1.91,2.71,2.71,0,0,1-1.79.64c-2.24,0-3.11-2.15-3.11-4.24,0-2.52,1.17-4.27,3.08-4.27a2.52,2.52,0,0,1,2.18,1.15,5.91,5.91,0,0,1,.75,3.4Zm3.94-.88c0-1.69-.73-2.82-2-2.82s-1.95,1.21-2,2.82Z"/><path class="cls-5" d="M171.22,18.3h.92c0,.75,0,1.21,0,1.71a2.2,2.2,0,0,1,2.17-1.9v1.16a.72.72,0,0,0-.38-.1c-.68,0-1.68.85-1.68,2.9v4.36h-1Z"/><path class="cls-5" d="M175.82,19.24h-1.14V18.3h1.14V15.73h1V18.3h1.12v.94h-1.12v7.19h-1Z"/><path class="cls-5" d="M179.28,15.37h1v1.47h-1Zm0,2.93h1v8.13h-1Z"/><path class="cls-5" d="M185.65,20.41c0-1-.54-1.41-1.32-1.41a1.15,1.15,0,0,0-1.18,1.21c0,.92.76,1.24,1.75,1.54a2.37,2.37,0,0,1,1.94,2.45,2.33,2.33,0,0,1-2.42,2.42A2.4,2.4,0,0,1,181.88,24h1a1.49,1.49,0,0,0,1.55,1.66,1.31,1.31,0,0,0,1.38-1.42c0-1-.69-1.38-1.78-1.72a2.28,2.28,0,0,1-1.91-2.32,2.26,2.26,0,0,1,4.52.17Z"/><path class="cls-5" d="M189,22.66c0,1.69.69,3,2.06,3a1.84,1.84,0,0,0,1.82-1.61h1a3.22,3.22,0,0,1-1,1.91,2.69,2.69,0,0,1-1.79.64c-2.24,0-3.11-2.15-3.11-4.24,0-2.52,1.17-4.27,3.08-4.27a2.51,2.51,0,0,1,2.18,1.15,5.91,5.91,0,0,1,.75,3.4Zm3.94-.88c0-1.69-.73-2.82-1.95-2.82s-2,1.21-2,2.82Z"/><path class="cls-5" d="M199.78,22.66c0,1.69.69,3,2.06,3a1.85,1.85,0,0,0,1.83-1.61h1a3.27,3.27,0,0,1-1,1.91,2.73,2.73,0,0,1-1.8.64c-2.24,0-3.1-2.15-3.1-4.24,0-2.52,1.16-4.27,3.07-4.27A2.5,2.5,0,0,1,204,19.26a5.83,5.83,0,0,1,.75,3.4Zm3.95-.88c0-1.69-.74-2.82-2-2.82s-2,1.21-2,2.82Z"/><path class="cls-5" d="M206.67,19.24h-1.14V18.3h1.14V15.73h1V18.3h1.12v.94h-1.12v7.19h-1Z"/><path class="cls-5" d="M219,26.43H218c0-.75,0-1.2,0-1.61a2.2,2.2,0,0,1-2.15,1.8c-1.61,0-2.72-1.7-2.72-4.24s1-4.27,2.72-4.27A2.13,2.13,0,0,1,218,19.83c0-.48,0-.93,0-1.53V15.37h1Zm-4.78-4.06c0,1.83.66,3.25,1.9,3.25a1.6,1.6,0,0,0,1.42-.89,4.55,4.55,0,0,0,.46-2.38A4.49,4.49,0,0,0,217.5,20a1.62,1.62,0,0,0-1.42-.89c-1.24,0-1.9,1.41-1.9,3.26Z"/><path class="cls-5" d="M226.39,26.43h-.93c0-.46,0-.91,0-1.42a2.28,2.28,0,0,1-2.27,1.61c-1.39,0-2.33-.8-2.33-2.78V18.3h1v5.23c0,.82.12,2.11,1.56,2.11,1.18,0,1.94-.82,1.94-2.53V18.3h1Z"/><path class="cls-5" d="M235.24,20.41c0-1-.54-1.41-1.32-1.41a1.15,1.15,0,0,0-1.18,1.21c0,.92.76,1.24,1.75,1.54a2.37,2.37,0,0,1,1.94,2.45A2.33,2.33,0,0,1,234,26.62,2.4,2.4,0,0,1,231.47,24h1A1.49,1.49,0,0,0,234,25.7a1.31,1.31,0,0,0,1.38-1.42c0-1-.69-1.38-1.78-1.72a2.29,2.29,0,0,1-1.92-2.32,2.27,2.27,0,0,1,4.53.17Z"/><path class="cls-5" d="M237.55,22.35c0-2.31,1-4.24,3.14-4.24s3.12,1.93,3.12,4.26-.95,4.25-3.12,4.25-3.14-1.92-3.14-4.25Zm1,0c0,2.15.7,3.3,2.1,3.3s2.07-1.15,2.07-3.31-.71-3.32-2.1-3.32-2.07,1.15-2.07,3.32Z"/><path class="cls-5" d="M250.8,26.43h-.92c0-.46,0-.91,0-1.42a2.29,2.29,0,0,1-2.27,1.61c-1.39,0-2.33-.8-2.33-2.78V18.3h1v5.23c0,.82.12,2.11,1.55,2.11,1.18,0,1.94-.82,1.94-2.53V18.3h1Z"/><path class="cls-5" d="M253.17,19.24H252V18.3h1.14V15.73h1V18.3h1.12v.94h-1.12v7.19h-1Z"/><path class="cls-5" d="M256.63,15.37h1v1.47h-1Zm0,2.93h1v8.13h-1Z"/><path class="cls-5" d="M260.37,22.66c0,1.69.68,3,2.06,3a1.85,1.85,0,0,0,1.82-1.61h1a3.28,3.28,0,0,1-1,1.91,2.69,2.69,0,0,1-1.79.64c-2.24,0-3.11-2.15-3.11-4.24,0-2.52,1.17-4.27,3.08-4.27a2.51,2.51,0,0,1,2.18,1.15,5.91,5.91,0,0,1,.75,3.4Zm3.94-.88c0-1.69-.73-2.82-2-2.82s-2,1.21-2,2.82Z"/><path class="cls-5" d="M266.87,18.3h.89c0,.47,0,.88,0,1.39a2.32,2.32,0,0,1,2.3-1.58c1.39,0,2.33.8,2.33,2.78v5.54h-1V21.2c0-.82-.12-2.11-1.55-2.11-1.18,0-1.94.83-1.94,2.53v4.81h-1Z"/><path class="cls-5" d="M158,34.18v7.19h-1V34.18h-.92v-.94H157v-.61a2.25,2.25,0,0,1,2.42-2.51V31c-.75.05-1.42.41-1.42,1.72v.52h3.09v8.13h-1V34.18Zm2.09-2.39V30.32h1v1.47Z"/><path class="cls-5" d="M163.16,33.24h.9c0,.47,0,.88,0,1.39a2.32,2.32,0,0,1,2.3-1.58c1.39,0,2.33.81,2.33,2.78v5.54h-1V36.14c0-.82-.12-2.11-1.56-2.11-1.18,0-1.94.83-1.94,2.53v4.81h-1Z"/><path class="cls-5" d="M175.94,41.37H175c0-.72,0-1.17,0-1.55a2.23,2.23,0,0,1-2.15,1.74c-1.61,0-2.72-1.7-2.72-4.24s1-4.27,2.72-4.27A2.19,2.19,0,0,1,175,34.81c0-.49,0-1,0-1.57h.93Zm-4.79-4c0,1.84.66,3.26,1.9,3.26a1.61,1.61,0,0,0,1.42-.9,4.46,4.46,0,0,0,.46-2.37,4.41,4.41,0,0,0-.46-2.38,1.61,1.61,0,0,0-1.42-.9c-1.24,0-1.9,1.42-1.9,3.28Z"/><path class="cls-5" d="M177.91,33.24h.89c0,.47,0,.88,0,1.39a2.3,2.3,0,0,1,2.3-1.58c1.38,0,2.33.81,2.33,2.78v5.54h-1V36.14c0-.82-.11-2.11-1.55-2.11-1.18,0-1.94.83-1.94,2.53v4.81h-1Z"/><path class="cls-5" d="M190.68,38.61c-.18,1.65-1.07,3-2.69,3-2.16,0-3.13-2-3.13-4.24,0-2.66,1.25-4.27,3.09-4.27,1.67,0,2.61,1.28,2.69,3h-1c-.16-1.61-.94-2.06-1.7-2.06a1.58,1.58,0,0,0-1.48.87,4.79,4.79,0,0,0-.52,2.45c0,2.13.73,3.31,2,3.31,1,0,1.57-.8,1.72-2Z"/><path class="cls-5" d="M192.1,30.32h1v1.46h-1Zm0,2.92h1v8.13h-1Z"/><path class="cls-5" d="M195.84,37.6c0,1.69.68,3,2.06,3A1.85,1.85,0,0,0,199.72,39h1a3.25,3.25,0,0,1-1,1.91,2.69,2.69,0,0,1-1.79.64c-2.24,0-3.11-2.15-3.11-4.24,0-2.52,1.17-4.27,3.08-4.27a2.52,2.52,0,0,1,2.18,1.15,5.91,5.91,0,0,1,.75,3.4Zm3.94-.88c0-1.68-.73-2.82-2-2.82s-1.95,1.21-2,2.82Z"/><path class="cls-5" d="M202.34,33.24h.92c0,.75,0,1.21,0,1.71a2.21,2.21,0,0,1,2.17-1.9v1.16a.71.71,0,0,0-.37-.1c-.69,0-1.69.85-1.69,2.9v4.36h-1Z"/><path class="cls-5" d="M215.42,41.37h-.92c0-.75,0-1.2,0-1.61a2.2,2.2,0,0,1-2.15,1.8c-1.61,0-2.72-1.7-2.72-4.24s1-4.27,2.72-4.27a2.13,2.13,0,0,1,2.09,1.72c0-.48,0-.93,0-1.53V30.32h1Zm-4.78-4.06c0,1.83.66,3.25,1.9,3.25a1.6,1.6,0,0,0,1.42-.89,4.55,4.55,0,0,0,.46-2.38,4.51,4.51,0,0,0-.46-2.37,1.62,1.62,0,0,0-1.42-.89c-1.24,0-1.9,1.41-1.9,3.26Z"/><path class="cls-5" d="M222.85,41.37h-.93c0-.46,0-.91,0-1.42a2.27,2.27,0,0,1-2.27,1.61c-1.39,0-2.33-.8-2.33-2.77V33.24h1v5.23c0,.82.12,2.11,1.56,2.11,1.18,0,1.94-.82,1.94-2.53V33.24h1Z"/><path class="cls-5" d="M228.45,33.24h1c0,.42,0,.85,0,1.33a2,2,0,0,1,2.06-1.52,1.74,1.74,0,0,1,1.87,1.52,2.23,2.23,0,0,1,.67-1,2.46,2.46,0,0,1,1.49-.49,2.1,2.1,0,0,1,1.9,1,4.92,4.92,0,0,1,.37,2.23v5h-1v-5a5,5,0,0,0-.16-1.51,1.24,1.24,0,0,0-1.24-.86,1.47,1.47,0,0,0-1.31.66,3.15,3.15,0,0,0-.44,1.78v4.9h-1V36.44a4.83,4.83,0,0,0-.16-1.55A1.24,1.24,0,0,0,231.2,34a1.52,1.52,0,0,0-1.31.63,3.21,3.21,0,0,0-.44,1.84v4.87h-1Z"/><path class="cls-5" d="M239.82,30.32h1v1.46h-1Zm0,2.92h1v8.13h-1Z"/><path class="cls-5" d="M242.92,33.24h.89c0,.47,0,.88,0,1.39a2.32,2.32,0,0,1,2.3-1.58c1.39,0,2.33.81,2.33,2.78v5.54h-1V36.14c0-.82-.12-2.11-1.55-2.11-1.18,0-1.94.83-1.94,2.53v4.81h-1Z"/><path class="cls-5" d="M250.46,30.32h1v1.46h-1Zm0,2.92h1v8.13h-1Z"/><path class="cls-5" d="M256.82,35.35c0-1-.53-1.4-1.31-1.4a1.14,1.14,0,0,0-1.18,1.21c0,.91.76,1.24,1.75,1.53A2.38,2.38,0,0,1,258,39.14a2.33,2.33,0,0,1-2.42,2.42A2.4,2.4,0,0,1,253.06,39h1a1.49,1.49,0,0,0,1.55,1.66A1.3,1.3,0,0,0,257,39.22c0-1-.68-1.38-1.77-1.72a2.29,2.29,0,0,1-1.92-2.31,2.27,2.27,0,0,1,4.53.16Z"/><path class="cls-5" d="M260,34.18h-1.13v-.94H260V30.67h1v2.57h1.12v.94H261v7.19h-1Z"/><path class="cls-5" d="M263.76,37.6c0,1.69.68,3,2.06,3A1.84,1.84,0,0,0,267.64,39h1a3.19,3.19,0,0,1-1,1.91,2.69,2.69,0,0,1-1.79.64c-2.24,0-3.11-2.15-3.11-4.24,0-2.52,1.17-4.27,3.08-4.27A2.51,2.51,0,0,1,268,34.2a5.91,5.91,0,0,1,.75,3.4Zm3.57-5.84-.38.71-3.33-1.78.41-.81Zm.37,5c0-1.68-.73-2.82-2-2.82s-1.95,1.21-2,2.82Z"/><path class="cls-5" d="M270.26,33.24h.92c0,.75,0,1.21,0,1.71a2.21,2.21,0,0,1,2.17-1.9v1.16a.71.71,0,0,0-.37-.1c-.69,0-1.69.85-1.69,2.9v4.36h-1Z"/><path class="cls-5" d="M274.86,37.6c0,1.69.69,3,2.06,3A1.84,1.84,0,0,0,278.74,39h1a3.19,3.19,0,0,1-1,1.91,2.69,2.69,0,0,1-1.79.64c-2.24,0-3.11-2.15-3.11-4.24,0-2.52,1.17-4.27,3.08-4.27a2.51,2.51,0,0,1,2.18,1.15,5.91,5.91,0,0,1,.75,3.4Zm3.94-.88c0-1.68-.73-2.82-1.95-2.82s-2,1.21-2,2.82Z"/><path class="cls-5" d="M285.6,37.6c0,1.69.69,3,2.06,3A1.85,1.85,0,0,0,289.49,39h1a3.24,3.24,0,0,1-1,1.91,2.73,2.73,0,0,1-1.8.64c-2.24,0-3.1-2.15-3.1-4.24,0-2.52,1.16-4.27,3.07-4.27a2.5,2.5,0,0,1,2.18,1.15,5.83,5.83,0,0,1,.75,3.4Zm3.95-.88c0-1.68-.74-2.82-2-2.82s-2,1.21-2,2.82Z"/><path class="cls-5" d="M292.1,33.24h.9c0,.47,0,.88,0,1.39a2.32,2.32,0,0,1,2.3-1.58c1.39,0,2.33.81,2.33,2.78v5.54h-1V36.14c0-.82-.12-2.11-1.56-2.11-1.18,0-1.94.83-1.94,2.53v4.81h-1Z"/><path class="cls-5" d="M162.1,53.55c-.18,1.66-1.07,3-2.69,3-2.17,0-3.14-2-3.14-4.24,0-2.66,1.26-4.27,3.1-4.27,1.67,0,2.61,1.28,2.69,3h-1c-.16-1.61-.94-2.06-1.7-2.06a1.57,1.57,0,0,0-1.48.87,4.79,4.79,0,0,0-.53,2.45c0,2.13.74,3.31,2,3.31,1,0,1.57-.8,1.72-2Z"/><path class="cls-5" d="M163.4,45.26h1v2.86c0,.44,0,.86,0,1.35A2.11,2.11,0,0,1,166.55,48a2.18,2.18,0,0,1,1.75.73,3.24,3.24,0,0,1,.6,2.24v5.35h-1V51.26a2.92,2.92,0,0,0-.38-1.76,1.4,1.4,0,0,0-1.18-.52,1.67,1.67,0,0,0-1.43.65,3.07,3.07,0,0,0-.51,2.06v4.62h-1Z"/><path class="cls-5" d="M176.17,56.31h-.92c0-.72,0-1.16,0-1.55a2.23,2.23,0,0,1-2.15,1.74c-1.61,0-2.72-1.7-2.72-4.24s1-4.27,2.72-4.27a2.19,2.19,0,0,1,2.15,1.76c0-.49,0-1,0-1.57h.92Zm-4.78-4.05c0,1.84.66,3.26,1.9,3.26a1.59,1.59,0,0,0,1.42-.9,4.56,4.56,0,0,0,.46-2.37,4.5,4.5,0,0,0-.46-2.38,1.6,1.6,0,0,0-1.42-.89c-1.24,0-1.9,1.42-1.9,3.27Z"/><path class="cls-5" d="M178.15,48.18h.92c0,.75,0,1.21,0,1.71a2.21,2.21,0,0,1,2.17-1.9v1.17a.64.64,0,0,0-.37-.11c-.69,0-1.69.85-1.69,2.9v4.36h-1Z"/><path class="cls-5" d="M187.46,56.16a3.57,3.57,0,0,1-.69,2.44,2.73,2.73,0,0,1-2.18.89,2.66,2.66,0,0,1-2.74-2.55h1a1.78,1.78,0,0,0,.46,1.13,1.81,1.81,0,0,0,1.3.5c.85,0,1.84-.39,1.84-2.33,0-.39,0-.92,0-1.45a2.12,2.12,0,0,1-2.1,1.71c-1.74,0-2.72-1.76-2.72-4.24s1-4.27,2.72-4.27a2.23,2.23,0,0,1,2.2,1.76c0-.49,0-1,0-1.57h.89Zm-4.78-3.9c0,1.84.65,3.26,1.89,3.26a1.59,1.59,0,0,0,1.42-.9,4.46,4.46,0,0,0,.46-2.37,4.41,4.41,0,0,0-.46-2.38,1.6,1.6,0,0,0-1.42-.89c-1.24,0-1.89,1.42-1.89,3.27Z"/><path class="cls-5" d="M190.07,52.55c0,1.68.69,3,2.06,3A1.85,1.85,0,0,0,194,54h1a3.24,3.24,0,0,1-1,1.91,2.73,2.73,0,0,1-1.8.64c-2.24,0-3.1-2.15-3.1-4.24,0-2.52,1.16-4.27,3.07-4.27a2.5,2.5,0,0,1,2.18,1.15,5.86,5.86,0,0,1,.75,3.41Zm4-.89c0-1.68-.74-2.82-2-2.82s-2,1.21-2,2.82Z"/><path class="cls-5" d="M205.52,56.31h-.93c0-.75,0-1.19,0-1.61a2.21,2.21,0,0,1-2.15,1.8c-1.62,0-2.72-1.7-2.72-4.24s1-4.27,2.72-4.27a2.14,2.14,0,0,1,2.09,1.72c0-.48,0-.93,0-1.53V45.26h1Zm-4.78-4.06c0,1.83.66,3.25,1.9,3.25a1.6,1.6,0,0,0,1.42-.89,4.55,4.55,0,0,0,.46-2.38,4.51,4.51,0,0,0-.46-2.37,1.61,1.61,0,0,0-1.42-.88c-1.24,0-1.9,1.4-1.9,3.25Z"/><path class="cls-5" d="M208.13,52.55c0,1.68.69,3,2.07,3A1.85,1.85,0,0,0,212,54h1a3.19,3.19,0,0,1-1,1.91,2.71,2.71,0,0,1-1.79.64c-2.24,0-3.11-2.15-3.11-4.24,0-2.52,1.16-4.27,3.08-4.27a2.52,2.52,0,0,1,2.18,1.15,5.93,5.93,0,0,1,.74,3.41Zm4-.89c0-1.68-.73-2.82-2-2.82s-2,1.21-2,2.82Z"/><path class="cls-5" d="M218.35,45.26h1V56.31h-1Z"/><path class="cls-5" d="M222.39,45.26h1.09l-1.18,2.82h-1Z"/><path class="cls-5" d="M225.93,52.55c0,1.68.69,3,2.06,3A1.84,1.84,0,0,0,229.81,54h1a3.19,3.19,0,0,1-1,1.91,2.69,2.69,0,0,1-1.79.64c-2.24,0-3.11-2.15-3.11-4.24,0-2.52,1.17-4.27,3.08-4.27a2.51,2.51,0,0,1,2.18,1.15,5.94,5.94,0,0,1,.75,3.41Zm3.94-.89c0-1.68-.73-2.82-2-2.82s-2,1.21-2,2.82Z"/><path class="cls-5" d="M232.46,48.18h.95c0,.42,0,.86,0,1.33A2,2,0,0,1,235.45,48a1.92,1.92,0,0,1,1.41.55,1.86,1.86,0,0,1,.45,1,2.3,2.3,0,0,1,.68-1,2.46,2.46,0,0,1,1.49-.49,2.09,2.09,0,0,1,1.9,1,5,5,0,0,1,.37,2.22v5.05h-1v-5a4.68,4.68,0,0,0-.17-1.51,1.23,1.23,0,0,0-1.24-.85,1.49,1.49,0,0,0-1.31.65,3.22,3.22,0,0,0-.43,1.78v4.9h-1V51.38a4.81,4.81,0,0,0-.17-1.55,1.22,1.22,0,0,0-1.22-.85,1.54,1.54,0,0,0-1.32.62,3.2,3.2,0,0,0-.43,1.84v4.87h-1Z"/><path class="cls-5" d="M243.71,48.18h.92c0,.62,0,1.06,0,1.56A2.18,2.18,0,0,1,246.76,48c1.62,0,2.73,1.69,2.73,4.27s-1,4.24-2.73,4.24a2.2,2.2,0,0,1-2.08-1.67c0,.36,0,.78,0,1.48v3h-1Zm4.78,4c0-1.83-.64-3.25-1.9-3.25a1.56,1.56,0,0,0-1.39.89,4.29,4.29,0,0,0-.49,2.38,4.34,4.34,0,0,0,.49,2.37,1.55,1.55,0,0,0,1.39.9c1.26,0,1.9-1.42,1.9-3.27Z"/><path class="cls-5" d="M251.15,45.26h1V56.31h-1Z"/><path class="cls-5" d="M253.81,52.23c0-2.31.95-4.24,3.13-4.24s3.13,1.93,3.13,4.26-1,4.25-3.13,4.25-3.13-1.92-3.13-4.25Zm1,0c0,2.15.71,3.3,2.11,3.3S259,54.41,259,52.25s-.7-3.32-2.09-3.32-2.08,1.15-2.08,3.32Z"/><path class="cls-5" d="M261.73,45.26h1v1.46h-1Zm0,2.92h1v8.13h-1Z"/><path class="cls-5" d="M265.37,57.55h-.88l1-2.82h1Z"/><path class="cls-5" d="M276.11,56.31h-.92c0-.75,0-1.19,0-1.61a2.2,2.2,0,0,1-2.15,1.8c-1.61,0-2.72-1.7-2.72-4.24s1-4.27,2.72-4.27a2.13,2.13,0,0,1,2.09,1.72c0-.48,0-.93,0-1.53V45.26h1Zm-4.78-4.06c0,1.83.66,3.25,1.9,3.25a1.6,1.6,0,0,0,1.42-.89,4.55,4.55,0,0,0,.46-2.38,4.51,4.51,0,0,0-.46-2.37,1.61,1.61,0,0,0-1.42-.88c-1.24,0-1.9,1.4-1.9,3.25Z"/><path class="cls-5" d="M283.44,56.31h-.93c0-.72,0-1.16,0-1.55a2.23,2.23,0,0,1-2.15,1.74c-1.61,0-2.72-1.7-2.72-4.24s1-4.27,2.72-4.27a2.19,2.19,0,0,1,2.15,1.76c0-.49,0-1,0-1.57h.93Zm-4.79-4.05c0,1.84.66,3.26,1.9,3.26a1.59,1.59,0,0,0,1.42-.9,4.46,4.46,0,0,0,.46-2.37,4.41,4.41,0,0,0-.46-2.38,1.6,1.6,0,0,0-1.42-.89c-1.24,0-1.9,1.42-1.9,3.27Z"/><path class="cls-5" d="M285.41,48.18h.89c0,.47,0,.89,0,1.39a2.3,2.3,0,0,1,2.3-1.58c1.38,0,2.33.81,2.33,2.78v5.54h-1V51.08c0-.82-.11-2.1-1.55-2.1-1.18,0-1.94.82-1.94,2.52v4.81h-1Z"/><path class="cls-5" d="M296.11,50.29c0-1-.54-1.4-1.32-1.4a1.14,1.14,0,0,0-1.18,1.21c0,.91.76,1.24,1.75,1.53a2.38,2.38,0,0,1,1.94,2.45,2.33,2.33,0,0,1-2.42,2.42,2.4,2.4,0,0,1-2.54-2.58h1a1.48,1.48,0,0,0,1.55,1.66,1.31,1.31,0,0,0,1.38-1.42c0-1-.69-1.37-1.78-1.72a2.27,2.27,0,0,1-1.91-2.31,2.26,2.26,0,0,1,4.52.16Z"/><path class="cls-5" d="M302.58,45.26h1V56.31h-1Z"/><path class="cls-5" d="M306.31,52.55c0,1.68.69,3,2.06,3A1.83,1.83,0,0,0,310.19,54h1a3.19,3.19,0,0,1-1,1.91,2.69,2.69,0,0,1-1.79.64c-2.24,0-3.1-2.15-3.1-4.24,0-2.52,1.16-4.27,3.07-4.27a2.5,2.5,0,0,1,2.18,1.15,5.94,5.94,0,0,1,.75,3.41Zm3.94-.89c0-1.68-.73-2.82-1.95-2.82s-2,1.21-2,2.82Z"/><path class="cls-5" d="M162.1,68.49c-.18,1.66-1.07,3-2.69,3-2.17,0-3.14-2-3.14-4.25,0-2.66,1.26-4.27,3.1-4.27,1.67,0,2.61,1.29,2.69,3h-1c-.16-1.61-.94-2.06-1.7-2.06a1.57,1.57,0,0,0-1.48.87,4.79,4.79,0,0,0-.53,2.45c0,2.13.74,3.31,2,3.31,1,0,1.57-.8,1.72-2Z"/><path class="cls-5" d="M168.75,71.25h-.93c0-.71,0-1.16,0-1.55a2.24,2.24,0,0,1-2.15,1.75c-1.62,0-2.72-1.71-2.72-4.25s1-4.27,2.72-4.27a2.19,2.19,0,0,1,2.15,1.76c0-.49,0-.95,0-1.56h.93Zm-4.78-4c0,1.84.66,3.26,1.9,3.26a1.57,1.57,0,0,0,1.41-.9,4.43,4.43,0,0,0,.47-2.37,4.42,4.42,0,0,0-.47-2.38,1.58,1.58,0,0,0-1.41-.89c-1.24,0-1.9,1.42-1.9,3.27Z"/><path class="cls-5" d="M176.07,71.25h-.93c0-.75,0-1.19,0-1.61A2.22,2.22,0,0,1,173,71.45c-1.62,0-2.72-1.71-2.72-4.25s1-4.27,2.72-4.27a2.13,2.13,0,0,1,2.09,1.72c0-.48,0-.93,0-1.52V60.2h1Zm-4.78-4.06c0,1.84.66,3.26,1.9,3.26a1.61,1.61,0,0,0,1.42-.9,4.55,4.55,0,0,0,.46-2.38,4.53,4.53,0,0,0-.46-2.37,1.61,1.61,0,0,0-1.42-.88c-1.24,0-1.9,1.4-1.9,3.25Z"/><path class="cls-5" d="M178,63.13H179c0,.74,0,1.21,0,1.7a2.21,2.21,0,0,1,2.17-1.9V64.1a.65.65,0,0,0-.38-.11c-.69,0-1.69.85-1.69,2.9v4.36h-1Z"/><path class="cls-5" d="M182.65,67.49c0,1.69.68,3,2.06,3a1.85,1.85,0,0,0,1.82-1.61h1a3.25,3.25,0,0,1-1,1.91,2.72,2.72,0,0,1-1.79.65c-2.24,0-3.11-2.16-3.11-4.25,0-2.52,1.17-4.27,3.08-4.27a2.52,2.52,0,0,1,2.18,1.15,5.94,5.94,0,0,1,.75,3.41Zm3.94-.88c0-1.69-.73-2.83-2-2.83s-1.95,1.21-2,2.83Z"/><path class="cls-5" d="M198.09,71.25h-.92c0-.75,0-1.19,0-1.61A2.21,2.21,0,0,1,195,71.45c-1.61,0-2.72-1.71-2.72-4.25s1-4.27,2.72-4.27a2.13,2.13,0,0,1,2.09,1.72c0-.48,0-.93,0-1.52V60.2h1Zm-4.78-4.06c0,1.84.66,3.26,1.9,3.26a1.61,1.61,0,0,0,1.42-.9,4.55,4.55,0,0,0,.46-2.38,4.53,4.53,0,0,0-.46-2.37,1.61,1.61,0,0,0-1.42-.88c-1.24,0-1.9,1.4-1.9,3.25Z"/><path class="cls-5" d="M200.71,67.49c0,1.69.69,3,2.06,3a1.84,1.84,0,0,0,1.82-1.61h1a3.19,3.19,0,0,1-1,1.91,2.7,2.7,0,0,1-1.79.65c-2.24,0-3.11-2.16-3.11-4.25,0-2.52,1.17-4.27,3.08-4.27a2.51,2.51,0,0,1,2.18,1.15,5.94,5.94,0,0,1,.75,3.41Zm3.94-.88c0-1.69-.73-2.83-2-2.83s-2,1.21-2,2.83Z"/><path class="cls-5" d="M210.93,60.2h1v11h-1Z"/><path class="cls-5" d="M215,60.2h1.09L214.87,63h-1Z"/><path class="cls-5" d="M218,71.25h-1.15l3.16-11h1.1l3.2,11h-1.14L222.22,68h-3.31Zm2.57-9.6L219.2,67h2.72Z"/><path class="cls-5" d="M225.27,60.2h2.54a4,4,0,0,1,3.62,1.6,6.89,6.89,0,0,1,1,3.92c0,4.23-2.06,5.53-4.56,5.53h-2.57Zm1.12,10h1.36c2.6,0,3.51-1.66,3.51-4.5a5.67,5.67,0,0,0-.78-3.37,3.08,3.08,0,0,0-2.76-1.12h-1.33Z"/><path class="cls-5" d="M234,60.2h5.18v1h-4.06v3.85h4.06v1h-4.06v4.11h4.06v1H234Z"/><path class="cls-5" d="M247.9,67.65c0,1.91-1.12,3.8-3.45,3.8s-3.84-2-3.84-5.73c0-3.49,1.3-5.72,3.84-5.72,2.33,0,3.47,2,3.45,4h-1.1c0-1.45-.6-3-2.29-3-1.92,0-2.74,1.87-2.74,4.78,0,3.14,1.16,4.57,2.74,4.57s2.23-1.42,2.29-2.75Z"/><path class="cls-5" d="M258.27,71.25h-.92c0-.75,0-1.19,0-1.61a2.21,2.21,0,0,1-2.15,1.81c-1.61,0-2.72-1.71-2.72-4.25s1-4.27,2.72-4.27a2.13,2.13,0,0,1,2.09,1.72c0-.48,0-.93,0-1.52V60.2h1Zm-4.78-4.06c0,1.84.66,3.26,1.9,3.26a1.61,1.61,0,0,0,1.42-.9,4.55,4.55,0,0,0,.46-2.38,4.53,4.53,0,0,0-.46-2.37,1.61,1.61,0,0,0-1.42-.88c-1.24,0-1.9,1.4-1.9,3.25Z"/><path class="cls-5" d="M260.89,67.49c0,1.69.69,3,2.06,3a1.84,1.84,0,0,0,1.82-1.61h1a3.19,3.19,0,0,1-1,1.91,2.7,2.7,0,0,1-1.79.65c-2.24,0-3.11-2.16-3.11-4.25,0-2.52,1.17-4.27,3.08-4.27a2.51,2.51,0,0,1,2.18,1.15,5.94,5.94,0,0,1,.75,3.41Zm3.94-.88c0-1.69-.73-2.83-1.95-2.83s-2,1.21-2,2.83Z"/><path class="cls-5" d="M271.11,60.2h1v11h-1Z"/><path class="cls-5" d="M279.55,71.25h-.93c0-.71,0-1.16,0-1.55a2.24,2.24,0,0,1-2.15,1.75c-1.62,0-2.72-1.71-2.72-4.25s1-4.27,2.72-4.27a2.19,2.19,0,0,1,2.15,1.76c0-.49,0-.95,0-1.56h.93Zm-4.78-4c0,1.84.66,3.26,1.9,3.26a1.59,1.59,0,0,0,1.42-.9,4.53,4.53,0,0,0,.46-2.37,4.53,4.53,0,0,0-.46-2.38,1.6,1.6,0,0,0-1.42-.89c-1.24,0-1.9,1.42-1.9,3.27Z"/><path class="cls-5" d="M285.12,60.2h1v2.93c0,.71,0,1.16,0,1.55a2.17,2.17,0,0,1,2.08-1.75c1.72,0,2.73,1.76,2.73,4.24s-1.1,4.28-2.73,4.28A2.19,2.19,0,0,1,286,69.68c0,.5,0,1,0,1.57h-.93Zm4.78,7c0-1.74-.61-3.25-1.88-3.25s-1.9,1.64-1.9,3.27.5,3.27,1.9,3.27,1.88-1.51,1.88-3.27Z"/><path class="cls-5" d="M292.44,63.13h.93c0,.74,0,1.21,0,1.7a2.21,2.21,0,0,1,2.17-1.9V64.1a.65.65,0,0,0-.38-.11c-.68,0-1.69.85-1.69,2.9v4.36h-1Z"/><path class="cls-5" d="M301.75,71.25h-.93c0-.71,0-1.16,0-1.55a2.24,2.24,0,0,1-2.15,1.75c-1.61,0-2.72-1.71-2.72-4.25s1-4.27,2.72-4.27a2.19,2.19,0,0,1,2.15,1.76c0-.49,0-.95,0-1.56h.93Zm-4.78-4c0,1.84.66,3.26,1.9,3.26a1.59,1.59,0,0,0,1.42-.9,4.53,4.53,0,0,0,.46-2.37,4.53,4.53,0,0,0-.46-2.38,1.6,1.6,0,0,0-1.42-.89c-1.24,0-1.9,1.42-1.9,3.27Z"/><path class="cls-5" d="M303.73,63.13h.89c0,.46,0,.88,0,1.38a2.32,2.32,0,0,1,2.3-1.58c1.39,0,2.33.81,2.33,2.78v5.54h-1V66c0-.82-.12-2.1-1.55-2.1-1.18,0-1.94.82-1.94,2.52v4.81h-1Z"/><path class="cls-5" d="M316.5,68.49c-.18,1.66-1.08,3-2.69,3-2.17,0-3.14-2-3.14-4.25,0-2.66,1.26-4.27,3.1-4.27,1.67,0,2.61,1.29,2.68,3h-1c-.17-1.61-.94-2.06-1.7-2.06a1.57,1.57,0,0,0-1.48.87,4.79,4.79,0,0,0-.53,2.45c0,2.13.74,3.31,2,3.31,1,0,1.57-.8,1.72-2Z"/><path class="cls-5" d="M317.8,60.2h1v2.87c0,.43,0,.85,0,1.34A2.1,2.1,0,0,1,321,62.93a2.21,2.21,0,0,1,1.75.73,3.24,3.24,0,0,1,.6,2.24v5.35h-1v-5a2.94,2.94,0,0,0-.38-1.76,1.41,1.41,0,0,0-1.18-.52,1.67,1.67,0,0,0-1.43.65,3,3,0,0,0-.51,2.07v4.61h-1Z"/><path class="cls-5" d="M325.87,67.49c0,1.69.68,3,2.06,3a1.85,1.85,0,0,0,1.82-1.61h1a3.25,3.25,0,0,1-1,1.91,2.7,2.7,0,0,1-1.79.65c-2.24,0-3.11-2.16-3.11-4.25,0-2.52,1.17-4.27,3.08-4.27a2.51,2.51,0,0,1,2.18,1.15,5.94,5.94,0,0,1,.75,3.41Zm3.94-.88c0-1.69-.73-2.83-2-2.83s-2,1.21-2,2.83Z"/><path class="cls-5" d="M162.1,86.19h-.93c0-.74,0-1.19,0-1.61A2.22,2.22,0,0,1,159,86.39c-1.62,0-2.72-1.71-2.72-4.25s1-4.27,2.72-4.27a2.14,2.14,0,0,1,2.09,1.72c0-.48,0-.93,0-1.52V75.14h1Zm-4.78-4.06c0,1.84.66,3.26,1.9,3.26a1.61,1.61,0,0,0,1.42-.9,6.36,6.36,0,0,0,0-4.75,1.61,1.61,0,0,0-1.42-.88c-1.24,0-1.9,1.4-1.9,3.25Z"/><path class="cls-5" d="M164.72,82.43c0,1.69.68,3,2.06,3a1.86,1.86,0,0,0,1.82-1.62h1a3.25,3.25,0,0,1-1,1.91,2.72,2.72,0,0,1-1.79.65c-2.24,0-3.11-2.15-3.11-4.25,0-2.52,1.17-4.27,3.08-4.27A2.55,2.55,0,0,1,168.93,79a5.94,5.94,0,0,1,.75,3.41Zm3.94-.88c0-1.69-.73-2.83-2-2.83s-1.95,1.21-2,2.83Z"/><path class="cls-5" d="M174.49,80.17c0-1-.54-1.4-1.32-1.4A1.15,1.15,0,0,0,172,80c0,.91.76,1.24,1.75,1.54A2.37,2.37,0,0,1,175.68,84a2.33,2.33,0,0,1-2.42,2.42,2.41,2.41,0,0,1-2.54-2.59h1a1.48,1.48,0,0,0,1.55,1.66A1.31,1.31,0,0,0,174.64,84c0-1-.69-1.37-1.78-1.72A2.27,2.27,0,0,1,171,80a2.26,2.26,0,0,1,4.52.16Z"/><path class="cls-5" d="M181.23,79h-1.14v-.94h1.14V75.5h1v2.57h1.12V79h-1.12v7.18h-1Z"/><path class="cls-5" d="M184.57,78.07h.93c0,.74,0,1.21,0,1.7a2.21,2.21,0,0,1,2.16-1.9V79a.6.6,0,0,0-.37-.11c-.69,0-1.69.85-1.69,2.9v4.36h-1Z"/><path class="cls-5" d="M193.88,86.19H193c0-.71,0-1.16,0-1.55a2.24,2.24,0,0,1-2.15,1.75c-1.62,0-2.72-1.71-2.72-4.25s1-4.27,2.72-4.27A2.2,2.2,0,0,1,193,79.63c0-.49,0-.95,0-1.56h.93Zm-4.78-4c0,1.84.66,3.26,1.9,3.26a1.59,1.59,0,0,0,1.42-.9,6.36,6.36,0,0,0,0-4.75,1.6,1.6,0,0,0-1.42-.89c-1.24,0-1.9,1.42-1.9,3.27Z"/><path class="cls-5" d="M195.85,78.07h.9c0,.46,0,.88,0,1.39a2.33,2.33,0,0,1,2.3-1.59c1.39,0,2.33.81,2.33,2.78v5.54h-1V81c0-.82-.12-2.1-1.55-2.1-1.18,0-2,.82-2,2.52v4.81h-1Z"/><path class="cls-5" d="M206.55,80.17c0-1-.54-1.4-1.31-1.4A1.14,1.14,0,0,0,204.06,80c0,.91.76,1.24,1.74,1.54A2.37,2.37,0,0,1,207.75,84a2.33,2.33,0,0,1-2.42,2.42,2.4,2.4,0,0,1-2.54-2.59h1a1.49,1.49,0,0,0,1.56,1.66A1.3,1.3,0,0,0,206.7,84c0-1-.69-1.37-1.78-1.72A2.27,2.27,0,0,1,203,80a2.27,2.27,0,0,1,4.53.16Z"/><path class="cls-5" d="M209.3,78.07h.93c0,.61,0,1.06,0,1.55a2.2,2.2,0,0,1,2.14-1.75c1.63,0,2.73,1.69,2.73,4.27s-1,4.25-2.73,4.25a2.21,2.21,0,0,1-2.08-1.68c0,.36,0,.78,0,1.48v3h-1Zm4.78,4c0-1.83-.64-3.25-1.9-3.25a1.57,1.57,0,0,0-1.39.89,6,6,0,0,0,0,4.75,1.56,1.56,0,0,0,1.39.9c1.26,0,1.9-1.42,1.9-3.27Z"/><path class="cls-5" d="M216.19,82.11c0-2.31,1-4.24,3.14-4.24s3.12,1.93,3.12,4.26-1,4.26-3.12,4.26-3.14-1.93-3.14-4.26Zm1.05,0c0,2.16.7,3.31,2.1,3.31s2.06-1.15,2.06-3.32-.7-3.32-2.09-3.32-2.07,1.15-2.07,3.32Z"/><path class="cls-5" d="M224,78.07h.92c0,.74,0,1.21,0,1.7a2.22,2.22,0,0,1,2.17-1.9V79a.64.64,0,0,0-.37-.11c-.69,0-1.69.85-1.69,2.9v4.36h-1Z"/><path class="cls-5" d="M228.59,79h-1.14v-.94h1.14V75.5h1v2.57h1.12V79h-1.12v7.18h-1Z"/><path class="cls-5" d="M235.21,80.17c0-1-.54-1.4-1.32-1.4A1.15,1.15,0,0,0,232.71,80c0,.91.77,1.24,1.75,1.54A2.37,2.37,0,0,1,236.4,84,2.33,2.33,0,0,1,234,86.39a2.41,2.41,0,0,1-2.54-2.59h1A1.49,1.49,0,0,0,234,85.46,1.31,1.31,0,0,0,235.36,84c0-1-.69-1.37-1.78-1.72A2.27,2.27,0,0,1,231.67,80a2.26,2.26,0,0,1,4.52.16Z"/><path class="cls-5" d="M241.56,78.07h.93c0,.74,0,1.21,0,1.7a2.22,2.22,0,0,1,2.17-1.9V79a.64.64,0,0,0-.37-.11c-.69,0-1.69.85-1.69,2.9v4.36h-1Z"/><path class="cls-5" d="M245.08,82.11c0-2.31,1-4.24,3.14-4.24s3.12,1.93,3.12,4.26-1,4.26-3.12,4.26-3.14-1.93-3.14-4.26Zm1,0c0,2.16.7,3.31,2.11,3.31s2.06-1.15,2.06-3.32-.7-3.32-2.09-3.32-2.08,1.15-2.08,3.32Z"/><path class="cls-5" d="M258.34,86.19h-.93c0-.46,0-.91,0-1.42a2.28,2.28,0,0,1-2.27,1.62c-1.39,0-2.33-.81-2.33-2.78V78.07h1v5.22c0,.83.12,2.11,1.55,2.11,1.18,0,1.95-.82,1.95-2.52V78.07h1Z"/><path class="cls-5" d="M260.7,79h-1.14v-.94h1.14V75.5h1v2.57h1.12V79H261.7v7.18h-1Z"/><path class="cls-5" d="M264.16,75.14h1V76.6h-1Zm0,2.93h1v8.12h-1Z"/><path class="cls-5" d="M267.9,82.43c0,1.69.69,3,2.06,3a1.85,1.85,0,0,0,1.82-1.62h1a3.19,3.19,0,0,1-1,1.91,2.7,2.7,0,0,1-1.79.65c-2.24,0-3.11-2.15-3.11-4.25,0-2.52,1.17-4.27,3.08-4.27A2.53,2.53,0,0,1,272.11,79a5.94,5.94,0,0,1,.75,3.41Zm3.94-.88c0-1.69-.73-2.83-1.95-2.83s-2,1.21-2,2.83Z"/><path class="cls-5" d="M274.4,78.07h.92c0,.74,0,1.21,0,1.7a2.22,2.22,0,0,1,2.17-1.9V79a.64.64,0,0,0-.37-.11c-.69,0-1.69.85-1.69,2.9v4.36h-1Z"/><path class="cls-5" d="M281.93,80.17c0-1-.54-1.4-1.32-1.4A1.15,1.15,0,0,0,279.43,80c0,.91.77,1.24,1.75,1.54A2.37,2.37,0,0,1,283.12,84a2.33,2.33,0,0,1-2.42,2.42,2.41,2.41,0,0,1-2.54-2.59h1a1.49,1.49,0,0,0,1.55,1.66A1.31,1.31,0,0,0,282.08,84c0-1-.69-1.37-1.78-1.72A2.27,2.27,0,0,1,278.39,80a2.26,2.26,0,0,1,4.52.16Z"/><path class="cls-5" d="M285.89,86.19h-1V84.61h1Z"/></g></g></svg>