<svg xmlns="http://www.w3.org/2000/svg" viewBox="0 0 790 92.58"><defs><style>.cls-1{fill:#fcc600;}.cls-2{fill:#e8415f;}.cls-3{fill:#fff;}</style></defs><title>video4_ui1_bt1</title><g id="Calque_2" data-name="Calque 2"><g id="clignote"><rect class="cls-1" x="348.71" y="-348.71" width="92.58" height="790" rx="28.07" ry="28.07" transform="translate(441.29 -348.71) rotate(90)"/></g><g id="bloc_rose" data-name="bloc rose"><rect class="cls-2" x="8" y="8" width="774" height="76.58" rx="20.07" ry="20.07"/><path class="cls-3" d="M53.73,29.08A10,10,0,0,0,43.6,40.82a11.33,11.33,0,0,1,19-5.88A10,10,0,0,0,53.73,29.08Z"/><path class="cls-3" d="M73.84,53.49a4.79,4.79,0,0,0-5.59-1l-2.58-2.7a15.94,15.94,0,1,0-2.05,2l2.55,2.67a4.79,4.79,0,0,0,.72,5.63l10,10.42a4.81,4.81,0,1,0,6.95-6.64Zm-20.59-.91A13,13,0,1,1,66.52,39.89,13,13,0,0,1,53.25,52.58Z"/></g><g id="url"><path class="cls-3" d="M123.28,53.12l3.08-22.45h5.82l-1.65,10.95L127,61.19h-7.48l-2.17-16.52-2.15,16.52h-7.48l-3.52-19.61L102.6,30.67h5.8l3.08,22.45,3.08-22.45h5.63Z"/><path class="cls-3" d="M154.25,53.12l3.08-22.45h5.82l-1.65,10.95L158,61.19h-7.48l-2.17-16.52-2.15,16.52h-7.48l-3.52-19.61-1.65-10.91h5.8l3.08,22.45,3.08-22.45h5.63Z"/><path class="cls-3" d="M185.22,53.12l3.08-22.45h5.82l-1.65,10.95L189,61.19h-7.48l-2.17-16.52-2.15,16.52H169.7l-3.52-19.61-1.65-10.91h5.8l3.08,22.45,3.08-22.45h5.63Z"/><path class="cls-3" d="M193.93,54.87h6.49v6.32h-6.49Z"/><path class="cls-3" d="M219.35,55.15q0,6.58-7.48,6.6t-7.46-6.6V36.86q0-6.58,7.46-6.58t7.48,6.58Zm-5.77-18.29a1.53,1.53,0,0,0-1.7-1.73h0a1.51,1.51,0,0,0-1.68,1.73V55.15a1.71,1.71,0,1,0,3.41,0Z"/><path class="cls-3" d="M223.51,30.67h7.57q7,0,7,6.6v4.5q0,4.83-5,6.25a13,13,0,0,1-3.43.35h-.36V61.19h-5.77Zm5.77,4.87v7.95H230a5.11,5.11,0,0,0,1.21-.09,1.55,1.55,0,0,0,1.09-1.63v-4.5a1.52,1.52,0,0,0-1.7-1.73Z"/><path class="cls-3" d="M256.28,55.15q0,6.58-7.48,6.6t-7.46-6.6V36.86q0-6.58,7.46-6.58t7.48,6.58v4.33h-5.77V36.86a1.53,1.53,0,0,0-1.7-1.73h0a1.51,1.51,0,0,0-1.68,1.73V55.15a1.71,1.71,0,1,0,3.41,0V50.82h5.77Z"/><path class="cls-3" d="M274.85,50.25l1.65,10.95h-5.82l-1-6.34h-4.24l-1,6.34h-5.8l1.65-10.89,3.52-19.62h7.48ZM269,50l-1.39-9.23L266.2,50Z"/><path class="cls-3" d="M278.05,46.63V41.9H290.8v4.73Z"/><path class="cls-3" d="M307.48,30.67v4.87h-4.59V61.19h-5.77V35.54h-4.59V30.67Z"/><path class="cls-3" d="M310.59,30.67h7.57q7,0,7,6.6v4.5a5.12,5.12,0,0,1-3.78,5.37l5.56,14h-6.29l-3.95-13.13h-.31V61.19h-5.77Zm5.77,4.87v7.95h.69a5.11,5.11,0,0,0,1.21-.09,1.55,1.55,0,0,0,1.09-1.63v-4.5a1.52,1.52,0,0,0-1.7-1.73Z"/><path class="cls-3" d="M344.26,50.25l1.65,10.95h-5.82l-1-6.34h-4.24l-1,6.34h-5.8l1.65-10.89,3.52-19.62h7.48ZM338.39,50,337,40.74,335.62,50Z"/><path class="cls-3" d="M348.85,30.67h5.7l3.85,15v-15h5.4V61.19h-5.7l-3.67-14.62V61.19h-5.58Z"/><path class="cls-3" d="M368,36.86q0-6.58,7.46-6.58t7.48,6.58v4.33h-5.77V36.86a1.53,1.53,0,0,0-1.7-1.73h0a1.51,1.51,0,0,0-1.68,1.73v2.7q0,1.87,4.43,4.68,4.75,3,4.75,7.14v3.78q0,6.6-7.46,6.6T368,55.15V50.82h5.77v4.33a1.71,1.71,0,1,0,3.41,0V51.73q0-2-4.43-4.83-4.75-3-4.75-7.24Z"/><path class="cls-3" d="M387.06,30.67h7.57q7,0,7,6.6v4.5q0,4.83-5,6.25a13,13,0,0,1-3.43.35h-.36V61.19h-5.77Zm5.77,4.87v7.95h.69a5.11,5.11,0,0,0,1.21-.09,1.55,1.55,0,0,0,1.09-1.63v-4.5a1.52,1.52,0,0,0-1.7-1.73Z"/><path class="cls-3" d="M419.83,55.15q0,6.58-7.48,6.6t-7.46-6.6V36.86q0-6.58,7.46-6.58t7.48,6.58Zm-5.77-18.29a1.53,1.53,0,0,0-1.7-1.73h0a1.51,1.51,0,0,0-1.68,1.73V55.15a1.71,1.71,0,1,0,3.41,0Z"/><path class="cls-3" d="M424,30.67h7.57q7,0,7,6.6v4.5a5.12,5.12,0,0,1-3.78,5.37l5.56,14H434l-3.95-13.13h-.31V61.19H424Zm5.77,4.87v7.95h.69a5.11,5.11,0,0,0,1.21-.09,1.56,1.56,0,0,0,1.09-1.63v-4.5a1.52,1.52,0,0,0-1.7-1.73Z"/><path class="cls-3" d="M455.82,30.67v4.87h-4.59V61.19h-5.77V35.54h-4.59V30.67Z"/><path class="cls-3" d="M458.59,36.86q0-6.58,7.46-6.58t7.48,6.58v4.33h-5.77V36.86a1.53,1.53,0,0,0-1.7-1.73h0a1.51,1.51,0,0,0-1.68,1.73v2.7q0,1.87,4.43,4.68,4.75,3,4.75,7.14v3.78q0,6.6-7.46,6.6t-7.48-6.6V50.82h5.77v4.33a1.71,1.71,0,1,0,3.41,0V51.73q0-2-4.43-4.83-4.74-3-4.75-7.24Z"/><path class="cls-3" d="M476.31,46.63V41.9h12.75v4.73Z"/><path class="cls-3" d="M491.83,36.86q0-6.58,7.46-6.58t7.48,6.58v4.33H501V36.86a1.53,1.53,0,0,0-1.7-1.73h0a1.51,1.51,0,0,0-1.68,1.73v2.7q0,1.87,4.43,4.68,4.75,3,4.75,7.14v3.78q0,6.6-7.46,6.6t-7.48-6.6V50.82h5.77v4.33a1.71,1.71,0,1,0,3.41,0V51.73q0-2-4.43-4.83-4.74-3-4.75-7.24Z"/><path class="cls-3" d="M510.93,30.67h13.58v4.87H516.7v7.95h6.72v4.88H516.7v8h7.81v4.87H510.93Z"/><path class="cls-3" d="M528.15,30.67h7.57q7,0,7,6.6v4.5a5.12,5.12,0,0,1-3.78,5.37l5.56,14h-6.29l-3.95-13.13h-.31V61.19h-5.77Zm5.77,4.87v7.95h.69a5.11,5.11,0,0,0,1.21-.09,1.56,1.56,0,0,0,1.09-1.63v-4.5a1.52,1.52,0,0,0-1.7-1.73Z"/><path class="cls-3" d="M558,61.19h-7.48L547,41.59,545.4,30.67h5.82l3.07,23.92,3.08-23.92h5.82l-1.65,10.95Z"/><path class="cls-3" d="M566.21,30.67H572V61.19h-5.77Z"/><path class="cls-3" d="M591.17,55.15q0,6.58-7.48,6.6t-7.46-6.6V36.86q0-6.58,7.46-6.58t7.48,6.58v4.33H585.4V36.86a1.53,1.53,0,0,0-1.7-1.73h0A1.51,1.51,0,0,0,582,36.86V55.15a1.71,1.71,0,1,0,3.41,0V50.82h5.77Z"/><path class="cls-3" d="M595.16,30.67h13.58v4.87h-7.81v7.95h6.72v4.88h-6.72v8h7.81v4.87H595.16Z"/><path class="cls-3" d="M612,36.86q0-6.58,7.46-6.58T627,36.86v4.33H621.2V36.86a1.53,1.53,0,0,0-1.7-1.73h0a1.51,1.51,0,0,0-1.68,1.73v2.7q0,1.87,4.43,4.68,4.75,3,4.75,7.14v3.78q0,6.6-7.46,6.6T612,55.15V50.82h5.77v4.33a1.71,1.71,0,1,0,3.41,0V51.73q0-2-4.43-4.83-4.74-3-4.75-7.24Z"/><path class="cls-3" d="M631,54.87h6.5v6.32H631Z"/><path class="cls-3" d="M656.38,55.15q0,6.58-7.48,6.6t-7.46-6.6V36.86q0-6.58,7.46-6.58t7.48,6.58v4.33h-5.77V36.86a1.53,1.53,0,0,0-1.7-1.73h0a1.51,1.51,0,0,0-1.68,1.73V55.15a1.71,1.71,0,1,0,3.41,0V50.82h5.77Z"/><path class="cls-3" d="M675,55.15q0,6.58-7.48,6.6T660,55.15V36.86q0-6.58,7.46-6.58T675,36.86ZM669.2,36.86a1.53,1.53,0,0,0-1.7-1.73h0a1.51,1.51,0,0,0-1.68,1.73V55.15a1.71,1.71,0,1,0,3.41,0Z"/><path class="cls-3" d="M690.22,50.9l5.33-20.23h5.7V61.19h-5.56v-14l-3.39,14h-4.05l-3.52-14.13V61.19h-5.61V30.67h5.7Z"/></g><g id="pointeur"><polygon class="cls-3" points="727.25 85.27 728.92 84.87 733.45 78.99 741.73 88.83 746.68 84.81 739.56 74.44 747.21 70.98 724.26 56.77 721.82 55.3 727.25 85.27"/><path d="M734.14,81.27c-.77,1.17-1.49,2.3-2.24,3.4a7.24,7.24,0,0,1-1.13,1.43,2.91,2.91,0,0,1-4.62-1.26,7.08,7.08,0,0,1-.2-.7l-6.16-25.38a3.26,3.26,0,0,1,.34-2.67A2.89,2.89,0,0,1,723.76,55c1.12.55,2.2,1.2,3.28,1.82l20.11,11.43a2.93,2.93,0,0,1,.4,5,7.51,7.51,0,0,1-1.72.73c-1.25.44-2.5.85-3.76,1.27l-.26.12c.1.14.19.27.28.39l5.07,6.48a2.89,2.89,0,0,1,.4,3.31,3.61,3.61,0,0,1-.93,1.09c-.92.75-1.89,1.46-2.85,2.17a3,3,0,0,1-4.44-.66l-4.91-6.55ZM722.64,57.7l6.28,26.16,5.07-7.7,7.87,10.51L745,84.28,736.92,74l9-3Z"/></g></g></svg>