<svg xmlns="http://www.w3.org/2000/svg" viewBox="0 0 256.03 97.65"><defs><style>.cls-1{fill:#4e96b3;}</style></defs><title>video4_ui3_bt3</title><g id="Calque_2" data-name="Calque 2"><g id="logo_neo" data-name="logo neo"><path class="cls-1" d="M34.36,56.74H22.3l11-11a.65.65,0,1,0-.92-.92L.19,77a.65.65,0,0,0,.92.92L13.45,65.59V81.73a.38.38,0,0,0,.38.38h6a.38.38,0,0,0,.38-.38V63.22H31.66q.67,0,.67.81v17.7a.38.38,0,0,0,.38.38h6a.38.38,0,0,0,.38-.38V61.33Q39.08,56.74,34.36,56.74ZM64,56.81H47.84q-4.71,0-4.71,4.57V77.53q0,4.58,4.71,4.58H68.32a.38.38,0,0,0,.38-.38V76a.38.38,0,0,0-.38-.38H50.53q-.67,0-.67-.81V64.07q0-.81.67-.81H61.3c.45,0,.67.27.67.81V66H54.1a2.52,2.52,0,0,0-2.52,2.52v1.43a2.52,2.52,0,0,0,2.52,2.52H64.36a4.35,4.35,0,0,0,4.35-4.35V61.38Q68.7,56.81,64,56.81Zm29.67-.07H77.47q-4.72,0-4.72,4.59V77.52q0,4.59,4.72,4.59H93.66q4.72,0,4.72-4.59V61.33Q98.39,56.74,93.66,56.74Zm-2,17.91a1,1,0,0,1-1,1H80.48a1,1,0,0,1-1-1V64.2a1,1,0,0,1,1-1H90.65a1,1,0,0,1,1,1Z"/><path class="cls-1" d="M127.69,45.87h-6a.38.38,0,0,0-.38.38V56.74H107.16q-4.72,0-4.72,4.59V77.52q0,4.59,4.72,4.59h20.54a.38.38,0,0,0,.38-.38V46.25A.38.38,0,0,0,127.69,45.87Zm-6.37,28.77a1,1,0,0,1-1,1H110.17a1,1,0,0,1-1-1V64.2a1,1,0,0,1,1-1h10.17a1,1,0,0,1,1,1Zm125.49-27.5h.28c.33,0,.48.12.53.4a2.17,2.17,0,0,0,.2.62h.63a2,2,0,0,1-.19-.63.75.75,0,0,0-.46-.62v0a.65.65,0,0,0,.53-.59.7.7,0,0,0-.25-.56,1.58,1.58,0,0,0-.88-.19,5.13,5.13,0,0,0-1,.08v2.54h.59Zm0-1.15a1.41,1.41,0,0,1,.33,0c.37,0,.54.15.54.39s-.26.37-.59.37h-.28ZM138.49,56.74h-6a.38.38,0,0,0-.38.38V81.73a.38.38,0,0,0,.38.38h6a.38.38,0,0,0,.38-.38V57.12A.38.38,0,0,0,138.49,56.74Zm108.73-7.33a2.56,2.56,0,1,0-2.62-2.57A2.55,2.55,0,0,0,247.22,49.41Zm0-4.6a2,2,0,0,1,2,2,1.94,1.94,0,0,1-1.94,2,2,2,0,0,1,0-4.06ZM179,45.87h-6a.38.38,0,0,0-.38.38V52a.38.38,0,0,0,.38.38h6a.38.38,0,0,0,.38-.38v-5.8A.38.38,0,0,0,179,45.87Zm21.59,10.87h-5V46.25a.38.38,0,0,0-.38-.38h-6a.38.38,0,0,0-.38.38V56.74h-5a.38.38,0,0,0-.38.38v5.72a.38.38,0,0,0,.38.38h5v14.3q0,4.59,4.72,4.59h7a.38.38,0,0,0,.38-.38V76a.38.38,0,0,0-.38-.38h-4.34q-.68,0-.68-.81V63.22h5a.38.38,0,0,0,.38-.38V57.12A.38.38,0,0,0,200.56,56.74Zm30.06,20.78V61.33q0-4.59-4.72-4.59H205.36a.38.38,0,0,0-.38.38v5.72a.38.38,0,0,0,.38.38h17.49l-12,3C207,67.53,205,68.7,205,70.77v6.75q0,4.59,4.72,4.59h16.19Q230.62,82.11,230.62,77.52Zm-6.75-2.7c0,.54-.23.81-.68.81H212.4q-.68,0-.68-.81V73.47c0-.63.49-1,4.89-2.19l7.26-1.81Zm10.56,6.54L222.75,93.09a.65.65,0,0,0,.92.92l32.17-32.17a.65.65,0,0,0-.92-.92L241.17,74.51V46.11a.24.24,0,0,0-.24-.24h-6.26a.24.24,0,0,0-.24.24ZM179,56.74h-6a.38.38,0,0,0-.38.38V81.73a.38.38,0,0,0,.38.38h6a.38.38,0,0,0,.38-.38V57.12A.38.38,0,0,0,179,56.74Zm-10.79,0H147.64q-4.72,0-4.72,4.59V77.52q0,4.59,4.72,4.59H161.8v8.26q0,.81-.7.81H143A1.83,1.83,0,0,0,141.19,93v2.82A1.83,1.83,0,0,0,143,97.65h20.81q4.72,0,4.72-4.59V57.12A.38.38,0,0,0,168.17,56.74Zm-6.33,17.91a1,1,0,0,1-1,1H150.68a1,1,0,0,1-1-1V64.2a1,1,0,0,1,1-1h10.17a1,1,0,0,1,1,1ZM138.49,45.87h-6a.38.38,0,0,0-.38.38V52a.38.38,0,0,0,.38.38h6a.38.38,0,0,0,.38-.38v-5.8A.38.38,0,0,0,138.49,45.87Z"/></g><g id="une_production" data-name="une production"><path class="cls-1" d="M69.63.18V9.27a4.24,4.24,0,0,1-1.1,3.11,5.09,5.09,0,0,1-6.36,0,4.17,4.17,0,0,1-1.11-3.09V.18h1.12V9.29a4.05,4.05,0,0,0,.25,1.54,2.46,2.46,0,0,0,1.69,1.51,4.61,4.61,0,0,0,1.2.15,3.36,3.36,0,0,0,2.36-.76,3.19,3.19,0,0,0,.82-2.45V.18Z"/><path class="cls-1" d="M73.6.18,79.74,10.9h0V.18h1V13.31H80L73.71,2.41h0v10.9h-1V.18Z"/><path class="cls-1" d="M91.18.18v1h-6V6.07H90V7H85.13v5.32h6.34v1H84V.18Z"/><path class="cls-1" d="M102.57.18a3.44,3.44,0,0,1,2.65,1A4,4,0,0,1,106.14,4a4.06,4.06,0,0,1-.91,2.82,3.35,3.35,0,0,1-2.63,1H99.53v5.49H98.41V.18Zm-3,6.7h3a2.3,2.3,0,0,0,1.88-.71A3.39,3.39,0,0,0,105,4a3.31,3.31,0,0,0-.58-2.16,2.33,2.33,0,0,0-1.88-.69h-3Z"/><path class="cls-1" d="M111.94,7.41h-2.35v5.9h-1.12V.18h3.82a3.65,3.65,0,0,1,2.71.91,3.52,3.52,0,0,1,.9,2.59,3.86,3.86,0,0,1-.72,2.49,3.14,3.14,0,0,1-2.08,1.1l3.68,6h-1.34Zm-2.35-.94h2.63a2.38,2.38,0,0,0,2-.74,3.26,3.26,0,0,0,.56-2,2.87,2.87,0,0,0-.55-1.9,2.45,2.45,0,0,0-1.95-.65h-2.7Z"/><path class="cls-1" d="M122.69,0a4.21,4.21,0,0,1,3.19,1.15A4.4,4.4,0,0,1,127,4.33v4.8a4.46,4.46,0,0,1-1.11,3.21,5,5,0,0,1-6.37,0,4.43,4.43,0,0,1-1.1-3.19V4.35a4.43,4.43,0,0,1,1.1-3.19A4.2,4.2,0,0,1,122.69,0Zm3.17,4.35a3.59,3.59,0,0,0-.79-2.51,3.71,3.71,0,0,0-4.75,0,3.56,3.56,0,0,0-.8,2.51v4.8a3.58,3.58,0,0,0,.8,2.53,3.71,3.71,0,0,0,4.75,0,3.65,3.65,0,0,0,.79-2.54Z"/><path class="cls-1" d="M134,.18a4.3,4.3,0,0,1,3.23,1.17,4.46,4.46,0,0,1,1.13,3.23V9a4.34,4.34,0,0,1-1.13,3.18A4.33,4.33,0,0,1,134,13.31h-4.2V.18Zm3.26,4.44A3.64,3.64,0,0,0,136.39,2,3.18,3.18,0,0,0,134,1.16h-3.08V12.35H134a3.22,3.22,0,0,0,2.43-.86A3.49,3.49,0,0,0,137.22,9Z"/><path class="cls-1" d="M149.48.18V9.27a4.24,4.24,0,0,1-1.1,3.11,5.09,5.09,0,0,1-6.36,0,4.17,4.17,0,0,1-1.11-3.09V.18H142V9.29a4.06,4.06,0,0,0,.25,1.54A2.46,2.46,0,0,0,144,12.34a4.6,4.6,0,0,0,1.2.15,3.36,3.36,0,0,0,2.36-.76,3.19,3.19,0,0,0,.82-2.45V.18Z"/><path class="cls-1" d="M156.11,0a4,4,0,0,1,1.27.2,3.88,3.88,0,0,1,1.07.54,3.73,3.73,0,0,1,.82.82,3.36,3.36,0,0,1,.51,1l-.82.34a3,3,0,0,0-1-1.42A2.84,2.84,0,0,0,156.16,1a2.75,2.75,0,0,0-2.23.91,3.92,3.92,0,0,0-.76,2.59V9.11a4.51,4.51,0,0,0,.2,1.38,3.2,3.2,0,0,0,.58,1.09,2.58,2.58,0,0,0,.94.72,3.09,3.09,0,0,0,1.29.25,4.25,4.25,0,0,0,1-.11,2.28,2.28,0,0,0,.79-.35,2.13,2.13,0,0,0,.59-.65,4.08,4.08,0,0,0,.41-1l.85.31a3.48,3.48,0,0,1-1.32,2.09,4.12,4.12,0,0,1-2.37.64,4.34,4.34,0,0,1-1.68-.32,3.53,3.53,0,0,1-1.29-.9,4.08,4.08,0,0,1-.81-1.39A5.23,5.23,0,0,1,152,9.11V4.46a4.71,4.71,0,0,1,1.07-3.26A3.8,3.8,0,0,1,156.11,0Z"/><path class="cls-1" d="M168.95.18v1h-3.48V13.31h-1.1V1.18h-3.48v-1Z"/><path class="cls-1" d="M172.35.18V13.31h-1.12V.18Z"/><path class="cls-1" d="M179.77,0A4.22,4.22,0,0,1,183,1.15a4.4,4.4,0,0,1,1.1,3.18v4.8a4.46,4.46,0,0,1-1.1,3.21,5,5,0,0,1-6.37,0,4.43,4.43,0,0,1-1.1-3.19V4.35a4.43,4.43,0,0,1,1.1-3.19A4.2,4.2,0,0,1,179.77,0Zm3.17,4.35a3.59,3.59,0,0,0-.79-2.51,3.71,3.71,0,0,0-4.75,0,3.56,3.56,0,0,0-.8,2.51v4.8a3.59,3.59,0,0,0,.8,2.53,3.71,3.71,0,0,0,4.75,0,3.65,3.65,0,0,0,.79-2.54Z"/><path class="cls-1" d="M187.78.18l6.14,10.72h0V.18h1V13.31h-.83l-6.25-10.9h0v10.9h-1V.18Z"/></g></g></svg>