<svg xmlns="http://www.w3.org/2000/svg" xmlns:xlink="http://www.w3.org/1999/xlink" viewBox="0 0 135.39 109.9"><defs><style>.cls-1{fill:url(#radial-gradient);filter:url(#luminosity-invert-noclip);}.cls-2{fill:#fff;}.cls-3{mask:url(#mask);}.cls-4{fill:#4e96b3;}.cls-5{fill:#fcc600;}</style><radialGradient id="radial-gradient" cx="157.25" cy="109.9" r="121.13" gradientUnits="userSpaceOnUse"><stop offset="0" stop-color="#fff"/><stop offset="1"/></radialGradient><filter id="luminosity-invert-noclip" x="-162.71" y="-189.98" width="365.95" height="299.88" filterUnits="userSpaceOnUse" color-interpolation-filters="sRGB"><feColorMatrix values="-1 0 0 0 1 0 -1 0 0 1 0 0 -1 0 1 0 0 0 1 0" result="invert"/><feFlood flood-color="#fff" result="bg"/><feBlend in="invert" in2="bg"/></filter><mask id="mask" x="-162.71" y="-189.98" width="365.95" height="299.88" maskUnits="userSpaceOnUse"><ellipse class="cls-1" cx="20.27" cy="-62.06" rx="182.97" ry="127.92"/></mask></defs><title>video4_logo2</title><g id="Calque_2" data-name="Calque 2"><g id="adec"><polygon class="cls-2" points="135.4 109.9 35 84.19 35 25.7 135.4 0 135.4 109.9"/><g class="cls-3"><polygon class="cls-4" points="135.4 109.9 35 84.19 35 25.7 135.4 0 135.4 109.9"/></g><path class="cls-2" d="M65.23,40.86a3.76,3.76,0,0,0-1.83-.35,3.87,3.87,0,0,0-1.85.35,1.54,1.54,0,0,0-.62,1.46V61.91a2.36,2.36,0,0,1-1.47,2,10,10,0,0,1-4.7.83H45.82a10,10,0,0,1-4.7-.83,2.36,2.36,0,0,1-1.46-2V53.54a2.34,2.34,0,0,1,1.46-2,10.21,10.21,0,0,1,4.7-.81H56q.89,0,1.14-.48a3.26,3.26,0,0,0,.25-1.45,3.38,3.38,0,0,0-.25-1.47q-.25-.5-1.14-.5H45.67q-10.91,0-10.91,6.71v8.37q0,6.71,10.91,6.71h9.25q10.91,0,10.91-6.71V42.33A1.56,1.56,0,0,0,65.23,40.86Z"/><path class="cls-2" d="M113.21,68.62q-10.91,0-10.91-6.71V53.54q0-6.71,10.91-6.71h18.05a1.21,1.21,0,0,1,1.16.48,3.15,3.15,0,0,1,.27,1.48,3,3,0,0,1-.27,1.45,1.21,1.21,0,0,1-1.16.48h-17.9a10.21,10.21,0,0,0-4.7.81,2.34,2.34,0,0,0-1.46,2v8.37a2.36,2.36,0,0,0,1.46,2,10,10,0,0,0,4.7.83h18q.89,0,1.14.48a3.25,3.25,0,0,1,.25,1.45,3.37,3.37,0,0,1-.25,1.47q-.25.5-1.14.5Z"/><path class="cls-2" d="M97.12,48.49q-2.56-1.66-8.35-1.66h-8.9Q69,46.84,69,53.54v8.37q0,6.71,10.91,6.71H98.29q.89,0,1.14-.5a3.38,3.38,0,0,0,.25-1.47,3.26,3.26,0,0,0-.25-1.45q-.25-.48-1.14-.48H80a10,10,0,0,1-4.7-.83,2.36,2.36,0,0,1-1.46-2V53.54a2.34,2.34,0,0,1,1.46-2,10.21,10.21,0,0,1,4.7-.81h8.6a11.15,11.15,0,0,1,4.72.73,2.27,2.27,0,0,1,1.45,2.08v2.58H79q-.87,0-1.12.47A3.19,3.19,0,0,0,77.65,58a3.32,3.32,0,0,0,.25,1.44q.25.49,1.12.49H97.37a2.84,2.84,0,0,0,1.89-.42A2.17,2.17,0,0,0,99.68,58V53.54A5.6,5.6,0,0,0,97.12,48.49Z"/><path class="cls-5" d="M38.94,65.76l-16.81-24a3.06,3.06,0,0,0-1.18-1,4.2,4.2,0,0,0-1.83-.35,4.44,4.44,0,0,0-1.89.35,2.75,2.75,0,0,0-1.16,1L8,54,.27,65.76a1.71,1.71,0,0,0-.27.85,1.43,1.43,0,0,0,.25.83,2.61,2.61,0,0,0,.66.66,3.09,3.09,0,0,0,.91.44,3.29,3.29,0,0,0,1,.15,2.57,2.57,0,0,0,.94-.17,1.46,1.46,0,0,0,.71-.6L19.12,45.13l7.49,11H14.47q-.89,0-1.14.48A3.26,3.26,0,0,0,13.08,58a3.39,3.39,0,0,0,.25,1.47q.25.5,1.14.5h14.8l5.42,7.94a1.7,1.7,0,0,0,.73.6,2.53,2.53,0,0,0,1,.17,3.55,3.55,0,0,0,1.91-.58,2.26,2.26,0,0,0,.66-.66,1.46,1.46,0,0,0,.25-.81A1.64,1.64,0,0,0,38.94,65.76Z"/></g></g></svg>