<svg xmlns="http://www.w3.org/2000/svg" viewBox="0 0 115.51 115.51"><defs><style>.cls-1{isolation:isolate;}.cls-2{fill:#fcc600;}.cls-3{fill:#4e96b3;}.cls-4{fill:#d8d8d8;opacity:0.5;mix-blend-mode:multiply;}</style></defs><title>video4_ui2_bt1</title><g class="cls-1"><g id="Calque_2" data-name="Calque 2"><g id="links"><circle class="cls-2" cx="57.76" cy="57.76" r="57.76"/><path class="cls-3" d="M65.32,75.17c-.2.22-.39.45-.6.66-3.93,3.93-7.88,7.83-11.78,11.8a19.2,19.2,0,0,1-12.49,6,16.12,16.12,0,0,1-11.57-3.72,16.36,16.36,0,0,1-6.05-10.45,17.16,17.16,0,0,1,4.59-14.84c5-5.52,10.48-10.68,15.82-15.91a16,16,0,0,1,1.9-1.52,17.65,17.65,0,0,1,20.9.09A10.38,10.38,0,0,1,67.89,49a4.57,4.57,0,0,1-6.27,6.55c-.52-.39-1-.86-1.52-1.22a8.75,8.75,0,0,0-10.6,1.1c-.26.23-.52.48-.77.73Q41.88,63,35,69.79a10.68,10.68,0,0,0-3,5,7.59,7.59,0,0,0,9.08,9.43,10.15,10.15,0,0,0,5.09-2.88c2.41-2.42,4.84-4.82,7.24-7.25a1.1,1.1,0,0,1,1.57-.23,14.52,14.52,0,0,0,10.18,1.28Z"/><path class="cls-3" d="M52.57,39.33c.31-.34.61-.69.94-1,4.19-4.17,8.32-8.4,12.58-12.48a18.12,18.12,0,0,1,10.06-4.75A16.84,16.84,0,0,1,95.08,35.17a17.32,17.32,0,0,1-4.57,14.7c-5.15,5.65-10.61,11-16.19,16.23A17.7,17.7,0,0,1,52,67.35a11.1,11.1,0,0,1-1.92-1.75A4.57,4.57,0,0,1,56.29,59c.5.37.94.82,1.45,1.17a8.59,8.59,0,0,0,9.9-.46,12.88,12.88,0,0,0,1.47-1.28Q76,51.58,82.86,44.71a10.64,10.64,0,0,0,3-5,7.59,7.59,0,0,0-9.09-9.42,10.05,10.05,0,0,0-5,2.83c-2.42,2.41-4.85,4.81-7.24,7.25a1.19,1.19,0,0,1-1.7.25,14.5,14.5,0,0,0-10.11-1.25Z"/><path class="cls-3" d="M52.65,39.41c-.07,0-.11,0-.08-.08Z"/><path class="cls-3" d="M65.24,75.09c.07,0,.11,0,.07.07Z"/><path class="cls-4" d="M115.51,57.76A57.76,57.76,0,0,0,57.76,0V115.51A57.76,57.76,0,0,0,115.51,57.76Z"/></g></g></g></svg>